<?xml version="1.0" encoding="UTF-8"?>
<svg viewBox="0 0 22 13" version="1.1" xmlns="http://www.w3.org/2000/svg" xmlns:xlink="http://www.w3.org/1999/xlink">
    <!-- Generator: sketchtool 50.2 (55047) - http://www.bohemiancoding.com/sketch -->
    <title>0CB2C5C7-1168-4F54-8544-1D38327D1FAF</title>
    <desc>Created with sketchtool.</desc>
    <defs></defs>
    <g id="Page-1" stroke="none" stroke-width="1" fill="none" fill-rule="evenodd">
        <g id="Eqtrader" transform="translate(-813.000000, -1063.000000)">
            <g id="Group-29-Copy" transform="translate(539.000000, 933.000000)">
                <path d="M0,50 L880,50 L880,186 C880,188.209139 878.209139,190 876,190 L4,190 C1.790861,190 2.705415e-16,188.209139 0,186 L0,50 Z" id="BG-Copy-24" fill="#FFFFFF"></path>
                <g id="Group-16-Copy" transform="translate(20.000000, 128.000000)" fill="#1BB934" fill-rule="nonzero">
                    <path d="M272.28886,4.0285503 L269.824302,4.0285503 C269.264133,4.0285503 268.810026,3.57444385 268.810026,3.01427515 L268.810026,3.01427515 C268.810026,2.45410645 269.264133,2 269.824302,2 L274.631066,2 C275.166878,2 275.601239,2.45410645 275.601239,3.01427515 L275.601239,8.12975283 C275.601239,8.6655647 275.166878,9.09992605 274.631066,9.09992605 L274.631066,9.09992605 C274.095254,9.09992605 273.660892,8.6655647 273.660892,8.12975283 L273.660892,5.46295197 L266.100436,13.3670899 C265.72156,13.763189 265.10728,13.763189 264.728404,13.3670899 L260.563554,9.01291499 L255.660759,14.1175434 C255.296832,14.4964527 254.694643,14.5085978 254.315734,14.1446704 C254.306041,14.13536 254.296545,14.1258452 254.287255,14.1161325 L254.287255,14.1161325 C253.903741,13.7151853 253.904319,13.083232 254.288566,12.6829871 L259.877538,6.86131249 C260.256414,6.4652134 260.870694,6.4652134 261.24957,6.86131249 L265.41442,11.2154874 L272.28886,4.0285503 Z" id="UpIcon"></path>
                </g>
            </g>
        </g>
    </g>
</svg>
