<?xml version="1.0" encoding="utf-8"?>
<!-- Generator: Adobe Illustrator 22.1.0, SVG Export Plug-In . SVG Version: 6.00 Build 0)  -->
<svg version="1.1" id="Layer_2_1_" xmlns="http://www.w3.org/2000/svg" xmlns:xlink="http://www.w3.org/1999/xlink" x="0px" y="0px"
	 viewBox="0 0 640 480" style="enable-background:new 0 0 640 480;" xml:space="preserve">
<style type="text/css">
	.st0{fill:#6C1E74;}
</style>
<path class="st0" d="M567,185.5c-5.1-21.1-12.5-43.1-22.9-64.4c-7.8-16-17.3-31.5-28.9-45.9C498,53.6,476.2,34.8,449,21.4
	C421.8,7.9,389.3,0,350.7,0c-7.1,0-14.3,0.3-21.8,0.8c-31.4,2.3-59.1,7.8-83.6,15.5l0,0c0,0-159.1,43.5-178.7,189.8
	c-2.5,10.4-3.2,16.6-3.2,16.8v0.2v0.2c-0.1,1.5-0.1,3.4-0.1,5.7c0,10.8,0.7,29.1,5.1,51.2c2.5,15.1,6.5,28.6,11.7,40.9
	c1.7,4.4,3.6,8.9,5.6,13.4c13,28.7,33.5,58.5,65.5,83.6c32,25.1,75.6,45.6,134.4,56c22.8,4,43.9,5.8,63.4,5.8
	c42.2,0,76.9-8.6,105.4-22.5c21.4-10.5,39.1-23.8,53.9-38.7c22.1-22.3,37.4-47.7,47.8-71.5c10.4-23.8,15.9-45.9,18.6-61.6
	c1.1-6.8,1.8-15.4,1.8-25.5C576.4,239.9,573.8,213.6,567,185.5z M437.8,320.1c-0.1-5.4-1.9-7.7-6.1-7.7c-5.3-0.1-9.2,3.2-9.2,7.9
	c-0.1,6.5,0,13-0.1,19.5c-0.1,4.1-1.8,6.1-5.3,6.3c-3.6,0.1-5.6-2.1-5.7-6.3c-0.1-5.3,0.2-10.6-0.1-15.8c-0.2-3.6-0.8-7.2-1.8-10.7
	c-0.9-3.2-2-6.3,1.5-8.2c3.3-1.9,6-0.4,7.9,2.6c0.3,0.4,0.8,0.7,1.6,1.4c5.1-5,11.1-6.3,17.8-5c6.2,1.2,10,5.1,10.3,11.7
	c0.4,8.4,0.3,16.8,0.2,25.1c-0.1,3.4-2.6,5.4-6,5.2c-3.4-0.3-5.1-2.1-5.1-5.5C437.8,333.6,437.8,326.8,437.8,320.1z M331.8,107.7
	c6.2,0.5,10.1,4.8,10.4,11c0.4,8.5,0.2,17,0.2,25.5c0,3.5-2.2,5.1-5.5,5.1c-3.3,0-5.4-1.8-5.4-5.3c-0.1-6.6,0-13.3-0.1-19.9
	c-0.1-6.1-1.8-8.5-6.1-8.6c-5.4-0.1-9.1,3.5-9.2,8.9c0,6.2,0.1,12.4-0.1,18.6c-0.1,4.1-1.9,6.1-5.3,6.2c-3.4,0.1-5.5-2.2-5.5-6.4
	c-0.1-15-0.1-30,0-45c0-4.3,1.6-6.1,5.2-6.2c3.9-0.1,5.5,1.7,5.7,6.1c0.1,3.9,0,7.8,0,10.8C321.9,108.4,326.9,107.3,331.8,107.7z
	 M311.1,187.3c5.2,10.2,10.6,20.4,15.9,30.6c0.6,1.2,1.3,2.3,2.3,4c0.8-1.2,1.4-1.9,1.9-2.8c5.3-10.2,10.5-20.4,15.9-30.6
	c1.2-2.2,2.8-4.4,4.8-5.8c3.7-2.5,8.9-1.2,10.7,3c1.9,4.5,3.2,9.4,4.1,14.3c3.7,18.5,5.1,37.2,5.3,56c0.1,7.1-3.7,10.5-10,9.5
	c-4.4-0.6-6.9-3.9-7.1-9.4c-0.4-9.5-0.6-18.9-1.3-28.3c-0.4-5-1.3-10-1.9-15.1c-0.4-0.1-0.8-0.1-1.2-0.1c-4.3,8.4-8.6,16.7-13,25
	c-2.8,5.4-7.2,7.4-11.9,5.1c-1.9-0.9-3.7-2.7-4.7-4.6c-3.9-7-7.3-14.1-11-21.2c-0.9-1.7-1.9-3.3-2.9-5c-0.4,0.1-0.8,0.2-1.1,0.2
	c-0.8,11.3-1.7,22.5-2.4,33.8c-0.2,3.5-0.1,7-0.2,10.5c-0.2,5.3-3.3,8.8-7.9,9.1c-5.4,0.3-8.5-2.2-8.8-8.2
	c-0.3-6.6-0.1-13.3,0.6-19.8c1.8-15.1,4-30.2,6.1-45.3c0.2-1.2,0.7-2.3,1-3.5c1.1-4,3.4-6.8,7.8-7
	C306.3,181.4,309.1,183.5,311.1,187.3z M160.5,328c2.7,7.3,11.6,10.5,19.8,7.4c1.4-0.5,2.6-1.3,4-1.9c2.6-0.9,5.3-1.3,6.7,1.6
	c1.4,2.7,0.5,5.4-2,7c-4.6,2.8-11.9,4.6-15.2,4.6c-17.1-0.1-27.5-11.2-26.7-28.7c0.1-3.1,0.6-6.2,1.2-9.2
	c3.4-16.7,21.8-22.2,34.4-16.9c3.4,1.5,6.3,3.7,6.5,7.5c0.1,1.9-0.8,4.8-2.3,5.8c-1.5,0.9-4.1,0-6.3-0.3c-0.5-0.1-1-0.9-1.5-1.3
	c-6.5-6.3-14.7-4.8-18.3,3.6C158.1,314.2,158,321.2,160.5,328z M197.6,325.2c-0.1-13.8,7.4-21.8,20.4-21.8
	c12.6-0.1,20.2,8.1,20.3,21.6c0.1,13.6-7.4,21.7-20,21.8C205,346.8,197.6,339.1,197.6,325.2z M281.8,339.7c-0.1,4.2-2.1,6.3-5.7,6.3
	c-3.5-0.1-5.3-2-5.3-6.2c-0.1-6.9,0-13.8-0.1-20.7c-0.1-4.7-1.4-6.4-4.9-6.3c-4,0.1-6.5,2.6-6.6,6.6c-0.1,6.6,0,13.3,0,19.9
	c0,4.2-2.3,6.7-5.8,6.7c-3.6-0.1-5.2-2.1-5.3-6.7c-0.1-5,0.2-10-0.1-15c-0.2-3.4-0.8-7-1.8-10.2c-1.6-5.1-1.3-7.9,1.8-9.2
	c4-1.7,6.4,0.5,8.2,4.1c11.7-7.1,15.5-7.2,24-0.5c3.5-4.1,8.3-5.4,13.7-4.7c5.7,0.6,9.9,4,10.3,9.7c0.6,9.3,0.5,18.6,0.4,28
	c-0.1,3.3-2.6,4.6-5.7,4.6c-3.4-0.1-5.3-1.9-5.3-5.4c-0.1-6.8,0-13.5-0.1-20.3c-0.1-5.7-1.2-7.4-4.6-7.5c-4.3-0.1-7.1,3-7.1,7.9
	C281.8,327,281.9,333.4,281.8,339.7z M327.1,355.5c-0.1,4.4-1.8,6.5-5.4,6.5c-3.7,0-5.4-2-5.4-6.5c-0.1-10.8,0.1-21.6-0.1-32.4
	c-0.1-3.4-0.8-7-1.9-10.2c-1.1-3.2-1.5-6,1.6-7.9c3.1-2,5.7-0.5,7.7,2.2c0.5,0.6,1.1,1.2,1.8,2c9.4-7.9,20.6-7.4,27.2,0.9
	c8.5,10.6,4,30.6-7.9,35.5c-4.6,1.9-9.2,1.8-13.7-0.2c-0.9-0.4-1.9-0.8-3.6-1.6C327.1,348,327.1,351.7,327.1,355.5z M387.9,318
	c-0.4-1.8-1.7-4.7-2.9-4.8c-3.2-0.4-6.7,0.1-9.9,0.8c-3.2,0.6-6.4,2.6-8.4-1.6c-1.3-2.8,0.6-5.7,5.2-7.2c6.1-2.2,12.5-2.3,18.7-0.4
	c5.3,1.6,8.1,5.8,8.2,11.3c0.1,2.7,0,5.4,0,8.1c0,0,0,0,0.1,0c0,2.7-0.4,5.5,0.1,8.1c0.5,2.1,1.7,4.4,3.2,5.9c1.8,1.8,3.7,3.6,2,5.7
	c-1.2,1.5-5,3.1-6,2.4c-5.1-3.7-9.3-1.7-14.4,0.1c-5.3,1.9-11,0.6-15.8-2.9c-4-3-5.3-7.2-4.4-11.9c0.9-4.9,4.1-8.3,8.9-9.5
	c3.7-0.9,7.7-1.2,11.6-1.6C386,320.2,388.3,320.5,387.9,318z M390.1,218.4c-2.2,0-3.9,0.1-5.4,0c-4-0.4-6.3-2.8-6.4-6.5
	c-0.1-3.8,2.5-6.8,6.3-7c5.4-0.2,10.8-0.2,16.2,0c3.6,0.1,5.7,2.3,5.7,6c0.1,15.8,0.1,31.6,0,47.4c0,4.7-3.3,7.4-8.4,7.3
	c-4.9-0.1-8-2.9-8.1-7.7c-0.1-11.4-0.1-23-0.1-34.4C390.1,222,390.1,220.6,390.1,218.4z M396.5,196.7c-5.7-0.1-10.4-4.8-10.4-10.3
	c0-5.7,4.4-10,10.4-10.2c6.1-0.1,10.7,4.4,10.6,10.3C407,192.1,402,196.9,396.5,196.7z M387.6,129.4c-0.6,1.4-3,2.7-4.7,2.8
	c-5.8,0.4-11.6,0.2-17.4,0.2c-0.8,0-1.6,0.2-2.6,0.4c1.3,7.1,6,9.7,13.9,7.9c1.3-0.3,2.6-0.7,3.9-1.3c2.9-1.5,5.1-0.6,6.3,2.2
	c1.2,2.7-0.2,5.2-2.8,5.8c-4.6,1.3-9.5,2.9-14.1,2.5c-15.7-1.4-23.4-16.1-17-31.1c4.4-10.4,15-14.7,25.5-10.3
	C385.1,111.3,390.4,122.8,387.6,129.4z M292.6,104.2c-2.7,0.1-5.4,0.2-8.1,0c-2.9-0.2-3.7,1-3.7,3.8c0.1,11.6,0.1,23.2,0.1,34.9
	c0,2.7-0.5,5.1-3.4,6.1c-3.9,1.4-7.3-0.9-7.4-5.3c-0.2-6.1-0.1-12.2-0.1-18.2c0,0,0,0-0.1,0c0-5.7-0.2-11.3,0.1-17
	c0.2-3.5-1.2-4.6-4.4-4.3c-1.9,0.2-3.8,0-5.7,0.1c-3,0.1-5.1-1-5.2-4.3c-0.2-3.5,1.9-5.3,5.2-5.4c3.4-0.2,6.8-0.1,10.1-0.1
	c6.9,0,13.8-0.1,20.7,0c3.9,0.1,6.2,2,6.1,5C296.7,102.3,295.4,104.1,292.6,104.2z M257.3,215.5c-4.3,13.1-13.6,21.8-24.2,29.6
	c-0.9,0.6-1.8,1.3-2.6,1.9c-0.2,0.1-0.2,0.5-0.4,0.9c5.5,1.1,10.7,2.3,16.1,2.9c2.6,0.3,5.3-0.7,7.9-1.2c1.3-0.2,2.6-0.9,3.9-1.2
	c3.4-0.8,6.6-0.6,8.5,2.9c1.8,3.4,0.5,8.2-2.8,10.5c-5.5,3.8-11.8,4.4-18.3,3.9c-3.6-0.4-7.2-0.9-10.8-1.6c-9.4-1.9-18.6-1.8-28,0.8
	c-12.2,3.3-17.2,1.8-28.4-7.1c-9.2,7-19.7,9.4-31.2,7.4c-12.5-2.2-20.6-10.2-21.3-21.5c-0.8-12.3,6-21.9,18.6-24.9
	c7.8-1.8,16-2,24.1-2.6c2.7-0.2,3.8-0.6,3.8-3.6c0-1.8-0.1-3.3,0-4.8c0.1-11.8-9.4-18.1-20.4-13.4c-4.1,1.8-7.9,4.1-12,6
	c-5.7,2.6-11.3-0.9-10.6-6.5c0.3-2.2,1.5-4.8,3.1-6.4c10.7-10.3,33-12.4,45.5-4.3c6.8,4.4,10.8,10.7,11.1,18.8
	c0.4,11.6,0.2,23.2,0.3,34.9c0.1,4.6,0.5,9.2,3.7,12.9c2.3,2.6,4.8,3.4,7.9,1.6c13.1-7.8,25-17.1,34.5-29.1
	c2.9-3.6,4.8-8.6,5.5-13.2c2.4-14.7-10.4-18.1-19.6-14.8c-3.8,1.3-7.2,3.6-10.9,5.4c-4.9,2.5-9.1,2-11.2-1.4
	c-2.2-3.6-1.1-8.3,2.7-11.5c11.6-9.6,31.7-11.5,44.7-4C257,188.8,261.4,203,257.3,215.5z M448.1,265.4c-11.9,2.9-25.2-2.4-25.4-18.5
	c-0.2-20.2-0.1-40.3-0.1-60.5c0-5.1,3.5-8.5,8.4-8.5c4.9,0,8.3,3.1,8.4,8.4c0.2,9.8,0.1,19.5,0.1,29.2c0,8.9,0,17.9,0.1,26.8
	c0,1.6,0.2,3.3,0.5,4.8c0.6,3.4,2.6,5.1,6.3,4.7c5.4-0.5,8.2,1.2,8.8,5C455.6,260.9,453.1,264.2,448.1,265.4z M467.9,340
	c-5.1-8-8.4-16.8-10.5-26.1c-0.2-0.9-0.4-1.9-0.4-2.8c-0.3-4.3,1.2-6.5,4.5-6.8c3.4-0.4,5.1,1.5,6.1,5.5c1.5,5.8,3.4,11.6,5.3,17.3
	c0.7,2,2.2,3.9,3.5,6.2c4.6-6.5,6.4-13.2,7.8-20c0.4-1.6,0.5-3.2,0.9-4.8c0.8-3.1,2.7-4.7,5.9-4.2c3,0.5,4.8,2.6,4.1,5.5
	c-1.9,7.7-3.6,15.5-6.6,22.8c-4,9.8-11,17.6-18.8,24.6c-1.9,1.7-4.1,3.1-6.4,4.1c-2.5,1.2-5.3,1.1-6.7-1.8c-1.3-2.5-0.8-5,1.6-6.8
	c3-2.5,6.1-4.9,9.1-7.5C469.3,343.7,469.3,342.1,467.9,340z M491.3,242.9c-2.4-3.7-5.6-4.4-9.1-1.3c-1.1,0.9-2.2,2.4-2.3,3.7
	c-0.3,3.6-0.1,7.3-0.1,10.9c-0.1,6.3-3.1,9.4-8.7,9.3c-5.3-0.1-8.2-3.3-8.2-9.3c0-23,0-46,0-69c0-5.8,3.2-9.3,8.2-9.4
	c5.4-0.1,8.6,3.3,8.6,9.5c0.1,10.8,0,21.6,0,32.5c0,1.3,0,2.7,0,4.8c7.4-3.2,12.6-7.7,16.7-13.5c1.6-2.3,3-4.8,4.6-7.1
	c2.6-3.6,6.8-4.5,10.4-2.5c3.3,1.9,5,5.5,2.7,9.4c-3.2,5.5-7.2,10.6-11,15.8c-0.6,0.8-1.5,1.5-2.6,2.5c2.6,3.2,5.4,6.1,7.5,9.5
	c2.9,4.7,5.4,9.6,7.8,14.6c0.7,1.5,0.7,3.4,0.8,5.1c0.2,3.9-1.9,6.4-5.5,7.4c-3.7,1.1-6.7-0.3-8.8-3.4c-0.9-1.5-1.3-3.3-2.2-4.8
	C497.4,252.8,494.5,247.7,491.3,242.9z"/>
</svg>
