<?xml version="1.0" encoding="utf-8"?>
<!-- Generator: Adobe Illustrator 22.1.0, SVG Export Plug-In . SVG Version: 6.00 Build 0)  -->
<svg version="1.1" id="Layer_1" xmlns="http://www.w3.org/2000/svg" xmlns:xlink="http://www.w3.org/1999/xlink" x="0px" y="0px"
	 viewBox="0 0 1920 1080" style="enable-background:new 0 0 1920 1080;" xml:space="preserve">
<style type="text/css">
	.st0{fill:#13386F;}
</style>
<g>
	<path class="st0" d="M1834.6,670.7c-21.8,0-42.8,0-63.8,0c-36,0-72.1,1-108-0.4c-16-0.6-32.7-3.7-47.5-9.5
		c-38.8-15.3-55.5-46.8-57.8-87.1c-0.5-8.4-0.5-17.1,0.6-25.4c7.2-57.1,46.6-91.3,106.9-92.3c38.7-0.6,77.5-0.5,116.2-0.1
		c32.8,0.3,57.7,22.2,58.7,50.5c1.5,41.8-16.6,64.7-54.1,68.6c-3.7,0.4-7.5,0.5-11.2,0.5c-57.8,0.3-115.5,0.6-173.3,0.9
		c-12.1,0.1-12.7,0.9-10.6,13c2.9,16.6,11.6,29.7,25.4,39.1c16.1,10.9,33.9,16.8,53.6,16.8c45.9-0.1,91.7,0,137.6,0.1
		C1824.2,645.4,1832.6,652.9,1834.6,670.7z M1590.9,545.5c3.6,0.2,6.5,0.6,9.5,0.6c58-0.2,116.1-0.4,174.1-0.7
		c5,0,10.2-0.5,15.1-1.7c14.1-3.5,21.2-12.5,22-26.9c1-19.2-12.8-32.8-34.4-33c-39.7-0.3-79.4-0.5-119.1,0
		C1625.3,484.2,1593.6,513.3,1590.9,545.5z"/>
	<path class="st0" d="M468.2,382.5c19-1.9,29.8,7.3,29.9,25.1c0,22.4,0.1,44.8,0.1,67.2c0,2.6,0.4,5.2,0.6,8.9
		c2.6-1.4,4.4-2.1,5.8-3.3c22.2-18.3,47.8-26.2,76.4-25.6c29.5,0.6,59.1,0.2,88.6,0.8c55.8,1.3,102.9,51.3,101.1,107.1
		c-1.3,40.7-16.4,73.9-52.6,95.2c-14,8.2-29.1,12.7-45.5,12.6c-33.3-0.2-66.5,0-99.8-0.1c-62.5-0.1-103.8-38.7-105.2-101.1
		c-1.3-60.4-0.2-120.8-0.2-181.3C467.4,386.3,468,384.3,468.2,382.5z M619.8,643.7c16.3,0,32.6,0.2,48.9-0.1
		c5.3-0.1,10.9-0.9,15.9-2.5c51.7-17,73.7-82.1,42.5-127c-12.8-18.5-31.2-30-53.8-30.7c-33.2-1.1-66.5-0.8-99.8-0.2
		c-39.9,0.8-72.4,31.4-75.8,70.1c-4.8,54.7,27.6,90.2,82.4,90.5C593.3,643.7,606.5,643.7,619.8,643.7z"/>
	<path class="st0" d="M810.3,382.2c20.4-0.9,29.6,7.4,29.7,25.9c0,22.1,0,44.1,0.1,66.2c0,2.9,0.4,5.8,0.7,9.1
		c1.9-0.6,3-0.6,3.7-1.2c26.4-22.4,57.2-29.2,91.2-27c24,1.5,48.2-0.2,72.3,0.5c67.7,2,113.6,57.7,103.5,124.6
		c-7.1,46.8-37.9,80.5-81.7,89.1c-4.9,1-10.1,1.2-15.2,1.2c-33.3,0.1-66.6,0-99.8,0c-62.5-0.1-103.5-38.9-104.8-101.5
		c-1.2-60.8-0.3-121.6-0.3-182.3C809.6,385.5,810,384.2,810.3,382.2z M963.3,643.6C963.3,643.7,963.3,643.7,963.3,643.6
		c5.4,0,10.9,0.2,16.3,0c15.2-0.6,31.1,1.4,45.5-2.4c41.7-11.2,63.3-49.6,56.2-95.5c-5.9-37.6-34.5-62.4-72.3-62.6
		c-30.2-0.1-60.5-0.5-90.7,0c-24.2,0.4-45.4,9.8-61.2,28c-24.2,27.8-21.9,59.8-8.7,91c12.5,29.6,38.3,40.7,69.1,41.4
		C932.8,644,948.1,643.6,963.3,643.6z"/>
	<path class="st0" d="M445.6,667.4c-21.5,4-31.8-2.3-36.7-21.6c-1.7-6.5-2.9-13.1-4.6-21.5c-2.8,3.2-4.8,5.2-6.6,7.3
		c-19.3,23.9-44.5,36.4-75.1,37c-32.9,0.6-65.9,1.9-98.7-0.2c-37.5-2.3-69.3-17.9-87.2-53.1c-28.8-56.8-10.8-144.3,77.8-159.3
		c41-6.9,82.7-5.7,123.8,0.7c38.8,6.1,64.8,30.4,76.5,66.8c9.7,30.2,14.3,62,20.9,93.2C439.2,633.7,442.3,650.6,445.6,667.4z
		 M269.1,480.2c-12.9,0.8-31.2,1.2-49.4,3.4c-20.8,2.4-38.3,11.9-50.2,29.5c-33.3,49.1-9.6,121,54.2,127.2
		c34.2,3.3,69.1,1.9,103.5-0.2c21.2-1.3,39.3-12.4,51.4-31.1c32.7-51,3.4-117-56.3-125.7C306.6,481,290.5,481.4,269.1,480.2z"/>
	<path class="st0" d="M1106,455.8c20.8-6.4,43.3,2.4,57.1,21.5c36.2,50.1,72.3,100.3,108.4,150.4c2.5,3.5,5.2,6.9,8.7,11.8
		c3.6-4.8,6.4-8.4,9.1-12.1c35.7-49.2,71.2-98.5,107.1-147.6c13.2-18,31.5-26,56-24.8c-5.9,8.3-10.8,15.4-15.8,22.3
		c-44.6,60.3-89.3,120.6-134,180.9c-0.4,0.5-0.8,1.1-1.2,1.6c-16.5,21.9-27.6,21.6-44.1-0.6c-47.2-63.5-94.5-126.9-141.8-190.4
		C1112.6,464.8,1109.6,460.7,1106,455.8z"/>
	<path class="st0" d="M1485.4,456.6c19.8,1.4,29,10.6,29,28.6c0,58.7,0,117.5,0,176.2c0,11.2-1.7,12.4-12.5,9.4
		c-10.5-3-17.3-10.6-17.3-21.2c-0.2-63.2-0.1-126.3-0.1-189.5C1484.5,459.1,1485,458.2,1485.4,456.6z"/>
	<path class="st0" d="M1483,407.7c0.1-11.9,7.8-20.5,18.1-20.3c10.3,0.2,17.6,8.9,17.5,20.9c-0.1,12-7.5,20.3-18,20.2
		C1490.3,428.4,1482.9,419.6,1483,407.7z"/>
</g>
</svg>
