<?xml version="1.0" encoding="utf-8"?>
<!-- Generator: Adobe Illustrator 19.1.1, SVG Export Plug-In . SVG Version: 6.00 Build 0)  -->
<svg version="1.1" id="Layer_1" xmlns="http://www.w3.org/2000/svg" xmlns:xlink="http://www.w3.org/1999/xlink" x="0px" y="0px"
	 viewBox="-159 41 640 480" style="enable-background:new -159 41 640 480;" xml:space="preserve">
<style type="text/css">
	.st0{fill:#2761AB;}
</style>
<path class="st0" d="M-124.7,477.9h-25.7c0,0,35-35.1,51.9-52.1c-42.7-1.6-60.1,2.4-60.1,2.4l-0.4-1.4c13.9-6.2,26.9-10.6,39-13.3
	c12.1-2.6,25.5-4,40.3-4c6.4,0,16.4,1.1,29.9,3.2c9.3,1.5,18.5,2.6,27.6,3.4l9.2-49.4l-40.3,40c-10.7-1.3-18.7-1.9-23.9-1.9
	l76.6-76.4h26.8c0,0-14,79.5-15.8,89.7c6.1,0.5,27.4,0.3,27.4,0.3c9-32.9,37.7-54.8,75.8-54.3c9.9,0.1,21.6,1.7,29.6,5.6
	c-4.2,4.2-8.2,8.5-12,13c-7.4-4.6-14.2-6.9-20.3-6.9c-35.4,1-38.5,40.8-38.5,40.8l-4.7,2.2C45,429.3,19.2,434.6-9.7,434.6
	c-9.4,0-19-0.7-29-2l-18.9-2.7l-13.5-1.5l-3.5-0.5L-124.7,477.9L-124.7,477.9z M-0.2,477.9h-33.7l7.1-38c15.1,1.3,25.8,0.9,33.2-0.2
	L-0.2,477.9L-0.2,477.9z M127.5,458.3l3.1,6.8c-14.9,10.9-30.9,16.4-47.9,16.4c-39.8-0.3-46.9-31.5-46.7-47.5
	c13.6-4.2,25.6-9.1,36.1-14.8C70.6,428.9,69.4,484.6,127.5,458.3z"/>
<path class="st0" d="M167.9,245.3c0.3,1.1-0.7,2.6-2.9,4.3c-6.7,4.5-8.7,3-8.8,2.2c-0.2-1.1,0.9-2.5,3.1-4.3
	C165.6,243.2,167.8,244.1,167.9,245.3z M47.1,341c1.6,0.6,3.3,0.8,5,0.5c0.6-0.1,1.7-0.9,3.4-2.4c8-6.1,23.2-9,34.6-13
	c20.5-6.8,25.9-12.5,31.5-17.3c16.2-14.3,14.5-33.9,17.6-38.4c1.5-3.4,8.6-11.7,18.6-15.5c5.6-1.5,9.5-4,11.9-7.6l1.4-2.1
	c0.1-0.1,0.5-0.4,1.3-1.1c1.3-1,2.9-2.5,4.8-4.7c1.8-2.1,2.7-3.4,2.6-3.8c-0.3-0.8-1.9-1-8.8,1.4c-1.5-0.7-3-0.9-4.3-0.7
	c-5,0.9-9.7,4.1-14.2,9.7c-5.8,2.8-23.5,13.2-28.6,16.2l-0.3-0.2c0.4-0.8,0.7-1.2,0.7-1.4l2.2-3.5c2.1-3.4,3.8-8.3,5.2-14.4
	c1.4-6.2,2-12.1,2-17.6l-0.2-11c-0.1-14.6,3.5-27.6,10.9-38.9l-0.5-0.7c-2.9,1.2-6.5,3.8-11,7.6c-4.5,3.8-8.4,7.7-11.5,11.6
	c-6.5,7.8-11.7,16.5-15.4,26.2c-3.8,9.8-7.2,23.1-10.3,40.1c-2.5,13.5-4.5,22.8-6,28.1l-0.6-0.1l0.3-2.4l0.7-6.4
	c0.4-3.7,0.6-7,0.7-10c-0.4,0.1-0.7,0.1-1,0.1c-3,0.4-6.3-0.4-9.9-2.5l-4.5-2.6c-2-1.1-4.2-1.5-6.8-1c-14,2-26.9,22.8-52.6,18.1
	c-1.9-0.4-3.1-0.5-3.5-0.4c-0.5,0.1-0.7,0.4-0.6,1c1.7,9.7,10.3,15,19.5,16.2c12.3,1.7,21.6-1.6,25.8-2.6c1.3-0.3,3.1,0,5.2,0.8
	c0,0,6.1,3.6,15.4,2c-0.8,1.4-2.2,2.9-4.1,4.7c-3.5,3.3-8.4,8.8-14.6,16.3c-6.2,7.6-11.1,14.1-14.8,19.5
	C45.1,340,46.1,340.6,47.1,341L47.1,341z M68,320.8c6.5-1.1,13.4-6.8,20.6-17.1c4.9-7.1,10.5-13.1,16.8-18
	c6.3-4.9,12.2-7.8,17.5-8.7c5.7-1,8.8,0.5,9.3,4.5c0.4,3.6-0.8,8.1-3.8,13.4c-4.3,8-13.7,18.9-32.1,25.5c-9,3.5-18.6,6.2-28.8,7.9
	c-4.4,0.7-6.8,0.4-7.2-1.1c-0.2-0.9,1.1-3.2,4-6.9C65.5,320.8,66.8,321,68,320.8L68,320.8z M295.1,193.8c0,0.8-0.6,1.6-1.9,2.5
	c-4.3,2.2-5.1,1.1-5.2,0.4c0-0.8,0.6-1.7,1.8-2.6C293.9,191.5,295.1,193,295.1,193.8L295.1,193.8z M225.3,235.8c2-0.1,4.1-0.5,6.1-1
	l0.1,0.3c-5.9,6.6-17.3,23.6-19.2,26.2c-1.4,1.6-2.1,2.7-2.1,3.6c0.1,1.7,2.5,2.4,7.2,2.2c1.8-0.1,3.1-0.7,3.9-1.8
	c1.6-2.3,5.4-4.7,11.3-7.1l10.4-4.3c23.2-8.4,28.5-17.5,30.8-20c10.3,2.7,19.1,3.8,26.5,3.5c17.3-0.8,29.7-7.5,37.1-20l-0.5-0.4
	c-19.1,17-30.2,6.4-32.5,5c-7.7-4.7-16.7-7.5-25.2-8.6c-3.3-0.4-1.1-0.3-2.1-0.5c-0.1-0.4-0.2-0.7-0.1-0.9c0.1-1.8,2.1-4.4,6.2-7.9
	l5.4-4.6c3.9-0.4,7.2-2.5,9.9-6.3c3-1.7,4.4-3,4.2-4c-0.3-0.9-3.6,0.3-4.4,0.5c-7.6-3.6-13.5,4.5-14.3,6.4l-2.5,1.3
	c-10.4,5.2-19.1,10.3-26.1,15.4c-8.2,0.4-18.3,3-30.2,7.8c-6.8,2.7-11.3,4.1-13.6,4.2c-5.5,0.2-10.8-1.6-16-5.5l-0.5,0.5
	C200.2,231.2,210.2,236.5,225.3,235.8L225.3,235.8z M230.4,251.3c1.7-0.1,4.4-1.9,8.1-5.4c9.9-9.5,19.3-14.5,28.1-14.9
	c2.3-0.1,3.6,0.5,3.8,1.9c1,5.6-20,18.1-45.1,23.6c-0.7,0.1-3.3,1-3.5-1c-0.2-1.3,2.8-5.9,5.7-7.2C228,250.4,229,251.4,230.4,251.3
	L230.4,251.3z M264.9,122.4c0.1,1.1-0.6,2.4-2.4,3.8c-4.7,3.7-7.1,2.5-7.3,1.9c-0.1-0.8,0.8-2,2.8-3.6
	C262.6,120.6,264.8,121.8,264.9,122.4z M192.8,165.3l2.8-0.5l0.2,0.3c-7.6,7.3-14.5,15.3-20.7,23.7l-4.9,6.9c1.9,1.6,6,4,9.4-0.5
	c2-2,8.2-4.9,17.5-8.1c10.7-3.7,41-12,43.7-35.1c0.4-4.4,0.6-11,7.8-15.8c0,0,5.1-4.5,8.4-5.4c4-1,7.2-3.1,9.5-6.1
	c0.7-0.9,1.4-1.7,2.1-2.4c3.7-3.3,5.5-5.5,5.3-6.5c-0.5-1.1-5,0.8-6.6,1c-5.3-1.4-10.8,2.8-14.2,7.2c-1.1,0.7-1.8,1.1-1.9,1.1
	c0,0-12.9,6.7-18.4,10.5l-1.5,1.1l-0.5-0.4c3.2-5,5.3-9.9,6.1-14.7c0.8-4.8,0.7-11-0.4-18.4c-1.1-7.6-1.2-13.7-0.4-18.4
	c0.9-4.6,3.3-10.4,7.2-17.2l-0.7-0.6c-13.4,9.1-30.9,23.4-33.3,65.8l-0.4,3.7c-7.9,7.7-11.4,15.3-10.2,22.8l-0.3,0.1
	c-0.6-1.2-2.2-5.7-0.3-11.3c-2.5-0.5-5.4-0.4-8.9,0.1c-6.2,0.2-17.4,7.2-17.4,7.2c-3.3,1.8-10,5-21.2,3.1l-0.3,0.8
	C167.3,170.4,186.3,166.7,192.8,165.3L192.8,165.3z M238.4,149.9c0.4,3-0.5,6.5-2.9,10.5c-6.5,11.2-20.2,17.4-27.4,20.2
	c-7.3,2.8-14.3,4.7-21.2,5.7c-2,0.3-3.1,0.2-3.4-0.3c-0.3-0.5-0.2-1.5,0.5-3.1c0.7-1.5,1.3-2.4,1.9-2.4c0.2,0,7.7,0.8,15.3-9.1
	l4.7-6.1c3.6-4.7,14.2-16.2,26.6-18.7C236,146.1,238,147.2,238.4,149.9z M239.7,369.4c-4.4,4-8.5,8.3-12.3,12.8
	c-6.9-4.6-13.4-6.9-19.6-6.9c-11.8,0-21.4,4.7-28.9,14c-7.5,9.3-11.2,21.3-11.2,36c0,26.6,9.9,39.8,29.9,39.8
	c7.5,0,16.1-2.3,25.7-6.8l3.4,6.8c-44.8,30.2-95.5,17.1-94.8-31.6c2.3-49.9,43.4-69.9,77.3-69.8
	C222.2,363.7,232.4,365.6,239.7,369.4L239.7,369.4z"/>
<path class="st0" d="M321.1,415.6c-0.2,47.6-21.9,56.1-32.6,55.5c-7.7,0-23.5-3.2-24.8-43.3c0.7-43.6,20.3-54.1,33-54.3
	C312.9,373.5,321.1,387.5,321.1,415.6z M227.8,434.5c0.3,40.7,35.9,47.1,53.3,46.9c47.8,0.1,77-35.7,76.1-70.5
	c0-15-4.7-26.6-14.2-34.9c-9.5-8.3-22.9-11.9-40.2-12.4C272.9,362.7,228.8,384.6,227.8,434.5L227.8,434.5z M414.4,377.8
	c2.1-2.2,6-3.3,11.6-3.3c17-0.4,17.7,9.5,17.7,15.9c0,18.6-10,27.9-30,27.9l-8.2-0.1l4-26.4C410.7,384.7,412.3,380,414.4,377.8
	L414.4,377.8z M404.1,425.7c3.8,1.6,7.5,4.9,11,9.9l19.4,26c5.1,6.7,9.4,10.9,12.8,12.8c3.4,1.9,8.8,2.8,16,2.8H481
	c-5.5-5.6-12.6-14.6-21.3-26.9c0,0-14.2-20.4-16.4-22.7c-1.6-1.7-3.4-3-5.5-4v-0.8c12.6-0.6,37-6.8,37.1-31.1
	c0-16.7-13.7-25-41.2-25l-51.4-0.1l-18.8,110.9h31.7L404.1,425.7L404.1,425.7z"/>
</svg>
