<?xml version="1.0" encoding="utf-8"?>
<!-- Generator: Adobe Illustrator 22.1.0, SVG Export Plug-In . SVG Version: 6.00 Build 0)  -->
<svg version="1.1" id="Layer_1" xmlns="http://www.w3.org/2000/svg" xmlns:xlink="http://www.w3.org/1999/xlink" x="0px" y="0px"
	 viewBox="0 0 640 480" style="enable-background:new 0 0 640 480;" xml:space="preserve">
<style type="text/css">
	.st0{fill:#267CE6;}
</style>
<g>
	<g>
		<g>
			<path class="st0" d="M493.1,315.4c-3.6,8.9-7.4,16.5-5.3,26.7c2.8,12.7,3.1,26,4.6,38.9c0.3,2.3,1,4.8,1,7.1c0,1.5-1.5,3.1-2,4.6
				c-0.5,1.3-0.8,2.5-0.5,3.6c0.5,2.5,2.5,4.8,2.3,7.4c-0.3,5.6-1.5,11.4-2,17c-0.3,2-0.3,4.6,0.5,6.6c3.3,7.6,3.3,15,0.5,22.9
				c-1.3,3.3-1,7.1-1.3,10.9c-0.3,3.3-0.3,6.6-0.5,9.9c-0.5,0-0.8,0.3-1.3,0.3c-1-2.3-2-4.3-3.1-6.6c-4.8-12-13.7-20.4-24.4-27.2
				c-7.1-4.3-7.4-5.9-4.6-13.5c3.3-8.9,6.9-17.8,10.4-26.7c1.3-3.3,2.3-6.1-1-9.2c-1-1-1-3.3-1-5.1c-0.3-17.8,0.3-35.6-0.5-53.2
				c-0.5-8.9-3.1-18.1-4.6-27c-0.3-2.3-0.5-4.3-0.8-6.6c-0.3-2.3-0.5-4.8-1-7.1c-0.8-3.8-2.3-7.4-2.3-10.9
				c-0.3-11.7-2.8-22.9-5.9-34.1c-2.8-9.9-1.5-12.5,7.4-18.1c4.1-2.5,7.6-5.9,11.2-8.9c1-0.8,1.3-2.5,1.8-3.8
				c-1.5-0.8-3.1-1.5-4.8-2c-0.8-0.3-1.8,0.3-2.3,0.8c-3.6,3.3-5.3,1.5-7.1-2c-4.1-8.7-10.4-14.5-20.4-15.8
				c-1.5-0.3-2.8-1.8-4.3-2.5c0.3-0.8,0.3-1.3,0.5-2c6.4,0,12.5,0,18.8,0c4.3,0,8.4,0.3,12.7,0.3c1.3,0,3.1,0,4.1-0.8
				c3.1-2,5.1-1.8,7.9,0.8c1.3,1.3,4.1,1.3,5.9,1.3c6.1-0.8,11.4,1,16.8,3.3c2.8,1.3,6.1,2.5,9.2,2.3c6.9-0.3,12.2,3.1,16.3,7.6
				c7.6,8.7,13.5,18.6,15,30.3c0.5,3.8-0.8,8.1-1.3,12c-0.5,3.1-1.5,6.1-1.3,9.2c0.8,12.2-4.6,21.9-12.5,30.3
				c-2.8,2.8-6.9,4.6-10.7,6.4c-2,1-4.1,1.5-3.1,3.8c0.3,1,2.3,1.8,3.6,2c3.1,0.5,13.5,7.9,14,10.7c0.3,1.5-0.3,3.3-0.5,4.8
				c5.6,1.5,6.9,6.4,7.4,10.9c0.8,6.6,0.8,13.2,0.8,19.8c0.3,5.9-0.5,11.7,6.6,14.5c0.8,0.3,1,2.3,1.3,3.3
				c0.8,7.6,1.8,15.5,2.3,23.2c0,2-1,4.3-2,6.1c-1.3,2.8-1.8,4.6,2.3,4.6c3.6,0,4.3,2.5,4.3,5.1c0.3,8.7,0.5,17.3-0.3,25.7
				c-1,11.4-2.8,22.9-4.8,34.3c-1,5.6-3.6,6.6-8.4,3.6c-3.8-2.5-7.6-5.3-10.7-8.7c-4.1-4.6-8.4-7.4-14.5-7.1c-4.8,0.3-5.6-1-4.3-5.6
				c1-3.3,2-6.4,3.8-9.4c4.1-7.1,5.9-14.8,5.6-23.2c-0.5-18.3-2.3-36.6-9.2-53.9c-0.5-1.3-0.8-2.8-1.8-3.3c-4.1-1.8-3.3-5.1-2.8-8.4
				C505.6,331.2,503.8,326.1,493.1,315.4z M513.2,246c-1.3-3.1-2-6.4-4.1-8.9c-4.6-5.9-9.4-11.2-14.5-16.5c-1.3-1.3-3.6-2-5.6-2.8
				c-3.1-1-4.6,0-4.3,3.6c0.3,6.1,0.5,12.5,0.5,18.6c0,14.2-0.5,28.5-0.5,42.7c0,5.1,3.1,7.4,8.1,6.1c1.5-0.3,3.1-1.3,4.6-2
				c8.1-5.1,8.9-14.2,11.7-22.4c0.5-1.5,0-3.1,0.5-4.6C510.7,255.4,512,251.1,513.2,246z"/>
			<path class="st0" d="M568.7,430.7c-2.3-10.2-9.9-17.3-7.9-27.7c1.5-8.4,2-17,3.3-25.7c0.8-6.1,0.3-11.7-3.3-17
				c-4.3-6.1-6.1-12.7-5.6-20.4c0.3-2.3-1.5-4.6-2-6.9c-0.5-1.8-1-3.8-1-5.6c-0.8-12.7-1.5-25.4-1.8-38.2c-0.5-15.8-0.8-31.5-1-47.3
				c0-1.5,1.3-3.1,1.8-4.8c0.5-1.3,0.5-2.5,0.8-4.1c0.5-5.3,0.8-10.7,1.3-16.3c0.3-2.8,0.5-5.6,0.5-8.4c-0.3-4.1-1.8-7.4-5.3-9.9
				c-4.6-3.1-8.7-6.9-12.7-10.7c-1.3-1.3-2.3-3.1-3.8-5.3c5.9-1,10.7-1,15.5,1c1.8,0.8,3.8,0.8,5.6,1.5c5.3,2.5,11.2,4.6,16,7.9
				c5.6,4.1,11.4,5.3,18.1,5.6c5.1,0.3,9.9,2.5,14.8,3.8c2,0.5,4.1,1.8,6.4,2c7.1,0.8,17,9.2,19.1,16c1.3,4.1,3.6,7.6,4.3,11.7
				c1.3,5.9,1.8,12,2,17.8c0.3,5.6,0.3,10.9,2.8,16.5c1.8,4.1,1.5,9.2,1.5,13.7c0,5.3-0.3,10.7-0.5,16c0,1-0.3,2.5-0.8,3.3
				c-3.6,4.6-3.3,9.7-2.8,15c0.8,6.9,0,13.2-6.1,18.3c-1.5,1.3-2.3,4.6-2.3,7.1c-0.3,12.7-0.5,25.4-0.5,37.9
				c0,5.1,0.5,10.2,0.3,15.3c0,2.3-1.3,4.6-1.8,6.9c-0.8,4.1-1,8.4-1.5,12.5c-1.5,10.7-2.8,21.6-5.1,32.1
				c-1.8,7.9-7.6,13.2-15.3,15.8c-3.8,1.3-7.6,1.8-11.4,2.5c-0.8,0.3-1.8,0-2.5,0.5c-3.6,2.8-6.9,3.3-10.7,0.3
				c-0.8-0.8-3.1,0-4.3,0.3c-4.6,1-9.2,2.3-13.7,3.3c-1,0.3-2-0.8-3.3-1.3c0.5-1,0.8-2.5,1.5-3.1c4.3-3.6,5.9-8.7,6.6-13.7
				c0.5-2.8-0.5-6.1-1.8-8.9c-2.3-5.3-2.5-5.1,3.1-7.4C566.2,432.7,567.9,431.4,568.7,430.7z M582.9,426.4c1.5-1.3,2.3-1.5,2.5-2
				c2.8-7.4,5.6-14.5,8.1-21.9c1-3.3,1.3-6.9,2.5-10.2c2.8-6.6,5.3-13.2,5.3-20.6c0-14,0.5-28.2,0.8-42.2c0-2.3,0.8-4.8,1.5-6.9
				c2.8-7.4,6.1-14.8,8.1-22.4c4.6-17.3-3.6-38.9-18.3-49.1c-2.5-1.8-5.9-2-8.9-2.8c-1.8-0.3-3.6,0.3-5.3,0
				c-3.6-0.5-4.6,1.3-4.6,4.6c0.3,11.4,0,23.2,0.5,34.6c0.3,5.3,2,10.7,3.1,16c1.3,7.6,4.8,14.8,4.6,22.9c-0.8,31-0.5,62.1-0.8,93.1
				C582.2,421.3,582.7,423.3,582.9,426.4z"/>
			<path class="st0" d="M370.5,322.8c-1.3-2.3-2.8-4.3-3.1-6.4c-0.5-7.1-0.5-14,4.6-19.8c1.8-2,1.5-5.9,1.5-8.7
				c-0.3-3.1,0.3-5.3,2.8-7.4c1.3-1,2.3-2.8,2.5-4.3c0.5-4.6,0.5-8.9,1-13.5c0.3-2,0.5-4.1,1.5-5.6c2.8-4.6,5.3-8.9,5.6-15
				c0-5.6,4.6-11.2,7.6-16.5c2.3-4.3,4.3-8.4,3.6-13.5c-0.3-1.8,1.5-5.1,3.3-6.1c4.3-2.5,5.9-5.9,5.1-10.9c-0.8-4.6,2.3-7.6,6.4-7.4
				c3.6,0.3,5.1,2.5,5.1,5.6c-0.3,6.9,2.8,12.2,6.9,17.3c2.8,3.6,3.3,7.9,3.8,12.7c0.8,7.4,3.3,14.8,5.1,22.1
				c1.8,7.4,3.8,14.8,6.1,21.9c1.5,5.1,3.8,9.7,5.6,14.8c0.5,1,0.8,2.5,0.5,3.6c-1,3.8,0.3,6.6,1.8,9.9c1.8,4.1,2.3,8.9,2.8,13.2
				c1,8.7,1.8,17.6,2.5,26.5c0.5,7.1,1,14.2,1.3,21.6c0.3,9.9-0.3,19.8,0,29.5c0.3,5.9-1.5,11.2-4.1,16.5c-1.5,3.1-2.3,6.4-3.1,9.7
				c-0.8,3.3-1.3,6.6-4.3,8.9c-1.3,0.8-2,3.3-1.5,4.8c1.5,7.1-1.3,13.2-4.1,19.6c-1.3,3.1-1.5,6.6-2.3,10.2
				c-0.5,1.8-1.3,3.3-1.5,5.1c-0.5,2.8-1,5.6-1,8.4c0,3.3-1,5.6-4.6,6.6c-3.1,0.8-4.1,0-4.1-3.3c0-5.3,0-10.7-0.8-16
				c-0.3-2.8-2-5.3-2.5-7.9c-1-4.6-2.3-8.9-2.5-13.5c-0.3-4.6-1.3-8.4-5.3-10.7c-9.7-5.9-7.1-12.2-2.5-19.6c3.8-6.4,7.4-13,9.7-19.8
				c2.5-7.4,1-10.9-5.6-15c-6.9-4.3-14-7.9-21.1-11.7c-0.8-0.5-2.3-0.3-3.1,0.3c-0.5,0.5-0.5,2-0.5,3.1c0.3,2.5,1.3,5.3,0.8,7.6
				c-0.8,4.3,0.3,7.1,3.8,9.4c2,1.3,4.8,2.5,3.8,5.9c-1,3.3-3.6,5.1-6.9,5.1c-1.8,0-3.6,0.3-5.1-0.3c-8.9-2-16.3,1.5-23.7,5.3
				c-1.5,0.8-3.3,1.8-4.8,2.3c-2.8,1-5.6,2.5-7.9-1c-2.3-3.8-1.8-9.9,1.5-11.4c4.3-2,5.3-5.1,5.1-9.7c0-1.8,1.5-4.8,3.3-5.6
				c4.1-2,5.6-4.1,4.6-8.9c-0.8-3.8,0.8-7.9,0.5-11.7c0-4.6-1.3-9.2,2.3-13.2c1-1.3,0.8-4.1,0.5-6.1
				C367.4,326.1,367.4,323.3,370.5,322.8z M394.4,339.3c2.3-0.3,4.1-0.3,5.9-0.3c4.3,0.3,8.9-0.8,12.5,3.6c1.8,2.3,4.6,3.6,7.1,5.1
				c3.3,2,5.6,0.8,5.6-2.8c0.3-6.4,0.5-13,0.5-19.3c0-5.1,0.8-10.4-1-15c-1.5-4.1-2.3-7.6-2.3-12c0-3.3-3.6-7.4-7.1-7.4
				c-3.1,0-4.6-1.5-5.9-3.8c-1.3-2.3-2.8-4.6-4.1-6.9c-1,3.6-0.8,7.1-1.8,10.4c-1,3.3-2.3,7.9-4.6,8.9c-3.6,1.3-3.3,2.8-3.1,5.6
				s1,5.9,0,8.4C392.6,321.5,395.2,330.2,394.4,339.3z"/>
			<path class="st0" d="M150.2,434.8c0.8,2.3,1.3,4.1,2,5.6c0.5,1,1.8,2.3,2.5,2.5c7.1,0.5,14.8,2,20.4-4.6c2.3-2.5,5.3-1,8.4-0.5
				c6.1,1,12.2,1.5,18.3,2c1.3,0,3.1-0.5,3.8-1.3c4.1-3.8,8.9-4.1,13.7-4.1c12.5,0,25.2,0,37.7,0c9.2,0,18.3,0.3,27.5,0.3
				c4.6,0,5.9,2,5.3,5.9c-0.5,5.1-0.8,10.2-1.3,15.3c-0.5,4.6,0,8.7,3.1,12.2c1,1,1,3.1,1.5,4.6c-1.5,0.3-2.8,1-4.3,1
				c-7.6,0.3-15.3,0.3-22.9,0.3c-1.3,0-3.6-0.5-3.8-1.5c-1.3-2.8-3.1-2.8-5.9-2.5c-1.8,0.3-4.1-0.8-5.9-1.3c-3.8-0.8-7.9-2-11.7-2.3
				c-4.1-0.3-8.4,0.3-12.7,0.3c-2.8,0-5.9,0.3-7.6-3.1c-0.5-1-3.1-1.3-4.6-1.3c-15.3,0-30.8,0-46.1-0.3c-3.8,0-7.9-1-11.4-2.3
				c-7.9-2.8-14.5-1.3-19.6,5.3c-3.8,4.8-8.7,6.9-14.8,6.1c-3.8-0.3-7.6,0.5-11.2,0c-1.8-0.3-4.1-1.5-5.3-3.1
				c-0.5-0.8,1-3.6,2.3-4.6c2.8-2.3,6.1-3.8,9.4-5.6c3.6-2,5.3-5.3,4.8-9.7c-0.3-2.8-1-6.1,2.5-7.9c0.3-0.3,0-2.3-0.3-3.3
				c-0.5-1.3-2-2.3-2-3.6c-0.3-4.1-0.3-8.1-0.3-12.2c0-1,0.3-2.5,1-3.1c2.3-2,2.3-4.1,1.8-6.9c-0.3-1.3,0.8-3.3,2-4.3
				c2.5-2.3,3.1-4.3,0-5.9c-4.3-2-4.8-5.3-4.8-9.4c0-6.1,0-12.5,0.3-18.6c0-2.8-0.8-5.6,2.5-7.4c0.8-0.5,0.8-2.3,0.5-3.6
				c0-3.6-0.5-7.1-0.5-10.4c0-1,0.5-2.8,1-3.1c3.3-1.3,3.1-4.1,3.1-6.6c-0.3-5.6-0.8-11.2-0.8-16.8c0-1.8,1-3.6,2-5.1
				c1.8-2.8,1.8-5.3,0-8.1c-1-1.5-2.3-3.3-2.3-4.8c0-8.1,0.3-16.3,0.3-24.4c0-3.6-1-6.6-2.3-10.2c-2-5.1-1-11.2-1.3-17
				c0-0.8,1.3-1.8,2-2c3.8-1.3,4.6-4.1,4.3-7.6c-0.5-4.3,1.3-9.2-3.3-12.5c-0.5-0.5,0-3.3,0.8-4.6c3.8-5.3,3.8-9.9,0.3-15.8
				c-3.8-6.4-10.9-8.7-15-14.2c-1-1.3-2.5-2.3-3.6-3.6c-1.8-2.5-0.8-5.1,1.3-6.6s4.1-1,5.9,1.5c0.8,1,2.5,1.5,3.8,1.5
				c3.1,0,5.9-0.5,8.9-0.8c3.3-0.3,6.1,0,8.1,3.3c0.5,0.8,1.8,1.5,2.8,1.8c8.1,1.5,15.3,9.7,15.3,17.8c0,4.3,0.3,8.7,0,13.2
				c0,1-0.5,2.3-1.3,3.3c-2,2.3-2,5.3,0.3,7.4c4.1,3.3,4.3,9.2,0.8,13.2c-0.8,0.8-1,2-1,3.1c0,14.5,0,29,0.3,43.5
				c0,1.5,0.5,3.6,1.5,4.1c3.8,2.5,4.1,6.6,4.1,10.4c-0.3,13.5-0.5,27-1,40.5c-0.3,4.1-1.8,8.1-2.3,12.2c-0.5,3.8-0.3,7.4,2.5,10.7
				c1.5,1.8,0.5,5.3,1,8.1c0.8,3.3-0.8,5.1-3.3,7.1c-2,1.5-2.8,3.8-0.5,6.6c1,1.3,1,5.1,0,5.9c-3.1,2-2.5,4.8-2,7.4s1.3,4.6-1.5,6.6
				c-1,0.8-0.5,3.8-0.5,6.1C153,426.9,154.2,431.7,150.2,434.8z"/>
			<path class="st0" d="M380.4,396.8c2.3,4.8,5.6,4.1,8.7,3.6c6.9-1,8.1,0,8.9,6.4c0,1-0.3,2.5-1,2.8c-4.3,1.5-2.5,4.6-1.8,6.9
				c3.1,9.4,2.3,18.8,1,28.5c-0.3,1-2.3,2.3-3.6,2.3c-9.7,0.3-19.3,0.5-29.3,0.5c-1,0-2,0-2.8-0.5c-6.1-4.3-10.9-4.1-16.8,0
				c-2.3,1.5-5.3,2-8.4,2.3c-3.6,0.5-7.1-0.3-10.4,0.3c-3.1,0.3-6.1,1.5-9.2,2.3c-1,0.3-2,0.8-3.3,1c-7.4,1.5-9.2,0.3-9.2-7.4
				c0-2.8,0-5.3,0.3-7.9c0.3-1.3,1.3-2.3,2.3-3.3c1.8-1.8,3.6-3.1,1.3-5.9c-2-2.3-0.8-4.1,1.3-5.6c1.3-0.8,3.1-1.5,3.3-2.5
				c0.5-2-0.5-4.3,0-6.1c0.3-1.5,2.5-2.5,2.8-4.1c1-6.4,1.8-13,1.8-19.6c0-4.3-1.8-8.7-2.3-13c-1-6.6-2-13-2.3-19.6
				c-0.8-17.8,4.6-34.1,13.2-49.4c1.8-3.3,2.8-6.4,0.3-9.9c-0.8-1-0.5-3.8,0.5-4.6c2.5-2,3.1-4.3,2.5-7.1c-0.8-4.1,0.8-7.1,3.3-10.4
				c1.8-2.3,3.6-5.3,3.3-8.1c-0.3-12,5.1-21.6,11.2-30.8c3.6-5.3,5.6-10.7,6.1-16.8c0.3-2.5-0.8-3.3-3.1-3.1c-1.8,0.3-3.6,1-5.3,1
				c-1.5,0-3.6-0.3-4.1-1.3c-2-4.3-5.6-3.6-9.2-3.1c-3.8,0.5-6.4,2.8-7.4,6.1c-1.5,5.3-2.5,10.9-3.6,16.5c-0.5,2.3,0,5.1-0.8,7.1
				c-1,2.3-2.8,4.3-4.6,6.1c-1.3,1.3-3.3,2-5.1,3.1c-3.1,1.8-5.3,0.8-5.6-2.5c-0.3-4.3-0.5-8.4-0.5-12.7c0-0.8,0.3-2,0.8-2.3
				c3.3-1.3,2.8-4.1,2.8-6.4c0-11.2,0-22.4-0.5-33.3c0-4.1,1.3-5.3,5.3-5.3c24.2,0,48.3-0.3,72.3-0.3c6.4,0,8.1,2.5,5.6,8.4
				c-1.3,3.3-2.8,6.6-5.1,9.2c-3.1,3.3-4.1,6.6-3.8,10.7c0.3,4.1-0.8,7.1-4.8,8.9c-3.6,1.5-2.5,4.6-2.5,7.4c0.3,3.1,0.8,6.1-3.6,6.6
				c-0.8,0-1.5,1.5-1.8,2.5c-0.5,2.5-0.5,5.1-1,7.6c-1,4.6-2.3,8.9-3.3,13.2c-0.5,2.3-1.3,4.3-1.3,6.6c0,5.1,0.3,10.4,0.5,15.5
				c0.3,4.3,0.3,8.1-2.3,12.2c-1.5,2.3-1.5,5.6-2.5,8.4c-1,3.1-2.8,5.9-3.8,8.7c-0.8,1.8-1.3,3.8-1,5.6c0.3,3.6-0.5,6.4-3.6,8.4
				c-3.3,2.3-4.6,5.6-4.3,9.4c0.3,4.8,0,9.9,0.5,14.8c0.5,6.9-0.3,13.2-4.1,19.6c-1.8,3.1-2,7.6-1.8,11.4c0.5,7.4-1.3,13.7-4.8,20.1
				c-2.8,4.8-4.6,9.9-6.9,15c-1.3,2.8-0.8,5.1,2.8,5.1c2.8,0,5.3,0.5,8.1,0.3c3.6-0.3,6.9-0.8,5.9-6.1c-0.3-1,1.3-2.8,2.5-3.6
				c3.3-2,6.9-3.6,10.2-5.1C365.4,408,375.1,406.5,380.4,396.8z"/>
			<path class="st0" d="M292.6,194.1c0,2.3,0,4.3,0,6.6c0,3.3-1.5,6.6,2,9.2c0.5,0.5,0.5,2,0.5,3.3c-0.3,12.7,0.5,25.7-1,38.4
				c-1,8.7-2.5,17-7.1,25.4c-4.3,8.1-10.2,16.5-8.7,27.2c0.3,2.3-0.5,4.6-3.8,4.8c-4.3,0.5-7.9,5.3-7.9,9.7c0,2,0.5,3.8,0.5,5.9
				s-0.3,3.6-2.8,4.3c-1.5,0.5-3.1,2.3-3.6,3.8c-4.6,10.7-8.9,21.6-13,32.6c-4.3,11.7-8.1,23.4-12.2,35.1c-0.5,1.3-1,2.5-1.3,4.1
				c0,1,0,2.8,0.8,3.3s2.5,0.5,3.3,0c5.9-4.6,12.7-6.6,19.3-8.9c2.3-0.8,4.6-3.6,5.6-5.9c2.3-5.6,6.1-9.4,11.4-12
				c3.6-1.8,6.4-3.6,5.9-8.1c0-0.8,2.3-2.3,3.6-2.5c1.8-0.3,3.8,0.3,5.9,0.5c-0.3-1.8-0.3-2.8-0.5-4.1c1-0.3,2-0.5,2.8-0.8
				c0.5-6.1,1.3-7.1,5.3-5.6c1,0.5,2.5,1.8,2.5,2.8c0.8,4.6,2,9.4-1.5,13.7c-4.8,6.1-4.8,13.2-4.3,20.6c0.3,4.8,0.5,9.7,0.5,14.2
				c0,6.9-0.3,6.9-6.6,7.9c-0.3,1-0.8,2.3-1.3,3.8c-9.2,0-18.1,0-26.2,0c-2-1.5-3.3-3.6-4.6-3.6c-1.8,0.3-4.1,1.5-5.3,3.1
				c-2.3,3.1-7.4,3.3-9.9,0c-1-1.5-3.3-2.8-4.8-2.8c-4.6-0.3-8.9,0.5-13.5,0.5c-1.3,0-3.6-1-3.8-2.3c-0.5-1.3,0.8-3.1,1-4.6
				c0.5-1.5,1.3-3.1,1.5-4.6c0.3-2.5-0.3-5.3,0.3-8.1c0.3-1.8,1.3-3.6,2.5-4.8c2.3-2.5,2-5.3-1-6.9c-4.6-2.3-4.8-4.3-1.3-7.9
				c0.5-0.8,0.8-2.8,0.3-3.3c-3.6-3.8-3.1-8.4-2-12.7c1.5-8.4,3.1-16.8,5.1-24.9c0.8-3.6,3.1-6.9,4.8-10.2c2.3-4.3,4.8-8.4,6.6-13
				c1.8-3.8,2.5-7.9,6.9-10.2c1-0.5,1.8-3.1,1.8-4.6c0.5-12,3.8-22.9,13.2-31.3c3.6-3.1,5.9-7.4,8.4-11.7c1-1.8,1-4.3,0.5-6.6
				c-1-4.3,0.3-7.9,3.1-11.2c3.8-4.1,7.1-8.7,10.7-13c4.1-5.1,2.5-10.9,1.8-16.8c0-0.5-1.5-1.5-2.5-1.5c-7.4,0-14.8-0.3-21.9,0.3
				c-5.3,0.3-13.7,9.7-13.7,15c0,2.8,0,4.6-3.8,3.8c-3.6-0.8-4.6,2.5-4.6,5.1c-0.3,4.8,0.3,9.9-0.3,14.8c-0.3,2.3-1.5,4.6-2,6.6
				c-0.3,0.8-0.5,2-0.5,2.8c0.5,2.3-0.5,3.1-2.5,3.1c-2.3,0-3.1-0.8-3.1-3.3c0-1.8-0.5-3.8-1.3-5.6c-1.8-5.9-3.6-11.4-1.8-18.1
				c1.3-4.3,2.3-10.2-3.3-13.5c-0.8-0.5-0.8-2-0.8-3.1c0-6.1,0-12.2,0-18.1c0-4.8,1.5-6.6,5.6-6.6c21.4,0,42.7,0,64.4,0
				C291.4,193.6,291.6,193.8,292.6,194.1z"/>
			<path class="st0" d="M198.8,263.3c0,10.7,0,21.1,0,31.8c0,2.3,0.5,4.6,1,6.6c0.8,3.3,1.5,6.4-2.5,8.4c-0.8,0.3-1.3,2-1,3.3
				c0.5,9.2,1.3,18.6,2,27.7c0.3,2.8,0.3,4.8-2,7.4c-1.3,1.5-1.5,4.6-1.5,6.9c0,2.8,1,5.3,1.3,8.1c0.8,8.1,1.8,16.3,2.3,24.7
				c0,1.3,0,3.1-0.8,4.1c-3.8,3.8-2.3,8.1-1.5,12.5c0.3,1,1.5,2.3,2.5,3.1c3.3,2.3,7.1,4.1,10.4,6.4c1,0.8,2.5,1.3,2.8,2.3
				c0.8,2,1.3,4.3,0.8,6.4c-0.3,0.8-3.3,1.5-5.1,1.3c-8.4-0.3-16.8-1-25.2-1.3c-3.8-0.3-7.4,1.3-10.2,4.3c-1,1-3.1,1-4.6,1.5
				c-0.5-2-1.8-4.3-1-5.6c1-2.3,3.1-4.3,5.3-5.9c4.3-2.8,6.1-6.6,6.1-11.7c0-6.6,0.3-13.2,0.5-19.8c0.3-4.6,2.5-8.9,0-13.7
				c-1.3-2.3,0.5-6.1,1-9.4c0.3-2.5,1-5.3,1-7.9c-0.3-29-0.5-58-1-87c-0.3-18.3-0.8-36.6-1.3-55c0-4.3-2-6.1-6.4-7.1
				c-3.1-0.8-5.9-1.8-8.7-3.1c-1.3-0.8-2.8-3.1-2.3-3.8c0.5-1.3,2.5-2.8,4.1-3.1c3.6-0.5,7.1-0.5,10.4-0.3c9.4,0,18.8,0.3,28.2,0.5
				c2.5,0,5.3-0.3,6.1,3.1c0.8,2.8-1.8,6.4-4.8,7.4c-6.9,2-9.2,8.9-4.8,14.2c1.8,2,1,3.6,0,5.9c-1.3,2.3-2.3,4.8-2.5,7.1
				c-0.3,10.2,0,20.6,0,30.8C198.2,263.3,198.5,263.3,198.8,263.3z"/>
			<path class="st0" d="M110.7,382.1c0-12.7-0.3-25.4-0.5-38.2c0-1.5-0.5-3.6-1.5-4.1c-5.9-3.1-4.8-8.4-4.6-13.2
				c0.3-4.8,0.8-9.9,1.3-14.8c0.3-3.8-1-6.9-4.8-8.4c-2.8-1.3-3.8-3.3-3.3-6.6c1.5-8.7,1.5-8.9-7.6-10.2c-0.3,0-0.3,0-0.5,0
				c-2.8-0.5-3.6-1.8-2-4.3c0.8-1.3,1.5-2.3,2.5-3.6c4.1-5.9,8.7-11.4,12.2-17.8c2.8-5.1,6.1-10.9,6.4-16.8
				c0.5-9.9-0.5-20.4-2.3-30.3c-1.5-7.6-6.6-13.2-15-14.8c-2.3-0.5-4.3-2.8-6.4-4.1c-1.5-1-3.3-3.3-4.8-3.3
				c-9.7-0.5-19.1-1-28.8-0.5c-14.2,0.5-28.5,1.8-42.7,3.1c-2,0.3-4.1,1.5-6.1,2.5v8.9c1,1.3,1.8,2,2.5,2.8
				c3.8,3.3,7.9,6.4,11.7,9.4c1,0.8,3.3,1.3,3.3,2c0,2-1,3.8-1.5,5.6c-0.5,1.3-1.8,2.5-1.8,3.8c-0.3,17.3-0.5,34.3-0.8,51.6
				c0,1.3,0,3.3,1,3.8c5.1,3.3,3.6,7.4,2,11.7c-2.5,8.1-2,16.5-0.5,24.7c1,4.8,0.8,9.4-0.8,14c-0.3,1.3-0.8,2.5-0.8,3.6
				c0.3,21.4,0.3,42.5,1,63.9c0.5,17.3,0.3,34.3-2.8,51.4c-1,5.9-3.3,9.2-9.2,10.4c-1,0.3-2,1.5-3.1,2.3c1,1,1.8,2.5,2.8,2.8
				c3.6,0.8,7.1,1.3,10.9,1.3c6.4,0,12.7-0.5,19.1-0.3c2.8,0,5.1,0.3,7.1-2c0.8-1,4.1-1.3,4.3-0.8c2.8,4.8,5.9,3.3,9.4,0.8
				c0.8-0.5,2.3-0.8,3.3-0.5c5.1,0.3,8.7-2.5,12.2-5.6c5.3-4.3,10.7-8.9,17-11.7c5.3-2.3,6.9-5.6,7.4-10.4
				c0.8-6.4,1.8-12.7,5.9-17.8c5.9-7.6,7.1-16.3,5.6-25.7c-0.8-4.1-0.8-8.1,2.5-11.4C110.2,384.9,110.7,383.4,110.7,382.1z
				 M54,225.4c0-1,0.5-2.3,1-3.1c2.5-2.5,12-1.5,14.2,1.3c1,1,2.8,1.5,4.3,2c1.5,0.5,3.1,0.5,5.3,0.8c-1,1.8-1.5,3.1-2.3,3.8
				c-1.8,1.8-1.8,3.3-0.5,5.6c0.8,1.3,1.5,3.6,1,4.6c-2.3,4.6-0.5,9.2,0,13.7c0.5,3.6-0.3,5.9-4.3,6.1c-6.1,0.5-8.4,5.3-10.4,9.9
				c-1.8,4.1-4.3,5.3-8.7,3.3C54,257.7,54,241.4,54,225.4z M77.9,392.8c-2,8.7-2.8,17.6-4.6,26.2c-0.5,2.8-1.8,6.1-3.6,8.1
				c-4.1,4.3-8.7,8.7-13.5,12c-2.8,2-6.6,2.5-10.4,3.3c6.1-11.2,1.3-22.6,2-33.6c0-1.3,0-3.1,0.8-4.1c2.8-3.1,2.8-6.9,2.8-10.7
				c-0.3-10.7-0.3-21.1-0.5-31.8c0-2-1.3-3.8-1.8-5.9c-0.3-0.8-0.5-2.3,0-2.5c4.8-3.8,4.6-9.9,3.8-14.5c-1.3-9.7,1.5-18.6,1.3-28
				c0-3.3,0.3-6.6,0.5-10.7c6.6,6.1,13,11.4,18.6,17c1.3,1.3,1,4.3,1.5,6.6c0.3,2.3-0.3,4.6,0.5,6.6c1.8,4.1,1.8,7.9,0,12
				c-2,5.1-1.5,9.4,2,13.7c0.8,1,1,3.6,0.3,4.8c-2.8,5.1-3.1,9.9-0.8,15.3C79.7,381.8,79.2,387.2,77.9,392.8z"/>
		</g>
	</g>
	<g>
		<path d="M291.8,159c-7.4-19.6-14.8-39.2-22.4-59c-7.4-19.3-14.5-38.4-21.6-57.8c-0.8-2-1.8-2.5-3.8-2.5c-12.2,0-24.4,0-37.1,0
			c0,35.1,0,70,0,105.1c-8.9,0-17.6,0-26.2,0c0-35.1,0-70,0-105.1c-19.3,0-38.4,0-57.8,0c0.3-0.8,0.3-1.5,0.5-2
			c3.8-7.1,7.6-14.2,11.4-21.6c0.8-1.5,1.8-2,3.3-2c31,0,62.3,0,93.4,0c10.2,0,20.1,0,30.3,0c2.5,0,3.8,0.8,4.8,3.3
			c8.9,23.4,17.8,46.6,26.7,69.7c0.3,0.8,0.5,1.5,1.3,2.8c0.5-1.5,1-2.5,1.5-3.3c8.9-23.2,17.8-46.1,26.5-69.2
			c0.8-2.3,2-3.1,4.3-3.1c35.4,0,70.5,0,105.8,0c4.8,0,9.7,0,14.2,0c0.8,0,2,0.3,2.5,1c4.3,7.9,8.7,15.8,13.2,24.4
			c-1.8,0-2.8,0-4.1,0c-37.7,0-75.3,0-113,0c-2.8,0-3.8,1-4.6,3.3c-14.5,38.7-29,77.3-43.8,115.8C295.6,159,293.8,159,291.8,159z"/>
		<path d="M4,140.9c1.3-3.6,2.5-6.9,3.8-10.4C22.3,89,36.8,47.8,51.3,6.3c0.3-0.8,0.5-1.3,1-2.8c16.5,47.3,32.8,93.9,49.4,141
			c-3.3,0-6.4,0-9.4,0c-5.3,0-10.4,0-15.8,0c-1.5,0-2.3-0.5-2.8-1.8c-1.5-4.6-3.6-9.4-5.1-14c-0.5-1.5-1.3-2-2.8-2
			c-9.2,0-18.3,0-27.5,0c-1.8,0-2.3,0.8-2.8,2c-1.8,4.6-3.3,9.4-5.3,14c-0.3,0.8-1.3,1.8-2,1.8c-8.1,0-16.3,0-24.4,0
			C4,143.4,4,142.2,4,140.9z M59.2,100.9c-2.5-7.9-4.8-15.8-7.1-23.4c-0.3,0-0.5,0-0.5,0c-2.3,7.6-4.6,15.5-7.1,23.4
			C49.5,100.9,54.1,100.9,59.2,100.9z"/>
		<path d="M512.1,146c-27,0.3-49.4-21.9-49.6-49.1c-0.3-27,21.9-49.9,48.3-50.1c28.5-0.3,50.9,21.4,50.9,49.1
			C562,123.6,539.8,145.7,512.1,146z M536.5,96.6c0-13.7-10.9-24.7-24.7-24.7c-13.5,0-24.4,10.9-24.7,24.4
			c0,13.7,10.9,24.7,24.7,24.7S536.5,110.1,536.5,96.6z"/>
		<path d="M175.7,59c-5.3,6.1-10.7,12.2-16.3,18.6c-6.4-5.1-13.5-6.9-21.4-5.1c-5.9,1.3-10.7,4.3-14.2,9.2
			c-7.4,9.7-6.6,23.2,1.3,31.5c8.1,8.9,22.6,11.7,34.6,2.3c2.5,3.1,5.3,6.1,7.9,9.2c2.8,3.1,5.3,6.1,8.1,9.2
			c-12.2,12.7-41.5,19.3-63.6,1.3c-21.9-17.6-24.4-50.1-5.6-71.2C125.9,41.9,157.7,42.4,175.7,59z"/>
		<path d="M375.7,145c0-7.6,0-14.5,0-21.6c4.3,0,8.1,0,12.2,0c2.8,0,5.6,0,8.4-0.3c5.9-0.8,7.9-5.1,4.8-9.9
			c-2.8-4.1-6.1-7.9-9.4-11.4c-5.6-6.4-10.9-12.7-13.5-21.1c-2-6.1-2.3-12.5,0-18.6c2.8-8.1,8.9-12.7,17.3-13.2
			c8.9-0.5,18.1-0.3,27.2-0.3c0.5,0,1.8,1,1.8,1.5c0,6.4,0,12.5,0,19.1c-1,0-2,0.3-3.1,0.3c-4.8,0-9.7,0-14.2,0
			c-5.3,0.3-7.4,3.8-4.8,8.4c1.5,2.8,3.8,5.3,6.1,8.1c4.8,6.1,10.2,12.2,14.5,18.6c3.6,5.1,5.1,11.2,5.6,17.6
			c0.5,10.4-6.1,20.1-17.6,21.6C399.4,145,387.4,144.5,375.7,145z"/>
		<path d="M246.2,144.7c-8.4,0-16.5,0-25.2,0c0-1.3,0-2.3,0-3.6c0-29.8,0-59.8,0-89.6c0-2.3,0.5-3.3,3.1-3.1c6.6,0.3,13.5,0,20.1,0
			c1.5,0,2.3,0.5,2.3,2c0,31,0,61.8,0,92.9C246.5,143.7,246.5,143.9,246.2,144.7z"/>
		<path d="M343.2,48.3c8.4,0,16.8,0,25.2,0c0,32.1,0,63.9,0,95.9c-8.4,0-16.5,0-25.2,0C343.2,112.4,343.2,80.3,343.2,48.3z"/>
		<path d="M432.5,48.3c8.4,0,16.5,0,24.9,0c0,31.8,0,63.9,0,95.9c-8.4,0-16.5,0-24.9,0C432.5,112.1,432.5,80.3,432.5,48.3z"/>
		<g>
			<path d="M636,48.5c-8.1,0-16,0-24.2,0c0,12,0,23.9,0,36.4c-15.5-13.2-30.3-26-45.5-39.2c0,33.1,0,65.9,0,98.7
				c8.4,0,16.8,0,25.4,0c0-13.2,0-26.5,0-40.2c1,1,1.8,1.5,2.3,2c12,11.7,23.9,23.4,35.9,34.9c3.6,3.3,5.3,5.1,6.4,7.1V48.5H636z"/>
		</g>
	</g>
</g>
</svg>
