<svg xmlns="http://www.w3.org/2000/svg" viewBox="0 0 640 480"><defs><style>.cls-1{fill:none;}.cls-2{fill:#216bd1;}</style></defs><title>Asset 5</title><g id="Layer_2" data-name="Layer 2"><g id="Bitcoin"><path class="cls-1" d="M0,0V480H640V0ZM435.69,23.16A14.92,14.92,0,1,1,430.1,43.5,14.92,14.92,0,0,1,435.69,23.16ZM399.55,70.25a21.7,21.7,0,1,1-8.13,29.6A21.71,21.71,0,0,1,399.55,70.25ZM426.16,240a31.65,31.65,0,1,1-31.65-31.65A31.65,31.65,0,0,1,426.16,240Zm-34.33-65.88a31.65,31.65,0,1,1-31.65-31.65A31.65,31.65,0,0,1,391.83,174.12ZM320,2.5a14.92,14.92,0,1,1-14.92,14.92A14.92,14.92,0,0,1,320,2.5Zm0,77.09A22.38,22.38,0,1,1,297.62,102,22.38,22.38,0,0,1,320,79.59Zm-40.18,62.88a31.65,31.65,0,1,1-31.65,31.65A31.65,31.65,0,0,1,279.82,142.47ZM277.14,240a31.65,31.65,0,1,1-31.65-31.65A31.65,31.65,0,0,1,277.14,240ZM255.58,89.12a21.7,21.7,0,1,1-21.7-21.7A21.69,21.69,0,0,1,255.58,89.12ZM204,21.21a14.92,14.92,0,1,1-14.92,14.92A14.92,14.92,0,0,1,204,21.21Zm0,131.21a21.7,21.7,0,1,1-21.7,21.7A21.7,21.7,0,0,1,204,152.42Zm-80.27-27.89a14.92,14.92,0,1,1-5.59,20.35A14.91,14.91,0,0,1,123.77,124.53ZM86.16,253a14.92,14.92,0,1,1,14.92-14.92A14.92,14.92,0,0,1,86.16,253Zm52.37,102.45a14.92,14.92,0,1,1,5.59-20.35A14.91,14.91,0,0,1,138.53,355.47ZM146.07,253A14.92,14.92,0,1,1,161,238.1,14.92,14.92,0,0,1,146.07,253Zm57.37,31.16a21.7,21.7,0,1,1-21.71,21.7A21.7,21.7,0,0,1,203.44,284.18Zm.87,172.66a14.92,14.92,0,1,1,5.59-20.34A14.92,14.92,0,0,1,204.31,456.84Zm36.14-47.09a21.7,21.7,0,1,1,8.13-29.6A21.71,21.71,0,0,1,240.45,409.75Zm7.72-103.87a31.65,31.65,0,1,1,31.65,31.65A31.65,31.65,0,0,1,248.17,305.88ZM320,477.5a14.92,14.92,0,1,1,14.92-14.92A14.92,14.92,0,0,1,320,477.5Zm0-77.09A22.38,22.38,0,1,1,342.38,378,22.38,22.38,0,0,1,320,400.41Zm40.18-62.88a31.65,31.65,0,1,1,31.65-31.65A31.65,31.65,0,0,1,360.18,337.53Zm24.24,53.35a21.7,21.7,0,1,1,21.7,21.7A21.69,21.69,0,0,1,384.42,390.88ZM436,458.79a14.92,14.92,0,1,1,14.92-14.92A14.92,14.92,0,0,1,436,458.79Zm0-131.21a21.7,21.7,0,1,1,21.7-21.7A21.69,21.69,0,0,1,436,327.58Zm.6-131.76a21.7,21.7,0,1,1,21.71-21.7A21.7,21.7,0,0,1,436.56,195.82ZM479,238.1A14.92,14.92,0,1,1,493.93,253,14.92,14.92,0,0,1,479,238.1Zm37.22,117.37a14.92,14.92,0,1,1,5.59-20.35A14.91,14.91,0,0,1,516.23,355.47Zm0-205a14.92,14.92,0,1,1,5.59-20.34A14.92,14.92,0,0,1,516.23,150.46ZM553.84,253a14.92,14.92,0,1,1,14.92-14.92A14.92,14.92,0,0,1,553.84,253Z"/><circle class="cls-2" cx="435.96" cy="443.87" r="14.92"/><circle class="cls-2" cx="406.12" cy="390.88" r="21.7" transform="translate(-78.94 103.76) rotate(-13.28)"/><circle class="cls-2" cx="435.96" cy="305.88" r="21.7" transform="translate(-88.6 397.86) rotate(-45)"/><circle class="cls-2" cx="203.44" cy="305.88" r="21.7" transform="translate(-156.7 233.44) rotate(-45)"/><circle class="cls-2" cx="279.82" cy="305.88" r="31.65" transform="translate(-134.33 287.45) rotate(-45)"/><circle class="cls-2" cx="360.18" cy="305.88" r="31.65"/><circle class="cls-2" cx="196.93" cy="443.88" r="14.92" transform="translate(-269.3 579.66) rotate(-82.31)"/><path class="cls-2" d="M123.77,329.54a14.92,14.92,0,1,0,20.35,5.58A14.92,14.92,0,0,0,123.77,329.54Z"/><path class="cls-2" d="M501.47,329.54a14.92,14.92,0,1,0,20.35,5.58A14.92,14.92,0,0,0,501.47,329.54Z"/><circle class="cls-2" cx="229.72" cy="390.88" r="21.7" transform="translate(-68.54 49.42) rotate(-10.69)"/><circle class="cls-2" cx="320" cy="462.58" r="14.92"/><circle class="cls-2" cx="320" cy="378.03" r="22.38"/><circle class="cls-2" cx="204.04" cy="36.13" r="14.92"/><circle class="cls-2" cx="233.88" cy="89.12" r="21.7" transform="translate(-14.22 56.12) rotate(-13.28)"/><circle class="cls-2" cx="204.04" cy="174.12" r="21.7" transform="translate(-63.36 195.28) rotate(-45)"/><circle class="cls-2" cx="436.56" cy="174.12" r="21.7" transform="translate(4.74 359.7) rotate(-45)"/><circle class="cls-2" cx="360.18" cy="174.12" r="31.65" transform="translate(-23.24 59.94) rotate(-9.22)"/><circle class="cls-2" cx="279.82" cy="174.12" r="31.65" transform="translate(-41.16 248.86) rotate(-45)"/><circle class="cls-2" cx="245.49" cy="240" r="31.65"/><circle class="cls-2" cx="394.51" cy="240" r="31.65"/><path class="cls-2" d="M450.45,49.09A14.92,14.92,0,1,0,430.1,43.5,14.93,14.93,0,0,0,450.45,49.09Z"/><circle class="cls-2" cx="508.85" cy="137.5" r="14.92" transform="translate(246.44 594.63) rotate(-75.26)"/><circle class="cls-2" cx="131.15" cy="137.5" r="14.92" transform="translate(-16.02 257.69) rotate(-85.59)"/><circle class="cls-2" cx="410.28" cy="89.12" r="21.7" transform="translate(16.5 234.75) rotate(-32.55)"/><circle class="cls-2" cx="320" cy="17.42" r="14.92"/><circle class="cls-2" cx="320" cy="101.97" r="22.38"/><circle class="cls-2" cx="553.84" cy="238.1" r="14.92"/><circle class="cls-2" cx="493.93" cy="238.1" r="14.92"/><circle class="cls-2" cx="146.07" cy="238.1" r="14.92"/><circle class="cls-2" cx="86.16" cy="238.1" r="14.92"/></g></g></svg>