<?xml version="1.0" encoding="utf-8"?>
<!-- Generator: Adobe Illustrator 22.1.0, SVG Export Plug-In . SVG Version: 6.00 Build 0)  -->
<svg version="1.1" id="Layer_2_1_" xmlns="http://www.w3.org/2000/svg" xmlns:xlink="http://www.w3.org/1999/xlink" x="0px" y="0px"
	 viewBox="0 0 640 480" style="enable-background:new 0 0 640 480;" xml:space="preserve">
<style type="text/css">
	.st0{fill:#85BC32;}
</style>
<path class="st0" d="M565.4,467.8c-3-3.6-5.7-7.5-8.6-11c-51.3-68-94.2-141-120.1-222.7c-8.3-26.5-15.5-53.7-20.9-81.1
	c-9.5-47.4-10.7-95.4-8.3-143.4c0-1.8,0-3.9,0-5.4l-14-4.2c-34,74.5-85.9,134.8-151.2,183.7c-51.3,38.2-107.3,66.8-167.3,88
	c-0.6,0.3-1.5,0.3-2.1,0.6l3,14.3c1.8,0.6,3.9,0.6,6.3,0.6c66.8-1.8,131.5,9.2,195,29.2c35.5,11,69.8,25,102.9,41.7
	c43.8,22.1,84.7,48.3,123.1,78.4c17.3,13.4,33.7,28,50.7,42c0.9,0.6,1.5,1.2,2.4,1.5l11-9.2C566.9,469.9,566.3,469,565.4,467.8z"/>
</svg>
