<?xml version="1.0" encoding="utf-8"?>
<!-- Generator: Adobe Illustrator 14.0.0, SVG Export Plug-In . SVG Version: 6.00 Build 43363)  -->
<!DOCTYPE svg PUBLIC "-//W3C//DTD SVG 1.0//EN" "http://www.w3.org/TR/2001/REC-SVG-20010904/DTD/svg10.dtd">
<svg version="1.0" id="Layer_1" xmlns="http://www.w3.org/2000/svg" xmlns:xlink="http://www.w3.org/1999/xlink" x="0px" y="0px"
	 width="400px" height="100px" viewBox="0 0 400 100" enable-background="new 0 0 400 100" xml:space="preserve">
<polygon fill="#006BAD" points="334.498,77.127 382.586,77.127 382.586,91.945 314.715,91.945 314.715,9.515 334.498,9.515 "/>
<polygon fill="#006BAD" points="14.119,9.392 109.625,84.087 36.267,9.392 "/>
<path fill="#006BAD" d="M58.168,9.392l53.107,72.445C103.283,57.652,87.282,27.27,78.268,9.392H58.168L58.168,9.392z"/>
<path fill="#006BAD" d="M98.198,9.392h19.584c0,0,0.187,53.386,0.052,62.608c-0.125,8.71-3.049,19.774-20.096,19.954
	c-18.083,0.193-84.323,0-84.323,0V71.783c0,0,78.545,15.181,86.537,16.61c7.994,1.436,16.435-2.049,13.567-14.552
	C110.648,61.338,98.198,9.392,98.198,9.392L98.198,9.392z"/>
<path fill="#006BAD" d="M13.414,30.584c0,0,84.952,49.816,88.433,51.864c3.487,2.051,5.739,3.28,5.739,3.28
	c-7.172-0.409-13.319-3.28-16.598-4.51c-3.279-1.23-77.572-30.174-77.572-30.174v-20.46H13.414z"/>
<path fill="#006BAD" d="M305.602,34.051h-20.323l0.005-0.133c-0.049-12.391-6.486-11.78-23.92-11.89
	c-23.546-0.15-25.651,2.724-25.87,19.05l0.065,19.371c0.342,17.683,2.908,19.277,26.007,19.196
	c18.845-0.068,24.47-0.229,24.415-16.223v-0.548l-25.281-0.029V48.25h45.264l0.046,0.068l0.544,15.035
	c0.088,25.009-7.569,29.521-44.941,29.831c-33.506,0.276-46.429-4.055-46.529-32.66l-0.067-20.292
	c-0.105-29.036,12.272-32.237,46.301-32.357c23.84-0.083,44.874,1.648,44.325,26.083L305.602,34.051L305.602,34.051z"/>
<path fill="#006BAD" d="M182.912,9.515h-29.128l-34.207,82.431h20.469l10.378-25.502l36.801-0.007l10.522,25.509h20.061
	L182.912,9.515L182.912,9.515L182.912,9.515L182.912,9.515z M156.23,51.949l12.393-30.34h0.276l12.418,30.34H156.23L156.23,51.949z"
	/>
</svg>
