<?xml version="1.0" encoding="utf-8"?>
<!-- Generator: Adobe Illustrator 21.1.0, SVG Export Plug-In . SVG Version: 6.00 Build 0)  -->
<svg version="1.1" id="Layer_1" xmlns="http://www.w3.org/2000/svg" xmlns:xlink="http://www.w3.org/1999/xlink" x="0px" y="0px"
	 viewBox="0 0 640 480" style="enable-background:new 0 0 640 480;" xml:space="preserve">
<style type="text/css">
	.st0{fill:#2C6BAF;}
	.st1{fill:#ECB731;}
</style>
<g>
	<path class="st0" d="M214.7,386.6c0,7,5.3,12.3,11.7,12.3c3.5,0,6.4-1.2,8.8-3.5l132.2-132.8l42.7,42.7L277.9,437.5
		c-17,17-31.6,23.4-52.7,23.4c-39,0.1-70.7-31.5-70.8-70.5c0-0.1,0-0.2,0-0.3V219.9c0-38.6,31.6-70.8,70.8-70.8
		c21.1,0,35.7,6.4,52.7,24l36.9,36.9L272,252.1l-36.9-37.4c-2.3-1.8-5.3-3.5-8.8-3.5c-6.4,0-11.7,5.9-11.7,12.3L214.7,386.6
		L214.7,386.6z"/>
	<path class="st0" d="M425.3,386.6c0,7-5.3,12.3-11.7,12.3c-3.5,0-6.4-1.2-8.8-3.5L367.4,358l-42.1,42.7l36.9,36.8
		c17,17,31.6,23.4,52.7,23.4c39,0.1,70.7-31.5,70.8-70.5c0-0.1,0-0.2,0-0.3V219.9c0-38.6-31.6-70.8-70.8-70.8
		c-21.1,0-35.7,6.4-52.7,24L229.9,305.3l42.1,42.1l132.8-132.8c2.3-1.8,5.3-3.5,8.8-3.5c6.4,0,11.7,5.9,11.7,12.3V386.6z"/>
	<path class="st1" d="M241,122.8h158v-21.1H241V122.8z M309.5,94.7h21.1V39.1h-21.1V94.7z"/>
	<path class="st1" d="M320,35.6c7,0,13.5-5.9,13.5-13.5c0-7-6.4-13.5-13.5-13.5c-7.6,0-13.5,6.4-13.5,13.5
		c-0.1,7.3,5.7,13.3,13,13.5C319.7,35.6,319.9,35.6,320,35.6L320,35.6z M276.1,66.6c-0.6-0.6-1.2-1.2-1.2-2.3c0-2.3,1.8-4.1,4.1-4.1
		h23.4V39.1h-24c-13.5,0-25.7,11.1-25.7,24.6c0,6.4,2.9,12.3,7,17l14.1,14h29.8L276.1,66.6L276.1,66.6z"/>
	<path class="st1" d="M236.3,66.6c-0.6-0.6-1.2-1.2-1.2-2.3c0-2.3,1.8-4.1,4.1-4.1h7c0.6-8.2,5.9-18.1,15.8-21.1h-24
		c-13.5,0-25.2,11.1-25.2,24.6c0,6.4,2.9,12.3,7,17l14,14h29.8L236.3,66.6L236.3,66.6z M363.9,66.6l-27.5,28.1h29.8l14-14
		c4.1-4.7,7-10.5,7-17c0-13.5-12.3-24.6-25.7-24.6h-24v21.1H361c2.3,0,4.1,1.8,4.1,4.1C365.1,65.4,364.5,66,363.9,66.6L363.9,66.6z"
		/>
	<path class="st1" d="M403.7,66.6l-27.5,28.1H406l14.1-14c4.1-4.7,7-10.5,7-17c0-13.5-11.7-24.6-25.2-24.6h-24
		c9.9,2.9,15.2,12.9,15.8,21.1h7c2.3,0,4.1,1.8,4.1,4.1C404.8,65.4,404.3,66,403.7,66.6L403.7,66.6z"/>
</g>
</svg>
