<?xml version="1.0" encoding="utf-8"?>
<!-- Generator: Adobe Illustrator 19.1.1, SVG Export Plug-In . SVG Version: 6.00 Build 0)  -->
<svg version="1.1" id="Layer_1" xmlns="http://www.w3.org/2000/svg" xmlns:xlink="http://www.w3.org/1999/xlink" x="0px" y="0px"
	 viewBox="-159 41 640 480" style="enable-background:new -159 41 640 480;" xml:space="preserve">
<style type="text/css">
	.st0{fill:#2C3B89;}
	.st1{fill:#FFFFFF;}
</style>
<path class="st0" d="M-159,119.3h640v323.3h-640V119.3z"/>
<path class="st1" d="M88.9,385.7c-5.7-1.3-12.4-4-17.2-12.8c-4.9-6.2-28.7-72.3-28.7-72.3L-6.8,163.5c-3.1-8.4-6.6-10.6-10.1-0.9
	l-54.2,138.9c0,0-24.3,63.5-28.7,69.7c0,0-4.4,13.2-17.2,17.6c-6.2,1.8-4.4,11,2.2,11c4-1.8,45.4-1.3,52,0.4
	c7.1-2.2,5.7-10.1,2.2-12.4c-13.2-2.2-20.3-9.3-17.2-22l14.1-38.8c3.5-9.3,9.7-8.4,14.1-9.3H5.1c7.9,0,11.9,1.3,14.1,9.3l13.2,36.2
	c0,0,8.4,22.9-13.7,25.6c-5.3,0.4-4,12.3,2.2,11.9c9.3-0.9,45.9-2.2,53.8-0.4c1.8,0,10.1,1.8,15.9-1.3
	C93.3,397.2,94.2,387.1,88.9,385.7L88.9,385.7z M4.7,301.1h-51.2c-3.5,0.4-6.6-3.1-2.6-10.1l26.5-62.6c2.2-5.3,4.4-6.2,6.2,0.4
	l23.4,63.9C8.7,297.5,10.4,301.1,4.7,301.1L4.7,301.1z M444,284.7c-26.9,0.9-51.6,2.2-78.1,1.8c-3.5,0-3.5,0.9-4.9,1.8
	c-3.1,0-2.6,10.1,0.4,10.1c0.9,0.4,1.8,0.9,3.1,0.9c22.5-2.2,37,0,38.4,27.8v-0.9l0.4,26.9c0,0,1.3,9.3-1.8,19
	c-6.2,20.7-45.9,20.7-69.2,10.6c-31.3-13.7-56-44.1-59.5-78.9c-5.3-51.2,15-101.4,63.1-117.3c14.1-4,30.9-7.9,47.6,0
	c13.2,7.1,19.4,15,22.9,22.5c3.1,11,10.1,10.1,13.2,7.5c0-0.4,1.8-4.4,1.8-5.3l-2.2-44.5c-3.5-5.7-11-4.4-11.5-3.1
	c-1.8,1.8-3.5,3.5-5.3,4.4c-11,4.9-37.5-5.3-64.4,0.9c-35.3,7.9-57.3,19.8-79.8,51.2c-5.7,8.8-15.4,29.1-17.2,42.8
	c-3.1,24.7-3.1,60.9,13.7,90.4c19,32.6,53.8,47.6,89.5,51.6c29.5,3.1,58.2,0,84.2-13.2c2.2-1.3,2.2-4,2.6-6.6v-59.5
	c0-16.3,6.6-25.6,9.7-28.2c1.3,0,4-2.2,6.2-3.5C448.8,290.5,447,285.6,444,284.7L444,284.7z"/>
<path class="st1" d="M420.1,213.4c0,0-0.4,0-0.4,0.4L420.1,213.4z M203.6,386.7c-21.2,0-27.8-7.9-28.7-18.1
	c-0.9-2.2-0.9-26.9-0.9-34.8V211.2c0.9-6.6,0.9-20.7,1.8-22.9c0.9-5.3,3.1-8.8,11.9-11.5l15-2.6c6.2-3.1,4-12.3-3.1-10.6
	c-8.8,1.3-78.9,1.8-83.4,0c-7.9,0.4-5.3,11-1.8,11.5l12.8,1.8c9.3,0,14.1,5.7,16.3,11c0.4,2.2,0.9,15.9,0.9,22.5v123
	c0,0-0.9,27.8-2.2,34.8c-1.3,5.7,2.2,17.2-27.8,20.7c-5.7,3.1-3.1,9.3,0,9.3c3.1,0.9,20.7,0.4,30.4-0.9c5.3-1.3,54.2-0.9,57.8,0
	C212,397.3,210.7,387.6,203.6,386.7L203.6,386.7z"/>
</svg>
