<?xml version="1.0" encoding="utf-8"?>
<!-- Generator: Adobe Illustrator 20.1.0, SVG Export Plug-In . SVG Version: 6.00 Build 0)  -->
<svg version="1.1" id="Layer_1" xmlns="http://www.w3.org/2000/svg" xmlns:xlink="http://www.w3.org/1999/xlink" x="0px" y="0px"
	 viewBox="0 0 640 480" style="enable-background:new 0 0 640 480;" xml:space="preserve">
<style type="text/css">
	.st0{fill:#00255C;}
	.st1{fill:#3B4E89;}
	.st2{fill:#8F99A9;}
	.st3{fill:#B1B9C6;}
	.st4{fill:#E2E5EC;}
</style>
<g id="svgg">
	<path id="path0" class="st0" d="M212.9,68.9c-61.5,40.1-94.8,99.7-95.1,170.2C117,437.7,375.7,518,486.7,353.6
		c9.9-14.6,24.8-45.2,22.9-47c-0.3-0.3-1.7,2.3-3,5.7c-2.7,7.1-3.8,7.9-14,10.3c-6.2,1.4-8.2,1.4-14.1-0.5c-8.8-2.9-10.5-2-17.4,9.8
		c-63.6,107-213.8,122.4-294.6,30.2c-12.6-14.4-13-16.7-0.8-5.1c74.9,71.5,194.2,62,250.7-19.9l5.7-8.2l-19.8,0.2l-19.8,0.2
		l-8.8,9.7c-48.8,53.4-131.2,62.3-191.4,20.7c-10.3-7.1-30.5-26.9-33.7-33c-0.9-1.8,2.5,0.8,7.7,5.7c50.3,47.9,126.1,48.5,177.6,1.3
		c12.5-11.4,12.5-11.5-0.7-15.9c-6.2-2-13-4.6-15.1-5.7c-3.8-1.9-4-1.8-13.8,7.4c-67,62.4-174.4,21.2-183.6-70.5l-0.9-8.6h16.3h16.3
		l1.7-16.1c4.8-45.3,23.2-84.2,54-114.3c8.5-8.4,13.3-12.3,28.3-23.4c3.3-2.5,3.3-2.5-0.7-0.2c-13.3,7.6-31,23.2-45,39.6l-3.5,4.1
		l-0.1-4.8c-0.1-2.6-0.4-6.2-0.7-7.9c-0.4-1.9,0.2-3.4,1.5-3.9c1.1-0.4,2.1-2,2.1-3.4c0-1.4,0.9-3,2.1-3.4c1.1-0.4,2.1-2.2,2.1-3.9
		c0-1.7,0.9-3.5,2.1-3.9c1.1-0.4,2.1-1.9,2.1-3.2c0-1.3,0.9-4.2,2.1-6.4c1.1-2.2,2-4.8,2-5.9c0-1.1,0.9-2.3,2.1-2.7
		c1.1-0.4,2.1-1.5,2.1-2.3c0-0.8,2.6-3.9,5.8-6.7C218.1,66.2,218.4,65.3,212.9,68.9 M198.1,192.6c-3,9.2-5.5,22.7-6.4,34.5l-0.9,12
		h17.9h17.9l-6-9.2c-6.6-10.3-13.4-23.2-18-34.5l-3-7.4L198.1,192.6"/>
	<path id="path1" class="st1" d="M303.3,38.7c-18.5,1.8-41.9,6.8-52,11.2c-2.6,1.1-5.1,2.2-5.5,2.3c-0.4,0.1-2.4,0.7-4.5,1.3
		c-2.1,0.6-3.8,1.6-3.8,2.3c0,0.7-0.5,1.1-1,0.9c-1.9-0.5-7.2,1.8-7.2,3.2c0,0.7-0.6,1-1.3,0.6c-0.7-0.4-2.6,0.6-4.3,2.3
		c-1.7,1.7-2.6,2.3-2.1,1.4c1.8-3.2-3-0.3-5.3,3.2c-1.2,1.8-2.9,3.3-3.8,3.3c-0.9,0-0.4-1,1.1-2.1c2.5-2,2.5-2.1-0.5-0.6
		c-1.7,0.8-2.8,2.1-2.3,2.8c0.4,0.7-0.5,2.3-2,3.7c-1.5,1.3-2.8,3.1-2.8,4c0,0.9-0.9,2-2.1,2.4c-1.1,0.4-2.1,1.7-2.1,2.7
		c0,1.1-0.9,3.7-2,5.9c-1.1,2.2-2,5-2.1,6.4c0,1.3-0.9,2.8-2.1,3.2c-1.1,0.4-2.1,2.2-2.1,3.9c0,1.7-0.9,3.5-2.1,3.9
		c-1.1,0.4-2.1,2-2.1,3.4c0,1.4-0.9,3-2.1,3.4c-1.3,0.5-1.8,2-1.5,3.9c0.3,1.7,0.6,5.2,0.7,7.8c0.1,4.4,0.2,4.5,2.6,2.4
		c1.4-1.2,2.8-2,3.2-1.6c0.4,0.4,2.2-1,4-3.1l3.3-3.8l-3.8,3.3c-5.5,4.8-4.6,1.5,1-4c2.6-2.6,4.8-4.1,4.8-3.5c0,0.6,0.9,0.4,2-0.5
		c1.1-0.9,1.6-2.6,1.2-3.7c-0.5-1.3-0.1-1.9,1.1-1.6c1.1,0.2,2.1-0.2,2.3-0.9c0.5-2.1,8.8-10.3,10.3-10.3c0.7,0,0.1,1.4-1.3,3.1
		l-2.6,3.1l3.1-2.6c1.7-1.4,2.8-2.9,2.4-3.3c-0.9-0.9,2-4.4,3.7-4.4c0.7,0,0.9,0.6,0.4,1.4c-1.4,2.2,0.2,1.6,2.2-0.9
		c1.6-2,1.6-2.2-0.2-1.3c-1.1,0.6-0.5-0.2,1.4-1.8c1.9-1.6,4.2-2.6,5.1-2.2c0.9,0.3,2.1-0.1,2.6-0.9c0.6-0.9,0.3-1.1-0.6-0.5
		c-0.9,0.5-1.6,0.7-1.6,0.3c0-0.4,1.3-1.4,2.9-2.3c2.3-1.3,2.7-1.2,1.9,0.3c-0.5,1,0.4,0.3,2-1.6c1.6-1.9,2.5-2.6,2-1.6
		c-0.8,1.5-0.4,1.5,1.9,0.3c1.6-0.9,2.9-2.2,2.9-3s0.6-1.1,1.3-0.6c0.7,0.4,2.3-0.3,3.7-1.6c1.3-1.3,2.5-2.1,2.5-1.8
		c0.1,0.3,6.6-2,14.6-5.1c31.3-12.2,88.8-16.9,114.9-9.4c37.1,10.7,64.7,28.9,90.7,60c8.4,10,12.9,17,8.8,13.6
		c-3.2-2.7-3-2,3.7,10.9c3.5,6.8,6.4,14.5,7,18.7c0.5,3.9,2.5,9.4,4.3,12c11.5,16.9,19.7,41.5,19.7,59.2l0,4.5h-16.4h-16.4v6.9
		c0,17.3-7.1,47.6-15.6,66.1c-4.5,9.9-4.6,10.4-1.6,8.4c2.9-1.9,3.9-1.9,10.1,0.2c5.9,1.9,8,2,14.2,0.6c10-2.4,11.6-3.4,13.4-8.9
		c0.9-2.6,2.1-4.5,2.8-4c0.7,0.4,0.8-0.3,0.3-1.6c-0.6-1.7-0.4-2,0.8-1.3c1.3,0.8,1.5,0.3,0.8-2c-0.7-2.3-0.5-2.8,0.8-2
		c1.2,0.8,1.5,0.4,0.9-1c-0.4-1.2-0.2-2.7,0.5-3.4c10.6-10.6,10.8-89.3,0.3-115.5c-0.5-1.1-1-3.1-1.3-4.4c-1-5-9.2-24.2-14.5-34
		C459.5,74.7,380.1,31.3,303.3,38.7 M196.8,78.9c-4,3-7.2,5.8-7.2,6.2s3.4-1.9,7.5-5c6.5-4.9,8.5-6.8,7.2-6.7
		C204.2,73.4,200.8,75.9,196.8,78.9 M335.6,76.2c-62.2,8.6-110.2,46.3-134.2,105.3c-3.7,9.2-4.4,11.7-2.2,8.3c1.2-1.8,1.3-1.8,1.4,0
		c0.1,3.1,12.5,28.2,19.2,39c6.7,10.6,7.7,10.1,8-3.5c0.3-15.8,10.1-43.6,21.6-61.8c3.2-5.1,5.9-9.5,5.9-9.8c0-0.3,2.7-3.5,6.1-7.1
		c3.3-3.6,5.8-6.9,5.5-7.2c-1-1,2.3-4.3,3.5-3.6c0.6,0.4,2.6-1.2,4.5-3.4c1.9-2.3,3.8-4.1,4.2-4.1c0.4,0,4.4-2.7,8.8-5.9
		c18-13.2,41.8-22.8,64.5-25.9c10.2-1.4,11.6-1.9,9.2-3.1c-1.6-0.8-3-2.4-3-3.5c0-1.1-1.4-3.9-3-6.3c-3.8-5.4-3.1-6,6.7-6
		c21.2,0,50.2,7.7,72.3,19.2c7.2,3.7,11.5,5.6,9.6,4.1C422.1,83.4,369.5,71.5,335.6,76.2 M169.7,103.8l-5.4,5.8l5.8-5.4
		c5.4-5,6.5-6.2,5.4-6.2C175.3,98,172.7,100.6,169.7,103.8 M448.4,104c0,0.4,1.8,2,4.1,3.6c2.3,1.6,4.1,2.6,4.1,2.2s-1.8-2-4.1-3.6
		C450.3,104.6,448.4,103.6,448.4,104 M370.9,113.8c-58.5,9.8-102.6,59.3-106.3,119.1l-0.4,6.8l18.1,0.4l18.1,0.4v-4.7
		c0-46.6,38.2-90.8,88.3-102.2c6-1.4,9.7-2.5,8.2-2.6c-3.1-0.1-17.7-14.1-16.2-15.6c3.5-3.5,43.2,0.9,58.7,6.5
		c2.3,0.9,2.4,0.8,0.4-0.5C427.9,113.5,394.4,109.9,370.9,113.8 M191.3,222.6c0,2.6,0.3,3.7,0.6,2.4c0.3-1.3,0.3-3.5,0-4.8
		C191.6,218.9,191.3,220,191.3,222.6 M153,235c0,3.4,0.3,4.8,0.6,3.1c0.3-1.7,0.3-4.5,0-6.2C153.3,230.2,153,231.6,153,235
		 M199.6,240.1c5.1,0.3,13.4,0.3,18.5,0c5.1-0.3,0.9-0.5-9.2-0.5C198.6,239.6,194.5,239.8,199.6,240.1 M338.4,241.3
		c-0.5,0.5-0.9,3.6-0.9,6.8c0,20.1-11.2,47-26.5,63.5c-3.3,3.6-3.9,4.6-1.4,2.3c4.1-3.6,4.5-3.8,8.2-1.9c2.2,1.1,9,3.7,15.2,5.7
		c7,2.3,11,4.3,10.4,5.2c-0.5,0.8-0.3,1.1,0.6,0.5c10.9-6.7,27.6-47.5,29.9-73.1l0.9-10h-17.8C347.3,240.4,338.9,240.8,338.4,241.3
		 M411,252.5c-1.8,23.8-13,54.6-26.4,72.2c-2.9,3.8-4.3,6.2-3.2,5.5c2.8-2,40-1,38.8,1c-0.6,0.9-0.3,1.1,0.7,0.5
		c0.9-0.5,1.2-1.6,0.8-2.3c-0.4-0.7-0.2-1.3,0.4-1.3c1.7,0,7.3-10.4,6.2-11.4c-0.5-0.5-0.2-0.9,0.6-0.9c1.4,0,3.1-3.5,2.9-6
		c-0.1-0.7,0.6-1.6,1.5-2.2c0.9-0.5,1.7-2.3,1.8-3.9c0.1-1.6,0.7-3,1.4-3c0.6,0,0.7-0.7,0.2-1.5c-0.5-0.8-0.3-1.9,0.6-2.5
		c0.8-0.5,1.7-2.1,2-3.6c0.3-1.5,1.2-4.4,2.1-6.5c0.9-2.1,1.9-5.8,2.3-8.2c0.4-2.4,1.2-7.5,1.9-11.2c0.7-3.8,1.6-11.3,2.1-16.8
		l0.8-9.9h-18.3h-18.3L411,252.5 M544.5,307.4c-2.3,7.6-22.4,50.8-27.7,59.4c-8.5,13.8-8.8,14.5-4.8,10c11.9-13.5,38.5-70.2,34.7-74
		C546.4,302.3,545.4,304.4,544.5,307.4 M148.1,326.1c0.4,1.2,2,2.7,3.4,3.5c1.4,0.8,2.3,1.9,1.9,2.5c-0.4,0.6,0.2,1.9,1.3,2.8
		c1.1,0.9,2,1.2,2,0.7c0-0.6,1.1-0.2,2.4,0.8c1.3,1-0.7-1.4-4.4-5.3C147.3,323.3,146.9,323,148.1,326.1 M368.3,343.5l-8.2,8.6
		l8.6-8.2c8-7.6,9.2-8.9,8.2-8.9C376.6,334.9,372.8,338.8,368.3,343.5 M156.8,350c1.6,2.3,3.5,4.1,4.3,4.1c0.7,0,1,0.5,0.6,1.2
		c-0.4,0.7,0.5,2.3,2,3.6c1.5,1.3,2.7,1.9,2.7,1.3c0-0.6,1.7,0.3,3.8,2.1c2.1,1.8-0.5-1.2-5.8-6.6
		C153.9,344.9,152.3,343.8,156.8,350 M229,349.6c1.7,0.3,4.2,0.3,5.5,0c1.3-0.3-0.1-0.6-3.1-0.6C228.4,349,227.3,349.3,229,349.6
		 M429.9,370.9l-6.8,7.2l7.2-6.8c6.7-6.3,7.8-7.6,6.8-7.6C436.9,363.7,433.6,366.9,429.9,370.9 M231.7,368.8c1.7,0.3,4.2,0.3,5.5,0
		c1.3-0.3-0.1-0.6-3.1-0.6C231.1,368.1,230,368.4,231.7,368.8 M255,368.8c1.7,0.3,4.2,0.3,5.5,0c1.3-0.3-0.1-0.6-3.1-0.6
		C254.4,368.1,253.3,368.4,255,368.8 M171.1,378.7c2.9,3,5.7,5.5,6,5.5c0.4,0-1.7-2.5-4.7-5.5c-2.9-3-5.7-5.5-6-5.5
		C166.1,373.3,168.2,375.7,171.1,378.7 M178.7,386c0,0.2,2,2.2,4.4,4.4l4.4,4l-4-4.4C179.8,385.9,178.7,385,178.7,386 M274.2,405.8
		c4.7,0.3,12.4,0.3,17.1,0c4.7-0.3,0.9-0.5-8.6-0.5S269.5,405.5,274.2,405.8 M285.2,422.2c1.7,0.3,4.2,0.3,5.5,0
		c1.3-0.3-0.1-0.6-3.1-0.6C284.5,421.6,283.5,421.8,285.2,422.2 M316.7,422.2c1.7,0.3,4.2,0.3,5.5,0c1.3-0.3-0.1-0.6-3.1-0.6
		C316,421.6,314.9,421.8,316.7,422.2 M306.4,442.7c2.1,0.3,5.2,0.3,6.8,0c1.7-0.3,0-0.6-3.8-0.6
		C305.7,442.1,304.3,442.4,306.4,442.7 M325.6,442.7c2.1,0.3,5.2,0.3,6.8,0c1.7-0.3,0-0.6-3.8-0.6
		C324.9,442.1,323.5,442.4,325.6,442.7 M214.3,447.9c0,3,36.5,16.9,55.5,21.2c13,2.9,42.7,5.3,33.6,2.7c-2.6-0.7-7.6-2.2-11-3.3
		c-3.4-1.1-10.8-3.3-16.4-4.9c-5.6-1.6-16.4-5.1-24-7.8C235,449.9,214.3,445.6,214.3,447.9"/>
	<path id="path2" class="st2" d="M295.5,5.2c-0.3,0.6-3,1-5.8,1c-23.3,0-72.5,17.9-100.2,36.4C120.3,89,82.3,161.2,83.5,243.8
		c0.5,31.2,3.9,50.3,13.9,77.4c57.2,154.8,248.9,205.4,375.6,99.2c11-9.2,25.9-23.9,24.2-23.9c-0.6,0,1-1.9,3.5-4.2
		c2.5-2.3,3.5-3.8,2.4-3.3c-1.1,0.5-0.4-0.4,1.6-1.9c2-1.6,4.7-4.5,6.1-6.6c2.4-3.6,2.4-3.7-0.1-1.7c-2.4,1.9-2.4,1.9-0.9-1.1
		c0.9-1.7,2.2-2.8,2.9-2.4c0.7,0.4,1.7,0,2.2-0.9c0.6-1,0.4-1.2-0.6-0.6c-2.5,1.5-1.9,0,2.7-7.4c5.1-8.2,25.2-51.5,27.5-59
		c0.9-2.9,2.2-4.9,3-4.4c0.8,0.5,1.1-0.3,0.6-2.1c-0.4-1.6-0.2-3,0.5-3c0.7,0,1.2-0.8,1-1.7c-0.2-0.9,0.5-3.6,1.4-5.8
		c0.9-2.3,1.7-6.1,1.7-8.6c0-2.4,0.4-4.5,0.9-4.5c1.1,0,1.2-2.6,1.6-32.9c0.2-13.2-0.2-27.7-0.8-32.2c-0.6-4.5-1.1-9.6-1.2-11.3
		c-0.1-1.7-0.6-3.1-1.1-3.1c-0.6,0-1-1.6-1-3.5c0-4.8-5.8-25.1-11.4-39.7C513,84.9,451.7,30.4,378.6,11.7C373,10.2,367.3,9,365.9,9
		c-1.3,0-2.4-0.6-2.4-1.3c0-0.7-1.2-0.9-2.7-0.5s-2.7,0.2-2.7-0.5c0-0.7-2.8-1-6.2-0.7c-3.4,0.3-7.3,0.1-8.6-0.5
		C340.1,4.2,296.3,3.9,295.5,5.2 M353.3,9.6c118.6,19.8,213.3,136.3,190.4,234.2c-2.9,12.5-20.3,64.5-24.9,74.7
		c-12.7,27.8-49.1,73.5-65.1,81.7c-11.4,5.8-14.8,7.2-16.7,6.5c-1-0.4-2.3-0.1-2.8,0.7c-0.5,0.9-0.1,1.1,1.2,0.6
		c3.9-1.5,2.2,0.7-2.3,3.1c-4.3,2.2-4.4,2.2-2.4-0.2c2-2.4,1.9-2.4-1.7-0.1c-3.6,2.3-5.6,4.8-2.2,2.7c1-0.6,1.2-0.4,0.6,0.5
		c-0.5,0.8-1.9,1.1-3.2,0.7c-1.3-0.5-1.9-0.3-1.4,0.5c0.5,0.8-0.7,2.1-2.6,3c-2.7,1.2-3.3,1.2-2.6-0.1c0.5-0.9-0.1-0.5-1.3,0.9
		c-1.2,1.5-2.2,2.1-2.2,1.4c0-0.7-0.8-0.1-1.8,1.3s-2.6,2.1-3.4,1.6c-0.9-0.5-1.6-0.3-1.6,0.6c0,0.8-0.6,1.2-1.4,0.7
		c-0.8-0.5-1.4-0.2-1.4,0.6c0,0.8-0.9,1.1-2.1,0.6c-1.1-0.4-2.1-0.1-2.1,0.8c0,0.9-0.6,1.2-1.4,0.8c-0.8-0.5-1.4-0.2-1.4,0.7
		c0,0.8-0.6,1.2-1.4,0.7c-0.8-0.5-1.4-0.2-1.4,0.6s-0.9,1.1-2.1,0.6c-1.1-0.4-2.1,0-2.1,0.9c0,0.9-0.9,1.3-2.1,0.8
		c-1.3-0.5-1.8-0.3-1.2,0.7c0.6,1-0.1,1.2-2.2,0.5c-2-0.6-2.8-0.5-2.2,0.4c0.5,0.8-0.2,1.1-1.9,0.7c-1.6-0.4-2.7,0-2.7,1
		c0,0.9-0.9,1.3-2.1,0.9c-1.1-0.4-2.1-0.1-2.1,0.6s-1.2,1-2.6,0.6c-1.4-0.5-3-0.2-3.6,0.7c-0.5,0.8-1.8,1.2-2.9,0.8
		c-1.1-0.4-1.9-0.1-1.9,0.7c0,0.9-1.4,1.1-3.5,0.6c-2.3-0.6-3.2-0.4-2.6,0.6c0.6,1-0.9,1.2-4.7,0.6c-4-0.6-5.6-0.4-5.6,0.8
		c0,1.2-1.8,1.5-6.5,0.8c-4.3-0.6-5.8-0.4-4.6,0.4c1.2,0.8-5,1.3-17.8,1.3c-12,0-18.6-0.5-17-1.2c1.7-0.7-0.4-0.9-5.5-0.4
		c-6.2,0.5-7.7,0.3-6.2-0.8c1.6-1.1,0.5-1.3-4.1-0.7c-4.8,0.6-5.7,0.5-4.1-0.8c1.7-1.3,1.5-1.4-1.1-0.7c-3.7,1-22.5-3.2-21.5-4.8
		c0.4-0.6-0.7-0.7-2.3-0.3c-2.2,0.6-2.7,0.3-1.8-1c0.7-1.2,0.6-1.5-0.5-0.8c-2.3,1.4-11.4-1.8-10.3-3.6c0.5-0.9,0.3-1.1-0.7-0.5
		c-2.2,1.4-7.3-0.4-6.2-2.2c0.5-0.9,0.3-1.1-0.6-0.6c-1.8,1.1-14.1-4.7-13.2-6.2c0.4-0.6-0.4-0.7-1.7-0.2c-1.7,0.7-2,0.4-1.2-0.9
		c0.7-1.2,0.6-1.5-0.4-0.9c-1.9,1.2-7.5-1.6-6.5-3.2c0.4-0.6-0.4-1.1-1.7-1c-1.3,0.1-2.2-0.6-2.1-1.5c0.2-0.9-0.5-1.3-1.5-1
		c-1,0.4-6.5-2.7-12.3-6.9s-14.8-9.7-19.9-12.3c-33.9-17-56-47-68.2-92.6c-6.5-24.2-4.9-74,2.4-76.5c0.7-0.3,1.3-1.6,1.3-3.1
		c0-1.4,0.5-2.6,1.2-2.6c2.6,0,4.5-8.1,3.6-14.8c-0.7-5-0.4-7.2,1-8.5c1.1-1,1.6-3.4,1.3-5.6c-0.4-3,0-3.9,1.8-3.9
		c1.9,0,2.1-0.4,0.8-2c-1.6-1.9-1.1-6.4,2.6-22.7c1.7-7.5,7.4-22.4,9.3-24.4c0.9-1,1.7-2.5,1.7-3.5s3.4-5.3,7.5-9.8
		c4.1-4.5,7.5-8.6,7.5-9.1c0-0.5,1.9-2.9,4.1-5.3c2.3-2.4,4.1-4.9,4.1-5.5c0-1.7,13.5-22.8,20.9-32.5C213.3,24.5,288-1.3,353.3,9.6
		 M300.9,38.7c1.3,0.3,3.5,0.3,4.8,0c1.3-0.3,0.2-0.6-2.4-0.6C300.7,38.1,299.6,38.4,300.9,38.7 M332.4,38.7c1.3,0.3,3.5,0.3,4.8,0
		c1.3-0.3,0.2-0.6-2.4-0.6S331.1,38.4,332.4,38.7 M353.6,59.3c1.7,0.3,4.5,0.3,6.2,0c1.7-0.3,0.3-0.6-3.1-0.6S351.9,58.9,353.6,59.3
		 M372.4,61.9c34.6,7.3,65,23.7,91.7,49.6c6.8,6.5,10.2,9.4,7.5,6.4c-8.6-9.8-21-21.4-31.6-29.3c-21-15.8-53-29-69.6-28.8l-7.6,0.1
		L372.4,61.9 M366.6,75.7c1.3,0.3,3.5,0.3,4.8,0c1.3-0.3,0.2-0.6-2.4-0.6C366.4,75,365.3,75.3,366.6,75.7 M353.5,78.4
		c-0.5,0.5,0.7,3.1,2.8,5.7c2,2.6,2.9,4.3,1.9,3.7c-1.4-0.9-1.4-0.5-0.2,1.9c2.2,4.2,6.9,5.6,18.5,5.6c35.1,0,73,16.2,98.4,42.1
		c13.3,13.6,16.7,18.7,5.7,8.7c-9.4-8.5-24.8-19-27-18.4c-0.6,0.2-1.1-0.3-1.1-1.1c0-0.8-0.6-1.1-1.4-0.6c-0.8,0.5-1.4,0.2-1.4-0.7
		c0-0.8-0.6-1.2-1.4-0.7c-0.8,0.5-1.4,0.2-1.4-0.6c0-0.8-1-1-2.3-0.5c-1.7,0.6-2,0.4-1.1-1c0.8-1.3,0.5-1.6-1.1-1
		c-3,1.1-6.6-0.3-5.5-2.1c0.5-0.8,0.2-1-0.7-0.5c-0.9,0.5-7.4-0.3-14.6-1.8c-13.2-2.9-39.6-3.9-41-1.7c-0.4,0.6,2.6,4.4,6.7,8.5
		l7.4,7.3l11.3,0.3c6.2,0.2,16,0.8,21.6,1.3s11.4,0.9,12.7,0.7c10-1.3,21,6,45.2,30.3c6.6,6.7,11.5,11,10.7,9.6
		c-0.7-1.4-1.8-5.5-2.3-9.3c-0.6-3.8-3.7-12-7-18.4c-6.7-12.9-6.9-13.5-3.7-10.9c3.4,2.8-2.1-6.5-5.7-9.5c-2.6-2.2-2.6-2.2-0.8,0.4
		c1.1,1.5-1.9-1-6.7-5.5c-4.8-4.5-8.2-7.3-7.7-6.2s-1-0.1-3.4-2.7c-2.4-2.6-3.9-3.9-3.3-2.7c1.5,2.8-2.8-0.4-7.4-5.4
		c-1.8-1.9-2.8-2.7-2.2-1.6c0.7,1.3-0.2,1.2-3.2-0.6c-2.3-1.4-3.9-3-3.6-3.6c0.4-0.6-0.4-0.7-1.7-0.2c-1.6,0.6-2,0.4-1.4-0.7
		c0.7-1.1,0.2-1.3-1.4-0.7c-1.7,0.7-2,0.4-1.2-0.9c0.7-1.2,0.6-1.5-0.4-0.9c-1.9,1.2-8.7-1.9-7.7-3.4c0.4-0.6-0.3-0.7-1.6-0.3
		c-1.7,0.7-2,0.4-1.2-0.9c0.8-1.2,0.6-1.5-0.5-0.8c-2.2,1.4-7.3-0.4-6.2-2.2c0.5-0.9,0.3-1.1-0.6-0.5c-0.9,0.5-5.9-0.3-11.2-1.9
		C386.9,79,356.4,75.5,353.5,78.4 M172.5,99.7l-6.8,7.2l7.2-6.8c4-3.7,7.2-7,7.2-7.2C180,91.9,178.8,93,172.5,99.7 M462.1,97.3
		c2.6,2.6,5,4.8,5.3,4.8s-1.4-2.2-4-4.8c-2.6-2.6-5-4.8-5.3-4.8C457.8,92.5,459.6,94.7,462.1,97.3 M206.7,112l-8.2,8.6l8.6-8.2
		c8-7.6,9.2-8.9,8.2-8.9C215,103.5,211.2,107.3,206.7,112 M154.4,228.1c0,4.1,0.3,5.8,0.6,3.8c0.3-2.1,0.3-5.5,0-7.5
		C154.7,222.3,154.4,224,154.4,228.1 M521.4,228.8c0,3,0.3,4.1,0.6,2.4c0.3-1.7,0.3-4.2,0-5.5C521.6,224.4,521.4,225.8,521.4,228.8
		 M190,234.3c0,3.8,0.3,5.1,0.6,3.1c0.3-2.1,0.3-5.2,0-6.8C190.3,228.8,190,230.5,190,234.3 M116.1,240.4c0,5.6,0.2,8,0.5,5.1
		c0.3-2.8,0.3-7.4,0-10.3C116.4,232.5,116.1,234.8,116.1,240.4 M226.9,236.3c0,2.6,0.3,3.7,0.6,2.4c0.3-1.3,0.3-3.5,0-4.8
		C227.2,232.6,226.9,233.7,226.9,236.3 M136.6,241.4c2.1,0.3,5.5,0.3,7.5,0c2.1-0.3,0.4-0.6-3.8-0.6S134.5,241.1,136.6,241.4
		 M484.4,252.1c0,3.8,0.3,5.1,0.6,3.1c0.3-2.1,0.3-5.2,0-6.8C484.7,246.6,484.4,248.3,484.4,252.1 M447.4,251.4
		c0,2.6,0.3,3.7,0.6,2.4c0.3-1.3,0.3-3.5,0-4.8C447.7,247.7,447.4,248.8,447.4,251.4 M521.4,252.1c0,3,0.3,4.1,0.6,2.4
		c0.3-1.7,0.3-4.2,0-5.5C521.6,247.7,521.4,249.1,521.4,252.1 M162.2,342.2c3.4,3.5,6.4,6.4,6.7,6.4c0.3,0-0.7-1.4-2.4-3.2
		c-1.6-1.8-2.7-3.5-2.3-3.9c0.4-0.4-0.2-1.5-1.4-2.5c-1.1-1-2.1-1.3-2.1-0.7c0,0.6-1.1,0.2-2.4-0.8
		C157.2,336.6,158.8,338.6,162.2,342.2 M166.1,360.3c3,3.8,8.2,9.3,11.4,12.3s4.4,3.8,2.6,1.7c-1.8-2.1-2.8-3.8-2.2-3.8
		s0-1.2-1.3-2.7c-1.3-1.5-2.9-2.6-3.5-2.4c-0.6,0.2-3.6-2.5-6.8-5.9l-5.8-6.2L166.1,360.3 M241.3,370.2c2.4,0.3,6.5,0.3,8.9,0
		c2.4-0.3,0.4-0.6-4.4-0.6C240.9,369.6,238.9,369.8,241.3,370.2 M469.6,376.3l-5.4,5.8l5.8-5.4c5.4-5,6.5-6.2,5.4-6.2
		C475.2,370.5,472.6,373.1,469.6,376.3 M171.8,380.5c0,0.2,2,2.2,4.4,4.4l4.5,4l-4-4.4C172.9,380.4,171.8,379.5,171.8,380.5
		 M451.2,394.1c-4.9,4.6-6.4,6.5-3.4,4.2c5.2-4,14.2-12.7,12.9-12.6C460.4,385.7,456.1,389.5,451.2,394.1 M279,407.1
		c2.1,0.3,5.5,0.3,7.5,0c2.1-0.3,0.4-0.6-3.8-0.6C278.6,406.5,276.9,406.8,279,407.1 M270.7,418.3c-1.2,0.8,0.4,1.5,4.6,2
		c10.3,1.4,12.8,0.9,5.4-1.2C272.4,416.8,272.9,416.9,270.7,418.3 M321.4,420.8c1.3,0.3,3.5,0.3,4.8,0c1.3-0.3,0.2-0.6-2.4-0.6
		C321.2,420.1,320.1,420.4,321.4,420.8 M297.5,422.2c3.2,0.3,8.4,0.3,11.6,0c3.2-0.3,0.6-0.5-5.8-0.5
		C296.9,421.7,294.3,421.9,297.5,422.2 M233.4,450c2.6,0.6,11,3.2,18.5,5.9c7.5,2.6,18.3,6.1,24,7.8c5.6,1.6,13,3.9,16.4,4.9
		c3.4,1.1,8.3,2.6,11,3.3c9.1,2.6-20.6,0.2-33.6-2.7c-19-4.2-55.5-18.2-55.5-21.2C214.3,447.2,227.1,448.5,233.4,450"/>
	<path id="path3" class="st3" d="M291,4.9l-4.8,1l4.4,0.2c2.4,0.1,4.8-0.4,5.2-1.2c0.5-0.8,0.7-1.3,0.4-1.2
		C295.9,3.8,293.6,4.3,291,4.9 M307.7,4.5c1.3,0.3,3.5,0.3,4.8,0c1.3-0.3,0.2-0.6-2.4-0.6S306.4,4.1,307.7,4.5 M326.2,4.5
		c1.7,0.3,4.2,0.3,5.5,0c1.3-0.3-0.1-0.6-3.1-0.6C325.6,3.9,324.5,4.2,326.2,4.5 M342.8,5.3c0.7,0.7,3,1,5.1,0.7
		c3.6-0.5,3.5-0.5-1.2-1.2C343.8,4.4,342.1,4.6,342.8,5.3 M292,8.3c-40.9,5.9-91.9,33.6-113,61.3c-7.3,9.6-20.9,30.7-20.9,32.5
		c0,0.6-1.8,3.1-4.1,5.5c-2.3,2.4-4.1,4.8-4.1,5.3c0,0.5-3.4,4.6-7.5,9.1c-4.1,4.5-7.5,8.9-7.5,9.8s-0.8,2.5-1.7,3.5
		c-1.9,2-7.5,16.9-9.3,24.4c-3.7,16.3-4.2,20.8-2.6,22.7c1.3,1.6,1.2,2-0.8,2c-1.8,0-2.2,0.9-1.8,3.9c0.3,2.2-0.2,4.6-1.3,5.6
		c-1.4,1.3-1.6,3.6-1,8.5c0.9,6.7-1.1,14.8-3.6,14.8c-0.7,0-1.2,1.2-1.2,2.6c0,1.4-0.6,2.8-1.3,3.1c-0.7,0.3-2.6,5.7-4.2,12.1
		c-9.1,36.6,3.2,87,30.4,124.7c10.8,15,18.9,21.3,45,35.3c3.7,2,12.8,7.7,20.1,12.7c26,17.6,67.6,34.5,83.2,33.9
		c1.5-0.1-2.5-1.3-8.9-2.7c-29.5-6.6-54.6-18.3-79.2-36.6c-10.4-7.7-36-32.4-34.9-33.6c0.4-0.4-1-1.7-2.9-3c-2-1.3-3.3-2.6-2.9-3
		c0.4-0.4-0.7-1.9-2.4-3.3c-1.7-1.5-2.1-2.3-1-1.8c1.1,0.5,0.5-0.4-1.4-1.9c-1.9-1.6-3-2.8-2.4-2.9c0.6,0-0.2-1.3-1.8-2.8
		c-1.5-1.5-2.5-3.3-2.1-4c0.4-0.6-0.2-1.5-1.4-2c-1.2-0.5-1.8-1.4-1.3-2.2c0.5-0.8,0.1-1.4-0.8-1.4c-0.9,0-1.3-0.4-0.9-0.8
		c0.4-0.4-0.4-2-1.9-3.5c-1.5-1.5-2.4-3.6-2-4.8c0.4-1.1,0.2-1.7-0.4-1.3c-1.5,0.9-3.2-3.1-2.1-4.8c0.4-0.7,0.1-1.2-0.8-1.2
		c-0.8,0-1.2-0.6-0.7-1.4c0.5-0.8,0.1-1.4-0.8-1.4c-0.9,0-1.2-1-0.8-2.1c0.5-1.4,0.3-1.8-0.8-1.1c-1.1,0.7-1.3,0.2-0.7-1.3
		c0.5-1.3,0.2-2.3-0.6-2.3c-0.8,0-1.1-1-0.7-2.1c0.5-1.2,0.2-1.8-0.5-1.3c-0.7,0.5-1.4-0.4-1.4-2c0-4.3-0.1-4.7-1.6-6.5
		c-0.8-0.9-1-2.3-0.5-3.1c0.5-0.8,0.2-1.4-0.7-1.4c-0.9,0-1.2-0.9-0.8-2c0.4-1.1,0.2-2.4-0.6-2.8c-0.7-0.5-1-1.4-0.5-2.2
		c0.5-0.7,0.1-2.2-0.8-3.3c-0.9-1.1-1.3-2.9-0.9-4c0.4-1.1,0.2-2.4-0.6-2.9c-0.7-0.5-1-1.3-0.7-1.9c0.4-0.6,0-4.7-0.7-9.1
		C102,176.3,162.7,77.7,254.7,48.1c6.8-2.2,13.3-4.3,14.4-4.6s2.9-0.5,3.9-0.4c1,0.2,1.4-0.4,0.9-1.2c-1-1.7,12-8.1,19.8-9.8
		c2.7-0.6,8.5-2,13-3.2c29.6-7.6,87.9,1.9,117.3,19.2c63.8,37.4,102.4,94.4,100.6,148.5c-0.2,4.9-0.4,12.9-0.6,17.8
		c-0.2,4.9-0.7,8.2-1.3,7.3c-0.6-0.9-0.8,4.8-0.5,12.6c2.3,62.5-29.1,130.9-75.9,165.3c-2.3,1.7-6,4.4-8,5.9
		c-9.1,6.6-8.9,7.3,0.6,2.1c5.6-3,12.7-6.7,15.7-8.1c14.6-6.9,51.7-53.9,64.1-81c4.6-10.2,22-62.3,25-74.7
		C571.7,123.8,427.4-11.2,292,8.3 M312.5,37.4c2.4,0.3,6.5,0.3,8.9,0c2.4-0.3,0.4-0.6-4.4-0.6C312.1,36.8,310.1,37.1,312.5,37.4
		 M477.2,64.2c0,0.2,2,2.2,4.4,4.4l4.4,4l-4-4.4C478.3,64.1,477.2,63.1,477.2,64.2 M216.2,103.8l-4,4.4l4.5-4c4.1-3.7,5.1-4.9,4-4.9
		C220.5,99.4,218.5,101.4,216.2,103.8 M201.2,118.9l-5.4,5.8l5.8-5.4c5.4-5,6.4-6.2,5.4-6.2C206.8,113.1,204.2,115.7,201.2,118.9
		 M473,123.2c2.6,2.7,4.9,5,5.2,5c1.4,0-4.6-7.2-7-8.4C469.3,118.7,469.9,119.8,473,123.2 M232.7,128.5l-4,4.4l4.4-4
		c4.1-3.8,5.1-4.9,4-4.9C236.9,124,234.9,126,232.7,128.5 M183.3,142c-15.6,24.1-27.9,60.5-27.9,82.7c0,3.8-0.4,9.1-0.8,11.9l-0.8,5
		l-15.9-0.2l-15.9-0.2l-0.4,3.8c-0.6,5.5,3.6,25,7.6,35.1c21.3,53.9,83.3,81.9,136.9,61.8c8.6-3.2,21-9.4,21-10.4
		c0-0.4-1.3,0-2.8,0.8c-5.7,3-36.8-16-46.5-28.5c-2.6-3.4-8.6-10.1-13.3-14.8c-10.9-11.1-15.7-18.4-16.1-24.6
		c-0.2-3.3-1.6-6.2-4-8.6c-2-2-4.9-5.6-6.3-8.1c-1.9-3.1-3.6-4.4-6.1-4.4c-3.4,0-3.4-0.1-3.6-12.7c-0.5-41-1-49.3-3.3-61.1
		c-2.3-11.9-2.3-13.1-0.3-17.1c2.2-4.2,6.5-20,5.5-20C189.8,132.2,186.7,136.6,183.3,142 M269.6,138.1l-4,4.5l4.4-4
		c4.1-3.8,5.1-4.9,4-4.9C273.9,133.6,271.9,135.6,269.6,138.1 M439.5,136.2c10.6,3,19.5,7,27.7,12.5l6.5,4.3l-8.1-7.7
		c-8.8-8.4-16.7-11.6-28.2-11.5l-6.2,0.1L439.5,136.2 M484.9,150.1c2,2.3,3.9,4.1,4.2,4.1s-0.9-1.8-2.5-4.1
		c-1.7-2.3-3.5-4.1-4.2-4.1C481.8,145.9,482.9,147.8,484.9,150.1 M298.4,151.8l-4,4.4l4.4-4c4.1-3.7,5.1-4.9,4-4.9
		C302.6,147.3,300.6,149.3,298.4,151.8 M83.1,221.3c0,2.6,0.3,3.7,0.6,2.4c0.3-1.3,0.3-3.5,0-4.8C83.4,217.5,83.1,218.6,83.1,221.3
		 M555.6,234.3c0,3,0.3,4.1,0.6,2.4c0.3-1.7,0.3-4.2,0-5.5C555.9,229.9,555.6,231.3,555.6,234.3 M300.7,236.6l-0.2,3.7l-18.1,0.4
		l-18.1,0.4l18.2,0.3c19.2,0.3,20.6-0.1,19.1-6.1C301.1,233.7,300.8,234.2,300.7,236.6 M516.9,236.7c0,1.9-2.3,2.3-16.1,2.7
		l-16.1,0.4l16.1,0.3c15.7,0.3,20.6-1.1,16.9-4.8C517.3,234.9,516.9,235.5,516.9,236.7 M356.6,240.1c12.4,0.3,17.9,0.9,18.3,2.1
		c0.3,0.9,0.5,0.7,0.4-0.4c-0.1-1.7-3.2-2.1-18.3-2.1l-18.1-0.1L356.6,240.1 M410.6,241c-0.4,1.1-0.5,4-0.2,6.5
		c0.5,4.2,0.6,4,0.8-1.2l0.2-5.8l18.1-0.4l18.1-0.4l-18.2-0.3C415,239.1,411.2,239.4,410.6,241 M198.9,241.4
		c5.5,0.3,14.4,0.3,19.9,0c5.5-0.3,1-0.5-9.9-0.5C197.9,241,193.4,241.2,198.9,241.4 M555.6,248c0,3,0.3,4.1,0.6,2.4
		c0.3-1.7,0.3-4.2,0-5.5C555.9,243.6,555.6,245,555.6,248 M83.2,260.3c0,3,0.3,4.1,0.6,2.4c0.3-1.7,0.3-4.2,0-5.5
		C83.4,255.9,83.1,257.3,83.2,260.3 M368.3,342.1l-8.2,8.6l8.6-8.2c8-7.6,9.2-8.9,8.2-8.9C376.6,333.6,372.8,337.4,368.3,342.1
		 M166.7,345.1c45.6,44.1,115.6,52.5,171.5,20.6c16-9.1,16.2-9.6,4.6-9.9c-7-0.2-11.1-1-14.5-3c-2.6-1.5-6.3-2.8-8.2-2.8h-3.5
		l3.2-2.9c2.2-2,1.7-1.8-1.6,0.5c-45,31.9-109.1,29-154.7-6.8C157.1,335.5,157.4,336.1,166.7,345.1 M440.9,349
		c-3,0.7-7.6,1.7-10.3,2.3c-2.6,0.6-9.1,1.9-14.4,2.8c-5.3,0.9-11.1,2.6-13,3.8c-3.2,2-3.1,1.8,0.7-2.5c2.3-2.6-0.8-0.1-6.8,5.4
		c-63.5,58.5-157.1,61.4-221.9,6.8c-4.7-3.9-3.8-2.8,2.8,3.7c23.2,22.8,83.5,52.7,93.6,46.4c0.7-0.4,5.2,0.2,10,1.4
		c49.2,12.7,125.9-18.4,164-66.5C449.9,347.4,449.6,347.1,440.9,349 M290.6,442.7c1.7,0.3,4.2,0.3,5.5,0c1.3-0.3-0.1-0.6-3.1-0.6
		C290,442.1,288.9,442.4,290.6,442.7 M302.9,444.1c2.4,0.3,6.7,0.3,9.6,0c2.8-0.3,0.8-0.5-4.4-0.5S300.5,443.8,302.9,444.1
		 M326.2,444.1c2.5,0.3,6.2,0.3,8.2,0c2.1-0.3,0-0.6-4.5-0.6C325.5,443.5,323.8,443.8,326.2,444.1 M305,476.9c1.3,0.3,3.5,0.3,4.8,0
		c1.3-0.3,0.2-0.6-2.4-0.6C304.8,476.3,303.7,476.6,305,476.9 M329.6,476.9c1.3,0.3,3.5,0.3,4.8,0c1.3-0.3,0.2-0.6-2.4-0.6
		S328.3,476.6,329.6,476.9"/>
	<path id="path4" class="st4" d="M298.3,3.1c1.3,1.3,42,1.4,42,0.1c0-0.6-9.7-1-21.5-1C307,2.2,297.8,2.6,298.3,3.1 M274.2,5.9
		c-2.1,0.3-3.8,1.2-3.8,2c0,0.8,1,1.1,2.2,0.6c1.2-0.5,3.4-0.8,4.8-0.8c1.4,0,2.6-0.6,2.6-1.4s-0.5-1.3-1-1.2
		C278.4,5.2,276.3,5.6,274.2,5.9 M262.9,8.5c-6.2,1.3-21.3,6.4-20.7,6.9c0.6,0.6,9.6-1.8,22.1-5.8C269.5,7.9,268.7,7.3,262.9,8.5
		 M374.5,9.8c3.4,1.1,7.4,2.2,8.9,2.5c1.5,0.3,7.3,2.2,12.8,4.2c5.5,2,10.4,3.3,10.8,2.9c0.4-0.4-0.4-1.1-1.8-1.6
		c-1.4-0.5-4.8-1.6-7.4-2.6c-9.3-3.4-18.6-6-24-6.7l-5.5-0.7L374.5,9.8 M235.8,16.8c-1.3,0.3-2.4,1.2-2.4,1.9c0,0.8,1.3,0.6,3.1-0.3
		C241.7,15.8,241.5,15.3,235.8,16.8 M223.9,21.5c-17.5,8-41.2,21.8-42.2,24.6c-0.3,0.7-1.1,1.2-1.9,1.2c-1.3,0-9.6,6.4-19.4,15
		c-8,7-20.4,20.1-26.6,28.1c-3.5,4.5-6.7,8.5-7.2,8.9c-4.1,3.4-25.1,40.4-24.3,42.8c0.2,0.7,3.4-4.5,7-11.5
		c21.8-42.4,58.8-78.8,103.3-101.5c10.3-5.3,19-9.8,19.3-10.1C233.4,17.8,229.5,19,223.9,21.5 M423.4,27.9
		c57.9,29.4,101,78.1,119.7,135.1c1.7,5.2,3.3,8.7,3.6,7.8c0.5-1.5-4.6-16.8-8.5-25.6c-3.6-8.1-7.8-16.5-9.4-19.1
		c-0.9-1.5-4.1-6.7-7.1-11.6c-23-37.9-58.9-69.9-101-90.1C405.1,16.9,407.2,19.7,423.4,27.9 M306,29c-4.1,1.1-9.7,2.5-12.4,3.1
		c-5.7,1.3-20.5,7.9-20.5,9.1c0,0.5,1,0.5,2.3,0c26.5-10.2,91.2-2.9,128.8,14.5C465.3,84,520.8,159.3,521,214.2c0,9.6,2.7,9.8,3,0.2
		c0.2-4.9,0.4-12.9,0.6-17.8c1.8-54.1-36.8-111.1-100.6-148.5C394.6,30.9,335.2,21.3,306,29 M323.1,59.1
		c-45.2,4.6-82.7,21.5-111.6,50.2c-17.6,17.4-21.2,22.4-23.2,31.9c-0.8,3.8-2.5,8.8-3.7,11.1c-2.1,4-2.1,5.2,0.2,17.1
		c2.3,11.8,2.7,20.1,3.3,61.1c0.2,12.6,0.2,12.7,3.6,12.7c2.4,0,4.2,1.3,6.1,4.4c1.4,2.4,4.3,6.1,6.3,8.1c2.5,2.4,3.8,5.3,4,8.6
		c0.4,6.2,5.2,13.5,16.1,24.6c4.7,4.8,10.7,11.4,13.3,14.8c6.7,8.7,17.2,16.2,37.1,26.6c7.5,3.9,10.2,3.2,21.5-5.9
		c24.7-20,35.9-41.1,41-77.1l1.1-7.5h18.5h18.5l-0.4,8.2c-1.9,37.3-20.4,72.3-50.7,96.3c-6.5,5.2-6.9,5.8-3.8,5.8
		c1.9,0,5.6,1.3,8.2,2.8c9.2,5.4,22.5,4.4,30.5-2.4c30.3-25.4,48.3-60.1,51-98.2l0.9-12.4h18.5h18.5l0.4,7.5
		c1.5,25.8-19.9,84.9-35.2,97.2c-3.7,3-12.7,15.4-9.8,13.6c1.9-1.2,7.7-2.9,13-3.9c5.3-0.9,11.7-2.3,14.4-3
		c2.6-0.7,7.3-1.5,10.4-1.7c7.3-0.6,7.9-1.1,13.3-9.5c17.3-27,27.2-56.1,29.3-86.1l1-14.1l16.1-0.4l16.1-0.4l0-6.5
		c-0.1-25.5-18.8-60.3-41.7-78c-66.9-51.4-165.9-7.7-173,76.3l-0.9,10.3h-18.5h-18.5l0.2-10.5c1.5-100.2,129.6-155.8,209.4-90.8
		c9.6,7.8,11,7.7,3.3-0.2c-54.5-56-144.8-58.6-201.7-5.8c-29,26.9-47.4,66.5-47.4,102.2l0,5.8h-19.2h-19.2v-8
		c0-56.1,38.6-115.5,92.4-142.3c59.1-29.4,135.6-19.5,183.3,23.6c10.2,9.3,6.9,4.5-4.3-6.1C424.4,74.3,369.4,54.4,323.1,59.1
		 M99.4,147c-1.3,2.5-8.4,22-8.4,23c0,1.5,2.3,0.4,2.4-1.1c0.1-1.5,4.6-14,7.9-21.9c0.5-1.3,0.6-2.4,0.2-2.4S100.1,145.6,99.4,147
		 M547.9,177.4c0.9,5.2,1.5,6.3,2.6,5.2c0.4-0.4-0.2-2.8-1.4-5.4l-2.1-4.6L547.9,177.4 M86.9,186.3c0,1.9,0.2,3.4,0.5,3.4
		c0.3,0,0.8-1.5,1.2-3.4c0.4-1.9,0.1-3.4-0.5-3.4C87.4,182.9,86.9,184.5,86.9,186.3 M82.8,208.5c0,7.6,0.7,7.4,1.9-0.6
		c0.6-3.6,0.4-5.8-0.5-5.8C83.4,202.1,82.8,205,82.8,208.5 M82,240.4c0,13.2,0.2,18.6,0.5,12c0.3-6.6,0.3-17.4,0-24
		C82.2,221.9,82,227.3,82,240.4 M556.6,225.7c-0.7,3.2-0.3,29.8,0.4,29.8c0.6,0,1-6.8,1-15.1C558,228.6,557.4,222,556.6,225.7
		 M82.8,271.7c0,3.9,0.6,7.1,1.3,7.1c0.8,0,1-2.6,0.5-6.5C83.5,263.4,82.8,263.2,82.8,271.7 M86.9,293.8c0,3.8,8.1,30.2,9.8,32.1
		c0.7,0.7,1.2,2.2,1.2,3.2c0,5.2,24.6,49,31.9,56.8c0.9,1,4.5,5.1,8,9.3c11.7,13.8,13.2,15.3,32.7,32c17.4,15,70.9,42.2,82,41.8
		c1.2,0-1.8-1.5-6.7-3.2c-76-26.5-135.5-88.9-154.7-162.4C87.7,290.8,86.9,288.9,86.9,293.8 M548.7,300c-1,3.6-1.5,6.8-1.2,7.2
		c0.9,0.9,3.9-8.9,3.4-11.4C550.7,294.4,549.7,296.3,548.7,300 M544.7,313.6c-0.9,3-1.4,5.7-1.1,6c0.9,0.9,3.6-6.9,3.1-9.2
		C546.5,309.2,545.6,310.7,544.7,313.6 M541.7,322.6c-0.1,1.1-3.3,8.8-7,16.9c-3.8,8.2-5.9,14.1-4.8,13.2c1.1-0.9,2.1-2.2,2.1-2.8
		c0-0.6,2.5-6.4,5.6-12.9c3.1-6.5,5.3-12.8,5-14.1C542,321.1,541.8,321,541.7,322.6 M133.5,325.8c0,1.5,5.4,11.8,6.2,11.8
		c0.4,0-0.6-2.6-2.3-5.8C134.3,325.5,133.5,324.3,133.5,325.8 M520,366.8c-24.2,39.4-65,74-108.1,91.6c-14.8,6.1-17.9,8.3-6.1,4.5
		c13.5-4.4,49.8-24.7,57.7-32.3c1.1-1,4.4-3.7,7.4-6c13.8-10.3,45.4-45.9,50.4-56.8c0.5-1.1,2.2-4.1,3.7-6.7
		c1.5-2.5,2.6-4.9,2.3-5.1C527.2,355.7,523.8,360.5,520,366.8 M389.6,466.6c-1.9,0.8-7.7,2.5-13,3.9c-5.3,1.4-8.1,2.6-6.3,2.6
		c3.7,0.1,16.3-3.3,22.7-6.1C397.8,464.9,394.7,464.5,389.6,466.6 M258.8,471.2c2.3,1,5.6,1.9,7.5,2c1.9,0.1,7.1,1,11.6,2.1
		c5,1.2,18,2.2,33.6,2.6l25.3,0.6l-21.9-1.2c-20.7-1.1-40.6-3.8-51.3-6.9C256.8,468.6,253.9,469,258.8,471.2 M357.2,474.1
		c-0.9,0.4-5.5,1.2-10.3,1.9l-8.7,1.2l11-0.6c11.2-0.6,22.6-3.3,13.6-3.2C360.6,473.4,358,473.7,357.2,474.1"/>
</g>
</svg>
