<?xml version="1.0" encoding="utf-8"?>
<!-- Generator: Adobe Illustrator 22.1.0, SVG Export Plug-In . SVG Version: 6.00 Build 0)  -->
<svg version="1.1" id="Layer_1" xmlns="http://www.w3.org/2000/svg" xmlns:xlink="http://www.w3.org/1999/xlink" x="0px" y="0px"
	 viewBox="0 0 640 480" style="enable-background:new 0 0 640 480;" xml:space="preserve">
<style type="text/css">
	.st0{fill:#3C60A5;}
</style>
<path id="path4187" class="st0" d="M319.7,139.3c55.5,0,100.4,45,100.4,100.4v100.4H319.7c-55.5,0-100.4-45-100.4-100.4
	C219.2,184.2,264.2,139.3,319.7,139.3z M487.9,408H319.7c-92.9,0-168.3-75.3-168.3-168.2c0-92.9,75.3-168.3,168.3-168.3
	c92.9,0,168.2,75.3,168.2,168.3V408L487.9,408z M320,2.5H82.5V240c0,131.2,106.3,237.5,237.5,237.5c131.2,0,237.5-106.3,237.5-237.5
	C557.5,108.8,451.2,2.5,320,2.5"/>
</svg>
