<?xml version="1.0" encoding="utf-8"?>
<!-- Generator: Adobe Illustrator 22.1.0, SVG Export Plug-In . SVG Version: 6.00 Build 0)  -->
<svg version="1.1" id="Layer_1" xmlns="http://www.w3.org/2000/svg" xmlns:xlink="http://www.w3.org/1999/xlink" x="0px" y="0px"
	 viewBox="0 0 1920 1080" style="enable-background:new 0 0 1920 1080;" xml:space="preserve">
<style type="text/css">
	.st0{fill:#0D3577;}
</style>
<g>
	<g>
		<path class="st0" d="M812.7,501.5c37.5-62.8,130.1-103.2,218.4-65.9c87.6,37,130.4,137.5,96.7,227.8
			c-33.3,89.3-131.9,136.1-223.4,106c-89.9-29.6-138.5-123.2-117.2-209.9c11,0,22.1,0,33.3,0c-1.4,9.8-3,19.4-4,29
			c-6.9,71.2,44.7,140,114.8,153.4c80.5,15.4,154.4-33.8,171.8-114.1c17.1-79.3-41.5-161.3-122-171.4c-47.4-5.9-87.8,8.2-122.5,40.5
			c-2.8,2.6-7.3,4.2-11.1,4.4C836.2,501.9,824.9,501.5,812.7,501.5z"/>
		<path class="st0" d="M301.9,432c0,114.1,0,227.6,0,341.8c-10.8,0-21.3,0-32.9,0c0-30.9,0-62.1,0-94.8c-4.4,0-7.7,0-11,0
			c-33.9,0-67.9,0.3-101.8-0.2c-7.8-0.1-11.3,2.3-12.9,9.8c-5.6,26.4-11.6,52.7-17.5,79c-0.4,2-1,3.9-1.6,6.3c-12.3,0-24.4,0-36.2,0
			C106.2,626.9,172.6,510.1,301.9,432z M268,499.7c-50.7,38.8-89.6,84.2-109.6,145c37.1,0,73.1,0,109.6,0
			C268,596.4,268,548.8,268,499.7z"/>
		<path class="st0" d="M1174.8,323.9c0-49.4,40.3-89.8,89.4-89.5c48.9,0.3,88.9,40.2,89.2,89.1c0.3,49.2-40,89.7-89.2,89.7
			C1214.4,413,1174.8,373.5,1174.8,323.9z"/>
		<path class="st0" d="M1538,510.8c95.4,47.1,164.4,173.1,155.1,263c-10.7,0-21.5,0-31.9,0c-1.6-15.7-2.7-30.8-4.8-45.8
			c-3.2-22.7-3.6-22.7-26.1-22.7c-19.2,0-38.5,0-58.6,0c0,22.8,0,45.1,0,68.1c-11.6,0-22.4,0-33.8,0C1538,686,1538,598.8,1538,510.8
			z M1637.5,671c-5.7-23.7-50.4-89.5-65.5-97.2c0,32.3,0,64.6,0,97.2C1594,671,1615.5,671,1637.5,671z"/>
		<path class="st0" d="M1382,511.3c29.2-1,56.5,1.1,82.1,14.8c31.6,17,43,44.5,42.3,78.8c-0.8,38-17.4,66-53,82.6
			c10,31.3,33.5,47,62.5,57c0,10.5,0,20.8,0,31.3c-34.3-6.5-63-20.4-78.4-53.8c-3.1-6.8-6.9-13.3-9.5-20.2c-2.2-6-5.4-8.4-12.8-5.9
			c0,25.5,0,51.5,0,77.9c-11.7,0-22.2,0-33.2,0C1382,686.4,1382,599.4,1382,511.3z M1415.6,658.5c30.1,4,56.2-21.6,59-57.2
			c2.4-30.4-24.5-56.5-59-56.7C1415.6,582.6,1415.6,620.6,1415.6,658.5z"/>
		<path class="st0" d="M336.4,511.3c29.2-1,56.5,1.1,82.1,14.8c31.6,17,43,44.5,42.3,78.8c-0.8,38-17.4,66-53,82.6
			c10,31.3,33.5,47,62.5,57c0,10.5,0,20.8,0,31.3c-34.3-6.5-63-20.4-78.4-53.8c-3.1-6.8-6.9-13.3-9.5-20.2c-2.2-6-5.4-8.4-12.8-5.9
			c0,25.5,0,51.5,0,77.9c-11.7,0-22.2,0-33.2,0C336.4,686.4,336.4,599.4,336.4,511.3z M370,658.5c30.1,4,56.2-21.6,59-57.2
			c2.4-30.4-24.5-56.5-59-56.7C370,582.6,370,620.6,370,658.5z"/>
		<path class="st0" d="M753.4,773.5c-11.7,0-21.9,0-33.4,0c0-4.1,0-7.8,0-11.4c0-68.2-0.1-136.4,0.2-204.6c0-8.2-2.1-11.1-10.5-10.7
			c-13.8,0.7-27.6,0.2-42.1,0.2c0-11.1,0-21.5,0-32.7c109.1,0,218.3,0,327.9,0c0,10.7,0,20.9,0,32.1c-3.8,0.2-7.4,0.6-11,0.6
			c-73.4,0-146.8,0.2-220.2-0.2c-8.6,0-11.2,2.1-11.2,11c0.4,67.9,0.2,135.8,0.2,203.8C753.4,765.3,753.4,769,753.4,773.5z"/>
		<path class="st0" d="M1353.5,553.5c-53.1-34.5-109.5-19.1-139.8,14.3c-33.3,36.7-37.4,90.1-9.7,130.5
			c16.7,24.4,39.9,39.4,68.9,44.8c28.7,5.3,55.1-1.7,80.5-18.3c0,13.1,0.3,24.5-0.2,35.9c-0.1,2-3,4.7-5.2,5.7
			c-82.8,36.5-178.2-12.5-193.7-102.2c-13.2-76.4,32.9-144.3,107.7-161c29.2-6.5,57.7-3.3,85.2,8.4c4.6,1.9,6.6,4.5,6.4,9.7
			C1353.2,531.5,1353.5,541.8,1353.5,553.5z"/>
		<path class="st0" d="M1717.2,547c-22.2,0-42.8,0-63.8,0c0-11.3,0-21.6,0-32.6c53.4,0,106.7,0,160.5,0c0,10.6,0,21.1,0,32.6
			c-17.4,0-34.3,0-51.2,0c-12.2,0-12.2,0-12.2,12c0,68.5-0.1,136.9,0.2,205.4c0,7.4-1.6,10.5-9.5,9.8c-7.7-0.7-15.4-0.1-24.1-0.1
			C1717.2,698.4,1717.2,623.5,1717.2,547z"/>
		<path class="st0" d="M654.9,569.5c-7-5.3-12.1-9.8-17.8-13.6c-12.3-8.1-25.8-10.9-40.3-7.1c-16.9,4.5-25.8,19.1-24.5,37.6
			c1.7,23.9,12.4,43.2,28.6,60.1c10.5,11,21.1,22,30.5,34c21.8,27.9,21.2,57.7,5.2,88c-1.2,2.4-4.4,5.1-6.8,5.2
			c-11.4,0.5-22.9,0.2-35.8,0.2c2-3.1,3.4-5.1,4.6-7.2c4.1-6.9,8.8-13.5,12.1-20.8c6.8-14.6,6.6-29.2-3.5-42.3
			c-7.5-9.8-15.3-19.5-24.2-27.9c-23.5-22.4-39.2-48.4-42.9-81.2c-7.6-67.2,50.3-91.3,94.9-76c19.8,6.8,19.8,6.9,19.8,27.8
			C654.9,553.5,654.9,560.7,654.9,569.5z"/>
		<path class="st0" d="M524.7,773.5c-11,0-21.2,0-32,0c0-86.4,0-172.3,0-259.1c10.4,0,20.8,0,32,0
			C524.7,600.5,524.7,686.6,524.7,773.5z"/>
		<path class="st0" d="M1175.2,475.4c-0.2-1.6-0.4-3-0.4-4.4c0-8.9,0-17.8,0-27.4c59.5,0,118.6,0,178.1,0c0,10.6,0,20.8,0,31.8
			C1293.7,475.4,1234.7,475.4,1175.2,475.4z"/>
	</g>
</g>
</svg>
