<?xml version="1.0" encoding="utf-8"?>
<!-- Generator: Adobe Illustrator 21.1.0, SVG Export Plug-In . SVG Version: 6.00 Build 0)  -->
<svg version="1.1" id="Layer_1" xmlns="http://www.w3.org/2000/svg" xmlns:xlink="http://www.w3.org/1999/xlink" x="0px" y="0px"
	 viewBox="0 0 640 480" style="enable-background:new 0 0 640 480;" xml:space="preserve">
<style type="text/css">
	.st0{fill:#2360A5;}
	.st1{fill:#FFFFFF;}
</style>
<g>
	<path class="st0" d="M537.2,239.8c0-124.3-92.7-217-217.1-217c-124.3,0-217.4,92.7-217.4,217c0,124.7,93.1,217.4,217.4,217.4
		C444.5,457.2,537.2,364.5,537.2,239.8L537.2,239.8z"/>
	<path class="st1" d="M494.3,239.8c0,102.4-73.7,176.9-174.1,176.9c-100.8,0-174.1-74.5-174.1-176.9c0-102,73.3-176.5,174.1-176.5
		C420.6,63.3,494.3,137.8,494.3,239.8L494.3,239.8z"/>
	<path class="st0" d="M263.9,354.4V158h-35.2c-17.4,0-24.3,6.9-24.3,24.3v172L263.9,354.4L263.9,354.4L263.9,354.4z"/>
	<path class="st0" d="M376.4,354.4h59.1V182.3c0-17.4-6.5-24.3-24.3-24.3h-34.8V354.4z"/>
	<path class="st0" d="M349.7,354.4V126.5c0-18.2-6.1-24.3-24.3-24.3h-53v25.1h3.2l5.7,0.4c2,0,4,1.2,5.7,2.9
		c2.4,2.8,3.2,5.7,3.2,11.7v212.1H349.7L349.7,354.4z"/>
</g>
</svg>
