<?xml version="1.0" encoding="utf-8"?>
<!-- Generator: Adobe Illustrator 22.1.0, SVG Export Plug-In . SVG Version: 6.00 Build 0)  -->
<svg version="1.1" id="Layer_1" xmlns="http://www.w3.org/2000/svg" xmlns:xlink="http://www.w3.org/1999/xlink" x="0px" y="0px"
	 viewBox="0 0 640 480" style="enable-background:new 0 0 640 480;" xml:space="preserve">
<style type="text/css">
	.st0{fill:#ED1C24;}
</style>
<path class="st0" d="M601.5,256.8v-42.7h-14.3v-13.9h14.3v-24.9h15.3v24.9h19.9v13.9h-19.9v41.5c0,9.1,3.8,13.3,11,13.3
	c2.8,0,4.8-0.3,7-1.3l5.3,13.1c-3.5,1.5-7.1,2.2-12.3,2.2C610.6,282.8,601.5,273.4,601.5,256.8z M503,240.8
	c0-23.1,15.9-43.3,39.8-43.3c24.2,0,39.8,17.1,39.8,43.3c0,1.2-0.2,2.8-0.2,2.8h-64.3c0.8,17.3,13.3,26.6,25.9,26.6
	c9,0,17.9-3.7,22.2-13.9l13.6,5.6c-4.8,11.6-16.8,22.2-35.5,22.2C519.6,284.2,503,265.4,503,240.8L503,240.8z M542.5,211.4
	c-11.3,0-20.3,7.6-23.2,19.6h47.2C566,223.9,560,211.4,542.5,211.4z M428.2,270.2h-0.7v11.3h-14.6V162.6h15.3v37.5l-0.7,11.3h0.7
	c4.6-7.5,14.8-13.9,27.7-13.9c20.6,0,38.7,18.4,38.7,43.3s-18.1,43.3-38.7,43.3C442.9,284.2,432.8,277.7,428.2,270.2z M479.3,240.8
	c0-18.3-12.3-29.4-25.9-29.4c-13.6,0-25.9,10.8-25.9,29.4s12.3,29.4,25.9,29.4C467,270.2,479.3,259.1,479.3,240.8z M324.9,256.9
	c0-18.4,16.6-28.4,35.7-28.4c11,0,18.9,3.2,22.1,5v-2.3c0-12.3-9.8-19.8-21.3-19.8c-8.5,0-16.6,4.2-19.4,11.8l-13.9-6
	c2.8-7.5,12.6-19.8,33-19.8c19.9,0,36.2,12,36.2,34.9v49.1h-14.6v-11.3H382c-4.5,6.8-12.8,13.9-26.7,13.9
	C338.7,284.2,324.9,273.9,324.9,256.9z M382.7,246.5c0,0-6.5-5.3-19.4-5.3c-16.1,0-22.4,8.6-22.4,16.1c0,8.6,9,13,16.9,13
	C369.9,270.2,382.7,259.8,382.7,246.5z M255.7,200.2l-0.7,11.3h0.7c4.3-7.5,14.6-13.9,25.7-13.9c20.8,0,31,14.1,31,34.2v49.8h-15.3
	V234c0-16.9-8.5-22.6-20.1-22.6c-13.3,0-21.4,12.6-21.4,25.1v45h-15.3V162.6h15.3L255.7,200.2L255.7,200.2z M162.5,270.2h-0.7
	l0.7,11.3v35.9h-15.3V200.2h14.6v11.3h0.7c4.6-7.5,14.8-13.9,27.7-13.9c20.6,0,38.7,18.4,38.7,43.3c0,24.9-18.1,43.3-38.7,43.3
	C177.3,284.2,167.2,277.7,162.5,270.2z M213.7,240.8c0-18.3-12.3-29.4-25.9-29.4c-13.6,0-25.9,10.8-25.9,29.4s12.3,29.4,25.9,29.4
	C201.4,270.2,213.7,259.1,213.7,240.8z M115.7,281.5H131V162.6h-15.3C115.7,162.6,115.7,281.5,115.7,281.5z M44.8,162.6L0,281.5
	h16.9l11.6-32.2h50L90,281.5h16.9L62.1,162.6H44.8z M53.1,181.4h0.7L73.2,235H33.7C33.7,235,53.1,181.4,53.1,181.4z"/>
</svg>
