<?xml version="1.0" encoding="utf-8"?>
<!-- Generator: Adobe Illustrator 20.1.0, SVG Export Plug-In . SVG Version: 6.00 Build 0)  -->
<svg version="1.1" id="Layer_1" xmlns="http://www.w3.org/2000/svg" xmlns:xlink="http://www.w3.org/1999/xlink" x="0px" y="0px"
	 viewBox="0 0 640 480" style="enable-background:new 0 0 640 480;" xml:space="preserve">
<style type="text/css">
	.st0{fill:#FFFFFF;}
	.st1{fill:#E70000;}
	.st2{fill:#F06C6C;}
	.st3{fill:#062173;}
	.st4{fill:#495693;}
</style>
<g id="svgg">
	<path id="path0" class="st0" d="M0,240v73.9h320h320V240v-73.9H320H0V240 M460.9,180.2c10.1,1.6,23.8,6.7,23.4,8.7
		c-0.4,2.1-2.2,2.4-6.5,0.9c-31.1-11-64.2,7.7-69.6,39.2c-1.3,7.6,0,20.5,2.6,26.5c0.3,0.8,1,2.2,1.4,3.2c2.1,4.7,9.5,14.2,11,14.2
		c0.4,0,1.4-0.7,2.3-1.6c1.9-2,2.5-2,6,0.3c9.7,6.5,19.3,7.9,30.2,4.1c15.2-5.2,24.6-22.1,20.5-37.2c-7.1-26.7-43.1-32.7-58.7-9.8
		c-1.4,2-2.5,4.2-2.5,4.7c0,0.5-0.2,1.1-0.5,1.3c-0.6,0.4-1.9,6-2.2,9c-0.1,1.6-0.4,1.9-2.2,2.1c-4.4,0.4-3.2-13.9,2-24.2
		c12.1-23.9,43.7-31.3,65.4-15.1c3.1,2.3,3.2,2.5,1.5,4.7l-1.3,1.6l3.5,3.9c7.9,8.9,11.8,19.6,11.9,32.6
		c0.1,43.2-51.8,66.6-85.4,38.4l-1.9-1.6l-2.4,2.3l-2.4,2.3l-3.3-3.5c-5.7-6-13.5-18.5-13.5-21.8c0-0.5-0.2-1.1-0.6-1.3
		c-0.3-0.2-0.7-1.3-0.9-2.4c-0.2-1.2-0.8-4.3-1.4-6.9C379.2,213.6,418.4,173.6,460.9,180.2 M264.3,187.8c8.4,1.6,12.9,2.8,14.7,3.9
		c0.9,0.6,0.7,6.7-0.5,16.1c-0.5,4.1,0,3.9-8.1,1.7c-19.2-5.4-37.4-2-37.4,7c0,5.3,4.6,8,22.1,13.1c22.9,6.6,30.4,13.8,30.4,29.3
		c0,27.5-28.9,39.8-69.7,29.8c-4.7-1.2-4.7-1.2-4-7.7c0.4-3.1,0.8-7.3,1-9.2c0.6-5.3,0.8-5.5,5.3-3.9c12.9,4.5,32.1,4.6,40.1,0.4
		c7.3-3.9,5.1-13.1-3.9-16.2c-1.4-0.5-3-1.1-3.7-1.4c-0.7-0.3-2.4-0.8-3.8-1.2c-30.2-8.2-38.8-16.6-36.3-35.2
		c1.6-11.7,14.8-25.1,24.6-25.1c0.9,0,1.9-0.3,2.1-0.6s1.6-0.7,3.1-0.7c1.5,0,3.4-0.3,4.3-0.6C246.5,186.5,259.6,186.9,264.3,187.8
		 M76.9,191.5c0.5,0.6,1.9,3.4,3,6.2c1.1,2.8,2.5,6.1,3.1,7.4c0.5,1.2,1.3,3.1,1.8,4.2c0.5,1.1,3.5,8.4,6.7,16.3
		c3.2,7.9,6.3,15.4,6.8,16.6c0.5,1.2,1.2,2.9,1.6,3.7c0.3,0.8,0.8,2.1,1.1,2.9c0.3,0.8,1,2.4,1.5,3.7c0.5,1.2,2.9,7,5.3,12.8
		c2.4,5.8,4.8,11.7,5.4,13.1c4.8,10.9,5.6,10-8.6,9.8L93.3,288l-1.6-4.2c-0.9-2.3-2-5-2.4-6.1s-1.9-4.5-3.2-7.7
		c-1.3-3.2-2.8-6.8-3.3-8c-0.5-1.2-1.2-2.8-1.5-3.5s-0.9-2.3-1.5-3.5c-0.5-1.2-2.3-5.6-4-9.6c-1.7-4-3.4-8.4-4-9.6
		c-0.5-1.2-1.2-2.8-1.5-3.5c-0.3-0.7-1.1-2.6-1.8-4.2s-2.1-5-3-7.5c-1.7-4.4-3.5-5.6-3.5-2.3c0,0.5-0.3,1.4-0.6,2
		c-0.3,0.6-1.9,4.7-3.6,9.1c-3,8.1-3.4,9.3-4.6,12.2c-1.4,3.2-4.6,12.1-4.6,12.7c0,0.3,2.1,0,4.6-0.6c11.9-3,18.4-2.4,20,1.9
		c0.6,1.7,1.4,3.4,1.8,3.8c1,1.3,0,2.7-1.9,2.7c-11.7,0-35.8,15.5-36,23.2c-0.1,2.8-1.2,3.1-12.9,3.1c-6.2,0-11.3-0.2-11.5-0.3
		c-0.2-0.2,1.2-4.4,3.2-9.4c1.9-5,4.9-12.7,6.5-17.1c6.7-17.6,10.4-27.3,10.9-28.5c0.3-0.7,2.4-6.2,4.7-12.2
		c8.4-22,10.8-28.1,11.4-29.3C50.3,189.8,75.4,189.8,76.9,191.5 M156,191.2c0.6,0.6,0.8,10.1,0.8,39v38.3h21.4
		c25.4,0,22.9-1.2,22.7,10.6l-0.2,8.9h-33.9h-33.9l-0.2-48.3c-0.1-38.2,0-48.4,0.6-48.8C134.6,190.1,155.2,190.3,156,191.2
		 M557.9,200.5c4.1,5.5,7.8,10.4,8.2,10.8c0.4,0.4,3.1,4,6.1,8.1c6.1,8.3,6.3,8.4,8.8,5.1c1-1.3,2.1-2.8,2.5-3.4
		c0.4-0.5,2.3-3,4.1-5.5c1.8-2.5,3.5-4.6,3.8-4.8c0.2-0.2,1.1-1.3,1.9-2.6c0.8-1.2,3.1-4.3,5.1-6.8c3.8-4.8,5.8-7.5,7.3-9.5
		c0.9-1.2,1.7-1.3,11.4-1.3h10.5l0.2,48.8l0.2,48.8l-12.3-0.2l-12.3-0.2l-0.3-28.8l-0.3-28.8l-5.8,7.9c-20.5,28.1-16.9,27-29.5,9.7
		c-2.4-3.3-4.6-6.2-4.8-6.4c-0.2-0.2-1.8-2.3-3.5-4.8c-3.8-5.5-4.8-6.5-4.8-5.3c0,0.5-0.1,13.4-0.2,28.7l-0.1,27.8h-12.5H529
		l-0.2-47.9c-0.1-34.9,0-48.2,0.6-48.8c0.6-0.7,3.1-0.9,10.9-0.9h10.2L557.9,200.5 M380.5,200.6v9.3l-15.8,0.2l-15.8,0.2l-0.2,38.9
		l-0.2,38.9H336h-12.5l-0.2-38.9l-0.2-38.9h-15.7h-15.7v-9.6V191l44.3,0.2l44.3,0.2V200.6 M512.6,213.3c4.5,9,7,23.3,5.3,31.1
		c-0.3,1.5-1,4.4-1.4,6.5c-1.8,8.4-6.1,17-8.5,17c-2,0-2.3-0.5-1.4-2.4c5.3-11.1,6.5-21.6,3.8-33.4c-1.1-4.8-1.3-5.2-4.2-11.2
		c-1.2-2.4-2.3-4.7-2.4-4.9c-0.3-0.7,5-6.3,6-6.3C510.3,209.6,511.5,211.3,512.6,213.3"/>
	<path id="path1" class="st1" d="M442.9,181.2c-1.9,0.2-3.8,0.6-4.1,0.9c-0.3,0.3-1.5,0.6-2.6,0.6s-2.3,0.2-2.6,0.5
		c-0.3,0.3-1.9,0.9-3.5,1.4c-13.7,4.1-28.9,17.3-35.7,31c-1.2,2.5-2.5,5.1-2.8,5.7c-0.3,0.6-0.6,1.7-0.6,2.4c0,0.7-0.3,1.4-0.6,1.6
		c-2.7,1.7-3.8,28.5-1.3,33.1c0.3,0.6,0.6,1.8,0.6,2.6c0,0.8,0.2,1.8,0.5,2.1c0.3,0.3,0.9,1.8,1.3,3.2c1.6,5,8.1,16.1,9.8,16.9
		c0.3,0.1,0.5,0.5,0.5,0.8c0,0.9,4.3,5,5.2,5c0.4,0,1.7-0.9,2.7-1.9l2-1.9l4.2,3.1c4.9,3.7,11.3,7.1,15.4,8.3
		c1.6,0.5,3.8,1.1,4.8,1.4c4.9,1.5,22.7,0.5,27.8-1.5c0.9-0.4,2.3-0.9,3.2-1.3c6.9-2.7,11-5.6,17.3-11.9
		c6.9-6.9,10.9-14.1,12.9-23.1c1-4.2,1.4-18,0.5-18.8c-0.4-0.4-0.7-1.4-0.7-2.3c0-4.7-5.5-15.8-10.9-22c-3.6-4.1-3.8-4.8-1.9-6.5
		c2.2-1.9-7.7-8.2-16.4-10.4c-2.5-0.6-19.9-0.6-22.7,0.1c-17.5,4-33.9,27.3-30.4,43.2c0.7,3.3,2.4,2.3,2.7-1.6
		c1.3-18,22.4-32.2,40.6-27.5c29.2,7.6,35.1,43.3,9.9,59.4c-2,1.3-4,2.3-4.5,2.3c-0.5,0-1.1,0.3-1.3,0.6c-0.6,1-4.8,1.5-11.9,1.6
		c-8.8,0.1-12.8-1.1-19.4-5.9l-3.1-2.2l-1.7,2c-0.9,1.1-2.1,2-2.7,2c-2.9,0-14-15.9-14-20.1c0-0.5-0.3-1.1-0.6-1.3
		c-0.6-0.4-0.8-1.3-2-9c-1-6.6,0.3-20,2.1-21.8c0.3-0.3,0.5-0.9,0.5-1.5c0-7,19.3-28.8,25.6-28.8c0.4,0,0.7-0.3,0.7-0.6
		c0-0.4,0.5-0.6,1.2-0.6c0.6,0,1.4-0.2,1.8-0.5c0.3-0.3,1.9-0.9,3.5-1.4c1.6-0.5,3.6-1.1,4.5-1.3c5.8-1.9,24.8-1.8,26,0.1
		c0.2,0.3,1,0.6,1.9,0.6s2.1,0.3,2.7,0.6c4.3,2.2,5.9,2.4,5.9,0.7c0-1.2-7.6-4.4-16.5-6.8C463.1,181.4,449,180.7,442.9,181.2
		 M507.8,212.3c-3.1,3.7-3.1,3.3-1,7.3c6.8,13.5,7.8,26.8,3,40.8c-0.6,1.8-1.4,3.5-1.7,3.8c-1,1-0.7,2.9,0.3,2.5
		c1.5-0.6,5-8.6,7.4-17.2c0.9-3.3,1.3-13.9,0.7-18.9c-0.9-7.2-1.1-8.1-3.4-13.4C510.1,210,509.9,209.8,507.8,212.3"/>
	<path id="path2" class="st2" d="M442.6,180.3c-37.8,7.3-62,40.2-55,74.7c0.5,2.6,1.1,5.7,1.4,6.9c0.2,1.2,0.6,2.2,0.9,2.4
		c0.3,0.2,0.6,0.8,0.6,1.3c0,3.3,7.8,15.9,13.5,21.8l3.3,3.5l2.4-2.3l2.4-2.3l1.9,1.6c29.7,24.8,75.7,9.7,84.6-27.9
		c1.6-6.6,0.8-19-1.7-27.1c-1.3-4.1-6.1-12.3-9.4-16l-3.5-3.9l1.3-1.6c1.7-2.2,1.6-2.4-1.5-4.7c-13.2-9.8-31.5-11.4-46.2-4.1
		c-14.9,7.5-25.5,25.4-23.7,40.1c0.5,4.2,4.3,5.1,4.6,1.1c0.3-3.1,1.6-8.7,2.2-9c0.3-0.2,0.5-0.8,0.5-1.3c0-1.6,4.8-8.2,8-11
		c15.4-13.6,41.8-8.8,50.6,9.3c14.7,30.1-20,58.8-48.1,39.9c-3.5-2.4-4.1-2.4-6-0.3c-0.8,0.9-1.9,1.6-2.3,1.6
		c-1.6,0-8.9-9.5-11-14.2c-0.4-1-1.1-2.4-1.4-3.2c-2.6-6-3.9-18.9-2.6-26.5c5.4-31.5,38.5-50.2,69.6-39.2c7.1,2.5,9.2-0.6,2.6-3.8
		C469.4,180.7,453.2,178.3,442.6,180.3 M466.7,182.3c8.9,2.4,16.5,5.5,16.5,6.8c0,1.7-1.6,1.5-5.9-0.7c-0.6-0.3-1.8-0.6-2.7-0.6
		s-1.7-0.2-1.9-0.6c-1.2-1.9-20.1-2-26-0.1c-0.9,0.3-2.9,0.9-4.5,1.3c-1.6,0.5-3.2,1.1-3.5,1.4c-0.3,0.3-1.1,0.5-1.8,0.5
		c-0.6,0-1.2,0.3-1.2,0.6c0,0.4-0.3,0.6-0.7,0.6c-6.2,0-25.6,21.8-25.6,28.8c0,0.6-0.2,1.3-0.5,1.5c-1.9,1.9-3.2,15.2-2.1,21.8
		c1.2,7.7,1.4,8.6,2,9c0.3,0.2,0.6,0.8,0.6,1.3c0,4.2,11.1,20.1,14,20.1c0.6,0,1.8-0.9,2.7-2l1.7-2l3.1,2.2
		c6.7,4.7,10.6,5.9,19.4,5.9c7.1,0,11.3-0.6,11.9-1.6c0.2-0.3,0.8-0.6,1.3-0.6c0.5,0,2.6-1,4.5-2.3c25.2-16.1,19.2-51.9-9.9-59.4
		c-18.3-4.7-39.3,9.5-40.6,27.5c-0.3,3.9-2,4.9-2.7,1.6c-3.5-15.9,12.9-39.1,30.4-43.2c2.8-0.7,20.2-0.7,22.7-0.1
		c8.7,2.2,18.6,8.5,16.4,10.4c-1.9,1.6-1.7,2.4,1.9,6.5c5.4,6.1,10.9,17.2,10.9,22c0,0.9,0.3,1.9,0.7,2.3c0.8,0.8,0.4,14.5-0.5,18.8
		c-2.1,9-6.1,16.2-12.9,23.1c-6.2,6.3-10.4,9.2-17.3,11.9c-0.9,0.4-2.3,0.9-3.2,1.3c-5.1,2-22.9,3-27.8,1.5c-1.1-0.3-3.3-1-4.8-1.4
		c-4-1.1-10.4-4.6-15.4-8.3l-4.2-3.1l-2,1.9c-1.1,1-2.3,1.9-2.7,1.9c-0.9,0-5.2-4.2-5.2-5c0-0.3-0.2-0.7-0.5-0.8
		c-1.7-0.7-8.2-11.8-9.8-16.9c-0.4-1.4-1-2.8-1.3-3.2c-0.3-0.3-0.5-1.3-0.5-2.1c0-0.8-0.3-2-0.6-2.6c-1.5-2.8-2.1-15.6-1-22.2
		c1.6-10,1.7-10.5,2.3-10.9c0.3-0.2,0.6-0.9,0.6-1.6c0-0.7,0.3-1.8,0.6-2.4c0.3-0.6,1.6-3.2,2.8-5.7c3.9-7.8,9-14.1,16.4-20.1
		c5.5-4.5,14.2-9.4,19.3-10.9c1.6-0.5,3.2-1.1,3.5-1.4c0.3-0.3,1.5-0.5,2.6-0.5s2.3-0.3,2.6-0.6
		C440.2,180.6,460.9,180.8,466.7,182.3 M49.7,190.9c-0.2,0.3,3.8,0.4,8.8,0.3c16.5-0.3,18.2-0.5,4.8-0.7
		C56,190.5,49.9,190.6,49.7,190.9 M139,190.9c3.1,0.1,8.1,0.1,11.2,0c3.1-0.1,0.6-0.2-5.6-0.2C138.5,190.7,136,190.8,139,190.9
		 M539.8,190.9c8.5,0.2,10.4,0.4,11.5,1.3c1.3,1.1,1.3,1.1,0.1-0.3c-1.2-1.4-1.5-1.4-11.5-1.3l-10.3,0.1L539.8,190.9 M610.9,190.8
		c7.7,0.5,16.8,0.5,16.5,0c-0.2-0.3-4.7-0.4-10-0.4C612.1,190.6,609.1,190.7,610.9,190.8 M506.3,212.5c-1.5,1.6-2.6,3.1-2.5,3.4
		c0.1,0.3,1.2,2.5,2.4,4.9c2.9,5.9,3,6.4,4.2,11.2c2.7,11.8,1.6,22.3-3.8,33.4c-0.9,2-0.7,2.4,1.4,2.4c2.4,0,6.7-8.5,8.5-17
		c0.5-2.1,1.1-5,1.4-6.5c1.7-7.8-0.7-22.1-5.3-31.1C510.3,208.8,509.7,208.8,506.3,212.5 M348.2,249.1c-0.2,21.5-0.1,39,0.2,38.7
		c0.3-0.3,0.4-17.9,0.3-39.2l-0.2-38.7L348.2,249.1 M323.5,249.2c0,33.8,0.1,38.7,1,38.9c0.7,0.2,0.7,0.1,0.2-0.3
		c-0.6-0.4-0.8-9.3-1-38.9l-0.2-38.4L323.5,249.2 M511.3,213c3.1,7.2,3.7,8.8,4.2,11c1.6,7.5,1.8,20.4,0.3,25.6
		c-2.4,8.6-5.9,16.6-7.4,17.2c-1,0.4-1.3-1.5-0.3-2.5c0.3-0.3,1.1-2,1.7-3.8c4.8-14,3.8-27.4-3-40.8c-1.6-3.2-1.8-3.9-1-4.8
		C509.5,210.1,510,210,511.3,213 M210.1,218.6c0,1.6,0.1,2.2,0.3,1.4c0.2-0.8,0.2-2.1,0-2.9C210.2,216.3,210.1,217,210.1,218.6
		 M603.2,259.2c0,14.8,0.1,20.7,0.2,13.2c0.1-7.5,0.1-19.6,0-26.9C603.3,238.3,603.2,244.4,603.2,259.2 M553.6,260.6
		c-0.2,15.2-0.1,27.4,0.2,27.2c0.3-0.3,0.4-12.7,0.3-27.6l-0.2-27.2L553.6,260.6 M63.9,252.3c1.5,0.1,3.8,0.1,5.1,0
		c1.3-0.1,0.1-0.2-2.7-0.2C63.4,252.1,62.4,252.2,63.9,252.3 M167.2,269c5.9,0.1,15.7,0.1,21.8,0c6.1-0.1,1.3-0.2-10.7-0.2
		C166.3,268.8,161.3,268.9,167.2,269 M200.3,278.8c-0.2,5.2-0.1,9.2,0.2,8.9c0.3-0.3,0.4-4.5,0.3-9.4l-0.2-8.9L200.3,278.8
		 M237.6,271.5c2,0.1,5.2,0.1,7,0c1.8-0.1,0.2-0.2-3.7-0.2C237.1,271.3,235.6,271.4,237.6,271.5 M238.6,292c1.5,0.1,3.9,0.1,5.4,0
		s0.3-0.2-2.7-0.2S237.1,291.9,238.6,292"/>
	<path id="path3" class="st3" d="M243.5,188.6c-7.8,1.1-9.3,1.4-9.6,1.9c-0.2,0.3-0.9,0.6-1.5,0.6c-4.5,0-15.5,8.7-18.1,14.4
		c-8.2,17.6-0.8,32.5,19.4,39.1c1.9,0.6,4,1.4,4.6,1.7c0.6,0.3,1.7,0.6,2.4,0.6c0.7,0,1.9,0.3,2.7,0.6c0.8,0.3,2.8,0.9,4.4,1.4
		c14.2,3.8,20.1,11.5,13.9,18c-2.4,2.5-4.5,3.8-6.1,3.8c-0.6,0-1.5,0.3-1.9,0.7c-0.9,0.9-25.8,0.9-26.7-0.1c-0.4-0.4-1.7-0.6-3-0.6
		s-2.6-0.3-2.8-0.6c-0.2-0.4-1.1-0.6-1.9-0.6c-0.8,0-1.7-0.3-1.9-0.6c-1.3-2.2-2.7-0.5-3.4,4c-2,13.8-1.8,15.2,2.4,15.2
		c1.3,0,2.6,0.3,3,0.6c2.7,2.5,38.8,2.5,41.5,0c0.3-0.3,1.4-0.6,2.4-0.6c1,0,1.9-0.3,2.2-0.6c0.2-0.4,0.8-0.6,1.3-0.6
		c1.4,0,8-4.4,10.6-7.1c7.5-7.7,9.7-21.5,5.1-31.9c-2.2-5-14.3-14.1-18.9-14.1c-0.5,0-1.2-0.3-1.4-0.6c-0.2-0.4-1.1-0.6-1.9-0.6
		c-0.8,0-1.7-0.3-1.9-0.6c-0.2-0.3-1.4-0.8-2.8-1c-5.8-1-6.6-1.2-6.9-1.7c-0.2-0.3-1-0.6-1.9-0.6c-0.8,0-1.7-0.3-1.9-0.6
		c-0.2-0.4-0.9-0.6-1.6-0.6c-5.3,0-12.5-7.9-11.2-12.3c0.5-1.8,5.3-6.2,6.7-6.2c0.6,0,1.3-0.2,1.6-0.6c2.3-2.1,16.2-2.7,23.6-1
		c2.5,0.6,5.2,1.2,6.1,1.3c0.9,0.2,2.2,0.6,2.9,0.9c0.7,0.3,2,0.7,3,0.8l1.7,0.3l0.4-7.1c0.2-3.9,0.6-7.9,0.8-8.9
		c0.3-1.5,0.2-1.8-0.9-1.8c-0.7,0-1.5-0.3-1.7-0.6c-0.2-0.4-1.2-0.6-2.2-0.6s-2-0.3-2.2-0.6c-0.2-0.3-1.4-0.7-2.8-0.9
		c-1.3-0.2-4.6-0.6-7.2-1C256.3,187.8,249.1,187.8,243.5,188.6 M48.4,196.2c-0.9,2.1-1.7,4.3-1.7,4.8c0,0.5-0.3,0.9-0.6,0.9
		c-0.4,0-0.6,0.6-0.6,1.3s-0.3,1.9-0.6,2.6c-0.4,0.7-0.9,1.8-1.3,2.5s-0.6,1.7-0.6,2.2s-0.3,1.6-0.7,2.4c-1.5,3-1.8,3.7-1.8,4.6
		c0,0.5-0.5,1.9-1.1,3c-1.6,3.2-1.8,3.8-2.8,7.1c-0.5,1.7-1.1,3-1.4,3s-0.5,0.6-0.5,1.3s-0.3,1.9-0.6,2.6c-0.4,0.7-0.9,1.8-1.3,2.5
		c-0.4,0.7-0.6,1.7-0.6,2.2s-0.3,1.5-0.6,2.1c-0.3,0.6-1.4,3.1-2.3,5.6c-1,2.5-2,4.8-2.3,5.1c-0.3,0.3-0.5,1.1-0.5,1.8
		s-0.3,1.7-0.6,2.4c-0.4,0.7-0.9,1.8-1.3,2.5c-0.4,0.7-0.6,1.7-0.6,2.2s-0.3,1.5-0.6,2.1c-0.3,0.6-0.9,1.8-1.2,2.7
		c-0.8,2-5.2,13.3-5.9,15c-0.3,0.7-0.8,2-1.2,2.9c-1.7,4.1-2.4,3.8,9.3,3.8l10.7,0l1.9-3.8c2.6-5.3,12.8-15.3,15.6-15.3
		c0.3,0,0.7-0.2,0.8-0.5c0.3-0.6,6.4-3.5,9.8-4.6c1.4-0.4,3.2-1.1,4-1.4c0.8-0.3,2.6-0.6,4-0.6c2.8,0,3.4-1.6,1.8-4.6
		c-0.4-0.8-0.9-1.9-1.2-2.4c-1-2-13-1.5-20.6,0.9c-2.6,0.8-3,0.8-3.3,0.1c-0.4-1,1.5-6.9,2.3-7.2c0.3-0.1,0.5-0.8,0.5-1.4
		c0-0.7,0.3-1.8,0.6-2.5c0.4-0.7,0.9-1.8,1.3-2.5c0.4-0.7,0.6-1.7,0.6-2.2s0.3-1.5,0.6-2.1c0.3-0.6,1.2-2.8,2-5
		c1.7-4.7,3.1-8,3.9-9.4c0.3-0.6,0.6-1.7,0.6-2.4s0.3-1.3,0.6-1.3s0.6-0.8,0.6-1.9c0-1.3,0.4-2,1.3-2.3c1.6-0.5,1.3-0.9,3.4,4.3
		c0.9,2.4,2.3,5.7,3,7.4c0.7,1.7,1.6,3.6,1.8,4.3c0.7,1.7,1.6,4,2.8,6.7c0.5,1.2,1.8,4.5,2.9,7.2c1.1,2.7,2.6,6.3,3.3,8
		c0.8,1.7,1.6,3.7,1.9,4.4c0.3,0.7,0.9,2.1,1.3,3.2c0.4,1.1,1,2.5,1.3,3.2c0.3,0.7,1.1,2.6,1.8,4.3c0.7,1.7,1.3,3.2,1.3,3.4
		c0,0.2,0.5,1.4,1,2.7c0.6,1.3,1.3,3,1.6,3.8c1.2,2.9,1.9,4.7,2.4,6.1c0.3,0.8,0.7,1.9,0.9,2.6c0.3,1.1,22.2,1.9,22.2,0.8
		c0-0.2-0.6-1.7-1.3-3.4c-0.7-1.7-1.6-3.7-1.9-4.5c-1.2-3-1.9-4.7-2.4-6.1c-0.3-0.8-1-2.4-1.5-3.7c-3.7-8.5-4.9-11.8-4.9-12.5
		c0-0.5-0.3-0.9-0.6-0.9c-0.4,0-0.6-0.7-0.6-1.6s-0.3-1.6-0.6-1.6c-0.4,0-0.6-0.7-0.6-1.6c0-0.9-0.3-1.7-0.6-2
		c-0.4-0.2-0.6-1-0.6-1.6c0-0.7-0.3-1.2-0.6-1.2c-0.4,0-0.6-0.5-0.6-1.1c0-0.6-0.8-2.7-1.7-4.6c-0.9-1.9-1.9-4.1-2.2-4.8
		c-0.3-0.7-0.8-2.1-1.2-3c-0.4-1-1-2.5-1.4-3.4c-0.4-0.9-0.9-2.3-1.3-3.2c-0.4-0.9-0.9-2.2-1.2-3c-0.7-1.7-1.9-4.6-3.9-9.1
		c-1.8-4.2-3.1-7.2-4.6-11c-0.9-2.2-1.6-4-3.2-7.7l-1.4-3.4H63.3H50.1L48.4,196.2 M133.1,240v47.7h33.3h33.3v-8.8v-8.8h-21.6h-21.6
		l-0.2-38.9l-0.2-38.9h-11.5h-11.5V240 M292.5,200.9v8.6l15.8,0.2l15.8,0.2l0.3,38.7l0.3,38.7l11.4,0.2l11.4,0.2l0.2-38.9l0.2-38.9
		l15.8-0.2l15.8-0.2v-8.6v-8.6H336h-43.5V200.9 M529.3,240v47.7l11.9-0.2l11.9-0.2l0.1-29.1c0.1-30.8,0.3-31.7,3-27.3
		c0.8,1.3,1.8,2.6,2.2,3.1c0.4,0.4,2.2,2.8,3.9,5.3s3.5,4.9,4,5.4c0.4,0.5,2.7,3.6,5,6.7c6.8,9.4,6.5,9,8.2,8.1
		c0.8-0.4,2-1.6,2.5-2.5c0.6-0.9,1.5-2.3,2.2-3.1c0.6-0.8,2.3-3,3.7-5c3.2-4.6,7.2-10,8.2-11.2c0.4-0.5,2-2.7,3.5-4.8
		c4.4-6.2,4.2-7.2,4.4,25.4l0.2,29.3h11.5h11.5V240v-47.7h-10.5c-7.8,0-10.6,0.2-10.8,0.8c-0.2,0.4-2.2,3.1-4.4,6
		c-2.2,2.9-4.8,6.1-5.7,7.3c-0.9,1.2-3.2,4.2-5.1,6.7c-1.9,2.5-4.2,5.5-5.1,6.8c-0.9,1.2-1.9,2.5-2.2,2.9c-0.4,0.4-1.4,1.7-2.3,3
		c-2,3-5.8,2.4-5.8-0.8c0-0.3-0.2-0.7-0.5-0.8c-0.3-0.1-2.3-2.7-4.5-5.7s-4.6-6.2-5.3-7c-0.7-0.9-4.2-5.6-7.8-10.4l-6.5-8.8l-10.7,0
		l-10.7,0V240"/>
	<path id="path4" class="st4" d="M244.2,187.5c-26,4-39.2,20.3-32.3,39.9c2.9,8.4,17.2,19.7,22.5,17.9c0.5-0.2-0.3-0.7-1.7-1.1
		c-19.2-6.2-26.5-21.5-18.4-38.8c2.6-5.7,13.6-14.4,18.1-14.4c0.7,0,1.3-0.3,1.5-0.6c1-1.6,18-2.9,25.6-2.1
		c10,1.1,11.9,1.5,12.3,2.1c0.2,0.3,1.2,0.6,2.2,0.6s2,0.3,2.2,0.6c0.2,0.4,1,0.6,1.7,0.6c1.1,0,1.3,0.3,0.9,1.8
		c-0.2,1-0.6,5-0.8,8.9l-0.4,7.1l-1.7-0.3c-0.9-0.1-2.2-0.5-3-0.8c-0.7-0.3-2-0.7-2.9-0.9c-0.9-0.2-3.6-0.8-6.1-1.3
		c-7.6-1.7-21.5-1.1-23.7,1.1c-0.4,0.4-0.3,0.5,0.4,0.3c7.9-2.8,20.6-2,33.8,2.1c3.6,1.1,3.7,1,4.1-4.3c0.2-2.7,0.6-6.9,0.8-9.2
		c0.5-4.8,0.3-5-5.4-6.6C262.3,186.9,253.4,186.1,244.2,187.5 M49.2,192.5c-1.1,1.8-2.7,6.2-2.3,6.6c0.1,0.1,0.9-1.3,1.7-3.2
		l1.5-3.5h13.3h13.3l1.1,2.6c0.6,1.5,1.2,2.5,1.4,2.3c0.2-0.2-0.3-1.7-1.1-3.3l-1.4-3H63.4C50.3,191,50.1,191.1,49.2,192.5
		 M132.8,192.5c-0.2,0.8-0.3,22.6-0.2,48.5l0.2,47l0.2-47.8l0.2-47.8h11.5h11.5l0.2,38.9l0.2,38.9h21.6h21.6v8.8v8.8l-33,0.2
		l-33,0.2l33.1,0l33.1,0l0.2-9.4l0.2-9.4h-21.8h-21.8v-38c0-20.9-0.2-38.5-0.4-39C155.7,190.2,133.3,190.6,132.8,192.5 M292.1,191.9
		c-0.2,0.5-0.2,4.7-0.1,9.4l0.2,8.6l15.7,0.3l15.7,0.3l0.2,38.5l0.2,38.5l1.4,0.4c0.8,0.2,6.2,0.3,12,0.2l10.6-0.2l0.2-38.9
		l0.2-38.9h15.3c8.4,0,15.8-0.2,16.3-0.4c1.3-0.5,1.5-16.8,0.2-18C378.9,190.6,292.6,190.7,292.1,191.9 M529,192.5
		c-0.2,0.8-0.3,22.5-0.2,48.2l0.2,46.7l0.2-47.5l0.2-47.5l10.7,0l10.7,0l6.5,8.8c3.6,4.8,7.1,9.5,7.8,10.4c0.7,0.9,3.1,4,5.3,7
		s4.3,5.5,4.5,5.7c0.3,0.1,0.5,0.5,0.5,0.8c0,3.2,3.7,3.8,5.8,0.8c0.9-1.3,1.9-2.7,2.3-3c0.4-0.4,1.4-1.7,2.2-2.9
		c0.9-1.2,3.2-4.3,5.1-6.8c1.9-2.5,4.3-5.5,5.1-6.7c0.9-1.2,3.4-4.4,5.7-7.3c2.2-2.9,4.2-5.5,4.4-6c0.2-0.6,3-0.8,10.8-0.8h10.5V240
		v47.7h-11.5h-11.5l-0.2-29.3c-0.2-32.6,0-31.6-4.4-25.4c-1.5,2.1-3.1,4.3-3.5,4.8c-1,1.2-5,6.7-8.2,11.2c-1.4,2-3.1,4.2-3.7,5
		c-0.6,0.8-1.6,2.2-2.2,3.1c-0.6,0.9-1.7,2.1-2.5,2.5c-1.7,0.9-1.3,1.3-8.2-8.1c-2.3-3.2-4.6-6.2-5-6.7c-0.4-0.5-2.2-3-4-5.4
		s-3.5-4.8-3.9-5.3c-0.4-0.4-1.4-1.8-2.2-3.1c-2.8-4.5-2.9-3.6-2.9,26.9l0,28.7l0.2-27.5c0.1-15.1,0.3-27.9,0.5-28.4
		c0.2-0.5,2,1.3,4.5,4.8c2.3,3.1,4.7,6.4,5.4,7.3c0.7,0.9,3.4,4.6,6.1,8.3c9.1,12.6,7.6,13,21.8-6.4c13.2-18,11.9-19.7,11.7,16
		c-0.2,26.4-0.2,26.9,1.1,27.2c0.7,0.2,6.2,0.2,12.2,0.1l10.9-0.2v-48.3v-48.3H617h-10.5l-2.3,3c-7.3,9.5-13.2,17.2-18.8,24.7
		c-3.5,4.7-6.6,8.5-6.9,8.5c-0.3,0-4.7-5.7-9.9-12.6c-5.2-7-11.4-15.2-13.8-18.2l-4.4-5.6h-10.5C529.4,191,529.3,191.1,529,192.5
		 M379.5,200.9v8.6l-15.8,0.2l-15.8,0.2l-0.2,38.9l-0.2,38.9l-11.4-0.2l-11.4-0.2l-0.3-38.7l-0.3-38.7l-15.8-0.2l-15.8-0.2v-8.6
		v-8.6H336h43.5V200.9 M79.4,198.7c0,0.4,0.3,1.1,0.6,1.8c0.6,1.1,1.5,3.3,2.5,6.1c0.9,2.3,1.8,4.4,3.3,7.8c0.8,1.7,1.7,3.9,2,4.7
		c0.3,0.9,0.7,1.4,0.9,1.2c0.3-0.3-0.4-2.2-4.5-11.5c-0.5-1.1-1.7-4-2.6-6.4C79.9,198.3,79.4,197.3,79.4,198.7 M44.9,203
		c0,0.4-0.3,1.3-0.5,1.9c-0.3,0.9-0.2,1,0.4,0.4c0.4-0.4,0.7-1.3,0.5-1.9C45.1,202.8,44.9,202.6,44.9,203 M43.1,208
		c-0.4,1-1.9,5-3.4,8.8c-1.5,3.8-2.5,7.1-2.3,7.3c0.2,0.2,0.6-0.2,0.8-0.8c0.2-0.7,0.8-2,1.3-3c0.5-1,0.9-2.2,0.9-2.7
		s0.3-1.6,0.7-2.3c1.6-3.1,1.8-3.7,1.8-4.8c0-0.6,0.3-1.5,0.7-1.9c0.4-0.4,0.6-1.1,0.4-1.5C43.9,206.5,43.5,207,43.1,208
		 M235.1,210.7c-5.4,4.9-4,10.1,3.9,14.5c1.7,0.9,3.6,1.7,4.2,1.7c0.7,0,1.4,0.3,1.6,0.6c0.2,0.4,1.1,0.6,1.9,0.6
		c0.8,0,1.7,0.3,1.9,0.6c0.3,0.5,1.5,0.8,6.8,1.6c2.8,0.4,1-0.3-4.8-1.9c-12.6-3.5-17.6-7-17.6-12c0-3.1,0.7-4.1,4.1-6.5
		c1.4-0.9,2.1-1.7,1.6-1.7C238.1,208.3,236.5,209.4,235.1,210.7 M62.2,215.1c-0.4,0.2-0.8,1.1-0.8,2c0,1.6,0.1,1.6,0.6,0.3
		c1-2.4,1.7-2.2,2.9,0.9c0.6,1.7,1.7,4.3,2.4,5.9c0.7,1.6,1.5,3.5,1.8,4.2s0.9,2.3,1.5,3.5c0.5,1.2,3.2,7.7,5.9,14.4
		c2.7,6.7,5.3,13,5.8,14.1c0.9,2.2,4,9.6,4.8,11.5c0.3,0.7,0.9,2.3,1.5,3.5c0.5,1.2,1.8,4.3,2.7,6.7c2.6,6.5,1.6,6.1,13.8,6.1
		c13.3,0,12.7,0.7,8.3-9.3c-0.9-2.1-4.3-10.1-7.4-17.9c-3.1-7.7-5.8-13.7-5.9-13.2c-0.1,0.4,0.1,1.1,0.4,1.5
		c0.4,0.4,0.7,1.4,0.7,2.2s0.3,1.5,0.6,1.5c0.4,0,0.6,0.7,0.6,1.6s0.3,1.6,0.6,1.6c0.4,0,0.6,0.4,0.6,0.9c0,0.8,1.3,4,4.9,12.5
		c1.4,3.2,2.2,5.3,2.8,6.7c0.6,1.8,1.6,4,3.1,7.5c0.7,1.7,1.3,3.2,1.3,3.4c0,1.1-21.8,0.3-22.2-0.8c-0.2-0.6-0.7-1.8-1-2.7
		c-0.8-1.9-1.8-4.4-2.4-6.1c-0.3-0.7-1-2.3-1.5-3.6c-0.6-1.3-1-2.5-1-2.7c0-0.2-0.6-1.8-1.3-3.4c-1.3-3-2-4.5-3-7.4
		c-0.9-2.2-1.8-4.4-3.2-7.7c-0.8-1.7-2.2-5.3-3.3-8c-1.1-2.7-2.4-5.9-2.9-7.2c-0.5-1.2-1.2-2.8-1.5-3.5c-0.8-2.2-1.7-4.3-3.4-8
		c-0.9-1.9-2.3-5.3-3.1-7.5C64.4,214.9,64,214.4,62.2,215.1 M89,221.8c0,0.4,0.3,1.1,0.6,1.8c0.6,1.1,1.5,3.3,2.5,6.1
		c0.3,0.8,0.9,2.3,1.4,3.4c0.4,1.1,1,2.5,1.3,3.2c1.4,3.7,3.3,7.5,3.6,7.2c0.2-0.2-0.3-1.6-0.9-3.1c-1.9-4.2-3-6.7-5.5-13.2
		C89.6,221.4,89,220.3,89,221.8 M35.4,228.3c-0.7,1.8-2.5,6.5-4,10.4c-1.5,3.9-2.9,7.6-3.2,8.3c-0.3,0.7-0.8,2.1-1.3,3.1
		c-0.4,1-0.6,2-0.4,2.1c0.3,0.3,1.8-2.8,3.5-7.7c0.6-1.7,1.3-3.2,1.5-3.5c0.2-0.2,0.4-1,0.4-1.6c0-0.6,0.3-1.8,0.6-2.5
		c0.4-0.7,0.9-1.8,1.3-2.5c0.4-0.7,0.6-1.9,0.6-2.6s0.2-1.3,0.5-1.3c0.5,0,2.3-5.1,1.9-5.5C36.8,225.1,36.1,226.5,35.4,228.3
		 M57.6,227.3c-2.2,5.9-3.4,9-3.9,10c-0.3,0.6-0.6,1.6-0.6,2.1s-0.3,1.5-0.6,2.2c-0.4,0.7-0.9,1.8-1.3,2.5c-0.4,0.7-0.6,1.8-0.6,2.4
		c0,0.6,0.8-0.7,1.7-3c1.7-4.3,2.4-6,3.4-8.5c1.4-3.4,3.2-9.1,2.9-9.3C58.4,225.6,58,226.3,57.6,227.3 M258.2,231.4
		c0.2,0.4,1,0.6,1.8,0.6c1.1,0,1.2-0.1,0.4-0.6C259.2,230.5,257.7,230.5,258.2,231.4 M262.1,232.6c0.2,0.4,0.8,0.6,1.4,0.6
		c4.6,0,16.7,9.1,18.9,14.1c4.5,10.5,2.3,24.2-5.1,31.9c-2.6,2.7-9.2,7.1-10.6,7.1c-0.5,0-1.1,0.3-1.3,0.6c-0.2,0.4-1.2,0.6-2.2,0.6
		c-1,0-2,0.3-2.4,0.6c-2.7,2.5-38.9,2.6-41.5,0c-0.3-0.3-1.6-0.6-2.9-0.6c-3,0-3.8-0.9-3.8-4.1c0-3-0.3-2.9-0.9,0.2
		c-0.6,3.3-0.1,3.7,8.3,5.5c16.7,3.7,37.7,2.3,49.3-3.3c21-10.1,22.2-40.7,1.9-50.5C264.3,232.3,261.3,231.3,262.1,232.6
		 M98.6,245.3c0,0.8,0.3,1.4,0.6,1.4c0.8,0,0.8-0.7,0-1.9C98.7,244,98.6,244.1,98.6,245.3 M235.5,245.7c0,0.2,1.7,0.8,3.7,1.3
		c19.2,5.3,23.8,8.1,23.8,14.4c0,4.6-3.6,7.5-11.5,9.2l-4.2,0.9l3,0.1c1.7,0,3.2-0.2,3.4-0.6c0.2-0.4,1-0.6,1.6-0.6
		c3.6,0,8.3-4.9,8.3-8.6c0-6.2-4.7-10.1-16-13.1c-1.6-0.4-3.5-1-4.4-1.4c-0.8-0.3-2.2-0.6-3-0.6c-0.8,0-1.7-0.3-1.9-0.6
		C238,245.4,235.5,245.2,235.5,245.7 M48.1,252.4c-1.2,3.4-0.6,4,3,2.9c1.6-0.5,5.7-1.3,9.1-1.8c5.4-0.7,5.7-0.8,2.6-0.9
		c-3-0.1-6.2,0.5-13.3,2.2c-1.6,0.4-1.8,0.1-0.8-1.8c0.4-0.7,0.6-1.6,0.4-2C49,250.6,48.5,251.2,48.1,252.4 M69.1,253
		c1.2,0.2,2.4,0.8,2.6,1.4c0.2,0.5,0.8,1.6,1.2,2.4c1.6,3.1,1,4.6-1.8,4.6c-1.4,0-3.2,0.3-4,0.6c-0.8,0.3-2.6,0.9-4,1.4
		c-3.4,1.1-9.5,4-9.8,4.6c-0.1,0.3-0.5,0.5-0.8,0.5c-2.8,0-13.1,10.1-15.6,15.3l-1.9,3.8l-10.7,0c-11.8,0-11,0.3-9.3-3.8
		c0.4-0.9,0.9-2.2,1.2-2.9c0.6-1.7,5.1-13,5.9-15c0.4-0.9,0.9-2.1,1.2-2.7c0.3-0.6,0.6-1.6,0.6-2.1s0.3-1.5,0.6-2.1
		c1.6-3.2,2.1-4.6,1.9-5.2c-0.1-0.4-1.8,3.2-3.7,8.1c-1.9,4.9-4.8,12.5-6.6,17.1c-1.9,5-3,8.5-2.6,8.8c0.3,0.3,5.4,0.5,11.4,0.4
		l10.8-0.2l1.8-3.6c5.4-10.9,21.5-21,35.7-22.4c3.7-0.4,0.2-9.5-3.7-9.4l-2.4,0.1L69.1,253 M214.1,267.4c-0.9,2.5-1.6,7-1.5,10.1
		c0.1,4.1,0.2,3.6,1.2-4c0.7-5.5,2-7.3,3.5-5c0.2,0.4,1.1,0.6,1.9,0.6c0.8,0,1.7,0.3,1.9,0.6c0.2,0.4,1.5,0.6,2.8,0.6
		c2.1,0,1.9-0.2-1.8-1.2c-2.3-0.6-5-1.5-5.9-1.9C214.8,266.7,214.3,266.8,214.1,267.4 M226.9,271c0.2,0.4,2,0.7,4,0.7
		c4.5,0,4.2-0.3-0.7-0.9C227.7,270.5,226.6,270.6,226.9,271 M541.1,287.7L529,288l12,0.1c7.4,0.1,12.1-0.1,12.4-0.5
		c0.2-0.4,0.3-0.6,0.2-0.5C553.4,287.3,547.8,287.5,541.1,287.7"/>
</g>
</svg>
