<?xml version="1.0" encoding="utf-8"?>
<!-- Generator: Adobe Illustrator 21.1.0, SVG Export Plug-In . SVG Version: 6.00 Build 0)  -->
<svg version="1.1" baseProfile="tiny" xmlns="http://www.w3.org/2000/svg" xmlns:xlink="http://www.w3.org/1999/xlink" x="0px"
	 y="0px" viewBox="0 0 640 480" overflow="scroll" xml:space="preserve">
<g id="Layer_3">
	<g>
		<path fill="#2244B5" d="M43.5,269.5l-16.6,51H5l55.4-162.3h25l55.4,162.3h-22.4l-17.3-51H43.5z M96.7,253.1l-15.9-46.7
			c-3.6-10.6-6-20.2-8.4-29.6h-0.7c-2.2,9.6-4.8,19.5-7.9,29.4l-15.9,46.9H96.7z"/>
		<path fill="#2244B5" d="M163.2,149.6h20.9v170.9h-20.9V149.6z"/>
		<path fill="#2244B5" d="M245.3,170.5v33.7h30.3v15.9h-30.3V283c0,14.4,4.1,22.6,15.9,22.6c5.5,0,9.4-0.7,12.3-1.4l1,15.9
			c-4.1,1.9-10.6,3.1-19,3.1c-9.6,0-17.8-3.4-22.9-8.9c-5.5-6.7-7.9-16.9-7.9-30.6v-63.6h-18.1v-15.9h18.1v-28.2L245.3,170.5z"/>
		<path fill="#2244B5" d="M381.3,292.6c0,10.1,0.5,20,1.7,27.9h-19l-1.9-14.7h-0.5c-6.5,8.9-19,17.3-35.6,17.3
			c-23.4,0-35.6-16.9-35.6-33.5c0-28.2,25-43.6,70.1-43.1V244c0-9.6-2.9-27-26.5-27c-10.8,0-22.4,3.4-30.3,8.7l-4.8-14
			c9.6-6.3,23.8-10.1,38.3-10.1c35.6,0,44.3,24.3,44.3,47.7V292.6z M360.8,261.3c-23.1-0.7-49.4,3.4-49.4,26c0,14,9.4,20.2,20,20.2
			c15.4,0,24.8-9.6,28.4-19.5c0.5-2.4,1-4.6,1-6.7V261.3z"/>
		<path fill="#2244B5" d="M415.5,149.6h20.9v73.2h0.5c7.5-13,20.9-21.2,39.7-21.2c28.9,0,49.4,24.1,49.4,59.2
			c0,41.7-26.7,62.4-52.5,62.4c-16.9,0-30.3-6.5-39.2-21.7h-0.5l-1,19h-18.3c0.5-7.9,1-19.7,1-29.9V149.6z M436.4,273.8
			c0,2.6,0.2,5.3,1,7.7c4.1,14.9,16.6,24.8,31.8,24.8c22.4,0,35.4-18.1,35.4-44.8c0-23.4-12-43.3-34.9-43.3c-14.2,0-27.7,9.9-32,26
			c-0.5,2.6-1.2,5.3-1.2,8.7V273.8z"/>
		<path fill="#2244B5" d="M634.6,292.6c0,10.1,0.5,20,1.7,27.9h-19l-1.9-14.7h-0.5c-6.5,8.9-19,17.3-35.6,17.3
			c-23.4,0-35.6-16.9-35.6-33.5c0-28.2,25-43.6,70.1-43.1V244c0-9.6-2.9-27-26.5-27c-10.8,0-22.4,3.4-30.3,8.7l-4.8-14
			c9.6-6.3,23.8-10.1,38.3-10.1c35.6,0,44.3,24.3,44.3,47.7V292.6z M614.1,261.3c-23.1-0.7-49.4,3.4-49.4,26c0,14,9.4,20.2,20,20.2
			c15.4,0,24.8-9.6,28.4-19.5c0.5-2.4,1-4.6,1-6.7V261.3z"/>
	</g>
</g>
<g id="Layer_2">
</g>
</svg>
