<?xml version="1.0" encoding="utf-8"?>
<!-- Generator: Adobe Illustrator 22.1.0, SVG Export Plug-In . SVG Version: 6.00 Build 0)  -->
<svg version="1.1" id="Layer_1" xmlns="http://www.w3.org/2000/svg" xmlns:xlink="http://www.w3.org/1999/xlink" x="0px" y="0px"
	 viewBox="0 0 1920 1080" style="enable-background:new 0 0 1920 1080;" xml:space="preserve">
<style type="text/css">
	.st0{fill:#00202F;}
</style>
<g>
	<g>
		<path class="st0" d="M873.7,755.5c-30.6,0-56.7,0-85.3,0c10.5-55.4,20.7-109.2,30.8-163c5.9-31.2,12.9-62.2,16.8-93.7
			c4.2-33.2-6-43.9-39.1-45.7c-12.3-0.7-24.6-0.1-39.1-0.1c-19.3,101-38.5,201.1-57.8,302.4c-27.6,0-54.4,0-85,0
			c19-100.5,37.7-199.7,56.8-300.9c-29.3,0-57.3,0-87,0c-19.1,99.6-38.1,199.1-57.5,300.4c-26.7,0-53.4,0-84.1,0
			c5.3-28,10.4-55.6,15.6-83.2c16.6-87.5,33.7-174.9,49.5-262.5c2.9-16,7.9-21.7,24.9-21.6c92.2,0.9,184.5,0,276.7,0.8
			c17.5,0.2,35.6,3.4,52.3,8.7c41.4,13.3,66,46.1,59.5,88.4C908.1,575.7,890.1,665.2,873.7,755.5z"/>
		<path class="st0" d="M168.5,452.6c4.3-22.7,8-42.3,11.6-61c62.7,0,124.9-4.8,185.9,1.4c59.6,6.1,87,50.5,77.1,110.4
			c-8,48.1-17.2,96-27,143.7c-14.4,69.7-50.3,103.9-122,108.9c-40.4,2.8-82.3,1.5-121.8-6.3c-44.6-8.8-67.3-50.9-60.3-96.1
			c0.6-3.8,1.4-7.6,2-11.4c12.4-91.4,51.9-127,144.3-129.2c24.8-0.6,49.6-0.6,74.4,0c14.1,0.3,25.6,0.4,27.7-18.4
			c2.1-18.6-1.3-33.3-20.9-37.9c-13.4-3.1-27.5-3.8-41.4-3.9C256.2,452.3,214.4,452.6,168.5,452.6z M345.7,573.8
			c-38.7,0-73.3-1.9-107.6,1.1c-11.1,1-26.1,13.1-30.3,23.7c-8.1,20.3-11.6,43.1-13.1,65.1c-0.6,8.2,9.2,24.4,14.9,24.6
			c31.8,1.5,63.9,0.3,95.6-2.6c6.7-0.6,15.7-11.5,18-19.3C331.7,636.4,338.1,605.6,345.7,573.8z"/>
		<path class="st0" d="M1352.3,761.2c-16.9-1.6-33.9-2.4-50.7-4.9c-59.2-8.7-86.4-44.8-77.1-104.4c6.5-42,15-83.8,23.2-125.5
			c18.9-95,61.8-133.7,159.3-139.9c28.2-1.8,57.5,0.3,85,6.4c49.5,10.8,75.7,47.3,68.6,97.5c-7.9,55.8-18.1,111.6-32.2,166.2
			c-16.5,64.2-63.3,95.9-141.2,102.6c-11.5,1-23.2,0.1-34.8,0.1C1352.4,759.8,1352.3,760.5,1352.3,761.2z M1421.9,451.4
			c-35.7,0-69.3-0.2-78.3,35.3c-14.1,56-23.1,113.3-32.9,170.2c-3.3,19,8,32.3,26.7,33.9c22.9,1.9,46.8,3.8,68.8-1.3
			c13.3-3.1,30.9-17.4,34-29.8c13.8-56.1,24.4-113.1,33.4-170.2c3.6-22.9-8.6-33.8-31.8-36.9
			C1433.4,451.7,1424.8,451.6,1421.9,451.4z"/>
		<path class="st0" d="M1193,690.5c-1.7,66.3-1.7,66.9-62.1,66c-40.9-0.6-82.4,0.4-122.6-6c-45.4-7.2-71.3-38.9-65.5-84.3
			c8.7-67.3,21.7-134.5,39.2-200c12.7-47.6,50.9-74.1,100.5-76.5c52.5-2.5,105.1-0.6,160.2-0.6c-4,21.3-7.8,41.5-12,64
			c-38.8,0-76.7-0.5-114.5,0.1c-38,0.7-54,14.1-61,50.3c-8.8,45.6-17.4,91.3-25.7,137c-6.3,34.9,5.5,49.4,41.4,49.8
			C1111,690.8,1151.2,690.5,1193,690.5z"/>
		<path class="st0" d="M1853.9,388.6c-4.5,22.7-8.5,43-12.6,64c-28.1,0-54.4-0.2-80.7,0c-43.4,0.3-60.9,13.6-69.4,55.8
			c-15.7,78.2-30.4,156.6-45.5,234.9c-0.7,3.7-1.5,7.3-2.5,12.1c-27.7,0-54.4,0-83.9,0c9.2-49.6,18-98.1,27.2-146.5
			c6.5-34.2,12.7-68.6,20.5-102.5c16-69.7,64.2-112.4,134.8-117.4C1778,386.4,1814.5,388.6,1853.9,388.6z"/>
	</g>
</g>
</svg>
