<?xml version="1.0" encoding="utf-8"?>
<!-- Generator: Adobe Illustrator 20.1.0, SVG Export Plug-In . SVG Version: 6.00 Build 0)  -->
<svg version="1.1" id="Layer_1" xmlns="http://www.w3.org/2000/svg" xmlns:xlink="http://www.w3.org/1999/xlink" x="0px" y="0px"
	 viewBox="0 0 640 480" style="enable-background:new 0 0 640 480;" xml:space="preserve">
<style type="text/css">
	.st0{fill:url(#SVGID_1_);}
	.st1{fill:#FFFFFF;}
</style>
<g>
	
		<radialGradient id="SVGID_1_" cx="164.2613" cy="397.7398" r="447.5951" gradientTransform="matrix(1 0 0 -1 0 482)" gradientUnits="userSpaceOnUse">
		<stop  offset="0" style="stop-color:#9DD5F6"/>
		<stop  offset="7.110000e-02" style="stop-color:#98D3F5"/>
		<stop  offset="0.1575" style="stop-color:#89CEF3"/>
		<stop  offset="0.2516" style="stop-color:#70C6EF"/>
		<stop  offset="0.3514" style="stop-color:#4EBBEA"/>
		<stop  offset="0.4546" style="stop-color:#23ADE3"/>
		<stop  offset="0.5" style="stop-color:#0DA6E0"/>
		<stop  offset="1" style="stop-color:#2E77BC"/>
	</radialGradient>
	<path class="st0" d="M557.1,0.7h-477v478.7h477v-158c1.9-2.7,2.8-6.2,2.8-10.5c0-4.9-0.9-7.9-2.8-10.5"/>
	<path class="st1" d="M123.1,207.8l-9.2-22.4l-9.1,22.4 M325.2,198.9c-1.8,1.1-4,1.2-6.6,1.2h-16.3v-12.5h16.5c2.3,0,4.8,0.1,6.4,1
		c1.7,0.8,2.8,2.6,2.8,5C328,196,327,198,325.2,198.9z M441.4,207.8l-9.3-22.4l-9.2,22.4H441.4z M224.8,232h-13.7l-0.1-43.9
		L191.6,232h-11.8l-19.5-44v44h-27.3l-5.2-12.5H100L94.8,232H80.3l24-56.1h19.9L147,229v-53.1h21.9l17.5,38l16.1-38h22.3L224.8,232
		L224.8,232z M279.6,232h-44.8v-56.1h44.8v11.7h-31.4v10.1h30.6v11.5h-30.6v11.2h31.4V232z M342.8,191c0,8.9-6,13.6-9.4,14.9
		c2.9,1.1,5.4,3.1,6.6,4.7c1.9,2.8,2.2,5.3,2.2,10.3v11h-13.5l-0.1-7.1c0-3.4,0.3-8.2-2.1-10.9c-2-2-4.9-2.4-9.8-2.4h-14.4V232
		h-13.4v-56.1h30.8c6.9,0,11.9,0.2,16.2,2.7C340.2,181.1,342.8,184.8,342.8,191z M364.2,232h-13.7v-56.1h13.7V232z M522.9,232h-19
		l-25.4-42.1V232h-27.3l-5.2-12.5h-27.8l-5.1,12.5h-15.7c-6.5,0-14.8-1.4-19.4-6.2c-4.7-4.8-7.2-11.2-7.2-21.4
		c0-8.3,1.5-15.9,7.2-21.9c4.3-4.5,11.1-6.5,20.4-6.5h13v12h-12.7c-4.9,0-7.7,0.7-10.3,3.3c-2.3,2.4-3.9,6.8-3.9,12.7
		c0,6,1.2,10.3,3.7,13.2c2.1,2.2,5.8,2.9,9.3,2.9h6l18.9-44.1h20.1l22.7,53.1v-53.1h20.4l23.6,39.1v-39.1h13.7L522.9,232L522.9,232z
		 M80.1,243H103l5.2-12.5h11.6l5.2,12.5H170v-9.5l4,9.6h23.4l4-9.7v9.7h112l-0.1-20.4h2.2c1.5,0.1,2,0.2,2,2.7V243h57.9v-4.8
		c4.7,2.5,11.9,4.8,21.5,4.8h24.4l5.2-12.5h11.6l5.1,12.5h47v-11.8l7.1,11.8h37.6v-78.2h-37.2v9.2l-5.2-9.2h-38.2v9.2l-4.8-9.2
		h-51.6c-8.6,0-16.2,1.2-22.4,4.6v-4.6h-35.6v4.6c-3.9-3.5-9.2-4.6-15.1-4.6H194.5l-8.7,20.2l-9-20.2h-41v9.2l-4.5-9.2h-35L80.1,202
		L80.1,243L80.1,243z"/>
	<path class="st1" d="M557.1,284.4h-24.4c-2.4,0-4.1,0.1-5.4,1c-1.4,0.9-2,2.3-2,4c0,2.1,1.2,3.6,2.9,4.2c1.4,0.5,2.9,0.6,5.2,0.6
		l7.3,0.2c7.3,0.2,12.2,1.4,15.2,4.5c0.5,0.4,0.9,0.9,1.2,1.4 M557.1,321.4c-3.3,4.8-9.6,7.2-18.2,7.2H513v-12h25.8
		c2.6,0,4.3-0.3,5.4-1.4c0.9-0.9,1.6-2.1,1.6-3.7c0-1.6-0.7-2.9-1.6-3.7c-1-0.9-2.4-1.2-4.7-1.2c-12.6-0.4-28.3,0.4-28.3-17.4
		c0-8.1,5.2-16.7,19.2-16.7h26.7v-11.2h-24.8c-7.5,0-12.9,1.8-16.8,4.6v-4.6h-36.7c-5.9,0-12.8,1.5-16,4.6v-4.6h-65.5v4.6
		c-5.2-3.8-14-4.6-18.1-4.6h-43.2v4.6c-4.1-4-13.3-4.6-18.9-4.6h-48.4l-11.1,12l-10.4-12h-72.3v78.3h70.9l11.4-12.2l10.7,12.2
		l43.7,0v-18.4h4.3c5.8,0.1,12.6-0.1,18.7-2.8v21.1h36.1v-20.4h1.7c2.2,0,2.4,0.1,2.4,2.3v18.1h109.5c7,0,14.2-1.8,18.2-5v5h34.7
		c7.2,0,14.3-1,19.7-3.6L557.1,321.4L557.1,321.4z M503.6,299c2.6,2.7,4,6.1,4,11.9c0,12.1-7.5,17.7-21.1,17.7h-26.1v-12h26
		c2.5,0,4.3-0.3,5.5-1.4c0.9-0.9,1.6-2.1,1.6-3.7c0-1.6-0.7-2.9-1.6-3.7c-1-0.9-2.4-1.2-4.8-1.2c-12.5-0.4-28.2,0.4-28.2-17.4
		c0-8.1,5.1-16.7,19.2-16.7h26.9v11.9h-24.6c-2.4,0-4,0.1-5.4,1c-1.5,0.9-2,2.3-2,4c0,2.1,1.2,3.6,2.9,4.2c1.4,0.5,2.9,0.6,5.2,0.6
		l7.2,0.2C495.6,294.6,500.6,295.9,503.6,299z M382.6,295.5c-1.8,1.1-4,1.2-6.6,1.2h-16.3V284h16.5c2.4,0,4.8,0.1,6.4,1
		c1.7,0.9,2.8,2.6,2.8,5S384.4,294.4,382.6,295.5z M390.7,302.5c3,1.1,5.4,3.1,6.6,4.7c1.9,2.7,2.2,5.3,2.2,10.2v11.1H386v-7
		c0-3.4,0.3-8.4-2.2-11c-2-2-4.9-2.5-9.8-2.5h-14.3v20.5h-13.5v-56.1h31c6.8,0,11.7,0.3,16.1,2.6c4.2,2.6,6.9,6.1,6.9,12.5
		C400.2,296.5,394.2,301.1,390.7,302.5z M407.7,272.4h44.7V284H421v10.2h30.6v11.4H421v11.2l31.4,0.1v11.6h-44.7V272.4z
		 M317.2,298.3h-17.3V284h17.5c4.8,0,8.2,2,8.2,6.9C325.6,295.8,322.4,298.3,317.2,298.3z M286.5,323.4l-20.6-22.9l20.6-22.1V323.4z
		 M233.4,316.9h-33v-11.2h29.4v-11.4h-29.4V284H234l14.7,16.3L233.4,316.9z M340,290.9c0,15.6-11.6,18.8-23.3,18.8h-16.7v18.8h-26.1
		L257.3,310l-17.2,18.6h-53.1v-56.1H241l16.5,18.4l17.1-18.4h42.8C328,272.4,340,275.4,340,290.9z"/>
</g>
</svg>
