<?xml version="1.0" encoding="utf-8"?>
<!-- Generator: Adobe Illustrator 22.1.0, SVG Export Plug-In . SVG Version: 6.00 Build 0)  -->
<svg version="1.1" id="Layer_2_1_" xmlns="http://www.w3.org/2000/svg" xmlns:xlink="http://www.w3.org/1999/xlink" x="0px" y="0px"
	 viewBox="0 0 640 480" style="enable-background:new 0 0 640 480;" xml:space="preserve">
<style type="text/css">
	.st0{fill:#02518A;}
</style>
<g>
	<g>
		<path class="st0" d="M559.5,232.1c0,5.1,0,9.9,0,15c0,0.7-0.4,1.5-0.4,1.8c-0.7,8.4-1.1,17.3-2.6,25.7
			c-3.3,25.3-11,49.2-22.8,71.9c-26.4,52.1-66.8,89.9-120.4,113.1c-26.1,11.4-53.6,17.6-82.2,18.7c-1.1,0-2.6,0.4-3.7,0.7
			c-5.1,0-9.9,0-15,0c-0.7,0-1.5-0.4-2.2-0.4c-9.2-0.7-18-1.1-27.2-2.6c-25.3-3.7-49.6-11.7-72.7-23.5
			c-49.9-26.1-86.6-65-109.7-116.7c-11-24.2-17.3-49.6-19.1-76.3c-0.4-2.9-0.7-6.2-1.1-9.2c0-7,0-14.3,0-21.3c0-0.7,0.4-1.1,0.4-1.8
			c0.7-8.4,1.5-16.9,2.6-25.3c4-25,11.7-49.2,23.5-71.6c28.6-54.3,71.6-92.5,129.2-114.5C256.7,7.8,278,3.4,300,1.6
			c2.9-0.4,5.9-0.7,8.8-0.7c7,0,14.3,0,21.3,0c0.7,0,1.5,0.4,2.2,0.4c6.2,0.4,12.5,0.7,18.4,1.5c27.2,3.7,53.2,11.4,77.8,24.2
			c57.3,30.1,96.9,76,117.8,137.3c6.6,18.7,10.3,37.8,11.4,57.6C558.8,225.5,559.1,228.8,559.5,232.1z M298.5,121.3l-0.4-0.4
			c-0.4,0-1.1,0.4-1.5,0.4c-4.8,1.8-9.5,3.3-13.9,5.5c-5.1,2.2-9.9,4.8-15,7.3c-3.3,1.8-5.1,4.8-5.5,8.4c-0.4,5.9,0.4,11.4,2.2,17.6
			c1.8-2.9,2.2-6.2,1.8-9.5c-0.4-2.2-0.4-4-0.4-6.2c0-2.9,1.5-5.1,4-6.6c2.2-1.1,4.8-1.8,7-1.8c8.8,0,17.3,0.7,26.1,1.1
			c3.7,0.4,7.7,1.1,11.4,1.5c0,0.4,0,0.4,0,0.7c-1.8,1.1-3.3,2.6-5.1,3.7c-2.9,1.5-5.9,2.6-8.8,4c-0.7,0.4-1.8,1.5-1.8,2.2
			s1.1,1.8,2.2,2.2c1.1,0.7,2.6,0.7,4,1.1c-8.8,7-13.9,16.5-18,26.4c-2.9,6.6,1.1,11.7,8.1,12.1c1.5,0,2.6,0,3.7,0.4
			c-2.6,7.7-5.1,15-7,22.8c-1.8,7.3-2.9,15-2.6,23.1c4-6.2,8.1-12.5,12.5-18.4c4.4-5.9,10.3-10.6,17.3-13.6
			c-6.6,8.4-7.3,18.4-8.1,29c21.7-15.4,45.1-21.7,71.2-16.9c-0.7,0.4-1.5,0.7-2.2,0.7c-9.2,2.9-16.5,8.1-23.1,14.7
			c-2.2,2.2-4,4.8-4.4,8.1c-0.4,2.2-0.4,4.4,1.5,5.5c1.5,1.1,1.5,2.2,1.5,3.7c0.7,5.5,1.5,10.6,2.2,16.2c0.4,0,0.7,0,0.7,0
			c1.1-1.1,2.2-2.2,3.3-3.7c0.7,7,5.1,12.1,10.6,12.5c0-8.8,2.6-16.5,10.6-22c-0.4,1.1-0.4,1.5-0.7,2.2c-1.8,4.4-2.2,9.2-1.5,13.9
			c1.1,5.9,5.5,9.5,11.4,9.2c1.8,0,3.7-0.7,5.9-1.1c3.7-0.7,7-1.8,10.6-2.2c3.7-0.4,5.9,1.5,7,5.5c1.5,6.2-3.3,13.6-10.3,14.7
			c-0.7,0-1.1,0.4-1.8,0.4c5.1,1.8,9.9,1.1,15-1.1c-1.5,2.2-3.3,4-5.1,5.9c-1.8,1.8-4.4,2.9-6.2,4.8c10.6-1.5,17.6-7.7,23.9-16.2
			c-1.1,9.9-0.7,13.2,2.2,15.8c0-0.4,0-0.7,0.4-1.1c0.4-8.4,4-15,10.3-20.6c1.1-1.1,2.2-1.8,2.9-2.9c5.5-6.6,7.7-14.3,8.1-22.8
			c0-8.1-4.4-13.9-11.4-15.4c-5.5-1.5-9.9,0.7-13.9,4c-3.3,3.3-6.2,6.6-9.5,9.9c-4,4.4-8.4,8.1-14.7,9.5c-4,0.7-7.7,2.2-11.4,2.9
			c-0.7-11,5.5-22.8,14.7-28.3c-0.4,1.8-1.1,3.3-1.5,4.8c-0.4,1.5-1.1,2.9-1.5,4.4c0.4,0,0.4,0,0.7,0.4c4-5.1,9.2-7.3,14.7-10.3
			c4-1.8,8.1-3.7,11.7-6.2c10.3-6.6,13.2-20.2,6.6-29.4c-3.3-4.8-7.7-8.1-12.8-10.3c-1.8-0.7-3.7-0.7-5.9-0.7
			c-1.8,0-3.3,0.4-5.1,0.4c-5.1,0-9.9-5.5-8.8-9.9c7.3,2.2,15,2.6,22.8,1.8c7.7-0.7,15-2.9,22.4-7.3c-1.1-1.5-2.9-2.6-4.4-3.7
			c-8.1-7-17.6-10.6-27.5-13.9c-7-2.6-13.6-5.1-20.6-8.4c-4.4-2.2-4.4-2.9-3.7-7.7c1.1-6.2-0.7-9.5-7-11.4
			c-4.4-1.5-8.8-2.6-12.8-4.4c-8.8-3.3-17.3-7-26.8-8.4c-7.7-1.1-14.7-0.7-20.9,4.8c-2.2,1.8-5.1,2.9-8.1,4c0.7,0.7,2.2,2.2,3.7,3.7
			c-10.6,2.6-20.2-1.1-30.1-3.7C295.2,124.9,296.7,123.1,298.5,121.3z M160.5,335.6c-0.7-1.1-1.1-1.8-1.5-2.6
			c-2.9-5.5-5.9-11-8.4-16.9c-9.9-21.3-15.4-43.7-16.5-67.2c-0.4-7.3,0-15,0-22.4c0-0.7,0-1.8-0.7-1.8c-2.6-0.7-5.1-1.5-8.1-2.2
			c-2.9,20.2-0.7,54,11,84.4c5.9,15.4,13.2,30.1,22.8,43.7c0.4-1.1,0.7-1.5,0.7-1.8c4-9.5,8.8-18.7,15.8-26.8
			c8.4-9.5,18.4-17.3,28.6-24.6c20.2-13.9,33.8-32.7,37.4-57.3c0.4-2.6,0.7-5.5,0.7-8.1c-4,6.2-7.7,12.1-12.5,18
			c-4.4,5.5-10.3,9.9-17.3,12.5c7-9.5,12.5-19.5,16.2-30.5s5.1-22.4,4.4-33.8c-2.9,2.9-5.5,5.5-8.4,8.1c-0.4,0-0.4-0.4-0.7-0.4
			c2.2-4,2.2-8.8,1.8-13.2c-1.1-13.6,2.2-25.3,12.1-35.2c0,0,0.4-0.4,0.4-0.7c-1.8,0-3.3,0-5.5,0c5.5-5.1,8.8-11.4,12.1-17.6
			c1.1-1.5,1.8-3.3,2.9-4.8c5.9-9.9,14.7-15,26.4-15.4c5.5,0,10.6-1.1,16.2-2.2c2.2-0.4,4-1.8,6.2-2.9c-4.4-0.7-8.4-1.5-12.5-2.2
			c0-0.4,0-0.4,0-0.7c7-1.5,13.9-3.3,21.3-4.8c5.9-1.1,12.1-1.8,18-1.8c5.9,0,11.4,2.2,15.8,6.2c5.5,4.8,12.1,4.4,18.7,5.1
			c0-0.4,0-0.7,0-0.7c-0.4-0.4-0.4-0.7-0.7-1.1c-4-6.6-10.3-10.6-18-11.7c-7.7-1.1-15.4-1.8-22.8-2.9c-4.4-0.7-8.8-0.7-13.2,1.1
			c-1.8,0.7-3.3,1.1-5.1,1.8c-9.5,4.8-20.2,6.2-30.8,5.1c-1.5,0-3.3,0-4.8,0v0.4c4,1.5,8.1,2.9,11.7,4.4
			c-10.3,0.4-19.8,2.6-29.4,5.1c-3.3,0.7-6.2,2.6-8.4,5.1c-5.5,5.9-7.7,13.6-10.3,20.9c3.7-5.5,7-10.6,13.6-12.8
			c-2.6,4-5.1,7.7-7.3,12.1c-4.4,9.5-10.3,18.4-16.2,26.8c-6.2,8.8-11.7,18-14.3,28.3c-2.2,8.8-2.6,18-3.7,27.2
			c-1.1,11-4,21.3-11.7,29.7c0,0,0,0.4-0.4,0.7c3.7,1.1,7-0.4,10.3-2.2c-6.6,14.3-18.7,22.8-32.3,29.4c3.7,5.1,13.2,6.2,24.6,3.3
			c-0.4,0.7-0.7,1.5-1.1,2.2c-2.6,3.3-4.8,7-7.3,9.9c-7.7,8.4-14.3,17.6-18,28.6C162.7,329,161.6,332.3,160.5,335.6z M361.7,331.2
			c-5.1,1.5-9.9,2.9-14.3,4.4c-1.5,0.4-2.2,0.4-3.3-0.7c-5.9-6.6-20.2-7-26.4,0.7c-3.3,4-4.8,8.4-5.9,13.2
			c-1.8,12.1-1.8,24.2-0.7,36.3c0.4,4.4,1.1,8.8,2.6,12.8c5.1,13.2,19.8,16.5,30.1,7c0,0,0.4,0,0.7-0.4c0,4,0,8.1,0,11.7
			c0,2.6-0.4,5.5-0.7,8.1c-0.7,4-3.7,6.2-7.7,5.9c-3.7,0-6.6-2.6-7.3-6.2c-0.4-1.1-0.4-2.2-0.7-3.7c-5.5,1.5-10.6,2.9-15.8,4.8
			c-0.4,0-0.7,1.1-0.4,1.8c1.5,7.3,5.5,12.8,12.5,16.2c5.1,2.6,10.6,2.9,16.5,2.2c6.2-0.7,11.7-3.3,15.8-8.1
			c4.8-5.9,5.9-12.8,5.9-19.8c0-27.5,0-55.4,0-83C362,333,361.7,332.3,361.7,331.2z M214.8,409c0,2.2,0,3.3,0,4.8
			c0,0.7,0.7,1.5,1.1,1.5c4.8,0,9.9,0,14.7,0c0-1.1,0-1.8,0-2.6c0-15,0-30.5,0-45.5c0-5.9,0-11.4-0.4-17.3
			c-1.1-10.6-8.1-18-18.4-19.8c-3.3-0.7-7-0.7-10.6-0.4c-11,1.5-20.2,9.2-19.8,22.4c0,1.8,0.4,2.9,2.6,2.6c3.3,0,6.6-0.4,10.3,0
			c2.6,0,3.3-0.4,3.7-2.9c0.4-4.4,3.7-7.3,7.7-7.3s7,2.6,7.7,7c0.4,2.9,0.4,6.2,0.4,9.2c0,1.5-0.4,2.2-2.2,2.2c-3.3,0-6.6,0-9.9,0.4
			c-9.5,1.1-16.9,5.1-20.2,14.7c-3.3,8.8-3.3,17.6,0,26.1c5.1,13.9,22.8,15,29.7,8.4C212.6,411.6,213.4,410.5,214.8,409z
			 M461.1,374.9c-0.7-8.4-0.7-15.4-1.5-22c-0.7-4.4-1.8-8.8-4-12.8c-4-7.7-11-10.3-19.5-10.3c-8.4-0.4-16.5,1.1-21.7,8.8
			c-1.8,2.9-3.7,6.6-4,10.3c-2.9,15.4-2.6,31.2-0.4,46.6c0.7,5.1,2.6,9.9,6.2,13.9c5.1,5.9,12.1,7,19.5,7
			c12.8-0.4,20.6-6.2,22.8-18.7C460,389.6,460.4,381.1,461.1,374.9z M246,415.3c4.8,0,9.2,0,13.6,0c4,0,3.7,0.4,3.7-3.3
			c0-18.7,0-37.1,0-55.8c0-1.5,0-2.9,0.4-4.4c1.1-4,3.7-6.2,8.1-6.2c4,0,6.6,2.6,7.3,6.6c0.4,1.5,0.4,2.9,0.4,4.8
			c0,18.4,0,37.1,0,55.4c0,1.1,0,1.8,0,2.9c5.9,0,11.4,0,17.3,0c0-1.1,0-1.5,0-2.2c0-19.8,0-39.6,0-59.5c0-2.2-0.4-4-0.4-6.2
			c-0.7-7.7-4.8-13.6-12.1-16.2c-7.7-2.6-15-1.8-20.6,4.8c0,0-0.4,0.4-0.7,0.4c0-1.8-0.4-3.3-0.4-5.1c-4.8,1.5-9.2,2.9-13.9,4
			c-1.8,0.4-2.6,1.5-2.6,3.3c0,24.6,0,49.2,0,73.8C246,413.1,246,414.2,246,415.3z M395.8,308.8c-5.5,1.5-10.3,3.3-15.4,4.4
			c-1.8,0.4-2.2,1.1-2.2,2.9c0,31.9,0,64.2,0.4,96.2c0,0.7,0,1.5,0.4,2.2c5.9,0,11.4,0,17.3,0C395.8,379.7,395.8,344.8,395.8,308.8z
			 M480.6,351c26.4-39.3,37.8-81.9,34.1-128.8c-1.5,0.4-2.6,0.7-3.7,1.1c-5.1,1.5-5.1,1.5-4.8,7c1.5,27.5-2.9,54.3-13.6,79.6
			c-4.8,11.7-10.6,22.8-17.6,33.4c-0.4,0.7-0.4,1.8,0,2.2C476.5,347,478.4,348.8,480.6,351z M452,182.9c-1.8,2.6-3.3,5.5-5.5,8.4
			c-3.7,4.8-4.4,9.5-2.6,15c2.6,6.2,1.8,12.5-0.7,18.7c-1.1,2.6-0.4,3.7,1.8,5.9c1.8,1.8,3.7,3.7,5.5,5.9c1.1,1.1,1.8,2.2,2.9,4
			c1.1-2.9,2.2-5.1,2.6-7.3c2.6-12.1,2.6-24.6,1.1-36.7c-0.4-2.9-1.5-5.5-2.6-8.1C454.2,186.2,452.7,184.4,452,182.9z M257.1,79.4
			c-5.1-9.9-9.9-19.5-14.7-29c-4.8,1.5-4.8,1.5-4.8,5.9c0,1.8,0.4,4,0.4,5.9c0,3.7,0,7.7,0,11.7c-1.1-0.7-1.8-1.1-2.6-1.8
			c-4-2.9-7.7-6.2-11.7-9.2c-3.3-2.6-3.7-2.6-7.3,0.4c4.8,9.5,9.5,19.1,14.7,29c1.8-0.7,3.3-1.5,4.8-2.6c-2.9-6.2-5.9-12.1-8.8-17.6
			c4,2.6,8.1,5.5,11.7,8.4c1.1,1.1,2.2,0.4,3.3-0.4c0.7-0.4,1.5-1.5,1.5-2.2c0-3.7,0-7.3,0-10.6c0-1.1,0-1.8,0-2.9h0.4
			c2.9,5.9,5.9,11.4,8.8,17.3C253.7,80.9,255.2,80.1,257.1,79.4z M478,151.7c0.7-1.1,0.7-1.8,1.1-2.6c2.9-6.2,5.9-12.1,9.2-18.4
			c1.5-3.3,1.5-3.7-1.5-7c-9.2,5.5-18.4,11-27.9,16.5c1.1,1.8,1.8,2.9,2.9,4.4c6.2-3.7,12.5-7.3,18.4-10.6c-2.9,7-6.2,13.6-9.5,20.2
			c-1.8,3.7-1.8,3.7,1.1,7c9.2-5.5,18.4-11,27.9-16.5c-1.1-1.8-1.8-2.9-2.9-4.4C490.9,144.4,485,147.7,478,151.7z M438,73.2
			c-4,5.9-8.1,11.7-11.7,17.6c-0.4-2.9-0.4-5.9-0.4-8.4c0-5.1,0-10.6,0-15.8c0-2.2-1.8-2.6-3.3-3.3c-0.4-0.4-1.8,0.7-2.2,1.8
			c-5.1,7.7-10.3,15.4-15.8,23.1c-0.4,0.4-0.7,1.1-1.1,1.8c1.5,1.1,2.9,1.8,4.4,2.9c4-6.2,8.1-12.1,12.1-18c0,7.7,0.4,15,0,22.8
			c0,3.3,1.5,4.8,4.4,5.9c5.9-8.8,12.1-18,18-26.8C440.9,75,439.5,74.3,438,73.2z M307,67.7c4.8,0,9.2,0.4,13.2,0
			c6.6-0.7,9.9-4.4,10.3-11c0-3.7,0-7.3,0-11c-0.4-6.2-4.4-10.3-10.6-10.3c-3.3,0-6.6,0-10.3,0c-2.2,0-2.6,0.7-2.6,2.6
			c0,4.8,0,9.9,0,14.7C307,57.4,307,62.5,307,67.7z M510.3,174.1c0-9.2-6.2-15-13.6-13.2c-4.8,1.1-9.5,2.9-13.9,5.1
			c-4.8,2.2-6.6,8.4-4.8,13.9c2.2,5.5,7,8.8,12.5,7.3c4.8-1.1,9.5-2.9,13.9-4.8C508.8,180.7,510.3,177.1,510.3,174.1z M391.4,47.8
			c-4.4,10.3-8.8,20.2-13.2,30.1c6.6,2.9,12.8,5.5,19.5,8.4c0.7-1.5,1.1-2.9,1.8-4.4c-4.8-2.2-9.5-4-14.3-6.2
			c1.1-2.9,2.6-5.5,3.7-8.4c4,1.8,8.1,3.3,12.1,5.1c2.6-3.7,2.6-4-1.1-5.9c-2.9-1.1-5.9-2.6-8.8-3.7c1.5-2.9,2.6-5.5,3.7-8.1
			c4,1.8,7.7,3.3,11.4,4.8c3.3,1.5,3.3,1.5,4.4-1.8c0-0.4,0-0.7,0.4-1.5C404.2,53.4,397.6,50.8,391.4,47.8z M212.3,82.7
			c-3.7,2.9-7,5.5-10.6,8.1c-1.8-2.6-3.7-4.8-5.5-7c4-3.3,8.1-6.2,12.5-9.5c-1.1-1.5-1.8-2.6-2.9-3.7c-5.5,4.4-11,8.4-16.5,12.8
			c7,8.8,13.6,17.3,20.2,26.1c5.5-4.4,11-8.8,16.5-12.8c-1.1-1.5-2.2-2.6-2.9-3.7c-4.4,3.3-8.1,6.2-12.5,9.5
			c-1.8-2.6-3.7-4.8-5.5-7.3c3.7-2.9,7-5.5,10.6-8.1C214.1,84.9,213.4,83.8,212.3,82.7z M343.3,36.1c-0.4,0.7-0.4,1.1-0.4,1.5
			c-1.5,9.9-3.3,19.5-4.8,29.4c-0.4,1.5,0.7,1.8,1.8,1.8c5.5,0.7,11.4,1.8,16.9,2.9c1.5,0.4,2.2,0,2.2-1.5c0.4-2.2,0-3.3-2.2-3.3
			c-1.1,0-1.8-0.4-2.9-0.4c-3.3-0.7-6.6-1.1-9.9-1.8c0.4-3.3,1.1-5.9,1.5-9.2c4.4,0.7,8.8,1.5,13.2,1.8c0.4-1.8,0.4-3.3,0.7-4.8
			c-4.8-0.7-8.8-1.5-13.2-2.2c0.4-2.9,1.1-5.9,1.5-8.8c4,0.7,7.7,1.1,11.4,1.8c4,0.7,4,0.7,4.8-3.3c0,0,0-0.4-0.4-0.7
			C356.9,38.3,350.3,37.2,343.3,36.1z M261.8,77.2c5.1-0.4,5.5-0.7,5.5-5.1c0-0.4,0-0.7,0-1.1c0-1.5,0.4-1.8,1.8-2.2
			c1.8-0.4,4-1.1,5.9-1.5c4.4-1.1,4.4-1.1,7,2.6c0.4,0.7,1.5,1.5,2.2,1.5c1.5,0,2.9-0.7,4-1.1c0-0.4,0-0.7,0-0.7
			c-6.2-8.8-12.5-17.6-18.7-26.4c-1.1-1.5-2.2-0.7-3.3-0.4c-1.5,0.4-1.8,1.1-1.8,2.6c-0.7,7.3-1.1,14.7-1.8,22.4
			C262.2,70.6,262.2,73.9,261.8,77.2z M135.9,163.1c-4.4,2.6-6.6,6.2-7.3,10.6c-1.1,5.1,1.1,9.5,5.9,11.4c4.8,1.8,8.4,0.4,11.4-4.4
			c1.1-1.8,1.8-3.7,2.9-5.5c1.1-1.8,2.6-2.6,4.8-1.8c1.8,0.7,3.3,1.8,3.3,4c0,1.1,0,1.8-0.4,2.9c-0.7,3.3-2.6,5.9-5.9,7.7
			c0.7,1.5,1.5,2.9,2.2,4.4c5.9-3.3,8.4-8.4,8.8-14.7c0.4-4.8-2.6-8.4-7-9.5c-4.4-1.1-8.1,0.4-10.6,4.8c-1.1,1.8-1.8,3.7-2.9,5.5
			c-1.1,1.5-2.6,2.6-4.4,1.8c-2.2-0.7-3.3-2.2-3.3-4.4c0-2.9,1.1-5.5,3.7-7.7c1.1-0.7,1.5-1.5,0.7-2.6
			C137,164.9,136.7,164.2,135.9,163.1z M464.8,101.8c0-5.1-3.3-9.9-7.7-12.5c-4-2.2-8.4-1.5-11.7,1.8c-2.9,3.3-3.3,7-0.7,11
			c1.1,1.8,2.6,3.7,4,5.5c1.1,1.5,1.1,3.3-0.4,4.8c-1.5,1.5-2.9,2.2-5.1,1.5c-1.1-0.4-1.8-1.1-2.6-1.5c-2.6-2.2-4-4.8-4.4-8.4
			c-1.8,0-3.3,0-4.8,0c-0.4,5.1,3.7,11.4,8.8,13.9c4.8,2.6,8.8,1.8,12.1-2.2c2.9-3.3,2.9-7.3,0-11.7c-1.1-1.8-2.6-3.3-3.7-5.1
			c-1.5-2.9,0-6.2,3.3-6.2c1.5,0,3.3,0.7,4,1.8c1.8,1.8,2.9,4.4,4.8,6.6C462.2,101.8,463.3,101.8,464.8,101.8z M169,151
			c0.4,0,0.4,0,0.7,0c0.4,0,0.7,0,0.7-0.4c5.9-2.2,9.5-6.6,11-12.5c1.1-4.8-0.7-8.1-5.1-10.3c-3.7-1.8-7.3-1.1-10.6,2.2
			c-1.1,1.1-2.6,2.6-3.7,4c-2.2,1.8-4,2.2-5.9,0.7c-1.8-1.5-2.6-4-1.1-6.2c1.5-1.8,2.9-3.7,5.1-5.1c2.6-1.5,1.1-2.9,0.7-4.4
			c-0.4-1.8-1.8-0.7-2.6-0.4c-4,1.8-7,5.1-8.4,9.5c-1.1,4.4,0.4,8.4,4.4,10.6c3.7,2.2,7.7,1.8,11-1.5c1.5-1.5,2.6-2.9,4-4.4
			c1.8-1.8,3.7-2.2,5.5-0.7c1.8,1.5,2.6,3.3,1.5,5.9c-1.5,3.3-3.3,5.5-6.6,7c-1.5,0.4-1.8,1.1-1.5,2.6
			C168.6,149.5,169,150.3,169,151z M177.8,100.7c2.2-2.2,4-4.4,5.9-6.6c-1.1-1.1-2.2-2.2-3.7-3.3c-5.1,5.9-10.3,11.4-15.8,16.9
			c1.5,1.1,2.6,2.2,3.7,3.3c2.2-2.2,4-4.4,5.9-6.2c7,6.2,13.6,12.5,20.6,19.1c1.5-1.5,2.6-2.6,3.7-4
			C191.3,113.6,184.7,107.3,177.8,100.7z M169.3,159.8c-9.5-4.8-19.1-9.5-29-14.3c-0.7,1.8-1.5,3.3-2.2,4.8c0.7,0.4,1.5,0.7,2.2,1.1
			c7.7,3.7,15.4,7.7,23.5,11.4c4,1.8,4,1.8,5.5-2.2C169.3,160.5,169.3,160.2,169.3,159.8z M475.8,108.8c-8.4,7-16.9,13.6-25.7,20.6
			c1.1,1.5,2.2,2.6,3.3,4c8.4-7,16.9-13.6,25.7-20.6C478,111.7,476.9,110.2,475.8,108.8z"/>
		<path class="st0" d="M337.8,166.4c2.2-1.8,3.7-3.7,5.9-4.8c5.1-2.6,10.3-4.4,15.4-6.6c1.5-0.7,2.2,0,2.2,1.5
			c0.4,1.5,0.4,2.9,0.4,4c0,3.7,1.5,5.9,5.1,6.6c1.5,0.4,3.3,0.4,4.4,1.1c1.1,0.4,1.5,1.5,2.2,2.2c-0.7,0.4-1.8,1.5-2.6,1.1
			c-2.2-0.4-4.8-1.1-6.6-2.2c-4.8-2.9-9.5-3.3-14.7-0.7c-2.2,1.1-4.8,1.1-7.3-0.4C341.1,167.9,339.6,167.1,337.8,166.4z"/>
		<path class="st0" d="M363.5,134.8c1.1,1.5,1.5,2.9,2.6,3.7c2.2,1.8,4.8,3.7,7.3,5.5c1.5,1.1,2.6,2.9,3.7,4.4
			c-0.4,0.4-0.4,0.4-0.7,0.7c-0.7-0.7-1.5-1.1-1.8-1.8c-3.3-4.8-8.4-7.3-13.6-9.5c-2.2-1.1-4.8-0.4-7.3-0.7c-1.5,0-2.9,0.4-4,0
			s-1.5-1.5-2.6-2.2c0.7-0.7,1.5-1.8,2.2-1.8c4.4,0,8.4,0.4,12.8,0.7C362,134.1,362.8,134.5,363.5,134.8z"/>
		<path class="st0" d="M344.4,370.5c0,5.1,0,10.6,0,15.8c0,3.3-0.7,6.2-3.7,7.7c-4.8,2.9-10.3,0.7-11.7-5.1c-0.7-4-1.1-8.1-1.1-12.5
			c0-7.7,0.4-15.4,0.7-23.1c0-0.4,0-1.1,0.4-1.5c1.1-4.4,4.4-7,8.1-6.6c4,0.4,7,3.3,7.3,8.1C344.8,358.7,344.4,364.6,344.4,370.5
			L344.4,370.5z"/>
		<path class="st0" d="M214.1,384.4c0,3.3,0,6.2-0.7,9.5c-0.7,4-3.7,7-7.3,7.3c-5.1,0.4-8.8-2.6-9.2-8.4c0-3.3,0-6.6,0.7-9.5
			c1.1-5.5,3.7-7.3,8.8-7.7c7.3-0.4,7.3-0.4,7.3,6.6C213.7,383,213.7,383.7,214.1,384.4C213.7,384.4,214.1,384.4,214.1,384.4z"/>
		<path class="st0" d="M425.5,372.7c0.4-7,1.1-14.3,1.8-21.3c0.4-3.3,2.6-5.5,5.9-6.2c2.9-0.7,5.9,0.4,7.3,2.9
			c1.1,1.8,1.8,4.4,2.2,6.6c1.1,12.8,1.5,25.7-0.4,38.5c-0.7,6.2-5.5,9.2-10.6,7c-2.9-1.1-4.4-3.3-4.4-6.2c-0.4-5.5-0.7-11-1.1-16.5
			c0-1.5,0-3.3,0-4.8C425.9,372.7,425.5,372.7,425.5,372.7z"/>
		<path class="st0" d="M312.1,40.1c2.6,0,5.1-0.4,7.3,0c2.9,0.4,4.8,2.2,5.1,5.5c0.4,4,0.4,7.7,0,11.7c0,3.3-2.6,5.5-5.9,5.9
			c-6.6,0.7-6.6,0.7-6.6-5.9C312.1,51.5,312.1,46,312.1,40.1z"/>
		<path class="st0" d="M498.6,165.7c3.7,0,5.5,1.5,6.6,4.4c0.7,2.6,0.4,5.5-1.8,6.6c-4.8,2.2-9.5,4-14.3,5.1c-2.6,0.7-4.8-1.5-5.9-4
			c-0.7-2.6-0.4-5.1,1.8-6.6C489.4,168.2,494.2,166.8,498.6,165.7z"/>
		<path class="st0" d="M276.9,61.8c-3.3,0.7-5.9,1.5-9.2,2.6c0.4-4.8,0.7-9.2,1.1-13.6h0.4C271.7,54.5,274.3,57.8,276.9,61.8z"/>
	</g>
</g>
</svg>
