<?xml version="1.0" encoding="utf-8"?>
<!-- Generator: Adobe Illustrator 22.1.0, SVG Export Plug-In . SVG Version: 6.00 Build 0)  -->
<svg version="1.1" id="Layer_1" xmlns="http://www.w3.org/2000/svg" xmlns:xlink="http://www.w3.org/1999/xlink" x="0px" y="0px"
	 viewBox="0 0 640 480" style="enable-background:new 0 0 640 480;" xml:space="preserve">
<style type="text/css">
	.st0{filter:url(#Adobe_OpacityMaskFilter);}
	.st1{fill:#FFFFFF;}
	.st2{mask:url(#mask-4_140_);fill:#AD7D2B;}
	.st3{filter:url(#Adobe_OpacityMaskFilter_1_);}
	.st4{mask:url(#mask-4_139_);fill:#F0C166;}
	.st5{filter:url(#Adobe_OpacityMaskFilter_2_);}
	.st6{mask:url(#mask-4_138_);fill:#CA2026;}
	.st7{filter:url(#Adobe_OpacityMaskFilter_3_);}
	.st8{mask:url(#mask-4_137_);fill:#AD7D2B;}
	.st9{filter:url(#Adobe_OpacityMaskFilter_4_);}
	.st10{mask:url(#mask-4_136_);fill:#E5AD22;}
	.st11{filter:url(#Adobe_OpacityMaskFilter_5_);}
	.st12{mask:url(#mask-4_135_);fill:#E5AD22;}
	.st13{filter:url(#Adobe_OpacityMaskFilter_6_);}
	.st14{mask:url(#mask-4_134_);fill:#E5AD22;}
	.st15{filter:url(#Adobe_OpacityMaskFilter_7_);}
	.st16{mask:url(#mask-4_133_);fill:#E5AD22;}
	.st17{filter:url(#Adobe_OpacityMaskFilter_8_);}
	.st18{mask:url(#mask-4_132_);fill:#AE7231;}
	.st19{filter:url(#Adobe_OpacityMaskFilter_9_);}
	.st20{mask:url(#mask-4_131_);fill:#131413;}
	.st21{filter:url(#Adobe_OpacityMaskFilter_10_);}
	.st22{mask:url(#mask-4_130_);fill:#AE7231;}
	.st23{filter:url(#Adobe_OpacityMaskFilter_11_);}
	.st24{mask:url(#mask-4_129_);fill:#221E1F;}
	.st25{filter:url(#Adobe_OpacityMaskFilter_12_);}
	.st26{mask:url(#mask-4_128_);fill:#221E1F;}
	.st27{filter:url(#Adobe_OpacityMaskFilter_13_);}
	.st28{mask:url(#mask-4_127_);fill:#221E1F;}
	.st29{filter:url(#Adobe_OpacityMaskFilter_14_);}
	.st30{mask:url(#mask-4_126_);fill:#221E1F;}
	.st31{filter:url(#Adobe_OpacityMaskFilter_15_);}
	.st32{mask:url(#mask-4_125_);fill:#221E1F;}
	.st33{filter:url(#Adobe_OpacityMaskFilter_16_);}
	.st34{mask:url(#mask-4_124_);fill:#221E1F;}
	.st35{filter:url(#Adobe_OpacityMaskFilter_17_);}
	.st36{mask:url(#mask-4_123_);fill:#221E1F;}
	.st37{filter:url(#Adobe_OpacityMaskFilter_18_);}
	.st38{mask:url(#mask-4_122_);fill:#221E1F;}
	.st39{filter:url(#Adobe_OpacityMaskFilter_19_);}
	.st40{mask:url(#mask-4_121_);fill:#221E1F;}
	.st41{filter:url(#Adobe_OpacityMaskFilter_20_);}
	.st42{mask:url(#mask-4_120_);fill:#221E1F;}
	.st43{filter:url(#Adobe_OpacityMaskFilter_21_);}
	.st44{mask:url(#mask-4_119_);fill:#221E1F;}
	.st45{filter:url(#Adobe_OpacityMaskFilter_22_);}
	.st46{mask:url(#mask-4_118_);fill:#221E1F;}
	.st47{filter:url(#Adobe_OpacityMaskFilter_23_);}
	.st48{mask:url(#mask-4_117_);fill:#131413;}
	.st49{filter:url(#Adobe_OpacityMaskFilter_24_);}
	.st50{mask:url(#mask-4_116_);fill:#AE7231;}
	.st51{filter:url(#Adobe_OpacityMaskFilter_25_);}
	.st52{mask:url(#mask-4_115_);fill:#AD7D2B;}
	.st53{filter:url(#Adobe_OpacityMaskFilter_26_);}
	.st54{mask:url(#mask-4_114_);fill:#AE7D2B;}
	.st55{filter:url(#Adobe_OpacityMaskFilter_27_);}
	.st56{mask:url(#mask-4_113_);fill:#221E1F;}
	.st57{filter:url(#Adobe_OpacityMaskFilter_28_);}
	.st58{mask:url(#mask-4_112_);fill:none;stroke:#221E1F;stroke-width:1.441;stroke-linejoin:round;}
	.st59{filter:url(#Adobe_OpacityMaskFilter_29_);}
	.st60{mask:url(#mask-4_111_);fill:#E5AD22;}
	.st61{filter:url(#Adobe_OpacityMaskFilter_30_);}
	.st62{mask:url(#mask-4_110_);fill:#221E1F;}
	.st63{filter:url(#Adobe_OpacityMaskFilter_31_);}
	.st64{mask:url(#mask-4_109_);fill:#221E1F;}
	.st65{filter:url(#Adobe_OpacityMaskFilter_32_);}
	.st66{mask:url(#mask-4_108_);fill:none;stroke:#221E1F;stroke-width:1.441;stroke-linejoin:round;}
	.st67{filter:url(#Adobe_OpacityMaskFilter_33_);}
	.st68{mask:url(#mask-4_107_);fill:#E5AD22;}
	.st69{filter:url(#Adobe_OpacityMaskFilter_34_);}
	.st70{mask:url(#mask-4_106_);fill:#221E1F;}
	.st71{filter:url(#Adobe_OpacityMaskFilter_35_);}
	.st72{mask:url(#mask-4_105_);fill:#221E1F;}
	.st73{filter:url(#Adobe_OpacityMaskFilter_36_);}
	.st74{mask:url(#mask-4_104_);fill:none;stroke:#221E1F;stroke-width:1.441;stroke-linejoin:round;}
	.st75{filter:url(#Adobe_OpacityMaskFilter_37_);}
	.st76{mask:url(#mask-4_103_);fill:#E5AD22;}
	.st77{filter:url(#Adobe_OpacityMaskFilter_38_);}
	.st78{mask:url(#mask-4_102_);fill:#221E1F;}
	.st79{filter:url(#Adobe_OpacityMaskFilter_39_);}
	.st80{mask:url(#mask-4_101_);fill:#221E1F;}
	.st81{filter:url(#Adobe_OpacityMaskFilter_40_);}
	.st82{mask:url(#mask-4_100_);fill:none;stroke:#221E1F;stroke-width:2.404;stroke-linejoin:round;}
	.st83{filter:url(#Adobe_OpacityMaskFilter_41_);}
	.st84{mask:url(#mask-4_99_);fill:#E5AD22;}
	.st85{filter:url(#Adobe_OpacityMaskFilter_42_);}
	.st86{mask:url(#mask-4_98_);fill:#221E1F;}
	.st87{filter:url(#Adobe_OpacityMaskFilter_43_);}
	.st88{mask:url(#mask-4_97_);fill:#E5AD22;}
	.st89{filter:url(#Adobe_OpacityMaskFilter_44_);}
	.st90{mask:url(#mask-4_96_);fill:#221E1F;}
	.st91{filter:url(#Adobe_OpacityMaskFilter_45_);}
	.st92{mask:url(#mask-4_95_);fill:#AE7231;}
	.st93{filter:url(#Adobe_OpacityMaskFilter_46_);}
	.st94{mask:url(#mask-4_94_);fill:#E5AD22;}
	.st95{filter:url(#Adobe_OpacityMaskFilter_47_);}
	.st96{mask:url(#mask-4_93_);fill:#AD7D2B;}
	.st97{filter:url(#Adobe_OpacityMaskFilter_48_);}
	.st98{mask:url(#mask-4_92_);fill:#131413;}
	.st99{filter:url(#Adobe_OpacityMaskFilter_49_);}
	.st100{mask:url(#mask-4_91_);fill:#E5AD22;}
	.st101{filter:url(#Adobe_OpacityMaskFilter_50_);}
	.st102{mask:url(#mask-4_90_);fill:#221E1F;}
	.st103{filter:url(#Adobe_OpacityMaskFilter_51_);}
	.st104{mask:url(#mask-4_89_);fill:#AD7D2B;}
	.st105{filter:url(#Adobe_OpacityMaskFilter_52_);}
	.st106{mask:url(#mask-4_88_);fill:#AE7231;}
	.st107{filter:url(#Adobe_OpacityMaskFilter_53_);}
	.st108{mask:url(#mask-4_87_);fill:#131413;}
	.st109{filter:url(#Adobe_OpacityMaskFilter_54_);}
	.st110{mask:url(#mask-4_86_);fill:#AD7330;}
	.st111{filter:url(#Adobe_OpacityMaskFilter_55_);}
	.st112{mask:url(#mask-4_85_);fill:#AD7330;}
	.st113{filter:url(#Adobe_OpacityMaskFilter_56_);}
	.st114{mask:url(#mask-4_84_);fill:#ECD59C;}
	.st115{filter:url(#Adobe_OpacityMaskFilter_57_);}
	.st116{mask:url(#mask-4_83_);fill:#221E1F;}
	.st117{filter:url(#Adobe_OpacityMaskFilter_58_);}
	.st118{mask:url(#mask-4_82_);fill:#221E1F;}
	.st119{filter:url(#Adobe_OpacityMaskFilter_59_);}
	.st120{mask:url(#mask-4_81_);fill:#221E1F;}
	.st121{filter:url(#Adobe_OpacityMaskFilter_60_);}
	.st122{mask:url(#mask-4_80_);fill:#221E1F;}
	.st123{filter:url(#Adobe_OpacityMaskFilter_61_);}
	.st124{mask:url(#mask-4_79_);fill:#221E1F;}
	.st125{filter:url(#Adobe_OpacityMaskFilter_62_);}
	.st126{mask:url(#mask-4_78_);fill:#221E1F;}
	.st127{filter:url(#Adobe_OpacityMaskFilter_63_);}
	.st128{mask:url(#mask-4_77_);fill:#221E1F;}
	.st129{filter:url(#Adobe_OpacityMaskFilter_64_);}
	.st130{mask:url(#mask-4_76_);fill:#221E1F;}
	.st131{filter:url(#Adobe_OpacityMaskFilter_65_);}
	.st132{mask:url(#mask-4_75_);fill:#221E1F;}
	.st133{filter:url(#Adobe_OpacityMaskFilter_66_);}
	.st134{mask:url(#mask-4_74_);fill:#221E1F;}
	.st135{filter:url(#Adobe_OpacityMaskFilter_67_);}
	.st136{mask:url(#mask-4_73_);fill:#221E1F;}
	.st137{filter:url(#Adobe_OpacityMaskFilter_68_);}
	.st138{mask:url(#mask-4_72_);fill:#221E1F;}
	.st139{filter:url(#Adobe_OpacityMaskFilter_69_);}
	.st140{mask:url(#mask-4_71_);fill:#231F20;}
</style>
<g>
	<defs>
		<filter id="Adobe_OpacityMaskFilter" filterUnits="userSpaceOnUse" x="91.7" y="68.8" width="459" height="363.9">
			<feColorMatrix  type="matrix" values="1 0 0 0 0  0 1 0 0 0  0 0 1 0 0  0 0 0 1 0"/>
		</filter>
	</defs>
	<mask maskUnits="userSpaceOnUse" x="91.7" y="68.8" width="459" height="363.9" id="mask-4_140_">
		<g class="st0">
			<polygon id="path-3_140_" class="st1" points="-228.4,632.5 844.9,632.5 844.9,0 -228.4,0 			"/>
		</g>
	</mask>
	<path id="Fill-21" class="st2" d="M349.8,270.7h-57.2l28.6-84.6L349.8,270.7z M517.6,399.5c1-2.5,1.5-4.5,2-7
		c2.5-14.5-3.5-28.1-15.5-35.1c-12-6.5-26.6-5-36.6,4c-1,0.5-2,2-3,3c-5-6.5-10-16-13-24.1l-79.7-215.5c7.5-1.5,12.5-5.5,15.5-9.5
		c7-8.5,11.5-23.6,0.5-39.1l5-7.5h-57.6c0,0-0.2,14.3-14,14.8v0c-13.8-0.5-14-14.8-14-14.8h-57.6l5,7.5c-11,15.5-6.5,30.6,0.5,39.1
		c3,4,8,8,15.5,9.5l-79.7,215.5c-3,8-8,17.5-13,24.1c-1-1-2-2.5-3-3c-10-9-24.6-10.5-36.6-4c-12,7-18,20.5-15.5,35.1
		c0.5,2.5,1,4.5,2,7l-33.1,33.1h89.2l0.1-0.1c0.2-7.8,5.7-14.3,13.1-16c0.1,0,0.3-0.1,0.4-0.1l0,0c1-0.2,2.2-0.4,3.5-0.4
		c0.5,0,1.1,0,1.6,0.1c8.4,0.8,15,7.7,15.3,16.2c0.1,0.2,0.2,0.3,0.2,0.3h83.7l4.5-17l-39.6-22c-2.7-1.4-9.1-5.6-10.4-16.9
		c-1.4-11.7,4-23.6,7.9-29.9l59.6-0.1v0h1.1l59.6,0.1c3.9,6.2,9.3,18.1,7.9,29.9c-1.3,11.3-7.7,15.5-10.4,16.9l-39.6,22l4.5,17h83.7
		c0,0,0.1-0.1,0.2-0.3c0.3-8.5,6.9-15.4,15.3-16.2c0.5-0.1,1-0.1,1.6-0.1c1.3,0,2.4,0.1,3.5,0.4h0c0.2,0,0.3,0.1,0.4,0.1
		c7.3,1.7,12.8,8.2,13.1,16l0.1,0.1h89.2L517.6,399.5z"/>
	<defs>
		<filter id="Adobe_OpacityMaskFilter_1_" filterUnits="userSpaceOnUse" x="114" y="68.8" width="414.3" height="354.8">
			<feColorMatrix  type="matrix" values="1 0 0 0 0  0 1 0 0 0  0 0 1 0 0  0 0 0 1 0"/>
		</filter>
	</defs>
	<mask maskUnits="userSpaceOnUse" x="114" y="68.8" width="414.3" height="354.8" id="mask-4_139_">
		<g class="st3">
			<polygon id="path-3_139_" class="st1" points="-228.4,632.5 844.9,632.5 844.9,0 -228.4,0 			"/>
		</g>
	</mask>
	<path id="Fill-23" class="st4" d="M323.5,280.5h-4.6l-39.8-0.2c19.4-56.6,34-100.5,39.9-118.3c0,0,2.2-6.5,2.2-6.5c0,0,0,0,0,0
		l2.1,6.5c5.9,17.8,20.5,61.7,39.9,118.3L323.5,280.5z M506,401.2c2.1-3,3.7-6.5,4.4-10.4c1.9-10.3-2.6-20.4-11.3-25.2
		c-8.6-4.7-18.8-3.7-26.1,2.5c-3.5,3-6,6.9-7.4,11.2c-8.6-6.5-18.3-22.9-23.1-35.9L358.2,115c3.6,1,13.9,4.1,21.8-5.4
		c4.5-5.5,5.5-13.9,2.4-20.5c-1.6-3.4-6.8-11.3-20.5-11.3l-0.8,0l30.6-9h-56.5l0,0.6l6.7,8.3h0c-0.2,0.5-0.4,1-0.6,1.5
		c-3.8,8.7-10.1,13.5-19.9,13.5h-0.1h-0.1c-9.9,0-16.1-4.8-19.9-13.5c-0.2-0.5-0.4-1-0.6-1.5h0l6.7-8.3l0-0.6h-56.5l30.6,9l-0.8,0
		c-13.7,0-18.9,7.9-20.5,11.3c-3.1,6.6-2.1,15,2.4,20.5c7.9,9.5,18.2,6.5,21.8,5.4l-84.3,228.4c-4.7,13-14.4,29.4-23.1,35.9
		c-1.4-4.3-3.8-8.2-7.4-11.2c-7.3-6.3-17.5-7.2-26.1-2.5c-8.6,4.8-13.2,14.9-11.3,25.2c0.7,3.9,2.2,7.4,4.4,10.4L114,423.5h62
		l3.3-6.3c0.2-0.4,5.3-9.8,19-9.8c12.8,0,19,10,19.1,10.1l3.4,6l78.2,0l-39.4-22.1c-8.4-4.7-16.8-11.6-16.9-25.1
		c0.9-13.1,4.6-22.8,11.4-39.6l67,0l67,0c6.7,16.8,10.5,26.5,11.4,39.6c-0.1,13.5-8.5,20.4-16.9,25.1l-39.4,22.1l78.2,0l3.4-6
		c0.1-0.1,6.3-10.1,19.1-10.1c13.7,0,18.8,9.4,19,9.8l3.3,6.3h62L506,401.2z"/>
	<defs>
		<filter id="Adobe_OpacityMaskFilter_2_" filterUnits="userSpaceOnUse" x="140.7" y="89.5" width="360.9" height="322.2">
			<feColorMatrix  type="matrix" values="1 0 0 0 0  0 1 0 0 0  0 0 1 0 0  0 0 0 1 0"/>
		</filter>
	</defs>
	<mask maskUnits="userSpaceOnUse" x="140.7" y="89.5" width="360.9" height="322.2" id="mask-4_138_">
		<g class="st5">
			<polygon id="path-3_138_" class="st1" points="-228.4,632.5 844.9,632.5 844.9,0 -228.4,0 			"/>
		</g>
	</mask>
	<path id="Fill-24" class="st6" d="M302.1,157.7c4-11.5,10-22,19-22s15,10.5,19,22c1,3,27.5,80.5,50,144.1H252.1
		C274.6,238.2,301.1,160.7,302.1,157.7z M489.6,399.7c12.5-2,15-18.5,6-23.6c-10-5.5-21.1,4.5-16.5,17
		c-23.1,6.5-42.1-36.1-45.6-45.6l-82.7-223c-3.5-9-4-16.5,2.5-20c9.5-5,14,4.5,19.5-2.5c2.5-3,3.5-12.5-9-12.5h-12
		c0,0-4.5,15-30.6,15c-26.1,0-30.6-15-30.6-15h-12c-12.5,0-11.5,9.5-9,12.5c5.5,7,10-2.5,19.5,2.5c6.5,3.5,6,11,2.5,20l-82.7,223
		c-3.5,9.5-22.6,52.1-45.6,45.6c4.5-12.5-6.5-22.6-16.5-17c-9,5-6.5,21.5,6,23.6l-12,12h26.1c2-3.5,10.5-16,29.6-16
		c16.5,0,26.6,11.5,29.6,16H252c-11.5-6.5-23.1-20-23.1-35.6c0-8.6,13.8-47.6,15-50.9h154.5c1.2,3.3,15,42.2,15,50.9
		c0,15.5-11.5,29.1-23.1,35.6h26.1c3-4.5,13-16,29.6-16c19,0,27.6,12.5,29.6,16h26.1L489.6,399.7z"/>
	<defs>
		<filter id="Adobe_OpacityMaskFilter_3_" filterUnits="userSpaceOnUse" x="280.3" y="0.5" width="81.6" height="78.1">
			<feColorMatrix  type="matrix" values="1 0 0 0 0  0 1 0 0 0  0 0 1 0 0  0 0 0 1 0"/>
		</filter>
	</defs>
	<mask maskUnits="userSpaceOnUse" x="280.3" y="0.5" width="81.6" height="78.1" id="mask-4_137_">
		<g class="st7">
			<polygon id="path-3_137_" class="st1" points="-228.4,632.5 844.9,632.5 844.9,0 -228.4,0 			"/>
		</g>
	</mask>
	<polygon id="Fill-25" class="st8" points="298.4,78.6 321,63.8 343.8,78.3 341,51.6 361.9,31.5 331.5,29.5 320.4,0.5 310.4,29.5 
		280.3,31.9 303.6,50.6 	"/>
	<defs>
		<filter id="Adobe_OpacityMaskFilter_4_" filterUnits="userSpaceOnUse" x="298.4" y="42.7" width="22.6" height="35.9">
			<feColorMatrix  type="matrix" values="1 0 0 0 0  0 1 0 0 0  0 0 1 0 0  0 0 0 1 0"/>
		</filter>
	</defs>
	<mask maskUnits="userSpaceOnUse" x="298.4" y="42.7" width="22.6" height="35.9" id="mask-4_136_">
		<g class="st9">
			<polygon id="path-3_136_" class="st1" points="-228.4,632.5 844.9,632.5 844.9,0 -228.4,0 			"/>
		</g>
	</mask>
	<polygon id="Fill-26" class="st10" points="298.4,78.6 321,42.7 303.6,50.6 	"/>
	<defs>
		<filter id="Adobe_OpacityMaskFilter_5_" filterUnits="userSpaceOnUse" x="321.6" y="29.2" width="40.9" height="13.2">
			<feColorMatrix  type="matrix" values="1 0 0 0 0  0 1 0 0 0  0 0 1 0 0  0 0 0 1 0"/>
		</filter>
	</defs>
	<mask maskUnits="userSpaceOnUse" x="321.6" y="29.2" width="40.9" height="13.2" id="mask-4_135_">
		<g class="st11">
			<polygon id="path-3_135_" class="st1" points="-228.4,632.5 844.9,632.5 844.9,0 -228.4,0 			"/>
		</g>
	</mask>
	<polygon id="Fill-27" class="st12" points="332.2,29.2 321.6,42.4 362.6,31.3 	"/>
	<defs>
		<filter id="Adobe_OpacityMaskFilter_6_" filterUnits="userSpaceOnUse" x="321" y="42.7" width="22.8" height="35.6">
			<feColorMatrix  type="matrix" values="1 0 0 0 0  0 1 0 0 0  0 0 1 0 0  0 0 0 1 0"/>
		</filter>
	</defs>
	<mask maskUnits="userSpaceOnUse" x="321" y="42.7" width="22.8" height="35.6" id="mask-4_134_">
		<g class="st13">
			<polygon id="path-3_134_" class="st1" points="-228.4,632.5 844.9,632.5 844.9,0 -228.4,0 			"/>
		</g>
	</mask>
	<path id="Fill-28" class="st14" d="M341,51.6c0,0-20-8.4-20-9l22.8,35.6L341,51.6z"/>
	<defs>
		<filter id="Adobe_OpacityMaskFilter_7_" filterUnits="userSpaceOnUse" x="280.9" y="0.2" width="40.7" height="42.2">
			<feColorMatrix  type="matrix" values="1 0 0 0 0  0 1 0 0 0  0 0 1 0 0  0 0 0 1 0"/>
		</filter>
	</defs>
	<mask maskUnits="userSpaceOnUse" x="280.9" y="0.2" width="40.7" height="42.2" id="mask-4_133_">
		<g class="st15">
			<polygon id="path-3_133_" class="st1" points="-228.4,632.5 844.9,632.5 844.9,0 -228.4,0 			"/>
		</g>
	</mask>
	<polygon id="Fill-29" class="st16" points="311.1,29.2 280.9,31.6 321.6,42.4 321.1,0.2 	"/>
	<defs>
		<filter id="Adobe_OpacityMaskFilter_8_" filterUnits="userSpaceOnUse" x="279.8" y="0" width="82.6" height="79">
			<feColorMatrix  type="matrix" values="1 0 0 0 0  0 1 0 0 0  0 0 1 0 0  0 0 0 1 0"/>
		</filter>
	</defs>
	<mask maskUnits="userSpaceOnUse" x="279.8" y="0" width="82.6" height="79" id="mask-4_132_">
		<g class="st17">
			<polygon id="path-3_132_" class="st1" points="-228.4,632.5 844.9,632.5 844.9,0 -228.4,0 			"/>
		</g>
	</mask>
	<path id="Fill-30" class="st18" d="M321,63.3c0.1,0,0.2,0,0.3,0.1L343,77.1l-2.5-25.4c0-0.2,0-0.4,0.2-0.5L360.6,32l-29.1-2
		c-0.2,0-0.4-0.1-0.4-0.3L320.4,1.9l-9.6,27.8c-0.1,0.2-0.2,0.3-0.4,0.3l-29.9,2l23.3,18.2c0.2,0.1,0.2,0.3,0.2,0.5l-4.8,26.6
		l21.5-14C320.7,63.3,320.9,63.3,321,63.3 M343.8,78.8c-0.1,0-0.2,0-0.3-0.1l-22.5-14.3l-22.3,14.6c-0.2,0.1-0.4,0.1-0.6,0
		c-0.2-0.1-0.2-0.3-0.2-0.5l5.1-27.7l-23-18.5c-0.2-0.1-0.2-0.3-0.2-0.5c0.1-0.2,0.2-0.3,0.4-0.3l29.8-2.4L320,0.3
		c0.1-0.2,0.2-0.3,0.4-0.3c0.2,0,0.4,0.1,0.5,0.3l11,28.7l30.1,2c0.2,0,0.4,0.1,0.4,0.3c0.1,0.2,0,0.4-0.1,0.5l-20.7,19.9l2.7,26.4
		c0,0.2,0,0.4-0.2,0.5C343.9,78.7,343.9,78.8,343.8,78.8"/>
	<defs>
		<filter id="Adobe_OpacityMaskFilter_9_" filterUnits="userSpaceOnUse" x="29.8" y="96" width="229.6" height="142.2">
			<feColorMatrix  type="matrix" values="1 0 0 0 0  0 1 0 0 0  0 0 1 0 0  0 0 0 1 0"/>
		</filter>
	</defs>
	<mask maskUnits="userSpaceOnUse" x="29.8" y="96" width="229.6" height="142.2" id="mask-4_131_">
		<g class="st19">
			<polygon id="path-3_131_" class="st1" points="-228.4,632.5 844.9,632.5 844.9,0 -228.4,0 			"/>
		</g>
	</mask>
	<path id="Fill-31" class="st20" d="M259.4,155.2c-3.4-2.1-6.3-5.1-11.9-8c-7.2-4.4-15.4-6.3-23.5-7.6c-2.6-1.6-7.6-5.6-12.5-9.4
		c-5.3-3.9-10.3-7.8-16.2-9.3c-5.6-3.8-9.4-6.5-17.8-7.2c-8.5-4.5-20.1-7.2-30.9-7.2h-0.4c-9-4-19.5-8-31-8.1h-0.6
		c-6-1.5-12.8-2.5-19.5-2.5c-7.2,0-14.3,1-20.3,4.6c-0.5,0.1-1.2,0.3-1.7,0.5c-9-0.1-13.8,3-20.6,6.1l-0.5,0.3l-0.9,0.5
		c-0.9,0.6-5,2.5-9.1,4.7c-3.9,2.3-8.3,4.6-10.7,10c-0.9,1.7-1.5,3.6-1.5,5.7c-0.1,4.3,3,7.6,5.6,8.8c2.6,1.3,5.1,1.7,7.4,1.7h0
		l3,0.2c0.4,0,0.8-0.2,1-0.5l1.3-2.5c1.7-1.9,2.6-2.4,7-3.4c4.3-1.1,10.1-1.7,16.1-1.7c10.7-0.1,22.4,2,27.1,4.3l0.4,0.2l0.4,0.1
		c18.4,5.7,31.6,11.7,45.7,23.8c12.4,10.1,25.9,24,36.2,35.7c2.9,5.5,18.5,34.9,47.7,43.2L259.4,155.2z"/>
	<defs>
		<filter id="Adobe_OpacityMaskFilter_10_" filterUnits="userSpaceOnUse" x="38.6" y="102.9" width="213.2" height="118.2">
			<feColorMatrix  type="matrix" values="1 0 0 0 0  0 1 0 0 0  0 0 1 0 0  0 0 0 1 0"/>
		</filter>
	</defs>
	<mask maskUnits="userSpaceOnUse" x="38.6" y="102.9" width="213.2" height="118.2" id="mask-4_130_">
		<g class="st21">
			<polygon id="path-3_130_" class="st1" points="-228.4,632.5 844.9,632.5 844.9,0 -228.4,0 			"/>
		</g>
	</mask>
	<path id="Fill-32" class="st22" d="M219.6,221.1l7.5-3.4l-2.2-1.2c-27.6-14.9-34.1-37.2-34.1-37.2c5.6,3.7,13.4,14.3,13.4,14.3
		l1.5-2.5c-6.2-8.7-23-27.6-27-32.3c0,3.4,4.2,16.7,10.4,23.2l-6.5-3.6C202,212.5,219.6,221.1,219.6,221.1z M220.7,180.5
		c0,0,10.2,0.9,14.3,4.3c0,0-20.3-23.4-40.4-28.7C197,157.7,216.3,173.4,220.7,180.5z M232.4,204.6l1-2.4
		c-9.3-10-29.9-23.9-33.9-25.2c9,14.6,29.9,34.5,29.9,34.5l0.8-1.8c-2-2-9.9-10.1-12.4-17.3C221.9,194.4,227.5,196.8,232.4,204.6z
		 M197,172.1l7.5,3.8c-0.7-1-3.8-5.2-11-10.9c5,1.7,15.3,8.3,20.3,14.5l3.1,1.3c0,0-4.1-6.5-12.7-13.4c-8.7-6.8-23.8-13.6-28.2-14.2
		C177.5,157.6,190.1,169.9,197,172.1z M154.8,136.8c3.7,4.3,9.5,10.6,12.7,13.8c3.5-0.2,11.4,1.9,11.4,1.9
		C175.1,147.7,160.5,139.8,154.8,136.8z M247.8,168.3c-3.7-3.4-19.5-10.7-23.5-10.4c5.3,1.9,22.6,15.7,22.6,15.7L247.8,168.3z
		 M199.4,155.3c4.6,0.3,11.2,2.3,11.2,2.3c-6.1-7.2-27.7-19.4-27.7-19.4c1.3,2.1,2,4.4,3.7,6.6C194.4,150.3,199.4,155.3,199.4,155.3
		z M246.8,177.9c0,0-19.7-16.2-32.7-17.8c2.8,1.2,22.8,20,24.6,23.6h2.5c-1.2-2.8-3.8-8.3-8.4-12.9c3.7,1.7,10.4,6.7,12.4,10.4v0.1
		L246.8,177.9z M115.5,123.6l5.8,2.1c0,0-0.8-5.4-11.2-9.1L115.5,123.6z M110.1,122.6l-6.4-8.5c-40-7.5-55.4,5-60.6,9.1
		C70.5,110.2,102.8,120.5,110.1,122.6z M81.9,108.6l15.7,0.8C93.1,106.6,85.6,106.6,81.9,108.6z M92.6,106.5
		c30.4,8.1,46.1,26.6,46.1,26.6l2.1,2.1c-2.1-7.7-13.5-15.6-17.2-18.1c-4.8-3.3,13.7,5.4,17.3,9.1l-1.3-3.6
		C131,112.7,98.7,106.5,92.6,106.5z M173.3,126l9.6,7.3l6.7,0.3C183.4,128.4,177.1,126.6,173.3,126z M185.8,191.6
		c-10.6-12-24.3-26.3-37.2-36.8c-14.8-12.7-29-20.8-47.8-26.6c-13.3-6.2-51.5-9.3-57.7,1.5c-3.8,0.1-5.9,0.2-3.5-6
		c2.5-6.1,10.2-8.5,15.4-11.2c8.4-3.8,11.2-2.7,21-2.2c8.3-6.9,25.7-9.2,38-5.9c10.7-0.3,19.9,3,29.1,7.2l2,2.2
		c0,0-14.1-4.8-22.2-4.8c0,0,15.3,5.5,21.4,9c0,0,18.9,11.9,20.4,14.5l0.8-5.6c0,0-5.8-6.4-14.5-9.3l-4.1-2.4c0,0,16.3-1.1,23.5,6.5
		c0,0,9.9-1.2,31.3,13.9c0,0,10.7,0,19.4,8.7c0,0,14.8,0.6,30.2,16c0,0,1.6,3.2-1,4.7l0.3-2.2c-4.9-6.6-19.5-12.6-24.1-12.6
		c18.2,7.5,20.5,15.2,20.5,15.2s-6.8-6.2-14.3-7.9c0,0-4.1-0.3-8.4,0.6c0,0-7.7-16.2-24.3-16.2l7.8,5.8c0,0,7.2,5.2,6.6,6
		c0,0-1.2,2.1-2.3,1.5c0,0-15.6-10.6-30.2-18.3l1.3,5.9c-4.3-2.8-9.4-5.4-14.8-7.4l-4.4-0.8c0,0,16.7,6.1,30.3,20.3
		c0,0-6.3-0.3-7.7,1.2c0,0-10.4-14.2-34.8-22.6l0.6,2.3c0,0,0.1,0.5,0.3,0.7c1.9,5.1,13.1,15.2,13.1,15.2l9.9,6.9
		c0,0,2.5,12.5,2.3,16.2c0,0-15.9-18.8-24.3-25.5c0,0-16.2-15.7-32.5-18.3c0,0,20.6,11.2,25.1,15.7c0,0,25.3,21.4,37.2,39.9
		L185.8,191.6z M228.2,187c5.2,5.2,7.3,10.1,8,12l-0.9,1.8c-1.9-3.7-17.4-18.3-20.2-19.5c13,1.6,24.3,11,24.3,11l-0.6,1.3
		C237.2,191.3,231.4,188.6,228.2,187z"/>
	<defs>
		<filter id="Adobe_OpacityMaskFilter_11_" filterUnits="userSpaceOnUse" x="230.1" y="259.7" width="30.6" height="8.5">
			<feColorMatrix  type="matrix" values="1 0 0 0 0  0 1 0 0 0  0 0 1 0 0  0 0 0 1 0"/>
		</filter>
	</defs>
	<mask maskUnits="userSpaceOnUse" x="230.1" y="259.7" width="30.6" height="8.5" id="mask-4_129_">
		<g class="st23">
			<polygon id="path-3_129_" class="st1" points="-228.4,632.5 844.9,632.5 844.9,0 -228.4,0 			"/>
		</g>
	</mask>
	<path id="Fill-33" class="st24" d="M230.6,262.7c11.5,5.5,30.1,5.5,30.1,5.5v-1c-13-0.5-26.1-5-30.6-7.5L230.6,262.7z"/>
	<defs>
		<filter id="Adobe_OpacityMaskFilter_12_" filterUnits="userSpaceOnUse" x="232.1" y="265.2" width="14.6" height="4.5">
			<feColorMatrix  type="matrix" values="1 0 0 0 0  0 1 0 0 0  0 0 1 0 0  0 0 0 1 0"/>
		</filter>
	</defs>
	<mask maskUnits="userSpaceOnUse" x="232.1" y="265.2" width="14.6" height="4.5" id="mask-4_128_">
		<g class="st25">
			<polygon id="path-3_128_" class="st1" points="-228.4,632.5 844.9,632.5 844.9,0 -228.4,0 			"/>
		</g>
	</mask>
	<path id="Fill-34" class="st26" d="M232.6,266.7c2.5,1,11,3,11,3s6.5,0,0.5-1c-6.5-1.5-12-3.5-12-3.5L232.6,266.7z"/>
	<defs>
		<filter id="Adobe_OpacityMaskFilter_13_" filterUnits="userSpaceOnUse" x="212.6" y="280.8" width="19" height="12.5">
			<feColorMatrix  type="matrix" values="1 0 0 0 0  0 1 0 0 0  0 0 1 0 0  0 0 0 1 0"/>
		</filter>
	</defs>
	<mask maskUnits="userSpaceOnUse" x="212.6" y="280.8" width="19" height="12.5" id="mask-4_127_">
		<g class="st27">
			<polygon id="path-3_127_" class="st1" points="-228.4,632.5 844.9,632.5 844.9,0 -228.4,0 			"/>
		</g>
	</mask>
	<path id="Fill-35" class="st28" d="M231.6,293.3c-3.5-3.5-10-12-17.5-12.5c-2.5,0.5-1.5,2,0.5,3c2.5,1.5,8,1,15,9L231.6,293.3z"/>
	<defs>
		<filter id="Adobe_OpacityMaskFilter_14_" filterUnits="userSpaceOnUse" x="217.8" y="289.7" width="16.1" height="10.2">
			<feColorMatrix  type="matrix" values="1 0 0 0 0  0 1 0 0 0  0 0 1 0 0  0 0 0 1 0"/>
		</filter>
	</defs>
	<mask maskUnits="userSpaceOnUse" x="217.8" y="289.7" width="16.1" height="10.2" id="mask-4_126_">
		<g class="st29">
			<polygon id="path-3_126_" class="st1" points="-228.4,632.5 844.9,632.5 844.9,0 -228.4,0 			"/>
		</g>
	</mask>
	<path id="Fill-36" class="st30" d="M233.6,298.3c-2-3-11-8.5-13.5-8.5c-2.5-0.5-3.5,1.5,0,2.5c3,1,9,6,13,7.5
		C234.6,300.3,233.6,298.3,233.6,298.3"/>
	<defs>
		<filter id="Adobe_OpacityMaskFilter_15_" filterUnits="userSpaceOnUse" x="222.2" y="297.8" width="22.3" height="16.6">
			<feColorMatrix  type="matrix" values="1 0 0 0 0  0 1 0 0 0  0 0 1 0 0  0 0 0 1 0"/>
		</filter>
	</defs>
	<mask maskUnits="userSpaceOnUse" x="222.2" y="297.8" width="22.3" height="16.6" id="mask-4_125_">
		<g class="st31">
			<polygon id="path-3_125_" class="st1" points="-228.4,632.5 844.9,632.5 844.9,0 -228.4,0 			"/>
		</g>
	</mask>
	<path id="Fill-37" class="st32" d="M224.1,300.8c4.5,1.5,14,9,17.5,12c3,2.5,4.5,2,0-1.5c-4.5-3.5-13-12-16-13.5
		C225.6,297.8,219.1,299.8,224.1,300.8"/>
	<defs>
		<filter id="Adobe_OpacityMaskFilter_16_" filterUnits="userSpaceOnUse" x="238" y="298.7" width="17.2" height="11.7">
			<feColorMatrix  type="matrix" values="1 0 0 0 0  0 1 0 0 0  0 0 1 0 0  0 0 0 1 0"/>
		</filter>
	</defs>
	<mask maskUnits="userSpaceOnUse" x="238" y="298.7" width="17.2" height="11.7" id="mask-4_124_">
		<g class="st33">
			<polygon id="path-3_124_" class="st1" points="-228.4,632.5 844.9,632.5 844.9,0 -228.4,0 			"/>
		</g>
	</mask>
	<path id="Fill-38" class="st34" d="M239.2,298.8c-2.5,0-0.5,2,3.5,4.5c4,2.5,10,6,11.5,7c1.5,0.5,1-1.5,1-1.5c-7-3-11-7-12.5-9
		C242.7,299.8,241.7,298.3,239.2,298.8"/>
	<defs>
		<filter id="Adobe_OpacityMaskFilter_17_" filterUnits="userSpaceOnUse" x="242.2" y="307.3" width="21" height="11.6">
			<feColorMatrix  type="matrix" values="1 0 0 0 0  0 1 0 0 0  0 0 1 0 0  0 0 0 1 0"/>
		</filter>
	</defs>
	<mask maskUnits="userSpaceOnUse" x="242.2" y="307.3" width="21" height="11.6" id="mask-4_123_">
		<g class="st35">
			<polygon id="path-3_123_" class="st1" points="-228.4,632.5 844.9,632.5 844.9,0 -228.4,0 			"/>
		</g>
	</mask>
	<path id="Fill-39" class="st36" d="M243.7,310.3c4,2.5,13.5,6.5,17.5,8c4.5,2,0-1.5,0-1.5c-7-2-13-7.5-16-9.5
		C245.2,307.3,239.7,307.8,243.7,310.3"/>
	<defs>
		<filter id="Adobe_OpacityMaskFilter_18_" filterUnits="userSpaceOnUse" x="251.9" y="317.3" width="17" height="7.2">
			<feColorMatrix  type="matrix" values="1 0 0 0 0  0 1 0 0 0  0 0 1 0 0  0 0 0 1 0"/>
		</filter>
	</defs>
	<mask maskUnits="userSpaceOnUse" x="251.9" y="317.3" width="17" height="7.2" id="mask-4_122_">
		<g class="st37">
			<polygon id="path-3_122_" class="st1" points="-228.4,632.5 844.9,632.5 844.9,0 -228.4,0 			"/>
		</g>
	</mask>
	<path id="Fill-40" class="st38" d="M253.2,319.8c2,0.5,10,3.5,12.5,4.5c2.5,0.5,4.5,0,2-1c-2-1.5-11-4.5-14.5-6
		C251.7,317.3,251.2,319.3,253.2,319.8"/>
	<defs>
		<filter id="Adobe_OpacityMaskFilter_19_" filterUnits="userSpaceOnUse" x="266.9" y="316.3" width="13.8" height="5">
			<feColorMatrix  type="matrix" values="1 0 0 0 0  0 1 0 0 0  0 0 1 0 0  0 0 0 1 0"/>
		</filter>
	</defs>
	<mask maskUnits="userSpaceOnUse" x="266.9" y="316.3" width="13.8" height="5" id="mask-4_121_">
		<g class="st39">
			<polygon id="path-3_121_" class="st1" points="-228.4,632.5 844.9,632.5 844.9,0 -228.4,0 			"/>
		</g>
	</mask>
	<path id="Fill-41" class="st40" d="M269.2,318.8c4,0.5,11.5,2.5,11.5,2.5c-2.5-1-11-4-13-5C267.7,316.3,265.2,317.8,269.2,318.8"/>
	<defs>
		<filter id="Adobe_OpacityMaskFilter_20_" filterUnits="userSpaceOnUse" x="259.8" y="307.6" width="8.4" height="4.7">
			<feColorMatrix  type="matrix" values="1 0 0 0 0  0 1 0 0 0  0 0 1 0 0  0 0 0 1 0"/>
		</filter>
	</defs>
	<mask maskUnits="userSpaceOnUse" x="259.8" y="307.6" width="8.4" height="4.7" id="mask-4_120_">
		<g class="st41">
			<polygon id="path-3_120_" class="st1" points="-228.4,632.5 844.9,632.5 844.9,0 -228.4,0 			"/>
		</g>
	</mask>
	<path id="Fill-42" class="st42" d="M268.2,312.3c0,0-2-2.5-5.5-4c-3.5-2-3.5,1-1.5,1.5L268.2,312.3z"/>
	<defs>
		<filter id="Adobe_OpacityMaskFilter_21_" filterUnits="userSpaceOnUse" x="193.6" y="248.2" width="41.6" height="28.6">
			<feColorMatrix  type="matrix" values="1 0 0 0 0  0 1 0 0 0  0 0 1 0 0  0 0 0 1 0"/>
		</filter>
	</defs>
	<mask maskUnits="userSpaceOnUse" x="193.6" y="248.2" width="41.6" height="28.6" id="mask-4_119_">
		<g class="st43">
			<polygon id="path-3_119_" class="st1" points="-228.4,632.5 844.9,632.5 844.9,0 -228.4,0 			"/>
		</g>
	</mask>
	<path id="Fill-43" class="st44" d="M235.1,276.7l-1.5-1.5c-8-1.5-18-9.5-21.1-11.5c-3-2.5-4-4.5-6-5.5c-1.5-1.5-4,0.5-5.5-0.5
		c-1.5-1-1-3-1-3s-1.5,0-3-0.5c-1-0.5-2.5-3.5-3-6c-2.5,8.5,5.5,12.5,5.5,12.5c-2,5.5,0.5,8,4,8.5c3.5,0.5,5-1.5,5-1.5l1,2
		c4-1,10,1,15.5,4C230.6,277.2,235.1,276.7,235.1,276.7"/>
	<defs>
		<filter id="Adobe_OpacityMaskFilter_22_" filterUnits="userSpaceOnUse" x="187.4" y="247.5" width="4.1" height="7.7">
			<feColorMatrix  type="matrix" values="1 0 0 0 0  0 1 0 0 0  0 0 1 0 0  0 0 0 1 0"/>
		</filter>
	</defs>
	<mask maskUnits="userSpaceOnUse" x="187.4" y="247.5" width="4.1" height="7.7" id="mask-4_118_">
		<g class="st45">
			<polygon id="path-3_118_" class="st1" points="-228.4,632.5 844.9,632.5 844.9,0 -228.4,0 			"/>
		</g>
	</mask>
	<path id="Fill-44" class="st46" d="M188,247.7c-2,1.5,1.5,6.5,3.5,7.5c-1.5-2.5-1.5-5-1.5-6C189.5,247.7,188.5,247.2,188,247.7"/>
	<defs>
		<filter id="Adobe_OpacityMaskFilter_23_" filterUnits="userSpaceOnUse" x="225" y="346.7" width="167.2" height="118.8">
			<feColorMatrix  type="matrix" values="1 0 0 0 0  0 1 0 0 0  0 0 1 0 0  0 0 0 1 0"/>
		</filter>
	</defs>
	<mask maskUnits="userSpaceOnUse" x="225" y="346.7" width="167.2" height="118.8" id="mask-4_117_">
		<g class="st47">
			<polygon id="path-3_117_" class="st1" points="-228.4,632.5 844.9,632.5 844.9,0 -228.4,0 			"/>
		</g>
	</mask>
	<path id="Fill-45" class="st48" d="M391.9,377.8c-1.1-6-4.1-18-8.6-31.1h-86.7c-18.5,11-63.2,37.6-71.7,46.1
		c9,3.5,27.1,12,40.1,36.6c15.5,7.5,34.6,24.6,38.6,36.1c10.5-4,78.2-45.2,88.1-80.7C392.3,382.9,392.2,379.8,391.9,377.8"/>
	<defs>
		<filter id="Adobe_OpacityMaskFilter_24_" filterUnits="userSpaceOnUse" x="341.4" y="346.7" width="43.5" height="32.1">
			<feColorMatrix  type="matrix" values="1 0 0 0 0  0 1 0 0 0  0 0 1 0 0  0 0 0 1 0"/>
		</filter>
	</defs>
	<mask maskUnits="userSpaceOnUse" x="341.4" y="346.7" width="43.5" height="32.1" id="mask-4_116_">
		<g class="st49">
			<polygon id="path-3_116_" class="st1" points="-228.4,632.5 844.9,632.5 844.9,0 -228.4,0 			"/>
		</g>
	</mask>
	<path id="Fill-46" class="st50" d="M360.3,360.7c-2-1.5-3.5-2-4.5-5.5c4,2,4.5,1,9,1.5c0.5,0,12,4.5,12,4c-2-2-16-7-18-10
		c1-1,3-0.5,4-0.5c2.2,0,0.5-2.3,0.8-3.5h-22.2c0.5,1.7,0.9,4.7,0.9,7c2.5,5,1,11,4.5,15c4.5,4.5,13.5,8.5,27.1,10
		c-1.5-2-10-5.5-11-7l-4.5-5.5c3,0,23.6,7,26.6,6C380.3,370.3,362.3,364.7,360.3,360.7"/>
	<defs>
		<filter id="Adobe_OpacityMaskFilter_25_" filterUnits="userSpaceOnUse" x="262.5" y="429.4" width="41.1" height="50.6">
			<feColorMatrix  type="matrix" values="1 0 0 0 0  0 1 0 0 0  0 0 1 0 0  0 0 0 1 0"/>
		</filter>
	</defs>
	<mask maskUnits="userSpaceOnUse" x="262.5" y="429.4" width="41.1" height="50.6" id="mask-4_115_">
		<g class="st51">
			<polygon id="path-3_115_" class="st1" points="-228.4,632.5 844.9,632.5 844.9,0 -228.4,0 			"/>
		</g>
	</mask>
	<path id="Fill-47" class="st52" d="M265.1,429.4c15.5,7.5,34.6,24.6,38.6,36.1l-0.5,14.5c-12.5-19.5-32.1-31.1-40.6-32.6
		L265.1,429.4z"/>
	<defs>
		<filter id="Adobe_OpacityMaskFilter_26_" filterUnits="userSpaceOnUse" x="303.1" y="389.8" width="96.2" height="90.2">
			<feColorMatrix  type="matrix" values="1 0 0 0 0  0 1 0 0 0  0 0 1 0 0  0 0 0 1 0"/>
		</filter>
	</defs>
	<mask maskUnits="userSpaceOnUse" x="303.1" y="389.8" width="96.2" height="90.2" id="mask-4_114_">
		<g class="st53">
			<polygon id="path-3_114_" class="st1" points="-228.4,632.5 844.9,632.5 844.9,0 -228.4,0 			"/>
		</g>
	</mask>
	<path id="Fill-48" class="st54" d="M386.8,389.8c-19,31.1-72.7,71.7-83.2,75.7l-0.5,14.5c4-1.5,63.7-32.1,96.2-86.7L386.8,389.8z"
		/>
	<defs>
		<filter id="Adobe_OpacityMaskFilter_27_" filterUnits="userSpaceOnUse" x="341.7" y="416.9" width="22.6" height="18">
			<feColorMatrix  type="matrix" values="1 0 0 0 0  0 1 0 0 0  0 0 1 0 0  0 0 0 1 0"/>
		</filter>
	</defs>
	<mask maskUnits="userSpaceOnUse" x="341.7" y="416.9" width="22.6" height="18" id="mask-4_113_">
		<g class="st55">
			<polygon id="path-3_113_" class="st1" points="-228.4,632.5 844.9,632.5 844.9,0 -228.4,0 			"/>
		</g>
	</mask>
	<path id="Fill-49" class="st56" d="M350.3,418.9l-3.5-2l-5,4l3.5,3c-1.5,1.5-3,3-3.5,4c1.5,1.5,20.5,7,22.6,7
		c1-2.5-10-16.5-11.5-18C352.3,416.9,351.3,417.9,350.3,418.9"/>
	<defs>
		<filter id="Adobe_OpacityMaskFilter_28_" filterUnits="userSpaceOnUse" x="341" y="416.1" width="24.1" height="19.5">
			<feColorMatrix  type="matrix" values="1 0 0 0 0  0 1 0 0 0  0 0 1 0 0  0 0 0 1 0"/>
		</filter>
	</defs>
	<mask maskUnits="userSpaceOnUse" x="341" y="416.1" width="24.1" height="19.5" id="mask-4_112_">
		<g class="st57">
			<polygon id="path-3_112_" class="st1" points="-228.4,632.5 844.9,632.5 844.9,0 -228.4,0 			"/>
		</g>
	</mask>
	<path id="Stroke-50" class="st58" d="M350.3,418.9l-3.5-2l-5,4l3.5,3c-1.5,1.5-3,3-3.5,4c1.5,1.5,20.5,7,22.6,7
		c1-2.5-10-16.5-11.5-18C352.3,416.9,351.3,417.9,350.3,418.9z"/>
	<defs>
		<filter id="Adobe_OpacityMaskFilter_29_" filterUnits="userSpaceOnUse" x="341.7" y="416.9" width="22.6" height="18">
			<feColorMatrix  type="matrix" values="1 0 0 0 0  0 1 0 0 0  0 0 1 0 0  0 0 0 1 0"/>
		</filter>
	</defs>
	<mask maskUnits="userSpaceOnUse" x="341.7" y="416.9" width="22.6" height="18" id="mask-4_111_">
		<g class="st59">
			<polygon id="path-3_111_" class="st1" points="-228.4,632.5 844.9,632.5 844.9,0 -228.4,0 			"/>
		</g>
	</mask>
	<path id="Fill-51" class="st60" d="M350.3,418.9l-3.5-2l-5,4l3.5,3c-1.5,1.5-3,3-3.5,4c1.5,1.5,20.5,7,22.6,7
		c1-2.5-10-16.5-11.5-18C352.3,416.9,351.3,417.9,350.3,418.9"/>
	<defs>
		<filter id="Adobe_OpacityMaskFilter_30_" filterUnits="userSpaceOnUse" x="341" y="416.3" width="23.8" height="19">
			<feColorMatrix  type="matrix" values="1 0 0 0 0  0 1 0 0 0  0 0 1 0 0  0 0 0 1 0"/>
		</filter>
	</defs>
	<mask maskUnits="userSpaceOnUse" x="341" y="416.3" width="23.8" height="19" id="mask-4_110_">
		<g class="st61">
			<polygon id="path-3_110_" class="st1" points="-228.4,632.5 844.9,632.5 844.9,0 -228.4,0 			"/>
		</g>
	</mask>
	<path id="Fill-52" class="st62" d="M342.3,427.8c2.6,1.5,18.4,6.2,21.6,6.6c-0.1-2.8-9.1-14.7-11.3-17c-0.5,0.2-1.4,1.2-2,1.8
		l-0.2,0.2l-3.5-2l-4.3,3.5l3.5,3l-0.3,0.3C344.3,425.5,342.9,426.8,342.3,427.8z M364.6,435.4h-0.3c-1.1,0-6.8-1.5-11.6-3
		c-3.1-0.9-10.3-3.2-11.3-4.2l-0.2-0.2l0.1-0.3c0.5-1,1.8-2.3,3.2-3.8l-3.6-3l5.7-4.5l3.5,2c1.2-1.2,2-1.9,2.6-1.9h0.2l0.1,0.1
		c0.8,0.8,3.9,4.6,6.8,8.7c5.6,8,5.1,9.4,4.9,9.8L364.6,435.4z"/>
	<defs>
		<filter id="Adobe_OpacityMaskFilter_31_" filterUnits="userSpaceOnUse" x="366.8" y="394.3" width="31.1" height="11.5">
			<feColorMatrix  type="matrix" values="1 0 0 0 0  0 1 0 0 0  0 0 1 0 0  0 0 0 1 0"/>
		</filter>
	</defs>
	<mask maskUnits="userSpaceOnUse" x="366.8" y="394.3" width="31.1" height="11.5" id="mask-4_109_">
		<g class="st63">
			<polygon id="path-3_109_" class="st1" points="-228.4,632.5 844.9,632.5 844.9,0 -228.4,0 			"/>
		</g>
	</mask>
	<path id="Fill-53" class="st64" d="M377.8,394.3c0,1-0.5,2.5-1,4.5l-7-2l-3,4l8.5,1c-1,2-1.5,3.5-1.5,3.5c2.5,0,21.6,1,24.1,0
		C395.9,402.8,380.8,395.3,377.8,394.3"/>
	<defs>
		<filter id="Adobe_OpacityMaskFilter_32_" filterUnits="userSpaceOnUse" x="366.1" y="393.6" width="32.5" height="12.9">
			<feColorMatrix  type="matrix" values="1 0 0 0 0  0 1 0 0 0  0 0 1 0 0  0 0 0 1 0"/>
		</filter>
	</defs>
	<mask maskUnits="userSpaceOnUse" x="366.1" y="393.6" width="32.5" height="12.9" id="mask-4_108_">
		<g class="st65">
			<polygon id="path-3_108_" class="st1" points="-228.4,632.5 844.9,632.5 844.9,0 -228.4,0 			"/>
		</g>
	</mask>
	<path id="Stroke-54" class="st66" d="M377.8,394.3c0,1-0.5,2.5-1,4.5l-7-2l-3,4l8.5,1c-1,2-1.5,3.5-1.5,3.5c2.5,0,21.6,1,24.1,0
		C395.9,402.8,380.8,395.3,377.8,394.3z"/>
	<defs>
		<filter id="Adobe_OpacityMaskFilter_33_" filterUnits="userSpaceOnUse" x="366.8" y="394.3" width="31.1" height="11.5">
			<feColorMatrix  type="matrix" values="1 0 0 0 0  0 1 0 0 0  0 0 1 0 0  0 0 0 1 0"/>
		</filter>
	</defs>
	<mask maskUnits="userSpaceOnUse" x="366.8" y="394.3" width="31.1" height="11.5" id="mask-4_107_">
		<g class="st67">
			<polygon id="path-3_107_" class="st1" points="-228.4,632.5 844.9,632.5 844.9,0 -228.4,0 			"/>
		</g>
	</mask>
	<path id="Fill-55" class="st68" d="M377.8,394.3c0,1-0.5,2.5-1,4.5l-7-2l-3,4l8.5,1c-1,2-1.5,3.5-1.5,3.5c2.5,0,21.6,1,24.1,0
		C395.9,402.8,380.8,395.3,377.8,394.3"/>
	<defs>
		<filter id="Adobe_OpacityMaskFilter_34_" filterUnits="userSpaceOnUse" x="366" y="393.7" width="32.7" height="12.6">
			<feColorMatrix  type="matrix" values="1 0 0 0 0  0 1 0 0 0  0 0 1 0 0  0 0 0 1 0"/>
		</filter>
	</defs>
	<mask maskUnits="userSpaceOnUse" x="366" y="393.7" width="32.7" height="12.6" id="mask-4_106_">
		<g class="st69">
			<polygon id="path-3_106_" class="st1" points="-228.4,632.5 844.9,632.5 844.9,0 -228.4,0 			"/>
		</g>
	</mask>
	<path id="Fill-56" class="st70" d="M374.5,404.9c0.7,0,1.8,0.1,3.2,0.1c5.4,0.2,16.1,0.6,19.4,0.1c-3.1-2.7-15-8.7-18.7-10.1
		c-0.1,0.7-0.3,1.5-0.6,2.5c-0.1,0.5-0.3,1-0.4,1.5l-0.1,0.5l-7.2-2l-2.3,3.1l8.4,1l-0.3,0.6C375.1,403.2,374.7,404.3,374.5,404.9
		 M391.1,406.2c-3.9,0-8.8-0.2-13.5-0.3c-1.8-0.1-3.2-0.1-3.8-0.1h-0.6l0.2-0.6c0-0.1,0.4-1.3,1.2-3l-8.7-1l3.7-4.9l6.9,2
		c0.1-0.4,0.2-0.7,0.3-1.1c0.3-1.2,0.6-2.2,0.6-2.9v-0.6l0.6,0.2c2.7,0.9,18.1,8.5,20.3,11.2l0.4,0.5l-0.6,0.2
		C397.2,406.1,394.5,406.2,391.1,406.2"/>
	<defs>
		<filter id="Adobe_OpacityMaskFilter_35_" filterUnits="userSpaceOnUse" x="275.6" y="347.2" width="27.1" height="36.1">
			<feColorMatrix  type="matrix" values="1 0 0 0 0  0 1 0 0 0  0 0 1 0 0  0 0 0 1 0"/>
		</filter>
	</defs>
	<mask maskUnits="userSpaceOnUse" x="275.6" y="347.2" width="27.1" height="36.1" id="mask-4_105_">
		<g class="st71">
			<polygon id="path-3_105_" class="st1" points="-228.4,632.5 844.9,632.5 844.9,0 -228.4,0 			"/>
		</g>
	</mask>
	<polygon id="Fill-57" class="st72" points="302.6,383.3 302.6,378.3 291.6,364.2 293.1,359.2 284.6,347.2 282.1,354.7 275.6,353.2 
		284.1,365.7 289.1,365.7 	"/>
	<defs>
		<filter id="Adobe_OpacityMaskFilter_36_" filterUnits="userSpaceOnUse" x="274.9" y="346.5" width="28.5" height="37.5">
			<feColorMatrix  type="matrix" values="1 0 0 0 0  0 1 0 0 0  0 0 1 0 0  0 0 0 1 0"/>
		</filter>
	</defs>
	<mask maskUnits="userSpaceOnUse" x="274.9" y="346.5" width="28.5" height="37.5" id="mask-4_104_">
		<g class="st73">
			<polygon id="path-3_104_" class="st1" points="-228.4,632.5 844.9,632.5 844.9,0 -228.4,0 			"/>
		</g>
	</mask>
	<polygon id="Stroke-58" class="st74" points="302.6,383.3 302.6,378.3 291.6,364.2 293.1,359.2 284.6,347.2 282.1,354.7 
		275.6,353.2 284.1,365.7 289.1,365.7 	"/>
	<defs>
		<filter id="Adobe_OpacityMaskFilter_37_" filterUnits="userSpaceOnUse" x="275.6" y="347.2" width="27.1" height="36.1">
			<feColorMatrix  type="matrix" values="1 0 0 0 0  0 1 0 0 0  0 0 1 0 0  0 0 0 1 0"/>
		</filter>
	</defs>
	<mask maskUnits="userSpaceOnUse" x="275.6" y="347.2" width="27.1" height="36.1" id="mask-4_103_">
		<g class="st75">
			<polygon id="path-3_103_" class="st1" points="-228.4,632.5 844.9,632.5 844.9,0 -228.4,0 			"/>
		</g>
	</mask>
	<polygon id="Fill-59" class="st76" points="302.6,383.3 302.6,378.3 291.6,364.2 293.1,359.2 284.6,347.2 282.1,354.7 275.6,353.2 
		284.1,365.7 289.1,365.7 	"/>
	<defs>
		<filter id="Adobe_OpacityMaskFilter_38_" filterUnits="userSpaceOnUse" x="275.2" y="346.2" width="27.9" height="37.4">
			<feColorMatrix  type="matrix" values="1 0 0 0 0  0 1 0 0 0  0 0 1 0 0  0 0 0 1 0"/>
		</filter>
	</defs>
	<mask maskUnits="userSpaceOnUse" x="275.2" y="346.2" width="27.9" height="37.4" id="mask-4_102_">
		<g class="st77">
			<polygon id="path-3_102_" class="st1" points="-228.4,632.5 844.9,632.5 844.9,0 -228.4,0 			"/>
		</g>
	</mask>
	<path id="Fill-60" class="st78" d="M284.3,365.3h5l12.9,16.7v-3.5l-11.1-14.1l1.5-5l-7.9-11.1l-2.4,7.1l-5.8-1.3L284.3,365.3z
		 M302.3,383.6l-13.4-17.4h-5l-8.7-12.7l0.5-0.7l6.1,1.4l2.7-8l9.2,12.9l-1.5,5l11,14v5.2L302.3,383.6z"/>
	<defs>
		<filter id="Adobe_OpacityMaskFilter_39_" filterUnits="userSpaceOnUse" x="275" y="368.2" width="54.5" height="47.5">
			<feColorMatrix  type="matrix" values="1 0 0 0 0  0 1 0 0 0  0 0 1 0 0  0 0 0 1 0"/>
		</filter>
	</defs>
	<mask maskUnits="userSpaceOnUse" x="275" y="368.2" width="54.5" height="47.5" id="mask-4_101_">
		<g class="st79">
			<polygon id="path-3_101_" class="st1" points="-228.4,632.5 844.9,632.5 844.9,0 -228.4,0 			"/>
		</g>
	</mask>
	<path id="Fill-61" class="st80" d="M329.2,378.3c-0.5-1-2-1.5-3.5-1c-0.5,1.5-8.5,4-10.5,5v1c-0.5-1-1-1.5-2.5-2
		c-1.5-2.5-2.5-8.5-3.5-11.5l-5-1.5c0,0.5,0.5,1.5,0.5,2.5c2,5,3.5,13,0,14.5c-4.5,1.5-19,0.5-20.5,3c0,1-2,2.5-1,2.5
		c2-0.5,11.5-1.5,13-2c2.5-1,4,0,6,0c-1,1-2,2-3.5,2c-1.5,0-2,3-4,1.5c-1.5-1-10.5,1.5-12.5,3c-3,0.5-7.5,8-7,10.5
		c1.5-4.5,7.5-2,9.5-4c3.5-4,9-3.5,13-6c3-1,5.5-3.5,8-4c-0.5,2.5-3,3.5-4,5c-5,0.5-8.5,5.5-12.5,7.5c-2,3.5-2.5,7.5-2.5,9
		c1,3.5,0.5,4,5-4.5c2.5-1,11.5-5,14.5-11c3-0.5,6.5-1.5,8.5-5c0-1,1.5-3.5,1.5-5c2,0,4.5-2,6.5-3c1.5-1.5,5-0.5,6.5-2.5
		C329.7,380.8,329.7,379.3,329.2,378.3"/>
	<defs>
		<filter id="Adobe_OpacityMaskFilter_40_" filterUnits="userSpaceOnUse" x="273.8" y="367" width="56.9" height="49.9">
			<feColorMatrix  type="matrix" values="1 0 0 0 0  0 1 0 0 0  0 0 1 0 0  0 0 0 1 0"/>
		</filter>
	</defs>
	<mask maskUnits="userSpaceOnUse" x="273.8" y="367" width="56.9" height="49.9" id="mask-4_100_">
		<g class="st81">
			<polygon id="path-3_100_" class="st1" points="-228.4,632.5 844.9,632.5 844.9,0 -228.4,0 			"/>
		</g>
	</mask>
	<path id="Stroke-62" class="st82" d="M329.2,378.3c-0.5-1-2-1.5-3.5-1c-0.5,1.5-8.5,4-10.5,5v1c-0.5-1-1-1.5-2.5-2
		c-1.5-2.5-2.5-8.5-3.5-11.5l-5-1.5c0,0.5,0.5,1.5,0.5,2.5c2,5,3.5,13,0,14.5c-4.5,1.5-19,0.5-20.5,3c0,1-2,2.5-1,2.5
		c2-0.5,11.5-1.5,13-2c2.5-1,4,0,6,0c-1,1-2,2-3.5,2c-1.5,0-2,3-4,1.5c-1.5-1-10.5,1.5-12.5,3c-3,0.5-7.5,8-7,10.5
		c1.5-4.5,7.5-2,9.5-4c3.5-4,9-3.5,13-6c3-1,5.5-3.5,8-4c-0.5,2.5-3,3.5-4,5c-5,0.5-8.5,5.5-12.5,7.5c-2,3.5-2.5,7.5-2.5,9
		c1,3.5,0.5,4,5-4.5c2.5-1,11.5-5,14.5-11c3-0.5,6.5-1.5,8.5-5c0-1,1.5-3.5,1.5-5c2,0,4.5-2,6.5-3c1.5-1.5,5-0.5,6.5-2.5
		C329.7,380.8,329.7,379.3,329.2,378.3z"/>
	<defs>
		<filter id="Adobe_OpacityMaskFilter_41_" filterUnits="userSpaceOnUse" x="371.7" y="386.3" width="30.8" height="8.5">
			<feColorMatrix  type="matrix" values="1 0 0 0 0  0 1 0 0 0  0 0 1 0 0  0 0 0 1 0"/>
		</filter>
	</defs>
	<mask maskUnits="userSpaceOnUse" x="371.7" y="386.3" width="30.8" height="8.5" id="mask-4_99_">
		<g class="st83">
			<polygon id="path-3_99_" class="st1" points="-228.4,632.5 844.9,632.5 844.9,0 -228.4,0 			"/>
		</g>
	</mask>
	<path id="Fill-63" class="st84" d="M382.3,393.9l20.2,0.9c-3.5-2.6-13.9-8.1-16.7-8.5c-0.2,0.5-0.6,1.6-1.3,2.8l-0.1,0.3l-10.6-1.1
		c-0.7,0.6-1.5,1.1-2.1,1.4l11.8,1.3l-0.2,0.5C383.1,392.4,382.6,393.3,382.3,393.9"/>
	<defs>
		<filter id="Adobe_OpacityMaskFilter_42_" filterUnits="userSpaceOnUse" x="371.5" y="385.8" width="31.3" height="9.5">
			<feColorMatrix  type="matrix" values="1 0 0 0 0  0 1 0 0 0  0 0 1 0 0  0 0 0 1 0"/>
		</filter>
	</defs>
	<mask maskUnits="userSpaceOnUse" x="371.5" y="385.8" width="31.3" height="9.5" id="mask-4_98_">
		<g class="st85">
			<polygon id="path-3_98_" class="st1" points="-228.4,632.5 844.9,632.5 844.9,0 -228.4,0 			"/>
		</g>
	</mask>
	<path id="Fill-64" class="st86" d="M383,393.5l17.9,0.8c-4.1-2.7-12-6.8-14.8-7.5c-0.2,0.6-0.6,1.5-1.2,2.5l-0.3,0.5l-10.7-1.1
		c-0.3,0.3-0.6,0.5-0.9,0.7l11,1.2l-0.3,1C383.6,392.2,383.3,392.9,383,393.5z M402.5,395.3l-21-0.9l0.3-0.6c0.3-0.6,0.7-1.5,1-2.4
		l-11.2-1.3l-0.2-0.9c0.7-0.4,1.4-0.8,2.1-1.4l0.1-0.1l10.5,1.1c0.6-1.1,1-2.1,1.2-2.7l0.1-0.4l0.4,0.1c3,0.5,13.5,6.1,16.9,8.6
		L402.5,395.3z"/>
	<defs>
		<filter id="Adobe_OpacityMaskFilter_43_" filterUnits="userSpaceOnUse" x="356.6" y="386.3" width="8.2" height="2.2">
			<feColorMatrix  type="matrix" values="1 0 0 0 0  0 1 0 0 0  0 0 1 0 0  0 0 0 1 0"/>
		</filter>
	</defs>
	<mask maskUnits="userSpaceOnUse" x="356.6" y="386.3" width="8.2" height="2.2" id="mask-4_97_">
		<g class="st87">
			<polygon id="path-3_97_" class="st1" points="-228.4,632.5 844.9,632.5 844.9,0 -228.4,0 			"/>
		</g>
	</mask>
	<path id="Fill-65" class="st88" d="M356.6,386.3v1.6l5.7,0.6l2.3-0.7c0-0.2,0.1-0.4,0.1-0.6L356.6,386.3z"/>
	<defs>
		<filter id="Adobe_OpacityMaskFilter_44_" filterUnits="userSpaceOnUse" x="356.2" y="385.8" width="9.2" height="3.2">
			<feColorMatrix  type="matrix" values="1 0 0 0 0  0 1 0 0 0  0 0 1 0 0  0 0 0 1 0"/>
		</filter>
	</defs>
	<mask maskUnits="userSpaceOnUse" x="356.2" y="385.8" width="9.2" height="3.2" id="mask-4_96_">
		<g class="st89">
			<polygon id="path-3_96_" class="st1" points="-228.4,632.5 844.9,632.5 844.9,0 -228.4,0 			"/>
		</g>
	</mask>
	<path id="Fill-66" class="st90" d="M357.1,387.5l5.2,0.6l1.7-0.5l-6.9-0.7V387.5z M362.4,389l-6.2-0.7v-2.5l9.2,1l-0.1,0.5
		c0,0.2-0.1,0.4-0.1,0.6l0,0.3L362.4,389z"/>
	<defs>
		<filter id="Adobe_OpacityMaskFilter_45_" filterUnits="userSpaceOnUse" x="298.4" y="346.7" width="35.3" height="22.9">
			<feColorMatrix  type="matrix" values="1 0 0 0 0  0 1 0 0 0  0 0 1 0 0  0 0 0 1 0"/>
		</filter>
	</defs>
	<mask maskUnits="userSpaceOnUse" x="298.4" y="346.7" width="35.3" height="22.9" id="mask-4_95_">
		<g class="st91">
			<polygon id="path-3_95_" class="st1" points="-228.4,632.5 844.9,632.5 844.9,0 -228.4,0 			"/>
		</g>
	</mask>
	<path id="Fill-67" class="st92" d="M310.2,351.3c0,0,6-2.5,8.5-1.5c2.5,1,8.5-0.5,9-2.5c0,0-6,1-9,0c-0.7-0.2-2.3-0.5-4.2-0.6h-16
		c-0.4,4-0.1,14.4,8.6,17.7c9.5,3.5,27.1,7.5,18.5,3.5c0,0-12-4-13.5-9c0,0,13.5,4,21.6,3C333.7,361.9,312.2,355.9,310.2,351.3"/>
	<defs>
		<filter id="Adobe_OpacityMaskFilter_46_" filterUnits="userSpaceOnUse" x="225" y="371.8" width="111.1" height="93.6">
			<feColorMatrix  type="matrix" values="1 0 0 0 0  0 1 0 0 0  0 0 1 0 0  0 0 0 1 0"/>
		</filter>
	</defs>
	<mask maskUnits="userSpaceOnUse" x="225" y="371.8" width="111.1" height="93.6" id="mask-4_94_">
		<g class="st93">
			<polygon id="path-3_94_" class="st1" points="-228.4,632.5 844.9,632.5 844.9,0 -228.4,0 			"/>
		</g>
	</mask>
	<path id="Fill-68" class="st94" d="M336,442.8l-79.6-70l-1.2-0.9c-4.7,2.9-9.5,6.3-13.8,8.9c-7.3,4.4-15.2,10.7-16.4,12.1
		c8.7,3.5,27.1,12.3,40.1,36.6c14.4,7.2,33.4,24.2,38.6,36.1C308.3,463.7,321.3,454.8,336,442.8"/>
	<defs>
		<filter id="Adobe_OpacityMaskFilter_47_" filterUnits="userSpaceOnUse" x="275" y="368.2" width="54.5" height="47.5">
			<feColorMatrix  type="matrix" values="1 0 0 0 0  0 1 0 0 0  0 0 1 0 0  0 0 0 1 0"/>
		</filter>
	</defs>
	<mask maskUnits="userSpaceOnUse" x="275" y="368.2" width="54.5" height="47.5" id="mask-4_93_">
		<g class="st95">
			<polygon id="path-3_93_" class="st1" points="-228.4,632.5 844.9,632.5 844.9,0 -228.4,0 			"/>
		</g>
	</mask>
	<path id="Fill-69" class="st96" d="M329.2,378.3c-0.5-1-2-1.5-3.5-1c-0.5,1.5-8.5,4-10.5,5v1c-0.5-1-1-1.5-2.5-2
		c-1.5-2.5-2.5-8.5-3.5-11.5l-5-1.5c0,0.5,0.5,1.5,0.5,2.5c2,5,3.5,13,0,14.5c-4.5,1.5-19,0.5-20.5,3c0,1-2,2.5-1,2.5
		c2-0.5,11.5-1.5,13-2c2.5-1,4,0,6,0c-1,1-2,2-3.5,2c-1.5,0-2,3-4,1.5c-1.5-1-10.5,1.5-12.5,3c-3,0.5-7.5,8-7,10.5
		c1.5-4.5,7.5-2,9.5-4c3.5-4,9-3.5,13-6c3-1,5.5-3.5,8-4c-0.5,2.5-3,3.5-4,5c-5,0.5-8.5,5.5-12.5,7.5c-2,3.5-2.5,7.5-2.5,9
		c1,3.5,0.5,4,5-4.5c2.5-1,11.5-5,14.5-11c3-0.5,6.5-1.5,8.5-5c0-1,1.5-3.5,1.5-5c2,0,4.5-2,6.5-3c1.5-1.5,5-0.5,6.5-2.5
		C329.7,380.8,329.7,379.3,329.2,378.3"/>
	<defs>
		<filter id="Adobe_OpacityMaskFilter_48_" filterUnits="userSpaceOnUse" x="274.6" y="367.6" width="55.5" height="48.6">
			<feColorMatrix  type="matrix" values="1 0 0 0 0  0 1 0 0 0  0 0 1 0 0  0 0 0 1 0"/>
		</filter>
	</defs>
	<mask maskUnits="userSpaceOnUse" x="274.6" y="367.6" width="55.5" height="48.6" id="mask-4_92_">
		<g class="st97">
			<polygon id="path-3_92_" class="st1" points="-228.4,632.5 844.9,632.5 844.9,0 -228.4,0 			"/>
		</g>
	</mask>
	<path id="Fill-70" class="st98" d="M287.1,413.3c0.1,0.3,0.1,0.5,0.2,0.8c0.1,0.4,0.2,0.8,0.3,1.1c0.4-0.5,1.4-2.2,2.7-4.7l1-1.9
		l0.2-0.1c1.9-0.7,11.3-4.8,14.3-10.8l0.1-0.2l0.2,0c3-0.5,6.2-1.4,8.1-4.7c0-0.5,0.3-1.3,0.7-2.1c0.4-1,0.8-2.1,0.8-2.8v-0.5h0.5
		c1.3,0,2.9-1,4.4-1.9c0.6-0.4,1.2-0.7,1.8-1c0.8-0.8,2-0.9,3.2-1.1c1.3-0.2,2.5-0.4,3.2-1.3c0.4-1.3,0.4-2.7,0-3.6
		c-0.3-0.7-1.5-1.2-2.8-0.8c-0.7,1.1-3.6,2.3-7.6,3.8c-1.1,0.4-2.1,0.8-2.7,1.1v0.7l-0.9,0.2c-0.5-0.9-0.9-1.3-2.2-1.8l-0.2-0.1
		l-0.1-0.1c-1-1.7-1.8-4.9-2.5-7.6c-0.3-1.4-0.7-2.7-1-3.7l-4-1.2c0,0,0,0,0,0.1c0.1,0.5,0.3,1.1,0.3,1.7c2,5,3.6,13.4-0.3,15
		c-2,0.7-5.6,0.9-9.4,1c-4.4,0.2-9.9,0.5-10.9,1.7c-0.1,0.6-0.5,1.1-0.9,1.6c0,0-0.1,0.1-0.1,0.1c1.2-0.2,3.4-0.5,5.6-0.8
		c2.8-0.4,6-0.8,6.8-1.1c1.8-0.7,3.1-0.5,4.3-0.2c0.6,0.1,1.2,0.2,1.8,0.2l0.3,0.8c-1.1,1.1-2.1,2.1-3.8,2.1c-0.4,0-0.8,0.4-1.1,0.8
		c-0.6,0.7-1.6,1.7-3.1,0.6c-1.1-0.8-9.9,1.4-12,3l-0.1,0.1l-0.1,0c-1.1,0.2-2.6,1.6-4.1,3.7c-1,1.5-1.8,3.1-2.3,4.4
		c1.3-1.3,3.3-1.4,5-1.5c1.4-0.1,2.8-0.2,3.4-0.8c2.2-2.5,5.1-3.3,7.9-4.1c1.9-0.5,3.7-1,5.2-2l0.1,0c1.4-0.5,2.7-1.3,3.9-2
		c1.4-0.9,2.8-1.7,4.2-2l0.7-0.1l-0.1,0.7c-0.4,1.8-1.6,2.8-2.7,3.8c-0.6,0.5-1.1,0.9-1.4,1.4l-0.1,0.2l-0.2,0
		c-3,0.3-5.5,2.3-7.9,4.3c-1.5,1.2-2.8,2.3-4.3,3.1C287.5,408.1,287.1,412,287.1,413.3 M287.6,416.2
		C287.5,416.2,287.5,416.2,287.6,416.2c-0.7-0.1-0.9-0.7-1.2-1.9c-0.1-0.2-0.1-0.5-0.2-0.8l0-0.1c0-1.6,0.5-5.7,2.6-9.2l0.1-0.1
		l0.1-0.1c1.4-0.7,2.8-1.9,4.3-3.1c2.5-2,5-4.1,8.2-4.5c0.4-0.5,0.9-1,1.4-1.4c0.8-0.7,1.7-1.5,2.1-2.5c-1,0.4-2,1-3.1,1.7
		c-1.3,0.8-2.6,1.6-4,2.1c-1.7,1-3.6,1.6-5.4,2.1c-2.8,0.8-5.5,1.5-7.5,3.8c-0.9,0.9-2.4,1-4,1.1c-2.3,0.1-4.6,0.3-5.4,2.7l-0.9-0.1
		c-0.3-1.7,1.2-4.8,2.7-7c0.8-1.1,2.7-3.7,4.6-4.1c2.1-1.4,11.2-4.2,13-3c0.9,0.6,1.2,0.3,1.9-0.5c0.5-0.5,1-1.1,1.8-1.1
		c1,0,1.7-0.5,2.5-1.2c-0.3,0-0.6-0.1-0.9-0.2c-1.2-0.2-2.3-0.4-3.9,0.2c-0.9,0.3-3.8,0.7-7,1.1c-2.6,0.3-5.2,0.7-6.1,0.9l-0.1,0
		c-0.4,0-0.6-0.2-0.7-0.3c-0.2-0.4,0.1-0.8,0.5-1.4c0.3-0.4,0.7-0.9,0.7-1.2v-0.1l0.1-0.1c0.9-1.6,5-1.9,11.6-2.2
		c3.6-0.2,7.3-0.4,9.2-1c3.1-1.3,1.7-9.1-0.3-13.9l0-0.1v-0.1c0-0.5-0.2-1.1-0.3-1.5c-0.1-0.4-0.2-0.7-0.2-1v-0.6l5.8,1.7l0.1,0.2
		c0.4,1.1,0.7,2.5,1.1,4c0.7,2.7,1.4,5.6,2.3,7.3c0.8,0.3,1.4,0.6,1.8,1l0.2-0.1c0.6-0.3,1.8-0.7,3.1-1.2c2.4-0.9,6.9-2.6,7.2-3.5
		l0.1-0.2l0.2-0.1c1.7-0.6,3.4,0,4.1,1.2v0c0.6,1.1,0.6,2.7,0,4.4l0,0.1l0,0.1c-0.9,1.2-2.5,1.5-3.9,1.7c-1.1,0.2-2.1,0.3-2.7,0.9
		l-0.1,0.1l-0.1,0c-0.6,0.3-1.2,0.7-1.8,1c-1.5,0.9-3,1.8-4.5,2c-0.1,0.8-0.5,1.8-0.9,2.7c-0.3,0.7-0.6,1.5-0.6,1.9v0.1l-0.1,0.1
		c-2.1,3.6-5.6,4.7-8.6,5.2c-3.2,6.1-12.3,10.1-14.5,11l-0.9,1.7C288.8,415.2,288.3,416.2,287.6,416.2"/>
	<defs>
		<filter id="Adobe_OpacityMaskFilter_49_" filterUnits="userSpaceOnUse" x="257.5" y="370.8" width="45.9" height="11.8">
			<feColorMatrix  type="matrix" values="1 0 0 0 0  0 1 0 0 0  0 0 1 0 0  0 0 0 1 0"/>
		</filter>
	</defs>
	<mask maskUnits="userSpaceOnUse" x="257.5" y="370.8" width="45.9" height="11.8" id="mask-4_91_">
		<g class="st99">
			<polygon id="path-3_91_" class="st1" points="-228.4,632.5 844.9,632.5 844.9,0 -228.4,0 			"/>
		</g>
	</mask>
	<polygon id="Fill-71" class="st100" points="303.4,380 277.1,377.3 275.1,373.8 259,370.8 261.5,375.8 257.5,380.8 274.1,382.3 
		276.6,379.8 302.9,382.5 	"/>
	<defs>
		<filter id="Adobe_OpacityMaskFilter_50_" filterUnits="userSpaceOnUse" x="256.6" y="370.1" width="47.3" height="12.9">
			<feColorMatrix  type="matrix" values="1 0 0 0 0  0 1 0 0 0  0 0 1 0 0  0 0 0 1 0"/>
		</filter>
	</defs>
	<mask maskUnits="userSpaceOnUse" x="256.6" y="370.1" width="47.3" height="12.9" id="mask-4_90_">
		<g class="st101">
			<polygon id="path-3_90_" class="st1" points="-228.4,632.5 844.9,632.5 844.9,0 -228.4,0 			"/>
		</g>
	</mask>
	<path id="Fill-72" class="st102" d="M276.4,379.3l26.1,2.7l0.3-1.6l-26-2.7l-2-3.5l-14.9-2.8l2.2,4.5l-3.7,4.6l15.5,1.4
		L276.4,379.3z M303.3,383l-26.5-2.8l-2.5,2.5l-17.6-1.6l4.4-5.4l-2.8-5.6l17.1,3.2l2,3.5l26.6,2.8L303.3,383z"/>
	<defs>
		<filter id="Adobe_OpacityMaskFilter_51_" filterUnits="userSpaceOnUse" x="313.5" y="378.3" width="62.2" height="46.1">
			<feColorMatrix  type="matrix" values="1 0 0 0 0  0 1 0 0 0  0 0 1 0 0  0 0 0 1 0"/>
		</filter>
	</defs>
	<mask maskUnits="userSpaceOnUse" x="313.5" y="378.3" width="62.2" height="46.1" id="mask-4_89_">
		<g class="st103">
			<polygon id="path-3_89_" class="st1" points="-228.4,632.5 844.9,632.5 844.9,0 -228.4,0 			"/>
		</g>
	</mask>
	<path id="Fill-73" class="st104" d="M373.8,384.8c-1-1.5-3-2-4.5-1.5c-1,2-4,2-4,5l-8,2.5c-3-2-2.5-7.5-2-11l-5.5-1.5
		c0.5,2.5,1,6.5,0.5,12c-1.5,3.5-21.6,0-24.1,1c-2,0-11,5.5-10.5,9l10.5-4c0.5,1.5,8.5,3,14,1.5c2-0.5,4-1.5,6.5-1.5
		c-2.5,3.5-7.5,2.5-8.5,7l-1.5-1c-1.5-1-11.5,2.5-12,2c-1-0.5-3,0.5-4.5,1c-2.5,1.5-7.5,8-6.5,9.5c4.5-4,10.5-3.5,12-4
		c1.5-0.5,3,0,4-1.5c6-2.5,12-6,18-8.5c-1,3-4.5,3.5-6,6.5c-5,2-8.5,7.5-14,9c0,1.5-4.5,4-3.5,8c3-3.5,6.5-4.5,7-3
		c3,1.5,3-3.5,5.5-3.5c1.5-0.5,20.5-15.5,21.6-18.5c1.5-5.5,6.5-5.5,10-8c1.5-2,3.5-2,5.5-4C376.8,382.8,375.8,383.8,373.8,384.8"/>
	<defs>
		<filter id="Adobe_OpacityMaskFilter_52_" filterUnits="userSpaceOnUse" x="224.8" y="392.8" width="40.3" height="54.6">
			<feColorMatrix  type="matrix" values="1 0 0 0 0  0 1 0 0 0  0 0 1 0 0  0 0 0 1 0"/>
		</filter>
	</defs>
	<mask maskUnits="userSpaceOnUse" x="224.8" y="392.8" width="40.3" height="54.6" id="mask-4_88_">
		<g class="st105">
			<polygon id="path-3_88_" class="st1" points="-228.4,632.5 844.9,632.5 844.9,0 -228.4,0 			"/>
		</g>
	</mask>
	<path id="Fill-74" class="st106" d="M262.5,447.4c-7.2-22.2-27.2-37.4-37.8-40.5l0.2-14.1c9.2,3.4,27.1,12.1,40.1,36.6L262.5,447.4
		z"/>
	<defs>
		<filter id="Adobe_OpacityMaskFilter_53_" filterUnits="userSpaceOnUse" x="156.9" y="154.5" width="453.3" height="195.3">
			<feColorMatrix  type="matrix" values="1 0 0 0 0  0 1 0 0 0  0 0 1 0 0  0 0 0 1 0"/>
		</filter>
	</defs>
	<mask maskUnits="userSpaceOnUse" x="156.9" y="154.5" width="453.3" height="195.3" id="mask-4_87_">
		<g class="st107">
			<polygon id="path-3_87_" class="st1" points="-228.4,632.5 844.9,632.5 844.9,0 -228.4,0 			"/>
		</g>
	</mask>
	<path id="Fill-75" class="st108" d="M610,312.8c-3-14.5-36.6-52.6-36.6-52.6c2.5,0,3.5,0.5,3-0.5c-5.5-11-39.6-41.6-39.6-41.6l2-1
		c-3.5-3-68.2-62.6-112.8-62.6c-56.1,0-78.2,67.1-81.2,74.7c-0.2,0.4-0.4,0.8-0.8,1.2c-3-4.5-5.2-9.3-14.3-17.8
		c-9.5-9.5-12.5-15-12.5-15l-5.5,16l-4.5,13l-13.5,19.5c-2.5,1.5-4,3.5-5.5,4.5c-3.5,1.2-9.7,3.7-15.4,6c-6.2,1.4-12.8,2-19.2,1
		c-21.6-3-28.1-6.5-41.1-16.5c-12-8.5-21.6-1.5-22.1-1.5c-2-2-6-3-10-2.5c0,0-4-6-12-5.5c-7.5,0.5-12,5.5-11.5,11.5
		c0.5,6,3,8,4.5,9.5c0,0,3.3-4.1,8.7-2.6c4.8,1.3,6.4,4.2,8.9,8.6c0,0,7.5,4.6,11.5,11.6c0,0-7.3,0.2-18.8-8.7l-2.3-0.8l-9-3.5
		c-0.5,4,1,17,23.6,27.6c22.1,10,23.6,12.5,27.1,16.5c3,4,15,15,15,15c2.5,0.5,19,8,21.6,11c0,0,4.8,0,10.4,1.9
		c2.6,1.4,5.2,2.6,6.9,3.5c1.7,1.2,3.4,2.7,4.7,4.6c3.5,1,4.5-1.5,8,1c3.5,2.5,3.5,2.5,8,3.5c4,0.5,4-1,8,0.5c4,1.5,8.5,1.5,8.5,1.5
		l0-0.8c9.2,3.3,8.5-3.7,8.5-3.7c20.5,3.5,28.1-5,28.1-5c9.5,25.6,17,5,17,5c5.5,7.5,10,0,10,0c6,8,10.5-0.5,10.5-0.5
		c9,8.5,12.5-3,12.5-3c6.5,4.5,10-3.5,10-3.5c8.5,5.5,9.5-4.5,9.5-4.5c6.5,4,8-9,8-9c11.5,3.5,9-7.5,9-7.5c3.5,2.5,8.5-1,8.5-1
		l3.3-8.3c5.2,14.4,10.8,30.1,10.8,30.1c1.5,0,6-0.5,8,0c0,0,5.5,2.5,7,3.5l5,2.5c12.5,12.5,19.5,11.5,19.5,11.5l-1-5.5l7.5,3
		c0.5-2-1.5-8.5-1.5-8.5s11.5,8.5,11.5,7.5c1-2.5-15.5-30.6-26.6-40.1c-1-0.5-1.5-1.5-1.5-1.5c-6.6-7.3-14.6-14.2-21.1-19.3
		c12.5,3.1,12-9.1,12-9.1c9,4,14-2,14-2c17,13.5,21,4.5,21,4.5c32.6,16,28.1-0.5,28.1-0.5c20.5,18,22.1,12.5,22.1,12.5
		c27.1,26.1,31.6,15,31.6,15C588.5,310.3,612.5,327.9,610,312.8"/>
	<defs>
		<filter id="Adobe_OpacityMaskFilter_54_" filterUnits="userSpaceOnUse" x="446.1" y="289.5" width="50.2" height="57.2">
			<feColorMatrix  type="matrix" values="1 0 0 0 0  0 1 0 0 0  0 0 1 0 0  0 0 0 1 0"/>
		</filter>
	</defs>
	<mask maskUnits="userSpaceOnUse" x="446.1" y="289.5" width="50.2" height="57.2" id="mask-4_86_">
		<g class="st109">
			<polygon id="path-3_86_" class="st1" points="-228.4,632.5 844.9,632.5 844.9,0 -228.4,0 			"/>
		</g>
	</mask>
	<path id="Fill-76" class="st110" d="M446.7,299.1c2-1.5,9,4.5,12.5,7.5c23.1,20,32.6,27.6,32.6,27.6c-1.5-3.5-24.6-26.1-24.6-26.1
		c-7.1-6.8-8.5-7.7-10.3-9c-6.7-4.8-2.5-9.6-2.5-9.6c10,9,14.3,12.6,20.8,17.6v1c2.5,2.5,8.5,8,14,15c3.5,5.5,6,11.5,7,14
		c-2,0.5-5-1.5-7-2.5c0,0,1,1.5,1.5,3.5l0.5,3.5c-0.5,0-1.5-0.5-2.5-1c-2.5-3-20-17.5-24.1-24.1c0,0,8,11.5,18,21c0,0,2,8.5,1.5,9
		l-28.6-20.5c27.1,14.5,7-2,1-7C450.2,314.1,444.2,300.1,446.7,299.1"/>
	<defs>
		<filter id="Adobe_OpacityMaskFilter_55_" filterUnits="userSpaceOnUse" x="290.9" y="160" width="315.8" height="181.7">
			<feColorMatrix  type="matrix" values="1 0 0 0 0  0 1 0 0 0  0 0 1 0 0  0 0 0 1 0"/>
		</filter>
	</defs>
	<mask maskUnits="userSpaceOnUse" x="290.9" y="160" width="315.8" height="181.7" id="mask-4_85_">
		<g class="st111">
			<polygon id="path-3_85_" class="st1" points="-228.4,632.5 844.9,632.5 844.9,0 -228.4,0 			"/>
		</g>
	</mask>
	<path id="Fill-77" class="st112" d="M312.3,212.2c0,0,5.2-6.3,8.7-0.3l3,1.5l-12,3l16,0.5l2,3.5l-4.5,1.5l8.5,2l2,3.5h-5.5l0.5,2
		l7,1c0,0-4.5,5.5-14.5,5l-8.5-2l12-4l-3.5-1.5c0,0-7.5,0-12.5,0.5c0,0,11-4,14-4.5h-10l5.5-4.5c0,0-7.9,0.6-18,14.1l4.8-6.9
		L312.3,212.2z M330.5,258.5c-7.5,11.5-16.5,22.6-24.1,22.6c-3.5,0-4.5,0.5-6.5-2l-5.5-7.5c-0.5-6.5,12-13,12-13c-4-1-13,2-15.5,4
		c0-5.5,2.5-9.5,5-10.5c1-3,13.5-3.5,13.5-3.5s-3.5-1.5-5-1.5l6.5-1.5c0,0,4-1,9-2C326.5,244.5,334,247.5,330.5,258.5z M313.5,254.5
		c14.5-2,8.5,10.5,8.5,10.5c9-11,1-13-2-13C316.5,252,313.5,254.5,313.5,254.5z M304.5,277c8.5,1,13.5-9,13.5-9c-8.5,7-16-1-15-3
		C302,266,295.9,276,304.5,277z M311,250c8-3,17,3.5,17,3.5c1-6.5-6-8-10-7.5L311,250z M441.8,172.3c-6-9.5-15.5-8-20.6-9
		C430.8,166.8,441.8,172.3,441.8,172.3z M443.3,167.8c4,0.5,19.5,8.5,19.5,8.5c-3-5.5-15.5-9.5-15.5-9.5L443.3,167.8z M346.1,239
		c0,0,28.1-78.7,75.7-78.7c0,0,9-2,16,4c0,0,2.5-2,6-1c4,1,20.6,6.5,25.1,14.5l2-1.5c0,0,11,2.5,14.5,10.5l3-1
		c0,0,19.5,10,36.6,26.1l-13.5-2c0,0-16.5-14-22.1-18c0,0,1.5,3,1.5,5c0,0-28.6-14.5-43.6-24.1c0,0,2.5,5,7.5,9l-4-1
		c0,0-12-9.5-30.6-5.5c0,0,0.5,3,3,5.5l-7-3c0,0,0-4.5-7-1c-7.5,3.5-14.5,9.5-23.6,21.5c0,0-5,3-8,2l0.5,2.5c0,0,4,0.5,1.5,2.5
		c-2,1.5-6.5,6-11,4c1,4.5,6.5,4.5,9,3.5l-4,5c-2,1.5-7-2.5-7-2.5l1,3c2,2.5,4.5,1,4.5,1l-1.5,3.5c-1.5,2.5-7,0.5-7,0.5
		c3,2.5,4.5,4,4.5,5.5c-0.5,3-7,1-7,1l-0.5,1c1,2.5,4.5,3.5,4,6c-1,2.5-6.5,1-6.5,1l-1,1.5c1.5,0.5,5.5,3.5,2,6c-3,2.5-7,1-7,1l-1,1
		l5,2.5l-1,3c-3.5,4-8,0.5-8,0.5l-1,2c0.5,2,5.5,1.5,5.5,1.5l-1,2c-3.5,2.5-6,0-6,0l-1,2.5c0.5,2,6,1.5,6,1.5l-1,1.5
		c-2.5,3.5-4.5,1.5-7,0.5c2.5,9.5-1.5,11.5-1.5,11.5c0,2-1,6-6.5,6c-5.5,0-6.5-7-5.5-9.5c1-2.5,0,8.5,6,5c4.5-3-9.5-8-2-12
		c0,2,0,7,4.5,5.5c0,0-5.5-7.5-1-11.5c0,0,0.5,5,4,3c0,0-6.5-11,1-13c0,0-1-6.5,4-7C344.6,243,346.1,241.5,346.1,239z M330,328.7
		c0,0-7,2.5-11.5,2c0,0,3.5-1.5,1-3.5c-2.5-2-10-2.5-11.5-2.5c4-1.5,16-6.5,31.1,0L330,328.7z M304.5,336.7c0,0,7-6.5-3.5-8
		c0,0,13-2,15,1C320.5,335.2,304.5,336.7,304.5,336.7z M304.5,310.6c2,1.5,7,4.5,10,5l6.5,2c0,0-12.5,5-17.5,3.5
		C305,319.1,311.5,321.1,304.5,310.6z M329.5,299.1l2.5-2.5l2.5,2.5c0,0-4,3.5-3.5,6.5c0.5,3,3,4.5,3,4.5s-15.5,10.5-28.1-3
		C310.5,307.1,320,305.1,329.5,299.1z M310,292.1c3-2.5,15.5-5,22.1-5l3,3c0,0-10.5,8-18,8.5c-7.5,1,0.5-1.5,0.5-4
		C317.5,292.6,311.5,296.1,310,292.1z M301,287.1c3-1.5,12-3,14-5c0,0,3.5,2.5-1,6.5C314,288.6,307.5,290.1,301,287.1z M342.5,319.1
		c0,0-8.5,2-14.5,0l-7.5-3.5c2.5-0.5,13.5,0.5,15.5-1.5C336,314.1,340,318.1,342.5,319.1z M388.7,242c0,0,4.5,0,7.5,1.5l2-2.5
		c-1.5-0.5-12-4.5-18-8c3.5,3.5,9,9.5,6.5,9c-3-0.5-6.5-2.5-12-5.5c2.5,4.5,10.5,11,17,11.5l2.5-2C392.2,245,390.7,243.5,388.7,242z
		 M400.7,224.9c0,0,5.5-0.5,9-2.5c-2.5,0.5-11,1.5-21.1-7.5c0,0,0,1-0.5,2.5l6.5,6c-4-0.5-7.5-1.5-9-2.5c-0.5,1-1,1.5-2.5,1.5
		c3,2,10,6,22.1,5.5c0,0,1-0.5,2-1.5C405.2,226.9,402.7,226.4,400.7,224.9z M414.7,206.4c0.5,1,0.5,1.5,0,2c-1,1-2.5,0.5-3.5-0.5
		c-1-1-1.5-2.5-1-3.5c-3.5-2-7-4-9.5-6.5c-1,4.5,5,8,5,8c-3.5,0-7.5-1-9.5-2c2.5,3.5,7.5,8,16.5,7.5l8.5-2.5
		C421.2,208.9,418.2,207.9,414.7,206.4z M449.3,192.4c0,0.5-0.5,1-0.5,1c-1,1-2.5,0.5-3.5-0.5c-1-1-1.5-2.5-0.5-3.5
		c-2.5-1.5-5-2-7.5-2l4,5c-4,0-11-4-13.5-5h-1c3,3.5,12.5,13,26.1,9.5C451.8,195.4,450.3,193.4,449.3,192.4z M396.7,209.9
		c1.5,1.5,5,5,4,5.5c-0.5,0.5-6-1.5-7.5-3c-0.5-0.5-1-1.5-1-2.5l-3,3c3.5,4.5,11.5,8.5,23.6,5l1-3
		C413.7,214.9,407.7,215.9,396.7,209.9z M434.3,199.9h2l-8.5-5L434.3,199.9z M442.8,200.9l-8.5,2.5c-6-2.5-13.5-12-15.5-14.5l7,1.5
		C429.8,194.4,442.8,200.9,442.8,200.9z M392.2,234l8.5-2.5c-5-0.5-13-2-18-5.5c0,0,0,2-2,2.5c1,2,8,7,17,9.5c0,0,2-0.5,4-1.5
		L392.2,234z M371.6,239.5c0,1.5-0.5,2.5-0.5,4c0.5,2,3.5,7.5,6,8c2,0.5-5.5-0.5-9-3c-0.5,0-1,0.5-1.5,1c10,10.5,22.1,2.5,22.1,2.5
		C376.1,248.5,371.6,239.5,371.6,239.5z M413.7,192.9c-1.5,5.5,3,9,3,9c-6-2.5-11-6-13-7.5c0.5,3.5,8,7,12,10.5
		c0,0,8.5,3.5,15.5,2.5l2.5-2C433.8,205.4,421.2,200.9,413.7,192.9z M361.6,252.5c0,0,0.5,1,0.5,2c1,2,3.5,5.5,6.5,6.5l-10-1
		c2.5,2.5,4.5,4,11.5,4.5l5-1C375.1,263.5,377.6,256,361.6,252.5z M372.6,266.5h-5c0,7,7.5,18.5,18,20l0.5-8.5
		c-1.5-0.5-1.5-0.5-3.5-1.5c-1.5,5-5,3-5,3c3.5-1.5,3-4,3-4.5c-1.5-1-3-2.5-4-4c-1,1-2.5,0.5-3.5-0.5
		C372.1,269.5,372.1,267,372.6,266.5z M393.2,268.5c0,1-1,7-6.5,5c3-1,4-3,4.5-6.5c-3.5-2-7.5-5.5-10-9.5l-3,1l9,11.5
		c-3,0-10-7.5-10-7.5l-1.5-3.5h-0.5c1,4.5,3.5,17.5,19.5,20l0.5-10C394.7,269,394.2,269,393.2,268.5z M404.7,261.5
		c-0.5,0-1.5,0-2.5-0.5c0,1.5-1,7-6.5,5.5c2.5-1,4-3,4.5-6c-3.5-1-8-3-9.5-6.5l-2.5,0.5c1.5,2.5,5.5,7.5,8.5,8.5l-9.5-3
		c3.5,5,10,12,19,9L404.7,261.5z M413.2,227.9l-2.5,0.5l4.5,6l-7.5-5v4c2.5,2.5,9.5,5,7,5.5c-2.5,0.5-8-0.5-9.5-1
		c-0.5,0.5-1.5,1.5-3,2c0,0,10.5,4.5,18.5,2.5C420.7,242.5,426.8,235.5,413.2,227.9z M503.9,209.4c-3-2.5-6.5-4.5-10-5.5
		c1,1,4.5,7,2,4c-3-3-9-5.5-9-5.5l-2-1c-4.5-1-8-1-9.5-1c14,6,17.5,9,20,11.5l9,3L503.9,209.4z M369.6,276c-0.5,2-2,7.5-9,5.5
		c4-1,5.5-4,6-8c-2.5-1.5-6-3.5-11-4c0,0,2,4,1.5,6.5c0,0-2.5-0.5-4.5-3.5l-4,2c1.5,2.5,7.5,15,24.1,11
		C372.6,285.6,373.1,281.1,369.6,276z M444.3,201.9c-2.5,4,8.5,10.5,4.5,9.5c-4-0.5-10.5-5-11.5-5.5c-1,0-2,0.5-3,0.5
		c14,17,21.6,13,25.6,11.5C457.3,211.4,444.8,202.4,444.3,201.9z M431.8,209.4c0,0,0,1-2,2c1,1,5,7,3,6.5c-1.5,0-7-4-9-5.5
		c-2-0.5-4-0.5-6-1c2,2.5,14,13.5,22.6,13C440.3,224.4,441.3,218.4,431.8,209.4z M416.7,213.9v2.5c1.5,2,7,11.5,5.5,10
		c-2.5-2.5-8-4.5-8-4.5v-1c-1,1-2.5,2-3,2.5c13,11.5,16,6,16,6C427.3,221.4,416.7,213.9,416.7,213.9z M348.1,283.6
		c0.5-1,1.5-1.5,2.5-1.5c-0.5-1-1-2-2-3l-3,1.5c0,0.5,0.5,2.5,1.5,4.5C347.1,284.6,347.6,283.6,348.1,283.6z M358.1,286.6
		c-1.5,0-3.5-1-5.5-3l-0.5,1.5c-1,0-1.5,0-2,0.5c-0.5,0.5-0.5,1-0.5,2h-1c2,3.5,5.5,6,12,3.5L358.1,286.6z M463.8,199.4h-1
		c2,1.5,8.5,7,10.5,10.5l-16-9c3.5,4,15.5,11.5,19.5,17.5l6,4l0.5-5.5C483.4,216.9,472.9,204.4,463.8,199.4z M339,287.1l4-0.5
		c4,6.5,12.5,8,12.5,8l-1,6C345.6,303.6,338.5,290.1,339,287.1z M393.2,251l2-1c10.5,9,17,3,17,3c6,5.5,5,10.5,5,10.5
		C403.7,265.5,394.7,254.5,393.2,251z M417.7,252.5c-11.5,1.5-18-3-20-7.5l2-2.5c6,4,13,2,13,2C416.7,247.5,417.7,252.5,417.7,252.5
		z M472.9,217.9l-1.5,4.5l-5.5-3.5c-2.5-4.5-14.5-14-17.5-16.5l5.5-0.5C463.3,207.4,469.9,215.4,472.9,217.9z M496.4,219.9
		c-3,1-11-2.5-11-2.5c-3-6.5-14.5-16-19-17.5C487.9,206.9,494.9,217.4,496.4,219.9z M440.8,252.5c0,0-1.5-1-3.5-3v0.5
		c0,2,0,4.5-2,6.5c-0.5,0.5-1.5,0.5-2,0c-0.5-0.5-0.5-1.5,0-2c1.5-1,1.5-2.5,1-4.5v-1c0-0.5,0.5-1,1-1c-1.5-1.5-3-3.5-4.5-5.5h-0.5
		c-1,0-2,0.5-2.5,1.5c-1,1-1,3-0.5,5.5c0,0.5-0.5,1-1,1s-1,0-1-1c-0.5-2.5-0.5-5,1-7c0.5-1,2-1.5,3-2c-1-2.5-2.5-5-3-8l-2,1.5
		c0,0,0.5,5,0,7c-1,2-2.5,2-3.5,2c1,2.5,7,15,19,15.5C439.8,258.5,442.3,256.5,440.8,252.5z M464.3,244.5c-2.5-2.5-4.5-4.5-6.5-6.5
		l-5,2c3.5-1.5,2-4,2-4v-1.5c-1.5-1.5-2.5-2.5-3.5-3.5c-0.5,1-2.5,3.5-8.5,1.5c2.5,0,5-1.5,6-4.5c-2-2.5-3-4-3.5-5l-1.5-1.5
		c0.5,3.5,1,5-0.5,7c-2,2-8.5,1-8.5,1c1.5,2.5,12,10.5,13.5,11.5c9.5,9.5,18,8.5,18,8.5L464.3,244.5z M473.4,241c-2,3-9-2.5-9-2.5
		c5.5,2,5.5-0.5,5-2c-2.5-2.5-5.5-5.5-8.5-8c-2,4.5-5.5,2-5.5,2c3.5,0.5,2.5-3,2-4.5c-1.5-1.5-3-2.5-5-3.5c1,3-3,2-4.5,1.5
		c1.5,3.5,21.1,26.1,35.1,27.1C480.4,248.5,477.4,244.5,473.4,241z M485.9,240c-2,3-9-2.5-9-2.5c7,3,5-2.5,5-2.5
		c-2-3-4.5-5.5-7.5-7.5c-2.5,3-5.5,2-5.5,2c2.5-1,3-2,3-3.5c-1.5-1-3.5-2-5.5-3c1,4.5-5.5,0-8,0c3,5,19.5,18,31.6,27.6
		C489.4,248,488.4,244,485.9,240z M497.4,228.9c-2.5,2.5-5.5,1.5-5.5,1.5c3-1,3-2,3-4c-1-1-2.5-2-3.5-3c-2.5-1.5,0,5.5-7.5,2
		c3,4,21.1,23.6,35.6,27.6c0,0-3-4.5-9.5-11.5c-1,4.5-9.5-1.5-9.5-1.5c7,2.5,5-2.5,5-2.5L497.4,228.9z M444.3,242.5
		c-1.5-2-2.5-3.5-4-5c-0.5,1.5-2.5,3-6.5,2c3.5-1,4.5-0.5,5-3.5c-2.5-2.5-5-4.5-6.5-6.5l-0.5,4h-4c1.5,3.5,1.5,4,4.5,7.5
		c6.5,9,26.6,11.5,26.6,11.5S452.8,249,444.3,242.5z M497.4,242.5c-1,2.5-5,0.5-7-1c1,2,2,3,2,3c6,8.5,9,3.5,9,3.5
		C500.9,247,499.4,245,497.4,242.5z M492.9,237.5c-4.5-5.5-9-10-16-12c6,5.5,10.5,11.5,13,15.5C494.9,242.5,492.9,237.5,492.9,237.5
		z M434.8,258.5c-8.5-3.5-13.5-11.5-16-15l-2,3.5c1,2.5,2,5,3.5,7v-1.5c0-0.5,0.5-1,0.5-1.5c0-1,0.5-1.5,1.5-1.5
		c0.5,0,1.5,0.5,1.5,1.5v1.5c-0.5,1.5-0.5,2.5,0.5,3.5c0,1,0,1.5-0.5,2c4.5,4.5,8.5,6.5,8.5,6.5s4.5,0,4.5-1.5
		C437.3,261.5,434.8,258.5,434.8,258.5z M422.2,273.5c0,2,0,4.5-3,4l3-4.5c-2.5-1.5-5-4-5.5-6l-2.5,1.5l-4.5-2c0.5,3,3,11,8,14h6.5
		l1.5-4.5C425.7,276,424.2,275,422.2,273.5z M417.7,283.6c0,0-0.5-1-2-2c0,2-0.5,5-2.5,5.5l2.5-6c-1.5-1-3-3-4.5-5v0.5
		c-0.5,0.5-1,1-1.5,1.5c-1.5,1.5-2,2-2,3c0.5,0.5,0,1.5-0.5,1.5c2,4.5,5,8,10.5,8V283.6z M407.2,276c0.5-0.5,1-1,1.5-1.5
		c0.5-0.5,1-0.5,1-0.5c-0.5-1.5-1.5-3.5-1.5-5.5l-1.5-0.5c-1,1-1.5,5-0.5,9.5C406.2,277,406.7,276.5,407.2,276z M412.7,292.6
		c0.5,2.5,0,6.5-4.5,6.5L412.7,292.6z M406.2,285.1c0,0.5-1,1-1.5,0.5c-1.5,0-2,0.5-3.5,1.5v0.5c0,0.5,0.5,2,0.5,3c0,0.5,0,1-0.5,1
		c1.5,3.5,4,7.5,7.5,10.5c0,0,3,3.5,4.5-0.5l1-8.5C411.7,292.6,408.7,289.1,406.2,285.1z M398.7,285.1c-1.5-5.5-1.5-10.5-1-12l4,0.5
		c0.5,2.5,1.5,6,3.5,9c-3-0.5-4.5,1-6,2C399.2,285.1,398.7,285.1,398.7,285.1z M400.2,302.1c1.5,0.5,2-0.5,3-2L400.2,302.1z
		 M393.7,290.6l1-1.5l1-2.5c0.5-0.5,0.5-0.5,1-0.5c0-1-0.5-2-0.5-3l-3-1.5c-0.5,1-0.5,5,0.5,9.5V290.6z M401.2,306.1
		c-4-4.5-6-9.5-7-14c0.5,0,1,0,1.5-0.5l1-1.5l0.5-2h0.5c2.5,7,8,15,8,15C406.7,309.1,401.2,306.1,401.2,306.1z M383.1,305.6h2
		c0.5,0,0.5-1,0.5-1.5L383.1,305.6z M388.7,305.1l-1.5,5c-7-0.5-8-9-8-15.5c0.5,0.5,1.5,0,1.5,0c0-0.5,0-0.5,1.5-0.5h1
		c0.5,0,1-0.5,1-1s-0.5-1-1-1h-1c-0.5,0-2,0-2.5,0.5c0-2.5,1-5,1.5-5.5l3.5,1C384.1,295.1,386.7,303.6,388.7,305.1z M393.2,304.1
		h1.5c0.5,0,0.5-0.5,0.5-1.5L393.2,304.1z M399.2,305.6l-1,5.5l-4.5-1c-5-6-7-11.5-7-16v-0.5c0.5-0.5,2.5-0.5,3.5-0.5
		c0.5,0,1-0.5,1-1c0-1-0.5-1.5-1-1.5c-1,0-2.5,0-3.5,0.5c0-3,1-6,2-7.5h1C391.7,301.1,399.2,305.6,399.2,305.6z M361.6,290.1
		c0-2.5-2.5,2-3.5,8.5c0.5-0.5,1.5-0.5,3,0l-1,3c-0.5-0.5-1,0-1.5,0v1.5l-1,0.5c0,5.5,1,11.5,5.5,15.5l0.5-9
		C363.6,310.1,361.1,304.1,361.6,290.1z M369.1,290.6l-1.5-1c-1,1-2,4-2.5,7.5c1-0.5,2-0.5,3-0.5v3c-1,0-2,0.5-2.5,1l-0.5-1
		c-0.5,6.5,0.5,14,5,16.5l2-5C372.1,311.1,369.1,297.6,369.1,290.6z M375.6,289.1l-2-0.5c-0.5,1-1.5,4.5-1.5,8.5c1-1,2.5-1,3.5-1
		h0.5v2h-1c-1,0-1,0-1.5,0.5l-1.5-1c0,6.5,1.5,14.5,7,16l1.5-5C380.6,308.6,375.1,295.1,375.6,289.1z M351.6,301.6
		c0,6.5,5.5,12,5.5,12l-0.5,5C347.6,313.6,351.6,298.1,351.6,301.6z M338.5,297.6c4.5,7.5,9,6.5,9,6.5c-1,7,2.5,16.5,2.5,16.5
		C334,313.6,337.5,296.1,338.5,297.6z M493.9,213.9l-0.5-3C518,220.9,541,246,550,253l-6,1.5c-5-0.5-8-3-8-3
		C530.5,244.5,497.9,216.4,493.9,213.9z M498.4,225.4C518,236.5,531,249,531,249l3,7.5C521,257,501.4,229.9,498.4,225.4z M417.7,262
		l2.5,1.5l-2.5-7.5l2-1c15,13.5,7,20,7,20C419.2,272,418.2,265,417.7,262z M534.5,221.9c11.5,9.5,35.6,30.6,37.1,38.1
		c-25.1-6.5-62.1-44.6-64.2-48.1l12,7c7.5,8.5,21.1,16,21.1,16c-1.5-2.5-11-14-11-14L534.5,221.9z M431.3,279.6
		c2.5,3,8.5,8.5,15.5,8c0,0,2-6-6.5-17.5c-0.5,0.5-1.5,1-3,1.5c0,1,0.5,2.5,1.5,4c3.5,4,1,4.5-2,2c-2.5-2-4.5-1.5-5-0.5L431.3,279.6
		z M424.2,289.1c0,0,2,5.5,8,7.5c0,0,8-3.5-1.5-14.5C429.8,282.6,426.2,286.1,424.2,289.1z M461.8,255c-0.5,0.5-2,1.5-3.5,2
		c-0.5,2,5,5,3.5,6.5c-2,1.5-9.5-3.5-14-5c-1.5,0-3-0.5-4.5-1v0.5c4,3,16.5,14.5,32.1,13C475.4,271,477.4,266,461.8,255z
		 M452.8,268.5c6,5.5,1,7-2,3c-2.5-3-6-6-8-6c-0.5,0.5-1,1-1.5,2c2.5,5,7.5,13.5,17.5,12.5c0,0,7-0.5,0-9
		C458.8,271,455.8,270,452.8,268.5z M412.7,308.1c0.5,2,2,5.5,7,6.5c0,0,5.5-2-2.5-19C417.2,297.6,417.2,308.1,412.7,308.1z
		 M420.2,293.1c1,4,2,8.5,2,10.5c0,0,2,4.5,7,4c0,0,2.5-4-6-16.5C422.7,294.1,420.7,293.6,420.2,293.1z M398.7,316.6
		c2-2.5-3-3.5-3-3.5s-3,8.5,5.5,14c0,0,1-5,0-14C400.2,315.1,398.7,316.6,398.7,316.6z M393.7,311.1c-2.5,6-6.5,5-7.5,5
		c-1,13.5,6,14.5,6,14.5c2-1.5,2.5-6,2-10.5l-3,1c0,0-1.5,1.5,0.5-1c2-2.5,2-8,2-8V311.1z M382.6,314.1c-1.5,3.5-5,4.5-6.5,3.5
		c-1,15,4.5,18.5,4.5,18.5c2.5-2,3-7,3-12c-1.5,1-4,0.5-4,0.5c2.5-1.5,3-9,3-9V314.1z M374.1,320.1c-2,2-6,2.5-7,2
		c-1,14,3.5,14,3.5,14c2.5-2,3.5-6.5,3.5-10c-0.5,0.5-3,1.5-4-0.5c0,0,3-1,4-4.5V320.1z M476.4,251c0,0-0.5,0.5-1.5,1
		c-3,2.5,5.5,7.5,1.5,7c-4-0.5-9-7.5-11.5-9l-1.5,1.5c1.5,2,7,10,15.5,16c4,1.5,10.5,4,13.5,1.5c0,0-2.5,2-6,3
		c4,1.5,8.5,2.5,13.5,2.5l1-3.5C500.9,271,486.4,265,476.4,251z M355.1,321.1c0,2,0,12,4,15.5c0,0,3.5-0.5,3.5-14c0,0-1,0.5-2.5,1
		c-1,2-1,4-1,5c0-2-1.5-4.5-3.5-6.5L355.1,321.1z M353.1,321.6c-1,1-1.5,1.5-3,2.5c-2,2-3,5-3,5c0-2-2-3.5-3-4.5
		c-0.5-0.5-1.5-1-2-2.5c-0.5,10,3,18.5,5.5,19.5C353.1,336.7,353.6,324.7,353.1,321.6z M511,253c3,5-5.5,4.5-12.5,3
		c9.5,4,27.1,13,37.6,25.6c0,0,11,7,14,6.5C550,288.1,545.5,266.5,511,253z M515,257l10.5,6l-13.5-4.5L515,257z M572.1,278.6l-4-4
		l-6-1.5C567.6,280.1,572.1,278.6,572.1,278.6z M560.6,267.5l-8-9l-4.5,2L560.6,267.5z M604.7,316.1c-13-3-60.6-55.6-70.2-62.1
		c12,6,16,0.5,16,0.5c12.5,8,56.1,60.6,56.1,60.6L604.7,316.1z M550.5,285.1c0,0,4.5-0.5,3.5-2c-6.5-9.5-28.6-26.6-34.1-29.1l14,4
		c0,0,10,5.5,19,14.5c10,10.5,25.1,27.1,25.6,30.6C574.6,301.1,562.1,299.1,550.5,285.1z M527,280.6c-10.5,3.5-24.1-6.5-24.1-6.5
		c3,0,12.5,0.5,12.5,0.5c-9-2.5-30.1-17.5-33.6-21.5c5.5,0,12,3.5,12,3.5C532,272.5,527,280.6,527,280.6z M408.7,324.2
		c-6.5-1.5-5-14-5-16c4,2,6-1.5,6-1.5C412.2,322.7,408.7,324.2,408.7,324.2z M602.7,305.6v2c0,0-37.6-43.6-43.6-48.6c-6-5,6,0,6,0
		C568.1,261,582.6,270,602.7,305.6z"/>
	<defs>
		<filter id="Adobe_OpacityMaskFilter_56_" filterUnits="userSpaceOnUse" x="163.3" y="237.6" width="150" height="98.7">
			<feColorMatrix  type="matrix" values="1 0 0 0 0  0 1 0 0 0  0 0 1 0 0  0 0 0 1 0"/>
		</filter>
	</defs>
	<mask maskUnits="userSpaceOnUse" x="163.3" y="237.6" width="150" height="98.7" id="mask-4_84_">
		<g class="st113">
			<polygon id="path-3_84_" class="st1" points="-228.4,632.5 844.9,632.5 844.9,0 -228.4,0 			"/>
		</g>
	</mask>
	<path id="Fill-78" class="st114" d="M271.2,330c1.1,0.5,2.1,0.9,3.1,1.4c0.1,0,0.2,0,0.3,0c0.8,0.1,1.3,0.3,1.8,0.4
		c0.1-0.5-0.1-1.4-2.3-2c0,0,5-2.5,11.5,3c6.5,6,8,2.5,7,0.5c-1-1.5-3-1.5-5-2.5c-1.5-1-1.5-1.5-5-4.5c0,0,2,1.5,8.5,0.5l8-1
		c0,0-2.5-1-2.5-2.5c0-1,4-1,5.5-1.5c2-1-4.5-3.5-7-6.5c0,0,6.9,3,7.5,0.6l0-0.9c-0.5-3.3-1.5-3.8-4.5-6.3c-3-3-1-3.5-1-3.5
		s4,1.5,8.5,0c1.3-0.5,2.5-1.2,3.6-1.8l4.1-3.8c-3.3,0.8-12,2.7-15.2,0.7c-3.5-2.5-0.5-2,0.5-4c1-2,0-2-0.5-4c-1-1.5-0.5-5.4,3.9-7
		l0-1.5c-2.3-0.7-6.4-1.5-7.9-2.6c-3-2,1-5.5-1.5-8.5c-2-2.5-4.5,0-5.5-2.5c-1.5-2.5,2.5-15-1-12.5c-9.1,5.1-18.6,4.4-22,3.4
		c-3.7,0.4-7.4,0.5-11.1,0.1c-18.1-2-31.8-8.6-43.4-16.8c-6.9-3.3-13.6-0.3-16.8,0.7c0,0-7.7-3.6-12-2.6c0,0-5.7-5.7-10.6-4.7
		c-4.8,1-7.8,3.6-6.9,10c0,0,5.1-2.4,8.4-1.6c3.7,0.9,10.6,5.6,10.2,10.9c0,0,14.7,7.1,15,16.7c0,0-10.5,3.8-30.2-11.8
		c0,0,0.9,13.5,30.5,22.6c0,0,18.3,14.8,25.1,22.2c7.3,8,17.4,7.8,21.6,11.6c4.2,3.8,17.5,5.7,23.8,9.5
		C269.6,328.8,270.5,329.5,271.2,330"/>
	<defs>
		<filter id="Adobe_OpacityMaskFilter_57_" filterUnits="userSpaceOnUse" x="230.1" y="259.7" width="30.6" height="8.5">
			<feColorMatrix  type="matrix" values="1 0 0 0 0  0 1 0 0 0  0 0 1 0 0  0 0 0 1 0"/>
		</filter>
	</defs>
	<mask maskUnits="userSpaceOnUse" x="230.1" y="259.7" width="30.6" height="8.5" id="mask-4_83_">
		<g class="st115">
			<polygon id="path-3_83_" class="st1" points="-228.4,632.5 844.9,632.5 844.9,0 -228.4,0 			"/>
		</g>
	</mask>
	<path id="Fill-79" class="st116" d="M230.6,262.7c11.5,5.5,30.1,5.5,30.1,5.5v-1c-13-0.5-26.1-5-30.6-7.5L230.6,262.7z"/>
	<defs>
		<filter id="Adobe_OpacityMaskFilter_58_" filterUnits="userSpaceOnUse" x="232.1" y="265.2" width="14.6" height="4.5">
			<feColorMatrix  type="matrix" values="1 0 0 0 0  0 1 0 0 0  0 0 1 0 0  0 0 0 1 0"/>
		</filter>
	</defs>
	<mask maskUnits="userSpaceOnUse" x="232.1" y="265.2" width="14.6" height="4.5" id="mask-4_82_">
		<g class="st117">
			<polygon id="path-3_82_" class="st1" points="-228.4,632.5 844.9,632.5 844.9,0 -228.4,0 			"/>
		</g>
	</mask>
	<path id="Fill-80" class="st118" d="M232.6,266.7c2.5,1,11,3,11,3s6.5,0,0.5-1c-6.5-1.5-12-3.5-12-3.5L232.6,266.7z"/>
	<defs>
		<filter id="Adobe_OpacityMaskFilter_59_" filterUnits="userSpaceOnUse" x="212.6" y="280.8" width="19" height="12.5">
			<feColorMatrix  type="matrix" values="1 0 0 0 0  0 1 0 0 0  0 0 1 0 0  0 0 0 1 0"/>
		</filter>
	</defs>
	<mask maskUnits="userSpaceOnUse" x="212.6" y="280.8" width="19" height="12.5" id="mask-4_81_">
		<g class="st119">
			<polygon id="path-3_81_" class="st1" points="-228.4,632.5 844.9,632.5 844.9,0 -228.4,0 			"/>
		</g>
	</mask>
	<path id="Fill-81" class="st120" d="M231.6,293.3c-3.5-3.5-10-12-17.5-12.5c-2.5,0.5-1.5,2,0.5,3c2.5,1.5,8,1,15,9L231.6,293.3z"/>
	<defs>
		<filter id="Adobe_OpacityMaskFilter_60_" filterUnits="userSpaceOnUse" x="217.8" y="289.7" width="16.1" height="10.2">
			<feColorMatrix  type="matrix" values="1 0 0 0 0  0 1 0 0 0  0 0 1 0 0  0 0 0 1 0"/>
		</filter>
	</defs>
	<mask maskUnits="userSpaceOnUse" x="217.8" y="289.7" width="16.1" height="10.2" id="mask-4_80_">
		<g class="st121">
			<polygon id="path-3_80_" class="st1" points="-228.4,632.5 844.9,632.5 844.9,0 -228.4,0 			"/>
		</g>
	</mask>
	<path id="Fill-82" class="st122" d="M233.6,298.3c-2-3-11-8.5-13.5-8.5c-2.5-0.5-3.5,1.5,0,2.5c3,1,9,6,13,7.5
		C234.7,300.3,233.6,298.3,233.6,298.3"/>
	<defs>
		<filter id="Adobe_OpacityMaskFilter_61_" filterUnits="userSpaceOnUse" x="222.2" y="297.8" width="22.3" height="16.6">
			<feColorMatrix  type="matrix" values="1 0 0 0 0  0 1 0 0 0  0 0 1 0 0  0 0 0 1 0"/>
		</filter>
	</defs>
	<mask maskUnits="userSpaceOnUse" x="222.2" y="297.8" width="22.3" height="16.6" id="mask-4_79_">
		<g class="st123">
			<polygon id="path-3_79_" class="st1" points="-228.4,632.5 844.9,632.5 844.9,0 -228.4,0 			"/>
		</g>
	</mask>
	<path id="Fill-83" class="st124" d="M224.1,300.8c4.5,1.5,14,9,17.5,12c3,2.5,4.5,2,0-1.5c-4.5-3.5-13-12-16-13.5
		C225.6,297.8,219.1,299.8,224.1,300.8"/>
	<defs>
		<filter id="Adobe_OpacityMaskFilter_62_" filterUnits="userSpaceOnUse" x="238.1" y="298.7" width="17.2" height="11.7">
			<feColorMatrix  type="matrix" values="1 0 0 0 0  0 1 0 0 0  0 0 1 0 0  0 0 0 1 0"/>
		</filter>
	</defs>
	<mask maskUnits="userSpaceOnUse" x="238.1" y="298.7" width="17.2" height="11.7" id="mask-4_78_">
		<g class="st125">
			<polygon id="path-3_78_" class="st1" points="-228.4,632.5 844.9,632.5 844.9,0 -228.4,0 			"/>
		</g>
	</mask>
	<path id="Fill-84" class="st126" d="M239.2,298.8c-2.5,0-0.5,2,3.5,4.5c4,2.5,10,6,11.5,7c1.5,0.5,1-1.5,1-1.5c-7-3-11-7-12.5-9
		C242.7,299.8,241.7,298.3,239.2,298.8"/>
	<defs>
		<filter id="Adobe_OpacityMaskFilter_63_" filterUnits="userSpaceOnUse" x="242.2" y="307.3" width="21" height="11.6">
			<feColorMatrix  type="matrix" values="1 0 0 0 0  0 1 0 0 0  0 0 1 0 0  0 0 0 1 0"/>
		</filter>
	</defs>
	<mask maskUnits="userSpaceOnUse" x="242.2" y="307.3" width="21" height="11.6" id="mask-4_77_">
		<g class="st127">
			<polygon id="path-3_77_" class="st1" points="-228.4,632.5 844.9,632.5 844.9,0 -228.4,0 			"/>
		</g>
	</mask>
	<path id="Fill-85" class="st128" d="M243.7,310.3c4,2.5,13.5,6.5,17.5,8c4.5,2,0-1.5,0-1.5c-7-2-13-7.5-16-9.5
		C245.2,307.3,239.7,307.8,243.7,310.3"/>
	<defs>
		<filter id="Adobe_OpacityMaskFilter_64_" filterUnits="userSpaceOnUse" x="251.9" y="317.3" width="17" height="7.2">
			<feColorMatrix  type="matrix" values="1 0 0 0 0  0 1 0 0 0  0 0 1 0 0  0 0 0 1 0"/>
		</filter>
	</defs>
	<mask maskUnits="userSpaceOnUse" x="251.9" y="317.3" width="17" height="7.2" id="mask-4_76_">
		<g class="st129">
			<polygon id="path-3_76_" class="st1" points="-228.4,632.5 844.9,632.5 844.9,0 -228.4,0 			"/>
		</g>
	</mask>
	<path id="Fill-86" class="st130" d="M253.2,319.8c2,0.5,10,3.5,12.5,4.5c2.5,0.5,4.5,0,2-1c-2-1.5-11-4.5-14.5-6
		C251.7,317.3,251.2,319.3,253.2,319.8"/>
	<defs>
		<filter id="Adobe_OpacityMaskFilter_65_" filterUnits="userSpaceOnUse" x="267" y="316.3" width="13.8" height="5">
			<feColorMatrix  type="matrix" values="1 0 0 0 0  0 1 0 0 0  0 0 1 0 0  0 0 0 1 0"/>
		</filter>
	</defs>
	<mask maskUnits="userSpaceOnUse" x="267" y="316.3" width="13.8" height="5" id="mask-4_75_">
		<g class="st131">
			<polygon id="path-3_75_" class="st1" points="-228.4,632.5 844.9,632.5 844.9,0 -228.4,0 			"/>
		</g>
	</mask>
	<path id="Fill-87" class="st132" d="M269.2,318.8c4,0.5,11.5,2.5,11.5,2.5c-2.5-1-11-4-13-5C267.7,316.3,265.2,317.8,269.2,318.8"
		/>
	<defs>
		<filter id="Adobe_OpacityMaskFilter_66_" filterUnits="userSpaceOnUse" x="259.9" y="307.6" width="8.4" height="4.7">
			<feColorMatrix  type="matrix" values="1 0 0 0 0  0 1 0 0 0  0 0 1 0 0  0 0 0 1 0"/>
		</filter>
	</defs>
	<mask maskUnits="userSpaceOnUse" x="259.9" y="307.6" width="8.4" height="4.7" id="mask-4_74_">
		<g class="st133">
			<polygon id="path-3_74_" class="st1" points="-228.4,632.5 844.9,632.5 844.9,0 -228.4,0 			"/>
		</g>
	</mask>
	<path id="Fill-88" class="st134" d="M268.2,312.3c0,0-2-2.5-5.5-4c-3.5-2-3.5,1-1.5,1.5L268.2,312.3z"/>
	<defs>
		<filter id="Adobe_OpacityMaskFilter_67_" filterUnits="userSpaceOnUse" x="193.6" y="248.2" width="41.6" height="28.6">
			<feColorMatrix  type="matrix" values="1 0 0 0 0  0 1 0 0 0  0 0 1 0 0  0 0 0 1 0"/>
		</filter>
	</defs>
	<mask maskUnits="userSpaceOnUse" x="193.6" y="248.2" width="41.6" height="28.6" id="mask-4_73_">
		<g class="st135">
			<polygon id="path-3_73_" class="st1" points="-228.4,632.5 844.9,632.5 844.9,0 -228.4,0 			"/>
		</g>
	</mask>
	<path id="Fill-89" class="st136" d="M235.2,276.8l-1.5-1.5c-8-1.5-18-9.5-21.1-11.5c-3-2.5-4-4.5-6-5.5c-1.5-1.5-4,0.5-5.5-0.5
		c-1.5-1-1-3-1-3s-1.5,0-3-0.5c-1-0.5-2.5-3.5-3-6c-2.5,8.5,5.5,12.5,5.5,12.5c-2,5.5,0.5,8,4,8.5c3.5,0.5,5-1.5,5-1.5l1,2
		c4-1,10,1,15.5,4C230.6,277.3,235.2,276.8,235.2,276.8"/>
	<defs>
		<filter id="Adobe_OpacityMaskFilter_68_" filterUnits="userSpaceOnUse" x="187.4" y="247.5" width="4.1" height="7.7">
			<feColorMatrix  type="matrix" values="1 0 0 0 0  0 1 0 0 0  0 0 1 0 0  0 0 0 1 0"/>
		</filter>
	</defs>
	<mask maskUnits="userSpaceOnUse" x="187.4" y="247.5" width="4.1" height="7.7" id="mask-4_72_">
		<g class="st137">
			<polygon id="path-3_72_" class="st1" points="-228.4,632.5 844.9,632.5 844.9,0 -228.4,0 			"/>
		</g>
	</mask>
	<path id="Fill-90" class="st138" d="M188,247.7c-2,1.5,1.5,6.5,3.5,7.5c-1.5-2.5-1.5-5-1.5-6C189.5,247.7,188.5,247.2,188,247.7"/>
	<defs>
		<filter id="Adobe_OpacityMaskFilter_69_" filterUnits="userSpaceOnUse" x="483.7" y="292.7" width="11.7" height="11.7">
			<feColorMatrix  type="matrix" values="1 0 0 0 0  0 1 0 0 0  0 0 1 0 0  0 0 0 1 0"/>
		</filter>
	</defs>
	<mask maskUnits="userSpaceOnUse" x="483.7" y="292.7" width="11.7" height="11.7" id="mask-4_71_">
		<g class="st139">
			<polygon id="path-3_71_" class="st1" points="-228.4,632.5 844.9,632.5 844.9,0 -228.4,0 			"/>
		</g>
	</mask>
	<path id="Fill-91" class="st140" d="M488.9,296.7v1.7h0.8c0.6,0,1-0.3,1-0.8c0-0.6-0.3-0.8-1-0.8H488.9z M490.9,299.3l1.2,2.3h-1.4
		l-1.1-2h-0.1h-0.8v2h-1.2v-6h2c1.4,0,2.3,0.8,2.3,1.9C491.9,298.3,491.6,298.9,490.9,299.3z M493.3,302.3c1-1,1.6-2.3,1.6-3.8
		c0-1.5-0.5-2.7-1.6-3.8c-1-1-2.3-1.6-3.7-1.6c-1.5,0-2.7,0.5-3.8,1.6c-1,1-1.5,2.3-1.5,3.8c0,1.5,0.5,2.7,1.5,3.8
		c1,1,2.3,1.6,3.8,1.6C491,303.9,492.3,303.4,493.3,302.3z M489.5,292.7c1.6,0,3,0.6,4.1,1.7c1.1,1.1,1.7,2.5,1.7,4.1
		c0,1.6-0.6,3-1.7,4.1c-1.1,1.1-2.5,1.7-4.1,1.7s-3-0.6-4.1-1.7c-1.1-1.1-1.7-2.5-1.7-4.1c0-1.6,0.6-3,1.7-4.1
		C486.6,293.3,487.9,292.7,489.5,292.7z"/>
</g>
</svg>
