<?xml version="1.0" encoding="utf-8"?>
<!-- Generator: Adobe Illustrator 22.1.0, SVG Export Plug-In . SVG Version: 6.00 Build 0)  -->
<svg version="1.1" id="Layer_2_1_" xmlns="http://www.w3.org/2000/svg" xmlns:xlink="http://www.w3.org/1999/xlink" x="0px" y="0px"
	 viewBox="0 0 640 480" style="enable-background:new 0 0 640 480;" xml:space="preserve">
<style type="text/css">
	.st0{fill:#007DBA;}
</style>
<path id="path2426" class="st0" d="M320,140.7c22.5,0,48.1,19.5,48.1,46.5c0,15.2-4.8,26.9-12,37.7c-4.6,6.8-8.1,14.7-9.5,20.4
	c-1.5,6.4-4.9,22,14.1,22.3c12.4,0.3,42.9-10.5,67.5-40.2c18.9-23.8,30.2-54.1,30.2-87.1C458.5,63.2,396.6,0.7,320,0.7
	c-76.6,0-138.6,62.5-138.6,139.6c0,33,11.2,63.2,30.2,87.1c24.7,29.7,55.1,40.5,67.5,40.2c19-0.3,15.6-15.8,14.1-22.3
	c-1.4-5.7-4.9-13.6-9.5-20.4c-7.1-10.7-12-22.5-12-37.7C271.8,160.2,297.4,140.7,320,140.7 M564.9,281.8
	c-5.7-4.7-15.6-11.6-36.1-14.7c-28.4-4.2-53.7,2.4-68.9,8.5c-20,7.9-44.7,26-61.8,49.4c-18,24.8-27.3,62.3-18.4,101.3
	c2.5,11,5.3,17.2,9.3,24.9c5.3,10.5,19.4,25.1,31.7,27.7c9.7,2,17.3-3.6,21-7.8c24.8-28.7,118.6-139.8,128.8-154
	C580.6,303,574.1,289.4,564.9,281.8 M180.1,275.6c-15.2-6-40.5-12.7-68.9-8.5c-20.4,3.2-30.5,10-36.1,14.7
	c-9.2,7.6-15.8,21.2-5.7,35.3c10.1,14.2,104,125.3,128.7,154c3.7,4.2,11.3,9.8,21,7.8c12.4-2.6,26.4-17.3,31.7-27.7
	c4.1-7.7,6.8-13.9,9.4-24.9c8.9-39-0.6-76.5-18.4-101.3C224.8,301.5,200.1,283.5,180.1,275.6"/>
</svg>
