<?xml version="1.0" encoding="utf-8"?>
<!-- Generator: Adobe Illustrator 22.1.0, SVG Export Plug-In . SVG Version: 6.00 Build 0)  -->
<svg version="1.1" id="Layer_2_1_" xmlns="http://www.w3.org/2000/svg" xmlns:xlink="http://www.w3.org/1999/xlink" x="0px" y="0px"
	 viewBox="0 0 640 480" style="enable-background:new 0 0 640 480;" xml:space="preserve">
<style type="text/css">
	.st0{fill:#4FC1DF;}
	.st1{fill:#A2CE64;}
	.st2{fill:#204688;}
</style>
<g>
	<path class="st0" d="M400.7,185.2c-1.9,0.1-3.5,0.3-5,0.3c-27.2,0-54.4-0.1-81.6,0.1c-4,0-5.8-1.2-7.3-4.9
		c-9.3-22.5-18.9-45-28.9-68.6c-44.2,98.2-87.9,195.6-132.5,294.9c-10.2-13.6-20.1-25.3-28.2-38.3C28.1,227,106.4,41.2,265.3,5.4
		c16.4-3.7,33.5-3.9,50.3-5.4c1.9-0.2,5,1.6,5.6,3.3c26.5,59.7,52.8,119.5,79.1,179.2C400.5,183.1,400.5,183.8,400.7,185.2z"/>
	<path class="st1" d="M155.2,412.9c29.8,0,59.7,0,89.5,0c0.4-0.6,0.8-1.1,1.1-1.8c-1.6-1.6-2.9-3.8-4.9-4.8
		c-12.2-6.5-15-10.6-12-24.4c2.4-11.3,5.7-22.6,10.2-33.2c14.7-35.7,30.1-71,45.1-106.6c1.6-3.8,3.5-5.3,7.7-5.3
		c42,0.2,83.9,0.2,125.9,0c3.7,0,5.6,0.9,7.1,4.5c15.1,36.1,30.7,72.1,45.3,108.4c10.2,25.1,5.6,48.8-10.9,70
		c-15.7,20.1-36.9,33-60,42.6c-74.1,30.9-144.1,19.8-210.8-21.9c-10.4-6.6-19.7-15.1-29.5-22.5c-1.5-1.1-3.5-1.8-5.2-2.6
		C154,414.6,154.6,413.7,155.2,412.9z"/>
	<path class="st2" d="M537.1,338.9C486.4,229.3,435.6,119.7,384.2,8.4c70,21.6,121.1,63.6,152,128.2c31.9,66.8,31.4,134.6,2.5,202.3
		C538.2,338.9,537.6,338.9,537.1,338.9z"/>
</g>
</svg>
