<?xml version="1.0" encoding="utf-8"?>
<!-- Generator: Adobe Illustrator 22.1.0, SVG Export Plug-In . SVG Version: 6.00 Build 0)  -->
<svg version="1.1" id="Layer_2_1_" xmlns="http://www.w3.org/2000/svg" xmlns:xlink="http://www.w3.org/1999/xlink" x="0px" y="0px"
	 viewBox="0 0 640 480" style="enable-background:new 0 0 640 480;" xml:space="preserve">
<style type="text/css">
	.st0{fill:#A32A4D;}
</style>
<path class="st0" d="M549.2,61.9C452.9-8.4,319.7,7.6,244.1,96.7C141,42.4,45.8,31.2,13,75.1c-41.2,54.4,28,175.1,155.5,272.3
	c-38.4-55.2-39.2-130.4,3.6-187.1c53.2-71.2,154.3-85.2,226.7-32.8c71.2,53.6,86,153.5,32.8,224.7c-37.6,48.8-97.6,71.2-154.3,62
	v0.8c2,0.8,2.8,2,3.6,2.8c99.2,73.2,239.5,53.6,313.5-44.8C668,274.3,648.4,134.7,549.2,61.9L549.2,61.9z"/>
</svg>
