<?xml version="1.0" encoding="utf-8"?>
<!-- Generator: Adobe Illustrator 22.1.0, SVG Export Plug-In . SVG Version: 6.00 Build 0)  -->
<svg version="1.1" id="Layer_1" xmlns="http://www.w3.org/2000/svg" xmlns:xlink="http://www.w3.org/1999/xlink" x="0px" y="0px"
	 viewBox="0 0 640 480" style="enable-background:new 0 0 640 480;" xml:space="preserve">
<path d="M472,52.2c0.4,0,0.7,0.4,1.1,0.4c2.2,0.4,4.8,0.7,7.1,1.1c6.7,1.1,13.4,2.6,19.7,3.7c11.5,2.6,23.1,5.2,34.6,8.9
	c8.9,2.6,17.9,5.6,26.4,8.9c3,1.1,5.6,1.9,8.6,3c11.5,4.1,22.7,8.6,33.9,13.8c11.2,5.2,21.6,10.8,32,17.1c1.5,0.7,3,1.9,4.5,3
	c0,1.9,0,3.7-0.4,5.2c-0.4,3.7-1.1,7.5-1.9,11.2c-1.5,6.7-3.7,13-6.7,19c-4.5,9.7-10.1,18.6-16.8,26.8
	c-8.2,10.4-17.5,19.4-27.9,27.6c-8.2,6.7-16.8,12.7-26.1,18.3c-11.9,7.1-23.8,13.4-36.5,19.4c-0.7,0.4-1.1,0.4-1.9,0.7
	c0.4,0.4,0.7,0.7,0.7,0.7c7.8,3.4,15.3,7.1,23.1,11.2c8.9,4.8,17.5,10.1,26.1,15.6c7.5,5.2,14.5,10.4,21.2,16.4
	c10.1,8.6,19,18.3,26.4,29.1c6,8.2,10.8,17.1,14.5,26.8c2.6,6.7,4.5,13.4,5.2,20.5c0.4,2.2,0.4,4.8,0.7,7.1c0,0.4,0,0.4,0,0.7
	c-0.4,0.4-1.1,0.7-1.9,1.1c-14.2,8.9-29.1,16.8-44.7,23.5c-10.1,4.5-20.1,8.2-30.5,11.5c-3.4,1.1-7.1,2.6-10.4,3.7
	c-7.8,2.6-16,5.2-23.8,7.8c-10.4,3-20.9,5.6-31.3,7.8c-6.7,1.5-13.8,2.6-20.9,3.7c-1.5,0.4-2.6,0.4-4.1,0.7c-0.7,0-1.9,0.4-2.6,0
	c0-0.4-0.4-0.7-0.4-1.1c0-0.7,0-1.5,0-2.6c0-35.8,0-71.5,0-107.7c0-3.7,0-7.1-0.7-10.8c-1.9-14.2-7.1-26.8-15.6-38
	c-0.7-1.1-1.9-2.2-2.6-3.4c-0.7-0.7-1.1-0.7-2.2-0.7c-2.6,0.7-5.6,1.5-8.2,1.9c-6.7,1.5-13.8,3-20.5,4.1c-7.5,1.5-14.9,2.6-22,3.4
	c-5.6,0.7-11.5,1.5-17.1,1.9c-5.2,0.4-10.4,1.1-15.6,1.5c-9.7,0.7-19.4,1.1-29.4,1.5c-18.3,0.7-36.5,0-54.8-1.1
	c-6.7-0.4-13.4-1.1-20.5-1.9c-5.2-0.4-10.8-1.1-16-1.9c-5.6-0.7-11.2-1.5-16.4-2.6c-6.3-1.1-12.7-2.2-19.4-3.4
	c-4.8-0.7-9.3-2.2-14.2-3c-1.1-0.4-1.9-0.4-3-0.7c-0.7,0-1.1,0-1.9,0.7c-1.5,1.9-2.6,3.4-4.1,5.2c-5.6,7.8-10.1,16.4-12.3,25.7
	c-1.9,6.7-2.6,13.4-2.6,20.1c0,36.1,0,72.6,0.4,108.8c0,1.1,0,2.2,0,3c-0.7,0.4-1.5,0.4-2.2,0c-4.8-0.7-9.3-1.5-14.2-2.2
	c-14.9-2.6-29.8-6.3-44.3-10.4c-10.1-3-19.7-6.3-29.4-9.7c-3.4-1.1-6.7-2.2-9.7-3.4c-10.4-3.7-20.9-7.8-31.3-12.3
	c-13-6-25.3-12.7-37.3-20.1c-0.7-0.4-1.1-0.7-1.5-1.1c0-0.7,0-1.1,0-1.9C1.1,358,3,349.8,5.6,342c3.7-10.8,8.9-20.9,15.6-30.2
	c7.8-10.8,16.8-20.1,26.8-29.1c11.5-10.1,23.8-18.6,36.9-26.1c10.1-6,20.9-11.2,31.7-16c0.4-0.4,0.7-0.4,1.5-0.7c0,0,0,0,0-0.4
	c0-0.4-0.7-0.7-1.1-0.7c-5.6-2.6-11.2-5.2-16.8-7.8c-7.1-3.7-14.2-7.5-21.2-11.9c-7.8-4.8-15.6-10.1-22.7-15.6
	c-12.3-9.7-23.5-20.5-33.2-32.8c-8.9-11.9-16-25-20.1-39.5c-1.5-6-2.6-12.3-3-18.3c0-0.4,0-0.7,0-1.1c0.4-0.7,1.5-1.1,2.2-1.5
	c4.8-2.6,9.3-5.6,14.2-8.2c10.1-5.6,20.5-10.8,30.9-15.3c7.5-3.4,15.3-6.3,23.1-8.9c6-1.9,11.5-4.1,17.5-6.3
	c5.2-1.9,10.4-3.4,15.3-4.8c7.5-2.6,15.3-4.5,23.1-6.3c7.5-1.9,14.5-3.4,22-4.8c6.3-1.5,13-2.2,19.4-3.4c0.4,0,0.7-0.4,1.1-0.4
	c0.4,0,0.7,0,1.5,0c0,1.1,0,2.2,0,3.4c0,36.1,0,72.3,0,108c0,6,0.7,12.3,1.9,17.9c3,12.7,8.6,23.8,17.1,33.9
	c0.4,0.4,0.7,0.7,1.1,1.1c86.4-19.7,172.5-19.7,258.5,0c0.4,0,0.4,0,0.4-0.4c0.4-0.4,0.7-0.7,0.7-1.1c3.4-4.1,6.3-8.2,8.6-12.7
	c6.7-11.9,10.1-25,10.1-38.7c0-36.1,0-72.3,0-108.4c0-1.1,0-2.2,0-3.4C470.5,52.2,471.2,52.2,472,52.2z M220.2,240.7
	c0.4,0.4,0.4,0.4,0.7,0.7c1.9,1.1,3.4,1.9,5.2,3c4.8,2.6,10.1,5.2,15.3,7.5c6.7,3,13.4,5.2,20.5,7.5c8.2,2.6,16.8,4.1,25,5.6
	c7.1,1.1,14.2,1.9,21.6,1.9c5.2,0,10.8,0,16.4,0c14.2,0.4,28.3-1.1,42.1-4.1c10.1-2.2,19.7-5.2,29.4-8.9c8.6-3.4,17.1-7.5,25-11.9
	c0.4-0.4,1.1-0.4,1.1-1.1l-0.4-0.4c-5.6-3-11.2-6-16.8-8.6c-5.2-2.2-10.1-4.1-15.6-6c-6.7-2.2-13.4-4.5-20.5-6
	c-5.6-1.1-10.8-2.2-16.4-3c-6.3-0.7-12.7-1.5-19-1.5c-5.2,0-10.8,0-16,0c-10.8,0-21.2,0.7-31.7,2.2c-6,0.7-11.5,2.2-17.5,3.7
	c-5.6,1.5-10.8,3-16,4.8c-10.8,3.7-21.2,8.6-30.9,14.2C220.5,239.9,220.5,240.3,220.2,240.7z"/>
</svg>
