<?xml version="1.0" encoding="utf-8"?>
<!-- Generator: Adobe Illustrator 22.1.0, SVG Export Plug-In . SVG Version: 6.00 Build 0)  -->
<svg version="1.1" id="Layer_1" xmlns="http://www.w3.org/2000/svg" xmlns:xlink="http://www.w3.org/1999/xlink" x="0px" y="0px"
	 viewBox="0 0 640 480" style="enable-background:new 0 0 640 480;" xml:space="preserve">
<style type="text/css">
	.st0{fill:#F89724;}
	.st1{fill:#B30639;}
	.st2{fill:#010101;}
	.st3{fill:none;stroke:#000000;stroke-width:0.165;stroke-miterlimit:10;}
	.st4{fill:#C9CACC;}
	.st5{fill:none;stroke:#C9CACC;stroke-width:0.165;stroke-miterlimit:10;}
	.st6{fill:none;stroke:#000000;stroke-width:0.418;stroke-linecap:round;stroke-miterlimit:10;}
	.st7{enable-background:new    ;}
</style>
<g>
	<path d="M498.8,101.4l-1.4-6.9l-6.9-1.4c-0.6,0-45.7-9.7-85.9-32.1C347.2,28.8,328,8.6,327.8,8.3L320,0l-7.8,8.3
		C312,8.6,292.6,28.8,235.5,61c-40.2,22.4-85.4,31.9-85.9,32.1l-6.9,1.4l-1.4,6.9c-8,43-8,86.2-0.3,128.3l3.6,16.9l0.8,3.9
		c10.8,44.3,30.2,85.9,57.4,123.6c29.7,40.7,67.1,74.8,111.4,101.2l5.3,3l5.3-3c44.3-26.6,82-60.7,111.4-101.2
		c28.3-37.4,47.7-79,58.5-123.3L499,230C506.8,187.6,506.8,144.4,498.8,101.4"/>
	<path class="st0" d="M488.5,103.4c0,0-46.8-9.7-88.7-33.3c-60.4-33.5-79.5-54.3-79.5-54.3S301.4,36.6,241,70.4
		c-42.1,23.6-89,33.3-89,33.3c-8.6,46.3-7.5,92.8,2.2,136.9h332C496.3,196.2,497.1,149.9,488.5,103.4"/>
	<path class="st1" d="M320.3,466.7c87.9-52.4,145.8-134.7,166-226.1h-332C174.5,332,232.4,414,320.3,466.7"/>
	<path class="st2" d="M281.5,384.7v-5.3c0-0.8,0-1.4-0.6-1.4c-0.8,0-3.6,1.4-4.4,1.9c-0.3,0-0.3,0.3-0.6,0.3c0,0-0.3-0.3-0.3-0.6
		c0-0.3,0.3-0.6,0.3-0.6c0.3,0,7.8-5,9.1-6.1c0.3-0.3,0.8-0.6,1.1-0.6c0.3,0,0.6,0.6,0.6,0.8c0,0.3-0.3,4.2-0.3,10.3v7.5
		c0,3.9,0,7.2,0.3,8.9c0,1.4,0.3,1.9,1.7,2.2c0.6,0,2.2,0.3,2.5,0.3s0.3,0,0.3,0.3s-0.3,0.3-0.6,0.3c-3,0-5.5,0-6.7,0
		c-0.8,0-4.2,0-6.7,0c-0.6,0-0.6,0-0.6-0.3s0.3-0.3,0.3-0.3c0.6,0,2.5,0,3-0.3c1.4-0.3,1.4-0.8,1.7-2.2c0.3-1.7,0.3-5.3,0.3-8.9
		L281.5,384.7z"/>
	<path class="st3" d="M281.5,384.7v-5.3c0-0.8,0-1.4-0.6-1.4c-0.8,0-3.6,1.4-4.4,1.9c-0.3,0-0.3,0.3-0.6,0.3c0,0-0.3-0.3-0.3-0.6
		c0-0.3,0.3-0.6,0.3-0.6c0.3,0,7.8-5,9.1-6.1c0.3-0.3,0.8-0.6,1.1-0.6c0.3,0,0.6,0.6,0.6,0.8c0,0.3-0.3,4.2-0.3,10.3v7.5
		c0,3.9,0,7.2,0.3,8.9c0,1.4,0.3,1.9,1.7,2.2c0.6,0,2.2,0.3,2.5,0.3s0.3,0,0.3,0.3s-0.3,0.3-0.6,0.3c-3,0-5.5,0-6.7,0
		c-0.8,0-4.2,0-6.7,0c-0.6,0-0.6,0-0.6-0.3s0.3-0.3,0.3-0.3c0.6,0,2.5,0,3-0.3c1.4-0.3,1.4-0.8,1.7-2.2c0.3-1.7,0.3-5.3,0.3-8.9
		L281.5,384.7z"/>
	<path class="st2" d="M317,383.3c0,11.1-9.7,18.3-14.7,20.5c-0.3,0-0.3,0.3-0.8,0.3c-0.3,0-0.3-0.3-0.3-0.3c0-0.3,0.3-0.6,0.6-0.6
		c4.2-2.5,10.3-9.1,10.3-18.6c0-6.9-3-10.3-6.1-10.3c-2.8,0-4.7,2.5-4.7,5.8c0,6.1,3.9,7.5,5.3,7.5s2.2-0.3,2.8-0.6
		c0.6-0.3,0.6-0.6,0.8-0.6s0.3,0.3,0.3,0.3s0,0.3-0.3,0.6c-1.1,1.1-3.3,1.9-5.3,1.9c-5.8,0-8-4.4-8-7.8c0-5.3,4.2-9.4,10.3-9.4
		C313.3,372.2,317,377.2,317,383.3"/>
	<path class="st3" d="M317,383.3c0,11.1-9.7,18.3-14.7,20.5c-0.3,0-0.3,0.3-0.8,0.3c-0.3,0-0.3-0.3-0.3-0.3c0-0.3,0.3-0.6,0.6-0.6
		c4.2-2.5,10.3-9.1,10.3-18.6c0-6.9-3-10.3-6.1-10.3c-2.8,0-4.7,2.5-4.7,5.8c0,6.1,3.9,7.5,5.3,7.5s2.2-0.3,2.8-0.6
		c0.6-0.3,0.6-0.6,0.8-0.6s0.3,0.3,0.3,0.3s0,0.3-0.3,0.6c-1.1,1.1-3.3,1.9-5.3,1.9c-5.8,0-8-4.4-8-7.8c0-5.3,4.2-9.4,10.3-9.4
		C313.3,372.2,317,377.2,317,383.3z"/>
	<path class="st2" d="M320.8,403c-0.3,0-0.6-0.3-0.6-0.6c0-0.3,0.3-0.6,0.8-1.1c5.5-5,13.3-11.1,13.3-19.7c0-6.4-3.3-7.5-5.5-7.5
		c-1.7,0-3,0.3-4.2,1.4c-0.8,0.8-1.7,2.8-1.7,3.9c0,0.3,0,0.8-0.6,0.8c-0.3,0-0.3-0.3-0.3-0.8c0-0.3-0.3-3.6-0.3-4.7
		c0-0.3,0-0.6,0.6-0.8c1.7-0.8,3.6-1.4,7.2-1.4c6.9,0,10,3.9,10,8.6c0,7.8-8.6,14.4-13.6,18.6c-0.3,0,0,0.3,0,0.3h2.8
		c0.6,0,5.3,0,6.9-0.3c2.8-0.3,3.9-1.7,4.4-3.6c0-0.6,0.3-0.6,0.6-0.6c0.3,0,0.3,0.3,0.3,0.8c0,0.6-0.8,4.4-1.1,5.8
		c-0.3,1.1-0.8,1.1-3.3,1.1L320.8,403L320.8,403z"/>
	<path class="st3" d="M320.8,403c-0.3,0-0.6-0.3-0.6-0.6c0-0.3,0.3-0.6,0.8-1.1c5.5-5,13.3-11.1,13.3-19.7c0-6.4-3.3-7.5-5.5-7.5
		c-1.7,0-3,0.3-4.2,1.4c-0.8,0.8-1.7,2.8-1.7,3.9c0,0.3,0,0.8-0.6,0.8c-0.3,0-0.3-0.3-0.3-0.8c0-0.3-0.3-3.6-0.3-4.7
		c0-0.3,0-0.6,0.6-0.8c1.7-0.8,3.6-1.4,7.2-1.4c6.9,0,10,3.9,10,8.6c0,7.8-8.6,14.4-13.6,18.6c-0.3,0,0,0.3,0,0.3h2.8
		c0.6,0,5.3,0,6.9-0.3c2.8-0.3,3.9-1.7,4.4-3.6c0-0.6,0.3-0.6,0.6-0.6c0.3,0,0.3,0.3,0.3,0.8c0,0.6-0.8,4.4-1.1,5.8
		c-0.3,1.1-0.8,1.1-3.3,1.1h-15.8V403z"/>
	<path class="st2" d="M364.3,373c0.8,0,0.8,0,0.8,0.3s-0.3,0.6-0.3,0.8c-3.3,4.7-9.4,20.5-10,25.8c0,0.6,0,0.8,0,1.4
		c0,0.8-3,2.5-5,2.5c-0.6,0-0.6,0-0.6-0.6s0-1.1,0.3-1.7c1.1-3.9,6.1-15.5,11.6-24.9H351c-1.1,0-2.8,0-3.6,0.8
		c-0.8,0.6-1.1,1.7-1.4,2.5c0,0.3-0.3,0.6-0.3,0.6c-0.3,0-0.3-0.3-0.3-0.6c0-1.4,0.6-6.1,0.6-6.7c0-0.3,0.3-0.6,0.3-0.6
		c0.3,0,1.1,0.3,5.3,0.3L364.3,373L364.3,373z"/>
	<path class="st3" d="M364.3,373c0.8,0,0.8,0,0.8,0.3s-0.3,0.6-0.3,0.8c-3.3,4.7-9.4,20.5-10,25.8c0,0.6,0,0.8,0,1.4
		c0,0.8-3,2.5-5,2.5c-0.6,0-0.6,0-0.6-0.6s0-1.1,0.3-1.7c1.1-3.9,6.1-15.5,11.6-24.9H351c-1.1,0-2.8,0-3.6,0.8
		c-0.8,0.6-1.1,1.7-1.4,2.5c0,0.3-0.3,0.6-0.3,0.6c-0.3,0-0.3-0.3-0.3-0.6c0-1.4,0.6-6.1,0.6-6.7c0-0.3,0.3-0.6,0.3-0.6
		c0.3,0,1.1,0.3,5.3,0.3L364.3,373L364.3,373z"/>
	<path class="st4" d="M281.5,383v-5.3c0-0.8,0-1.4-0.6-1.4c-0.8,0-3.6,1.7-4.4,1.9c-0.3,0-0.3,0.3-0.6,0.3c0,0-0.3-0.3-0.3-0.6
		c0-0.3,0.3-0.6,0.3-0.6c0.3,0,7.8-5,9.1-6.1c0.3-0.3,0.8-0.6,1.1-0.6c0.3,0,0.6,0.6,0.6,0.8c0,0.3-0.3,4.2-0.3,10.3v7.5
		c0,3.9,0,7.2,0.3,8.9c0,1.4,0.3,1.9,1.7,2.2c0.6,0,2.2,0.3,2.5,0.3s0.3,0,0.3,0.6c0,0.3-0.3,0.3-0.6,0.3c-3,0-5.5,0-6.7,0
		c-0.8,0-4.2,0-6.7,0c-0.6,0-0.6,0-0.6-0.3s0.3-0.6,0.3-0.6c0.6,0,2.5,0,3-0.3c1.4-0.3,1.4-0.8,1.7-2.2c0.3-1.7,0.3-5.3,0.3-8.9
		L281.5,383z"/>
	<path class="st5" d="M281.5,383v-5.3c0-0.8,0-1.4-0.6-1.4c-0.8,0-3.6,1.7-4.4,1.9c-0.3,0-0.3,0.3-0.6,0.3c0,0-0.3-0.3-0.3-0.6
		c0-0.3,0.3-0.6,0.3-0.6c0.3,0,7.8-5,9.1-6.1c0.3-0.3,0.8-0.6,1.1-0.6c0.3,0,0.6,0.6,0.6,0.8c0,0.3-0.3,4.2-0.3,10.3v7.5
		c0,3.9,0,7.2,0.3,8.9c0,1.4,0.3,1.9,1.7,2.2c0.6,0,2.2,0.3,2.5,0.3s0.3,0,0.3,0.6c0,0.3-0.3,0.3-0.6,0.3c-3,0-5.5,0-6.7,0
		c-0.8,0-4.2,0-6.7,0c-0.6,0-0.6,0-0.6-0.3s0.3-0.6,0.3-0.6c0.6,0,2.5,0,3-0.3c1.4-0.3,1.4-0.8,1.7-2.2c0.3-1.7,0.3-5.3,0.3-8.9
		L281.5,383z"/>
	<path class="st4" d="M317,381.6c0,11.1-9.7,18.3-14.7,20.5c-0.3,0-0.3,0.3-0.8,0.3c-0.3,0-0.3-0.3-0.3-0.6c0-0.3,0.3-0.6,0.6-0.6
		c4.2-2.5,10.3-9.1,10.3-18.6c0-6.9-3-10.3-6.1-10.3c-2.8,0-4.7,2.5-4.7,6.1c0,6.1,3.9,7.5,5.3,7.5s2.2-0.3,2.8-0.6s0.6-0.6,0.8-0.6
		s0.3,0.3,0.3,0.3s0,0.3-0.3,0.6c-1.1,1.1-3.3,1.9-5.3,1.9c-5.8,0-8-4.4-8-7.8c0-5.3,4.2-9.4,10.3-9.4
		C313.3,370.8,317,375.5,317,381.6"/>
	<path class="st5" d="M317,381.6c0,11.1-9.7,18.3-14.7,20.5c-0.3,0-0.3,0.3-0.8,0.3c-0.3,0-0.3-0.3-0.3-0.6c0-0.3,0.3-0.6,0.6-0.6
		c4.2-2.5,10.3-9.1,10.3-18.6c0-6.9-3-10.3-6.1-10.3c-2.8,0-4.7,2.5-4.7,6.1c0,6.1,3.9,7.5,5.3,7.5s2.2-0.3,2.8-0.6s0.6-0.6,0.8-0.6
		s0.3,0.3,0.3,0.3s0,0.3-0.3,0.6c-1.1,1.1-3.3,1.9-5.3,1.9c-5.8,0-8-4.4-8-7.8c0-5.3,4.2-9.4,10.3-9.4
		C313.3,370.8,317,375.5,317,381.6z"/>
	<path class="st4" d="M320.8,401.6c-0.3,0-0.6-0.3-0.6-0.6c0-0.3,0.3-0.6,0.8-1.1c5.5-5,13.3-11.1,13.3-19.7c0-6.4-3.3-7.5-5.5-7.5
		c-1.7,0-3,0.3-4.2,1.4c-0.8,0.8-1.7,2.8-1.7,3.9c0,0.6,0,0.8-0.6,0.8c-0.3,0-0.3-0.3-0.3-0.8c0-0.3-0.3-3.6-0.3-4.7
		c0-0.3,0-0.6,0.6-0.8c1.7-0.8,3.6-1.4,7.2-1.4c6.9,0,10,3.9,10,8.6c0,7.8-8.6,14.4-13.6,18.6c-0.3,0,0,0.3,0,0.3h2.8
		c0.6,0,5.3,0,6.9-0.3c2.8-0.3,3.9-1.7,4.4-3.6c0-0.6,0.3-0.6,0.6-0.6c0.3,0,0.3,0.3,0.3,0.8c0,0.6-0.8,4.4-1.1,5.8
		c-0.3,1.1-0.8,1.1-3.3,1.1h-15.8V401.6z"/>
	<path class="st5" d="M320.8,401.6c-0.3,0-0.6-0.3-0.6-0.6c0-0.3,0.3-0.6,0.8-1.1c5.5-5,13.3-11.1,13.3-19.7c0-6.4-3.3-7.5-5.5-7.5
		c-1.7,0-3,0.3-4.2,1.4c-0.8,0.8-1.7,2.8-1.7,3.9c0,0.6,0,0.8-0.6,0.8c-0.3,0-0.3-0.3-0.3-0.8c0-0.3-0.3-3.6-0.3-4.7
		c0-0.3,0-0.6,0.6-0.8c1.7-0.8,3.6-1.4,7.2-1.4c6.9,0,10,3.9,10,8.6c0,7.8-8.6,14.4-13.6,18.6c-0.3,0,0,0.3,0,0.3h2.8
		c0.6,0,5.3,0,6.9-0.3c2.8-0.3,3.9-1.7,4.4-3.6c0-0.6,0.3-0.6,0.6-0.6c0.3,0,0.3,0.3,0.3,0.8c0,0.6-0.8,4.4-1.1,5.8
		c-0.3,1.1-0.8,1.1-3.3,1.1h-15.8V401.6z"/>
	<path class="st4" d="M364.3,371.6c0.8,0,0.8,0.3,0.8,0.3c0,0.3-0.3,0.6-0.3,0.8c-3.3,4.7-9.4,20.5-10,25.8c0,0.6,0,0.8,0,1.4
		c0,0.8-3,2.5-5,2.5c-0.6,0-0.6,0-0.6-0.6c0-0.3,0-1.1,0.3-1.7c1.1-3.9,6.1-15.5,11.6-24.9H351c-1.1,0-2.8,0-3.6,0.8
		c-0.8,0.6-1.1,1.7-1.4,2.5c0,0.3-0.3,0.6-0.3,0.6c-0.3,0-0.3-0.3-0.3-0.6c0-1.4,0.6-6.1,0.6-6.7c0-0.3,0.3-0.6,0.3-0.6
		c0.3,0,1.1,0.3,5.3,0.3L364.3,371.6L364.3,371.6z"/>
	<path class="st5" d="M364.3,371.6c0.8,0,0.8,0.3,0.8,0.3c0,0.3-0.3,0.6-0.3,0.8c-3.3,4.7-9.4,20.5-10,25.8c0,0.6,0,0.8,0,1.4
		c0,0.8-3,2.5-5,2.5c-0.6,0-0.6,0-0.6-0.6c0-0.3,0-1.1,0.3-1.7c1.1-3.9,6.1-15.5,11.6-24.9H351c-1.1,0-2.8,0-3.6,0.8
		c-0.8,0.6-1.1,1.7-1.4,2.5c0,0.3-0.3,0.6-0.3,0.6c-0.3,0-0.3-0.3-0.3-0.6c0-1.4,0.6-6.1,0.6-6.7c0-0.3,0.3-0.6,0.3-0.6
		c0.3,0,1.1,0.3,5.3,0.3L364.3,371.6L364.3,371.6z"/>
	<path class="st2" d="M202.8,302.6c0-11.4,0-13.3-0.3-15.8s-0.8-3.6-3.3-4.2c-0.6-0.3-1.9-0.3-2.8-0.3c-0.8,0-1.4-0.3-1.4-0.6
		c0-0.6,0.6-0.6,1.7-0.6c3.9,0,8.6,0.3,10.3,0.3c2.5,0,8-0.3,10.5-0.3c4.7,0,9.7,0.6,13.6,3.3c1.9,1.4,5,5.3,5,10.3
		c0,5.5-2.2,10.5-9.7,16.6c6.7,8.3,11.6,15,16.1,19.4c4.2,4.4,7.2,4.7,8.3,5c0.8,0.3,1.4,0.3,1.9,0.3s0.8,0.3,0.8,0.6
		c0,0.6-0.6,0.8-1.4,0.8h-6.7c-4.2,0-6.1-0.3-8-1.4c-3-1.7-6.1-5.3-10.3-10.8c-3-4.2-6.4-9.1-7.5-10.3c-0.3-0.6-0.8-0.6-1.4-0.6
		l-6.4-0.3c-0.3,0-0.6,0.3-0.6,0.6v1.1c0,6.9,0,12.7,0.3,15.8c0.3,2.2,0.6,3.9,2.8,4.2c1.1,0.3,2.8,0.3,3.6,0.3
		c0.6,0,0.8,0.3,0.8,0.6c0,0.6-0.6,0.8-1.4,0.8c-4.4,0-9.7-0.3-10.8-0.3c-1.4,0-6.1,0.3-9.1,0.3c-1.1,0-1.4-0.3-1.4-0.8
		c0-0.3,0.3-0.6,1.1-0.6c1.1,0,1.9-0.3,2.8-0.3c1.4-0.3,1.9-1.9,2.2-4.2c0.3-3,0.3-8.9,0.3-15.8L202.8,302.6L202.8,302.6z
		 M211.6,308.5c0,0.8,0.3,1.1,0.6,1.4c1.7,0.6,3.9,0.8,5.5,0.8c3,0,3.9-0.3,5.3-1.4c2.2-1.7,4.4-5,4.4-11.1
		c0-10.5-6.9-13.6-11.4-13.6c-1.9,0-3,0-3.9,0.3c-0.6,0.3-0.6,0.6-0.6,1.1V308.5z"/>
	<path class="st2" d="M250.7,309.3c0-12.7,8.3-29.1,30.5-29.1c18.6,0,29.9,10.8,29.9,27.7s-11.9,30.5-30.8,30.5
		C259.3,338.4,250.7,322.3,250.7,309.3 M300.9,310.7c0-16.6-9.7-26.9-21.6-26.9c-8.6,0-18.3,4.7-18.3,23.3
		c0,15.5,8.6,27.7,22.7,27.7C289,334.5,300.9,332,300.9,310.7"/>
	<path class="st2" d="M322.8,282.1c0.3-1.4,0.6-1.9,1.4-1.9c0.6,0,1.1,0.3,1.9,2.2l20.2,41.3l20.2-41.8c0.6-1.1,0.8-1.7,1.7-1.7
		c0.6,0,1.1,0.8,1.4,2.2l6.7,45.5c0.6,4.7,1.4,6.9,3.6,7.5s3.6,0.8,4.7,0.8c0.6,0,1.1,0,1.1,0.6s-0.8,0.8-1.9,0.8
		c-1.9,0-12.2-0.3-15-0.3c-1.7-0.3-2.2-0.3-2.2-0.8c0-0.3,0.3-0.6,0.8-0.8c0.6-0.3,0.6-1.1,0.3-3.3l-4.4-32.1H363l-16.1,33
		c-1.7,3.6-1.9,4.2-2.8,4.2c-0.6,0-1.4-1.4-2.5-3.6c-1.7-3.3-7.8-14.7-8.6-16.9c-0.6-1.7-5-10.3-7.8-15.8H325l-3.9,28.8
		c-0.3,1.4-0.3,2.2-0.3,3.6s1.1,1.9,2.2,2.5c1.4,0.3,2.5,0.3,3,0.3c0.6,0,1.1,0.3,1.1,0.6c0,0.6-0.6,0.8-1.7,0.8
		c-3,0-6.4-0.3-7.8-0.3s-5,0.3-7.5,0.3c-0.8,0-1.4-0.3-1.4-0.8c0-0.3,0.6-0.6,1.1-0.6c0.6,0,1.1,0,2.2-0.3c1.9-0.6,2.8-3.3,3-5.8
		L322.8,282.1z"/>
	<path class="st2" d="M404.2,318.4c-0.3,0-0.6,0-0.6,0.6l-3.9,10.3c-0.8,1.9-1.1,3.6-1.1,4.4c0,1.4,0.6,2.2,3,2.2h1.1
		c0.8,0,1.1,0.3,1.1,0.6c0,0.6-0.6,0.8-1.1,0.8c-2.5,0-5.5-0.3-7.8-0.3c-0.8,0-5,0.3-8.9,0.3c-0.8,0-1.4-0.3-1.4-0.8
		c0-0.6,0.3-0.6,0.8-0.6s1.7,0,2.2-0.3c3.3-0.6,4.7-3,6.4-6.7l18.6-46c0.8-2.2,1.4-3,2.2-3c0.6,0,1.1,0.6,1.9,2.2
		c1.7,4.2,13.6,33.8,18.3,44.9c2.8,6.7,5,7.8,6.7,8c1.1,0.3,2.2,0.3,3,0.3c0.6,0,0.8,0,0.8,0.6s-0.6,0.8-3.3,0.8s-8,0-14.1-0.3
		c-1.4,0-2.2,0-2.2-0.6s0.3-0.6,1.1-0.6c0.6-0.3,1.1-0.8,0.6-1.7l-5.8-15.2c-0.3-0.3-0.3-0.6-0.8-0.6L404.2,318.4L404.2,318.4z
		 M419.2,314.5c0.3,0,0.6-0.3,0.3-0.6l-6.7-18.3c0-0.3,0-0.6-0.3-0.6c-0.3,0-0.3,0.3-0.6,0.6l-6.9,18.3c0,0.3,0,0.6,0.3,0.6H419.2z"
		/>
	<path class="st0" d="M202.8,301c0-11.4,0-13.3-0.3-15.8c-0.3-2.5-0.8-3.6-3.3-4.2c-0.6,0-1.9-0.3-2.8-0.3c-0.8,0-1.4,0-1.4-0.6
		s0.6-0.6,1.7-0.6c3.9,0,8.6,0.3,10.3,0.3c2.5,0,8-0.3,10.5-0.3c4.7,0,9.7,0.6,13.6,3c1.9,1.4,5,5.3,5,10.3c0,5.5-2.2,10.5-9.7,16.6
		c6.7,8.3,11.6,15,16.1,19.4c4.2,4.4,7.2,4.7,8.3,5c0.8,0.3,1.4,0.3,1.9,0.3s0.8,0.3,0.8,0.6c0,0.6-0.6,0.8-1.4,0.8h-6.7
		c-4.2,0-6.1-0.3-8-1.4c-3-1.7-6.1-5.3-10.3-10.8c-3-4.2-6.4-9.1-7.5-10.3c-0.3-0.6-0.8-0.6-1.4-0.6l-6.4-0.3
		c-0.3,0-0.6,0.3-0.6,0.6v1.1c0,6.9,0,12.7,0.3,15.8c0.3,2.2,0.6,3.9,2.8,4.2c1.1,0.3,2.8,0.3,3.6,0.3c0.6,0,0.8,0.3,0.8,0.6
		c0,0.6-0.6,0.8-1.4,0.8c-4.4,0-9.7-0.3-10.8-0.3c-1.4,0-6.1,0.3-9.1,0.3c-1.1,0-1.4-0.3-1.4-0.8c0-0.3,0.3-0.6,1.1-0.6
		c1.1,0,1.9-0.3,2.8-0.3c1.4-0.3,1.9-1.9,2.2-4.2c0.3-3,0.3-8.9,0.3-15.8L202.8,301L202.8,301z M211.6,306.8c0,0.8,0.3,1.1,0.6,1.4
		c1.7,0.6,3.9,0.8,5.5,0.8c3,0,3.9-0.3,5.3-1.1c2.2-1.7,4.4-5,4.4-11.1c0-10.5-6.9-13.6-11.4-13.6c-1.9,0-3,0-3.9,0.3
		c-0.6,0.3-0.6,0.6-0.6,1.1V306.8z"/>
	<path class="st0" d="M250.7,307.6c0-12.7,8.3-29.1,30.5-29.1c18.6,0,29.9,10.8,29.9,27.7s-11.9,30.5-30.8,30.5
		C259.3,336.7,250.7,320.6,250.7,307.6 M300.9,309c0-16.6-9.7-26.9-21.6-26.9c-8.6,0-18.3,4.7-18.3,23.3c0,15.5,8.6,27.7,22.7,27.7
		C289,332.8,300.9,330.3,300.9,309"/>
	<path class="st0" d="M322.8,280.5c0.3-1.4,0.6-1.9,1.4-1.9c0.6,0,1.1,0.3,1.9,2.2l20.2,41.3l20.2-41.8c0.6-1.1,0.8-1.7,1.7-1.7
		c0.6,0,1.1,0.8,1.4,2.2l6.7,45.5c0.6,4.7,1.4,6.9,3.6,7.5s3.6,0.8,4.7,0.8c0.6,0,1.1,0,1.1,0.6s-0.8,0.8-1.9,0.8
		c-1.9,0-12.2-0.3-15-0.3c-1.7-0.3-2.2-0.3-2.2-0.8c0-0.3,0.3-0.6,0.8-0.8c0.6-0.3,0.6-1.1,0.3-3.3l-4.4-32.1H363l-16.1,33
		c-1.7,3.6-1.9,4.2-2.8,4.2c-0.6,0-1.4-1.4-2.5-3.6c-1.7-3.3-7.8-14.7-8.6-16.9c-0.6-1.7-5-10.3-7.8-15.8H325l-3.9,28.8
		c-0.3,1.4-0.3,2.2-0.3,3.6s1.1,1.9,2.2,2.5c1.4,0.3,2.5,0.3,3,0.3c0.6,0,1.1,0.3,1.1,0.6c0,0.6-0.6,0.8-1.7,0.8
		c-3,0-6.4-0.3-7.8-0.3s-5,0.3-7.5,0.3c-0.8,0-1.4-0.3-1.4-0.8c0-0.3,0.6-0.6,1.1-0.6c0.6,0,1.1,0,2.2-0.3c1.9-0.6,2.8-3.3,3-5.8
		L322.8,280.5z"/>
	<path class="st0" d="M404.2,316.8c-0.3,0-0.6,0.3-0.6,0.6l-3.9,10.3c-0.8,1.9-1.1,3.6-1.1,4.4c0,1.4,0.6,2.2,3,2.2h1.1
		c0.8,0,1.1,0.3,1.1,0.6c0,0.6-0.6,0.8-1.1,0.8c-2.5,0-5.5-0.3-7.8-0.3c-0.8,0-5,0.3-8.9,0.3c-0.8,0-1.4-0.3-1.4-0.8
		s0.3-0.6,0.8-0.6s1.7,0,2.2-0.3c3.3-0.6,4.7-3,6.4-6.7l18.6-46c0.8-2.2,1.4-3,2.2-3c0.6,0,1.1,0.6,1.9,2.2
		c1.7,4.2,13.6,33.8,18.3,44.9c2.8,6.7,5,7.8,6.7,8c1.1,0.3,2.2,0.3,3,0.3c0.6,0,0.8,0,0.8,0.6s-0.6,0.8-3.3,0.8s-8,0-14.1-0.3
		c-1.4,0-2.2,0-2.2-0.6s0.3-0.6,1.1-0.6c0.6,0,1.1-0.8,0.6-1.7l-5.8-15.2c-0.3-0.3-0.3-0.6-0.8-0.6L404.2,316.8L404.2,316.8z
		 M419.2,312.9c0.3,0,0.6-0.3,0.3-0.6l-6.7-18.3c0-0.3,0-0.6-0.3-0.6c-0.3,0-0.3,0.3-0.6,0.6l-6.9,18.3c0,0.3,0,0.6,0.3,0.6H419.2
		L419.2,312.9z"/>
	<line class="st6" x1="151.8" y1="240.3" x2="489.1" y2="240.3"/>
	<path d="M457.5,211.5c-0.8-1.1-1.9-2.5-3-3.6c-4.7-5.8-15.5-20-15.5-20c0-46.3-8.3-54.9-16.9-62.1c-7.5-6.4-19.4-9.7-32.4-11.6
		c-3.6-0.6-7.2-0.8-11.6-0.8c-4.2,0-8.6,0.3-12.7,0.6c-3.3,0.3-63.7,2.8-83.1-0.6c-8.3-1.4-20.2,0.3-27.2,1.1
		c-3.3,0.3-20.5,3-22.7-0.3c-0.3-0.6-0.3-1.9-0.3-3.6c0.3-2.5,1.1-5.3-0.6-8c-2.5-3.6-5.5-7.5-6.9-7.5c-0.6,0-4.7,3.6-5.8,4.7
		c-1.7,1.7-2.2,4.7-2.2,8c0,1.9,0,1.7-0.3,1.9s-11.4,0.3-14.1,0.6c0-0.6,0-3.3-1.9-6.1c-1.1-1.7-2.2-7.8-2.2-7.8s-4.2,6.9-5.3,8.9
		c-1.4,1.9-3,4.2-3.9,6.7c-0.3,0.8-0.6,1.9-0.6,3c0,0.8-0.3,2.5-0.6,2.8c-2.2,1.7-3.3,3.6-3.6,6.4c0,0.8,0.3,1.9,0.3,3
		c0.3,0.8,0.3,1.9,0.3,2.5c-0.3,0.3-0.6,0.3-0.6,0.6c-1.9,1.1-4.4,2.8-4.4,5.8c0.3,4.4,1.4,6.4,2.8,8.9c0.3,0.6,0.8,1.4,1.4,2.2
		c0.6,1.1,0.8,3,1.1,4.7c0.3,2.2-1.9,5-0.3,6.4c1.9,1.9,6.9,1.9,9.1,1.9c0.6,0,3,0,3.6,0c0.8,0,1.7,0,2.2,0.3
		c4.2,0.8,8.6,1.1,12.7,1.4c5.5,0.6,11.1,0.8,16.4,2.5c10,3,19.7,6.9,29.9,12.5c0.6,0.3,1.1,0.6,1.7,0.8c3.9,1.9,4.7,1.7,6.4,6.9
		c1.7,5.3-1.4,45.7-2.2,50.2c-1.1,6.7-3.3,10.8-6.9,12.2c-4.7,1.7-6.7,5.3-8.6,8.9c-0.6,1.1-0.6,2.5-1.1,3.6c0,0-1.7,1.7-1.1,2.2
		s5.3-0.8,5.3-0.8c1.7,0,0,0.8,1.4,0.8c4.2,0,8.9,0,13.9-2.8c1.9,0,0.6,2.8,2.5,2.2c5.8-1.1,6.4-5.5,7.2-10c1.1-7.2,1.1-8.6,1.9-9.1
		s3.3,0.6,4.2-0.3c0.6-0.6,0-5.8,0.3-10.8c0.6-6.9,2.2-15,4.4-21.6V209c0.6-1.4,1.1-3.3,1.9-5c1.9-5,4.2-11.4,3.9-16.1
		c2.2,0.3,2.5,0.6,3.6,2.2c0.3,0.3,0.6,0.8,0.8,1.4c2.2,3.9,3.6,5,5,5c0.3,0,0.3,0,0.6,0c2.5-0.6,3.9-2.8,5.3-5.5s2.8-5.5,5.3-6.1
		h0.3c1.9,0,5.3,1.7,7.2,4.7c4.2,6.7,7.8,1.9,8.3,1.4c0.6-0.8,3.9-6.4,4.7-7.8c1.1-1.7,1.7-1.7,1.9-1.7l0,0
		c1.9,0.3,11.1,11.1,14.4,10.5c3-0.3,6.7-12.2,8.6-12.2h0.3c0.6,0.3,1.4,1.9,2.2,3c2.5,3.6,3,6.1,4.7,6.1c0.6,0,1.7-0.6,2.2-2.2
		c0.3-0.6,0.8-2.2,1.1-2.5c0,0.3,1.7,5.5,5.5,0.8v-0.3l0,0l0,0l0,0l0,0c0.6-1.1,7.8,5.8,11.1,8.6c3,2.8,5.8,5.5,6.1,5.5
		c7.5,6.7,16.6,15,18.6,23.8c1.1,5.3,0.8,11.1-0.6,16.9c-0.3,1.1-0.6,1.9-0.8,1.9c-0.3,0.3-1.1,0.3-2.2,0.3c-0.6,0-0.8,0-1.7,0
		c-2.5,0.3-4.2,2.8-5.8,5.3c-0.6,1.1-1.7,1.9-1.9,2.8c-0.6,0.8,0.3,2.2,0.8,2.5c0.6,0.3,5,1.4,6.4,1.4c0.3,0,0.8,0,1.1,0
		c1.1,0.3,2.2,0.6,3.6,0.6c3.9,0,8.9-1.7,10.5-4.4c2.5-4.7,4.2-9.7,5.5-14.7c0.3-0.6,0.3-1.1,0.6-1.7c0.3-1.1,0.8-2.2,1.4-3.6
		c1.7-4.4,4.7-9.4,3.3-13.9c-0.6-2.5-3-4.7-4.7-6.7c-1.4-1.7-6.4-8.3-8-10.8c4.7,4.7,18,11.4,21.3,19.4c1.1,2.8,0,14.4-0.3,17.5
		c0,1.4-0.3,3-0.3,4.4c-0.3,4.7-1.7,5.5-6.4,6.1c-4.2,0.6-6.1,6.7-7.2,10c0,0.3,0,0.3-0.3,0.6l-0.6,1.7l1.7,0.3
		c0.6,0,1.4,0.3,1.9,0.3c3,0.6,8,2.5,11.6,2.5c4.2,0,7.2-1.1,9.1-3c2.5-2.5,3.3-7.2,4.2-11.4c0.3-1.7,1.9-7.2,2.8-9.1
		C460.2,223.6,464.1,218.7,457.5,211.5 M189.5,150.2c-1.4,0.8-1.9-1.7-1.9-1.7c-0.3-1.1-0.6-1.9,0.3-2.5c1.1,0.6,2.5,0.6,2.8,1.4
		C190.9,148.3,190.3,149.7,189.5,150.2"/>
	<path class="st4" d="M437.8,248.3c-0.6,0.8-2.2,1.1-2.8,1.1c-1.1,0.6-2.2,1.1-2.2,1.9c0,0.3-0.3,4.2,0,4.4c0.3,0.6,1.9,1.1,2.2,0.6
		c0.3-0.3,0-3,0.3-5c0-0.3,0.3-1.4,0.8-1.7C436.4,249.7,438.3,248.9,437.8,248.3"/>
	<path class="st4" d="M302.8,180.7c1.4-0.3,3.3-0.6,4.2,0c0.8,0.6,1.7,2.2,1.7,3.3c0,1.1-3.6,6.7-3.9,6.9c-0.3,0.3-0.6,1.1-1.1,0.3
		s-1.7-9.7-1.7-9.7S301.7,180.7,302.8,180.7"/>
	<path class="st4" d="M455.8,214.2c-1.9-2.8-6.7-7.8-8.6-10.3c-2.5-3-14.4-16.9-14.4-16.9s-3.3-21.1-4.7-25.8
		c-0.8-3-3.6-25.2-20.5-37.1c0.8-1.7,11.9,7.2,16.1,13.9c7.2,12.2,10.3,44.3,10.3,44.3s4.7-48.8-21.3-59.3
		c-18.6-7.8-27.7-6.4-27.7-6.4s-12.7,7.8-5,22.4c1.4,2.8,18.3,28.8,19.4,30.8c9.7,18,40.2,39.1,45.7,44.6c0.3,0.3,5.5,3.9,5.8,7.5
		c0,0.8-7.2-4.2-6.9-3.3c1.1,9.1,0,26.3-0.3,28.3c-0.3,2.2-0.3,2.5-1.7,3c-1.4,0.6-2.8-0.8-3.6,1.7c-0.8,2.5-0.6,4.7,1.9,4.7
		c2.5,0,6.1,1.4,8.3-7.8c2.2-8.9,7.5-24.9,8.9-30.8C457.7,216.7,456.6,215.3,455.8,214.2"/>
	<path class="st4" d="M197.5,103.9c0,0,1.9,6.1,1.9,7.8c0,1.7-0.6,1.9-0.6,1.9l-6.1,2.2c0,0,1.4-1.4,1.9-3.3
		C195.6,110.6,197.5,105.6,197.5,103.9"/>
	<path class="st4" d="M269.3,254.4H269l-0.3-0.6c0,0,0-0.3,0.3-0.3l0.3-0.3h0.3l0.3,0.6c0,0,0,0.3-0.3,0.3L269.3,254.4z"/>
	<path class="st4" d="M408.7,244.7c0,0-0.8-0.3-1.1,0.3c-0.6,0.8-0.8,3.6-0.8,3.6s0.8,0.8,1.9,0.3c1.4-0.6,3.9-2.5,3-3
		C410.9,245.3,408.7,244.7,408.7,244.7"/>
	<path class="st4" d="M406.2,243.3c0,0-1.1,0-1.7,0.6c-0.6,0.6-1.7,2.2-1.4,3c0,0.6,1.1,1.9,1.7,1.1
		C405.4,247.5,407.6,243.3,406.2,243.3"/>
	<path class="st4" d="M185,134.7c-1.4,2.2,2.5,3.9,3.6,2.8C189.5,134.4,186.4,133.6,185,134.7"/>
	<path class="st4" d="M190.3,135.5L190.3,135.5L190.3,135.5"/>
	<path class="st4" d="M216.6,138.3c-1.9-2.2-3.3-6.4-2.2-6.9c1.4-0.8,2.5,0.3,3.3,0.8c1.1,0.6,1.7,0.3,1.7-1.4
		c0-1.1-0.3-2.5-0.3-3.6c-0.3-3.3-2.2-6.9-3.6-8.6c-2.2-2.5-8.9-5.3-12.7-2.5c-1.1,0.8-1.9,2.2-2.8,3.6c-0.3,0.6,0.6,1.4,0.3,1.9
		c-1.4,3.6-3.9,7.8-6.4,10.5c0,0.3,9.1,0.8,21.9,10.5c1.1,0.8-1.1,5.5-1.7,5.3c-0.3,0,1.4-3.9,0-4.7c-5.8-3.3-9.4-3.9-13.9-5.3
		c-1.1-0.3-4.2,1.7-5,0.8c-1.1-1.4-4.4-3-5-3.3c0,0,0.6,0.3,0.8,1.9c0.6,3.6-6.4,0-0.6,5.8c1.7,1.7,3.3,2.8,4.4,2.2
		c1.9,0,1.1,0.3,1.1,0.6l1.1,2.2c0.3,0.6,0.3,0.3,0.6,0l0.6-2.5c0-0.6,0.6-0.8,1.1-0.8c0,0,8.9,0.3,10.5,0.3
		c1.7,0.3,1.9,0.8,1.9,0.8c0,0.6,0.8,1.4-0.8,2.8c-1.1,0.8-3.6-0.8-5.8,0.8c-1.9,1.7-6.1,2.5-6.1,2.5c-0.6,0-1.1-0.3-1.1-0.6
		l-1.1-2.5c-0.3-0.6-0.3-0.6-0.3,0l-0.3,3c0,0.6-0.3,0.8-0.3,0.8s-0.3-0.3-0.6-0.8v-0.3c-0.3-0.6-0.6-0.6-0.8-0.3l-0.6,0.6
		c-0.3,0.3-0.8,0.3-1.1,0l-0.3-0.3c-0.3-0.6-0.6-0.6-0.8,0l-0.3,0.6c-0.3,0.6-0.6,0.3-0.8,0v-0.3c-0.3-0.6-0.6-0.6-0.6,0
		c-0.3,0.3-0.3,0.3-0.6,0.3c-0.3,0.3-0.6,0.6-0.6,0.6c-0.3,0.3-0.8,0.8-0.8,1.4s0.6,0.8,3.6,1.4c3,0.6,17.2-5,21.6-4.2
		c5,1.1,7.2-3,7.5-8.6c0-0.3,0-0.6,0-0.8C218.8,141.1,217.5,139.4,216.6,138.3"/>
	<path d="M202.8,121.9c0,0,1.7-3,3.9-3.6c1.7-0.6,3.3,0.6,5.8,2.2c2.5,1.7,3.9,4.2,6.1,3.6c0.8-0.3-1.9,2.8-4.2,1.9
		c-0.6-0.3-4.2-6.1-7.8-6.1C206.7,119.7,204.4,120.3,202.8,121.9"/>
	<path d="M209.1,118.9c-3-0.8-4.7,1.1-4.7,1.1c0.8-1.9,4.2-0.8,5.8,0c0.8,0.3,1.9,2.2,2.8,3.9c-0.8-0.8-2.2-1.9-3.3-1.9
		c-2.2-0.3-2.5,2.8-2.5,2.8l-1.1,1.4c0,0,0.3,0.3,1.9,0.3s7.5,0,8.3-0.8C217.2,125,212.2,120,209.1,118.9 M209.7,125.3
		c-0.6,0-0.8-0.6-0.8-1.1c0-0.6,0.6-1.1,0.8-1.1c0.6,0,1.1,0.6,1.1,1.1C211.1,124.7,210.3,125.3,209.7,125.3"/>
	<path class="st4" d="M254.6,251.6c0,0-2.2,4.4-2.2,5s0,0.8,0.3,0.8c0.3,0,1.1,0.3,1.7-0.3c0.6-0.3,2.8-5,3-5.5
		C257.4,251.6,255.4,250.5,254.6,251.6"/>
	<path class="st4" d="M428.9,218.4c1.1-3.9-2.5-4.4-3.9,0.8c-0.6,1.7-5.5,20.5-6.1,25.5c0,0.3,0.3,0.6,0.3,0.3
		C419.5,246.7,428.6,220.3,428.9,218.4"/>
	<path class="st4" d="M399.8,155.5c0,0-0.3,0.3-0.6,0l-1.9-0.3c-0.3,0-0.6-0.3-0.6-0.3v-0.3c0,0,0.3-0.3,0.6,0l1.9,0.3
		C399.5,155.2,399.8,155.2,399.8,155.5L399.8,155.5z"/>
	<path class="st4" d="M399,156.3l-0.3,0.3l-1.1-0.3c-0.3,0-0.3,0-0.3-0.3v-0.3l0.3-0.3l1.1,0.3C399,155.8,399,156,399,156.3
		L399,156.3z"/>
	<path class="st4" d="M261.8,116.4c-9.1,1.7-21.9,2.5-28.8,1.7c-5.5-0.8-5.8-4.2-4.7-7.2c-5,5-7.8,3-7.8,2.5c-0.3-0.8,1.9,0,3.3-1.4
		c1.4-1.4,2.2-6.1,1.1-8.3c-1.1-2.2,0-1.9,0-1.9s2.8,0.3,4.2,3.6c0.8-3.3-3.9-7.5-5.3-6.7c-1.4,0.8-4.4,3.6-4.2,7.2
		c0.6,4.4,0.3,6.7-1.4,6.7c-10-0.6-21.1-1.7-27.2,4.7c0,0,7.5-5,13.3-4.4c5.8,0.6,17.5,1.7,18.3,15.5c0,0,0,3,0,6.7
		c0,1.9-1.7,0.6-1.7,1.7c0,3.9,2.8,3.3,2.5,6.7c-0.8,13.6-7.2,13.3-7.2,13.3s7.5,1.1,11.4-11.6c0,7.2-0.8,9.1-3.6,11.9
		c5.8,0.3,10.3-5,10.5-5.8c0.8,1.4,2.5,5.8,6.9,7.8c-2.2-3.6-1.7-7.8-1.1-11.6c1.4,8.6,3.3,11.6,7.8,13.6c-1.7-1.7-5.3-5.5-4.2-12.5
		c0.8,5.8,7.8,11.1,7.8,11.1s-2.2-3.6-2.8-9.7c3,6.4,6.1,6.9,6.1,6.9s-5-5.3-5.8-11.9c0,0,3.3,4.4,6.4,4.4
		c-2.2-2.8-5.8-6.4-6.1-11.1c2.2,2.8,3.9,4.7,6.4,5c-2.2-2.5-3.9-6.4-4.4-11.1c2.5,3,1.9,4.2,6.7,5.3c-1.7-1.7-3-6.7-2.2-8.9
		c0.8,1.7,3.9,3.3,7.5,3.6c-1.1-0.8-3-5.3-2.8-7.2c1.7,0.8,5.3,1.9,8,1.7c-1.4-0.8-2.2-4.7-1.9-5.8c0.8,0.6,6.1,0.3,7.2,0
		c-1.7-1.1-3.3-2.8-2.8-2.5c1.4,0.6,3.3-0.6,6.1-1.1c3-0.6,3.3-0.6,5.3-0.6C280.1,115.6,268.7,114.7,261.8,116.4"/>
	<path class="st4" d="M353.3,172.9c0,0-5.8-0.3-6.4,1.4s2.8,11.4,3,12.5c0.8,1.7,2.8-2.2,2.8-2.2c0.6-1.1,3-6.7,3-7.5
		C355.8,176,355.8,172.9,353.3,172.9"/>
	<path class="st4" d="M381.2,184.3c-0.3,0.3-0.8,0.3-1.1,0.3c0.3,0,0.6,0.3,0.8,0.3C381,184.6,381,184.6,381.2,184.3"/>
	<path class="st4" d="M330.5,173.8c0,0-5.8-0.3-6.4,1.4c-0.6,1.7,1.9,10,2.5,11.1c0.6,1.7,1.9-0.8,1.9-0.8c0.6-1.1,5.3-6.9,5.3-7.8
		C333.6,176.8,333,173.8,330.5,173.8"/>
	<path class="st4" d="M371.3,116.7c-1.7,0-16.9,1.7-27.2,1.9c-8,0-16.6-0.3-21.1-0.3c-0.3,0-0.8,0-1.4,0c-6.7-0.3-28.5-0.6-28.5-0.6
		c-1.7-0.3-23.6,5.3-26.9,29.7c-1.9,15-1.1,20,2.5,26.9c1.9,4.2,6.1,12.2,5.8,18.3c0,2.5-4.7-10.8-4.4-9.1
		c0.6,15.5-1.9,50.2-3.6,57.6c-1.9,8.9-3.6,4.4-5.5,8c-0.3,0.6-4.7,8.9-4.7,8.9s2.2-0.3,4.4-0.6c2.8,0,5-7.2,6.7-7.2
		c0.3,0-1.9,5.8-1.7,5.8c1.9-0.6,5-1.4,4.7,0.3c0.6,0.3,1.1-0.3,1.7-0.6c0.6-0.6,3-11.9,4.7-17.7c0.3-0.8,2.8-0.3,3.6-0.3
		c1.4-2.8-0.8-11.9,3-24.7c3.9-12.5,8-23.6,6.1-26.6c-0.3-0.3-6.9,8.6-6.9,8c-0.3-1.1,21.6-38.2,17.5-57.4c0-0.6-0.3-1.4-0.3-1.9
		c0-0.3,2.5,0.8,5.8,1.7c4.2,1.4,7.8,1.9,9.1,6.7c1.4,9.1,5.8,22.4,14.4,23.3c-3.9-3.6-9.1-22.2-8.3-29.7
		c2.5,12.5,10,30.2,16.1,29.4c-1.4-1.9-6.4-13.3-6.4-20.2c2.2,5.8,7.5,18.8,11.6,18.8c10.5,0.3,13.3-4.7,21.1-6.4
		c17.5-3.9,22.2,2.8,24.7,4.2c-2.2-1.9-9.4-14.7-14.4-24.7c-3.9-7.8,2.8-15.8,13.9-20.5C389.3,116.4,374.6,116.4,371.3,116.7"/>
	<path d="M378.8,184.6c0,0-0.6-0.6-1.1-0.6c-0.3,0-0.3,0-0.3,0c-0.3,0-0.3,0-0.3,0h-0.3v-0.3c0-0.3,0.3-0.6,0.6-0.6
		c0.3,0,0.3,0,0.6,0C378.8,183.7,378.8,184.3,378.8,184.6l0.3,0.3L378.8,184.6z"/>
	<path d="M373.8,183.5c0-0.3,0.3-0.6,0.8-0.6c0.3,0,0.3,0,0.6,0l0.3,0.3h0.3l-0.6,0.3l0,0h-0.3c-0.3,0-0.3,0-0.3,0
		C374,183.7,373.8,183.7,373.8,183.5L373.8,183.5L373.8,183.5z"/>
	<path d="M374.9,183.2C374.9,183.5,375.2,183.5,374.9,183.2v0.3h-0.3c-0.6,0-0.8,0-0.8,0S374,182.9,374.9,183.2"/>
	<path d="M384.3,250.5c-6.1,0-6.9-10-7.2-11.9c-1.4,0-3-1.1-4.2-1.9c0,0-0.3,0-0.3-0.3c0,0.8,0,1.4,0,2.2c0,1.1,0.3,4.2,0.3,5l0,0
		c0,1.1,0.6,3.9-2.2,5.3c-0.8,0.3-1.7,0.6-2.5,0.6c-0.8,0-1.4-0.3-1.9-0.3H366h-0.6c-0.6,0-1.7-0.3-2.2-0.3H363
		c-1.4,0-5,0.3-5.5,0.3c-0.3,0-0.3,0-0.3,0c-1.9,0-3.9-1.7-3.9-1.7c-1.1-1.1-1.1-2.8-0.3-3.9l0.3-0.3l0.3-0.3c0.3,0,0.8-0.6,1.7-0.8
		c0.8-0.6,1.9-1.1,3.9-2.2c-1.7-3-8.6-13.9-2.5-17.2c2.2-1.1,5.8-2.5,9.1-3.3c0-0.3,0-0.6,0.3-0.6c0-0.3,0-1.1,0-1.7
		c-0.8,0.6-1.9,0.8-2.8,0.8c-0.3,0-0.6,0-0.8,0c-2.2-0.6-4.7-3.6-5-3.9c-0.6-0.6-2.2-3.9-3.9-6.9c-4.4-0.3-5-0.3-5.3-0.6
		c-0.6-0.3-0.8-0.3-3.9-2.8c-0.8-0.8-1.4-1.9-1.4-3c0-0.8,0.6-1.7,1.4-2.2c0,0,0,0,0.3,0c0.3-0.6,1.1-1.1,1.9-1.1h0.3h0.3
		c0.8,0,1.4,0.3,1.9,0.6c0-0.3,0-0.8,0.3-1.1c0.6-1.1,1.7-1.7,3-1.7c0.8,0,1.4,0.3,2.5,0.6l0,0l0,0c0.3,0.3,0.3,0.3,0.3,0.3
		c0.6,0,1.9,0.6,2.2,0.6c0.8,0.3,1.4,0.8,2.8,3l2.2,2.2c1.1-2.5,2.2-3.3,2.8-3.9s1.4-0.8,2.2-1.1c0.3,0,0.3,0,0.6-0.3
		c0.3-0.3,0.8-0.6,1.1-0.8v-0.3c-0.3-0.6-0.8-1.1-1.1-1.7c-0.8-1.4-0.8-2.8-0.8-3.9v-0.3c0-2.2,3-4.4,3-4.4c0.3-0.3,0.8-0.3,1.1-0.6
		c0.6-0.8,1.7-1.9,2.5-2.5c0.6-0.6,1.4-0.8,2.2-1.1c0.6-1.4,1.9-1.9,4.2-1.9c0.6,0,2.8,0.3,3.6,0.3c1.4,0.3,2.5,1.1,3,2.5
		c1.4,0.6,2.2,1.7,2.2,3.3l0.6,0.6c0.3,0.3,1.1,1.1,1.4,2.5c0.8,1.7,0.6,3.3,0.6,4.2c0,2.5-0.6,3.9-1.4,4.7c0,0.3-0.3,0.6-0.3,0.8
		c2.5,1.4,3,4.7,3.3,6.1c0.3,0.8,1.1,4.2,1.7,6.1c0.6,3-0.3,5.8-0.6,6.4L394,217l-0.3,0.3c-0.3,0.3-1.1,1.7-1.7,2.2
		c-0.8,0.8-1.7,1.4-2.5,1.7c0.3,1.1,0.6,2.2,0.6,3c1.9,2.5,3,5.8,3,6.9c0,0.8-0.3,1.7-0.6,2.2l0,0c0.3,0.6,0.3,1.4,0.3,3
		c0.8,0.8,1.7,2.2,2.2,3.6c0,0.3,0,0.3,0.3,0.3c3.6,8-5.5,8.6-6.1,8.3C389,250.5,385.1,250.5,384.3,250.5"/>
	<path class="st4" d="M383.7,182.9c-0.6,0-2.5-0.3-3-0.3c-2.8,0-1.4,1.4-1.4,1.4s-2.2,0.3-3,1.1c-0.8,0.8-2.5,2.8-2.5,2.8
		s-0.8,0.3-1.1,0.6c-0.6,0.3-1.7,1.1-1.9,2.2c0,0.8-0.3,1.7,0.3,2.5c0.6,0.8,1.4,2.2,1.4,2.2s0.3,0.6,0,1.1
		c-0.3,0.6-0.6,1.9-0.6,1.9s-1.4,0.6-1.7,1.1c-0.3,0.6-2.2,0.8-2.8,1.1c-0.6,0.3-1.7,1.4-2.5,4.2c-0.8,0.8-1.4,1.9-1.4,1.9l-5-5
		c0,0-0.6-1.9-1.7-2.2c-0.3,0-2.5-0.8-3-1.1c-1.9-0.6-2.2-0.3-1.7,0.3c0.3,0.6,1.4,1.1,1.7,1.1c0.3,0.3,0.3,2.2-4.2,1.4
		c-0.3,0-1.4-0.8-2.2-1.1c-1.9-0.6-1.7,1.4-1.1,1.7c0.6,0.3,2.5,2.5,2.8,2.5c0.6,0.3,6.1,0.3,6.1,0.3s3.9,7.2,4.4,8
		c0.6,0.8,2.8,2.8,3.6,3c0.8,0.3,3.3-0.8,4.7-3l0.6,9.4c0,0-8.9,1.9-10.3,3.3c-3.3,2.5,2.5,12.5,4.4,15.2c0.6,0.8,0.3,1.1,0.3,1.1
		s-6.1,3.3-6.1,3.6c-0.6-0.3-1.1,0.3-1.1,0.3s-0.3,0.6,0,0.6c0.3,0.3,1.1,1.1,1.9,0.8c0.8,0,5-0.3,6.1-0.3s2.2,0.3,3,0.3
		c0.6,0,1.9,0.6,3,0c1.1-0.6,0.8-1.7,0.8-2.8c0-1.1-0.6-5.3-0.6-5.3s0-4.7-0.3-5.3c1.1,0.3,3,0.6,3.6,0.3c0.6-0.3,1.4,0.8,1.4,0.8
		s1.9,1.7,3,1.4c0.8-0.3,1.1-0.3,1.4-1.7c0.3-0.6,0.6-0.3,0.6,0.8c0,1.4-0.6,12.7,5,12.5c3.3,0,5.8-1.7,5.8-1.7s0.8,1.4,2.2,0.8
		c3.6-1.4,1.7-4.4,1.4-5c-0.3-0.6-1.9-3.9-2.8-3.9c0-1.4-0.3-3.6-0.6-4.2c0.3-0.3,0.8-1.7,0.8-2.2c0-0.6-1.1-3.9-2.8-5.8
		c-0.6-3-1.9-7.8-1.9-7.8s1.9,0.8,2.5,0.8s1.1-0.3,1.4-0.6c0.6-0.6,1.7-1.9,1.7-1.9s0.8-2.5,0.3-4.7c-0.6-2.2-1.7-6.1-1.7-6.1
		s-0.6-3.9-2.5-4.7c-1.9-0.8-2.2-0.8-2.2-0.8s-0.6-0.8-0.3-0.8c0.6-0.3,1.1-0.6,1.4-0.8c0.3-0.3,0.6-1.7,0.6-1.7s1.1-0.6,1.1-3.6
		c0,0,0.3-2.2-0.6-3.3c0-0.8-0.6-1.7-0.6-1.7l-1.1-1.4c0,0,0.3-1.7-0.6-1.7c-0.8-0.3-1.4-0.3-1.4-0.3S385.1,182.9,383.7,182.9"/>
	<path d="M374,188.5c0.6,0,1.1,0.8,1.1,1.1s0,0.3-0.3,0c-0.3,0-0.6-0.6-1.1-0.6s-0.6,0.6-0.8,0.6C372.4,189.6,373.2,188.5,374,188.5
		"/>
	<path d="M378.5,187.1c0.6,0.3,0.8,0.8,0.8,0.8s-0.6-0.6-1.1-0.6s-0.8,0-0.8,0S377.6,186.5,378.5,187.1"/>
	<path d="M384.8,192.1c0-0.3-0.3-0.3-0.3-0.3l0,0l0,0c-0.3,0.3-0.6,0.6-0.8,0.6s-0.8-0.3-0.8-0.3s0,0.8,0.8,0.8
		C384.3,192.9,384.8,192.1,384.8,192.1L384.8,192.1L384.8,192.1z"/>
	<path d="M387.6,221.7l-0.6-2.5l-0.3-0.8l-4.7-8.9l-0.3-0.3c-0.3-0.3-0.3-0.3-0.6-0.8v-0.3c1.7,0.3,4.4-0.6,5.3-0.8
		c0.3,0.3,4.7,5.5,5,5.3c0.3-0.3-4.7-6.7-4.7-6.7s0.6-2.8,0.3-3c-0.3-0.6-1.7-1.7-2.2-1.7l0,0c0-0.3-0.3-0.3-0.3-0.3l0,0
		c-0.3-0.6-0.6-1.1-0.8-1.4c0.8,0.3,1.9,0.6,1.9,0.6h0.6l0.6-0.8l-3.9-1.4c-0.3,0-0.8-0.8-0.8-1.4s2.8-3,2.2-3.3
		c-1.1-0.3-3.6,2.2-3.6,3c0,0.6,0.3,1.7,0.6,2.2c-0.3,0.3-0.3,0.6-0.3,0.8c-4.7,0.3-6.4,1.9-6.7,3c0,0,3.9-1.4,5.3-1.7
		c-0.8,0.8,0.6,2.5,0.6,2.5c-0.3,0-0.6-0.3-1.1,0c-0.8,0.8,0,2.2,0.3,2.5c-0.3,0-0.6,0-0.8,0.3c-0.6,0.6,0.6,1.7,1.1,2.5
		c0.3,0.3-1.1,0.3-5-2.8c0,3,5,4.7,6.4,4.7C381.2,209.8,387.3,221.2,387.6,221.7 M379.6,206.2c0.3-0.3,1.1,0.6,1.4,0.3
		c0.3-0.3-1.7-2.2-1.1-2.8c0.6-0.6,1.4,1.1,1.9,0.8c0.3-0.3,0.3-0.6,0.3-0.8l-0.8-1.7c0,0-0.8-1.4-0.3-1.7s1.1,0.8,1.4,0.8
		c0,0,1.1,1.9,1.7,1.7c0.6-0.3-0.8-3-0.8-3c0-0.3-0.6-1.1-0.3-1.1c0.3-0.3,0.6-0.3,1.4,0.8c0,0,1.9,3.6,2.2,3.6c0,0,0-0.8-0.3-1.4
		c0.3,0.3,1.1,0.6,1.1,1.1c0,0.3,0,1.7-0.3,2.2c-0.8,1.1-5,2.5-6.1,2.2C380.1,207.3,379.3,206.5,379.6,206.2"/>
	<path d="M368.5,221.2l-0.6,0.3l-1.1,0.6c0.3,0.3,4.2,10,8,13v-0.3C369.6,227.8,368.5,221.2,368.5,221.2"/>
	<path d="M383.2,226.1c-2.5,0.3-4.2,8.3-4.2,8.3c0.6-0.8,0.6,0.6,0.6,0.6s1.9-6.7,3.6-7.5c1.7-0.8,4.2-0.3,4.2-0.3
		S385.7,225.9,383.2,226.1"/>
	<path d="M364.6,213.7c0.3-0.3-0.6-7.8-0.6-7.8l-0.3,0.3l-0.6-0.3C362.7,206.5,364.3,213.7,364.6,213.7"/>
	<path d="M366.6,207.6l0.6,6.1l1.1-0.6l-0.3-4.4c0,0,0.6,0.3,0.8,0c0.3-0.3-0.8-1.1-0.8-2.2c0-0.8,0.8-1.9,0.8-1.9
		c-0.3,0-0.6,0.3-0.6,0.3c0-0.8,0-1.7,0.3-2.2c0-0.8,1.1-2.2,1.1-2.2c-2.2,0.8-2.5,3.3-2.5,3.3l-0.3,1.9c0,0-0.3,0.6-0.3,1.1
		C366.3,207,366.6,207.6,366.6,207.6L366.6,207.6z"/>
	<path d="M391.2,237.5c0,0,0,7.5-1.7,9.4h0.8c0.3-0.3,0.8-2.8,1.1-3.6c0.3-1.1,0.3-5,0.3-5L391.2,237.5z"/>
	<path d="M363.8,227c-0.3,1.7,6.1,7.8,6.1,7.8l1.7-0.8C371.8,233.9,365.7,229.5,363.8,227"/>
	<path d="M381.5,185.4c0,0,0,0.6,0,1.1c0,0-0.3,0.8,0.8,1.4c0.6,0.3,1.1,0.8,1.4,1.4c0,0,0,0.3,0.3,0.3c0.3,0.3,0.3,0.3,0,0.8
		c0,0.3-0.3,0.3-0.3,0.6c0,0-0.3,0.3,0,0.3l0,0c0,0.3,0.3,0.8,0.8,0.8c0,0,0.3,0.3,0,1.1v0.3c-0.3,0.8,0,3,0.6,2.8
		c0.6,0,0.6-1.9,0.6-2.2c0.3-0.3,0.6-1.7,0.3-2.2c0-0.3,0-0.3-0.3-0.6c-0.6-0.3-0.6-0.6-0.6-0.6s0,0,0-0.3c0,0,0.3-0.3,0.3-0.6
		c0.3-0.3,0-1.1,0-1.4c-0.3-0.3-1.1-1.4-1.7-1.7c-0.6,0-0.8-0.3-0.8-0.6c0,0,0-0.3,0-0.6c0-0.6,0-0.8,0-1.1
		c-1.7-2.2-3.9-1.9-3.9-1.9l-1.1,1.1C377.9,184.3,379.6,183.5,381.5,185.4"/>
	<path d="M369.1,199.8c0.3,0.3,1.9,0.3,4.7,2.2c0.6-0.8-2.5-2.2-3.9-2.8c-0.8,0-0.8,0.3-0.8,0.3
		C369.1,199.5,369.1,199.5,369.1,199.8"/>
	<path d="M360.7,242.5c-2.5-3.3-7.8-3.3-9.4-1.7l-0.3-0.3c-0.8-0.6-2.8-1.9-3.9-2.5c-1.7-1.7-2.2-2.2-2.8-2.2
		c-1.4-0.8-3.9-1.7-6.1-2.2c-0.3-4.7-0.8-5.8-1.1-6.1c0-0.3,0.6-4.2,0.6-6.7c1.4,0.3,3,0.6,4.7,0.6c0.8,0,1.4,0,1.9-0.3
		c1.4-0.3,3.9-1.1,4.7-2.8l0.3-0.3v-0.3c0-0.3,0.8-3.3-1.1-6.1c-1.1-1.9-4.7-5.5-6.7-7.5c0-1.1,0.3-2.2,0.3-2.2
		c0-0.8-0.3-1.7-1.1-2.8c-0.3-0.3-2.5-3-3.3-3.3c-0.6-0.3-1.7-0.6-2.5-0.6c-0.3,0-0.6,0-0.8,0c-2.2,0.6-1.9,3.9-1.9,4.2
		c-0.3-0.3-0.6-0.3-0.8-0.6c-0.8-0.8-1.9-1.4-3-1.7c-0.6-0.6-1.4-0.8-2.5-0.8h-0.3c-1.4,0-1.4,0.3-2.2,0.8c-1.1,0.3-1.9,0.8-2.8,1.7
		c-0.6,0.3-1.4,1.1-1.9,1.9c-0.6,0.6-1.4,1.4-1.9,3l-0.3,0.6c-0.6,1.4-1.1,2.8-0.6,4.4l0,0c-1.4,0.3-3,1.1-4.2,3
		c-0.6,0.8-0.8,1.9-1.4,3c-0.6,0-6.9,0.8-6.7,3.9c0,0.8,0.6,1.9,1.4,2.5c-0.6,1.1-0.6,2.2,0,3c0.6,0.8,1.1,1.4,1.7,1.7
		c0.3,0.8,0.6,1.7,1.1,2.2c0.6,0.8,1.4,1.4,1.9,1.7c-1.1,0.3-2.5,0.8-3.6,1.9c-1.7,1.1-4.4,3.9-2.2,7.8c0.3,0.6,1.4,1.9,6.9,7.2
		c-0.3,0.3-4.7,8.3,2.5,8.6c1.7,2.8,7.2-1.1,7.5-1.4c0.6,0,8,0,5.8-5.5c0.6,0,3-0.8,3.3-0.8c0.8,0.3,2.8,1.1,3.9,1.1
		c0.6,0,1.4,0,1.9,0c0.8,0,2.5,0,3.6-0.3c0.3,0,0.6,0,0.8-0.3c0.8,1.4,1.9,2.8,3.6,3.6c1.9,1.1,6.1,3,7.8,3.6
		c0.3,0.3,3.3,2.8,5.3,2.8c6.4,0,4.4-5.8,4.4-6.1C361.6,251.4,362.7,244.7,360.7,242.5"/>
	<path class="st4" d="M338.6,211.7c-0.3-0.3-2.8-0.8-3.6-1.1c-0.3-0.3-1.4-0.8-1.4-0.8s1.7-1.1,1.4-1.9c-1.1-5.5-3-5.8-3-5.8
		s-0.6-1.4-2.2-1.4c-0.3-1.1-2.5-1.4-2.5-1.4s-0.6-0.8-1.4-0.8c-0.6,0-0.8,0.3-1.1,0.8c0,0-1.4-0.3-2.2,1.4c0,0-1.1,0.3-1.7,1.9
		c0,0-0.8,0.3-1.7,2.2c-0.6,1.4-1.1,2.5-0.8,3.6c0.3,0.8,1.1,1.9,1.1,1.9s-0.8,0.6-1.7,0.8c-0.8,0.3-2.8,0.3-3.6,1.9
		c-0.8,1.7-1.9,4.7-1.9,4.7s-0.6-0.3-1.1-0.3s-3,0-3.6,0.6c-0.3,0.3-1.4,0.3-1.4,0.8c0,1.1,1.9,0.8,1.9,0.8l-0.6,2.5
		c0,0-0.8,0.8-0.6,1.1c0.3,0.3,0.6,0.6,0.8,0.6s0.8-0.6,0.8-0.6s0,2.5,1.1,3.9s2.2,1.9,2.2,1.9s0.8,0.3,1.4,0
		c0.8-0.3,1.9-1.4,2.2-1.7c0-0.3,0.6-1.7,0.6-1.7s0.6-2.2,0.8-2.2s0.6,0.3,0.6,0.3v4.4c0,0-1.7,3.3-1.7,4.2c-0.8,0-5-0.3-8.3,2.2
		c-2.8,1.9-1.9,3.6-1.4,4.7c0.6,0.8,9.1,9.1,9.4,9.7c0,0.3,0.3,0.6-0.3,0.6h-0.8c0,0-1.4-0.6-1.7,0c-0.6,1.4,0.8,1.1,0.8,1.4
		c0,0.3-1.1-0.3-1.4,0.6c-0.3,0.8,0,1.7,0.6,2.2c0.3,0.6,1.1,0.3,1.4,0.3s0.3,0.6,1.1,0.6c1.4,0.6,5-2.2,5.3-1.9
		c1.7,0.8,3.6-0.6,3.6-1.7c0-0.8,0-1.4-0.3-2.2c-0.3-0.6-1.4-1.9-1.4-1.9s1.4-0.3,1.7-0.6c0,0,0.3,0,0.6,0c0.6,0.3,2.2,0.6,3,0.6
		c0.6,0,2.8-1.1,3-0.8c0.3,0.3,2.5,1.1,3.3,1.1s3.9,0,4.7,0c0.8-0.3,2.5-0.6,2.5-0.6s1.4,3.3,3.6,4.4c2.2,1.1,7.8,3.6,7.8,3.6
		s2.2,2.5,3.9,2.5c1.4,0,1.9-1.4,1.9-1.7c0-0.3,0-1.9,0.3-2.8c0.3-0.8,0.6-3.6,0.6-4.7c0-1.1,0.6-4.7-2.8-5c-0.6,0-1.7-0.3-1.9-0.3
		c-0.6,0-0.3,1.1-0.3,0.8c-0.3-0.6-0.8-0.6-0.8-0.6c-0.6,0.3-0.8,0.8-0.8,1.1c0,0.6,0.3,1.9,0.3,1.9s-2.8-2.2-3.3-2.8
		c-0.8-0.6-3.9-2.5-3.9-2.5s-1.7-1.7-2.2-1.9c-0.3-0.3-4.7-2.5-7.2-2.2c0-1.9,0-6.1-1.1-8.3c0-0.6,0.6-6.7,0.3-8.3
		c-0.3-0.8,0.8-1.1,1.4-1.1s5.8,1.1,7.2,0.6c0,0,2.8-0.6,3.3-1.7c0,0,0.6-2.2-0.8-4.4c-1.4-1.9-5.8-6.7-7.2-7.8
		c0.3-1.1,0.3-3.3,0.3-3.3s0-0.6-0.3-0.8c-0.3-0.3-2.5-2.8-2.8-3c-0.3-0.3-1.1-0.6-1.7-0.6c-0.3,0-0.3,0.8,0,1.1s0.8,0.8,0.8,0.8
		l0.3,0.8c0,0-0.6,0.3-0.6,0.6c0,0.3,0,1.4,0,1.4c0.3,0.3,0.6,0.3,0.6,0.3s-0.6,1.1-0.8,1.1c-0.3-0.6-1.1-2.2-1.7-1.7
		c-0.3,0.3-0.3,0.8-0.3,1.1c0,0.6,0.8,2.5,1.4,3c0.3,0.3,0.6,0.6,0.6,0.6S338.6,210.9,338.6,211.7"/>
	<path d="M310.9,233.6c4.2-0.6,11.6,12.5,11.9,12.7c0.3,0.3,0.8-0.3,0.8-0.3C323.3,245.5,316.7,231.7,310.9,233.6"/>
	<path d="M310.3,220c0.8,0,1.9-1.4,1.7-1.7c-0.3,0-0.8,0.8-1.9,0.8c-0.3,0-0.8,0-1.4-0.3l0,0c0,0.3-1.1,0.3-1.1,0.3v0.6l0.8-0.3
		C308.9,220,309.5,220,310.3,220"/>
	<path d="M316.7,212.3c-0.8,0,0,11.9,0,11.9l0.8-1.1c0-0.6-0.3-4.2-0.3-4.7c0.3,0.3,4.4-0.6,5.3-2.2c0,0-2.8,0.6-3.6,0.3
		c-1.4-0.3-1.7-0.8-1.7-1.1C317.5,215.3,317,212.3,316.7,212.3"/>
	<path d="M316.1,230.9l-0.8,0.6c5.8,3,9.1,14.1,9.1,14.4l0,0l1.9,0.6C326.4,246.4,321.9,233.6,316.1,230.9"/>
	<path d="M329.4,245.8c0.3,0.3,1.7-0.3,1.7-0.3l0,0c0,0-0.3-5.5,4.2-9.4C335.2,235.8,330.5,237,329.4,245.8"/>
	<path d="M353,245l-1.1-0.8c0,0,0.6,2.5,0.6,3.3c0,0.3,0,0.3-0.3,0.3l0,0c-0.3,0.6,0,2.2,0,2.2s0.6-0.8,0.8-1.4l0,0
		c0.3-0.3,0.3-0.3,0.3-1.4C353.3,246.9,353,245,353,245"/>
	<path d="M335.8,212.3c-0.3,0-0.6,2.8-0.6,3.3c0,0,0,1.9-2.2,1.7c-1.9-0.3-2.8-0.8-2.8-0.8c0.8,1.4,4.2,2.2,5,3.3
		c0.3,0.3,0.3,1.7,0.3,1.7h0.6v-2.2l0.6-0.3C336.6,213.9,336.1,212.3,335.8,212.3"/>
	<path d="M321.9,210.1c-1.1,0-3,0.3-3,0.3l-1.9,0.6l0.6,0.6c0,0,2.8-0.6,4.4-0.6c0.3,0,0.6,0,0.8,0c1.7,0.3,3.3,1.1,3.3,0.8
		c0-0.3-2.2-1.1-3.3-1.4C322.5,210.1,322.2,210.1,321.9,210.1"/>
	<path d="M335.2,210.9L335.2,210.9L335.2,210.9L335.2,210.9l0.3-0.6l-0.8-0.6h-4.2c-1.1,0-4.2,1.4-3.9,1.4c0.3,0.3,2.5-0.8,3.9-0.8
		C332.2,210.3,335.2,210.9,335.2,210.9"/>
	<path d="M332.2,203.1c0.8-0.8-0.8-1.7-0.8-1.9c0,0,1.1,1.4,0.3,1.1c-0.8-1.1-3.6-1.9-3.6-2.2c-0.3-0.3,0.3-0.6,1.9,0.6
		c0-0.3-0.8-1.1-2.2-1.1c0-0.3-0.3-0.3-0.3-0.6l0,0c0,0-0.3,0,0,0c0,0,0.3,0.6,0,0.6s-0.6-0.6-0.6-0.6c-0.3-0.3-0.8,0-0.6,0.3
		c0,0,0.3,0.3,0.6,0.3s0,0.3,0,0c-0.3,0-0.6,0-0.8,0s-0.6,0-0.8,0.3c0,0-0.3,0,0-0.3l0.3-0.3c0.6-0.3-0.3-1.1-0.6,0
		c0,0.3-0.3,0.3-0.3,0.3c-0.6,0,0-0.6,0-0.6l0,0c0,0-0.3,0.3-0.3,0.6c0,0-1.7,0-1.9,0.8c1.1-0.8,1.9-0.8,1.7-0.6
		c0,0.3-1.4,0.8-1.9,1.4c-0.6,0.3-1.1,1.1-1.1,1.1c-0.3,0-0.3-0.6,0-1.1c-0.8,0.8-0.6,1.4-0.3,1.7c-0.3,0.8-0.3,1.9,0.3,3
		c0.6,0.8,3,3,3.3,2.8c0.3-0.3-2.8-2.8-3-3.9c-0.6-2.5,3-5,4.2-5c0,0,0.3,0.3,0.8,0.3c0.8,0,0.8-0.3,0.8-0.3c0.8,0,5.3,1.4,4.7,4.7
		c-0.3,1.1-0.6,2.2-0.3,2.2c0.3,0,0.3-0.6,0.8-1.4C332.5,205.1,332.5,204,332.2,203.1"/>
	<path d="M343.3,217.6c-0.6-0.6-5.3-6.1-5.3-6.1l-0.3-0.3c0,0-0.6,0-0.6,0.3c0.8,1.7,3,4.2,4.7,5.5
		C342.7,217.3,343.3,217.8,343.3,217.6"/>
	<path d="M315,247.8c0.3,0.3,0.6,0.8,0.6,0.8s0.6-1.4,1.7-1.9c0.8-0.6,2.8-1.4,3.3-1.4C317.8,244.7,315,246.7,315,247.8"/>
	<path d="M313.3,225c0.6,0,0.6-0.6,0.6-1.1l0,0c0,0,0.6-0.6,0.8-1.4c0.3,1.4,0.8,3.9,0.6,4.7l-0.8,0.8l0.8-0.6
		c0.3,0,0.8-0.6,0.6-1.7c0-0.6-0.8-4.7-0.8-4.7v-0.3c0-0.6-0.3-1.1-0.6-1.4c-0.6-0.8-1.4-1.1-1.9-1.1c0,0,2.2,1.4,1.9,3
		c-0.3,1.4-0.6,1.7-0.6,1.7l-0.3-0.3v0.8c0,0.6-0.3,0.6-0.6,0.6c-0.8,0-1.4,1.1-2.5,0.8c-0.8-0.3-1.4-0.8-1.9-1.4
		c-0.6-0.3,0.3-1.1,0.3-1.1s0-0.3-0.3-0.6c-0.3-0.3-0.6,0.8-0.6,0.8s-0.6,1.4,0.3,1.7c1.4,0.8,0.8,0.8,2.2,1.1
		C312.5,226.1,312.2,225,313.3,225"/>
	<path d="M373.2,184.3c-0.8,0-2.2-0.6-2.5-2.2c0-0.3-0.8-2.2-1.7-3.9c-3.9-9.4-3.6-5.8-3.3-7.5c0.6-2.8,4.4-3,6.9-3
		c0.6,0,1.1,0,1.4,0c1.4,0,2.5,0.6,3.3,1.4c1.4,1.4,1.9,3.6,1.9,4.7c0,0-1.9,6.1-3,8l0,0C374.9,184.3,373.5,184.3,373.2,184.3
		L373.2,184.3L373.2,184.3z"/>
	<path class="st4" d="M374,169.9c0,0-5.8-0.3-6.4,1.4s3.6,8.6,5,10.5c0.8,1.4,1.9-0.8,1.9-0.8c0.6-1.1,2.8-6.1,2.8-6.9
		C377.4,172.9,376.8,169.9,374,169.9"/>
	<path d="M209.1,112.2c0,0,16.1,1.1,19.1,19.4c0.8-3.3-2.8-14.4-7.5-17.2c-0.6-0.3-2.5-1.4-1.1-4.4
		C214.1,109.2,209.1,112.2,209.1,112.2"/>
	<path d="M286.5,119.7c0,0,10-3.6,12.2,12.2c1.1-5.8-0.3-12.7-4.2-14.7C290.3,115,286.5,119.7,286.5,119.7"/>
	<path d="M239.6,136.6c0,0,1.1,3.3,1.9,3.9c1.1,0.6,3.9-3.6,3.9-3.6s-1.9,5-3.6,6.1C240.7,142.4,240.2,141.1,239.6,136.6"/>
	<path d="M243.8,140.5c0,0,1.7,3.3,2.8,3.9s3.6-3.3,3.6-3.3s-2.2,5-3.3,6.1C245.5,146.3,243.5,144.9,243.8,140.5"/>
	<path d="M234.6,146.1c0,0,1.9,3.6,3,4.2c1.9,0.8,2.2-4.4,2.2-4.4s0.8,5.8-1.4,7.8C236.6,152.1,235.5,151.6,234.6,146.1"/>
	<path d="M239.4,143.8c0,0,1.1,3,1.9,3.9c1.1,0.8,3-5,3-5s-0.6,5.5-2.2,8.3C241.3,150.2,239.6,148.3,239.4,143.8"/>
	<path d="M243.5,146.6c0,0.3,1.9,3,3,3.6c1.1,0.6,1.9-4.4,1.9-4.4s0.3,5.5-1.1,7.2C246.6,152.1,243.8,150.8,243.5,146.6"/>
	<path d="M244.6,133.3c0,0,1.9,4.2,3,5c1.1,0.6,3-3.9,3-3.9s-0.8,5-3,6.4C246,139.4,245.5,138.6,244.6,133.3"/>
	<path d="M241.3,129.7c0,0,1.1,3,2.2,3.6c1.1,0.6,2.8-3.6,2.8-3.6s-1.1,5.5-2.8,7.2C242.7,135.8,242.1,134.1,241.3,129.7"/>
	<path d="M247.9,128.6c0,0,0.8,2.8,1.9,3.3c0.8,0.6,2.2-1.7,2.2-1.7s-0.6,3.9-2.2,4.2C249.1,133.6,248.2,132.5,247.9,128.6"/>
	<path d="M252.7,125.3c0,0,0.6,2.5,1.4,3c0.8,0.6,2.2-1.7,2.2-1.7s-0.3,2.8-2.2,4.2C253.2,129.7,252.4,128.6,252.7,125.3"/>
	<path d="M257.4,121.7c0,0,0.6,2.5,1.4,3c0.8,0.6,2.2-1.7,2.2-1.7s-0.3,3.6-2.2,3.9C259,126.9,257.1,124.7,257.4,121.7"/>
	<path d="M235.5,140c0,0,1.7,3,2.5,3s2.2-3,2.2-3s-0.8,4.2-2.2,5C237.4,144.1,236,142.7,235.5,140"/>
	<path d="M245.7,125.5c0,0,0.8,2.5,1.4,3c0.8,0.6,1.9-1.9,1.9-1.9s-0.3,3.6-1.7,4.7C246.6,130.5,245.5,129.1,245.7,125.5"/>
	<path class="st4" d="M318.3,165.2c-2.8-0.8-6.1-6.7-7.2-9.1c-1.1-2.5-2.8-9.7-1.7-12.2c0.6,2.5,2.2,8,3.3,10.5
		C314.5,158.2,316.7,163,318.3,165.2"/>
	<path d="M377.4,238.3c-0.6-1.1-3-1.9-4.2-2.2c-1.1-0.3-1.4-0.3-1.4,0.8c0,0.8,0,1.7,0,2.8c0.3,1.7,0.3,1.1,1.9,1.1
		c1.1,0,1.9,0.3,3,0.3s1.1,0,1.1-1.1C377.9,239.4,378.2,238.6,377.4,238.3"/>
	<g class="st7">
		<path d="M345.5,471.4v-1.1h7.8v1.1h-3.3v8.3h-1.4v-8.3H345.5z"/>
		<path d="M354.4,480v-9.4h1.9l2.8,8l2.8-8h1.9v9.4h-1.1v-8l-2.8,8h-1.4l-2.8-8v8H354.4z"/>
	</g>
</g>
</svg>
