<?xml version="1.0" encoding="utf-8"?>
<!-- Generator: Adobe Illustrator 22.1.0, SVG Export Plug-In . SVG Version: 6.00 Build 0)  -->
<svg version="1.1" id="Layer_1" xmlns="http://www.w3.org/2000/svg" xmlns:xlink="http://www.w3.org/1999/xlink" x="0px" y="0px"
	 viewBox="0 0 1920 1080" style="enable-background:new 0 0 1920 1080;" xml:space="preserve">
<style type="text/css">
	.st0{fill:#007AC4;}
</style>
<g>
	<g>
		<path class="st0" d="M1410.4,498.6c-26.8,0-53.4,0-80.3,0c-0.2-0.5-0.4-0.9-0.4-1.3c0.3-9.7,0.4-19.5,2.4-29.1
			c3.3-15.1,11.8-26.1,25.4-33.3c9.1-4.8,19-7.3,29.1-8.9c14.2-2.2,28.6-2.4,42.9-2.6c15.3-0.3,30.5,0,45.7,1.3
			c12.8,1.1,25.6,2.7,37.8,6.8c24.4,8.2,38.8,25.2,42.8,50.7c2,12.6,2.8,25.3,2.8,38c-0.1,48.6-0.1,97.3-0.1,145.9c0,1.4,0,2.7,0,4
			c-2.6,0.8-76.1,0.9-79.8,0.2c0.9-12.9,1.8-25.9,2.7-38.8c-1.8-0.8-2.1,0.4-2.5,1.3c-1.7,3.6-3.1,7.4-5,10.9
			c-8.8,16.5-22.6,25.7-41.1,28c-17.2,2.1-34.3,2-51.5,0.4c-8.5-0.8-16.8-2.4-24.7-5.6c-17-6.8-27.9-19.1-32.7-36.8
			c-2.3-8.5-3.4-17.1-3.9-25.8c-0.6-11.5,0-22.9,2.3-34.2c3.9-19.4,15.3-32.4,33.3-39.9c9.7-4.1,19.9-6.3,30.3-7.5
			c15.8-1.7,31.6-1.5,47.4,0.1c6.2,0.6,12.4,2,18.6,3.4c9.8,2.2,16.6,8.4,21.4,17c1.2,2.1,2.2,4.3,3.3,6.4c0.4,0.8,0.9,1.5,1.6,3
			c0.3-1.4,0.6-2.1,0.6-2.8c0-16.4,0-32.8-0.2-49.2c0-3.4-0.8-6.8-1.6-10.1c-1.6-6.8-5.9-11.3-12.3-13.9c-3.6-1.4-7.4-2.5-11.2-3.1
			c-9.5-1.5-19-1.6-28.3,1c-1.2,0.3-2.4,0.8-3.5,1.3c-5.2,2.3-8.6,6.1-9.6,11.7C1411.5,491,1411,494.7,1410.4,498.6z M1441.9,621.1
			c1.5,0,3,0.1,4.5,0c5.3-0.5,10.7-0.8,16-1.7c8.6-1.5,13.7-6.7,15.4-15.4c1.1-5.8,1.4-11.6,0.6-17.4c-0.9-5.9-3.9-10.3-9.6-12.4
			c-3.3-1.2-6.7-2.2-10.2-2.9c-9.7-1.9-19.6-1.9-29.4-1.3c-6.1,0.3-12.1,1.3-17.7,3.9c-4.9,2.2-8.1,5.8-9.6,11c-1.7,6-1.7,12-0.6,18
			c1.6,9.4,5.8,13.8,15.1,15.9C1424.7,620.9,1433.3,621,1441.9,621.1z"/>
		<path class="st0" d="M258.2,670.6c0.4-13.2,2-26.1,2.4-39c-2.2-0.5-2.1,1.1-2.5,2c-1.7,3.6-3.2,7.4-5.1,10.9
			c-8.8,16.2-22.5,25.2-40.8,27.5c-17,2.1-34.1,2-51.2,0.5c-7.7-0.7-15.2-2.1-22.5-4.7c-19-6.7-30.9-19.8-35.8-39.4
			c-3.9-15.5-4.3-31.3-2.9-47.1c0.5-5.8,1.7-11.5,3.3-17.2c4.1-14.3,13-24.5,26.1-31.3c9.8-5.1,20.2-8,31.1-9.6
			c16.3-2.4,32.7-2.1,49.1-0.9c7.8,0.6,15.4,1.9,23,4c8.6,2.5,14.9,7.8,19.4,15.4c1.4,2.5,2.7,5.1,4,7.6c0.4,0.8,0.8,1.6,1.5,3
			c0.3-1.3,0.7-2,0.7-2.7c0-17,0-34-0.3-50.9c-0.1-3.5-1-7-2-10.4c-1.9-6-6.3-9.7-11.9-12.1c-5.6-2.5-11.7-3.4-17.7-3.8
			c-7.2-0.5-14.4-0.2-21.5,1.8c-0.8,0.2-1.5,0.5-2.3,0.8c-6.3,2.4-10.2,6.8-11.3,13.5c-0.5,3.3-0.9,6.6-1.4,10
			c-26.8,0-53.5,0-80.2,0c-0.2-0.4-0.4-0.7-0.4-1c-0.1-10,0.2-20,2.4-29.8c3.9-17.4,14.7-28.9,31-35.5c11.3-4.6,23.1-6.8,35.1-7.6
			c22.2-1.6,44.5-1.8,66.7-0.6c15.9,0.8,31.8,2.3,47.1,7.2c26,8.4,40.4,26.5,44.2,53.4c1.7,12.3,2.3,24.6,2.2,37
			c-0.1,48.3-0.1,96.6-0.1,144.9c0,1.3,0,2.5,0,3.7C335.2,671.1,263.7,671.3,258.2,670.6z M220.6,621.1c1.9,0,3.9,0,5.8,0
			c6.3-0.2,12.6-0.6,18.6-2.7c5.7-1.9,9.2-5.7,10.9-11.4c2.2-7.4,2.4-14.9,0.9-22.4c-0.8-4-2.9-7.3-6.7-9.1
			c-2.9-1.3-5.9-2.7-8.9-3.4c-11.5-2.8-23.2-2.8-34.9-1.9c-5.5,0.4-10.9,1.5-16,3.8c-5.2,2.3-8.4,6.2-9.8,11.7
			c-1.6,6.1-1.4,12.2-0.2,18.4c1.6,8.4,6.5,13.3,14.9,15C203.6,620.7,212.1,621,220.6,621.1z"/>
		<path class="st0" d="M805.8,589.3c25.9,0,51.6,0,77.6,0c0,4,0.2,7.9,0,11.7c-0.6,11.1-2.5,21.8-7,32.1
			c-6.7,15.2-17.7,25.7-33,31.9c-9.7,3.9-19.8,5.8-30.1,6.8c-20.8,2.1-41.7,2.1-62.6,1.2c-15.5-0.6-30.9-2.3-45.8-6.7
			c-13.2-3.9-24.9-10.4-34.4-20.6c-8-8.7-13.2-19-16.4-30.2c-2.8-9.6-3.9-19.5-4.7-29.5c-1.3-17.3-1.6-34.6-1.3-51.9
			c0.2-14.1,1-28.2,3.3-42.1c1.7-10.5,4.3-20.6,9.9-29.9c7-11.7,16.8-20.2,29-26.1c10.8-5.3,22.3-8.3,34.2-9.9
			c24.7-3.4,49.4-3.4,74.1-1.3c11.4,1,22.7,2.9,33.6,6.7c19.4,6.7,33.1,19.6,41.4,38.3c4.6,10.2,7.1,21,8.5,32.1
			c2.2,17.9,1.9,35.9,1.6,53.9c0,1.9,0,3.9,0,6.3c-10.7,0.2-21.1,0.1-31.5,0.1c-10.4,0-20.9,0-31.3,0c-10.3,0-20.6,0-31,0
			c-10.4,0-20.9,0-31.3,0c-10.4,0-20.9,0-31.4,0c-0.2,1.1-0.5,2-0.5,2.9c-0.2,9.6-0.1,19.3,1.8,28.8c0.2,0.8,0.4,1.6,0.5,2.3
			c2.3,10.5,9,16.6,19.2,19.3c8.1,2.1,16.3,2.5,24.6,2c5.3-0.3,10.8-0.9,16-2.2c10.4-2.5,14.5-7.5,16.1-18.8
			C805.4,594.2,805.5,591.9,805.8,589.3z M806.9,517.8c-0.5-7.1-0.2-13.9-1.8-20.5c-1.7-7.1-5.8-11.8-12.5-14.3
			c-2.4-0.9-5-1.6-7.6-1.9c-4-0.5-8-0.7-12-0.7c-7.8,0.1-15.6,0.2-23.3,0.9c-8.9,0.8-15.9,5-19.4,13.7c-2.9,7.3-2.4,15-2.5,22.9
			C754.3,517.8,780.3,517.8,806.9,517.8z"/>
		<path class="st0" d="M1610.5,426.2c26.4,0,52.7,0,79.4,0c-1,15.8-2,31.5-3,47.7c1.7-1.1,1.8-2.3,2.2-3.3c2.4-6.7,5.3-13.2,9-19.3
			c8.2-13.8,20.6-21.8,36.1-25.3c12-2.7,24.1-3.1,36.3-2.3c11.5,0.7,22.8,2.4,33.6,6.5c13.8,5.2,24.9,13.5,32,26.7
			c4.1,7.6,6.2,15.8,7.1,24.3c0.6,5.5,0.9,11,0.9,16.5c0.1,56.3,0,112.7,0,169c0,1.3,0,2.5,0,4c-26.5,0-52.9,0-79.5,0
			c-0.1-1.4-0.2-2.7-0.2-4.1c0-43.8,0-87.6,0-131.5c0-7.9-0.5-15.8-0.9-23.7c-0.1-2.3-0.6-4.5-1-6.8c-1.9-10.1-8.3-15.9-18.1-17.8
			c-10.4-2-20.8-1.5-30.9,2c-11.4,3.9-18.5,11.9-21.6,23.5c-1.7,6.3-1.9,12.7-1.9,19.1c0,45.1,0,90.2,0,135.2c0,1.3,0,2.5,0,4
			c-26.5,0-52.8,0-79.1,0C1609.9,668.2,1609.7,430.7,1610.5,426.2z"/>
		<path class="st0" d="M1276.1,496c-25.4,0-50.4,0-75.6,0c-0.6-2-1.1-4-1.7-5.9c-2-7.3-6.3-12.1-14.1-13.2
			c-4.8-0.7-9.5-1.3-14.3-1.6c-9.5-0.5-19-0.2-28.5,1.1c-10.4,1.4-15,6.3-15.5,16.7c-0.2,3.4,0.1,6.9,0.9,10.2
			c1.6,6.4,6.1,10.1,12.7,11c4.8,0.6,9.6,1,14.4,1.3c19.6,1.2,39.2,2.2,58.7,3.6c11.2,0.8,22.4,1.9,33.2,5.4
			c7.5,2.4,14.4,5.8,20.6,10.7c8.3,6.6,13.6,15.2,16.4,25.3c5.4,19.6,5.2,39.2-0.1,58.8c-5.2,19.2-17.4,32.7-34.8,41.8
			c-8.9,4.6-18.3,7.2-28.1,8.7c-22.4,3.4-45,3.9-67.6,3.6c-12.1-0.2-24.1-0.7-36-2.2c-11.4-1.4-22.7-3.4-33.2-8.2
			c-20.1-9.1-31.2-24.9-34.1-46.5c-0.8-6.1-0.9-12.3-1.3-18.5c-0.1-1.1,0-2.2,0-3.6c27.2,0,54.1,0,81.4,0c0.1,1.5,0.1,3,0.3,4.4
			c0.3,3.2,0.4,6.4,1.1,9.5c1.1,4.8,4.1,8.1,8.8,9.7c5.3,1.8,10.7,2.5,16.2,2.7c10.4,0.5,20.9,0.8,31.3-0.6
			c4.1-0.5,8.1-1.5,12.1-2.6c6.4-1.8,9.6-6.4,10.4-12.8c0.6-4.7,0.3-9.4-0.7-14c-1.4-6.1-5.1-9.8-10.9-11.8
			c-5.4-1.8-11-2.6-16.6-2.8c-9.5-0.4-19-0.4-28.5-0.8c-17.3-0.6-34.6-1.6-51.7-4.8c-10.4-1.9-20.1-5.6-28.7-11.8
			c-10.6-7.5-17.1-17.8-20-30.3c-4.5-19.7-4.6-39.6,0.4-59.3c2.5-9.8,7.1-18.6,14.5-25.7c6-5.8,13.3-9.3,21-12
			c9.9-3.5,20.2-5.2,30.6-6.2c21.6-2.1,43.3-2.4,65-1.8c14.9,0.4,29.8,1.3,44.4,4.5c10,2.2,19.2,6,27.3,12.4
			c11.2,8.8,17.3,20.6,19.4,34.5c0.8,5.8,0.9,11.6,1.2,17.5C1276.4,493.6,1276.2,494.6,1276.1,496z"/>
		<path class="st0" d="M606.3,495.9c-25.6,0-50.6,0-76,0c-0.2-0.8-0.5-1.8-0.8-2.7c-1.2-3.2-2.3-6.5-3.8-9.5c-1.5-3-4.1-5-7.4-5.8
			c-3.2-0.9-6.5-1.7-9.7-2c-12.1-1.2-24.3-1.2-36.4,0.4c-11.2,1.5-16.1,7.1-16.2,18.4c0,2.7,0.2,5.5,0.9,8.2
			c1.6,6.5,6.3,10.8,13.1,11.4c8.8,0.9,17.6,1.5,26.4,2c19.8,1.3,39.6,1.8,59.4,4.2c8.1,1,16.1,2.5,23.8,5.3c19,6.9,30.8,20.1,35,40
			c3.8,17.9,3.5,35.8-1.4,53.5c-5.3,19.4-17.7,33-35.4,42.2c-10.3,5.3-21.3,7.6-32.6,9.1c-25.3,3.4-50.8,3.4-76.2,2.5
			c-13.2-0.5-26.3-1.7-39.2-4.6c-9.4-2.1-18.2-5.4-26.2-10.8c-13.4-9.1-20.9-21.9-23.8-37.6c-1.5-7.9-1.6-16-1.8-24
			c0-0.4,0.1-0.9,0.2-1.3c2.5-0.7,74.4-1,81.2-0.3c0.1,1.4,0.1,2.8,0.3,4.2c0.3,3.1,0.4,6.2,1,9.2c1.1,5.4,4.3,9.2,9.8,10.4
			c5,1.1,10.1,2.2,15.2,2.5c10.5,0.7,21.1,0.8,31.6-0.6c4.3-0.6,8.6-1.6,12.7-2.9c5.1-1.6,8.2-5.4,9.2-10.6
			c1.2-5.9,0.8-11.9-0.9-17.7c-1.4-4.6-4.4-7.6-8.9-9.4c-5.9-2.4-12.2-3.1-18.5-3.4c-10.7-0.4-21.3-0.5-32-0.9
			c-16-0.7-32.1-1.7-47.9-4.7c-7.5-1.4-14.6-3.8-21.4-7.3c-15.4-8-24.4-20.8-27.9-37.6c-2.3-11.3-3-22.7-2.3-34.2
			c0.5-8.5,1.7-16.8,4.2-25c5.2-17,16.2-28.4,32.9-34.4c10.6-3.8,21.5-5.8,32.6-6.8c24.9-2.3,49.9-2.5,74.9-1.3
			c12.5,0.6,24.9,1.7,37.1,4.8c9.3,2.4,18,6.3,25.4,12.5c11.6,9.6,17.4,22.3,18.9,37C605.9,484,606,489.7,606.3,495.9z"/>
		<path class="st0" d="M1005.9,670.8c-26.5,0-52.7,0-78.9,0c-0.7-2.6-0.9-344.4-0.2-349.2c26.3,0,52.6,0,79.1,0
			C1005.9,437.9,1005.9,554.2,1005.9,670.8z"/>
	</g>
</g>
</svg>
