<?xml version="1.0" encoding="utf-8"?>
<!-- Generator: Adobe Illustrator 22.1.0, SVG Export Plug-In . SVG Version: 6.00 Build 0)  -->
<svg version="1.1" id="Layer_2_1_" xmlns="http://www.w3.org/2000/svg" xmlns:xlink="http://www.w3.org/1999/xlink" x="0px" y="0px"
	 viewBox="0 0 640 480" style="enable-background:new 0 0 640 480;" xml:space="preserve">
<style type="text/css">
	.st0{fill:url(#SVGID_1_);}
	.st1{fill:#FFFFFF;}
</style>
<g>
	<path d="M639.1,172.4c-2.2-3.7-6.4-4-8-4.1H372.2c-7.4,0-13.3,2.2-17.6,6.6c-3.1,3.1-5.3,7.2-6.4,12.2c0,0.1-0.3,1.2-2.5,1.2h-51.1
		c-2.2,0-2.5-1-2.5-1.2c-1.1-4.9-3.3-9-6.4-12.2c-4.4-4.4-10.3-6.6-17.6-6.6H8.9c-1.6,0.1-5.8,0.3-8,4.1c-1.1,1.8-1.9,4.9,0.4,9.2
		c0,0,4.7,7.9,4.7,7.9c1.9,3.2,4.1,4.3,8.8,4.6c0.1,0,2.2,0.2,3.7,2.8l4.8,8.5c1,1.9,3.4,6.5,11.6,7.6c0.1,0,2.5,0.3,3.9,2.8
		c0,0,5.9,10.5,5.9,10.5c1.8,3.4,4.2,4.6,8.6,6c0,0,108.3,31.8,108.3,31.8c3.7,1.1,5.2,5.2,5.2,5.2c2.6,6.7,5.9,12.2,22.8,17.3
		l88.6,24.2c1.1,0.4,11.3,3.4,18.9-3.9c0,0,20.7-19.8,20.8-19.8c0,0,0.9-0.9,2.1-0.9c1.2,0,2,0.9,2,0.9c0.1,0,20.8,19.8,20.8,19.8
		c7.7,7.4,17.8,4.3,18.9,3.9l88.6-24.2c16.9-5.1,20.3-10.6,22.8-17.3c0,0,1.5-4.2,5.2-5.2l108.3-31.8c4.4-1.4,6.9-2.6,8.6-6
		c0,0,5.9-10.5,5.9-10.5c1.3-2.5,3.7-2.8,3.9-2.8c8.2-1.1,10.6-5.7,11.6-7.6l4.8-8.5c1.5-2.6,3.7-2.8,3.7-2.8
		c4.6-0.3,6.8-1.5,8.8-4.6c0,0,4.7-7.9,4.7-7.9C641,177.3,640.2,174.2,639.1,172.4z M297.6,232.8h8.9l-13,46.7
		c-7.1-1-14.2-2.4-21.2-4.2C281.8,259.5,294.4,238.2,297.6,232.8z M293.2,232.8l-24.6,41.6c-6.6-1.9-13.1-4.1-19.4-6.8
		c13.3-13.9,29.5-30.7,33.4-34.8H293.2z M235.4,232.8h23.2L226.2,256c-5.7-3.4-11.1-7.2-16.4-11.2
		C222,239.1,233.2,233.8,235.4,232.8z M206.5,242.2c-0.3-0.2-7.7-6.4-10.8-9.4h30.8L206.5,242.2z M265,232.8h12.5l-31.9,33.2
		c-5.4-2.4-10.7-5-15.8-8C245.1,247.1,261,235.7,265,232.8z M267.8,173.1c6,0,10.8,1.8,14.2,5.2c2.5,2.5,4.2,5.8,5.1,9.8
		c0,0,0.2,0.7,0.4,1.2H160.4c-1.9-3.2-5.2-9-5.2-9c-0.1-0.3-2.3-4.1-6.4-7.2C148.9,173.1,267.8,173.1,267.8,173.1z M181.4,218
		c-1.6-1.9-3.3-3.8-4.8-5.8l11.4-1.5v5.9L181.4,218z M188,220.5v4.7c-1.2-1.3-2.5-2.6-3.7-4C185.8,220.9,187.1,220.7,188,220.5z
		 M173.9,208.9c-1.5-1.9-2.9-3.9-4.3-5.8l18.4-1.2v5.1L173.9,208.9z M166.9,199.3c-1.5-2.1-2.8-4.2-4.2-6.3H188v4.9L166.9,199.3z
		 M15.3,189.3c-3.3-0.3-4-0.6-5-2.3c0,0-4.3-7.1-4.6-7.7c-0.7-1.3-0.9-2.3-0.9-3c0.1-1.8,1.3-3.1,4.4-3.1h129c8.7,0,13.9,9,13.9,9
		c1.3,2.4,2.7,4.8,4.1,7.2H15.3z M32.8,207.6c-3.3-1.1-4.3-3.1-5-4.4c-2-3.4-4.7-8.5-5.9-10.2h136.5c1.4,2.2,2.8,4.4,4.3,6.6
		l-119.8,8C40.9,207.8,35.5,208.3,32.8,207.6z M48.9,223.6l-5.7-10.1c-0.4-0.7-0.8-1.3-1.3-1.9c0.7-0.1,123.4-8.2,123.4-8.2
		c1.5,2.1,2.9,4.1,4.4,6.1L54.9,224.8C50.5,225.4,49.2,224,48.9,223.6z M82.7,235.9c-8.6-2.5-17.1-5-25.7-7.6l115.3-15.5
		c1.6,2,3.2,4,4.9,6l-78.9,16.2C95.5,235.7,87,237,82.7,235.9z M121.8,247.3c-8.9-2.6-17.9-5.2-26.8-7.9c1.4-0.2,2.8-0.4,4.2-0.7
		c0,0,57.1-11.7,80.9-16.6c2.4,2.7,4.9,5.3,7.4,8l-52.9,16.3C134.5,246.4,127.4,248.8,121.8,247.3z M163,259.5
		c-1.1-0.3-13.7-4-29.9-8.8c0.9-0.2,1.8-0.4,2.7-0.7c0,0,44.4-13.7,54.7-16.9c3.9,3.8,8,7.4,12.2,10.9l-28.6,13.3
		C172.3,258.3,166.8,260.5,163,259.5z M185.9,280.2c-11.2-4.2-12.9-8.4-14.4-12.5c-0.6-1.7-1.6-3.3-2.8-4.6c2.5-0.5,4.9-1.3,7.1-2.4
		c0,0,15.1-7.1,30.2-14.1c5.4,4.3,11,8.2,16.9,11.8l-26.7,19.1C196.1,277.6,190.5,281.7,185.9,280.2z M218,289.3l-23.7-6.5
		c1.5-0.6,2.8-1.4,4.1-2.4c0,0,13.2-9.5,28-20c5.3,3.1,10.8,5.9,16.4,8.5l-15.6,16.3C225.9,286.6,221.5,290.2,218,289.3z
		 M250.8,298.3l-25.5-7c2.7-1.5,4.5-3.4,4.6-3.6c0,0,7.3-7.6,16.5-17.2c6.6,2.8,13.3,5.2,20.2,7.2l-8.4,14.3
		C257.2,293.9,253.8,298.8,250.8,298.3z M284.1,305.3c-1.5,0.9-3.1,1.1-5.1,0.6l-22.3-6.1c2.7-2.2,4.6-5.4,4.9-6
		c0,0,3.8-6.4,8.9-15.1c7.3,1.9,14.7,3.4,22.1,4.4l-4.3,15.6C288.2,298.8,287.2,303.3,284.1,305.3z M293.9,303.3
		c-1.5,1.5-3.4,2.5-5.5,3.1c2.5-2.8,3.3-6.3,3.4-6.8l4.4-15.9c5.5,0.6,11.2,1,16.9,1.2C308.6,289.3,293.9,303.3,293.9,303.3z
		 M318.1,281.3c-7.1-0.1-14-0.5-20.8-1.3l13.1-47.2h7.7V281.3z M352.8,188.1c0.9-4,2.7-7.3,5.1-9.8c3.4-3.4,8.2-5.2,14.2-5.2h118.9
		c-4.1,3.1-6.2,6.9-6.4,7.2c-1.6,3-3.4,6-5.2,9H352.4C352.7,188.8,352.8,188.1,352.8,188.1z M452,216.7v-5.9l11.4,1.5
		c-1.5,1.9-3.1,3.8-4.8,5.8C455.6,217.4,453.3,217,452,216.7z M455.7,221.2c-1.2,1.3-2.5,2.7-3.7,4v-4.7L455.7,221.2z M452,207v-5.1
		l18.5,1.2c-1.3,1.9-2.8,3.8-4.3,5.8L452,207z M452,197.9V193h25.3c-1.3,2.1-2.8,4.2-4.2,6.3L452,197.9z M381.4,232.8h23.2l25.6,12
		c-5.3,4-10.7,7.8-16.4,11.2C401.5,247.2,388.4,237.8,381.4,232.8z M410.3,258.1c-5.1,3-10.4,5.6-15.8,8
		c-11.6-12.1-25.6-26.7-31.9-33.2H375L410.3,258.1z M413.5,232.8h30.8c-3.1,3.1-10.6,9.2-10.8,9.4
		C426,238.7,418.7,235.3,413.5,232.8z M357.4,232.8l33.4,34.8c-6.3,2.6-12.8,4.9-19.4,6.7l-24.6-41.6H357.4z M342.5,232.8l25.2,42.6
		c-7,1.8-14,3.2-21.2,4.2l-13-46.7H342.5z M321.9,281.3v-48.5h7.7l13.1,47.2C335.9,280.8,329,281.3,321.9,281.3z M342.9,300.3
		c0,0-12-11.4-16.1-15.3c5.7-0.2,11.3-0.6,16.9-1.3l4.4,15.9c0.1,0.6,1,4,3.4,6.8C348.2,305.4,347.2,304.5,342.9,300.3z
		 M361.1,305.9c-2,0.4-3.7,0.3-5.1-0.6c-3.1-1.9-4.2-6.3-4.2-6.5l-4.3-15.6c7.4-1,14.8-2.5,22.1-4.4l8.9,15.1
		c0.3,0.5,2.1,3.7,4.9,5.9L361.1,305.9z M389.2,298.3c-3,0.4-6.4-4.4-7.4-6.2l-8.5-14.3c6.9-2,13.6-4.4,20.2-7.2l16.5,17.2
		c0.1,0.1,2,2.1,4.6,3.6L389.2,298.3z M426.2,288.2l-4.2,1.2c-3.6,0.9-7.9-2.7-9.3-4.1c0,0-6.8-7.1-15.6-16.2
		c5.6-2.5,11.1-5.4,16.4-8.5l28,20c0.1,0.1,1.7,1.3,4.1,2.3C439.5,284.5,426.2,288.2,426.2,288.2z M468.6,267.7
		c-1.6,4.1-3.3,8.3-14.5,12.5c-4.6,1.5-10.1-2.7-10.2-2.7c0,0-12.5-9-26.8-19.1c5.8-3.6,11.5-7.6,16.9-11.8l30.2,14.2
		c0.1,0.1,3.3,1.6,7.1,2.4C469.5,265.2,468.7,267.3,468.6,267.7z M477,259.5c-3.7,1-9.3-1.2-11.1-2.1c0,0-14.1-6.6-28.6-13.4
		c4.2-3.5,8.3-7.1,12.2-10.9l54.7,16.9c0.1,0,1.1,0.4,2.6,0.7L477,259.5z M518.3,247.3c-5.5,1.5-12.8-0.9-12.9-0.9l-0.1,0
		c0,0,0,0,0,0l-52.8-16.3c2.5-2.6,5-5.2,7.4-8l80.9,16.6c0.2,0,1.8,0.4,4.2,0.7L518.3,247.3z M557.3,235.9
		c-4.3,1.2-12.8-0.1-15.7-0.7l-78.9-16.2c1.7-2,3.4-4,5-6L583,228.3L557.3,235.9z M596.8,213.6c0,0-4.7,8.3-5.7,10.1
		c-0.2,0.3-1.6,1.8-6,1.2l-114.8-15.4c1.6-2.1,3.1-4.1,4.4-6.1l121.9,8.1c0.2,0,0.7,0.1,1.4,0.1
		C597.7,212.2,597.2,212.9,596.8,213.6z M617.2,194.5l-4.9,8.6c-0.7,1.3-1.7,3.3-5,4.4c-2.7,0.7-8.2,0.3-10.1,0l-119.8-8
		c1.5-2.3,3-4.5,4.3-6.6h136.5C617.9,193.5,617.5,194,617.2,194.5z M634.4,179.3l-4.6,7.7c-0.9,1.4-1.4,2.1-5,2.3l-140.8,0
		c1.4-2.4,2.8-4.8,4.1-7.2c0-0.1,5-9,13.9-9h129c1.3,0.1,3.1,0.2,4,1.8c0.1,0.2,0.4,0.6,0.4,1.4C635.3,177,635.1,177.9,634.4,179.3z
		"/>
	
		<linearGradient id="SVGID_1_" gradientUnits="userSpaceOnUse" x1="393.6065" y1="-743.0683" x2="398.9684" y2="-748.4302" gradientTransform="matrix(20.1837 0 0 -20.1837 -7678.5386 -14840.917)">
		<stop  offset="0" style="stop-color:#339966"/>
		<stop  offset="1" style="stop-color:#004F32"/>
		<stop  offset="1" style="stop-color:#004F32"/>
	</linearGradient>
	<path class="st0" d="M191.8,229.1L191.8,229.1l0-36h256.5v36c0,0,0,0,0,0H191.8L191.8,229.1z"/>
	<path class="st1" d="M208.8,198.8h-1.1l-11,24.5h3l0-0.1c0.9-3,2-5.8,3.1-8.6l0.2-0.6h8.5c1.3,3,2.5,6.1,3.6,9.2l0,0.1h4.1
		L208.8,198.8L208.8,198.8z M204,212.2c0.2-0.5,3.1-7.3,3.4-8.1c0.3,0.8,3.3,7.6,3.5,8.1H204z M220.5,221.6l0.1,0.1
		c1.3,1.4,4.2,2.1,5.8,2.1c5.2,0,8.7-3.3,8.7-8.1c0-4-3-5.1-5.9-6.2c-2.6-1-5-2-5-4.9c0-2.2,1.8-3.8,4.2-3.8c1.9,0,3.4,1,4.1,2.8
		l0,0.1h0.6l1-3.1l-0.1-0.1c-1.4-1.3-3.6-1.7-5.1-1.7c-4.8,0-7.9,2.7-7.9,6.8c0,4.2,3.1,5.5,5.9,6.6c2.5,1,4.9,1.9,4.9,4.8
		c0,2.7-2,4.8-4.6,4.8c-2.4,0-3.9-1-5.4-3.5l-0.1-0.1h-0.6L220.5,221.6L220.5,221.6z M254.5,199.3h-18v2.5l0.2,0
		c2.4-0.3,4.9-0.4,7.3-0.4v22h3.5v-22c2.4,0,4.8,0.1,7,0.4l0.3,0v-2.6C254.7,199.3,254.5,199.3,254.5,199.3z M266.9,198.8
		c-7.7,0-13,5.2-13,12.5c0,7.4,5.2,12.4,12.9,12.4c8,0,13.4-5.2,13.4-12.9C280.2,202.5,273.5,198.8,266.9,198.8L266.9,198.8z
		 M273.3,219.4c-1.7,1.8-3.9,2.7-6.4,2.7c-5.6,0-9.2-4.1-9.2-10.4c0-7,3.7-11.4,9.5-11.4c2.8,0,5.4,1.2,7,3.3
		c1.8,2.3,2.1,4.6,2.1,7.5c0,0.1,0,0.3,0,0.5C276.4,213.9,275.5,217.1,273.3,219.4L273.3,219.4z M304.2,199.3h-2.1v17.8h0
		c-0.1-0.1-16.4-17.8-16.4-17.8H284v24h2.4v-18.6h0c0.1,0.1,14.8,16.4,14.8,16.4l1.8,2.2h1.4v-24H304.2z M343.1,199.3h-0.9
		l-5.8,10.5c0,0-3.7,6.7-4,7.3c-3.6-6-6.8-12.3-9.6-17.8l-0.1-0.1h-1.2l0,0.2c-0.3,3.6-2.4,18-3.3,23.6l0,0.2h2.9v-0.2
		c0-3.4,0.6-8.4,1.2-13.8l0.4-3.3c0.4,0.8,4.9,9.3,6.7,12.9l1.9,4h0.6l0-0.1c2-4.6,4.9-9.9,8.7-16.8c0.6,4.2,1.3,12.4,1.7,17.1
		l0,0.2h3.7l0-0.2c-0.8-5.8-1.7-13.5-2.8-23.6L343.1,199.3L343.1,199.3L343.1,199.3L343.1,199.3z M359.5,198.8h-1.1l-11,24.5h3
		l0-0.1c0.9-3,2.1-5.9,3.1-8.6c0,0,0.1-0.3,0.2-0.5h8.5c1.3,3,2.5,6.1,3.6,9.2l0,0.1h4.1L359.5,198.8L359.5,198.8z M354.7,212.2
		c0.2-0.5,3.1-7.3,3.4-8.1l3.5,8.1H354.7z M380.6,211.4c4.3-0.9,6.9-3.3,6.9-6.7c0-3.7-2.6-5.5-7.9-5.5h-7.5v24h3.4v-11.5h1
		c0.9,1,1.8,2.1,2.7,3.2l4.1,5.3l2.2,3.1h4.5C390.1,223.3,381,212,380.6,211.4z M375.6,210.1V201c1.4-0.1,3.6-0.1,4.8,0
		c2.4,0.4,3.6,1.8,3.6,4.2c0,2.4-1.6,4.2-4.3,4.7C378.3,210.2,376.4,210.1,375.6,210.1L375.6,210.1z M407.5,199.3h-18v2.5l0.2,0
		c2.4-0.3,4.9-0.4,7.3-0.4v22h3.5v-22c2.4,0,4.8,0.1,7,0.4l0.2,0v-2.6C407.7,199.3,407.5,199.3,407.5,199.3z M410.6,223.3h3.3v-24
		h-3.3V223.3z M437,199.3v17.8h0c-0.1-0.1-16.4-17.8-16.4-17.8H419v24h2.4v-18.6h0c0.1,0.1,14.8,16.4,14.8,16.4l1.8,2.2h1.3v-24H437
		z"/>
</g>
</svg>
