<?xml version="1.0" encoding="utf-8"?>
<!-- Generator: Adobe Illustrator 22.1.0, SVG Export Plug-In . SVG Version: 6.00 Build 0)  -->
<svg version="1.1" id="Layer_2_1_" xmlns="http://www.w3.org/2000/svg" xmlns:xlink="http://www.w3.org/1999/xlink" x="0px" y="0px"
	 viewBox="0 0 640 480" style="enable-background:new 0 0 640 480;" xml:space="preserve">
<style type="text/css">
	.st0{fill:url(#SVGID_1_);}
	.st1{fill:#FFFFFF;}
</style>
<g>
	
		<linearGradient id="SVGID_1_" gradientUnits="userSpaceOnUse" x1="80.2826" y1="240" x2="559.7174" y2="240" gradientTransform="matrix(1 0 0 -1 0 480)">
		<stop  offset="0" style="stop-color:#56A5FF"/>
		<stop  offset="1" style="stop-color:#1B5A9A"/>
	</linearGradient>
	<path class="st0" d="M330.1,479.4c-73.5-0.2-127.9-21.7-173.8-64.7c-50.4-47.2-75.6-106.2-75.9-174.7
		c-0.3-64.2,22.5-120.6,67.4-166.6C194.1,25.9,251.3,1.2,318.1,0.6C383.4,0,440.1,22.8,486.8,68c45.6,43.9,70.2,98.7,72.7,161.8
		c2.7,67.8-19.5,127.2-67,176.3C445.3,454.9,387.4,479.2,330.1,479.4z M315.2,154.1c-0.4-0.1-0.7-0.1-1-0.2
		c-0.9,1.3-1.8,2.5-2.7,3.7c-9.4,12.8-18.9,25.4-28,38.4c-2.1,3-4.9,5.8-4.9,10.6c0.3,57.1,0.2,114.1,0.2,171.2
		c0,1.6,0.2,3.2,0.4,5.7c1.6-2.3,2.5-3.8,3.5-5.2c9.4-12.7,18.9-25.4,28.2-38.2c3-4.1,4.4-8.3,4.4-13.7
		c-0.2-55.8-0.1-111.6-0.1-167.4C315.2,157.5,315.2,155.8,315.2,154.1z M323.2,153.3c-0.2,2.3-0.4,3.7-0.4,5.1
		c0,57.7,0,115.3,0.1,173c0,1.5,0.7,3.2,1.6,4.5c5.9,8.6,11.8,17.1,17.9,25.5c5.2,7.1,10.6,14.2,16.3,21.8c0.2-1.7,0.4-2.6,0.4-3.5
		c0-58.2,0.1-116.3,0-174.4c0-1.2-0.2-2.6-0.8-3.5c-3.5-5.1-7.3-10.1-11-15.2C339.5,175.7,331.6,164.9,323.2,153.3z M270.8,384.8
		c0-56.9,0-113.3,0-170.6c-1.1,1.4-1.7,1.9-2.2,2.6c-10.1,14.1-19.9,28.4-30.5,42.2c-3.2,4.2-3.8,8.2-3.7,13
		c0.1,35.4,0.1,70.7,0.1,106.1c0,1.1-0.4,2.5,0.1,3.3c0.8,1.3,2.2,3.2,3.4,3.2C248.8,384.9,259.4,384.8,270.8,384.8z M367.2,214.2
		c0,57.5,0,113.9,0,170.6c10.9,0,21.4-0.1,31.9,0.1c3.4,0.1,4.4-1.3,4.4-4.4c-0.1-37.8,0-75.5-0.1-113.3c0-1.6-0.9-3.4-1.9-4.9
		c-5.3-7.8-10.6-15.6-16.2-23.3C379.6,230.9,373.7,223,367.2,214.2z M367.3,98.3c-0.2,1.7-0.4,2.9-0.4,4.1c0,32.2-0.1,64.3,0.1,96.5
		c0,1.8,0.9,3.9,2,5.4c4.4,6.4,8.9,12.7,13.5,19c3.1,4.2,6.5,8.3,10,12.7c2.5-3.3,4.6-6.3,6.9-9c2.9-3.5,4.3-7.1,4.3-11.9
		c-0.2-26.9-0.1-53.8-0.1-80.7c0-10.5,0-21,0-31.5c0-2.5,0.1-4.7-3.6-4.6C389.2,98.4,378.5,98.3,367.3,98.3z M271.2,98.5
		c-12.3,0-24.4,0-36.5,0c-0.1,0.9-0.3,1.5-0.3,2.1c0,39.2,0,78.3,0.1,117.5c0,1.7,0.3,3.6,1.2,4.9c3,4.4,6.3,8.6,9.4,12.8
		c0.6-0.4,0.9-0.5,1-0.7c6.4-8.7,12.9-17.4,19.2-26.2c2.2-3.1,5.5-6.5,5.5-9.8C271.4,165.7,271.2,132.3,271.2,98.5z M189.2,98.5
		c-0.1,2.1-0.3,4-0.3,5.8c-0.1,15.8,0.1,31.5-0.1,47.3c-0.1,6,0.7,11,5,16.1c9.2,11,17.3,22.9,25.9,34.4c2.2,2.9,4.4,5.7,7.1,9.2
		c0-38.3,0-75.6,0-112.8C214,98.5,201.8,98.5,189.2,98.5z M448.8,98.6c-12.9,0-25.1,0-37.5,0c0,37.4,0,74.5,0,111.8
		c2.5-2.9,4.8-5.3,6.8-7.9c9.5-12.6,19.1-25.3,28.5-38.1c1.5-2.1,2.4-5.2,2.5-7.8c0.2-17.5,0.1-35,0.1-52.6
		C449.1,102.3,448.9,100.6,448.8,98.6z M191.2,384.5c12.3,0,23.8,0,35.7,0c0-36.2,0-72.2,0-109.1c-1.5,1.6-2.5,2.5-3.2,3.5
		c-9.9,13.7-19.7,27.5-29.6,41.2c-2,2.7-3.3,5.3-3.2,8.8c0.2,16.8,0.1,33.7,0.1,50.6C190.9,381.1,191,382.6,191.2,384.5z
		 M411.5,275.5c-0.4,1.3-0.6,1.7-0.6,2.1c-0.1,34.5,0,69.1-0.1,103.6c0,3.1,1.5,3.7,4.1,3.6c9.2-0.1,18.5-0.2,27.7,0.1
		c3.5,0.1,4.7-1,4.6-4.6c-0.2-13-0.4-26.1,0.1-39.2c0.3-10-0.6-18.8-7.6-27.2C429.7,301.9,421.1,288.8,411.5,275.5z M358.8,190.1
		c0-29.9,0-59,0-88.7c-0.8,0.6-1.3,0.8-1.5,1.1c-10,13.2-19.9,26.3-29.7,39.6c-0.9,1.2-1,3.9-0.3,5.1c3.5,5.3,7.5,10.4,11.3,15.5
		C345.2,171.7,351.7,180.5,358.8,190.1z M279.2,100.8c0,30.4,0,59.4,0,89.3c5.1-7.1,9.6-13.2,14-19.4c5.7-7.9,11.5-15.8,17-23.9
		c0.7-1.1,0.4-3.7-0.4-5c-4.5-6.7-9.2-13.3-14.1-19.8C290.5,115.2,285.2,108.5,279.2,100.8z"/>
	<path class="st1" d="M315.2,154.1c0,1.7,0,3.4,0,5.1c0,55.8-0.1,111.6,0.1,167.4c0,5.4-1.4,9.6-4.4,13.7
		c-9.4,12.8-18.8,25.5-28.2,38.2c-1,1.4-1.9,2.8-3.5,5.2c-0.2-2.5-0.4-4.1-0.4-5.7c-0.1-57.1,0.1-114.1-0.2-171.2
		c0-4.7,2.8-7.5,4.9-10.6c9-13,18.6-25.7,28-38.4c0.9-1.3,1.8-2.5,2.7-3.7C314.5,154,314.9,154.1,315.2,154.1z"/>
	<path class="st1" d="M323.2,153.3c8.4,11.6,16.3,22.4,24.2,33.2c3.7,5.1,7.4,10.1,11,15.2c0.6,0.9,0.8,2.3,0.8,3.5
		c0.1,58.2,0,116.3,0,174.4c0,0.9-0.2,1.8-0.4,3.5c-5.7-7.7-11.2-14.7-16.3-21.8c-6.1-8.4-12-16.9-17.9-25.5c-0.9-1.3-1.6-3-1.6-4.5
		c-0.1-57.7-0.1-115.3-0.1-173C322.8,157,323,155.6,323.2,153.3z"/>
	<path class="st1" d="M270.8,384.8c-11.4,0-22.1,0.1-32.8-0.2c-1.2-0.1-2.6-1.9-3.4-3.2c-0.5-0.8-0.1-2.2-0.1-3.3
		c-0.1-35.4,0-70.7-0.1-106.1c0-4.7,0.5-8.8,3.7-13c10.5-13.8,20.3-28.1,30.5-42.2c0.5-0.7,1-1.3,2.2-2.6
		C270.8,271.5,270.8,327.9,270.8,384.8z"/>
	<path class="st1" d="M367.2,214.2c6.5,8.8,12.4,16.7,18,24.8c5.5,7.7,10.8,15.5,16.2,23.3c0.9,1.4,1.9,3.2,1.9,4.9
		c0.1,37.8,0.1,75.5,0.1,113.3c0,3.2-0.9,4.5-4.4,4.4c-10.5-0.2-21-0.1-31.9-0.1C367.2,328,367.2,271.7,367.2,214.2z"/>
	<path class="st1" d="M367.3,98.3c11.2,0,21.9,0.1,32.5-0.1c3.7-0.1,3.7,2.1,3.6,4.6c0,10.5,0,21,0,31.5c0,26.9-0.1,53.8,0.1,80.7
		c0.1,4.7-1.4,8.4-4.3,11.9c-2.3,2.8-4.4,5.7-6.9,9c-3.4-4.4-6.8-8.4-10-12.7c-4.6-6.3-9.1-12.6-13.5-19c-1-1.6-2-3.6-2-5.4
		c-0.1-32.2-0.1-64.3-0.1-96.5C366.8,101.2,367.1,100,367.3,98.3z"/>
	<path class="st1" d="M271.2,98.5c0,33.8,0.2,67.3-0.3,100.7c-0.1,3.3-3.3,6.7-5.5,9.8c-6.3,8.8-12.8,17.5-19.2,26.2
		c-0.2,0.2-0.5,0.3-1,0.7c-3.2-4.2-6.5-8.4-9.4-12.8c-0.9-1.3-1.2-3.3-1.2-4.9c-0.1-39.2-0.1-78.3-0.1-117.5c0-0.6,0.2-1.3,0.3-2.1
		C246.9,98.5,259,98.5,271.2,98.5z"/>
	<path class="st1" d="M189.2,98.5c12.6,0,24.8,0,37.6,0c0,37.2,0,74.5,0,112.8c-2.7-3.4-4.9-6.3-7.1-9.2
		c-8.6-11.5-16.6-23.4-25.9-34.4c-4.3-5.1-5.1-10.1-5-16.1c0.2-15.8,0.1-31.5,0.1-47.3C188.9,102.5,189.1,100.6,189.2,98.5z"/>
	<path class="st1" d="M448.8,98.6c0.1,2,0.3,3.7,0.3,5.4c0,17.5,0.1,35-0.1,52.6c-0.1,2.7-0.9,5.7-2.5,7.8
		c-9.3,12.8-18.9,25.5-28.5,38.1c-2,2.6-4.3,5-6.8,7.9c0-37.3,0-74.4,0-111.8C423.7,98.6,435.9,98.6,448.8,98.6z"/>
	<path class="st1" d="M191.2,384.5c-0.1-1.9-0.3-3.4-0.3-5c0-16.9,0.1-33.7-0.1-50.6c-0.1-3.5,1.3-6.1,3.2-8.8
		c10-13.7,19.7-27.4,29.6-41.2c0.7-1,1.8-1.9,3.2-3.5c0,36.9,0,72.9,0,109.1C215,384.5,203.4,384.5,191.2,384.5z"/>
	<path class="st1" d="M411.5,275.5c9.6,13.3,18.2,26.4,28.2,38.4c7,8.3,7.9,17.2,7.6,27.2c-0.4,13-0.2,26.1-0.1,39.2
		c0.1,3.6-1.1,4.7-4.6,4.6c-9.2-0.2-18.5-0.2-27.7-0.1c-2.7,0.1-4.1-0.5-4.1-3.6c0.1-34.5,0.1-69.1,0.1-103.6
		C410.9,277.2,411.1,276.7,411.5,275.5z"/>
	<path class="st1" d="M358.8,190.1c-7.1-9.6-13.6-18.5-20.1-27.3c-3.8-5.2-7.8-10.2-11.3-15.5c-0.8-1.2-0.6-3.9,0.3-5.1
		c9.8-13.3,19.8-26.4,29.7-39.6c0.2-0.3,0.6-0.5,1.5-1.1C358.8,131.1,358.8,160.2,358.8,190.1z"/>
	<path class="st1" d="M279.2,100.8c6,7.7,11.4,14.4,16.5,21.3c4.9,6.5,9.5,13,14.1,19.8c0.8,1.3,1.1,3.9,0.4,5
		c-5.5,8.1-11.3,16-17,23.9c-4.4,6.2-8.9,12.3-14,19.4C279.2,160.2,279.2,131.2,279.2,100.8z"/>
</g>
</svg>
