<?xml version="1.0" encoding="utf-8"?>
<!-- Generator: Adobe Illustrator 22.1.0, SVG Export Plug-In . SVG Version: 6.00 Build 0)  -->
<svg version="1.1" id="Layer_2_1_" xmlns="http://www.w3.org/2000/svg" xmlns:xlink="http://www.w3.org/1999/xlink" x="0px" y="0px"
	 viewBox="0 0 640 480" style="enable-background:new 0 0 640 480;" xml:space="preserve">
<style type="text/css">
	.st0{fill:#1AADDA;}
</style>
<g>
	<g>
		<path class="st0" d="M285.5,376.2c0-25.2,0-50.3,0-75.5c0-26.3-0.2-26.4-27.5-26.4c-52.2,0-104.5-0.5-156.7,0.2
			c-16.2,0.2-21.3-5.5-20.9-21.4c1.5-55-7.6-46.7,47-47.2c44.5-0.4,89,0,133.5-0.1c24,0,24.7-0.7,24.7-25.4
			c0-52.9,0.4-105.7-0.2-158.7C285,6.1,289.7-0.4,306.2,0c54.7,1.2,47.4-6.4,47.6,47c0.2,44.5,0.9,89-0.2,133.5
			c-0.5,19.1,5.1,26.2,25,25.7c52.8-1.2,105.7,0.1,158.7-0.7c16.9-0.2,22.8,5.6,22.4,22.4c-1,53.8,4.8,45.9-46.7,46.2
			c-45.1,0.4-90.4,0.9-135.4-0.4c-19.1-0.5-24.3,6.6-24,24.8c0.9,52.8-0.1,105.7,0.6,158.7c0.2,16.4-4.5,23.3-21.9,22.8
			c-54.3-1.4-46,6.2-46.6-45.9C285.2,414.9,285.5,395.6,285.5,376.2z"/>
		<path class="st0" d="M216.3,383.3c0.1,23.3-18.3,42-41.3,41.9c-22.3-0.1-40.4-17.8-41-40.3c-0.6-23.3,17.5-42.5,40.4-43
			C197.3,341.5,216.2,360,216.3,383.3z"/>
		<path class="st0" d="M170.4,332.1c0-10.9,0-21.9,0-32.8c3.2,0,6.3,0,9.5-0.1c0,10.9,0,21.9,0,32.8
			C176.8,332,173.7,332,170.4,332.1z"/>
		<path class="st0" d="M170.4,467.7c0-10.9,0-21.8,0-32.8c3.5-0.1,6.9-0.1,10.5-0.2c0,10.8,0,21.6,0,32.4
			C177.4,467.3,173.9,467.6,170.4,467.7z"/>
		<path class="st0" d="M250.2,345.6c-9.5,5.3-19.1,10.5-28.6,15.9c-1.4-2.6-2.9-5.2-4.2-7.8c9.5-5.5,19.1-11,28.6-16.5
			C247.3,339.9,248.7,342.8,250.2,345.6z"/>
		<path class="st0" d="M100,421.7c9.7-5.3,19.3-10.8,29-16.1c1.5,2.7,3,5.6,4.5,8.3c-9.5,5.6-19.1,11.2-28.6,16.7
			C103.3,427.7,101.7,424.7,100,421.7z"/>
		<path class="st0" d="M245.9,430c-9.5-5.5-19.1-10.9-28.8-16.4c1.5-2.7,3-5.6,4.6-8.3c9.5,5.3,19.1,10.7,28.6,16
			C248.9,424.2,247.4,427,245.9,430z"/>
		<path class="st0" d="M128.4,453.7c5.5-9.4,10.9-18.8,16.4-28.3c2.5,1.4,5.1,2.7,7.6,4.1c-5.1,9.7-10.2,19.3-15.2,29
			C134.3,456.9,131.4,455.3,128.4,453.7z"/>
		<path class="st0" d="M144.5,341.9c-5.5-9.5-10.9-19.1-16.4-28.8c2.9-1.6,5.6-3.2,8.4-4.7c5.7,9.5,11.4,19.1,17,28.5
			C150.5,338.7,147.5,340.3,144.5,341.9z"/>
		<path class="st0" d="M144.5,341.9c-5.5-9.5-10.9-19.1-16.4-28.8c2.9-1.6,5.6-3.2,8.4-4.7c5.7,9.5,11.4,19.1,17,28.5
			C150.5,338.7,147.5,340.3,144.5,341.9z"/>
		<path class="st0" d="M122.2,360.5c-8.7-6.7-17.5-13.5-26.2-20.2c2-2.5,4-5.1,5.9-7.6c8.9,6.6,17.8,13.3,26.7,19.8
			C126.6,355.2,124.3,357.8,122.2,360.5z"/>
		<path class="st0" d="M122.1,385.3c-10.9,1.2-21.9,2.4-32.8,3.6c-0.4-3.2-0.6-6.4-1-9.5c11-1.4,21.9-2.9,33-4.2
			C121.5,378.5,121.9,381.8,122.1,385.3z"/>
		<path class="st0" d="M231.4,375.6c11,0.9,21.9,1.7,33,2.6c-0.2,3.2-0.5,6.4-0.7,9.7c-11-0.6-22.2-1.4-33.2-2
			C230.7,382.4,231.1,379,231.4,375.6z"/>
		<path class="st0" d="M216.6,455.7c-6.2-9.2-12.4-18.2-18.7-27.4c2.6-1.7,5.2-3.5,7.9-5.2c6.4,9,12.9,18,19.3,27
			C222.3,452,219.4,453.8,216.6,455.7z"/>
		<path class="st0" d="M224.4,314.1c-6.6,8.7-13.1,17.4-19.8,26c-2.4-1.9-4.7-3.6-7.1-5.5c6.6-8.9,13-17.8,19.6-26.7
			C219.4,310,221.9,312,224.4,314.1z"/>
		<path class="st0" d="M192.5,19.6c-10.5,19.6-18.7,34.5-27.1,50.2c-7.9-6.8-14.1-12-22.3-19c-15.1,37.4-29.4,72.6-44.6,110.2
			c53.9,0,104.2,0,159.3,0C235.5,112.8,214.8,68.1,192.5,19.6z M194.7,98.8l-8.4-1.6l-8.3,4.5h-7.6l-10.3,7.2l-4.2-2.7l-5.2,8.7
			l-7.3-2.7l-7.3,2.7l2.1-8.7l2.5-17.5c0.1-2.4,1.1-4.6,2.4-6.9c0.4-0.6,0.6-1.2,1-1.9c1-1.9,2.1-3.7,3-5.8
			c7.1,5.6,13,10.2,20.9,16.5c4-7.3,7.4-13.6,10.8-20.1c3.5-6.7,6.8-13.4,12.5-24.5c5.5,12.1,8.7,19,11.4,26
			c0.2,0.6,0.4,1.1,0.6,1.6c0.1,0.2,0.1,0.4,0.2,0.5c0.1,0.4,0.2,0.6,0.4,1c0.1,0.2,0.1,0.5,0.2,0.6c0.1,0.2,0.2,0.5,0.2,0.9
			c0.1,0.2,0.1,0.5,0.2,0.6c0.1,0.2,0.1,0.5,0.2,0.7c0.1,0.2,0.1,0.5,0.2,0.6c0.1,0.2,0.1,0.4,0.2,0.6c0.1,0.2,0.1,0.5,0.2,0.6
			c0,0.2,0.1,0.4,0.1,0.6s0.1,0.4,0.1,0.6c0,0.1,0.1,0.4,0.1,0.5c0,0.2,0.1,0.4,0.1,0.6l0,0l2.4,6.6l-1.9,4.5L194.7,98.8z"/>
		<path class="st0" d="M496.8,96.5c-11-25-26.9-48-42-74.4c-11.9,19.3-22.9,35.8-32.6,53.2c-5.8,10.5-11.5,21.8-14,33.5
			c-6.4,29.9,15.1,55.2,45.6,55.3C489.8,164.1,512.1,130.9,496.8,96.5z M488.8,130.4c-2,3.7-4.5,6.9-7.1,9.5
			c-5.2,5.3-11.3,8.4-16.6,10.3c-3.6,1.2-6.8,2-9.3,2.4c-3.5,0.5-5.7,0.6-5.8,0.6v-5v-3v-1.6l0,0l0,0c0,0,0.1,0,0.2,0
			c0.2,0,0.6,0,1.1-0.1c1-0.1,2.4-0.2,4.1-0.6c3.5-0.6,8.1-2,12.4-4.5c3-1.7,5.9-3.8,8.4-6.8c3.5-4,6.3-9.2,7.9-16.4l3.7,0.7
			c0.2-0.7,0.6-1.1,0.7-1.1c-0.1,0.4-0.2,0.7-0.4,1.2l5.1,1.1C492.4,122.4,490.8,126.6,488.8,130.4z"/>
		<g>
			<g>
				<path class="st0" d="M506.7,427.3H413v3.6v-3.6l0,0v3.6v-3.6l0,0c-0.4,0-2.1-0.1-4.5-0.6c-1.7-0.4-3.8-1.1-5.9-2.1
					c-3.1-1.6-6.3-4-8.7-7.9c-1.2-2-2.2-4.3-3.1-7.2c-0.7-2.9-1.2-6.3-1.2-10.5c0-2.6,0.4-4.7,1-6.4c1.1-3.2,3.1-5.6,5.6-7.7
					c1.9-1.5,4.1-2.9,6.3-3.8c3.3-1.5,6.9-2.4,9.5-2.9c1.4-0.2,2.4-0.4,3.1-0.5c0.4,0,0.6-0.1,0.9-0.1h0.1l0,0l-0.1-2.1l0.1,2.1l0,0
					l-0.1-2.1l0.1,2.1l5.5-0.4v-5.5h-2.5h2.5l0,0h-2.5h2.5c0,0,0-2,0.5-4.7c0.4-2.1,0.9-4.7,1.9-7.2c0.7-2,1.6-4,2.7-5.7
					c1.7-2.7,3.8-5.1,6.7-6.8s6.6-2.9,11.8-2.9c6.4,0,10.9,1.5,14.4,3.6c2.6,1.6,4.6,3.5,6.3,5.7c2.5,3.2,4,6.7,4.8,9.5
					c0.4,1.4,0.6,2.5,0.9,3.3c0.1,0.4,0.1,0.7,0.1,0.9v0.1l0,0l3-0.4l-3,0.2l0,0l3-0.4l-3,0.2l11.7-0.6h-3.7l3.7,0.1v-0.1h-3.7
					l3.7,0.1h-0.1h0.1l0,0h-0.1h0.1c0-0.1,0-0.6,0.2-1.5c0.1-0.6,0.4-1.2,0.6-1.9c0.2-0.5,0.5-0.9,0.9-1.4c0.5-0.6,1.1-1.1,2-1.5
					c0.9-0.4,2.2-0.7,4.2-0.7c2.4,0,3.7,0.6,4.7,1.2c0.7,0.5,1.5,1.2,2,2.1c0.9,1.2,1.4,2.9,1.7,4.1c0.1,0.6,0.2,1.1,0.2,1.5
					c0,0.1,0,0.2,0,0.4l0,0l11.7-0.7c0-0.2-0.1-1.4-0.5-3.2c-0.2-1.4-0.7-3-1.5-4.7c-1.1-2.6-3-5.7-6.1-8.2c-1.5-1.2-3.3-2.2-5.5-3
					c-2.1-0.7-4.5-1.1-6.9-1.1c-4.3,0-8.1,1-11,2.9c-2.2,1.4-3.8,3.1-5.1,4.8c-1.9,2.6-2.6,5.2-3.1,7.2c-0.4,2-0.4,3.3-0.4,3.6h5.8
					l5.8-0.6c0-0.2-0.2-2.4-1.1-5.3c-0.6-2.2-1.6-5.1-3.1-8.2c-2.4-4.6-5.9-9.5-11.4-13.5c-5.6-4-13-6.6-22.3-6.6
					c-4.2,0-8.1,0.6-11.5,1.7c-5.9,2-10.7,5.5-14,9.4c-2.5,3-4.3,6.2-5.7,9.4c-2,4.7-3,9.3-3.5,12.6c-0.5,3.3-0.5,5.7-0.5,5.8h5.8
					l-0.4-5.8c-0.2,0-2.5,0.1-5.8,0.7c-2.5,0.5-5.6,1.2-8.9,2.5c-5,1.9-10.7,4.7-15.1,9.5c-2.2,2.5-4.2,5.3-5.6,8.8
					s-2.1,7.3-2.1,11.5c0,9.4,2,16.9,5.3,22.7c2.5,4.3,5.6,7.7,8.9,10.2c5,3.7,10,5.5,13.9,6.3c4,0.9,6.6,0.9,6.9,0.9h93.7
					L506.7,427.3L506.7,427.3z"/>
			</g>
			<rect x="439.3" y="385.8" class="st0" width="105.5" height="8.3"/>
			<rect x="420.8" y="408.7" class="st0" width="107.5" height="8.9"/>
		</g>
	</g>
</g>
</svg>
