<?xml version="1.0" encoding="utf-8"?>
<!-- Generator: Adobe Illustrator 21.1.0, SVG Export Plug-In . SVG Version: 6.00 Build 0)  -->
<svg version="1.1" id="Layer_1" xmlns="http://www.w3.org/2000/svg" xmlns:xlink="http://www.w3.org/1999/xlink" x="0px" y="0px"
	 viewBox="0 0 2500 2500" style="enable-background:new 0 0 2500 2500;" xml:space="preserve">
<style type="text/css">
	.st0{fill:#FFFFFF;}
	.st1{fill:#3B5598;}
	.st2{fill:#CF4044;}
</style>
<g>
	<path class="st0" d="M0,0h2500v2500H0V0z"/>
	<path class="st1" d="M36.8,114.4v2272h2426.5v-2272H36.8z M1805.8,2236.5c-7.7-52.5-14.7-77.2-24.7-107.4l-76.5-244.1h-339.9
		l-61,80.3l54.8,165.3c10.8,34.8,22.4,61.8,42.5,105.8h-193.1l-31.7-105.8l-77.3,105.8H943.7l-33.2-105.1l-81.9,105.1H673.3
		c3.9-3.1,7-6.2,10-9.3c39.4-34.8,64.1-66.4,85.7-95l98.9-129.8L829.4,1885H490.2l-265,351.5H60.7c62.6-54.1,78.8-71.1,102-102
		l502.1-663.6c6.9-9,13.1-18.6,18.5-28.6c9.3-15.4,17.8-33.2,22.4-54.8h163c0,36.3,5.4,56.4,13.1,84.2l114.3,358.4l58.7-77.2
		l-93.5-285.1c-7-20.9-15.4-47.9-32.5-80.3h197.8c5.4,31.7,10.8,57.2,19.3,85l36.3,112l85-112.8c19.3-26.3,45.6-55.6,57.2-84.2h173
		c-34,27-55.6,55.6-76.5,82.7l-191.6,254.2l33.2,105.1L1537,1471c6.9-10.8,14.7-20.1,22.4-30.1c10-15.4,18.5-31.7,24-53.3h161.4
		c2.3,28.6,6.2,53.3,13.9,79.6l207.8,662.8c10,35.5,17,57.2,43.2,106.6L1805.8,2236.5L1805.8,2236.5L1805.8,2236.5z"/>
	<path class="st1" d="M567.5,1779.9h231.8l-70.3-214L567.5,1779.9z M1038.7,1960.7l37.1,117.4l59.5-78l-41-115.1L1038.7,1960.7z
		 M1447.4,1779.9h224l-70.3-214L1447.4,1779.9L1447.4,1779.9z"/>
	<path class="st2" d="M1364.7,1344.2h142.1l928.6-1230.6h-142.1L1364.7,1344.2L1364.7,1344.2z"/>
</g>
</svg>
