<?xml version="1.0" encoding="utf-8"?>
<!-- Generator: Adobe Illustrator 22.1.0, SVG Export Plug-In . SVG Version: 6.00 Build 0)  -->
<svg version="1.1" id="Layer_2_1_" xmlns="http://www.w3.org/2000/svg" xmlns:xlink="http://www.w3.org/1999/xlink" x="0px" y="0px"
	 viewBox="0 0 640 480" style="enable-background:new 0 0 640 480;" xml:space="preserve">
<style type="text/css">
	.st0{fill:#3174B1;}
</style>
<g>
	<g>
		<g>
			<g>
				<path class="st0" d="M455.1,105.5c-36-36-83.8-55.8-134.6-55.8s-98.7,19.8-134.6,55.8c-74.2,74.2-74.2,195,0,269.3
					c36,36,83.8,55.8,134.6,55.8s98.7-19.8,134.6-55.8C529.3,300.5,529.3,179.7,455.1,105.5z M445.3,365
					c-33.4,33.4-77.7,51.7-124.9,51.7s-91.5-18.4-124.9-51.7c-68.9-68.9-68.9-180.9,0-249.8c33.4-33.4,77.7-51.7,124.9-51.7
					s91.5,18.4,124.9,51.7c33.4,33.4,51.7,77.7,51.7,124.9S478.7,331.7,445.3,365z"/>
			</g>
		</g>
	</g>
	<g>
		<g>
			<g>
				<path class="st0" d="M320.4,18.7c-3.8,0-6.9,3.1-6.9,6.9v11.1c0,3.8,3.1,6.9,6.9,6.9c3.8,0,6.9-3.1,6.9-6.9V25.6
					C327.3,21.7,324.2,18.7,320.4,18.7z"/>
			</g>
		</g>
	</g>
	<g>
		<g>
			<g>
				<path class="st0" d="M320.4,436.7c-3.8,0-6.9,3.1-6.9,6.9v11.1c0,3.8,3.1,6.9,6.9,6.9c3.8,0,6.9-3.1,6.9-6.9v-11.1
					C327.3,439.8,324.2,436.7,320.4,436.7z"/>
			</g>
		</g>
	</g>
	<g>
		<g>
			<g>
				<path class="st0" d="M535,233.2h-11.1c-3.8,0-6.9,3.1-6.9,6.9c0,3.8,3.1,6.9,6.9,6.9H535c3.8,0,6.9-3.1,6.9-6.9
					C541.9,236.3,538.8,233.2,535,233.2z"/>
			</g>
		</g>
	</g>
	<g>
		<g>
			<g>
				<path class="st0" d="M116.9,233.2h-11.1c-3.8,0-6.9,3.1-6.9,6.9c0,3.8,3.1,6.9,6.9,6.9h11.1c3.8,0,6.9-3.1,6.9-6.9
					C123.8,236.3,120.7,233.2,116.9,233.2z"/>
			</g>
		</g>
	</g>
	<g>
		<g>
			<g>
				<path class="st0" d="M477,83.5c-2.7-2.7-7.1-2.7-9.7,0l-7.8,7.8c-2.7,2.7-2.7,7.1,0,9.7c1.3,1.3,3.1,2,4.9,2s3.5-0.7,4.9-2
					l7.8-7.8C479.7,90.6,479.7,86.2,477,83.5z"/>
			</g>
		</g>
	</g>
	<g>
		<g>
			<g>
				<path class="st0" d="M181.4,379.2c-2.7-2.7-7.1-2.7-9.7,0l-7.8,7.8c-2.7,2.7-2.7,7.1,0,9.7c1.3,1.3,3.1,2,4.9,2
					c1.8,0,3.5-0.7,4.9-2l7.8-7.8C184.1,386.2,184.1,381.8,181.4,379.2z"/>
			</g>
		</g>
	</g>
	<g>
		<g>
			<g>
				<path class="st0" d="M477,387l-7.8-7.8c-2.7-2.7-7.1-2.7-9.7,0c-2.7,2.7-2.7,7.1,0,9.7l7.8,7.8c1.3,1.3,3.1,2,4.9,2
					c1.8,0,3.5-0.7,4.9-2C479.7,394,479.7,389.7,477,387z"/>
			</g>
		</g>
	</g>
	<g>
		<g>
			<g>
				<path class="st0" d="M181.4,91.3l-7.8-7.8c-2.7-2.7-7.1-2.7-9.7,0c-2.7,2.7-2.7,7.1,0,9.7l7.8,7.8c1.3,1.3,3.1,2,4.9,2
					s3.5-0.7,4.9-2C184.1,98.4,184.1,94,181.4,91.3z"/>
			</g>
		</g>
	</g>
	<g>
		<g>
			<g>
				<path class="st0" d="M409.4,37.3c-3.5-1.5-7.6,0.1-9.1,3.5L395.9,51c-1.5,3.5,0.1,7.5,3.5,9.1c0.9,0.4,1.8,0.6,2.8,0.6
					c2.7,0,5.2-1.5,6.3-4.1l4.4-10.1C414.5,42.9,412.9,38.8,409.4,37.3z"/>
			</g>
		</g>
	</g>
	<g>
		<g>
			<g>
				<path class="st0" d="M241.4,420.2c-3.5-1.5-7.6,0.1-9.1,3.5l-4.4,10.1c-1.5,3.5,0.1,7.6,3.5,9.1c0.9,0.4,1.8,0.6,2.8,0.6
					c2.7,0,5.2-1.5,6.3-4.1l4.4-10.1C246.5,425.8,244.9,421.7,241.4,420.2z"/>
			</g>
		</g>
	</g>
	<g>
		<g>
			<g>
				<path class="st0" d="M519.7,320l-10.1-4.4c-3.5-1.5-7.5,0.1-9.1,3.5c-1.5,3.5,0.1,7.6,3.5,9.1l10.1,4.4c0.9,0.4,1.8,0.6,2.8,0.6
					c2.7,0,5.2-1.5,6.3-4.1C524.8,325.6,523.2,321.5,519.7,320z"/>
			</g>
		</g>
	</g>
	<g>
		<g>
			<g>
				<path class="st0" d="M136.8,152.1l-10.1-4.4c-3.5-1.5-7.5,0.1-9.1,3.5c-1.5,3.5,0.1,7.5,3.5,9.1l10.1,4.4
					c0.9,0.4,1.8,0.6,2.8,0.6c2.7,0,5.2-1.5,6.3-4.1C141.9,157.6,140.3,153.6,136.8,152.1z"/>
			</g>
		</g>
	</g>
	<g>
		<g>
			<g>
				<path class="st0" d="M526.7,159.6c-1.4-3.5-5.4-5.3-8.9-3.9l-10.3,4c-3.5,1.4-5.3,5.4-3.9,8.9c1.1,2.7,3.7,4.4,6.4,4.4
					c0.8,0,1.7-0.2,2.5-0.5l10.3-4C526.4,167.2,528.1,163.2,526.7,159.6z"/>
			</g>
		</g>
	</g>
	<g>
		<g>
			<g>
				<path class="st0" d="M137.3,311.6c-1.4-3.5-5.4-5.3-8.9-3.9l-10.3,4c-3.5,1.4-5.3,5.4-3.9,8.9c1.1,2.7,3.7,4.4,6.4,4.4
					c0.8,0,1.7-0.2,2.5-0.5l10.3-4C136.9,319.1,138.6,315.1,137.3,311.6z"/>
			</g>
		</g>
	</g>
	<g>
		<g>
			<g>
				<path class="st0" d="M404.8,437.5l-4-10.3c-1.4-3.5-5.4-5.3-8.9-3.9c-3.5,1.4-5.3,5.4-3.9,8.9l4,10.3c1.1,2.7,3.7,4.4,6.4,4.4
					c0.8,0,1.7-0.2,2.5-0.5C404.5,445.1,406.2,441.1,404.8,437.5z"/>
			</g>
		</g>
	</g>
	<g>
		<g>
			<g>
				<path class="st0" d="M252.9,48l-4-10.3c-1.4-3.5-5.4-5.3-8.9-3.9c-3.5,1.4-5.3,5.4-3.9,8.9l4,10.3c1.1,2.7,3.7,4.4,6.4,4.4
					c0.8,0,1.7-0.2,2.5-0.5C252.5,55.6,254.3,51.6,252.9,48z"/>
			</g>
		</g>
	</g>
	<g>
		<path class="st0" d="M320,480c-64.1,0-124.4-25-169.7-70.3C105,364.4,80,304.1,80,240c0-64.1,25-124.4,70.3-169.7
			C195.6,25,255.9,0,320,0c64.1,0,124.4,25,169.7,70.3C535,115.6,560,175.9,560,240c0,64.1-25,124.4-70.3,169.7
			C444.4,455,384.1,480,320,480z M320,12.2c-60.9,0-118.1,23.7-161.1,66.7S92.2,179.1,92.2,240s23.7,118.1,66.7,161.1
			c43,43,100.2,66.7,161.1,66.7c60.8,0,118.1-23.7,161.1-66.7c43-43,66.7-100.2,66.7-161.1c0-60.8-23.7-118.1-66.7-161.1
			C438.1,35.9,380.9,12.2,320,12.2z"/>
	</g>
</g>
</svg>
