<?xml version="1.0" encoding="utf-8"?>
<!-- Generator: Adobe Illustrator 19.1.1, SVG Export Plug-In . SVG Version: 6.00 Build 0)  -->
<svg version="1.1" id="Layer_3" xmlns="http://www.w3.org/2000/svg" xmlns:xlink="http://www.w3.org/1999/xlink" x="0px" y="0px"
	 viewBox="80 0 640 480" style="enable-background:new 80 0 640 480;" xml:space="preserve">
<style type="text/css">
	.st0{fill:#17ACE3;}
</style>
<path id="path4050" class="st0" d="M383.9,5.8c-12.4,0-15,2.2-19,6.7c-1.6-0.1-3.2-0.1-5-0.1c-9.6,0-21.8,1.4-32.3,8.4
	c-10.1,6.7-14.9,18.5-9.5,27.1c0,0,3.6-5.3,15.5-5.3c1.7,0,3.5,0.2,5.5,0.3c16.4,1.9,28.6,10.6,27.1,33.4
	c-1.3,22.8-9.9,48.2-44.9,48.5c0,0-4.5,0-9.3-0.4c-16.3-1.8-21.4-12-21.4-12s14.1-3.8,14.2-21.7c-0.1-12.2-10.7-23.3-26-27.8
	c-5-1.5-10.5-2.2-16.2-2.2c-18,0-38.2,7.5-51.8,25.3c-30.9,40.8-33.4,100.3-25.9,155.6c7.6,55.4,42.7,106.8,43.8,108.2
	c0.7,1,1.4,1.5,2.2,1.5c0.4,0,0.8-0.2,1.2-0.5c15.2-14.7,29.7-34.9,35.9-48.3c6.6,5.3,3.2,16.5-0.5,28.5
	c-3.5,12.3-11.9,28.6-14.9,33.8c-2.9,5.1-6.9,11.1-1.6,14.2c0.5,0.3,1.2,0.5,2,0.5c6.8,0,22.8-11.9,40.7-35.7
	c20-26.8,30.2-50.6,30.2-50.6c1.5,0.3,3.9,2.8,3.5,9.6c-0.3,6.9-7.3,32.3-21,56.1c-13.9,23.7-26.7,38.6-29.3,41.9
	c-1.6,2-0.2,3.2,0.8,4c1,0.7,25.5,23.6,61.2,42.9c42.2,22.5,60.9,26.5,60.9,26.5s18.7-3.9,60.9-26.4c35.6-19.4,60.2-42.4,61.2-43.1
	c1-0.7,2.3-1.8,0.8-4c-2.4-3.2-15.3-18.1-29.1-41.9c-13.7-23.6-21-49.2-21.1-56c-0.3-6.8,2-9.1,3.4-9.6c0,0,10.3,23.9,30.3,50.6
	c18,23.8,33.8,35.7,40.7,35.7c0.9,0,1.6-0.2,2.1-0.5c5.1-3.1,1.3-9.2-1.7-14.3c-2.8-5.2-11.3-21.4-15-33.8
	c-3.5-12.1-7.1-23.4-0.3-28.5c6.2,13.5,20.6,33.7,35.8,48.2c0.4,0.4,0.9,0.6,1.3,0.6c0.7,0,1.4-0.5,2-1.4
	c1.1-1.5,36.3-52.7,43.9-108.2c7.6-55.4,5.1-114.8-25.9-155.6c-13.5-17.8-33.9-25.4-52-25.4c-5.7,0-11.1,0.7-16,2.1
	c-15.4,4.6-25.9,15.9-25.8,27.9c0,17.9,14.1,21.7,14.1,21.7s-4.7,10-21.6,12c-3.1,0.4-6.2,0.6-9.1,0.6c-12.7,0-23.4-4-33.2-17.9
	c-9.6-13.4-9.2-41-9.8-50.2c-0.4-9.3-2.4-30.2-12.2-38.8c-9.8-8.8-21.7-11.7-36.5-12.3C385.8,5.8,384.9,5.8,383.9,5.8"/>
</svg>
