<svg id="Layer_1" data-name="Layer 1" xmlns="http://www.w3.org/2000/svg" viewBox="0 0 640 480"><title>Artboard 1</title><rect x="153.41" y="216.14" width="42.83" height="42.83"/><path d="M7.4,181.75V293.36H119V181.75ZM84.62,259H41.79V216.14H84.62Z"/><path d="M231.28,180.77h62.17c9.71,0,21.06,2.7,26.27,8.09a27.72,27.72,0,0,1,7.79,20,27.15,27.15,0,0,1-5.57,17.17,24.66,24.66,0,0,1-10.86,7.54q10.86,2.93,16,10t5.11,17.91a33.74,33.74,0,0,1-3.65,15.78,28.55,28.55,0,0,1-10,11.08c-2.6,1.7-10.38,2.92-15.72,3.7a121.85,121.85,0,0,1-14,1.54h-57.6Zm35.3,44.28h13.54q7.28,0,10.14-2.82a10.9,10.9,0,0,0,2.86-8.12,10.24,10.24,0,0,0-2.86-7.7q-2.86-2.78-9.93-2.78H266.58Zm0,44.36h15.87q8,0,11.34-3.19a11.41,11.41,0,0,0,3.3-8.59,10.49,10.49,0,0,0-3.27-8q-3.27-3-11.45-3H266.58Z"/><path d="M404.11,275H368.76l-4.91,18.64H328.18L366,180.76h37.85l41.75,112.91h-36.5Zm-6.49-21.82L385.2,210l-9.71,43.18Z"/><path d="M442.32,256.37l29.62-2.08q1,8.09,3.89,12.32a15.78,15.78,0,0,0,13.72,6.8q6.67,0,10.28-3.5a11,11,0,0,0,3.61-8.12,10.88,10.88,0,0,0-3.44-7.85q-3.44-3.47-16-6.49c-13.65-3.44-28.55-8-34.39-13.71s-8.8-13-8.8-21.79a32.19,32.19,0,0,1,4.57-16.5A30.81,30.81,0,0,1,459,183.29c6-2.95,19.47-4.43,30-4.43,12.87,0,26.58,1.39,33.34,6.75s16,17.79,17.25,29.5l-38.43-.67q-1.17-7.62-4.92-11.08t-10.38-3.47q-5.42,0-8.18,2.6a8.28,8.28,0,0,0-2.75,6.28,6.49,6.49,0,0,0,2.27,4.85q2.19,2.23,10.38,4.15,20.42,4.93,29.24,10c5.89,3.36,12.77,7.54,15.44,12.51a34.69,34.69,0,0,1,4,16.72,38.94,38.94,0,0,1-5.36,20c-3.57,6.11-11.16,10.75-17.57,13.9s-14.5,4.74-24.26,4.74q-25.7,0-35.6-11.08T442.32,256.37Z"/><path d="M546.94,180.77H633v29.45H580.8v19.71h46.83v29.29H580.8v34.44H546.94Z"/></svg>