<?xml version="1.0" encoding="utf-8"?>
<!-- Generator: Adobe Illustrator 22.1.0, SVG Export Plug-In . SVG Version: 6.00 Build 0)  -->
<svg version="1.1" id="Layer_2_1_" xmlns="http://www.w3.org/2000/svg" xmlns:xlink="http://www.w3.org/1999/xlink" x="0px" y="0px"
	 viewBox="0 0 640 480" style="enable-background:new 0 0 640 480;" xml:space="preserve">
<style type="text/css">
	.st0{fill:#02518A;}
</style>
<g>
	<path class="st0" d="M0,182.6c5.6,0,10.9,0,16.2,0c31.5,0,62.9,0,94.1,0c3.8,0,3.8,0,3.8,3.8c0,35.6,0,71.2,0,106.8
		c0,2.6-0.6,3.2-3.2,3.2c-28.5,0-57.1,0-85.6,0c-7.6,0-15.3,0-22.9,0c-2.1,0-2.4-0.9-2.4-2.6c0-29.7,0-59.4,0-89.1
		c0-6.5,0-12.6,0-19.1C0,184.7,0,183.8,0,182.6z M79.1,262c0.3-0.6,0.3-0.9,0.3-1.2c0-13.8,0-27.6,0-41.5c0-1.8-0.9-2.1-2.1-2.1
		c-3.8,0-7.4,0-11.2,0c-9.4,0-19.1,0-28.5,0c-1.8,0-2.6,0.3-2.6,2.4c0,13.5,0,26.8,0,40.3c0,1.5,0.6,2.1,2.1,2.1c2.4,0,4.4,0,6.8,0
		C55.6,262,67.4,262,79.1,262z"/>
	<path class="st0" d="M229.4,296.7c0-38.2,0-76.2,0-114.4c0.9,0,1.8,0,2.6,0c20,0,40,0,60,0c9.1,0,17.9,1.8,25,7.9
		c9.1,7.9,12.1,17.9,9.4,29.4c-1.2,5.9-5.3,10-10,13.2c-0.9,0.6-2.1,1.5-3.2,2.4c1.5,0.6,2.6,1.5,3.8,1.8
		c22.1,10.3,19.1,36.2,7.9,47.9c-7.9,8.2-17.9,11.8-29.1,11.8c-21.8,0.3-43.5,0-65.3,0C230.6,297,230,296.7,229.4,296.7z
		 M264.4,250.6c0,6.5,0,12.6,0,18.8c0,0.6,0.9,1.5,1.5,1.5c7.9,0,15.6,0.3,23.5,0c5.6-0.3,9.7-5,9.7-10.6c0-5-3.5-9.4-9.1-9.4
		C281.8,250.3,273.2,250.6,264.4,250.6z M264.7,227.3c3.8,0,7.4,0,10.9,0c3.5,0,7.1,0,10.6-0.3c5.9-0.6,9.1-4.4,8.8-10
		c-0.3-5.3-3.8-7.9-9.7-8.2c-5.9,0-12.1,0-17.9,0c-0.9,0-1.5,0-2.4,0.3C264.7,215.3,264.7,221.1,264.7,227.3z"/>
	<path class="st0" d="M442.1,257.6c12.1,0,23.8,0,35.6,0c0,0.3,0.3,0.3,0.3,0.6c2.1,13.5,16.2,20.3,28.2,13.5
		c6.2-3.5,6.8-10.3,0.9-14.4c-1.5-1.2-3.2-2.1-5-2.4c-10.3-3.2-20.9-5.9-31.2-9.1c-7.4-2.4-13.8-5.9-19.4-11.5
		c-10.6-10.9-10-28.8,0.9-40.6c6.8-7.4,15-11.2,24.7-12.9c14.7-2.6,29.1-2.6,42.9,2.9c13.5,5.6,21.8,15.3,22.9,30.3
		c0.3,2.1-0.3,2.6-2.4,2.6c-10.3,0-20.3,0-30.6,0c-1.5,0-2.4-0.6-2.4-2.1c-0.6-4.7-3.5-7.4-7.6-9.1c-5.3-2.1-10.6-2.4-16.2,0
		c-5.9,2.4-6.8,8.8-1.5,12.6c2.9,2.1,6.5,3.5,10,4.4c9.1,2.6,18.5,5,27.6,7.6c7.1,2.1,13.5,5.3,18.2,10.9
		c12.1,13.5,10,34.7-4.1,47.4c-7.6,6.8-17.1,10-27.4,11.5c-15,1.8-29.4,1.5-43.2-5.6c-13.5-7.1-20.9-18.2-22.1-33.5
		c0-0.6,0-1.2,0-1.5C441.8,258.2,441.8,258.2,442.1,257.6z"/>
	<path class="st0" d="M327.9,296.4c1.8-5,3.5-10,5.6-15c11.8-32.1,23.8-64.1,35.3-96.2c0.9-2.4,1.8-2.9,4.1-2.9
		c10.6,0,21.2,0,31.5,0c1.8,0,2.6,0.6,3.2,2.1c13.5,36.5,26.8,73.2,40.3,109.7c0.3,0.6,0.3,1.5,0.9,2.6c-1.2,0-2.1,0-3.2,0
		c-10.9,0-21.5,0-32.4,0c-1.8,0-2.4-0.6-2.9-2.1c-1.2-4.4-2.9-8.5-4.1-12.9c-0.6-1.8-1.2-2.4-2.9-2.4c-10,0-20.3,0-30.3,0
		c-2.1,0-3.2,0.6-3.8,2.6c-0.9,4.1-2.1,8.2-3.5,12.4c-0.3,0.9-1.5,1.8-2.1,1.8c-11.5,0-23.2,0-34.7,0
		C328.5,296.7,328.5,296.4,327.9,296.4z M397.9,254.4c-3.5-12.4-7.1-24.7-10.9-36.8c-0.3,0-0.3,0-0.6,0c-3.2,12.4-6.2,24.4-9.4,36.8
		C384.4,254.4,390.9,254.4,397.9,254.4z"/>
	<path class="st0" d="M634.4,261.7c-15.6,0-31.2,0-47.1,0c0,11.8,0,23.2,0,35c-0.9,0-1.8,0.3-2.4,0.3c-10,0-20.3,0-30.3,0
		c-2.1,0-2.9-0.6-2.6-2.6c0-36.8,0.3-73.5,0.3-110.3c0-0.6,0-0.9,0-1.5c29.1,0,58.5,0,87.6,0c0,10,0,19.7,0,30c-2.9,0-5.9,0-8.8,0
		c-13.5,0-27.1,0-40.9,0c-2.6,0-3.2,0.9-3.2,3.2c0.3,5.6,0,10.9,0,16.8c15.6,0,31.2,0,46.8,0C634.4,242.3,634.4,251.7,634.4,261.7z"
		/>
	<path class="st0" d="M150.6,217.9c7.4,0,14.7,0,22.1,0c6.2,0,12.4,0,18.2,0c2.1,0,2.6,0.6,2.6,2.6c0,12.6,0,25.3,0,37.9
		c0,2.1-0.6,2.9-2.6,2.6c-12.6,0-25.6,0-38.2,0c-1.5,0-2.4-0.3-2.4-2.1c0-13.5,0-26.8,0-40.3C150.3,219.1,150.3,218.8,150.6,217.9z"
		/>
</g>
</svg>
