<?xml version="1.0" encoding="utf-8"?>
<!-- Generator: Adobe Illustrator 22.1.0, SVG Export Plug-In . SVG Version: 6.00 Build 0)  -->
<svg version="1.1" id="Layer_1" xmlns="http://www.w3.org/2000/svg" xmlns:xlink="http://www.w3.org/1999/xlink" x="0px" y="0px"
	 viewBox="0 0 640 480" style="enable-background:new 0 0 640 480;" xml:space="preserve">
<style type="text/css">
	.st0{fill:#F9B330;}
</style>
<path class="st0" d="M635,213.6c-24.1,2-48.3,4-72.4,7c-28.7,4-56.8,11.1-84.5,21.1c-19.1,7.5-37.7,16.1-54.3,29.2
	c-8,6.5-15.6,14.1-23.1,20.6c4-86.5-29.2-159.9-79.4-228.2l-3.5-0.5c-50.8,68.4-84,142.3-79.9,227.7c-9.6-8-18.6-17.1-29.2-24.6
	c-22.6-16.1-48.8-26.1-75.4-33.7C96,221.6,57.3,215.6,18.6,213.1c-6-0.5-12.1,0-18.6,0c2,7.5,3.5,14.6,5.5,21.6
	c8.5,28.2,20.1,54.8,36.7,79.4c19.1,28.7,42.7,52.8,72.4,71.4c22.1,14.1,46.3,23.6,71.9,28.2c8.5,1.5,17.1,2,26.1,3
	c0-0.5,0.5-1,0.5-1.5c-26.6-15.1-53.3-30.7-79.4-45.8c0-0.5,0.5-0.5,0.5-1c33.2,12.6,66.9,24.6,100,37.2c0-0.5,0.5-0.5,0.5-1
	c-53.3-44.2-106.6-89-159.4-133.2l0.5-0.5c60.8,43.2,121.7,86,183,129.2c0.5-0.5,0.5-0.5,1-1c-17.6-34.2-34.7-67.9-52.3-102.1
	l0.5-0.5c24.6,33.2,49.8,66.4,74.4,99.5c0.5,0,1-0.5,1.5-0.5c-8-39.7-15.6-78.9-23.6-118.6c0.5,0,0.5,0,1-0.5
	c15.1,39.2,30.7,78.9,45.8,118.1c0.5,0,1-0.5,1.5-0.5c3.5-83.5,7-166.9,11.1-249.9c0,0,0,0,0.5,0c3.5,83.5,7,166.4,10.6,249.9
	c0.5,0,1,0,1.5,0c15.1-39.7,30.7-78.9,45.8-118.6c0.5,0,0.5,0,1,0.5c-8,39.7-16.1,79.9-23.6,119.7c0.5,0,1,0.5,1.5,0.5
	c24.6-33.2,49.3-66.4,74.4-99l0.5,0.5c-17.6,34.2-34.7,67.9-52.3,102.1c0.5,0,0.5,0.5,1,0.5c60.3-42.7,120.7-85,181-127.7
	c0,0.5,0.5,0.5,0.5,1c-52.3,43.7-104.6,87.5-157.4,131.2c0.5,0.5,0.5,1,1,1c34.2-12.6,67.9-25.1,102.1-37.7c0,0,0,0.5,0.5,0.5
	c-27.1,15.6-54.3,31.7-81.9,47.3c2,1,3.5,1.5,5,1.5c12.1-1.5,24.1-2.5,36.2-5.5c47.8-12.1,85.5-39.2,116.1-77.4
	c21.1-26.6,36.7-56.3,47.3-88.5c3.5-10.1,6-20.6,9-31.7C637,213.6,636,213.6,635,213.6z"/>
</svg>
