<?xml version="1.0" encoding="utf-8"?>
<!-- Generator: Adobe Illustrator 22.1.0, SVG Export Plug-In . SVG Version: 6.00 Build 0)  -->
<svg version="1.1" id="Layer_2_1_" xmlns="http://www.w3.org/2000/svg" xmlns:xlink="http://www.w3.org/1999/xlink" x="0px" y="0px"
	 viewBox="0 0 640 480" style="enable-background:new 0 0 640 480;" xml:space="preserve">
<g>
	<path d="M153,206.1c0,7.9-1.3,14.6-3.6,19.5c-2.3,5-5.6,9.3-9.6,12.3c5,2.6,8.9,7,11.6,12.6s4.3,12.9,4.3,22.2
		c0,9.3-1.3,16.6-4.3,22.5c-3,5.6-7,10.3-12.3,13.6c-5.3,3.3-11.6,5.6-18.9,6.6c-7.3,1.3-15.2,1.7-24.2,1.7H0V163.7h96
		c7.9,0,15.6,0.7,22.5,1.7c7,1,12.9,3.3,17.9,6.3c5,3.3,8.9,7.6,11.9,12.9C151.6,190.5,153,197.5,153,206.1z M40.4,225.9h56.9
		c5.6,0,9.9-1,12.6-3.3c3-2.3,4.3-6.3,4.3-11.6c0-6.3-1.7-10.3-5-12.6c-3.3-2.3-7.6-3.3-12.3-3.3H40.7v30.8H40.4z M40.4,251.8v32.4
		h56.9c2.6,0,5-0.3,7.3-0.7c2.3-0.3,4.3-1.3,5.6-2.6c1.7-1.3,3-3,3.6-5c1-2,1.3-4.6,1.3-7.9c0-6.3-1.7-10.6-4.6-12.6
		c-3.3-2.3-7.3-3.3-12.6-3.3H40.4V251.8z"/>
	<path d="M233.8,163.7h44.4L353.3,317h-41.4L298,287.2h-82.1L202,317h-42.7L233.8,163.7z M230.4,256.1h52.6l-26.5-56L230.4,256.1z"
		/>
	<path d="M385.7,196.8h-54.3v-33.1h149.7v33.1h-54.3V317h-41.1L385.7,196.8L385.7,196.8z"/>
	<path d="M537,255.4c-8.6,0-15.9-1-21.9-3s-10.6-4.6-13.9-8.6c-3.6-4-6-8.6-7.6-14.6c-1.3-6-2.3-12.6-2.3-20.5
		c0-7.6,0.7-14.2,2-19.9c1.3-5.6,4-10.3,7.3-14.2c3.3-3.6,7.9-6.6,13.9-8.6s13.2-3,22.2-3h98v34.4H545c-4.6,0-7.9,1-9.9,3.3
		c-2,2.3-3,5.6-3,10.6c0,5,1,8.3,3,10.3c2,2,5.3,3,9.9,3h49.7c8.6,0,15.9,1,21.9,2.6s10.3,4.6,13.9,8.3c3.3,3.6,6,8.6,7.3,14.2
		c1.3,5.6,2.3,12.6,2.3,20.2c0,7.6-0.7,14.6-2,20.2c-1.3,6-4,10.6-7.3,14.6c-3.6,4-8.3,6.6-13.9,8.6c-5.6,2-12.9,3-21.9,3H493.3
		v-34.1H587c4.6,0,7.9-1,9.9-3.3s3-5.6,3-10.9c0-5.3-1-8.9-3-10.6s-5.3-2.6-9.6-2.6H537V255.4z"/>
</g>
</svg>
