<?xml version="1.0" encoding="utf-8"?>
<!-- Generator: Adobe Illustrator 19.2.1, SVG Export Plug-In . SVG Version: 6.00 Build 0)  -->
<svg version="1.1" id="Layer_1" xmlns="http://www.w3.org/2000/svg" xmlns:xlink="http://www.w3.org/1999/xlink" x="0px" y="0px"
	 viewBox="0 0 640 480" style="enable-background:new 0 0 640 480;" xml:space="preserve">
<style type="text/css">
	.st0{fill:none;}
	.st1{fill:#CD072F;}
	.st2{fill:#FFFFFF;}
</style>
<path class="st0" d="M347.1,199.7c0.5-5.4-0.1-10.5-5.6-12.3c-6.8-2.4-15.2,2-21.6,11.7c-9.6,14.8-10.1,32.9-9,44.4
	C317.5,240.7,343.9,220.1,347.1,199.7z"/>
<path class="st0" d="M244.9,318.1c0,25.3,21,30.2,33.6,29c13.7-1.3,28.2-8.7,31.9-11c-12.4-16.4-23.9-40-29.2-61
	C268.4,280.7,244.9,296.5,244.9,318.1z"/>
<path class="st0" d="M182.2,135c-0.4,0-12,0-12,0l-37.3,118.8c0,0,50.6,13.8,73.5-53.3C228.1,136.6,194.3,135,182.2,135z"/>
<g>
	<path class="st1" d="M83.5,5.5h382.6c8.5,1.4,17.2,1.8,25.6,3.7c-0.5,0.7-1.1,1.4-1.6,2.1c4,0.1,8.1-0.7,11.9,1
		c17.7,5.8,34.1,17.6,42.6,34.6c6,11.3,7.9,24.1,8.9,36.7v392H154.1c-0.9-0.3-2.7-0.9-3.6-1.2c-2-0.8-4-1.3-6.1-1.7
		c-1.9-0.5-3.8-1-5.7-1.4l0.4-1c-6.6,0-12.3-3.8-18-6.6c-16.9-9-29.2-25.6-33.3-44.2c-3.6-11.6-3.2-23.8-4.5-35.8v-63.8
		c1.4-17.1,1.1-34.5,0-51.6V5.5"/>
	<path class="st2" d="M261.7,93.3c29.2-11.6,62.1-12.4,92.3-4c23,6.9,44.6,20.4,59.1,39.7c2.6,3-2.6,7.6-5.5,4.8
		c-42.4-36.3-110.8-35.4-153.3,0.4c29.4-4,59.4-2.2,88.6,2.7c32.5,6,64.9,17.3,91,38.2c15.3,12.3,28.2,30,28.8,50.3
		c1.1,19.7-10,37.9-24.1,50.8c-11.9,10.6-26,19-41.1,24c-3.2,1.5-7.7-1.6-5.8-5.1c3.2-3.6,7.7-5.9,11.3-9.2
		c11.9-10.2,22.6-23,26.5-38.6c2.7-10,1.1-20.8-3.5-29.9c-5.9-11.6-15.8-20.7-26.4-28.2c-18.3-12.6-39-21.3-60.3-27.2
		c-33.4-8.7-68.3-9.6-102.5-6.3c-9.5,13.4-14,30-16.1,46.2c-4.1,31.6,4.6,63.8,20.7,90.9c2.6,3.8-3.2,7.6-6.1,4.6
		c-37.3-32.7-52.4-88.1-37.1-135.3c-12.3,2.9-24.3,6.7-36.4,10.4c-4.3,1.8-7.7-4.3-3.4-6.6c14.4-8.8,30.5-14.5,46.3-20.3
		C216.3,122.1,237,102.7,261.7,93.3"/>
	<path class="st2" d="M319.2,247.5c12.5,0.1,25,0,37.5,0c0,54.1,0,108.2,0,162.3c-12.5-0.1-25-0.1-37.6,0
		C319.2,355.7,319.2,301.6,319.2,247.5"/>
	<path class="st2" d="M83.5,268.1c1.1,17.1,1.4,34.5,0,51.6V268.1"/>
	<path class="st2" d="M275.1,291.4c7.7,0.1,15.3,0,23,0c0,39.5,0,78.9,0,118.3c-7.7,0-15.3,0-23,0
		C275.1,370.3,275.1,330.9,275.1,291.4"/>
</g>
</svg>
