<?xml version="1.0" encoding="utf-8"?>
<!-- Generator: Adobe Illustrator 22.1.0, SVG Export Plug-In . SVG Version: 6.00 Build 0)  -->
<svg version="1.1" id="Layer_2_1_" xmlns="http://www.w3.org/2000/svg" xmlns:xlink="http://www.w3.org/1999/xlink" x="0px" y="0px"
	 viewBox="0 0 640 480" style="enable-background:new 0 0 640 480;" xml:space="preserve">
<style type="text/css">
	.st0{fill:#182E77;}
	.st1{fill:#FFFFFF;}
</style>
<g>
	<rect y="145.5" class="st0" width="640" height="189"/>
	<g>
		<path class="st1" d="M44.9,193.8c0.5,0,0.8-0.3,1-0.3c14.6,0.3,29.4,0.3,43.9,0.8c6.6,0.3,12.5,3.1,17.1,7.9
			c8.2,8.9,6.1,23.8-4.1,30.1c-0.8,0.5-1.5,1-1.8,1.3c2.8,2.3,6.1,4.3,8.7,7.2c10.7,13,3.1,34-14,38.1c-3.3,0.8-6.9,1-10.2,1.3
			c-8.9,0.3-17.6,0-26.6,0c-8.7,0-13.8-4.3-13.8-13c-0.3-23.8,0-47.8,0-71.5C44.7,194.8,44.9,194.3,44.9,193.8z M75.8,242.8v-0.3
			c-3.1,0-6.1,0-9.2,0c-1.5,0-2.6,0.5-2.6,2.3c0,5.1,0,10.2,0.3,15.3c0,1,1.3,3.1,2,3.1c6.9,0,13.8,0.3,20.4-0.5
			c5.1-0.5,7.7-5.1,7.4-10.5c-0.3-5.1-3.8-8.7-8.9-9.2C82.2,242.6,78.9,242.8,75.8,242.8z M64.4,226.5c7.4,0,14.8,0.3,22-0.3
			c4.1-0.3,6.4-3.8,6.1-8.2c0-3.8-2-7.2-6.1-7.4c-7.4-0.5-14.8-0.3-22.2-0.3C64.4,216,64.4,221.1,64.4,226.5z"/>
		<path class="st1" d="M434.2,221.4c0-5.4,0-10,0-14.8c0-9.2,4.1-13,13.3-13c1.5,0,3.3,0,5.4,0c0,28.9,0,57.5,0,86.3
			c-5.9,0-11.7,0-17.6,0c0-1.8,0-3.3,0-4.9c-0.5,0-0.8-0.3-0.8-0.3c-10.7,11.2-29.1,9.2-38.1-4.1c-8.4-12.5-7.7-34,1.8-45.7
			C406.6,214,422.7,211.9,434.2,221.4z M435.2,247.9c-0.8-3.6-1.3-6.9-2.3-10.2c-1.8-4.6-5.4-7.4-10.2-7.7
			c-4.9-0.3-8.9,1.8-11.2,6.1c-4.1,7.9-4.1,16.3,0,24.3c2,4.3,5.9,6.6,10.7,6.4c5.1-0.3,8.9-2.8,10.5-7.7
			C433.9,255.8,434.4,251.7,435.2,247.9z"/>
		<path class="st1" d="M181.3,261.7c-2.3,6.9-6.1,12-11.7,15.6c-19.9,12.5-45.5,1.8-49.5-21.5c-2.3-12.5,0.5-24.3,10.2-33.2
			c17.9-16.1,45.5-6.6,50.6,16.9c0.8,3.6,1,6.9,1.5,10.5c0.5,2.8-0.5,4.1-3.8,4.1c-12-0.3-24.3,0-36.3,0c-1.3,0-2.3,0-4.1,0
			c0.3,5.1,2.3,8.9,6.4,11.5c5.1,3.3,12.5,2.3,16.9-2.3c0.8-0.8,1.5-1.5,2.3-1.5C169.3,261.5,175.2,261.7,181.3,261.7z M162.7,240.5
			c0-6.4-4.6-11-11-11.2c-7.2-0.3-12.5,4.3-13.3,11.2C146.6,240.5,154.5,240.5,162.7,240.5z"/>
		<path class="st1" d="M278.9,254c-15.1,0-29.6,0-43.9,0c-0.3,5.1,2.8,10,7.4,12.3c5.1,2.3,11.5,1.5,14.8-2.3c1.8-2,3.6-2.6,6.1-2.3
			c4.3,0.3,8.9,0,13.3,0c0.3,0,0.5,0.3,1.3,0.3c-2.8,7.9-7.7,14-15.6,17.1c-12,4.9-24,4.6-34.7-3.6c-10.5-8.2-13.3-19.4-11.5-32.2
			c1.8-12.8,8.2-22.7,20.9-26.6c16.6-5.1,36.5,0,40.6,25.5C278.6,245.9,278.6,249.7,278.9,254z M235,240.5c8.4,0,16.6,0,24.8,0
			c-1.3-7.2-5.1-11-11.5-11C241.3,229.3,236.5,233.1,235,240.5z"/>
		<path class="st1" d="M461.2,248.4c0-19.9,13.3-33.2,33.2-33.2c19.9,0,33.2,13.3,32.9,33.2c0,19.7-14,33.5-33.7,33.5
			S461.2,268.3,461.2,248.4z M508.7,248.9c-0.3-2.6-0.3-4.1-0.3-5.9c-1-7.7-5.9-12.8-12.8-13c-7.9-0.5-13.8,3.3-15.1,11.2
			c-0.8,4.6-0.8,9.7,0,14.3c1.3,7.4,6.6,11.2,13.5,11.2s11.7-3.8,13.5-11.2C508.5,253.3,508.5,250.7,508.7,248.9z"/>
		<path class="st1" d="M382.6,235.9c-0.8,0-1.5,0.3-2,0.3c-4.9,0-9.7,0-14.6,0c-2.8-6.4-8.9-9.2-15.3-6.9c-2.3,0.8-4.3,2-4.3,4.9
			c0,2.6,2,3.3,4.3,3.8c5.9,1.3,11.7,2.6,17.4,3.8c10.7,2.6,15.8,8.2,16.1,17.4c0.3,9.4-5.6,17.9-15.1,20.7
			c-10,3.1-19.9,2.8-29.6-1.3c-7.7-3.3-12.5-10.7-12.5-19.4c5.4,0,10.7,0,16.1,0c0.5,0,1.3,1,1.5,1.8c1.5,7.9,15.1,8.4,19.4,4.9
			c3.1-2.6,2.6-6.9-1.3-8.2c-4.6-1.5-9.4-2.6-14-3.6c-2.6-0.8-4.9-1.3-7.4-2c-6.4-2-11.2-5.9-12.3-13c-1-7.9,1.3-14.6,7.9-19.2
			c9.7-6.9,29.4-6.1,38.6,1.5C380,225.2,382.8,229.8,382.6,235.9z"/>
		<path class="st1" d="M608.3,217.5c0,4.9,0,9.4,0,14.6c-3.8,0-7.4,0-11.2,0c0,1.5-0.3,2.8-0.3,3.8c0,10,0,19.7,0,29.6
			c0,1.5,0,3.3-0.5,4.9c-1.3,6.4-4.9,9.2-11.2,9.4c-6.6,0-6.6,0-6.6-6.6c0-19.7,0-39.3,0-59.2c0-2.3,0.3-4.6,0.5-6.9
			c1.3-6.6,6.1-11.7,13-13c5.4-0.8,10.7-0.8,16.3-1c0,5.1,0,9.4,0,14c-3.6,1-8.2-1-10.5,3.1c-1,1.8-0.8,4.3-1.3,6.9
			C600.9,217.5,604.8,217.5,608.3,217.5z"/>
		<path class="st1" d="M571.8,232.6c-1.8,0-3.6,0-5.4,0c-8.7,0-12.8,3.8-13,12.8c-0.3,10,0,19.9-0.3,29.9c0,4.6,0,4.6-4.3,4.6
			c-4.3,0-8.7,0-13.3,0c0-1.3-0.3-2.3-0.3-3.1c0.3-12.3-0.3-24.3,0.8-36.5c1.3-14.6,11.7-23.2,26.3-23.8c3.1,0,6.1,0,9.4,0
			C571.8,222.1,571.8,227.2,571.8,232.6z"/>
		<path class="st1" d="M322.8,216.5c0,4.9,0,9.4,0,13.8c0,1.8-0.8,2.3-2.3,2.3c-1.8,0-3.6,0-5.4,0c-5.6,0.3-9.4,3.1-10.5,8.9
			c-0.5,2.8-0.8,5.6-0.8,8.2c0,10,0,19.7,0,29.9c-5.6,0-11,0-16.1,0c-0.5,0-1.8-1.3-1.8-1.8c0.3-13.3-0.5-26.6,1.3-39.8
			c1.8-13.5,12-21.2,25.5-21.5C315.9,216.5,319.2,216.5,322.8,216.5z"/>
		<path class="st1" d="M207.4,279.6c-6.1,0-11.7,0-17.9,0c0-20.7,0-41.4,0-62.3c5.9,0,11.7,0,17.9,0
			C207.4,238,207.4,258.6,207.4,279.6z"/>
		<path class="st1" d="M198.2,189.4c5.9,0,10.5,4.6,10.5,10.2c0,5.4-4.9,10-10.5,10c-5.9,0-10.7-4.6-10.7-10
			C187.7,193.8,192.3,189.4,198.2,189.4z"/>
	</g>
</g>
</svg>
