<?xml version="1.0" encoding="utf-8"?>
<!-- Generator: Adobe Illustrator 22.1.0, SVG Export Plug-In . SVG Version: 6.00 Build 0)  -->
<svg version="1.1" id="Layer_2_1_" xmlns="http://www.w3.org/2000/svg" xmlns:xlink="http://www.w3.org/1999/xlink" x="0px" y="0px"
	 viewBox="0 0 640 480" style="enable-background:new 0 0 640 480;" xml:space="preserve">
<style type="text/css">
	.st0{fill:#E35302;}
</style>
<g>
	<path class="st0" d="M409,358.9c-0.2-5.6,1.7-15.4,4.8-24.9c16.8-52.3,36-103.8,56-154.9c14.9-38.1,30.6-75.8,45.8-113.7
		c3.6-8.8,8.6-16.7,15.6-23.1c19.4-17.6,41.8-22.1,66.3-13.4c23.9,8.5,37.8,25.7,41.8,51c1.8,11.8-0.2,23.1-2,34.6
		c-14.1,87.6-32.7,174.2-53.4,260.5c-4.6,19-12.4,36.1-25.7,50.5c-18.9,20.3-41.8,31.1-70,29.4c-25.3-1.6-45.6-12.7-60.5-33.2
		C415.2,404.3,409,384.8,409,358.9z"/>
	<path class="st0" d="M288.8,455.5c-45.2-1-82.7-30.9-91.4-74.7c-6.6-33.4,0.8-63.6,25.9-87.9c7.6-7.4,16.1-13.7,24.3-20.4
		c5.5-4.5,11.2-8.8,16.8-13.2c22.8-17.8,27.9-41.4,21.9-68.3c-1.6-6.9-4.1-13.6-6.3-20.4c-5-15.7-6.5-31.5-1.6-47.4
		c9.2-30,39.1-52.1,70-50.9c37.6,1.5,74.7,33.4,68.9,81.6c-1.9,15.4-8.3,28.4-18.9,39.5c-5.6,5.9-11.4,11.6-17.2,17.4
		c-8.7,9-15.9,19-19.8,31.1c-4.5,14.1-3.3,28.2,1,42.1c3.7,11.8,8,23.5,12,35.2c4.1,11.9,7.5,24,8.3,36.8
		c3,46.1-29.8,88.8-75.3,97.3C301.3,454.4,295.1,454.8,288.8,455.5z"/>
	<path class="st0" d="M85.9,278.3c47.5,0.2,85.4,38.5,85.3,86.3c-0.1,47.5-38.7,86.1-85.9,85.9C38,450.3-0.1,411.6,0,364
		C0.1,316.5,38.4,278.3,85.9,278.3z"/>
	<path class="st0" d="M204.4,198.4c-0.1,33-26.6,59.5-59.4,59.5c-32.9,0-59.6-27-59.4-60.2c0.2-32.7,27.3-59.6,59.8-59.2
		C178.2,138.7,204.5,165.4,204.4,198.4z"/>
</g>
</svg>
