<?xml version="1.0" encoding="utf-8"?>
<!-- Generator: Adobe Illustrator 22.1.0, SVG Export Plug-In . SVG Version: 6.00 Build 0)  -->
<svg version="1.1" id="Layer_2_1_" xmlns="http://www.w3.org/2000/svg" xmlns:xlink="http://www.w3.org/1999/xlink" x="0px" y="0px"
	 viewBox="0 0 640 480" style="enable-background:new 0 0 640 480;" xml:space="preserve">
<style type="text/css">
	.st0{fill:url(#path62-3_1_);}
</style>
<radialGradient id="path62-3_1_" cx="224.5891" cy="-190.1611" r="4.2884" gradientTransform="matrix(395.5708 0 0 399.3744 -88475.8828 76018.9531)" gradientUnits="userSpaceOnUse">
	<stop  offset="0" style="stop-color:#9ECDD9"/>
	<stop  offset="0.7527" style="stop-color:#0096AD"/>
	<stop  offset="1" style="stop-color:#77BECF"/>
</radialGradient>
<path id="path62-3" class="st0" d="M87.9,177.7c-29.1,109.5,22.1,221.4,117.4,273l0,0c-42-31.2-65.3-83.2-59.5-136.9l0,0
	c0.8-12.1,3.3-23.7,6.2-35l0,0c8.7-24.6,6.7-28.7,65.8-105.7l0,0c40-52.4,52.9-94.1,56.2-122l0,0c4.2,9.6,27.9,60.8,52.4,115.7l0,0
	c2.9,8.3,3.7,17.9,0.8,29.6l0,0c-15,67-134.9,77-69.5,124l0,0c69.1,49.9,62.4,100.3,10.8,153.6l0,0c14.6,3.3,28.7,5,42.9,5.4l0,0
	c75.3-53.3,64.5-115.7-4.6-165.7l0,0c-65.3-47,53.7-51.6,68.7-118.6l0,0c2.9-12.5,0-25-5.4-35.8l0,0c42.5-30.4,79.1-56.2,84.5-60.4
	l0,0c-11.2,25.4-20.8,68.3-12.5,134l0,0c10.8,84.5,9.2,97,5.4,116.1l0,0c-2.9,14.2-7.5,28.3-14.2,42l0,0
	c-21.6,49.1-67.8,82.4-119.5,88.7l0,0c108.2,2.9,208.5-68.3,238.1-177.7l0,0C586.2,174.4,510.4,42.9,382.2,8.3l0,0
	C361.4,2.9,340.6,0,319.8,0l0,0C213.6,0,116.7,70.8,87.9,177.7 M328.5,64.9L376,29.1l23.7,54.9h-0.4h0.4l-47.5,35.8L328.5,64.9
	L328.5,64.9L328.5,64.9z"/>
</svg>
