<?xml version="1.0" encoding="utf-8"?>
<!-- Generator: Adobe Illustrator 20.1.0, SVG Export Plug-In . SVG Version: 6.00 Build 0)  -->
<svg version="1.1" id="Layer_1" xmlns="http://www.w3.org/2000/svg" xmlns:xlink="http://www.w3.org/1999/xlink" x="0px" y="0px"
	 viewBox="0 0 640 480" style="enable-background:new 0 0 640 480;" xml:space="preserve">
<style type="text/css">
	.st0{fill:#FFFFFF;}
	.st1{fill:#008B6C;}
	.st2{fill:#46A28A;}
	.st3{fill:#7DB9A8;}
	.st4{fill:#B5D7CE;}
</style>
<g id="svgg">
	<path id="path0" class="st0" d="M81.2,107.4c0,58.4,0.2,106,0.5,105.7c0.3-0.3,0.9-3.7,1.4-7.6c1.3-10,3.6-21.6,5.6-28.5
		c2.6-9.3,3.3-11.1,4.1-11.9c0.5-0.5,0.9-2.1,0.9-3.6c0-1.5,0.4-2.7,1-2.7c0.5,0,1-0.9,1-1.9c0-1.1,0.4-2.7,0.9-3.6
		c2-3.9,7.7-17.4,7.7-18.3c0-0.5,0.4-1,1-1c0.5,0,1-0.8,1-1.8c0-1,0.3-2,0.7-2.1c0.4-0.2,1.5-1.8,2.4-3.7c3.3-6.5,5.9-11,6.7-11.3
		c0.4-0.2,0.7-0.7,0.7-1.2c0-1,9.4-14.9,13.3-19.6c1.3-1.6,3.9-4.9,5.8-7.2c6.7-8.4,20.5-22.5,28.7-29.1c1.8-1.5,3.6-3,3.8-3.2
		c2.6-2.6,22.8-17.1,25.8-18.4c0.8-0.3,3.2-1.7,5.3-3c2.1-1.3,5.3-3.2,7.2-4.1c1.8-0.9,3.5-2,3.7-2.4c0.2-0.4,1.1-0.7,2.1-0.7
		c1,0,1.8-0.4,1.8-1c0-0.5,0.6-1,1.3-1c0.7,0,4.4-1.5,8.1-3.3c3.8-1.8,7.5-3.3,8.2-3.3s1.6-0.4,1.9-1c0.3-0.5,1.6-1,2.9-1
		c1.3,0,2.3-0.4,2.3-1c0-0.5,0.8-1,1.7-1c0.9,0,4.3-0.9,7.4-2c11.4-4,22.7-6.5,37.6-8.4c3.9-0.5,7.3-1.2,7.6-1.4
		s-47.3-0.5-105.7-0.5H81.2V107.4 M347,1.7c0.3,0.3,3.7,0.9,7.6,1.4C361,4,366.7,5,374,6.5c8.8,1.8,27.1,7.6,32.2,10.2
		c0.9,0.5,2.1,0.8,2.7,0.8c0.6,0,4.2,1.5,8.2,3.3c3.9,1.8,7.6,3.3,8.1,3.3c0.5,0,0.9,0.4,0.9,1c0,0.5,0.6,1,1.4,1
		c1.4,0,10.1,4.5,11,5.7c0.3,0.4,1.9,1.3,3.6,2c1.7,0.7,3.1,1.7,3.1,2.1c0,0.4,0.4,0.7,1,0.7c0.9,0,7.3,3.9,10.5,6.4
		c0.8,0.6,3.8,2.9,6.7,5c16.9,12.3,32.4,27.6,47.1,46.4c4.8,6.2,13.1,18.5,13.1,19.5c0,0.6,0.4,1,1,1c0.5,0,1,0.5,1,1
		c0,0.6,0.8,2.2,1.8,3.6c3,4.3,6.8,11.6,6.8,13.1c0,0.8,0.4,1.4,1,1.4s1,0.4,1,0.9c0,0.5,1.5,4,3.3,7.8c1.8,3.8,3.3,7.4,3.3,8.2
		s0.4,2,0.8,2.9c2.3,4.6,6.5,16.6,7.9,22.7c3.3,14.2,4.5,20.3,5.9,29.1c1.2,7.2,1.3-4.5,1.4-98.1l0.1-106.3H452.6
		C394.2,1.2,346.7,1.4,347,1.7 M363.7,117.4c1.2,0.3,2.1,0.9,2.1,1.4c0,0.5,0.6,0.9,1.3,0.9c1.3,0,7.8,3.1,12.1,5.8
		c1.3,0.8,6,3.8,10.5,6.6c4.5,2.8,8.6,5.6,9.2,6.1c0.6,0.6,3.1,2.5,5.5,4.4c6.1,4.7,5.8,5.1-7,7.7c-4.4,0.9-14.7,3.2-21.5,4.9
		c-2.1,0.5-5.2,1.2-6.9,1.5s-3.4,0.9-3.6,1.4c-0.3,0.5-1.5,0.9-2.8,0.9c-1.3,0-2.5,0.4-2.9,1c-0.3,0.5-1.4,1-2.4,1
		c-1,0-3.4,0.7-5.4,1.6c-2,0.9-4.6,1.9-5.8,2.4c-2.5,1-6,2.4-9.1,3.6c-1.2,0.5-2.8,1.1-3.6,1.4c-1.5,0.6,5.5,0,17.7-1.4
		c4.2-0.5,13.2-1.3,20.1-1.7c6.8-0.4,17-1.1,22.7-1.5c12.6-0.9,14.2,1.7,6.1,10.3c-0.6,0.6-2.7,3.1-4.6,5.5
		c-1.9,2.4-5.6,6.7-8.3,9.6c-2.6,2.9-4.7,5.4-4.6,5.5c0.1,0.1,11.5-5.4,25.2-12.3c26.4-13.2,28.8-13.9,28.8-7.8c0,0.7,0.4,1.3,1,1.3
		c0.5,0,1,1.1,1,2.4c0,1.3,0.4,2.4,0.9,2.4c0.5,0,1.1,1.4,1.3,3.1c0.3,1.7,1.4,7.4,2.5,12.7c1.1,5.3,2,13,2.1,17.2
		c0.1,9.8,1.2,17,2.2,14.3c0.4-1.1,1.1-2.8,1.5-3.8c1.7-4.2,4-12.1,5.9-20.5c1.7-7.6,3.6-33.6,3.7-49.4c0-0.6,1.5-1.9,3.4-2.8
		c3.7-1.7,11.5-10,12.2-13c0.5-2.1,1.9-2.1-19.2,0.1c-9.5,1-9.9,1-14.3-1.3c-7.8-4-15.3-7.2-16.9-7.2c-0.8,0-1.5-0.4-1.5-1
		c0-0.5-1-1-2.3-1s-2.6-0.4-2.9-1c-0.3-0.5-1.6-1-2.9-1c-1.3,0-3.3-0.4-4.5-0.8c-8.1-3.1-16.7-5.1-32.3-7.8
		C371.3,117.7,360.5,116.6,363.7,117.4 M280.4,191c-8.7,3.7-10.1,4.3-16.2,7.9c-3.2,1.8-6,3.7-6.4,4.3c-0.4,0.6-8.8,1.3-22,1.8
		c-11.7,0.4-22.3,1.2-23.5,1.7c-1.2,0.5-3.7,0.9-5.4,0.9c-1.8,0-3.5,0.4-3.8,0.8c-0.6,1,2.6,2,6.1,2c2.4,0,10.4,2.4,13.6,4
		c0.9,0.5,2.3,0.8,3,0.8c0.8,0,1.5,0.3,1.7,0.7c0.2,0.4,1.6,1.4,3.1,2.1c3.9,2,3.9,2.8-0.2,7.2c-2,2.1-5.3,6-7.4,8.6
		c-2.1,2.6-4.4,5.4-5,6.1c-2.1,2.2-15.5,22.8-15.5,23.9c0,0.5-0.5,1.1-1.1,1.3c-0.6,0.2-0.9,1.1-0.7,1.9c0.3,1.2,1.4,0.6,5.1-2.7
		c7.4-6.7,16.8-14.2,21.4-17c0.8-0.5,1.7-1.2,2-1.5c5.3-6.6,17.4-10.3,17.9-5.5c0.3,2.2,1.3,5.1,3.2,8.7c0.5,0.9,0.8,2.1,0.8,2.6
		c0,0.5,1.1,3.2,2.4,5.9c1.3,2.7,2.4,5.7,2.4,6.7c0,1,0.4,1.7,1,1.7s1,1.2,1,2.6l0,2.6l1.4-2.4c0.8-1.3,1.4-3.6,1.4-5
		c0-1.5,0.9-5.7,2-9.6c1.1-3.8,2.2-8.1,2.5-9.6c0.3-1.5,0.9-2.9,1.3-3.2c0.5-0.3,0.8-1.3,0.8-2.2c0-3,4.5-11.1,6.8-12.3
		c5-2.5,28.8-3.2,54.3-1.8l11,0.6l-8.1-3.9c-4.5-2.2-8.9-4.3-9.8-4.8c-0.9-0.5-2.5-0.9-3.5-0.9s-2.1-0.4-2.4-0.8
		c-0.3-0.5-1.7-1.1-3.2-1.3c-1.5-0.3-7.7-1.8-14-3.5c-6.2-1.6-12.6-3-14.1-3c-1.6,0-3-0.6-3.3-1.4c-0.5-1.3,3.2-9.3,4.7-9.9
		c0.4-0.2,0.7-0.9,0.7-1.7s0.7-2.4,1.5-3.7C290.2,187.6,288.2,187.7,280.4,191 M81.2,372.6v106.2l106.3-0.1
		c91.9-0.1,105.2-0.3,98.6-1.4c-10.2-1.7-16.4-3-29.6-6c-2.1-0.5-5.8-1.6-8.1-2.5c-2.4-0.9-5.2-1.8-6.2-2.1c-2.1-0.5-5.8-2-8.3-3.3
		c-0.9-0.5-2.1-0.8-2.7-0.8c-1.5,0-16.6-7-17-7.9c-0.2-0.4-1.1-0.7-2.1-0.7c-1,0-1.8-0.4-1.8-1c0-0.5-0.7-1-1.5-1
		c-1.4,0-6-2.5-7.1-3.9c-0.3-0.3-1.9-1.2-3.6-1.9c-1.7-0.7-3.1-1.7-3.1-2.1c0-0.4-0.5-0.7-1-0.7c-1.5,0-15.7-9.9-25.6-17.9
		c-11-8.9-30.2-28.3-35.7-36c-0.4-0.5-1.7-2.3-2.9-3.9c-4.9-6.3-13.1-18.5-13.1-19.5c0-0.6-0.3-1-0.7-1c-0.4,0-1.3-1.4-2.1-3.1
		c-0.7-1.7-1.6-3.3-2-3.6c-1.2-0.9-5.7-9.6-5.7-11c0-0.8-0.4-1.4-1-1.4c-0.5,0-1-0.4-1-0.9c0-0.5-1.5-4.1-3.3-8.1
		c-1.8-3.9-3.3-7.6-3.3-8.2c0-0.6-0.4-1.9-1-2.9c-0.5-1-1.4-2.8-1.9-3.8c-0.5-1-1-2.7-1-3.7c0-1-0.6-3-1.4-4.6
		c-2.9-5.9-7-23.6-9.1-39.4c-0.5-3.9-1.2-7.3-1.4-7.6C81.5,266.7,81.2,314.2,81.2,372.6 M557,275.1c-0.7,4.6-1.4,10.1-1.7,12.2
		c-0.3,2.1-0.9,4.2-1.4,4.7c-0.5,0.5-0.9,2-0.9,3.3s-0.4,3.7-0.9,5.3c-0.5,1.6-2.1,6.8-3.5,11.5c-2.5,8.3-3,9.6-5.1,13.8
		c-0.5,1-1,2.5-1,3.2c0,0.7-1,3.4-2.2,6c-1.2,2.6-2.8,6.1-3.6,7.8c-0.7,1.7-1.7,3.1-2.1,3.1c-0.4,0-0.7,0.9-0.7,1.9s-0.4,1.9-1,1.9
		c-0.5,0-1,0.7-1,1.5c0,0.8-1.5,3.8-3.3,6.7c-1.8,2.9-3.3,5.6-3.3,6.2c0,0.5-0.3,0.9-0.7,0.9c-0.4,0-1.5,1.7-2.5,3.8
		c-1,2.1-2.5,4.5-3.4,5.5c-0.9,0.9-3.7,4.7-6.3,8.4c-2.6,3.7-5.2,7.2-5.7,7.8c-0.5,0.6-3.1,3.6-5.8,6.7c-6.6,7.6-17,18.1-23.8,23.8
		c-3.1,2.6-6.5,5.5-7.6,6.5c-1.1,1-4.6,3.5-7.8,5.7c-3.2,2.1-6.5,4.6-7.4,5.5c-0.9,0.9-3.4,2.4-5.5,3.4c-2.1,1-3.8,2.1-3.8,2.5
		c0,0.4-0.7,0.7-1.4,0.7s-1.4,0.4-1.4,1s-0.9,1-1.9,1c-1.1,0-1.9,0.3-1.9,0.7c0,1-5.5,4.1-7.2,4.1c-0.7,0-1.4,0.4-1.4,1
		c0,0.5-0.8,1-1.8,1c-1,0-2,0.3-2.1,0.7c-0.4,0.9-15.5,7.9-17,7.9c-0.6,0-1.8,0.4-2.7,0.8c-3.1,1.6-10.1,4.1-17.9,6.4
		c-2.6,0.8-6.1,1.8-7.7,2.3c-1.6,0.5-4.1,0.9-5.4,0.9c-1.4,0-2.7,0.4-3,0.8c-0.3,0.5-2.8,1.1-5.5,1.5c-24.8,3.2-24.1,3.2,85.9,3.3
		l106.3,0.1v-106c0-58.3-0.1-106-0.3-106S557.7,270.5,557,275.1 M189.2,300.7c-1.2,2.8-1.1,13.3,0.5,30.8c0.6,6.2,0.4,7-1.2,7.5
		c-1,0.3-2.5,1-3.5,1.5c-0.9,0.5-2.2,0.9-2.9,0.9c-0.7,0-3.7,1.2-6.7,2.7l-5.5,2.6l2.7,1.4c1.5,0.8,2.9,1.6,3.1,1.9
		c0.3,0.3,3.9,2.2,8.1,4.3c4.2,2.1,7.8,4.1,8,4.5c0.2,0.4,1.1,0.7,2,0.7c2.1,0,4.8,2.9,4.8,5.1c0,0.9,0.4,1.6,1,1.6
		c0.5,0,1,0.8,1,1.8c0,1,0.4,2,0.8,2.1c0.4,0.2,2.3,2.7,4.2,5.6c1.9,2.9,5.2,7.1,7.3,9.4l3.9,4.2v-9.6c0-10.8,0.2-11.1,5.9-9.7
		c2.3,0.6,7.1,1.4,10.8,1.9c3.7,0.5,8.4,1.1,10.5,1.5c3.4,0.6,3.7,0.5,2.5-0.9c-0.7-0.9-1.7-1.6-2.2-1.6c-1.4,0-15.6-10.1-20-14.3
		l-3.8-3.6l2.1-3.7c4.2-7.5,9.5-17.6,9.5-18.2c0-0.3-1.6-0.3-3.6,0.1c-22.8,4.2-24,4.1-27.7-3.3c-1.7-3.4-3.1-6.9-3.1-7.7
		c0-0.8-0.4-1.9-0.9-2.4c-0.5-0.5-1.6-3.5-2.5-6.6c-0.9-3.2-2-6.2-2.4-6.7c-0.4-0.5-0.9-2.2-1.1-3.8l-0.4-2.9L189.2,300.7
		 M326.9,358c-0.7,0.7-1.2,1.7-1.2,2.1c0,2.7-15.2,15.4-19.2,15.9c-2.3,0.3-6.8,1-10,1.4c-6.9,1-12.6,2.7-9.4,2.9
		c1.2,0,2.3,0.5,2.6,0.9c0.3,0.5,1.9,1.1,3.6,1.5c8.2,1.6,7.9,3.6-1.4,10.6l-5.7,4.3h4.3c2.4,0,4.6-0.4,4.9-1s1.2-1,2-1
		c1.8,0,19.8-8.7,20.3-9.7c0.2-0.4,3.8-0.8,8-0.8h7.7l-0.7-5.2c-0.7-5.4,2-10,5.8-10c0.7,0,1.3-0.4,1.3-0.9c0-0.5,0.8-1.1,1.7-1.4
		c1.7-0.6,11.4-9.1,10.3-9.1c-0.3,0-4.6,1.9-9.5,4.3c-11,5.4-10.8,5.4-12.2-1C329.2,356.2,328.8,355.8,326.9,358"/>
	<path id="path1" class="st1" d="M310.7,2.3c-0.6,0.6-6.3,1.4-12.8,1.9c-6.5,0.4-14.3,1.2-17.5,1.7c-3.2,0.5-7.9,1.3-10.5,1.8
		c-2.6,0.4-5.7,1.3-6.9,2s-3.2,1.1-4.5,1.1c-1.3,0-2.7,0.4-3,1c-0.3,0.5-1.8,1-3.3,1c-1.5,0-3,0.4-3.3,1c-0.3,0.5-1.8,1-3.3,1
		c-1.5,0-3,0.4-3.3,1s-1.4,1-2.4,1c-1,0-4.1,1.1-6.9,2.5c-2.8,1.4-6,2.8-7,3.2c-2.9,1.1-24.7,11.8-25.8,12.7
		c-1.7,1.4-7.6,5-10.3,6.4c-1.4,0.7-2.6,1.7-2.6,2.1c0,0.4-0.5,0.8-1.2,0.8c-1,0-2.8,1.2-8.1,5.7c-0.6,0.5-1.4,1-1.8,1
		c-0.4,0-1.3,0.8-2.2,1.7c-0.9,0.9-3.7,3.4-6.3,5.4c-6.1,4.8-26.9,25.6-30.5,30.6c-1.5,2.1-3.6,4.5-4.5,5.4
		c-0.9,0.8-1.7,1.8-1.7,2.2c0,0.4-0.4,1.2-0.9,1.8c-4.5,5.5-5.7,7.3-5.7,8.2c0,0.6-0.4,1.1-1,1.1c-0.5,0-1,0.6-1,1.4s-0.4,1.4-1,1.4
		c-0.5,0-1,0.5-1,1c0,0.6-1.1,2.4-2.4,4.2c-1.3,1.7-2.4,3.6-2.4,4.2s-0.3,1.2-0.7,1.3c-0.7,0.3-11,20.9-12.6,25.2
		c-0.4,1.1-1.8,4.2-3.2,7c-1.4,2.8-2.5,5.9-2.5,6.9c0,1-0.4,2-1,2.4s-1,1.8-1,3.3c0,1.5-0.4,3-1,3.3c-0.5,0.3-1,1.8-1,3.3
		c0,1.5-0.4,3-0.9,3.3c-0.5,0.3-1.1,1.9-1.4,3.6c-0.8,5.1-2.6,12.5-3.5,14.6c-1,2.3-1.7,8.4-2.7,24.1c-0.4,6.9-1.2,12.2-1.9,12.8
		c-1.6,1.6-1.6,17.2,0,18.7c0.7,0.7,1.5,5.9,1.9,12.8c1,15.6,1.7,21.8,2.7,24.1c0.5,1.1,1.6,5.3,2.5,9.6c0.9,4.2,2,8,2.5,8.5
		c0.4,0.5,0.8,1.8,0.8,2.8c0,2,1.6,7.7,3,10.4c0.5,0.9,0.8,2.2,0.8,2.9s0.8,3,1.8,5c1.8,3.7,4.1,9.1,6.1,13.8
		c1,2.3,3.1,6.7,7.6,15.3c1.2,2.4,2.5,4.4,2.9,4.6c0.4,0.2,0.7,0.8,0.7,1.3s1.1,2.4,2.4,4.2c1.3,1.7,2.4,3.4,2.4,3.7
		c0,0.6,5.3,8.6,7.1,10.7c2.8,3.2,3.4,4.1,3.4,4.7c0,0.4,0.8,1.3,1.7,2.2c0.9,0.9,2.9,3.3,4.5,5.4c3.6,4.9,26.6,27.9,31.5,31.6
		c2.1,1.5,5.1,4,6.6,5.4c1.5,1.4,3.1,2.6,3.5,2.6c0.4,0,1.4,0.6,2.1,1.4c1.9,1.9,17.7,12,18.7,12c0.5,0,1,0.3,1.2,0.7
		c0.2,0.4,2.3,1.7,4.6,2.9c8.8,4.6,13,6.6,15.3,7.5c3.1,1.3,13.4,5.9,15.5,7c0.9,0.5,2.5,0.9,3.5,0.9c1,0,2.1,0.4,2.5,1s1.6,1,2.9,1
		c1.3,0,3.1,0.4,4,0.9c0.9,0.5,4.2,1.6,7.4,2.5c3.2,0.9,6.7,2,7.9,2.5c1.2,0.5,3.6,0.8,5.3,0.8c1.7,0,3.5,0.4,4,0.9
		c1,1,6.6,1.6,24.1,2.8c6.5,0.4,12.2,1.3,12.8,1.9c1.4,1.4,17.2,1.5,18.6,0.1c0.6-0.6,6.4-1.4,12.8-1.9c18.2-1.3,23.2-1.9,24.2-2.9
		c0.5-0.5,2.2-0.9,3.8-0.9s4.4-0.5,6.3-1.1c8.1-2.6,11.3-3.5,15.4-4.6c2.4-0.6,5-1.6,6-2c0.9-0.5,2.3-0.9,3.1-0.9
		c1.5,0,2.3-0.3,7.8-3.2c1.7-0.9,3.7-1.6,4.5-1.6c0.8,0,1.5-0.4,1.5-1s0.7-1,1.4-1c0.8,0,2.2-0.4,3.1-0.8
		c11.5-5.7,19.7-10.1,20.3-10.6c0.3-0.3,1.8-1.1,3.3-1.9c1.6-0.8,3.1-1.6,3.3-1.9c1.2-1.3,8.7-5.7,9.5-5.7c0.5,0,1-0.3,1-0.7
		c0-0.4,1.6-1.8,3.5-3.1c1.9-1.3,4-2.8,4.5-3.4c0.6-0.5,3.2-2.7,5.8-4.7c6.2-4.9,28.6-27.3,33.4-33.4c2.1-2.6,4.2-5.2,4.7-5.8
		c0.5-0.6,2-2.6,3.4-4.5c1.3-1.9,2.7-3.5,3.1-3.5c0.4,0,0.7-0.4,0.7-1c0-0.9,4.5-8.3,5.7-9.5c0.3-0.3,1.1-1.8,1.9-3.3
		c0.8-1.6,1.6-3.1,1.9-3.3c0.5-0.5,5-8.9,7.7-14.3c1.6-3.2,4.3-9.3,7.3-16.2c0.8-1.8,1.8-4.1,2.3-5c0.5-0.9,0.8-2.3,0.8-3.1
		c0-0.8,0.4-2.2,0.8-3.1c0.5-0.9,1.3-3.2,1.8-5c2.6-9.3,4.4-15,5.1-16.5c0.5-0.9,0.8-3.3,0.8-5.3s0.4-4.1,0.9-4.6
		c0.9-1,1.5-5.4,2.9-24.2c0.5-6.5,1.4-12.3,1.9-12.8c1.3-1.3,1.3-17.1,0-18.4c-0.6-0.6-1.4-6.3-1.9-12.8c-1.4-18.9-2-23.2-2.9-24.2
		c-0.5-0.5-0.9-2.5-0.9-4.6s-0.4-4.4-0.8-5.3c-0.5-0.9-1.6-4.2-2.5-7.4c-0.9-3.2-2-6.5-2.5-7.4c-0.5-0.9-0.9-2.7-0.9-4
		c0-1.3-0.4-2.6-1-2.9s-1-1.4-1-2.5c0-1-0.4-2.6-0.9-3.5c-0.5-0.9-2-4.2-3.4-7.4c-1.4-3.2-2.9-6.5-3.4-7.4c-0.5-0.9-0.9-2.3-0.9-3.1
		c0-0.8-0.4-1.4-1-1.4s-1-0.7-1-1.5c0-0.8-1-3.1-2.2-5c-1.2-2-2.8-5-3.6-6.7c-0.7-1.7-1.7-3.1-2.1-3.1c-0.4,0-0.7-0.4-0.7-0.9
		c0-0.5-1.9-4-4.3-7.7c-2.4-3.7-4.3-6.9-4.3-7.2c0-0.3-1.1-1.6-2.4-2.9s-2.4-2.7-2.4-3.2c0-0.4-1.2-2-2.6-3.6
		c-1.4-1.5-3.9-4.5-5.4-6.6c-3.7-5-26.7-28-31.6-31.6c-2.1-1.5-4.5-3.5-5.4-4.5c-0.8-0.9-1.8-1.7-2.2-1.7c-0.7,0-1.8-0.9-5.7-4.3
		c-2.1-1.8-4.5-3.4-8.7-5.7c-1.1-0.6-3.3-2-4.9-3.2c-1.6-1.2-3.5-2.1-4-2.1c-0.6,0-1-0.3-1-0.7c0-0.4-1.4-1.3-3.1-2.1
		c-1.7-0.7-4.7-2.4-6.7-3.6c-2-1.2-4.2-2.2-5-2.2c-0.8,0-1.5-0.4-1.5-1c0-0.5-0.7-1-1.4-1c-0.8,0-2.2-0.4-3.1-0.9
		c-0.9-0.5-3.4-1.6-5.5-2.5c-2.1-0.9-5.5-2.4-7.6-3.4c-2.1-1-4.5-1.8-5.4-1.8c-0.9,0-1.9-0.4-2.3-1c-0.3-0.5-1.8-1-3.3-1
		s-3-0.4-3.3-1c-0.3-0.5-1.6-1-2.9-1c-1.3,0-3.1-0.4-4-0.8c-3.4-1.7-11.6-4-14.3-4c-1.5,0-3.2-0.4-3.7-0.9c-1-0.9-6-1.5-24.2-2.9
		c-6.5-0.5-12.3-1.3-12.8-1.9C327.9,0.8,312.1,0.9,310.7,2.3 M369.4,114.8c3.8,0.5,7.5,1.3,8.1,1.7c1.1,0.7,4.3,1.3,15.5,2.8
		c2.1,0.3,4.2,0.9,4.7,1.4c0.5,0.5,2.3,0.9,4,0.9s3.4,0.4,3.7,1c0.3,0.5,1.5,1,2.7,1c1.1,0,5.1,1.1,8.8,2.5
		c11.9,4.4,14,5.2,22.5,9.4c7,3.4,12.9,4.4,14.9,2.6c0.5-0.5,4.6-1.1,9-1.4c4.5-0.3,9.2-0.6,10.5-0.8c2.1-0.3,2.4,0.1,2.7,2.8
		c0.2,1.7-0.1,3.1-0.7,3.1c-0.6,0-1,0.6-1,1.3c0,1.7-7.7,9.4-11.1,11.1c-1.5,0.8-2.9,1.5-3.2,1.7c-0.3,0.2-0.8,8.8-1.1,19.1
		c-0.8,21.9-1.5,30.9-2.8,32.1c-0.5,0.5-0.9,2.3-0.9,4.1c0,1.7-0.4,3.9-0.8,4.8c-0.5,0.9-1.4,3.4-2,5.5c-1.5,4.9-5.7,13.7-6.9,14.4
		c-1.8,1.1-2.2-1-2.9-14.3c-0.4-7.4-1.1-16.5-1.7-20.2c-0.5-3.7-1.3-8.6-1.6-11c-0.3-2.4-1-4.7-1.4-5.2c-0.5-0.5-0.9-1.9-0.9-3.1
		c0-1.2-0.4-2.2-0.9-2.2c-0.5,0-1.1-1.1-1.5-2.4c-0.3-1.3-1.3-2.7-2.1-3c-1.4-0.5-19.6,8-20.3,9.5c-0.2,0.4-1.1,0.7-2.1,0.7
		c-1,0-2,0.4-2.4,1c-0.3,0.5-1.4,1-2.4,1c-1,0-1.9,0.3-2.1,0.7c-0.4,0.8-25.4,13.6-26.7,13.6c-1.5,0-0.9-1.6,1.8-4.4
		c1.4-1.5,4.8-5.4,7.4-8.5c2.6-3.1,5.8-6.8,7-8.1c1.2-1.3,3.6-4.3,5.2-6.7s3.4-4.6,4-5c2.8-2-46,0.9-60.6,3.6
		c-10.9,2-16.4,2.3-16.9,0.8c-0.4-1.1,4.7-4.2,7-4.2c0.7,0,1.3-0.4,1.3-1s0.7-1,1.4-1s2.2-0.4,3.1-0.9c0.9-0.5,3.2-1.5,5-2.3
		c1.8-0.7,4.5-1.8,6-2.4c1.5-0.6,3.5-1.1,4.5-1.1c1,0,1.9-0.4,1.9-1s1.3-1,2.8-1c1.5,0,3.1-0.4,3.4-1c0.3-0.5,1.7-1,3.2-1
		c1.4,0,3.6-0.6,5-1.4c1.3-0.8,3.5-1.4,5-1.4c1.4,0,2.8-0.5,3.2-1c0.3-0.5,2.3-1,4.3-1c2,0,4-0.4,4.3-1s2.5-1,4.8-1
		c2.3,0,4.5-0.4,4.8-1c0.3-0.5,2.5-1,4.8-1c2.3,0,4.2-0.3,4.2-0.7c0-0.8-6.4-6.9-7.3-6.9c-0.3,0-2.7-1.5-5.3-3.4
		c-2.6-1.9-6.2-4.2-8-5.3c-16.5-9.4-18.6-10.4-20-10.4c-0.8,0-1.4-0.4-1.4-1c0-0.5-0.9-1-1.9-1c-1.6,0-4-1.1-7.5-3.5
		c-1.6-1.1,1.7-2.3,5-1.9C360.7,113.6,365.6,114.2,369.4,114.8 M292.3,187c0,0.8-1,3.1-2.2,5c-1.2,2-2.8,5-3.6,6.7
		c-0.7,1.7-1.7,3.1-2.1,3.1c-0.4,0-0.7,0.6-0.7,1.3c0,1.5,2.3,2.5,8.6,3.5c9.9,1.7,11.1,2,12.9,2.7c5.1,2,8.8,3.2,11.2,3.6
		c1.5,0.3,2.9,0.9,3.2,1.3c0.3,0.5,1.3,0.8,2.3,0.8c1,0,3.6,0.9,5.9,2c2.3,1.1,4.8,2.3,5.6,2.7c12.6,5.9,14.2,9.5,3.6,8.2
		c-2.8-0.3-16.3-0.8-30.2-1.1c-28.7-0.5-32.1,0-34.5,5.7c-0.7,1.7-1.9,4.3-2.6,5.8c-0.7,1.5-1.3,3.5-1.3,4.5c0,0.9-0.4,2-1,2.3
		c-0.5,0.3-1,1.8-1,3.2c0,1.4-0.4,3-0.9,3.5c-0.5,0.5-1.1,2.6-1.4,4.7c-2,15.1-5,22.1-6.9,16.1c-0.3-1-1-2.8-1.6-4.1
		c-2.3-5.5-3.5-8.3-4.6-11c-0.6-1.6-1.5-3.6-2-4.5c-0.5-0.9-0.8-2.5-0.8-3.5s-0.4-2.1-1-2.5c-0.5-0.3-1-1.5-1-2.7
		c-0.1-5.8-4.7-6.2-10.3-0.9c-0.7,0.7-2.2,1.7-3.2,2.2c-1.7,0.9-8.2,5.6-12.2,8.8c-0.8,0.6-3.1,2.4-5.2,4c-2.1,1.6-6.9,5.9-10.8,9.5
		c-7.5,7.1-9.6,8.6-10.5,7.7c-0.7-0.7,3.8-10.1,4.8-10.1c0.4,0,0.7-0.9,0.7-1.9c0-1.1,0.4-1.9,1-1.9c0.5,0,1-0.4,1-1
		c0-1.1,4.5-8.2,6.9-10.9c0.9-1,1.7-2.2,1.7-2.6c0-0.7,8.1-11.9,9.5-13.2c0.3-0.3,1.6-2,3-3.8c1.4-1.8,3.9-4.8,5.6-6.5
		c1.7-1.7,2.9-3.3,2.7-3.5c-1.4-1.3-7.9-4.3-9.4-4.3c-1,0-2.1-0.4-2.3-0.9c-0.7-1.1-6.1-2.1-15.3-2.6c-4.2-0.3-8.1-0.9-8.6-1.4
		c-1.4-1.4,3.3-4.6,6.9-4.6c1.7,0,3.3-0.5,3.6-1c0.3-0.5,2.4-1,4.6-1c2.2,0,5.5-0.4,7.3-1c1.8-0.5,11-1.1,20.4-1.2
		c12.1-0.1,17.4-0.5,18.3-1.4c2.7-2.7,20.1-11.8,22.5-11.8c1,0,1.8-0.4,1.8-1c0-0.5,1.3-1,2.8-1c1.5,0,3.1-0.4,3.4-1
		C288,185,292.3,185.4,292.3,187 M190.8,293.7c0.5,0.7,1.2,2.3,1.4,3.6c0.6,2.9,4.4,14.1,5.6,16.5c0.5,0.9,0.8,2.3,0.8,3.1
		c0,0.8,0.4,2.2,0.8,3.1c0.5,0.9,1.4,2.9,2,4.5c3.1,7.5,2.7,7.2,9,7.2c3.2,0,6.3-0.4,6.8-0.9c0.5-0.5,3.7-1,7.1-1.2
		c3.4-0.2,7-0.7,7.9-1.1c2.6-1.2,3.2,1.9,1.1,5.7c-1,1.8-2.1,3.3-2.5,3.3c-0.4,0-0.7,0.9-0.7,1.9c0,1.1-0.4,1.9-1,1.9s-1,0.6-1,1.4
		c0,0.8-1.1,3.3-2.4,5.7c-2.3,4.2-2.3,4.4-0.7,6c3.8,3.7,9.4,8.2,11.4,9.1c1.2,0.6,2.1,1.4,2.1,1.8c0,0.4,0.6,0.8,1.4,0.8
		c0.7,0,1.5,0.3,1.7,0.8c0.2,0.4,2.8,2,5.9,3.4c3,1.5,5.4,3.2,5.2,3.8c-0.9,2.7-18.3,1.7-29-1.7c-4.9-1.5-5.1-0.8-4.4,11.5
		c0.4,6.8,0.3,8-1,8c-3.3,0-15.5-14.5-19.8-23.4c-2-4.1-5.8-8.1-7.8-8.1c-1,0-1.7-0.4-1.7-1s-0.9-1-1.9-1s-1.9-0.4-1.9-1
		s-0.7-1-1.5-1c-0.8,0-3.8-1.5-6.7-3.3c-2.9-1.8-5.6-3.3-6-3.3c-0.4,0-1.5-0.8-2.4-1.8c-1.7-1.8,1.8-5.8,5.1-5.8
		c0.6,0,1.8-0.4,2.7-0.8c3.3-1.7,6.5-2.9,8.3-3.2c1.8-0.3,1.9-1,1.9-21.8c0-20.1,0.4-23.9,2.3-23.9
		C189.5,292.5,190.3,293.1,190.8,293.7 M332.2,358.3c0.3,5.6,4.1,8.1,5.8,3.8c0.2-0.4,1.1-0.8,2.1-0.8c1,0,2-0.4,2.4-1
		c0.3-0.5,1.4-1,2.4-1s1.9-0.4,1.9-1s0.5-1,1.1-1c0.6,0,2.4-1,4.1-2.3c3.4-2.6,7.3-4,7.3-2.7c0,1.6-5.6,8.6-9.1,11.3
		c-1.9,1.5-4.6,3.7-6,4.9c-1.4,1.2-2.9,2.1-3.3,2.1c-4.9,0-8.2,8.6-5.2,13.4c1.8,2.9-0.4,3.7-10,3.8c-4.9,0-8.4,0.4-8.4,1
		c0,0.5-0.9,1-1.9,1s-1.9,0.4-1.9,0.9c0,0.5-1.1,1.2-2.4,1.5c-1.3,0.3-2.4,1-2.4,1.5c0,0.5-0.8,0.9-1.9,0.9s-2.1,0.4-2.4,1
		c-0.3,0.5-1.6,1-2.9,1s-2.3,0.4-2.3,0.9c0,0.5-1.4,1.1-3.1,1.4c-1.7,0.3-5.2,0.9-7.7,1.4c-5.2,1-9.9-0.8-5.9-2.3
		c1.1-0.4,2.1-1,2.4-1.3c0.3-0.3,2.2-1.9,4.3-3.4c2.1-1.5,4.7-3.7,5.8-4.8l2-2l-2.4-1.1c-1.3-0.6-2.9-1.1-3.5-1.1
		c-1.8,0-9.1-3.8-9.1-4.8c0-0.5,0-1.3,0-1.6c0-0.4,3.1-1,6.9-1.3c8.5-0.7,17.6-2.4,20.8-4c2.7-1.3,15.3-13.5,15.3-14.8
		c0-1.5,4.8-6.1,6-5.7C331.5,352.2,332.1,354.7,332.2,358.3"/>
	<path id="path2" class="st2" d="M305.3,1.9c-0.4,0.4-4,1-8,1.3c-6.7,0.6-6.5,0.6,2.5,0.4c8.9-0.2,17.2-2.4,9.1-2.4
		C307.3,1.2,305.7,1.5,305.3,1.9 M329.2,2.1c0.7,0.7,4.8,1.3,10.5,1.4c9,0.3,9.1,0.3,2.7-0.5c-3.7-0.4-8.4-1.1-10.5-1.4
		C329,1.2,328.4,1.3,329.2,2.1 M281.8,5l-2.4,0.8l2.4,0.1c1.3,0,3-0.3,3.8-0.8C287.5,3.9,285.5,3.9,281.8,5 M354.4,5
		c0.8,0.5,2.5,0.9,3.8,0.8l2.4-0.1L358.2,5C354.5,3.9,352.6,3.9,354.4,5 M271.3,6.9c-1.3,0.8-1.3,0.9,0,0.9c0.8,0,2.1-0.4,2.9-0.9
		c1.3-0.8,1.3-0.9,0-0.9C273.4,6,272.1,6.4,271.3,6.9 M261.8,8.9c-1.3,0.4-4.5,1.4-7.2,2.2c-3.5,1.1-4.1,1.4-2.2,1.5
		c1.4,0,2.8-0.4,3.2-0.9c0.3-0.5,1.7-1,3.2-1c1.4,0,3.6-0.6,5-1.4C266.3,7.8,265.5,7.7,261.8,8.9 M381.1,10.5
		c1.3,0.2,2.8,0.8,3.3,1.3c0.5,0.5,2,0.9,3.3,0.8c2,0,1.8-0.3-1.4-1.4c-2.1-0.8-4.7-1.3-5.7-1.3C379.3,10,379.4,10.2,381.1,10.5
		 M246,13.6c-1.8,0.8-1.8,0.8,0.2,0.9c1.2,0,2.4-0.4,2.7-0.9C249.6,12.5,248.6,12.5,246,13.6 M391.2,13.6c0.3,0.5,1.5,0.9,2.7,0.9
		c2-0.1,2-0.1,0.2-0.9C391.4,12.5,390.5,12.5,391.2,13.6 M226.9,20.8c-2.6,1.3-4,2.3-3.2,2.3c0.9,0,1.9-0.4,2.2-0.9s1.3-1,2.2-1
		c0.9,0,2.4-0.7,3.5-1.4C234.3,17.8,232.4,18.2,226.9,20.8 M411.7,20.9c2.9,1.3,6,2.8,7,3.4c1,0.5,2,0.7,2.3,0.4
		c0.3-0.3-1.6-1.4-4.2-2.5c-2.6-1.1-5.4-2.4-6.3-2.9c-0.9-0.5-2.2-0.9-2.9-0.9C407,18.5,408.8,19.6,411.7,20.9 M209,29.2
		c-2,1.1-3.4,2.2-3.2,2.3c0.3,0.3,7.1-3.1,8.1-4.1C215,26.4,212.2,27.4,209,29.2 M197.8,35.6l-2.4,1.9l2.6-1.1
		c1.4-0.6,2.6-1.5,2.6-1.9C200.6,33.4,200.5,33.5,197.8,35.6 M192.2,38.9c-3.6,2-4.7,3.6-1.4,1.9c1.7-0.8,3.3-1.9,3.6-2.4
		C195.1,37.3,195,37.4,192.2,38.9 M445.5,38.3c0.3,0.5,1.9,1.6,3.5,2.4c1.6,0.8,2.6,1,2.3,0.5c-0.3-0.5-1.9-1.6-3.5-2.4
		C446.2,38,445.2,37.8,445.5,38.3 M178.1,48.5c-1.6,1.3-2.5,2.3-2,2.3c0.4,0,1.4-0.6,2.1-1.3c0.7-0.7,1.9-1.5,2.6-1.8
		c0.7-0.2,1-0.7,0.7-1C181.2,46.4,179.7,47.2,178.1,48.5 M458.5,47c0,0.6,0.4,1,0.9,1c0.5,0,1.6,0.7,2.4,1.5c0.9,0.9,1.8,1.3,2,1.1
		c0.3-0.3-0.8-1.4-2.4-2.6C459.8,46.9,458.5,46.4,458.5,47 M466.3,53c2.2,2.1,8.3,6.4,9,6.4c0.4,0-1.5-1.7-4.1-3.8
		C466.7,52.1,463.5,50.4,466.3,53 M167.2,57.3c-5.7,4.7-25.9,24.4-25.4,24.9c0.2,0.2,5-4.4,10.7-10c8.3-8.3,16-15.1,20.4-18.1
		c0.2-0.1,0.2-0.4,0-0.6C172.6,53.2,170.1,54.9,167.2,57.3 M487.6,72.1c6.4,6.4,11.7,11.6,12,11.4c0.5-0.3-22.1-23.1-22.9-23.1
		C476.3,60.4,481.2,65.7,487.6,72.1 M500.5,84.7c0,0.7,4.4,6.8,6.4,9c2.7,2.8,0.9-0.3-2.6-4.8C502.3,86.2,500.5,84.4,500.5,84.7
		 M137,87.4c-3.8,4.5-4.4,5.5-3.6,5.4c0.5,0,2-1.7,3.5-3.8C139.9,84.9,139.9,84,137,87.4 M127.1,100.3c-2.3,3.6-2.5,4-0.6,1.7
		c4.2-5,4.5-5.4,4-5.8C130.4,95.9,128.8,97.7,127.1,100.3 M510.9,98.6c0.9,1.6,2,2.9,2.4,2.9c0.4,0-0.1-1.3-1.3-2.9
		C509.4,95,508.8,95,510.9,98.6 M518.9,110.1c1.6,2.6,3.2,4.6,3.4,4.4c0.4-0.4-5.3-9.2-6-9.2C516.1,105.3,517.2,107.5,518.9,110.1
		 M120.7,109.3c-2.5,3.9-3.2,5.8-1.8,4.6c0.8-0.7,1.4-1.8,1.4-2.4c0-0.7,0.5-1.4,1.2-1.7c0.7-0.2,0.9-0.7,0.6-1.1
		C121.8,108.4,121.2,108.6,120.7,109.3 M353.9,113.9c-0.4,0.6-0.5,1.2-0.3,1.3c3.2,2.1,5.8,3.5,6.7,3.4c0.7,0-0.2-0.7-1.9-1.6
		c-4.2-2.1-4-3.5,0.5-2.8c2,0.3,6.4,1,9.8,1.5c3.4,0.5,7.3,1.2,8.6,1.5c2,0.5,2.1,0.4,0.7-0.5c-1.5-1-5.1-1.6-19.4-3.5
		C356.1,113,354.4,113.2,353.9,113.9 M385.9,118.7c0.8,0.5,2.1,0.9,2.9,0.9c1.3,0,1.3-0.1,0-0.9c-0.8-0.5-2.1-0.9-2.9-0.9
		C384.6,117.8,384.6,117.9,385.9,118.7 M395,120.6c2.6,1.1,3.6,1.1,2.9,0c-0.3-0.5-1.5-0.9-2.7-0.9
		C393.2,119.8,393.2,119.8,395,120.6 M399.4,121.9c1.1,0.9,6.6,1.5,6.1,0.6c-0.3-0.5-1.9-0.9-3.6-0.9
		C400.3,121.6,399.2,121.7,399.4,121.9 M408.8,124.2c1.3,0.2,2.8,0.8,3.3,1.3c0.5,0.5,1.8,0.9,2.9,0.8c1.4,0,1.1-0.4-1.3-1.4
		c-1.8-0.8-4.1-1.3-5.3-1.3C406.8,123.7,406.8,123.8,408.8,124.2 M109.1,129.3c-1.2,2.2-2,4.1-1.8,4.3c0.2,0.2,1.3-1.4,2.4-3.6
		c1.2-2.2,2-4.1,1.8-4.3C111.3,125.6,110.2,127.2,109.1,129.3 M381.1,129.1c2.3,1.9,3.8,2.5,3.8,1.5c0-0.2-1.4-1.1-3.1-2l-3.1-1.5
		L381.1,129.1 M436,134.5c2.6,1.3,4.9,2.2,5.1,2c0.5-0.5-7.3-4.4-8.8-4.4C431.7,132.1,433.4,133.1,436,134.5 M388.8,133.4
		c0,0.3,1.9,1.8,4.3,3.4c2.4,1.6,4.3,2.7,4.3,2.5s-1.9-1.8-4.3-3.4S388.8,133.1,388.8,133.4 M471.4,135.8c-1.6,0.6-1.3,0.8,1.7,1.2
		c2.3,0.3,3.5,0.1,3.3-0.6C475.9,135.1,473.8,134.9,471.4,135.8 M454.2,137.8c-0.4,0.6,0.6,0.7,2.6,0.3c4.2-0.8,4.6-1.3,1-1.3
		C456.1,136.8,454.5,137.3,454.2,137.8 M535,138.5c0,0.7,0.4,2,0.9,2.9s1.8,3.8,2.9,6.3c1.1,2.6,2.1,4.5,2.4,4.2
		c0.4-0.4-0.4-2.3-4.5-11.3C535.7,138.8,535,137.9,535,138.5 M401.2,141.9c0,0.9,4.9,5.7,5.3,5.2c0.2-0.2-0.9-1.6-2.5-3.1
		C402.5,142.5,401.2,141.5,401.2,141.9 M100.5,147.5c-2.2,4.8-2.5,7.7-0.4,3.2c0.6-1.3,1.6-3.5,2.2-4.8c0.6-1.3,0.9-2.6,0.7-2.8
		C102.9,142.9,101.7,144.9,100.5,147.5 M471.4,146.2c-1.6,1.9-4.5,4.7-6.6,6.1c-2,1.5-3.4,2.7-3,2.7c2,0,12.8-9.8,12.9-11.7
		C474.8,142.2,474.5,142.4,471.4,146.2 M396,148.3c-0.7,1.1,0.2,1.1,2.9,0c1.8-0.8,1.8-0.8-0.2-0.9
		C397.5,147.4,396.3,147.8,396,148.3 M386.4,150.2c-0.4,0.6,0.6,0.7,2.6,0.3c4.2-0.8,4.6-1.3,1-1.3
		C388.3,149.3,386.7,149.7,386.4,150.2 M377.8,152.1c-0.3,0.5-1.7,1-3.2,1c-1.4,0-3.6,0.7-5,1.5c-1.6,1-1.7,1.2-0.5,0.8
		c1.1-0.4,3.4-1,5.3-1.4c1.8-0.4,4.8-1.2,6.7-1.7l3.3-0.9l-3-0.1C379.8,151.2,378.1,151.6,377.8,152.1 M348.2,161.2
		c-5.8,2.3-7.6,3.3-6.4,3.3c0.7,0,2-0.3,2.9-0.8c0.9-0.5,3.4-1.5,5.5-2.3c2.1-0.8,3.2-1.4,2.4-1.4
		C351.7,160,349.8,160.5,348.2,161.2 M545.5,165.3c0,1.2,0.3,2.9,0.8,3.8c0.5,0.9,1.4,3.5,2.1,5.7c0.7,2.2,1.4,3.9,1.6,3.7
		c0.2-0.2-0.1-1.8-0.6-3.6c-0.6-1.7-1.7-5.1-2.4-7.5C546,164.7,545.5,163.9,545.5,165.3 M93.8,165.2c-0.1,0.6-0.4,1.9-0.7,2.9
		c-0.5,1.4-0.4,1.5,0.6,0.7c0.7-0.6,1-1.9,0.7-2.9C94.1,164.9,93.8,164.6,93.8,165.2 M393.1,167.2c5.8,0.2,10.1,0.6,9.5,1
		c-1.8,1.2-5.4,6.9-4.3,6.9c0.6,0,1-0.4,1-0.9c0-0.5,1.1-2.1,2.4-3.7c3.2-3.8,2.6-4.1-9-3.8l-10.1,0.2L393.1,167.2 M364.4,168.4
		l-3.8,0.7l4.8,0.1c2.6,0.1,5.4-0.3,6.2-0.8C373.3,167.3,370.6,167.3,364.4,168.4 M327.7,169.9c-6.1,3.3-0.4,4.7,10,2.5l4.8-1
		l-4.8,0.5c-2.6,0.3-6.4,0.7-8.4,1c-2.3,0.3-3.6,0.1-3.6-0.6c0-0.6,0.5-1.1,1.2-1.1c0.7,0,2-0.7,3-1.4
		C332.3,168,330.9,168.1,327.7,169.9 M346.8,170.3c-1.9,0.6-2,0.8-0.5,0.8c1.1,0,2.8-0.3,3.8-0.8C352.5,169.2,350,169.2,346.8,170.3
		 M91,174.7c-0.7,2.6-1.6,6-2.1,7.6c-0.5,1.6-0.9,3.8-0.8,4.8c0.1,1.7,1.3-1.9,2.4-7.2c0.3-1.3,0.9-3.3,1.5-4.4
		c0.5-1.1,0.8-2.8,0.6-3.7C92.4,170.8,91.7,172.1,91,174.7 M428.5,174.6c-1,0.8-1.4,1.4-0.8,1.4c0.6,0,1.3-0.4,1.7-1
		c1-1.5,4.1-1.1,5.2,0.7c0.5,0.9,1,1.2,1,0.7C435.6,173.4,431.5,172.3,428.5,174.6 M413.3,182c-2,1.1-3.1,2.2-2.4,2.4
		c0.7,0.2,1.4-0.1,1.6-0.7c0.2-0.6,0.9-1.1,1.5-1.1c0.6,0,2-0.6,3-1.4C419.7,179.2,417.5,179.7,413.3,182 M386.5,187.8
		c-2.7,3.4-3.3,4.5-1.4,2.5c6-6.3,7.9-8.6,7-8.5C391.6,181.8,389.1,184.5,386.5,187.8 M291.5,187.2c-0.1,1.2-0.5,2.4-1.1,2.7
		s-1,1.1-1,1.7s0.7,0.1,1.5-1c0.8-1.2,1.3-2.9,1.1-3.8C291.7,185.5,291.6,185.6,291.5,187.2 M458.2,190.7c-0.4,2-0.5,3.9-0.2,4.2
		c0.7,0.7,1.8-4.1,1.3-6.1C459,187.7,458.6,188.4,458.2,190.7 M394.7,191.4c-3.3,1.6-5.9,3.1-5.7,3.3c0.4,0.4,12.2-5.3,12.2-5.9
		C401.2,188.2,401.4,188.2,394.7,191.4 M439.5,190.3c0,1.3,0.3,3,0.8,3.8c1.2,1.8,1.2-0.1,0-3.8l-0.8-2.4L439.5,190.3 M272.9,191.4
		c-2,1-3.5,2-3.3,2.3c0.2,0.2,2.5-0.6,5.1-1.9c2.6-1.3,4.1-2.3,3.3-2.3C277.2,189.6,274.9,190.4,272.9,191.4 M552.2,191
		c0,1.2,0.4,2.4,0.9,2.7c1.1,0.7,1.1-0.2,0-2.9C552.3,189,552.2,189,552.2,191 M442,202.3c0.3,3.7,0.8,12.6,1.1,19.7
		c0.3,7.2,1,13.4,1.4,13.8c0.8,0.8,4.4-3.2,4.4-4.9c0-0.5-0.8,0.3-1.8,1.9c-2.5,3.7-2.7,2.9-3.3-12.9c-0.3-7.1-0.9-15.5-1.4-18.6
		l-0.9-5.7L442,202.3 M376.8,199.1c-1,1.5,0.4,2.1,2.7,1.1l2.1-0.9l-2.1-0.6C378.3,198.4,377.1,198.6,376.8,199.1 M554,201.4
		c0,1.5,0.5,3.4,1,4.2c0.7,1,0.8,0.3,0.3-2.4C554.6,198.5,554,197.7,554,201.4 M85.2,200.8c-0.1,0.8-0.4,2.5-0.7,3.8
		c-0.5,2.1-0.4,2.2,0.6,0.7c0.6-0.9,0.9-2.7,0.7-3.8C85.5,200.4,85.2,200.1,85.2,200.8 M456.7,202.4c-0.1,1.1-0.4,2.9-0.8,3.8
		c-0.5,1.3-0.3,1.5,0.6,0.7c0.6-0.6,1-2.3,0.8-3.8C457,201.2,456.8,201,456.7,202.4 M240.5,202.5c1.2,0.2,3.1,0.2,4.3,0
		c1.2-0.2,0.2-0.4-2.1-0.4S239.3,202.2,240.5,202.5 M217.8,203.8c-1.5,0.5-0.4,0.6,3.3,0.3c3.2-0.3,5.9-0.7,6.1-0.9
		C228.1,202.4,220.2,203,217.8,203.8 M282.8,203.4c0,1.3,3.7,3.6,4.5,2.8c0.3-0.3-0.3-0.8-1.3-1.2c-1-0.4-2.1-1.1-2.5-1.7
		C283,202.6,282.8,202.6,282.8,203.4 M196.9,208.4c-3.7,2.8-1.8,4,6.4,3.7l7.3-0.2l-6.7-0.3c-8-0.4-9.3-1.3-5.1-3.4
		c1.7-0.9,2.5-1.6,1.7-1.6C199.8,206.6,198.2,207.4,196.9,208.4 M293.3,207.5c3.7,1.2,5.6,1.2,3.8,0c-0.8-0.5-2.5-0.9-3.8-0.8
		l-2.4,0.1L293.3,207.5 M556.5,218.9c0.2,6.8,0.7,11.3,1.4,11.9c0.9,0.8,1,0.2,0.5-2.7c-0.4-2.1-1-7.5-1.4-11.9
		C556.2,208.1,556.2,208.1,556.5,218.9 M301.4,209.5c1.6,0.4,4.4,1.2,6.2,1.7c1.8,0.5,4.2,1.2,5.3,1.6c1.3,0.4,1.1,0.2-0.5-0.8
		c-1.3-0.8-3.3-1.5-4.5-1.5c-1.2,0-2.4-0.5-2.7-1c-0.3-0.5-2-0.9-3.6-0.9l-3,0.1L301.4,209.5 M454.8,211c-0.1,1.1-0.4,2.9-0.8,3.8
		c-0.5,1.3-0.3,1.5,0.6,0.7c0.6-0.6,1-2.3,0.8-3.8C455.1,209.8,454.9,209.6,454.8,211 M212.1,213.2c0.8,0.5,2.5,0.9,3.7,1
		c3.1,0,2.3-0.5-1.8-1.3C211.6,212.5,211.1,212.6,212.1,213.2 M82.9,218.5c-0.3,3.2-0.9,7.4-1.3,9.4c-0.5,2.5-0.3,3.5,0.4,3.1
		c1.4-0.8,2.3-7.6,1.9-13.5l-0.3-4.8L82.9,218.5 M322.1,215.6c0.7,0.7,7.5,3.4,7.5,3c0-0.6-5.8-3.4-7-3.4
		C322,215.2,321.8,215.4,322.1,215.6 M452.6,219c-0.3,1.3-0.9,3.5-1.2,4.8c-0.4,1.5,0,1.1,0.9-0.9c0.8-1.8,1.4-4,1.2-4.8
		C453.3,217.2,452.9,217.5,452.6,219 M332.4,220.3c1.3,0.7,3.4,1.8,4.5,2.4c3.5,1.9,2.5,0.5-1.2-1.7c-1.9-1.1-3.9-2-4.5-2
		C330.6,219,331.1,219.6,332.4,220.3 M227.4,224.9c-4.4,4.9-7.1,8.5-6.5,8.5c0.7,0,11.4-12.5,11.1-12.9
		C231.8,220.3,229.8,222.3,227.4,224.9 M341.4,225.5c0.9,1,1.3,2,0.9,2.4c-0.4,0.4-0.2,0.6,0.4,0.6c2,0,2-1.6,0.2-3.2
		C340.4,223.2,339.4,223.3,341.4,225.5 M294,226.4c3.3,0.2,8.7,0.2,11.9,0c3.3-0.2,0.6-0.3-6-0.3S290.7,226.2,294,226.4
		 M275.8,227.7c-2.4,0.9-6.4,6.9-5.3,8c0.2,0.2,1-1,1.7-2.8c0.9-2.3,2.3-3.7,4.7-4.7C280.8,226.6,279.9,226.3,275.8,227.7
		 M331.5,227.5c2.4,0.8,8.3,1.3,7.6,0.6c-0.2-0.2-2.5-0.6-5.2-0.9C330.6,226.9,329.9,227,331.5,227.5 M214.7,240.6
		c-2.5,3.5-4.4,6.4-4.3,6.6c0.2,0.2,2.5-2.7,5.2-6.3c2.7-3.7,4.6-6.6,4.3-6.6C219.5,234.3,217.2,237.2,214.7,240.6 M240.3,240
		c-1.6,1-2.5,1.9-2.1,1.9c0.4,0,1.8-0.7,3.1-1.6c2.2-1.5,2.5-1.5,3.8,0.2c0.8,1,1.4,1.4,1.4,0.8C246.5,238.2,243.9,237.6,240.3,240
		 M233.1,244.6c-4.9,3.3-12.4,9-12.4,9.4c0,0.2,2-1,4.4-2.7c2.4-1.7,6.2-4.3,8.4-5.8c2.2-1.4,3.5-2.6,3-2.6
		C235.9,243,234.4,243.7,233.1,244.6 M81.7,251.9c0.3,2.1,1,6.4,1.5,9.6c0.8,5.5,0.8,5.4,0.6-2.6c-0.1-5.3-0.7-8.8-1.5-9.6
		C81.3,248.3,81.1,248.8,81.7,251.9 M557.3,249.6c-0.3,0.5-0.7,5.8-0.9,11.7l-0.3,10.7l0.8-8.1c0.4-4.5,1.1-9.7,1.4-11.7
		C559,248.7,558.6,247.6,557.3,249.6 M204.2,255.9c-3.6,5.9-2.9,6.1,1,0.2c1.7-2.6,2.8-4.7,2.4-4.7
		C207.2,251.5,205.6,253.5,204.2,255.9 M250.3,255.1c0,0.7,0.4,2,0.8,2.9c0.5,0.9,1.3,2.9,1.9,4.4c0.6,1.5,1.3,2.5,1.6,2.2
		c0.3-0.3,0.1-1.3-0.4-2.3s-1.6-3.3-2.4-5.1C251,255.4,250.3,254.4,250.3,255.1 M263.3,257.7c-0.4,2.1-0.9,5.5-1.1,7.6
		s-0.2,2.7,0.1,1.4c0.2-1.3,0.9-3.9,1.5-5.8s0.9-4.2,0.6-5.3C264.2,254.5,263.8,255.3,263.3,257.7 M214.5,258.7l-2.9,2.5l3.1-2.1
		c1.7-1.1,3.1-2.2,3.1-2.5C217.8,255.9,217.4,256.2,214.5,258.7 M202,269.6c-5.1,5.1-6.2,5.7-6.3,3.1c-0.1-1.3-0.3-1.2-1.1,0.5
		c-1.2,2.5-0.5,3.6,1.5,2.5c2.1-1.2,11.3-10,10.9-10.4C206.9,265,204.6,267,202,269.6 M260.9,270.7c-0.1,1.9-2.7,3.1-3.3,1.5
		c-0.3-0.8-0.5-0.8-0.5,0.1c-0.1,1.6,2.7,2.6,3.9,1.4c0.5-0.5,0.8-1.8,0.5-2.8C261.1,269.5,261,269.5,260.9,270.7 M84.2,274.4
		c0,0.8,0.4,2.5,0.8,3.8l0.8,2.4l0.1-2.4c0-1.3-0.3-3-0.8-3.8C84.2,273.1,84.1,273.1,84.2,274.4 M554.6,274.9
		c-0.3,0.9-0.5,2.9-0.5,4.6c0.1,2.6,0.2,2.5,0.9-1.2C555.9,273.9,555.7,272.1,554.6,274.9 M552.8,286.5c-0.3,0.4-0.6,1.5-0.6,2.6
		c0.1,1.8,0.1,1.8,1-0.3C554.1,286.5,553.9,285.3,552.8,286.5 M87.9,293.6c0,1.3,0.4,3,1,3.7c0.7,1,0.8,0.4,0.3-1.9
		C88.5,291.3,87.9,290.5,87.9,293.6 M187.9,293.2c-1.3,1.3-0.6,2,1.3,1.6c1.4-0.4,1.9,0,2,1.3c0,1.1,0.3,1.3,0.6,0.6
		C192.6,294.4,189.4,291.6,187.9,293.2 M90,300.7c-0.1,1.1,0.5,3.6,1.3,5.7c1.1,3.2,1.4,3.4,1.4,1.4c0-1.3-0.4-2.8-0.8-3.3
		c-0.5-0.5-1.1-2-1.3-3.3C90.2,299.4,90.1,299.2,90,300.7 M186.7,311.2c0,5.8,0.2,8,0.3,5c0.2-3,0.2-7.8,0-10.5
		C186.8,302.9,186.7,305.4,186.7,311.2 M548.4,305.2c-0.7,2.2-1.6,5.1-2.1,6.3c-0.5,1.2-0.8,2.9-0.8,3.8c0,0.9,0.7-0.3,1.4-2.7
		c0.8-2.4,1.9-5.7,2.4-7.5c0.6-1.7,0.9-3.4,0.6-3.6C549.7,301.3,549,302.9,548.4,305.2 M194,305.6c0,1.2,0.4,2.4,0.9,2.7
		c0.5,0.3,1,1.5,1.1,2.7c0.1,1.3,0.3,1.5,0.5,0.6c0.2-0.8-0.2-3-1-4.8C194.3,304.2,194,304,194,305.6 M98.5,327.5
		c0,0.6,1,3.1,2.3,5.7c1.3,2.6,2.4,4.3,2.4,3.7c0-0.6-1-3.1-2.3-5.7S98.5,326.9,98.5,327.5 M231.2,328.9c-1.2,0.9-1.2,0.9,0.3,0.5
		c2-0.7,3.5,2.1,1.7,3.2c-0.7,0.4-1,1.3-0.8,1.9c0.2,0.6,1,0.1,1.7-1.3C236,329.4,234.3,326.7,231.2,328.9 M539.8,329.6
		c-0.6,1.1-1,2.5-1,3.2c0,0.7,0.7,0,1.4-1.5s1.3-3,1-3.2C541,327.9,540.3,328.6,539.8,329.6 M187.2,333.8c-0.2,2.5-0.1,4.5,0.2,4.5
		c1.2,0,1.6-2.6,0.9-5.8C187.6,329.3,187.6,329.3,187.2,333.8 M217.3,330.7c-0.7,1.1,0.9,1.1,4.3,0c2.3-0.7,2.3-0.8-0.7-0.9
		C219.3,329.8,217.7,330.2,217.3,330.7 M206.6,332.4c1.4,0.2,3.8,0.2,5.3,0c1.4-0.2,0.3-0.4-2.6-0.4
		C206.3,332,205.1,332.2,206.6,332.4 M536.4,337.6c-1.4,2.8-2,5.5-1.1,4.5c0.7-0.7,3.4-7.5,3-7.5
		C538.1,334.6,537.3,335.9,536.4,337.6 M170.6,343.7c-2.4,1.8-1.5,1.8,2,0c1.5-0.8,2.1-1.4,1.3-1.4
		C173.1,342.3,171.6,342.9,170.6,343.7 M225.2,347.5l-2.7,5.4l4,3.7c2.2,2,4.4,3.7,4.9,3.7c0.5,0-0.7-1.3-2.8-2.9
		c-5.2-4.1-5.3-4.5-2.7-9.3c1.3-2.3,2.2-4.6,2.1-5.1C227.9,342.5,226.6,344.5,225.2,347.5 M528.4,353.8c-1.2,2.2-2,4.1-1.8,4.3
		c0.2,0.2,1.3-1.4,2.4-3.6c1.2-2.2,2-4.1,1.8-4.3C530.6,350,529.5,351.6,528.4,353.8 M175.8,352.1c0,0.7,6.7,4.4,7.9,4.4
		c0.6,0-0.7-1.1-3-2.4C176.5,351.7,175.8,351.4,175.8,352.1 M327.2,354.2c-1.3,1.4-2.4,3.1-2.4,3.7c0,1.2,2.8-2.2,2.8-3.4
		c0-3.3,3.8-0.3,4.1,3.3c0.4,3.7,0.4,3.7,0.3-0.6C331.9,351.5,330.5,350.6,327.2,354.2 M355.7,352.7c-1.1,0.5-2.4,1.3-2.7,1.9
		c-0.5,0.8-0.2,0.9,1.3,0.1c5.1-2.7,3.9,0-2.9,6.8c-3.3,3.3-4.7,5-3.1,3.9c5.9-4.2,13.2-13.8,10.3-13.6
		C358.1,351.8,356.8,352.2,355.7,352.7 M233.1,361.8c0,0.2,1.3,1.3,2.9,2.4c1.6,1.1,2.9,1.7,2.9,1.3c0-0.4-1.3-1.5-2.9-2.4
		C234.4,362.1,233.1,361.6,233.1,361.8 M316.2,367c-2.2,2.1-3.6,3.8-3.1,3.8c0.5,0,2.5-1.7,4.6-3.8c2.1-2.1,3.5-3.8,3.1-3.8
		C320.4,363.2,318.4,364.9,316.2,367 M118.9,367.8c0.8,1.6,1.9,3.2,2.4,3.5c0.5,0.3,0.3-0.7-0.5-2.3c-0.8-1.6-1.9-3.1-2.4-3.5
		C117.8,365.2,118,366.2,118.9,367.8 M518.4,370.5c-3.6,5.9-2.9,6.1,1,0.2c1.7-2.6,2.8-4.7,2.4-4.7
		C521.4,366.1,519.9,368.1,518.4,370.5 M244.1,369.3c1.1,0.8,2.3,1.5,2.9,1.6c0.5,0,2,0.9,3.3,2l2.4,1.9l-9.6-0.5
		c-5.3-0.3-11.5-0.7-13.8-1l-4.3-0.4l4.8,1.1c6.7,1.5,22.6,1.5,23.1,0.1c0.2-0.6-1.7-2.1-4.2-3.3
		C242.4,367.7,241.9,367.5,244.1,369.3 M199.7,370.2c0,1.2,7.1,11.3,10.4,14.9c1.6,1.8,3,2.8,3,2.3c0-0.5-1.1-1.9-2.5-3.2
		c-1.4-1.3-4.4-5.1-6.7-8.5C201.6,372.2,199.7,369.8,199.7,370.2 M218.4,372.4c-0.8,2-0.6,7.7,0.3,12.3c0.6,2.9,0.7,1.8,0.7-5
		C219.3,370.1,219.3,370.1,218.4,372.4 M309,372.8c-0.3,0.5-1.7,1-3.2,1.1c-2.2,0.1-2.2,0.2-0.5,0.5c1.2,0.2,3.3-0.2,4.8-1
		c1.8-1,2.1-1.5,1.1-1.5C310.3,371.8,309.4,372.2,309,372.8 M296.6,375.6c-1.2,0.5-1.4,0.8-0.5,0.8c0.8,0,2.3-0.4,3.3-0.8
		c1.2-0.5,1.4-0.8,0.5-0.8C299.2,374.8,297.7,375.2,296.6,375.6 M281.4,377.4c-0.3,0.4,0.1,1.6,0.9,2.6c1.3,1.7,1.3,1.7,0.8-0.3
		c-0.4-1.7,0-2.1,2.2-2.5c2.7-0.4,2.7-0.4-0.3-0.5C283.3,376.7,281.7,377,281.4,377.4 M128.1,381.4c1.1,1.6,2.3,2.7,2.6,2.4
		c0.3-0.3-0.2-1.2-1.1-2c-0.9-0.9-1.5-1.9-1.5-2.4c0-0.5-0.5-0.9-1-0.9C126.5,378.5,126.9,379.8,128.1,381.4 M511,381.4
		c-1.1,1.6-1.8,2.9-1.6,2.9s1.4-1.3,2.5-2.9c1.1-1.6,1.8-2.9,1.6-2.9C513.3,378.5,512.2,379.8,511,381.4 M286.9,382.8
		c1.5,0.8,3.3,1.4,4,1.4c0.7,0,2.3,0.6,3.6,1.2l2.4,1.2l-2,1.6c-1.1,0.9-1.6,1.6-1,1.6c0.6,0,1.7-0.8,2.6-1.8c1.8-1.9-2-4.9-6.2-4.9
		c-0.9,0-2-0.4-2.3-1c-0.3-0.5-1.3-1-2.2-0.9C284.8,381.4,285.2,381.9,286.9,382.8 M334.1,385.2c-0.4,1.7-1.4,1.9-8,2.1l-7.5,0.2
		l6.7,0.3c7.8,0.4,11-0.2,11-2.1C336.3,383.5,334.6,383.1,334.1,385.2 M131.9,385.8c0,1.2,3.7,5.5,4.3,5c0.2-0.2-0.6-1.6-1.9-3.1
		C132.9,386.1,131.9,385.3,131.9,385.8 M504.1,390c-2,2.5-3.6,4.9-3.6,5.3c0,0.4,1.8-1.5,3.9-4.3c2.2-2.7,3.8-5.1,3.6-5.3
		C507.9,385.5,506.1,387.5,504.1,390 M218.8,389.9c0,0.5-0.7,0.7-1.6,0.3c-1.1-0.4-1.4-0.2-0.9,0.5c1,1.6,3.4,1.4,3.4-0.3
		c0-0.8-0.2-1.4-0.5-1.4C219,389,218.8,389.4,218.8,389.9 M289,393.4l-2.9,2.5l3.1-2.1c1.7-1.1,3.1-2.2,3.1-2.5
		C292.3,390.6,291.9,390.9,289,393.4 M308.6,392.6c-1.8,0.9-2.7,1.8-2,2c0.7,0.2,1.5,0,1.8-0.5c0.3-0.5,1.7-1.4,3-2
		c1.3-0.6,2-1.1,1.4-1.1C312.3,391,310.4,391.7,308.6,392.6 M487.6,407.9c-6.4,6.4-11.3,11.7-11,11.7c0.8,0,23.5-22.8,22.9-23.1
		C499.3,396.3,493.9,401.4,487.6,407.9 M151.9,408.6c6,6,11.2,11,11.6,11s-4.3-4.9-10.4-11c-6.1-6-11.3-11-11.6-11
		C141.2,397.6,145.9,402.5,151.9,408.6 M469.6,424.4c-2.6,2.1-4.3,3.8-4,3.8s2.9-1.7,5.5-3.8s4.4-3.8,4-3.8
		C474.7,420.6,472.2,422.3,469.6,424.4 M169.1,423.8c0,0.9,4,4.3,5.1,4.3c0.8,0-0.5-1.4-3.4-3.7
		C169.9,423.7,169.1,423.5,169.1,423.8 M175.8,429.6c0,0.2,1.3,1.3,2.9,2.4c1.6,1.1,2.9,1.7,2.9,1.3c0-0.4-1.3-1.5-2.9-2.4
		C177.1,429.9,175.8,429.4,175.8,429.6 M460.9,431.6l-2.9,2.5l3.1-2.1c1.7-1.1,3.1-2.2,3.1-2.5C464.2,428.8,463.8,429.1,460.9,431.6
		 M188.7,438.7c0.6,1,6.2,4.1,6.2,3.5c0-0.2-1.5-1.3-3.4-2.4C189.6,438.6,188.4,438.1,188.7,438.7 M448.7,439.5
		c-1.4,0.9-2.6,1.9-2.6,2.4c0,0.4,1.3-0.1,2.9-1.3C453.2,437.6,453.1,436.9,448.7,439.5 M433.4,448.5c-2,1.1-3.4,2.2-3.2,2.3
		c0.3,0.3,7.1-3.1,8.1-4.1C439.4,445.7,436.6,446.7,433.4,448.5 M226.8,459.3c2.6,1.3,4.9,2.1,5.1,1.9c0.5-0.5-7.4-4.4-8.8-4.3
		C222.6,456.9,224.2,458,226.8,459.3 M409.3,460.1c-2.4,1.8-1.4,1.8,2.1,0c1.5-0.8,2.1-1.4,1.2-1.4
		C411.8,458.7,410.3,459.4,409.3,460.1 M247.4,466.9c2.4,0.8,5.7,1.9,7.5,2.4c1.7,0.6,3.4,0.9,3.6,0.6c0.2-0.2-1.4-1-3.7-1.6
		c-2.2-0.7-4.8-1.6-5.7-2.1c-0.9-0.5-2.6-0.8-3.8-0.8C243.9,465.5,244.7,466,247.4,466.9 M391.2,466.3c-1.1,0.4-3.7,1.3-6,2
		c-2.2,0.7-3.9,1.4-3.7,1.6c0.2,0.2,1.8-0.1,3.6-0.6c1.7-0.6,5.1-1.7,7.5-2.4c2.4-0.8,3.4-1.4,2.4-1.4
		C393.9,465.5,392.2,465.9,391.2,466.3 M366.3,473.1c-0.7,1.1,0.2,1.1,2.9,0c1.8-0.8,1.8-0.8-0.2-0.9
		C367.9,472.1,366.7,472.5,366.3,473.1 M279,474.4c0.2,0.2,2.1,0.6,4.2,1c2.7,0.5,3.4,0.4,2.4-0.3
		C284.3,474.1,278.1,473.5,279,474.4 M354.4,475c-1,0.7-0.1,0.8,2.9,0.3c5.4-0.8,6.1-1.3,1.8-1.3C357.3,474,355.2,474.5,354.4,475
		 M297.1,476.9c3.9,0.4,8.9,1.1,11,1.4c3.1,0.5,3.6,0.4,2.7-0.6c-0.7-0.8-4.6-1.3-11-1.4C289.9,476.1,289.9,476.1,297.1,476.9
		 M332.9,476.6c-1.6,0.2-3.3,0.9-3.8,1.4c-0.7,0.7,0.2,0.8,2.9,0.3c2.1-0.4,7-1,11-1.4l7.2-0.7l-7.2,0
		C339,476.2,334.5,476.4,332.9,476.6"/>
	<path id="path3" class="st3" d="M298,2.2c-1.1,0.7-0.6,0.9,1.9,0.9c1.8,0,4-0.4,4.8-0.9c1.1-0.7,0.6-0.9-1.9-0.9
		C301,1.2,298.8,1.7,298,2.2 M335.3,2.2c0.8,0.5,2.9,0.9,4.8,0.9c2.5,0,3-0.2,1.9-0.9c-0.8-0.5-2.9-0.9-4.8-0.9
		C334.7,1.2,334.2,1.5,335.3,2.2 M285.9,3.8c0.9,0.2,2.4,0.2,3.3,0c0.9-0.2,0.2-0.4-1.7-0.4C285.7,3.3,285,3.5,285.9,3.8 M350.8,3.8
		c0.9,0.2,2.4,0.2,3.3,0c0.9-0.2,0.2-0.4-1.7-0.4C350.7,3.3,349.9,3.5,350.8,3.8 M275.4,5.7c0.9,0.2,2.4,0.2,3.3,0
		c0.9-0.2,0.2-0.4-1.7-0.4S274.4,5.5,275.4,5.7 M361.3,5.7c0.9,0.2,2.4,0.2,3.3,0c0.9-0.2,0.2-0.4-1.7-0.4S360.4,5.5,361.3,5.7
		 M268.4,6.9c-2,0.6-2.1,0.8-0.5,0.8c1.1,0,2.6-0.3,3.3-0.8C273,5.9,271.8,5.9,268.4,6.9 M368.7,6.9c0.8,0.5,2.3,1,3.3,1
		c2.4,0,1.7-0.5-1.8-1.3C368.1,6.1,367.7,6.2,368.7,6.9 M239.3,15.1c-3.9,1.8-1.6,1.8,2.5,0c1.8-0.8,2.6-1.4,1.8-1.4
		C242.8,13.8,240.9,14.4,239.3,15.1 M218.8,23.7c-1.3,0.8-2,1.4-1.4,1.4c0.5,0,2-0.6,3.3-1.4c1.3-0.8,2-1.4,1.4-1.4
		C221.6,22.3,220.1,22.9,218.8,23.7 M441.8,35.1c2.1,1.8,8.2,5,6.7,3.6c-0.5-0.5-2.7-1.9-4.8-3.1C441.6,34.5,440.7,34.2,441.8,35.1
		 M193.5,37.5c-1.6,1-2.4,1.9-1.9,1.9c1,0,6.2-3.7,5.3-3.8C196.5,35.6,195,36.5,193.5,37.5 M186.8,41.9l-2.9,2.5l3.1-2.1
		c1.7-1.1,3.1-2.2,3.1-2.5C190.1,39.1,189.7,39.4,186.8,41.9 M449.9,39.8c0,0.3,1.9,1.8,4.3,3.4c2.4,1.6,4.3,2.7,4.3,2.5
		s-1.9-1.8-4.3-3.4C451.9,40.7,449.9,39.5,449.9,39.8 M169.3,54.7c-3.3,2.7-6,5-6,5.3c0,0.3,2.8-1.8,6.2-4.5c5.6-4.5,6.8-5.6,6-5.6
		C175.4,49.9,172.6,52.1,169.3,54.7 M488.1,71.4c5,5,9.3,9.1,9.5,9.1c0.3,0-3.6-4.1-8.6-9.1c-5-5-9.3-9.1-9.5-9.1
		S483.2,66.4,488.1,71.4 M151,71.4c-3.9,3.9-6.9,7.2-6.6,7.2s3.7-3.2,7.6-7.2c3.9-3.9,6.9-7.2,6.6-7.2
		C158.3,64.3,154.9,67.5,151,71.4 M131.9,92.9c-1.1,1.6-1.8,2.9-1.6,2.9s1.4-1.3,2.5-2.9s1.8-2.9,1.6-2.9S133,91.3,131.9,92.9
		 M125.5,101.3c-2.8,3.9-3.7,5.9-1.4,3.1c2.2-2.5,4.2-5.7,3.6-5.7C127.6,98.6,126.6,99.8,125.5,101.3 M515.8,104.4
		c1.1,1.6,2.3,2.9,2.5,2.9c0.3,0-0.4-1.3-1.6-2.9c-1.1-1.6-2.3-2.9-2.5-2.9C514,101.5,514.7,102.8,515.8,104.4 M355.4,114.5
		c0,0.8,3.1,3.1,4.1,3.2c0.4,0,0.5-0.4,0.2-0.9c-0.3-0.5,0.6-1,2.1-1c2.4-0.1,2.5-0.2,0.8-0.9C360.2,113.9,355.4,113.7,355.4,114.5
		 M522.5,114.2c0,0.4,1.1,2.3,2.4,4.3c1.3,1.9,2.4,3.2,2.4,2.8c0-0.4-1.1-2.3-2.4-4.3C523.6,115.1,522.5,113.8,522.5,114.2
		 M381.2,118.1c0.2,0.2,1.7,0.6,3.3,1c2.1,0.5,2.5,0.4,1.4-0.3C384.6,117.9,380.3,117.3,381.2,118.1 M423,129.7
		c1.8,0.8,3.7,1.4,4.3,1.4c0.6,0-0.4-0.7-2.1-1.4c-1.8-0.8-3.7-1.4-4.3-1.4C420.3,128.3,421.3,129,423,129.7 M103.4,139.3
		c-1.6,3.5-1.3,4.3,0.4,1.1c0.8-1.5,1.3-2.9,1.1-3.1C104.6,137,104,137.9,103.4,139.3 M395.5,137.2c0,0.3,1.3,1.4,2.9,2.5
		c1.6,1.1,2.9,1.8,2.9,1.6c0-0.3-1.3-1.4-2.9-2.5C396.8,137.6,395.5,136.9,395.5,137.2 M462.1,137.5c1.2,0.2,2.9,0.2,3.8,0
		c0.9-0.2-0.1-0.4-2.2-0.4S460.9,137.3,462.1,137.5 M446.8,139.4c1.7,0.2,4.3,0.2,5.7,0c1.4-0.2,0-0.4-3.1-0.4
		C446.3,139.1,445.1,139.2,446.8,139.4 M402.2,141.9c0,0.2,1.4,1.6,3.1,3.1l3.1,2.8l-2.8-3.1C402.9,141.8,402.2,141.2,402.2,141.9
		 M398.8,148.3c-1.3,0.6-0.5,0.7,2.4,0.3c2.4-0.3,4.5-0.7,4.7-0.9C406.7,147,400.6,147.5,398.8,148.3 M458.9,171.7
		c0,8.9,0.1,12.7,0.3,8.4c0.2-4.3,0.2-11.6,0-16.2C459,159.3,458.9,162.8,458.9,171.7 M94.8,160c-1.6,4.5-1.4,5.7,0.3,1.7
		c0.8-1.8,1.3-3.7,1.1-4.1C96.1,157.2,95.5,158.2,94.8,160 M396,166c2.2,0.8,8.1,1,8.1,0.3c0-0.4-2-0.7-4.5-0.7
		C397,165.6,395.4,165.8,396,166 M373.2,167.1c1.7,0.2,4.7,0.2,6.7,0c2-0.2,0.6-0.4-3.1-0.4C373.2,166.8,371.5,166.9,373.2,167.1
		 M330,169.8c-1,0.8-1.4,1.4-0.9,1.4c0.5,0,1.8-0.6,2.8-1.4c1-0.8,1.4-1.4,0.9-1.4S331,169,330,169.8 M353.7,169
		c1.4,0.2,3.8,0.2,5.3,0c1.4-0.2,0.3-0.4-2.6-0.4C353.4,168.7,352.2,168.8,353.7,169 M340.3,170.9c0.9,0.2,2.4,0.2,3.3,0
		c0.9-0.2,0.2-0.4-1.7-0.4C340.1,170.5,339.4,170.7,340.3,170.9 M331,172.2c-1.2,0.5-1.4,0.8-0.5,0.8c0.8,0,2.3-0.4,3.3-0.8
		c1.2-0.5,1.4-0.8,0.5-0.8C333.6,171.4,332.1,171.7,331,172.2 M392.6,181.7c-2.2,2.6-3.8,4.8-3.5,4.8s2.3-2.1,4.5-4.8
		c2.2-2.6,3.8-4.8,3.5-4.8S394.8,179.1,392.6,181.7 M437.6,180.3c0,0.5,0.6,2.7,1.4,4.8s1.4,3.1,1.4,2.3c0-0.9-0.6-3-1.4-4.8
		C438.2,180.8,437.6,179.8,437.6,180.3 M402.4,186.9c-3,1.7-3.9,2.7-1.6,1.9c2.4-0.9,6-3.3,4.7-3.1
		C405,185.7,403.6,186.3,402.4,186.9 M87.1,187.6c-0.1,0.9-0.4,2.4-0.7,3.3c-0.5,1.7-0.5,1.7,0.5,0c0.6-0.9,0.9-2.4,0.7-3.3
		C87.2,186.2,87.2,186.2,87.1,187.6 M440.9,192.7c0.8,3.5,1.3,4.3,1.3,1.8c0-1-0.5-2.5-1-3.3C440.6,190.2,440.5,190.6,440.9,192.7
		 M381.3,194.4c-3.5,3.6-3.8,4.5-1.4,4.5c1.8,0,6.1-2.8,4.3-2.8c-0.6,0-1.3,0.4-1.7,1c-0.3,0.5-1.3,1-2.2,1c-1.1,0-0.7-0.9,1.7-3.3
		c1.8-1.8,3-3.3,2.8-3.3S383,192.7,381.3,194.4 M456.9,197c0,2.4,0.2,3.3,0.4,2.1c0.2-1.2,0.2-3.1,0-4.3
		C457,193.7,456.9,194.7,456.9,197 M554.2,196.1c0,1.8,0.2,2.6,0.4,1.7c0.2-0.9,0.2-2.4,0-3.3C554.4,193.5,554.2,194.2,554.2,196.1
		 M85.3,197c0,1.8,0.2,2.6,0.4,1.7c0.2-0.9,0.2-2.4,0-3.3C85.5,194.4,85.3,195.2,85.3,197 M555.1,201.8c0,2.5,1.6,6.6,1.6,4.3
		c0-1.1-0.3-2.8-0.8-3.8C555.4,201.1,555.1,200.9,555.1,201.8 M442.5,203.2c0,1.1,0.3,3.2,0.7,4.8c0.7,2.6,0.7,2.6,0.7,0.5
		c0-1.3-0.3-3.5-0.7-4.8C442.6,201.8,442.5,201.7,442.5,203.2 M234.3,203.5c4.1,0.2,10.7,0.2,14.8,0c4.1-0.2,0.7-0.3-7.4-0.3
		C233.6,203.1,230.2,203.3,234.3,203.5 M208.4,205.5c-0.8,0.5,0.5,0.6,3.3,0.3c2.6-0.3,4.8-0.7,5.1-0.9
		C217.6,204.2,209.6,204.7,208.4,205.5 M83.4,209.4c0,2.4,0.2,3.3,0.4,2.1c0.2-1.2,0.2-3.1,0-4.3C83.6,206.1,83.4,207.1,83.4,209.4
		 M197.5,208.8c-2.3,1.7-1.1,2.5,3.5,2.3c3.6-0.1,3.7-0.2,0.7-0.5c-2.6-0.3-3-0.6-2-1.8C201.1,207.2,199.8,207.2,197.5,208.8
		 M224.8,216.6c3.5,1.8,4.4,1.8,2,0c-1-0.8-2.5-1.4-3.3-1.4C222.8,215.2,223.3,215.8,224.8,216.6 M557,219.5c0,2.1,0.4,4.5,0.9,5.3
		c1.2,1.9,1.2-4.4,0-7.2C557.2,216.1,557,216.5,557,219.5 M81.9,218.3c-1.2,2.9-0.9,8.2,0.3,6.1c0.5-0.9,0.9-3.1,0.7-4.8
		C82.7,217.3,82.5,217,81.9,218.3 M228.3,225.4L225,229l3.6-3.3c3.3-3.1,4-3.9,3.3-3.9C231.7,221.9,230.1,223.5,228.3,225.4
		 M339.6,225.1c2.4,2.1,2.6,2.4,1,2.5c-1,0-1.6,0.3-1.2,0.6c0.3,0.3,1.3,0.3,2.2,0c1.9-0.7,0.5-2.9-2.9-4.5
		C337.5,223,337.9,223.6,339.6,225.1 M444.3,228.2c-0.1,3.3,0.2,6.1,0.6,6.4c0.4,0.2,0.6-1.6,0.4-4
		C444.9,223,444.5,222.1,444.3,228.2 M295.9,225.4c2.2,0.2,5.9,0.2,8.1,0c2.2-0.2,0.4-0.4-4.1-0.4
		C295.5,225.1,293.7,225.2,295.9,225.4 M282.1,226.4c1.5,0.2,3.6,0.2,4.8,0s0-0.4-2.6-0.4C281.6,226,280.6,226.1,282.1,226.4
		 M316,226.4c2.8,0.2,7.3,0.2,10,0c2.8-0.2,0.5-0.4-5-0.4C315.5,226,313.2,226.2,316,226.4 M242.1,238.2c-0.4,0.7-0.3,0.8,0.5,0.4
		c0.6-0.4,1.8-0.2,2.6,0.5c1.2,1,1.3,0.9,0.8-0.4C245.2,236.9,243.1,236.6,242.1,238.2 M211.1,247.2c-1.6,2.4-2.7,4.3-2.5,4.3
		s1.8-1.9,3.4-4.3c1.6-2.4,2.7-4.3,2.5-4.3S212.8,244.8,211.1,247.2 M81.3,257.2c0,1.8,0.4,4,0.9,4.8c0.7,1.1,0.9,0.6,0.9-1.9
		c0-1.8-0.4-4-0.9-4.8C81.5,254.2,81.3,254.7,81.3,257.2 M557.6,255.6c-0.4,1-0.7,3.3-0.7,5.3c0.1,3.3,0.1,3.4,1,1.1
		c0.5-1.3,0.8-3.7,0.7-5.3C558.4,254.4,558.2,254.2,557.6,255.6 M201.6,269.2c-3.6,3.7-4.3,4.1-4.9,2.6c-0.6-1.4-0.7-1.4-0.7,0.5
		c-0.1,3.1,0.9,2.7,6.1-2.6c2.6-2.6,4.5-4.8,4.2-4.8C206,264.8,203.9,266.8,201.6,269.2 M255.6,266.3c1.7,5.6,2.5,7,3.8,6.5
		c0.7-0.3,1.4-0.9,1.4-1.3c0-0.5-0.5-0.6-1.2-0.4c-0.7,0.3-1.9-1.1-2.9-3.1C255.8,266,255.3,265.2,255.6,266.3 M83.4,270.6
		c0,2.4,0.2,3.3,0.4,2.1c0.2-1.2,0.2-3.1,0-4.3C83.6,267.2,83.4,268.2,83.4,270.6 M555.6,275.5c-0.8,4,0,4.8,0.8,0.8
		c0.4-1.7,0.5-3.2,0.2-3.4C556.4,272.6,555.9,273.8,555.6,275.5 M85.3,283c0,1.8,0.2,2.6,0.4,1.7c0.2-0.9,0.2-2.4,0-3.3
		C85.5,280.4,85.3,281.1,85.3,283 M86.6,290.1c0.8,3.5,1.3,4.3,1.3,1.8c0-1-0.5-2.5-1-3.3C86.2,287.7,86.1,288.1,86.6,290.1
		 M187.6,295.8c-0.3,0.7-0.3,3.6-0.1,6.4l0.4,5.1l0.2-5.9c0.1-4.8,0.4-5.8,1.6-5.4c0.8,0.3,1.4,0.1,1.4-0.5
		C191.1,294,188.2,294.2,187.6,295.8 M187.4,321.3c0.1,4.4,0.4,9.3,0.8,10.9c0.4,1.6,0.5-1.9,0.2-7.6
		C187.9,312,187.2,309.9,187.4,321.3 M93.7,316.1c0,0.6,0.6,2.5,1.4,4.3c0.8,1.8,1.4,2.7,1.4,2.1c0-0.6-0.6-2.5-1.4-4.3
		C94.3,316.4,93.7,315.5,93.7,316.1 M199.7,323.1c0,1.4,2.7,6.8,2.8,5.6c0-0.3-0.6-2.1-1.4-3.8C200.4,323.1,199.7,322.3,199.7,323.1
		 M227.8,329.9l-4.8,0.6l5-0.1c3.7-0.1,5.1,0.2,5.4,1.3c0.3,1.1,0.4,1.1,0.5-0.2C234.1,329.3,233.4,329.1,227.8,329.9 M222.2,351.7
		c-0.3,0.5,0.4,1.9,1.4,3.1l2,2.2l-1.5-2.5c-0.8-1.4-1.2-2.8-0.9-3.1c0.4-0.4,0.4-0.6,0.1-0.6C223,350.8,222.5,351.2,222.2,351.7
		 M328.8,354.3c0.9,0.2,1.8,1.2,2,2c0.3,1.1,0.5,1,0.5-0.5c0.1-1.7-0.4-2.1-2-2C327.8,353.9,327.7,354,328.8,354.3 M353.2,355.2
		c-1.4,0.8-2.6,1.6-2.6,1.9c0,0.3,0.8,0,1.9-0.5c1-0.6,2.4-0.9,3-0.7c0.6,0.1,1.3-0.3,1.6-0.9C357.6,353.3,356.5,353.4,353.2,355.2
		 M331.6,362.9c-0.2,2.6,1.3,3.6,3.4,2.2c1.5-0.9,1.4-1-0.4-0.5c-1.6,0.4-2.2,0.1-2.5-1.6C331.7,360.9,331.7,360.9,331.6,362.9
		 M318.7,366l-2.8,3.4l3.2-3.1c1.8-1.7,3-3.2,2.8-3.4C321.6,362.7,320.2,364.1,318.7,366 M342,368.5c-1.8,1.3-2.9,2.3-2.4,2.3
		c0.5,0,2.2-1.1,3.8-2.4C347.1,365.5,346.3,365.5,342,368.5 M122.3,374.2c1.6,2.4,3.2,4.3,3.4,4.3c0.3,0-0.9-1.9-2.5-4.3
		c-1.6-2.4-3.2-4.3-3.4-4.3S120.7,371.8,122.3,374.2 M234.1,373.7c2.4,0.8,8.3,1.3,7.6,0.6c-0.2-0.2-2.5-0.6-5.2-0.9
		C233.2,373,232.4,373.1,234.1,373.7 M333.8,374.1c-0.3,0.7-0.4,3.2-0.2,5.5c0.3,4,0.3,4,0.8-1.3
		C334.8,372.7,334.7,371.7,333.8,374.1 M299.5,375.7c-1.3,0.6-0.8,0.7,1.9,0.3c2.1-0.3,4-0.7,4.2-0.9
		C306.4,374.3,301.3,374.8,299.5,375.7 M289.2,377.3c1.2,0.2,3.1,0.2,4.3,0c1.2-0.2,0.2-0.4-2.1-0.4S288,377,289.2,377.3
		 M282.9,379.1c0.2,0.9,1,1.8,1.7,2c1.2,0.3,1.2,0.2,0.1-0.5c-1.1-0.7-1-1.1,0.5-2c1.7-1,1.6-1-0.4-1.1
		C283.3,377.5,282.7,378,282.9,379.1 M326.1,386.1c-4.3,0.3-8,0.8-8.3,1c-0.9,0.9,15.1-0.2,16-1c0.5-0.5,0.7-0.8,0.5-0.7
		C334.1,385.4,330.4,385.8,326.1,386.1 M284.3,397.4c-0.9,1-1.6,2-1.6,2.4c0,1,6,0.7,7.6-0.3c0.9-0.6-0.1-0.7-2.9-0.3l-4.2,0.6
		l1.8-2.1c1-1.1,1.6-2,1.3-2C286.1,395.7,285.2,396.5,284.3,397.4 M151,408.6c5,5,9.3,9.1,9.5,9.1c0.3,0-3.6-4.1-8.6-9.1
		c-5-5-9.3-9.1-9.5-9.1S146,403.6,151,408.6 M488.1,408.8l-9.1,9.3l9.3-9.1c8.7-8.4,9.7-9.6,9.1-9.6
		C497.3,399.5,493.1,403.7,488.1,408.8 M165.5,422c1.4,1.5,2.8,2.5,3,2.3c0.2-0.2-1-1.5-2.6-2.7l-3-2.3L165.5,422 M181.5,434.3
		c0,0.3,1.9,1.8,4.3,3.4c2.4,1.6,4.3,2.7,4.3,2.5s-1.9-1.8-4.3-3.4C183.5,435.1,181.5,434,181.5,434.3 M191.1,440.9
		c0,0.5,9.5,6.4,10.3,6.4c0.8,0-4.1-3.4-7.7-5.3C192.3,441.2,191.1,440.7,191.1,440.9 M264.7,472.4c0.2,0.2,2.1,0.6,4.2,0.9
		c2.6,0.4,3.4,0.3,2.4-0.3C270,472.2,263.8,471.6,264.7,472.4 M274.4,474.7c0.9,0.2,2.4,0.2,3.3,0c0.9-0.2,0.2-0.4-1.7-0.4
		S273.5,474.4,274.4,474.7 M285.9,476.6c0.9,0.2,2.4,0.2,3.3,0c0.9-0.2,0.2-0.4-1.7-0.4C285.7,476.1,285,476.3,285.9,476.6
		 M350.8,476.6c0.9,0.2,2.4,0.2,3.3,0c0.9-0.2,0.2-0.4-1.7-0.4C350.7,476.1,349.9,476.3,350.8,476.6 M297.6,477.8
		c2.8,1.2,9,1.2,7.2,0c-0.8-0.5-3.2-0.9-5.3-0.9C296.5,477,296.1,477.2,297.6,477.8 M335.3,477.8c-1.9,1.2,4.4,1.2,7.2,0
		c1.5-0.6,1.1-0.8-1.9-0.9C338.5,476.9,336.1,477.3,335.3,477.8"/>
	<path id="path4" class="st4" d="M291.4,2.2c-2.1,0.7-1.9,0.8,1.4,0.8c2.1,0,4.5-0.3,5.3-0.8C299.8,1,295,1,291.4,2.2 M342,2.2
		c0.8,0.5,3.2,0.9,5.3,0.8c3.3-0.1,3.5-0.2,1.4-0.8C345.1,1,340.2,1,342,2.2 M278.5,4.1l-1.9,0.8l1.9,0c1.1,0,3-0.4,4.3-0.8l2.4-0.8
		l-2.4,0C281.5,3.3,279.5,3.6,278.5,4.1 M357.3,4.1c1.3,0.4,3.2,0.8,4.3,0.8l1.9,0l-1.9-0.8c-1.1-0.5-3-0.8-4.3-0.8l-2.4,0
		L357.3,4.1 M268.4,6c-1.8,1.2,0.1,1.2,3.8,0l2.4-0.8l-2.4-0.1C270.9,5.1,269.2,5.5,268.4,6 M367.8,6c3.7,1.2,5.6,1.2,3.8,0
		c-0.8-0.5-2.5-0.9-3.8-0.8l-2.4,0.1L367.8,6 M258.4,8.1c-5.3,1.8-9.6,3.7-7.2,3.1c10.1-2.4,15.4-4.1,12.9-4.1
		C262.6,7.1,260,7.6,258.4,8.1 M379.7,8.8c3.7,1,8.8,2.4,11.4,3.2c2.6,0.8,4.9,1.3,5.1,1.1c0.2-0.2-2.6-1.3-6.2-2.4
		c-3.6-1.1-7.8-2.5-9.4-3c-1.6-0.5-4-0.9-5.3-0.9C374.1,7.1,376,7.9,379.7,8.8 M244.6,12.7c-1.3,0.8-1.3,0.9,0,0.9
		c0.8,0,2.1-0.4,2.9-0.9c1.3-0.8,1.3-0.9,0-0.9C246.6,11.7,245.3,12.2,244.6,12.7 M225.5,19.8c-5.6,3-3.8,3,2.4,0
		c2.6-1.3,4.1-2.3,3.3-2.3C230.4,17.5,227.8,18.6,225.5,19.8 M410.8,19c1.8,0.8,4.1,1.9,5.1,2.4c1,0.5,2,0.7,2.3,0.4
		c0.6-0.6-7.9-4.4-9.6-4.4C407.9,17.5,408.9,18.2,410.8,19 M419.4,22.4c1.2,1.3,6.7,3.6,6.7,2.8c0-0.5-0.8-1.1-1.7-1.3
		c-0.9-0.3-2.5-0.8-3.6-1.2C419.7,22.3,419.1,22.2,419.4,22.4 M427.1,26.4c1.6,1.4,11.4,6.1,11.4,5.6c0-0.8-9.5-5.9-10.9-5.9
		C427.1,26,426.9,26.2,427.1,26.4 M204.7,29.9c-4.3,2.6-3.9,3.3,0.5,0.8c4.1-2.3,4.7-2.7,3.5-2.7C208.2,28,206.4,28.8,204.7,29.9
		 M196.8,34.7l-2.4,1.9l3.1-1.5c1.7-0.8,3.1-1.7,3.1-2C200.6,32.2,199.1,32.8,196.8,34.7 M189.6,39l-2.9,2.4l3.6-2
		c2-1.1,3.6-2.2,3.6-2.4C193.9,36,192.3,36.8,189.6,39 M446.1,36.7c1.8,1.7,9.6,6.4,9.5,5.8c0-0.4-1.8-1.8-4.1-3.1
		C447.5,37,445.2,35.9,446.1,36.7 M180.9,45c-10.5,7.6-12.7,9.3-12.7,10c0,0.6,7.1-4.4,8.6-6.1c0.3-0.3,2.5-1.9,5-3.6
		c2.5-1.7,4.5-3.3,4.5-3.5C186.3,41.1,186.1,41.2,180.9,45 M458.1,44.8c1.1,1,3.4,2.8,5.2,4.1c10.4,7.7,14.2,11.2,27.2,24.2
		c13.8,13.8,16.3,15.9,7.2,5.9c-8.6-9.4-22.1-22.2-28.2-26.6c-0.5-0.4-2.3-1.7-3.8-2.9C461.5,46.4,455.7,42.7,458.1,44.8
		 M163.8,58.2c-10.8,9.4-26.1,25.3-30.9,32.3c-0.7,1,1-0.7,3.7-3.8c2.8-3.2,10.8-11.4,17.9-18.4C167,56.1,169.8,53,163.8,58.2
		 M508.4,93.2c2.3,2.8,5.1,6.4,6.3,7.9l2.2,2.8l-2.1-3.3c-1.2-1.8-3-4.5-4.1-5.8c-1.1-1.4-2.6-3.4-3.4-4.5c-0.8-1.1-1.8-2-2.2-2
		C504.6,88.1,506.1,90.4,508.4,93.2 M129.3,95.1c-1.1,1.2-2.9,3.7-4.1,5.5c-2.2,3.4-0.9,2.1,3.1-2.9c0.6-0.8,1.7-2.2,2.5-3.1
		C132.7,92.1,131.6,92.5,129.3,95.1 M119.6,108.6c-1.7,2.3-3,4.7-3,5.3c0,0.6-0.3,1-0.7,1c-0.8,0-3.3,4.9-2.7,5.5
		c0.2,0.2,1.9-2.3,3.8-5.7c1.9-3.3,4.1-7,5-8.2c0.8-1.2,1.3-2.1,1.1-2.1C122.8,104.4,121.3,106.3,119.6,108.6 M519.9,109.1
		c1.7,2.6,3.3,4.5,3.4,4.4c0.4-0.4-5.5-9.1-6.1-9.1C517,104.4,518.2,106.5,519.9,109.1 M359.5,116.5c0.4,0.4,2.9,0.7,5.7,0.8
		c2.7,0.1,7.6,0.4,10.7,0.8l5.7,0.6l-6.7-1.3C367.8,115.9,358.4,115.4,359.5,116.5 M383.1,119.7c0.8,0.5,2.5,0.9,3.8,0.8l2.4-0.1
		l-2.4-0.8C383.2,118.5,381.2,118.5,383.1,119.7 M372.5,123c6.7,3.6,7.1,3.8,6.3,2.4c-0.7-1.1-10.1-5.8-11.5-5.8
		C366.8,119.7,369.1,121.2,372.5,123 M392.6,121.6c0.8,0.5,2.1,0.9,2.9,0.9c1.3,0,1.3-0.1,0-0.9c-0.8-0.5-2.1-0.9-2.9-0.9
		C391.3,120.6,391.3,120.7,392.6,121.6 M527.4,121.1c1.2,3.3,6.1,11.9,6.4,11.1c0.3-0.9-4.1-9.5-5.8-11.1
		C527.4,120.4,527.2,120.5,527.4,121.1 M109.9,124.7c-1,1.7-1.9,3.5-1.9,4c0,1.2,0.4,0.6,2.7-3.5
		C113.2,120.8,112.5,120.4,109.9,124.7 M402.2,123.9c6.2,2.3,10.2,3.4,12,3.4c1,0-0.1-0.7-2.5-1.4c-2.4-0.8-5.6-1.8-7.2-2.3
		C400.2,122.1,398.2,122.4,402.2,123.9 M380.2,126.6c1.3,1.4,18.1,12,18.1,11.4c0-0.4-3.1-2.6-6.9-5
		C384.2,128.5,379.4,125.7,380.2,126.6 M432.3,134.4c1,0.8,2.4,1.4,3,1.4c0.6,0,3.1,1.1,5.4,2.4c2.4,1.3,5.5,2.3,7,2.3
		c2.5-0.1,2.4-0.2-0.7-0.8c-1.8-0.4-5.9-2.1-9.1-3.7C431.8,132.9,429.3,132.2,432.3,134.4 M103.4,137c-1.6,4.2-0.9,4.4,1,0.3
		c0.9-1.8,1.3-3.3,0.9-3.3C104.9,134,104.1,135.3,103.4,137 M470.6,137.5c3.2,0.3,3.9,0.7,3.4,1.9c-0.4,1-0.2,1.3,0.5,0.8
		c2.8-1.8,1.1-3.4-3.4-3.3l-4.5,0.2L470.6,137.5 M536,137.3c0,1.4,6.4,14.5,6.5,13.3c0-0.6-1.4-4-3.2-7.6
		C537.5,139.3,536,136.8,536,137.3 M457.1,138.8c-2.7,0.7-2.7,0.7,1,0.8c2.1,0,4.7-0.3,5.7-0.8C466.3,137.7,461.3,137.7,457.1,138.8
		 M403.4,142.6c3.4,3,4.3,4.3,3.3,4.9c-0.9,0.6-0.9,0.8-0.1,0.8c2.5,0,2.2-2.1-0.8-4.5C400.6,139.3,398.6,138.3,403.4,142.6
		 M99.4,146.6c-1.2,2.8-2.6,6-3.2,7.2c-0.5,1.2-0.8,2.4-0.5,2.7c0.3,0.3,1-0.9,1.7-2.6c0.7-1.7,2-5,3-7.3c1-2.3,1.7-4.3,1.5-4.5
		C101.8,141.8,100.6,143.9,99.4,146.6 M469.3,146.3c-2.2,2.5-5.5,5.4-7.4,6.3c-1.9,0.9-3.4,2.1-3.4,2.8c0,0.7,0.3,0.8,0.7,0.2
		c0.4-0.5,1.9-1.6,3.4-2.3c4-2.1,13-11.5,11-11.5C473.4,141.6,471.5,143.7,469.3,146.3 M398.3,149.3L396,150l2.4,0.1
		c1.3,0,3-0.3,3.8-0.8C404,148.1,402,148.1,398.3,149.3 M388.8,151.2l-2.4,0.8l2.4,0c1.3,0,3.2-0.3,4.3-0.8l1.9-0.8l-1.9,0
		C392,150.4,390.1,150.8,388.8,151.2 M380.2,153.1c-0.8,0.5-2.5,1-3.8,1.1c-1.5,0.1-1.8,0.3-0.8,0.5c0.9,0.2,3.7-0.2,6.2-1
		c3.2-1,3.9-1.4,2.2-1.5C382.7,152.2,381,152.6,380.2,153.1 M369.2,155.9c-2.6,0.7-2.7,0.7-0.5,0.8c1.3,0.1,3-0.3,3.8-0.8
		C374.2,154.9,373.3,154.9,369.2,155.9 M356.8,159.8c-0.3,0.5,0.1,1,0.8,1c0.8,0,1.7-0.4,2-1c0.3-0.5-0.1-1-0.8-1
		S357.1,159.2,356.8,159.8 M350.6,161.7c-0.8,0.5-5,2.2-9.3,3.9c-4.4,1.7-7.7,3.3-7.4,3.6c0.3,0.3,1.5,0.1,2.7-0.5
		c1.2-0.5,3.2-1.4,4.5-1.9s3.5-1.4,4.8-1.9c5.8-2.3,9-4,7.6-4C352.7,160.8,351.4,161.2,350.6,161.7 M546.4,163.1
		c0,0.4,0.4,2.1,0.9,3.7c0.5,1.6,1.6,4.9,2.3,7.2c0.8,2.4,1.4,3.5,1.4,2.5c0-1-0.9-4.5-2-7.6C547.1,163.1,546.4,161.6,546.4,163.1
		 M92.4,165.2c-0.2,0.4-1.2,3.4-2.1,6.5c-0.9,3.2-2,6.7-2.5,7.9c-0.5,1.2-0.8,3.4-0.8,4.8c0,1.5,0.8-0.3,1.8-4.1
		c0.9-3.7,2.4-8.6,3.2-10.9C93.4,165.6,93.6,163.1,92.4,165.2 M386.9,165.5c-4.3,0.5-2.7,0.6,5.4,0.3c8.8-0.3,11.7-0.1,12,0.8
		c0.2,0.7,0.4,0.6,0.3-0.2C404.5,164.8,397.1,164.4,386.9,165.5 M358.2,167.5c-1,0.7,0.5,0.8,5.3,0.3c3.7-0.4,6.9-0.8,7.1-1
		C371.5,165.9,359.5,166.6,358.2,167.5 M342.5,169.3l-1.9,0.8l1.9,0c1.1,0,3.6-0.3,5.7-0.8l3.8-0.8l-3.8,0
		C346.1,168.5,343.5,168.9,342.5,169.3 M329.8,170.7c-1.2,0.5-2.1,1.3-2.1,1.7c0,0.4,1,0.5,2.1,0.1c1.2-0.4,3.9-1,6-1.3l3.8-0.6
		l-3.8-0.4C333.7,170,331,170.2,329.8,170.7 M397.6,176.3c-2.8,3.8-6.8,8.8-9,11.2c-10.1,10.9-10,10.7-7.9,10.4
		c1.1-0.2,1.9-0.8,1.9-1.4c0-0.6,2.7-4.1,6-7.8c3.3-3.7,6.9-7.9,8.1-9.5c1.2-1.5,2.4-3,2.7-3.2c1.4-1.2,4.8-6.7,4.1-6.6
		C403,169.4,400.4,172.5,397.6,176.3 M429,172.7c-1.8,0.8-3,1.6-2.8,1.9c0.3,0.3,1.7-0.1,3.2-0.9c2.8-1.5,6.2-0.6,6.2,1.6
		c0,0.6,0.3,0.8,0.6,0.5c0.6-0.6-2.3-4.5-3.4-4.4C432.5,171.3,430.8,171.9,429,172.7 M414.2,180c-3.1,1.6-5.4,3-5.2,3.2
		c0.4,0.4,12.2-5.2,12.2-5.8C421.3,176.6,420,177.1,414.2,180 M457.3,182.1c-0.4,2.6-0.7,6.2-0.6,8.1l0.1,3.4l0.9-3.8
		c0.5-2.1,0.8-5.8,0.6-8.1l-0.3-4.3L457.3,182.1 M551.2,179.8c0,0.8,0.4,2.3,0.9,3.3l0.8,1.9l0.1-1.9c0-1.1-0.4-2.6-0.9-3.3
		C551.3,178.6,551.2,178.6,551.2,179.8 M288,187.5c-0.3,0.5-0.1,1,0.5,1c0.7,0,0.6,0.8-0.5,2.4c-0.9,1.3-1.5,2.9-1.3,3.4
		c0.2,0.5,1.3-1,2.4-3.4C291.1,186.9,290.1,184,288,187.5 M85.6,188.9c-0.3,0.9-0.6,2.5-0.5,3.6c0.1,1.5,0.4,1.1,1-1.1
		C87.1,188.1,86.7,186.2,85.6,188.9 M393.3,190.6c-3,1.6-5.4,3.1-5.2,3.2c0.4,0.4,12.1-5.3,12.1-5.9
		C400.2,187.1,398.8,187.6,393.3,190.6 M440.4,188.4c0,0.8,0.4,2.1,0.9,2.9c0.8,1.3,0.9,1.3,0.9,0c0-0.8-0.4-2.1-0.9-2.9
		C440.5,187.1,440.4,187.1,440.4,188.4 M553.2,188.4c0,0.8,0.4,2.3,0.9,3.3l0.8,1.9l0.1-1.9c0-1.1-0.4-2.6-0.9-3.3
		C553.2,187.1,553.1,187.1,553.2,188.4 M278.5,190.8c-6.3,3-4.1,3,2.5,0c2.8-1.3,4.5-2.3,3.7-2.3
		C283.9,188.5,281.1,189.6,278.5,190.8 M268.9,195.2c-2.1,1.1-4.2,2.4-4.8,3c-0.5,0.5,1.3-0.2,4.1-1.6c2.8-1.4,5-2.8,5-3
		C273.2,193,272.9,193.1,268.9,195.2 M442.9,199.4c0.3,2.6,0.9,9.1,1.3,14.3l0.7,9.6l0.1-8.6c0.1-4.7-0.5-11.2-1.3-14.3l-1.4-5.7
		L442.9,199.4 M555.1,198c0,1.3,0.4,3.2,0.8,4.3c0.7,1.7,0.8,1.7,0.8-0.5c0-1.3-0.4-3.2-0.8-4.3C555.2,195.8,555.1,195.8,555.1,198
		 M83.8,199c-0.3,1.3-0.6,3.4-0.5,4.8c0.1,1.7,0.3,1.3,1-1.4C85.2,198.2,84.8,195.2,83.8,199 M258.4,201.3c-1.6,1.3-2.5,2.4-2.1,2.4
		c0.4,0,1.3-0.4,1.9-1c0.6-0.5,2-1.6,3.1-2.4c1.1-0.8,1.5-1.4,1-1.4C261.7,199,260,200,258.4,201.3 M282.2,201.9
		c-2,3.8-1.2,5.7,2.2,5.5c2.3-0.1,2.3-0.2,0.5-0.5c-2.3-0.5-2.8-3-1.2-6.1c0.5-1,0.8-1.8,0.5-1.8C284,198.9,283.1,200.3,282.2,201.9
		 M455.1,202.2c-0.4,1.9-0.4,3.7-0.1,4c0.3,0.3,0.8-1,1.2-3c0.4-1.9,0.4-3.7,0.1-4C456,199,455.5,200.3,455.1,202.2 M220.7,204.7
		c-2.4,0.4,4.3,0.5,14.8,0.2c10.5-0.3,19.3-0.6,19.5-0.8C255.7,203.4,225.1,204,220.7,204.7 M207.8,206.6c-1.7,0.8-1.7,0.8,0.5,0.9
		c1.3,0,3-0.4,3.8-0.9C214,205.4,210.6,205.4,207.8,206.6 M557,210.5c0,2.8,0.5,6,0.9,7.1c0.6,1.2,0.7-0.4,0.3-4.8
		C557.5,204.6,556.9,203.5,557,210.5 M199.7,208.9c-0.9,1.1-0.1,1.4,5.4,2c3.6,0.3,7.5,1,8.7,1.5c3.4,1.4,4.8,0.9,1.6-0.6
		c-1.6-0.7-4.2-1.3-5.7-1.4c-4.1-0.1-7.2-1.1-6.6-2C203.9,207,200.9,207.4,199.7,208.9 M290.9,208.5c1.1,0.5,2.8,0.8,3.8,0.8h1.9
		l-1.9-0.8c-1.1-0.5-2.8-0.8-3.8-0.8H289L290.9,208.5 M453,212.3c-1.4,5.9-2.7,9.9-4.2,13.1c-0.6,1.2-0.8,2.4-0.5,2.7
		c0.6,0.6,4.6-9.4,4.6-11.6c0-0.8,0.5-2.3,1-3.4c0.6-1,0.9-2.8,0.7-4C454.3,207.8,453.7,209,453,212.3 M81.9,212.2
		c-1.1,5-0.9,7.8,0.3,5.6c0.5-0.9,0.9-3.3,0.7-5.3l-0.3-3.6L81.9,212.2 M301.4,210.9c2.6,0.7,6.1,1.8,7.7,2.3
		c1.6,0.5,3.5,0.9,4.3,0.9c0.8,0-0.6-0.7-2.9-1.4c-2.4-0.8-5.6-1.8-7.2-2.3c-1.6-0.5-3.8-0.9-4.8-0.9
		C297.4,209.5,298.8,210.2,301.4,210.9 M230,218.6c3,2.1,2.7,3.1-3.7,9.9c-3.1,3.4-7.5,8.8-9.6,11.9c-3.3,4.9-2.7,4.7,1.3-0.5
		c4.6-5.9,9.3-11.5,12.4-14.8c2-2.1,3.6-4.1,3.6-4.5c0-0.9-4-3.6-5.2-3.6C228.3,217.1,228.9,217.7,230,218.6 M325.7,218.5
		c0,0.7,11.8,6.3,12.2,5.8c0.2-0.2-2.3-1.7-5.6-3.3C326.1,217.9,325.7,217.8,325.7,218.5 M285,224.5c-0.6,0.4,7.3,0.7,17.7,0.8
		c10.3,0,17.7-0.2,16.4-0.6C315.9,223.7,286.4,223.6,285,224.5 M445.3,229c-0.1,5.2,0,5.5,1.2,3.8c1.6-2.1,1.9-3.7,0.6-2.8
		c-0.5,0.3-1.1-1.1-1.3-3C445.6,224.3,445.4,224.9,445.3,229 M334.8,225.7l-4.8,0.5l5.7,0.7c6.1,0.7,7,0.6,5.1-0.8
		C340.1,225.5,337.4,225.4,334.8,225.7 M273.5,227.4c-2.3,1.8-6.1,9.3-6,11.6c0,0.9,0.4,0.5,1-0.8c1-2.6,3.9-9,4.3-9.5
		c0.1-0.2,1.9-0.9,3.9-1.6c3-1.1,3.2-1.3,1.3-1.3C276.7,225.7,274.7,226.5,273.5,227.4 M236.2,240.8c-3.8,2.5-6.9,4.8-6.9,5.2
		c0,0.4,3.2-1.4,7.1-4.1c8.3-5.6,8.6-5.7,9.9-2.2c0.8,2.1,1,2.3,1,0.7C247.6,235.1,244.8,235.2,236.2,240.8 M224.4,249.2l-2.3,2.6
		l3.1-2.1c3.1-2.2,3.8-3,2.3-3C227.1,246.7,225.7,247.8,224.4,249.2 M264.1,248.6c-0.4,1.1-0.4,2.3-0.2,2.5c0.3,0.3,0.8-0.4,1.1-1.6
		c0.4-1.1,0.4-2.3,0.2-2.5C265,246.8,264.5,247.5,264.1,248.6 M206.3,255.4c-2.2,3.2-3.7,6-3.5,6.2c0.2,0.2,2.2-2.4,4.3-5.8
		C212.1,247.9,211.5,247.7,206.3,255.4 M218.3,253.6c-2.8,2.1-4.6,3.6-12.9,11c-3.5,3.1-4.4,3.6-4.8,2.3c-0.4-1-0.8-1.2-1.2-0.5
		c-0.4,0.6-0.4,1.7,0,2.6c0.4,1,0.2,1.5-0.7,1.3c-0.7-0.2-1.4,0.6-1.7,1.6c-0.3,1.4,1,0.6,4.7-2.9c2.8-2.6,7.5-6.7,10.3-9.1
		c8.4-7,10.1-8.5,9.6-8.5C221.4,251.5,219.9,252.5,218.3,253.6 M261.9,256.8c-0.6,2.4-1.1,5.5-1.1,6.9c0.1,3,0.2,2.6,1.9-4.8
		C264.2,252.3,263.6,250.7,261.9,256.8 M251.3,254.4c0,0.8,0.3,1.8,0.7,2.2c0.4,0.4,1.4,2.5,2.3,4.7c0.9,2.2,1.6,3.3,1.7,2.5
		c0-0.8-1-3.6-2.3-6.2C252.4,255,251.3,253.6,251.3,254.4 M81.3,263.4c0.1,5.1,1.6,8.4,1.7,3.8c0-2.1-0.3-4.5-0.8-5.3
		C81.5,260.9,81.3,261.2,81.3,263.4 M557.6,262.9c-0.4,1.3-0.6,4.5-0.6,7.2l0.1,4.8l0.8-5.7C558.9,262.9,558.7,259,557.6,262.9
		 M259.1,269c-0.7,1.6-0.8,2.5-0.2,2.5c1.2,0,2.2-2.4,1.7-3.9C260.4,267,259.7,267.7,259.1,269 M83.3,276.8c0,1.6,0.3,3.7,0.8,4.8
		l0.8,1.9l0-1.9c0-1.1-0.4-3.2-0.8-4.8l-0.7-2.9L83.3,276.8 M555.4,279.6c-0.4,1.9-0.4,3.7-0.1,4c0.3,0.3,0.8-1,1.2-3
		c0.4-1.9,0.4-3.7,0.1-4C556.3,276.3,555.8,277.7,555.4,279.6 M85.2,287.8c0,1.3,0.3,3,0.8,3.8c1.2,1.8,1.2-0.1,0-3.8l-0.8-2.4
		L85.2,287.8 M553.7,289.1c-0.4,1.5-0.5,3-0.2,3.2c0.8,0.8,1.7-2.3,1.3-4.3C554.5,286.8,554.2,287,553.7,289.1 M87,295.3
		c-0.1,2.3,0.4,4.2,3.2,12.5c1.8,5.4,1.2,1.7-1.3-7.6C88,296.2,87.1,294.1,87,295.3 M188.2,299l0,3.6l1.4-2.7c1.7-3.3,1.7-3.1,0-3.8
		C188.5,295.6,188.2,296.2,188.2,299 M552.2,296.5c-0.1,0.9-0.4,2.4-0.7,3.3c-0.5,1.7-0.5,1.7,0.5,0c0.6-0.9,0.9-2.4,0.7-3.3
		C552.4,295.1,552.3,295.1,552.2,296.5 M191.1,301.7c0,1,0.4,2.3,0.8,2.8c0.4,0.5,1.6,3.5,2.5,6.6c0.9,3.2,2.1,6.2,2.7,6.7
		c0.7,0.6,0.7,0.3,0.3-1c-0.4-1.1-1.8-5.1-3.1-9.1C191.6,299.9,191.1,298.9,191.1,301.7 M549.4,306.6c-1.3,4.7-3.2,10.7-4.5,14.1
		c-0.5,1.3-0.4,1.6,0.3,1c1.3-1.3,6.3-17.2,5.9-18.6C550.8,302.5,550.1,304.1,549.4,306.6 M187.5,310.2c0,2.1,0.2,2.8,0.4,1.7
		c0.2-1.2,0.2-2.9,0-3.8C187.7,307.1,187.5,308.1,187.5,310.2 M197.8,320.2c0,0.8,0.4,2.1,0.9,2.9c0.8,1.3,0.9,1.3,0.9,0
		c0-0.8-0.4-2.1-0.9-2.9C197.9,319,197.8,319,197.8,320.2 M188.8,329c0.4,7.9,0.3,9.3-1,9.7c-1.2,0.4-1.2,0.4,0.2,0.3
		c2.1-0.2,2.6-5.3,1.3-13.5C188.4,320.4,188.4,320.8,188.8,329 M95.6,324.2c0,0.9,0.4,1.9,0.9,2.2c0.5,0.3,1,1.2,1,1.9
		c0,1.9,3.8,10.4,4.4,9.8c0.3-0.3,0.1-1.3-0.4-2.3s-1.3-2.8-1.8-4.2C97.3,325.8,95.7,322.8,95.6,324.2 M201.6,329.3
		c-0.1,4.2,6,6.5,11,4.2c1.3-0.6,0.5-0.7-2.9-0.4c-4.5,0.5-4.9,0.3-6.4-2.2C202.4,329.6,201.6,328.8,201.6,329.3 M539.8,333.7
		c-1.2,2.7-2,5-1.8,5.2c0.2,0.2,1.4-1.8,2.6-4.4c1.2-2.7,2-5,1.8-5.2C542.1,329,541,331,539.8,333.7 M231,333.4
		c-0.9,1.9-1.5,3.6-1.3,3.8c0.5,0.5,3.6-5.5,3.2-6.4C232.8,330.4,231.9,331.6,231,333.4 M220.7,331.7l-2.4,0.8h2.4
		c1.3,0,3.5-0.3,4.8-0.8l2.4-0.8h-2.4C224.1,330.9,222,331.3,220.7,331.7 M102.7,340.8c0.4,1.1,1,2.7,1.2,3.6
		c0.3,0.9,0.9,1.7,1.3,1.7c0.5,0,0.2-1.4-0.7-3.1C102.7,339.3,101.6,338,102.7,340.8 M225.3,344.3c-0.6,1.2-2,3.6-3,5.4
		c-1.8,3.2-1.8,3.3,0.3,5.3l2.1,2l-1.5-2.2c-1.4-2.1-1.3-2.6,1.3-7.4c1.6-2.8,2.6-5.2,2.3-5.2C226.7,342.2,226,343.2,225.3,344.3
		 M172,344.4c-1.3,0.6-2.6,1.2-2.8,1.3c-0.7,0.5,2,3.2,3.1,3.1c0.6,0,0.2-0.7-0.8-1.4c-1.3-1-1.5-1.4-0.5-1.4c0.8,0,2.2-0.7,3.2-1.4
		C176.5,342.9,175.4,342.8,172,344.4 M106,347.5c0,1.4,5.1,10.9,5.9,10.9c0.4,0-0.6-2.5-2.3-5.5C106.3,346.7,106.1,346.3,106,347.5
		 M177.7,351.7c3.1,2.2,14.3,7.7,14.3,7c0-0.4-3.1-2.2-6.9-4.1C177.3,350.9,175.6,350.2,177.7,351.7 M529.4,354.8
		c-1.2,2.2-2,4.1-1.8,4.3c0.5,0.5,4.5-6.5,4.2-7.5C531.7,351.2,530.6,352.6,529.4,354.8 M327.7,355.6c0,0.5,0.4,1,0.8,1
		c0.5,0,1.3,1.8,1.8,4.1c0.9,3.6,1,3.7,1.1,1.2c0.1-4.1-0.9-7.2-2.4-7.2C328.3,354.6,327.7,355,327.7,355.6 M344.9,360.4
		c-6,3.1-11.5,5.5-12.2,5.2c-0.7-0.3-1.2,0-1.2,0.5c0,1.6,2.1,1,11.1-3.4c4.9-2.4,9.1-4.3,9.5-4.3c1.1,0-8.6,8.6-10.3,9.1
		c-0.9,0.3-1.7,1-1.7,1.5c0,2,13.5-9.2,15.4-12.8c0.5-0.9,0.8-1.6,0.6-1.6C356,354.7,350.9,357.3,344.9,360.4 M225.5,357
		c0,1.5,17.8,14.5,18.7,13.6c0.3-0.3-1.8-1.9-4.6-3.6c-2.8-1.7-7.1-4.8-9.6-6.9C227.5,358.1,225.5,356.6,225.5,357 M195.7,362
		c1.4,1.4,2.7,2.3,2.9,1.9c0.5-1.1-2.8-4.5-4.2-4.5C193.7,359.4,194.3,360.6,195.7,362 M317.9,367.1c-4.8,4.8-8.3,7.6-10,7.8
		l-2.6,0.4l2.7,0.1c2.5,0.1,19.2-14.3,17.8-15.4C325.5,359.9,321.9,363,317.9,367.1 M114.7,364.1c0,0.6,0.3,1.1,0.7,1.1
		c0.4,0,1.3,1.2,1.9,2.6s2.3,3.9,3.6,5.5c2,2.4,2,2.1-0.5-1.6c-1.6-2.5-2.9-4.9-2.9-5.4s-0.6-1.4-1.4-2.1
		C115.1,363.3,114.7,363.3,114.7,364.1 M519.9,370.9c-1.7,2.6-2.8,4.7-2.4,4.7c0.8,0,6.3-8.6,5.8-9.1
		C523.1,366.4,521.6,368.3,519.9,370.9 M217.2,370.3c-0.3,0.8-0.3,2.2-0.1,3.1c0.4,1.4,0.5,1.3,0.6-0.4c0.2-3,1.2-3.3,6.4-1.8
		c4.9,1.4,19.2,3.5,23.6,3.5c3,0,3.2-0.7,0.9-2.5c-2.4-1.8-3.6-1.6-2,0.3c1.2,1.4,1,1.5-2,0.9c-1.8-0.4-6.3-0.9-10-1.2
		c-3.7-0.3-7.4-0.9-8.2-1.3C223,369.2,217.8,368.8,217.2,370.3 M204.3,375.4c4.5,6.6,7.8,10.4,7.8,9.1c0-0.5-0.9-1.8-2-2.8
		c-1.1-1-3.3-4.1-5-6.8c-1.7-2.8-3.4-5-3.8-5C200.9,369.9,202.2,372.4,204.3,375.4 M335.3,371.9c-1.6,1.3-1.7,1.6-0.5,1
		c3.1-1.6,4.8-2.9,3.8-2.9C338.1,369.9,336.6,370.8,335.3,371.9 M298,376.6l-3.3,0.7l3.3,0.1c1.8,0.1,4-0.3,4.8-0.8
		C304.6,375.5,303.4,375.5,298,376.6 M125.3,379.5c1.2,1.8,3.2,4.6,4.4,6.2c1.2,1.6,2.5,3.3,2.9,3.9c1.5,2.2,15.2,17.4,18.5,20.5
		c5.8,5.6,12.7,11.9,14.7,13.4c1.1,0.8-3.9-4.4-11.1-11.5c-13.4-13.3-17.6-17.8-22.4-24.3C125.9,379,122.2,374.7,125.3,379.5
		 M509.5,385.4c-3.6,4.9-13,15.3-20.9,23.2c-7.9,7.9-18.3,17.3-23.2,20.9c-4.9,3.6-8.8,6.7-8.8,6.9c0,0.5,10.4-6.7,13-8.9
		c1.1-1,4.6-3.9,7.6-6.5c6.7-5.7,17.2-16.1,23.8-23.8c2.6-3.1,5.2-6.1,5.8-6.7c1.9-2.1,10.2-14,9.7-14
		C516.3,376.6,513.2,380.6,509.5,385.4 M216.9,383.6c0,3.5,0.4,6.4,0.9,6.4c0.8,0,0.3-11.4-0.5-12.3
		C217,377.4,216.9,380.1,216.9,383.6 M285.2,378.8c-1.6,1.1-1.3,1.4,2.9,2.9c2.6,0.9,6.1,2.3,7.9,3.1l3.3,1.4l-2.8,2.4
		c-1.5,1.3-5.2,4.2-8,6.4c-5.5,4.1-4.4,6.1,1.9,3.6c2.3-0.9,2.2-0.9-0.8-1l-3.2-0.1l5.7-4.3c9.4-7,9.6-9,1.4-10.6
		c-1.7-0.3-3.4-1-3.6-1.5c-0.3-0.5-1.5-0.9-2.6-0.9c-1.6-0.1-1.3-0.3,1-1c1.7-0.5,3.1-1.1,3.1-1.3
		C291.4,377,286.9,377.6,285.2,378.8 M333.4,384.1c0,0.8-2.5,1.1-7.6,1.1c-4.2,0-7.6,0.3-7.6,0.7c0,0.4,3.3,0.6,7.4,0.4
		c7-0.3,10-1.2,8.5-2.7C333.7,383.2,333.4,383.5,333.4,384.1 M307.6,391.5c-4.5,2.3-7.8,4.2-7.3,4.2c1,0.1,16.9-7.6,16.9-8.2
		C317.2,386.7,315.6,387.4,307.6,391.5 M168.1,425c0,0.4,0.9,1.4,2,2.2c1.1,0.8,3.2,2.3,4.5,3.4c1.4,1.1,4,2.9,5.8,4.1l3.3,2.1
		l-2.8-2.2c-1.5-1.2-5.1-4.1-7.9-6.3C170.4,426.1,168.1,424.6,168.1,425 M184.4,437.2c0,0.7,8.7,6.5,9.1,6.1
		c0.2-0.2-1.8-1.7-4.4-3.4C186.5,438.1,184.4,436.9,184.4,437.2 M450.4,440.2c-5.6,3.8-5.1,4.3,0.7,0.7c4.8-3,5-3.1,4.4-3.6
		C455.3,437.1,453,438.4,450.4,440.2 M201.6,448.1c0,0.9,6.6,4.4,7.2,3.8c0.3-0.3-1.3-1.4-3.3-2.5
		C203.3,448.3,201.6,447.7,201.6,448.1 M434.2,449.7c-2.1,1.3-3.3,2.3-2.7,2.3c1.5,0,7-3.1,7-4C438.5,447.1,438.8,447,434.2,449.7
		 M223.1,459.3c3.7,1.8,7.3,3.2,8.1,3.2c1.3,0,1.3-0.1,0-0.6c-0.8-0.3-4.1-1.8-7.4-3.3C215.4,454.8,214.9,455.3,223.1,459.3
		 M418.4,457.6c-1.8,0.9-5.1,2.4-7.2,3.3c-2.1,0.9-3.2,1.6-2.4,1.6c1.6,0,15.3-6.4,13.8-6.5C422.2,456,420.2,456.7,418.4,457.6
		 M243.8,466.9c1,1,10.8,4.3,12.7,4.2c1.1,0-0.2-0.7-2.9-1.5c-2.6-0.8-5.5-1.9-6.4-2.3C245.4,466.3,243,466,243.8,466.9
		 M392.6,467.4c-1.3,0.5-4.3,1.5-6.7,2.2c-2.4,0.8-3.4,1.4-2.4,1.4c1.9,0,11.7-3.2,12.7-4.2C396.9,466.2,395.5,466.4,392.6,467.4
		 M259.8,472.1c0.8,0.5,2.3,0.9,3.3,0.9l1.9-0.1l-1.9-0.8C260.3,470.9,257.9,470.9,259.8,472.1 M376.8,472.1l-1.9,0.8l1.9,0.1
		c1.1,0,2.6-0.4,3.3-0.9C382.1,470.9,379.7,470.9,376.8,472.1 M268.4,474c0.8,0.5,2.3,0.9,3.3,0.9l1.9-0.1l-1.9-0.8
		C268.9,472.8,266.5,472.8,268.4,474 M368.3,474c-1.7,0.7-1.6,0.8,0.7,0.9c1.4,0,2.8-0.4,3.2-0.9C372.8,472.9,370.9,472.9,368.3,474
		 M278,475.9c1.3,0.4,3.5,0.8,4.8,0.8h2.4l-2.4-0.8c-1.3-0.4-3.5-0.8-4.8-0.8h-2.4L278,475.9 M357.3,475.9l-2.4,0.8h2.4
		c1.3,0,3.5-0.3,4.8-0.8l2.4-0.8H362C360.7,475.2,358.6,475.5,357.3,475.9 M285.7,477.2c0.2,0.2,3.4,0.6,7.1,0.9
		c4.4,0.4,6,0.3,4.8-0.3C295.8,477.1,284.9,476.5,285.7,477.2 M342.5,477.9c-1.2,0.6,0.4,0.7,4.8,0.3c3.7-0.3,6.9-0.7,7.1-0.9
		C355.2,476.5,344.3,477.1,342.5,477.9"/>
</g>
</svg>
