<?xml version="1.0" encoding="utf-8"?>
<!-- Generator: Adobe Illustrator 18.1.1, SVG Export Plug-In . SVG Version: 6.00 Build 0)  -->
<svg version="1.1" id="Layer_1" xmlns="http://www.w3.org/2000/svg" xmlns:xlink="http://www.w3.org/1999/xlink" x="0px" y="0px"
	 viewBox="0 0 640 480" enable-background="new 0 0 640 480" xml:space="preserve">
<g>
	<path fill-rule="evenodd" clip-rule="evenodd" fill="#0658A6" d="M226.4,150.9c-23.4,9.9-125.6,55.5-163.8,77.8
		c-16.5-6.4-30.5-11.1-49.6-18.2c79.4-46.3,165.7-72.5,167.1-74.5C196.2,140.2,210,146.9,226.4,150.9z"/>
	<path fill-rule="evenodd" clip-rule="evenodd" fill="#0658A6" d="M303,182.8c-23.4,9.9-126.4,59.5-164.5,81.8
		c-17.8-8.9-35.2-17.8-53-25c79.4-46.3,161.7-77,163.2-78.9C264,166.7,286.9,176.9,303,182.8z"/>
	<path fill-rule="evenodd" clip-rule="evenodd" fill="#D22027" d="M550.7,165.5c-23.4,9.9-184.8,62.1-337.6,163.7
		c-19.3-11.9-50.6-29.9-69.6-36.1c79.4-46.3,184.5-116,344.8-157.2C512.5,146.5,529.1,155.7,550.7,165.5z"/>
	<path fill-rule="evenodd" clip-rule="evenodd" fill="#D22027" d="M626.2,207.9C602.8,217.8,406.9,311.3,312,394
		c-17.4-10.2-55.1-38.6-72.7-48c76.1-49.1,172.8-120.4,331.4-168.3C594.8,188.4,606.7,196.4,626.2,207.9z"/>
	<path fill-rule="evenodd" clip-rule="evenodd" fill="#D22027" d="M227.8,101.8c41.8,13.6,102.9,34.8,142.7,55.2
		c-12.6,6.9-29.7,11.6-45,17.9c-101.5-42.5-142.6-55-144.5-56.5C190,114.5,219.9,104.4,227.8,101.8z"/>
	<path fill-rule="evenodd" clip-rule="evenodd" fill="#D22027" d="M301.8,83.2c41.8,13.6,105.6,31.8,145.5,52.2
		c-13.6,3.4-33.2,7.4-48.7,13.9C297,106.7,259.7,95.7,257.7,94.2C266.8,90.3,294,85.8,301.8,83.2z"/>
</g>
</svg>
