<?xml version="1.0" encoding="utf-8"?>
<!-- Generator: Adobe Illustrator 22.1.0, SVG Export Plug-In . SVG Version: 6.00 Build 0)  -->
<svg version="1.1" id="Layer_1" xmlns="http://www.w3.org/2000/svg" xmlns:xlink="http://www.w3.org/1999/xlink" x="0px" y="0px"
	 viewBox="0 0 640 480" style="enable-background:new 0 0 640 480;" xml:space="preserve">
<style type="text/css">
	.st0{fill:#1F639B;}
	.st1{fill:#F47B2A;}
</style>
<title>XEM</title>
<g>
	<g>
		<path class="st0" d="M71.8,171.9c6.8,0,13.3,1.6,19.1,4.7c5.7,3.1,10.4,7.6,13.8,12.8c3.4,5.5,5.2,11.5,5.2,17.7
			c0,9.9-2.3,17.5-7,22.7s-10.4,9.1-17.7,11v1c7.8,1.6,14.4,5.2,19.8,10.7c5.5,5.7,8.4,14.1,8.4,25.1c0,7-1.8,13.6-5.5,19.3
			c-3.7,6-8.4,10.7-14.6,14.1c-6,3.4-12.8,5.2-20.1,5.2H0V171.4h71.8V171.9z M73.9,225.6c3.1-3.1,5-7.3,5-12.3c0-6-1.6-10.2-5-12.8
			c-3.1-2.6-7-3.9-11.2-3.9H31.1v33.7h31.6C66.8,230.6,70.5,229,73.9,225.6z M76.7,285.7c3.1-3.1,5-7,5-11.7v-1.8
			c0-4.7-1.6-8.6-5-11.7c-3.1-3.1-7-5-11.7-5H31.1v35.2H65C69.7,290.4,73.6,288.8,76.7,285.7z"/>
		<path class="st0" d="M246.4,289.1c-5.7,9.7-13.6,17-23.2,22.2c-9.7,5-20.6,7.6-32.6,7.6s-22.7-2.6-32.6-7.6
			c-9.7-5-17.5-12.5-23.2-22.2c-5.7-9.7-8.6-21.1-8.6-34.5V234c0-13.3,2.9-24.8,8.6-34.5c5.7-9.7,13.6-17,23.2-22.2
			c9.7-5,20.6-7.6,32.6-7.6s22.7,2.6,32.6,7.6c9.7,5,17.5,12.5,23.2,22.2c5.7,9.7,8.6,21.1,8.6,34.5v20.6
			C255,267.9,252.1,279.2,246.4,289.1z M212.5,204.5c-5.7-5.7-13.1-8.9-21.9-8.9s-16.4,2.9-21.9,8.9c-5.7,5.7-8.4,14.1-8.4,24.8v30
			c0,10.7,2.9,19.1,8.4,24.8c5.7,5.7,13.1,8.9,21.9,8.9s16.4-2.9,21.9-8.9c5.7-5.7,8.4-14.1,8.4-24.8v-30
			C220.8,218.6,217.9,210.2,212.5,204.5z"/>
		<path class="st0" d="M275.1,316.7V171.9h32.6v117.7h59.5l3.7,26.9h-95.8V316.7z"/>
		<path class="st0" d="M458.9,212.9c0-5.2-2.1-9.7-6.3-12.5c-4.2-3.1-10.2-4.4-17.5-4.4c-7.8,0-13.8,1.3-18,3.7s-6.5,5.7-6.5,9.9
			c0,3.4,1.3,6.5,3.9,8.9s6,4.2,10.2,5.5c4.2,1.3,9.9,2.9,17,4.7c10.4,2.6,19.3,5.2,26.1,7.8c6.8,2.6,12.8,6.8,17.5,12.5
			c5,5.7,7.3,13.1,7.3,22.7c0,16.4-5.2,28.5-15.9,36.3c-10.7,7.6-25.3,11.5-43.8,11.5c-17,0-30.8-3.7-41.8-11
			c-11-7.3-16.4-18.5-16.4-33.7l0.3-4.7h30.8l-0.3,3.4c0,6.3,2.3,11,7,14.6s11.2,5.5,19.6,5.5c9.9,0,17-1.6,21.1-4.7
			c4.2-3.1,6.5-7,6.5-11.7c0-3.7-1.3-6.5-3.9-8.9c-2.6-2.3-6-4.2-9.9-5.5c-3.9-1.3-9.7-2.9-16.7-4.4c-10.7-2.6-19.3-5.2-26.1-8.1
			c-6.8-2.6-12.5-7-17.5-12.8c-5-6-7.3-13.8-7.3-23.8c0-9.4,2.6-17.2,7.6-23.8s11.7-11.2,20.4-14.4c8.6-3.1,18-4.7,28.7-4.7
			c16.2,0,29.5,3.7,39.7,10.7c10.2,7,15.4,17.7,15.4,31.8v2.6h-30.5v-3.1H458.9z"/>
		<path class="st0" d="M595.4,288h-57.7l-10.2,28.5h-31.3l52.5-144.9h38.9L640,316.5h-34.2L595.4,288z M546.6,263.5h40.2
			c-5.2-15.9-11.7-34.7-19.3-56.6h-1.3L546.6,263.5z"/>
	</g>
	<g>
		<polyline class="st1" points="0.3,117.3 640,117.3 640,106.9 0.3,106.9 		"/>
	</g>
	<g>
		<polyline class="st1" points="0.3,373.1 640,373.1 640,362.7 0.3,362.7 		"/>
	</g>
</g>
</svg>
