<?xml version="1.0" encoding="utf-8"?>
<!-- Generator: Adobe Illustrator 22.1.0, SVG Export Plug-In . SVG Version: 6.00 Build 0)  -->
<svg version="1.1" id="Layer_1" xmlns="http://www.w3.org/2000/svg" xmlns:xlink="http://www.w3.org/1999/xlink" x="0px" y="0px"
	 viewBox="0 0 640 480" style="enable-background:new 0 0 640 480;" xml:space="preserve">
<style type="text/css">
	.st0{fill:#FDE100;}
</style>
<g>
	<path class="st0" d="M320,480C187.3,480,80,372.4,80,240C80,107.3,187.6,0,320.3,0c132.4,0,240,107.6,239.7,240.3
		C560,372.7,452.7,480,320,480z M320.3,10.7c-126.8,0.3-229,102.2-229,229s102.2,229,229,229c126.4,0,229-101.9,229-229
		C549.3,113.2,446.8,11,320.3,10.7z"/>
	<path d="M320.3,10.7c126.8,0.3,229,102.2,229,229.3c0,126.8-102.5,229-229,229s-229-102.2-229-229C91,113.2,193.6,11,320.3,10.7z
		 M320,23.6c-119.2-0.3-216.4,96.9-216.4,216.1c0,119.5,96.6,216.4,216.1,216.7c119.8,0,216.4-96.6,216.7-216.4
		C536.7,120.5,439.5,23.3,320,23.6z"/>
	<path class="st0" d="M320,23.6c119.2-0.3,216.4,96.9,216.4,216.4c0,119.8-96.9,216.4-216.7,216.4c-119.5,0-216.1-97.2-216.1-216.7
		C103.6,120.2,200.8,23.3,320,23.6z M485.1,238.1c0,0,0.3-0.3,0.6-0.6c10.7-12.9,15.1-27.4,12.9-43.7c-1.9-15.1-9.4-27.4-22-35.9
		c-9.1-6.3-19.5-9.8-30.8-9.8c-17.3,0-34.6,0-51.9,0c-0.9,0-1.6,0-2.8,0c0,2.8,0,5.7,0,8.2c0,56.6,0,112.9,0,169.5
		c0,1.6-0.3,2.8,2.2,2.8c18.6,0,37.4,0,56,0c6.3,0,12.6-1.3,18.6-3.8c28.6-12,40.9-47.5,25.5-74.5
		C490.5,245.7,487.7,242.2,485.1,238.1z M250.8,238.4c0.3-0.6,0.6-0.9,0.9-1.3c8.2-10.1,12.9-21.4,13.2-34.3
		c0.3-19.8-7.5-35.9-24.2-46.6c-8.8-5.7-18.6-8.5-28.9-8.5c-17.3,0.3-34.6,0-51.9,0c-0.9,0-1.6,0-2.8,0c0,0.9,0,1.9,0,2.5
		c0,14.2,0,28.6,0,42.8c0,44,0,88.4,0,132.4c0,1.6,0,2.5,2.2,2.5c18.6,0,36.8,0,55.4,0c4.4,0,8.8-0.6,12.9-1.9
		c30.5-8.5,46.6-43.1,33.3-72.7C258.3,248.2,254.9,243.1,250.8,238.4z M248,58.2c0.3,1.3,0.6,1.9,0.9,2.8c2.2,6.9,4.4,13.8,6.9,20.8
		c17,52.2,33.7,104.4,50.6,156.6c0.6,1.9,1.6,2.5,3.1,2.5c6.9,0,13.8,0,21.1,0c1.6,0,2.2-0.6,2.8-2.2c18.9-59.4,37.7-118.9,56.9-178
		c0.3-0.6,0.3-1.6,0.6-2.5c-0.9,0-1.6,0-2.2,0c-10.4,0-20.8,0-31.1,0c-1.9,0-2.5,0.6-2.8,2.2c-10.4,35.9-20.8,71.4-31.1,107.3
		c-0.9,3.8-2.2,7.5-3.5,11.6c-0.3-1.3-0.6-1.9-0.6-2.5c-11.3-39-22.6-77.7-33.7-116.7c-0.3-1.6-1.3-2.2-2.8-2.2
		c-7.9,0-15.7,0-23.6,0C255.5,58.2,252.1,58.2,248,58.2z M362.8,390c0,2.8,0.3,5.3,0.3,7.9c0,5-3.1,8.8-7.5,8.8
		c-5.3,0.3-8.5-2.5-8.8-8.2c-0.3-2.8-1.6-4.4-3.8-4.4c-4.7,0-9.1,0-13.8,0c-1.3,0-1.6,0.6-1.6,1.6c0.3,2.5,0,5.3,0.6,7.9
		c3.5,15.7,20.1,24.8,35.5,19.8c10.7-3.5,17.6-13.2,17.6-25.5c0-13.2,0-26.7,0-39.9c0-1.9-0.3-3.5-0.6-5.3
		c-2.8-13.2-13.2-21.4-26.4-21.1c-11.6,0.3-20.1,5.7-24.5,16.4c-3.5,8.2-3.1,16.7-0.3,24.8C332.9,383.7,346.7,395.1,362.8,390z
		 M311.5,378.4c0-6.6,0-13.5,0-20.1c0-17.3-16.7-30.2-33.7-25.8c-12.3,3.1-20.1,13.5-20.4,26.7c0,12.9,0,25.5,0,38.4
		c0,1.6,0,3.5,0.3,5c2.2,13.8,14.8,23.6,28.3,22.3c14.5-1.3,24.8-12.6,24.8-27.1C311.8,391.6,311.5,385,311.5,378.4z"/>
	<path d="M485.1,238.1c2.8,4.1,5.7,7.5,7.9,11.6c15.1,27.4,3.1,62.9-25.5,74.5c-6,2.5-12.3,3.8-18.6,3.8c-18.6,0-37.4,0-56,0
		c-2.2,0-2.2-1.3-2.2-2.8c0-56.6,0-112.9,0-169.5c0-2.5,0-5.3,0-8.2c1.3,0,1.9,0,2.8,0c17.3,0,34.6,0,51.9,0
		c11.3,0,21.7,3.5,30.8,9.8c12.6,8.5,20.1,20.8,22,35.9c2.2,16.4-2.2,31.1-12.9,43.7C485.5,237.8,485.1,238.1,485.1,238.1z
		 M424.7,254.2c0,0.6-0.3,0.9-0.3,1.3c0,13.2,0,26.1,0,39.3c0,1.6,0.6,1.6,1.9,1.6c6.9,0,14.2,0,21.1,0c8.5,0,16.4-6,18.2-14.2
		c1.9-7.2,0.6-14.2-3.8-20.4c-2.8-4.1-6.9-7.2-12-7.2c-6.9-0.3-13.5-0.3-20.4-0.3C428.2,254.2,426.6,254.2,424.7,254.2z
		 M424.7,182.1c0,13.2,0,26.4,0,39.6c0.9,0,1.6,0,2.5,0c7.5,0,14.8,0,22.3,0c6,0.3,10.4-2.5,13.5-7.2c5-7.2,5-18.6,0-26.1
		c-2.2-3.5-5.3-6.3-9.8-6.3C443.9,181.8,434.5,182.1,424.7,182.1z"/>
	<path d="M250.8,238.4c4.4,4.7,7.5,9.8,10.1,15.4c13.2,29.3-2.8,64.2-33.3,72.7c-4.1,1.3-8.8,1.9-12.9,1.9c-18.6,0.3-36.8,0-55.4,0
		c-2.2,0-2.2-0.9-2.2-2.5c0-44,0-88.4,0-132.4c0-14.2,0-28.6,0-42.8c0-0.9,0-1.6,0-2.5c1.3,0,1.9,0,2.8,0c17.3,0,34.6,0,51.9,0
		c10.7,0,20.1,2.8,28.9,8.5c17,10.7,24.8,26.7,24.2,46.6c-0.3,12.9-5,24.2-13.2,34.3C251.4,237.8,251.1,238.1,250.8,238.4z
		 M190.4,296.3c0.6,0,1.3,0,1.9,0c6.9,0,13.8,0,21.1,0c4.4,0,8.2-1.3,11.6-3.8c7.2-5.3,9.1-12.6,7.5-21.1
		c-1.9-11-9.1-17.3-20.1-17.3c-6.6,0-12.9,0-19.5,0c-0.6,0-1.6,0-2.2,0C190.4,268.3,190.4,282.1,190.4,296.3z M190.4,221.8
		c0.9,0,1.6,0,2.5,0c7.5,0,15.1,0,23,0c6,0,10.1-2.5,13.5-7.2c5.3-7.2,5-19.2,0-26.4c-2.8-4.1-6.6-6.3-11.6-6.3
		c-8.2,0-16.7,0-24.8,0c-0.6,0-1.3,0-2.2,0C190.4,195.3,190.4,208.5,190.4,221.8z"/>
	<path d="M248,58.2c3.8,0,7.5,0,11,0c7.9,0,15.7,0,23.6,0c1.6,0,2.2,0.3,2.8,2.2c11.3,39,22.3,77.7,33.7,116.7
		c0.3,0.6,0.3,1.3,0.6,2.5c1.3-4.4,2.5-7.9,3.5-11.6c10.4-35.9,20.8-71.4,31.1-107.3c0.6-1.6,1.3-2.2,2.8-2.2c10.4,0,20.8,0,31.1,0
		c0.6,0,1.3,0,2.2,0c-0.3,0.9-0.3,1.6-0.6,2.5c-18.9,59.4-38.1,118.9-56.9,178c-0.6,1.6-1.3,2.2-2.8,2.2c-6.9,0-13.8,0-21.1,0
		c-1.9,0-2.8-0.6-3.1-2.5c-16.7-52.2-33.7-104.4-50.6-156.6c-2.2-6.9-4.4-13.8-6.9-20.8C248.6,60.4,248.3,59.4,248,58.2z"/>
	<path d="M362.8,390c-16,5-30.2-6.3-33.7-17c-2.8-8.2-3.1-16.7,0.3-24.8c4.4-10.7,13.2-16,24.5-16.4c13.5-0.3,23.9,7.9,26.4,21.1
		c0.3,1.6,0.6,3.5,0.6,5.3c0,13.2,0,26.7,0,39.9c0,12.3-6.9,22-17.6,25.5c-15.4,5-32.4-4.1-35.5-19.8c-0.6-2.5-0.3-5.3-0.6-7.9
		c0-1.3,0.3-1.6,1.6-1.6c4.7,0,9.1,0,13.8,0c2.5,0,3.8,1.6,3.8,4.4c0.3,5.3,3.5,8.2,8.8,8.2c4.4,0,7.9-4.1,7.5-8.8
		C363.1,395.4,363.1,392.9,362.8,390z M346.4,361.4C346.4,361.4,346.7,361.4,346.4,361.4c0,0.9,0,1.9,0,2.5c0,4.1,3.1,7.5,7.9,7.9
		c3.8,0.3,7.5-2.2,8.5-6c0.6-2.5,0.6-5.3,0.3-8.2c-0.3-4.1-3.5-6.6-7.9-6.9c-3.5-0.3-7.5,2.2-8.5,5.7
		C346.7,358.3,346.7,359.8,346.4,361.4z"/>
	<path d="M311.5,378.4c0,6.6,0,12.9,0,19.5c0,14.5-10.7,25.8-24.8,27.1c-13.5,0.9-26.1-8.5-28.3-22.3c-0.3-1.6-0.3-3.5-0.3-5
		c0-12.9,0-25.5,0-38.4c0-13.2,8.2-23.6,20.4-26.7c16.7-4.4,33.3,8.5,33.7,25.8C311.8,364.9,311.5,371.8,311.5,378.4z M276.6,379
		L276.6,379c0,6.6,0,13.2,0,19.8c0,3.5,2.2,6.3,5.7,7.5c5.7,1.9,11-2.2,11-8.2c0-12.9,0-25.5,0-38.4c0-5-3.5-8.5-8.5-8.8
		c-3.8,0-8.2,2.8-8.2,8.8C276.6,366.1,276.6,372.7,276.6,379z"/>
	<path class="st0" d="M424.7,254.2c1.9,0,3.5,0,5,0c6.9,0,13.5,0,20.4,0.3c5.3,0.3,9.1,3.1,12,7.2c4.4,6.3,5.7,12.9,3.8,20.4
		c-2.2,8.2-10.1,14.2-18.2,14.2c-6.9,0-14.2,0-21.1,0c-1.3,0-1.9,0-1.9-1.6c0-13.2,0-26.1,0-39.3
		C424.4,255.1,424.4,254.8,424.7,254.2z"/>
	<path class="st0" d="M424.7,182.1c9.8,0,19.2-0.3,28.6,0c4.1,0,7.2,2.8,9.8,6.3c5,7.2,5,18.6,0,26.1c-3.1,4.7-7.5,7.5-13.5,7.2
		c-7.5-0.3-14.8,0-22.3,0c-0.6,0-1.6,0-2.5,0C424.7,208.5,424.7,195.3,424.7,182.1z"/>
	<path class="st0" d="M190.4,296.3c0-14.2,0-28,0-41.8c0.9,0,1.6,0,2.2,0c6.6,0,12.9,0,19.5,0c11,0,18.6,6.6,20.1,17.3
		c1.3,8.5-0.6,15.7-7.5,21.1c-3.5,2.5-7.2,3.8-11.6,3.8c-6.9,0-13.8,0-21.1,0C191.7,296.3,191,296.3,190.4,296.3z"/>
	<path class="st0" d="M190.4,221.8c0-13.2,0-26.4,0-39.6c0.6,0,1.6,0,2.2,0c8.2,0,16.7,0,24.8,0c5,0,8.8,2.2,11.6,6.3
		c5,7.5,5.3,19.2,0,26.4c-3.1,4.4-7.5,7.2-13.5,7.2c-7.5-0.3-15.1,0-23,0C192,221.8,191.3,221.8,190.4,221.8z"/>
	<path class="st0" d="M346.4,361.4c0-1.6,0-3.1,0.3-4.7c0.9-3.5,4.7-6,8.5-5.7c4.1,0.3,7.2,3.1,7.9,6.9c0.3,2.5,0.3,5.3-0.3,8.2
		c-0.6,3.8-4.7,6.6-8.5,6c-4.4-0.3-7.5-3.8-7.9-7.9C346.7,363.3,346.7,362.4,346.4,361.4C346.7,361.4,346.4,361.4,346.4,361.4z"/>
	<path class="st0" d="M276.6,379c0-6.3,0-12.9,0-19.2c-0.3-6,4.4-8.8,8.2-8.8c4.7,0,8.5,3.8,8.5,8.8c0,12.9,0,25.5,0,38.4
		c0,6-5.3,10.1-11,8.2c-3.5-0.9-5.7-3.8-5.7-7.5C276.6,392.2,276.6,385.6,276.6,379L276.6,379z"/>
</g>
</svg>
