<?xml version="1.0" encoding="utf-8"?>
<!-- Generator: Adobe Illustrator 21.1.0, SVG Export Plug-In . SVG Version: 6.00 Build 0)  -->
<svg version="1.1" id="Layer_1" xmlns="http://www.w3.org/2000/svg" xmlns:xlink="http://www.w3.org/1999/xlink" x="0px" y="0px"
	 viewBox="0 0 640 480" style="enable-background:new 0 0 640 480;" xml:space="preserve">
<style type="text/css">
	.st0{fill:#0357A5;}
	.st1{fill:#E95A11;}
	.st2{fill:#0299CB;}
</style>
<g>
	<path class="st0" d="M296.9,350.3c0.4,38.5-19.2,51.9-54.6,37.3c-52.8-21.8-107.7-102.8-107.5-158.8c0.1-37.1,21.2-50.4,56.6-35.6
		C242.4,214.4,296.4,294.9,296.9,350.3z"/>
	<path class="st1" d="M342.6,340.2c8.5-53.4,38.7-104.3,92.6-139.7c10.5-6.9,25.2-12.2,37.3-11.1c17.4,1.6,31.7,10,32.7,33
		c2.6,60.3-58.1,149.9-116,168.2C358.7,400.1,342.1,385.9,342.6,340.2z"/>
	<path class="st2" d="M317.8,205.7c-32.8-10.2-65.8-16.6-95-30.8c-31.5-15.3-30.7-47.7,0.5-63.7c63.5-32.5,128.8-33.1,192.3,0
		c32.5,16.9,32.7,49.5-1,65.3C385.2,190.3,351.9,195.8,317.8,205.7z"/>
</g>
<image style="overflow:visible;" width="294" height="298" xlink:href="cube-md.html"  transform="matrix(0.62 0 0 0.62 914 -235)">
</image>
<image style="overflow:visible;" width="200" height="200" xlink:href="safran.html"  transform="matrix(1 0 0 1 -395 280)">
</image>
<image style="overflow:visible;" width="200" height="200" xlink:href="veolia.html"  transform="matrix(1 0 0 1 914 367)">
</image>
</svg>
