<?xml version="1.0" encoding="utf-8"?>
<!-- Generator: Adobe Illustrator 22.1.0, SVG Export Plug-In . SVG Version: 6.00 Build 0)  -->
<svg version="1.1" id="Layer_1" xmlns="http://www.w3.org/2000/svg" xmlns:xlink="http://www.w3.org/1999/xlink" x="0px" y="0px"
	 viewBox="0 0 640 480" style="enable-background:new 0 0 640 480;" xml:space="preserve">
<style type="text/css">
	.st0{fill:#D40000;}
</style>
<g>
	<path class="st0" d="M172.4,207c-32.1,0-54.5,17.4-58.5,44.1c-4.2,25.9,11.9,41.8,44,41.8h0c33.6,0,55.7-18.2,59.7-45.1
		C222,222,206,207,172.4,207z M185.1,249.3c-2.2,13.7-10.7,21.2-22.1,21.2c-12.4,0-17.9-6.7-15.9-18.9h0
		c2.2-13.4,10.2-21.2,22.6-21.2C181.9,230.4,187.1,236.9,185.1,249.3z"/>
	<polygon class="st0" points="0,289.4 0,289.4 0,289.4 	"/>
	<path class="st0" d="M83.6,187.1h-61c-9,43.8-10.7,54.3-22.6,102.3l61.5,1c34.1,0.2,44.3-13.9,44.8-30.6
		c0.5-11.2-0.5-18.7-17.4-21.7c16.2-1.7,24.1-15.4,24.4-27.1C114,195.1,106,187.1,83.6,187.1z M75.1,273.2l-51-13.2l56.7-12.2
		L75.1,273.2z M34.1,230.2l5.7-25.4l51.3,12.7L34.1,230.2z"/>
	<path class="st0" d="M557.9,230.4c0.7-7.7-2.5-16.2-7.2-18.9c-4.2-3-12.4-4-19.7-4l-41.6,0.2L472,290.2h28.6l13.2-60.7
		c2.2-0.5,5-0.3,6.2-0.3c5.7,0,8,2,7.7,5.5c-1.5,8.7-9.7,7.7-14.4,7.7l2.5,19.7C536.5,265,556.1,254.8,557.9,230.4z"/>
	<path class="st0" d="M453.1,229.7c5.2,0.5,10.4,2.5,17.4,4.5l1.7-24.1c-9.5-2-18.2-2.2-25.4-2.2c-19.4,0.2-34.1,10.5-35.8,23.1
		c-1,8.7,1.5,15.7,8.7,21.7c7.5,6.5,13.2,10.5,12.7,13.9c-0.2,2-1.7,5.2-9,4.5c-4.7-0.7-12.4-1.2-20.9-4.7l0,0l-2,24.4
		c8.2,2.2,16.7,2,24.9,2c25.4,0,37.3-8.7,39.6-25.4c1.5-10-5.7-15.4-10.4-19.9c-2-1.7-4.5-3.7-6-5.2c-2.7-2.7-5.5-6.2-5.7-7
		C441.4,232.2,446.7,229.4,453.1,229.7z"/>
	<polygon class="st0" points="293.9,207.8 260.5,264.8 254.3,207.8 221.5,207.8 236.4,289.2 272.5,290.2 326.2,207.8 	"/>
	<path class="st0" d="M640,290.2c-5.2-26.6-12.2-55-16.4-82.4h-38.3c-2,3.7-3.7,7-5.5,9.7l-51,72.7h34.8c1.7-3.2,3.5-6.2,5.5-9.2
		l1.5-3.7h0l35.8,0.5l0.2,5.5c0,0.7,0.5,4.2,0.2,7H640z M583,256.8l16.2-26.6l3.2,26.4L583,256.8z"/>
	<polygon class="st0" points="314.8,289.7 314.8,289.7 314.8,289.7 	"/>
	<path class="st0" d="M399.9,229.2l4.5-21.4h-72.7c-7.5,35.1-10.7,51.5-16.9,81.9l72.4,0.5l4.2-20.7h-40.3l2-10.2
		c14.4-0.2,22.1,0,33.1,0l4.5-20.9h-33.1l2-9.2C374,228.9,385.7,229.4,399.9,229.2z"/>
</g>
</svg>
