<svg id="svg" version="1.1" width="705" height="500" xmlns="http://www.w3.org/2000/svg" xmlns:xlink="http://www.w3.org/1999/xlink" style="display: block;"><g id="svgg"><path id="path0" d="M193.762 83.408 C 194.329 84.034,194.909 84.429,195.052 84.286 C 195.360 83.979,193.742 82.270,193.144 82.270 C 192.917 82.270,193.195 82.782,193.762 83.408 M285.645 84.509 C 285.349 84.805,283.447 85.138,281.418 85.251 L 277.730 85.455 281.491 85.564 C 284.244 85.644,285.440 85.446,285.957 84.823 C 286.734 83.887,286.503 83.654,285.645 84.509 M198.523 85.277 C 198.775 85.528,200.614 85.652,202.611 85.555 L 206.241 85.377 202.153 85.100 C 199.905 84.947,198.271 85.027,198.523 85.277 M194.473 119.574 C 194.820 123.223,195.043 123.521,195.111 120.426 C 195.148 118.787,194.973 117.447,194.724 117.447 C 194.474 117.447,194.362 118.404,194.473 119.574 M204.188 136.564 C 204.541 137.249,205.083 137.966,205.393 138.158 C 206.365 138.759,206.010 137.880,204.753 136.572 L 203.548 135.319 204.188 136.564 M290.640 137.589 C 290.646 138.837,290.762 139.281,290.898 138.575 C 291.033 137.869,291.028 136.848,290.886 136.305 C 290.744 135.763,290.633 136.340,290.640 137.589 M274.988 165.485 C 274.394 166.079,274.546 167.376,275.211 167.376 C 275.541 167.376,275.636 167.092,275.422 166.745 C 275.207 166.398,275.384 165.891,275.814 165.619 C 276.244 165.347,276.319 165.120,275.981 165.115 C 275.643 165.110,275.196 165.277,274.988 165.485 M195.988 201.035 C 195.829 201.449,195.775 204.194,195.868 207.135 L 196.037 212.482 196.316 206.382 C 196.593 200.338,196.547 199.580,195.988 201.035 M258.723 201.702 C 258.723 202.482,258.821 203.121,258.941 203.121 C 259.061 203.121,259.281 202.482,259.430 201.702 C 259.579 200.922,259.481 200.284,259.212 200.284 C 258.943 200.284,258.723 200.922,258.723 201.702 M311.507 201.560 C 311.225 202.262,310.978 202.518,310.958 202.128 C 310.938 201.738,310.616 201.418,310.241 201.418 C 309.715 201.418,309.713 201.572,310.235 202.094 C 311.395 203.253,312.340 203.045,312.340 201.631 C 312.340 199.952,312.160 199.936,311.507 201.560 M319.564 206.525 C 319.564 207.617,319.681 208.064,319.824 207.518 C 319.966 206.972,319.966 206.078,319.824 205.532 C 319.681 204.986,319.564 205.433,319.564 206.525 M323.413 206.572 C 323.418 207.326,323.673 208.326,323.980 208.794 C 324.372 209.393,324.429 209.057,324.173 207.660 C 323.724 205.213,323.401 204.751,323.413 206.572 M255.904 208.652 C 255.914 208.887,256.616 209.568,257.465 210.167 L 259.007 211.256 257.632 209.742 C 256.186 208.150,255.875 207.954,255.904 208.652 M356.312 210.747 C 356.312 212.485,356.635 212.626,357.044 211.064 C 357.207 210.441,357.109 209.787,356.826 209.612 C 356.543 209.438,356.312 209.948,356.312 210.747 M311.680 211.386 C 311.492 211.875,311.602 212.539,311.925 212.861 C 312.328 213.265,312.485 212.987,312.426 211.972 C 312.327 210.272,312.158 210.139,311.680 211.386 " stroke="none" fill="#000000" fill-rule="evenodd"></path><path id="path1" d="M109.851 73.030 C 108.478 73.382,104.397 77.528,104.397 78.571 C 104.397 79.008,104.142 79.523,103.830 79.716 C 102.671 80.432,103.209 84.645,104.710 86.613 L 106.157 88.511 113.261 88.511 C 120.254 88.511,121.986 88.086,121.986 86.370 C 121.986 86.084,122.496 85.388,123.121 84.823 C 123.745 84.258,124.255 83.321,124.255 82.741 C 124.255 82.161,124.548 81.218,124.906 80.645 C 127.952 75.767,118.274 70.871,109.851 73.030 M112.624 93.050 C 112.431 93.362,111.203 93.623,109.896 93.629 C 108.588 93.636,106.453 94.125,105.153 94.716 C 103.852 95.306,102.598 95.620,102.367 95.413 C 102.135 95.205,102.129 95.355,102.354 95.745 C 102.578 96.135,102.492 96.454,102.161 96.454 C 101.155 96.454,99.594 98.345,98.265 101.171 C 96.605 104.702,97.143 105.754,104.185 112.738 C 107.266 115.795,110.150 119.256,111.059 120.988 C 111.920 122.629,112.804 124.107,113.023 124.272 C 113.242 124.438,113.594 125.650,113.805 126.967 C 114.015 128.284,114.410 129.362,114.682 129.362 C 114.955 129.362,115.177 130.255,115.177 131.348 C 115.177 132.440,115.433 133.333,115.745 133.333 C 116.057 133.333,116.312 134.723,116.312 136.420 C 116.312 138.118,116.567 139.665,116.879 139.858 C 117.226 140.072,117.447 144.486,117.447 151.206 C 117.447 157.925,117.226 162.339,116.879 162.553 C 116.541 162.762,116.312 166.425,116.312 171.631 C 116.312 176.837,116.541 180.500,116.879 180.709 C 117.191 180.902,117.447 181.946,117.447 183.030 C 117.447 187.784,120.955 186.006,121.586 180.932 C 121.835 178.937,122.282 177.220,122.579 177.116 C 122.877 177.012,123.121 176.310,123.121 175.556 C 123.121 174.801,123.316 174.184,123.554 174.184 C 124.010 174.184,125.957 170.043,125.957 169.074 C 125.957 168.764,126.213 168.511,126.525 168.511 C 126.837 168.511,127.092 168.000,127.092 167.376 C 127.092 166.752,127.287 166.241,127.526 166.241 C 127.981 166.241,129.929 162.100,129.929 161.131 C 129.929 160.821,130.184 160.567,130.496 160.567 C 130.809 160.567,131.064 160.057,131.064 159.433 C 131.064 158.809,131.319 158.298,131.631 158.298 C 131.943 158.298,132.199 157.944,132.199 157.512 C 132.199 157.079,132.580 155.994,133.046 155.100 C 133.512 154.206,133.895 153.028,133.897 152.482 C 133.899 151.936,134.156 151.489,134.468 151.489 C 134.780 151.489,135.035 150.979,135.035 150.355 C 135.035 149.730,135.291 149.220,135.603 149.220 C 135.915 149.220,136.170 148.724,136.170 148.119 C 136.170 147.513,136.397 146.877,136.673 146.706 C 136.950 146.535,137.344 145.499,137.550 144.403 C 137.756 143.308,138.168 142.411,138.465 142.411 C 138.763 142.411,139.007 141.788,139.007 141.026 C 139.007 140.265,139.262 139.484,139.574 139.291 C 139.887 139.098,140.142 138.317,140.142 137.555 C 140.142 136.793,140.368 136.170,140.645 136.170 C 140.921 136.170,141.284 135.468,141.450 134.610 C 141.615 133.752,142.051 131.901,142.417 130.496 C 143.255 127.286,142.857 113.868,141.853 111.489 C 140.255 107.700,139.824 106.911,138.869 106.033 C 138.321 105.528,137.872 104.788,137.872 104.387 C 137.872 103.453,131.741 97.589,130.763 97.589 C 130.357 97.589,129.939 97.397,129.835 97.163 C 129.353 96.079,124.214 94.038,121.277 93.764 C 119.482 93.596,118.014 93.240,118.014 92.971 C 118.014 92.285,113.052 92.358,112.624 93.050 " stroke="none" fill="#a72c32" fill-rule="evenodd"></path><path id="path2" d="M43.688 114.043 C 43.688 114.355,43.177 114.610,42.553 114.610 C 41.929 114.610,41.418 114.908,41.418 115.272 C 41.418 115.636,41.257 115.772,41.059 115.575 C 40.579 115.095,38.582 117.679,38.582 118.779 C 38.582 119.258,38.326 119.807,38.014 120.000 C 37.702 120.193,37.447 120.974,37.447 121.736 C 37.447 122.497,37.702 123.121,38.014 123.121 C 38.326 123.121,38.582 123.600,38.582 124.186 C 38.582 126.582,49.516 128.110,51.915 126.049 C 56.153 122.410,56.203 114.610,51.989 114.610 C 51.517 114.610,50.973 114.355,50.780 114.043 C 50.587 113.730,48.913 113.475,47.059 113.475 C 45.190 113.475,43.688 113.728,43.688 114.043 M41.702 129.929 C 41.509 130.241,40.728 130.496,39.967 130.496 C 39.205 130.496,38.582 130.689,38.582 130.925 C 38.582 131.161,37.828 131.688,36.906 132.096 C 35.985 132.504,35.074 133.332,34.882 133.936 C 34.690 134.541,34.295 135.035,34.004 135.035 C 33.713 135.035,33.475 136.283,33.475 137.808 C 33.475 140.514,33.582 140.688,37.943 145.042 C 42.419 149.513,45.390 153.551,45.390 155.166 C 45.390 155.640,45.645 156.028,45.957 156.028 C 46.270 156.028,46.525 156.645,46.525 157.400 C 46.525 158.154,46.757 158.856,47.041 158.960 C 48.123 159.356,48.726 171.337,48.394 185.835 C 48.028 201.838,48.206 203.121,50.800 203.121 C 51.945 203.121,52.200 202.838,52.207 201.560 C 52.212 200.702,52.556 199.106,52.973 198.014 C 53.390 196.922,54.071 195.135,54.488 194.043 C 54.904 192.950,55.176 191.958,55.092 191.836 C 55.008 191.715,55.152 191.460,55.413 191.269 C 56.145 190.733,60.142 182.744,60.142 181.816 C 60.142 181.363,60.350 180.993,60.603 180.993 C 60.857 180.993,61.415 180.099,61.844 179.007 C 62.273 177.915,62.802 177.021,63.020 177.021 C 63.239 177.021,63.590 175.872,63.800 174.468 C 64.011 173.064,64.394 171.915,64.653 171.915 C 64.911 171.915,65.462 170.766,65.877 169.362 C 66.291 167.957,66.806 166.809,67.021 166.809 C 67.236 166.809,67.587 165.532,67.801 163.972 C 68.016 162.411,68.396 161.135,68.646 161.135 C 69.571 161.135,70.679 151.020,69.846 150.186 C 69.501 149.842,69.220 148.462,69.220 147.121 C 69.220 145.779,68.965 144.681,68.652 144.681 C 68.340 144.681,68.085 144.078,68.085 143.342 C 68.085 142.030,65.597 137.773,64.612 137.400 C 64.338 137.296,64.113 136.958,64.113 136.650 C 64.113 136.035,62.699 134.468,62.144 134.468 C 61.953 134.468,61.262 133.970,60.609 133.362 C 59.956 132.753,58.690 132.094,57.796 131.898 C 56.902 131.702,56.170 131.306,56.170 131.019 C 56.170 130.731,55.547 130.496,54.785 130.496 C 54.024 130.496,53.243 130.241,53.050 129.929 C 52.856 129.616,50.313 129.362,47.376 129.362 C 44.439 129.362,41.896 129.616,41.702 129.929 " stroke="none" fill="#007a47" fill-rule="evenodd"></path><path id="path3" d="M167.059 83.972 C 167.059 93.177,167.137 96.943,167.233 92.340 C 167.328 87.738,167.328 80.206,167.233 75.603 C 167.137 71.000,167.059 74.766,167.059 83.972 M224.923 88.227 C 224.923 95.092,225.005 97.823,225.105 94.295 C 225.204 90.767,225.204 85.150,225.104 81.813 C 225.004 78.475,224.922 81.362,224.923 88.227 M167.059 127.376 C 167.059 136.426,167.138 140.048,167.233 135.426 C 167.329 130.804,167.328 123.400,167.233 118.972 C 167.137 114.545,167.059 118.326,167.059 127.376 M249.777 131.631 C 249.777 132.723,249.894 133.170,250.036 132.624 C 250.179 132.078,250.179 131.184,250.036 130.638 C 249.894 130.092,249.777 130.539,249.777 131.631 M48.431 174.184 C 48.431 177.149,48.527 178.362,48.644 176.879 C 48.761 175.397,48.761 172.972,48.644 171.489 C 48.527 170.007,48.431 171.220,48.431 174.184 " stroke="none" fill="#005555" fill-rule="evenodd"></path><path id="path4" d="M167.376 84.308 L 167.376 102.234 178.014 102.016 C 190.682 101.757,193.181 100.983,194.907 96.788 C 195.432 95.512,196.090 94.025,196.370 93.483 C 197.060 92.148,197.017 88.511,196.312 88.511 C 196.000 88.511,195.745 87.892,195.745 87.136 C 195.745 86.380,195.084 84.975,194.276 84.015 C 193.468 83.055,193.058 82.270,193.364 82.270 C 196.141 82.270,196.056 72.534,193.254 69.630 C 190.197 66.462,189.831 66.383,178.164 66.383 L 167.376 66.383 167.376 84.308 M186.657 75.726 C 187.962 78.166,185.751 79.391,180.000 79.414 L 175.319 79.433 175.319 76.879 L 175.319 74.326 180.613 74.326 C 185.661 74.326,185.942 74.391,186.657 75.726 M203.528 75.443 C 200.913 76.749,199.193 78.715,199.168 80.426 C 199.157 81.128,198.877 81.702,198.544 81.702 C 198.211 81.702,198.020 82.404,198.118 83.262 C 198.359 85.356,206.612 85.764,207.009 83.702 C 207.447 81.428,210.391 80.381,211.954 81.944 C 213.242 83.231,212.334 84.539,210.152 84.539 C 209.093 84.539,208.227 84.763,208.227 85.036 C 208.227 85.310,206.794 85.652,205.043 85.797 C 200.181 86.200,195.286 92.638,197.340 95.927 C 197.711 96.520,198.014 97.418,198.014 97.921 C 198.014 101.431,208.281 103.900,212.012 101.287 C 213.072 100.544,213.293 100.544,213.909 101.287 C 216.026 103.837,224.162 101.883,222.501 99.223 C 222.082 98.552,221.844 95.191,221.844 89.937 C 221.844 84.825,221.629 81.702,221.277 81.702 C 220.965 81.702,220.709 80.978,220.709 80.094 C 220.709 78.238,217.991 75.461,216.175 75.461 C 215.548 75.461,215.035 75.206,215.035 74.894 C 215.035 73.825,205.894 74.261,203.528 75.443 M235.910 74.966 C 235.769 75.389,233.923 75.574,230.472 75.511 L 225.248 75.416 225.248 88.796 L 225.248 102.177 229.362 102.011 L 233.475 101.844 233.618 93.617 C 233.804 82.865,235.776 79.215,239.616 82.515 L 241.135 83.820 241.135 92.974 L 241.135 102.128 245.390 102.128 L 249.645 102.128 249.645 91.291 C 249.645 78.822,249.315 77.539,245.600 75.556 C 243.045 74.192,236.304 73.782,235.910 74.966 M258.270 75.506 C 253.151 78.509,251.915 81.153,251.915 89.095 C 251.915 92.866,252.139 95.319,252.482 95.319 C 252.794 95.319,253.050 95.727,253.050 96.224 C 253.050 99.024,257.210 102.128,260.965 102.128 C 262.266 102.128,263.262 102.400,263.262 102.756 C 263.262 103.135,263.656 103.218,264.255 102.966 C 264.801 102.736,266.525 102.337,268.085 102.079 C 271.157 101.573,275.745 97.511,275.745 95.298 C 275.745 94.722,276.000 94.094,276.312 93.901 C 276.655 93.689,276.879 94.462,276.879 95.853 C 276.879 97.120,277.135 98.156,277.447 98.156 C 277.759 98.156,278.014 98.446,278.014 98.800 C 278.014 101.781,288.127 103.610,291.509 101.241 C 292.656 100.438,292.806 100.438,293.115 101.241 C 293.383 101.941,294.397 102.128,297.933 102.128 C 302.779 102.128,303.495 101.508,301.578 98.974 C 300.928 98.113,300.741 95.866,300.727 88.709 L 300.709 79.546 298.667 77.504 C 297.543 76.380,296.139 75.461,295.546 75.461 C 294.953 75.461,294.468 75.206,294.468 74.894 C 294.468 74.557,292.388 74.326,289.362 74.326 C 286.336 74.326,284.255 74.557,284.255 74.894 C 284.255 75.206,283.745 75.461,283.121 75.461 C 282.496 75.461,281.986 75.673,281.986 75.932 C 281.986 76.192,281.376 76.731,280.630 77.130 C 278.903 78.054,278.014 80.011,278.014 82.889 L 278.014 85.158 281.785 84.990 C 284.830 84.855,285.676 84.609,286.182 83.712 C 288.198 80.139,291.631 80.153,291.631 83.734 C 291.631 84.273,290.986 84.539,289.679 84.539 C 288.605 84.539,287.569 84.794,287.376 85.106 C 287.183 85.418,285.951 85.674,284.637 85.674 C 281.999 85.674,278.014 87.919,278.014 89.406 C 278.014 91.191,276.811 91.634,272.412 91.469 L 268.085 91.306 267.234 93.171 C 265.690 96.555,261.466 95.724,260.835 91.912 C 260.706 91.134,260.399 90.032,260.154 89.465 C 259.891 88.859,259.972 88.170,260.350 87.792 C 260.704 87.438,260.997 86.498,261.002 85.702 C 261.026 81.679,265.980 80.575,267.325 84.292 L 268.029 86.241 272.160 86.241 C 276.173 86.241,276.301 86.198,276.675 84.711 C 276.917 83.745,276.816 83.100,276.402 82.961 C 276.040 82.841,275.745 81.998,275.745 81.087 C 275.745 80.177,275.533 79.433,275.273 79.433 C 275.014 79.433,274.460 78.794,274.043 78.014 C 273.625 77.234,272.944 76.596,272.528 76.596 C 272.113 76.596,271.773 76.340,271.773 76.028 C 271.773 75.716,271.277 75.461,270.672 75.461 C 270.066 75.461,269.413 75.206,269.220 74.894 C 268.566 73.835,260.332 74.295,258.270 75.506 M186.460 88.223 C 189.489 91.252,186.192 94.164,179.716 94.176 L 175.319 94.184 175.319 90.780 L 175.319 87.376 180.466 87.376 C 184.273 87.376,185.833 87.596,186.460 88.223 M212.766 91.874 C 212.766 93.646,211.506 95.319,210.172 95.319 C 209.726 95.319,209.362 95.626,209.362 96.000 C 209.362 96.530,209.210 96.530,208.681 96.000 C 208.306 95.626,207.540 95.319,206.979 95.319 C 205.638 95.319,205.619 93.148,206.950 92.137 C 207.496 91.723,208.773 91.375,209.787 91.366 C 210.801 91.356,211.631 91.092,211.631 90.780 C 211.631 90.468,211.887 90.213,212.199 90.213 C 212.511 90.213,212.766 90.960,212.766 91.874 M292.766 90.747 C 292.766 91.040,292.544 91.418,292.272 91.586 C 292.000 91.754,291.624 92.663,291.435 93.605 C 291.204 94.761,290.755 95.319,290.057 95.319 C 289.487 95.319,288.715 95.626,288.340 96.000 C 287.892 96.448,287.660 96.471,287.660 96.066 C 287.660 95.728,287.167 95.323,286.566 95.165 C 284.338 94.583,286.038 91.348,288.571 91.348 C 289.630 91.348,290.496 91.092,290.496 90.780 C 290.496 90.468,291.007 90.213,291.631 90.213 C 292.255 90.213,292.766 90.453,292.766 90.747 M74.326 92.095 C 65.232 96.396,65.850 106.099,75.218 106.099 C 78.028 106.099,80.000 106.333,80.000 106.667 C 80.000 109.361,86.052 105.037,87.657 101.196 C 88.909 98.198,88.014 93.617,86.175 93.617 C 85.587 93.617,85.106 93.362,85.106 93.050 C 85.106 92.738,84.596 92.482,83.972 92.482 C 83.348 92.482,82.837 92.227,82.837 91.915 C 82.837 91.126,76.072 91.270,74.326 92.095 M167.376 127.376 L 167.376 145.248 171.631 145.248 L 175.887 145.248 175.887 139.291 L 175.887 133.333 180.676 133.333 C 183.310 133.333,185.623 133.078,185.816 132.766 C 186.008 132.454,186.877 132.199,187.745 132.199 C 189.972 132.199,194.043 128.158,194.043 125.947 C 194.043 125.054,194.249 124.195,194.502 124.039 C 194.754 123.882,194.776 122.272,194.550 120.459 C 194.323 118.646,194.116 116.780,194.088 116.312 C 193.996 114.739,190.017 110.638,188.582 110.638 C 187.841 110.638,187.234 110.383,187.234 110.071 C 187.234 109.714,183.546 109.504,177.305 109.504 L 167.376 109.504 167.376 127.376 M279.974 110.219 C 279.823 110.612,279.767 118.591,279.850 127.949 L 280.000 144.965 284.397 145.130 L 288.794 145.296 288.794 127.400 L 288.794 109.504 284.521 109.504 C 281.606 109.504,280.161 109.731,279.974 110.219 M69.806 111.509 C 68.723 111.993,67.702 112.570,67.536 112.791 C 67.370 113.011,66.759 113.452,66.179 113.770 C 63.955 114.991,61.197 121.986,62.940 121.986 C 63.232 121.986,63.626 122.480,63.818 123.083 C 64.009 123.687,66.452 126.469,69.246 129.265 C 72.040 132.062,74.326 134.584,74.326 134.870 C 74.326 135.155,74.796 135.893,75.370 136.509 C 75.944 137.125,76.878 139.152,77.445 141.013 C 78.012 142.874,78.691 144.640,78.954 144.936 C 79.217 145.233,79.433 146.296,79.433 147.300 C 79.433 148.304,79.746 149.230,80.129 149.357 C 80.667 149.537,80.793 154.767,80.683 172.370 C 80.542 194.819,80.557 195.167,81.726 196.336 C 83.388 197.998,84.372 196.996,84.852 193.152 C 85.064 191.457,85.463 190.071,85.739 190.071 C 86.015 190.071,86.241 189.433,86.241 188.652 C 86.241 187.872,86.468 187.234,86.745 187.234 C 87.023 187.234,87.417 186.340,87.622 185.248 C 87.827 184.156,88.238 183.262,88.536 183.262 C 88.834 183.262,89.078 182.893,89.078 182.442 C 89.078 181.990,89.972 180.096,91.064 178.233 C 92.156 176.369,93.050 174.441,93.050 173.947 C 93.050 173.453,93.305 173.050,93.617 173.050 C 93.929 173.050,94.184 172.747,94.184 172.378 C 94.184 172.008,94.728 170.540,95.393 169.115 C 98.580 162.283,99.284 160.629,100.244 157.730 C 100.812 156.014,101.406 154.482,101.563 154.326 C 102.031 153.864,103.262 150.065,103.262 149.085 C 103.262 148.587,103.582 148.073,103.972 147.943 C 106.734 147.023,104.374 125.493,101.138 122.087 C 100.746 121.675,100.426 121.120,100.426 120.855 C 100.426 120.227,95.376 115.177,94.748 115.177 C 94.482 115.177,93.928 114.858,93.516 114.468 C 89.839 110.990,75.081 109.148,69.806 111.509 M184.708 118.948 C 186.407 120.782,186.407 120.792,184.803 123.179 C 183.570 125.012,183.320 125.115,179.696 125.274 L 175.887 125.442 175.887 121.444 L 175.887 117.447 179.602 117.447 C 182.890 117.447,183.476 117.619,184.708 118.948 M203.121 118.014 C 203.121 118.326,202.531 118.582,201.810 118.582 C 199.987 118.582,197.091 121.595,195.435 125.216 C 193.976 128.406,193.391 136.170,194.610 136.170 C 194.922 136.170,195.177 136.809,195.177 137.589 C 195.177 138.369,195.433 139.007,195.745 139.007 C 196.057 139.007,196.312 139.498,196.312 140.098 C 196.312 141.515,200.680 145.248,202.338 145.248 C 203.044 145.248,203.779 145.504,203.972 145.816 C 204.164 146.128,205.967 146.383,207.977 146.383 C 210.035 146.383,211.631 146.135,211.631 145.816 C 211.631 145.504,212.145 145.248,212.774 145.248 C 216.060 145.248,220.709 140.274,220.709 136.758 C 220.709 135.810,220.965 135.035,221.277 135.035 C 221.589 135.035,221.844 133.646,221.844 131.948 C 221.844 130.250,221.589 128.703,221.277 128.511 C 220.965 128.318,220.709 127.500,220.709 126.693 C 220.709 124.507,217.965 120.577,215.649 119.447 C 214.531 118.902,213.174 118.229,212.632 117.951 C 211.267 117.253,203.121 117.306,203.121 118.014 M235.461 118.014 C 235.461 118.326,235.001 118.582,234.440 118.582 C 233.878 118.582,233.112 118.888,232.738 119.262 C 232.208 119.792,232.057 119.792,232.057 119.262 C 232.057 118.798,230.796 118.582,228.085 118.582 L 224.113 118.582 224.113 137.047 L 224.113 155.513 227.943 155.345 L 231.773 155.177 231.935 149.645 C 232.025 146.587,232.342 144.113,232.645 144.113 C 232.945 144.113,233.191 144.369,233.191 144.681 C 233.191 144.993,233.687 145.248,234.293 145.248 C 234.898 145.248,235.552 145.504,235.745 145.816 C 235.938 146.128,237.102 146.383,238.331 146.383 C 239.561 146.383,240.567 146.128,240.567 145.816 C 240.567 145.504,241.249 145.248,242.083 145.248 C 243.891 145.248,248.248 141.004,248.925 138.583 C 250.831 131.766,248.608 121.111,245.043 119.980 C 244.454 119.793,243.972 119.402,243.972 119.111 C 243.972 118.820,243.476 118.582,242.870 118.582 C 242.265 118.582,241.611 118.326,241.418 118.014 C 241.226 117.702,239.806 117.447,238.264 117.447 C 236.723 117.447,235.461 117.702,235.461 118.014 M259.291 117.943 C 259.291 118.216,258.589 118.596,257.730 118.786 C 253.525 119.720,250.490 125.222,250.511 131.875 C 250.524 136.165,251.539 140.142,252.621 140.142 C 252.857 140.142,253.050 140.480,253.050 140.894 C 253.050 141.807,255.413 144.113,256.349 144.113 C 256.719 144.113,257.021 144.369,257.021 144.681 C 257.021 144.993,257.645 145.248,258.406 145.248 C 259.168 145.248,259.949 145.504,260.142 145.816 C 260.335 146.128,262.122 146.383,264.113 146.383 C 266.105 146.383,267.892 146.128,268.085 145.816 C 268.278 145.504,269.038 145.248,269.773 145.248 C 271.356 145.248,275.745 141.366,275.745 139.967 C 275.745 139.439,275.949 139.007,276.198 139.007 C 277.041 139.007,278.014 135.257,278.014 132.008 C 278.014 128.722,276.954 124.255,276.174 124.255 C 275.938 124.255,275.745 123.960,275.745 123.599 C 275.745 122.503,271.372 118.582,270.149 118.582 C 269.519 118.582,268.845 118.326,268.652 118.014 C 268.222 117.318,259.291 117.250,259.291 117.943 M299.007 117.964 C 298.539 118.212,297.225 118.861,296.088 119.407 C 290.770 121.956,290.262 127.795,295.319 128.248 C 298.384 128.522,298.556 128.602,297.040 129.050 C 296.115 129.323,294.854 130.015,294.238 130.589 C 293.623 131.162,292.937 131.631,292.714 131.631 C 289.527 131.631,291.030 143.132,294.422 144.703 C 295.228 145.076,296.330 145.606,296.872 145.882 C 298.218 146.567,302.411 146.517,302.411 145.816 C 302.411 145.504,302.999 145.248,303.716 145.248 C 304.434 145.248,305.328 144.942,305.702 144.567 C 306.232 144.038,306.534 144.038,307.064 144.567 C 308.525 146.028,316.596 145.444,316.596 143.877 C 316.596 143.123,316.277 142.400,315.887 142.270 C 315.372 142.099,315.100 139.402,314.894 132.436 C 314.556 121.011,313.472 118.582,308.714 118.582 C 308.093 118.582,307.427 118.326,307.234 118.014 C 306.822 117.348,300.246 117.308,299.007 117.964 M328.567 118.644 C 327.235 119.434,326.516 119.593,326.246 119.157 C 326.003 118.763,324.380 118.590,321.935 118.695 L 318.014 118.865 318.014 131.915 L 318.014 144.965 322.270 144.965 L 326.525 144.965 326.809 136.897 C 327.137 127.556,327.358 127.109,331.943 126.521 L 334.854 126.148 334.519 128.038 C 334.335 129.078,334.032 130.793,333.846 131.848 C 333.646 132.987,333.761 133.923,334.130 134.151 C 334.472 134.362,334.752 135.541,334.752 136.771 C 334.752 138.001,335.007 139.007,335.319 139.007 C 335.631 139.007,335.887 139.410,335.887 139.902 C 335.887 141.061,338.939 144.113,340.098 144.113 C 340.590 144.113,340.993 144.369,340.993 144.681 C 340.993 144.993,341.616 145.248,342.378 145.248 C 343.140 145.248,343.921 145.504,344.113 145.816 C 344.306 146.128,345.838 146.383,347.518 146.383 C 349.197 146.383,350.729 146.128,350.922 145.816 C 351.115 145.504,351.896 145.248,352.658 145.248 C 353.419 145.248,354.043 144.993,354.043 144.681 C 354.043 144.369,354.318 144.113,354.654 144.113 C 355.593 144.113,358.582 140.909,358.582 139.902 C 358.582 139.410,358.855 139.007,359.188 139.007 C 359.522 139.007,359.714 138.433,359.614 137.730 C 359.347 135.852,351.992 135.495,350.375 137.282 C 348.126 139.768,342.695 138.017,342.695 134.806 C 342.695 134.620,346.525 134.468,351.206 134.468 L 359.716 134.468 359.716 130.610 C 359.716 126.995,358.839 123.702,357.872 123.692 C 357.638 123.690,357.447 123.270,357.447 122.760 C 357.447 121.449,354.805 119.160,352.839 118.766 C 351.928 118.584,351.045 118.213,350.877 117.941 C 348.975 114.864,335.887 120.330,335.887 124.201 C 335.887 126.694,334.771 124.083,334.637 121.277 L 334.468 117.730 332.482 117.614 C 331.321 117.546,329.695 117.974,328.567 118.644 M211.119 126.573 C 213.171 128.353,213.119 135.512,211.041 137.241 C 207.104 140.517,203.121 137.762,203.121 131.762 C 203.121 125.964,207.295 123.256,211.119 126.573 M238.919 126.383 C 242.775 131.186,241.085 138.440,236.110 138.440 C 232.071 138.440,230.246 130.193,233.553 126.886 C 235.288 125.151,237.745 124.920,238.919 126.383 M266.704 125.977 C 267.308 126.300,267.801 126.939,267.801 127.396 C 267.801 127.853,268.057 128.227,268.369 128.227 C 269.741 128.227,268.991 134.984,267.424 136.743 C 265.022 139.438,259.858 138.597,259.858 135.510 C 259.858 134.974,259.603 134.377,259.291 134.184 C 258.979 133.992,258.723 132.970,258.723 131.915 C 258.723 130.860,258.979 129.838,259.291 129.645 C 259.603 129.453,259.858 128.930,259.858 128.484 C 259.858 125.979,263.925 124.490,266.704 125.977 M305.816 126.459 C 305.816 127.087,305.290 127.668,304.539 127.869 C 302.528 128.408,299.574 128.283,299.574 127.660 C 299.574 127.348,299.830 127.092,300.142 127.092 C 300.454 127.092,300.709 126.709,300.709 126.241 C 300.709 125.611,301.371 125.390,303.262 125.390 C 305.385 125.390,305.816 125.570,305.816 126.459 M349.848 126.383 C 351.089 128.017,350.792 128.227,347.234 128.227 C 343.853 128.227,343.513 128.011,344.174 126.288 C 344.668 125.000,348.852 125.070,349.848 126.383 M306.448 135.487 C 306.100 135.603,305.816 136.013,305.816 136.399 C 305.816 138.494,301.845 140.224,300.385 138.764 C 298.493 136.872,300.342 134.483,303.715 134.459 C 304.402 134.455,305.348 134.206,305.816 133.907 C 306.439 133.508,306.722 133.619,306.873 134.320 C 306.987 134.846,306.795 135.371,306.448 135.487 M195.556 155.839 C 194.894 156.500,195.145 163.145,195.858 163.858 C 197.284 165.284,203.083 164.711,203.702 163.084 C 204.321 161.455,204.437 157.729,203.911 156.358 C 203.556 155.433,196.406 154.989,195.556 155.839 M183.262 161.459 C 183.262 165.880,183.181 166.241,182.371 165.431 C 179.034 162.094,168.556 165.873,167.577 170.766 C 167.389 171.710,167.011 172.482,166.738 172.482 C 166.465 172.482,166.241 175.291,166.241 178.723 C 166.241 182.506,166.465 184.965,166.809 184.965 C 167.121 184.965,167.376 185.327,167.376 185.770 C 167.376 187.281,169.359 190.085,170.922 190.784 C 171.780 191.168,172.482 191.676,172.482 191.912 C 172.482 192.147,174.652 192.340,177.305 192.340 C 180.142 192.340,182.128 192.107,182.128 191.773 C 182.128 191.461,182.638 191.206,183.262 191.206 C 183.887 191.206,184.397 191.461,184.397 191.773 C 184.397 192.093,186.005 192.340,188.085 192.340 L 191.773 192.340 191.773 174.468 L 191.773 156.596 187.518 156.596 L 183.262 156.596 183.262 161.459 M216.738 173.571 C 216.738 193.750,216.413 192.340,221.054 192.340 L 224.681 192.340 224.717 181.135 C 224.742 173.166,224.914 170.334,225.312 171.332 C 225.620 172.103,226.051 172.869,226.269 173.034 C 226.820 173.449,228.451 176.249,229.914 179.291 C 230.590 180.695,231.284 181.972,231.458 182.128 C 231.926 182.549,233.033 184.423,234.139 186.667 C 234.678 187.759,235.260 188.780,235.432 188.936 C 235.605 189.092,236.108 189.922,236.551 190.780 C 237.317 192.267,237.550 192.340,241.514 192.340 L 245.674 192.340 245.674 174.468 L 245.674 156.596 241.702 156.596 L 237.730 156.596 237.730 166.525 C 237.730 177.046,237.525 177.841,235.787 174.028 C 235.187 172.710,234.548 171.504,234.369 171.348 C 234.189 171.191,233.413 169.814,232.644 168.287 C 231.875 166.760,230.971 165.228,230.636 164.883 C 230.302 164.538,229.555 163.234,228.977 161.986 C 226.592 156.838,226.245 156.596,221.238 156.596 L 216.738 156.596 216.738 173.571 M255.534 165.354 C 248.234 168.531,246.542 183.068,252.757 189.220 C 257.887 194.298,266.758 194.193,272.482 188.987 C 273.652 187.923,274.610 186.582,274.610 186.008 C 274.610 185.434,274.865 184.965,275.177 184.965 C 275.489 184.965,275.745 183.940,275.745 182.687 C 275.745 181.435,276.061 179.903,276.449 179.283 C 277.009 178.386,277.009 177.926,276.449 177.029 C 276.061 176.409,275.745 175.268,275.745 174.493 C 275.745 171.701,272.349 166.895,269.304 165.375 C 267.130 164.291,258.010 164.277,255.534 165.354 M306.266 165.470 C 304.966 166.010,303.885 166.973,303.433 167.994 C 303.031 168.902,302.509 169.645,302.273 169.645 C 302.037 169.645,301.844 170.907,301.844 172.450 L 301.844 175.254 304.255 175.447 C 306.206 175.604,306.450 175.736,305.532 176.138 C 299.425 178.814,298.822 188.371,304.553 191.631 C 305.965 192.434,314.326 192.612,314.326 191.839 C 314.326 190.932,316.580 190.710,317.061 191.570 C 317.412 192.198,318.470 192.356,321.457 192.227 L 325.390 192.057 325.568 190.213 C 325.668 189.177,325.481 188.369,325.142 188.369 C 324.741 188.369,324.539 185.317,324.539 179.263 C 324.539 168.666,324.136 167.343,320.388 165.642 C 317.366 164.270,309.393 164.173,306.266 165.470 M337.936 165.386 C 337.158 165.975,336.571 166.040,335.793 165.624 C 335.204 165.309,333.261 165.127,331.475 165.220 L 328.227 165.390 328.227 178.723 L 328.227 192.057 331.026 192.234 C 336.640 192.589,336.454 192.879,336.454 183.793 C 336.454 174.296,337.076 173.050,341.818 173.050 L 344.397 173.050 344.397 168.794 L 344.397 164.539 341.702 164.557 C 340.220 164.567,338.525 164.940,337.936 165.386 M349.787 165.500 C 347.420 166.773,345.713 168.896,345.126 171.296 C 344.316 174.610,344.698 175.233,347.695 175.475 C 349.837 175.649,350.106 175.778,349.078 176.138 C 348.376 176.385,347.801 176.812,347.801 177.087 C 347.801 177.363,347.523 177.589,347.183 177.589 C 342.343 177.589,343.160 189.034,348.190 191.687 C 349.635 192.449,357.447 192.578,357.447 191.839 C 357.447 190.971,360.240 190.753,360.917 191.569 C 361.550 192.332,366.726 192.663,368.340 192.044 C 369.239 191.699,369.081 173.187,368.171 172.227 C 367.890 171.930,367.660 171.104,367.660 170.389 C 367.660 165.665,355.611 162.368,349.787 165.500 M195.887 165.482 C 194.699 165.961,194.880 191.538,196.075 191.996 C 197.648 192.600,202.868 192.366,203.574 191.660 C 204.728 190.506,204.524 165.898,203.358 165.451 C 202.302 165.046,196.912 165.068,195.887 165.482 M275.888 165.482 C 275.160 165.775,275.348 167.610,276.356 170.071 C 277.513 172.892,277.934 174.020,278.849 176.738 C 279.375 178.298,280.074 180.213,280.404 180.993 C 281.167 182.800,281.573 183.949,282.812 187.801 C 284.211 192.152,284.446 192.340,288.492 192.340 C 292.690 192.340,293.237 191.868,294.729 186.950 C 295.297 185.078,296.016 182.908,296.326 182.128 C 296.636 181.348,297.091 180.199,297.337 179.574 C 297.583 178.950,298.214 177.163,298.739 175.603 C 299.955 171.992,300.392 170.848,301.257 169.011 C 302.645 166.060,301.987 165.408,297.433 165.223 C 293.884 165.079,293.273 165.197,293.000 166.074 C 292.826 166.634,292.458 167.517,292.183 168.036 C 291.908 168.554,291.511 170.278,291.301 171.865 C 291.090 173.453,290.711 174.752,290.459 174.752 C 290.207 174.752,289.921 175.579,289.823 176.591 C 289.578 179.126,287.660 179.574,287.660 177.096 C 287.660 176.156,287.438 175.249,287.167 175.082 C 286.896 174.914,286.501 173.473,286.290 171.878 C 286.078 170.284,285.680 168.554,285.405 168.036 C 285.130 167.517,284.767 166.645,284.598 166.099 C 284.296 165.122,277.902 164.669,275.888 165.482 M265.123 172.699 C 271.023 178.167,265.363 189.251,259.393 183.921 C 257.555 182.281,256.540 174.752,258.156 174.752 C 258.468 174.752,258.724 174.433,258.724 174.043 C 258.728 171.807,263.157 170.877,265.123 172.699 M315.334 172.015 C 316.252 172.933,315.158 174.184,313.439 174.184 C 312.716 174.184,311.966 174.440,311.773 174.752 C 311.134 175.785,309.214 175.427,309.627 174.351 C 310.667 171.641,313.713 170.394,315.334 172.015 M358.824 172.211 C 360.156 173.219,359.870 173.554,357.066 174.273 C 354.128 175.027,351.898 175.399,352.766 174.991 C 353.156 174.807,353.475 174.219,353.475 173.683 C 353.475 171.438,356.648 170.564,358.824 172.211 M182.120 173.610 C 184.447 175.629,183.684 184.397,181.181 184.397 C 180.765 184.397,180.426 184.652,180.426 184.965 C 180.426 187.374,175.954 184.418,175.052 181.413 C 173.126 174.992,177.784 169.850,182.120 173.610 M316.028 181.305 C 316.028 183.066,314.310 185.531,313.035 185.599 C 310.504 185.734,309.259 185.116,309.229 183.710 C 309.213 183.007,311.640 181.019,312.138 181.327 C 312.400 181.489,313.064 181.360,313.613 181.041 C 315.065 180.195,316.028 180.300,316.028 181.305 M359.716 181.231 C 359.716 182.699,357.752 185.487,356.597 185.657 C 350.936 186.490,350.877 182.769,356.527 181.190 C 359.678 180.310,359.716 180.310,359.716 181.231 M168.085 201.750 C 164.971 204.204,165.883 212.199,169.277 212.199 C 169.755 212.199,170.304 212.454,170.496 212.766 C 170.970 213.533,173.238 213.486,174.030 212.693 C 174.382 212.341,175.838 212.076,177.264 212.105 C 179.811 212.156,179.859 212.124,179.888 210.334 C 179.917 208.530,179.927 208.524,180.788 209.757 C 182.644 212.414,183.802 213.422,184.783 213.233 C 186.255 212.950,186.362 211.298,185.003 209.839 C 183.661 208.399,183.640 208.310,183.808 204.692 C 183.970 201.194,182.985 200.157,179.724 200.393 L 177.305 200.567 177.136 203.160 C 176.972 205.678,176.919 205.746,175.299 205.508 C 173.459 205.238,172.381 206.651,173.542 207.811 C 174.433 208.703,174.344 209.362,173.333 209.362 C 172.865 209.362,172.482 209.619,172.482 209.934 C 172.482 210.277,171.970 210.220,171.206 209.792 C 169.500 208.838,169.097 208.214,169.087 206.509 C 169.073 204.240,172.335 202.073,173.333 203.688 C 173.924 204.644,175.222 204.319,175.603 203.119 C 176.538 200.173,171.297 199.218,168.085 201.750 M186.478 200.662 C 185.908 201.232,186.023 209.929,186.600 209.929 C 186.876 209.929,187.235 210.440,187.398 211.064 C 187.562 211.688,188.102 212.199,188.599 212.199 C 189.097 212.199,189.504 212.454,189.504 212.766 C 189.504 213.078,190.270 213.333,191.206 213.333 C 192.142 213.333,192.908 213.139,192.908 212.900 C 192.908 212.662,193.482 212.216,194.184 211.908 C 196.027 211.099,196.498 200.284,194.691 200.284 C 193.256 200.284,192.908 201.333,192.908 205.659 C 192.908 209.643,191.932 210.762,189.989 209.004 C 189.159 208.253,188.936 207.230,188.936 204.167 C 188.936 200.364,188.046 199.094,186.478 200.662 M196.690 200.662 C 195.635 201.717,196.300 212.686,197.442 213.048 C 199.261 213.625,199.834 212.871,199.423 210.438 C 199.118 208.633,199.216 208.227,199.958 208.227 C 200.988 208.227,203.196 207.092,203.821 206.241 C 204.050 205.929,204.242 207.252,204.247 209.182 C 204.254 212.256,204.404 212.737,205.461 213.072 C 207.023 213.568,207.644 212.543,207.251 210.120 C 207.023 208.713,207.152 208.227,207.756 208.227 C 209.318 208.227,211.589 206.799,211.816 205.674 C 211.941 205.050,212.079 205.590,212.121 206.874 C 212.383 214.776,224.111 214.337,224.113 206.424 C 224.114 200.752,217.710 198.306,213.604 202.411 C 212.434 203.582,211.635 204.251,211.829 203.898 C 212.022 203.546,211.499 202.576,210.666 201.743 C 208.688 199.765,204.649 199.793,204.365 201.787 L 204.191 203.007 202.722 201.645 C 201.301 200.328,197.624 199.729,196.690 200.662 M231.300 200.662 C 231.092 200.870,230.922 203.551,230.922 206.619 L 230.922 212.199 234.235 212.199 C 237.235 212.199,237.611 212.062,238.207 210.753 C 239.015 208.979,239.062 207.092,238.298 207.092 C 237.986 207.092,237.730 205.973,237.730 204.604 C 237.730 201.332,233.329 198.633,231.300 200.662 M242.374 203.273 C 241.692 204.918,241.135 206.577,241.135 206.961 C 241.135 207.345,240.879 207.660,240.567 207.660 C 240.255 207.660,240.000 208.155,240.000 208.761 C 240.000 209.367,239.745 210.020,239.433 210.213 C 238.418 210.840,238.834 212.199,240.041 212.199 C 241.316 212.199,242.837 210.966,242.837 209.934 C 242.837 208.608,246.511 209.547,246.706 210.922 C 246.871 212.082,247.195 212.199,250.252 212.199 L 253.617 212.199 253.618 208.652 L 253.618 205.106 255.099 206.809 C 255.913 207.745,257.486 209.609,258.595 210.951 C 261.333 214.268,261.952 213.493,262.240 206.384 C 262.439 201.457,262.353 200.819,261.450 200.532 C 259.691 199.974,259.241 200.768,259.634 203.730 C 259.838 205.267,259.844 206.525,259.647 206.525 C 259.112 206.525,254.752 201.925,254.752 201.361 C 254.752 201.092,254.086 200.706,253.272 200.501 C 251.213 199.984,250.799 200.917,250.789 206.099 C 250.780 210.329,250.120 211.883,249.463 209.220 C 248.808 206.568,247.650 203.688,247.237 203.688 C 247.001 203.688,246.809 203.287,246.809 202.796 C 246.809 201.694,245.457 200.284,244.400 200.284 C 243.967 200.284,243.055 201.629,242.374 203.273 M266.446 200.941 C 261.442 203.847,261.376 212.199,266.357 212.199 C 266.839 212.199,267.234 212.454,267.234 212.766 C 267.234 213.554,269.539 213.475,271.372 212.624 C 273.444 211.662,273.526 209.362,271.489 209.362 C 270.709 209.362,270.071 209.617,270.071 209.929 C 270.071 210.940,268.247 210.530,267.159 209.275 C 264.665 206.399,267.849 201.125,270.487 203.763 C 271.337 204.614,272.908 203.973,272.908 202.775 C 272.908 200.666,268.885 199.524,266.446 200.941 M276.620 201.026 C 274.694 202.198,274.043 203.004,274.043 204.215 C 274.043 204.861,273.787 205.390,273.475 205.390 C 273.163 205.390,272.908 206.028,272.908 206.809 C 272.908 207.589,273.163 208.227,273.475 208.227 C 273.787 208.227,274.051 208.546,274.061 208.936 C 274.151 212.308,281.862 213.694,284.175 210.753 C 288.421 205.356,282.350 197.540,276.620 201.026 M291.976 201.181 C 291.447 202.559,291.584 211.813,292.146 212.701 C 293.225 214.404,295.603 212.966,295.603 210.610 C 295.603 208.510,298.913 205.958,299.470 207.629 C 301.841 214.742,311.489 213.800,311.489 206.455 C 311.489 199.607,303.770 197.900,300.264 203.972 C 299.647 205.041,299.608 205.020,299.592 203.611 C 299.560 200.845,292.918 198.726,291.976 201.181 M312.574 200.709 C 312.378 202.370,312.582 212.913,312.815 213.146 C 313.851 214.182,315.461 212.547,315.461 210.458 C 315.461 208.718,315.680 208.223,316.454 208.209 C 319.690 208.150,320.847 202.363,317.897 200.993 C 316.229 200.218,312.654 200.028,312.574 200.709 M323.972 200.851 C 323.972 201.163,323.516 201.418,322.959 201.418 C 320.695 201.418,319.182 206.765,320.660 209.541 C 322.826 213.608,331.600 213.002,331.990 208.758 C 332.031 208.310,332.222 208.837,332.415 209.929 L 332.766 211.915 338.295 212.024 C 343.725 212.132,343.831 212.109,344.172 210.748 C 344.709 208.610,348.936 208.944,348.936 211.125 C 348.936 211.949,349.348 212.199,350.709 212.199 C 352.486 212.199,352.897 208.903,351.193 208.322 C 350.888 208.217,350.638 207.795,350.638 207.382 C 350.638 206.970,350.149 205.650,349.550 204.451 C 348.952 203.251,348.322 201.823,348.150 201.277 C 347.573 199.446,345.548 200.098,344.625 202.411 C 344.158 203.582,343.301 205.560,342.721 206.809 C 342.140 208.057,341.475 209.589,341.241 210.213 C 340.863 211.226,340.792 211.242,340.580 210.355 C 340.317 209.258,339.550 209.050,339.007 209.929 C 337.518 212.339,335.887 210.435,335.887 206.288 C 335.887 201.349,335.576 200.284,334.135 200.284 C 333.129 200.284,332.941 200.664,332.310 203.972 C 332.122 204.955,332.005 204.891,331.430 203.491 C 331.065 202.603,330.259 201.743,329.639 201.581 C 329.018 201.419,328.511 201.061,328.511 200.785 C 328.511 200.509,327.489 200.284,326.241 200.284 C 324.993 200.284,323.972 200.539,323.972 200.851 M353.286 200.662 C 353.078 200.870,352.908 203.551,352.908 206.619 L 352.908 212.199 354.572 212.199 C 355.957 212.199,356.267 211.942,356.416 210.670 L 356.596 209.142 358.014 211.234 C 359.390 213.263,360.985 213.926,361.702 212.766 C 361.895 212.454,363.953 212.199,366.275 212.199 C 370.075 212.199,370.496 212.089,370.496 211.097 C 370.496 209.714,369.464 209.032,368.631 209.865 C 367.264 211.232,365.390 210.613,365.390 208.794 C 365.390 207.227,365.548 207.092,367.376 207.092 C 368.468 207.092,369.362 206.858,369.362 206.571 C 369.362 205.078,368.534 204.255,367.031 204.255 C 366.129 204.255,365.390 204.000,365.390 203.688 C 365.390 203.376,366.301 203.121,367.415 203.121 C 369.191 203.121,369.418 202.963,369.259 201.844 C 369.096 200.697,368.762 200.567,365.957 200.567 L 362.837 200.567 362.553 205.862 L 362.270 211.157 360.476 209.127 C 359.487 208.007,358.932 206.943,359.239 206.753 C 361.003 205.663,360.676 202.581,358.631 201.011 C 357.672 200.275,353.918 200.030,353.286 200.662 M180.993 203.938 C 180.993 204.388,180.738 204.914,180.426 205.106 C 180.113 205.299,179.858 204.931,179.858 204.289 C 179.858 203.646,180.113 203.121,180.426 203.121 C 180.738 203.121,180.993 203.488,180.993 203.938 M200.851 204.255 C 200.851 204.886,200.473 205.390,200.000 205.390 C 199.527 205.390,199.149 204.886,199.149 204.255 C 199.149 203.625,199.527 203.121,200.000 203.121 C 200.473 203.121,200.851 203.625,200.851 204.255 M208.511 204.255 C 208.511 204.671,208.191 205.118,207.801 205.248 C 207.380 205.389,207.092 204.987,207.092 204.255 C 207.092 203.524,207.380 203.122,207.801 203.262 C 208.191 203.392,208.511 203.839,208.511 204.255 M219.672 204.060 C 220.720 205.009,221.042 207.412,220.275 208.576 C 219.402 209.901,217.399 210.023,216.199 208.823 C 213.469 206.093,216.828 201.486,219.672 204.060 M281.147 203.903 C 283.343 206.099,282.321 209.504,279.466 209.504 C 277.629 209.504,276.900 208.599,276.888 206.304 C 276.874 203.728,279.495 202.251,281.147 203.903 M296.738 204.572 C 296.738 205.022,296.482 205.390,296.170 205.390 C 295.858 205.390,295.603 204.864,295.603 204.222 C 295.603 203.579,295.858 203.211,296.170 203.404 C 296.482 203.597,296.738 204.123,296.738 204.572 M307.660 203.910 C 309.081 204.989,308.932 207.922,307.384 209.364 C 306.687 210.014,306.027 210.280,305.918 209.954 C 305.810 209.628,305.368 209.362,304.937 209.362 C 303.093 209.362,302.488 206.236,303.972 204.378 C 305.102 202.963,306.224 202.821,307.660 203.910 M316.596 204.255 C 316.596 204.879,316.340 205.390,316.028 205.390 C 315.716 205.390,315.461 204.879,315.461 204.255 C 315.461 203.631,315.716 203.121,316.028 203.121 C 316.340 203.121,316.596 203.631,316.596 204.255 M328.240 204.479 C 329.373 206.209,328.853 208.439,327.038 209.629 C 326.288 210.120,325.674 210.261,325.674 209.942 C 325.674 209.623,325.296 209.362,324.834 209.362 C 323.635 209.362,323.152 206.801,323.976 204.812 C 324.858 202.682,326.955 202.518,328.240 204.479 M234.777 208.294 C 235.340 209.033,235.308 209.349,234.617 209.923 C 233.881 210.534,233.759 210.370,233.759 208.769 C 233.759 207.743,233.831 207.009,233.919 207.139 C 234.008 207.270,234.394 207.789,234.777 208.294 " stroke="none" fill="#062f5f" fill-rule="evenodd"></path></g></svg>