<?xml version="1.0" encoding="utf-8"?>
<!-- Generator: Adobe Illustrator 19.2.1, SVG Export Plug-In . SVG Version: 6.00 Build 0)  -->
<svg version="1.1" id="Layer_1" xmlns="http://www.w3.org/2000/svg" xmlns:xlink="http://www.w3.org/1999/xlink" x="0px" y="0px"
	 viewBox="0 0 640 480" style="enable-background:new 0 0 640 480;" xml:space="preserve">
<style type="text/css">
	.st0{fill:#D86540;}
	.st1{fill:#231F20;}
</style>
<g>
	<path class="st0" d="M214.9,5.2c81.1,0.2,162.2,0,243.3,0.1c-8.5,9.3-18.6,17.1-27.5,26.1C345.3,110.1,260,189.1,174.6,267.9
		c-16.1,14.6-31.7,29.7-48,44.1c0.7-4.1,1.7-8,2.9-11.9C158.2,201.8,186.1,103.4,214.9,5.2z"/>
	<path class="st1" d="M362.9,347.7c33-114.1,66.1-228.1,99.2-342.2c24.6,0.3,49.6-1.6,73.6,4.7c20.3,4.8,39.8,16.1,51,34.1
		c13.6,21.6,14.6,48.6,10.4,73c-5.5,30.2-19.1,60.4-43.9,79.5c-25.3,19.8-58.2,26-89.6,26.8c-0.8,2.7-1.6,5.4-2.3,8.1
		c25.7,0.9,52.7,10.1,69.3,30.8c16.5,20.1,20.1,47.7,16.4,72.8c-3.5,22.7-10.9,44.9-22.3,64.9c-13.2,23.2-33.6,42.2-57.7,53.6
		c-33.4,16.2-71.1,20.7-107.8,21.4c-106.8,0-213.6,0-320.4,0C143.6,377.7,248.3,280.1,353,182.6c-20.1,69.5-40.2,138.9-60.2,208.4
		c11.3-0.1,22.7,0.2,34.1-0.2c8.4-0.3,17.2-3.2,22.6-10C357,371.3,359.4,359.1,362.9,347.7z"/>
</g>
</svg>
