<?xml version="1.0" encoding="utf-8"?>
<!-- Generator: Adobe Illustrator 20.1.0, SVG Export Plug-In . SVG Version: 6.00 Build 0)  -->
<svg version="1.1" id="Layer_1" xmlns="http://www.w3.org/2000/svg" xmlns:xlink="http://www.w3.org/1999/xlink" x="0px" y="0px"
	 viewBox="0 0 640 480" style="enable-background:new 0 0 640 480;" xml:space="preserve">
<style type="text/css">
	.st0{fill:#FFD15D;}
	.st1{fill:#576573;}
	.st2{fill:#9EACBA;}
	.st3{fill:#B8C9D9;}
</style>
<path id="path1" class="st0" d="M236.5,32c-85.8,0.5-90.3,0.6-92.8,2.3c-9.2,6.2-8.9,20.6,0.5,26.4c3.2,2,22,3.2,24.5,1.6
	c0.6-0.4,76.1-0.6,167.9-0.5L503.5,62l2.9-2.3c8.1-6.5,7.7-18.3-0.8-25.4l-3.3-2.8h-87.8C366.2,31.6,286.1,31.8,236.5,32 M481,94.5
	c-0.5,0.8-45.5,0.9-166.4,0.3l-165.8-0.7l-4.3,2.5c-10.4,6.1-10,21.9,0.7,26.9c3.2,1.5,15.5,1.6,180,1.6l176.5,0l3.2-2
	c10.4-6.4,9.4-21.8-1.7-27.4C498,93.2,482.4,92.3,481,94.5 M146.6,387.4c-13.2,5.6-13.1,22.6,0.1,28.6c4.2,1.9,5.6,1.9,168.9,1.2
	c120.6-0.5,164.9-0.4,165.3,0.4c1.2,2,16.3,1.3,21.2-1c12.2-5.7,13.2-24.3,1.5-28.8C500.3,386.5,149.7,386.1,146.6,387.4 M148,449.8
	c-12.4,4.5-15.2,21.2-4.5,27.2c1.6,0.9,3,1.9,3.2,2.3c0.4,0.9,356,0.9,356,0c0-0.4,1.2-1.3,2.6-1.9c9.2-4.2,9.1-20.4-0.3-26.2
	l-3.2-2L326.2,449C211.1,448.9,149.7,449.2,148,449.8"/>
<path id="path2" class="st1" d="M247.5,63.5l-78.9,0.3v14.7v14.7l153.8,0.7c84.6,0.4,154.7,0.4,155.9,0.1c2.1-0.7,2.1-1,1.8-15.7
	l-0.3-15l-76.7,0C361,63.2,290.9,63.3,247.5,63.5 M168.6,256v130h155.9h155.9V256V126H324.5H168.6V256 M332.8,164.7
	c2.7,1.8,33.7,45.8,37,52.4c0.4,0.8,3.7,5.9,7.5,11.5c14.2,21.1,17.5,37.3,12.5,61c-0.3,1.6-1.7,5.2-2.9,7.9
	c-1.3,2.8-2.3,5.3-2.3,5.6c0,5.2-26.1,30.1-31.6,30.1c-0.6,0-1.8,0.4-2.7,0.9c-16.3,9.1-45.8,6.4-64.1-5.9
	c-8.7-5.9-22.9-22.9-24.8-29.8c-0.3-1.2-0.9-3-1.4-4c-8.1-19.6-4.1-43.5,10.9-65.7c2.7-4,5.1-7.6,5.4-8.2c0.3-0.5,4.4-6.7,9.1-13.7
	c4.7-7,9.1-13.5,9.7-14.6c0.6-1.1,1.8-2.7,2.6-3.7c0.9-1,1.6-2,1.6-2.3c0-1.5,12.9-19.2,15.6-21.3
	C319,161.6,327.9,161.5,332.8,164.7 M247,418.4l-78.4,0.3l0.3,14.6l0.3,14.6l155.6,0.2l155.6,0.2v-14.8c0-12.6-0.2-14.9-1.5-15.4
	c-0.8-0.3-35.7-0.5-77.5-0.3C359.7,418,290.2,418.2,247,418.4"/>
<path id="path3" class="st2" d="M368.4,1.3c0,0.5-1.2,1.2-2.6,1.6c-3.1,0.8-7.9,5.7-7.9,8.1c0,0.9-0.4,2-1,2.3c-0.5,0.3-1,4.6-1,9.6
	V32h46h46V21.9c0-5.7-0.5-11-1.1-12.2c-1.6-3.1-5.4-6.5-7.1-6.5c-0.8,0-1.8-0.6-2.1-1.4C437.2,0.1,368.4-0.4,368.4,1.3 M168.6,62.4
	c-0.4,0.4-0.6,7.6-0.6,16.1v15.5l117.3,0.6c165.4,0.9,195.5,0.8,195.5-0.4c0-0.6-0.8-0.8-2.1-0.4c-1.1,0.4-71.3,0.3-155.9-0.1
	l-153.8-0.7V78.6V63.9l154.8-0.7c85.2-0.4,155.3-0.4,155.9-0.1c0.6,0.4,1.1,0.2,1.1-0.4C480.6,61.7,169.7,61.3,168.6,62.4
	 M168.2,255.8l0.2,130.7l156.1,0l156.1,0l-155.9-0.2L168.9,386V256v-130l156.1-0.2l156.1-0.2l-156.6-0.2l-156.6-0.2L168.2,255.8
	 M314.9,165c-2.7,2.1-15.6,19.8-15.6,21.3c0,0.3-0.7,1.3-1.6,2.3c-0.9,1-2.1,2.6-2.6,3.7c-0.6,1.1-4.9,7.6-9.7,14.6
	c-4.7,7-8.8,13.1-9.1,13.7s-2.7,4.2-5.4,8.2c-11.6,17.1-14.3,25.3-14.3,42.7c0,11.5,0.7,16.6,3.4,23c0.4,1.1,1.1,2.9,1.4,4
	c5.5,19.6,38.1,42.1,60,41.4c3.8-0.1,3.9-0.2,1-0.5c-27.2-3-49.3-17.8-59.2-39.6c-6.6-14.6-7.6-36.7-2.3-50.4
	c2.1-5.3,8.3-17.1,9.8-18.4c0.9-0.9,1.7-1.9,1.7-2.4c0-0.5,0.4-1.4,1-2c2.4-2.8,16.3-23.9,16.3-24.7c0-0.5,0.4-0.9,0.8-0.9
	c0.4,0,1.4-1.2,2.2-2.6c0.7-1.4,5.1-8.1,9.8-14.8c4.6-6.7,8.4-12.4,8.4-12.7c0-8.5,21.7-9.1,26-0.6c0.7,1.4,2,3.3,3,4.4
	c0.9,1,1.7,2.3,1.7,2.9c0,0.6,1.5,2.7,3.4,4.8c1.8,2.1,3.3,4.1,3.3,4.5c0,0.4,3.9,6.4,8.6,13.3c4.7,6.9,8.6,13,8.6,13.4
	c0,0.5,0.4,0.9,1,0.9s1,0.4,1,1c0,0.5,0.4,1.5,1,2.2c1.8,2.2,11.5,16.9,11.5,17.5c0,0.3,1.1,2,2.4,3.7c1.3,1.7,2.4,3.9,2.4,4.7
	c0,0.9,0.4,1.6,1,1.6c0.5,0,1,0.9,1,1.9c0,1.1,0.4,2.7,0.9,3.6c3.7,7.1,3.7,34.2,0,43.2c-2.2,5.4-3.4,7.8-6.4,12.5
	c-1.7,2.8-3.1,5.3-3.1,5.6c0,1.8-14.5,14.6-19.7,17.3c-1.1,0.6-2.8,1.5-3.9,2c-5.6,3-12.7,5-26.4,7.4c-1.3,0.2,0.6,0.3,4.3,0.1
	c6.3-0.3,14.2-2.2,18-4.4c0.9-0.5,2.1-0.9,2.7-0.9c5.5,0,31.6-24.9,31.6-30.1c0-0.3,1-2.8,2.3-5.6c1.3-2.8,2.6-6.4,2.9-7.9
	c5.1-23.6,1.8-39.9-12.5-61c-3.8-5.6-7.1-10.8-7.5-11.5c-3.2-6.6-34.3-50.7-37-52.4C328.2,161.5,319.2,161.6,314.9,165 M324.5,257.7
	l0.2,49.2l4.3,0.3c2.3,0.2,5.1-0.1,6.2-0.6c1.1-0.5,3.7-1.7,5.8-2.6c5-2.2,13.3-10.7,16.5-17c3-5.7,4-24.2,1.5-26.8
	c-0.7-0.7-1.2-1.9-1.2-2.7c0-1.2-9.3-16-15-23.9c-0.9-1.2-2.1-3-2.6-4c-0.6-1-3.5-5.6-6.6-10.2c-3.1-4.6-5.8-9-6.1-9.7
	c-0.3-0.7-1.1-1.2-1.8-1.2C324.5,208.5,324.3,216.1,324.5,257.7 M245.4,417.4l-77.5,0.3l0.3,15.6l0.3,15.6l156.4,0l156.4,0
	l-155.9-0.5l-155.9-0.5l-0.3-14.5l-0.3-14.5l153.8-0.7c84.6-0.4,154.8-0.4,155.9-0.1c1.2,0.4,2.1,0.2,2.1-0.4
	C480.6,416.7,469.8,416.7,245.4,417.4"/>
<path id="path4" class="st3" d="M364.7,1.3c0,0.5-0.4,1-1,1c-4.9,0-8.6,9.1-8.4,20.4l0.2,9.8l0.3-9.1c0.2-5,0.7-9.5,1.2-10
	c0.5-0.5,0.9-1.6,0.9-2.5c0-2.3,4.9-7.3,7.9-8c3-0.7,3.6-2.5,0.7-2.5C365.6,0.4,364.7,0.8,364.7,1.3 M437.9,1.6
	c0.2,0.7,1.2,1.4,2.1,1.5c2,0.4,5.5,3.7,7.1,6.6c0.6,1.1,1.1,6.5,1.1,12.2c0,7.4,0.3,10,1.1,9.5c4.6-2.8-1.3-27.5-7-28.9
	c-1-0.3-1.8-0.8-1.8-1.3c0-0.5-0.7-0.8-1.5-0.8C438.2,0.4,437.7,0.9,437.9,1.6 M481.2,78.6c0,9,0.1,12.8,0.3,8.4
	c0.2-4.3,0.2-11.7,0-16.3C481.4,66.1,481.2,69.6,481.2,78.6 M167.5,79c0,8.7,0.1,12.3,0.3,7.9c0.2-4.4,0.2-11.5,0-15.8
	C167.7,66.8,167.5,70.3,167.5,79 M167.4,255.7c-0.1,71.6,0.1,130.4,0.5,130.6c0.7,0.4,0.6-89.4,0-213.8
	C167.7,146.7,167.5,184.1,167.4,255.7 M481.3,257c0,71.2,0.1,100.5,0.3,65.1c0.1-35.4,0.1-93.7,0-129.5
	C481.4,156.8,481.3,185.8,481.3,257 M317.5,164.8c-2.5,1.1-6.5,4.7-6.5,5.9c0,0.3-3.8,6.1-8.4,12.8c-4.6,6.7-9,13.4-9.8,14.8
	c-0.7,1.4-1.7,2.6-2.2,2.6c-0.4,0-0.8,0.4-0.8,0.9c0,0.8-13.9,21.9-16.3,24.7c-0.5,0.6-1,1.5-1,2c0,0.5-0.8,1.5-1.7,2.4
	c-1.5,1.4-7.8,13.1-9.8,18.4c-4.6,11.9-4.5,30.9,0.2,45.1c8.7,25.9,39.4,46.7,65,44.1c10.3-1,22-4.1,28.3-7.5c1.1-0.6,2.8-1.5,3.9-2
	c5.1-2.7,19.7-15.5,19.7-17.3c0-0.3,1.4-2.8,3.1-5.6c1.7-2.8,3.6-6.1,4.2-7.5c0.6-1.3,1.5-3.5,2.1-4.8c3.8-9,3.9-36.2,0.1-43.4
	c-0.5-0.9-0.9-2.5-0.9-3.6c0-1.1-0.4-1.9-1-1.9c-0.5,0-1-0.7-1-1.6c0-0.9-1.1-3-2.4-4.7c-1.3-1.7-2.4-3.4-2.4-3.7
	c0-0.6-9.7-15.3-11.5-17.5c-0.5-0.6-1-1.6-1-2.2c0-0.6-0.4-1-1-1c-0.5,0-1-0.4-1-0.9c0-0.5-3.9-6.5-8.6-13.4
	c-4.7-6.9-8.6-12.9-8.6-13.3c0-0.4-1.5-2.4-3.3-4.5c-1.8-2.1-3.3-4.3-3.4-4.8c0-0.6-0.8-1.9-1.7-2.9s-2.3-3-3-4.4
	C334.3,164.6,324,161.9,317.5,164.8 M327.6,209.8c0.3,0.7,3,5,6.1,9.7c3.1,4.6,6.1,9.2,6.6,10.2c0.6,1,1.7,2.8,2.6,4
	c5.7,7.9,15,22.6,15,23.9c0,0.8,0.6,2,1.2,2.7c2.5,2.5,1.5,21-1.5,26.8c-3.3,6.3-11.5,14.8-16.5,17c-2.1,0.9-4.7,2.1-5.8,2.6
	c-1.1,0.5-3.9,0.8-6.2,0.6l-4.3-0.3l-0.2-49.2c-0.2-41.7,0-49.2,1.1-49.2C326.5,208.5,327.3,209.1,327.6,209.8 M167.5,433
	c0,8.7,0.1,12.3,0.3,7.9c0.2-4.4,0.2-11.5,0-15.8C167.7,420.7,167.5,424.3,167.5,433 M481.2,433.5c0,7.4,0.2,10.3,0.3,6.4
	c0.2-3.8,0.2-9.9,0-13.4C481.3,423,481.2,426.1,481.2,433.5"/>
</svg>
