<?xml version="1.0" encoding="utf-8"?>
<!-- Generator: Adobe Illustrator 21.0.2, SVG Export Plug-In . SVG Version: 6.00 Build 0)  -->
<svg version="1.1" id="Layer_1" xmlns="http://www.w3.org/2000/svg" xmlns:xlink="http://www.w3.org/1999/xlink" x="0px" y="0px"
	 viewBox="0 0 640 480" style="enable-background:new 0 0 640 480;" xml:space="preserve">
<style type="text/css">
	.st0{fill:#FE0000;}
</style>
<path class="st0" d="M329.3,0.5c-1.7,14.8-1,30.6,3.3,43.4c5.7,17.2,13.6,29.6,42.7,67.5c30.7,40,40.6,54.5,47.9,75.2
	c6,16.9,6.1,26.7,3.5,42.1c26.9,5.1,71.1,19.4,100.6,37.2c27.4,16.9,47.4,38.8,54.7,60c4.3,12.6,4.1,32-0.4,44.2
	c-4.4,11.7-10.4,21.4-19.4,31.2c-35.4,38.8-105.5,66.7-190,75.5c-18.7,2-64.5,3.4-80.2,2.4c-112.8-6.6-203.6-45.5-229.4-98.5
	c-10.7-22-10.5-41,0.8-62.8c9.3-18,34.9-40.2,65-56.4c28.9-13.9,56.1-24.3,85.2-32.5c1.4,19,38.5,64.4,50.7,80.5
	c26.7,35,37.3,51.7,44.9,65.1c4.5,8,7.1,13.2,5.8,28.4c0,0,10.3-9.3,14.2-17.2c5-10.2,6.8-20.6,5.9-34c-1.2-16.1-3.9-25.9-11.6-41.7
	c-7.5-15.3-18.2-30.8-38.5-55.8c-28.8-35.3-39.4-54.7-43.8-79.8c-4.9-27.9,3-57.6,19.1-72.1c3.5-3.1,9.1-6.2,9.1-6.2
	s-0.5,7.2-0.5,15.4c0,17.3,2,26.3,8.6,39.5c8.2,16.4,19.7,31.7,54.6,73.3c31,36.9,40.6,55.6,40.6,79c0,5.5,0,11.3,0,11.3
	s8.2-6.2,12-12c12-18.1,13.9-46.4,4.8-71.4c-6.3-17.2-16.4-32.8-46.4-70.5c-30.6-38.4-43.4-69.2-43.4-94.8S305.3,15.8,329.3,0.5
	L329.3,0.5z"/>
</svg>
