<?xml version="1.0" encoding="utf-8"?>
<!-- Generator: Adobe Illustrator 22.1.0, SVG Export Plug-In . SVG Version: 6.00 Build 0)  -->
<svg version="1.1" id="Layer_2_1_" xmlns="http://www.w3.org/2000/svg" xmlns:xlink="http://www.w3.org/1999/xlink" x="0px" y="0px"
	 viewBox="0 0 640 480" style="enable-background:new 0 0 640 480;" xml:space="preserve">
<style type="text/css">
	.st0{fill:#0F6CB6;}
</style>
<g>
	<path id="path2967" class="st0" d="M358.8,266c58.7-13.3,108.7-41,149.1-82.6l-56.1-32.4c-33.7,33-81.4,64-147.4,77.8
		c-86.5,18.2-141,65.6-172.6,104.9l56,32.4C229.9,316.2,287.7,282.1,358.8,266"/>
	<path id="path2971" class="st0" d="M408.9,314.3c66.5-14.6,121.9-45.8,164.9-92.8l-56.2-32.4c-42.1,44.2-94.6,73.9-156.4,87.6
		c-79,17.5-123.7,57.8-123.7,57.8l55.8,32.2C322.8,344.1,360.7,324.7,408.9,314.3"/>
	<path id="path2975" class="st0" d="M260.7,113.6c-20.3,9.3-42.1,16.4-65.2,20.9C100.5,153.1,41.9,206,9.3,247.1
		c-3,3.8-5.8,7.5-8.5,11.3l56.5,32.6c1.2-1.7,2.4-3.2,3.7-4.9c29.7-38.4,66.2-68.5,107.6-89c42.7-21.2,71.4-23.2,100.5-31.4
		c32.6-9.1,50-18.7,50-18.7L260.7,113.6"/>
	<path id="path2979" class="st0" d="M302.1,218.3c62.1-13.1,107.4-41.9,139.8-72.9l-55.6-32c0,0-49.5,50.7-137.1,67.8
		C125.8,205.4,67.7,295.2,66.8,296.4l55.2,31.8C159,281.9,216.5,236.3,302.1,218.3"/>
	<path id="path2983" class="st0" d="M639.2,259.1L583.4,227c-31.7,35.1-69.8,61.9-114.1,79.9c-42,17.2-65.7,17.4-85.2,24.8
		l60.1,34.7C447.5,365.6,565.7,349.9,639.2,259.1"/>
</g>
</svg>
