<?xml version="1.0" encoding="utf-8"?>
<!-- Generator: Adobe Illustrator 22.1.0, SVG Export Plug-In . SVG Version: 6.00 Build 0)  -->
<svg version="1.1" id="Layer_2_1_" xmlns="http://www.w3.org/2000/svg" xmlns:xlink="http://www.w3.org/1999/xlink" x="0px" y="0px"
	 viewBox="0 0 640 480" style="enable-background:new 0 0 640 480;" xml:space="preserve">
<style type="text/css">
	.st0{fill:#F7931A;}
</style>
<path class="st0" d="M320,480C187.4,480,80,372.6,80,240S187.4,0,320,0s240,107.4,240,240S452.6,480,320,480z M412.3,218.5
	c-0.5,0-1,0.3-1.2,0.8v-6.6l-1.6,0.9c-1.1,1.1-1.1,1.2-1.1,2.9v12.3c-0.2,1.2-0.2,2.4,0,3.6c0.1,2.1-0.3,4.2-1.3,6l-2.7,1.8h-1.4
	c-0.1-0.4-0.1-0.9,0-1.4v-4.9h-1c-0.6,0.6-1,1.3-1.4,2.1c-1.4,2.5-2.1,5.3-2.1,8.1c-0.4,2.3-0.4,4.5,0,6.8c0.9,3,0.2,6.2-1.8,8.5
	c-0.5,0.6-1.1,0.9-1.8,1.1c-1.2,0-2.3,0.7-2.9,1.8l-0.9,2c-0.6-1.5-1.1-3.1-1.4-4.6v-5.7c-0.9,0.6-1.8,1.3-2.6,2.1
	c-4.1,6.6-6.5,14.2-6.8,22c-0.3,1.8-0.3,3.9-3.1,3.6c-2.9-0.3-4.2,2.2-4.9,3.6c-0.8,1.4-1.5,1.4-2.6,0c-1.6-2.6-1.6-5.9,0-8.5
	l1.1-2.1c-1.7-0.4-3.5,0-5,1c-4.2,2.4-7.8,5.7-10.6,9.6l-6.4,10.4c-2.1,3.9-4.7,7.5-7.8,10.6c-5,4.6-11.9,6.4-18.4,5
	c-5.3-1.5-10.2-4.3-14.3-8.1c-4.5-4.5-8.3-9.5-11.4-15c-2.4-4.7-4.1-9.8-4.9-15c-0.3-1-0.8,0-2.1,0c-3.8,2.3-8.1,3.1-12.5,2.6
	c-5.6-0.9-10.3-4.9-12-10.4c-0.2-0.7-0.7-1.4-1.4-1.8c-1-1-2.5-1.8-3.6-2.9c-1.8-2.3-2.7-5.2-2.6-8.1c-2.7,0.8-5.5-0.7-6.4-3.4
	c0-0.1,0-0.2-0.1-0.2c-2.3-3.9-2.3-8.8,0-12.8c0.1-0.4,0.1-0.9,0-1.4c-2.6-2.8-7.5-7.8-7.5-7.8v-1.4c2.2-3.9,5.1-7.4,8.5-10.3
	c0.5-0.8,0.5-1.8,0-2.6c-0.9-1.8-0.9-4,0-5.9c1-1.8,2.2-3.5,3.6-4.9l-5.3-1.4l-15-3.1c-1-0.4-2.1-0.4-3.1,0
	c-4.4,3-8.3,6.6-11.7,10.6c-1.1,1.5-2.2,3-3.2,4.7v1l1.8-1l2.6-2.7c-1.4,1.8-2.7,3.7-3.9,5.7c-2.8,5.5-6,11.3-8.5,16.9
	c-1.7,2.9-2.6,6.2-2.6,9.6v1.8l1.4-1.4c0.6-0.7,1-1.5,1.3-2.4c-1,2.5-1.9,5.1-2.5,7.8c-2.3,7.2-3.3,14.8-3.2,22.3
	c0.3,3.2,1.2,6.4,2.8,9.2c0.3,1.3,2.1,2.1,2.1,1.3v-8.2c1.1,2.9,2.1,5.8,2.8,8.9c0.6,2.5,1.1,5.2,1.4,7.8c1.1,5.3,1.8,10.6,3.2,15.9
	c1,2.2,2.3,4.2,3.9,6h2.8v-2.5l-1-2.1c-0.7-1.8-0.7-3.9,0-5.7l9.6,10.6c0.1,0.3,0.1,0.7,0,1c0.4,5,1.7,9.8,3.9,14.3
	c1.9,4.6,6.4,7.6,11.4,7.5h1.8c-1.4-0.7-0.6-0.6-1.4-1.8c-0.8-1.2-1.8-1.4-2.6-2.6c-0.8-1.2,0.8-2.5,1.8-2.5
	c1.4,0.2,2.7,0.7,3.9,1.4c7,5.1,14.5,9.3,22.3,12.8l10.4,4.2l3.6,1.4c-2.4,6.8-4.9,13.2-7,19.2c-1.5-3.1-2.9-6.8-4.7-9.9l-2.1-4.2
	c-0.9-1.9-2.6-3.2-4.6-3.6c-3,0.2-6-0.6-8.5-2.1c-2.9-0.3-7.1,0.8-8.1,3.6c3.1-1,6.4-0.3,8.9,1.8c-1.8,3.9-0.8,6.4,2.8,7.5
	c2.4,0.7,4.1,2.8,4.2,5.3c0.9,2.6,1.2,5.4,1,8.1c-2.3-0.6-4.2-2.1-5.3-4.2c-2.3-4-5.7-7.2-9.9-9.1c-2.9-1.5-6-2.1-8.1,1h-1.4
	c-1.5-0.2-3.1-0.2-4.7,0c-3.4,0.6-4.9,3.9-6,7c2.1-1.4,4.5-2.1,7.1-2.1c0.8,0,1.4,0.6,1.4,1.3c0.3,1.9,2,3.1,3.9,2.9l8.1,3.1
	c3.2,1.1,5.8,3.6,7.1,6.8h-2.1c-2.8-0.2-5.7-0.2-8.6,0c-3.8,0.3-7.5,1.5-10.6,3.6c-2.9,1.3-5.2,3.6-6.5,6.5c-0.3,1-0.3,2.1,0,3.1
	v2.1c-0.2,1.2-0.2,2.4,0,3.6c0.5,2.2,1.6,4.2,3.2,5.7c-0.5-3.3,0.1-6.7,1.8-9.6c4.2,2.1,5.7,1.8,8.8-1.8l2.1-2.7
	c2.3-1.4,5.2-1.8,7.8-1l10.6,1.4c0.1,0.3,0.1,0.7,0,1c-2,3-4.6,5.7-7.5,7.8c-4,2.6-5.3,7.8-3.1,12c0.2,0.8,0.2,1.7,0,2.6
	c-0.9,3.4,1,6.8,4.4,7.8c0,0,0.1,0,0.1,0v-5.7c3.4,1.2,7.2-0.5,8.5-3.9c1.2-2.4,2-4.9,2.6-7.5c1.3-4.6,4.5-8.4,8.8-10.4
	c3.2-0.7,5.9-2.6,7.8-5.3l1,1.3c2,3.8,6,6.2,10.3,6c0.8,0,1.4,0.6,1.4,1.4l1.1,7.2c0.8-1,2.5-2.1,2.5-3.1c1.9-3.2,2.3-7.1,1.4-10.6
	c-0.4-0.5-0.4-1.3,0-1.8c1.3-1.7,1.3-4,0-5.7c-1.5-3.1-4-5.6-7.1-7l-5.7-2.6l2.1-1l6.4-3.1c0.8,0,1.4-1,2.1,0
	c0.8,1.1,1.8,2.1,1.8,3.1c-0.2,1.3-0.6,2.6-1.1,3.9h1.8c3.6-1.6,6.2-4.9,6.8-8.9c0.3-2.1,1.5-3.9,2.8-3.9c1.4,0,2.9-1,3.9,0
	c1,1,1.4,2.5,1,3.9l-1,3.1c2.1-1.3,4.2-2.5,6-3.9c4.1-2.7,6.9-6.9,7.8-11.7c0.6-2,2.2-3.6,4.2-4.2c3.2-0.3,6.4-0.7,9.6-1.4
	c5.7-1,11.4-2.3,16.9-3.9c8.3-2.5,16.1-6,23.4-10.6c5.4-3.3,10.4-6.4,15-10.4c4.2-3.4,8.2-7.2,11.7-11.4c3.5-3.8,6.7-7.8,9.6-12
	c3.4-5.1,6.4-10.4,9.1-15.9c3.2-6.1,5.7-12.5,7.5-19.2c2.4-8.7,3.8-17.6,4.2-26.5c0.4-6,0.4-12.1,0-18.2c0.2-1.6,0.2-3.3,0-4.9
	l10.6,2.8c-0.6,1.3-1.5,2.6-2.6,3.6c-2.1,1.5-3,4.3-2.1,6.7c1.1,2.6,2.6,4.9,4.5,7.1c1.5,1.7,3.7,2.7,6,2.6c-0.7-1.2,0.3,0-1.8-2.6
	c-2.1-2.6-2.1-2.8,0-4.6c0.7-0.6,1.3-1.3,1.8-2.1c0.7-1.2,1.1-2.5,1.4-3.9l3.1,1.4c3.6,1.5,6.5,4.3,8.3,7.8c0.6,2.1,2.8,3.2,4.9,2.6
	c0,0,0,0,0.1,0c1.8-0.3,2.9,0,2.9,1.8v0.8h0.8c1.9-0.9,2.7-3.1,1.8-4.9c-1.1-2.3-2.6-4.4-3.6-6.5c-2-3.5-5.5-5.9-9.4-6.4
	c1.7-0.9,3.4-1.8,4.9-2.9c2.1-1.2,4.7-1.2,6.8,0c1,1,2.7,1,3.8,0c0.8-0.7,1.9-0.7,2.7,0l2.9,2.1c0.1-0.4,0.1-0.9,0-1.3
	c-0.2-1.9-1.1-3.7-2.5-4.9c-0.8-0.5-1.4-1.3-1.8-2.1c-1.1-2.5-3.8-3.8-6.5-3.2c-1.9,0.6-3.8,1-5.7,1.4c0.9-1.1,1.8-2.2,2.9-3.2
	c2.1-1.3,3.1-2.1,2.1-4.2l4.9-2.4c-0.9-2.1-3-3.3-5.3-3.1c-1.7,0.3-3.5,0.3-5.3,0c-0.6-0.2-1.2-0.2-1.8,0c-1.8,0.8-2.1,3.1-2.9,4.7
	c-0.9,1.4-1.5,3-1.8,4.6c-1.4-2.8-2.5-3.1,0-6c2.6-2.8,2.1-4.2,0-6.8c1.1-1.9,1.1-4.1,0-6c-2.5,0.6-4.4,2.8-4.5,5.4h-1.4
	c-2.9-0.4-4.2,2.4-4.2,5.3c0.2,3.3,0.2,6.6,0,9.9h-1c-0.3-0.8-0.8-1.5-1.4-2.1c-3.3-3.6-6.7-7.1-10.4-10.3
	c-3.2-3.2-7.1-5.5-11.4-6.8c-1,0-1-1.4-1-1.4c-1.4-4.4-3.7-8.5-6.8-12c-2.7-2.8-4.4-6.5-4.6-10.3c0-1.1-1.4-1.8-1.4-2.8
	c-2.3,5.4-2.7,11.5-1,17.1c0.9,2.6,1.2,5.4,1,8.1c-1.1,0.5-2.1,1.1-3,1.8c-0.8,0.8-2.6,2.8-2.6,1.8V192c0.2-0.7,0.2-1.4,0-2.1
	c-0.3-0.5-0.6-1-1-1.4l-1,1.1c0.2,0.7,0.2,1.4,0,2.1c-1.4,5.4-1.1,11.2,1,16.4c0.5,1.4,0.5,2.8,0,4.2c0.2,0.9,0.2,1.9,0,2.8
	c-2.1-0.8-2.1,0.3-2.1,1.4C413.3,216.4,412.2,218.5,412.3,218.5z M227.9,150.2c0.8,0.7,1.5,1.5,1.8,2.6c4.9,3.1,10.3,5.4,15.9,6.7
	c6.3,2,13.8,3,21.3,4.5c3.7,0.2,7.4,0.8,10.9,1.8c7.6,2,14.9,5.1,21.6,9.1c0.7,0.3,1.4,0.3,2.1,0c3.1-1,6-2.6,9.1-3.6
	c5.6-1.9,11.5-2.8,17.4-2.8h9.2c4.2,0.7,8.4,1.7,12.4,3.1c7,2.6,13.5,6.7,18.8,12v-5.3c0-4.7,2.8-8.9,7-10.6
	c3.3-1.4,7.1-0.6,9.6,1.9c2.4,2.6,3.7,6.1,3.6,9.6c0.4,5,0.4,10,0,15c-0.4,3.3-1.8,6.5-4.2,8.8v2.6c2.7,6.5,4,13.5,3.9,20.6
	c0.2,4.8-0.2,9.6-1,14.3v2.9c0.7-0.7,0.9,0,2.1-2.1c1.2-2.1,1.5-4.7,2.6-6.8c1.3-4.3,4.9-7.5,9.3-8.4v-7.8c0-5,2.6-9.7,6.8-12.4v-1
	c-0.7-4.5-0.7-9,0-13.5c0.3-3.5,2-6.6,4.6-8.9c0.1-0.4,0.1-0.9,0-1.4c-0.2-3.3-0.2-6.6,0-9.9c1.6-4.8,2.3-9.9,2.1-15
	c-0.3-2.3-1-4.4-2.1-6.4c-1.3-1.7-2.5-3.4-3.6-5.3c-1.7-2.5-3.6-4.9-5.7-7.1c-1.5-1.8-3.7-2.8-6-2.8c1,2.8,4.2,4.9,2.9,8.9
	c-1-1-2-2-3.1-2.8c-1.1-0.5-1.9-1.4-2.1-2.6c-1.2-3.4-3.2-6.5-6-8.9c-2.3-2.5-5.8-3.6-9.1-2.8l1.3,1c2,0.9,3.5,2.8,3.9,4.9v3.2H383
	c-1.8-1.1-3.4-2.6-6-3.9c-1.5-5.6-5.5-10.1-10.8-12.3c-2-1-4.2-1.6-6.4-1.8c-1.4-1.1-2.6,0-3.9,0h1.1c2.3,0.8,3.8,2.9,3.9,5.3
	c-0.6,0.3-1.2,0.5-1.8,0.6h-1c-1.6-2.1-4.2-3.2-6.8-2.8c-0.6-2-1.5-3.9-2.5-5.7c-2.7-3.9-7-6.5-11.7-7c-1.6-0.3-3.3-0.3-4.9,0v2.3h3
	c2,0.9,2.9,3.4,2,5.4c0,0,0,0,0,0c-0.3-1.3,0.5-0.3-1.4-1.3c-1.9-0.8-3.9-1.1-6-1.1c-0.9-0.2-1.8-0.6-2.5-1.1c-2-2.7-4.7-4.7-7.8-6
	c-4.3-1.7-9.1-1-12.8,1.8h1c2-0.1,3.7,1.2,4.2,3.2v1.3h-1c-1.8-1.1-3.9-1.1-5.7,0c-1.5,0.4-3.2-0.1-4.2-1.3h-1.1
	c-2.3-1.8-5.1-2.9-8.1-3.2c-3.2-0.4-6.5,0.4-9.1,2.4c-0.6,0.6-0.6,1.6,0,2.3c1.4,0,0,1.1,1.4,0s1.8,0.3,3.2,1.1
	c1.3,0.8,1.3,1.8,0,1.8l-5.3,1.8c-2.5,1.4-5.7,0-6.8,0h-0.6c-4.1-1.2-8.4-1.2-12.5,0c-2.4,1.1-4.9,3.2-4.9,5.7
	c0.4,0.1,0.9,0.1,1.3,0c1.4-1.8,2.9-0.8,3.9,0c1,0.8,1.4,2.1,0,2.1l-8.6,4.7c-0.7,0.3-1.4,0.3-2.1,0c-3.9-1.4-8.1-1.4-12,0
	c-2.4,1-4.2,3.1-4.9,5.6v1.8h1.4c1.2,0,2.5-1.1,2.5,0c0,1,1.1,2.1,0,3.1c-0.7,0.3-1.3,0.8-1.8,1.4
	C236.8,141.3,227.9,150.2,227.9,150.2z M369.6,220.6l-3.3,0.2c-3.7-0.3-6.8-3.1-7.5-6.8c-0.1-1.7-1.5-3-3.1-3.1
	c-3.1,0.3-3.9-1.5-4.9-3.6c-0.2-0.7-0.2-1.4,0-2.1c0.7-3.5,3.9-5.9,7.5-5.7H371c4.5,0.5,8.5-2.6,9.1-7.1c1.1-4.9,1.1-10.1,0-15
	c0-1.2,0.5-2.6-1.4-2.6c-1.8,0-1.8,1.1-1.8,2.1v9.6c-0.6,3.3-3.3,5.8-6.6,6.1c-2.6,0.7-5.2,0.7-7.8,0c-3.2-0.7-6.4-1.1-9.6-1
	c-4.7-0.7-9.3,1.7-11.4,6c-0.8,1.3,0.8,2.1-2.1,3.9c-2.8,1.7-5.6,3.3-8.6,4.7c-1.1,0.9-2.8,0.9-3.9,0c-3.6-2.9-8.5-3.5-12.8-1.8
	h-1.8c-1.6-1-2.4-2.8-2.1-4.7c1.8-4.8,1.8-10.2,0-15c-1.2-2.4-3.8-3.6-6.5-3.1c-2.4,1.1-4.5,2.1-7.1,0c-6.1-5.3-13.6-8.9-21.6-10.3
	c-6.8-1.5-13.8-2.6-20.6-3.6c-4.2-0.8-8.6-1.5-12.8-2.5c-7.3-1.9-14.2-5.2-20.1-9.9c-2.3-2.1-4.6-4.2-6.7-6.4l-3.9-4.2
	c-0.8-0.3-1.7-0.3-2.6,0v3.1c1.5,4.5,4.3,8.5,8.1,11.4c4.5,3.7,9.6,6.6,15,8.5c5.3,1.6,10.6,2.9,16,3.8l9.9,1.1
	c7.3,0.6,14.5,2.3,21.3,4.9c3.6,1.6,7.2,3.3,10.6,5.3v1.7c-1.8,0.8-3.8,1.4-5.7,1.8c-0.5,0.4-1.3,0.4-1.8,0
	c-4.6-1.8-9.3-3.9-14.3-5.7c-3.1-1-6.3-1.6-9.6-1.8l-8.6-1c-3.9-1.1-7.1-0.3-11.7-1.1c-4.7-0.8-9.1-1.8-13.8-2.8
	c-5.7-1.5-11.1-4-15.9-7.5c-3.9-2.8-7.5-6.8-11.4-9.9l-2.4-1.4h-1.8v1.8c0.5,1.7,1.2,3.4,2.1,4.9c3.9,6,9,11.1,15,15
	c5.8,3.7,12.1,6.4,18.8,8.3c5.5,2,11.2,3.4,17,4.2c4.1,0.5,8.2,1.6,12,3.3c4.2,1.4,8.5,3.4,12.8,5.3c1.6,0.9,3.2,2,4.6,3.2
	c-2.2,1.9-4.9,3.3-7.8,3.9l-8.1,1.5c-1.9,0.3-3.4,1.7-3.9,3.6c4.9,0.2,9.7,1.2,14.3,2.8c5.2,1.8,9.2,5.9,11,11.1l-1.1-1.1
	c-2.8-2.7-6.2-4.8-9.9-6c-4-1.4-8.4-1.4-12.4,0c-2.1,1.5-4.7,3.9-6,4.9c-1.4,1-1.1,1.8,0,2.8c3.2,3.3,7.1,5.9,11.4,7.5h-1.8
	c-3.1,0.9-5.5,3.5-6,6.8c0,0.6,0,1.2,0,1.8h1.8c1.1,0,2.3-1,3.6,0c1.9,0.9,3.5,2.2,4.6,3.9c0.3,0.7,0.3,1.4,0,2.1
	c-0.8,1.8-1.4,3.8-1.8,5.7c-1,0.3-0.8,2.1,0,2.1c0.7-0.4,1.3-0.8,1.8-1.3l1.1,2.1c0.6,1.8,1.6,3.5,2.8,4.9c3.7,3.6,9.2,4.5,13.8,2.1
	c2.7-1.5,5.3-3.3,7.8-5.3c0.7-0.8,1.8-1.3,2.9-1.3c1.4-0.2,2.8-0.2,4.2,0c0.6,0.1,1.1,0.5,1.4,1.1c0.4,1.8-0.1,3.6-1.4,4.9
	c-1.5,1.1-2.9,2.3-4.2,3.6c2.3,0.9,4.8,0.9,7,0c2.8-1.1,5.2-2.9,7.1-5.3c1-1.2,1.5-2.7,1.4-4.2c-1.2-3.5-2.2-7-2.9-10.6
	c-0.3-2.9-1.4-4.6-4.2-4.6c0.1,0.7,0.1,1.4,0,2.1c-1.1,1.4-0.8,1.4-2.9,0l-6-4.2c-2.6-1.7-4.1-4.7-3.9-7.8c0-1.6,1.3-2.8,2.9-2.8
	c2.5,1.3,4,3.9,3.9,6.7c0.1,0.7,0.1,1.4,0,2.1l3.1-2.1l6.8,1.8c2.3,0.2,4.5,0.2,6.8,0c-0.2,1.6-0.2,3.3,0,5
	c1.2,6.7,3.4,13.2,6.8,19.2c2.8,5.5,6,11.3,8.6,16.9c1.9,3.5,2.3,7.6,1,11.4v1c-1.9,4.4-7,6.5-11.4,4.7c0,0,0,0,0,0
	c-3.2-2.2-5.8-5.1-7.5-8.5c-2.1-2.9-5.3-7.6-6-8.9c-0.6-1.6-2.2-2.7-3.9-2.5v2.1c0.7,2.2,1.5,4.4,2.6,6.5c1.8,2.9,3.9,5.7,6,8.5
	c2.4,3.2,5.4,6,8.9,8.1c5.9,4.5,14.4,3.3,18.9-2.6c2-2.7,3-6,2.7-9.4c0.2-5.1-0.6-10.2-2.6-15c-2.1-4.6-4.6-9.8-6.8-15
	c-3-5.8-4.7-12.1-5-18.6c0.2-3.2,1.6-6.3,3.9-8.5c0,1,1-0.8,0,1c-0.9,1.8-1.2,3.7-1.1,5.7c5.3-1,7.4-4.9,9.2-9.6
	c-0.2,1-0.2,2.1,0,3.1c0.4,0.7,0.8,1.3,1.4,1.8c0.8-0.1,1.6-0.4,2.1-1.1c1.1-1.2,2.2-2.5,3.1-3.9c0.9,0.6,1.8,1.3,2.5,2.1
	c2.1,3.2,3.6,2.9,4.6,0c0.5-1.9,1.8-3.4,3.6-4.2c1.3,1.4,2.7,2.7,4.2,3.9h2.1c0.1-0.6,0.1-1.2,0-1.8v-5.3
	C365,223.8,369.7,223.2,369.6,220.6z M286.1,210.3l1.6-1.8c2.6,0.7,5.2,0.7,7.8,0l2.5-1.1c1.3-0.3,2.6-0.3,3.9,0
	c1.3,0.6,2.2,1.8,2.5,3.1v1.1c-1.8,1.4-3.7,2.7-5.7,3.9c-2.1,1.6-5,1.6-7,0C289.8,213.9,287.9,212.1,286.1,210.3z M335,215.3
	c4.6-1.4,9.6-1.1,14.1,0.8c1,0.9,2,1.8,2.9,2.8c-1,0.3-1.8,1.4-2.9,1.4c-1.7,0.2-3.5,0.2-5.3,0c-1.7-2-4.1-3.4-6.8-3.9
	C336.3,216.1,335.6,215.8,335,215.3z M148.1,261.5c0.4,1,0.5,2.1,0.3,3.1c1.4,4.5,5.3,7.7,10.1,8.1c2.9,0.4,5.7,0.4,8.6,0
	c2.9-0.2,5.7-1,8.3-2.3c4.4-2.3,7.9-6.1,9.9-10.6c1.3-3.1,2.8-6,3.9-9.2l4.2-12c1.8-5.3,3.9-11.3,6-15.9c2.1-4.6,4.5-8.8,7.1-13.5
	c3.3-6,7.3-11.6,12-16.6l2.1-1.8l-4.9-2.1l-7.8-4.2c-0.8,0-2.1-1-2.1,0c-2.5,3.9-4.7,7.9-6.8,12c-3.2,6.8-5.3,13.8-8.1,20.6
	c-1.1,2.9-2.8,5.6-4.9,7.8c-4,3.8-9.5,5.5-15,4.7c-2.5-0.5-4.8-1.3-7.1-2.6c-2.2-1.3-3.8-3.5-4.2-6c-5.9,4.5-7,12.9-2.5,18.7
	c0.9,1.2,2,2.2,3.3,3c6.6,4.5,15.2,4.5,21.8,0c1.4-1.4,2.9-2.7,4.5-3.9c-4.1,8.4-13.5,13-22.6,11.1h-2.1
	c-10.4-3.2-16.1-14.2-12.9-24.6c-7.1,4.7-10.4,13.4-8.1,21.6c1.2,5.5,4.7,10.3,9.6,13.1c5.1,2.7,11,3.4,16.6,2.1
	c-0.7,1.7-2.1,3.1-3.9,3.6C157.7,267.2,151.9,265.5,148.1,261.5z M359.2,249.5c1,0,1,0,4.8,1.2h1v-1.3c0.1-2.2-0.9-4.3-2.5-5.7
	c-2.7-2-5.3-4.2-7.5-6.8c-0.4-0.6-1.1-1.1-1.8-1.3l-2.6-1.1v3.2c0,0.8,1.4,2.9,0,2.9l-3.9,2.1c-5.4-6.5-5.4-4.7-7.5-4.7
	c0.3,1,1.4,1.8,1.4,2.8c0.7,1.6,0.7,3.4,0,4.9c-2.5,1.9-6,1.9-8.5,0l-1.5-1.8c0.7,5.6,2.4,10.9,5,15.9h2.1c1.2-0.8,2.5-1.4,3.9-1.8
	c1.7-0.7,3.7,0.1,4.5,1.8l1.1,3.1h1.6c0.6-0.4,1.1-1.1,1.4-1.8c1.2-2.5,1.2-5.3,0-7.8h1.8l4.2,2.1c1.8,1,3.1,1,3.1-1
	C359.3,252.8,359.3,251.1,359.2,249.5z M182,225.6c1.2-4.1,0-8.5-3-11.6c-1.8-1.6-4.4-2.2-6.7-1.3c-1.6,0.7-2.6,2.4-2.6,4.2
	c0,1.1-0.5,1.8-1.8,1.1c-1.4-0.8-2.6-2.6-3.9-2.6c-1.4,2.8-0.2,6.2,2.7,7.6c0.5,0.2,1,0.4,1.5,0.5c1.4,0.2,2.8,0.2,4.2,0
	C175.7,223.2,179.1,223.9,182,225.6z"/>
</svg>
