<?xml version="1.0" encoding="utf-8"?>
<!-- Generator: Adobe Illustrator 22.1.0, SVG Export Plug-In . SVG Version: 6.00 Build 0)  -->
<svg version="1.1" id="Layer_2_1_" xmlns="http://www.w3.org/2000/svg" xmlns:xlink="http://www.w3.org/1999/xlink" x="0px" y="0px"
	 viewBox="0 0 640 480" style="enable-background:new 0 0 640 480;" xml:space="preserve">
<style type="text/css">
	.st0{fill:#3F4F8F;}
</style>
<g>
	<path class="st0" d="M170,191.1h-37.5c-4.9,0-10-4.1-10-9s5.2-9,10-9h112.4c4.9,0,10,4.1,10,9s-5.2,9-10,9h-35.6v77.9
		c0,6-4.9,10.9-11.1,10.9h-17.6c-6,0-10.9-4.9-10.9-10.9L170,191.1L170,191.1z"/>
	<path class="st0" d="M11.1,279.9c-6,0-11.1-4.9-11.1-10.9v-84.7c0-6,4.9-11.1,11.1-11.1h77.7c35.8,0,39.6,35.8,19.8,48.1
		c30.7,10.9,23.9,58.7-29.9,58.7H11.1z M79,215.8c25.8,0,26.9-25.8,3.3-25.8H40.5v25.8H79z M40.5,232.7v29.6h33.7
		c34.2,0,33.9-29.6,9.5-29.6H40.5z M367.7,279.9h-7.3l-1.4-19.3h-0.3c-7.1,15.2-21.2,21.5-36.7,21.5c-33.4,0-50-26.1-50-55.1
		c0-28.8,16.6-55.1,50-55.1c22.3,0,40.2,11.9,44,35h-10c-1.4-12.2-13.8-26.6-33.9-26.6c-28,0-39.9,23.4-39.9,46.4
		s11.9,46.4,39.9,46.4c23.4,0,36.9-16.3,36.7-38.8h-35.8v-8.7h44.8V279.9L367.7,279.9z M380.4,203.6h8.7v17.9h0.3
		c4.6-12.2,15.2-19.6,28.8-19v9.2c-16.8-0.8-28.5,11.7-28.5,27.4v40.7h-9.2V203.6L380.4,203.6L380.4,203.6z M488.2,241.9
		c0,22-12.8,40.5-36.1,40.5S416,263.9,416,241.9s12.8-40.5,36.1-40.5C475.7,201.4,488.2,219.9,488.2,241.9z M425.5,241.9
		c0,16.3,9,32.6,26.9,32.6c17.9,0,26.9-16.3,26.9-32.6s-9-32.6-26.9-32.6C434.2,209.3,425.5,225.6,425.5,241.9z M558.5,279.9h-8.7
		v-13.8h-0.3c-4.9,10.3-14.9,16-26.3,16c-19.3,0-26.9-11.1-26.9-29.1v-49.4h9.2v49.7c0.5,13.8,5.7,20.9,20.4,20.9
		c16,0,22.8-15.2,22.8-30.7v-39.9h9.2L558.5,279.9L558.5,279.9L558.5,279.9z M569.7,203.6h8.7V218h0.3c4.3-10.3,14.9-16.8,27.2-16.8
		c23.4,0,34.2,18.7,34.2,40.5s-11.1,40.5-34.2,40.5c-11.4,0-22.5-5.7-26.6-16.8h-0.3v42.9h-9.2V203.6z M605.8,209.3
		c-20.6,0-26.9,15.2-26.9,32.6c0,15.7,7.1,32.6,26.9,32.6c17.6,0,25-16.8,25-32.6C630.8,225.9,623.7,209.3,605.8,209.3z"/>
</g>
</svg>
