<?xml version="1.0" encoding="utf-8"?>
<!-- Generator: Adobe Illustrator 22.1.0, SVG Export Plug-In . SVG Version: 6.00 Build 0)  -->
<svg version="1.1" id="Layer_1" xmlns="http://www.w3.org/2000/svg" xmlns:xlink="http://www.w3.org/1999/xlink" x="0px" y="0px"
	 viewBox="0 0 1920 1080" style="enable-background:new 0 0 1920 1080;" xml:space="preserve">
<style type="text/css">
	.st0{fill:#0A3282;}
</style>
<g>
	<path class="st0" d="M797.7,682.6c-2.1,0.1-3.6,0.2-5.1,0.3c-15.8,0-31.5,0-47.9,0c-0.2-2.7-0.5-5-0.5-7.3
		c0-64.5,0.1-129-0.2-193.5c0-5.5,2-7.9,6.9-9.8c28.6-11.1,58.5-13.2,88.7-12.6c25.2,0.5,49,5.4,68.5,23.7
		c14.4-11.7,30.8-18.7,48.8-21.5c26.2-4.1,52.3-4.6,76.6,8.5c20.9,11.3,32.6,29.4,32.9,53c0.7,52.2,0.2,104.3,0.2,156.5
		c0,0.6-0.1,1.3-0.4,3.5c-11.4-0.6-23.1-0.1-34.4-2.2c-11.1-2.1-18.3-13-18.5-25.3c-0.3-17.5-0.1-35.1-0.1-52.6
		c0-23.4-0.6-46.8,0.1-70.1c1.2-36.6-24-45.3-49.5-41.8c-8.9,1.2-17.3,6.1-25.7,9.8c-4.8,2.1-6.2,6.2-6.2,11.6
		c0.2,53.7,0.1,107.4,0.1,161c0,2.8,0,5.5,0,8.7c-18,0-35.2,0-53.5,0c0-2.4,0-4.9,0-7.4c0-48.3,0-96.5,0-144.8
		c0-23.5-10.3-36-33.5-39.2c-14-1.9-28-1.3-41.7,3.2c-4.5,1.5-5.9,3.5-5.9,8.2c0.2,57.1,0.1,114.3,0.1,171.4
		C797.7,676.5,797.7,679.1,797.7,682.6z"/>
	<path class="st0" d="M294.6,536.6c2.6,0.8,5.2,1.6,7.7,2.4c16.7,5,31.3,13.3,43.7,25.7c28.4,28.4,19.6,72.7-3.7,92.9
		c-16.6,14.4-36.5,21.3-57.7,24.5c-42,6.3-83.7,4.9-124.7-7.1c-12.9-3.8-12.9-4.1-12.9-17.6c0-77.3,0.1-154.6-0.2-231.9
		c0-7,2.1-10.3,8.5-11.6c17.5-3.6,34.9-8.5,52.6-10.5c29.4-3.3,58.8-2.7,87.5,5.7c13.4,3.9,26,9.6,36.6,18.8
		c28.8,24.9,28,67.3-1.8,91C320,527.3,307.8,532.2,294.6,536.6z M202.8,549.3c-0.2,3.3-0.3,5.3-0.3,7.2c0,29,0.1,57.9-0.1,86.9
		c0,5.1,1.6,7.4,6.4,8.4c20.6,4.1,41.2,4.9,61.6-0.6c22-6,33.3-19.9,35-42c1.8-23.8-8.1-41.8-27.9-51c-16.1-7.4-33.4-8.4-50.7-8.8
		C218.9,549.1,211,549.3,202.8,549.3z M202.8,524.9c22.2,1.2,43.9,2.2,65-5c20.9-7.1,29.8-21.7,28.9-46.5
		c-0.7-20.6-11.4-34.4-31.6-39.9c-19-5.2-38-4.2-57.1-0.1c-4.4,0.9-5.8,2.9-5.7,7.4c0.2,25.9,0.1,51.9,0.1,77.8
		C202.5,520.6,202.7,522.5,202.8,524.9z"/>
	<path class="st0" d="M1105,367.8c18.9,0,36.9,0,55.8,0c0,34.7,0,69,0,103.2c11.7-2.3,22.6-5.3,33.6-6.6
		c67.4-7.6,109.7,34,114.1,93.5c1.3,17.4,0.2,34.6-4.5,51.5c-10.1,35.9-33,60.2-68.8,70.5c-40.7,11.7-81.3,8.6-121.3-4.6
		c-6.7-2.2-9.1-5.7-9-13.1c0.3-95.3,0.2-190.5,0.2-285.8C1105,373.7,1105,370.9,1105,367.8z M1160.9,575.2c0,20.1,0,40.3,0,60.4
		c0,18.4,0,18.4,18.2,21.1c33,4.8,58.4-9.7,68-40.4c8.9-28.5,8.9-57.6,0.2-86.3c-5.5-17.9-16.5-31.6-35.5-36.3
		c-14.5-3.6-29.1-2.7-43.6,1.4c-5.5,1.5-7.4,4.2-7.4,10C1161.1,528.5,1160.9,551.8,1160.9,575.2z"/>
	<path class="st0" d="M543.4,505.3c0-10.2-0.1-19.5,0.1-28.8c0-1.4,1.6-3.6,2.9-4c37.8-10.8,76-15.6,114.3-3.2
		c29.8,9.6,45.6,32.1,45.9,63.6c0.4,44.6,0.1,89.1,0.2,133.7c0,3.8-1.5,5.6-4.8,6.4c-17,4-33.8,9.2-51,11.5
		c-29.3,4-58.7,3.8-87.5-4.4c-20.8-5.9-38.3-16.4-46.1-38.1c-10.1-28.1,0.2-57,26-73.3c20.1-12.7,42.8-18.2,65.9-22
		c13.2-2.2,26.5-3.6,39.9-5.1c3.5-0.4,5.1-1.4,4.9-5c-0.3-4.5,0-9.1-0.4-13.6c-1.2-14-10.2-23.7-25.6-27.3
		c-25.2-5.8-49.8-1.7-74.1,5.9C550.9,502.7,547.7,503.8,543.4,505.3z M654.1,563.8c-9.2,1.3-17.4,2.1-25.5,3.5
		c-14.7,2.6-29.3,5.7-42.1,14c-17.5,11.3-21.6,28.2-18.7,47.6c2.3,15.1,13.6,25.6,31.7,29.2c16.3,3.2,32.6,2.5,48.8-2
		c4.6-1.3,6-3.5,5.9-8.2c-0.3-19.9-0.1-39.8-0.1-59.7C654.1,580.5,654.1,572.7,654.1,563.8z"/>
	<path class="st0" d="M1627.1,580.2c-53.9,0-106,0-158.4,0c1.7,16.6,5.4,31.8,14,45.4c12.4,19.6,31.6,26.6,53.6,27.5
		c17.2,0.7,34.1-1.3,50.7-5.8c14.4-3.9,19.4-1.5,25.4,12.2c1.6,3.8,3.2,7.5,5.6,13c-11.2,3.3-21.8,7.3-32.8,9.4
		c-30.2,5.9-60.5,7.7-90.7-0.3c-42.3-11.2-69.8-44-74.3-87.6c-2.3-22.9-1.5-45.4,6.3-67.2c13.5-37.5,41.1-57.5,79.9-63.2
		c16.6-2.4,33.3-1.9,49.7,1.8c37.8,8.5,61.9,34.2,67.6,72.9C1625.8,551.9,1626,565.8,1627.1,580.2z M1469.5,553.3
		c1.1,0.6,1.4,0.9,1.8,0.9c32.9,0.1,65.7,0.2,98.6,0.1c1.3,0,3.6-2.5,3.6-3.8c0-5.4-0.3-10.8-1.2-16.1c-2.7-15.9-8.4-30.5-24.3-37.5
		c-18.8-8.2-37.8-7.7-54.9,4.4C1475.2,514,1471.2,533.3,1469.5,553.3z"/>
	<path class="st0" d="M1642.8,670.9c5-10.6,9.6-20.3,14.5-30.6c16,9.1,33.1,12.9,51.1,11.7c5.9-0.4,12.1-1.8,17.5-4.3
		c21.8-10.1,24.2-38.6,3.8-51.4c-9.2-5.8-20.2-8.6-30-13.5c-11-5.4-22.6-10.3-32.1-17.9c-25-20.1-24.5-58.6,0-81.2
		c14.5-13.3,32.1-19.5,51.2-21c23.6-1.8,46.6,1.4,68.3,11.5c1.9,0.9,3.7,2.1,6.1,3.4c-4.5,9.3-8.9,18.3-12.5,25.7
		c-12.4-3.3-23.6-7-35.1-9.3c-9.3-1.9-18.6-0.2-27.1,4.3c-17.9,9.4-20.6,32.2-4.7,44.6c7,5.5,15.7,8.9,23.9,12.7
		c10.2,4.8,20.9,8.3,30.8,13.5c45.7,23.9,40.8,79.6,0.2,103c-16.3,9.4-34.1,13.6-52.7,14c-22.2,0.5-44-2.4-64.7-11.1
		C1648.6,674,1646,672.5,1642.8,670.9z"/>
	<path class="st0" d="M1334.8,367.8c19,0,37.3,0,56,0c0,104.8,0,209.5,0,314.5c-11.3,0-22.6,1-33.6-0.3
		c-13.6-1.6-22.3-13.2-22.4-27.7c-0.2-18.8,0-37.7,0-56.5c0-74,0-148.1,0-222.1C1334.8,373.3,1334.8,370.7,1334.8,367.8z"/>
	<path class="st0" d="M393,682.8c0-2.9,0-5.2,0-7.5c0-62.1,0-124.2-0.1-186.4c0-4.2,0.4-7.2,5.1-9c35.4-13.7,72.1-19.2,110-17.3
		c2.4,0.1,4.7,0.8,7.4,1.2c0,13.2,0,26.3,0,40.2c-1.8-0.5-3.5-0.9-5.3-1.5c-18.5-5.8-36.9-6-55.6-0.9c-4.7,1.3-6.4,3.5-6.4,8.6
		c0.2,47.4,0.1,94.8,0.1,142.2c0,19.7-10.8,30.3-30.6,30.3C409.8,682.8,401.8,682.8,393,682.8z"/>
</g>
</svg>
