<?xml version="1.0" encoding="utf-8"?>
<!-- Generator: Adobe Illustrator 22.1.0, SVG Export Plug-In . SVG Version: 6.00 Build 0)  -->
<svg version="1.1" id="Layer_2_1_" xmlns="http://www.w3.org/2000/svg" xmlns:xlink="http://www.w3.org/1999/xlink" x="0px" y="0px"
	 viewBox="0 0 640 480" style="enable-background:new 0 0 640 480;" xml:space="preserve">
<style type="text/css">
	.st0{fill:#1698D2;}
	.st1{fill:#E6522E;}
	.st2{fill:#F9B82C;}
</style>
<g>
	<path class="st0" d="M20.5,183.9c9.1-5.7,17.7-13.1,27.4-17.7c33.1-14.3,68-20,103.9-18.8c25.7,0.6,51.4,2.3,77.1,4
		c6.9,0.6,13.7,2.3,22.8,4.6c-3.4-5.1-5.7-8-7.4-10.8c-13.7-23.4-27.4-46.3-40-69.7c-3.4-6.3-3.4-14.3-3.4-21.1
		c0-2.3,5.1-6.9,7.4-6.9C224.9,50.3,242,52,258,57.7c29.7,10.8,56.5,27.4,78.8,50.2c5.1,5.1,10.8,5.7,16.6,0.6
		c2.9-2.3,6.3-4.6,9.1-6.3c22.8-12,45.1-23.4,65.7-39.4c18.8-14.3,41.1-23.4,61.7-35.4c13.7-8,26.3-17.1,40.5-24.6
		c6.3-3.4,14.3-2.9,21.7-2.9c1.1,0,4.6,5.1,4,7.4c-1.7,9.1-4,17.7-8,26.3s-9.7,16-14.8,24.6c-9.1,14.3-17.1,29.1-26.8,42.3
		c-12,16-25.1,30.8-38.3,46.3c-5.1,6.3-10.3,12.6-16,18.8c-4,4.6-4,8.6,0.6,12c12,8.6,20.6,20,29.1,32c5.1,7.4,15.4,11.4,21.1,18.3
		c12,14.8,22.3,30.3,33.7,46.3c6.3,8.6,13.1,17.1,17.7,26.8c20,39.4,39.4,78.8,58.8,118.2c2.3,4.6,5.1,9.7,6.9,14.8
		c1.1,2.9,0.6,6.9-1.1,9.7c-0.6,1.1-5.7,1.7-8,0.6c-21.7-10.3-43.4-19.4-64-31.4c-22.3-13.1-42.8-29.1-64-44.5
		c-11.4-8-21.7-17.7-32.5-26.3c-21.1-16-42.3-31.4-63.4-46.8c-16.6-12-33.1-24.6-52-37.7c-5.7,14.8-10.3,28.6-15.4,41.7
		c-5.1,13.7-9.7,28-16.6,41.1c-17.7,32.5-36.5,64-54.8,95.9c-9.7,16.6-22.8,29.7-38.3,40.5c-2.9,1.7-8,4-10.3,2.9
		c-2.9-1.7-4.6-6.9-4.6-10.3c-1.7-37.1,2.9-73.7,13.1-109.1c2.9-11.4,4.6-22.8,6.9-34.3c0.6-2.9,1.7-6.3,2.3-9.1
		c8.6-25.1,17.1-50.2,25.7-75.9c3.4-9.7,1.7-10.8-8-11.4c-33.7-2.3-67.4-3.4-99.9-8.6c-34.3-5.1-68-14.3-101.6-22.3
		c-5.1-1.1-9.7-5.7-14.3-8.6C21.1,186.8,21.1,185,20.5,183.9z"/>
	<path class="st1" d="M76.4,408.3c0.6-5.1,0-13.1,1.7-20.6c6.9-25.1,26.3-46.3,53.1-49.7c21.7-2.9,36.5,5.7,43.4,26.8
		c8,24,12,48,0.6,71.9c-2.9,6.3-9.7,11.4-14.8,16c-5.7,5.1-12,10.3-18.8,13.1c-23.4,9.1-54.2-12.6-62.2-29.1
		C76.4,428.9,77.6,419.7,76.4,408.3z"/>
	<path class="st2" d="M159.8,299.3c-13.1-0.6-24-3.4-30.3-14.8c-6.3-11.4-4-22.8,2.9-32.5c8-11.4,21.7-12.6,34.8-13.1
		c17.1-0.6,24.6,17.1,26.8,32c1.1,8-10.8,21.7-21.1,24.6C167.8,298.1,163.2,298.7,159.8,299.3z"/>
</g>
</svg>
