<?xml version="1.0" encoding="utf-8"?>
<!-- Generator: Adobe Illustrator 22.1.0, SVG Export Plug-In . SVG Version: 6.00 Build 0)  -->
<svg version="1.1" id="Layer_1" xmlns="http://www.w3.org/2000/svg" xmlns:xlink="http://www.w3.org/1999/xlink" x="0px" y="0px"
	 viewBox="0 0 1920 1080" style="enable-background:new 0 0 1920 1080;" xml:space="preserve">
<g>
	<path d="M1468.8,626.4c-13.5,0-25-0.2-36.5,0.1c-8.2,0.2-13.9-3-18.4-10c-15.4-23.8-31.2-47.2-46.6-70.9c-2.9-4.4-5.9-6.3-11.3-6.2
		c-20,0.3-40,0.1-61.6,0.1c0,29.2,0,57.7,0,86.6c-13.8,0-26,0-38.7,0c0-93,0-185.7,0-278.9c2.1-0.2,3.7-0.5,5.3-0.5
		c34.1,0,68.2-0.9,102.2,0.2c40.8,1.2,73.3,18.7,92.9,55.5c22.8,42.6,6.2,95.2-37.2,121.3c-5.1,3.1-10.6,5.6-17.2,9.1
		C1423.9,563.7,1445.9,594.4,1468.8,626.4z M1295.2,514.8c21.6,0,41.9,0.5,62.2-0.1c36.2-1.1,65.7-32.2,67-69.7
		c1.3-36.2-26-69.1-61.7-72.5c-19.1-1.8-38.4-0.6-57.6-1.3c-6.7-0.2-8.3,2.1-8.3,8.4c-0.3,42-1,84.1-1.5,126.1
		C1295.2,508.5,1295.2,511.2,1295.2,514.8z"/>
	<path d="M972.8,539.4c0,29.5,0,58,0,86.7c-13.5,0-25.5,0-38.3,0c0-92.9,0-185.8,0-279.1c1.8-0.1,3.4-0.3,5-0.3
		c34.1,0,68.1-0.6,102.2,0.1c35.5,0.8,65.3,14.7,86.2,44.1c36.2,51,12.2,120.3-49.4,141.5c-12.5,4.3-26.2,6.1-39.5,6.7
		C1017.8,540.2,996.3,539.4,972.8,539.4z M975.3,514.9c19.9,0,40.2,0.5,60.4-0.1c36.5-1.1,66.3-32.2,67.7-70
		c1.3-35.7-26.6-69.1-62.2-72.2c-21-1.8-42.2-0.6-63.4-0.7c-0.4,0-0.9,0.6-2.6,1.9C975.3,419.9,975.3,467,975.3,514.9z"/>
	<path d="M577.4,626.5c9.2-20.4,17.9-39.6,26.5-58.8c32.5-72,65-144.1,97.5-216.1c0.7-1.5,1.2-3.1,2.1-4.5c3.3-5.5,7.3-5.6,10.7-0.3
		c0.7,1.1,1.2,2.4,1.8,3.7c41.1,89.8,82.2,179.7,123.2,269.5c0.8,1.7,1.4,3.5,2.6,6.3c-13.1,0-25.3,0.7-37.4-0.4
		c-3.7-0.4-8.3-5.3-10.2-9.3c-7.3-15-13.8-30.5-20.3-45.9c-2-4.7-4.6-6.5-9.8-6.5c-40.9,0.2-81.9,0.2-122.8,0
		c-4.9,0-7.4,1.5-9.2,6.1c-6,15.3-12.5,30.5-18.5,45.8c-2.9,7.4-7.7,10.9-15.7,10.4C591.6,626.3,585.3,626.5,577.4,626.5z
		 M761.7,543.3c-20.5-46.6-40.5-92.1-61.2-139.2c-19.4,47.3-38,92.8-57,139.2C683.1,543.3,721.5,543.3,761.7,543.3z"/>
	<path d="M498,403.9c-56.7-52.8-124.9-38-162.9,0.1c-42.3,42.4-46,110.6-8,156.1c23.6,28.2,54.2,42.5,90.9,42.8
		c37.1,0.3,65.9-17.7,91.2-45.6c0.9,8.4,2.9,15.1,1.9,21.2c-0.9,5.7-3.8,12.4-8,16.2c-30.8,28.2-67.9,39.1-108.8,34.6
		c-63.9-7-112.7-52.6-125.7-115.6c-16.3-79.1,40.1-158.3,120.5-169.3c38.7-5.3,73.6,3.6,104.5,27.7c12.1,9.5,12.4,11.1,6.9,25.8
		C499.7,399.7,499,401.5,498,403.9z"/>
	<path d="M1639.1,626.3c-13.3,0-25.4,0-38.1,0c0-93,0-185.9,0-279.2c13.8,0,27.4,0,41.8,0C1641.6,440.2,1640.4,532.9,1639.1,626.3z"
		/>
	<path d="M1212.2,777.9c-3.5,0-6.4,0-9.8,0c-1.6-9.5-3.2-18.9-5.1-30.6c-5.5,11.8-10.2,21.8-14.8,31.7c-0.8,0.1-1.6,0.3-2.4,0.4
		c-4.6-9.9-9.3-19.8-15-32.1c-2,11.6-3.7,20.9-5.3,30.5c-3.3,0-6.2,0-9.6,0c3.4-18.8,6.6-37,9.9-55.2c0.8-0.3,1.6-0.5,2.5-0.8
		c6,12.4,12.1,24.7,18.9,38.7c6.6-13.9,12.4-26.2,18.3-38.6c0.9,0.1,1.8,0.3,2.7,0.4C1205.6,740.7,1208.9,759,1212.2,777.9z"/>
	<path d="M676.3,778.3c0-18.6,0-36.3,0-54.2c9,0,17.6-1,25.9,0.2c13,1.9,21.9,14.8,21.1,28.4c-0.9,13.4-11.3,24.5-24.7,25.5
		C691.4,778.7,684.2,778.3,676.3,778.3z M686.3,768.4c9.5,1.3,18.1,1.2,23.6-7.7c4.3-6.9,4.2-14.2-0.4-20.8
		c-5.7-8.1-14-8.2-23.2-6.8C686.3,744.8,686.3,756.2,686.3,768.4z"/>
	<path d="M840.8,780c-13.1-9.9-22.2-24.2-35.5-36.3c0,12.1,0,22.9,0,34.2c-3.7,0-6.5,0-9.7,0c0-18.3,0-36.3,0-56.5
		c3.4,2.1,6.1,3.2,8,5.1c9.5,9.7,18.8,19.7,29.5,31c0-12.3,0-22.5,0-33.4c3.6,0,6.4,0,9.6,0c0,18.2,0,36.2,0,54.2
		C842.1,778.8,841.4,779.4,840.8,780z"/>
	<path d="M555.5,779.1c-15.8,0-28.4-12.3-28.5-28c-0.1-16.2,12.4-28.8,28.6-28.6c15.5,0.2,28.2,13,28.1,28.5
		C583.7,767.1,571.7,779,555.5,779.1z M555.1,769c10.3,0.1,18.4-7.9,18.5-18c0.1-10.1-8.1-18.4-18.1-18.6
		c-9.8-0.1-18.3,8.3-18.4,18.3C537,761.2,544.7,768.9,555.1,769z"/>
	<path d="M1409.5,778.1c0-18.6,0-36.1,0-53.8c9.3,0,18.4-1.2,27.1,0.3c12.3,2,20.6,14.5,20.2,27.4c-0.4,12.9-10.1,24.4-23.2,26
		C1425.8,778.9,1417.9,778.1,1409.5,778.1z M1419.3,768.3c10.1,1.4,19.1,1.4,24.4-8.2c3.9-7,3.6-14.3-1.2-20.9
		c-4.7-6.5-13.3-8.3-23.2-5.1C1419.3,745.1,1419.3,756.3,1419.3,768.3z"/>
	<path d="M913.3,758.1c-4.5-0.4-8-0.7-12-1c-0.1-2.5-0.2-4.9-0.4-7.8c7.2,0,13.9,0,20.6,0c3.7,12.9,1.5,20-7.6,25.6
		c-10.8,6.7-26,5.1-35-3.6c-11.6-11.2-11.3-31.2,0.8-41.9c12.1-10.7,30.3-8.8,41.8,5.7c-1,0.5-2.4,0.9-3.6,1.6
		c-1.2,0.7-2.3,1.5-3.3,2.2c-14.3-8-21.1-8.3-28.4-1.4c-5.7,5.4-7.4,13.9-4.2,21.2c3.2,7.3,10.3,11.3,18.8,10.2
		C906.7,768,912,766.2,913.3,758.1z"/>
	<path d="M454.3,723.2c3.8,0.2,6.1,0.4,9.2,0.6c0,7.2,0,13.9,0,21.3c9,0,17.3,0,26.4,0c0-7.1,0-13.9,0-21.2c3.4-0.2,6-0.3,9.3-0.5
		c0,18.4,0,36.3,0,54.7c-2.7,0.1-5.3,0.2-9,0.4c0-7.7,0-14.9,0-22.7c-9.1,0-17.2,0-26.2,0c0,7,0,14.3,0,22.1c-3.7,0-6.5,0-9.7,0
		C454.3,759.8,454.3,741.9,454.3,723.2z"/>
	<path d="M949.8,765.9c2.2-1.3,4.5-2.6,6.8-3.9c-0.1,0.8-0.2,1.5-0.3,2.3c5.9,1.6,11.8,4,17.8,4.5c2.3,0.2,5-3.9,7.5-6
		c-2.1-2.1-3.9-5.1-6.4-6.3c-4.2-1.9-8.9-2.6-13.3-4.1c-6.9-2.3-11.5-6.7-11.1-14.4c0.4-7.8,5-12.6,12.4-14.5
		c9.9-2.6,18.3,0.1,26,7.5c-1.9,2.2-3.6,4.1-5,5.7c-5.4-1.6-10.2-3.9-15.1-4.1c-2.8-0.1-5.7,3-8.5,4.7c2.2,2.3,4,5.4,6.7,6.7
		c4.4,2.1,10.1,2,13.9,4.7c4.2,3.1,8.4,7.9,9.8,12.7c1.8,6.2-2.5,11.5-8.1,14.8C972.6,782.3,953.5,778.3,949.8,765.9z"/>
	<path d="M1378.9,723.8c0,3.1,0,5.2,0,8.4c-7.9,0-15.7,0-24,0c0,4.7,0,8.4,0,13.3c6.4,0,13,0,20.2,0c0,3.7,0,6.3,0,9.7
		c-6.8,0-13.2,0-20.2,0c0,4.8,0,8.8,0,13.8c7.8,0,15.6,0,23.8,0c0,3.6,0,6.2,0,9.2c-11.1,0-22,0-33.6,0c0-18,0-35.9,0-54.2
		C1356.4,723.8,1367.2,723.8,1378.9,723.8z"/>
	<path d="M1059.8,769.1c9.3,0,16.8,0,25.1,0c0.2,3.2,0.4,5.8,0.6,8.8c-11.9,0-23.2,0-35,0c0-18.1,0-35.8,0-54c3,0,5.6,0,9.3,0
		C1059.8,738.6,1059.8,753.2,1059.8,769.1z"/>
	<path d="M1303.1,732.8c0,15.1,0,29.8,0,45.1c-3.7,0-6.5,0-10.3,0c0-15,0-29.7,0-45.1c-5.4-0.3-10-0.5-15.1-0.8
		c-0.2-2.6-0.4-4.9-0.6-8c13.5,0,26.6,0,40.5,0c0.1,2.3,0.3,4.8,0.4,7.8C1312.9,732.2,1308.4,732.5,1303.1,732.8z"/>
	<path d="M622.5,769.1c6.7,0,12.4,0.3,18.1-0.1c6.4-0.5,8.6,2,6.7,8.8c-11.1,0-22.4,0-34.3,0c0-17.7,0-35.4,0-53.7
		c2.9,0,5.7,0,9.5,0C622.5,738.9,622.5,753.6,622.5,769.1z"/>
	<path d="M753,723.9c2.9,0,5.5,0,8.7,0c0,18,0,35.8,0,54.1c-2.8,0-5.5,0-8.7,0C753,760.2,753,742.3,753,723.9z"/>
	<path d="M1121.2,778.2c-3.2,0-5.7,0-8.9,0c0-17.9,0-35.7,0-54.2c2.8,0,5.6,0,8.9,0C1121.2,742.1,1121.2,759.7,1121.2,778.2z"/>
	<path d="M1241.6,723.8c2.8-0.1,5.5-0.3,8.8-0.4c0,18.4,0,36.3,0,54.6c-2.9,0-5.5,0-8.8,0C1241.6,760.1,1241.6,742.3,1241.6,723.8z"
		/>
</g>
</svg>
