<?xml version="1.0" encoding="utf-8"?>
<!-- Generator: Adobe Illustrator 22.1.0, SVG Export Plug-In . SVG Version: 6.00 Build 0)  -->
<svg version="1.1" id="Layer_2_1_" xmlns="http://www.w3.org/2000/svg" xmlns:xlink="http://www.w3.org/1999/xlink" x="0px" y="0px"
	 viewBox="0 0 640 480" style="enable-background:new 0 0 640 480;" xml:space="preserve">
<style type="text/css">
	.st0{fill:#5B8054;}
	.st1{fill:#565656;}
	.st2{fill:#5A8052;}
</style>
<g>
	<g>
		<path class="st0" d="M138.1,166.8C118.2,152,97.6,146.8,75,152c-14.8,3.4-27.2,11.3-36.6,23.3c-21.3,27-21.6,62.8-0.6,89.6
			c12.1,15.5,28.3,23.9,47.7,25.6c19.3,1.7,36.3-4.9,52.6-17.6c0,8.7,0.4,15.8-0.2,22.8c-0.2,2-2.9,4.6-5.1,5.6
			c-55.6,27.1-120.8-5.5-131-63.4c-6.2-34.7,4.1-64.8,31.9-86.9c28.9-23,61.4-27.3,96.1-13.7c6.3,2.5,9.4,5.9,8.6,13
			C137.6,155.2,138.1,160.2,138.1,166.8z"/>
		<g>
			<g>
				<path class="st1" d="M31.7,333h-7.6V354h-3.1V333h-7.5v-2.5h18.1V333z"/>
				<path class="st1" d="M69.3,354h-3.1v-10.9H54.4V354h-3.1v-23.5h3.1v10.1h11.8v-10.1h3.1V354z"/>
				<path class="st1" d="M104.2,343.1H94v8.3h11.8v2.5H90.9v-23.5h14.7v2.5H94v7.6h10.2L104.2,343.1L104.2,343.1z"/>
				<path class="st1" d="M134.4,344.5h-5.5v9.5h-3.1v-23.4h7.7c2.6,0,4.7,0.6,6.1,1.8c1.4,1.2,2.1,3,2.1,5.3c0,1.5-0.4,2.7-1.2,3.8
					c-0.8,1.1-1.9,1.9-3.3,2.4l5.5,10v0.2h-3.3L134.4,344.5z M128.9,341.9h4.8c1.5,0,2.8-0.4,3.7-1.2c0.9-0.8,1.4-1.9,1.4-3.2
					c0-1.5-0.4-2.6-1.3-3.3c-0.9-0.8-2.1-1.2-3.8-1.2H129L128.9,341.9L128.9,341.9z"/>
				<path class="st1" d="M175.2,347.8h-9.8l-2.2,6.1H160l9-23.5h2.7l9,23.5h-3.2L175.2,347.8z M166.3,345.3h8l-4-11L166.3,345.3z"/>
				<path class="st1" d="M203,344.8v9.2h-3.1v-23.4h8.7c2.6,0,4.6,0.7,6,2s2.2,3,2.2,5.2c0,2.3-0.7,4-2.1,5.3
					c-1.4,1.2-3.5,1.8-6.1,1.8L203,344.8L203,344.8z M203,342.3h5.6c1.6,0,2.9-0.4,3.8-1.2c0.9-0.8,1.3-1.9,1.3-3.4
					c0-1.4-0.4-2.5-1.3-3.4c-0.9-0.8-2.1-1.3-3.6-1.3H203L203,342.3L203,342.3z"/>
				<path class="st1" d="M250.1,343.1H240v8.3h11.8v2.5h-14.9v-23.5h14.7v2.5h-11.7v7.6h10.2L250.1,343.1L250.1,343.1z"/>
				<path class="st1" d="M288.3,330.5v16c0,2.2-0.7,4-2.1,5.4c-1.4,1.4-3.3,2.2-5.6,2.4l-0.8,0c-2.6,0-4.6-0.7-6.1-2.1
					c-1.5-1.4-2.3-3.3-2.3-5.7v-16h3.1v15.9c0,1.7,0.5,3,1.4,3.9c0.9,1,2.3,1.4,4,1.4c1.8,0,3.1-0.5,4-1.4c0.9-0.9,1.4-2.3,1.4-3.9
					v-15.9H288.3z"/>
				<path class="st1" d="M325.5,333h-7.6V354h-3.1V333h-7.5v-2.5h18.1V333z"/>
				<path class="st1" d="M348.4,354h-3.1v-23.5h3.1V354z"/>
				<path class="st1" d="M387.5,346.5c-0.3,2.5-1.2,4.4-2.8,5.8c-1.5,1.3-3.6,2-6.1,2c-2.8,0-5-1-6.7-3c-1.7-2-2.5-4.6-2.5-8v-2.3
					c0-2.2,0.4-4.1,1.2-5.8c0.8-1.6,1.9-2.9,3.3-3.8c1.4-0.9,3.1-1.3,4.9-1.3c2.5,0,4.5,0.7,6,2.1s2.4,3.3,2.6,5.8h-3.1
					c-0.3-1.9-0.8-3.2-1.8-4.1c-0.9-0.8-2.1-1.3-3.8-1.3c-2,0-3.5,0.7-4.6,2.2c-1.1,1.5-1.7,3.5-1.7,6.3v2.3c0,2.5,0.5,4.6,1.6,6.1
					c1.1,1.5,2.6,2.3,4.4,2.3c1.7,0,3-0.4,3.9-1.2c0.9-0.8,1.5-2.1,1.8-4.1L387.5,346.5L387.5,346.5z"/>
				<path class="st1" d="M414.7,343.5c-2.6-0.8-4.6-1.7-5.8-2.8c-1.2-1.1-1.8-2.5-1.8-4.1c0-1.8,0.7-3.4,2.2-4.6
					c1.5-1.2,3.4-1.8,5.8-1.8c1.6,0,3,0.3,4.3,0.9c1.3,0.6,2.2,1.5,2.9,2.6c0.7,1.1,1,2.3,1,3.6h-3.1c0-1.4-0.5-2.5-1.3-3.3
					c-0.9-0.8-2.2-1.2-3.8-1.2c-1.5,0-2.7,0.3-3.6,1c-0.8,0.7-1.3,1.6-1.3,2.8c0,1,0.4,1.8,1.2,2.4c0.8,0.7,2.2,1.3,4.1,1.8
					c2,0.5,3.5,1.2,4.6,1.8c1.1,0.7,1.9,1.4,2.5,2.3c0.5,0.9,0.8,1.9,0.8,3.1c0,1.9-0.7,3.4-2.2,4.6s-3.5,1.7-5.9,1.7
					c-1.6,0-3.1-0.3-4.5-0.9c-1.4-0.6-2.5-1.5-3.2-2.5c-0.8-1.1-1.2-2.3-1.2-3.6h3.1c0,1.4,0.5,2.5,1.6,3.4c1,0.8,2.5,1.2,4.2,1.2
					c1.6,0,2.9-0.3,3.8-1c0.9-0.7,1.3-1.6,1.3-2.7c0-1.2-0.4-2-1.2-2.7C418.3,344.7,416.8,344.1,414.7,343.5z"/>
			</g>
		</g>
		<path class="st2" d="M329.5,306.8c-28.1-60.6-55.7-120.1-84-181.1c-28.3,61-55.7,120.2-83.7,180.6h23.7
			c6.3-13.4,14.2-29.7,17.3-36.8c1.8-4.1,4.1-5.6,8.6-5.6c22.9,0.2,45.8-0.1,68.7,0.3c2.7,0,6.5,2.6,7.8,5
			c3.6,7,11.4,23.9,17.8,37.5L329.5,306.8L329.5,306.8z M215.3,242.6c10-22.5,19.7-44.4,30.2-68.2c10.5,23.7,20.2,45.6,30.4,68.2
			C255.3,242.6,236,242.6,215.3,242.6z"/>
	</g>
	<path class="st2" d="M556,125.7c-29.2,62.2-57.5,122.3-86.3,183.6c-19.2-26.4-37.5-51.5-56.2-77.2c3.8-1,6.1-1.6,8.2-2.3
		c19.5-6,32.7-23.8,33.2-44.8c0.5-21.7-11.2-40.6-30-46.8c-21.4-7-43.6-4.8-65.7-4.9c0,58.2,0,115.6,0,173.1c7.5,0,14.5,0,22.1,0
		c0-24.5,0-48.3,0-74.9c9.8,0.2,9.5,4.2,11.6,7c20.1,27.7,45.6,63.8,66.1,92.2l-11.7,23h24.3l2.2-7.1l3.9,7.1h27.8L485,328.4
		c8.7-17.7,20.2-41.9,27.6-57.8c2.2-4.8,4.8-6.9,10.3-6.8c22.4,0.3,44.8,0.3,67.2,0.1c4.9,0,7.1,1.7,9,6.1
		c2.8,6.7,10.2,23,16.5,36.8H640C611.8,246.1,584.3,186.8,556,125.7z M381.6,215.2c0-20.7,0-40.8,0-61.4c12.9-1.2,25.2-0.4,36.8,4.9
		c11.3,5.1,15.9,14.3,15.6,26.4s-5.4,21.1-16.8,25.8C406,215.6,394.2,215.9,381.6,215.2z M525.7,242.7c10-22.7,19.7-44.6,30.3-68.4
		c10.5,23.6,20.2,45.5,30.4,68.4C565.7,242.7,546.4,242.7,525.7,242.7z"/>
</g>
</svg>
