<?xml version="1.0" encoding="utf-8"?>
<!-- Generator: Adobe Illustrator 20.1.0, SVG Export Plug-In . SVG Version: 6.00 Build 0)  -->
<svg version="1.1" id="Layer_1" xmlns="http://www.w3.org/2000/svg" xmlns:xlink="http://www.w3.org/1999/xlink" x="0px" y="0px"
	 viewBox="0 0 640 480" style="enable-background:new 0 0 640 480;" xml:space="preserve">
<style type="text/css">
	.st0{fill:#FFFFFF;}
	.st1{fill:#F14033;}
	.st2{fill:#F44133;}
	.st3{fill:#00FFFF;}
	.st4{fill:#003F8A;}
</style>
<g id="svgg">
	<path id="path0" class="st0" d="M317.6,29c5.1,0.3,13.3,0.3,18.4,0c5.1-0.3,0.9-0.5-9.2-0.5S312.6,28.8,317.6,29 M184.1,50.2
		c-4.4,4.1-7,7-5.8,6.3c1.2-0.7,4.8-3.5,7.9-6.4c6.6-6,9.1-6.6,8.9-1.9c-0.1,2.4,0.3,2.9,1.4,1.8c1.7-1.7-0.2-6-2.9-6.9
		C192.7,42.8,188.5,46,184.1,50.2 M187.6,60c-7.5,9.4-8.4,10.7-7.6,10.7c0.4,0,3.8-4,7.6-8.8c3.8-4.9,6.6-8.8,6.2-8.8
		C193.5,53,190.6,56.1,187.6,60 M159.8,73.9L145.1,89l15.1-14.7c14-13.6,15.7-15.5,14.7-15.5C174.7,58.8,167.9,65.6,159.8,73.9
		 M169.1,86.4c-4.5,6.9-7.4,12.1-6.5,12.1c0.4,0,1.9-2.2,3.5-4.9c1.6-2.7,4-6.7,5.5-8.8c1.4-2.2,2.2-3.9,1.9-3.9
		C173.1,80.9,171.1,83.4,169.1,86.4 M119.7,112.2c-12.6,12.3-24.6,24-26.5,25.8c-1.9,1.9-3.3,3.6-3,3.9c0.3,0.3,12.6-11.3,27.4-25.8
		c14.8-14.5,26.5-26.3,26-26.3C143,89.7,132.3,99.8,119.7,112.2 M156.2,108.9c-2.5,4.9-4.1,8.8-3.7,8.8c0.4,0,2.7-4,5.2-8.8
		c2.5-4.9,4.1-8.8,3.7-8.8C161,100,158.6,104,156.2,108.9 M48.7,180.7c-21.5,20.8-39.9,39.1-41,40.8c-1,1.6,6.6-5.3,17-15.5
		c41.2-40.2,64.5-63.2,63.8-63.1C88.1,142.8,70.2,159.9,48.7,180.7 M134.9,161.2c-0.5,2.2-0.7,4.2-0.4,4.6c0.3,0.3,1.1-1.1,1.6-3.3
		c0.5-2.2,0.7-4.2,0.4-4.6C136.2,157.6,135.5,159,134.9,161.2 M125.7,213.3c0,3.6,0.3,5.1,0.6,3.3c0.4-1.8,0.4-4.8,0-6.6
		C126,208.2,125.7,209.7,125.7,213.3 M124.4,243.5c0,10.5,0.2,14.6,0.5,9.1c0.3-5.5,0.3-14.1,0-19.1
		C124.6,228.5,124.4,233,124.4,243.5 M0.6,243.5c0,3.2,0.3,4.4,0.7,2.6c0.3-1.8,0.3-4.5,0-5.9C0.9,238.7,0.6,240.2,0.6,243.5
		 M125.7,273.6c0,3.6,0.3,5.1,0.6,3.3c0.4-1.8,0.4-4.8,0-6.6C126,268.5,125.7,270,125.7,273.6 M16.4,273.2c0,0.9,0.6,1.9,1.3,2.2
		c1.3,0.5,56.3,53.5,151.9,146.5c11.8,11.5,22.4,20.9,23.5,20.9c1.3,0,0.9-0.7-0.9-1.7c-2.8-1.6-112.3-106.9-155.6-149.6
		C25.5,280.4,16.4,272.2,16.4,273.2 M130,303.8c0,1.6,0.5,4.6,1.2,6.6c0.9,2.9,1.2,3.1,1.2,0.7c0-1.6-0.5-4.6-1.2-6.6
		C130.2,301.6,130,301.5,130,303.8 M144.5,352.3c0,0.8,1.3,3.8,2.8,6.6c1.6,2.8,2.8,4.5,2.8,3.7s-1.3-3.8-2.8-6.6
		C145.8,353.2,144.5,351.5,144.5,352.3 M150.3,365.4c0,1.6,4.4,9.7,5.2,9.7c0.4,0-0.4-2.2-1.7-4.8
		C151.1,365,150.3,363.9,150.3,365.4 M161.3,386.9c1.3,2.4,2.6,4.4,3,4.4c0.4,0-0.3-2-1.5-4.4c-1.3-2.4-2.6-4.4-3-4.4
		C159.4,382.5,160.1,384.5,161.3,386.9 M173.4,406.1c1.5,2.5,3.6,5.3,4.7,6.3c1.1,0.9,0.2-1.1-2-4.5
		C171.3,400.7,169.4,399.5,173.4,406.1 M182.6,419.3c1.7,2.4,3.5,4.4,3.9,4.4s-0.7-2-2.4-4.4c-1.7-2.4-3.5-4.4-3.9-4.4
		C179.8,414.9,180.9,416.8,182.6,419.3 M193.9,434c0.9,1.2,2,3.5,2.4,5.1c0.7,2.8,0.7,2.8,0.9-0.2c0.1-1.7-1-4-2.4-5.1
		C192.5,432,192.4,432.1,193.9,434 M319.9,451.3c3.9,0.3,9.8,0.3,13.2,0c3.4-0.3,0.2-0.6-7-0.6C318.8,450.7,316,450.9,319.9,451.3"
		/>
	<path id="path1" class="st1" d="M181.2,56.2c-11.5,10.9-37.2,35.8-77.2,74.7c-12.9,12.6-39.9,38.6-59.8,57.9
		c-56.9,54.9-57,52.9,6.3,114.2c44,42.6,73,70.7,109.5,106.2c23,22.3,32.1,30.7,33.7,30.7c2.4,0,0.2-4-7.8-14.5
		c-84-110.3-84.5-251.8-1.4-363.1C199.3,42.3,198.2,40,181.2,56.2"/>
	<path id="path2" class="st2" d="M184.9,51c-4,3.7-16,15.1-26.5,25.4c-32,31.1-67.1,65.2-110.1,106.8
		c-38.1,36.9-45.2,44.6-45.1,49.6c0,1.1,1.3-0.7,2.7-4c1.6-3.6,9.9-12.8,20.9-23.4c10-9.6,26.8-25.9,37.3-36.1
		C160.2,76.1,191,46.6,193.1,45.9c3.3-1.2,0.5,4-8.7,16.4c-11.1,14.8-19.3,27.4-22.9,35c-1.3,2.7-1.5,3.7-0.5,2.1
		c1-1.5,6.9-10.5,13-19.9c6.1-9.4,13.6-20,16.6-23.5C200.2,44.6,195.9,40.8,184.9,51 M153.2,112c-2.5,4.9-4.3,9.2-4,9.5
		c0.3,0.3,2.7-3.7,5.2-9c2.6-5.2,4.4-9.5,4-9.5C158,103,155.6,107,153.2,112 M145.4,128.3c-3.9,9.2-4.1,12.3-0.3,4.2
		c2-4.4,3.4-8.3,3.1-8.6C147.8,123.6,146.6,125.5,145.4,128.3 M137.2,150.3c-1.7,5.1-3.1,9.9-3,10.7c0.1,0.9,1.7-3,3.7-8.6
		c2-5.6,3.3-10.4,3-10.7C140.6,141.3,138.9,145.2,137.2,150.3 M125.6,202.3c0,3.2,0.3,4.4,0.7,2.6c0.4-1.8,0.3-4.5,0-5.9
		C125.9,197.6,125.6,199,125.6,202.3 M124.2,217.7c0,4.5,0.3,6.3,0.6,4c0.3-2.2,0.3-5.9,0-8.1C124.5,211.5,124.2,213.3,124.2,217.7
		 M1.9,242.7c-0.3,13.2,2.9,17.9,29.4,43.8c107.3,104.2,160.3,154.8,162.2,154.8c4.3,0,2.3-4.7-7.8-18.2c-5.5-7.4-11.8-16.3-14-19.7
		c-2.1-3.4-4.3-6.3-4.7-6.3c-1.4,0,4.2,8.6,15.9,24.4c10.5,14.2,12.9,18.3,10.5,18.3c-1.5,0-10.7-8.4-33.7-30.7
		C126,376.3,96.1,347.3,50.5,303.1c-45-43.6-45.9-44.7-47.4-58.9l-1-9.6L1.9,242.7 M122.8,243.5c0,4.9,0.3,6.7,0.6,4
		c0.3-2.6,0.3-6.6,0-8.8C123,236.5,122.8,238.6,122.8,243.5 M124.2,269.2c0,4.5,0.3,6.3,0.6,4c0.3-2.2,0.3-5.9,0-8.1
		C124.5,263,124.2,264.8,124.2,269.2 M125.6,284.7c0,3.2,0.3,4.4,0.7,2.6c0.4-1.8,0.3-4.5,0-5.9
		C125.9,279.9,125.6,281.4,125.6,284.7 M132.8,320.7c0,1.2,0.6,3.5,1.3,5.1c0.8,1.9,1.3,2.1,1.3,0.7c0-1.2-0.6-3.5-1.3-5.1
		C133.3,319.6,132.8,319.3,132.8,320.7 M138.6,339.8c0,1.2,0.6,3.2,1.4,4.4c1.3,2,1.4,2,1.4,0c0-1.2-0.6-3.2-1.4-4.4
		C138.7,337.9,138.6,337.9,138.6,339.8 M144.5,355.3c0,0.8,1.3,3.8,2.8,6.6c1.6,2.8,2.8,4.5,2.8,3.7s-1.3-3.8-2.8-6.6
		C145.8,356.1,144.5,354.5,144.5,355.3 M157.4,381.8c2.4,4.9,5.5,10.1,6.8,11.8c1.3,1.6-0.1-1.7-3.1-7.4
		C154.4,373.3,151.3,369.8,157.4,381.8"/>
	<path id="path3" class="st3" d="M445,42.1c-1,2.6,2.1,9.3,7.1,15.3l3.1,3.7l-2.6-4.4c-1.4-2.4-3.5-5.7-4.6-7.3
		c-2.7-4-2.5-8.1,0.4-8.1c1.3,0,13.1,10.4,26.1,23.2c13.1,12.7,27,26.1,31.1,29.8c10.2,9.1-3.4-4.6-32.6-32.8
		C451.3,40.2,446.8,37.2,445,42.1 M276.7,48.2c-5.8,6.1-13.3,15.4-9.2,11.4c4.4-4.3,17.1-18.4,16.5-18.4
		C283.6,41.2,280.3,44.3,276.7,48.2 M387.3,48.8c2.9,2.7,7.1,7.5,9.2,10.6c2.1,3.1,3.9,5.2,3.9,4.5c0-2.7-8-12.5-13-16.2l-5.3-3.8
		L387.3,48.8 M460.3,72.8c3,6,5.7,10.7,6,10.4c0.7-0.7-9.7-21.4-10.7-21.4C455.1,61.8,457.3,66.7,460.3,72.8 M400.6,71.7
		c-0.2,4.9-1.3,7.5-5.5,12.1c-2.9,3.2-4.8,5.9-4.1,5.9c4.7,0,11.5-13,10.5-20.1C401,66.5,400.8,67,400.6,71.7 M254.5,81.8
		c-3.3,6.9-5.7,12.9-5.4,13.2c0.3,0.3,3.3-5.4,6.6-12.6c3.3-7.2,5.8-13.2,5.4-13.2C260.7,69.1,257.8,74.8,254.5,81.8 M386.1,94.5
		c-2.9,3.2-9.3,12.9-7.5,11.4c1.4-1.2,11.5-14.7,11-14.7C389.3,91.2,387.8,92.7,386.1,94.5 M526.1,114.4
		c7.3,7.5,13.7,13.6,14.2,13.6c0.9,0-23.6-24.4-26.5-26.4C513.4,101.2,518.9,107,526.1,114.4 M242.2,116.2c-0.6,2.5-0.7,4.9-0.3,5.3
		c0.4,0.4,1.1-1.4,1.6-4C244.7,111.4,243.6,110.2,242.2,116.2 M474.3,117.7c0,3.6,0.3,5.1,0.6,3.3c0.3-1.8,0.3-4.8,0-6.6
		C474.6,112.6,474.3,114.1,474.3,117.7 M543.3,130.2c0.2,1.5,30.7,31.3,30.7,30c0-0.4-7-7.6-15.4-16.1S543.2,129.4,543.3,130.2
		 M474.3,141.2c0,2.8,0.3,4,0.7,2.6c0.4-1.4,0.4-3.7,0-5.1C474.6,137.2,474.3,138.4,474.3,141.2 M464.5,168.3
		c-2.1,3.6-6.6,8.9-10.1,11.9c-4.2,3.7-4.8,4.4-1.6,2.3c5.4-3.6,11.4-10.4,14.5-16.5C470.8,159.5,468.8,161.1,464.5,168.3
		 M580.6,167.5c3.2,3.5,7.2,7,8.8,7.8c1.6,0.8,0.3-1-3-4.2C577.4,162.6,573.9,160.4,580.6,167.5 M379.5,170.1
		c4.2,6.1,12.3,13.1,19.4,16.7c9,4.6,9.1,3.4,0-1.5c-4.5-2.4-11.3-7.9-15.3-12.1C379.6,169,377.8,167.6,379.5,170.1 M231.6,181.7
		c0,4,0.3,5.5,0.6,3.3c0.3-2.2,0.3-5.5,0-7.4C231.9,175.8,231.6,177.6,231.6,181.7 M612.6,198c11.1,11.3,21.3,21.8,22.6,23.5
		c1.4,1.8,1.3,1.2-0.4-1.5c-1.5-2.5-11.7-13-22.6-23.5l-19.9-19L612.6,198 M409.9,191.3c1.6,0.6,7.2,1.2,12.5,1.2
		c12.1,0,10-0.8-4.4-1.7C411.8,190.5,408.3,190.7,409.9,191.3 M230.2,205.2c0,5.7,0.3,7.8,0.6,4.7c0.3-3.1,0.3-7.7,0-10.3
		C230.5,197.1,230.2,199.6,230.2,205.2 M635,257c-1.6,2.9-8.8,10.8-16,17.6c-7.3,6.8-12.7,12.3-12,12.3c3.9,0,33.5-32.6,31.5-34.6
		C638.1,252,636.6,254.1,635,257 M230.2,274.4c0,5.7,0.3,7.8,0.6,4.7c0.3-3.1,0.3-7.7,0-10.3C230.5,266.2,230.2,268.7,230.2,274.4
		 M419.1,286.4c1.8,0.4,4.5,0.3,5.9,0c1.4-0.4-0.1-0.7-3.3-0.6C418.5,285.8,417.3,286.1,419.1,286.4 M587.2,305.6l-16.9,17.3
		l17.3-16.9c16.1-15.7,18-17.7,16.9-17.7C604.3,288.3,596.5,296.1,587.2,305.6 M441.7,290.3c2.5,2,11.6,7,11.6,6.4
		c0-1-9.5-6.9-11.1-6.9C441.6,289.8,441.3,290,441.7,290.3 M231.6,297.9c0,4,0.3,5.5,0.6,3.3c0.3-2.2,0.3-5.5,0-7.4
		C231.9,292,231.6,293.9,231.6,297.9 M392,296.5l-4.1,3.8l4.8-3.3c2.6-1.8,4.8-3.5,4.8-3.8C397.4,292.1,395.8,293.1,392,296.5
		 M454.8,298c0,0.5,2.4,3.3,5.4,6.3l5.4,5.4l-4.7-6.2C456.3,297.5,454.8,296.2,454.8,298 M379.4,308.6c-2.6,2.9-7.1,11.4-7,13.2
		c0,0.6,1.4-1.5,3.1-4.7c1.7-3.2,4.1-7,5.3-8.5c1.2-1.4,1.9-2.6,1.5-2.6S380.7,307.2,379.4,308.6 M468.5,317.7
		c1.7,4,3.4,7.1,3.7,6.7c0.7-0.7-5.1-14.1-6.1-14.1C465.7,310.4,466.7,313.7,468.5,317.7 M234.5,323.7c0,2.8,0.3,4,0.7,2.6
		c0.4-1.4,0.4-3.7,0-5.1C234.8,319.7,234.5,320.8,234.5,323.7 M547.5,343.8c-10.9,11.1-19.3,19.7-18.5,19.2
		c3.9-3,40.3-39.3,39.4-39.3C567.8,323.7,558.4,332.7,547.5,343.8 M474.3,361.2c0,3.2,0.3,4.4,0.7,2.6c0.4-1.8,0.3-4.5,0-5.9
		C474.6,356.4,474.3,357.9,474.3,361.2 M241.7,360.4c0,1.2,0.6,3.5,1.3,5.1c0.8,1.9,1.3,2.1,1.3,0.7c0-1.2-0.6-3.5-1.3-5.1
		C242.2,359.3,241.7,359,241.7,360.4 M372.4,361c0,1.8,7.2,15.4,8.7,16.3c0.7,0.5-0.7-3-3.2-7.6C373,360.3,372.4,359.5,372.4,361
		 M519.5,370.2l-6.6,6.8l6.2-4.8c5-3.9,9.1-8.9,7.3-8.9C526.2,363.4,523.1,366.5,519.5,370.2 M497.4,392.4l-13.9,14.3l14.3-13.9
		c7.9-7.7,14.3-14.1,14.3-14.3C512.2,377.4,510.4,379.1,497.4,392.4 M384.2,381.8c2.9,4.1,16.6,18.8,15.9,17.2
		c-0.3-0.7-4.5-5.6-9.3-10.7C386.1,383.1,383.1,380.1,384.2,381.8 M466.7,391.5c-0.9,2.6-1.4,5-1.1,5.3c0.3,0.3,1.3-1.6,2.2-4.2
		c0.9-2.6,1.4-5,1.1-5.3C468.6,387,467.6,388.9,466.7,391.5 M254.7,397.8c0,1.6,5.8,12.7,6.7,12.7c0.4,0-0.7-2.8-2.4-6.3
		C255.6,397.4,254.7,396.1,254.7,397.8 M400.6,406.5c-0.1,3.1-1.3,7.5-2.5,9.9c-1.2,2.4-1.9,4.3-1.5,4.3c2.1,0,5.3-9.6,4.8-14.4
		l-0.6-5.4L400.6,406.5 M476.9,411.2c-4.9,5.2-3.1,5.6,2.2,0.6c2.4-2.3,3.7-4.2,2.8-4.2C481,407.5,478.8,409.2,476.9,411.2
		 M455.5,414.9c-1.3,2.4-2,4.4-1.5,4.4c0.4,0,1.8-2,3-4.4c1.3-2.4,2-4.4,1.5-4.4C458.2,410.4,456.8,412.4,455.5,414.9 M460.7,427.4
		c-6,6.1-10.6,11-10.2,11c0.4,0,5.7-5,11.7-11c6-6.1,10.6-11,10.2-11C472,416.3,466.7,421.3,460.7,427.4 M271.5,425.4
		c5.7,7.5,23,21.2,23,18.2c0-0.4-2-1.8-4.5-3.1c-2.5-1.3-8.6-6.4-13.5-11.4C270.8,423.5,268.9,422.1,271.5,425.4 M448.4,426.6
		c-4.3,6.6-5,11.1-1.7,12.3c1.8,0.7,1.9,0.4,0.4-2c-1.9-3-1.8-3.2,4.4-12.8c1.2-1.8,1.8-3.3,1.4-3.3
		C452.6,420.7,450.5,423.4,448.4,426.6 M388.6,428.3c-3.6,3.3-10.9,8.2-16.2,10.9c-5.3,2.7-9,4.9-8.4,5c3.1,0.2,19-9.3,25.4-15.2
		c4-3.7,6.9-6.7,6.5-6.7C395.6,422.3,392.2,425,388.6,428.3"/>
	<path id="path4" class="st4" d="M301.7,32.2c-49.8,19.5-77.6,113.9-70.7,239.6c7.4,134.9,47.7,194,119.7,175.5
		c40.5-10.4,60.3-35.8,42.6-55c-14.3-15.5-20.1-25.6-23.2-40.9c-6.8-32.4,19.3-65.3,51.6-65.2c55.6,0.2,71.6,67.2,32,133.7
		c-13.7,23-9.6,23.5,13.1,1.5c57.6-55.8,139-134.4,150.8-145.5c17.9-16.9,21.7-23.1,21.7-36c0.1-17,6.8-9.5-116.1-128.2
		c-12.1-11.7-33.4-32.4-47.3-45.9c-29.7-29-38.1-32.7-24.3-10.8c41.9,66.4,26.8,136.9-29.2,136.9c-52.4,0-70.4-57.1-32.2-102.3
		c14.6-17.3,13.6-26.7-4.3-41.7C366.3,31.7,323.5,23.7,301.7,32.2"/>
</g>
</svg>
