<?xml version="1.0" encoding="utf-8"?>
<!-- Generator: Adobe Illustrator 22.1.0, SVG Export Plug-In . SVG Version: 6.00 Build 0)  -->
<svg version="1.1" id="Layer_2_1_" xmlns="http://www.w3.org/2000/svg" xmlns:xlink="http://www.w3.org/1999/xlink" x="0px" y="0px"
	 viewBox="0 0 640 480" style="enable-background:new 0 0 640 480;" xml:space="preserve">
<style type="text/css">
	.st0{fill:#222F6E;}
</style>
<g>
	<g>
		<path class="st0" d="M258.8,133.6c-16.4,0.7-31.8,3.6-46.7,9.5c-26.6,10.9-47.1,28.8-60.2,54.7c-6.6,13.1-9.5,27.4-10.9,42
			c-4.4,43.8,8.4,83.6,27.7,122.3c5.1,10.2,10.6,19.7,15.7,29.9c-5.1-5.1-10.6-9.9-15.7-15.3c-20.4-20.8-39.1-43.1-54-68.2
			c-18.6-31.4-23.7-65-12-100c6.6-19.7,20.4-33.9,36.1-46.4c31-24.8,66.4-33.9,105.5-30.3C249,132.5,253.7,133.2,258.8,133.6z"/>
		<path class="st0" d="M148.2,263.9c5.5,23,15.7,42.7,32.5,59.5c35.8,35.8,85.8,38,124.5,16.1c8-4.4,14.6-11.3,21.9-17.2
			c1.8-1.5,3.3-2.9,5.8-3.6c-2.2,6.9-4.4,13.9-6.6,20.4c-5.8,17.9-11.7,35.8-17.5,53.7c-1.5,4.4-4,6.2-8.8,6.6
			c-30.3,1.8-59.1-2.6-85.4-18.2c-37.2-22.3-58.4-55.5-64.2-98.5c-0.4-3.3-0.7-6.2-1.1-9.5C149,269.7,148.6,266.8,148.2,263.9z"/>
		<path class="st0" d="M152.6,142.7c-8.8,6.6-17.2,12-24.5,18.6c-18.6,16.4-32.5,36.1-37.2,61c-5.1,26.6-1.1,52.6,10.6,77.4
			c10.2,21.5,24.8,40.1,39.8,58.4c0.7,0.7,1.5,1.5,1.5,3.3c-9.5-5.8-19-11.7-28.1-17.9c-19-12.8-37.2-27-50.4-46
			C39.1,261.4,43.5,219,74.5,188.4c17.9-17.9,39.4-30.3,62.8-40.1C141.7,145.7,146.8,144.6,152.6,142.7z"/>
		<path class="st0" d="M325.6,149.3c-3.6-1.8-6.9-3.6-10.2-5.5c-28.8-16.4-59.9-21.5-92.7-20.1c-36.5,1.8-71.2,9.9-104.7,24.5
			c-1.1,0.4-2.2,1.1-3.3,1.5c0,0-0.4,0-0.7-0.4c7.7-5.1,15-10.2,22.3-15c24.8-16.1,50.4-31,78.1-41.6c19.7-7.7,40.1-12.8,61.3-14.2
			c8-0.7,16.1,0,24.1,0.4c1.1,0,2.9,1.1,3.3,2.2c7.7,22.3,15,44.9,22.6,67.5C326,147.8,326,148.6,325.6,149.3z"/>
		<path class="st0" d="M278.2,1.1c7.3,21.9,14.6,43.4,22.3,66.8c-51.1,1.1-97.1,16.4-140.1,43.4C169,90.5,253.7,11.7,278.2,1.1z"/>
		<path class="st0" d="M171.6,352.2c15.7,20.8,34.7,35.4,58,44.9c23,9.1,47.1,12.4,72.3,10.9c-7.3,24.1-14.6,47.4-21.9,70.8
			C252.2,469.8,182.9,389.1,171.6,352.2z"/>
		<path class="st0" d="M239.8,184c2.6,11.3,2.2,23.4-1.1,29.2c-1.1-1.8-2.2-3.3-2.9-5.1c-4-10.6-13.1-16.4-24.5-15.3
			c-10.6,1.1-17.5,6.9-20.1,17.5c-3.6,16.1-4.7,32.1,1.5,48.2c2.6,6.6,6.6,11.7,12.4,15.3c8.8,5.8,18.6,5.1,27.4,0.7
			c5.5-2.9,9.5-8,13.9-12.4c1.1-1.1,1.1-3.6,1.1-5.5c-1.5-16.8,1.5-32.1,15-44.2c4.7-4,10.2-6.6,16.1-7.7
			c18.2-3.3,31.4,13.9,29.6,30.7c-0.4,2.9-2.6,4-5.1,4c-11.7,0-23.4,0-35,0c-4,0-5.1,1.5-5.1,5.1c-0.4,9.5,2.2,18.2,8.8,25.5
			c6.9,7.3,18.6,8.4,27.4,1.8c3.6-2.9,7.3-6.2,10.6-9.1c1.1,5.5-9.5,17.9-19.7,22.6c-12.8,5.8-24.1,1.1-39.4-16.8
			c-1.8,1.8-4,3.6-5.8,5.5c-10.9,10.6-23.7,17.2-39.8,14.6c-9.5-1.8-16.4-7.3-21.5-15c-9.1-13.1-10.6-27.7-9.5-42.7
			c0.7-10.6,3.3-20.1,9.9-28.8c5.8-7.7,13.1-13.1,21.9-16.8c2.2-0.7,4.7-1.5,7.3-1.5C221.6,184,230.7,184,239.8,184z M275.2,235.1
			L275.2,235.1c3.6,0,7.7,0,11.3-0.4c2.9-0.4,4.4-2.2,4.7-4.7c1.1-9.9-9.1-17.2-18.2-13.9c-5.1,1.8-10.6,12-9.5,17.2
			c0.4,0.7,1.5,1.8,2.6,1.8C269.4,235.1,272.3,235.1,275.2,235.1z"/>
		<path class="st0" d="M343.9,291.6c0,0.4,0.4,0.4,0.4,0.7c1.5,14.6,7.7,17.5,19.3,20.1c5.5,1.1,11.3,0.4,17.2,0.4
			c1.5,0,2.6-0.7,4-1.1c6.2-2.6,10.6-9.1,9.9-14.6c-0.4-4-6.2-8-12.8-8.8c-5.8-0.7-12-0.4-17.9-1.1c-5.8-0.7-12-1.5-17.5-4
			c-8.4-4-9.1-10.6-2.6-17.2c1.1-1.1,2.2-1.8,2.9-2.9c2.6-3.3,2.2-4.7-1.5-6.9c-12.4-8-14.6-24.1-4.7-35.4s22.6-15.7,37.2-13.1
			c10.6,1.8,21.2,3.3,31.8-0.4c0.7,4.7-2.2,8-5.1,9.5c-2.6,1.5-6.6,1.1-10.2,1.5c0.7,2.6,1.8,5.1,2.6,7.7
			c3.3,10.2,1.1,17.5-7.3,24.5c-8.8,7.3-19,9.1-29.9,9.9c-4,0-5.8,1.8-6.6,5.1c-0.7,3.3,0,6.2,3.6,6.6c5.5,1.1,10.9,1.8,16.4,2.6
			c5.8,0.4,12,0,17.9,0.7c7.7,0.7,13.5,5.1,16.1,12.4c2.6,6.6,0,12.8-4.7,17.9c-10.9,13.1-25.9,17.2-42,16.1
			c-5.5-0.4-11.3-1.5-16.1-4C334.7,311.4,334.4,298.6,343.9,291.6z M382.5,235.4c-0.7-3.3-1.1-6.9-2.2-10.2
			c-1.8-6.2-8.4-10.6-14.6-10.6s-11.3,4-13.9,10.2c-2.2,5.5-1.1,10.9,1.1,16.4c2.9,8,9.9,11.7,17.5,9.9
			C378.2,249.7,382.2,244.2,382.5,235.4z"/>
		<path class="st0" d="M457.7,285.4c1.5-1.8,2.2-2.9,3.3-3.3c4.4-1.8,5.8-5.1,5.8-9.9c0-16.4,0-33.2,0-49.6c0-3.6-0.7-5.8-4.7-6.6
			c-1.1-0.4-2.2-1.5-3.6-2.6c8.8-2.2,16.1-4.4,23.7-6.2c0.4,2.9,0.7,6.2,1.1,9.9c2.6-1.8,4.7-3.3,7.3-4.7c6.6-3.6,13.5-7.3,21.2-6.2
			c8.4,1.1,15,9.5,15.3,19c0,16.1,0,32.1,0,48.2c0,5.5,0.4,6.2,6.2,7.3c0.7,0,1.8,0.4,2.2,0.7c0.7,0.4,1.8,1.8,1.8,2.2
			c-0.4,1.1-1.5,2.2-2.2,2.2c-8.8,0-17.9,0-26.6,0c-0.7,0-1.5-0.7-1.8-1.5c0-0.7,0.4-1.8,0.7-2.2c4.7-1.8,4.4-5.8,4.4-10.2
			c0-15-0.4-30.3,0-45.3c0-8-5.8-11.7-12.4-10.6c-12,1.8-17.2,6.9-16.8,18.2c0.4,12.8,0,25.2,0,38c0,5.8,0.7,7.3,6.6,8.8
			c2.2,0.7,3.6,1.1,2.6,4C481.1,285.4,470.1,285.4,457.7,285.4z"/>
		<path class="st0" d="M546.8,239.8c-0.7,10.9,0.4,20.4,6.9,28.8c7.7,9.1,18.6,10.6,28.1,3.6c3.3-2.6,6.6-5.5,10.2-8.8
			c-0.7,2.2-1.1,4-1.8,5.8c-9.9,19-29.9,24.8-48.2,9.1c-16.4-14.2-17.2-59.5,12-71.2c8.8-3.6,17.5-4.7,25.5,1.5
			c8,6.2,13.1,14.6,12,25.5c-0.4,3.6-1.8,5.5-5.8,5.5c-10.9-0.4-22.3,0-33.2,0C551.2,239.8,549.3,239.8,546.8,239.8z M547.9,234.3
			c7.7,0,15.3,0.4,23.4,0c1.5,0,3.6-2.2,4-3.6c2.2-6.6-3.6-14.6-10.6-15.3C553.3,213.9,546,222.3,547.9,234.3z"/>
		<path class="st0" d="M416.1,239.8c-1.1,10.9,0.4,20.4,6.9,28.8c7.7,9.1,19,10.6,28.5,3.6c3.3-2.2,5.8-5.1,9.5-8
			c0,1.5,0,2.6-0.4,3.3c-6.2,15.7-24.1,27-42.7,16.1c-12-6.9-16.8-18.2-17.5-31.4c-0.7-9.5,0.7-18.2,4.7-27
			c5.8-12,15.3-18.6,28.5-20.4c15-1.8,24.5,10.9,27.4,22.3c0.4,1.1,0.4,2.6,0.7,3.6c0.7,7.3-1.1,9.1-8.4,9.1
			C440.9,239.8,428.9,239.8,416.1,239.8z M428.2,235.1L428.2,235.1c3.6,0,7.7,0.4,11.3-0.7c1.8-0.4,4.4-2.2,5.1-4
			c2.2-6.2-4-15-10.6-15.3c-10.2-0.7-15,2.6-17.2,15.7c-0.7,3.3,0.7,4.7,4,4.4C423.1,234.7,425.6,235.1,428.2,235.1z"/>
		<path class="st0" d="M329.3,170.8c0,2.6,0,4.4,0,6.6c0,31.8,0,63.5,0,95.3c0,4,1.1,6.9,4.7,8.4c1.1,0.4,1.8,2.2,2.6,3.3
			c-1.1,0.4-2.6,1.5-3.6,1.5c-8.8,0-17.2,0-27.4,0c1.8-2.2,2.6-3.6,4-4.7c3.6-2.6,4.7-5.8,4.7-10.2c0-25.9,0-52.2,0-78.1
			c0-9.1-1.5-10.9-12-12.8c2.2-1.8,4-4,5.5-4c7.3,0,13.9-1.5,19.7-5.5C327.8,170.5,328.2,170.8,329.3,170.8z"/>
	</g>
</g>
</svg>
