<?xml version="1.0" encoding="utf-8"?>
<!-- Generator: Adobe Illustrator 18.1.1, SVG Export Plug-In . SVG Version: 6.00 Build 0)  -->
<svg version="1.1" id="Layer_1" xmlns="http://www.w3.org/2000/svg" xmlns:xlink="http://www.w3.org/1999/xlink" x="0px" y="0px"
	 viewBox="0 0 640 480" enable-background="new 0 0 640 480" xml:space="preserve">
<path fill="#008348" d="M335.7,11.4c7.1-3.9,15.2-5.2,23.1-6.4c8.5-0.1,17.2,1.2,25.2,4.2c18,8.1,30.8,24.8,38.2,42.7
	c3.8,8.1,5.4,17.1,6.4,25.9c0.5,4.9,0.5,9.8,0,14.6c-0.7,3.8-1.2,7.7-1.5,11.5c-1,4.8-2.2,9.6-3.6,14.4
	c-4.6,13.8-11.2,26.7-18.6,39.2c-9.5,17.1-22.9,31.4-35.6,46.1c13.2-4.2,25.6-10.3,38.7-14.8c16.2-4.8,32.4-9.9,49.2-12
	c11-0.1,22.2-0.9,32.8,2.1c23.4,4.8,45.7,19.7,55.8,41.9c3.6,9,8,18,8,27.9c1.3,14-4.2,27.9-13.3,38.4c-4.7,5.2-10.8,9-16.4,13.1
	c1.5,6.2,4.3,12.2,3.9,18.7c0.7,10.2-1.5,20.2-4.5,29.9c-5,14.7-16.9,25.8-30.3,33c-10.5,4.8-22,7.2-33.5,6.5
	c-18.5-0.8-37.1-7.2-51-19.7c-15.7-12.3-30.4-25.8-44.9-39.6c-10.3-8.2-18-19-27.7-27.9c-0.7,10.1-0.5,20.3,0.8,30.4
	c0.2,10.4,1.9,20.6,4.2,30.7c7.3,30.5,22.8,60.5,48.7,79.2c-2.6,11.3-6.9,22.2-9.3,33.5c-1-0.8-2.1-1.6-3.1-2.4
	c-8.1-4-14.8-10.5-21.5-16.6c-15.1-14.5-26.7-32.2-35.4-51.1c-14.1-32.7-19-68.8-18-104.2c-1.5,2.2-3.2,4.3-4.8,6.5
	c-12.1,15.2-25.3,29.5-39.7,42.6c-13.2,11.9-27.5,22.7-43.8,29.7c-21.2,8.4-45.6,8.1-66.4-1.3c-7.3-2.6-13.5-7.3-19-12.5
	c-7.4-7.1-12.1-16.5-14-26.5c-1.3-12.1-0.2-24.6,5-35.8c-11.8-6.7-22-16.5-27.8-28.9c-7.2-13.3-7.1-29-4.1-43.4
	c3.7-16.6,14-31.4,28.5-40.4c15-9.9,33.3-14.1,51.1-13.9c18.8-0.5,37.4,2.5,55.7,6.6c15.2,3.8,30.3,7.7,45.3,12
	c0.6,0.5,1.8,1.4,2.5,1.9c-3.6-7.3-10-12.9-14.8-19.5c-19.5-23.8-38-50.3-44.2-81.1c-3-14.5-1.2-29.5,3.8-43.3
	c4.1-10.5,10.8-19.6,18.3-27.8c6.3-5.7,13.8-10.7,22.4-12.1c9.4-1.4,19.2-1.8,28.4,0.6c10.6,2,19.7,8.3,28.8,13.7
	C320.6,21.8,327.9,16.2,335.7,11.4z"/>
</svg>
