<?xml version="1.0" encoding="utf-8"?>
<!-- Generator: Adobe Illustrator 22.1.0, SVG Export Plug-In . SVG Version: 6.00 Build 0)  -->
<svg version="1.1" id="Layer_2_1_" xmlns="http://www.w3.org/2000/svg" xmlns:xlink="http://www.w3.org/1999/xlink" x="0px" y="0px"
	 viewBox="0 0 640 480" style="enable-background:new 0 0 640 480;" xml:space="preserve">
<style type="text/css">
	.st0{clip-path:url(#SVGID_2_);}
	.st1{fill:#5091B8;}
	.st2{fill:#B5BD21;}
	.st3{fill:#043B5B;}
	.st4{fill:#0B6399;}
</style>
<g>
	<g>
		<defs>
			<circle id="SVGID_1_" cx="320" cy="240" r="240"/>
		</defs>
		<clipPath id="SVGID_2_">
			<use xlink:href="#SVGID_1_"  style="overflow:visible;"/>
		</clipPath>
		<g class="st0">
			<polygon class="st1" points="502.8,120.7 419.5,140.4 446.5,170.5 491.2,170.5 506.5,140.4 			"/>
			<polygon class="st2" points="218.3,140.4 249,70.2 270.2,120.7 			"/>
			<polygon class="st3" points="320,100.2 270.2,120.7 249,70.2 			"/>
			<polygon class="st1" points="298.8,189.4 293.6,111 270.2,120.7 			"/>
			<polygon class="st2" points="218.3,140.4 199.2,189.4 148.7,170.5 			"/>
			<polygon class="st3" points="179.5,240 199.2,189.4 148.7,170.5 			"/>
			<polygon class="st4" points="249,242.9 179.5,240 167.4,212.4 			"/>
			<polygon class="st2" points="148.7,310.2 179.5,240 80,240 			"/>
			<path class="st4" d="M148.7,408.1v-97.9l-50.2,22.4C98.5,332.6,125.3,394.8,148.7,408.1z"/>
			<polygon class="st2" points="270.2,260.4 221.9,340.2 199.2,289 			"/>
			<polygon class="st4" points="148.7,310.2 199.2,289 221.9,340.2 			"/>
			<polygon class="st3" points="298.8,286 270.2,359.1 221.9,340.2 			"/>
			<polygon class="st2" points="249,411.9 270.2,359.1 221.9,340.2 			"/>
			<polygon class="st1" points="320,381.8 249,411.9 270.2,359.1 			"/>
			<polygon class="st3" points="320,479.9 387.3,411.9 320,381.8 			"/>
			<polygon class="st3" points="338.3,286 387.3,411.9 410.7,359.1 			"/>
			<path class="st1" d="M374.5,359.1c-5.5,5.7-54.5,22.7-54.5,22.7l21.9,49l45.3-15.4L374.5,359.1z"/>
			<path class="st4" d="M249,411.9l70.9,68c0,0-39.6-1.4-59.6-7.5s-35.8-12.3-35.8-12.3L249,411.9z"/>
			<path class="st3" d="M152.6,411.9H249l-24.5,48.3C224.5,460.2,161.5,428.7,152.6,411.9z"/>
			<path class="st4" d="M387.3,415.5l-3.4,55.8c0,0-32.3,9-41.9,8.6s-21.9,0-21.9,0l67.3-68V415.5z"/>
			<path class="st4" d="M487.3,411.9h-94.9l27.3,72.1C419.6,483.9,484.9,431.6,487.3,411.9z"/>
			<polygon class="st4" points="487.3,310.2 487.3,408.1 415.8,340.2 			"/>
			<polygon class="st2" points="459,242.9 487.3,310.2 439.9,291.9 			"/>
			<polygon class="st3" points="439.9,189.4 459,242.9 367.5,220.9 			"/>
			<polygon class="st2" points="491.2,170.5 559.9,240 469.9,216.2 			"/>
			<polygon class="st3" points="459,242.9 469.9,216.2 559.9,240 			"/>
			<path class="st1" d="M487.3,310.2l72.6-70.2c0,0,0.1,35.9-7.7,60.4c-7.7,24.4-11.3,33.3-11.3,33.3L487.3,310.2z"/>
			<polygon class="st4" points="419.5,140.4 439.9,189.4 491.2,170.5 			"/>
			<path class="st4" d="M491.2,71.8v98.6l50.1-23.4C541.3,147.1,519.8,96.8,491.2,71.8z"/>
			<polygon class="st2" points="387.3,70.2 419.5,140.4 367.5,120.7 			"/>
			<polygon class="st4" points="338.3,189.4 419.5,140.4 353.6,150.3 			"/>
			<polygon class="st4" points="320,100.2 320,0 374.5,54.9 			"/>
			<polygon class="st1" points="371.2,70.2 387.3,70.2 367.5,120.7 320,100.2 			"/>
			<path class="st1" d="M410.7,17.8v52.5l80.5,1.6C491.2,71.8,449.4,29.8,410.7,17.8z"/>
			<path class="st1" d="M320,0l-70.9,70.2l-24.5-52.5C224.5,17.8,285.2-2.5,320,0z"/>
			<path class="st4" d="M152.6,70.2H249l-24.5-52.5C224.5,17.8,155.6,54.9,152.6,70.2z"/>
			<path class="st4" d="M148.7,170.5l3.8-100.2c0,0-27.1,25.3-37.9,45.5c-11,20.1-11,20.1-11,20.1L148.7,170.5z"/>
			<path class="st3" d="M80,240l68.7-69.5l-51.4-20.2C97.3,150.3,76.2,197.2,80,240z"/>
			<polygon class="st3" points="410.7,17.8 387.3,70.2 320,100.2 			"/>
		</g>
	</g>
</g>
</svg>
