<?xml version="1.0" encoding="utf-8"?>
<!-- Generator: Adobe Illustrator 20.1.0, SVG Export Plug-In . SVG Version: 6.00 Build 0)  -->
<svg version="1.1" id="Layer_1" xmlns="http://www.w3.org/2000/svg" xmlns:xlink="http://www.w3.org/1999/xlink" x="0px" y="0px"
	 viewBox="0 0 640 480" style="enable-background:new 0 0 640 480;" xml:space="preserve">
<style type="text/css">
	.st0{fill:#95C11F;}
	.st1{fill:#0085CC;}
</style>
<g>
	<g>
		<path class="st0" d="M541.3,293.2c-41-54.3-102.4-109.5-119.3-123.8c-11.6-9.8-24-14.2-35.6-14.2c-11.6,0-23.2,5.3-32.9,13.4
			c-1.8,1.8-4.5,4.5-8,7.1c-24,20.5-99.7,89.9-101.5,91.7c-5.3,5.3-13.4,8.9-21.4,8.9c-7.1,0-15.1-3.6-23.2-10.7
			c-5.3-5.3-31.2-25.8-61.4-59.7c-18.7-20.5-33.8-39.2-33.8-39.2s-3.6,7.1-5.3,11.6c-1.8,4.5,0,6.2,0.9,8
			c9.8,14.2,56.1,69.5,119.3,123.8c11.6,9.8,24,14.2,35.6,14.2c11.6,0,23.2-5.3,32.9-13.4c1.8-1.8,5.3-4.5,8-7.1
			c24-20.5,70.3-62.3,91.7-82.8c4.5-4.5,8-7.1,9.8-8.9c5.3-5.3,13.4-8.9,21.4-8.9c7.1,0,15.1,3.6,23.2,10.7
			c13.4,11.6,35.6,32.1,61.4,58.8c18.7,20.5,33.8,39.2,33.8,39.2s3.6-7.1,5.3-12.5C543.1,296.8,542.2,294.1,541.3,293.2"/>
		<path class="st1" d="M297.3,93.7c-21.4,15.1-108.6,96.2-125.6,115.8c0,0,12.5,13.4,30.3,28.5c4.5,4.5,10.7,3.6,15.1-1.8
			c33.8-33.8,102.4-94.4,111.3-101.5c25.8-22.3,56.1-24,83.7-3.6c66.8,49.9,126.4,129.1,136.2,144.3c0,0,1.8-7.1,2.7-13.4
			c0,0,0.9-6.2-1.8-11.6c-63.2-90.8-130-146.9-155.8-161.2C365,74.2,331.1,68.8,297.3,93.7"/>
		<path class="st1" d="M226.1,45.7C183.3,80.4,127.2,132,113,147.2c0,0,10.7,13.4,26.7,29.4c3.6,2.7,6.2,1.8,9.8-0.9
			c42.7-41,89-83.7,115.8-104.2c45.4-34.7,98-38.3,150.5,2.7c19.6,15.1,36.5,30.3,61.4,56.1c32.1,34.7,52.5,64.1,75.7,97.1
			c0,0,0-8.9-2.7-20.5c0-1.8-0.9-5.3-2.7-8c-4.5-8.9-24.9-43.6-54.3-77.5c-57.9-67.7-94.4-88.2-118.4-100.6
			C344.5,4.7,283.9,0.2,226.1,45.7"/>
		<path class="st1" d="M342.7,386.7c21.4-15.1,108.6-96.2,125.6-115.8c0,0-12.5-13.4-30.3-28.5c-4.5-4.5-10.7-3.6-15.1,1.8
			c-34.7,32.9-103.3,93.5-112.2,100.6c-25.8,22.3-56.1,24-83.7,3.6c-66.8-49.9-126.4-129.1-136.2-144.3c0,0-1.8,7.1-2.7,13.4
			c0,0-0.9,6.2,1.8,11.6c63.2,90.8,130,146.9,155.8,161.2C275,406.3,308.9,410.7,342.7,386.7"/>
		<path class="st1" d="M413.1,433.9c42.7-34.7,98.8-86.4,113.1-101.5c0,0-10.7-13.4-26.7-29.4c-3.6-2.7-6.2-1.8-8.9,0.9
			c-42.7,41-89,83.7-115.8,104.2c-45.4,34.7-98,38.3-150.5-2.7c-19.6-15.1-36.5-30.3-61.4-56.1c-32.1-34.7-52.5-64.1-75.7-97.1
			c0,0,0,8,2.7,20.5c0.9,1.8,0.9,5.3,2.7,8c4.5,8.9,24.9,43.6,54.3,78.4c57.9,67.7,94.4,88.2,118.4,100.6
			C295.5,474.9,356.1,480.2,413.1,433.9"/>
	</g>
</g>
</svg>
