<?xml version="1.0" encoding="utf-8"?>
<!-- Generator: Adobe Illustrator 22.1.0, SVG Export Plug-In . SVG Version: 6.00 Build 0)  -->
<svg version="1.1" id="Layer_1" xmlns="http://www.w3.org/2000/svg" xmlns:xlink="http://www.w3.org/1999/xlink" x="0px" y="0px"
	 viewBox="0 0 640 480" style="enable-background:new 0 0 640 480;" xml:space="preserve">
<path d="M412.4,427.4c3.2-0.8,6.4-2.4,9.6-2.4c67.4-8,125.2-57.8,142-123.6c12.8-50.6,10.4-100.3-12-148.5
	c-27.3-58.6-75.4-85.1-137.2-90.7c-12.8-1.6-26.5-1.6-40.1-1.6c-19.3,0-23.3,3.2-23.3,23.3c0,30.5,0,61.8,0,92.3c0,69,0,138,0,207
	c0,19.3-5.6,41.7,28.1,41.7c-0.8,1.6-1.6,3.2-2.4,4c-3.2,1.6-6.4,4-9.6,4c-67.4-0.8-136.4,3.2-203-3.2
	C56.9,418.6-11.3,323.1,1.5,215.6c12-101.9,90.7-166.9,193.4-166.9c11.2,0,22.5,0,33.7,0c0,1.6,0.8,3.2,0.8,4.8
	c-3.2,1.6-6.4,4-9.6,4C155.6,59.1,93,112.9,74.6,182.7c-15.2,57-8.8,111.5,21.7,162.1c29.7,49.8,77,70.6,132.4,75.4
	c12.8,0.8,25.7,0,38.5,0.8c14.4,0.8,20.1-5.6,20.1-20.1c0-33.7,0-66.6,0-100.3c0-69.8,0-138.8,0-208.6c0-28.1,0-28.1-27.3-37.7
	c4-3.2,7.2-7.2,9.6-6.4c74.6,2.4,150.1-8,223.9,6.4C585.8,71.9,650,165.8,638.7,258.9c-6.4,53.8-26.5,98.7-69,133.2
	c-35.3,28.1-76.2,40.1-121.2,40.9c-12,0-24.9,0-36.9,0C412.4,431.4,412.4,429.8,412.4,427.4z"/>
</svg>
