<?xml version="1.0" encoding="utf-8"?>
<!-- Generator: Adobe Illustrator 22.1.0, SVG Export Plug-In . SVG Version: 6.00 Build 0)  -->
<svg version="1.1" id="Layer_2_1_" xmlns="http://www.w3.org/2000/svg" xmlns:xlink="http://www.w3.org/1999/xlink" x="0px" y="0px"
	 viewBox="0 0 640 480" style="enable-background:new 0 0 640 480;" xml:space="preserve">
<style type="text/css">
	.st0{fill:#0072BC;}
</style>
<g>
	<g>
		<path class="st0" d="M443.7,311.7c29.3,0.4,58.6,0.6,87.9-0.1c17.1-0.4,27.4-9.8,27.5-27.5c0.3-29.3,0.1-58.6,0.1-87.9
			c0-17.7-9.7-28.3-26.6-28.7c-38.3-1-76.7-0.3-117.4-0.3c0,41.4-0.8,80.4,0.4,119.6C416.2,302.4,427.6,311.4,443.7,311.7z"/>
		<path class="st0" d="M393.8,388.1v-12.6c0-23.4-19.1-42.4-42.4-42.4h-12.3c-7.4-0.9-15.7-1.1-25-0.4c-6.9,0.5-13.9,0.3-20.8,0
			c-32-1.7-58.6-24.8-63.8-56.7c-0.5-3-0.8-6-1.1-9.1v-63.2c0-23.4-19.1-42.4-42.4-42.4h-64.8c-23.4,0-42.4,19.1-42.4,42.4v64.8
			c0,23.4,19.1,42.4,42.4,42.4h39.6c35.9,3.5,63.9,20.4,79.9,55.5c5.2,11.3,6.5,24.5,7.5,37.6v32.2c0,23.4,19.1,42.4,42.4,42.4H309
			c10.4,1.1,20.9,1.2,30.9,0h11.4c23.4,0,42.4-19.1,42.4-42.4v-18C394.8,408,394.9,397.7,393.8,388.1z"/>
		<path class="st0" d="M558.4,3.6c-48,0-95.1,0-142.1,0c0,47.8,0,93.6,0,140.2c47.9,0,94.5,0,142.1,0
			C558.4,96.4,558.4,50.5,558.4,3.6z"/>
		<path class="st0" d="M272.4,144.2c39.7,1.5,79.4,0.5,121.2,0.5c0-40.4,0.8-78.6-0.3-116.7c-0.5-17.9-12.4-27.5-30.6-27.6
			c-27.6-0.2-55.4-0.5-83,0.1c-20.2,0.5-31.1,11.4-31.2,32c-0.2,27.6-0.2,55.3,0.1,83C248.6,131.1,256.5,143.7,272.4,144.2z"/>
		<path class="st0" d="M153.3,332.7c-40.9,0.4-72.5,32.7-72.3,74c0.3,40.4,33.6,73.5,73.8,73.3c39.9-0.2,74-34.1,74.1-73.7
			C229,364.9,195.6,332.3,153.3,332.7z"/>
		<path class="st0" d="M519,333.8h-11.5c-2.6-0.1-5.3-0.2-8.1-0.2c-16.2,0-32.4,0.2-48.6-0.1c-37-0.6-56.6-19.8-57.9-57.3
			c-0.6-20.1,0-40.1-0.2-60.2c-0.2-25.5-8.6-40.1-27.5-46c-5.3-2.4-11.1-3.7-17.4-3.7H288c-2.2,0-4.4,0.2-6.4,0.5
			c-1.1,0-2.3,0-3.4-0.1c-29.7-0.9-48.9-19.7-50.2-49.4c0-1,0-2.2-0.1-3.3c0.3-2.2,0.6-4.5,0.6-6.8V42.4C228.4,19,209.3,0,186,0
			h-64.8C97.8,0,78.8,19.1,78.8,42.4v64.8c0,23.4,19.1,42.4,42.4,42.4H186c1.8,0,3.5-0.1,5.2-0.3c28,7.8,47.7,28.4,54.6,55.9
			c-0.1,1.1-0.2,2.2-0.2,3.3v59.9c0,23.4,19.1,42.4,42.4,42.4h1.4c2.3,0.4,4.7,0.7,7.1,0.8c8.4,0.5,16.9,0.1,25.5,0.2
			c63.1,0.2,92.9,30.6,93.4,93.8c0.1,8.5,0.1,17.4,1,25.9v4.7c0,23.4,19.1,42.4,42.4,42.4h35.7c4.9,0.1,9.8,0.2,14.5,0h9.9
			c23.4,0,42.4-19.1,42.4-42.4v-60.2C561.4,352.8,542.3,333.8,519,333.8z"/>
	</g>
</g>
</svg>
