<?xml version="1.0" encoding="utf-8"?>
<!-- Generator: Adobe Illustrator 19.1.1, SVG Export Plug-In . SVG Version: 6.00 Build 0)  -->
<svg version="1.1" id="Layer_1" xmlns="http://www.w3.org/2000/svg" xmlns:xlink="http://www.w3.org/1999/xlink" x="0px" y="0px"
	 viewBox="0 0 640 480" style="enable-background:new 0 0 640 480;" xml:space="preserve">
<style type="text/css">
	.st0{fill:#21254E;}
	.st1{fill:#E20613;}
</style>
<g>
	<path class="st0" d="M173.6,350.8c-13.3,16.8-33.9,27.6-57,27.6c-40.3,0-72.8-32.6-72.8-72.8c0-40.3,32.6-72.8,72.8-72.8
		c21.9,0,41.5,9.6,54.8,24.9l27.3-34.7c-21-21-50.1-33.9-82.1-33.9C52.2,189,0,241.2,0,305.6c0,64.4,52.2,116.5,116.6,116.5
		c32.2,0,61.3-13,82.4-34.1L173.6,350.8z"/>
	<rect x="222.3" y="193.7" class="st0" width="49.2" height="225.8"/>
	<rect x="490.4" y="194.9" class="st0" width="49.2" height="225.8"/>
	<path class="st0" d="M406.3,421.8c-42.3,0-52.4-36.1-53.4-56.4h-0.3v-129h-43.2v-41.4h43.2v-43.8l43.8-26.6l-1.2,33.6v36.9h44.4
		v41.4h-44.4v114.5c-0.3,1.6-0.4,3.2-0.4,4.9c0,1.7,0.1,3.3,0.4,4.9v2.6c1.7,10,8.4,18.3,17.5,22.2c3.6,1.5,7.5,2.4,11.6,2.4
		c9.2,0,17.4-4.2,22.8-10.8c1.2-1.5,2.3-3.1,3.2-4.8c0,0,0-0.1,0.1-0.1C450.4,372.2,451.2,421.8,406.3,421.8z"/>
	<path class="st0" d="M395.2,350.8v9.9c-0.3-1.6-0.4-3.3-0.4-4.9C394.8,354.1,394.9,352.4,395.2,350.8z"/>
	<path class="st1" d="M388.9,54c-83.4,0-156.9,42.5-200,107h69.5c33.6-32.9,79.7-53.2,130.5-53.2s96.8,20.3,130.5,53.2h69.5
		C545.8,96.5,472.3,54,388.9,54z"/>
	<g>
		<path class="st0" d="M605.2,157v-25h12c2.2,0,3.9,0.2,5.1,0.6c1.2,0.4,2.1,1.2,2.8,2.3c0.7,1.1,1.1,2.5,1.1,4.1
			c0,1.4-0.3,2.6-0.8,3.6c-0.5,1-1.3,1.8-2.3,2.5c-0.6,0.4-1.5,0.7-2.5,1c0.9,0.3,1.5,0.6,1.9,0.9c0.3,0.2,0.6,0.6,1.2,1.3
			c0.5,0.7,0.8,1.2,1,1.6l3.5,7.2H620l-3.9-7.6c-0.5-1-0.9-1.6-1.3-1.9c-0.5-0.4-1.1-0.6-1.8-0.6h-0.6V157H605.2z M612.4,142.1h3
			c0.3,0,1-0.1,1.9-0.3c0.5-0.1,0.9-0.4,1.2-0.8c0.3-0.4,0.5-0.9,0.5-1.5c0-0.8-0.2-1.4-0.7-1.9c-0.5-0.4-1.4-0.6-2.7-0.6h-3.2
			V142.1z"/>
	</g>
	<path class="st0" d="M614.8,119.6c-13.9,0-25.2,11.3-25.2,25.2c0,13.9,11.3,25.2,25.2,25.2c13.9,0,25.2-11.3,25.2-25.2
		C640,130.9,628.7,119.6,614.8,119.6z M614.8,165.4c-11.4,0-20.6-9.2-20.6-20.6c0-11.4,9.2-20.6,20.6-20.6
		c11.4,0,20.6,9.2,20.6,20.6C635.3,156.2,626.1,165.4,614.8,165.4z"/>
</g>
<path class="st0" d="M395.2,350.8v9.9c-0.3-1.6-0.4-3.3-0.4-4.9C394.8,354.1,394.9,352.4,395.2,350.8z"/>
</svg>
