<?xml version="1.0" encoding="utf-8"?>
<!-- Generator: Adobe Illustrator 20.1.0, SVG Export Plug-In . SVG Version: 6.00 Build 0)  -->
<svg version="1.1" id="Layer_1" xmlns="http://www.w3.org/2000/svg" xmlns:xlink="http://www.w3.org/1999/xlink" x="0px" y="0px"
	 viewBox="0 0 640 480" style="enable-background:new 0 0 640 480;" xml:space="preserve">
<g transform="translate(0.000000,512.000000) scale(0.100000,-0.100000)">
	<path d="M3507.6,5006.8c-717.8-62.4-1452.5-510-1942.9-1183.2c-268.4-367.4-445.8-801.6-510-1243.8c-18.7-126.6-18.7-393.2,0-522.5
		c47.3-329,178.3-619.7,370-820.3c55.3-58,77.6-69.5,115-58.8c48.1,14.3,68.7,29.4,184.6,143.6c64.2,62.4,146.2,135.5,182.8,162.3
		c172.1,126.6,449.4,394.1,592.9,573.3c108.8,135.5,168.5,222.9,330.8,483.3c341.5,549.3,548.4,826.6,793.6,1063.7
		c189,182.8,530.5,467.2,895.2,744.5c95.4,72.2,181,140.9,189,150.7c18.7,22.3,20.5,81.1,4.5,109.7c-6.2,11.6-34.8,40.1-64.2,65.1
		c-219.3,185.5-494,297.8-806,329.9C3757.3,5012.2,3588.8,5014,3507.6,5006.8z"/>
	<path d="M5003.8,4260.5c-55.3-17.8-91.8-43.7-239-165.8c-73.1-61.5-153.4-123.9-178.3-139.1c-24.1-15.2-108.8-78.5-187.2-141.8
		c-382.5-306.7-626.8-543.9-853.3-829.2c-122.2-155.1-198.8-265.7-380.7-550.1c-446.7-702.6-524.3-791.8-1102.1-1275.1
		C1870.6,998.9,1809,940,1809,915.1c0-31.2,31.2-68.7,108.8-131.1c152.5-122.2,290.7-199.7,457.4-255
		c348.6-115.9,791.8-103.4,1185.9,32.1c414.6,143.6,786.4,380.7,1115.4,710.6c164.1,165,263.9,286.2,386.1,469
		c443.1,666.1,582.2,1511.3,343.3,2093.6c-82.9,202.4-250.6,414.6-342.4,433.3C5051.1,4270.3,5024.3,4266.8,5003.8,4260.5z"/>
</g>
</svg>
