<?xml version="1.0" encoding="utf-8"?>
<!-- Generator: Adobe Illustrator 22.1.0, SVG Export Plug-In . SVG Version: 6.00 Build 0)  -->
<svg version="1.1" id="Layer_2_1_" xmlns="http://www.w3.org/2000/svg" xmlns:xlink="http://www.w3.org/1999/xlink" x="0px" y="0px"
	 viewBox="0 0 640 480" style="enable-background:new 0 0 640 480;" xml:space="preserve">
<style type="text/css">
	.st0{fill:#FFCA08;}
</style>
<path class="st0" d="M595.6,149.8c-8.1-20.3-28.4-29.8-39.3-32.5c-10.8-2.7-23-1.3-23-1.3s-2.7-48.7-90.7-48.7
	c0,0-14.9-58.2-85.3-66.3S180,38.7,98.8,161.9S32.5,394.8,63.6,432.7s92.1,63.6,157,35.2c65-28.4,94.8-62.3,94.8-62.3
	s46,9.5,83.9-16.3c37.9-25.7,43.3-31.2,43.3-31.2s50.1,12.2,109.7-56.9C611.9,232.3,603.8,170.1,595.6,149.8z M151.7,401.9
	C107,339.3,120.5,220.1,199,122.7S381.7-16.8,430.5,71.2c0,0-124.2,44.7-165.1,155.1c-33.9,91.3-8.1,133.3,6.7,156.3
	c14.9,23,28.4,19,28.4,19S196.3,464.4,151.7,401.9z M311.4,323.1c-32.8-83.9,46-199,109.2-227c57.8-25.6,85.8-7.3,100.6,21.2
	c0,0-82.6,30-113.7,109.1c-31.2,79.1-6.7,103.4,0,111.6c6.7,8.1,6.7,8.1,6.7,8.1l2.9,3.7C417.1,349.7,342.1,401.6,311.4,323.1z
	 M550.1,286c-18,21.7-64.4,66.1-102.9,35.2s-11.7-108.3,33.4-158.8c45.2-50.6,88.5-26.2,88.5-26.2
	C619.6,175.9,568.1,264.3,550.1,286z"/>
</svg>
