<?xml version="1.0" encoding="utf-8"?>
<!-- Generator: Adobe Illustrator 22.1.0, SVG Export Plug-In . SVG Version: 6.00 Build 0)  -->
<svg version="1.1" id="Layer_2_1_" xmlns="http://www.w3.org/2000/svg" xmlns:xlink="http://www.w3.org/1999/xlink" x="0px" y="0px"
	 viewBox="0 0 640 480" style="enable-background:new 0 0 640 480;" xml:space="preserve">
<style type="text/css">
	.st0{fill:#FFFFFF;}
	.st1{fill:#645FAA;}
	.st2{fill:#C9234A;}
	.st3{fill:#0089CF;}
	.st4{fill:#F36F21;}
	.st5{fill:#0DB14B;}
	.st6{fill:#FDB913;}
</style>
<g>
	<path class="st0" d="M320,87.5c8.9-13.9,23.9-29.8,38.8-35.8c26.8-11.9,63.6-7,85.5,12.9c21.9,18.9,31.8,45.7,26.8,75.6
		c5-1,10.9-4,15.9-6c32.8-8.9,68.6,1,89.5,28.8c15.9,19.9,19.9,51.7,10.9,76.6c-5,11.9-12.9,23.9-23.9,32.8l1,1
		c30.8,2,61.7,25.9,70.6,54.7c9.9,29.8,1,61.7-20.9,83.5c-17.9,17.9-40.8,23.9-65.6,22.9H89.3c-37.8,1-66.6-15.9-82.5-49.7
		c-11.9-28.8-6-65.6,16.9-87.5c14.9-14.9,32.8-21.9,52.7-24.9c-21.9-20.9-32.8-48.7-26.8-78.6c4-24.9,24.9-49.7,49.7-57.7
		c20.9-8,49.7-7,68.6,5l1-1c-6-33.8,8.9-63.6,36.8-81.5c24.9-16.9,63.6-15.9,88.5,1C304.1,65.7,313,77.6,320,87.5"/>
	<path class="st1" d="M449.3,100.5c9.9,19.9,4,45.7-6,63.6l-79.6,179l-1,1l-28.8-182c-2-17.9,15.9-24.9,27.8-33.8c-1-3-3-2-5-4
		h-26.8l-1-1c0-22.9,11.9-43.8,32.8-54.7c21.9-12.9,51.7-8.9,70.6,7C439.3,83.6,446.3,91.5,449.3,100.5"/>
	<path class="st2" d="M303.1,94.5c7,11.9,9.9,25.9,8,40.8l-32.8,208.8v1l-8-16.9l-81.5-182c-8-23.9-1-47.7,16.9-64.6
		c16.9-17.9,45.7-21.9,67.6-12.9C284.2,72.6,296.1,82.6,303.1,94.5"/>
	<path class="st3" d="M567.6,182c10.9,18.9,8.9,46.7-4,64.6c-8,11.9-19.9,17.9-30.8,25.9l-169,116.3l0,0l2-6L455.2,181
		c12.9-23.9,38.8-35.8,65.6-31.8C539.7,152.2,558.6,164.1,567.6,182"/>
	<path class="st4" d="M183.8,181l93.5,207.8h-2L87.3,259.6c-18.9-15.9-26.8-39.8-20.9-64.6c5-17.9,19.9-35.8,37.8-41.8
		C135,141.2,167.8,153.2,183.8,181"/>
	<path class="st5" d="M616.3,328.2c8.9,19.9,6,46.7-8,63.6c-12.9,15.9-30.8,24.9-51.7,23.9H356.8l168-116.3
		c15.9-10.9,41.8-12.9,59.7-4C597.4,301.3,610.3,315.2,616.3,328.2"/>
	<path class="st6" d="M23.7,328.2c-8.9,19.9-6,46.7,8,63.6c12.9,15.9,30.8,24.9,51.7,23.9h199.9l-168-116.3
		c-15.9-10.9-41.8-12.9-59.7-4C42.6,301.3,29.6,315.2,23.7,328.2"/>
</g>
</svg>
