<?xml version="1.0" encoding="utf-8"?>
<!-- Generator: Adobe Illustrator 22.1.0, SVG Export Plug-In . SVG Version: 6.00 Build 0)  -->
<svg version="1.1" id="Layer_1" xmlns="http://www.w3.org/2000/svg" xmlns:xlink="http://www.w3.org/1999/xlink" x="0px" y="0px"
	 viewBox="0 0 640 480" style="enable-background:new 0 0 640 480;" xml:space="preserve">
<style type="text/css">
	.st0{fill:url(#path201_1_);}
	.st1{fill:url(#path225_1_);}
	.st2{fill:url(#path249_1_);}
	.st3{fill:url(#path273_1_);}
</style>
<g>
	
		<radialGradient id="path201_1_" cx="20.578" cy="653.0467" r="6.3923" gradientTransform="matrix(66.4069 0 0 -66.4069 -869.66 43790.3242)" gradientUnits="userSpaceOnUse">
		<stop  offset="0" style="stop-color:#FEDF33"/>
		<stop  offset="0.44" style="stop-color:#FBB809"/>
		<stop  offset="0.9" style="stop-color:#EE960D"/>
		<stop  offset="1" style="stop-color:#E17A10"/>
	</radialGradient>
	<path id="path201" class="st0" d="M393.5,1.8c-10,0-39.6,0-74.1,41.8l0,0c0.4,0.5,0.9,1.1,1.3,1.6l0,0
		c8.8-10.3,19.9-20.9,31.9-28.6l0,0c11-7.1,23.8-11.8,34.3-13l0,0c7.7-0.9,33.2-0.5,62.2-0.5l0,0c0.2,0,0.2,0.1,0.3,0.2l0,0L448.8,2
		c-0.1-0.1-0.2-0.2-0.3-0.2l0,0H393.5z"/>
	
		<radialGradient id="path225_1_" cx="19.172" cy="658.4057" r="6.3923" gradientTransform="matrix(66.4557 0 0 -66.4557 -888.074 43756.6211)" gradientUnits="userSpaceOnUse">
		<stop  offset="0" style="stop-color:#FEDF33"/>
		<stop  offset="0.44" style="stop-color:#FBB809"/>
		<stop  offset="0.9" style="stop-color:#EE960D"/>
		<stop  offset="1" style="stop-color:#E17A10"/>
	</radialGradient>
	<path id="path225" class="st1" d="M191.5,1.8c-0.1,0-0.2,0-0.3,0.2l0,0L83.3,188.9l-33.8,58.6l-3.9,6.8l-0.5,0.9c0,0.1,0,0.2,0,0.3
		l0,0l102.8,178v-0.7c-2.2-4.1-3.8-7.2-4.7-9.2l0,0c-4.3-9.7-6.7-23.2-6.1-36.3l0,0c1.7-34.5,20.1-68.5,29.3-84.4l0,0
		C188,265.4,229.7,193,229.7,193l0,0c0,0,41.8-72.4,63.4-109.8l0,0c9.2-15.9,29.5-48.8,58.5-67.6l0,0c11-7.1,23.9-11.7,34.5-12.9
		l0,0c7.7-0.9,33.4-0.9,62.4-0.9l0,0H191.5z"/>
	
		<radialGradient id="path249_1_" cx="15.2405" cy="654.4919" r="6.3923" gradientTransform="matrix(66.4293 0 0 -66.4293 -935.9127 43787.3711)" gradientUnits="userSpaceOnUse">
		<stop  offset="0" style="stop-color:#FEDF33"/>
		<stop  offset="0.44" style="stop-color:#FBB809"/>
		<stop  offset="0.9" style="stop-color:#EE960D"/>
		<stop  offset="1" style="stop-color:#E17A10"/>
	</radialGradient>
	<path id="path249" class="st2" d="M45.9,256.9c1.6,2.8,3.2,5.6,4.8,8.4l0,0L45.9,256.9z M563,309c-6.3,8.6-16.7,17.4-28.4,23.4l0,0
		c-30.7,15.7-69.3,16.9-87.7,16.9l0,0H320H193.2c-18.4,0-57.1-1.1-87.7-16.9l0,0c-11.7-6-22.1-14.8-28.4-23.4l0,0
		c-4-5.4-14.2-22.9-26.3-43.8l0,0l25.8,44.7L173.6,478c0.1,0.1,0.2,0.2,0.3,0.2l0,0h292.3c0.1,0,0.2-0.1,0.3-0.2l0,0l127.4-220.6
		C579.8,281.8,567.5,302.9,563,309"/>
	
		<radialGradient id="path273_1_" cx="20.5789" cy="653.0538" r="6.3923" gradientTransform="matrix(66.6153 0 0 -66.6153 -874.2883 43928.2813)" gradientUnits="userSpaceOnUse">
		<stop  offset="0" style="stop-color:#FEDF33"/>
		<stop  offset="0.44" style="stop-color:#FBB809"/>
		<stop  offset="0.9" style="stop-color:#EE960D"/>
		<stop  offset="1" style="stop-color:#D87301"/>
	</radialGradient>
	<path id="path273" class="st3" d="M386.1,2.7c-10.5,1.2-23.5,5.8-34.5,12.9l0,0c-12.1,7.8-22.7,18.2-31.7,28.7l0,0
		c12.4,14.6,21.5,29.6,26.8,38.9l0,0c21.6,37.5,63.4,109.8,63.4,109.8l0,0c0,0,41.8,72.4,63.4,109.8l0,0c9.2,16,27.5,50,29.2,84.4
		l0,0c0.6,13.1-1.8,26.6-6.1,36.3l0,0c-3,6.8-14.8,27.5-28.6,51.3l0,0L595,255.4c0,0,0,0,0-0.1l0,0v-0.1c0,0,0-0.1,0-0.1l0,0
		L448.8,2c-0.1-0.1-0.2-0.2-0.3-0.2l0,0C419.5,1.8,393.8,1.8,386.1,2.7"/>
</g>
</svg>
