<?xml version="1.0" encoding="utf-8"?>
<!-- Generator: Adobe Illustrator 22.1.0, SVG Export Plug-In . SVG Version: 6.00 Build 0)  -->
<svg version="1.1" id="Layer_2_1_" xmlns="http://www.w3.org/2000/svg" xmlns:xlink="http://www.w3.org/1999/xlink" x="0px" y="0px"
	 viewBox="0 0 640 480" style="enable-background:new 0 0 640 480;" xml:space="preserve">
<style type="text/css">
	.st0{fill:#FF9900;}
</style>
<g>
	<rect y="155.5" class="st0" width="640" height="169"/>
	<g>
		<g>
			<path d="M126.7,272.6c1.2,3.5,0.2,5.6-1.6,7.7c-8,8.7-18.1,12.9-29.6,14.1c-20.7,1.9-38-4.5-49.8-22.3c-19-28.9-1.6-69.2,32.4-76
				c8.4-1.6,16.9-1.6,25.3,0.7c2.8,0.7,4,0,3.8-2.8c0-0.7,0.2-1.4,0.7-2.8c1.2,0.9,2.1,1.6,2.8,2.3c4.9,5.2,9.9,10.1,14.6,15.3
				c1.4,1.4,1.4,4,1.9,6.1c-0.5,0.2-0.7,0.5-1.2,0.7c-0.7-0.5-1.6-0.9-2.3-1.6c-12.7-9.2-26.5-11.5-41.1-4.5
				C67.8,216.8,62,229.7,62,245.6c0,10.6,3.1,19.7,10.3,27.5c12.7,13.6,37.3,14.3,51.6,1.9C124.9,274.3,125.6,273.6,126.7,272.6z"/>
			<path d="M153.3,224.5c4.5-5.9,9.4-8,15.7-7.3c7.5,0.9,12.4,7,12.7,16c0.2,9.6,0.2,19,0,28.6c0,2.6,0.5,4,3.5,3.5
				c2.1-0.2,2.8,0.9,2.8,2.8c0,2.1-0.5,3.3-2.8,3.3c-6.1,0-12,0-18.1,0c-2.6,0-2.8-1.6-2.8-3.5c0-10.1,0-20.2,0-30
				c0-2.1,0-4-0.2-6.1c-0.5-2.6-1.6-4.5-4.5-4.5c-2.6-0.2-4,1.4-4.7,3.8c-0.2,1.2-0.7,2.3-0.7,3.5c0,9.4,0,18.8,0,27.9
				c0,1.6,0.2,3.1,2.3,2.8c2.3-0.2,2.3,1.6,2.3,3.3c0,1.9-0.7,2.8-2.6,2.8c-4.5,0-8.9,0-13.4,0c-2.8,0-5.9,0-8.7,0
				c-2.1,0-2.8-0.9-2.8-3.1c0-1.9,0.2-3.3,2.6-3.1c1.9,0.2,2.3-0.9,2.3-2.6c0-12,0-23.9,0-35.9c0-1.9-0.5-2.8-2.6-2.8
				c-2.3,0-2.3-1.6-2.3-3.3c0-1.9,0.9-2.8,2.8-2.8c5.4,0,10.8,0,16.2,0c2.1,0,3.1,0.9,2.8,2.8C153.3,221.7,153.3,222.6,153.3,224.5z
				"/>
			<path d="M377.4,224.3c0.9-0.9,1.6-1.9,2.3-2.3c4.7-4.5,10.1-5.6,16.2-3.8c5.9,1.9,9.2,6.6,9.4,12.4c0.5,10.3,0.5,20.7,0.5,31
				c0,2.8,0.5,4.5,3.8,4c2.1-0.2,2.6,1.2,2.6,2.8c0,1.9-0.2,3.3-2.6,3.3c-6.3,0-12.4,0-18.8,0c-2.3,0-2.6-1.4-2.6-3.3
				c0-10.8,0-21.8,0-32.6c0-1.6-0.2-3.3-0.5-4.7c-0.5-2.1-1.9-3.5-4.2-3.5c-2.3,0-3.8,1.4-4.5,3.3c-0.5,1.2-0.7,2.3-0.7,3.5
				c0,9.4,0,19,0,28.4c0,1.6,0.2,3.1,2.3,2.8c2.1-0.2,2.3,1.4,2.3,3.1c0,1.6-0.5,3.1-2.3,3.1c-2.8,0-5.6,0-8.4,0
				c-4.5,0-8.9,0-13.4,0c-1.9,0-3.3-0.5-3.1-2.8c0-1.9,0.2-3.5,2.8-3.3c1.9,0.2,2.1-0.9,2.1-2.3c0-12.2,0-24.4,0-36.4
				c0-1.6-0.5-2.6-2.3-2.3c-2.8,0.2-2.6-1.6-2.6-3.8s1.4-2.3,3.1-2.3c4.9,0,9.6,0,14.6,0c4,0,4,0,4.2,4
				C377.1,222.6,377.4,223.1,377.4,224.3z"/>
			<path d="M271.5,224.3c3.5-4.7,7.5-7,12.9-7c8.4,0,14.8,5.6,15,14.3c0.2,10.1,0.5,20.2,0.5,30c0,2.6,0.5,4.2,3.5,3.8
				c1.9-0.2,2.8,0.7,2.6,2.6c0,1.9,0,3.5-2.6,3.5c-6.3,0-12.4,0-18.8,0c-2.3,0-2.8-1.4-2.6-3.3c0-10.8,0-21.6,0-32.2
				c0-1.9-0.2-3.5-0.7-5.4c-0.5-2.1-1.9-3.3-4.2-3.3c-2.3,0-3.8,1.2-4.5,3.3c-0.5,1.6-0.7,3.5-0.7,5.4c0,8.7,0,17.4,0,26.3
				c0,1.9,0,3.5,2.6,3.3c2.3-0.2,2.1,1.6,2.1,3.3s-0.2,2.8-2.1,2.8c-7.7,0-15.3,0-23,0c-2.1,0-2.1-1.6-2.1-3.3
				c0-1.6,0.2-3.1,2.3-2.8c2.6,0.2,3.1-0.9,3.1-3.1c0-11.7,0-23.2,0-35c0-2.1-0.2-3.5-2.8-3.3c-2.1,0.2-2.3-1.4-2.3-3.1
				c0-1.6,0.5-3.1,2.6-3.1c5.6,0,11.3,0,16.9,0c0.9,0,1.9,1.4,2.3,2.3C271.8,221.5,271.5,222.6,271.5,224.3z"/>
			<path d="M470.1,267c-3.1,1.6-5.6,3.8-8.7,4.7c-13.8,3.5-20.2-8.7-18.8-18.3c1.4-8.7,8-14.6,17.1-15c2.8-0.2,5.9,0,8.7,0
				c1.2-3.1,0.2-6.8-2.6-9.2c-4.2-3.3-9.2-2.3-17.8,4c-3.8-2.8-4-3.5-1.2-6.8c6.8-8,17.1-11.3,27-8c8,2.6,12.7,8.9,12.9,17.4
				c0,8.9,0,17.6,0,26.5c0,2.1,0.2,3.5,2.8,3.3c2.1-0.2,2.3,1.2,2.3,2.8s0,3.1-2.3,3.1c-5.9,0-12,0.2-17.8,0
				C468.9,271.4,470.8,268.4,470.1,267z M469.1,253.1c0-1.6,0.2-3.3,0-4.7c-0.2-1.2-0.9-3.3-1.6-3.3c-1.6,0-3.8,0.2-4.9,1.2
				c-2.6,2.6-2.8,11.7,0,14.1c1.2,0.9,3.3,1.2,4.9,1.2c0.7,0,1.4-2.1,1.6-3.3C469.4,256.7,469.1,254.8,469.1,253.1z"/>
			<path d="M338.9,247.7c-3.5,0-7,0-10.6,0c-3.1,0-3.5,0.7-2.8,3.8c1.6,9.4,12.2,13.1,20.7,7.3c0.9-0.7,2.6-1.4,3.5-0.9
				c1.9,0.9,2.3,2.3,0.9,4.5c-4.9,7.7-12,10.8-20.7,10.3c-9.2-0.2-16.2-4.2-20.2-12.4c-4.7-10.1-4.7-20.2,0.2-30.3
				c6.8-13.6,23.2-14.8,32.4-9.6c5.6,3.1,8.7,8.4,9.9,14.6c0.7,3.3,0.7,6.8,0.9,10.1c0.2,2.1-0.9,3.1-3.1,3.1
				C346.2,247.5,342.6,247.7,338.9,247.7L338.9,247.7z M325,234.6c0,1.4-0.2,2.8,0,4c0.2,0.9,1.2,2.6,1.9,2.6c2.8,0,5.4-0.7,8.2-0.9
				c0,0,0-0.5,0-0.9c-0.2-3.8-0.5-7.5-0.9-11.3c-0.2-2.1-1.4-4-4-4c-2.8,0-3.8,1.9-4.2,4.2C325.5,230.4,325.3,232.7,325,234.6z"/>
			<path d="M491.7,204.1c-0.9-4.9-0.7-5.2,4-5.2c4.9,0,10.1,0.2,15,0c3.1-0.2,4,1.2,4,4c0,19.5,0,38.7,0,58.2c0,3.1,0.2,4.9,4,4.5
				c1.9-0.2,2.3,0.9,2.3,2.6s0.2,3.5-2.1,3.5c-6.6,0-13.1,0-19.5,0c-0.7,0-1.9-1.4-2.1-2.3c-0.5-1.4,0-2.8,0-4.2
				c0-17.8,0-35.7,0-53.5C496.8,205.5,496.8,205.5,491.7,204.1z"/>
			<path d="M416.1,242.8c0-5.2,0-10.6,0-15.7c0-1.9-0.5-3.1-2.6-3.1c-0.9,0-2.3-0.7-2.6-1.4c-0.2-1.2,0-2.8,0.7-3.5
				c5.9-4.9,11.7-9.6,17.8-14.3c2.3-1.6,4.2-0.5,4.2,2.3c0,2.8,0,5.4,0,8.2c0,1.9,0.7,2.8,2.6,2.6c0.9,0,1.9,0,2.8,0
				c2.1,0,3.1,0.9,3.1,3.1c0,2.3-0.9,2.8-3.1,3.1c-5.2,0.2-5.2,0.2-5.2,5.4c0,10.1,0,20.4,0,30.5c0,4.2,0.5,4.7,4.7,4.7
				c0.7,0,1.9,0.7,1.6,0.9c-0.2,1.6,0,4-1.2,4.7c-8.4,6.1-21.8,0.5-22.8-9.9C415.9,254.6,416.3,248.7,416.1,242.8
				C416.3,242.8,416.3,242.8,416.1,242.8z"/>
			<path d="M210,244.2c0,5.6,0,11.3,0,16.9c0,2.8,1.2,3.8,3.8,3.8c0.9,0,2.3,0.7,2.3,0.9c-0.2,1.6-0.2,3.8-1.2,4.5
				c-3.8,2.8-14.8,2.1-18.5-0.9c-3.3-2.6-4.2-6.1-4.2-9.9c0-10.6,0-21.1,0-31.7c0-2.3-0.2-4.2-3.3-4c-0.7,0-1.9-0.9-1.9-1.2
				c0-1.4,0.2-3.1,0.9-3.8c2.1-2.1,4.5-3.8,6.8-5.6c3.3-2.8,6.6-5.4,10.1-8c0.9-0.7,2.6-1.2,3.8-0.9c0.7,0.2,1.2,2.1,1.2,3.3
				c0.2,2.1,0.2,4.5,0,6.6c-0.2,2.6,0.5,4,3.5,3.8c2.3-0.2,3.1,1.2,3.1,3.3c0,2.3-1.4,3.1-3.3,2.8c-2.6-0.2-3.3,0.9-3.3,3.3
				C210,233,210,238.6,210,244.2z"/>
			<path d="M241.7,242.1c0,6.8,0,13.6,0,20.4c0,1.9,0.2,3.1,2.6,3.1c1.9-0.2,2.1,1.2,2.3,2.8c0,1.6,0,3.3-2.1,3.3
				c-7.7,0-15.3,0-23,0c-2.1,0-2.3-1.4-2.3-3.1c0-1.6,0.2-3.1,2.3-2.8c2.1,0.2,2.3-0.9,2.3-2.8c0-12,0-23.9,0-35.9
				c0-1.9-0.5-2.8-2.6-2.8c-2.1,0-2.3-1.4-2.3-3.1c0-1.6,0.5-3.1,2.3-3.1c5.9,0,11.7,0,17.4,0c2.3,0,2.6,1.4,2.6,3.3
				C241.7,228.3,241.7,235.1,241.7,242.1L241.7,242.1z"/>
			<path d="M232.6,196.3c1.9,0.5,3.5,0.5,4.9,0.9c4,1.2,6.3,4.2,6.3,7.5c0,3.5-2.3,6.3-6.3,7.5c-3.8,1.2-7.3,0.9-10.8-0.9
				c-2.6-1.4-4.2-3.8-4.2-6.8s1.6-5.2,4.2-6.6C228.6,197.3,230.7,197.1,232.6,196.3z"/>
			<path d="M601.7,267.9c-13.8,0-27.7,0-41.5,0c-10.6,0-20.9,0-31.4,0v3.8c24.2,0,48.1,0,72.3,0c0.2,0,0.2,0,0.5,0v-3.8H601.7z"/>
			<path d="M126.3,233c-3.3-9.6-11.5-16.2-22.5-17.4c-10.1-0.9-20.9,3.3-26.1,15.5c-3.1,7-3.5,14.6-1.9,22.1
				c2.6,11.5,11.3,19.2,22.5,20.4c11.3,1.2,20.7-3.3,25.8-12.4C128.8,250.1,127.9,239.5,126.3,233z M101.6,267
				c-4,0-7.5-10.1-7.5-22.3c0-12.4,3.3-22.3,7.5-22.3c4,0,7.5,10.1,7.5,22.3C108.9,257.1,105.6,267,101.6,267z"/>
		</g>
		<g>
			<path d="M527.8,218.9c0,0,3.3-3.3,7.5-4.5c4.2-1.2,5.2-1.4,5.2-1.4l-7.7,7.3L527.8,218.9z"/>
			<path d="M538.8,232.5c-0.2-0.5-1.2-2.8-1.2-2.8v-10.8l5.6-5.4l4.9,1.9c0,0,1.4,0.5,4-1.9c2.6-2.3,6.1-7,6.1-7s0.9-1.4,0-1.4
				c-0.9-0.2-5.4,0.9-5.4,0.9h-2.3c0,0-1.2-2.3-0.5-3.5c0.7-1.2,10.3-7,10.3-7v-3.5c0,0,4.2,3.5,6.1,6.6s1.9,7.3,0.9,11
				c-0.7,3.8-3.1,5.4-0.9,7.7c2.1,2.3,4.5,7.3,8.7,9.9c4.2,2.6,9.4,5.2,9.2,9.2c-0.2,4-3.5,8.7-3.5,8.7l2.3,8.2l-8.2,9.6l0.2,3.1
				h-6.3c0,0-0.5-1.2,3.1-5.2c3.5-4,5.9-7,5.9-7l-8.7-9.2c0,0-1.4-2.1-1.6-4.2c-0.2-2.1-0.2-2.1-0.2-2.1s-7.7-4-9.9-6.6
				c-2.3-2.8-6.1-9.2-8.2-10.1c-2.1-0.9-5.4-3.5-5.4-3.5l-3.1,2.3v6.1l1.4,2.3L538.8,232.5z"/>
			<path d="M571.2,250.1l3.1,3.1c0,0-7.7,5.9-8.2,7c-0.7,1.2-0.7,1.2-0.7,1.2h-5.2c0,0,0.2-1.4,5.2-5.6
				C570.1,251.5,571.2,250.1,571.2,250.1z"/>
			<path d="M585.3,233.9c0,0,2.3,3.5,2.6,8.2c0.2,4.9,0,10.3,0,10.3l5.6,3.3v-12C593.8,243.8,593.3,236,585.3,233.9z"/>
		</g>
	</g>
</g>
</svg>
