<?xml version="1.0" standalone="no"?>
<!DOCTYPE svg PUBLIC "-//W3C//DTD SVG 20010904//EN"
 "http://www.w3.org/TR/2001/REC-SVG-20010904/DTD/svg10.dtd">
<svg version="1.0" xmlns="http://www.w3.org/2000/svg"
 width="225.000000pt" height="225.000000pt" viewBox="0 0 225.000000 225.000000"
 preserveAspectRatio="xMidYMid meet">
<metadata>
Created by potrace 1.14, written by Peter Selinger 2001-2017
</metadata>
<g transform="translate(0.000000,225.000000) scale(0.100000,-0.100000)"
fill="#000000" stroke="none">
<path d="M1290 2210 c-77 -28 -151 -82 -228 -166 -37 -39 -173 -182 -302 -316
-243 -252 -276 -296 -299 -399 -13 -54 -13 -141 -2 -193 l9 -38 -179 -187
c-199 -206 -240 -269 -260 -391 -35 -218 118 -443 332 -490 32 -7 93 -11 142
-8 128 7 193 42 325 176 57 57 104 103 106 101 2 -2 13 -22 24 -44 112 -223
416 -303 629 -167 27 17 161 148 298 291 275 287 316 344 336 468 32 208 -94
413 -299 484 -76 27 -198 27 -275 1 l-56 -19 92 99 c144 155 170 199 187 318
27 189 -74 378 -249 462 -59 29 -77 33 -171 35 -86 3 -115 0 -160 -17z m230
-96 c68 -20 115 -50 164 -104 59 -66 80 -121 81 -215 0 -127 -19 -158 -242
-391 l-188 -197 -7 73 c-13 123 -74 228 -178 304 -69 51 -133 75 -226 84 l-65
7 186 192 c102 105 200 201 218 212 38 23 127 49 173 50 17 1 54 -6 84 -15z
m-482 -588 c170 -87 236 -292 146 -457 -106 -194 -370 -233 -526 -77 -71 71
-93 126 -93 238 0 84 3 101 27 146 34 65 114 137 181 164 75 29 192 24 265
-14z m825 -291 c72 -19 122 -50 175 -110 52 -59 77 -130 76 -220 0 -110 -28
-159 -181 -317 -70 -73 -130 -134 -134 -136 -3 -1 -9 24 -12 57 -22 209 -190
372 -400 389 -37 2 -66 8 -65 13 7 20 273 281 301 296 36 19 119 41 157 42 14
1 51 -6 83 -14z m-1257 -475 c63 -31 133 -101 164 -165 35 -74 35 -199 -1
-275 -69 -147 -227 -225 -377 -186 -144 37 -243 150 -259 296 -15 144 87 298
227 345 67 22 184 15 246 -15z m886 2 c62 -31 121 -89 155 -154 25 -47 28 -63
28 -148 0 -84 -3 -101 -28 -147 -37 -72 -88 -120 -164 -155 -57 -27 -71 -30
-146 -26 -98 4 -160 30 -225 96 -99 99 -124 260 -60 386 30 58 110 131 170
155 74 29 203 26 270 -7z"/>
<path d="M793 1370 c-120 -61 -138 -242 -32 -323 102 -77 239 -44 299 71 19
39 15 123 -9 170 -45 89 -167 128 -258 82z m160 -110 c38 -42 37 -92 -2 -131
-40 -40 -89 -40 -133 0 -27 24 -33 36 -33 69 0 94 104 132 168 62z"/>
<path d="M425 694 c-120 -62 -149 -202 -62 -301 39 -45 82 -63 147 -63 129 0
220 124 180 245 -16 47 -66 104 -107 121 -43 19 -121 17 -158 -2z m126 -90
c36 -18 59 -67 52 -107 -7 -34 -56 -77 -89 -77 -107 0 -142 137 -49 188 28 16
51 15 86 -4z"/>
<path d="M1245 711 c-89 -22 -143 -83 -151 -172 -10 -104 68 -198 170 -207 71
-6 117 11 160 58 60 67 70 138 30 218 -39 78 -129 122 -209 103z m106 -120
c51 -52 36 -133 -30 -161 -98 -40 -177 85 -102 161 22 21 39 29 66 29 27 0 44
-8 66 -29z"/>
</g>
</svg>
