<?xml version="1.0" encoding="utf-8"?>
<!-- Generator: Adobe Illustrator 22.1.0, SVG Export Plug-In . SVG Version: 6.00 Build 0)  -->
<svg version="1.1" id="Layer_2_1_" xmlns="http://www.w3.org/2000/svg" xmlns:xlink="http://www.w3.org/1999/xlink" x="0px" y="0px"
	 viewBox="0 0 640 480" style="enable-background:new 0 0 640 480;" xml:space="preserve">
<style type="text/css">
	.st0{fill:#FFFFFF;}
</style>
<g>
	<path d="M436.7,59.7C496,94.5,540,142.9,566.8,206.4c11.4-10,22.2-20.5,34.2-29.6c11.9-9.1,24.9-16.7,38.1-23.7
		c-11.8,9.9-24.1,19.3-35.3,29.9c-10.5,10-20,21-29.5,32c-1.7,1.9-2.5,6-1.7,8.5c8.7,27.9,12.4,56.6,11.7,85.8
		c-0.2,9.3-1.7,18.6-2.4,25.4c-1.5-15.6-2.2-33.8-5.1-51.6c-2.9-17.8-8-35.1-12.2-52.7c-0.7-0.1-1.5-0.2-2.2-0.4
		c-4.7,7.2-9.5,14.3-14,21.6c-23.3,38.8-38.7,80.7-46.2,125.3c-2.4,14.5-4.2,29.1-6.3,43.6c-0.4,0-0.9,0-1.3,0
		c0.8-17,0.7-34.2,2.5-51.1c5.8-54.6,24-104.4,58.3-147.8c2.2-2.9,2.8-4.9,1.4-8.4c-16.6-39-39.2-74.2-68.7-104.7
		c-15.7-16.2-33.1-30.8-49.6-46.1C437.7,61.6,437.3,60.5,436.7,59.7z"/>
	<path d="M248.3,267.3c0-49.4,0-97.9,0-147.9c13.7,0.8,27.2,0.6,40.3,2.6c10.6,1.6,17.7,12.4,18.4,24.2c0.4,7.1,0.5,14.2,0,21.2
		c-0.7,10.3-6.3,17.9-15.4,23.2c17.7,9.7,18.3,26.2,17.2,42.9c-0.5,8.6-1.6,17.3-8,24.4c-5.8,6.4-13.3,8.7-21.1,9.3
		C269.6,267.9,259.2,267.3,248.3,267.3z M260.6,255.8c6.1,0,11.7,0.1,17.2,0c8.9-0.3,14.6-4.4,16.4-13.3c1.6-7.6,2.5-15.7,1.9-23.4
		c-0.7-9.8-4-19.5-15.3-21.7c-6.5-1.3-13.4-0.2-20.2-0.2C260.6,216.7,260.6,235.8,260.6,255.8z M260.8,185.5c6.1,0,11.4,0.3,16.7,0
		c8.1-0.6,15.2-6.1,16.1-14c1-8.8,1-17.8,0-26.6c-0.7-6.3-4.8-11.9-11.8-12.7c-6.9-0.8-13.9-0.1-21-0.1
		C260.8,149.8,260.8,167.2,260.8,185.5z"/>
	<path d="M164.7,121.3c13.3,0,26.6-1.3,39.6,0.3c13.6,1.7,18.3,13.4,19.6,25.3c1.1,9.8,0.3,20-0.6,29.9c-1,10.1-6,18.1-16.4,22.2
		c7.6,22.7,15,45,22.5,67.5c-0.8,0.3-1.4,0.6-1.9,0.6c-10.7,0.5-10.8,0.5-14.1-9.5c-5.5-16.8-11-33.6-16.2-50.5
		c-1.5-5-3.9-6.9-9.1-6.3c-3.7,0.4-7.6,0.1-12,0.1c0,22.3,0,43.8,0,65.8c-4,0-7.5,0-11.5,0C164.7,218.3,164.7,169.6,164.7,121.3z
		 M176.4,190.2c6.2,0,12.1,0,18,0c7.3-0.1,12.8-3.5,15-10.6c4.1-12.9,4.5-26.1-0.5-38.6c-1.6-3.8-6.5-8-10.6-8.9
		c-6.9-1.5-14.3-0.4-21.9-0.4C176.4,151.2,176.4,170.3,176.4,190.2z"/>
	<path d="M145.6,197.3c-1.3,14.5-1.9,32-4.7,49.2c-2.4,14.7-13.7,22.1-29.4,22.1c-14.8,0-25.6-7.8-28.9-22
		c-1.8-7.6-2.5-15.6-2.7-23.4c-0.3-19.9-0.1-39.8,0.2-59.6c0.1-7.4,0.6-15,2.3-22.2c4-16.5,16.3-24.2,34.3-22.6
		c13.6,1.3,24.5,12.7,25.7,27.6C143.7,162.3,144.5,178.3,145.6,197.3z M93.4,193.4L93.4,193.4c0,14.7-0.4,29.4,0,44.2
		c0.3,11.7,7.2,19.2,16.8,20c9.9,0.8,18.1-5.1,19.6-17.5c0.6-5.1,2-10.1,1.9-15.1c-0.1-24.1-0.3-48.3-1.1-72.5
		c-0.3-8-1.6-16.6-10.1-20.8c-13.4-6.5-26.3,1.6-27,17.5C92.9,163.9,93.4,178.7,93.4,193.4z"/>
	<path d="M327.8,120.5c0.7-0.2,1.1-0.5,1.5-0.5c10.9,0,10.8,0,10.8,10.9c0,35.1,0,70.2,0,105.3c0,12.3,5.4,19.9,14.8,21.3
		c12.2,1.8,21.3-7,21.3-21.1c0.1-34,0-68,0-102.1c0-4.5,0-8.9,0-13.6c4-0.3,7.5-0.5,11.4-0.8c0.1,1.6,0.4,2.8,0.4,4
		c0,38.3,0,76.6,0,114.9c0,17.4-12,29.6-29.1,29.9c-18,0.3-31.2-11.5-31.4-29c-0.3-38.7-0.1-77.5-0.1-116.2
		C327.3,122.4,327.6,121.4,327.8,120.5z"/>
	<path d="M417.1,230.1c0.6,4.1,1.4,7.4,1.5,10.8c0.3,10.7,9.7,17.3,21.7,16.2c9.8-0.9,15.8-8.1,16-19.7c0-5.5-0.1-11,0-16.6
		c0.3-10.8-5-17.7-14.7-21.7c-6.3-2.6-12.6-5.2-18.8-7.8c-7.7-3.4-13.1-9-14.5-17.4c-2-12.3-3-24.6,1.4-36.6
		c4.9-13.2,18.3-20.6,33-18.4c15.3,2.3,25.1,12.4,26,27c0.2,2.9,0,5.9,0,9.2c-3.9,0-7.7,0-12.5,0c0-2.4,0.1-4.9,0-7.3
		c-0.7-10.2-7.6-17.3-17.3-18c-9.6-0.6-17.6,5.8-18.9,16.2c-0.8,6.4-0.4,13-0.4,19.6c0,8.8,5.7,13.3,12.9,16.5
		c5.3,2.3,10.6,4.5,16,6.5c10.7,3.9,18.4,11,19.3,22.4c1,11.6,1.7,23.6-0.5,34.9c-3.2,16.7-14.9,23.9-32,22.5
		c-20.6-1.6-31.1-13.7-30.1-34.9c0-1.2,2-3,3.4-3.3C411.2,229.7,414,230.1,417.1,230.1z"/>
	<path d="M51.3,233.3c4.1,0,7.5,0,10.9,0c2.9,17.3-7.6,32.7-23.9,35.1c-18.9,2.9-34.4-7.7-35.7-26.7c-1.7-24.3-1.5-48.7-1.7-73.1
		c-0.1-7.9,0.2-15.9,1.6-23.6c3.9-21.9,22.7-32.2,43.1-24.1c11.6,4.6,18.9,18.9,16.6,33c-3.3,0-6.7,0-10.7,0c-0.5-2.9-1-6-1.5-9.1
		c-1.3-8.3-7.4-14.4-15-15c-9.5-0.7-16.8,3-18.5,12c-2.3,12.1-3.5,24.5-3.7,36.8c-0.3,18,0.4,35.9,1,53.9c0.1,4.4,1.2,8.8,2.5,13
		c2.7,8.8,9.3,12.9,18.6,12.1c7.7-0.7,13.8-6.8,15.1-15C50.4,239.6,50.9,236.6,51.3,233.3z"/>
	<path d="M600.3,148.2c0,11.7-7.9,19.6-19.6,19.6c-11,0-19.4-8.2-19.4-19.2c0-11.5,8.2-20.1,19.4-20.2
		C592,128.4,600.2,136.7,600.3,148.2z"/>
	<path class="st0" d="M74.6,307.3c1-3.1,1.9-6,2.9-9c0.5,0,1,0,1.4-0.1"/>
	<g>
		<path d="M7.5,308.5v12.3H3.3v-31.3h11.5c3.4,0,6.1,0.9,8,2.6s2.9,4,2.9,7c0,3-0.9,5.4-2.9,7c-1.9,1.7-4.6,2.5-8.2,2.5L7.5,308.5
			L7.5,308.5z M7.5,305.2h7.4c2.2,0,3.9-0.5,5.1-1.6s1.8-2.5,1.8-4.5c0-1.8-0.6-3.4-1.8-4.5s-2.8-1.7-4.8-1.8H7.5V305.2z"/>
		<path d="M58.7,320.8h-4.1v-14.5H38.8v14.5h-4.1v-31.3h4.1v13.4h15.8v-13.4h4.1V320.8z"/>
		<path d="M87.2,312.6H74.1l-2.9,8.2H67l11.9-31.3h3.6l12,31.3h-4.2L87.2,312.6z M75.4,309.2H86l-5.4-14.7L75.4,309.2z"/>
		<path d="M113.6,308.1h-7.3v12.7h-4.1v-31.3h10.4c3.5,0,6.2,0.8,8.1,2.4c1.9,1.6,2.9,3.9,2.9,7c0,1.9-0.5,3.7-1.6,5.1
			c-1.1,1.5-2.5,2.5-4.4,3.3l7.3,13.3v0.2h-4.4L113.6,308.1z M106.3,304.7h6.3c2,0,3.7-0.5,4.9-1.6c1.2-1.1,1.8-2.5,1.8-4.3
			c0-1.9-0.6-3.4-1.8-4.5c-1.2-1-2.8-1.6-5-1.6h-6.3L106.3,304.7L106.3,304.7z"/>
		<path d="M138.1,289.5l10.2,25.6l10.2-25.6h5.4v31.3h-4.1v-12.2l0.4-13.1L150,320.8h-3.2l-10.3-25.3l0.4,13.1v12.2h-4.1v-31.3
			L138.1,289.5L138.1,289.5z"/>
		<path d="M192.4,312.6h-13.1l-2.9,8.2h-4.2l11.9-31.3h3.6l12,31.3h-4.2L192.4,312.6z M180.6,309.2h10.7l-5.4-14.7L180.6,309.2z"/>
		<path d="M230.2,310.9c-0.4,3.3-1.6,5.8-3.7,7.6c-2,1.8-4.8,2.7-8.2,2.7c-3.7,0-6.7-1.3-8.9-4c-2.2-2.6-3.4-6.2-3.4-10.7v-3
			c0-2.9,0.5-5.5,1.6-7.7c1-2.2,2.5-3.9,4.4-5.1c1.9-1.2,4.1-1.8,6.6-1.8c3.3,0,6,0.9,8,2.8c2,1.8,3.2,4.4,3.5,7.7H226
			c-0.3-2.5-1.1-4.3-2.3-5.5s-2.9-1.7-5-1.7c-2.6,0-4.7,1-6.2,2.9c-1.5,1.9-2.2,4.7-2.2,8.3v3c0,3.4,0.7,6.1,2.1,8.1
			c1.4,2,3.4,3,5.9,3c2.3,0,4-0.5,5.3-1.6c1.2-1,2-2.9,2.4-5.4L230.2,310.9L230.2,310.9z"/>
		<path d="M257,306.3h-13.6v11.1h15.8v3.4h-19.9v-31.3H259v3.4h-15.6v10.1H257V306.3z"/>
		<path d="M289.9,289.5v21.3c0,3-0.9,5.4-2.8,7.3s-4.3,2.9-7.5,3.2l-1.1,0c-3.4,0-6.1-0.9-8.2-2.8c-2-1.8-3.1-4.4-3.1-7.6v-21.3h4.1
			v21.2c0,2.3,0.6,4,1.8,5.3c1.3,1.3,3,1.9,5.3,1.9c2.3,0,4.1-0.6,5.4-1.8c1.2-1.3,1.8-3,1.8-5.3v-21.2L289.9,289.5L289.9,289.5z"/>
		<path d="M321.5,292.9h-10.1v27.9h-4.1v-27.9h-10v-3.4h24.2V292.9z"/>
		<path d="M334.1,320.8H330v-31.3h4.1V320.8z"/>
		<path d="M368.2,310.9c-0.4,3.3-1.6,5.8-3.7,7.6c-2,1.8-4.8,2.7-8.2,2.7c-3.7,0-6.7-1.3-8.9-4c-2.2-2.6-3.4-6.2-3.4-10.7v-3
			c0-2.9,0.5-5.5,1.6-7.7c1-2.2,2.5-3.9,4.4-5.1c1.9-1.2,4.1-1.8,6.6-1.8c3.3,0,6,0.9,8,2.8c2,1.8,3.2,4.4,3.5,7.7h-4.1
			c-0.3-2.5-1.1-4.3-2.3-5.5s-2.9-1.7-5-1.7c-2.6,0-4.7,1-6.2,2.9c-1.5,1.9-2.2,4.7-2.2,8.3v3c0,3.4,0.7,6.1,2.1,8.1
			c1.4,2,3.4,3,5.9,3c2.3,0,4-0.5,5.3-1.6c1.2-1,2-2.9,2.4-5.4L368.2,310.9L368.2,310.9z"/>
		<path d="M394.7,312.6h-13.1l-3,8.2h-4.2l12-31.3h3.6l12,31.3h-4.2L394.7,312.6z M382.8,309.2h10.7l-5.3-14.7L382.8,309.2z"/>
		<path d="M413.7,317.4h14.8v3.4h-19v-31.3h4.1V317.4z"/>
		<path d="M446,306.8c-3.6-1-6.1-2.3-7.7-3.7s-2.4-3.3-2.4-5.5c0-2.5,1-4.5,3-6.1c1.9-1.6,4.5-2.4,7.7-2.4c2.1,0,4.1,0.4,5.7,1.3
			c1.7,0.8,3,2,3.9,3.5c0.9,1.5,1.4,3.1,1.4,4.8h-4.1c0-1.9-0.6-3.4-1.8-4.5s-2.9-1.6-5.1-1.6c-2,0-3.6,0.4-4.8,1.4
			c-1.1,0.9-1.7,2.1-1.7,3.7c0,1.3,0.5,2.3,1.6,3.3c1.1,0.9,2.9,1.7,5.5,2.4c2.6,0.7,4.6,1.6,6.1,2.4s2.6,1.9,3.3,3.1
			c0.7,1.2,1.1,2.6,1.1,4.1c0,2.5-1,4.6-3,6.1c-2,1.5-4.6,2.3-7.9,2.3c-2.1,0-4.1-0.4-6-1.2c-1.8-0.8-3.3-1.9-4.3-3.4
			c-1-1.4-1.5-3.1-1.5-4.9h4.1c0,1.9,0.7,3.4,2.1,4.5c1.4,1.1,3.3,1.7,5.6,1.7c2.2,0,3.8-0.4,5-1.3c1.2-0.9,1.8-2.1,1.8-3.7
			s-0.5-2.7-1.6-3.6C450.8,308.5,448.8,307.7,446,306.8z"/>
	</g>
</g>
</svg>
