<svg xmlns="http://www.w3.org/2000/svg" viewBox="0 0 640 480"><defs><style>.cls-1{fill:#fff;}.cls-2{fill:#da3b31;}.cls-3{fill:#505251;}</style></defs><title>Cometgroup</title><g id="Layer_2" data-name="Layer 2"><g id="Layer_8" data-name="Layer 8"><path class="cls-1" d="M0,0V480H640V0ZM95.26,278a54.15,54.15,0,1,1,0-75.94,2,2,0,0,1,0,2.81l-8.51,8.51a2,2,0,0,1-2.87,0,38.11,38.11,0,1,0,0,53.3,2,2,0,0,1,2.88-.06l8.54,8.55A2,2,0,0,1,95.26,278Zm53.66-31a27.08,27.08,0,1,1-54.16,0V235a27.08,27.08,0,1,1,54.16,0Zm78.22,26.48h-12V220.92l-16.72,50.17-.9,2.7H186.6l-.9-2.7L169,220.92V273.5h-12V207.91h20.38L192,256.05l14.72-48.14h20.38Zm52.15-53.56H251.21v14h28.08v12H251.21v16h28.08v12H239.17V207.91h40.12Zm58.66,0H318.9V274.1h-12V219.94H287.81v-12H338Zm59.72,50.74a77.55,77.55,0,0,1-25.1,3.94q-13.5,0-20.52-8.81t-7-24.17a42.13,42.13,0,0,1,2.48-14.85,29,29,0,0,1,6.7-10.72,28.35,28.35,0,0,1,20.61-8.25,41.1,41.1,0,0,1,22.67,6.75,12.94,12.94,0,0,1-2.2,5.85,14.6,14.6,0,0,1-4.26,4.45q-7.68-5.15-15.46-5.15-15.93,0-15.92,21.78t15.92,21.78a48,48,0,0,0,8.62-.84V255.6q0-4.22.19-6.46h-5.15c-2.38,0-4.09-.46-5.16-1.36s-1.59-2.45-1.59-4.64a16,16,0,0,1,1-5.9l14.62-.09h.18q9.38,0,9.37,9Zm56.87,2.16a13.9,13.9,0,0,1-5.9,1.22,6.63,6.63,0,0,1-5.06-1.88,18.45,18.45,0,0,1-3.38-6.46l-3.56-10.21a9.71,9.71,0,0,0-2.76-4.5,8,8,0,0,0-5.39-1.59h-4.4v23.79a36.79,36.79,0,0,1-7.12.57,35.19,35.19,0,0,1-7-.57V209.7l.65-.66q15.73-.37,22.11-.38,10.21,0,16.4,5.11t6.18,15.13a18.22,18.22,0,0,1-11.43,17.15q4.77,1.68,7.12,8.52l3,8.34a14.53,14.53,0,0,0,4.59,6.84A10.34,10.34,0,0,1,454.54,272.84Zm54.33-4.12a29.23,29.23,0,0,1-35.22,0q-10-8.34-10-27.5t10-27.5a29.23,29.23,0,0,1,35.22,0q10,8.34,10,27.5T508.87,268.72Zm70.08-19q0,11.9-6.56,18.41t-18.55,6.51q-12,0-18.55-6.51t-6.56-18.41V209.23l.66-.57h5.25q8.43,0,8.43,9v32.23c0,4.49.86,7.84,2.58,10s4.46,3.28,8.24,3.28,6.51-1.09,8.2-3.28,2.53-5.53,2.53-10V209.23a37.3,37.3,0,0,1,7.21-.57,35.87,35.87,0,0,1,7.12.57Zm52.32-2.62q-6.22,5.71-16.44,5.71h-7.78v20.42a37.37,37.37,0,0,1-7.21.57,35.87,35.87,0,0,1-7.12-.57V209.7l.66-.66q15.74-.37,21.45-.38,10.3,0,16.49,5.63t6.18,16.34Q637.5,241.37,631.27,247.08Z"/><path class="cls-1" d="M431.58,219.53c-3.12,0-5.61,0-7.49-.09v19q6.18-.19,7.49-.19,9.09,0,9.09-9.37T431.58,219.53Z"/><path class="cls-1" d="M121.84,219.94a15.06,15.06,0,0,0-15,15.05v12a15,15,0,1,0,30.08,0V235A15.06,15.06,0,0,0,121.84,219.94Z"/><path class="cls-1" d="M491.21,218.88q-12.69,0-12.69,22.34t12.69,22.34q12.71,0,12.7-22.34T491.21,218.88Z"/><path class="cls-1" d="M614.27,219.72q-4.59,0-7.22-.09V242q2.72-.11,6.47-.1a8.74,8.74,0,0,0,6-1.92,8.64,8.64,0,0,0,2.81-4.17,23.29,23.29,0,0,0,.61-5.85,13.21,13.21,0,0,0-2-6.93Q618.86,219.72,614.27,219.72Z"/><path class="cls-2" d="M86.68,266.61a2,2,0,0,0-2.88.06,38.11,38.11,0,1,1,0-53.3,2,2,0,0,0,2.87,0l8.51-8.51a2,2,0,0,0,0-2.81,54.15,54.15,0,1,0,0,75.94,2,2,0,0,0,0-2.81Z"/><path class="cls-2" d="M121.84,207.91A27.11,27.11,0,0,0,94.76,235v12a27.08,27.08,0,1,0,54.16,0V235A27.11,27.11,0,0,0,121.84,207.91Zm15,39.11a15,15,0,1,1-30.08,0V235a15,15,0,1,1,30.08,0Z"/><polygon class="cls-2" points="239.17 274.1 279.29 274.1 279.29 262.06 251.21 262.06 251.21 246.02 279.29 246.02 279.29 233.98 251.21 233.98 251.21 219.94 279.29 219.94 279.29 207.91 239.17 207.91 239.17 274.1"/><polygon class="cls-2" points="287.81 219.94 306.87 219.94 306.87 274.1 318.9 274.1 318.9 219.94 337.95 219.94 337.95 207.91 287.81 207.91 287.81 219.94"/><polygon class="cls-2" points="192.04 256.05 177.32 207.91 156.94 207.91 156.94 273.5 168.97 273.5 168.97 220.92 185.7 271.09 186.6 273.79 197.48 273.79 198.38 271.09 215.1 220.92 215.1 273.5 227.14 273.5 227.14 207.91 206.76 207.91 192.04 256.05"/><path class="cls-3" d="M388.3,237.15h-.18l-14.62.09a16,16,0,0,0-1,5.9c0,2.19.53,3.73,1.59,4.64s2.78,1.36,5.16,1.36h5.15q-.19,2.25-.19,6.46v6.84a48,48,0,0,1-8.62.84q-15.93,0-15.92-21.78t15.92-21.78q7.77,0,15.46,5.15a14.6,14.6,0,0,0,4.26-4.45,12.94,12.94,0,0,0,2.2-5.85,41.1,41.1,0,0,0-22.67-6.75,28.35,28.35,0,0,0-20.61,8.25,29,29,0,0,0-6.7,10.72A42.13,42.13,0,0,0,345,241.64q0,15.38,7,24.17t20.52,8.81a77.55,77.55,0,0,0,25.1-3.94V246.14Q397.67,237.14,388.3,237.15Z"/><path class="cls-3" d="M454,262.91l-3-8.34q-2.34-6.84-7.12-8.52a18.22,18.22,0,0,0,11.43-17.15q0-10-6.18-15.13t-16.4-5.11q-6.37,0-22.11.38l-.65.66v63.51a35.19,35.19,0,0,0,7,.57,36.79,36.79,0,0,0,7.12-.57V249.42h4.4a8,8,0,0,1,5.39,1.59,9.71,9.71,0,0,1,2.76,4.5l3.56,10.21a18.45,18.45,0,0,0,3.38,6.46,6.63,6.63,0,0,0,5.06,1.88,13.9,13.9,0,0,0,5.9-1.22,10.34,10.34,0,0,0,4-3.09A14.53,14.53,0,0,1,454,262.91Zm-22.4-24.64q-1.31,0-7.49.19v-19c1.88.06,4.37.09,7.49.09q9.09,0,9.09,9.37T431.58,238.27Z"/><path class="cls-3" d="M508.87,213.72a29.23,29.23,0,0,0-35.22,0q-10,8.34-10,27.5t10,27.5a29.23,29.23,0,0,0,35.22,0q10-8.34,10-27.5T508.87,213.72Zm-17.66,49.84q-12.69,0-12.69-22.34t12.69-22.34q12.71,0,12.7,22.34T491.21,263.56Z"/><path class="cls-3" d="M564.62,209.23v40.66c0,4.49-.85,7.84-2.53,10s-4.42,3.28-8.2,3.28-6.53-1.09-8.24-3.28-2.58-5.53-2.58-10V217.66q0-9-8.43-9h-5.25l-.66.57V249.7q0,11.9,6.56,18.41t18.55,6.51q12,0,18.55-6.51T579,249.7V209.23a35.87,35.87,0,0,0-7.12-.57A37.3,37.3,0,0,0,564.62,209.23Z"/><path class="cls-3" d="M614.83,208.66q-5.72,0-21.45.38l-.66.66v63.51a35.87,35.87,0,0,0,7.12.57,37.37,37.37,0,0,0,7.21-.57V252.79h7.78q10.21,0,16.44-5.71t6.23-16.45q0-10.73-6.18-16.34T614.83,208.66Zm7.45,27.17a8.64,8.64,0,0,1-2.81,4.17,8.74,8.74,0,0,1-6,1.92q-3.75,0-6.47.1V219.63q2.63.09,7.22.09t6.6,3.33a13.21,13.21,0,0,1,2,6.93A23.29,23.29,0,0,1,622.28,235.83Z"/></g></g></svg>