<?xml version="1.0" encoding="utf-8"?>
<!-- Generator: Adobe Illustrator 22.1.0, SVG Export Plug-In . SVG Version: 6.00 Build 0)  -->
<svg version="1.1" id="Layer_2_1_" xmlns="http://www.w3.org/2000/svg" xmlns:xlink="http://www.w3.org/1999/xlink" x="0px" y="0px"
	 viewBox="0 0 640 480" style="enable-background:new 0 0 640 480;" xml:space="preserve">
<style type="text/css">
	.st0{fill:#732865;}
</style>
<g>
	<path class="st0" d="M464.9,375.7c-1.8-2.4-3-0.6-4.1,0.8c-10.6,12.5-22.8,23.2-37,31.4c-11.9,6.8-24.5,11.9-38.2,13.4
		c-17.7,1.8-35-0.1-51.1-8.7c-13.9-7.4-25.2-17.5-33.7-30.9c-4.9-7.7-9.1-15.8-11.5-24.7c-2-7.6-4.4-15.1-5.3-22.9
		c-1.1-9.3-1.9-18.7-0.5-28.1c0.6-4.2,1-8.4,1.4-12.5c1.3-11.7,4.9-22.8,8.8-33.8c6-17.3,15-32.8,26.6-46.8
		c13.3-16.2,29.1-29.4,47.4-39.8c18-10.2,37.2-15.9,57.7-18c3.6-0.4,3.6-0.4,3-3.9c-1.7-10.3-3.2-20.6-4.8-31
		c-0.3-2.1-1.4-3.3-3.6-2.9c-6.7,1.3-13.5,2.3-20,4.1c-1.2,0.3-2.3,0.7-3.5,1l0,0c0,0-124.8,19.1-146.5,153.7
		c-10.2,63.1,9.7,101.7,33.7,124.9c5.9,6.3,12.6,11.8,19.9,16.7c12.1,8.2,25.4,13.6,39.5,16c0.2,0.1,0.2,0.1,0.2,0.1l0,0
		c2.3,0.4,4.7,0.7,7,0.9c9.9,0.9,20-0.3,30-1c12.4-0.9,23.9-5.4,35-10.8c20-9.7,37-23.4,51.5-40.2
		C469.7,379,466.4,377.7,464.9,375.7z"/>
	<path class="st0" d="M472.2,389.2c-8.5,9.3-17.4,18.1-28,25.1c-8.3,5.6-16.7,11.1-25.5,15.6c-1.1,0.6-2.1,1.1-3.2,1.7
		c-1.2,0.5-2.5,1-3.7,1.5l0,0c-75.4,43.5-150.3-21.1-166.4-66.7c0,0,0,0,0-0.1c-4.4-11-7.6-23.2-9.2-36.8c-6.9-43.6-2-99.1,34.9-152
		c43.6-62.4,131.3-80.2,148.5-83.1c0-0.5-0.1-0.9-0.1-1.3c-1.4-9.5-3.1-19-4.4-28.5c-0.6-4.4-1.5-5.3-5.8-4.5
		c-2.3,0.5-4.6,0.9-6.9,1.3c-2.1,0.2-161.8,17.6-197.5,180.1c-22.2,101.1,19.7,156.4,54.9,183.9c4.8,3.9,9.8,7.5,15.1,10.7
		c6.3,3.8,12.8,7.2,19.5,10.1c4,1.7,6.4,2.5,6.4,2.5s42.4,19.5,98.6-0.1c1.2-0.4,2.5-0.9,3.7-1.3c0.2-0.1,0.4-0.2,0.6-0.3
		c4.8-1.8,9.8-4,14.8-6.5c0.1,0,0.1-0.1,0.2-0.1c0.8-0.4,1.6-0.8,2.3-1.2c0.4-0.2,0.8-0.4,1.2-0.6c0.5-0.3,1-0.5,1.5-0.8
		c0.7-0.4,1.4-0.7,2-1.1c0.3-0.2,0.6-0.4,0.9-0.5c0.8-0.5,1.6-0.9,2.3-1.3c0.2-0.1,0.4-0.2,0.6-0.4c17.4-10.1,23.3-14.6,22.2-15.4
		c8.4-6.8,16.2-14.5,24.2-21.7c2.7-2.4,3.5-4.6,0.5-7.8C474.7,387.7,473.7,387.6,472.2,389.2z"/>
	<path class="st0" d="M488.5,404.9c-0.2-0.7-1.4-1.1-1.7-1.8c-1.1-2.8-2.3-2-3.9-0.5c-3.6,3.6-7.3,7.1-11,10.7
		c-10.5,10.3-22.3,19.2-34.9,26.8c-16.5,9.8-33.9,17.6-52.7,21.8c-11.4,2.5-23.1,3.7-34.7,4.4c-7.9,0.5-15.9-0.7-23.9-1.3
		c-3.1-0.3-6.2-0.7-9.2-1.6c-7.5-2.1-15-4.5-22.5-6.8c-12-3.8-23-9.9-33.4-16.9c0,0-105.5-50.7-69.6-215
		c19.7-90.3,85.2-138.1,140.2-162.9c10.2-4.9,20.6-9,31.3-12.3c22.9-7.7,40.9-11.1,48.2-12.3c-0.1-0.5-0.1-1-0.2-1.7
		c-1.4-10.1-3.1-20.2-4.6-30.7c0,0,0,0-0.1,0V0c0,0-190.6,10.4-244.6,195.7c-26.8,91.7,4.5,182.4,41.1,222.5
		c8.1,9.3,17,17.8,27,25.3c5.6,4.2,11.4,8.2,17.3,11.7c2.4,1.5,3.8,2.2,3.8,2.2l0,0c10.6,5.9,21.8,10.7,33.7,14
		c7.4,2,14.9,4.5,22.5,5.8l0,0c0,0,54.8,13.9,116.9-19.6c8.6-4.4,16.8-9.4,24.7-14.8c2.4-1.7,4.8-3.4,7.1-5.1
		c0.1-0.1,0.2-0.2,0.3-0.2c11.6-8.7,22.3-18.5,32.5-28.8C489,407.7,488.7,406,488.5,404.9z"/>
</g>
</svg>
