<?xml version="1.0" encoding="utf-8"?>
<!-- Generator: Adobe Illustrator 21.1.0, SVG Export Plug-In . SVG Version: 6.00 Build 0)  -->
<svg version="1.1" id="Layer_1" xmlns="http://www.w3.org/2000/svg" xmlns:xlink="http://www.w3.org/1999/xlink" x="0px" y="0px"
	 viewBox="0 0 640 480" style="enable-background:new 0 0 640 480;" xml:space="preserve">
<style type="text/css">
	.st0{fill:#27697D;}
	.st1{fill:#CC2229;}
	.st2{fill:#378E52;}
</style>
<g>
	<path class="st0" d="M278,84.3c4.5,13.3,8.3,26.9,10.6,40.5c-74.6,1.5-137.1,39.8-184.4,95.4c-13,17.1-28.4,37.1-17.4,59.8
		c15.8,31.3,78.8,25.2,119.3,19.7c41.9-7.8,73.1-16.7,107.9-31.1c9.8-3.8,29.2-11.4,29.2-11.4l18.2-8.7l36.4-18.6l9.8-4.9l63.5-34
		l130-71.5v63.1l-104.2,62.5l-67.4,37.1c0,0-97,46.6-148.5,61.7c-7.8,2.4-10.9,3.3-19.7,5.3c-49.6,9.8-107.9,17.4-154.1-4.5
		c-24.6-11.4-45.8-35.1-56.7-59.1c-4.5-9.8-6.9-20.1-8.8-30.7c0-3.8-0.7-9.2-0.7-12.5c0-54.7,41.6-96.2,81-126.9
		c8.3-6.4,22.4-15.5,27.9-18.5c6.2-3.3,16.6-7.5,26-12.1c18.5-8,40.9-15.9,63.1-17.5C255,67,271.9,68.4,278,84.3L278,84.3z"/>
	<path class="st1" d="M601,95.7l-100,54.5c-7.9,3.9-16.3,2.9-22-1.9c-8.7-9.8-12.9-23.9-16.3-35.2c0,0,12.5-3.2,22.3-8
		C502.5,96,601,45.7,601,45.7L601,95.7L601,95.7L601,95.7z"/>
	<path class="st2" d="M372.8,138.9l-39.2,82.6c-4.4,9.2-9.1,23.9-20.8,30.7c-23.9,16.7-82.6,25.4-82.6,25.4l-4.1,0.5
		c0,0,74.5-140.4,110.5-205.9h79.6L544,355.3h-77.4c-13.7,0-12.8-11.4-27.3-47.9C436.3,299.1,372.8,138.9,372.8,138.9L372.8,138.9z
		 M39,434.3v-45.1h521.5v45.1H39z"/>
</g>
</svg>
