<?xml version="1.0" encoding="utf-8"?>
<!-- Generator: Adobe Illustrator 22.1.0, SVG Export Plug-In . SVG Version: 6.00 Build 0)  -->
<svg version="1.1" id="Layer_2_1_" xmlns="http://www.w3.org/2000/svg" xmlns:xlink="http://www.w3.org/1999/xlink" x="0px" y="0px"
	 viewBox="0 0 640 480" style="enable-background:new 0 0 640 480;" xml:space="preserve">
<style type="text/css">
	.st0{fill:#1B1517;}
	.st1{fill:#1B161A;}
	.st2{fill:#8FC647;}
</style>
<g>
	<path class="st0" d="M256.3,0c0,0,32.9,8,40.1,37.5s5.4,69.5-67.7,185.4s-28.5,192.6,0,220.2c28.5,27.6,94.5,58.9,163.2,15.2
		s58.9-120.4,58.9-120.4s-9.1,91.3-97.2,110.6c-88.1,19.2-132-46.4-134.6-106.1c-2.7-59.7,34.9-96.9,70.4-174.8
		C325.8,87.4,324.9,8.9,256.3,0z"/>
	<path class="st1" d="M320,380.7c0,0,3.1-8.9,0-33.9c-3.1-25,18.6-40.1,33.6-44.6c15-4.5,21.2-8.9,21.2-8.9v30.3
		c0,0,3.6,23.2-11.6,33.9C348.1,368.2,324.9,371.8,320,380.7z"/>
	<path class="st1" d="M304.8,321.8c0,0-2.7-7-17.5-20.7c-14.8-13.7-9.4-34.1-2.5-44.6c6.9-10.5,8.4-16.4,8.4-16.4l15.7,18.5
		c0,0,14.1,12.3,10.4,26.7S303.2,313.8,304.8,321.8z"/>
	<path class="st2" d="M341,197.8c43,18.6,73.1,60.2,73.1,108.6c0,65.7-55.4,118.9-123.7,118.9c-2,0-4-0.1-6-0.2
		c28.5,6.6,112.7,16.7,144.9-64C467.6,264.8,362.5,198.4,341,197.8z"/>
</g>
</svg>
