<?xml version="1.0" encoding="utf-8"?>
<!-- Generator: Adobe Illustrator 22.1.0, SVG Export Plug-In . SVG Version: 6.00 Build 0)  -->
<svg version="1.1" id="Layer_2_1_" xmlns="http://www.w3.org/2000/svg" xmlns:xlink="http://www.w3.org/1999/xlink" x="0px" y="0px"
	 viewBox="0 0 640 480" style="enable-background:new 0 0 640 480;" xml:space="preserve">
<style type="text/css">
	.st0{fill:#FC211A;}
</style>
<g id="layer1" transform="translate(286.71951,-254.30192)">
	<path id="path6534" class="st0" d="M-59.8,570.2l3.3,71.8c-25.9,7.7-52.4,12.1-76.2,12.1c-89.5,0-154-53.5-154-161.8
		c1.1-91.7,53-157.9,154-157.9c40.3,0,67.4,11,74.5,14.4l-4.4,67.9c-9.9-5.5-34.2-17.7-60.2-17.7c-53,0-77.8,34.2-77.8,94.4
		c0,53,29.3,93.9,81.2,93.9C-89,587.3-67.5,575.2-59.8,570.2L-59.8,570.2z M110.9,473l-37-16.6c-27.6-12.1-35.3-19.3-35.3-35.3
		c0-18.8,14.9-29.3,39.8-29.3c23.7,0,49.1,7.7,63.5,15.5l3.3-60.7c-24.8-9.9-54.1-12.1-77.3-12.1c-65.7,0-112.1,33.1-112.1,91.7
		c0,43.6,15.5,71.2,66.3,91.1l18.2,7.2c23.7,9.4,37.6,14.9,37.6,35.3c0,19.3-11,33.1-42.5,33.1c-29.8,0-59.6-12.7-69.6-18.8
		l-5.1,67.3c15.5,3.8,45.3,12.1,82.3,12.1c71.8,0,120.4-34.2,120.4-102.1C163.3,505.6,139,485.7,110.9,473L110.9,473z M262.7,585.7
		V339.9h-82.8v308.7h173.4v-63L262.7,585.7z M305.2,348.8L305.2,348.8l5.5,16.6h5.5l5.5-16.6l0,0v16.6h6.6v-25.4h-9.4l-5.5,14.9l0,0
		l-5.5-14.9h-9.9v25.4h6.6v-16.6H305.2z M281.5,365.3h6.6v-19.9h7.2v-5.5h-21v5.5h7.2L281.5,365.3z"/>
</g>
</svg>
