<?xml version="1.0" encoding="utf-8"?>
<!-- Generator: Adobe Illustrator 22.1.0, SVG Export Plug-In . SVG Version: 6.00 Build 0)  -->
<svg version="1.1" id="Layer_1" xmlns="http://www.w3.org/2000/svg" xmlns:xlink="http://www.w3.org/1999/xlink" x="0px" y="0px"
	 viewBox="0 0 640 480" style="enable-background:new 0 0 640 480;" xml:space="preserve">
<style type="text/css">
	.st0{fill:#2F4FA2;}
	.st1{fill:#FAA329;}
</style>
<g>
	<path class="st0" d="M560.5,249.7c-53.6,0-104.8,0-156,0c-47.1,0-73.1,25.6-73.5,73.3c-0.2,25.6-0.2,51.3-0.2,76.9V480l1.2,0
		c0,0,0,0,0,0c66.6,0,133,0,198.7,0c16.4-0.3,29.5-12.3,29.6-30.9C560.8,383.6,560.5,318,560.5,249.7z"/>
	<path class="st0" d="M134.7,0c-8.3,0.2-16.6,0.3-24.9,0.4C92.9,0.6,81.1,11.2,80.9,28.5c-0.7,65.5-0.3,131-0.3,198.4
		c58.9,0,115.3,1.1,171.7-0.4c30.1-0.8,53.2-22.5,54.5-53.1c2.5-56.3,1.5-117.1,1.8-173.5H134.7z"/>
	<path class="st1" d="M560.4,188c0.1-53.6,0.3-106.5-0.4-159.3c-0.2-15.5-10.1-28-26.6-28.2c-66.7-0.8-133.5-0.3-202.7-0.3
		c0,52.9-0.1,102.8,0,152.7c0.1,50.1,24.9,74.9,75.4,75.2c25.2,0.2,50.3,0.2,75.5,0.1v0h79V188H560.4z"/>
	<path class="st0" d="M307.7,310.8c-1.6-34.9-22.1-56.8-56.2-58.7c-56.2-3-112.6-0.8-170-0.8h-1V300h0c0,47.6-0.1,95.2,0,142.9
		c0,26.3,11.2,37,38.2,37.1c48.7,0.1,97.5,0,146.2,0c14.1,0,28.2,0,43.3,0C308.4,422.1,310.2,366.3,307.7,310.8z"/>
</g>
</svg>
