<?xml version="1.0" encoding="utf-8"?>
<!-- Generator: Adobe Illustrator 22.1.0, SVG Export Plug-In . SVG Version: 6.00 Build 0)  -->
<svg version="1.1" id="Layer_2_1_" xmlns="http://www.w3.org/2000/svg" xmlns:xlink="http://www.w3.org/1999/xlink" x="0px" y="0px"
	 viewBox="0 0 640 480" style="enable-background:new 0 0 640 480;" xml:space="preserve">
<style type="text/css">
	.st0{fill:#00526B;}
	.st1{fill:#EF1931;}
</style>
<g>
	<path class="st0" d="M332.7,0.4C200.2-6.9,90.6,93.3,80.9,220.8c-10.7,140.7,96.6,252.4,227.2,258.9
		c133.8,6.6,250.3-98.5,251.7-238.5C560.5,117.4,465.4,7.7,332.7,0.4z M95.1,167.1c57.4,0,113.5-1.2,170.3-1.2
		c17.5-54,36.7-108.4,54.6-163.7c18,55.2,35.3,108.7,52.9,162.8c-35.4,0-71.8,0.9-107.5,0.9c-10.8,33.3-21.6,67.4-32.6,101.3
		C186.8,233.9,141.6,201,95.1,167.1z M411.2,264.4c-3.7,2.7-4.6,4.9-3.1,9.4c16.3,49.4,32.2,98.9,48.2,148.4
		c0.9,2.7,1.6,5.4,2.5,8.1c-0.4,0.2-0.8,0.5-1.2,0.8C412,397.9,366.2,364.7,319.9,331c-46.1,33.5-92.1,67-139.6,101.5
		c4.3-13.2,8.1-24.9,11.8-36.5c7.8-24.1,15.6-48.1,23.5-72.2v-0.1c0.8-2.4,18.2-56.3,18.2-56.3l74.9-23.2l0,0
		c36.1-11.8,72.2-23.5,108.3-35.1c40.3-13.1,80.4-26.2,120.7-39.4c0.8-0.2,1.7-0.2,4.6-0.5c-5.4,4-9.4,7-13.3,10
		C489.7,207.5,450.5,236,411.2,264.4z"/>
	<path class="st1" d="M332.7,0.4c-4.3-0.2-8.5-0.4-12.8-0.4v2.2l0,0c18,55.2,35.3,108.7,52.9,162.8c-35.3,0-71.6,0.9-107.3,0.9
		l-0.3,0.2c-10.7,32.8-21.3,66.5-32.1,99.9l0.6,1.2l74.9-23.2l0,0c36.1-11.8,72.2-23.5,108.3-35.1c40.3-13.1,80.4-26.2,120.7-39.4
		c0.8-0.2,1.7-0.2,4.6-0.5c-5.4,4-9.4,7-13.3,10c-39.2,28.5-78.3,57.1-117.7,85.4c-3.7,2.7-4.6,4.9-3.1,9.4
		c16.3,49.4,32.2,98.9,48.2,148.4c0.9,2.7,1.6,5.4,2.5,8.1c-0.4,0.2-0.8,0.5-1.2,0.8C412.1,397.9,366.3,364.7,320,331
		c-46.1,33.5-92.1,67-139.6,101.5c0.1-0.2,0.1-0.4,0.2-0.5l-1.6,2.2c36.9,26.8,81.5,43.2,129.3,45.6
		c133.8,6.6,250.3-98.5,251.7-238.5C560.5,117.4,465.4,7.7,332.7,0.4z"/>
</g>
</svg>
