<?xml version="1.0" encoding="utf-8"?>
<!-- Generator: Adobe Illustrator 21.1.0, SVG Export Plug-In . SVG Version: 6.00 Build 0)  -->
<svg version="1.1" id="Layer_1" xmlns="http://www.w3.org/2000/svg" xmlns:xlink="http://www.w3.org/1999/xlink" x="0px" y="0px"
	 viewBox="0 0 640 480" style="enable-background:new 0 0 640 480;" xml:space="preserve">
<style type="text/css">
	.st0{fill:#FFFFFF;}
</style>
<g>
	<path class="st0" d="M106,88.4c0-21.8,0-43.5,0-65.3c142.7,0,285.4,0,428.1,0c0,144.6,0,289.3,0,433.9c-93.8,0-187.7,0-281.5,0
		c3.6-0.9,7.2-2.1,10.9-2.7c17.4-2.7,35-4.5,52.3-8c30.1-6.1,59.8-13.9,89.9-19.6c37.3-7.1,74.8-12.9,112.2-19
		c5.4-0.9,7.6-3,7.8-8.8c0.8-22.5,2.8-44.9,3.4-67.4c1.6-56.4,8.6-113-3.4-169.2c-1.7-7.9-3.3-14.3-9.8-20.4
		c-25.8-24-50.8-48.9-76.1-73.4C427,56.1,413.3,44.7,402,31.3c-5.3-6.3-9.7-7.3-16.3-6.1c-37.5,6.9-75.4,12.4-112.5,21
		C217.2,59.1,161.7,74.2,106,88.4z"/>
	<path d="M106,88.4c55.7-14.2,111.2-29.2,167.2-42.2c37.1-8.6,75-14.1,112.5-21c6.6-1.2,11-0.3,16.3,6.1
		c11.3,13.4,25,24.8,37.7,37.1c25.3,24.5,50.3,49.5,76.1,73.4c6.5,6,8.2,12.4,9.8,20.4c11.9,56.2,4.9,112.8,3.4,169.2
		c-0.6,22.5-2.5,44.9-3.4,67.4c-0.2,5.8-2.4,7.9-7.8,8.8c-37.4,6.2-74.9,11.9-112.2,19c-30.1,5.7-59.8,13.6-89.9,19.6
		c-17.3,3.5-34.9,5.3-52.3,8c-3.7,0.6-7.3,1.8-10.9,2.7c-1.5,0-2.9,0-4.4,0c-13.9-12.7-29-24.3-41.5-38.2
		c-28.2-31.5-55.1-64-82.4-96.3c-2.3-2.7-3.7-6.8-3.9-10.3c-2.9-63.7-5.6-127.4-8.4-191.2c-0.4-8.2-1.3-16.4-1-24.5
		c0.1-4.4-2.1-4.7-5.1-5.1C106,90.3,106,89.3,106,88.4z M238,193.1c0.4-0.8,0.8-1.7,1.1-2.5c4.3,11.8,12.5,9.8,20.9,7
		c3.2-1.1,6.5-1.9,9.8-2.8c31.8-8.2,63.3-17.9,95.5-24.3c40.7-8.1,82-13.5,123-19.9c4.3-0.7,8.6,0.4,9.5,6.9c-3.7,0.5-7,1-10.2,1.3
		c-10.1,0.9-20.3,1.4-30.3,2.7c-67.4,8.2-133.2,23.5-198.1,43.1c-10.5,3.2-13.1,6.6-12.6,18.2c2.5,56,4.9,112.1,7.7,168.1
		c0.9,18.5,2.5,37,3.9,56.2c4.2-0.3,8.3-0.3,12.3-1c16.4-2.8,32.9-5.7,49.2-8.9c44.6-8.6,89.1-17.5,133.7-26.1
		c19.4-3.7,39-7.1,58.5-10.5c4.3-0.7,5.8-2.6,6-7.2c0.3-9.9,2-19.7,2.4-29.5c2.5-66.8,10.5-133.7-1.6-200.3
		c-0.5-2.7-1.2-5.7-2.9-7.8c-7.8-9.8-15-20.3-24-28.9c-31-29.8-62.7-58.9-94.1-88.3c-1.2-1.1-2.7-1.9-4.3-2.9
		c-1.7,1.8-3.2,3.4-5.2,5.6c0.5-3.5,0.9-6,1.3-8.9c-2.3-0.1-4-0.5-5.6-0.3c-24.6,3.7-49.4,6.7-73.7,11.6
		c-28.1,5.6-56,12.8-83.9,19.4c-8.2,1.9-16.5,3.9-24.5,6.6c-3.6,1.2-6.5,4.3-10.2,7c-4.2-3.1-59.6,8.1-70.3,16.3
		c5.4,5.6,10.2,11.4,15.9,16.3c16.5,14.2,33.5,27.7,50,41.9c15,12.9,29.5,26.4,44.4,39.4C233,192.1,235.7,192.4,238,193.1z
		 M247.2,444.1c0.7-0.3,1.4-0.6,2.1-0.9c0-5,0.2-9.9,0-14.9c-1.7-34-3.7-68.1-5.2-102.1c-1.5-32.4-2.5-64.7-3.6-97.1
		c-0.2-5.6,3.9-11.9-3.4-16c-0.4-0.2-0.6-1.5-0.3-1.9c3.4-4.6-0.8-6.5-3.2-8.8c-5.1-4.8-10.2-9.6-15.6-14.1
		c-30.2-25.7-60.4-51.3-90.7-76.9c-2.2-1.9-5-3.1-9-5.5c0,5.7-0.2,9.5,0,13.3c2.2,47.1,4.5,94.1,6.7,141.2c0.7,14.2,1,28.5,1.5,42.8
		c0.2,7.5,2.3,13.9,7.4,19.8c11.1,13.1,21.3,27,32.3,40.1c21.7,26,44.3,51.2,70.3,73C239.8,439.1,243.6,441.5,247.2,444.1z"/>
	<path class="st0" d="M106,91.3c3,0.4,5.2,0.7,5.1,5.1c-0.3,8.2,0.7,16.3,1,24.5c2.7,63.7,5.4,127.4,8.4,191.2
		c0.2,3.5,1.6,7.7,3.9,10.3c27.2,32.3,54.2,64.9,82.4,96.3c12.5,13.9,27.6,25.5,41.5,38.2c-47.3,0-94.7,0-142.2,0
		C106,335.1,106,213.2,106,91.3z"/>
	<path class="st0" d="M238,193.1c-2.2-0.8-4.9-1-6.6-2.4c-14.9-13-29.4-26.5-44.4-39.4c-16.5-14.2-33.5-27.7-50-41.9
		c-5.7-4.9-10.5-10.8-15.9-16.3c10.8-8.3,66.1-19.4,70.3-16.3c3.8-2.6,6.7-5.7,10.2-7c8-2.7,16.3-4.6,24.5-6.6
		c27.9-6.6,55.8-13.8,83.9-19.4c24.4-4.9,49.1-7.8,73.7-11.6c1.6-0.2,3.3,0.2,5.6,0.3c-0.4,2.9-0.8,5.4-1.3,8.9
		c2.1-2.2,3.5-3.8,5.2-5.6c1.6,1.1,3.1,1.8,4.3,2.9c31.5,29.3,63.1,58.5,94.1,88.3c9,8.6,16.3,19.1,24,28.9c1.6,2.1,2.4,5.1,2.9,7.8
		c12.1,66.7,4.1,133.5,1.6,200.3c-0.4,9.9-2.1,19.7-2.4,29.5c-0.2,4.6-1.6,6.4-6,7.2c-19.5,3.4-39,6.7-58.5,10.5
		c-44.6,8.6-89.1,17.5-133.7,26.1c-16.4,3.2-32.8,6-49.2,8.9c-4,0.7-8.1,0.7-12.3,1c-1.3-19.2-3-37.7-3.9-56.2
		c-2.7-56-5.2-112.1-7.7-168.1c-0.5-11.6,2.1-15,12.6-18.2c64.9-19.7,130.7-35,198.1-43.1c10.1-1.2,20.2-1.7,30.3-2.7
		c3.3-0.3,6.6-0.8,10.2-1.3c-0.9-6.5-5.2-7.6-9.5-6.9c-41.1,6.4-82.3,11.8-123,19.9c-32.2,6.4-63.7,16.1-95.5,24.3
		c-3.3,0.8-6.6,1.7-9.8,2.8c-8.5,2.8-16.6,4.8-20.9-7C238.7,191.5,238.3,192.3,238,193.1z"/>
	<path class="st0" d="M247.2,444.1c-3.6-2.6-7.4-5-10.8-7.9c-26-21.8-48.6-47-70.3-73c-11-13.2-21.2-27-32.3-40.1
		c-5-5.9-7.1-12.4-7.4-19.8c-0.4-14.3-0.8-28.5-1.5-42.8c-2.2-47.1-4.5-94.2-6.7-141.2c-0.2-3.8,0-7.6,0-13.3c4,2.5,6.8,3.7,9,5.5
		c30.3,25.6,60.5,51.2,90.7,76.9c5.3,4.5,10.5,9.3,15.6,14.1c2.5,2.3,6.6,4.2,3.2,8.8c-0.3,0.4-0.1,1.7,0.3,1.9
		c7.3,4.1,3.2,10.5,3.4,16c1.1,32.4,2.2,64.7,3.6,97.1c1.5,34,3.5,68.1,5.2,102.1c0.2,4.9,0,9.9,0,14.9
		C248.6,443.5,247.9,443.8,247.2,444.1z"/>
</g>
<image style="overflow:visible;" width="200" height="200" xlink:href="safran.html"  transform="matrix(1 0 0 1 -395 280)">
</image>
<image style="overflow:visible;" width="200" height="200" xlink:href="veolia.html"  transform="matrix(1 0 0 1 914 367)">
</image>
</svg>
