<?xml version="1.0" encoding="utf-8"?>
<!-- Generator: Adobe Illustrator 18.1.1, SVG Export Plug-In . SVG Version: 6.00 Build 0)  -->
<svg version="1.1" id="Layer_1" xmlns="http://www.w3.org/2000/svg" xmlns:xlink="http://www.w3.org/1999/xlink" x="0px" y="0px"
	 viewBox="0 0 640 480" enable-background="new 0 0 640 480" xml:space="preserve">
<g>
	<path fill="#231F20" d="M315.1,4.3h11.8c42.7,1.2,85,14.3,120.8,37.6c25.9,16.8,48.4,38.6,66,64c18.6,26.8,31.6,57.5,37.7,89.5
		c7.2,38.1,5,77.9-6.9,114.9c-17.4,55.1-56.1,103-106,132.1c-31.3,18.4-67,29.3-103.2,31.5c-37.4,2.4-75.3-4.5-109.4-19.8
		c-55.5-24.6-100.6-71.4-123.1-127.7c-19.4-47.8-22.1-102-7.8-151.5c15.9-55.8,53.4-105,102.7-135.4C232.7,17.5,273.8,5.4,315.1,4.3
		L315.1,4.3z"/>
	<path fill="#FFFFFF" d="M286.5,12.2c37.5-5.7,76.4-1.9,112,11.1c32.3,11.7,61.9,30.8,85.9,55.5c29.5,29.9,50.6,68.1,60.2,108.9
		c0.7,3.1,1.7,6.2,1.5,9.4c-3.4-10.6-6.4-21.3-10.8-31.6c-24.6-60.2-74.1-110.1-135-133.4c-35.2-13.6-73.9-18-111.2-12.6
		c-41.7,5.9-81.4,24.2-113.2,51.8c-21.6,18.6-39.5,41.4-52.5,66.6c-14.3,27.6-22.6,58.3-24.2,89.3c-0.7,17.7,0,35.5,3.2,52.9
		c6.4,37.9,22.2,74,45.1,104.7c7.2,9.9,15.5,18.9,23.8,27.7c-1.5-0.4-2.7-1.4-3.8-2.5c-25.6-23.4-46.1-52.4-59.2-84.5
		c-14.5-35.2-20.2-74.1-15.8-111.9c6.3-59.2,37.3-115,83.5-152.4C207.5,35.5,246.1,18.2,286.5,12.2L286.5,12.2z"/>
	<path fill="#FFFFFF" d="M319.9,23c0.4,0,1.2-0.1,1.7-0.1c0.4,19.2,0.6,38.5,0.7,57.7c0,21.6,0.7,43.2,0.8,64.9
		c0.2,29.3,0.7,58.6,0.9,87.9c10.5-6.1,20.8-12.3,31.3-18.3c-1.3-11.3-3.6-22.5-5.3-33.8c-8.5-51.5-16.9-103.1-25.4-154.6
		c30.2,1.2,60.4,8.2,87.7,21.3c30.6,14.6,57.6,36.5,78.1,63.5c20,26.3,33.6,57.3,39.3,89.8c6.2,34.7,3.7,71-7.6,104.4
		c-4.2,12.5-9.4,24.6-15.6,36.1c-48.9-40.3-98.1-80.4-147-120.6c-4.1,2.1-8,4.5-12.1,6.8c51.3,37.8,102.6,75.5,153.9,113.2
		c2.7,2,5.6,3.8,7.9,6.3c-1.2-0.1-2.4-0.1-3.5-0.8c-60.5-34-121-68-181.6-102c0,12.3,0.2,24.6,0.5,36.9
		c59.4,22.2,118.7,44.5,178,66.8c-15.3,25-35.6,46.9-59.6,63.7c-30.2,21.3-66,34.6-102.7,38c-56.5,5.5-114.6-13.3-157.7-50.2
		c-17.2-14.7-32.2-32-43.6-51.5c59.3-22.5,118.8-44.5,178.1-67c0-12.2,0.2-24.5,0.2-36.7c-60.4,34-120.8,68-181.1,102.1
		c-1.1,0.7-2.4,0.7-3.7,0.7c0.8-1,1.7-2,2.7-2.7c53-39,106-77.9,159-116.8c-4.1-2.3-8-4.8-12.3-6.8c-47.4,39.1-95,78-142.5,117
		c-1.5,1.2-3,2.4-4.5,3.6c-14.3-28-23.9-58.7-25.8-90.2c-3.3-51.6,13.4-104.1,45.7-144.4c26.3-33.2,62.8-58.2,103.2-70.7
		c19.1-5.9,39.1-9.2,59.1-9.4c-10.5,62.6-21,125.1-31.3,187.8c3.9,2.2,7.8,4.4,11.8,6.5C305.1,155.3,312.5,89.2,319.9,23L319.9,23z"
		/>
	<path fill="#FFFFFF" d="M461.3,73.1c9.2,6,17.1,13.9,24.8,21.7c25.1,26.3,43.4,59.1,52.7,94.2c8.5,31.5,8.5,65.1,1.8,97
		c-7.3,34.6-23.1,67.3-45.3,94.7c-19.1,23.6-42.9,43.3-69.7,57.6c-32.8,17.5-70,26.7-107.2,26.1c-35.9-0.2-71.8-9.2-103.2-26.5
		c-36.6-19.9-66.5-51.2-86-87.9c1.6,0.1,3.2,0.1,4.8,0.2c16,27,38.1,50.3,64,68.1c27.4,18.8,59.1,31.3,92,36.1
		c37.2,5.5,75.8,0.7,110.7-13.3c44.3-17.6,82.5-50,107-90.8c1.7-0.1,3.3-0.1,5-0.2c-0.8-2-3.1-4.1-1.6-6.2
		c15-27.8,24.4-58.8,26.5-90.4c3-44.1-7.8-89.2-31.3-126.7c-9.9-15.9-22.2-30.2-35.4-43.5C467.9,79.7,464.1,76.9,461.3,73.1
		L461.3,73.1z"/>
	<path fill="#231F20" d="M318.1,83.1c0.2-3.1,0-6.2,0.7-9.2c0.9,12,0.1,24.1,0.2,36.2c-0.2,26.5-0.7,53.1-0.8,79.6
		c-0.2,14.6-0.1,29.2-0.7,43.8c-2.8-1.8-5.6-3.4-8.4-5.1C312.2,179.9,314.9,131.5,318.1,83.1L318.1,83.1z"/>
	<path fill="#231F20" d="M327.7,239.2c3.4-1.9,6.8-3.8,10.2-5.8c43.6,29.2,87.1,58.5,130.6,87.8c2.3,1.5,4.7,3,6.7,5
		c-1.6-0.6-3.2-1.4-4.6-2.3C423,295.7,375.2,267.7,327.7,239.2L327.7,239.2z"/>
	<path fill="#231F20" d="M268.3,265.8c12.6-10.3,25.2-20.6,37.8-31c2.5,1.3,5,2.5,7.4,4.1c-0.1,0.9-1,1.3-1.6,1.8
		c-13.4,7.8-26.8,15.8-40.2,23.6C270.5,265,269.4,265.4,268.3,265.8L268.3,265.8z"/>
	<path fill="#FFFFFF" d="M106.8,278c1.1,2.3,1.5,4.8,2,7.2c4.2,18.6,10.6,36.7,19.1,53.7c1.1,2.2,2.4,4.3,3.2,6.5
		c-0.6,1.5-1.3,2.9-1.9,4.3c-9.9-18.6-17.1-38.8-20.8-59.6C107.7,286.2,106.8,282.2,106.8,278L106.8,278z"/>
</g>
</svg>
