<?xml version="1.0" encoding="utf-8"?>
<!-- Generator: Adobe Illustrator 19.1.1, SVG Export Plug-In . SVG Version: 6.00 Build 0)  -->
<svg version="1.1"
	 id="svg548" xmlns:dc="http://purl.org/dc/elements/1.1/" xmlns:cc="http://creativecommons.org/ns#" xmlns:rdf="http://www.w3.org/1999/02/22-rdf-syntax-ns#"
	 xmlns="http://www.w3.org/2000/svg" xmlns:xlink="http://www.w3.org/1999/xlink" x="0px" y="0px" viewBox="-159 41 640 480"
	 style="enable-background:new -159 41 640 480;" xml:space="preserve">
<style type="text/css">
	.st0{fill:#3174B1;}
	.st1{fill:#FFFFFF;}
</style>
<g id="Dash_Circle">
	<g>
		<g>
			<path id="Circle_12_" class="st0" d="M392.1,338.5c-31.1,127.9-160.8,204.6-288.7,173.6S-101.2,351.3-70.1,223.5
				S90.7,18.8,218.5,49.9C346.4,82.8,423.2,212.5,392.1,338.5z"/>
			<path id="D_12_" class="st1" d="M322.7,219.8c0-5.5-1.8-11-5.5-14.6c-3.7-5.5-7.3-9.1-12.8-11c-3.7-3.7-9.1-3.7-14.6-3.7H72.4
				l-14.6,47.5h195.5l-31.1,95h-14.6H94.3H24.9l-14.6,47.5h217.4c5.5,0,12.8-1.8,18.3-3.7c7.3-3.7,12.8-7.3,18.3-11
				c5.5-3.7,11-9.1,14.6-16.4c3.7-5.5,7.3-12.8,9.1-18.3l29.2-89.5C322.7,232.6,322.7,225.3,322.7,219.8z"/>
			<polygon id="_x2D__12_" class="st1" points="134.5,261.8 17.6,261.8 1.1,305.7 118.1,305.7 			"/>
		</g>
	</g>
</g>
</svg>
