<?xml version="1.0" encoding="utf-8"?>
<!-- Generator: Adobe Illustrator 19.1.1, SVG Export Plug-In . SVG Version: 6.00 Build 0)  -->
<svg version="1.1" id="Layer_3" xmlns="http://www.w3.org/2000/svg" xmlns:xlink="http://www.w3.org/1999/xlink" x="0px" y="0px"
	 viewBox="0 0 640 480" style="enable-background:new 0 0 640 480;" xml:space="preserve">
<style type="text/css">
	.st0{fill:#000199;}
</style>
<g id="layer1" transform="translate(-450.31429,-3.7254158)">
	<g id="g2937" transform="translate(17.716536,17.722143)">
		<path id="path2862" class="st0" d="M487.2,300.6V151.8h22.3c45,0,65.5,23,65.5,73.5c0,53-19,75.3-64.9,75.3H487.2z M691.6,253.1
			l28.2-99.5l28.5,99.5H691.6z M445.2,337.3h66.4c70.4,0,105.9-37.6,105.9-112c0-72.8-35.5-110.5-104.4-110.5h-68V337.3z
			 M432.6,102.4h460.8l55.6,76.7l55.6-76.7h68L983,226l89.6,123.6h-68L949,272.9l-55.6,76.7H432.6V102.4z M913.8,226L833,337.3
			l55.6,0L969.4,226l-80.7-111.3H833L913.8,226z M627.6,337.3h39.8l14.1-48.7h76.8l13.8,48.7h41.9l-67-222.5h-52.3L627.6,337.3"/>
	</g>
</g>
</svg>
