<?xml version="1.0" encoding="utf-8"?>
<!-- Generator: Adobe Illustrator 22.1.0, SVG Export Plug-In . SVG Version: 6.00 Build 0)  -->
<svg version="1.1" id="Layer_1" xmlns="http://www.w3.org/2000/svg" xmlns:xlink="http://www.w3.org/1999/xlink" x="0px" y="0px"
	 viewBox="0 0 640 480" style="enable-background:new 0 0 640 480;" xml:space="preserve">
<style type="text/css">
	.st0{fill:#C80651;}
</style>
<g>
	<path class="st0" d="M0.3,173.6c11.9,0,23.4,0,35.3,0.3c12.2,0.3,24.3,2.4,35.6,7.6c13.4,6.1,23.1,16.1,29.2,29.2
		c5.2,11,6.7,22.5,5.8,34.4c-0.6,10.6-3.3,20.7-9.1,29.8c-7.3,12.2-17.6,21-31,25.9c-11,4.3-22.5,5.8-34.1,5.8
		c-10.6,0-21.3,0-31.9,0C0.3,262.4,0.3,218,0.3,173.6z M23.7,194.9c0,30.1,0,60.2,0,90c8.5,0.3,17,0,25.6-1.8
		c14-3,24.6-10.6,30.4-23.7c5.5-12.2,5.8-24.9,0.9-37.4c-4.3-11-11.9-18.9-23.1-23.1C46.5,195.2,35.3,195.2,23.7,194.9z"/>
	<path class="st0" d="M383,256.9c-1.2,0-1.8,0-2.7,0c-10.3,0-21,0-31.3,0c-2.1,0-2.7-0.6-2.4-2.7c0-6.1,0-12.5,0-18.6
		c20.1,0,39.8,0,59.9,0c0.3,1.2,0.6,2.4,0.6,3.7c0.6,11.6-0.6,22.8-5.2,33.5c-4.3,9.4-11,17-19.2,23.1c-7.6,5.8-16.1,9.4-25.6,11.6
		c-8.5,1.8-16.7,1.8-25.2,0.3c-11-2.1-21-6.4-29.8-13.1c-12.8-10-21.6-22.8-24.9-38.6c-5.5-25.6,1.5-47.8,20.1-65.7
		c9.4-9.1,20.7-14.6,33.2-17c20.4-4,39.2,0,56,12.8c5.2,4,9.7,9.1,14,14.6c-5.5,4.9-11.3,9.7-16.7,14.6c-1.8-2.1-3.7-4.3-5.2-6.1
		c-6.7-7.6-14.6-12.8-24.6-14.6c-15.8-3-29.8,0.6-41.7,11.9c-7,7-11.9,14.9-13.7,24.6c-3,17,1.2,31.9,14,43.8
		c5.8,5.5,12.2,9.4,19.8,11.6c14,3.7,26.5,0.9,38-7.9c6.1-4.9,10.6-10.6,12.5-18.6C383,258.8,383,258.2,383,256.9z"/>
	<path class="st0" d="M501.9,239.9c-0.3-37.1,31.9-69.4,70.6-68.7c37.1,0.6,67.8,31.9,67.5,69c-0.3,38.6-31,69.7-71.5,68.4
		C532.3,307.7,501.9,278.8,501.9,239.9z M617.8,240.2c0-27.1-21.6-47.1-46.8-47.5c-26.8,0-46.8,21.3-46.8,47.1
		c0,26.8,20.4,47.1,46.5,47.5C597.1,287.7,617.8,266.4,617.8,240.2z"/>
	<path class="st0" d="M279.8,306.8c-6.1,0-12.2-0.3-18.3,0c-4.6,0.3-7-0.9-8.5-5.5c-3-8.5-7-16.7-10.3-25.2
		c-17,6.1-34.1,6.1-50.8-0.3c-4.3,10-8.5,19.8-12.8,29.8c-0.3,0.6-1.2,1.2-1.5,1.2c-7.6,0-15.2,0-23.4,0c1.5-3.7,3-7.3,4.6-10.6
		c6.4-14.6,12.8-29.2,19.2-43.8c5.5-12.5,11-24.6,16.4-37.1c5.5-12.2,10.6-24.3,15.8-36.5c2.1-5.2,2.1-5.2,7.6-5.2
		c6.1,0,6.1,0,8.2,5.5c7,16.7,14.3,33.5,21.3,50.2c8.2,19.2,16.1,38.3,24.3,57.5c2.7,6.1,5.2,12.2,7.9,18.3
		C279.5,305.3,279.5,305.9,279.8,306.8z M234.5,256.6c-5.8-14.3-11.3-28.3-17-42.6c-6.1,14.3-11.9,28.3-17.6,42.6
		C211.4,260,223,260,234.5,256.6z"/>
	<path class="st0" d="M489.1,223.5c0,7.3,0,14.3,0,21.3c-15.5,0-30.7,0-46.2,0c0,13.4,0,26.8,0,40.2c16.7,0,33.5,0,50.5,0
		c0,7.3,0,14.3,0,21.3c-24.3,0-48.4,0-72.7,0c0-44.4,0-88.5,0-132.9c24.3,0,48.4,0,72.4,0c0,7,0,14,0,21.3c-16.7,0-33.5,0-50.2,0
		c0,9.7,0,19.2,0,28.6C458.4,223.5,473.6,223.5,489.1,223.5z"/>
	<path class="st0" d="M145.7,306.5c-7.3,0-14.6,0-22.2,0c0-0.9,0-1.8,0-2.4c0-42.6,0-85.2,0-127.8c0-2.4,0.6-2.7,2.7-2.7
		c6.4,0.3,12.8,0,19.5,0C145.7,218,145.7,262.1,145.7,306.5z"/>
</g>
</svg>
