<?xml version="1.0" encoding="utf-8"?>
<!-- Generator: Adobe Illustrator 22.1.0, SVG Export Plug-In . SVG Version: 6.00 Build 0)  -->
<svg version="1.1" id="Layer_2_1_" xmlns="http://www.w3.org/2000/svg" xmlns:xlink="http://www.w3.org/1999/xlink" x="0px" y="0px"
	 viewBox="0 0 640 480" style="enable-background:new 0 0 640 480;" xml:space="preserve">
<style type="text/css">
	.st0{fill:#E61E29;}
	.st1{fill:#0074AC;}
</style>
<path class="st0" d="M546.1,145.2L405.5,4.6c-6.1-6.1-16.3-6.1-22.4,0L234.2,152.7l163.1,163.1l148.8-148.1
	C552.2,161.5,552.2,151.3,546.1,145.2z M423.8,183.3c-15.6,15.6-40.8,15.6-56.4,0c-15.6-15.6-15.6-40.8,0-56.4
	c15.6-15.6,40.8-15.6,56.4,0C439.4,142.5,439.4,167.6,423.8,183.3z"/>
<path class="st1" d="M223.4,163.6L74.6,311.7c-6.1,6.8-6.1,17,0,23.1l140.6,140.6c6.1,6.1,16.3,6.1,22.4,0l148.8-148.1L223.4,163.6z
	 M194.8,353.8c-15.6,15.6-40.8,15.6-56.4,0s-15.6-40.8,0-56.4c15.6-15.6,40.8-15.6,56.4,0C210.5,313,210.5,338.2,194.8,353.8z
	 M255.3,353.1c-15.6-15.6-15.6-40.8,0-56.4c15.6-15.6,40.8-15.6,56.4,0c15.6,15.6,15.6,40.8,0,56.4
	C296.1,368.7,270.9,368.7,255.3,353.1z"/>
</svg>
