<svg id="Layer_1" data-name="Layer 1" xmlns="http://www.w3.org/2000/svg" viewBox="0 0 640 480"><title>Artboard 1</title><g id="Layer_2" data-name="Layer 2"><g id="Layer_1-2" data-name="Layer 1-2"><g id="layer1"><g id="g3428"><path id="path3344" d="M303.12,379.79c-202.89,0-281.43-176.58-270.81-310.32l59.6-18.85c-9.74,76,13.82,130.94,30.24,156.08C102.83,99.24,184,12,285.63,12c91.48,0,167.1,66.8,166.78,162.61C465.87,138.05,475,82.27,477,43.42L614.41,77.67C603.34,238.5,482.35,379.79,303.12,379.79Zm197.38,93.16L422.43,394h77.3l78.17,79Zm-104.38,0L317.9,394h77.51l78.12,79Zm-174.28,0H144.34l78.17-79H300Zm-181.88,0,78.42-79h77.35l-78.37,79Zm245.83-405a109.86,109.86,0,1,0,.15,0h-.15"/></g></g></g></g></svg>