<?xml version="1.0" encoding="utf-8"?>
<!-- Generator: Adobe Illustrator 22.1.0, SVG Export Plug-In . SVG Version: 6.00 Build 0)  -->
<svg version="1.1" id="Layer_2_1_" xmlns="http://www.w3.org/2000/svg" xmlns:xlink="http://www.w3.org/1999/xlink" x="0px" y="0px"
	 viewBox="0 0 640 480" style="enable-background:new 0 0 640 480;" xml:space="preserve">
<style type="text/css">
	.st0{fill:#1263FB;}
</style>
<g>
	<path class="st0" d="M35.9,89.5C83.8,59,130.3,29.5,177.2,0c46.5,30,93.4,60,140.8,90c-47.9,30.5-94.4,60-142.3,91
		c48.4,30.5,94.9,60.5,142.8,91c-47.9,30.5-94.4,60-141.3,90c-46.5-29.5-92.9-59-141.3-90c14-9.2,27.1-17.9,40.7-26.1
		c30-18.9,60.5-38.2,91-57.1c9.2-5.8,9.2-10.2,0-16C125,147.1,83.3,121,41.7,94.9C40.3,93.9,38.8,92,35.9,89.5z"/>
	<path class="st0" d="M603.6,90c-46,29.5-91,58.1-136,86.6c-2.4,1.5-7.3,1-9.7-0.5c-45-28.1-90-56.1-136.5-85.7
		C369.4,60,415.8,30,462.8,0C508.7,29.5,555.2,59,603.6,90z"/>
	<path class="st0" d="M462.8,362c-46.9-30-93.4-59.5-140.8-90c46.9-30,93.9-60,140.8-90c46.9,30,93.4,59.5,141.3,90
		C555.7,302.5,509.2,332,462.8,362z"/>
	<path class="st0" d="M177.7,393c32.9-21.3,65.3-41.6,97.8-61.9c12.6-8.2,25.2-16.5,38.2-24.2c2.9-1.5,8.2-1,11.1,0.5
		c45,28.1,89.5,56.1,136,85.2c-17.4,11.1-33.9,21.8-50.8,32.4c-28.1,17.9-56.6,36.3-85.2,53.7c-2.4,1.5-8.2,1.9-10.6,0.5
		C269.2,450.6,223.7,422,177.7,393z"/>
</g>
</svg>
