<?xml version="1.0" encoding="utf-8"?>
<!-- Generator: Adobe Illustrator 20.1.0, SVG Export Plug-In . SVG Version: 6.00 Build 0)  -->
<svg version="1.1" id="Layer_1" xmlns="http://www.w3.org/2000/svg" xmlns:xlink="http://www.w3.org/1999/xlink" x="0px" y="0px"
	 viewBox="0 0 640 480" style="enable-background:new 0 0 640 480;" xml:space="preserve">
<style type="text/css">
	.st0{fill:#E10069;}
	.st1{fill:#E2007A;}
	.st2{fill:#E60077;}
	.st3{fill:#E50079;}
	.st4{fill:#EB0070;}
</style>
<g id="svgg">
	<path id="path0" class="st0" d="M153,214.8c0,64.1,0.1,90.4,0.2,58.3c0.1-32.1,0.1-84.5,0-116.6C153.1,124.4,153,150.6,153,214.8"
		/>
	<path id="path1" class="st1" d="M3.2,90.3c-0.1,4-0.2,11.6-0.4,17.1s-0.4,15.1-0.6,21.4c-0.2,6.3-0.5,15-0.6,19.2
		c-0.2,4.2-0.5,16.4-0.7,27l-0.4,19.3l1.5,0.1c2.7,0.1,4.3,0.4,5.3,0.8c0.8,0.3,5,0.9,9,1.3c1.1,0.1,1.3-0.4,1.7-4.7
		c2.8-28,11.4-51.3,25.3-68.1c0.7-0.8,8.5-8,10.1-9.3c10.8-8.6,32.6-15.9,48-16l2.1,0l-0.2,125.7c-0.2,138,0.1,128.1-3.9,137.1
		c-1.6,3.7-2.1,4.4-4.9,7.3c-6.8,7.1-16.2,9.7-34.6,9.7l-8.1,0v9.2v9.3h77h77v-9.2v-9.2l-11.3-0.3c-12.4-0.3-18.2-1.3-24.8-4.3
		c-8.7-3.9-12-8.7-14.8-21.5l-1.7-7.6l-0.2-123.2l-0.2-123.2h2.6c8.1,0,27.7,4.4,34,7.7c1.3,0.7,2.4,1.1,2.4,0.9
		c0-0.2,2.1,1,4.6,2.7c16.5,10.6,25.4,21.6,33.8,42.2c0.4,1,0.8,2.1,0.9,2.4c0.1,0.4,0.9,3.1,1.8,6.1c2.8,9.3,4,15.4,6.4,32.3
		c0.2,1.1,0.3,2.4,0.3,3c0.1,1.2,1.2,1.1,13.8-1.1c3.7-0.6,3.6-0.4,3.2-7.8c-0.2-3.8-0.5-13.6-0.7-21.9c-0.2-8.3-0.5-17.3-0.6-20.1
		c-0.1-2.8-0.4-14-0.7-24.9c-0.3-10.9-0.5-20.7-0.6-21.7c-0.1-1.1-0.2-4.9-0.2-8.5l-0.1-6.5H128.5H3.3L3.2,90.3 M0.6,259.5v31.9
		h32.3h32.3v-31.9v-31.9H32.9H0.6V259.5 M192.9,259.5v31.9H225h32.1l-0.2-31.9l-0.2-31.9h-31.9h-31.9V259.5 M384.1,259.3l0.2,31.8
		l32.1,0.2l32.1,0.2v-32v-32h-32.3H384L384.1,259.3 M575.7,259.5v31.9h31.9h31.9v-31.9v-31.9h-31.9h-31.9V259.5"/>
	<path id="path2" class="st2" d="M17.1,227.4c8.9,0.1,23.3,0.1,31.9,0c8.7-0.1,1.4-0.2-16.2-0.2C15.3,227.2,8.2,227.3,17.1,227.4
		 M209.4,227.4c8.9,0.1,23.3,0.1,31.9,0c8.7-0.1,1.4-0.2-16.2-0.2C207.6,227.2,200.5,227.3,209.4,227.4 M400.5,227.4
		c8.9,0.1,23.3,0.1,31.9,0c8.7-0.1,1.4-0.2-16.2-0.2C398.7,227.2,391.6,227.3,400.5,227.4 M591.5,227.4c8.9,0.1,23.4,0.1,32.3,0
		c8.9-0.1,1.6-0.2-16.1-0.2S582.6,227.3,591.5,227.4"/>
	<path id="path3" class="st3" d="M257.1,259.2c0,17.6,0.1,24.7,0.2,15.8c0.1-8.9,0.1-23.3,0-31.9
		C257.2,234.3,257.1,241.6,257.1,259.2"/>
	<path id="path4" class="st4" d="M575.3,259.2c0,17.9,0.1,25.3,0.2,16.5c0.1-8.8,0.1-23.5,0-32.6C575.4,234,575.3,241.2,575.3,259.2
		"/>
</g>
</svg>
