<?xml version="1.0" encoding="utf-8"?>
<!-- Generator: Adobe Illustrator 19.2.1, SVG Export Plug-In . SVG Version: 6.00 Build 0)  -->
<svg version="1.1" id="Layer_1" xmlns="http://www.w3.org/2000/svg" xmlns:xlink="http://www.w3.org/1999/xlink" x="0px" y="0px"
	 viewBox="0 0 640 480" style="enable-background:new 0 0 640 480;" xml:space="preserve">
<style type="text/css">
	.st0{fill:#E54043;}
	.st1{fill-rule:evenodd;clip-rule:evenodd;fill:#FFFFFF;}
</style>
<rect x="85" y="5" class="st0" width="470" height="470"/>
<path class="st1" d="M340.6,68.3c-21.3,5.6-69.5,25.5-99.2,43.8v62.4v191.3c26.9,18.5,82.2,38.3,106.3,46.8c24,8.5,51-12.7,51-43.9
	V174.5v-65.2C398.7,71,364.7,59.7,340.6,68.3z M353.3,174.5v172.9c0,11.3-5.6,18.4-21.2,12.8c-12.8-5.7-31.2-14.2-45.4-19.9V174.5
	v-36.9c15.6-7.1,39.7-17,48.2-19.8c11.3-4.3,18.4,2.8,18.4,12.7V174.5z"/>
</svg>
