<?xml version="1.0" encoding="utf-8"?>
<!-- Generator: Adobe Illustrator 22.1.0, SVG Export Plug-In . SVG Version: 6.00 Build 0)  -->
<svg version="1.1" id="Layer_2_1_" xmlns="http://www.w3.org/2000/svg" xmlns:xlink="http://www.w3.org/1999/xlink" x="0px" y="0px"
	 viewBox="0 0 640 480" style="enable-background:new 0 0 640 480;" xml:space="preserve">
<g>
	<path d="M0,181.9c19.4,0.1,38.8,0,58.2,0.3c6.7,0.1,13.6,0.7,20.2,2.2c16.9,3.8,27.9,14.3,32.3,31.2c4.4,16.8,4.7,33.8-1,50.4
		c-6.8,20-22.2,31.2-43.3,31.5c-22.1,0.3-44.3,0.1-66.3,0.2C0,259,0,220.5,0,181.9z M21.5,279.4c10.8,0,21.1,0,31.5,0
		c2.8,0,5.7-0.2,8.5-0.4c13.3-1.2,22.4-8.3,26-21.1c3.4-12,3.4-24.2-0.2-36.2C84.2,210.9,77,204,65.8,201.5c-3.6-0.8-7.4-1.1-11-1.1
		c-10-0.2-20-0.1-30,0c-1.1,0-2.1,0.2-3.3,0.2C21.5,226.9,21.5,252.9,21.5,279.4z"/>
	<path d="M236.4,279.2c0,6.5,0,12.2,0,18.1c-33,0-65.9,0-99,0c0-38.3,0-76.5,0-115c32.4,0,64.8,0,97.5,0c0,5.8,0,11.7,0,18
		c-24.6,0-49.1,0-73.8,0c0,9.8,0,19.1,0,28.9c23.6,0,47.1,0,70.9,0c0,6.1,0,11.9,0,18.1c-23.5,0-47,0-70.8,0c0,10.8,0,21.1,0,31.9
		C186.1,279.2,211.1,279.2,236.4,279.2z"/>
	<path d="M391.9,182.3c7.6,0,15.2,0,23.2,0c0.1,1.4,0.2,2.7,0.2,3.9c0,21-0.1,42,0.1,63c0,5,0.5,10.2,1.5,15
		c1.9,8.7,7.7,14.2,16.2,16.6c8.1,2.2,16.4,2.4,24.6,0.7c13.7-3,20.3-11.2,20.5-26.8c0.3-20.6,0.2-41.3,0.2-61.9c0-3.4,0-6.9,0-10.6
		c8,0,15.7,0,23.6,0c0.1,1,0.2,1.9,0.2,2.7c0,23.3,0.2,46.7-0.3,70.1c-0.2,6.9-1.6,14.1-4,20.5c-4.7,12.8-15.3,19.4-28,22.5
		c-14.6,3.6-29.4,3.8-44.1,0.5c-21.9-4.9-33.2-17.8-34-40.6c-0.9-24.8-0.3-49.7-0.3-74.5C391.5,183.2,391.7,182.9,391.9,182.3z"/>
	<path d="M256.6,182.2c10.1,0,19.2-0.1,28.3,0.1c1.1,0,2.5,1.4,3.2,2.5c8,11.3,16,22.6,23.9,33.9c0.7,1,1.4,1.9,2.4,3.3
		c1.1-1.4,2-2.5,2.8-3.7c8.2-11.2,16.4-22.3,24.5-33.5c1.4-1.9,2.7-2.8,5.2-2.7c8.1,0.2,16.3,0.1,25.6,0.1
		c-14.9,19-29.3,37.4-43.8,56c15.2,19.6,30.4,39.1,46,59.2c-1.6,0.1-2.6,0.3-3.6,0.3c-7.3,0-14.6-0.2-21.9,0.1
		c-3.1,0.1-5.2-0.8-7-3.4c-8.4-12-17.2-23.9-25.8-35.8c-0.7-1-1.5-2-2.4-3.2c-7.2,9.9-14.3,19.6-21.4,29.2
		c-2.8,3.8-5.5,7.7-8.4,11.3c-0.7,0.9-2.1,1.7-3.3,1.7c-8.8,0.2-17.5,0.1-27.4,0.1c15.6-20.1,30.7-39.7,46.1-59.4
		C285.5,219.7,271.4,201.3,256.6,182.2z"/>
	<path d="M637.7,250.2L637.7,250.2c0-0.1-0.1-0.2-0.2-0.3c-0.7-1.4-1.3-2.1-1.3-2.1c-7.3-11.2-19.1-14.7-31.5-16.9
		c-11.3-2-22.7-3.4-34-5.3c-2.5-0.4-5-1.3-7.4-2.3c-4.4-1.9-7.5-4.8-7.7-9.9c-0.2-5.3,2-9.5,6.6-12c3-1.6,6.4-3.1,9.7-3.3
		c7-0.4,14.1-0.7,20.9,0.4c9.1,1.5,15.7,6.9,17.6,16.8c8.5,0,17,0,25.6,0c-1.6-15.8-10-26.1-24.3-31.4c-5.6-2.1-11.7-2.9-17.5-4.3
		c-1.1-0.3-2.1-0.5-3.2-0.7c-6.4,0-12.8,0-19.3,0c-1.2,0.3-2.4,0.4-3.6,0.8c-6.1,1.7-12.6,2.7-18.4,5.3
		c-13.2,5.8-19.5,17.2-18.8,31.9c0.6,12.4,7.7,20.8,21.6,25.7c0.9,0.3,1.9,0.7,2.8,0.9c10.5,2,21.1,3.8,31.6,5.9
		c6.6,1.4,13.4,2.6,19.6,5.3c9.7,4.2,10.4,16.3,1.8,22.5c-2,1.5-4.5,2.7-6.9,3.4c-8.9,2.7-18,2.7-27.1,0.9
		c-11.4-2.3-19.1-8.3-20.5-20.6c0-0.2-0.3-0.3-0.3-0.3c-8.6,0-16.9,0-25.2,0c0,17.2,8.9,29.9,25.4,35.5c18.2,6.2,36.9,6.3,55.5,1.9
		c10-2.4,18.7-6.9,24.7-15c4.5-5,5.9-10.6,5.9-20.8C640,256.3,638.7,252.4,637.7,250.2z"/>
</g>
</svg>
