<?xml version="1.0" encoding="utf-8"?>
<!-- Generator: Adobe Illustrator 21.1.0, SVG Export Plug-In . SVG Version: 6.00 Build 0)  -->
<svg version="1.1" id="Layer_1" xmlns="http://www.w3.org/2000/svg" xmlns:xlink="http://www.w3.org/1999/xlink" x="0px" y="0px"
	 viewBox="0 0 640 480" style="enable-background:new 0 0 640 480;" xml:space="preserve">
<g transform="translate(0.000000,571.000000) scale(0.100000,-0.100000)">
	<path d="M1836.5,4685.1c-10.8-2.5-62-16.2-114.1-31.5c-51.7-14.8-116.1-31.5-143.1-37.4l-49.7-10.8l-47.2,13.8
		c-42.8,11.8-49.7,12.8-72.8,7.4c-63-14.3-120-55.6-195.3-142.7c-58-67.4-82.2-104.3-102.8-157.9c-27.1-70.3-30-134.3-8.4-176.6
		c6.4-11.8,6.4-19.7,2.5-44.3l-5.4-30.5l19.2-28c10.8-15.2,38.9-56.6,63-92c31-46.2,57.6-78.2,94.9-114.1
		c28.5-28,53.1-50.7,55.1-50.7s11.3-11.8,21.2-26.6c14.8-22.1,21.6-28,41.3-34.4c34.9-11.3,92.5-14.8,126.9-7.9
		c16.2,3.4,42.3,7.9,58.5,9.8c37.4,4.9,63.5,23.1,89.5,62c27.1,40.3,46.2,101.3,73.3,233.2c12.3,61,28,123.5,33.9,138.7l11.3,28.5
		l-10.8,23.1c-5.9,13.3-21.6,33.9-35.4,46.2l-24.6,23.1l3.9,60.5c6.9,106.7,14.3,134.8,47.7,188.4c28.5,46.2,52.6,67.4,94.4,83.1
		c42.3,16.2,54.1,25.1,54.1,40.3C1917.7,4682.1,1880.8,4694.9,1836.5,4685.1z"/>
	<path d="M433.1,3945.7c-18.2-19.7-26.6-47.7-31-108.7c-2-33-4.4-62.5-4.4-65.4c0-4.4-7.9-6.4-23.6-6.4h-23.6l-5.9-28
		c-5.9-29.5-27.5-65.4-38.4-65.4c-3.9,0-10.8,4.4-15.2,9.8c-10.8,12.8-23.1,12.3-53.1-2c-31-14.3-47.2-35.4-71.8-92
		c-10.3-24.6-24.6-54.6-31.5-67.4c-11.8-21.2-12.3-24.1-6.9-49.7c27.1-134.3,198.2-281.4,408.3-350.2
		c129.4-42.3,221.9-46.7,366-17.7c48.7,9.8,97.9,21.2,109.2,25.1c36.4,12.8,91.5,53.1,142.2,103.3c52.1,52.6,74.3,87.1,79.2,125.9
		c2.5,19.2,0.5,30.5-21.2,107.2c-9.3,33-30.5,57.1-60,68.4c-30.5,11.8-85.1,10.8-179.1-3c-85.1-12.3-122-12.8-152-3.4
		c-89.5,29-116.6,44.8-169.7,99.9c-60,61.5-132.8,173.2-164.3,251.9c-18.7,46.7-34.9,79.2-39.4,79.2
		C445.4,3957,439,3952.1,433.1,3945.7z"/>
	<path d="M2412,3772.1c-202.7-20.7-346.8-64.4-465.4-142.7c-44.3-29.5-91.5-80.2-95.9-103.3c-5.4-29.5,0.5-81.2,12.3-104.3
		c21.6-42.3,8.4-39.8,190.9-36.9c179.1,3,259.2-3,349.8-25.6c116.1-29.5,194.3-90,208.1-160.9l5.9-29.5l20.2,3.4
		c28.5,5.4,34.4,4.9,83.6-4.9c43.3-9.3,43.8-9.3,103.3,2c72.8,13.3,89,21.6,89,45.3c0,16.2,1,16.7,22.1,20.2
		c52.1,7.4,89.5,21.6,97.4,37.4c2.5,4.4,7.4,20.7,10.8,35.4c3.4,14.8,10.3,34.9,15.7,44.3c11.3,19.7,9.8,46.2-6.4,104.8
		c-45.3,162.8-181,267.6-395.5,306.5C2615.2,3770.6,2456.3,3776.5,2412,3772.1z"/>
	<path d="M3757.4,3756.8c-41.3-3.4-103.3-16.7-144.1-31c-168.7-59.5-271.5-193.3-308.9-401.4c-13.8-76.7-15.2-231.2-3-302
		c39.4-229.7,156.4-369.9,348.8-418.6c31-7.9,62.5-10.8,129.9-12.8c198.2-5.9,355.2,32.5,489.9,119.5l33,21.2l-57.1,99.9
		c-31,55.1-57.6,100.8-58.5,101.8c-1,1-13.8-6.4-29-16.2c-73.8-49.2-162.8-76.2-263.2-80.2c-75.8-3-110.2,3.4-158.9,29
		c-34.4,18.7-79.7,65.9-95.4,100.4c-12.3,27.5-26.1,83.1-26.1,108.2v15.2l60.5,3c33,2,189.4,4.9,347.3,6.4l287.3,3.4l-3.4,89
		c-5.9,159.4-23.1,246.9-66.4,335c-68.4,138.2-182,210-361.6,228.2C3826.3,3760.3,3803.7,3760.3,3757.4,3756.8z M3897.1,3505
		c36.4-17.7,57.1-40.8,73.3-82.6c9.8-25.6,22.1-122,16.2-127.9c-4.9-4.9-365-5.4-369.9-0.5c-6.4,6.4,10.8,94.9,24.1,124
		c24.1,51.7,53.1,79.7,103.3,97.4c19.7,6.9,36.4,8.9,72.8,7.4C3858.8,3521.7,3867.6,3519.7,3897.1,3505z"/>
	<path d="M4473.2,3729.8c-1.5-3.4-2-257.8-1.5-564.7l1.5-558.3h250.9c216,0.5,257.3,1.5,297.6,8.9
		c144.6,26.6,236.6,71.3,315.8,155.4c63,66.9,97.9,133.8,119.5,230.2c41.8,185.9,15.2,388.6-68.4,518
		c-68.4,105.8-165.8,170.2-305.5,202.7c-41.3,9.8-61.5,10.3-326.1,12.3C4526.3,3736.2,4475.1,3735.2,4473.2,3729.8z M4960.2,3517.2
		c134.3-36.4,203.7-136.3,212.5-305.5c6.9-137.2-23.1-251.9-82.1-314.3c-51.7-55.1-103.3-71.8-229.7-75.3l-90-2.5v355.2v355.7
		l80.2-3C4901.1,3526.1,4941.5,3522.2,4960.2,3517.2z"/>
	<path d="M5624.3,3170v-565.7l149.1,1l149.5,1.5l-1,240.1l-0.5,239.6h185h184.5v103.3v103.3h-184.5h-184.5v113.6v113.1l208.1-1
		l207.6-0.5l1.5,108.7l1,108.7h-357.6h-358.1V3170z"/>
	<path d="M1864,2948.6c-37.4-23.1-51.7-35.9-65.4-58c-8.4-13.3-8.9-18.7-4.9-28c10.8-23.1,42.3-52.1,99.9-91
		c52.1-35.4,62.5-44.8,91-83.6c17.2-24.1,37.4-47.7,43.8-52.6c7.4-5.4,20.7-28,32.5-55.6c10.8-25.6,23.6-50.7,28-55.6
		c5.9-6.4,8.9-26.6,12.3-78.2c4.9-74.3,1-110.7-14.3-127.9c-5.9-5.9-7.4-13.3-4.9-25.6c3.9-20.7,23.6-34.4,65.4-45.3
		c15.7-3.9,44.3-16.2,63-27.5c45.3-26.6,155-109.2,190.9-143.6l28.5-27.5h37.9c56.1,0.5,76.2,6.9,138.7,44.3
		c41.3,25.1,65.4,36.4,88.5,41.3c51.2,10.8,47.2,6.9,76.2,73.8c11.8,27.5,12.3,31,7.4,68.9c-7.9,62-22.1,108.2-54.1,172.7
		c-74.3,149.1-213.5,284.3-400.9,390.1c-121,67.9-277.9,119.5-386.2,126.4l-41.8,3L1864,2948.6z"/>
	<path d="M1312.6,2885.1c-9.3-2.5-36.9-14.3-61.5-27.1l-44.3-22.6l-39.4-60c-49.7-75.8-115.6-143.6-172.2-177.1
		c-21.6-12.8-62.5-32-91-42.8c-161.3-60.5-326.6-53.6-421.6,17.7c-17.2,12.8-20.7,8.9-11.8-14.8c2.5-6.4,16.2-59,30-117.1
		c19.7-79.7,26.1-116.1,27.1-149.5c1-24.1,3-48.2,4.9-53.1c2-4.9,12.3-13.3,22.1-18.2c20.7-10.3,32.5-25.1,46.2-57.6
		c14.3-32.5,21.2-36.4,59.5-34.9l33.5,1.5l5.9-17.2l5.9-17.2l48.7,1.5c45.3,2,50.7,1,81.2-12.8l33-14.8h94.9
		c111.7,0,132.8,4.9,191.4,41.3c20.2,12.8,51.7,28,69.9,34.4c18.2,6.4,39.4,14.8,46.7,18.7c34.9,17.7,134.8,137.2,160.4,190.4
		c24.6,52.6,37.9,129.9,37.9,223.3c0,141.2-33,271-75.3,297.1C1376.6,2885.6,1337.2,2890.5,1312.6,2885.1z"/>
</g>
</svg>
