<?xml version="1.0" encoding="utf-8"?>
<!-- Generator: Adobe Illustrator 22.1.0, SVG Export Plug-In . SVG Version: 6.00 Build 0)  -->
<svg version="1.1" id="Layer_1" xmlns="http://www.w3.org/2000/svg" xmlns:xlink="http://www.w3.org/1999/xlink" x="0px" y="0px"
	 viewBox="0 0 640 480" style="enable-background:new 0 0 640 480;" xml:space="preserve">
<style type="text/css">
	.st0{fill:#E4C04E;}
</style>
<g>
	<g>
		<path d="M54.2,272.4c18.1-4.6,36.1-9.3,53.8-13.9c0.5,1.4,0.9,1.9,0.9,2.3c0.9,14.4,0.9,14.4-13,18.1
			c-19.5,5.6-39.4,10.7-59.3,16.2c-0.5-2.8-0.5-4.6-0.5-6.5c0-34.8,0-69.5,0-103.8c0-5.6,1.4-7.9,7-9.3C64.9,170,86.7,164,108,158.4
			c0.9,0.9,1.4,1.4,1.4,1.9c0.9,14.8,0.9,14.8-13,18.5c-13.4,3.7-27.3,7.4-40.8,11.6c0,10.7,0,20.9,0,32.4
			c15.3-4.2,30.1-7.9,46.3-12c0,5.1,0.5,9.7-0.5,13.9c-0.5,1.9-3.2,3.7-5.1,4.6c-12,3.7-23.6,7-35.7,9.7c-4.2,0.9-5.6,2.3-5.6,7
			C54.7,253.4,54.2,262.2,54.2,272.4z"/>
		<path d="M192.3,260.9c1.4,6,0.5,13.4,8.3,15.3c12.5,2.8,22.2-2.8,30.6-13.4c3.7,2.8,7.4,5.1,11.1,7.4
			c-10.2,15.3-25,22.2-41.7,23.6c-12,1.4-22.7-8.3-24.6-22.7c-2.8-18.1-0.9-36.1,11.6-51.4c7.4-8.8,17.1-13.9,28.3-15.3
			c14.4-1.4,25.5,7.4,27.8,22.2c2.8,17.1,1.9,18.5-14.8,23.2c-11.6,3.2-23.2,6-34.8,9.3C193.3,259.5,193.3,260.4,192.3,260.9z
			 M192.8,247c12-3.2,23.2-6.5,34.3-9.7c-2.8-13.9-5.1-16.2-14.4-15.8C201.6,221.9,194.2,230.7,192.8,247z"/>
		<path d="M323.5,211.3c-3.7,4.6-7.4,9.3-11.1,13.9c-18.5-7.4-33.4,2.3-34.8,22.2c-0.5,5.1-0.5,10.2,0,15.3
			c1.4,12.5,9.7,17.1,21.3,12c1.9-0.9,3.7-1.9,5.6-3.2c9.3-7.9,9.3-7.9,18.5,1.9c-8.3,12.5-20.4,19.5-35.7,20.9
			c-11.6,0.9-23.2-6-26.9-23.6c-6-28.3,9.3-56.5,35.7-64C305.9,203.4,315.6,203.4,323.5,211.3z"/>
		<path d="M605.2,244.2c0.5,1.9,0.5,2.3,0.5,3.2c0.5,12-3.2,16.2-16.2,16.2c-8.3,0-16.2-7.4-16.2-16.7c0-15.3,0-30.6,0-46.8
			c-3.2,0.5-5.6,0.9-9.3,1.4c0-4.2,0-8.3,0-13.4c2.3-0.9,5.1-1.9,8.8-3.2c0-7.9,0-15.8,0-24.6c5.6-1.4,11.1-3.2,17.6-5.1
			c0,8.8,0,16.2,0,24.6c5.6-0.9,9.7-1.9,14.4-2.8c1.9,13,1.9,13-13.9,18.1c0,14.8,0,30.1,0,45c0,4.6,2.3,6,7,5.6
			C600.1,245.6,602.5,244.6,605.2,244.2z"/>
		<path d="M128.4,181.1c5.6-1.4,11.1-3.2,18.1-5.1c0,3.7,0,6,0,8.8c0,26,0,51.9,0,77.9c0,14.8,0,14.8,15.8,12.5
			c-0.5,5.1,0.5,13.4-1.4,13.9c-7,2.8-14.8,4.2-22.2,3.2c-7-0.9-10.2-7.9-10.2-14.8c0-19.9,0-39.9,0-59.8
			C128.4,206.2,128.4,194.1,128.4,181.1z"/>
		<path d="M497.3,263.6c0-17.6,0-34.8,0-51.4c0-9.3,0-19,0-28.3c0-7.9,7.4-5.6,11.6-7.4c1.9-0.9,5.1,0.9,9.3,1.9
			c14.8-12.5,26.4-14.8,37.5-6.5c-3.7,4.6-7,9.3-10.7,13.9c-0.9,0.9-2.8,1.4-4.2,1.4c-15.8-2.3-25,5.6-25,21.3
			c0,13.9-0.5,27.8,0,41.2c0.5,7.9-2.3,11.1-9.7,12.5C503.3,262.2,501,262.7,497.3,263.6z"/>
	</g>
	<path class="st0" d="M633,275.2c-48.2,0-96.4,0-144.6,0c-4.2,0-7.9,0.5-9.3-5.1c-9.7-38.5-19.5-76.9-29.2-114.9
		c-4.6-17.6-9.3-35.7-13.9-53.8c-1.4,0.9-1.9,1.4-1.9,1.4c-13.4,43.1-27.3,86.2-40.3,129.8c-0.9,2.3-1.9,4.6-2.8,6l-55.1,7.9
		l10.7,26.4l39.4-16.7c-8.3,26.4-16.2,51.4-24.6,78.3c-2.3-7.9-4.6-13.9-6-19.9c-1.4-6.5-4.2-8.8-11.6-8.8
		c-109.4,0.5-218.7,0-328.1,0c-11.1,0-13,1.4-15.8,13c59.3,0,118.6,0,178,0c52.4,0,105.2,0,157.6,0c5.6,0,8.3,1.4,9.7,7
		c1.9,8.8,5.1,17.1,7.9,25.5c2.8,8.3,5.6,16.7,8.8,27.3c12.5-40.3,24.6-78.3,36.1-116.3c1.9-6.5,4.6-11.6,9.3-14.8l14.4-6
		c1.4-0.5,2.8-0.9,4.2-1.9l21.8-9.3l-6.5,0.9c0,0,0,0,0-0.5c-1.4,0.5-2.8,0.5-4.2,0.9l-30.1,4.2c9.3-29.7,18.1-58.4,27.8-89
		c12,45.9,23.6,89.9,34.3,133.9c1.4,6,3.7,7.4,9.7,7.4c49.1-0.5,97.8,0,146.9,0c9.7,0,12.5-2.3,14.4-13
		C637.7,275.2,635.4,275.2,633,275.2z"/>
</g>
</svg>
