<?xml version="1.0" encoding="utf-8"?>
<!-- Generator: Adobe Illustrator 19.1.1, SVG Export Plug-In . SVG Version: 6.00 Build 0)  -->
<svg version="1.1" id="Layer_2" xmlns="http://www.w3.org/2000/svg" xmlns:xlink="http://www.w3.org/1999/xlink" x="0px" y="0px"
	 viewBox="80 0 640 480" style="enable-background:new 80 0 640 480;" xml:space="preserve">
<style type="text/css">
	.st0{fill:#FFCB25;}
	.st1{fill:#C3161C;}
</style>
<g>
	<polygon points="613.2,396.2 613,401.1 612.4,405.9 611.2,410.9 609.8,415.7 607.9,420.2 605.7,424.7 602.9,428.8 599.9,432.8 
		596.5,436.6 592.9,439.8 588.9,442.9 584.8,445.6 580.4,447.9 575.6,449.7 571,451.3 566,452.3 561,452.9 556.2,453.3 243.8,453.3 
		238.8,452.9 233.9,452.3 229.1,451.3 224.3,449.7 219.8,447.9 215.4,445.6 211.2,442.9 207.2,439.8 203.4,436.6 200.1,432.8 
		197.1,428.8 194.6,424.7 192.1,420.2 190.3,415.7 188.8,410.9 187.8,405.9 187,401.1 186.8,396.2 186.8,83.6 187,78.6 187.8,73.9 
		188.8,68.9 190.3,64.1 192.1,59.5 194.6,55.2 197.1,51 200.1,47 203.4,43.4 207.2,40.1 211.2,36.9 215.4,34.3 219.8,31.9 
		224.3,30.1 229.1,28.6 233.9,27.6 238.8,26.9 243.8,26.7 556.2,26.7 561,26.9 566,27.6 571,28.6 575.6,30.1 580.4,31.9 584.8,34.3 
		588.9,36.9 592.9,40.1 596.5,43.4 599.9,47 602.9,51 605.7,55.2 607.9,59.5 609.8,64.1 611.2,68.9 612.4,73.9 613,78.6 613.2,83.6 
			"/>
	<polygon class="st0" points="607.2,396.2 607,400.6 606.4,404.9 605.4,409.4 604,413.5 602.4,417.7 600.5,421.7 598.1,425.5 
		595.3,429 592.3,432.2 588.9,435.2 585.6,438 581.8,440.3 577.8,442.3 573.6,444.1 569.5,445.6 565,446.3 560.7,446.9 556.2,447.1 
		243.8,447.1 239.5,446.9 235.1,446.3 230.7,445.6 226.3,444.1 222.4,442.3 218.4,440.3 214.6,438 211,435.2 207.9,432.2 204.7,429 
		202.1,425.5 199.7,421.7 197.6,417.7 195.9,413.5 194.6,409.4 193.6,404.9 192.9,400.6 192.8,396.2 192.8,83.6 192.9,79.3 
		193.6,74.9 194.6,70.5 195.9,66.3 197.6,62.1 199.7,58.2 202.1,54.4 204.7,51 207.9,47.7 211,44.7 214.6,41.9 218.4,39.4 
		222.4,37.4 226.3,35.7 230.7,34.4 235.1,33.4 239.5,32.9 243.8,32.7 556.2,32.7 560.7,32.9 565,33.4 569.5,34.4 573.6,35.7 
		577.8,37.4 581.8,39.4 585.4,41.9 588.9,44.7 592.3,47.7 595.3,50.8 598.1,54.4 600.5,58.2 602.4,62.1 604,66.3 605.4,70.5 
		606.4,74.9 607,79.3 607.2,83.6 	"/>
	<g>
		<path d="M578.4,324.3l-3.6-4.1l-1.8-2.8l-0.6-3.2l0.3-3.3l1.2-3l4-6.2l-4.8-4.8l0.2-3l0.9-4.6l-4.1-3.6l1.6-4l1.7-3l-8-1.8v-6.8
			l-8.8-4.2l-4.8-2.8l-4.2-3.8l-3.1-4.6l-2-5.2l-3-7.3l-3-8.5l-3.8-8l-4.8-7.8l-5.6-6.9l-6.2-6.4l-1.8-1.1l-0.4-1.8l2-4.4l2.4-5.8
			l2.2-5.3l1.1-4.2l0.4-3.8l-0.2-3.8l-0.6-3.2l-1.2-3.1l-1.6-3.2l-2-3.2l-3-2.8l-3.4-2.6l-3.9-2l-4.2-1.6l-4.8-0.9h-4.8l-4.6,0.9
			l-4.8,1.8l-1.9,0.9l-2.7,1.3l-4.4,3.3l-4.2,4.3l-3.3,4l-3.2,4.4l-3,4.9l-3.6,6l-4,7l-3.1,5.6l-2.8,4.2l-1.9,2l-2.9,1.6l-2.7,0.4
			l-2.8-0.4l-2.6-1.8l-1.8-2.8l-0.7-3.2l0.7-3.2l1.1,1.9l1.4,1.8l1.8,1.3l2.4,0.4h2.3l1.8-1l1.2-1.6l0.6-2v-2.4l-1-2.6l-1.6-2.4
			l-2.2-1.8l-2.6-1.3l-2.8-0.7l-3-0.2l-2.6,0.9l-2.4,1.1l-2.1,2l-1.8,2.7l-1.4,3.1l-0.8,3.2l-0.2,3.2l0.4,3.6l1.3,4.2l1.6,4.1
			l-3.9-0.2l-7.4-4.8l-2.3,9.5l-0.7,0.7l-1.8,0.2l-1-0.9l-2.8-4.6l-2-1.6l-2.6,0.6l-1.6,2l-1.4,5.2l-2.2,5l-6.1-7.7l-3.6-3.8
			l-6.5,9.2l-5.7-5.6l-4.8-5.2l-3.8,6.2l-1.1,1.1l-1.4-0.1l-1.2-1.2l-3-5.6l-2.3-0.7l-2.3,0.4l-1.6,1.2l-1.6,2.3l-1.8,2.6l-3.2,2.8
			l-4.6,2.4l0.8-6l0.3-5l0.2-3.1l-1-2.4l-2.3-1.2l-2.4,0.4l-15.7,10.5l1-3.8l0.8-3.8l0.8-3.8l0.4-3.8l-5.4-4.6l-7.1,3l-7.5,0.9
			l-7.2-0.6v0.2l-0.2,0.8l-2.6,4.8l-3.4,1.8l-5.1-0.8l-0.9-0.2l-8.3-1.6l-4.1,2.6l-5,8.2l-1.8,2.1l-2.8,1l-2.8-0.1l-2.7-1.4
			l-2.3-2.6l-2.2,9.8l-1,9.5l-0.2,9.9l0.9,9.8l1.8,9.5l2.6,9.3l2.2,8.5l5,19.9l3.9,18l2.2,9.5l1.6,8.9l0.4,7l-0.4,5l-1.6,4.8
			l-2.6,5.3l-4.4,7.8l-7.8,11.8l25.9-1.2l1.7-6.1l1.9-6.1l0.9-2.9l3.8-6.8l4.6-5.3l2.4-2.7l1.8-2.3l0.3-2.4l0.2-2.6l0.2-2.3l0.6-2.7
			l2-3l1.8-2l1.2-1.9v-2.4l0.2-3.3l1-4.2l0.6-3l-0.2-2.8l-1.6-2.4l-1.6-2.3v-1.8l2-3.8l5.1-7.5l-5.6-2.4l-3.3-1.6l-2.4-1.6l-1-2.4
			L296,282l-0.2-3l18.4,7.1l1.9,8l2.6,10.1l1.3,5.8l1,4.7v3.9l-0.8,3.7l-1.3,3.3l-2.2,2.8l-3.8,3l-6.2,3.6l1.8,2.7l2,2l12.4,8.1
			l2.3-3.6l4.2-5.8l4.3-3.6l5.8-3l6-2.8l-1.4-2l-1.8-1.4l-1.8-1.2l-1.2-1.6l0.2-2.6l1.2-2.4l3-2.6l-3-4.6l3-4l4.3-3.8l-1.6-3.6
			l-1.7-3.4l-0.8-3.3l0.4-3.7l1.2-3.3l6.8-0.8l7,0.8l11.3-0.6l7.6,0.6v2.2l-0.6,4l-1.4,4.8l-1.3,5.1l-1.6,5.8l-1.9,5.3l-2.1,4
			l-2.8,3.8l-3.8,3.8l-5.8,5l-8.3,7l17.4,11.3l3.3-3.8l2.9-4.2l1.9-4.6l1.4-4.8L389,328l-5-8l4-0.6l2.8-0.4l2.2-0.8l1.6-1.8l1.4-2.4
			l1.8-2.3l3-1.8l2.2-1.2l2-1.6l1.6-3.2l1.4-3.2l0.8-2.6l0.6-2l-0.6-1.2l-0.8-0.8l-1-1.6l0.1-1.7l1.8-1l3.4-0.3l3.8-0.4l7.5,11.5
			l4.4,6.8l1.9,3.6l1,3.4l0.4,2.8l-0.6,2.8l-2.2,3.6l-5.2,6.2l-8.1,8.5l7,0.6l7.1,0.4h7l7.1-0.4l0.4-5.1l0.3-5l1-4.8l2.4-4.4
			l3.3-4.1l3.8-3.8l-1-2.8l0.2-3.8l1.4-3.2l1.8-3l-5.8-0.6l3.2-3.7l-8.4-4.8l0.4-3.3l1.4-3.4l2.1-2.6l3-2l3.4-0.8l2.9,3.6l1.7,3.7
			l2,3.6l2.6,3.6l3.2,3.4l3.6,3.6l3.6,3.6l3.2,3.4l2,3.6l0.1,0.3l0.9,3v3.4l-0.9,2.2l-0.6,1.3l-4.3,7.2l-7.2,10.7h2.4l3.1-0.2
			l4.4-0.3l2.1-0.3l2.2-0.2l4-1.4l3-1.6l2.2-2l1.1-2.8l0.4-3.8l0.6-4l1.4-3l1.8-2.2l1.4-2l0.8-2.6l1-3l1.3-3.6l-2.6-2v-1.6l3.4-5.8
			l1.1-3l-16.4-3.8l-1.7-9.5l2.6,0.1l3.2,0.7l4.2,1l5,1.3l6.1,1.7l6.3,1.3l6.7,1.2l6.3,1l5.3,1.3l4.2,1.4l3.2,2l2.8,2.3l2.6,3.4
			l3,4.2l2.8,4.3l12.8,19.1l2.1,3l0.9,3.6l-0.4,3.8l-1.6,3.2l-8,10.9l4.8,5l15.9-1.8l1-3.8l0.8-3.8l0.4-3.8l0.2-4l3.8-5.2v-4.8
			L578.4,324.3z M511,178.8l-0.8,3.6l-1.7,4l-2.6,3l-2.8,1.6l-3.4,0.6h-3.6l-8.3-2l-5-1.8l-1.2,2.4l-0.2,0.4l-3.6,5.3l-7.5,6.8
			l-7.9,4L456,209l-4.3,1.2l2.6-3.8l2.4-4l3.1-5.3l4.8-7.8l5.8-9l4.8-6.8l4-4.3l2.3-2.1l1.4-1.3l4-2.6l3.6-1.6l3.8-0.4l4,0.2
			l3.6,1.3l3.4,2.2l3,3.2l2,3.3l1,3.6L511,178.8z"/>
		<path d="M256.4,202.2l0.8,7.6l1,1.4l1.6,0.6l1.9-0.2l1.1-1.3l3-5.2l1.8-3l2.7-2.1l3.1-1.2h3.4l4,1l2.7,0.6l1.1,0.2l3-0.4l2.1-1.8
			l0.7-2.8l-0.9-2.8l-1.3-3.2l-2-2.6l0.4-0.8l3.9,3l5.4,3.1l4.6,1.2l4.6,0.2l4.6-0.8l4.2-2l-3.3-1.2l-3.4-1.8l-2.8-2.2l-2.8-2.6
			l-10-16.5l0.7-0.6l3.3,2.3l4.8,2.7l5.2,2l4.3,1.3l4.2,0.8h4.3l2.4-0.8l1.8-1.8l0.8-8.8l-4.6,0.8l-4.6-0.3l-4.2-1l-4-1.8l-3.3-2.7
			l-2.8-3.3l-2.2-3.6l-1.4-3.7l0.4-3.1l1.8-2.8l3.2-1.7l3.6-0.8l3.6,0.4l3.4,1.6l2.6-6.3l4.8,2.8l3-4.4l2.3-5.6l1.2-6.9l-0.6-5.7
			l-2-5.6l-1.4-2.3l-2.1-1.7l-2.8-0.3l-2.9,0.8l-11.9,4.2l-17.9,5.9l-1.1,0.4l-8.1,2.8l-3,0.4l-2.6-1l-16.9-11.5l-5.4-3.8l2.8,24.5
			l-2.9,1.3l-3,1.8l-2.8,2.1l-2.7,2.4l-3.8,5l-3.3,4.1l-3,2.8l-3,2.4l0.6,3.6l1.8,3.4l2.9,2.6l3.3,1.6v5.4l-0.4,5.6l-0.6,5.3
			l-1.2,5.4l-1.6,5.3l4.2,1h3l2.9-0.2v5.4l-0.1,5.3l-0.4,5.3l-0.8,5.2l-1,5.3l4.2-3.1l3.9-3.7l3.4-4.1l3-4.4L256.4,202.2z
			 M279.3,131.1l1.2-1.6l2-0.8h0.9h1.1l1.8,0.8l1.2,1.6l0.3,2l-0.3,2l-1.2,1.7l-1.8,0.8h-1.1h-0.9l-2-0.8l-1.2-1.7l-0.4-2
			L279.3,131.1z"/>
	</g>
	<polygon class="st1" points="336.6,135.4 337.2,136.8 340.3,141.7 334,143.1 328.2,144.5 323,146.4 319.7,147.9 317.9,149.7 
		317.5,151.7 318.1,153.2 320.2,154.9 325.8,157.5 338,160.8 350.9,164.6 357.8,166 363.1,166.8 369.1,166.8 375.9,166 382.2,164.8 
		388,163.2 393.2,161.2 397.2,159 402.3,159.8 408,160.7 414.8,160.8 421.8,160.2 428.8,158.8 435.9,156.2 442.4,153.2 448.7,149.9 
		465.6,138.9 467,136.9 467.2,135.9 466.3,135.1 465.3,134.1 462.4,132.8 457.7,131.9 453.5,132.1 448.7,133.1 434.4,136.9 
		430.1,137.6 426.1,137.6 422.3,137.4 418.8,136.6 416.3,135.1 413.5,133.8 410,132.8 403.7,131.6 395.2,130.4 384,129.1 
		375.1,128.8 367.7,129.1 360.8,130 347.5,132.6 	"/>
</g>
</svg>
