<?xml version="1.0" encoding="utf-8"?>
<!-- Generator: Adobe Illustrator 21.1.0, SVG Export Plug-In . SVG Version: 6.00 Build 0)  -->
<svg version="1.1" id="Layer_1" xmlns="http://www.w3.org/2000/svg" xmlns:xlink="http://www.w3.org/1999/xlink" x="0px" y="0px"
	 viewBox="0 0 640 480" style="enable-background:new 0 0 640 480;" xml:space="preserve">
<g transform="translate(0.000000,109.000000) scale(0.100000,-0.100000)">
	<path d="M1417.4-438.1C1122.6-514.1,759-673.3,545.6-818c-177.3-117.6-361.7-314.7-434.1-461.2C57.2-1387.7,50-1420.3,50-1539.6
		c0-103.1,10.9-153.7,39.8-209.8c94.1-177.3,311.1-323.8,611.3-416c146.5-45.2,191.7-48.8,452.2-50.6
		c273.1-1.8,298.4,1.8,448.6,50.6c171.8,56.1,354.5,162.8,401.5,233.3c70.5,108.5-32.6,146.5-378,142.9
		c-222.5-3.6-256.8-7.2-289.4-38c-112.1-104.9-318.3-139.3-457.6-76c-88.6,41.6-222.5,200.8-222.5,267.7v45.2l403.3-12.7
		c696.4-21.7,864.6,32.6,946,312.9c43.4,148.3,27.1,439.5-34.4,607.7C1873.2-416.4,1733.9-354.9,1417.4-438.1z M1506-917.4
		c27.1-68.7,21.7-247.8-7.2-289.4c-23.5-30.7-54.3-34.4-358.1-39.8l-331-5.4l45.2,45.2c25.3,23.5,110.3,90.4,189.9,146.5
		C1307.1-872.2,1469.8-821.6,1506-917.4z"/>
	<path d="M3495.6-770.9c-236.9-54.3-412.4-157.4-524.5-305.7c-72.3-97.7-255-520.9-300.2-700c-68.7-267.7,77.8-403.3,461.2-426.9
		c564.3-32.6,821.2,106.7,1040,560.7c121.2,249.6,157.4,352.7,168.2,493.8c18.1,199-52.5,303.9-242.4,361.7
		C3969.5-747.4,3638.5-738.4,3495.6-770.9z M3723.5-1152.6c12.7-47-41.6-338.2-94.1-517.3c-14.5-47-50.6-110.3-81.4-139.3
		c-45.2-47-68.7-56.1-141.1-56.1c-146.5,0-153.7,34.4-83.2,343.7c72.3,321.9,139.3,416,300.2,416
		C3703.6-1105.5,3712.6-1109.2,3723.5-1152.6z"/>
	<path d="M5933.7-805.3c-47-14.5-209.8-85-361.7-155.5c-394.3-188.1-463-188.1-481.1-1.8c-7.2,81.4-12.7,88.6-61.5,99.5
		c-76,14.5-255,12.7-278.5-3.6c-61.5-38-407-989.4-435.9-1191.9c-10.9-76-9-77.8,54.3-104.9c77.8-32.6,166.4-34.4,244.2-7.2
		c36.2,12.7,135.7,106.7,274.9,260.5c383.4,423.2,680.1,642.1,873.6,642.1c139.3,0,135.7-113.9-23.5-535.4
		c-112.1-298.4-112.1-325.6-21.7-363.6c94.1-39.8,209.8-50.6,274.9-23.5c50.6,21.7,61.5,45.2,179.1,405.2
		c146.5,446.8,189.9,633,177.3,747C6326.2-841.5,6150.8-743.8,5933.7-805.3z"/>
	<path d="M2285.6-1271.9c-74.2-48.8-146.5-177.3-146.5-258.6c0-85,56.1-126.6,170-126.6c126.6,0,191.7,38,240.6,135.7
		c95.9,197.1,70.5,273.1-95.9,285.8C2363.3-1230.3,2338-1235.8,2285.6-1271.9z"/>
</g>
</svg>
