<?xml version="1.0" encoding="utf-8"?>
<!-- Generator: Adobe Illustrator 22.1.0, SVG Export Plug-In . SVG Version: 6.00 Build 0)  -->
<svg version="1.1" id="Layer_1" xmlns="http://www.w3.org/2000/svg" xmlns:xlink="http://www.w3.org/1999/xlink" x="0px" y="0px"
	 viewBox="0 0 640 480" style="enable-background:new 0 0 640 480;" xml:space="preserve">
<style type="text/css">
	.st0{fill:#00285E;}
</style>
<g>
	<title>Ericsson logo</title>
	<path class="st0" d="M204.3,190.3c-25,9.2-52.8-3.6-62-28.6c-9.2-25,3.6-52.8,28.6-62c0,0,0.1,0,0.1-0.1L435.7,3
		c24.6-9.4,52.2,3,61.6,27.6c0.1,0.4,0.3,0.8,0.4,1.2c9,24-3.1,50.8-27.1,59.9c-0.5,0.2-1.1,0.4-1.6,0.6L204.3,190.3z"/>
	<path class="st0" d="M204.2,333.7c-25,9.2-52.8-3.7-62-28.7c-9.2-25,3.7-52.8,28.7-62c0,0,0,0,0.1,0l264.6-96.5
		c24.5-9.5,52,2.7,61.5,27.2c0.2,0.5,0.4,1,0.5,1.4c9.1,24-3,50.7-27,59.8c-0.6,0.2-1.2,0.4-1.7,0.6L204.2,333.7z"/>
	<path class="st0" d="M204.3,477.2c-25,9.2-52.8-3.6-62-28.6c-9.2-25,3.6-52.8,28.6-62c0.1,0,0.2-0.1,0.2-0.1L435.7,290
		c24.5-9.5,52,2.7,61.5,27.2c0.2,0.5,0.4,1,0.5,1.5c9.1,24-3,50.7-27,59.8c-0.6,0.2-1.1,0.4-1.7,0.6L204.3,477.2z"/>
</g>
</svg>
