<?xml version="1.0" encoding="utf-8"?>
<!-- Generator: Adobe Illustrator 22.1.0, SVG Export Plug-In . SVG Version: 6.00 Build 0)  -->
<svg version="1.1" id="Layer_2_1_" xmlns="http://www.w3.org/2000/svg" xmlns:xlink="http://www.w3.org/1999/xlink" x="0px" y="0px"
	 viewBox="0 0 640 480" style="enable-background:new 0 0 640 480;" xml:space="preserve">
<style type="text/css">
	.st0{fill:#182852;}
	.st1{fill:#FFFFFF;}
</style>
<g>
	<rect x="0.4" y="80.3" class="st0" width="639.1" height="319.4"/>
	<g>
		<path class="st1" d="M357.5,206.8h15.7h8.6h9.3h1.5c0-0.9-0.3-2.2-0.3-3.7c0-1.2,0.3-3.4,0.3-3.4c-4.6,0.3-19.8,2.2-29.9,2.2
			c-1.5,0-3.1,0-4-0.3l-0.3-0.3c-0.3-3.7-0.6-8-0.6-10.2c0-0.9-0.3-4-0.3-8.9l-0.3-9.9v-8.6v-0.3c2.2,0,5.6,0,8.3,0
			c8.3,0.3,17.9,0.6,22.5,0.9c0,0-0.3-1.9-0.3-3.4c0-1.9,0.3-3.4,0.3-3.4c-1.2,0-4.3,0.3-9.6,0.3c-5.6,0-8,0.3-9.6,0.3
			c-3.1,0-7.7,0-9.3,0c-0.6,0-2.5,0-2.8,0c-0.3,0-0.3-0.3-0.3-0.3s0-4.3,0-8.6c0-3.1,0-5.9,0-8v-13.6V126c2.2,0,3.4,0,4.9,0
			c3.7,0,7.1-0.3,18.8,0.6c4.3,0.3,7.4,0.3,10.2,0.6c0,0,0-2.5,0-3.4c0-0.9,0.3-2.5,0.6-3.4h-1.5c-2.2,0-16.7,0-20.4,0
			c-5.9,0-10.5,0-22.2-0.6h-1.5c0.6,5.2,1.2,42.9,1.2,42.9l-0.3,15.7l-0.3,11.1c0,6.8-0.9,17-0.9,17
			C348.9,207.1,351.9,207.1,357.5,206.8 M332.2,206.8c0-0.9,0-2.2,0-3.7c0-1.2,0.3-3.4,0.3-3.4c-4.6,0.3-19.8,2.2-29.9,2.2
			c-1.5,0-3.1,0-4-0.3l-0.3-0.3c-0.3-3.7-0.6-8-0.6-10.2c0-0.9-0.3-4-0.3-8.9l-0.3-9.9v-8.6v-0.3c2.2,0,5.6,0,8.3,0
			c8.3,0.3,17.9,0.6,22.5,0.9c0,0-0.3-1.9-0.3-3.4c0-1.9,0.3-3.4,0.3-3.4c-1.2,0-4.3,0.3-9.6,0.3c-5.6,0-8,0.3-9.6,0.3
			c-3.1,0-7.7,0-9.3,0c-0.6,0-2.5,0-2.8,0c-0.3,0-0.3-0.3-0.3-0.3s0-4.3,0-8.6c0-3.1,0-5.9,0-8v-13.6V126c2.2,0,3.4,0,4.9,0
			c3.7,0,7.1-0.3,18.8,0.6c4.3,0.3,7.4,0.3,10.2,0.6c0,0,0-2.5,0-3.4c0-0.9,0.3-2.5,0.6-3.4h-1.5c-2.2,0-16.7,0-20.4,0
			c-5.9,0-10.5,0-22.2-0.6h-1.5c0.6,5.2,1.2,42.9,1.2,42.9l-0.3,15.7l-0.3,11.1c0,6.8-0.9,17-0.9,17c3.1,0,5.9-0.3,11.4-0.3h15.7
			h8.6h9.3h2.2V206.8z M143,310.8c-1.9,0.3-6.2,0.9-13.3,1.2c-3.1,0-5.6,0.3-10.5,0.3c-2.2,0-4.3,0-6.5,0c-3.1,0-5.2-0.3-5.2-0.6
			s-0.3-2.2-0.3-2.5c-0.6-8.9-0.9-40.7-0.9-40.7s-0.6-17.9,1.5-38.3c0,0-4,0.6-6.2,0.6c-1.9,0-4.3-0.3-6.5-0.3
			c0,0,1.2,27.5,1.2,43.8c0,16.4-0.9,38.9-1.2,42.9c0.6,0,4-0.3,11.1-0.3c7.1,0,17-0.3,23.5,0c4.9,0.3,8.3,0.3,10.8,0.3
			c0.9,0,1.9,0,2.8,0c0,0-0.3-2.2,0-3.4C142.7,313.6,143,310.8,143,310.8 M223.6,317.3c2.5,0,4.3,0.3,6.5,0.3l-6.8-14.8
			c0,0-7.4-16.7-10.8-24.1c-3.1-7.1-11.1-25.3-15.7-35.5c-3.1-6.8-6.5-15.4-6.5-15.4h-3.1c-0.3,0.6-17.3,38.9-21,46.9
			c-4.3,9.9-9.9,21.6-13.9,30.6c-2.8,5.9-5.2,12.3-5.2,12.3c2.2-0.3,2.8-0.3,4.3-0.3c1.9,0,2.5,0,4.6,0.6c0,0,2.2-8.6,8.3-23.8
			c1.9-4.3,4.3-10.5,4.6-11.4l0.3-0.3c0,0,11.7,0,15.7,0c0,0,15.1,0,17,0c0.3,0,0.3,0.3,0.3,0.3s1.5,3.4,5.2,12
			c2.2,5.2,4,10.2,4,10.2l4.9,12.7C219.9,317.3,221.1,317.3,223.6,317.3 M200.1,277.8c-2.5,0-24.4,0-28.4,0c-0.3,0-0.3-0.3-0.3-0.3
			s9.6-21.9,11.7-26.2c1.2-2.5,2.8-5.9,2.8-5.9c0.3-0.3,2.2,4,6.5,13.6C195.5,266.4,200.4,277.5,200.1,277.8
			C200.4,277.5,200.4,277.8,200.1,277.8 M301.9,230.9c0.6,11.4,1.2,17.9,1.2,27.5v11.7c0,17.9-0.6,22.8-4,29.6
			c-4.9,9.9-13.6,13.6-25.6,14.2c-13.9,0.3-21.9-7.7-25.6-16.7c-1.2-2.8-2.2-10.2-2.2-21.6c0-3.7,0-10.2,0-18.2
			c0.3-14.2,0.6-21,0.9-26.8c-2.5,0.3-3.7,0.6-6.2,0.6c-2.8,0-4,0-6.2-0.6c0.3,5.2,1.2,15.4,1.2,24.4c0,3.4,0.3,7.1,0.3,11.4
			c-0.3,10.5,0,17.3,0,18.5c0,13.6,2.2,19.4,8.6,25.6c5.9,5.6,16,8.6,27.5,8.6c11.7,0,21.3-3.4,27.8-10.5c3.1-3.4,6.2-7.4,7.4-11.7
			c1.9-6.2,2.8-9.9,2.8-27.8c0-4.6,0-9.3,0.3-13.3c0,0,0.3-21.6,0.9-25.3c-1.5,0.6-3.1,0.6-4.6,0.6
			C305.3,231.2,301.9,230.9,301.9,230.9 M207.5,127.8c4.9-0.3,6.5-0.6,13.9-0.9l13.9-0.3h0.3c0.3,3.4,0.6,14.2,0.6,14.2l0.3,17.6
			V176c0,17-0.6,24.4-1.2,31.5c0,0,3.1-0.3,5.9-0.3c2.8,0,6.5,0.3,6.5,0.3c-0.9-7.1-0.9-22.5-1.2-31.5c-0.3-8.9,0-17.6,0-17.6
			l0.3-17.3l0.6-14.5h0.3l12,0.3c5.9,0.3,9.3,0.3,15.1,1.2c0,0-0.6-2.2-0.6-3.7c0-1.5,0.3-2.5,0.3-3.1c0,0-20.1,0.6-30.9,0.6h-3.7
			c0,0-30.9-0.3-32.1-0.6c0.3,2.2,0.3,1.5,0.3,3.4C207.8,126.3,207.5,127.8,207.5,127.8 M331,105.6h-45.7v5.2H331V105.6z
			 M436.8,312.1c-1.5,0-3.1,0-4-0.3l-0.3-0.3c-0.3-3.7-0.6-8-0.6-10.2c0-0.9-0.3-4-0.3-8.9l-0.3-9.9v-8.6v-0.3c2.2,0,5.6,0,8.3,0
			c8.3,0.3,17.9,0.6,22.5,0.9c0,0-0.3-1.9-0.3-3.4c0-1.9,0.3-3.4,0.3-3.4c-1.2,0-4.3,0.3-9.6,0.3c-5.6,0-8,0.3-9.6,0.3
			c-3.1,0-7.7,0-9.3,0c-0.6,0-2.5,0-2.8,0c-0.3,0-0.3-0.3-0.3-0.3s0-4.3,0-8.6c0-3.1,0-5.9,0-8v-13.6v-1.5c2.2,0,3.4,0,4.9,0
			c3.7,0,7.1-0.3,18.8,0.6c4.3,0.3,7.4,0.3,10.2,0.6c0,0,0-2.5,0-3.4c0-0.9,0.3-2.5,0.6-3.4h-1.5c-2.2,0-16.7,0-20.4,0
			c-5.9,0-10.5,0-22.2-0.6h-0.9c0.6,5.2,1.2,42.9,1.2,42.9l-0.3,15.7l-0.3,11.1c0,6.8-0.9,17-0.9,17c3.1,0,5.9-0.3,11.4-0.3H447h8.6
			h9.3h1.5c0-0.9,0-2.2,0-3.7c0-1.2,0.3-3.4,0.3-3.4C462.1,310.5,446.7,312.1,436.8,312.1 M537.4,318.2c3.4,0,7.4,0,7.4,0
			c-2.5-2.5-3.4-4.3-7.4-9.3l-9.6-12l-8-10.2c0,0-9.3-11.4-9.3-11.7c0-0.3,0-0.3,0-0.3c17.3-3.4,27.8-12.3,27.8-23.8
			c0-10.2-6.2-20.4-26.8-19.8c-0.9,0-4.6,0-10.8,0.3c-3.7,0-7.4,0.3-9.9,0.3c-3.4,0-6.2,0-9.3-0.3c0,0,0.3,8.6,0.6,13
			c0.6,11.1,0.6,16.4,0.6,26.2c0,15.1,0,24.4-0.6,34.3l-0.6,13c2.2-0.3,3.7-0.3,5.9-0.3c1.9,0,3.4,0,6.8,0.6V317l-0.6-13l-0.3-12.7
			c0-4,0-13.3,0-15.4h5.2c0.6,0,14.2,16.7,17.9,21.6l15.4,21C532.8,318.2,534.6,318.2,537.4,318.2 M492.4,271v-1.2
			c0,0,0-31.8,0-32.7c0,0,0,0,0-0.3c1.5-0.6,7.7-1.5,12.7-1.2c14.8,0,20.1,7.1,20.7,16c0.3,7.1-4,13-8.9,16c-4.3,2.5-8,3.7-17.6,3.7
			C496.7,271.3,493.9,271.3,492.4,271 M332.5,317.3h9.9c1.5,0,3.4,0,7.4,0c22.5,0.3,32.1-2.2,41-9.9c10.2-8.6,17.3-21.3,17.3-36.4
			c0-13-4.6-23.1-13-30.9c-8-7.7-15.4-9.6-32.7-9.6H360h-8l-10.2,0.6c-2.8,0-4.9,0-6.5,0c-3.4,0-5.9,0-9.9-0.6c0,0,0.6,9.6,0.9,14.2
			c0.6,7.4,0.6,20.7,0.6,25.3c0,7.7-0.3,17.6-0.3,22.2c0,4.3-0.6,23.1-0.9,25C325.7,317.9,328.5,317.3,332.5,317.3 M336.8,274.1
			v-12.7c0-9.3,0.6-21.9,0.6-24.4l1.2-0.3c5.9-0.9,13.9-1.5,19.8-1.5c13.9,0.3,17.9,1.2,24.7,6.5c9.3,6.5,12,18.5,12.3,31.2
			c0.3,12.7-3.4,23.1-10.5,29.9c-6.5,6.5-10.8,8-18.5,9.6c-3.1,0.6-8.3,0.6-13.9,0.6c-1.5,0-10.8,0.3-14.8-0.6
			c-0.6-4-0.6-7.4-0.9-13.6v-11.7L336.8,274.1z M106.6,206.8h15.7h8.6h9.3h1.5c0-0.9,0-2.2,0-3.7c0-1.2,0.3-3.4,0.3-3.4
			c-4.6,0.3-19.8,2.2-29.9,2.2c-1.5,0-3.1,0-4-0.3l-0.3-0.3c-0.3-3.7-0.6-8-0.6-10.2c0-0.9-0.3-4-0.3-8.9l-0.3-9.9v-8.6v-0.3
			c2.2,0,5.6,0,8.3,0c8.3,0.3,17.9,0.6,22.5,0.9c0,0-0.3-1.9-0.3-3.4c0-1.9,0.3-3.4,0.3-3.4c-1.2,0-4.3,0.3-9.6,0.3
			c-5.6,0-8,0.3-9.6,0.3c-3.1,0-7.7,0-9.3,0c-0.6,0-2.5,0-2.8,0s-0.3-0.3-0.3-0.3s0-4.3,0-8.6c0-3.1,0-5.9,0-8v-13.6V126
			c2.2,0,3.4,0,4.9,0c3.7,0,7.1-0.3,18.8,0.6c4.3,0.3,7.4,0.3,10.2,0.6c0,0,0-2.5,0-3.4c0-0.9,0.3-2.5,0.6-3.4l-1.2,0.3
			c-2.2,0-16.7,0-20.4,0c-5.9,0-10.5,0-22.2-0.6h-1.5c0.6,5.2,1.2,42.9,1.2,42.9l-0.3,15.7l0,11.7c0,6.8-0.9,17-0.9,17
			C98,207.1,101,207.1,106.6,206.8 M175.1,204.4c-13,0.3-21.6-13.3-21.6-13.3c-0.6,3.1-2.2,9.9-2.2,9.9c5.9,4.6,13.6,7.4,21.6,7.4
			c17.6,0,31.2-12,31.2-28.1c0-10.8-5.9-17.6-20.1-22.2c-4.3-1.2-8.9-3.4-11.7-4.6c-7.1-3.4-9.9-8.3-9.9-14.8
			c-0.3-9.6,6.2-15.4,17.3-15.4c12.3,0,17.3,11.4,17.3,11.4c1.2-4.3,2.2-6.2,3.4-9.6c0,0-6.5-6.5-19.8-6.5
			c-16.4,0-27.8,9.9-27.8,23.8c0,4,0.9,7.4,2.8,10.5c2.5,4.3,8.3,9.3,21,13.6c13,4.3,18.2,9.6,18.2,18.5
			C194.9,195.1,187.5,204,175.1,204.4 M114,339.8c4,0,7.4,1.5,10.2,4.3h0.3c0.3-1.5,0.6-2.5,0.9-4c-2.8-1.2-6.8-2.2-10.8-2.2
			c-6.2,0-10.8,1.5-14.2,4.6c-3.7,3.4-5.6,8-5.6,13.9c0,11.1,7.1,18.2,18.2,18.2c4.6,0,8.6-0.9,11.7-3.1l0.6-3.1l-0.3-0.3
			c-3.4,3.1-7.1,4.3-11.4,4.3c-4,0-7.7-1.5-10.2-4.6c-2.5-2.8-3.7-6.8-3.7-11.7c0-4.9,1.2-8.6,3.4-11.7
			C106.3,341.7,110,339.8,114,339.8 M168.9,338c-12,0-19.4,7.1-19.4,18.2c0,11.4,7.4,18.2,19.4,18.2s19.4-7.1,19.4-18.2
			C188.4,345.1,181,338,168.9,338 M180.4,367.3c-2.5,3.7-6.5,5.6-11.4,5.6c-4.9,0-8.9-2.2-11.4-5.6c-1.9-2.8-2.8-6.5-2.8-11.1
			c0-4.6,0.9-8.3,2.8-11.1c2.5-3.7,6.5-5.6,11.4-5.6c4.6,0,8.9,2.2,11.4,5.6c1.9,2.8,2.8,6.5,2.8,11.1
			C183.1,360.8,182.2,364.5,180.4,367.3 M254.4,365.8l-0.3-2.2l-0.3-2.2c-0.3-2.5-0.6-4.3-0.6-5.6l-0.3-1.9v-1.9l-0.3-1.9l-0.3-2.2
			c-0.6-5.6-0.3-3.1-0.9-7.7c-0.3-2.2-0.3-1.5-0.3-2.5h-0.6l-0.6,0.9c-0.6,0.9-1.9,3.4-3.7,6.5l-1.2,2.2l-1.2,2.2l-1.2,2.2
			c-0.9,1.5-1.9,3.7-3.7,6.8c-1.9,3.1-2.8,4.9-3.7,6.5l-0.3,0.3c-1.2-2.2-1.9-3.4-4.9-8.9c-2.2-4-1.5-2.8-4.6-8.9l-1.2-2.2
			c-0.9-1.5-1.5-2.8-2.2-4.3c-1.2-2.2-0.9-1.9-1.5-2.8h-0.9c-0.3,2.8-0.3,2.8-0.9,7.7c-0.9,6.2-0.6,3.1-1.2,8.9l-0.3,2.2
			c-0.3,1.2-0.3,2.5-0.6,3.7c-0.3,1.2,0.3-1.2-1.2,7.7c-0.3,2.8-0.6,4-0.9,5.6c0.9-0.3,1.2-0.3,1.9-0.3s0.9,0,1.9,0.3
			c0-3.1,0.3-5.2,0.9-12.3c0.9-7.7,0.9-9.6,1.5-13.6l0.3,0.3v0.3l0.3,0.3l1.2,2.2l1.2,1.9l1.2,1.9c0.6,1.2,1.9,3.1,3.1,5.9
			c4.9,9.6,3.7,7.1,4.3,8c1.5,3.1,1.5,3.1,2.2,4.3h0.3c0.9-2.5,1.9-4,5.2-10.8c0.9-1.5-0.3,0.6,3.4-6.2c2.2-4,1.5-2.8,2.2-4
			c1.5-2.5,1.5-3.1,2.8-4.6c1.2,11.4,1.2,11.4,2.2,19.4c0.3,3.4,0.3,4.9,0.3,7.1c1.2-0.3,1.9-0.3,2.5-0.3s0.9,0,2.5,0.3
			c-0.3-1.9-0.6-3.1-0.9-5.9L254.4,365.8z M295.8,338.6c-0.6,0-1.9,0-3.4,0s-2.8,0-4,0c-1.5,0-2.5,0-4-0.3c0.3,1.9,0.3,3.1,0.3,5.2
			c0,3.1,0,6.8,0,11.7c0,2.5,0,8.6-0.3,11.7c0,2.5,0,4-0.3,6.2c1.9-0.3,2.2-0.3,2.5-0.3c0.6,0,0.6,0,2.5,0.3c0-1.2-0.3-1.9-0.3-2.5
			c0-1.5,0-3.7-0.3-6.5c0-1.5,0,0.6,0-6.5v-0.9c2.2,0,2.5,0,3.4,0c4.6,0,7.7-0.6,10.2-2.2c2.8-1.9,4.6-4.9,4.6-8.3
			C307.5,341.7,303.5,338.6,295.8,338.6 M292.1,355.9c-0.9,0-1.5,0-2.8-0.3v-4c0,0,0-0.9,0-2.5v-1.2c0-1.9,0-3.1,0-3.7
			c0-0.9,0-1.5,0.3-3.7c1.5-0.3,2.8-0.3,4.3-0.3c5.9,0,8.9,2.2,8.9,7.1C302.6,353.1,298.9,355.9,292.1,355.9 M353.2,362.1l-1.2-3.1
			c-1.5-4,0-0.3-4.9-11.7c0,0-0.6-1.9-2.5-5.6c-1.5-3.7-0.9-2.5-1.5-3.7h-0.9v0.3l-0.3,0.3v0.3c0,0.3-0.6,1.2-1.2,2.8
			s-1.9,4.3-2.5,5.6c-0.6,1.2-1.9,4.6-4,8.6c-1.5,3.1-2.8,6.2-4,8.9c-1.9,4.3-2.8,6.2-4,8.6c0.9-0.3,1.5-0.3,1.9-0.3
			c0.6,0,0.9,0,1.9,0.3c2.8-8,2.8-8,5.2-13.6h0.9c1.9,0,4.6,0,5.6,0h6.8c0.9,2.2,1.5,3.7,2.8,6.8s1.9,4.6,2.5,6.8
			c0.9-0.3,1.5-0.3,2.5-0.3c0.9,0,1.5,0,2.8,0.3c-1.2-2.5-1.2-2.8-2.8-6.2C355,366.1,355.6,367.9,353.2,362.1 M341.1,358
			c-1.9,0-3.4,0-5.2,0h-0.3l5.9-13c0.9,2.2,1.2,3.1,2.2,4.6c0.6,1.5,0-0.3,2.5,5.9c1.2,2.5,0.6,1.9,1.2,2.8
			C344.5,358,344.2,358,341.1,358 M409.3,338.6c0,1.5,0,1.9,0.3,2.8c0,2.8,0,8,0,12.3c0,2.8,0,3.4,0,6.5c0,4.6,0,3.4,0,4.6v0.3
			c-1.5-1.5-3.1-3.1-5.6-5.9c-2.8-2.8-4.6-4.9-5.2-5.9l-1.5-1.9l-1.9-1.9l-1.9-1.9c-1.5-1.9-3.4-3.4-4.9-5.2c-2.2-2.2-3.7-4-4.3-4.6
			l-0.6-0.6h-0.9c0,1.5,0,1.9,0,4.6v7.1c0,0,0,0.6,0,2.2v2.2v2.2c-0.3,7.4,0,5.9-0.3,12c-0.3,3.1-0.3,4.6-0.6,6.2
			c0.6-0.3,1.2-0.3,1.9-0.3c0.6,0,0.9,0,1.9,0.3c0-1.5,0-2.2-0.3-3.1c0-2.8-0.3-8-0.3-10.8v-4c0-1.5,0,0.6,0-6.5v-2.8v-0.3l0.3,0.3
			c0.3,0.3-0.6-0.9,3.1,3.1c1.9,2.2,0.9,0.9,3.1,3.4c5.6,5.9,4,4.3,5.2,5.6c2.2,2.2,4.9,5.2,7.4,8c3.7,4,5.2,5.6,6.8,7.7h0.9
			c0-2.5,0-1.9,0-2.8c0-1.9,0-4,0-6.2v-1.2c0-3.1,0-8,0-11.4c0-2.8,0.3-7.1,0.3-9.6c0.3-1.9,0.3-2.5,0.3-4.3
			c-0.9,0.3-1.2,0.3-1.9,0.3C410.6,338.9,410.3,338.9,409.3,338.6 M447.9,338.6c-0.9,0.3-1.5,0.3-2.5,0.3s-1.5,0-2.5-0.3
			c0.3,1.9,0.3,3.1,0.3,5.6c0,3.4,0,6.2,0,9.6c0,1.2,0,4.3,0,8c0,2.8,0,4.9,0,6.2c0,2.2-0.3,3.7-0.3,5.9c1.2-0.3,1.9-0.3,2.5-0.3
			c0.9,0,1.5,0,2.8,0.3c-0.3-2.2-0.3-3.7-0.3-5.9c-0.3-3.4-0.3-8.9-0.3-13.3c0-3.7,0-5.6,0.3-9.9
			C447.6,341.7,447.6,340.4,447.9,338.6 M488.3,371.3c-2.8,0-3.4,0-4.6,0c-0.3,0-1.2,0-1.9,0v-0.9v-0.9v-0.9v-0.9v-1.2
			c0-4.3,0-4,0-5.2v-3.7c0,0,0-0.3,0-0.9c1.2,0,2.2,0,3.4,0c3.4,0,6.8,0,8.9,0.3c-0.3-0.6-0.3-0.9-0.3-1.5s0-0.9,0.3-1.5
			c-1.9,0.3-2.5,0.3-5.6,0.3h-1.5c-2.8,0-2.8,0-3.7,0c-0.3,0-1.2,0-2.2,0c0-0.6,0-0.9,0-0.9c0-0.6,0-0.9,0-1.5c0,0.3,0,0.9,0-1.9
			v-1.2c0-1.5,0-0.6,0-2.2v-1.2c0-1.5,0-0.9,0-1.9c0-1.9,0-1.5,0-2.2c0.9,0,1.5,0,1.9,0c1.2,0,1.9,0,3.1,0c1.9,0,3.4,0,4.6,0
			c1.5,0,2.5,0.3,4,0.3c0-0.9-0.3-1.2-0.3-1.5s0-0.6,0.3-1.5c-1.2,0-1.2,0.3-3.4,0.3c-0.6,0,0.6,0-4,0h-4.3c-2.8,0-1.9,0-2.8,0
			c-1.9,0-2.2,0-3.7-0.3c0,1.5,0.3,2.8,0.3,5.9s0,5.9,0,6.5c0,0.9,0,1.5,0,3.4c0,1.2,0-0.6,0,5.6c0,4,0,2.5,0,4
			c0,4.9-0.3,7.4-0.6,9.9c1.2,0,1.5,0,3.4,0c0.9,0-0.9,0,5.6,0h2.2c0.6,0,0.9,0,2.5,0c0.6,0-0.3,0,3.4,0h1.2h0.3h0.3
			c0-0.6,0-0.9,0-1.5s0-0.9,0-1.5C493.6,371,493,371,488.3,371.3 M530.3,354c-3.1-1.2-4.6-2.2-5.9-3.1c-1.5-1.2-2.2-2.8-2.2-4.9
			c0-3.4,2.8-6.2,6.5-6.2c2.8,0,5.6,1.9,6.5,4.6h0.6c0.3-1.5,0.6-2.8,1.5-4.3c-2.5-1.9-4.9-2.5-7.7-2.5c-3.1,0-5.9,0.9-7.7,2.5
			c-2.2,1.9-3.4,4.6-3.4,7.1c0,4.6,2.2,7.1,8.6,9.9c3.7,1.5,4.3,1.9,5.6,3.1c1.2,1.2,1.9,2.5,1.9,4.6c0,4-3.1,7.1-7.4,7.1
			c-3.4,0-6.8-2.2-8-5.2h-0.6c0,1.5-0.3,2.2-0.9,4.6c2.5,1.9,5.6,2.8,8.6,2.8c7.1,0,12.3-4.9,12.3-11.7c0-2.2-0.9-4.3-2.5-5.9
			C534.9,355.9,534,355.3,530.3,354"/>
	</g>
</g>
</svg>
