<?xml version="1.0" encoding="utf-8"?>
<!-- Generator: Adobe Illustrator 21.0.2, SVG Export Plug-In . SVG Version: 6.00 Build 0)  -->
<svg version="1.1" id="Ethereum" xmlns="http://www.w3.org/2000/svg" xmlns:xlink="http://www.w3.org/1999/xlink" x="0px" y="0px"
	 viewBox="0 0 640 480" enable-background="new 0 0 640 480" xml:space="preserve">
<g>
	<path fill="#FFFFFF" d="M320,14.4C195.6,14.4,94.4,115.6,94.4,240c0,124.4,101.2,225.6,225.6,225.6
		c124.4,0,225.6-101.2,225.6-225.6C545.6,115.6,444.4,14.4,320,14.4z M320,442.9c-112.1,0-202.9-90.9-202.9-202.9
		S207.9,37.1,320,37.1c112.1,0,202.9,90.9,202.9,202.9S432.1,442.9,320,442.9z"/>
	<path d="M320,37.1c-112.1,0-202.9,90.9-202.9,202.9S207.9,442.9,320,442.9c112.1,0,202.9-90.9,202.9-202.9S432.1,37.1,320,37.1z
		 M320,404.9L217.1,282.7l102.9,48l102.9-48L320,404.9z M320,306.6l-102.9-48L320,75.1l102.9,183.6L320,306.6z"/>
	<path d="M489.4,70.6C444.1,25.4,384,0.5,320,0.5S195.9,25.4,150.6,70.6C105.4,115.9,80.5,176,80.5,240s24.9,124.1,70.1,169.4
		c45.2,45.2,105.4,70.1,169.4,70.1c64,0,124.1-24.9,169.4-70.1c45.2-45.2,70.1-105.4,70.1-169.4C559.5,176,534.6,115.9,489.4,70.6z
		 M320,465.6C195.6,465.6,94.4,364.4,94.4,240C94.4,115.6,195.6,14.4,320,14.4c124.4,0,225.6,101.2,225.6,225.6
		C545.6,364.4,444.4,465.6,320,465.6z"/>
	<polygon fill="#C6C6C6" points="217.1,282.7 320,404.9 320,330.6 	"/>
	<polygon fill="#C6C6C6" points="320,75.1 217.1,258.7 320,214.8 	"/>
	<polygon fill="#5E5E5E" points="217.1,258.7 320,306.6 320,214.8 	"/>
	<polygon fill="#2A2A2A" points="320,306.6 422.9,258.7 320,214.8 	"/>
	<polygon fill="#7C7C7C" points="320,404.9 422.9,282.7 320,330.6 	"/>
	<polygon fill="#7C7C7C" points="320,214.8 422.9,258.7 320,75.1 	"/>
</g>
</svg>
