<?xml version="1.0" encoding="UTF-8" standalone="no"?>
<!-- Created with Inkscape (http://www.inkscape.org/) -->
<svg
   xmlns:svg="http://www.w3.org/2000/svg"
   xmlns="http://www.w3.org/2000/svg"
   version="1.0"
   width="744.09448"
   height="277.44095"
   id="svg2233">
  <defs
     id="defs2235" />
  <g
     id="g2210">
    <path
       d="M 255.02758,23.07221 L 331.32354,99.14421 C 338.45884,106.26345 338.26684,117.78227 331.15554,124.98148 C 324.04434,132.10077 312.49354,132.10077 305.35824,124.98148 L 305.31034,125.06148 L 229.01433,48.98948 C 221.87908,41.87024 222.07107,30.27146 229.18231,23.15222 C 236.29354,16.03297 247.89232,15.95297 255.02758,23.07221"
       style="fill:#7cc141;fill-rule:nonzero;stroke:none"
       id="path2446" />
    <path
       d="M 255.02758,254.32786 L 331.32354,178.25591 C 338.45884,171.13662 338.26684,159.61785 331.15554,152.4986 C 324.04434,145.29935 312.49354,145.29935 305.35824,152.4186 L 305.31034,152.4186 L 229.01433,228.4906 C 221.87908,235.60984 222.07107,247.12866 229.18231,254.2479 C 236.29354,261.36715 247.89232,261.44715 255.02758,254.32786"
       style="fill:#7cc141;fill-rule:nonzero;stroke:none"
       id="path2448" />
    <path
       d="M 459.15804,48.90952 L 383.07814,125.22145 C 375.96684,132.34074 364.40004,132.18073 357.26484,125.06148 C 350.12954,117.94224 350.11354,106.34346 357.22484,99.22422 L 357.17684,99.22422 L 433.26484,22.91224 C 440.37604,15.793 451.93484,15.95297 459.07014,23.07221 C 466.20534,30.19145 466.27734,41.79028 459.15804,48.90952"
       style="fill:#003366;fill-opacity:1;fill-rule:nonzero;stroke:none"
       id="path2450" />
    <path
       d="M 459.15804,228.4906 L 383.07814,152.17862 C 375.96684,145.05938 364.40004,145.29935 357.26484,152.4186 C 350.12954,159.53784 350.11354,171.05666 357.22484,178.1759 L 357.17684,178.25591 L 433.26484,254.56784 C 440.37604,261.68713 451.93484,261.44715 459.07014,254.32786 C 466.20534,247.28863 466.27734,235.68985 459.15804,228.4906"
       style="fill:#003366;fill-opacity:1;fill-rule:nonzero;stroke:none"
       id="path2452" />
    <path
       d="M 17.71655,21.15242 L 152.35841,21.15242 C 163.09326,21.15242 171.79635,29.1516 171.79635,38.99056 C 171.79635,48.74951 163.09326,56.74868 152.35841,56.74868 L 56.46449,56.74868 L 56.46449,219.53153 L 152.35841,219.53153 C 163.09326,219.53153 171.79635,227.5307 171.79635,237.36966 C 171.79635,247.20862 163.09326,255.12779 152.35841,255.12779 L 17.71655,255.12779 L 17.71655,21.15242"
       style="fill:#003366;fill-opacity:1;fill-rule:nonzero;stroke:none"
       id="path2454" />
    <path
       d="M 277.80118,137.62016 C 277.80118,127.8612 269.36208,119.94203 258.95516,119.94203 L 258.95516,119.94203 L 93.66056,119.94203 L 93.66056,155.29832 L 258.95516,155.29832 L 258.95516,155.29832 C 258.96317,155.29832 258.96317,155.29832 258.97117,155.29832 L 259.08316,155.29832 L 259.08316,155.29832 C 269.43408,155.21832 277.80118,147.37915 277.80118,137.62016"
       style="fill:#003366;fill-opacity:1;fill-rule:nonzero;stroke:none"
       id="path2456" />
    <path
       d="M 726.37794,122.98173 L 718.93874,118.82213 L 709.09974,131.06087 L 699.26084,118.82213 L 691.82164,122.98173 L 703.66034,137.78017 L 691.82164,152.65857 L 699.50084,156.41818 L 709.09974,144.49943 L 718.69874,156.41818 L 726.37794,152.65857 L 714.45924,137.78017 L 726.37794,122.98173"
       style="fill:#003366;fill-opacity:1;fill-rule:nonzero;stroke:none"
       id="path2458" />
    <path
       d="M 456.29444,132.66067 C 456.68634,129.22104 459.97404,125.06148 464.27754,125.06148 C 469.29304,125.06148 471.24484,128.9011 471.48474,132.66067 L 456.29444,132.66067 z M 480.56384,138.66006 C 480.56384,126.42136 475.39634,119.0621 464.27754,119.0621 C 452.77474,119.0621 446.28744,128.42116 446.28744,137.78017 C 446.28744,148.81899 453.47864,156.25822 463.49364,156.25822 C 469.91694,156.25822 475.39634,153.4585 479.54794,149.29894 L 474.06854,144.81941 C 471.63684,147.13918 468.66114,149.37895 464.90144,149.37895 C 458.32614,149.37895 455.90244,143.53953 455.82244,138.66006 L 480.56384,138.66006"
       style="fill:#003366;fill-opacity:1;fill-rule:nonzero;stroke:none"
       id="path2460" />
    <path
       d="M 545.83694,155.29832 L 536.31794,155.29832 L 536.31794,150.97875 L 536.15804,150.97875 C 533.19834,154.09841 528.71874,156.25822 523.91924,156.25822 C 515.20024,156.25822 512.96044,151.13872 512.96044,144.25945 C 512.96044,142.09969 513.04044,139.93993 513.04044,137.70016 L 513.28034,120.02204 L 522.79944,120.02204 L 522.71944,128.8211 C 522.63944,133.94055 522.55944,138.90003 522.55944,142.73961 C 522.55944,146.8192 523.75934,148.49901 527.75884,148.49901 C 530.71854,148.49901 534.07824,146.01927 536.47794,143.93952 L 536.63794,120.02204 L 546.15694,120.02204 L 545.83694,155.29832"
       style="fill:#003366;fill-opacity:1;fill-rule:nonzero;stroke:none"
       id="path2462" />
    <path
       d="M 582.23314,120.02204 L 591.75214,120.02204 L 591.75214,126.50132 L 591.83214,126.58133 C 593.67194,122.58174 596.15174,119.22211 600.95114,119.0621 C 601.91104,119.0621 602.87094,119.22211 603.83084,119.38208 L 602.23104,127.62123 C 601.43114,127.46122 600.71114,127.30125 599.99124,127.30125 C 596.31164,127.30125 593.59194,129.78099 591.67214,133.4606 L 591.43214,155.29832 L 581.83324,155.29832 L 582.23314,120.02204"
       style="fill:#003366;fill-opacity:1;fill-rule:nonzero;stroke:none"
       id="path2464" />
    <path
       d="M 639.42714,132.66067 C 639.82714,129.22104 643.10674,125.06148 647.34624,125.06148 C 652.38574,125.06148 654.30554,128.9011 654.54554,132.66067 L 639.42714,132.66067 z M 663.66454,138.66006 C 663.66454,126.42136 658.46514,119.0621 647.34624,119.0621 C 635.90744,119.0621 629.42814,128.42116 629.42814,137.78017 C 629.42814,148.81899 636.54744,156.25822 646.62634,156.25822 C 653.02564,156.25822 658.46514,153.4585 662.62464,149.29894 L 657.18524,144.81941 C 654.70554,147.13918 651.74584,149.37895 647.98624,149.37895 C 641.42694,149.37895 639.02714,143.53953 638.94714,138.66006 L 663.66454,138.66006"
       style="fill:#003366;fill-opacity:1;fill-rule:nonzero;stroke:none"
       id="path2466" />
  </g>
</svg>
