<?xml version="1.0" encoding="utf-8"?>
<!-- Generator: Adobe Illustrator 21.1.0, SVG Export Plug-In . SVG Version: 6.00 Build 0)  -->
<svg version="1.1" id="Layer_1" xmlns="http://www.w3.org/2000/svg" xmlns:xlink="http://www.w3.org/1999/xlink" x="0px" y="0px"
	 viewBox="0 0 640 480" style="enable-background:new 0 0 640 480;" xml:space="preserve">
<g transform="translate(0.000000,287.000000) scale(0.100000,-0.100000)">
	<path d="M580.9,1092c-277.8-23-430.5-156.7-429.2-374.6c0.7-129,46.7-210,160-283.1c57.9-36.9,138.2-69.1,286.3-111.9
		c138.2-40.8,193.5-61.9,234.3-89.5c68.5-47.4,56.6-144.8-22.4-183c-50-24.4-102.7-32.3-186.3-28.3c-54.6,2.6-86.2,7.9-125.1,21.1
		c-48.7,15.8-69.8,27-163.9,84.9c-32.3,19.1-45.4,23.7-74.4,23.7c-64.5,0-102.7-27.6-117.8-84.9C125.4-0.1,155.7-57.4,236-111.4
		c160.6-108,418.7-146.1,614.8-92.2c159.3,43.4,263.3,144.8,292.9,286.3c27,127.7-5.9,243.6-92.8,325.2
		c-69.8,65.2-140.2,96.1-414.1,181c-109.9,34.2-181,68.5-198.1,94.1c-16.5,25-15.1,73.1,2.6,98.1c29.6,42.1,98.7,61.2,217.9,61.2
		c92.2,0,131.7-8.6,239.6-52.7c45.4-17.8,90.2-32.9,99.4-32.9c21.1,0,61.2,15.8,79,31.6c32.3,29,46.1,98.1,27.6,141.5
		c-11.8,29-60.6,72.4-107.3,95.4C896.3,1076.8,725.1,1104.5,580.9,1092z"/>
	<path d="M2927.7,1092c-369.3-35.5-619.4-341.6-588.5-721.5C2355,180.9,2445.8,13,2595.3-100.2c123.8-94.1,306.1-142.8,465.4-125.1
		c265.9,30.3,470,192.2,551,435.8c104.7,316.6-27,664.9-305.4,809C3193.6,1078.1,3054.1,1104.5,2927.7,1092z M3077.8,832.6
		c24.4-5.3,65.8-20.4,92.2-34.2c205.4-108,265.9-420,120.5-624c-69.8-97.4-172.5-148.1-298.9-148.1
		C2772.3,26.9,2615,197.4,2615,434.3C2615,704.9,2825.6,885.9,3077.8,832.6z"/>
	<path d="M3792,1078.1c-30.3-7.9-77-47.4-88.2-75.7c-12.5-29.6-11.2-65.8,3.3-97.4c6.6-14.5,98.7-125.1,204.1-246.2
		C4016.5,537.7,4102.7,437,4102.7,435c0-2-89.5-106-198.1-231.1C3795.3,78.9,3701.8-32.4,3697.2-44.2
		c-35.5-82.3,36.9-175.1,135.6-175.1c52,0,84.3,19.7,146.1,89.5c146.8,166.5,485.8,560.2,485.8,564.1c0,2.6-35.5,43.4-79,91.5
		c-43.4,47.4-159.3,180.4-257.4,295.6c-98.1,114.5-186.3,215.9-196.2,223.8C3891.4,1081.4,3845.3,1092.6,3792,1078.1z"/>
	<path d="M4685.3,1072.9c-14.5-6.6-32.9-17.8-40.8-24.4c-21.7-18.4-225.8-258.7-225.8-265.9s163.3-198.8,171.8-202.1
		c7.2-3.3,263.3,291,277.8,319.3c35.5,67.8-5.3,153.4-83.6,176.4C4741.2,1089.3,4716.9,1088.7,4685.3,1072.9z"/>
	<path d="M5136.2,1080.1c-76.4-25-116.5-86.2-99.4-152.1c9.9-36.9,3.9-29,220.5-277.8C5357.3,535.7,5439,438.3,5439,435
		s-83.6-102-185.6-219.2S5059.8-6.7,5049.3-18.5c-15.8-18.4-18.4-27-18.4-60.6c0-46.1,7.9-69.1,31.6-94.1
		c54-57.3,140.2-63.2,198.1-13.8c27.6,23.7,69.1,70.4,371.3,419.3L5807.6,435l-96.8,106.6c-54,58.6-175.1,197.5-270.5,308.7
		c-94.8,110.6-183,208-195.5,215.9C5219.8,1081.4,5163.2,1089.3,5136.2,1080.1z"/>
	<path d="M6021.5,1074.2c-14.5-7.2-38.8-25.7-54-41.5c-38.2-40.8-212.6-245.5-212.6-250.1c0-7.9,172.5-204.1,177.7-202.1
		c8.6,3.3,250.1,282.4,269.2,310.7c25,38.2,24.4,91.5-2.6,129.7C6161.1,1075.5,6076.8,1100.5,6021.5,1074.2z"/>
	<path d="M1299.8,1059c-43.4-21.7-73.7-71.1-73.7-120.5c0.7-48.7,47.4-108.6,96.8-121.8c14.5-3.9,91.5-7.2,178.4-7.2h152.7V348.8
		c0-401.5,1.3-464.1,10.5-485.8c44.8-108,191.6-111.2,248.2-5.9l14.5,27.6l2,462.8l2,462.1h149.4c88.9,0,160,3.3,175.8,7.2
		c36.2,9.9,79,54,88.9,90.8c13.8,53.3-7.9,111.2-54.6,143.5l-26.3,18.4l-468,2C1329.4,1072.9,1328.1,1072.9,1299.8,1059z"/>
	<path d="M4505.5,186.8c-84.9-98.7-87.5-102-77.7-116.5c29-41.5,227.8-259.4,246.2-269.9c51.3-30.3,116.5-26.3,165.9,9.2
		c46.7,34.2,66.5,104,42.8,152.7c-11.8,24.4-271.2,323.2-282.4,325.2C4596.4,288.2,4553.6,242.8,4505.5,186.8z"/>
	<path d="M5844.5,186.8c-77.7-90.2-88.2-104.7-81-113.9c69.8-83.6,203.4-233.7,224.5-252.8c32.3-29.6,83.6-46.7,120.5-40.2
		c50.7,9.2,98.7,44.1,113.2,83.6c10.5,27,8.6,81-2.6,103.3c-9.9,19.7-269.2,317.9-279.1,321.2
		C5936.6,289.5,5893.8,243.4,5844.5,186.8z"/>
</g>
</svg>
