<?xml version="1.0" encoding="utf-8"?>
<!-- Generator: Adobe Illustrator 19.1.1, SVG Export Plug-In . SVG Version: 6.00 Build 0)  -->
<svg version="1.1" id="Layer_3" xmlns="http://www.w3.org/2000/svg" xmlns:xlink="http://www.w3.org/1999/xlink" x="0px" y="0px"
	 viewBox="80 0 640 480" style="enable-background:new 80 0 640 480;" xml:space="preserve">
<style type="text/css">
	.st0{fill-rule:evenodd;clip-rule:evenodd;fill:#EC1B2E;}
</style>
<g>
	<path class="st0" d="M594.7,164H631v12.4c3.9-3.4,16.5-15.5,39.8-15.5c27.4,0,49.1,20.2,49.1,51.9v82.4h-38.4v-72.2
		c0-17.7-8.6-28.2-24.2-28.2c-15.1,0-24.2,9.9-24.2,28.2v72.2h-38.4V164L594.7,164z"/>
	<path class="st0" d="M471.1,229.6c0-18.1,13.6-33,32.4-33c18.9,0,32.4,14.9,32.4,33c0,18.1-13.6,33.1-32.4,33.1
		C484.7,262.7,471.1,247.8,471.1,229.6L471.1,229.6z M433.2,229.6c0,37.9,30.3,68.6,70,68.6c39.7,0,70-30.7,70-68.6
		c0-37.9-30.3-68.7-70-68.7C463.6,161,433.2,191.8,433.2,229.6L433.2,229.6z"/>
	<polygon class="st0" points="207,295.2 268.2,218.7 214.1,164 267.8,164 291.8,188.7 336,131.9 381,131.9 316.3,213.4 341.5,238.7 
		399.7,164 444.9,164 366.1,263.5 466.1,363.9 411.6,363.9 342.1,293.2 305.1,341.1 259.9,341.1 317.7,268.8 292.4,243.3 252,295.2 
		207,295.2 	"/>
	<polygon class="st0" points="80.1,116.1 198.1,116.1 198.1,149.4 120.2,149.4 120.2,186.6 194.6,186.6 194.6,219 120.2,219 
		120.2,261.8 198.1,261.8 198.1,295.2 80.1,295.2 80.1,116.1 	"/>
</g>
</svg>
