<?xml version="1.0" encoding="utf-8"?>
<!-- Generator: Adobe Illustrator 22.1.0, SVG Export Plug-In . SVG Version: 6.00 Build 0)  -->
<svg version="1.1" id="Layer_1" xmlns="http://www.w3.org/2000/svg" xmlns:xlink="http://www.w3.org/1999/xlink" x="0px" y="0px"
	 viewBox="0 0 1920 1080" style="enable-background:new 0 0 1920 1080;" xml:space="preserve">
<style type="text/css">
	.st0{fill:#221F1F;}
	.st1{fill:#6D2C8F;}
</style>
<g>
	<g>
		<path class="st0" d="M694.6,561.4c4.9-5.4,7-7.3,8.6-9.5c52.7-69.5,153.8-58.5,200.3,7.4c42.8,60.5,39.3,154-8.5,209.4
			c-50.5,58.4-138.5,59-189.5,1.2c-2.5-2.8-5.2-5.5-10.4-11c0,16.2,0,29.2,0,43.3c-19,0-36.1,0-54.6,0c0-178.2,0-356.7,0-536.2
			c17.4,0,34.6,0,54,0C694.6,363.2,694.6,460.3,694.6,561.4z M878.1,659.1c-0.4-6.4-0.5-11.8-1.1-17.3c-5-47.4-36-81.3-79.7-87.3
			c-42.7-5.9-79.9,15.6-96.7,57.7c-14,34.9-12.6,70.2,4.8,103.7c27.7,53.1,99.4,64.7,141.7,23.4
			C869.8,717.1,877.7,689.1,878.1,659.1z"/>
		<path class="st0" d="M1844.9,667.2c-75.3,0-147.5,0-219.4,0c-7.2,30,15.6,71.9,46.8,87.7c43,21.7,81.1,7.9,125.8-46.6
			c14.6,8.3,29.5,16.6,45.4,25.6c-17.9,32.7-43.2,55.5-76.6,68.4c-100.5,38.8-196-24.8-199.6-132.3c-1.5-46,6.1-89.8,38.8-124.3
			c40.8-43.1,92.6-49.6,146.9-34.3c53.9,15.2,78.5,57.2,87.8,109.5C1843.4,635.3,1843.5,650.2,1844.9,667.2z M1627.6,624.4
			c53.1,0,106.2,0,159.4,0c-3.8-44.5-37.6-73.1-83.4-71.5C1663.7,554.3,1628.3,587.5,1627.6,624.4z"/>
		<path class="st0" d="M1185.2,708.2c15.1,8.6,29.6,16.9,45.1,25.8c-19.6,35.8-47.9,59.3-85.1,71.4
			c-96.5,31.4-185.5-30.1-190.8-131.3c-2.1-41,3.6-80.4,27.6-114.9c31.4-45.3,90.5-64.8,149.8-50.5c52.4,12.7,88.4,55.1,96.2,114
			c1.9,14.1,2.4,28.3,3.6,44.1c-74.8,0-147.3,0-219.6,0c-6.4,32.1,16.9,73.8,48.5,88.8C1103.7,776.1,1139.5,762.8,1185.2,708.2z
			 M1014.3,624.8c53.8,0,106.5,0,159.4,0c-1.4-40.6-34.3-71.2-76.3-71.9C1053.8,552.2,1017.5,582.9,1014.3,624.8z"/>
		<path class="st0" d="M152.2,802.5c-19.7,0-37.4,0-56.4,0c0-154.9,0-309.7,0-465.5c74.4,0,148.5,0,223.7,0c0,16.8,0,33.4,0,51.9
			c-8.2,0-16,0-23.7,0c-43.6,0-87.3-0.3-130.9,0.2c-4.2,0.1-12,5-12,7.7c-0.8,40.5-0.5,81.1-0.5,123.7c54.6,0,107.7,0,161.7,0
			c0,18.2,0,34.4,0,52.6c-53.2,0-106.4,0-161.7,0C152.2,650.7,152.2,726.2,152.2,802.5z"/>
		<path class="st0" d="M554.3,514c0,15.4,0,29.7,0,47.5c-4.5-5.3-6.5-7.4-8.3-9.7c-45.9-57-126-63.4-180.2-14.3
			c-56.1,50.8-66.1,148.1-23.9,214.7c44,69.5,149,86.2,205.1,14.5c1.6-2,3.8-3.5,8.4-7.6c0,16.3,0,29.4,0,43.3c18.8,0,35.8,0,53.5,0
			c0-96.7,0-192.4,0-288.4C590.5,514,573.5,514,554.3,514z M554.9,687.2c-8.6,38.3-31.6,64.3-65.4,73.2c-8,2.5-16.5,3.9-25.3,3.9
			c-5,0-9.8-0.4-14.6-1.3c-24.7-3.1-45.2-15.8-59.5-39.1c0,0-0.1-0.1-0.1-0.1c-12.6-18-20.1-40.6-20.1-65.2
			c0-26.2,8.5-50.2,22.7-68.7c15-22.1,36.4-33.6,56.7-35.7c4.9-0.9,9.8-1.3,14.9-1.3c24.1,0,46,10.1,62.7,26.8
			c20.5,18.7,31.9,46.2,31.5,77.9c0,0.3,0,0.7,0,1C558.4,668.5,557.2,678.1,554.9,687.2z"/>
		<path class="st0" d="M1546.2,527.4c0-4.3-0.6-8.5-1-13.1c-18.6,0-36.1,0-55,0c0,15.8,0,30.4,0,48.1c-4-4.5-6-6.5-7.7-8.7
			c-46.8-60-129.2-65.9-184.1-13.2c-52.8,50.7-61.8,145.7-21.6,210.6c44.2,71.3,149.4,86.7,205,16.7c1.9-2.4,4.6-4.1,8.5-7.4
			c0,24.1,0.3,45.8-0.1,67.6c-0.2,8.9-1.3,17.8-2.7,26.6c-6.2,37.7-26.8,60.1-61.8,64.3c-15,1.8-30.9,1-45.7-2.1
			c-32.7-6.7-53.4-30.2-58.8-63.2c-0.8-4.7-1.4-9.4-2.1-13.9c-18.5,0-35.7,0-52.7,0c-3.2,27.1,9.3,63.7,29.5,85.3
			c41.3,44.3,93.5,50.6,149.3,40.7c46.2-8.2,77.6-35.6,89.2-81.1c6.9-27.1,10.7-55.6,11.1-83.5
			C1547,709.8,1546.2,618.6,1546.2,527.4z M1482,712.5c-15,31.3-40,48.2-73.1,51c-3.7,0.5-7.5,0.9-11.4,0.9
			c-8.5,0-16.7-1.4-24.5-3.9c-18.6-5.2-34-16.3-45.1-33.4c-13.1-17.7-21.6-40.4-23-65.4c-0.1-0.3-0.2-0.6-0.3-0.9
			c0.1-0.2,0.1-0.4,0.2-0.7c-0.1-2-0.2-4.1-0.2-6.1c0-61,41.6-110.4,92.9-110.4c30.7,0,57.9,17.7,74.8,45.1
			c6.2,8.2,11.2,17.6,14.7,28.3C1497.6,649.1,1496.8,681.5,1482,712.5z"/>
	</g>
</g>
<path class="st1" d="M1833.8,247.2c0.3-13.8-4.2-17.4-17.8-17.3c-74.2,0.5-173.6,0.3-249.4,0.4c-1.3-10.2-3.3-20.1-5.9-29.6
	c-3.8-13.9-8.9-26.9-15.2-38.7c-9.5-17.7-21.6-33-36.6-44.2c-7.5-5.6-15.7-10.2-24.6-13.3c-8.8-3.2-18.3-4.9-28-4.9
	c-8.6,0-17,1.4-25,3.9c-14,4.4-26.4,12.3-37.1,22.4c-16,15.1-28.3,35.1-36.8,58c-8.5,22.9-13.2,48.9-13.2,76.4c0,21,2.7,41,7.8,59.5
	c3.8,13.9,8.9,26.9,15.2,38.7c9.5,17.7,21.6,33,36.6,44.2c7.5,5.6,15.7,10.2,24.6,13.3c8.8,3.2,18.3,4.9,28,4.9c8.6,0,17-1.4,25-3.9
	c14-4.4,26.4-12.3,37.1-22.4c16-15.1,28.3-35.1,36.8-58c5.4-14.5,9.2-30.1,11.3-46.7h108.8c-0.1,16.6-0.2,31.9,0.2,47h49.7
	c-0.1-14.9-0.2-29.1,0.4-43.3c0-1.1,0.4-2.4,0.9-3.8h56.4c0,22.7-0.2,44.2,0.1,65.7c0.1,7-0.1,12.4-0.1,16.6h50.7c0-1,0.1-2.1,0-3.2
	C1833,328.5,1833,287.8,1833.8,247.2z M1514.8,307.2c-2.9,10.7-6.8,20.4-11.3,28.9c-6.7,12.7-14.9,22.4-23.1,28.4
	c-4.1,3-8.1,5.2-12.1,6.7c-4,1.4-7.9,2.1-11.9,2.1c-3.6,0-7.1-0.6-10.6-1.7c-6.1-1.9-12.5-5.7-18.9-11.7
	c-9.5-8.9-18.4-22.6-24.8-39.9c-6.4-17.2-10.2-37.8-10.2-59.9c0-16.8,2.2-32.8,6.1-47c2.9-10.7,6.8-20.4,11.3-28.9
	c6.7-12.7,14.9-22.4,23.1-28.4c4.1-3.1,8.1-5.2,12.1-6.7c4-1.4,7.9-2.1,11.9-2.1c3.6,0,7.1,0.6,10.6,1.7c6.1,1.9,12.5,5.7,18.9,11.7
	c9.5,8.9,18.4,22.6,24.8,39.9c6.4,17.2,10.2,37.8,10.2,59.9C1520.9,277,1518.7,293,1514.8,307.2z"/>
</svg>
