<?xml version="1.0" encoding="utf-8"?>
<!-- Generator: Adobe Illustrator 22.1.0, SVG Export Plug-In . SVG Version: 6.00 Build 0)  -->
<svg version="1.1" id="Layer_2_1_" xmlns="http://www.w3.org/2000/svg" xmlns:xlink="http://www.w3.org/1999/xlink" x="0px" y="0px"
	 viewBox="0 0 640 480" style="enable-background:new 0 0 640 480;" xml:space="preserve">
<style type="text/css">
	.st0{fill:#4D168A;}
	.st1{fill:#FD641B;}
</style>
<g>
	<g>
		<g>
			<path class="st0" d="M371.7,331.7c-14.8,0-29.6,0-44.7,0c0-4.1,0-7.9,0-12.6c-0.9,0.9-1.6,1.6-1.9,1.9
				c-11.6,14.8-27.4,19.8-45.6,16c-25.2-5-44.7-25.5-49.7-51.6c-0.9-5.7-0.9-5.7-6.9-5.7c-26.4,0-52.5,0-78.9,0c-0.9,0-1.9,0-3.5,0
				c0.3,2.2,0.3,4.1,0.6,6c3.1,13.2,15.4,21.7,28.9,20.1c7.2-0.6,12.6-3.5,17-9.1c0.6-0.6,1.9-1.6,2.8-1.6c13.2,0,26.1,0,39.3,0
				c0.3,0,0.9,0,1.6,0.3c-0.3,0.9-0.6,1.6-0.9,2.5c-11,24.5-29.9,37.7-56.6,39.6c-18.6,1.3-35.9-2.5-50.6-14.2
				c-15.1-12-23.3-27.7-24.5-47.2c-0.6-7.9,0.6-16,0.9-24.5c-15.7,0-32.4,0-49.1,0c0,1.3-0.3,2.8-0.3,4.1c0,23.6,0,47.5,0,71.1
				c0,4.1,0,4.1-4.1,4.1c-13.8,0-27.7,0-41.5,0c-1.3,0-2.5,0-4.1,0c0-63.2,0-126.1,0-189c37.1,0,73.9,0,111,0c0,0.9,0.3,1.6,0.3,2.5
				c0,12,0,24.2,0,36.2c0,2.5-0.6,3.1-3.1,3.1c-18.2,0-36.5,0-54.4,0c-1.3,0-2.2,0-3.8,0c0,9.1,0,18.2,0,27.4c18.9,0,37.4,0,56.3,0
				c0,8.2,0,16,0,23.6c0.3,0,0.3,0,0.6,0.3c0.6-0.6,0.9-1.3,1.6-2.2c10.4-16,25.5-24.5,43.7-28c12.9-2.2,25.5-1.6,38.1,2.2
				c19.8,6.3,32.4,19.5,39.6,38.7c0.3,1.3,0.9,2.2,1.6,4.4c7.2-20.8,19.2-36.2,39.6-42.8c20.4-6.6,39.6-4.7,56,12
				c0-26.4,0-51.9,0-77.7c15.1,0,30.2,0,45,0C371.7,205.3,371.7,268.5,371.7,331.7z M325.8,271.3c0-6.6-1.3-12.9-4.1-19.2
				c-7.9-17-30.8-18.9-41.8-3.8c-3.8,5.7-5.7,12-6.3,18.6c-1.3,10.7,1.3,20.4,8.5,28.3c10.4,11.3,29.2,10.1,37.7-2.8
				C324.2,286.4,325.8,279.2,325.8,271.3z M142.5,252.4c15.7,0,31.4,0,47.2,0c0.3-10.1-10.4-19.5-22.3-20.1
				C155,232,142.8,241.8,142.5,252.4z"/>
		</g>
	</g>
	<g>
		<g>
			<path class="st1" d="M371.7,142.4c8.5,0,16.7,0.3,25.2,0.3c25.5,0,50.9,0,76.4,0c2.8,0,3.8,0.9,3.8,3.8c0,11.6,0,23,0,34.6
				c0,2.5-0.9,3.5-3.5,3.5c-17.6,0-35.5,0-53.1,0c-3.1,0-4.1,0.9-4.1,4.1c0.3,7.9,0,15.4,0,23.6c1.6,0,2.8,0,4.1,0
				c17.6,0,35.5,0,53.1,0c2.5,0,3.5,0.6,3.5,3.5c0,11.3,0,22.3,0,33.7c0,2.5-0.6,3.1-3.1,3.1c-17.9,0-35.9,0-53.5,0
				c-2.8,0-3.8,0.6-3.8,3.8c0.3,10.1,0,20.4,0,30.5c0,1.3,0,2.2,0,3.8c1.9,0,3.5,0.3,5,0.3c16.7,0,33.7,0,50.3,0c5,0,5,0,5,5
				c0,11,0,22,0,33c0,2.8-0.6,3.8-3.8,3.8c-32.4,0-64.5,0-96.9,0c-1.6,0-3.1,0-4.7,0.3C371.7,268.8,371.7,205.6,371.7,142.4z"/>
			<path class="st1" d="M640,331.7c-18.2,0-35.9,0-53.8,0c-1.3,0-2.5-0.9-3.5-1.9c-6.9-7.5-13.8-15.4-20.8-23.3
				c-1.3-1.3-2.5-2.5-4.7-5c-0.6,1.3-0.9,2.5-1.9,3.5c-7.2,8.2-14.5,16.7-22,24.8c-0.9,0.9-2.5,1.9-3.8,1.9c-16.4,0-33,0-49.4,0
				c-0.3,0-0.6,0-1.9-0.3c3.1-3.8,6.3-7.2,9.1-10.4c13.8-15.7,28-31.4,41.8-46.9c1.9-1.9,0.9-3.1-0.3-4.7
				c-16.4-18.2-32.4-36.5-48.7-54.7c-0.6-0.6-1.3-1.6-2.2-2.8c1.3,0,2.2-0.3,3.1-0.3c16.4,0,33,0,49.4,0c1.6,0,3.5,0.9,4.4,1.9
				c7.5,8.2,15.1,16.7,22.6,24.8c0.6,0.6,1.3,1.6,2.2,2.8c2.8-3.1,5-5.7,7.5-8.2c5.7-6.6,11.3-12.9,17-19.5c0.9-0.9,2.2-1.9,3.1-1.9
				c17,0,34,0,51.9,0c-1.3,1.3-1.9,2.5-2.8,3.5c-15.7,17.9-31.8,35.9-47.8,53.5c-2.2,2.2-1.9,3.5,0,6c16.4,18.2,32.7,36.5,48.7,54.4
				C638.4,329.5,639.1,330.4,640,331.7z"/>
		</g>
	</g>
</g>
</svg>
