<?xml version="1.0" encoding="utf-8"?>
<!-- Generator: Adobe Illustrator 18.1.1, SVG Export Plug-In . SVG Version: 6.00 Build 0)  -->
<svg version="1.1" id="Layer_1" xmlns="http://www.w3.org/2000/svg" xmlns:xlink="http://www.w3.org/1999/xlink" x="0px" y="0px"
	 viewBox="0 0 640 480" enable-background="new 0 0 640 480" xml:space="preserve">
<polygon fill="#FFFFFF" points="493.6,44.3 493.6,53.2 319.8,22.8 146.1,53.2 146.1,44.3 319.8,13.6 "/>
<polygon fill="#00A651" points="493.6,35.1 493.6,44.3 319.8,13.6 146.1,44.3 146.1,35.1 319.8,4.5 "/>
<path fill="#ED1C2E" d="M493.6,53.2L319.8,22.8L146.1,53.2l0,30.9l1.5-0.8c0.6-0.3,62.3-34.5,172.6-34.5
	c110.3,0,171.3,34.2,171.9,34.5l1.5,0.8L493.6,53.2L493.6,53.2z"/>
<path fill="#FFF200" d="M320.2,54.7c99.6,0,157.9,28,167.4,32.9c0,3.5,0,89,0,89c0,48.5-11.4,96.8-33.9,143.6
	c-49.3,102.3-123.4,142.4-133.8,147.7c-10.4-5.3-84.6-45.4-133.8-147.7c-22.5-46.8-33.9-95.1-33.9-143.6c0,0,0-85.5,0-88.9
	C161.6,82.8,220.5,54.7,320.2,54.7L320.2,54.7z"/>
<path d="M147.6,83.3l-1.5,0.8v92.5c0,49.4,11.6,98.6,34.5,146.2c53.8,111.7,137.2,150.7,138,151.1l1.2,0.6l1.2-0.6
	c0.8-0.4,84.2-39.4,137.9-151.1c22.9-47.6,34.5-96.8,34.5-146.2V84.1l-1.5-0.8c-0.6-0.3-61.6-34.5-171.9-34.5
	C209.9,48.8,148.2,82.9,147.6,83.3L147.6,83.3z M320.2,54.7c99.6,0,157.9,28,167.4,32.9c0,3.5,0,89,0,89
	c0,48.5-11.4,96.8-33.9,143.6c-49.3,102.3-123.4,142.4-133.8,147.7c-10.4-5.3-84.6-45.4-133.8-147.7
	c-22.5-46.8-33.9-95.1-33.9-143.6c0,0,0-85.5,0-88.9C161.6,82.8,220.5,54.7,320.2,54.7L320.2,54.7z"/>
<path d="M346.3,381.7c2.9,2,0.8,5.5-1.3,6c-2.2,0.6-4.1-1.9-5.2,0.8c-0.6,1.4,1,12.5,12.3,12.5c10.5,0,15.6-13.5,16.6-15.6
	c1-2,1.6-4.6,0.6-4.6c-4.6,0-6,2.7-6,2.7s-0.3-2.6,1.9-4.6c1.9-1.6,4.4-1.2,5.3-1.2c1.9,0,1.6-1.4,2.7-4.2c2.6-6.5,4.4-6.8,6.1-9.8
	c1.4-2.4-1.2-3.4-6.5-3.9c-5.2-0.5-8-0.3-10.4,0.1c-2.3,0.3-4.7,1.3-6.1,4.9c-0.8,1.9,0.6,3.8,3.4,3.3c2.7-0.5,5.4-2.6,5.4-2.6
	s-1.2,4.9-5.3,5.9c-3.8,0.9-8.3-1.4-7.7-5.2c0.8-5,4.2-8.6,10.5-9.8c6.3-1.3,12.5-0.3,18.1,1.1c5.6,1.4,9.7,0.6,14.8,0.2
	c11.1-0.6,18.1-3.2,18.1-3.2s-5,4.1-12,6c-7,1.9-13.2,1.1-15.2,1.9c-1.6,0.7-3.9,3.9-5.8,7.6c-1.7,3.4-3.6,7.3-2.8,7.3
	c6.5,0.2,8.9-1.2,8.9-1.2s-1.3,2.8-4.4,4.1c-2.1,0.9-5.8,0.9-5.8,0.9s-1.6,4.1-3.5,7.9c-1.9,3.7-4.9,9.6-10.4,12.4
	c-5.5,2.9-16,6.5-22.6-3C333.2,388.4,339.5,377.1,346.3,381.7L346.3,381.7z"/>
<path d="M265.2,383c1.3,3.3-1.4,5-3,5c-1.6,0-3.6-1.2-4,0.8c-0.4,2,4.2,12.2,15,12.2c10.8,0,15.7-6.2,15-11.8
	c-0.8-6.2-10.7-8.7-18.6-12.8c-3.8-2-12.6-3.4-12.6-11.5c0-17.4,26.5-6.3,26.5-6.3s0.1-2.2,1.3-2.3c0.6-0.1,1.8-0.3,2.2,1.7
	c0.4,2,2.1,12.4,2.1,12.4s-3.9-8-14.6-11.4c-1.9-0.7-10.2-2.2-10.1,4.3c0.1,3.9,4.8,5.6,13,8.8c10.8,4.2,16.3,8.2,13.8,19.5
	c-2.4,10.9-13.1,12.7-18.3,12.7c-5.2,0-17.1-3.6-17.1-15.6C255.9,380.2,264.1,380.4,265.2,383L265.2,383z"/>
<path d="M321.8,317.5l4.3,2.1c2.5,1,4.1,0.5,4.7,0.3c0.6-0.3,2.9-2.7,3.4-4.8c0.2-0.9,0.1-1.6-0.3-2.1c-1.7-2-4.7-11.2-5.8-16.2
	c-0.4-1.8,0.1-6.9,0.5-11c0.3-3.5,0.6-5.7,0.4-6.3c-0.3-0.9-1.6-1.7-3.1-2.7l-2.4-1.6c-1.3-1-1.3-2.4-1.4-4l-0.3-2.4
	c-0.6-2.2-11.7-13.5-13.4-13.7c-2.5-0.2-3.1,2.6-3.3,4.2c-0.1,1,1,5.3,2,9.1l1.1,4.6c1.1,7.2,8.8,20,12.1,25.4l1.6,2.6
	c0.7,1.5,0.4,2.8-0.8,3.4c-1.2,0.7-11.2-0.4-16-1.5c-2-0.5-4.6-1.5-7.1-2.5c-2.8-1.1-5.5-2.2-7.1-2.3c-1.8-0.1-2.7,0.3-3.3,0.6
	l-1.1,0.3l-1.1-0.3c-1.3-0.6-3.8-1.7-10.6-2.3c-9.9-0.9-10.6,1.1-11,2.1c-0.5,1.4,5.5,7.8,6.6,8.6c1.4,1.1,5.8,2.8,8.5,2.4
	c3.1-0.5,8.1-1.1,8.8-1l1,0.6l0.9,0.7c0.9,0.4,6.4,0.6,8,0.7c1.9,0.1,7,1.1,10.7,1.9l4.1,0.8C314.2,313.8,318.4,315.8,321.8,317.5
	L321.8,317.5z"/>
<path d="M423.8,189.6c-0.2-0.3-0.4-0.3-0.5-0.3c-0.1,0-0.2,0.1-0.3,0.5c-0.2,1.4-1.9,4.9-3.3,5.4c-2.8,1.1-4.2,4.3-5.2,6.7
	c-0.5,1.2-1.1,2.4-1.5,2.4c-0.2,0-0.4-0.2-0.6-0.6c-1.7-2.9-0.8-7.4,0-11.1l0.2-0.9c0.6-3.1,4.2-7.3,6.3-9.9l0.9-1.1
	c1.5-1.8,1.8-8,1.6-8.4c-0.1,0-0.1,0-0.2,0.1l0,0c0,0-0.1,0.1-0.1,0.1c0,0,0,0,0,0v0c-0.1,0.1-0.2,0.1-0.2,0.4
	c-0.4,1.9-3.9,5.8-9.9,11c-1.2,1.1-2.6,3-3.8,4.5c-0.7,1-1.6,2.2-1.8,2.2c-1.5-7.9,1.2-12.5,2.5-14.7l0.6-1.1
	c2.5-6.9,9.1-12.2,9.2-12.2c0.1-0.2,0.1-0.4-0.1-0.6c-0.2-0.2-0.7-0.1-1.4,0.3l-0.4,0.2c-2.3,1.1-9.2,4.5-13.4,12.6
	c-3,5.8-4.2,12.3-4.2,17.2c0,2.5,0.3,4.6,0.8,6c1.5,4,4.1,13.8,4.9,17.7c0.5,2.4,0.6,10.6,0.6,15.8c0,2.5,0,4.3,0,4.3
	c0,0-1.3,4.2-1.3,4.2c0,0-0.6,3.3-6,8.8c-5.4,5.5-11.4,7.2-11.4,7.3c-2.4,0.2-4.6,0.1-4.7-0.2c0-6.3-10.7-20.9-16.2-25.7
	c-5.6-4.9-10.1-8.4-17.7-13.1c-7.8-4.7-16.4-24.5-16.5-24.7c0,0-0.7-2.7-0.7-2.7s-0.4-5.3-0.5-6.7c0.3,0.2,0.6,0.4,0.6,0.4l2.6,1.5
	c0,0,3,1.2,3,1.2c0,0,4,0.8,4,0.8c0,0,2.2,1.1,2.2,1.1c0,0,2,1.3,2,1.3l3.2,2.3c0,0,3.3,1.7,3.3,1.7c0.1,0,3.9,0.2,3.9,0.2l0.1-0.3
	c0,0-4.5-2.1-4.5-2.1c0-0.1-1.6-2.8-1.6-2.8c0,0-1.9-2.7-1.9-2.7c-0.1,0-2.3-1.4-2.3-1.4c-0.1,0-2.9-0.4-2.9-0.4
	c0,0-0.6-0.5-0.8-0.8c0.2-0.1,0.7-0.4,0.7-0.4c0,0,3.1,0.4,3.1,0.4c0,0,2.7,1.9,2.7,1.9l3,2.3c0,0,2.8,1.1,2.8,1.1l0.4,0.1l-1.2-3.2
	c0-0.1-2.3-2.2-2.3-2.2c0,0-3.4-2.9-3.4-2.9c0,0-2.7-1.4-2.7-1.4c0,0-2.8-1-2.8-1c0,0-3-1.9-3-1.9s0-0.2,0.1-0.4
	c0.4,0.1,4.1,1.7,4.1,1.7c0,0,3.6,1,3.6,1c0,0,3,1.1,3,1.1c0,0,4.3,2.1,4.3,2.1c0,0,3.6,0.8,3.6,0.8c0.1,0,4.4-0.8,4.4-0.8
	c0.1,0,4.2-2.9,4.2-2.9c0-0.1,0.8-1.8,0.8-1.8l0.2-0.4l-1.3,0.6c0,0-3.8,1.9-3.8,1.9l-2.6,0.6c0,0-2.9-0.6-2.9-0.6h0
	c0,0-2.4-2.2-2.4-2.2l-3.4-3.3c0,0-3-1.6-3-1.6c0,0-3.6-0.6-3.6-0.6c0,0-2.2-1.1-2.2-1.1c0,0,0,0,0-0.1c0-0.3-0.1-0.8-0.1-1.1
	c0.4,0,4.5,0.4,4.5,0.4c0,0,4.9-0.4,4.9-0.4c0,0,2.8,0.6,2.8,0.6l2.8,1.2c0,0,2.9,0.4,2.9,0.4l0.5,0.1l-3.2-3.1c0,0-3.2-2.3-3.2-2.3
	c0,0-2.7-1-2.7-1c0,0-4.4-0.4-4.5-0.4c0,0,0-0.1,0-0.2c0-0.3,0-0.6-0.1-0.8c0.3,0,2.1-0.4,2.1-0.4c0,0,3.3,0.8,3.3,0.8
	c0,0,3.1,1.9,3.1,1.9c0,0,3.4,1.2,3.4,1.2c0.1,0,5-0.8,5-0.8l0.3,0l-1.5-2c-0.1-0.1-2.5-0.8-2.5-0.8c0,0-2-1.5-2-1.5l-3-2.1
	c0,0-2.3-0.8-2.3-0.8c0,0-3.6-0.6-3.6-0.6c0,0-1.7-1.6-1.8-1.7c0,0,0.2-0.6,0.2-0.8c0.3,0.1,1.9,0.5,1.9,0.5l2.4,1.1
	c0,0,3.4,1.1,3.4,1.1l-0.8-1.5c0,0-1.3-1.4-1.3-1.4s-0.8-1.1-1.2-1.5c0.2-0.1,0.5-0.1,0.5-0.1c0,0,3.6,1.9,3.6,1.9c0,0,2.8,1,2.8,1
	c0,0,2.2,2.1,2.2,2.1c0,0,4.2,2.4,4.2,2.4l0.4,0.2l-0.8-2c0,0-2.3-2.9-2.3-2.9c0,0-1.9-3.2-1.9-3.2c0,0-3.4-3.5-3.4-3.5
	c0,0-4.4-2.3-4.4-2.3c0,0-1.7-1.9-1.7-1.9s-3-3.1-3-3.1c0,0-0.3-1.1-0.5-1.6c0.5,0.2,2.9,1,2.9,1l3.4,1c0,0,2.4,1.5,2.4,1.5
	c0,0,2,2.5,2,2.5c0.1,0.1,3.3,1.4,3.3,1.4c0,0,8.2,1.1,8.2,1.1l0.5,0.1l-2.2-2.4c-0.1,0-4.4-2-4.4-2l-2.6-1.9c0,0-1.5-2.6-1.5-2.6
	l-1.5-2.7c0,0-2.5-2.3-2.5-2.3c0,0-3-1.8-3-1.8l-3-2.5c0,0-0.7-1.5-1.2-2.5c0.8,0.7,2.1,2,2.1,2l4,3.5c0,0,3.1,1.4,3.1,1.4
	s2.6,2.1,2.6,2.1l3,3.1c0.1,0,4.8,0.7,4.8,0.7l0.6,0.1l-4.8-4.1c0-0.1-1.1-3.4-1.1-3.4c0-0.1-2.5-2.4-2.5-2.4l-1.3-1.5
	c0,0-1.3-4-1.3-4c0-0.1-2.7-2.8-2.7-2.8c0,0-4.3-4-4.3-4c0,0,0,0,0,0c0-0.1-0.1-0.7-0.2-1.1c0.3,0.2,0.8,0.4,0.8,0.4l3.9,2.3
	c0,0,4.7,1.4,4.7,1.4c0,0,4.9,1.2,4.9,1.2c0,0,5.7,0.9,5.7,0.9l-1.3-2.7c-0.1-0.1-2.9-1.2-2.9-1.2l-2.6-1.5c0,0-3.2-1.4-3.2-1.4
	l-2.8-1.2c0,0-1.8-2.4-2.8-3.7c1,0.7,2.5,1.7,2.5,1.7c0.1,0,2.5,0.2,2.5,0.2h7.7c0,0,3.1,1.7,3.1,1.7c0,0,2.7,2.9,2.7,2.9l0.4,0.4
	l-0.3-3.2c0-0.1-1.7-2.2-1.7-2.2c-0.1,0-4.6-2.5-4.6-2.5c0,0-3.6-1.4-3.6-1.4c0,0-5.4-1-5.5-1v0c0,0-1-1.3-1-1.3c0,0-4-3.7-4-3.7
	c0,0-1.9-1-1.9-1c0,0-0.6-0.6-1-1c0.6,0,2,0,2,0c0,0,3.1,1.9,3.1,1.9c0,0,4.2,1.4,4.2,1.4c0,0,5.3,0.8,5.3,0.8h0c0,0,2,2.3,2,2.3
	c0,0,2.9,1.8,2.9,1.8c0.1,0,3.3,0.6,3.3,0.6l0.5,0.1l-6.7-8.2c0,0-3.2-1.8-3.2-1.8c0,0-3.8-1.2-3.8-1.2c0,0-3.3-3.8-3.3-3.8
	c0,0-4.2-2.5-4.2-2.5c0,0-2.4-0.6-3-0.7c0.2-0.3,0.8-1.3,0.8-1.3c0,0,3.3-1.5,3.3-1.5c0,0,4.8-0.9,4.8-0.9c0.1-0.1,0.5-1.3,0.5-1.3
	c-0.1-0.2-2.1-1.5-2.1-1.5c0,0-2.5-0.8-2.5-0.8c-0.1,0-1.5,0.8-1.5,0.8c0,0-4.1,0.2-4.1,0.2l-4.8-1.1c0,0-5-4.2-5-4.2
	c0,0-2.3-1.2-2.3-1.2c-0.1,0-8.3-1-8.3-1c0-0.1-1.9-3-1.9-3c0,0-2.6-2.9-2.6-2.9c0,0-3.4-3-3.4-3l-0.1,0.2l-1.1,2.5
	c0,0-1.1,1.7-1.1,1.7c0,0,0,0,0,0c0,0.3,0.2,2,0.2,2c0,0.1,1.1,1.2,1.2,1.3c-0.1,0-0.4,1.7-0.4,1.8c0-0.1-4.5,0.1-4.5,0.1
	c0,0-3.7-1.7-3.7-1.7c0,0-2.8-1-2.8-1c-0.1,0-6.6,0.2-6.6,0.2c-0.1,0.1-1.3,1.8-1.3,1.8l-0.1,0.2c0,0,2.9,0.4,2.9,0.4
	c0,0,0.4,0.3,0.7,0.4c-0.2,0.2-0.7,0.6-0.7,0.6c0,0-4-0.2-4-0.2c-0.1,0-2.9,1.2-2.9,1.2l-0.3,0.1l1.4,0.9c0.1,0,6.1,0.2,6.1,0.2
	c0,0,4.5,1.1,4.5,1.2l0,0c0,0.1,0.8,1.3,0.8,1.3s0.6,0.8,0.8,1.2c-0.3,0.2-1.9,1.1-1.9,1.1c0,0-5.4,2.3-5.4,2.3
	c0,0-11.3,6.3-11.3,6.3c0,0-7.4,1.1-7.4,1.1c-0.1,0-2.9,1.6-2.9,1.6c-0.1,0-2.4,3.2-2.4,3.2c0,0-1.3,4-1.3,4
	c-0.1,6.7,0.2,6.9,0.3,6.9c0.2,0.1,2.2,1.2,3.7,0.4c1.7-0.9,5.3-1.8,7.2-2.2c0.9-0.2,1.4,0.1,1.4,0.5c0.1,0.4-0.2,0.9-0.9,1.1
	l-0.4,0.1c-3.3,0.9-6.6,2-6.5,3.2l0.6,1c1.5,1.1,5.3,0.6,7.3,0.1l2.1-0.6c1.8-0.6,3.9-1.2,5.6-1c1,0.1,1.9,0.6,3,1.1
	c1.4,0.7,3.1,1.5,5.5,1.6c4.1,0.3,6.9,1.1,7.1,1.3c0.5,1.1,0.2,2.8-0.1,4.1l-0.2,1.2c-1.1,10.4-12.7,22.1-18.3,27.7
	c-1.5,1.5-2.5,2.5-2.7,2.9l-0.6,1.5c-0.5,1.4-1,2.6-2.8,3.3c-1,0.4-3.4,2.2-6.2,4.3c-4,3-9,6.7-10.3,6.5c-2.3-0.3-13-7.6-13.4-8.1
	c-10.4-10.1-14.7-8-17.4-6.8l-0.4,0.2c-3.1,1.4-6.4,10.2-6.7,12.1l-1.3,5.4l-1,4c-0.3,1.3-1.6,4.6-2.8,7.8l-2.5,6.9
	c-0.4,1.6-1.4,3.9-2.2,5.7l-1.1,2.7c-0.8,3.2-0.8,20.6,0.6,22.1l0.1,0.1l0.3,0.1c1.4-0.1,4.3-3.1,5.6-4.6l0.3-0.3
	c1.2-1.2,2.4-4.3,2.4-5.7c0-1.3-0.6-4-0.8-4.8c-1.9-5.7-1.2-11.2-0.8-13.9l0.1-1.2c0.1-1.2,1.3-2.6,2.5-3.9l1.5-1.7
	c0.8-1.1,1.7-1.5,2.5-1.8l1.3-0.8l0.2-0.2c0.9-0.9,2.4-2.4,3-4.4l1.3-5.5l0.3-1.5c0.1-0.3,0.2-0.5,0.5-0.5c0.5-0.1,1.3,0.3,1.6,0.7
	l9.2,10.7c2.4,2,4.8,4.4,4.8,4.9c0,0,0,0,0,0c0,0-0.1,0-0.1,0c-1.3,0.1-7.8-1.2-8.9-1.6c-8.8-2.6-12.8-2.1-15.9,1.8
	c-3.5,4.4-2.4,18.1-1.7,19.6c0.7,1.4,3.9,18,4,20.2c0.1,2.2,1,6,1.9,6.9l0.2,0.2c1.1,1.1,3.9,4,4.5,6.8c0.5,3.1,7.1,11.4,9.6,12.1
	c0.4,0.1,0.8,0,1.1-0.2c1.9-1.4,2.8-8,2.9-10.8c0.1-3.5-1.1-5.2-2.4-7l-0.5-0.7c-1-1.3-2.7-1.8-3.8-2.1c-0.5-0.1-1.1-0.3-1.1-0.4
	c0-0.1-0.1-5.2-1.8-6.1c-1.3-0.8-2.6-5.7-2.7-7.6c-0.1-1.9-0.9-6.3-1.8-8.3c-1-2-1.8-5.6-1.4-8.4c0.2-1.2,1-1.6,1.7-1.7
	c1.2-0.2,2.6,0.3,2.8,0.8c0.5,1,9.8,6.6,12.9,7.8c1.9,0.7,4.6,3,6.9,4.9c1.7,1.4,3.1,2.6,4,3c1.2,0.6,4.6,0.6,7.3,0.7
	c1.4,0,3,0.1,3.2,0.2c-1.1,0.4-1.1,2.4-1,3c1.1,8,30.3,30.1,32.6,31.3c2.6,1.4,12,11.2,12.8,12.5c0.8,1.3,1.7,2.8,1.5,3.8
	c-0.2,1.6,0.4,3.5,1.7,5c1.3,1.4,2.9,2.3,4.4,2.3c1.3,0,2.2-1.2,2.8-2l0.1-0.2c1.7-2.3,4.3-5.7,4.7-11c0.4-5.4,2.8-7.6,3.6-7.7
	c0.4-0.1,0.6,0.1,0.7,0.3c0.1,0.2,0,0.7-0.5,1c-1.1,0.7-1.7,3.1-2.5,5.7c0,0-0.3,2.6-0.3,2.6c-0.1,1.9-0.1,4.1-2.1,6.3
	c-2.9,3.1-6.2,10.4-7.1,19.5c-0.5,5.5,2,13.5,7.4,23.6l0.4,0.7l1.5,2.4c1.5,2.4,3.9,6.3,3.8,7.3c-0.2,1.3-0.3,2.3-2.5,5.2
	c-2.5,3.1-11.5,13.6-12.4,13.8c-1.8,0-2.1,0.2-3.5,1.3l-1.5,1.1c-1.7,1.2-2,2.1-2.2,2.9c-0.2,0.6-0.4,1.1-1.2,1.7l-0.6,0.4
	c-0.1,0.1-0.4,0.6-4.1,4.2c-4.2,4.1-6,8.8-5.4,13.4c0.2,1.4,1.4,1.9,5.2,2.1c3.7,0.2,12.1-5.7,12.5-7.7l0.1-0.7
	c0.3-1.7,0.9-4.7,1.8-5.1c1.2-0.5,3.1-2.8,4.6-4.4l0.3-0.3c0.8-0.9,1-1.8,1.1-2.6c0.2-0.7,0.3-1.3,0.7-2c0.3-0.4,0.8-0.7,1.4-1
	c1.1-0.5,2.5-1.2,3.6-3.8c1-2.5,7.1-6.9,11.5-10c2.3-1.6,4-2.9,4.5-3.5c0.6-0.7,0.9-2.2,0.9-3.8c0-1.8-0.5-3.8-1.6-4.9
	c-1.7-1.6-3.2-6.2-3.7-7.6c0,0,0,0,0,0c0-0.6-0.1-1.7-0.1-3.8c0-0.1,0-0.2,0-0.3c0-5.4,8.1-10.7,11.6-13l1.6-1.1
	c12.6-11.1,15.1-19.6,15.6-21.9l0.3-2.8c0.1-1.9,0.1-3.8,1.3-4c0.5-0.1,1.2,0.3,1.7,0.8c0.3,0.3,0.7,0.9,0.4,1.6
	c-0.6,1.6-0.8,17.3-0.8,17.9c0,0.1,1.4,1.7,1.4,1.7l0.2,0.3l0.1-0.4c0-0.2,0.7-4.4,0.7-6c0-1.7,2.7-8.9,3.4-9.1c0,0,0,0.1,0,0.1
	c0.3,1,0.7,3.5,0.7,6.1c0,2.6-0.4,5.3-1.6,6.8c-1.9,2.3-3.4,6-4.4,8.5l-0.9,2.1c-0.1,0.2-0.1,0.5-0.1,0.9c0,2,1,6.2,1.7,7
	c0.2,0.2,0.3,0.2,0.4,0.2c0.2-0.1,0.4-0.4,0.4-2c0-6.3,5.3-11,5.4-11c4.7-3.7,5.7-10.7,5.7-15.9c0-4-0.6-7-0.6-7.1
	c0-0.1-2.2-3.2-2.3-3.3c0.1,0.1,0.7-0.4,0.9-0.6c0.2,0.3,2.3,3.1,2.3,3.1c0.4,0.5,1.3,2,1.3,2.6c0,3.2,0.5,5.5,0.9,7.1l0.1,0.4
	c0.4,1.8,2.7,7.3,2.8,7.5l0.2,0.6l0.1-0.6c0,0,0.4-2.9,0-5.4c-0.2-1.4,0.1-3.1,0.3-4.9l0.4-4.2c0-3.5-0.5-5.6-1.7-7.6l-0.6-1
	c-0.2-0.4-0.5-0.8-0.5-0.8l0.5-0.2c9.9-3.4,14.6-10.7,16.4-14.7c2-4.3,2.1-10.9,2.1-12.2c0-1.7-0.1-10.2-1.5-14.7
	c-0.8-2.6-0.6-5.4-0.3-8.4l0.3-5.2c0-3.5,1.9-6.2,3.7-8.7l2.1-3.3C425.1,192.7,424.4,190.3,423.8,189.6L423.8,189.6z"/>
<path d="M312.7,79c0.2,0,2.3-1,2.3-1c0.1-0.2-0.4-2.2-0.4-2.2c0-0.1-4.6-5.4-4.6-5.4l-0.2-0.3l-0.1,0.3l-0.5,2.2
	c0,0-1.5,3.5-1.5,3.5l-0.1,0.1l3.1,1.6C310.7,77.8,312.7,79,312.7,79L312.7,79z"/>
<path fill="#FFFFFF" d="M313.6,92.9c0.5,0.2,1.2,0.1,1.9-0.2c1.1-0.5,1.7-1.3,1.4-2l-0.5-0.4c-0.5-0.2-1.2-0.1-1.9,0.2
	c-0.9,0.4-1.5,1.1-1.5,1.7c0,0.1,0,0.2,0.1,0.3L313.6,92.9L313.6,92.9z"/>
<path fill="#FFFFFF" d="M332,85.3l0.9,0.5c0.2,0.3,0.4,0.5,0.8,0.6c0.4,0.1,0.7,0,1.1-0.3c0.2-0.2,0.3-0.5,0.1-1
	c-0.2-0.7-1-1.5-1.8-1.5c-1.1,0-2,0.1-2,0.9C331,84.9,331.5,85.1,332,85.3L332,85.3z"/>
<path fill="#FFFFFF" d="M333,88.4c-0.4,0.3-0.6,0.7-0.5,1.1l0.1,0.3c0.1,0.4,0.1,0.5,0.5,0.5l0.7,0.1c0.9,0.2,2.2-0.3,2.5-1
	c0.1-0.2,0.2-0.7-0.4-1.1C334.9,87.7,333.7,87.9,333,88.4L333,88.4z"/>
<path fill="#FFFFFF" d="M335.8,100.3c-0.2-0.1-0.1-0.5,0-1.1c0.2-0.5,0.3-0.9,0-1.2c-0.2-0.2-0.6-0.2-1.2,0.1
	c-2.3,0.8-2.6,3.1-2.9,4.8l-0.1,0.5c-0.1,0.8,0.3,1,0.5,1.1c0.8,0.3,2.2-0.4,2.5-1c0.4-0.6,2.3-1.1,3.7-1.5l0.6-0.1
	c0.7-0.2,1-0.4,1.1-0.8c0.1-0.5-0.4-0.9-0.9-1.1c-0.4-0.2-1-0.1-1.7,0.1C336.9,100.3,336.2,100.5,335.8,100.3L335.8,100.3z"/>
<path fill="#FFFFFF" d="M311.7,101.1c0.5,0,0.9-0.2,1.1-0.6c0.7-1.1,0.8-2.6,0.1-4c-0.7-1.3-1.8-2.2-3-2.2l0,0l-0.3,0l-2.2,0.2
	c-1.2,0.3-2.2,1.1-2.5,2c-0.1,0.4-0.1,0.8,0.2,1.1C307,99.4,310,101.3,311.7,101.1L311.7,101.1z"/>
<path fill="#FFFFFF" d="M290.2,99.4c0.3,0.6,1.5,0.7,3.2,0.2l0.4-0.1l3.2-1.2l4.6-3c0.1-0.1,1.3-1,1.1-1.6c-0.2-0.4-0.8-0.3-1.2-0.2
	c-1.3,0.2-2.5,0.8-3.8,1.5l-1.9,0.9l-0.8,0.3C292.1,97.3,289.8,98.3,290.2,99.4L290.2,99.4z"/>
<path fill="#FFFFFF" d="M280.6,102.7c-1,0-1.4,0.5-1.7,1l-0.4,0.5c-0.7,0.6-1,2.1-0.9,3.3c0,0.5,0.2,1.3,0.6,1.6
	c0.9,0.6,1.3,0.2,2.3-0.7c0.1-0.1,0.7-0.6,0.7-0.6c0.9-0.8,2-1.6,2.1-3c0.1-0.6-0.1-1-0.4-1.4C282.3,102.9,281.3,102.7,280.6,102.7
	L280.6,102.7z"/>
<path fill="#FFFFFF" d="M285.8,103.2c-0.3-0.1-0.4,0-0.5,0.1c-0.3,0.3-0.2,0.8-0.1,1.3l0.1,0.3l-0.1,0.2c-0.1,0.2-0.1,0.4,0,0.6
	c0.1,0.2,0.4,0.3,0.9,0.3c0.6,0,0.7-0.1,0.9-0.6l0.2-0.4c0.1-0.4,0.2-0.7,0-1C286.9,103.4,286.3,103.2,285.8,103.2L285.8,103.2z"/>
<path fill="#FFFFFF" d="M290.9,111.4c0.7,0,1.2-0.6,1.2-1.3c0-0.7-0.6-1.3-1.2-1.3s-1.2,0.6-1.2,1.3
	C289.7,110.8,290.2,111.4,290.9,111.4L290.9,111.4z"/>
<path fill="#FFFFFF" d="M313.8,108.3c-0.3-0.1-0.7,0.1-1,0.4c-0.3,0.4-2.4,1.8-3.9,2.9l-1.9,1.4l-0.2,0.1c-0.2,0.2-0.4,0.4-0.2,0.8
	l0.2,0.3l0.5-0.1l0.8-0.3l1.1-0.2c1.1-0.1,2.3-0.3,2.8-0.9l0.7-1.2l1.1-1.7c0.5-0.6,0.5-1,0.5-1.2
	C314.3,108.5,314.1,108.4,313.8,108.3L313.8,108.3z"/>
<path fill="#FFFFFF" d="M316.1,115.3c0,0.6,0.3,0.9,0.5,1c0.5,0.3,1.2,0,1.6-0.6l1.4-1.2c0.8-0.6,1.6-1.2,2.4-2.1
	c0.7-0.9,0.4-1.4,0.1-1.7c-0.5-0.5-1.5-0.6-1.8-0.3l-0.4,0.3c-0.9,0.6-3.1,2-3.6,3.7C316.2,114.8,316.1,115.1,316.1,115.3
	L316.1,115.3z"/>
<path fill="#FFFFFF" d="M325.2,114.6c-0.3-0.4-0.8-0.6-1.1-0.4l-1,0.7c-0.7,0.6-1.6,1.3-2.3,1.5c-1.8,0.5-4.3,1.3-4.4,2.6
	c0,0.1,0,0.1,0,0.2c0,0.3,0.2,0.5,0.3,0.7c0.7,0.6,2.4,0.2,3.6-0.2c1.9-0.7,3-1.5,4.5-2.9C325.6,115.9,325.6,115.1,325.2,114.6
	L325.2,114.6z"/>
<path fill="#FFFFFF" d="M318.1,129.1l-0.6-0.1c-1.5,0.4-4.2,4.9-6,8.3l-0.3,0.6l-5.5,10.3l-1.7,3.3c-0.2,0.3-0.1,0.7,0.2,1
	c0.3,0.3,0.7,0.4,1.3,0.1c0.9-0.6,4.3-3.9,5.8-6.6l2.1-2.9c1.3-1.7,2.8-3.7,3.7-6l0.3-0.8C319.5,130.9,319.8,130.1,318.1,129.1
	L318.1,129.1z"/>
<path fill="#FFFFFF" d="M338.9,109.2c-0.7,0-1.2,0.5-1.2,1.2s0.6,1.2,1.2,1.2c0.7,0,1.2-0.5,1.2-1.2S339.6,109.2,338.9,109.2
	L338.9,109.2z"/>
<path fill="#FFFFFF" d="M338.3,114c0,0.6,0.5,1.2,1.2,1.2c0.7,0,1.2-0.5,1.2-1.2c0-0.6-0.5-1.2-1.2-1.2
	C338.8,112.9,338.3,113.4,338.3,114L338.3,114z"/>
<path fill="#FFFFFF" d="M339.4,116.6c-0.8,0-1.4,0.5-1.4,1.1c0,0.6,0.6,1.1,1.4,1.1c0.8,0,1.4-0.5,1.4-1.1
	C340.8,117.1,340.2,116.6,339.4,116.6L339.4,116.6z"/>
<path fill="#FFFFFF" d="M339.4,119.9c-0.9,0-1.6,0.6-1.6,1.2c0,0.7,0.7,1.2,1.6,1.2c0.9,0,1.6-0.6,1.6-1.2
	C340.9,120.4,340.2,119.9,339.4,119.9L339.4,119.9z"/>
<path fill="#FFFFFF" d="M339.4,124c-1,0-1.8,0.6-1.8,1.3c0,0.7,0.8,1.3,1.8,1.3c1,0,1.8-0.6,1.8-1.3
	C341.2,124.6,340.4,124,339.4,124L339.4,124z"/>
<path fill="#FFFFFF" d="M338.8,130.9c1.1-0.1,1.9-0.7,1.8-1.4l-0.4-0.6c-0.4-0.3-1-0.5-1.7-0.4c-1.1,0.1-1.8,0.7-1.8,1.3
	c0,0,0,0.1,0,0.1l0.4,0.6C337.5,130.8,338.1,130.9,338.8,130.9L338.8,130.9z"/>
<path fill="#FFFFFF" d="M336.4,134.3L336.4,134.3L336.4,134.3z"/>
<path fill="#FFFFFF" d="M338.8,135.2c1.2-0.2,2.1-0.9,2-1.6l-0.4-0.6c-0.4-0.3-1.2-0.5-2-0.3c-1.2,0.2-2.1,0.9-2,1.6l0.4,0.6
	C337.2,135.2,338,135.3,338.8,135.2L338.8,135.2z"/>
<path fill="#FFFFFF" d="M336.7,137.3c0,0.8,0.9,1.4,2.1,1.4c1.2,0,2.1-0.6,2.1-1.4s-0.9-1.4-2.1-1.4
	C337.6,135.9,336.7,136.5,336.7,137.3L336.7,137.3z"/>
<path fill="#FFFFFF" d="M340.5,141.7c0-0.8-1.1-1.4-2.5-1.4c-1.4,0-2.5,0.6-2.5,1.4c0,0.8,1.1,1.4,2.5,1.4
	C339.4,143.1,340.5,142.5,340.5,141.7L340.5,141.7z"/>
<path fill="#FFFFFF" d="M338.9,145.5c0-0.8-0.8-1.4-1.8-1.4c-1,0-1.8,0.6-1.8,1.4c0,0.8,0.8,1.4,1.8,1.4
	C338,146.9,338.9,146.2,338.9,145.5L338.9,145.5z"/>
<path fill="#FFFFFF" d="M338,150.1c0-0.9-0.9-1.6-1.9-1.6c-1.1,0-1.9,0.7-1.9,1.6c0,0.9,0.9,1.6,1.9,1.6
	C337.1,151.7,338,151,338,150.1L338,150.1z"/>
<path fill="#FFFFFF" d="M336.4,154.7c0-0.8-0.7-1.4-1.6-1.4c-0.9,0-1.6,0.6-1.6,1.4c0,0.8,0.7,1.4,1.6,1.4
	C335.7,156.1,336.4,155.5,336.4,154.7L336.4,154.7z"/>
<path fill="#FFFFFF" d="M333.7,157.4c-0.8,0-1.5,0.6-1.5,1.4c0,0.8,0.7,1.4,1.5,1.4c0.8,0,1.5-0.6,1.5-1.4
	C335.2,158,334.5,157.4,333.7,157.4L333.7,157.4z"/>
<path fill="#FFFFFF" d="M332.4,164.2c0.9,0,1.6-0.5,1.6-1.2c0-0.7-0.7-1.2-1.6-1.2c-0.9,0-1.6,0.5-1.6,1.2
	C330.8,163.6,331.5,164.2,332.4,164.2L332.4,164.2z"/>
<path fill="#FFFFFF" d="M331,167.2c0.8,0,1.4-0.5,1.4-1c0-0.6-0.6-1-1.4-1c-0.8,0-1.5,0.5-1.5,1C329.5,166.7,330.1,167.2,331,167.2
	L331,167.2z"/>
<path fill="#FFFFFF" d="M329.5,170c0.8,0,1.4-0.5,1.4-1c0-0.6-0.6-1-1.4-1c-0.8,0-1.4,0.5-1.4,1C328.1,169.6,328.8,170,329.5,170
	L329.5,170z"/>
<path fill="#FFFFFF" d="M288.3,167.5l0.2,0l1.9-0.3c1.7-0.4,4.2-0.9,7.4-1c2.3-0.1,4.8,0.7,6.6,1.3c1.6,0.5,2.5,0.8,2.8,0.4
	c0.2-0.2,0.1-0.6,0-0.8c-0.5-1.1-2.6-4.5-9.7-4.7c-4.6-0.1-8.3,3-9.1,4.3c-0.2,0.3-0.2,0.5-0.1,0.6L288.3,167.5L288.3,167.5z"/>
<path fill="#FFFFFF" d="M314.5,180.7c0.5-0.3,0.6-0.8,0.6-1.5c-0.1-2.8-0.9-3.2-2.5-3.2c-1.6,0-2.7,1.6-2.7,2.4c0,0.8,0.6,1.5,1.7,2
	C312.2,180.8,313.6,181.3,314.5,180.7L314.5,180.7z"/>
<path fill="#FFFFFF" d="M336,215.5c2.3,1.1,3.1,1.4,3.4,1.5c0,0,0,0,0,0s0,0,0,0c0.2,0,0.2,0,0.2,0c0,0-0.1-0.1-0.1-0.2
	c0,0,0-0.1,0-0.1s-0.1-0.1-0.1-0.1c-1.5-1.9-10.5-14.7-12.5-23.2c-0.3-1.4-0.7-2.7-1.6-3.2c-0.5-0.3-1.2-0.3-1.9,0l0,0
	c-0.2,0-0.3,0.2-0.4,0.4c-0.1,0.2-0.1,0.4-0.1,0.7c0,3,3.2,11.3,4.3,13C333.1,213.9,335.9,215.4,336,215.5L336,215.5z"/>
<path fill="#FFFFFF" d="M409.9,219.2l-0.3,0.1c0,0.1,0.1,2.6,0.1,5.8c0,4.7-0.2,11-1,13.9c-0.7,2.3-3.7,6.7-6.2,10.2
	c0,0-2.9,4.3-2.9,4.3c-0.1,0.1-0.1,0.3-0.1,0.5c0,0.4,0.2,0.8,0.6,1.1c0.3,0.2,1.3,0.7,2.8-1l1.8-1.9c2.4-2.4,5.5-5.5,7.6-12.1
	C414.6,232.6,409.9,219.3,409.9,219.2L409.9,219.2z"/>
<path fill="#FFFFFF" d="M333.8,243c0.2,0.2,0.6,0.3,1,0.1c0.5-0.2,1-0.6,1-1.3c0.1-0.9,0.7-2.1,1.7-3.2c0.9-1,1.1-2.8-0.2-4
	l-1.2-0.5c-0.8,0-1.4,0.7-1.4,0.7c0,0.1-1.2,5.8-1.2,5.8v0C333.4,240.9,333.3,242.5,333.8,243L333.8,243z"/>
<path fill="#FFFFFF" d="M373.2,264.5L373.2,264.5h-0.1c0,0-1.1,0.5-1.4,1.5c-0.2,0.7,0.2,1.3,0.5,1.7l0.3,0.6l0.1,1.3l0.2,1.9
	c0.1,0.4,0.5,0.7,0.9,0.6c0.5,0,1-0.4,1.2-1.1c0.2-1,0.4-2.4,0.4-4.2C375.4,265.2,373.3,264.5,373.2,264.5L373.2,264.5z"/>
<path fill="#FFFFFF" d="M312.1,249.3c-0.1-0.2-14.6-15.8-17.7-19.9c-3.2-4.2-4.7-4.5-6.3-3.7c-0.2,0.1-0.4,0.4-0.4,0.6
	c-0.2,1.7,3.4,5.8,6.5,8.9c4.4,4.2,17.5,14.2,17.6,14.3L312.1,249.3L312.1,249.3z"/>
<path fill="#FFFFFF" d="M255.5,203.1c-2.9-1.8-8-2.8-8-2.8l-0.1,0.3l5.6,4.2c0.9,0.8,5,3.3,6.3,2.3c0.2-0.2,0.3-0.4,0.3-0.6
	C259.5,205.7,258,204.7,255.5,203.1L255.5,203.1z"/>
<path fill="#FFFFFF" d="M254.1,179.1l0.4-0.2c0.5-0.6-0.7-2.2-2.1-3.5c-1.3-1.2-2.6-1.9-3.2-1.9l-0.4,0.2c-0.1,0.1-0.1,0.2-0.1,0.4
	c0,0.7,1,2,2.2,3.1C252.1,178.4,253.4,179.1,254.1,179.1L254.1,179.1z"/>
<path fill="#FFFFFF" d="M269.1,177l-0.6,0c-1.1,0.5-2.8,3.2-4.2,6.7c-1,2.5-1.7,5.2-1.7,6.8c0,0.8,0.2,1.3,0.5,1.4l0.6,0
	c1.1-0.5,2.8-3.2,4.2-6.7c1-2.5,1.7-5.2,1.7-6.8C269.6,177.7,269.5,177.2,269.1,177L269.1,177z"/>
<path fill="#FFFFFF" d="M242.1,159.9c-1.4,0-2.5,0.7-2.5,1.5c0,0.8,1.1,1.5,2.5,1.5c1.4,0,2.5-0.7,2.5-1.5
	C244.6,160.6,243.5,159.9,242.1,159.9L242.1,159.9z"/>
<path fill="#FFFFFF" d="M233.1,178.6l0.4,0c0.8-0.4,1.9-2.4,2.8-5c0.9-2.8,1.4-5.7,0.5-6l-0.4,0c-0.8,0.4-1.9,2.4-2.8,5
	C232.7,175.4,232.2,178.3,233.1,178.6L233.1,178.6z"/>
<path fill="#FFFFFF" d="M235.4,192.9c0.7-1,0.9-2.1,0.3-2.6l-0.6-0.1c-0.5,0.1-1.2,0.5-1.7,1.2c-0.8,1-0.9,2.1-0.4,2.5l0.6,0.1
	C234.3,194,235,193.5,235.4,192.9L235.4,192.9z"/>
<path fill="#FFFFFF" d="M234.6,208.4L234.6,208.4l-0.3-0.1c-1,0.2-0.3,4.6,0.2,7c0.7,3.2,1.7,5.8,2.4,6.3l0.1,0l0.3,0
	c1-0.2,0.3-4.7-0.2-7C236.3,211.5,235.3,208.9,234.6,208.4L234.6,208.4z"/>
<path fill="#FFFFFF" d="M224.4,214.4c-0.8,0-1.5,0.6-1.5,1.4c0,0.7,0.7,1.3,1.5,1.3c0.8,0,1.5-0.6,1.5-1.3
	C225.9,215,225.2,214.4,224.4,214.4L224.4,214.4z"/>
<path fill="#FFFFFF" d="M249.4,246.3c-0.9,0-1.7,0.8-1.7,1.7c0,0.9,0.8,1.7,1.7,1.7c1,0,1.7-0.7,1.7-1.7
	C251.1,247.1,250.4,246.3,249.4,246.3L249.4,246.3z"/>
<path fill="#FFFFFF" d="M334,290.8c0.1,0.1,0.2,0.4,0.4,0.3l0.1,0l0.2-0.3l1.6-4.7l1.2-3.2l1-2.4c0.3-0.8,0.3-1.4,0-1.7
	c-0.5-0.5-1.5-0.1-1.7,0c-0.1,0.1-2.9,4.8-2.9,4.8c-0.6,0.8-0.8,2-0.8,3.2C333.2,288.6,333.6,290.2,334,290.8L334,290.8z"/>
<path fill="#FFFFFF" d="M341.1,314.4l0.1-0.5c0-0.3,0.9-6.9-1.1-9.4c-0.5-0.6-1.1-0.9-1.7-1c-0.6-0.1-1,0.1-1.3,0.5
	c-1.2,2,3.6,9.6,3.8,9.9L341.1,314.4L341.1,314.4z"/>
<path fill="#FFFFFF" d="M352.4,327c-1,0-1.8,0.8-1.8,1.8c0,1,0.8,1.7,1.8,1.7c1,0,1.8-0.7,1.8-1.7C354.2,327.7,353.4,327,352.4,327
	L352.4,327z"/>
<path fill="#FFFFFF" d="M325.7,305.8c-0.8,0-1.5,0.6-1.5,1.4c0,0.8,0.7,1.5,1.5,1.5c0.9,0,1.5-0.6,1.5-1.5
	C327.3,306.4,326.6,305.8,325.7,305.8L325.7,305.8z"/>
<path fill="#FFFFFF" d="M345.2,331.4l-0.2,0c-0.9,0-4.4,3.1-7.4,6.1c-0.3,0.3-6.7,6.9-5.9,7.8l0,0.1l0.2,0c0.9,0,4.4-3,7.4-6.1
	C339.7,339,346.1,332.4,345.2,331.4L345.2,331.4L345.2,331.4z"/>
<path fill="#FFFFFF" d="M325.8,349.3c-0.5,0-1.4,0.5-2.1,1.3c-0.9,0.9-1.5,2.1-1.1,2.6l0,0l0,0l0.5,0.2c0.6,0,1.4-0.5,2.1-1.3
	c0.9-0.9,1.6-2.1,1-2.6L325.8,349.3L325.8,349.3z"/>
<path fill="#FFFFFF" d="M317.3,361.5c-0.7,0-1.6,0.5-2.4,1.4c-0.9,0.9-1.3,1.8-1.3,2.5c0,0.2,0.1,0.5,0.2,0.6l0.6,0.2
	c0.6,0,1.6-0.5,2.4-1.4c1.2-1.2,1.7-2.5,1.1-3.1L317.3,361.5L317.3,361.5z"/>
<path fill="#FFFFFF" d="M272.9,299.9c-1.3,0-2.3,0.7-2.3,1.6c0,0.9,1,1.6,2.3,1.6c1.3,0,2.3-0.7,2.3-1.6
	C275.2,300.6,274.2,299.9,272.9,299.9L272.9,299.9z"/>
<path fill="#FFFFFF" d="M291.7,301.2c-0.9,0-1.6,0.5-1.6,1.1c0,0.6,0.7,1.1,1.6,1.1c0.9,0,1.6-0.5,1.6-1.1
	C293.3,301.7,292.6,301.2,291.7,301.2L291.7,301.2z"/>
<path fill="#FFFFFF" d="M314.7,308.9l0.1-0.2c0.3-1.1-5.2-2.8-8-3.5c-3.5-0.9-7.6-1.6-8.5-1.1l-0.1,0.1l-0.1,0.2
	c-0.3,1.1,5.2,2.8,8,3.5C309.6,308.8,313.7,309.5,314.7,308.9L314.7,308.9L314.7,308.9z"/>
</svg>
