<?xml version="1.0" encoding="utf-8"?>
<!-- Generator: Adobe Illustrator 20.1.0, SVG Export Plug-In . SVG Version: 6.00 Build 0)  -->
<svg version="1.1" id="Layer_1" xmlns="http://www.w3.org/2000/svg" xmlns:xlink="http://www.w3.org/1999/xlink" x="0px" y="0px"
	 viewBox="0 0 640 480" style="enable-background:new 0 0 640 480;" xml:space="preserve">
<path d="M330.3,151.1l-24.1,162.8h155l24.1-162.8H330.3L330.3,151.1z M345.5,283.1l44.4-101.8h22.5l21.4,101.8h-15.7l-4.7-23.5
	h-40.2l-10.4,23.5L345.5,283.1L345.5,283.1z"/>
<path d="M378.4,246.6h31.8l-10.4-48L378.4,246.6z M175.3,151.1l-24.1,162.8h146l24.7-162.8H175.3z M236.1,181.4h16.9l-15.2,101.8
	h-16.3L236.1,181.4L236.1,181.4z M494.2,151.1L470,313.9h146l24.1-162.8H494.2z M531.3,181.3H595l-2.3,16.2h-24.6l-12.9,85.6h-16.2
	l12.4-85.6h-22.9L531.3,181.3L531.3,181.3z M26.7,151.1L2,313.9h140.4l24.1-162.8H26.7z M63.5,181.3h63.2l-2.2,16.2H78.1l-4.5,30.2
	H120l-2.8,16.2H70.8l-5.6,39.2H48.4C49,283.1,63.5,181.3,63.5,181.3L63.5,181.3z"/>
</svg>
