<?xml version="1.0" encoding="utf-8"?>
<!-- Generator: Adobe Illustrator 22.1.0, SVG Export Plug-In . SVG Version: 6.00 Build 0)  -->
<svg version="1.1" id="Layer_1" xmlns="http://www.w3.org/2000/svg" xmlns:xlink="http://www.w3.org/1999/xlink" x="0px" y="0px"
	 viewBox="0 0 1920 1080" style="enable-background:new 0 0 1920 1080;" xml:space="preserve">
<style type="text/css">
	.st0{fill:#226B95;}
</style>
<g>
	<g>
		<path class="st0" d="M1036.2,396.9c-11.7-1.1-21.2,3.3-28.6,11.2c-4-7.5-10-13.7-17.3-17.9c9.4-8,12.6-18.9,10.9-31.5
			c-1.8-13.9-10.9-22.1-23.5-27.6c18.3-9.8,25.4-22.4,22.1-38.7c-2.8-13.8-14.4-24.5-28.2-25.9c-15.5-1.6-29.3,6.4-34.7,20.5
			c-3.3,8.7-3.1,17.5,0.9,26.2c4,8.5,10.8,13.8,20.2,17.9c-14,5.5-22,14.7-25,28.5c-1.1-1.3-1.7-2.5-2-3.8
			c-4.7-16.1-22.4-25.3-38.1-19.9c-14,4.9-21.7,17.8-19.8,33.6c1.5,12.9,13,23.2,27.5,24.7c13.1,1.4,26.1-7.6,30.4-21.1
			c0.4-1.3,1.2-2.5,1.9-3.8c1.9,9.1,6.8,15.8,12.3,21.2c-7.2,4.3-13.1,10.6-17,18.1c-18.4-15-35.7-15.9-49.2-2.2
			c-12,12.1-12.8,31.5-1.8,44.6c5.6,6.7,12.9,10.4,21.5,11.4c12.4,1.4,22.3-3.5,29.9-12.2c4,7.5,10.1,13.7,17.6,17.9
			c-6.5,5.8-11.2,13.2-13.2,22.5c-2.8-8.2-6.5-15.3-13.6-20.1c-7.3-4.9-15.4-6.4-23.8-4.4c-13.1,3.2-22.3,14.2-22.7,26.5
			c-0.5,14.6,6.4,26.6,18.7,30.3c21.3,6.4,34.4-3,41.6-23.4c2.8,14.1,10.9,23.4,24.1,28.7c-20.2,13.2-25.8,24.6-21.2,41.8
			c3.5,12.9,15.9,22.6,29.8,23.5c13.8,0.9,27-7.6,32.3-20.7c2.7-6.7,3.2-13.5,1.3-20.6c-2.9-11.3-10.5-18.5-21.9-23.7
			c13.2-5.9,21.9-14.2,23.6-27.9c1.7-13.3-2.4-24.5-11.2-31.8c0.8-0.8,1.6-1.5,2.4-2.3c4.5-3,8.5-6.8,11.7-11.1
			c1.3-1.2,2.6-2.5,3.9-3.7c17.4,14.3,34.3,15.3,48.3,1.1c12-12.2,12.6-32,1.5-44.6C1052.1,401.5,1044.8,397.7,1036.2,396.9z"/>
		<path class="st0" d="M1032.9,394.3c16.7-0.2,29.6-13.2,29.6-29.9c0-16.7-12.9-29.8-29.5-30c-16.2-0.2-30.1,13.5-30.2,29.6
			C1002.7,380.5,1016.6,394.5,1032.9,394.3z"/>
		<path class="st0" d="M1032.5,465.3c-16.4,0-29.8,13.5-29.8,29.9c0,16.4,13.4,29.6,30,29.6c16.9,0,29.7-12.8,29.7-29.6
			C1062.4,478,1049.7,465.3,1032.5,465.3z"/>
		<path class="st0" d="M837.4,400.3c-16.6-0.2-29.4,12.4-29.7,29.1c-0.2,16.4,12.7,29.8,29,29.9c16.3,0.1,29.4-12.9,29.6-29.5
			C866.6,413.7,853.5,400.4,837.4,400.3z"/>
		<path class="st0" d="M1098.2,400.3c-16.6,0-29.3,12.7-29.3,29.4c0,16.7,12.9,29.7,29.3,29.6c16.3-0.1,29.2-13.3,29.2-29.8
			C1127.4,413.2,1114.4,400.3,1098.2,400.3z"/>
		<path class="st0" d="M1032.9,532.5c-14.9-0.2-27.7,12.6-27.7,27.7c0,15.6,11.9,27.7,27.3,27.7c15.9,0,28.3-12.1,28.2-27.5
			C1060.6,545.3,1047.9,532.7,1032.9,532.5z"/>
		<path class="st0" d="M902.6,532.5c-15.2-0.3-28,12.6-28,27.9c0.1,15.5,12,27.5,27.6,27.5c15.4,0,27.6-11.8,27.7-26.8
			C930.1,545.4,918,532.7,902.6,532.5z"/>
		<path class="st0" d="M1032.5,326.5c15.6,0.1,27.9-11.7,28.1-27c0.2-15.2-12.4-28-27.8-28.2c-15.1-0.1-27.6,12.4-27.6,27.6
			C1005.2,314.4,1017,326.4,1032.5,326.5z"/>
		<path class="st0" d="M903.5,326.5c14.8-0.3,26.6-12.6,26.5-27.5c-0.1-15.5-12.9-28.1-28.1-27.7c-15.5,0.5-27.4,12.8-27.2,28
			C875,315.3,887.1,326.8,903.5,326.5z"/>
		<path class="st0" d="M967.6,261.1c15.2,0.1,27.1-11.9,27.1-27.3c0-15.3-12.1-27.5-27.1-27.5c-14.9,0-27.4,12.5-27.4,27.5
			C940.3,248.8,952.5,261,967.6,261.1z"/>
		<path class="st0" d="M967.6,598.7c-15.6,0-27.4,11.7-27.3,27c0,15.1,12.2,27.2,27.3,27.2c15.3,0,27.2-11.9,27.2-27.2
			C994.7,610,983.3,598.7,967.6,598.7z"/>
		<path class="st0" d="M1098.2,389.6c14.3,0,25.6-11.2,25.5-25.1c-0.1-14.1-11.4-25.3-25.4-25.4c-14.5,0-25.7,11.1-25.6,25.5
			C1072.8,378.9,1083.8,389.6,1098.2,389.6z"/>
		<path class="st0" d="M836.1,389.7c15.4-0.3,26.1-10.4,26.1-25.3c0-14.5-10.7-25.3-25.1-25.3c-14.2-0.1-24.7,10.7-25.5,24.5
			C810.9,377.7,823.6,389.9,836.1,389.7z"/>
		<path class="st0" d="M1098.5,469.4c-14-0.2-25.7,11.5-25.8,25.7c0,13.9,11.4,25.5,25.3,25.6c13.5,0.2,25.5-11.7,25.7-25.5
			C1123.9,481.5,1112.3,469.6,1098.5,469.4z"/>
		<path class="st0" d="M837.1,469.4c-13.9-0.2-25.3,11.2-25.3,25.4c-1.2,11.3,8.3,25.1,24.8,25.8c13.8,0.6,25.6-11.5,25.6-25.7
			C862.3,480.8,851.2,469.6,837.1,469.4z"/>
		<path class="st0" d="M901.9,254.6c11.6,0.2,21.2-9,21.3-20.5c0.1-11.8-8.8-21-20.4-21.3c-11.9-0.2-21.2,8.9-21.3,20.9
			C881.3,245,890.4,254.4,901.9,254.6z"/>
		<path class="st0" d="M836.8,320.1c11.3,0.2,21-9.5,21-20.9c0-11.7-9.2-21.1-20.7-21.1c-11.7-0.1-21.4,9.7-21.2,21.3
			C816.1,310.5,825.6,319.9,836.8,320.1z"/>
		<path class="st0" d="M1098.1,320.1c11.3,0.1,20.8-9.4,21-21c0.2-11.1-9.2-20.8-20.4-21c-11.6-0.2-21.2,8.9-21.4,20.4
			C1077.1,310.4,1086.2,320,1098.1,320.1z"/>
		<path class="st0" d="M1032.9,254.6c11.8-0.1,20.7-9.1,20.6-21c0-11.8-9.2-20.9-20.8-20.8c-11.7,0.1-20.8,9.3-20.8,21
			C1012,245.5,1021.3,254.7,1032.9,254.6z"/>
		<path class="st0" d="M1033,604.6c-11.5-0.2-20.9,9.2-21.1,20.8c-0.1,11.9,8.8,20.8,20.7,20.9c12.1,0.1,20.9-8.6,20.9-20.6
			C1053.6,614.1,1044.6,604.8,1033,604.6z"/>
		<path class="st0" d="M902.4,604.7c-11.5,0-20.9,9.3-21,20.9c-0.1,11.7,8.8,20.7,20.8,20.8c11.9,0.1,21-8.9,21-20.6
			C923.2,614.1,913.9,604.7,902.4,604.7z"/>
		<path class="st0" d="M1098.4,539.6c-12,0-21.1,8.7-21.1,20.4c0,11.8,8.9,21,20.6,21.2c11.5,0.3,21.4-9.5,21.2-21.2
			C1118.9,548.6,1109.9,539.7,1098.4,539.6z"/>
		<path class="st0" d="M837.7,539.6c-12.2-0.1-21.6,8.7-21.8,20.5c-0.2,11.3,9.2,20.9,20.9,21.1c11.4,0.3,21-9.2,21.1-20.7
			C858,548.9,849.1,539.7,837.7,539.6z"/>
		<path class="st0" d="M1163.5,410.6c-10.6-0.1-19,8.2-19,18.9c0,10.7,8.2,19.1,18.8,19.1c10.9,0,18.9-8,18.9-18.9
			C1182.2,418.8,1174.3,410.8,1163.5,410.6z"/>
		<path class="st0" d="M771.6,410.7c-10.4,0.1-18.7,8.3-18.9,18.7c-0.1,10.7,8,19.3,18.6,19.3c10.7,0.1,19.3-8.1,19.5-18.6
			C791.1,419.4,782.3,410.6,771.6,410.7z"/>
		<path class="st0" d="M967.6,187c10.5,0,18.7-8.2,18.7-18.6c0-10.2-8.4-18.7-18.7-18.7c-10.3-0.1-18.5,8.3-18.5,18.7
			C949.2,179,957.1,187.1,967.6,187z"/>
		<path class="st0" d="M967.6,672.4c-10.6,0-18.5,8-18.5,18.7c0,10.7,7.8,18.4,18.7,18.4c10.2,0,18.4-8.2,18.5-18.4
			C986.4,680.7,978.1,672.4,967.6,672.4z"/>
		<path class="st0" d="M1033.1,673.7c-9.6-0.1-17.5,7.8-17.4,17.4c0.1,9.8,7.8,17.4,17.5,17.2c9.3-0.2,16.7-8,16.6-17.6
			C1049.7,681.4,1042.3,673.8,1033.1,673.7z"/>
		<path class="st0" d="M1098.4,608.3c-9.2-0.3-17.2,7.5-17.3,17c-0.2,9.6,7.2,17.2,16.8,17.4c9.7,0.1,17.3-7.2,17.4-16.8
			C1115.5,616.6,1107.8,608.6,1098.4,608.3z"/>
		<path class="st0" d="M902.6,673.7c-9.2-0.2-17.2,7.5-17.5,16.9c-0.3,9.1,7.1,17.2,16.2,17.6c9.6,0.5,17.9-7,18.2-16.6
			C919.9,682.2,912.1,673.9,902.6,673.7z"/>
		<path class="st0" d="M837.4,608.3c-9.3-0.1-17.8,8.2-17.7,17.3c0.1,9.5,7.7,17,17.2,17c9.6,0.1,17.2-7.4,17.2-16.9
			C854.2,616.3,846.7,608.4,837.4,608.3z"/>
		<path class="st0" d="M1098.1,250.9c9.2,0.2,16.8-7.3,17.1-16.6c0.3-9.4-7.3-17.4-16.7-17.7c-9.6-0.2-17.4,7.2-17.6,16.7
			C1080.8,243.2,1088.2,250.7,1098.1,250.9z"/>
		<path class="st0" d="M902.3,185.3c9.7,0,17.3-7.3,17.2-16.9c0-9.5-7.6-17-17.2-17.1c-9.6-0.1-17.1,7.4-17.2,17
			C885.1,178,892.5,185.3,902.3,185.3z"/>
		<path class="st0" d="M836.9,250.9c9.5,0.1,17.2-7.5,17.3-16.8c0.1-9.8-7.5-17.5-17.2-17.5c-9.2,0-17.3,8.1-17.2,17.1
			C819.8,243.2,827.4,250.8,836.9,250.9z"/>
		<path class="st0" d="M1163.2,381.4c9.9,0.1,17.1-7,17.2-16.8c0.1-9.9-6.9-17.1-16.7-17.2c-9.9-0.1-17.2,7-17.3,16.8
			C1146.3,373.9,1153.5,381.3,1163.2,381.4z"/>
		<path class="st0" d="M771.8,477.9c-9.6,0-17.2,7.5-17.2,16.9c0,9.6,7.5,17.2,17,17.2c9.8,0,17-7.1,17.1-17
			C788.7,485.2,781.6,478,771.8,477.9z"/>
		<path class="st0" d="M771.7,381.4c9.8,0,16.9-7.2,16.9-17.1c0-9.9-7.1-17-17-16.9c-9.7,0-17,7.3-17,17.1
			C754.5,374.1,762,381.4,771.7,381.4z"/>
		<path class="st0" d="M1163.4,477.9c-9.6,0.1-17.1,7.6-17.1,17.1c0.1,9.6,7.6,17.1,17.1,17.1c9.8-0.1,16.9-7.3,16.9-17.1
			C1180.4,485.3,1173,477.9,1163.4,477.9z"/>
		<path class="st0" d="M1032.7,185.3c10.3,0,17.3-7,17.2-17.2c-0.1-9.4-7.4-16.7-16.8-16.7c-9.7,0-17.3,7.4-17.3,16.9
			C1015.6,178,1022.9,185.3,1032.7,185.3z"/>
		<path class="st0" d="M1163.2,313.1c8,0.1,14.4-6,14.3-14c0-7.8-6.1-13.9-13.8-13.9c-8.2-0.1-14.3,5.8-14.3,13.9
			C1149.4,306.8,1155.4,313,1163.2,313.1z"/>
		<path class="st0" d="M771.4,313.1c8,0.1,14.5-6.1,14.5-13.9c0-7.7-6.1-13.9-13.8-14c-8.3-0.1-14.3,5.7-14.3,13.8
			C757.7,306.8,763.7,313,771.4,313.1z"/>
		<path class="st0" d="M1163.3,546.2c-7.6,0-13.9,6.4-13.9,14c0,7.9,6.5,14.5,14.2,14.3c7.5-0.1,13.9-6.6,14-14.1
			C1177.6,552.8,1171,546.2,1163.3,546.2z"/>
		<path class="st0" d="M771.6,546.3c-7.9,0.2-13.8,6.2-13.8,14.1c0,7.8,6.2,14.2,13.8,14.2c7.7,0,14.3-6.6,14.3-14.4
			C785.8,552.7,779,546.1,771.6,546.3z"/>
		<path class="st0" d="M1163.5,246.2c7.1-0.1,12.3-5.2,12.2-12.2c0-7.4-5.3-12.7-12.4-12.7c-7.1,0-12.2,5.4-12.1,12.9
			C1151.2,241.3,1156.4,246.3,1163.5,246.2z"/>
		<path class="st0" d="M1163.7,613.1c-7-0.2-12.4,5.2-12.5,12.5c-0.1,7.2,4.9,12.3,12,12.4c7.1,0.1,12.5-5,12.6-11.9
			C1175.9,618.8,1170.8,613.3,1163.7,613.1z"/>
		<path class="st0" d="M1097.9,180.9c7.1,0,12.9-5.6,12.8-12.4c-0.1-7-5.7-12.5-12.8-12.3c-6.9,0.1-12.3,5.6-12.2,12.4
			C1085.7,175.5,1091.1,180.8,1097.9,180.9z"/>
		<path class="st0" d="M837,180.9c7.3,0,12.3-5.2,12.3-12.7c-0.1-7.2-5.1-12.1-12.3-12.1c-7.3,0-12.5,5.4-12.5,12.6
			C824.7,175.7,830,180.9,837,180.9z"/>
		<path class="st0" d="M771.8,613.1c-6.8-0.1-12.2,5.2-12.3,12.3c-0.1,7.4,5,12.7,12.2,12.7c7.2,0,12.2-5,12.3-12.1
			C784,618.5,779,613.2,771.8,613.1z"/>
		<path class="st0" d="M771.5,246.2c7.5,0,12.4-5,12.4-12.4c0-7.2-5.4-12.7-12.5-12.5c-6.9,0.1-12,5.5-12,12.6
			C759.5,241,764.6,246.2,771.5,246.2z"/>
		<path class="st0" d="M1097.8,678.6c-6.9,0.1-12.2,5.6-12.1,12.5c0.1,7.1,5.7,12.5,12.9,12.3c6.9-0.2,12.2-5.6,12.2-12.5
			C1110.7,683.8,1105.1,678.5,1097.8,678.6z"/>
		<path class="st0" d="M837.3,678.6c-7.3-0.1-12.7,5.1-12.7,12.3c0,7,5.2,12.4,12.1,12.4c7.4,0.1,12.6-5,12.6-12.3
			C849.3,683.8,844.3,678.6,837.3,678.6z"/>
		<path class="st0" d="M705.7,417.9c-6.7,0-11.8,4.9-11.8,11.6c-0.1,6.8,5.2,12.1,12,11.9c6.6-0.1,11.6-5.2,11.5-11.9
			C717.3,422.8,712.5,418,705.7,417.9z"/>
		<path class="st0" d="M1229.3,441.4c6.7,0.1,11.7-4.8,11.7-11.5c0-7-4.5-11.8-11.3-11.9c-7-0.1-12.2,4.8-12.2,11.7
			C1217.5,436,1222.8,441.4,1229.3,441.4z"/>
		<path class="st0" d="M967.5,114.8c6.7,0.1,11.8-4.9,11.8-11.5c0-6.8-4.7-11.5-11.6-11.5c-6.9-0.1-11.7,4.6-11.8,11.4
			C955.8,109.7,960.8,114.7,967.5,114.8z"/>
		<path class="st0" d="M967.7,744.3c-6.4,0-11.6,5.3-11.8,11.9c-0.2,6.3,5.2,11.8,11.7,11.8c6.6,0.1,11.7-5.1,11.7-11.7
			C979.2,749.9,973.9,744.3,967.7,744.3z"/>
		<path class="st0" d="M1229.6,375.8c6-0.2,11-5.3,11.1-11.4c0.1-6.1-5.4-11.5-11.5-11.4c-6.3,0.1-10.9,4.9-10.8,11.3
			C1218.4,370.9,1223.4,376,1229.6,375.8z"/>
		<path class="st0" d="M705.8,375.8c5.8,0,11.1-5.2,11.3-11.1c0.2-6.1-5.1-11.6-11.2-11.7c-6.3,0-11.4,4.9-11.4,11.3
			C694.4,370.5,699.6,375.8,705.8,375.8z"/>
		<path class="st0" d="M1229.5,483.9c-6.4,0-11,4.5-11.1,10.9c-0.1,6.7,4.5,11.3,11.1,11.3c6.6,0,11.3-4.7,11.2-11.3
			C1240.6,488.6,1235.8,483.9,1229.5,483.9z"/>
		<path class="st0" d="M705.7,483.9c-6.5,0-11.3,4.8-11.3,11.2c0.1,6.4,4.6,10.9,10.9,11c6.6,0.1,11.5-4.6,11.7-10.9
			C717.2,489,712.1,483.9,705.7,483.9z"/>
		<path class="st0" d="M771.8,179c5.6,0,10.3-4.8,10.3-10.6c0-5.7-4.7-10.3-10.5-10.3c-5.8,0-10.4,4.7-10.3,10.5
			C761.4,174.3,766.2,179,771.8,179z"/>
		<path class="st0" d="M1163.4,179c5.7-0.1,10.4-4.8,10.5-10.5c0-5.7-4.7-10.4-10.4-10.5c-5.7-0.1-10.4,4.7-10.4,10.4
			C1153.1,174.2,1157.8,179.1,1163.4,179z"/>
		<path class="st0" d="M1163.5,680.8c-6.3,0-10.4,4.1-10.4,10.2c0,5.8,4.2,10,10,10.1c6,0.1,10.7-4.2,10.7-10
			C1174,685.2,1169.6,680.8,1163.5,680.8z"/>
		<path class="st0" d="M771.7,680.8c-6.2,0-10.4,4.1-10.3,10.3c0,6,4.5,10.2,10.6,10.1c5.8-0.1,10.1-4.4,10.1-10.1
			C782.1,685.1,777.8,680.8,771.7,680.8z"/>
		<path class="st0" d="M1229.6,309c5.6,0,9.6-4.1,9.6-9.8c0-5.9-4.2-10.2-9.8-10.2c-5.2,0-9.8,4.7-9.9,9.9
			C1219.4,304.5,1223.9,309,1229.6,309z"/>
		<path class="st0" d="M1032.5,112.9c6,0.1,10.3-4,10.2-9.8c0-5.4-4.4-9.8-9.9-9.8c-5.7,0-9.7,4-9.8,9.8
			C1023,109,1026.6,112.8,1032.5,112.9z"/>
		<path class="st0" d="M902.4,746.1c-5.6-0.1-10,4.5-9.9,10.3c0.1,5.8,4,9.7,9.7,9.7c6,0,9.9-4,9.9-10
			C912,750.8,907.6,746.2,902.4,746.1z"/>
		<path class="st0" d="M705.5,309c5.6,0.1,10-4.4,10-10.1c0-5.5-4.3-9.8-9.7-9.9c-5.6-0.1-10.2,4.5-10.1,10.1
			C695.9,304.6,700.1,308.9,705.5,309z"/>
		<path class="st0" d="M902.5,112.9c5.8,0,9.5-3.9,9.5-9.8c0-5.8-4.4-10.1-10.2-9.9c-5.1,0.1-9.3,4.5-9.3,9.8
			C892.5,109,896.4,113,902.5,112.9z"/>
		<path class="st0" d="M1032.9,746.1c-5.1-0.1-9.7,4.6-9.8,9.9c-0.1,6,3.8,10.1,9.8,10.1c5.7,0,10.1-4.4,10-10.1
			C1042.7,750.7,1038.1,746.2,1032.9,746.1z"/>
		<path class="st0" d="M706.1,550.4c-5.5-0.2-10.1,3.8-10.4,9.3c-0.3,5.7,4,10.3,9.7,10.5c5.5,0.2,9.9-4,10-9.6
			C715.7,555.1,711.7,550.7,706.1,550.4z"/>
		<path class="st0" d="M1229.4,550.5c-5.5,0-9.7,4.3-9.8,9.9c0,5.6,4.1,9.8,9.7,9.9c5.5,0.1,9.8-4.1,9.9-9.6
			C1239.3,554.7,1235.2,550.5,1229.4,550.5z"/>
		<path class="st0" d="M1229.4,616.7c-5.1,0.1-9.2,4.3-9.1,9.2c0.1,5,4.3,8.9,9.5,8.8c5.2-0.1,8.9-4.2,8.7-9.4
			C1238.3,620.3,1234.3,616.6,1229.4,616.7z"/>
		<path class="st0" d="M836.9,747.2c-5.2,0.1-9,4.1-8.8,9.4c0.2,5.1,3.9,8.6,9,8.6c4.9,0,8.9-4,9-8.9
			C846.1,751.2,842.1,747.1,836.9,747.2z"/>
		<path class="st0" d="M1097.9,747.2c-5,0.1-9.1,4.4-9,9.4c0.2,4.8,4.3,8.6,9.2,8.6c5.3,0,8.9-3.7,8.9-9.1
			C1107,750.9,1103.2,747.1,1097.9,747.2z"/>
		<path class="st0" d="M1098.1,112.2c5.3,0,9-3.7,9-9.1c0-5.2-4.1-9.2-9.1-9.1c-4.9,0.1-9.1,4.6-9,9.4
			C1089.1,108.1,1093.3,112.1,1098.1,112.2z"/>
		<path class="st0" d="M837.2,112.2c4.9-0.1,8.8-4,9-8.9c0.1-4.9-4.1-9.2-9.1-9.3c-5-0.1-8.9,3.9-8.9,9.2
			C828.2,108.6,831.9,112.3,837.2,112.2z"/>
		<path class="st0" d="M1229.7,242.7c4.9-0.1,8.7-3.9,8.8-8.8c0.1-5.2-3.7-9-9-9c-5.2,0-9.3,3.9-9.2,9
			C1220.4,238.9,1224.6,242.8,1229.7,242.7z"/>
		<path class="st0" d="M705.8,242.7c5.1-0.1,9.2-4.1,9.1-9.2c-0.1-4.9-3.9-8.6-9-8.7c-5.5-0.1-9.1,3.4-9.1,8.8
			C696.7,239,700.5,242.8,705.8,242.7z"/>
		<path class="st0" d="M706,616.7c-5.2-0.2-9.2,3.7-9.3,8.9c-0.1,5.3,3.6,9.1,8.9,9.1c5,0,9.3-4.1,9.3-9
			C714.8,620.9,710.7,616.8,706,616.7z"/>
		<path class="st0" d="M1229.6,684.2c-3.8-0.1-7,3-7.1,6.8c-0.1,3.7,3.3,6.9,7,6.9c3.7,0,7.1-3.5,7-7.1
			C1236.4,687.4,1233.1,684.2,1229.6,684.2z"/>
		<path class="st0" d="M771.9,749.4c-4.1,0.1-6.5,2.3-6.8,6.4c-0.3,4.1,2.5,7,6.5,7c4.2,0,7-2.5,7.1-6.5
			C778.8,752.3,775.9,749.3,771.9,749.4z"/>
		<path class="st0" d="M1162.9,749.4c-3.7,0.1-6.7,3.4-6.5,7.3c0.1,3.6,3.1,6.2,7,6.2c4.1,0,6.9-2.8,6.7-6.9
			C1170,752.2,1166.7,749.3,1162.9,749.4z"/>
		<path class="st0" d="M771.8,110.2c3.4,0.1,6.9-3.5,6.8-7.1c0-3.7-3.4-7.1-7.1-6.8c-3.9,0.4-6.4,2.7-6.6,6.8
			C764.8,106.8,768.1,110.1,771.8,110.2z"/>
		<path class="st0" d="M705.3,684.2c-3.7,0.2-6.5,3.2-6.4,7c0.1,3.9,3.3,6.9,7.2,6.6c3.8-0.2,6.5-3.2,6.4-7
			C712.4,686.8,709.3,683.9,705.3,684.2z"/>
		<path class="st0" d="M1163,110.1c3.8,0.2,7.1-2.9,7.2-6.7c0.1-3.8-3.1-7.1-6.8-7.2c-3.6-0.1-6.9,3.2-6.9,7
			C1156.5,106.7,1159.5,109.9,1163,110.1z"/>
		<path class="st0" d="M705.5,175.3c3.8,0,7-3.2,7-7c-0.1-3.7-3-6.6-6.7-6.6c-4.1,0-6.9,2.8-6.9,6.9
			C699,172.4,701.8,175.3,705.5,175.3z"/>
		<path class="st0" d="M1229.4,175.3c3.6,0.1,6.9-3,7-6.5c0.2-3.8-3-7-6.8-7.1c-3.5-0.1-6.9,3-7,6.4
			C1222.3,171.8,1225.7,175.2,1229.4,175.3z"/>
		<circle class="st0" cx="704.4" cy="757.4" r="5.5"/>
		<path class="st0" d="M1230.8,749.4c-3.1,0-5.5,2.5-5.5,5.5c0,0.3,0,0.5,0.1,0.8c0,0.1-0.1,0.3-0.1,0.4c0,1.5,2.3,4.2,3.8,4.4
			c0.3,0,0.5,0,0.8-0.1c0.3,0.1,0.6,0.1,1,0.1c3.1,0,5.5-2.5,5.5-5.5S1233.9,749.4,1230.8,749.4z"/>
		<path class="st0" d="M1229.4,109.5c0,0.1,0.1,0.1,0.1,0.2c0,0,0.1-0.1,0.1-0.1c0.3,0.1,0.7,0.1,1.1,0.1c3,0,5.5-2.5,5.5-5.5
			c0-3-2.5-5.5-5.5-5.5c-0.1,0-0.2,0-0.3,0c-0.4,0-0.8,0-1.3,0.1c-0.4,0.1-0.9,0.3-1.3,0.7c-1,0.6-1.8,1.5-2.2,2.7
			c-0.2,0.4-0.4,0.9-0.4,1.3c0,0.1,0,0.1,0,0.2c0,0.2,0,0.4,0,0.5C1225.2,106.8,1227,108.9,1229.4,109.5z"/>
		<circle class="st0" cx="706.7" cy="104" r="5.2"/>
	</g>
</g>
<g>
	<path d="M273.2,981.4c-0.8-0.9-1.2-2-1.2-3.4V844.6c0-1.5,0.4-2.7,1.2-3.6c0.8-0.9,1.9-1.3,3.3-1.3h83c1.5,0,2.7,0.4,3.6,1.3
		c0.9,0.9,1.3,2.1,1.3,3.6v7.6c0,1.4-0.4,2.5-1.3,3.4c-0.9,0.9-2.1,1.3-3.6,1.3H291v48.4h64.4c1.5,0,2.7,0.4,3.6,1.3
		c0.9,0.9,1.3,2,1.3,3.4v7.8c0,1.4-0.5,2.5-1.4,3.4c-1,0.9-2.1,1.3-3.5,1.3H291V978c0,1.4-0.5,2.5-1.4,3.4c-1,0.9-2.1,1.3-3.5,1.3
		h-9.6C275.1,982.7,274,982.3,273.2,981.4z"/>
	<path d="M392.4,981.4c-0.8-0.9-1.2-2-1.2-3.4V844.3c0-1.4,0.4-2.5,1.2-3.4c0.8-0.9,1.9-1.3,3.3-1.3h10.2c1.5,0,2.7,0.4,3.5,1.2
		c0.8,0.8,1.2,2,1.2,3.5V978c0,1.4-0.4,2.5-1.3,3.4c-0.9,0.9-2,1.3-3.4,1.3h-10.2C394.3,982.7,393.2,982.3,392.4,981.4z"/>
	<path d="M447.8,981.4c-0.8-0.9-1.2-2-1.2-3.4V844.6c0-1.5,0.4-2.7,1.2-3.6c0.8-0.9,1.9-1.3,3.3-1.3h9c1.4,0,2.4,0.3,3.1,0.8
		c0.7,0.5,1.4,1.2,2,2L533.6,948V844.6c0-1.5,0.4-2.7,1.3-3.6c0.9-0.9,2-1.3,3.4-1.3h9.2c1.5,0,2.7,0.4,3.6,1.3
		c0.9,0.9,1.3,2.1,1.3,3.6v133.3c0,1.4-0.4,2.5-1.3,3.5c-0.9,1-2,1.4-3.4,1.4h-9.2c-2.3,0-4-1-4.9-2.9l-68.5-104.5V978
		c0,1.4-0.4,2.5-1.3,3.4c-0.9,0.9-2,1.3-3.4,1.3H451C449.7,982.7,448.6,982.3,447.8,981.4z"/>
	<path d="M598.6,970.1c-9.8-9.8-15.1-23.1-15.7-39.9c-0.1-4.1-0.2-10.5-0.2-19.2c0-8.9,0.1-15.3,0.2-19.2
		c0.5-16.6,5.8-29.8,15.6-39.6c9.9-9.7,23.7-14.6,41.4-14.6c12,0,22.1,2.2,30.5,6.5c8.3,4.4,14.6,9.6,18.8,15.6
		c4.2,6.1,6.5,11.7,6.7,16.9v0.4c0,1.1-0.4,2-1.3,2.8c-0.9,0.8-1.9,1.1-3,1.1h-11.4c-1.2,0-2.1-0.3-2.8-0.8
		c-0.6-0.5-1.2-1.6-1.7-3.1c-2.2-6.4-6.2-11.8-12.1-16.1c-5.9-4.4-13.8-6.5-23.7-6.5c-11.4,0-20.4,3.1-27,9.4
		c-6.5,6.3-10,15.9-10.4,29c-0.1,4-0.2,10-0.2,18.2c0,8,0.1,14.1,0.2,18.2c0.4,13.2,3.9,23,10.4,29.2c6.5,6.3,15.5,9.4,27,9.4
		c11.6,0,20.8-3.2,27.8-9.5s10.4-15.8,10.4-28.5V921h-31.3c-1.4,0-2.5-0.5-3.4-1.4c-0.9-1-1.3-2.1-1.3-3.5V910
		c0-1.4,0.4-2.5,1.3-3.5c0.9-1,2-1.4,3.4-1.4h45.8c1.5,0,2.7,0.4,3.6,1.3c0.9,0.9,1.3,2.1,1.3,3.6v19.4c0,11-2.3,20.7-6.8,29.1
		c-4.6,8.4-11.2,14.9-19.9,19.4c-8.7,4.6-19,6.8-30.9,6.8C622.2,984.8,608.4,979.9,598.6,970.1z"/>
	<path d="M728.2,981.4c-0.8-0.9-1.2-2-1.2-3.4V844.6c0-1.5,0.4-2.7,1.2-3.6c0.8-0.9,1.9-1.3,3.3-1.3h84c1.5,0,2.7,0.4,3.6,1.3
		c0.9,0.9,1.3,2.1,1.3,3.6v7.4c0,1.4-0.4,2.5-1.3,3.3c-0.9,0.8-2.1,1.2-3.6,1.2h-69.7V902H811c1.5,0,2.7,0.4,3.6,1.3
		c0.9,0.9,1.3,2.1,1.3,3.6v7c0,1.4-0.4,2.5-1.3,3.4c-0.9,0.9-2.1,1.3-3.6,1.3h-65.2v47.2h71.3c1.5,0,2.7,0.4,3.6,1.3
		c0.9,0.9,1.3,2.1,1.3,3.6v7.4c0,1.4-0.5,2.5-1.4,3.4c-1,0.9-2.1,1.3-3.5,1.3h-85.6C730.1,982.7,729,982.3,728.2,981.4z"/>
	<path d="M851.9,981.4c-0.8-0.9-1.2-2-1.2-3.4V844.6c0-1.5,0.4-2.7,1.2-3.6c0.8-0.9,1.9-1.3,3.3-1.3H905c15.5,0,27.7,3.6,36.5,10.9
		c8.8,7.3,13.2,17.9,13.2,31.8c0,10.4-2.6,18.9-7.8,25.6c-5.2,6.7-12.4,11.3-21.7,13.9l31.5,54.6c0.4,0.8,0.6,1.6,0.6,2.2
		c0,1.1-0.4,2-1.2,2.9s-1.8,1.2-2.9,1.2h-9c-2,0-3.6-0.5-4.8-1.4c-1.2-1-2.2-2.3-3.2-4.1l-30-52.3h-36.4V978c0,1.4-0.5,2.5-1.4,3.4
		c-1,0.9-2.1,1.3-3.5,1.3h-9.8C853.8,982.7,852.7,982.3,851.9,981.4z M904.2,908.1c20.6,0,30.9-8.7,30.9-26c0-17.3-10.3-26-30.9-26
		h-34.3v51.9H904.2z"/>
	<path d="M985.6,981.4c-0.8-0.9-1.2-2-1.2-3.4V844.6c0-1.5,0.4-2.7,1.2-3.6c0.8-0.9,1.9-1.3,3.3-1.3h51.7c15.4,0,27.5,3.7,36.3,11.1
		c8.8,7.4,13.2,18.2,13.2,32.4c0,14.2-4.4,24.9-13.2,32.3c-8.8,7.4-20.9,11-36.3,11h-36.8V978c0,1.4-0.4,2.5-1.3,3.4
		c-0.9,0.9-2,1.3-3.4,1.3h-10.2C987.5,982.7,986.4,982.3,985.6,981.4z M1039.5,910c20.6,0,30.9-8.9,30.9-26.8c0-8.7-2.6-15.4-7.7-20
		c-5.1-4.6-12.8-7-23.2-7h-35.8V910H1039.5z"/>
	<path d="M1116.6,981.4c-0.8-0.9-1.2-2-1.2-3.4V844.6c0-1.5,0.4-2.7,1.2-3.6c0.8-0.9,1.9-1.3,3.3-1.3h49.9
		c15.5,0,27.7,3.6,36.5,10.9c8.8,7.3,13.2,17.9,13.2,31.8c0,10.4-2.6,18.9-7.8,25.6c-5.2,6.7-12.4,11.3-21.7,13.9l31.5,54.6
		c0.4,0.8,0.6,1.6,0.6,2.2c0,1.1-0.4,2-1.2,2.9s-1.8,1.2-2.9,1.2h-9c-2,0-3.6-0.5-4.8-1.4c-1.2-1-2.2-2.3-3.2-4.1l-30-52.3h-36.4
		V978c0,1.4-0.5,2.5-1.4,3.4c-1,0.9-2.1,1.3-3.5,1.3h-9.8C1118.5,982.7,1117.4,982.3,1116.6,981.4z M1168.9,908.1
		c20.6,0,30.9-8.7,30.9-26c0-17.3-10.3-26-30.9-26h-34.3v51.9H1168.9z"/>
	<path d="M1250.3,981.4c-0.8-0.9-1.2-2-1.2-3.4V844.3c0-1.4,0.4-2.5,1.2-3.4c0.8-0.9,1.9-1.3,3.3-1.3h10.2c1.5,0,2.7,0.4,3.5,1.2
		c0.8,0.8,1.2,2,1.2,3.5V978c0,1.4-0.4,2.5-1.3,3.4c-0.9,0.9-2,1.3-3.4,1.3h-10.2C1252.2,982.7,1251.1,982.3,1250.3,981.4z"/>
	<path d="M1305.7,981.4c-0.8-0.9-1.2-2-1.2-3.4V844.6c0-1.5,0.4-2.7,1.2-3.6c0.8-0.9,1.9-1.3,3.3-1.3h9c1.4,0,2.4,0.3,3.1,0.8
		c0.7,0.5,1.4,1.2,2,2l68.5,105.5V844.6c0-1.5,0.4-2.7,1.3-3.6c0.9-0.9,2-1.3,3.4-1.3h9.2c1.5,0,2.7,0.4,3.6,1.3
		c0.9,0.9,1.3,2.1,1.3,3.6v133.3c0,1.4-0.4,2.5-1.3,3.5c-0.9,1-2,1.4-3.4,1.4h-9.2c-2.3,0-4-1-4.9-2.9L1323,875.4V978
		c0,1.4-0.4,2.5-1.3,3.4c-0.9,0.9-2,1.3-3.4,1.3h-9.4C1307.6,982.7,1306.5,982.3,1305.7,981.4z"/>
	<path d="M1478.7,981.4c-0.9-0.9-1.3-2-1.3-3.4V857.2h-39.5c-1.4,0-2.5-0.4-3.4-1.3c-0.9-0.9-1.3-2-1.3-3.4v-8
		c0-1.5,0.4-2.7,1.3-3.6c0.9-0.9,2-1.3,3.4-1.3h98.1c1.5,0,2.7,0.4,3.5,1.3c0.8,0.9,1.2,2.1,1.2,3.6v8c0,1.4-0.4,2.5-1.3,3.4
		c-0.9,0.9-2,1.3-3.4,1.3h-39.2V978c0,1.4-0.5,2.5-1.4,3.4c-1,0.9-2.1,1.3-3.5,1.3h-9.8C1480.7,982.7,1479.6,982.3,1478.7,981.4z"/>
	<path d="M1579.7,979.5c-8.2-3.5-14.5-8.2-18.8-14c-4.3-5.8-6.6-12-6.8-18.7c0-1.1,0.4-2,1.2-2.9c0.8-0.8,1.8-1.2,3.1-1.2h10
		c2.5,0,4.2,1.4,5.1,4.1c1.2,5.7,4.7,10.7,10.5,14.8c5.8,4.2,14.1,6.2,24.8,6.2c11.6,0,20.2-2,26-6.1s8.6-9.7,8.6-17
		c0-4.6-1.4-8.4-4.2-11.4c-2.8-3-7-5.6-12.5-7.9c-5.5-2.2-13.8-5-24.8-8.3c-10.5-3-18.8-6.2-25-9.6c-6.2-3.4-10.9-7.6-14-12.6
		c-3.1-5-4.7-11.3-4.7-18.9c0-7.4,2-13.9,5.9-19.7c4-5.8,9.7-10.4,17.2-13.7c7.5-3.3,16.4-5,26.6-5c10.6,0,19.7,1.9,27.3,5.6
		c7.6,3.7,13.3,8.5,17.3,14.1c4,5.7,6.1,11.3,6.3,17.1c0,1.2-0.4,2.2-1.2,3.1c-0.8,0.8-1.8,1.2-3.1,1.2h-10.2c-1.1,0-2.1-0.3-3.1-1
		c-1-0.7-1.6-1.7-2-3.1c-0.8-5.9-4.1-10.7-9.8-14.5c-5.7-3.8-12.9-5.7-21.5-5.7c-9.3,0-16.6,1.8-22.1,5.4c-5.5,3.6-8.2,9-8.2,16
		c0,4.8,1.3,8.7,3.8,11.7c2.5,3,6.4,5.7,11.7,8c5.2,2.3,12.9,5,23,8c11.6,3.3,20.7,6.5,27.3,9.8c6.6,3.3,11.5,7.3,14.8,12.2
		c3.3,4.8,4.9,11.1,4.9,18.7c0,12.8-4.9,22.8-14.6,29.9c-9.7,7.2-22.9,10.7-39.6,10.7C1597.6,984.8,1587.9,983,1579.7,979.5z"/>
</g>
</svg>
