<?xml version="1.0" encoding="utf-8"?>
<!-- Generator: Adobe Illustrator 21.1.0, SVG Export Plug-In . SVG Version: 6.00 Build 0)  -->
<svg version="1.1" id="Layer_1" xmlns="http://www.w3.org/2000/svg" xmlns:xlink="http://www.w3.org/1999/xlink" x="0px" y="0px"
	 viewBox="0 0 640 480" style="enable-background:new 0 0 640 480;" xml:space="preserve">
<g>
	<path d="M369.6,21.9c0.7,9.2,1.9,12.7,12.8,38.5c4.3,10.1,4.6,11.8,4.5,27.4c0,13.6-0.7,18.8-3.8,28.1
		c-15.3,48.5-18,63.9-14.1,78.1c1.9,6.5,10.7,17.8,12.4,16c0.6-0.6-0.6-4.3-2.3-8.5c-4.3-9.7-4.5-23.2-0.4-33.8
		c1.6-4,7.2-14.6,12.6-23.4c22.8-38,22.2-56.6-2.7-95.5c-3.9-5.9-9.8-16.7-13.3-23.8l-6.4-13L369.6,21.9z"/>
	<path d="M425.3,127.1c-8.8,5.8-12.6,15.9-16.6,44.2c-2,13.7-4.6,27.3-5.8,30.2c-1.2,2.7-2.2,5.3-2.2,5.8c0,1.7,7.6-3.9,15.3-11.4
		l8.8-8.5l6.2,8.4c3.5,4.6,20.3,22.7,37.5,40.1c39.3,39.8,49.2,52.8,58.3,76.3c8.9,22.5,10.5,54.1,3.8,74.5
		c-9.5,28.9-30.9,46-87.2,70.1c-7.1,3-12.3,5.6-11.4,5.9c2.7,1,36.2-9.5,50.4-15.7c38.4-17,62.3-41.1,70.7-71.9
		c4-14.7,3.8-48.9-0.6-64.2c-8.9-31.3-29.6-59.3-69.1-94c-25.7-22.5-36.2-34.1-42.7-46.5c-6.9-13.3-8.4-18.6-9.5-33.8l-0.9-12.8
		L425.3,127.1z"/>
	<path d="M313.8,252.4c-51.1,6.5-95.7,24.5-175.6,71.4c-22.7,13.3-44.3,25.7-48.1,27.6c-3.8,2-6.5,4.2-6.1,4.8
		c0.4,0.7,3.8,3,7.6,5.3c3.8,2.2,23.4,14.4,43.6,27.3c57.4,36.5,79.8,48.6,111.1,60.3c32.8,12.3,59.6,17,98.1,17.8l29.6,0.4l-13-2
		c-40.1-6.2-62.9-11.3-86.9-19.3c-49.4-16.7-86-39-119.1-72.6c-9.4-9.4-17-17.6-17-18.3c0-1.3,24.8-13.7,42.1-21.2
		c23.4-10.1,48.8-19.1,95.5-33.9c4-1.3,4-1.2,3.3,3.5c-4.8,25.8-4.9,31.6-1.7,48.1c7.1,37.1,35.5,66,74.3,75.8c10,2.6,15,3,28.7,2.5
		c14.3-0.6,18.6-1.4,29.3-5.5c13.1-4.8,18.5-8.4,9.8-6.5c-8.2,1.9-29.4,1-39-1.4c-13.9-3.6-25.7-10.2-36.2-20.5
		c-16.6-15.9-23.7-33.5-22.7-55.9c0.4-11,1.3-14.7,5.1-22.8c11.4-24.4,32-35.8,64.7-35.8c16.9,0,29.7,2.7,41.6,8.8l8.5,4.2l-3.5-5.9
		c-7.8-14.1-27-26-52.4-32.5c-12-3-18.6-3.8-38.2-4.2C334.3,251.4,319.1,251.7,313.8,252.4z"/>
	<path d="M442.6,258.9c0,0.6,4.3,6.8,9.5,14.1c5.3,7.4,11.5,17.3,13.9,22.2c15.9,33.8-2.2,68.6-38.7,74.6
		c-8.1,1.4-17.5-1.3-22.5-6.4c-3.3-3.3-4-5.3-4-11.1c0-12.1,10.4-25,20.1-25c2.9,0,3.3-0.3,1.6-1.4c-4.6-3-13.9-1.6-21.1,3.2
		c-14.7,10-20.3,28.3-13.6,44.2c3.9,9.1,10.5,15.2,23.1,21.1c8.7,4.2,10.5,4.5,25.3,4.5c14.9,0,16.5-0.3,25.5-4.6
		c24.4-11.5,36.9-32.8,35.5-59.5c-1.7-28.9-16.5-52.8-43.4-70.9C445.7,258.5,442.6,257.2,442.6,258.9z"/>
</g>
</svg>
