<?xml version="1.0" encoding="utf-8"?>
<!-- Generator: Adobe Illustrator 22.1.0, SVG Export Plug-In . SVG Version: 6.00 Build 0)  -->
<svg version="1.1" id="Layer_1" xmlns="http://www.w3.org/2000/svg" xmlns:xlink="http://www.w3.org/1999/xlink" x="0px" y="0px"
	 viewBox="0 0 640 480" style="enable-background:new 0 0 640 480;" xml:space="preserve">
<style type="text/css">
	.st0{fill:#EC3826;}
</style>
<g id="XMLID_24_">
	<path id="XMLID_20_" class="st0" d="M339.6,161.1c0,81.5-66.4,147.6-148.2,147.6c-81.9,0-148.2-66.1-148.2-147.6
		c0-81.5,66.4-147.6,148.2-147.6C273.2,13.5,339.6,79.6,339.6,161.1"/>
	<path id="XMLID_19_" class="st0" d="M0,309.8c0,0,106,55.9,191.7,53.7c53.4-1.4,90.4-11.8,133.6-21.2
		c43.3-9.3,107.1-22.8,147.7-21.5c37.2,1.2,111.6,21.3,167,79.5c0,0-65.1-54.7-172.6-53.2c0,0-51.4,1.1-134.9,22.2
		c-101.1,25.6-155.3,20.4-155.3,20.4S70.7,389.6,0,309.8"/>
	<path id="XMLID_18_" class="st0" d="M0,378.7c0,0,106,55.9,191.7,53.7c53.4-1.4,90.4-11.8,133.6-21.2
		c43.3-9.3,107.1-22.8,147.7-21.5c37.2,1.2,111.6,21.3,167,79.5c0,0-65.1-54.7-172.6-53.2c0,0-51.4,1.1-134.9,22.2
		c-101.1,25.6-155.3,20.4-155.3,20.4S70.7,458.5,0,378.7"/>
</g>
</svg>
