<?xml version="1.0" encoding="utf-8"?>
<!-- Generator: Adobe Illustrator 22.1.0, SVG Export Plug-In . SVG Version: 6.00 Build 0)  -->
<svg version="1.1" id="Layer_2_1_" xmlns="http://www.w3.org/2000/svg" xmlns:xlink="http://www.w3.org/1999/xlink" x="0px" y="0px"
	 viewBox="0 0 640 480" style="enable-background:new 0 0 640 480;" xml:space="preserve">
<style type="text/css">
	.st0{fill:#D20021;}
</style>
<g>
	<path class="st0" d="M565.1,119c0,9.9,0,19,0,28.6c-9.6,0-18.9,0-29.1,0c0,23.3,0,46.2,0,69.5c-12.5,0-24,0-36.6,0
		c0-22.9,0-45.7,0-69.2c-10.4,0-19.7,0-29.4,0c0-9.9,0-19.1,0-28.9C501.7,119,533.1,119,565.1,119z"/>
	<path class="st0" d="M248.2,118.8c0,32.9,0,65.3,0,97.9c-11.9,0-23.5,0-35.6,0c0-32.5,0-65,0-97.9
		C224.2,118.8,235.9,118.8,248.2,118.8z"/>
	<path class="st0" d="M315.4,161.8c0,4,0,7.5,0,11.1c0,3.5,0,6.9,0,10.4h13.2v4.7c0,0-6.7,3.9-17.3,3.8c-12,0.2-21.9-7.8-23.3-21.2
		c-1.2-11.5,1.8-21.5,15.2-24.1c11.9-2.3,23.4-1.2,34.8,2.3c4.3,1.3,8.5,3,13.4,4.7v-28c-18.6-7.5-39.2-9.9-56.4-5.4
		c-26,6.9-38.8,22.6-39.7,47.1c-0.7,19.7,9,38.1,33.4,47.2c6.7,2.5,14.3,3.3,21.5,3.8c15.8,1,30.8-2.6,44.1-11.5
		c1.2-0.8,2.6-2.6,2.6-4c0.2-13.6,0.1-27.2,0.1-40.9C342.9,161.8,329.4,161.8,315.4,161.8z"/>
	<path class="st0" d="M397.5,216.8c0-11.3,0-21.8,0-32.3c10.8,0,20.9,0,31.7,0c0,11.1,0,21.6,0,32.3h32.3c0-32.7,0-65.1,0-97.7
		h-32.7c0,11,0,21.8,0,32.5c-11,0-21,0-31.6,0c0-10.9,0-21.4,0-32.5H364c-0.1,25.1-0.1,69,0,97.7H397.5z"/>
	<g>
		<g>
			<path class="st0" d="M474.1,360.5c0-28.3,0-56.1,0-84.4c20.6,0,40.9,0,61.7,0c0,6.9,0,13.8,0,21.3c-10.5,0-21.1,0-32.2,0
				c0,3.7,0,6.9,0,10.7c10.1,0,20.3,0,30.8,0c0,7.6,0,14.5,0,22.1c-10.1,0-20.3,0-30.9,0c0,3.4,0,6.2,0,9.6c11,0,22,0,33.3,0
				c0,7.2,0,13.7,0,20.7C516.1,360.5,495.4,360.5,474.1,360.5z"/>
			<path class="st0" d="M127.2,309c-12.3-10.7-25.1-12.5-38.9-7.7c-7.2,2.5-12.5,7.5-13.6,15.2c-1.2,7.9,4.1,13,10.2,16.9
				c11.1,7.1,27.8,5.2,39.6-4.2c1-0.8,2-1.6,3.9-3.2c0,9.4,0.1,17.7-0.1,25.9c0,1-1.3,2.3-2.3,2.9c-20.1,10.7-49.1,11-67.8-4.8
				c-17.8-15-17.3-47.2,0.9-62.5c9.2-7.7,19.7-11.4,31.8-12.1c11-0.6,21.3,0.6,31.5,4.7c3.6,1.5,5.1,3.3,5,7.3
				C126.9,294.1,127.2,300.8,127.2,309z"/>
			<path class="st0" d="M265.2,317.5c-8.3-10.1-16-18.5-22.6-27.8c-2.5-3.5-6.9-9-12-14.6h-26.5c0.2,2.6,0.3,4.8,0.3,5.8
				c0.2,16.8,0.1,33.5,0.1,50.3c0,9.7,0,19.4,0,29.3c10.2,0,19.5,0,29.3,0c0-12.8,0-25.1,0-38.4c1.5,1.3,2.3,1.8,2.8,2.5
				c9.5,10.8,18.9,21.8,28.4,32.6c1.3,1.5,3.2,3.5,4.8,3.6c7.7,0.4,15.5,0.2,23.4,0.2c0-28.6,0-56.6,0-84.9c-9.3,0-18.3,0-28,0
				C265.2,289.5,265.2,302.6,265.2,317.5z"/>
			<path class="st0" d="M164.1,330.3c10.7,0,21,0,31.6,0c0-7.5,0-14.6,0-22.3c-10.9,0-21.3,0-31.7,0c0-3.7,0-6.8,0-10.5
				c11.3,0,22.3,0,33.3,0c0-7.5,0-14.3,0-21.6c-2.2-0.2-3.7-0.3-5.3-0.3c-17.1,0-34.3,0.2-51.5-0.1c-0.5,0-0.8-0.2-1.2-0.4h-4.9
				c0.1,24.8,0,59.2,0,79.8c0,1.9,0.2,3.8,0.3,5.6c21.6,0,42.6,0,63.5,0c0-7.1,0-13.8,0-20.9c-11.7,0-22.9,0-34.1,0
				C164.1,336.3,164.1,333.6,164.1,330.3z"/>
			<path class="st0" d="M413.4,329.8c6.7-1.8,10.5,0.1,12.9,6.2c2.6,6.6,8.2,17.7,12,25h2.5c0.2-0.1,0.3-0.2,0.6-0.2
				c3.7,0.1,7.5,0.2,11.3,0.2h5.6c4.1,0,8.2,0,12.6,0c-7.8-13.4-10.7-28.1-21.7-38.2c2.4-0.9,4.2-2.4,6.2-4.5
				c6.7-6.9,7.4-16.9,4.4-25.6c-3.3-9.3-9.8-15.6-20-16.1c-17.3-0.7-34.6-0.7-52-1c-0.5,0-1,0.4-1.5,0.6c0,28.1,0,56.1,0,84.2
				c9,0,17.7,0,27.1,0C413.4,350.1,413.4,339.8,413.4,329.8z M413.1,308.9c-0.1-3.9,0-7.7,0-12.4c4.3,0,8.1,0,11.9,0h1.5
				c0,0,5.9-0.8,5.9,6.3c0,7.2-3,8-6.5,8c-3.5,0-12.8,0-12.8,0l0.1-1.4C413.1,309.2,413.1,309.1,413.1,308.9z"/>
			<path class="st0" d="M377.4,275.1c-0.3,0.3-0.5,0.5-0.8,0.5c-6.6,0.2-13.2,0-19.9,0c-18.1,0-36.2-0.1-54.4,0.1
				c-0.2,0-0.5-0.2-0.8-0.6H297c-0.1,9.6,0,21.2,0,26.3c9,0,17.1,0,25.7,0c0,2.3,0,4.2,0,6.1c0,14.1,0,37,0,53.5h32.9
				c0-20.4,0-39.9,0-59.9c8.7,0,16.8,0,25.6,0c0-4.2,0-15.6,0-26L377.4,275.1L377.4,275.1z"/>
		</g>
	</g>
	<path d="M638.5,219.7c-5.4-8.8-35-2.3-35-2.3c-11.4-9.2-22.6-18.7-33.8-28.2c-4.4-3.7-8.8-6.1-14.9-2.7c8.3,12.5,16.5,24.9,25,37.6
		c-5,1.1-9.7,2-14.3,3.2c-8.6,2.2-16.1,1.2-23.2-5c-2.4-2.1-7.4-1.2-11.1-1.8c-0.1,0.7-0.2,1.4-0.3,2.1c3.1,3.4,6.2,6.8,10.1,11.1
		c-3.5,0.7-5.8,1.4-8.1,1.5s-4.6,0.2-6.9,0.3c-42.6,5.1-168.1,18.3-282.8,14l0,0C51.6,252,32.2,225.3,32.2,225.3
		c-5.7-3.9-8.8-8.6-9-13.8c-0.5-15.5,13.1-27.5,24.7-34.9c-0.5-0.5-0.9-0.9-1.4-1.4c0,0-40.4,18.4-45.6,37.7c0,0-9.3,22.1,28.8,34.5
		l0,0l0,0c7.5,2.4,16.8,4.5,28.4,6c15.3,2.5,36.7,5.1,64.1,6.5c5.2,0.3,10.5,0.5,15.8,0.6c17.5,0.5,37.1,0.6,58.8-0.2c0,0,0,0,0,0
		c14.9,0.2,29.8,0.3,44.7,0.1c17-0.3,34-0.8,51-1.4c132.9-6,250.5-21,250.5-21l-1.8,3.7c0.1,0,0.2,0,0.3,0c-2.7,5.8-4.8,10.2-7,14.9
		c9.7-0.9,10.4-1.4,15.6-8.6c1.2-1.7,2.8-4.1,4.5-4.4c8.6-1.5,17.4-2.4,27.2-3.6c-5.3,16.2-10,31-14.8,45.9
		c6.1,1.6,9.7-1.5,12.5-5.8c7.9-12,15.8-24,23.3-36.1c3.1-5,7.2-6.7,12.9-7.5c2.2-0.3,4.4-0.8,6.5-1.4h0
		C633.4,232.6,643.9,228.5,638.5,219.7z"/>
	<path class="st0" d="M82.1,146.5c11.5,0,22.8,0,34.6,0c0-6.5-0.3-20,0-28H104c-14.7,0.2-31.1,0.2-45.9,0H47.5v37l0,0
		c0,18.5,0,37.3,0,54.8c0,2.2,0.3,4.4,0.4,6.8c11.4,0,22.3,0,34.3,0c0-11,0-21.2,0-31.6c9.6,0,24.6,0.2,34.4-0.1c0,0,0-0.1,0-0.1
		c0-0.2,0-0.3,0-0.5v-27.5c-12,0-23.2,0-34.4,0C82.1,153.3,82.1,150.3,82.1,146.5z"/>
	<path class="st0" d="M162.2,187.9c0-3.1,0-5.5,0-8c0-18.1,0.1-42.9-0.2-61.1h-3.2c-0.1,0-0.3,0-0.4,0c-0.4,0-0.7,0-1.1,0h-29.6
		c0,33.3,0,65.7,0,98.3c24.9,0,49.4,0,74.4,0c0-10.1,0-19.3,0-29.2C188.7,187.9,175.7,187.9,162.2,187.9z"/>
</g>
</svg>
