<?xml version="1.0" encoding="utf-8"?>
<!-- Generator: Adobe Illustrator 22.1.0, SVG Export Plug-In . SVG Version: 6.00 Build 0)  -->
<svg version="1.1" id="Layer_1" xmlns="http://www.w3.org/2000/svg" xmlns:xlink="http://www.w3.org/1999/xlink" x="0px" y="0px"
	 viewBox="0 0 640 480" style="enable-background:new 0 0 640 480;" xml:space="preserve">
<style type="text/css">
	.st0{fill:#015696;}
	.st1{fill:#00599B;}
	.st2{fill:#FFFFFF;}
</style>
<g>
	<ellipse class="st0" cx="320" cy="240.3" rx="320" ry="121.9"/>
	<g>
		<path class="st1" d="M0.8,248.1c0-5.5,0-11.1,0-16.9c1.5-4.4,2.6-9,4.7-13.1c6.7-14.5,18-25.6,31.1-34.6
			c11.1-7.9,22.7-15.1,35.5-20.4c9.3-3.8,18.6-7.9,28.2-11.3c18.3-6.7,37-12.2,55.9-16c9.6-1.7,18.9-3.8,28.5-5.8
			c7.6-1.5,15.4-2.9,23.3-4.1c7-1.2,14.3-1.7,21.5-2.6c7.3-0.6,14.5-1.2,21.8-1.7c11.1-0.9,21.8-2,32.9-2.6c6.1-0.3,12.2,0,18.3,0
			c1.2,0,2.3-0.6,3.8-1.2c9,0,17.7,0,26.8,0c1.2,0.3,2,0.9,3.2,1.2c13.7,0.6,27.3,0.9,41,1.7c9.6,0.6,19.2,1.5,29.1,2.3
			c8.1,0.9,16.3,1.2,24.4,2.6c12.2,2,24.4,4.1,36.7,6.7c18.9,4.4,37.8,9,56.4,14.3c21.5,6.1,42.5,14.5,61.7,26.2
			c10.5,6.4,20.7,13.7,30,21.5c7,5.8,12.8,13.4,16.6,22.1c1.7,4.1,3.5,8.1,4.9,11.9c0,7,0,14,0,20.9c-1.2,3.2-2.3,6.7-3.8,9.9
			c-4.9,11.1-12.2,20.7-22.1,27.9c-9,6.7-18,13.7-27.6,19.2c-20.9,11.6-43.1,20.4-66,27.1c-20.9,6.1-41.9,11.3-63.4,14.5
			c-14.5,2.3-29.1,4.9-43.9,6.7c-11.1,1.5-22.4,1.7-33.8,2.6c-0.9,0-1.5,0.6-2.3,0.9c-36.4,0-72.4,0-108.8,0
			c-1.5-0.3-2.6-0.9-4.1-0.9c-5.5-0.3-11.1-0.3-16.6-0.9c-10.8-1.2-21.5-2.9-32.3-4.4c-10.2-1.5-20.4-2-30.3-4.4
			c-17.7-3.8-35.2-8.1-52.7-12.5c-20.4-4.9-40.2-12.5-59.4-21.2c-14.3-6.7-28.2-14.5-40.4-25c-9.3-8.1-18-16.6-23.3-27.9
			C4,257.5,2.6,252.8,0.8,248.1z M319.1,130c-23,1.2-46,1.7-69,3.5c-32,2.3-63.7,7-94.9,14c-31.7,7.3-62.8,16.6-91.6,32
			c-15.7,8.4-30.3,18-41,32.6c-9,12.2-12.5,25.6-7.6,40.4c3.5,11.1,10.8,19.5,19.2,27.1c18,16,39.3,25.9,61.4,34
			c43.4,16,88.2,24.4,133.8,29.4c38.1,4.1,76.2,5.5,114.3,4.4c39.3-1.2,78.6-4.7,117.3-11.9c32.9-6.1,64.9-14.3,95.7-27.6
			c18.6-8.1,36.4-17.7,50.9-32.3c23-23,23-49.2,0.3-72.2c-9.6-9.6-20.7-17.2-32.6-23.3c-35.5-18.9-73.9-29.4-113.2-36.7
			C415.1,134.4,367.4,130.9,319.1,130z"/>
		<path class="st2" d="M319.1,130c48,0.9,95.7,4.4,143.1,13.4c39.3,7.6,77.7,17.7,113.2,36.7c11.9,6.4,23,13.7,32.6,23.3
			c22.7,23,22.7,49.2-0.3,72.2c-14.5,14.5-32.3,24.1-50.9,32.3c-30.5,13.4-62.8,21.5-95.7,27.6c-38.7,7-77.7,10.8-117.3,11.9
			c-38.4,1.2-76.5-0.3-114.3-4.4c-45.7-4.9-90.5-13.4-133.8-29.4c-22.1-8.1-43.4-18.3-61.4-34c-8.4-7.6-15.7-16-19.2-27.1
			c-4.9-14.8-1.5-28.2,7.6-40.4c10.8-14.5,25.3-24.1,41-32.6c28.8-15.4,59.9-24.7,91.6-32c31.4-7,62.8-11.6,94.9-14
			C273.2,131.8,296.1,131.2,319.1,130z M310.7,339.2c24.7-0.9,41.6-1.2,58.5-2c16.9-1.2,33.8-2.6,50.3-4.7
			c30-3.2,59.4-8.7,88.4-16.9c25-7,49.8-15.7,71.9-29.7c10.5-6.4,20.1-14,27.1-24.4c9.9-14.5,9.9-30.3-0.3-44.5
			c-3.5-4.7-7.3-9-11.9-12.8c-17.5-15.1-38.1-24.4-59.6-32c-34.3-12.2-69.5-19.5-105.6-24.4c-32.6-4.7-65.2-6.7-98.1-7.3
			c-31.7-0.6-63.4,0.9-94.9,3.8c-31.4,2.9-62.6,7.9-93.1,15.1c-27.9,7-55.3,15.4-80.3,29.7c-12.5,7-24.4,15.4-32.9,27.3
			c-10.5,14.5-10.5,31.1,0,45.4c4.1,5.5,9,10.8,14.3,15.1c15.1,12.5,32.9,20.9,51.2,27.6c43.1,16.3,87.9,24.7,133.5,29.1
			C259.5,336.9,289.2,338.1,310.7,339.2z"/>
		<path class="st1" d="M310.7,339.2c-21.5-1.5-51.2-2.3-80.6-5.2c-45.7-4.4-90.5-12.8-133.5-29.1c-18.3-7-36.1-15.1-51.2-27.6
			c-5.2-4.4-10.2-9.6-14.3-15.1c-10.8-14.3-10.5-30.8,0-45.4c8.4-11.9,20.4-20.4,32.9-27.3c25.3-14.3,52.4-23,80.3-29.7
			c30.5-7.6,61.7-12.2,93.1-15.1s63.1-4.4,94.9-3.8c32.9,0.6,65.5,2.6,98.1,7.3c35.8,4.9,71.3,12.2,105.6,24.4
			c21.5,7.9,42.2,16.9,59.6,32c4.4,3.8,8.4,8.1,11.9,12.8c10.2,14.3,10.2,30,0.3,44.5c-7,10.5-16.6,17.7-27.1,24.4
			c-22.4,14-46.8,22.7-71.9,29.7c-29.1,8.1-58.5,13.7-88.4,16.9c-16.9,1.7-33.5,3.5-50.3,4.7C352.6,338.3,335.7,338.3,310.7,339.2z
			 M252.5,284.8c2.6,8.4,8.1,13.4,16.6,15.1c6.4,1.5,12.8,0.6,18.6-2c10.5-4.9,18-13.4,24.7-22.4c6.1-8.1,12.5-16,19.2-23.9
			c2.6-2.9,6.1-5.2,9.6-7.3c1.2-0.9,3.8-0.9,4.9,0s1.5,3.5,1.2,4.7c-1.5,4.4-3.2,9-5.5,13.1c-6.4,11.1-12.8,22.1-19.5,33.2
			c-0.6,1.2-1.2,2.3-2.3,4.4c5.5,0,10.5,0.3,15.1,0c1.5,0,3.8-1.5,4.4-2.6c4.1-7,7.9-14.5,11.9-21.5c2-3.8,4.4-7.6,6.7-12.2
			c2.9,9.6,9,13.7,18.3,13.1c4.9-0.3,10.2-0.9,15.4-1.5c0,1.7,0,3.5,0,5.2c0.3,11.9,8.1,19.5,20.1,19.2c9-0.3,17.5-3.2,25.3-7.6
			c3.8,7.6,7.9,9.6,16,7.6c4.4-1.2,9-2.9,12.8-5.5c9.3-6.4,16.9-14.5,23-24.1c0.6-0.9,0-2.6,0-4.1c-1.5,0.3-2.9,0.6-4.4,0.9
			c-0.6,0.3-0.9,1.2-1.5,1.5c-7.3,6.1-14.5,12.8-22.1,18.6c-2,1.5-6.4,2.6-7.9,1.5c-2.9-2-0.3-5.2,1.2-7.9
			c14-24.7,27.6-49.2,41.6-73.9c0.9-1.5,1.5-2.9,2.6-4.9c-4.9,0-9,0-13.4,0c-2.6,0-4.4,0.9-5.5,3.2c-7,11.9-14,23.9-20.9,35.8
			c-0.9,1.5-1.7,2.9-3.2,4.7c-0.9-1.2-1.2-2-1.5-2.6c-4.7-8.4-11.1-11.3-20.4-10.2c-9,1.2-16.6,5.5-23,11.9
			c-5.5,5.5-10.8,11.1-16.3,16.3c-5.2,4.9-11.6,7.3-19.2,6.7c-4.4-0.3-8.1-3.5-9-7.6c-0.9-4.9,1.2-10.2,5.5-12.5
			c0.9,1.2,1.5,2.3,2.3,3.5c2.9,3.8,8.4,5.2,13.1,3.5c4.9-2,8.1-7.6,7.3-13.4c-0.6-4.7-4.4-8.4-9.6-9c-5.5-0.6-10.5,0.6-14.8,4.1
			c-2.3,2-4.7,4.1-7.3,6.4c-3.5-9.9-8.1-13.1-17.2-11.3c-3.2,0.6-6.4,2.3-8.7,4.4c-5.8,5.2-11.1,11.3-16.6,16.9
			c-0.9,1.2-1.7,2-3.5,4.1c0-2.6,0-4.1,0-5.5c-0.6-5.8-1.7-11.3-5.5-16c-2-2.3-4.4-2.6-6.7-0.9c-2,1.7-3.2,3.8-1.2,6.4
			c3.5,4.7,3.8,9.9,3.2,15.1c-1.5,14.3-9,24.7-21.5,31.1c-4.9,2.6-10.8,2.9-15.4-1.2c-4.7-4.1-5.2-9.3-4.1-14.8
			c3.8-16.3,13.4-26.8,29.7-31.4c3.5-0.9,4.1-2.6,1.7-4.9c-1.2-1.2-3.5-2-5.2-2c-8.7,0.3-16,3.8-22.4,9.6
			c-7,6.4-11.3,14.8-15.1,23.3c-3.8,8.1-8.7,14.8-16.3,19.8c-2,1.2-2.6,2.6-1.2,4.7c1.5,2,2.6,3.2,5.2,1.7
			C244.9,289.8,248.7,287.4,252.5,284.8z M236.5,227.2c-0.3,1.2-0.3,1.7-0.6,2c-11.1,15.1-22.7,30-37.5,41.3
			c-6.7,5.2-14.3,9-23,10.2c-11.6,1.5-20.7-6.1-20.4-18c0.3-10.2,6.1-16.9,14.3-22.4c1.5-0.9,2-2.6,2.9-4.1
			c-1.7-0.3-4.1-1.5-5.2-0.9c-5.8,2.9-12.2,5.5-16.9,9.6c-18.6,17.2-11.9,47.1,12.2,54.4c14.3,4.4,27.9,2.3,39.9-7.3
			c5.5-4.7,11.1-9.6,15.1-15.4c10.8-15.1,20.9-30.6,31.7-45.7c0.9-1.2,2.6-2.9,3.8-2.9c7.9-0.6,15.4-0.6,23.3-0.9
			c1.2,0,2.3,0,3.2-0.3c8.7-1.2,17.5-2.6,25.9-4.1c4.1-0.6,7.9-2,11.9-3.2c0-0.3-0.3-0.9-0.3-1.2c-6.7-1.2-13.1-2.9-18-8.1
			c-0.6-0.6-2.3-0.6-3.2-0.6c-4.7,1.2-9.3,2.6-14,3.5c-7.6,1.5-15.4,2.6-23.9,4.1c0.9-2,1.2-2.6,1.7-3.2c7.6-11.9,16.3-23,27.6-31.7
			c2.9-2.3,5.8-4.4,9.6-7.3c7.6,2.3,17.5,5.8,27.6,8.7c16.6,4.7,33.5,9,50.9,6.4c11.6-1.7,22.4-5.8,31.1-14c1.5-1.5,1.7-4.4,2.6-6.7
			c-2-0.6-4.4-1.7-6.4-1.7c-5.2,0.6-10.5,2-15.7,2.3c-32,2.6-63.7-0.9-95.4-6.1c-21.8-3.8-43.6-6.4-65.8-2.9
			c-12.5,2-24.4,5.2-34.9,13.1c-7.9,5.8-12.8,13.4-14.3,23.3c-2,13.7,8.7,26.8,21.2,25.6c15.1-1.2,30-14,33.5-28.8
			c0.3-1.5-0.6-3.2-0.9-4.7c-1.2,0.9-2.9,1.5-3.5,2.6c-5.5,7.6-12.8,12.2-21.8,14.5c-7.3,1.7-12.8-2.9-12.2-10.2
			c0.3-4.1,2-8.4,4.1-11.9c4.1-6.7,11.1-10.5,18.3-13.4c16.3-6.1,32.9-6.7,49.8-3.8c7.6,1.2,15.1,2.9,23.3,4.7
			c-2.6,1.7-4.7,2.9-6.4,4.1c-14.5,10.5-26.2,23.9-36.4,38.4c-1.2,1.5-3.5,2.6-5.2,3.2c-7,1.7-14.3,2.9-20.9,5.2
			c-2.9,0.9-5.2,4.1-7.6,6.7c-0.6,0.6-0.3,2.6,0,3.8c0.3,0.3,2.3,0.3,3.2,0C221.9,231.6,228.9,229.2,236.5,227.2z"/>
		<path class="st2" d="M252.5,284.8c-4.1,2.6-7.6,4.7-11.1,7c-2.3,1.5-3.8,0.3-5.2-1.7c-1.5-2-0.9-3.5,1.2-4.7
			c7.6-4.7,12.5-11.6,16.3-19.8c4.1-8.4,8.1-16.9,15.1-23.3c6.4-5.8,13.7-9.6,22.4-9.6c1.7,0,3.8,0.9,5.2,2c2.6,2.3,1.7,4.1-1.7,4.9
			c-16.3,4.4-25.9,15.1-29.7,31.4c-1.2,5.5-0.6,11.1,4.1,14.8c4.7,4.1,10.2,3.5,15.4,1.2c12.8-6.4,20.1-16.9,21.5-31.1
			c0.6-5.5,0-10.5-3.2-15.1c-2-2.6-0.9-4.9,1.2-6.4c2.3-1.7,4.7-1.5,6.7,0.9c3.8,4.7,5.2,10.2,5.5,16c0,1.5,0,2.6,0,5.5
			c1.7-2,2.6-3.2,3.5-4.1c5.5-5.8,10.8-11.6,16.6-16.9c2.3-2,5.8-3.8,8.7-4.4c9.3-1.7,13.7,1.2,17.2,11.3c2.3-2,4.7-4.4,7.3-6.4
			c4.4-3.5,9.3-4.7,14.8-4.1c5.2,0.6,9,4.1,9.6,9c0.9,5.8-2.3,11.3-7.3,13.4c-4.7,1.7-10.2,0.6-13.1-3.5c-0.9-1.2-1.5-2.3-2.3-3.5
			c-4.4,2-6.7,7.3-5.5,12.5c0.9,4.1,4.7,7,9,7.6c7.3,0.6,13.7-1.7,19.2-6.7c5.5-5.2,10.8-10.8,16.3-16.3c6.4-6.4,13.7-10.8,23-11.9
			c9.6-1.2,15.7,1.7,20.4,10.2c0.3,0.6,0.9,1.5,1.5,2.6c1.2-1.7,2-3.2,3.2-4.7c7-11.9,14.3-23.9,20.9-35.8c1.5-2.3,2.9-3.2,5.5-3.2
			c4.1,0.3,8.4,0,13.4,0c-1.2,2-1.7,3.5-2.6,4.9c-14,24.7-27.9,49.2-41.6,73.9c-1.5,2.6-4.1,5.8-1.2,7.9c1.5,1.2,5.8,0.3,7.9-1.5
			c7.6-5.8,14.8-12.2,22.1-18.6c0.6-0.6,0.9-1.2,1.5-1.5c1.5-0.6,2.9-0.6,4.4-0.9c0,1.5,0.6,3.2,0,4.1c-6.1,9.3-13.7,17.7-23,24.1
			c-3.8,2.6-8.4,4.4-12.8,5.5c-8.1,2-12.2,0-16-7.6c-7.9,4.4-16.3,7.3-25.3,7.6c-11.9,0.3-19.8-7.3-20.1-19.2c0-1.7,0-3.5,0-5.2
			c-5.2,0.6-10.5,1.2-15.4,1.5c-9,0.6-15.1-3.5-18.3-13.1c-2.6,4.7-4.7,8.4-6.7,12.2c-3.8,7.3-7.6,14.5-11.9,21.5
			c-0.9,1.5-2.9,2.6-4.4,2.6c-4.7,0.3-9.6,0-15.1,0c1.2-2,1.7-3.2,2.3-4.4c6.4-11.1,13.1-22.1,19.5-33.2c2.3-4.1,4.1-8.4,5.5-13.1
			c0.6-1.5,0-3.8-1.2-4.7c-1.2-0.9-3.8-0.9-4.9,0c-3.5,2-7,4.4-9.6,7.3c-6.7,7.6-13.1,15.7-19.2,23.9c-6.7,9.3-14.3,17.5-24.7,22.4
			c-6.1,2.9-12.2,3.8-18.6,2C260.6,298.2,255.1,293.2,252.5,284.8z M416.3,289.2c3.2-1.5,7.3-2.6,9.9-4.7
			c9.9-7.9,18.6-16.6,20.1-30.6c0.9-7.6-3.2-12.5-10.8-11.1c-2.3,0.3-4.9,1.5-7,2.6c-7,4.1-12.8,9.6-16.6,16.9
			c-2.3,4.4-4.4,9.3-4.9,14C406.4,284.5,409.3,288.6,416.3,289.2z"/>
		<path class="st2" d="M236.5,227.2c-7.6,2.3-14.5,4.4-21.5,6.4c-1.2,0.3-2.9,0.3-3.2,0c-0.6-1.2-0.6-2.9,0-3.8
			c2.3-2.3,4.7-5.5,7.6-6.7c6.7-2.3,14-3.5,20.9-5.2c2-0.6,4.1-1.5,5.2-3.2c10.5-14.5,21.8-27.9,36.4-38.4c1.7-1.2,3.8-2.3,6.4-4.1
			c-8.1-1.7-15.7-3.5-23.3-4.7c-16.9-2.9-33.5-2.3-49.8,3.8c-7.3,2.6-14.3,6.4-18.3,13.4c-2,3.5-3.8,7.9-4.1,11.9
			c-0.6,7.3,4.9,11.9,12.2,10.2c9-2,16.3-6.7,21.8-14.5c0.9-1.2,2.3-1.7,3.5-2.6c0.3,1.5,1.5,3.2,0.9,4.7
			c-3.5,14.8-18,27.3-33.5,28.8c-12.5,1.2-23.3-11.9-21.2-25.6c1.5-9.9,6.4-17.5,14.3-23.3c10.2-7.9,22.4-11.1,34.9-13.1
			c22.1-3.5,43.9-0.9,65.8,2.9c31.4,5.5,63.1,9,95.4,6.1c5.2-0.6,10.5-2,15.7-2.3c2-0.3,4.4,1.2,6.4,1.7c-0.9,2.3-0.9,5.2-2.6,6.7
			c-8.7,8.1-19.8,11.9-31.1,14c-17.5,2.9-34.3-1.5-50.9-6.4c-9.9-2.9-19.8-6.4-27.6-8.7c-3.8,2.9-7,4.9-9.6,7.3
			c-11.1,8.7-20.1,19.8-27.6,31.7c-0.3,0.6-0.9,1.5-1.7,3.2c8.7-1.5,16.3-2.6,23.9-4.1c4.7-0.9,9.3-2.3,14-3.5
			c1.2-0.3,2.6-0.3,3.2,0.6c4.9,5.2,11.3,7,18,8.1c0,0.3,0.3,0.9,0.3,1.2c-4.1,1.2-7.9,2.3-11.9,3.2c-8.7,1.5-17.5,2.6-25.9,4.1
			c-1.2,0.3-2.3,0.3-3.2,0.3c-7.9,0.3-15.4,0.3-23.3,0.9c-1.5,0-2.9,1.7-3.8,2.9c-10.5,15.1-20.7,30.8-31.7,45.7
			c-4.1,5.8-9.6,11.1-15.1,15.4c-11.9,9.6-25.6,11.6-39.9,7.3c-23.9-7-30.8-37.2-12.2-54.4c4.7-4.4,11.1-6.7,16.9-9.6
			c1.2-0.6,3.5,0.6,5.2,0.9c-0.9,1.5-1.7,3.2-2.9,4.1c-8.1,5.2-14,12.2-14.3,22.4c-0.6,11.9,8.7,19.5,20.4,18
			c8.7-1.2,16.3-4.9,23-10.2c15.1-11.3,26.5-26.2,37.5-41.3C236.2,228.7,236.2,228.4,236.5,227.2z"/>
		<path class="st1" d="M416.3,289.2c-7-0.6-9.9-4.7-9-12.8c0.6-4.9,2.6-9.6,4.9-14c3.8-7.3,9.6-12.8,16.6-16.9c2-1.2,4.7-2,7-2.6
			c7.6-1.2,11.6,3.5,10.8,11.1c-1.5,13.7-10.2,22.4-20.1,30.5C423.6,286.6,419.8,287.4,416.3,289.2z"/>
	</g>
</g>
</svg>
