<?xml version="1.0" encoding="utf-8"?>
<!-- Generator: Adobe Illustrator 22.1.0, SVG Export Plug-In . SVG Version: 6.00 Build 0)  -->
<svg version="1.1" id="Layer_2_1_" xmlns="http://www.w3.org/2000/svg" xmlns:xlink="http://www.w3.org/1999/xlink" x="0px" y="0px"
	 viewBox="0 0 640 480" style="enable-background:new 0 0 640 480;" xml:space="preserve">
<style type="text/css">
	.st0{fill:#270F6C;}
</style>
<g>
	<path class="st0" d="M179.7,45.3c-60.4,43.5-99.8,114.5-99.8,194.6c0,105.2,67.5,194.6,161.6,227.1l83.7-120.6L179.7,45.3z"/>
	<path class="st0" d="M505.3,87.2C461.3,33.8,394.6-0.2,320.1-0.2c-15.2,0-30.1,1.4-44.5,4l78.9,300.5L505.3,87.2z"/>
	<path class="st0" d="M253.5,470.9c21.1,6.1,43.5,9.3,66.5,9.3c22.7,0,44.6-3.2,65.4-9l-42-87.2L253.5,470.9z"/>
	<path class="st0" d="M553.1,181.3l-184.2,178l28.4,108.3c94.8-32.2,162.9-121.8,162.9-227.5C560.1,219.7,557.8,200,553.1,181.3z"/>
</g>
</svg>
