<?xml version="1.0" encoding="utf-8"?>
<!-- Generator: Adobe Illustrator 22.1.0, SVG Export Plug-In . SVG Version: 6.00 Build 0)  -->
<svg version="1.1" id="Layer_2_1_" xmlns="http://www.w3.org/2000/svg" xmlns:xlink="http://www.w3.org/1999/xlink" x="0px" y="0px"
	 viewBox="0 0 640 480" style="enable-background:new 0 0 640 480;" xml:space="preserve">
<style type="text/css">
	.st0{fill:#1F325B;}
</style>
<g>
	<g>
		<path class="st0" d="M483.1,219.1c0,22,0,43.7,0,65.9c-4.4,0-8.6,0-12.8,0c-0.8,0-1.8-1.3-2.4-2.1c-7.8-11-15.4-22-23.3-33
			c-0.5-0.5-1-1.3-1.8-2.4c0,12.8,0,25.1,0,37.4c-5.5,0-10.5,0-15.7,0c0-22,0-43.7,0-65.9c4.7,0,9.2,0,13.9,0c0.8,0,1.8,1.3,2.6,2.1
			c7.3,10.2,14.4,20.1,21.4,30.3c0.5,0.8,1.3,1.6,2.4,2.4c0-11.5,0-22.8,0-34.5C472.6,219.1,477.6,219.1,483.1,219.1z"/>
		<path class="st0" d="M230.7,259.3c4.4,8.6,8.6,16.7,13.1,25.4c-3.1,0-5.8,0-8.1,0c-3.4,0-7.6,0.8-10.2-0.8
			c-2.4-1.6-3.4-5.8-4.7-8.9c-1.8-3.7-3.7-7.6-5.5-11.2c-0.8-1.6-1.8-2.4-3.7-2.4c-2.1,0.3-4.2,0-6.8,0c0,7.6,0,15.2,0,23
			c-5.2,0-10.2,0-15.2,0c-0.5,0-1-1-1.3-1.6c-0.3-0.8,0-1.8,0-2.6c0-19.1,0-38.4,0-57.5c0-4.4,0-4.4,4.4-4.4
			c10.2,0,20.4-0.3,30.6,0.5c12.3,0.8,19.1,7.8,19.6,20.1C243,248.3,239.6,255.4,230.7,259.3z M204.6,247.8c5.5,0,10.7,0.3,16,0
			c3.7-0.3,5.5-3.1,5.5-7.1s-1.6-7.1-5.2-7.3c-5.2-0.5-10.7,0-16.2,0C204.6,238.1,204.6,243.1,204.6,247.8z"/>
		<path class="st0" d="M579.3,218.8c0,1,0.3,1.6,0.3,2.1c0,12.3,0,24.3,0,36.6c-0.3,20.9-13.9,30.6-34.3,28
			c-12.8-1.6-21.2-10.2-21.7-23.3c-0.8-13.9-0.3-28-0.5-42.1c0-0.3,0.3-0.5,0.5-1.3c5,0,9.7,0,14.6,0c0.5,0,1.6,1.8,1.6,2.6
			c0,11.2,0,22.5,0,34c0,2.4,0.3,5,0.8,7.3c1.3,5.2,5.2,8.1,10.7,8.1c5.2,0,8.9-2.9,10.2-8.1c0.5-1.8,0.8-3.9,0.8-6
			c0-11.5,0-23.3,0-34.8c0-2.4,0.5-3.1,2.9-3.1C570.2,218.8,574.6,218.8,579.3,218.8z"/>
		<path class="st0" d="M299.7,218.8c0,4.4,0,8.6,0,12.8c0,0.5-1.6,1.6-2.4,1.6c-8.4,0-16.5,0-24.8,0c-1,0-2.4,0-3.7,0.3
			c0,3.1,0,6.3,0,9.7c5.5,0,11,0,16.5,0c4.2,0,4.2,0,4.2,4.2c0,2.6,0,5,0,7.6c0,2.1-0.8,2.6-2.6,2.6c-5,0-9.7,0-14.6,0
			c-1,0-2.1,0-3.4,0.3c0,4.2,0,8.4,0,12.8c11,0,22,0,33,0c0,5,0,9.4,0,14.4c-0.8,0-1.8,0.3-2.6,0.3c-14.6,0-29.3,0-43.9,0
			c-2.4,0-3.1-0.8-3.1-3.1c0-19.9,0-40,0-59.9c0-2.4,0.8-3.1,3.1-3.1c13.9,0,27.5,0,41.3,0C297.7,218.8,298.4,218.8,299.7,218.8z"/>
		<path class="st0" d="M415.3,218.8c0,4.4,0,8.6,0,12.8c0,0.5-1.6,1.6-2.4,1.6c-8.4,0-16.5,0-24.8,0c-1,0-2.4,0-3.7,0.3
			c0,3.1,0,6.3,0,9.7c5.5,0,11,0,16.5,0c4.2,0,4.2,0,4.2,4.2c0,2.6,0,5,0,7.6c0,2.1-0.8,2.6-2.6,2.6c-5,0-9.7,0-14.6,0
			c-1,0-2.1,0-3.4,0.3c0,4.2,0,8.4,0,12.8c11,0,22,0,33,0c0,5,0,9.4,0,14.4c-0.8,0-1.8,0.3-2.6,0.3c-14.6,0-29.3,0-43.9,0
			c-2.4,0-3.1-0.8-3.1-3.1c0-19.9,0-40,0-59.9c0-2.4,0.8-3.1,3.1-3.1c13.9,0,27.5,0,41.3,0C413.2,218.8,414,218.8,415.3,218.8z"/>
		<path class="st0" d="M585.9,276.3c2.9-3.9,5.8-7.8,8.1-11c6,1.8,11.2,3.9,16.7,5.2c2.4,0.5,5.2,0.3,7.8-0.3
			c2.4-0.3,4.2-1.6,4.4-3.9c0.3-2.6-1-4.2-3.1-5c-2.9-1-6-1.8-9.2-2.9c-4.2-1.3-8.1-2.4-12.3-3.9c-6.8-2.9-10.2-8.1-10.5-15.4
			c-0.3-7.6,2.6-13.6,9.4-17.5c7.3-4.4,15.4-4.7,23.5-3.4c6.5,1,12.6,3.4,17.8,8.1c-2.9,4.2-5.8,8.1-8.6,12
			c-2.9-1.6-5.2-2.9-7.8-4.2c-4.2-1.8-8.6-2.4-13.1-1.6c-2.1,0.5-3.9,1.6-4.2,3.9c-0.3,2.4,1.3,3.7,3.1,4.2
			c4.4,1.3,8.9,2.6,13.3,3.9c4.7,1.3,9.4,2.9,13.3,6.5c8.9,8.6,6,25.1-5.2,30.9c-11.5,6-33,3.4-42.9-5.2
			C586.4,277.1,586.1,276.9,585.9,276.3z"/>
		<path class="st0" d="M358.3,226.6c-2.9,3.9-5.5,7.8-8.6,11.8c-2.1-1-3.9-2.4-6-3.4c-4.4-2.4-9.2-3.1-14.1-2.6
			c-2.4,0.3-4.7,1-5,3.9c-0.3,2.9,1.6,3.9,3.9,4.7c4.2,1.3,8.4,2.4,12.3,3.4c2.6,0.8,5.5,1.8,7.8,2.9c6.8,3.1,10.5,8.4,10.7,16
			c0.3,8.1-2.4,14.9-10.2,18.6c-11.2,5.2-23,4.4-34.3,0c-3.4-1.3-6.3-3.4-9.9-5.2c3.1-4.4,6-8.4,8.6-11.8c4.7,1.8,8.9,3.9,13.3,5.2
			c3.4,0.8,6.8,0.5,10.5,0.5c2.4,0,4.4-1.3,5-4.2c0.3-2.9-1.6-4.4-3.9-5.2c-3.4-1-7.1-2.1-10.7-3.1c-3.4-1-6.8-2.1-9.9-3.4
			c-6.8-2.9-10.2-8.1-10.5-15.4c-0.3-7.3,2.4-13.1,8.4-17.3c11-7.3,32.2-5.2,41.6,3.7C358.1,226.1,358.1,226.1,358.3,226.6z"/>
		<path class="st0" d="M148.8,243.6c7.8,0,15.4,0,23,0c0,5,0,9.7,0,14.6c-6.5,0-13.1,0.3-19.4,0c-2.9,0-3.9,0.8-3.7,3.7
			c0.3,7.6,0,14.9,0,23c-5.2,0-10.5,0-15.4,0c-0.3,0-1-1-1-1.8c-0.3-1.6,0-3.4,0-5c0-18.6,0-37.1,0-56c0-2.9,0.8-3.7,3.7-3.7
			c14.1,0.3,28,0.3,42.1,0c3.1,0,3.9,1,3.7,3.9c-0.3,2.6-0.3,5.5,0,8.1c0,2.1-0.5,2.9-2.9,2.9c-8.9,0-17.8,0-26.7,0
			c-2.6,0-3.7,0.5-3.4,3.1C149.1,238.9,148.8,241,148.8,243.6z"/>
		<path class="st0" d="M0.3,209.4c0-4.7,0-9.2,0-13.6c0-0.5,1-1.3,1.8-1.6c0.3-0.3,1,0,1.3,0c28,0,56.2,0,84.2,0c1,0,1.8,0,3.1,0
			c0,5.2,0,10.2,0,15.4C60.7,209.4,30.6,209.4,0.3,209.4z"/>
		<path class="st0" d="M495.4,285c0-22.2,0-43.9,0-66.2c5.2,0,10.2,0,15.2,0c0.5,0,1,0.8,1.3,1.6c0.3,0.5,0,1,0,1.8
			c0,19.9,0,39.8,0,59.6c0,2.6-0.5,3.4-3.1,3.4C504.5,284.7,499.8,285,495.4,285z"/>
		<path class="st0" d="M66.2,234.2c-1.3,0-2.4,0-3.4,0c-19.9,0-39.5,0-59.4,0c-2.6,0-3.7-0.5-3.4-3.4c0.3-3.1,0.3-6.3,0-9.4
			c0-2.1,0.5-2.9,2.9-2.9c20.1,0,40.5,0,60.7,0c1.8,0,2.6,0.5,2.6,2.4C66.2,225.3,66.2,229.8,66.2,234.2z"/>
		<path class="st0" d="M20.7,259.6c-6,0-11.8,0-17.8,0c-2.1,0-2.9-0.8-2.9-2.9c0.3-3.4,0-6.8,0-10.2c0-1.6,0.5-2.6,2.4-2.4
			c12.3,0,24.3,0,36.6,0c1.8,0,2.4,0.5,2.4,2.4c0,3.7,0,7.3,0,10.7c0,1.8-0.8,2.4-2.4,2.4C32.7,259.6,26.7,259.6,20.7,259.6z"/>
		<path class="st0" d="M8.4,269.3c7.8,0,7.8,0,7.8,8.1c0,7.6,0,7.6-7.3,7.6c-2.1,0-4.2,0-6.3,0c-1.6,0-2.4-0.5-2.4-2.4
			c0-3.7,0-7.3,0-11c0-1.6,0.5-2.4,2.1-2.4C4.5,269.3,6.3,269.3,8.4,269.3z"/>
	</g>
</g>
</svg>
