<?xml version="1.0" encoding="utf-8"?>
<!-- Generator: Adobe Illustrator 21.1.0, SVG Export Plug-In . SVG Version: 6.00 Build 0)  -->
<svg version="1.1" id="Layer_1" xmlns="http://www.w3.org/2000/svg" xmlns:xlink="http://www.w3.org/1999/xlink" x="0px" y="0px"
	 viewBox="0 0 640 480" style="enable-background:new 0 0 640 480;" xml:space="preserve">
<style type="text/css">
	.st0{fill:#FF6600;}
	.st1{fill:#FFFFFF;}
</style>
<path class="st0" d="M552,472H88V8h464V472z"/>
<path class="st1" d="M145.1,434.6c-16.8,0-32-10.7-32-34.1c0-23.4,15.2-34.1,32-34.1c16.8,0,31.9,10.7,31.9,34.1
	C177,423.9,161.9,434.6,145.1,434.6 M145.1,380.8c-12.7,0-15,11.4-15,19.7s2.3,19.7,15,19.7c12.7,0,15-11.5,15-19.7
	S157.8,380.8,145.1,380.8 M188.7,368.1h16.2v7.6c3.1-4.1,10.7-8.9,17.8-8.9c0.7,0,1.5,0,2.2,0.1v16H224c-7.4,0-15.5,1.1-18.1,6.9
	v42.9h-17.3V368.1L188.7,368.1z M270,427.1c-6.6,4.3-13.7,6.4-21.4,6.4c-12,0-19.2-8-19.2-18.8c0-14.5,13.3-22.1,40.7-25.2v-3.6
	c0-4.7-3.6-7.4-10.1-7.4s-11.9,2.6-15.8,7.4l-11.5-6.5c6-8.4,15.2-12.6,27.5-12.6c16.8,0,26.3,7.3,26.3,19.2c0,0,0,46.7,0,46.8
	h-15.1L270,427.1L270,427.1z M246.2,413.5c0,4.3,2.7,8.4,7.7,8.4c5.3,0,10.5-2.2,15.7-6.8v-15.3
	C253.7,401.7,246.2,405.8,246.2,413.5 M300,369.9l14.1-1.9l1.6,7.7c7.9-5.8,14.2-8.9,22.2-8.9c13.3,0,20.2,7,20.2,21v45h-17v-42
	c0-7.9-2-11.5-8.2-11.5c-5.1,0-10.1,2.3-15.9,7.2v46.3H300V369.9z M399.6,418.8c12.9-0.1,14-13.2,14-21.8c0-10.1-4.9-18.3-14.1-18.3
	c-6.1,0-12.9,4.5-12.9,19C386.5,405.7,387.1,418.9,399.6,418.8 M429.9,367.9V429c0,10.8-0.9,28.6-31.6,28.7
	c-12.7,0.1-24.5-5-26.8-16.1l16.8-2.7c0.7,3.2,2.7,6.3,12.2,6.3c8.8,0,13-4.2,13-14.3v-7.5l-0.2-0.2c-2.7,4.8-6.8,9.4-16.7,9.4
	c-15.1,0-26.9-10.5-26.9-32.3c0-21.6,12.2-33.7,25.9-33.7c12.9,0,17.7,5.9,18.8,8.9l-0.2,0l1.4-7.7L429.9,367.9L429.9,367.9
	L429.9,367.9z M470.5,433.9c-19,0-30.4-12.3-30.4-33.5c0-21.5,11.5-33.7,30.1-33.7c18.6,0,29.7,11.9,29.7,32.9
	c0,1.1-0.1,2.2-0.1,3.3h-43c0.1,12.3,5.2,18.4,15.2,18.4c6.4,0,10.7-2.6,14.7-8.3l12.4,6.9C493.7,429.1,483.8,433.9,470.5,433.9
	 M483.3,391.9c0-8.6-5-13.7-13-13.7c-7.7,0-12.5,5-13.2,13.7H483.3z M529.1,343.6l-6.3,16.2l-6.4-16.2H511V365h3.5v-17.8h0.1l7,17.8
	h2.3l7-17.8h0.1V365h3.5v-21.4H529.1z M489.8,343.6v2.8h6.7V365h3.5v-18.5h6.7v-2.8L489.8,343.6L489.8,343.6z"/>
</svg>
