<?xml version="1.0" encoding="utf-8"?>
<!-- Generator: Adobe Illustrator 19.1.1, SVG Export Plug-In . SVG Version: 6.00 Build 0)  -->
<svg version="1.1" id="Layer_3" xmlns="http://www.w3.org/2000/svg" xmlns:xlink="http://www.w3.org/1999/xlink" x="0px" y="0px"
	 viewBox="0 0 640 480" style="enable-background:new 0 0 640 480;" xml:space="preserve">
<style type="text/css">
	.st0{fill:#3B6E8F;}
</style>
<path id="path3027_1_"  class="st0" d="M5,104.7h134.4v39H54.5v73.9h84.9v39.6H54.5v115.8H5
	L5,104.7"/>
<path id="path3031_1_"  class="st0" d="M215,143.7h-59.3v-39h166.4v39h-58.2v229.2H215V143.7"/>
<path id="path3043_1_"  class="st0" d="M334.9,321.2c9.3,5.8,30.8,16.3,56.4,16.3
	c21.5,0,40.7-11.6,40.7-39c0-19.2-11.1-27.3-34.9-40.7c-25-13.4-25-13.4-25-13.4c-26.2-14.5-43.1-36.1-43.1-70.4
	c0-48.3,39-72.7,83.8-72.7c28.5,0,48.3,7,55.9,9.9c-2.3,40.7-2.3,40.7-2.3,40.7c-11.6-4.7-27.3-11.6-50-11.6
	c-24.4,0-36.7,13.4-36.7,31.4c0,20.4,12.8,27.9,27.9,36.1c29.1,16.3,29.1,16.3,29.1,16.3c30.8,17.5,46,34.3,46,72.1
	c0,54.7-38.4,80.9-89.6,80.9c-26.8,0-47.7-4.1-60.5-12.2"/>
<path id="path3055"  class="st0" d="M501,104.7h134.4v39h-85.5v74.5h85.5v39h-85.5V334h85.5v39H501
	V104.7"/>
</svg>
