<?xml version="1.0" encoding="utf-8"?>
<!-- Generator: Adobe Illustrator 19.1.1, SVG Export Plug-In . SVG Version: 6.00 Build 0)  -->
<svg version="1.1" id="Layer_1" xmlns="http://www.w3.org/2000/svg" xmlns:xlink="http://www.w3.org/1999/xlink" x="0px" y="0px"
	 viewBox="80 0 640 480" style="enable-background:new 80 0 640 480;" xml:space="preserve">
<style type="text/css">
	.st0{fill:#920229;}
	.st1{fill:#FD9C00;}
</style>
<path id="G" class="st0" d="M400.3,176.7c34.8,0,67.2,15,90,37.8l24.6-25.8c-29.4-29.4-69.6-47.4-114.7-47.4
	c-91.2,0-164.4,73.8-164.4,163.9c0,90.6,73.2,164.5,164.4,164.5c90,0,163.9-73.8,163.9-164.5c0-12.6-1.2-24.6-4.2-37.8h-81v36h49.2
	c0,1.2,0,1.8,0,1.8c0,70.2-57.6,128.5-127.9,128.5c-70.8,0-128.5-58.2-128.5-128.5C271.8,234.3,329.4,176.7,400.3,176.7z"/>
<path id="S" class="st1" d="M486.1,93.2c-1.2-45.6-39.6-82.8-85.8-82.8c-47.4,0-86.4,39-86.4,85.8c0,29.4,15,55.8,38.4,71.4l96,64.8
	c13.2,9,24,21,30.6,36v-1.2h39c-9-25.8-26.4-49.2-48.6-64.2l-97.2-65.4c-13.2-9-22.2-24-22.2-41.4c0-27.6,22.2-49.8,50.4-49.8
	c25.8,0,48.6,21,49.2,46.8h36H486.1z M523.9,303.3c0,1.2,0,1.8,0,1.8c0,68.4-55.8,123.7-123.7,123.7c-68.4,0-124.3-55.2-124.3-123.7
	c0-12.6,2.4-25.8,6-37.8h38.4c-5.4,12-8.4,24-8.4,37.8c0,48,40.2,87.6,88.2,87.6s87.6-39.6,87.6-87.6c0,0,0-0.6,0-1.8H523.9z"/>
</svg>
