<?xml version="1.0" encoding="utf-8"?>
<!-- Generator: Adobe Illustrator 22.1.0, SVG Export Plug-In . SVG Version: 6.00 Build 0)  -->
<svg version="1.1" id="Layer_2_1_" xmlns="http://www.w3.org/2000/svg" xmlns:xlink="http://www.w3.org/1999/xlink" x="0px" y="0px"
	 viewBox="0 0 640 480" style="enable-background:new 0 0 640 480;" xml:space="preserve">
<style type="text/css">
	.st0{clip-path:url(#SVGID_2_);fill:#002A5F;}
	.st1{clip-path:url(#SVGID_4_);fill:#FFFFFF;}
	.st2{clip-path:url(#SVGID_6_);fill:#FFFFFF;}
	.st3{clip-path:url(#SVGID_8_);fill:#FFFFFF;}
</style>
<g>
	<g>
		<g>
			<g>
				<g>
					<defs>
						<rect id="SVGID_1_" x="80.8" y="0.8" width="478.4" height="478.4"/>
					</defs>
					<clipPath id="SVGID_2_">
						<use xlink:href="#SVGID_1_"  style="overflow:visible;"/>
					</clipPath>
					<polygon class="st0" points="320.2,0.8 80.8,0.8 80.8,240.2 80.8,479.5 320.2,479.5 559.5,479.5 559.5,240.2 559.5,0.8 					
						"/>
				</g>
			</g>
		</g>
		<g>
			<g>
				<g>
					<defs>
						<rect id="SVGID_3_" x="80.8" y="0.8" width="478.4" height="478.4"/>
					</defs>
					<clipPath id="SVGID_4_">
						<use xlink:href="#SVGID_3_"  style="overflow:visible;"/>
					</clipPath>
					<path class="st1" d="M424.7,124.7h10c9.3,0,13.8,8.7,13.8,15.4v103c0,7.4-4.5,14.2-12.9,14.2h-10.9L424.7,124.7L424.7,124.7z
						 M434.7,120.8h-39.6v3.9h10.3V356h-10.3v4.2h44.4V356h-15.1v-94.3h12.9c19,0,29.6-10,29.6-23.2v-92.7
						C467.2,132.7,457.9,120.8,434.7,120.8"/>
				</g>
			</g>
		</g>
		<g>
			<g>
				<g>
					<defs>
						<rect id="SVGID_5_" x="80.8" y="0.8" width="478.4" height="478.4"/>
					</defs>
					<clipPath id="SVGID_6_">
						<use xlink:href="#SVGID_5_"  style="overflow:visible;"/>
					</clipPath>
					<path class="st2" d="M225.9,123.7c0,3.9-2.3,3.5-3.9,2.3c-6.4-4.5-14.2-7.7-21.2-7.7c-11.6,0-27.7,5.5-28,29.6v177.3
						c0.3,30.9,15.1,36.7,29.6,36.7c11.3,0,16.7-5.8,21.2-8c2.6-1,5.1,1.3,5.1,5.8h4.8V246.6h9.3v-3.9h-39.9v3.9h11.6v97.2
						c0,7.7-5.5,13.8-12.2,13.8c-6.4,0-11.6-6.1-11.6-13.8V141.1c0-5.5,1-18.3,9.7-18.3c16.4,0,25.1,48.3,25.4,73h4.8v-75.3h-4.8
						V123.7z"/>
				</g>
			</g>
		</g>
		<g>
			<g>
				<g>
					<defs>
						<rect id="SVGID_7_" x="80.8" y="0.8" width="478.4" height="478.4"/>
					</defs>
					<clipPath id="SVGID_8_">
						<use xlink:href="#SVGID_7_"  style="overflow:visible;"/>
					</clipPath>
					<path class="st3" d="M298.6,257.2l11.6-103.3l11.9,103.3H298.6z M322.4,261.4l10.6,94.3h-10.6v4.2H362v-4.2h-10.3l-26.4-235.2
						h-16.7l-24.5,222c-1.3,8-2.3,12.9-13.5,13.2v4.2h29.6v-4.2c-8.4,0-12.2-5.5-11.3-10.9l9.3-83L322.4,261.4L322.4,261.4z"/>
				</g>
			</g>
		</g>
	</g>
</g>
</svg>
