<?xml version="1.0" encoding="utf-8"?>
<!-- Generator: Adobe Illustrator 21.1.0, SVG Export Plug-In . SVG Version: 6.00 Build 0)  -->
<svg version="1.1" id="Ñëîé_1" xmlns="http://www.w3.org/2000/svg" xmlns:xlink="http://www.w3.org/1999/xlink" x="0px" y="0px"
	 viewBox="0 0 1814.2 1360.6" style="enable-background:new 0 0 1814.2 1360.6;" xml:space="preserve">
<style type="text/css">
	.st0{fill:url(#SVGID_1_);}
	.st1{fill:#303033;}
</style>
<g>
	
		<radialGradient id="SVGID_1_" cx="907.0866" cy="79771.6563" r="597.9061" gradientTransform="matrix(1 0 0 0.1552 0 -11141.6025)" gradientUnits="userSpaceOnUse">
		<stop  offset="0" style="stop-color:#6D6E71"/>
		<stop  offset="4.666114e-02" style="stop-color:#7C7C7F"/>
		<stop  offset="0.1916" style="stop-color:#A4A4A6"/>
		<stop  offset="0.3409" style="stop-color:#C5C5C6"/>
		<stop  offset="0.4936" style="stop-color:#DEDFDF"/>
		<stop  offset="0.6509" style="stop-color:#F1F1F1"/>
		<stop  offset="0.8156" style="stop-color:#FBFBFC"/>
		<stop  offset="1" style="stop-color:#FFFFFF"/>
	</radialGradient>
	<ellipse class="st0" cx="907.1" cy="1239" rx="841" ry="129"/>
	<g>
		<path class="st1" d="M1117.9,443H772.2c-17,0-30.9,13.8-30.9,30.9v507.4c0,17,13.8,30.9,30.9,30.9h345.8c17,0,30.9-13.8,30.9-30.9
			V473.9C1148.8,456.8,1135,443,1117.9,443z"/>
		<path class="st1" d="M746,416.6h398.1c19.6,0,35.5-15.9,35.5-35.5V97.4c0-19.6-15.9-35.5-35.5-35.5H746
			c-19.6,0-35.5,15.9-35.5,35.5v283.7C710.5,400.7,726.4,416.6,746,416.6z M770.1,119.6h350V358h-350V119.6z"/>
		<path class="st1" d="M1164,1032.8H726.1c-16.6,0-30.1,15.9-30.1,35.5v28.9c0,4.4,0.7,8.6,1.9,12.5h494.1c1.2-3.9,1.9-8.1,1.9-12.5
			v-28.9C1194,1048.8,1180.6,1032.8,1164,1032.8z"/>
		<path class="st1" d="M708,520.2l-0.3-38.5c-15.7,0.1-29.5,5.9-40.1,16.7C637.9,529,639,594.6,640.2,658c0.4,23.6,0.8,46-0.5,64.2
			c-0.4,5.1-0.5,13-0.8,23c-0.6,27.7-1.6,69.7-7.5,105.5c-7.1,43.1-17.6,53.2-21,53.4c-7.5,0.6-13.2-1.2-18.4-5.9
			c-26.6-23.7-32.7-109.5-35.1-172c-0.7-18.9-2-42.6-3.4-70.1c-4.6-86.2-11.3-209.3-4-279.4c29.8-1.2,51.2-11.1,63.8-29.8
			c20.2-29.8,9.4-72.3,2.9-91.4c15.9-11,36-22.5,61.9-37.4l0.9-0.5l-19.2-33.4l-0.9,0.5c-83.4,47.9-117.9,67.7-140.6,147.5
			c-17.5,61.3-9.2,214.2-3.2,325.9c1.5,27.3,2.7,50.9,3.4,69.4c4.2,115,18.1,172.8,47.9,199.3c11.7,10.5,25.6,15.7,41.3,15.7
			c1.9,0,3.8-0.1,5.7-0.2c55.1-4.3,61.9-103.7,64-196.4c0.2-9.1,0.4-16.9,0.7-21c1.4-19.9,1-43.1,0.6-67.6
			c-0.9-50.3-2-113,16.6-132.1C698.6,521.8,702.6,520.3,708,520.2z M555.3,342.9c8.9-31.1,19.1-50.4,36.1-67.2
			c4.5,17.2,7.2,40.3-2.7,54.8c-6.3,9.3-17.8,14.7-34.4,16.3C554.6,345.4,555,344.1,555.3,342.9z"/>
	</g>
</g>
</svg>
