<?xml version="1.0" encoding="utf-8"?>
<!-- Generator: Adobe Illustrator 21.1.0, SVG Export Plug-In . SVG Version: 6.00 Build 0)  -->
<svg version="1.1" id="svg" xmlns="http://www.w3.org/2000/svg" xmlns:xlink="http://www.w3.org/1999/xlink" x="0px" y="0px"
	 viewBox="0 0 640 480" style="enable-background:new 0 0 640 480;" xml:space="preserve">
<style type="text/css">
	.st0{fill:#BF4000;}
	.st1{fill:#EF7C00;}
</style>
<g id="svgg">
	<path id="path1" d="M414.5,210.6v57h-5h-5V238v-29.6l-1.7-4.5c-4.2-11-15.5-17-33.5-17.7c-25.6-1-44.5,11.4-44.5,29.1v2.4h10.8
		h10.8l0.4-2c1.7-8.4,7.6-12,19.7-11.9c13,0.1,20,5.7,17.5,14c-1.7,5.7-5.1,7.1-23.4,9.5c-23.6,3.1-31.4,6.3-35.8,14.6
		c-1.2,2.2-1.2,2.2-1.2-15.5c0-19-0.3-21.3-3.3-27.1c-8.4-16.4-37-18.4-52-3.7c-2.6,2.5-4.8,4.6-4.8,4.5c-0.1-0.1-0.7-1.2-1.5-2.4
		c-9.7-16.1-39-15.6-51.2,1l-1.8,2.4v-6.3v-6.3h-10h-10l0,12.6l0,12.6l-1.6-3.1c-17-33.3-63.9-32.6-79.7,1.2l-2.1,4.4l0-13.9l0-13.9
		H95H84.4l0,5.8l0,5.8l-1.3-1.9c-12.8-17.8-43.6-15.8-58.8,3.7c-18,23.2-10.7,66,13.1,76.2c16.3,7,33.1,4.4,43.5-6.6l3.8-4.1l-0.4,9
		c-0.8,19.7-6,25.2-24.1,25.2c-12.7,0-17.3-2.3-20.2-9.9l-1.1-2.9H28.2H17.6l0.4,3.5c3,28.9,60.5,37,79.9,11.2
		c6.2-8.3,7.2-12.4,7.6-32.2l0.3-15.9l1.4,3.5c10.1,24.8,41.5,33.2,67.4,18.1c5.3-3.1,9.7-7.9,12.9-14.1l1.6-3.1l0,11.1l0,11.1h10.6
		h10.6v-28.6c0-35,0.4-37.4,6.9-44.5c5.9-6.4,19.1-7,24.5-1c3.7,4.1,3.7,4,3.9,40.6l0.2,33.5h10.9h10.9v-30.4
		c0-36.2,0.7-40.4,7.2-44.9c6.4-4.4,21-3.5,23.9,1.5c3.3,5.6,3.4,6.3,3.7,41.2l0.3,32.5H313h10.5v-6.3v-6.3l2,3
		c8.8,13.1,34.2,16,52.6,6.1l5.1-2.8l1,2c2,4.2,1.9,4.2,28.3,4.2h23.7v-64.1v-64.1h-10.9h-10.9V210.6 M446.4,210.4
		c0.2,65-0.1,61.3,5.5,66.5c4.8,4.5,7.2,5.1,23.8,5.4l14.2,0.3v-8.1v-8.1l-9-0.2c-13.7-0.3-12.8,1.9-12.8-34l0-26.9h9.7h9.7v-8.4
		v-8.4h-9.7H468V171v-17.4h-10.9h-10.9L446.4,210.4 M523.8,186.9c-23.3,4.4-36.1,21.5-36.1,48.3c0,25.5,11.1,41.8,32.7,47.7
		c11.1,3,29.3,1,38.3-4.2c2.3-1.3,4.3-2.4,4.5-2.4c2.3,0,10.4-9.8,13.6-16.5c5-10.5,6.5-27,3.5-39C574,195.6,551,181.8,523.8,186.9
		 M68.2,205c13.1,3.9,19.8,24.8,13.7,42.5c-8.2,23.9-38.7,22.6-44.2-1.9c-4.1-18.3,2.4-37.2,14-40.6C57.7,203.3,62.5,203.3,68.2,205
		 M155.1,204.8c7.6,2.1,13,9.2,15,20l0.4,2.2h-23.2h-23.2l0.4-2.9C126.5,209.5,140.4,200.8,155.1,204.8 M559.6,235.2v25.5h-25.5
		h-25.5v-25.5v-25.5h25.5h25.5V235.2 M382.4,254.5c-5.4,16.4-39.4,17.2-39.2,1c0.1-9.2,5.5-12.6,24.3-15.2
		c4.8-0.7,10.3-1.8,12.1-2.4l3.4-1.1l0.2,7.4C383.3,249.6,383.1,252.3,382.4,254.5 M189.1,246.7v5.3h-9.3h-9.3l-2,4.1
		c-10.2,20.6-44.2,10.8-44.2-12.7v-1.9h32.4h32.4V246.7 M12.2,134.3"/>
	<path id="path2" class="st0" d="M270.9,320.5c0,4.3,0.1,6,0.2,3.9c0.1-2.1,0.1-5.6,0-7.8C271,314.5,270.9,316.2,270.9,320.5
		 M504.4,326.4c0,5.5,0.1,7.6,0.2,4.8c0.1-2.8,0.1-7.3,0-10C504.5,318.6,504.4,320.9,504.4,326.4"/>
	<path id="path4" class="st1" d="M569.3,137.2c-0.2,0.3,1.8,3,4.4,6.1c13.1,15.6,15.9,24.2,11.3,34.4c-0.7,1.5-1.2,2.9-1.2,3.1
		c0,0.5-8.3,11.5-12,16c-3.5,4.2-2.2,4.7,2.3,0.9c2.1-1.8,4-3.4,4.2-3.6c2-2.1,8.6-6.7,12.7-8.7c11-5.4,17.4-3.8,32.3,8.3
		c9,7.3,9.3,7.5,9.7,7.1c0.5-0.5-0.1-1.2-6.4-8.9c-16.3-19.9-16.1-26,1.9-48.1c5.4-6.7,5.6-8.3,0.5-3.9c-24.3,21-30.2,20.8-57.5-1.6
		C570.4,137.4,569.5,137,569.3,137.2 M309.5,303c-0.2,0.2-0.3,1.5-0.3,3v2.7h2.8h2.8v-2.7v-2.7l-2.5-0.2
		C310.9,302.8,309.7,302.8,309.5,303 M429.7,303.3c-0.1,0.4-0.2,8-0.1,16.9l0.2,16.2l2.3,0.2c2,0.2,2.3,0,2.3-1.1v-1.3l1.9,1.4
		c4.2,3.1,11.9,1.6,15.4-3c4.2-5.4,2-16.9-3.7-19.9c-2.7-1.4-8.9-1.4-11.5,0l-2,1.1v-5.2v-5.2l-2.2-0.3
		C430.9,302.8,429.8,303,429.7,303.3 M502.6,303.3c-2.2,1-3.4,3.3-3.4,6.3c0,2-0.1,2.1-2.2,2.1c-3.3,0-3.1,4.5,0.2,4.9l2,0.2v9.9
		v9.9h2.5h2.5v-9.9v-9.9l2.3-0.2c2.2-0.2,2.3-0.3,2.5-2.5l0.2-2.3h-2.6c-2.6,0-2.6,0-2.2-2c0.5-2.5,0.6-2.6,3.2-2.5
		c2.2,0.1,2.2,0.1,2-2.2C509.4,302.4,506.4,301.6,502.6,303.3 M322.3,308.3v3.4h-2.2c-2.1,0-2.2,0.1-2.2,2.5s0.1,2.5,2.2,2.5h2.2
		l0,8.6c0,10.5,0.5,11.4,6.9,11.4c3.8,0,3.9-4.8,0.1-5.1l-2.3-0.2l-0.2-7.3l-0.2-7.3h2.5h2.5v-2.5v-2.5h-2.5h-2.5v-3.4v-3.4h-2.2
		h-2.2V308.3 M374.6,308.3c0,3.4,0,3.4-1.9,3.4c-2.1,0-2.8,1.1-2.2,3.4c0.3,1.2,0.8,1.6,2.2,1.6h1.8l0.2,8.7
		c0.3,10.4,0.4,10.7,6.1,11.1l3.8,0.3v-2.5c0-2.5-0.1-2.5-2.3-2.7l-2.3-0.2l-0.2-7.3l-0.2-7.3h2.5h2.5v-2.5v-2.5h-2.5h-2.5v-3.4
		v-3.4h-2.5h-2.5V308.3 M193.8,311.9c-9.4,3-7,12,3.7,13.8c5.3,0.9,7.9,3.7,5.1,5.6c-3,2.1-9.8,0.3-9.8-2.5c0-0.6-0.7-0.9-2.5-0.9
		c-3,0-3.5,2.3-1.2,5.2c5.6,7.1,20.5,4.1,20.5-4.1c0-4.2-1.7-5.3-12.3-8c-5.1-1.3-4.6-5,0.8-5c2.2,0,3,0.3,4.3,1.9
		c2.5,3,6.3,2.8,5.8-0.4C207.4,312.7,200.3,309.9,193.8,311.9 M220.6,311.9c-8,2.1-11.1,13.6-5.6,20.9c4.6,6.1,15.7,5.6,19.4-0.8
		c2-3.5,1.8-4-1.4-4c-1.5,0-2.8,0.3-2.8,0.7c0,4.5-10.1,4.7-11.9,0.2c-1.3-3.4-1.3-3.4,8.8-3.4h9.3l-0.4-2.6
		C234.7,313.9,228.8,309.7,220.6,311.9 M248.5,311.4c-0.3,0.1-1.4,0.4-2.3,0.6c-6.7,1.5-10.1,12.4-6,19.6c5,8.9,21.7,5.7,21.7-4.1
		c0-1.9-4.8-1.1-5.9,1c-1.9,3.6-5.4,4.7-9.1,2.8c-4.3-2.2-4-12.6,0.4-14.6c3.5-1.6,6-0.8,9.1,3c2.3,2.8,6,1.4,4.9-1.9
		C259.9,313.6,252.6,309.9,248.5,311.4 M301.4,312.3c-1.4,0.6-2.9,1.7-3.3,2.3c-0.6,1-0.7,0.9-0.7-0.9c0-1.9-0.2-2-2.2-2h-2.2v12.5
		v12.5h2.2h2.2v-6.6c0-9.3,2.3-13.4,7.6-13.4c1.6,0,1.7-0.2,1.7-2.8C306.8,310.7,305.8,310.4,301.4,312.3 M395.1,312.1
		c-5.2,1.7-8.7,8-7.7,14.1c2.5,15.9,24.8,14.1,24.8-2C412.2,314.7,404.4,309.1,395.1,312.1 M464.7,312.1c-7,2.5-10,11.4-6.3,18.8
		c4.4,8.8,19.4,8.2,21.3-1c0.6-2.9-2.8-2.8-5.6,0.3c-2.9,3.1-6.4,3.1-9.4,0.1c-4.2-4.2-3.4-4.7,6.9-4.7h9v-1.6
		C480.5,314.7,473,309.1,464.7,312.1 M521.4,312c-1.3,0.5-2.7,1.2-3.2,1.6c-0.7,0.6-0.9,0.4-1.2-0.6c-0.3-1.1-0.7-1.3-2.7-1.1
		l-2.4,0.2l-0.2,12.3l-0.2,12.3h2.8h2.8v-6.9c0-9.8,1-11.8,6.7-12.9c2.3-0.5,2.4-0.6,2.4-3C526.3,311,525.3,310.6,521.4,312
		 M534.5,312.1c-11,3.9-10.3,22.2,0.9,24.6c6.6,1.4,13.6-2,14.4-7.1c0.4-2.3-4.5-2.1-5.8,0.3c-1.9,3.4-7.9,3.4-10.8,0
		c-3.3-3.9-2.7-4.3,7.8-4.3h9.3l0-2.3C550.2,314.8,542.3,309.3,534.5,312.1 M560.6,312c-11,4.1-10.3,22.2,0.9,24.6
		c6.6,1.4,13.6-2,14.4-7.1c0.3-1.8-4.8-2.2-5.4-0.4c-1.2,3.8-7.9,4.2-11.1,0.8c-3.6-4-2.9-4.4,7.6-4.4h9.3v-2.4
		C576.4,315.1,568,309.3,560.6,312 M265.8,321.5c0.2,11.1,0.8,13.1,4.4,14.6c3.2,1.3,8.2,1.1,10.5-0.6c1.8-1.4,1.9-1.4,1.9-0.1
		c0,1.1,0.4,1.3,2.5,1.3h2.5v-12.5v-12.5h-2.8h-2.8v8.5v8.5l-1.8,1.8c-2.3,2.3-6.1,2.5-7.9,0.5c-1-1.1-1.2-2.5-1.3-10.1l-0.1-8.8
		l-2.6-0.2l-2.6-0.2L265.8,321.5 M309.4,324.1l0.2,12.3l2.6,0.2l2.6,0.2v-12.5v-12.5H312h-2.8L309.4,324.1 M332.9,312.1
		c0,0.2,2.3,5.6,5,12l5,11.7l-1.1,2.4c-1.3,2.8-2.4,3.5-4.8,3.1c-1.7-0.3-1.7-0.3-1.6,2.1l0.2,2.4l3.2,0c4,0,5.7-1.4,7.7-6.4
		c0.8-1.9,1.8-4.2,2.2-5.1c0.4-0.9,0.8-1.9,0.8-2.4c0-0.5,1.7-4.8,3.7-9.8c4.4-10.6,4.4-10.3,1.2-10.3c-2.6,0-3.7,1.3-4.6,5.7
		c-0.3,1.7-2.3,7.3-3.6,10.3l-0.9,2l-3.4-9l-3.4-9h-3C334.2,311.8,332.9,311.9,332.9,312.1 M228.3,317.9c3.3,3.3,2.7,3.8-4.4,3.8
		c-6.2,0-6.3,0-5.9-1.4C219.3,316,225.1,314.7,228.3,317.9 M402.8,316.8c4.9,2.2,4.9,12.6,0,14.8c-2.8,1.3-5.1,0.8-7.4-1.4
		C389.3,324.1,395.2,313.3,402.8,316.8 M444.9,317c6.5,3.6,4.3,15.3-2.8,15.3c-5.8,0-9.4-6.5-6.7-12.2
		C437.1,316.6,441.5,315.1,444.9,317 M473.4,318.2c3.2,3.2,2.9,3.5-4.4,3.5c-6.9,0-7,0-5.7-2.4C465.4,315.6,470.2,315.1,473.4,318.2
		 M541.1,316.8c0.7,0.4,1.8,1.3,2.4,2c2.1,2.6,1.5,2.9-5.4,2.9c-7.3,0-7.7-0.3-4.4-3.5C535.9,316,538.5,315.5,541.1,316.8
		 M567.6,317c1.4,0.7,3.2,3.2,3.2,4.4c0,0.2-2.9,0.3-6.5,0.3c-7.3,0-7.7-0.3-4.4-3.5C562.2,315.9,564.7,315.5,567.6,317 M12.2,134.3
		"/>
</g>
</svg>
