<?xml version="1.0" encoding="utf-8"?>
<!-- Generator: Adobe Illustrator 21.1.0, SVG Export Plug-In . SVG Version: 6.00 Build 0)  -->
<svg version="1.1" baseProfile="tiny" xmlns="http://www.w3.org/2000/svg" xmlns:xlink="http://www.w3.org/1999/xlink" x="0px"
	 y="0px" viewBox="0 0 640 480" overflow="scroll" xml:space="preserve">
<g id="Layer_3">
	<g>
		<path fill="#FBFBFC" d="M496.4,87.4c0-1.2-0.1-2.4-0.1-3.6c0.1-3.5,0.4-7,0.3-10.6c-0.1-4-1.8-5.7-5.8-5.9
			C485,67.1,479,67,473.1,67c-3.4,0-4.8,1.2-4.9,4.6c-0.1,4.2,0,8.4,0.1,12.6c0,12.4,0,24.8,0,37.2c-6.9,0-13.5,0-20.3,0
			c0-8.2,0-16.3,0-24.3c0-6,0-12,0-18c0.2-2.5,0.4-5,0.4-7.6c0.1-4.3-1.4-5.9-5.6-6c-4.3-0.2-8.5-0.1-12.8-0.1c-1.5,0-3,0-4.6,0
			c-0.3-4-0.6-7.8-0.9-11.6c0.1-3.4,0.4-6.8,0.4-10.2c-0.1-4-1.8-6-5.8-6.2c-5.5-0.3-11.1-0.3-16.6-0.1c-4.7,0.2-6.2,1.9-6.3,6.7
			c-0.1,3.8,0.2,7.6,0.4,11.4c0,2.3,0,4.7-0.1,7c-0.6,20,0.8,40-1.6,59.9c-0.7,0-1.3,0.1-2,0.1c-4.7,0-9.4-0.2-14.2,0
			c-5.2,0.2-7.4,2.5-7.5,7.6c-0.1,3.6,0.3,7.2,0.5,10.8c0,0.4,0,0.8-0.1,1.3l124.9-1C496.4,123.2,496.4,105.3,496.4,87.4z"/>
		<path fill="#FBFBFC" d="M353,119.5c0-3.3-0.1-6.7-0.3-10c-0.3-4.5-1.9-6.5-6.4-6.9c-5.3-0.4-10.7-0.3-16-0.4c-0.8,0-1.6,0-2.5,0
			c0-1,0-1.7,0-2.4c0-12.2,0-24.4,0-36.7c0-5.9,0-11.9-0.1-17.8c0.1-3.6,0.5-7.3,0.1-10.9c-0.4-3.7-2.5-6.6-6.5-7.5
			c-2.7-0.6-5.5-1.2-8.2-1.5c-6-0.6-10.5,2.2-12.3,7.7c-1.3,4.1-1.7,8.3-1,12.6c0,6.7-0.1,13.5-0.1,20.2c0,1.4-0.4,2.2-1.8,2.2
			c-3.2,0.1-6.4,0.3-9.6,0.4c-2.7,0.1-5.5,0-8.2,0.2c-3.3,0.2-4.3,1.3-4.3,4.6c0,1.9,0.2,3.9,0.4,5.8c0,6.1,0,12.3,0,18.4
			c0,0.8-0.1,1.6-0.1,2.4c0,14.2,0,28.4,0.1,42.6c0,0.1,0,0.2,0,0.3l76.9-0.6C353,134.6,353,127.1,353,119.5z"/>
		<path fill="#FBFBFC" d="M256.1,130.4c0-4-2.5-6.2-6.5-6.5c-1.9-0.1-3.7,0-5.6,0c-4.2,0-8.4,0-12.8,0c0-1.1,0-1.9,0-2.7
			c-0.1-28.7-0.2-57.4-0.3-86.1c0-4.3-0.1-8.7-0.2-13c0-3.9,0.3-7.9,0-11.8c-0.3-4.7-2.3-6.5-7-6.7c-4.4-0.1-8.8-0.1-13.2,0.1
			c-4.9,0.2-7.8,3-8,7.9c-0.2,3.4,0.2,6.9,0.3,10.4c0,0.9-0.1,1.7-0.1,2.6c0,36,0,72,0,108c0,0.8,0,1.6,0,2.4c-6.1,0-12.1,0-18,0
			c-0.3-2.6-0.6-5-0.9-7.5c0.2-2.9,0.6-5.8,0.6-8.8c0-3.9-1.6-6.4-5.4-7.5c-3.4-1-7-1.8-10.5-2.1c-6.7-0.5-10.8,2.4-12.1,9
			c-0.7,3.5-0.5,7.3-0.6,10.9c-0.2,3.1-0.5,6.2-0.7,9.4c-0.1,1.8-0.2,3.5-0.3,5.3l101.1-0.8C256,138.7,256.1,134.5,256.1,130.4z"/>
		<path fill="#FBFBFC" d="M121.1,305c0.1,0.1,0.3,0.2,0.4,0.3v-3.4c-0.6,0.6-1.3,1.3-1.5,1.9C120.1,303.8,120.5,304.6,121.1,305z"/>
		<path fill="#FBFBFC" d="M494.6,195.8c-2.3-6.2-4.6-12.5-6.9-18.7c-0.7-1.9-1.7-3.8-2.9-5.5c-2.5-3.4-6-4.7-10.2-3.9
			c-2.5,3.2-5.1,6.4-7.6,9.6c-1.3,4-2.6,8-3.9,12c-1.5,7.2-3,14.3-4.6,21.5c-3.8,17.6-7.7,35.3-11.5,52.9c-0.3,1.3-0.7,2.1-2.4,2
			c-1-2.3-2.1-4.7-3.1-7.2c-1.9-4.5-3.8-9.1-5.7-13.6c-3.5-6.9-7-13.9-10.5-20.8c-2.1-0.9-4.1-1.9-6.3-2.6c-2.9-0.9-5.8-0.4-7.6,2.2
			c-2.1,3-3.7,6.3-5.4,9.5c-0.8,1.5-1.2,3.2-2,5.3c-1.3-3.5-2.5-6.5-3.6-9.5c-3.1-8.1-6.2-16.2-9.3-24.3c-0.2-0.6-0.6-1.2-0.9-1.8
			c-4.2-0.2-8.4-0.3-12.6-0.5c-3.2,10-6.5,20-9.9,30.5c-1.8-3.9-3.4-7.4-5.1-10.7c-3.4-6.6-6.7-13.2-10.3-19.6
			c-1.4-2.5-3.6-4.6-5.6-6.8c-2.1-2.2-4.7-2.4-7.3-0.9c-5.2,3.2-9.8,7.2-13,12.5c-1.1,1.8-2,3.6-3,5.4c-0.1,0.3-0.2,0.6-0.3,1
			c-2.6,6.4-5.2,12.8-7.8,19.2c-3.3-0.1-3.4-0.1-3.8-3.1c-0.8-5.8-1.5-11.6-2.2-17.4c-1-4-2.2-8-3.1-12c-1.4-5.9-3.5-11.4-6.8-16.6
			c-0.6-1-1.2-2.1-1.7-3.2c-5-3.1-9.7-2.3-14.1,1.3c-1.4,1.2-2.8,2.4-4.2,3.6c-1.8,4.5-3.6,9-5.4,13.5c-2,6.3-4,12.6-5.9,18.9
			c-1.5,5.7-3,11.5-4.5,17.2c-2.5,9.5-5.1,18.9-7.6,28.4c-0.3,1.1-0.4,2.2-2.1,2.3c-1.8,0-1.7-1.2-2.1-2.2
			c-5.6-15.6-11-31.3-16.6-47c-0.9-2.5-2-5-3.5-7.2c-5.4-7.7-16.8-7.3-21.7,0.8c-1.2,1.9-2,4.1-2.7,6.2c-3.6,10.3-7.2,20.6-10.8,31
			c-0.5,1.4-1.2,1.5-2.4,1.3c-1.1-0.2-2-0.1-2.2-1.7c-1.7-12.8-3.5-25.5-5.2-38.3c0-0.3,0-0.7,0-1l-1.9-18.8
			c-0.7-8.4-1.4-16.9-2.1-25.3c-1.8-4.8-3.6-9.6-5.4-14.3c-4.8-1.5-9.3,0.4-11.2,5.1c-1.4,3.5-2.1,7.3-2.7,11c-3,16.7-5.4,33.4-9,50
			c-3.4,15.8-8,31.4-12.1,47c-0.1,0.4-0.2,0.7-0.4,1.1c-1.7,0.2-2.2-0.8-2.5-2.2c-2.6-11.7-5.3-23.3-7.9-35v55.9
			c1.3,0.5,2.6,1,3.9,1.5c5.7,1.9,10.2,0.7,13-4.6c2.6-4.9,4.6-10.2,6.2-15.6c5.5-18.5,10.7-37.1,16.1-55.7c0.2-0.6,0.4-1.3,1-1.9
			c0.2,1.4,0.4,2.8,0.6,4.1c1.4,11.8,1.9,23.7,4.8,35.3c1.6,6.6,4,12.9,7.6,18.6c2.2,0.8,4.3,1.7,6.6,2.2c4.1,0.9,7.7-0.3,11-2.7
			c4.9-10.3,9.8-20.6,14.7-30.8c1.8-3.8,3.7-7.7,5.7-11.9c1.2,3.8,2.1,7.2,3.3,10.5c4,11.4,7.7,22.8,12.1,34c1.9,4.7,5,9.1,8.1,13.2
			c5.2,6.7,13.6,6.3,17.9-1.2c2.8-4.9,4.6-10.5,6.7-15.8c1.2-2.9,2.2-5.9,3.2-8.8l2.1-8.4c3.9-14.5,7.7-29,11.6-43.5
			c0-0.1,0.1-0.2,0.3-0.5c1,0,2,0.1,3.1,0.2c1.6,8.4,3.2,16.7,4.9,25c2.5,12.4,3.3,25,4.5,37.5c0.3,3.3,0.6,6.7,1.3,9.9
			c0.3,1.5,1.3,3.1,2.4,4.3c1.5,1.7,3.4,3.2,5.3,4.8c4.3-3,8.4-6.6,10-12.4c1.5-5.3,3.4-10.5,5.1-15.8c2.2-6.7,4.4-13.4,6.6-20.2
			c2.9-7.9,5.9-15.9,8.9-23.8c0.1-0.2,0.2-0.3,0.4-0.5c3.3,6.5,6.5,13.1,9.9,19.5c2.7,5,5.2,10.1,8.6,14.6
			c4.4,5.9,10.8,6.1,15.7,0.6c2.7-3,4.6-6.8,6.9-10.3c1-1.6,1.8-3.2,2.9-5.2c1,2,1.8,3.7,2.7,5.4c3.5,6.2,6.8,12.5,10.5,18.6
			c1.2,2,3.3,3.7,5.3,5c3.5,2.3,7.3,2,9.9-1.3c2-2.4,3.2-5.5,4.6-8.3c0.6-1.3,1-2.7,1.5-4.5c0.4,0.8,0.7,1.3,1,1.8
			c3.9,8.2,7.6,16.5,11.6,24.6c2.6,5.3,6.4,9.5,11.8,12.1c4.6,2.2,7.4,1.5,10.8-2.3c2.4-2.7,3.8-5.7,4.6-9.2
			c4.3-18.4,8.6-36.8,12.8-55.1c1.9-8.1,3.6-16.2,5.8-24.4c0.7,1.9,1.4,3.8,2.3,5.6c3.1,6.9,6.5,13.8,9.4,20.8
			c4.1,9.9,6.8,20.1,7.8,30.6L494.6,195.8z"/>
		<path fill="#FBFBFC" d="M497,248.3l0.4,9.5C497.5,254.6,497.3,251.5,497,248.3z"/>
		<path fill="#FBFBFC" d="M334.4,411.7c4.4,1.1,8.8,2,13.2,2.9c-0.1-0.9-0.2-1.9-0.2-2.9C343,411.7,338.7,411.6,334.4,411.7z"/>
		<path fill="#4071B3" d="M496.3,242.5l-0.5-2.9c-1.4-7.5-3.6-14.8-6.6-21.9c-2.9-7-6.3-13.8-9.4-20.8c-0.8-1.8-1.5-3.7-2.3-5.6
			c-2.2,8.2-4,16.3-5.8,24.4c-4.2,18.4-8.5,36.8-12.8,55.1c-0.8,3.4-2.2,6.5-4.6,9.2c-3.4,3.8-6.3,4.5-10.8,2.3
			c-5.4-2.6-9.3-6.7-11.8-12.1c-3.9-8.2-7.7-16.4-11.6-24.6c-0.2-0.5-0.5-1-1-1.8c-0.6,1.7-0.9,3.2-1.5,4.5
			c-1.4,2.8-2.7,5.9-4.6,8.3c-2.6,3.2-6.4,3.6-9.9,1.3c-2-1.3-4.1-3-5.3-5c-3.7-6.1-7.1-12.4-10.5-18.6c-0.9-1.6-1.7-3.4-2.7-5.4
			c-1.1,2-1.9,3.6-2.9,5.2c-2.2,3.5-4.1,7.2-6.9,10.3c-4.9,5.5-11.3,5.3-15.7-0.6c-3.3-4.5-5.9-9.7-8.6-14.6
			c-3.4-6.4-6.6-12.9-9.9-19.5c-0.2,0.2-0.4,0.4-0.4,0.5c-3,7.9-5.9,15.9-8.9,23.8c3.3,0.3,6.7,0.3,9.9,0.9c4.4,0.8,6.1,3,5.9,7.4
			c-0.1,2.6-0.4,5.2-0.9,7.7c-0.4,2.2-3.3,4.1-6,4.1c-5.2,0-10.4,0-15.5,0c-1.7,5.3-3.6,10.5-5.1,15.8c-1.6,5.8-5.8,9.4-10,12.4
			c-1.8-1.6-3.7-3.1-5.3-4.8c-1.1-1.2-2-2.8-2.4-4.3c-0.7-3.3-1-6.6-1.3-9.9c-1.1-12.6-2-25.1-4.5-37.5c-1.7-8.3-3.3-16.6-4.9-25
			c-1.2-0.1-2.2-0.1-3.1-0.2c-0.2,0.3-0.3,0.4-0.3,0.5c-3.9,14.5-7.7,29-11.6,43.5c4.9-0.1,9.8-0.3,14.8-0.4c5.5-0.1,8,2.8,7.1,8.2
			c-0.5,3-1,6-1.6,9c-0.2,1.3-0.9,2.2-2.3,2.4c-5.4,0.6-10.9,0.6-16.3-0.5c-1.7-0.3-2.4-1.3-2.7-2.9c-0.3-2.5-0.8-4.9-1.2-7.4
			c-1.1,2.9-2.1,5.9-3.2,8.8c-2.2,5.3-3.9,10.8-6.7,15.8c-4.2,7.4-12.7,7.9-17.9,1.2c-3.1-4.1-6.2-8.5-8.1-13.2
			c-4.4-11.2-8.2-22.7-12.1-34c-1.2-3.3-2.1-6.7-3.3-10.5c-2.1,4.3-3.9,8.1-5.7,11.9c-4.9,10.3-9.8,20.6-14.7,30.8
			c0,5.7,0,11.4,0.1,17c0,1.5-0.4,2-1.9,1.9c-6.9-0.1-13.8,0-20.6-0.1c-1.8,0-2.4,0.4-2.4,2.3c0.1,4.7,0,9.5,0,14.2
			c0,0.7,0,1.4,0,2.6c-7.9-0.8-15.6-1.5-23.2-2.2c0,5.6,0,11.1-0.1,16.7c0.4,6.4,0.8,12.8,1.3,19.1c0.2,2.3,1.7,3.8,3.7,4.2
			c1.1,0.2,2.3,0.2,3.4,0.2c5.7,0,11.7-1.3,16.6,3.1c9.4,0.5,18.9,1.1,28.3,1.6c0-11.9,0-23.9,0-35.8c0-0.9,0.1-1.7,0.2-2.6
			c-4.8-0.7-7-3-6.9-7.8c0-2.3,0.2-4.5,0.4-6.8c0.3-2.8,2-4.9,5.1-5.1c6.5-0.3,13-0.1,19.7-0.1c0,6,0,12.1,0,18.2
			c0.4,2.8,1.1,5.5,1.2,8.3c0.2,9.9,0.3,19.8,0.4,29.8c0.1,6.8,0.1,13.6,0.2,20.4c6.6,0,13.2,0,19.7-0.1c1.4,0,1.8,0.5,1.8,1.8
			c-0.1,5,0,10,0,15c0.3,4,0.5,8.1,0.9,12.1c0.4,4.8,0.8,9.6,1.2,14.5c8.6-0.4,17.1-0.8,25.7-1.2c0.7,0,1.5,0,2.2,0
			c0-0.7,0.1-1.5,0.1-2.2c0-15.2,0-30.3,0-45.5c0-4.2,0.4-4.7,4.6-5.2c0.5-0.1,1.1-0.1,1.6-0.1c3.5,0,7.1,0.1,10.6,0
			c4.8-0.1,7.5-2.4,8.5-7.2c0.4-1.7,0.5-3.5,0.8-5.4c5.9,0,11.7,0,17.4,0c1-2.6,3.4-3.6,5.5-4.6c3.7-1.7,7.6-2.7,11.8-2.5
			c4.2,0.1,6.1,1.9,6.2,6.1c0,3.9,0,7.7,0,11.6c0,0.7,0,1.4,0,2.6c9.9-5.2,19.9-3.6,29.8-1.4c0.4-3.2,0.7-6.5,1.1-9.9
			c3.1,0,6.2,0,9.2,0.1c0.4,0,0.9,0.8,1,1.3c0.2,1.5,0,2.9,0.1,4.4c0.6,4.7,1.1,7,5.5,7.2c5,0.3,10,0,15-0.1
			c-0.7-2.8-1.3-5.6-2.1-8.3c-0.2-0.6-0.8-1.4-1.4-1.7c-2.8-1.4-5.7-2.7-8.4-4.1c-0.6-0.3-1.2-1.4-1.3-2.1c-0.2-2.3-0.1-4.5,0-6.8
			c0-1.3-0.4-1.7-1.7-1.7c-4.7,0.1-9.4-0.1-14,0c-8.6,0.2-9.4-5-9.4-11.2c0-1.4,0.4-2.9,0.8-4.3c0.9-2.8,3.2-4.5,6.1-4.6
			c5.4-0.1,10.8,0,16.2-0.1c1.3,0,1.6,0.5,1.6,1.6c0.1,3.3,0.3,6.7,0.4,10c0,1.4,0.5,1.7,1.8,1.7c6.7-0.1,13.4,0,20-0.1
			c8.3-0.1,9.4,4.1,9.8,9.7c0,0.3,0,0.5,0,0.8c0,3,0.8,4,3.6,4.6c0.9,0.2,1.9,0.1,2.8,0.2c0-0.7,0.1-1.5,0.1-2.2
			c0-14.4,0-28.7,0-43.1c0-0.8,0-1.6,0-2.3c4.1,0,7.9,0,12,0c0,7.6,0,15,0,22.4c7.3,0,14.5,0,21.8,0c4.4,0,6.5,2.3,6.7,6.7
			c0.2,3.1,0.9,6.3,1.4,9.4c0-0.9,0.1-1.7,0.1-2.6c0-7.2-0.1-14.5-0.1-21.7c-1.2,0-2.5,0-3.7-0.1c-2.6-0.3-3.9-2-4.3-4.3
			c-0.7-3.7-0.7-7.4,0.4-11c1.2-4,4.4-4.8,8.5-4.6c4,0.2,8.1,0.7,12.1,1.1c2.9,0.2,5.7,0.3,8.6,0.5c0.1-0.2,0.2-0.5,0.3-0.8
			c0.3-9.1,0.9-18.3,0.9-27.4C497.5,252.6,497.1,247.5,496.3,242.5z M296.6,330.7c-1.3,1.4-3.8,1.7-5.8,2.3
			c-4.4,1.4-8.8,0.9-13.1-0.5c-2.7-0.9-3.8-2.5-3.7-5.2c0-2.2,0.2-4.4,0.4-6.5c0.3-2.5,4.9-6.2,7.7-6.4c0.9,0,1.9,0,2.8,0
			c3.6,0,7.2,0.3,10.3,2.4C300.4,320.2,299.8,327.6,296.6,330.7z M345.8,314.5c-0.1,1.3-0.9,1.6-2.1,1.6c-5.4,0-10.8,0-16.1,0
			c-3.1,0-4.9-1.7-5-4.8c-0.1-2.7-0.1-5.5,0-8.2c0.1-3.2,2-5,5.2-5.1c2.7-0.1,5.3-0.3,8-0.5c2,0.1,4,0.1,5.9,0.5
			c3,0.6,4.5,2.2,4.5,5.2C346.2,306.9,346,310.7,345.8,314.5z M370.8,294c-0.2,2.4-1.7,3.5-4.1,3.6c-5.4,0.1-10.7,0.1-16.1,0
			c-2.4,0-4.2-1.4-4.3-3.7c-0.2-3.4-0.3-6.8,0.1-10.2c0.5-4.2,2.5-5.6,7.2-5.8c2.1-0.1,4.3,0,6.4,0c2.1,0,4.1-0.1,6.2,0
			c2.8,0.1,4.5,1.3,4.7,3.9C371.2,285.8,371.1,289.9,370.8,294z M395.5,269.9c-0.4,4.1-2.6,6.4-6.7,7.8c-4.9,1.8-9.5,1.3-14.3,0.1
			c-2.6-0.6-3.7-2.3-3.8-5c0-0.9,0-1.7,0-2.6c0,0-0.1,0-0.1,0c0.2-2.3,0.3-4.5,0.5-6.8c0.3-2.8,2.7-4.6,5.7-4.4
			c3.4,0.1,6.8,0,10.2,0.5c2.2,0.3,4.6,1,6.5,2.2C396.3,263.7,395.8,267,395.5,269.9z"/>
		<path fill="#4071B3" d="M377.6,202.6c-3.2,10-6.5,20-9.9,30.5c-1.8-3.9-3.4-7.4-5.1-10.7c-3.4-6.6-6.7-13.2-10.3-19.6
			c-1.4-2.5-3.6-4.6-5.6-6.8c-2.1-2.2-4.7-2.4-7.3-0.9c-5.2,3.2-9.8,7.2-13,12.5c-1.1,1.8-2,3.6-3,5.4c-0.7-0.1-1.4-0.4-2.1-0.4
			c-4,0-8,0-12,0c-1-4-2.2-8-3.1-12c-1.4-5.9-3.5-11.4-6.8-16.6c-0.6-1-1.2-2.1-1.7-3.2c0-3.7,0-7.4,0-11.2c0-2.3-0.7-3.5-3.1-3.7
			c-5.1-0.3-10.3-0.3-15.4-0.4c-1,0-2.1,0.2-3.2,0.4c0-7.9,0-15.7-0.1-23.6c0-14.2,0-28.4-0.1-42.6c0-0.8,0.1-1.6,0.1-2.4
			c4.7,0.1,9.4,0.2,14.1,0.4c3.9,0.1,7.1-1.5,7.4-4.6c0.4-3.5,0.3-7-0.1-10.5c-0.3-2.9-2.4-4.2-5.4-4.2c-1.5,0-2.9,0.3-4.4,0.3
			c-3.9,0.1-7.7,0-11.6,0c-0.1-1.9-0.4-3.9-0.4-5.8c0-3.2,1-4.3,4.3-4.6c2.7-0.2,5.5-0.1,8.2-0.2c3.2-0.1,6.4-0.2,9.6-0.4
			c1.4-0.1,1.8-0.8,1.8-2.2c0-6.7,0-13.5,0.1-20.2c9.3-0.1,18.6-0.3,28-0.4c0,5.9,0.1,11.9,0.1,17.8c0,12.2,0,24.4,0,36.7
			c0,0.7,0,1.4,0,2.4c0.9,0,1.7,0,2.5,0c5.3,0.1,10.7,0,16,0.4c4.5,0.4,6.1,2.4,6.4,6.9c0.2,3.3,0.3,6.7,0.3,10
			c0,12.2,0,24.3,0,36.5c0,0.7,0,1.4,0,2.3c5.9,0,11.7,0,17.6,0c0.3-5.9,0.7-11.7,1-17.5c7.1,0,14.2,0,21.4,0c1.4,0,1.9-0.3,1.8-1.8
			c-0.1-5.6,0-11.2-0.1-16.8c2.4-19.9,1-39.9,1.6-59.9c0.1-2.3,0-4.7,0.1-7c2.4-0.1,4.8-0.2,7.2-0.4c7-0.4,13.9-0.8,20.8-1.2
			c0.3,3.8,0.6,7.5,0.9,11.6c1.6,0,3.1,0,4.6,0c4.3,0,8.5-0.1,12.8,0.1c4.2,0.2,5.7,1.8,5.6,6c0,2.5-0.3,5-0.4,7.6
			c-8.3,0-16.7-0.1-25,0c-2.5,0-4.2,1.4-4.5,3.9c-0.3,2.5-0.4,5-0.4,7.6c0,5.1,1.9,7.1,7,7c6.3-0.1,12.5-0.2,18.8-0.3
			c1.4,0,2.8,0,4.2,0c0,8.1,0,16.1,0,24.3c6.8,0,13.4,0,20.3,0c0-12.4,0-24.8,0-37.2c1.6-0.1,3.2-0.3,4.7-0.3c7.8,0,15.5,0,23.3,0
			c0,1.2,0.1,2.4,0.1,3.6c0,19.3,0,38.6,0,57.9c0,0.7-0.1,1.5-0.1,2.2c-7.1-0.1-14.3-0.3-21.4-0.3c-1.5,0-2.9,0.2-4.4,0.5
			c-2.3,0.5-3.9,2.5-4,4.9c-0.1,2.5-0.1,4.9,0,7.4c0.2,4,2.4,6,6.4,6.1c0.5,0,1.1,0,1.6,0c0,0.5,0,1.1,0,1.6
			c-2.5,3.2-5.1,6.4-7.6,9.6c-0.2-6-2.7-6.6-6-6.8c-4.2-0.2-8.4,0.2-12.6,0.3c-2.7,0.1-4.7,1.5-5.1,4.1c-0.4,2.6-0.4,5.3-0.4,8
			c0,4.4,1.6,6,5.9,6.3c0.5,0,1.1,0,1.6,0c4.2,0,8.4,0,12.6,0.1c-1.5,7.2-3,14.3-4.6,21.5c-3.8,17.6-7.7,35.3-11.5,52.9
			c-0.3,1.3-0.7,2.1-2.4,2c-1-2.3-2.1-4.7-3.1-7.2c-1.9-4.5-3.8-9.1-5.7-13.6c5.9-0.5,7.7-2.3,7.6-8.2c0-2.6-0.2-5.2-0.4-7.8
			c-0.2-2.8-1.4-4.3-4.1-4.5c-4.5-0.3-9-0.3-13.5-0.4c-2.1-0.9-4.1-1.9-6.3-2.6c-2.9-0.9-5.8-0.4-7.6,2.2c-2.1,3-3.7,6.3-5.4,9.5
			c-0.8,1.5-1.2,3.2-2,5.3c-1.3-3.5-2.5-6.5-3.6-9.5c-3.1-8.1-6.2-16.2-9.3-24.3c-0.2-0.6-0.6-1.2-0.9-1.8c3.6-1.4,5.5-5,4.8-8.8
			c-0.4-2.5-0.9-5-1-7.5c-0.1-1.4-0.5-1.9-1.8-2.4c-5.1-1.7-10.3-2.2-15.6-1.9c-3.9,0.2-6,2-6.8,5.8c-0.3,1.8-0.4,3.7-0.4,5.6
			C369.5,200.1,371.6,202.2,377.6,202.6z M347.1,169.2c-2.9,0.5-5.4,0.8-7.8,1.3c-4.7,1-9.5,2.1-14.1,3.3c-0.8,0.2-2.1,1.3-2,2
			c0.1,3.5,0.4,7,0.9,10.5c0.1,0.9,1.2,2,2.1,2.3c4.1,1.8,8.5,2.9,13,2.3c5.1-0.7,6.3-1.4,6.8-5.9c0.2-1.5,0.3-3,0.4-4.6
			C346.7,176.8,346.9,173.1,347.1,169.2z"/>
		<path fill="#4171B4" d="M258.9,198.9c5,0.1,10.1,0.3,15.1,0.4c1.8-4.5,3.6-9,5.4-13.5c-1.8-0.6-3.6-1.2-5.4-1.8
			c-5.1,0-10.2-0.1-15.4,0c-1.6,0-2.1-0.4-2.2-2.1c-0.1-4.8-0.5-9.5-0.8-14.3c-4.8,0.4-9.7,0.8-14.5,1.1c-2.7,0.2-5.5,0.2-8.2,0
			c-2.5-0.2-4-2.2-5.2-4.2c-2.1-3.3-2.8-6.9-1.7-10.7c0.8-2.9,2.6-4.3,5.6-4.2c7.3,0.3,14.6,0.7,21.9,1.1c0.7,0,1.5,0,2.2,0
			c0-2.3,0.1-4.6,0.2-6.9c0.1-4.5,0.2-9,0.2-13.5c0-4-2.5-6.2-6.5-6.5c-1.9-0.1-3.7,0-5.6,0c-4.2,0-8.4,0-12.8,0c0-1.1,0-1.9,0-2.7
			c-0.1-28.7-0.2-57.4-0.3-86.1c0-4.3-0.1-8.7-0.2-13c-9.3,0-18.6,0-27.9,0c0,0.9-0.1,1.7-0.1,2.6c0,36,0,72,0,108v2.4h-18
			c-0.3-2.6-0.6-5-0.9-7.5c-8.8,0.5-17.6,1.1-26.4,1.6c-0.5,0-1.1,0-1.6,0c-0.2,3.1-0.5,6.2-0.7,9.4c-0.4,5.7-0.7,11.4-1,17.1V174
			h-22.7v52.7c2.7,11.7,5.3,23.3,7.9,35c0.3,1.4,0.8,2.4,2.5,2.2c0.1-0.3,0.3-0.7,0.4-1.1c4.1-15.7,8.7-31.2,12.1-47
			c3.6-16.5,6-33.3,9-50c0.7-3.7,1.4-7.5,2.7-11c1.8-4.7,6.4-6.6,11.2-5.1c2.3-2.5,4.3-5.7,8.2-5.7c4.1,0,8.4-0.3,12.4,1.4
			c5.6,2.5,6.3,6.9,5.3,11.8c-1.1,5.2-3.4,6.8-8.8,6.9c-3.9,0-7.8,0-11.7,0c0.7,8.4,1.4,16.9,2.1,25.3c3.3-0.1,6.5-0.2,9.8-0.4
			c5.4-0.3,7.8,1.7,8.1,7.1c0.1,2.3-0.1,4.7-0.4,7c-0.4,3.2-2.6,5.1-5.9,5.1c-3.2,0.1-6.5,0-9.7,0c0,0.3,0,0.7,0,1
			c1.7,12.8,3.5,25.5,5.2,38.3c0.2,1.5,1.2,1.5,2.2,1.7c1.2,0.2,1.9,0.1,2.4-1.3c3.5-10.3,7.1-20.7,10.8-31c0.8-2.1,1.6-4.3,2.7-6.2
			c4.9-8.1,16.3-8.5,21.7-0.8c1.5,2.1,2.6,4.7,3.5,7.2c5.6,15.6,11.1,31.3,16.6,47c0.3,1,0.3,2.2,2.1,2.2c1.7,0,1.8-1.1,2.1-2.3
			c2.5-9.5,5.1-18.9,7.6-28.4c1.5-5.7,3-11.5,4.5-17.2c-4.2-0.1-8.4-0.3-12.5-0.4c-3.8-0.1-6.2-2.5-6.3-6.3c0-1.7-0.2-3.4,0.1-5
			C250.3,200.9,253.1,198.8,258.9,198.9z"/>
		<path fill="#4071B3" d="M376,368.1c0,9.4,0.1,18.7,0.1,28.1c0,1.7-0.1,3.4-0.1,5.2c-9.7,0-19.4,0-29.1,0c-0.5-3-1-5.6-1.5-8.4
			c-7,0-13.8,0-20.6,0c0-13.4,0-26.8,0-40.1c6.5,0,13.1,0.1,19.6,0c1.6,0,2.1,0.5,2,2c-0.1,2.6-0.1,5.3,0,7.9
			c0.1,2.6,2.7,6.3,4.6,6.4c1.9,0.2,3.7,0.1,5.6,0C363,368.9,369.5,368.5,376,368.1z"/>
		<path fill="#4171B4" d="M184.7,264.2c-3.7-5.7-6-12-7.6-18.6c-2.9-11.6-3.4-23.5-4.8-35.3c-0.2-1.4-0.4-2.8-0.6-4.1
			c-0.6,0.6-0.8,1.3-1,1.9c-5.3,18.6-10.6,37.2-16.1,55.7c-1.6,5.3-3.6,10.6-6.2,15.6c-2.8,5.3-7.3,6.5-13,4.6
			c-1.3-0.4-2.6-0.9-3.9-1.5v17c7.4,0,14.8,0,22.2,0c0.2-3.3,0.3-6.6,0.5-10c0.4-7.1,3-8.1,8.3-8.4c4.5-0.2,9,0.2,13.6,0.3
			c0.3,0,0.7,0,1.3-0.1c0-1.5,0-3,0-4.5c0-1.8,0-3.6,0-5.4C177.4,265.9,179,264.2,184.7,264.2z"/>
		<path fill="#2F3489" d="M408,354.3c-0.7-2.8-1.3-5.6-2.1-8.3c-0.2-0.6-0.8-1.4-1.4-1.7c-2.8-1.4-5.7-2.7-8.4-4.1
			c-0.6-0.3-1.2-1.4-1.3-2.1c-0.2-2.3-0.1-4.5,0-6.8c0-1.3-0.4-1.7-1.7-1.7c-4.7,0.1-9.4-0.1-14,0c-8.6,0.2-9.4-5-9.4-11.2
			c0-1.4,0.4-2.9,0.8-4.3c0.9-2.8,3.2-4.5,6.1-4.6c5.4-0.1,10.8,0,16.2-0.1c1.3,0,1.6,0.5,1.6,1.6c0.1,3.3,0.3,6.7,0.4,10
			c0,1.4,0.5,1.7,1.8,1.7c6.7-0.1,13.4,0,20-0.1c8.3-0.1,9.4,4.1,9.8,9.7c0,0.3,0,0.5,0,0.8c0,3,0.8,4,3.6,4.6
			c0.9,0.2,1.9,0.1,2.8,0.2c0.2,1.9,0.6,3.8,0.7,5.8c0.3,4.1-4.6,10.2-8.8,10.7c-3.4,0.3-6.8,0.3-10.2,0.3
			C412.4,354.8,410.2,354.5,408,354.3z"/>
		<path fill="#4071B3" d="M279.3,423.1c0,12.3,0,24.6,0,36.9c-9.3,0-18.7,0-28,0c0-12.3,0-24.6,0-36.9
			C260.6,423.1,269.9,423.1,279.3,423.1z"/>
		<path fill="#2F3489" d="M376,368.1c-6.5,0.4-13,0.8-19.5,1.1c-1.9,0.1-3.7,0.2-5.6,0c-1.9-0.2-4.5-3.8-4.6-6.4
			c-0.1-2.6-0.1-5.3,0-7.9c0.1-1.6-0.4-2.1-2-2c-6.5,0.1-13.1,0-19.6,0c-0.6-4.5-1.3-8.9-1.9-13.4c1-2.6,3.4-3.6,5.5-4.6
			c3.7-1.7,7.6-2.7,11.8-2.5c4.2,0.1,6.1,1.9,6.2,6.1c0,3.9,0,7.7,0,11.6c0,0.7,0,1.4,0,2.6c9.9-5.2,19.9-3.6,29.8-1.4
			C376,356.9,376,362.5,376,368.1z"/>
		<path fill="#2D3187" d="M324.7,393c6.8,0,13.6,0,20.6,0c0.5,2.8,1,5.4,1.5,8.4c9.7,0,19.4,0,29.1,0c0,6,0,12-0.1,18.1
			c-9.3,0-18.6,0-27.9,0c-0.2-2.5-0.4-5-0.7-7.8c-4.5,0-8.9,0-13.3,0c-1.3,0-2.7,0.2-4,0.1c-3.8-0.3-5.9-2.4-5.9-6.2
			C324.2,401.4,324.5,397.2,324.7,393z"/>
		<path fill="#2F3489" d="M153.7,299.5c0.2-3.3,0.3-6.6,0.5-10c0.4-7.1,3-8.1,8.3-8.4c4.5-0.2,9,0.2,13.6,0.3c0.3,0,0.7,0,1.3-0.1
			c0-1.5,0-3,0-4.5c0-1.8,0-3.6,0-5.4c0-5.6,1.6-7.2,7.2-7.2c2.2,0.8,4.3,1.7,6.6,2.2c4.1,0.9,7.7-0.3,11-2.7c0,5.7,0,11.4,0.1,17
			c0,1.5-0.4,2-1.9,1.9c-6.9-0.1-13.8,0-20.6-0.1c-1.8,0-2.4,0.4-2.4,2.3c0.1,4.7,0,9.5,0,14.2c0,0.7,0,1.4,0,2.6
			c-7.9-0.8-15.6-1.5-23.2-2.2C154,299.5,153.9,299.5,153.7,299.5z"/>
		<path fill="#2D3187" d="M444.9,312.8c7.3,0,14.5,0,21.8,0c4.4,0,6.5,2.3,6.7,6.7c0.2,3.1,0.9,6.3,1.4,9.4
			c-0.2,3.9-0.4,7.7-0.6,11.6c-0.1,1.9-0.8,3-2.9,3.4c-6,1.2-12,0.8-17.9,0.4c-0.7,0-1.6-0.9-2-1.6c-1.7-3.2-3.3-6.4-4.7-9.7
			c-0.8-2.1-1.5-4.3-1.6-6.5C444.8,321.9,445,317.3,444.9,312.8z"/>
		<path fill="#4071B3" d="M348,419.4c9.3,0,18.6,0,27.9,0c0.1,6.3,0.4,12.6,0.3,19c-0.1,4-2.1,6-6.1,6.2c-5.5,0.3-10.9,0.3-16.4,0.1
			c-4-0.1-6.2-2.8-6.2-7.1C347.6,431.6,347.8,425.5,348,419.4z"/>
		<path fill="#2F3489" d="M474.8,304.5c-1.2,0-2.5,0-3.7-0.1c-2.6-0.3-3.9-2-4.3-4.3c-0.7-3.7-0.7-7.4,0.4-11c1.2-4,4.4-4.8,8.5-4.6
			c4,0.2,8.1,0.7,12.1,1.1c2.9,0.2,5.7,0.3,8.6,0.5c0.1,3.8,0.5,7.7,0.2,11.5c-0.3,3.5-3.1,5.2-7.4,5.6
			C484.3,303.5,479.5,304,474.8,304.5z"/>
		<path fill="#2D3187" d="M448,97c-1.4,0-2.8,0-4.2,0c-6.3,0.1-12.5,0.3-18.8,0.3c-5,0.1-7-1.9-7-7c0-2.5,0.1-5.1,0.4-7.6
			c0.3-2.5,2-3.9,4.5-3.9c8.3,0,16.7,0,25,0C448,85,448,91,448,97z"/>
		<path fill="#2F3489" d="M255.7,167.6c-4.8,0.4-9.7,0.8-14.5,1.1c-2.7,0.2-5.5,0.2-8.2,0c-2.5-0.2-4-2.2-5.2-4.2
			c-2.1-3.3-2.8-6.9-1.7-10.7c0.8-2.9,2.6-4.3,5.6-4.2c7.3,0.3,14.6,0.7,21.9,1.1c0.7,0,1.5,0,2.2,0
			C255.7,156.4,255.7,162,255.7,167.6z"/>
		<path fill="#2D3187" d="M474.6,166c-0.5,0-1.1,0-1.6,0c-4,0-6.2-2.1-6.4-6.1c-0.1-2.5-0.1-4.9,0-7.4c0.1-2.4,1.7-4.4,4-4.9
			c1.4-0.3,2.9-0.5,4.4-0.5c7.1,0.1,14.3,0.2,21.4,0.3c0,6,0,12.1,0,18.1c-6.5,0-12.9,0-19.4,0.1C476.1,165.7,475.4,165.9,474.6,166
			z"/>
		<path fill="#2D3187" d="M327.7,45.3c-9.3,0.1-18.6,0.3-28,0.4c-0.7-4.3-0.3-8.5,1-12.6c1.8-5.5,6.3-8.3,12.3-7.7
			c2.8,0.3,5.5,0.9,8.2,1.5c3.9,0.9,6.1,3.8,6.5,7.5C328.2,38,327.7,41.6,327.7,45.3z"/>
		<path fill="#2D3187" d="M230.8,22c-9.3,0-18.6,0-27.9,0c-0.1-3.5-0.5-6.9-0.3-10.4c0.2-4.9,3.1-7.7,8-7.9
			c4.4-0.2,8.8-0.2,13.2-0.1c4.8,0.2,6.7,1.9,7,6.7C231,14.2,230.8,18.1,230.8,22z"/>
		<path fill="#2D3187" d="M251.2,460c9.3,0,18.7,0,28,0c-0.1,3.3,0.1,6.7-0.5,9.9c-1.3,7.2-5.9,10.4-13.5,9.6
			c-1.8-0.2-3.6-0.5-5.3-0.9c-6-1.5-9.8-6.8-9.3-13C250.8,463.7,251.1,461.8,251.2,460z"/>
		<path fill="#2F3489" d="M424.4,53.7c-6.9,0.4-13.9,0.8-20.8,1.2c-2.4,0.1-4.8,0.3-7.2,0.4c-0.1-3.8-0.4-7.6-0.4-11.4
			c0.1-4.8,1.6-6.5,6.3-6.7c5.5-0.2,11.1-0.2,16.6,0.1c4,0.2,5.8,2.2,5.8,6.2C424.9,46.9,424.6,50.3,424.4,53.7z"/>
		<path fill="#2D3187" d="M183.8,127.5c-8.8,0.5-17.6,1.1-26.4,1.6c-0.5,0-1.1,0-1.6,0c0.2-3.6-0.1-7.4,0.6-10.9
			c1.3-6.6,5.3-9.6,12.1-9c3.6,0.3,7.1,1.1,10.5,2.1c3.7,1.1,5.4,3.5,5.4,7.5C184.4,121.7,184,124.6,183.8,127.5z"/>
		<path fill="#2F3489" d="M279.3,423.1c-9.3,0-18.7,0-28,0c0-5.6,0-11.2,0-16.8c8.6-0.4,17.1-0.8,25.7-1.2c0.7,0,1.5,0,2.2,0
			C279.2,411,279.2,417.1,279.3,423.1z"/>
		<path fill="#2D3187" d="M179.1,342.9c9.4,0.5,18.9,1.1,28.3,1.6c0.1,3.2,0.3,6.4,0.2,9.6c-0.1,4.7-2.3,7.2-6.9,7.3
			c-5.5,0.1-10.9,0-16.4-0.4c-3.8-0.3-5.2-2-5.4-5.9c-0.2-3.4,0.1-6.9,0.1-10.4C179.1,344.1,179.1,343.5,179.1,342.9z"/>
		<path fill="#2D3187" d="M496.3,83.8c-7.8,0-15.5,0-23.3,0c-1.6,0-3.2,0.2-4.7,0.3c0-4.2-0.2-8.4-0.1-12.6c0.1-3.4,1.5-4.7,4.9-4.6
			c5.9,0.1,11.9,0.1,17.8,0.4c4,0.2,5.7,2,5.8,5.9C496.7,76.8,496.4,80.3,496.3,83.8z"/>
		<path fill="#2D3187" d="M207.6,306.1c-4.8-0.7-7-3-6.9-7.8c0-2.3,0.2-4.5,0.4-6.8c0.3-2.8,2-4.9,5.1-5.1c6.5-0.3,13-0.1,19.7-0.1
			c0,6,0,12.1,0,18.2C219.8,305,213.7,305.6,207.6,306.1z"/>
		<path fill="#2F3489" d="M377.6,202.6c-6.1-0.4-8.1-2.5-8.1-8.7c0-1.9,0-3.7,0.4-5.6c0.7-3.8,2.9-5.6,6.8-5.8
			c5.3-0.3,10.5,0.2,15.6,1.9c1.3,0.4,1.7,1,1.8,2.4c0.1,2.5,0.6,5,1,7.5c0.7,3.9-1.2,7.4-4.8,8.8
			C386,202.9,381.8,202.7,377.6,202.6z"/>
		<path fill="#2F3489" d="M177.3,149.7c2.3-2.5,4.3-5.7,8.2-5.7c4.1,0,8.4-0.3,12.4,1.4c5.6,2.5,6.3,6.9,5.3,11.8
			c-1.1,5.2-3.4,6.8-8.8,6.9c-3.9,0-7.8,0-11.7,0C181,159.2,179.2,154.4,177.3,149.7z"/>
		<path fill="#2F3489" d="M276.2,244.6c4.9-0.1,9.8-0.3,14.8-0.4c5.5-0.1,8,2.8,7.1,8.2c-0.5,3-1,6-1.6,9c-0.2,1.3-0.9,2.2-2.3,2.4
			c-5.4,0.6-10.9,0.6-16.3-0.5c-1.7-0.3-2.4-1.3-2.7-2.9c-0.3-2.5-0.8-4.9-1.2-7.4C274.8,250.2,275.5,247.4,276.2,244.6z"/>
		<path fill="#2D3187" d="M394.7,122.2c0,5.6,0,11.2,0.1,16.8c0,1.4-0.5,1.8-1.8,1.8c-7.1-0.1-14.2,0-21.4,0
			c-0.2-3.6-0.5-7.2-0.5-10.8c0.1-5.2,2.2-7.4,7.5-7.6c4.7-0.2,9.4,0,14.2,0C393.4,122.3,394.1,122.3,394.7,122.2z"/>
		<path fill="#2D3187" d="M151.6,155.7c-5,0.1-10-0.2-15,0.3c-2.5,0.2-4.2,1.1-5.1,2.8V174h22.7v-18.4
			C153.3,155.6,152.4,155.7,151.6,155.7z"/>
		<path fill="#2D3187" d="M463.1,189.3c-4.2,0-8.4,0-12.6-0.1c-0.5,0-1.1,0-1.6,0c-4.3-0.3-6-2-5.9-6.3c0-2.7,0-5.3,0.4-8
			c0.4-2.6,2.4-4.1,5.1-4.1c4.2-0.1,8.4-0.4,12.6-0.3c3.3,0.1,5.8,0.8,6,6.8C465.7,181.3,464.4,185.3,463.1,189.3z"/>
		<path fill="#2D3187" d="M276.2,79c3.9,0,7.7,0,11.6,0c1.5,0,2.9-0.3,4.4-0.3c3-0.1,5.1,1.3,5.4,4.2c0.4,3.5,0.4,7,0.1,10.5
			c-0.3,3-3.5,4.7-7.4,4.6c-4.7-0.2-9.4-0.3-14.1-0.4C276.1,91.3,276.1,85.2,276.2,79z"/>
		<path fill="#2F3489" d="M268.1,218.2c-4.2-0.1-8.4-0.3-12.5-0.4c-3.8-0.1-6.2-2.5-6.3-6.3c0-1.7-0.2-3.4,0.1-5
			c1-5.6,3.8-7.8,9.6-7.6c5,0.1,10.1,0.3,15.1,0.4C272.1,205.6,270.1,211.9,268.1,218.2z"/>
		<path fill="#2D3187" d="M153.7,299.5c-7.4,0-14.8,0-22.2,0v11.9c2.3,1.4,4.5,2.8,6.5,4.5c0.1,0.1,0.2,0.2,0.3,0.3
			c0.5,0,1,0.1,1.5,0.1c4.8,0,9.6,0,14.4-0.1c0-5.6,0-11.1,0.1-16.7C154,299.5,153.9,299.5,153.7,299.5z"/>
		<path fill="#2D3187" d="M227.7,362.9c6.6,0,13.2,0,19.7-0.1c1.4,0,1.8,0.5,1.8,1.8c-0.1,5,0,10,0,15c-5.5,0.1-10.9,0.2-16.4,0.2
			c-4,0-5.2-1-5.3-5C227.4,370.9,227.7,366.9,227.7,362.9z"/>
		<path fill="#2F3489" d="M331.2,234.1c3.3,0.3,6.7,0.3,9.9,0.9c4.4,0.8,6.1,3,5.9,7.4c-0.1,2.6-0.4,5.2-0.9,7.7
			c-0.4,2.2-3.3,4.1-6,4.1c-5.2,0-10.4,0-15.5,0C326.8,247.5,329,240.8,331.2,234.1z"/>
		<path fill="#2F3489" d="M279.4,185.8c-1.8-0.6-3.6-1.2-5.4-1.8c0.7-6,1.4-12,2.2-18c1.1-0.1,2.1-0.4,3.2-0.4
			c5.1,0.1,10.3,0.1,15.4,0.4c2.3,0.1,3,1.3,3.1,3.7c0,3.7,0,7.4,0,11.2c-5-3.1-9.7-2.3-14.1,1.3
			C282.2,183.3,280.8,184.6,279.4,185.8z"/>
		<path fill="#2F3489" d="M184.8,189.3c3.3-0.1,6.5-0.2,9.8-0.4c5.4-0.3,7.8,1.7,8.1,7.1c0.1,2.3-0.1,4.7-0.4,7
			c-0.4,3.2-2.6,5.1-5.9,5.1c-3.2,0.1-6.5,0-9.7,0C186.1,201.8,185.4,195.6,184.8,189.3z"/>
		<path fill="#4171B4" d="M496.5,170.6c0,8.3,0,16.6,0,24.8c0,0.6-0.4,1.3-0.6,1.9"/>
		<path fill="#4171B4" d="M495.8,197.3c-0.4-0.5-1-1-1.2-1.6c-2.3-6.2-4.6-12.5-6.9-18.7c-0.7-1.9-1.7-3.8-2.9-5.5
			c-2.5-3.4-6-4.7-10.2-3.9c0-0.5,0-1.1,0-1.6c0.8-0.1,1.5-0.4,2.3-0.4c6.5,0,12.9,0,19.4-0.1c0.1,1.7,0.2,3.3,0.2,5"/>
		<path fill="#2F3489" d="M425.2,224.2c4.5,0.1,9,0.1,13.5,0.4c2.7,0.2,3.9,1.7,4.1,4.5c0.2,2.6,0.4,5.2,0.4,7.8
			c0.1,5.8-1.7,7.7-7.6,8.2C432.2,238.1,428.7,231.1,425.2,224.2z"/>
		<path fill="#2F3489" d="M309.4,212.5c4,0,8,0,12,0c0.7,0,1.4,0.2,2.1,0.4c-0.1,0.3-0.2,0.6-0.3,0.9c-2.6,6.4-5.2,12.8-7.8,19.2
			c-3.3-0.1-3.4-0.1-3.8-3.1C310.8,224.2,310.1,218.3,309.4,212.5z"/>
		<path fill="#2F3489" d="M360,277.9c2.1,0,4.1-0.1,6.2,0c2.8,0.1,4.5,1.3,4.7,3.9c0.3,4,0.2,8.1-0.1,12.2c-0.2,2.4-1.7,3.5-4.1,3.6
			c-5.4,0.1-10.7,0.1-16.1,0c-2.4,0-4.2-1.4-4.3-3.7c-0.2-3.4-0.3-6.8,0.1-10.2c0.5-4.2,2.5-5.6,7.2-5.8
			C355.8,277.8,357.9,277.9,360,277.9z"/>
		<path fill="#2D3187" d="M370.6,270.3c0.2-2.3,0.3-4.5,0.5-6.8c0.3-2.8,2.7-4.6,5.7-4.4c3.4,0.1,6.8,0,10.2,0.5
			c2.2,0.3,4.6,1,6.5,2.2c2.8,1.9,2.3,5.2,2,8.1c-0.4,4.1-2.6,6.4-6.7,7.8c-4.9,1.8-9.5,1.3-14.3,0.1c-2.6-0.6-3.7-2.3-3.8-5
			C370.7,272,370.7,271.1,370.6,270.3C370.7,270.3,370.7,270.3,370.6,270.3z"/>
		<path fill="#2D3187" d="M335.8,297.4c2,0.1,4,0.1,5.9,0.5c3,0.6,4.5,2.2,4.5,5.2c0,3.8-0.2,7.6-0.4,11.4c-0.1,1.3-0.9,1.6-2.1,1.6
			c-5.4,0-10.8,0-16.1,0c-3.1,0-4.9-1.7-5-4.8c-0.1-2.7-0.1-5.5,0-8.2c0.1-3.2,2-5,5.2-5.1C330.5,297.8,333.1,297.6,335.8,297.4z"/>
		<path fill="#2D3187" d="M285.1,314.4c3.6,0,7.2,0.3,10.3,2.4c5.1,3.4,4.4,10.8,1.3,13.9c-1.3,1.4-3.8,1.7-5.8,2.3
			c-4.4,1.4-8.8,0.9-13.1-0.5c-2.7-0.9-3.8-2.5-3.7-5.2c0-2.2,0.2-4.4,0.4-6.5c0.3-2.5,4.9-6.2,7.7-6.4
			C283.2,314.3,284.1,314.4,285.1,314.4z"/>
		<path fill="#2F3489" d="M347.1,169.2c-0.2,4-0.4,7.6-0.6,11.2c-0.1,1.5-0.3,3-0.4,4.6c-0.5,4.5-1.7,5.2-6.8,5.9
			c-4.5,0.6-8.9-0.5-13-2.3c-0.9-0.4-2-1.5-2.1-2.3c-0.5-3.5-0.8-7-0.9-10.5c0-0.7,1.2-1.8,2-2c4.7-1.2,9.4-2.3,14.1-3.3
			C341.7,169.9,344.2,169.6,347.1,169.2z"/>
	</g>
</g>
<g id="Layer_2">
</g>
</svg>
