<?xml version="1.0" encoding="utf-8"?>
<!-- Generator: Adobe Illustrator 22.1.0, SVG Export Plug-In . SVG Version: 6.00 Build 0)  -->
<svg version="1.1" id="Layer_2_1_" xmlns="http://www.w3.org/2000/svg" xmlns:xlink="http://www.w3.org/1999/xlink" x="0px" y="0px"
	 viewBox="0 0 640 480" style="enable-background:new 0 0 640 480;" xml:space="preserve">
<style type="text/css">
	.st0{fill:#6CB545;}
</style>
<g>
	<path class="st0" d="M468.7,237c-4.3,1-7.9,2.8-7.9,7.5c0,4.7,3.7,6.6,8,6.6c9.1,0,12.1-5.2,11.7-17.2
		C477.8,235.5,472.8,235.9,468.7,237"/>
	<path class="st0" d="M250.7,215.7c-8.9,0-11.6,8.9-11.6,16.3c0,7.4,2.7,16.2,11.6,16.2s11.7-8.8,11.7-16.2
		C262.4,224.6,259.6,215.7,250.7,215.7"/>
	<path class="st0" d="M187.2,215.7c-8.9,0-11.6,8.9-11.6,16.3c0,7.4,2.7,16.2,11.6,16.2c8.9,0,11.7-8.8,11.7-16.2
		C198.9,224.6,196.1,215.7,187.2,215.7"/>
	<path class="st0" d="M559.2,261.2h-15.5h-1.4V233c0-3.6,0.2-7.3-0.6-10.2c-1-3.5-3.3-5.9-9-5.9c-6.4,0-9.6,4.8-10.2,10.4
		c-0.1,0.7-0.1,1.4-0.1,2.1v30.2c0,0.9-0.7,1.6-1.6,1.6h-7.1h-10.4v-52.1c0-3.1,2.9-3.3,6.6-4.1l9.1-1.7l2.8-0.5v8h0.2
		c3.1-5.3,9.6-8.8,15.8-9.5c0.8-0.1,1.7-0.2,2.5-0.2c13.7,0,18.6,7,20.2,14.1V-0.5h-481v217.9c0.5-9.2,3.4-17,8.1-22.8
		c6.5-8.5,17.4-15.2,29.9-15.2c9.8,0,19.9,3.1,27,9.7c2.7,2.2,4.8,5.1,6.4,8.7c0.9,1.8,1.6,3.9,2.1,6c0.1,0.7-0.3,1.1-1.1,1.3
		l-19,1.5c-0.7-6.9-7.4-11-15.8-11c-13.5,0-18.7,13.6-18.7,25.5c0,11.9,5.2,25.5,18.7,25.5c10.3,0,17.3-6.5,18.4-13.8h-10.8v-13.9
		c0-0.8,0.9-1.6,1.6-1.6h28.2v42.6c0,0.9-0.8,1.5-1.6,1.6l-13.1,2.2v-9.5c-6.2,7-15.2,9.6-22.5,9.6c-23.7,0-36.6-17.1-37.9-39.1
		v255.8h481V260.2C560.3,260.8,559.8,261.1,559.2,261.2 M187.2,262.9c-18.1,0-30.7-13.3-30.7-30.8s12.6-31,30.7-31
		c18.1,0,30.8,13.4,30.8,31S205.3,262.9,187.2,262.9 M250.7,262.9c-18.1,0-30.7-13.3-30.7-30.8s12.6-31,30.7-31
		c18.1,0,30.8,13.4,30.8,31S268.8,262.9,250.7,262.9 M344.1,259.6c0,0.9-0.7,1.6-1.6,1.6h-16.6v-6.7h-0.2c-3.7,5.5-9.4,8.4-16.1,8.4
		c-12.8,0-20.5-7.7-23.9-18c-0.1-0.2-0.2-0.4-0.3-0.8c-0.1-0.1-0.1-0.2-0.1-0.3c-0.2-0.8-0.4-1.6-0.7-2.4v-0.1
		c-0.8-3.4-1.3-7.1-1.3-10.8c0-3.3,0.4-6.4,1.1-9.5v-0.1c0.1-0.2,0.1-0.3,0.2-0.5c0.1-0.3,0.2-0.7,0.2-0.9c0.1-0.2,0.1-0.3,0.2-0.4
		c3.1-10.3,10.7-18.2,23-18.2c7.2,0,12.7,2.7,16.6,8h0.2v-21.8c0-3.1,2.9-3.3,6.7-4.1l12.5-2.4L344.1,259.6L344.1,259.6z
		 M439.7,259.7c0,0.8-0.8,1.5-1.5,1.5h-17.6v-34.3c0-6.3-3-10-8-10c-8.2,0-9,6.3-9,15.8v27c0,0.9-0.7,1.6-1.6,1.6h-17.5v-33.2
		c0-6.9-2.1-11.2-7.2-11.2c-6.9,0-9.8,3.9-9.8,15.9v26.9c0,0.9-0.7,1.6-1.6,1.6h-17.5v-52.1c0-3.1,2.9-3.3,6.7-4.1l11.9-2.3v8h0.2
		c3.5-5.9,9.7-9.7,16.8-9.7c7.3,0,13.9,2.3,17,9.5c4.6-6.2,10.3-9.5,18.2-9.5c18.6,0,20.6,14.1,20.6,25.2L439.7,259.7L439.7,259.7z
		 M499,259.6c0,0.9-0.7,1.6-1.6,1.6h-15.4c-0.7-1.8-0.9-3.6-1.1-5.5c-5,5.2-12.3,7.2-19.3,7.2c-8.6,0-15.7-3.4-18.6-10.4
		c-0.1-0.2-0.2-0.4-0.3-0.7c-0.7-2-1-4.1-1-6.6c0-1.7,0.2-3.3,0.5-4.7v-0.1c0-0.1,0.1-0.1,0.1-0.2c0.2-0.8,0.4-1.4,0.7-2.1
		c0.1-0.1,0.1-0.1,0.1-0.2l0.1-0.1c0.3-0.8,0.6-1.4,0.9-1.7c5.7-9.6,21.1-9.1,31.8-11.3c3.3-0.7,5.1-1.8,5.1-5.4
		c0-4.4-5.3-6.1-9.2-6.1c-5.3,0-8.7,2.3-9.6,7.3l-17.5-3.3c1.1-5.8,4.4-9.7,8.7-12.3c5.2-2.9,11.9-4,18.6-4c13.8,0,27.3,3,27.3,19.6
		v38.7H499z"/>
	<path class="st0" d="M314.3,215.7c-8.8,0-11.7,8.2-11.7,15.6c0,8,2.9,16.9,11.7,16.9c9.4,0,11.4-8.9,11.4-16.3
		C325.6,223.5,322.6,215.7,314.3,215.7"/>
</g>
</svg>
