<?xml version="1.0" encoding="utf-8"?>
<!-- Generator: Adobe Illustrator 18.1.1, SVG Export Plug-In . SVG Version: 6.00 Build 0)  -->
<svg version="1.1" id="Layer_1" xmlns="http://www.w3.org/2000/svg" xmlns:xlink="http://www.w3.org/1999/xlink" x="0px" y="0px"
	 viewBox="0 0 640 480" enable-background="new 0 0 640 480" xml:space="preserve">
<g>
	<polygon fill-rule="evenodd" clip-rule="evenodd" fill="#6993C3" points="84.4,474.4 554.4,474.4 554.4,4.4 84.4,4.4 84.4,474.4 	
		"/>
	<path fill-rule="evenodd" clip-rule="evenodd" fill="#FFFFFF" d="M495.4,111.7h-16.3V47.5h15.3v7.2c1.9-4.3,6.7-8.1,12.9-8.6
		c10.5-0.5,17.7,5.8,17.7,19.2v46.5h-16.8V63.3c0-5.7,0-10.5-3.8-11.5c-1.4-0.5-3.8,0-5.8,1.4c-2.4,2.4-3.4,5.3-3.4,10.1
		C495.4,64.3,495.4,111.7,495.4,111.7L495.4,111.7z"/>
	<path fill-rule="evenodd" clip-rule="evenodd" fill="#FFFFFF" d="M218.5,51.8c-3.8-3.4-8.6-5.8-14.4-5.8c-5.7,0-10.1,2.4-14.4,5.8
		c-6.7,5.7-11,16.3-11,27.8c0,12,4.3,22,11,27.8c4.3,3.4,8.6,5.7,14.4,5.7c5.7,0,10.5-2.4,14.4-5.7c7.2-5.8,11-15.8,11-27.8
		C229.5,68.1,225.7,57.6,218.5,51.8L218.5,51.8z M212.3,79.6c0,12,0,21.6-1.9,26.4c-1.4,2.4-2.9,3.8-6.2,3.8c-2.9,0-4.8-1.4-5.7-3.8
		c-2.4-4.8-2.4-14.4-2.4-26.4c0-11.5,0-21.6,2.4-26.4c1-2.4,2.9-3.8,5.7-3.8c3.4,0,4.8,1.4,6.2,3.8C212.8,58,212.3,68.1,212.3,79.6
		L212.3,79.6z"/>
	<path fill-rule="evenodd" clip-rule="evenodd" fill="#FFFFFF" d="M385.7,136.1v17.2h-3.4c-1.9-7.2-4.8-13.4-12.5-13.9
		c-4.8-0.5-9.1,2.4-9.6,6.7c-0.5,4.3,1,8.1,9.6,12.9c11,6.2,19.6,9.1,19.6,22c0,13.9-12,20.6-22,20.6c-4.3,0-19.2,0-19.2,0v-24h3.4
		c2.4,12.5,6.2,20.1,15.3,20.6c5.7,0,10.1-3.4,10.1-9.6c0-6.2-3.8-10.1-12.9-15.3c-10.1-6.2-16.3-10.1-16.3-18.7
		c0-11.5,8.1-18.7,21.1-18.7C373.3,136.1,385.7,136.1,385.7,136.1L385.7,136.1z"/>
	<path fill-rule="evenodd" clip-rule="evenodd" fill="#FFFFFF" d="M406.8,111.7V65.2c0-13.4-7.2-19.6-17.7-19.2
		c-7.2,0.5-11.5,5.3-13.4,9.1c-2.4-6.7-7.7-9.6-15.3-9.1c-6.2,0.5-11,4.3-12.9,8.6v-7.2h-14.9v64.2h16.3c0,0,0-47,0-48.4
		c0-4.8,0.5-7.7,3.4-10.1c1.9-1.4,3.8-1.9,5.3-1.4c3.8,1,3.8,5.7,3.8,11.5v48.4h16.3V62.8c0-4.3,1-7.2,3.4-9.6
		c1.9-1.4,3.8-1.9,5.3-1.4c3.8,1,4.3,5.7,4.3,11.5v48.4H406.8L406.8,111.7z"/>
	<polygon fill-rule="evenodd" clip-rule="evenodd" fill="#FFFFFF" points="240.6,34.1 257.3,34.1 257.3,111.7 240.6,111.7 
		240.6,34.1 	"/>
	<path fill-rule="evenodd" clip-rule="evenodd" fill="#FFFFFF" d="M316.7,111.7V34.1H300v18.2c-1.4-3.4-4.8-5.7-9.6-5.7
		c-12,0-21.6,12.5-22,31.6c-0.5,12.9,3.8,34.5,20.6,34.5c6.7,0,10.5-3.8,12-7.2v6.2H316.7L316.7,111.7z M297.1,52.8
		c3.4,4.8,3.4,16.3,3.4,25.4c0,9.6,0.5,22-3.4,27.3c-1.4,1.9-2.9,2.9-5.3,2.9c-3.4,0-5.3-3.8-6.2-10.1c-0.5-5.7-0.5-12.9-0.5-20.6
		c0-12.9,1-27.3,7.2-27.3C294.7,50.4,295.7,51.3,297.1,52.8L297.1,52.8z"/>
	<path fill-rule="evenodd" clip-rule="evenodd" fill="#FFFFFF" d="M456.6,49.4c4.3,2.4,7.2,6.2,7.2,14.9v47.4H448v-7.2
		c-1.9,5.3-7.2,8.6-14.4,8.6c-5.8,0-15.8-2.9-15.8-17.7c0-13.9,9.1-16.8,19.2-21.1c9.1-3.8,10.1-4.3,10.1-8.1c0-3.4,0-6.2,0-10.5
		c0-4.3-2.4-6.2-7.2-6.2c-1.9,0.5-5.3,1.4-5.3,3.8c-0.5,2.9,2.9,2.9,3.4,7.2c0.5,6.7-4.8,9.1-9.6,8.6c-3.4,0-7.2-1.9-7.7-7.2
		c-0.5-8.6,9.1-15.8,22.5-15.8C449.5,46.1,453.3,47.5,456.6,49.4L456.6,49.4z M447.1,73.4l-5.3,3.4c-5.3,3.4-6.2,7.7-6.7,12.5
		c-0.5,3.8-0.5,7.2,0,12.9c0.5,5.3,3.8,6.2,6.7,5.3c3.4-1.4,5.3-7.7,5.3-14.4C447.1,93,447.1,75.8,447.1,73.4L447.1,73.4z"/>
	<path fill-rule="evenodd" clip-rule="evenodd" fill="#FFFFFF" d="M219.5,139c4.3,2.9,6.7,6.2,6.7,14.9v47.9h-15.3v-7.2
		c-1.9,4.8-7.2,8.1-14.4,8.1c-6.2,0-15.8-2.4-15.8-17.2c0-13.9,9.1-16.8,18.7-21.1c9.6-4.3,10.5-4.8,10.5-8.1c0-3.4,0-6.2,0-10.5
		c0-4.8-2.4-6.7-7.2-6.2c-1.9,0-5.3,1-5.3,3.4c-0.5,3.4,2.9,3.4,3.4,7.7c0.5,6.2-4.8,8.6-9.6,8.6c-3.4-0.5-7.2-2.4-7.7-7.7
		c-0.5-8.1,9.1-15.3,22.5-15.3C212.3,136.1,216.1,137.1,219.5,139L219.5,139z M209.9,163l-5.3,3.4c-5.3,3.4-6.2,7.7-6.7,12.5
		c-0.5,3.8-0.5,7.7,0,12.9c0,5.8,3.4,6.7,6.2,5.3c3.8-1.4,5.7-7.2,5.7-14.4C209.9,182.6,209.9,165.4,209.9,163L209.9,163z"/>
	<path fill-rule="evenodd" clip-rule="evenodd" fill="#FFFFFF" d="M335.4,155.3c0-13.4-7.2-20.1-17.7-19.2c-5.3,0.5-9.6,2.9-12,6.2
		v-18.7h-16.3v44.1c0,16.3-11.5,31.6-23,31.1c-8.1,0-10.1-6.2-11-12.9c-1.4-9.6-1.4-20.6-0.5-32.6c1-7.7,2.9-13.9,8.6-13.9
		c4.3,0,4.8,2.9,2.9,4.8c-1.9,2.4-4.8,4.8-3.4,10.1c1.4,5.7,10.5,6.7,14.9,2.4c3.4-3.8,2.9-10.1,0.5-13.9c-2.9-4.8-7.7-6.7-14.9-6.7
		c-9.1,0-26.4,8.1-26.4,34c0,27.8,17.7,32.6,27.8,32.6c11.5,0,21.6-10.1,24.4-18.2v17.2h16.3v-48.4c0-4.8,1-7.7,3.4-10.1
		c1.9-1.4,4.3-1.9,5.8-1.4c3.8,1,3.8,5.7,3.8,11.5v48.4h16.8V155.3L335.4,155.3z"/>
	<path fill-rule="evenodd" clip-rule="evenodd" fill="#FFFFFF" d="M167.7,32.6V60h-3.4c-2.9-13.4-9.1-23.5-17.7-24
		c-5.7-0.5-9.1,2.9-12,7.7c-2.9,5.7-4.3,17.7-4.3,32.1c0,13.4,0.5,23.5,1.9,30.7c1,3.4,3.4,8.6,9.6,8.6c3.4,0,5.7-1,7.2-2.9
		c2.4-2.9,2.9-8.6,2.9-12.5c0-6.2,0-8.1,0-12.9c0-4.8-1.4-7.7-3.8-9.1c-1.9-1-4.8-1-6.2-1.4v-3.4h26.8v68.5h-3.4
		c-1.4-5.3-2.4-9.1-4.8-13.4c-2.4-4.3-6.7-9.1-13.9-9.1c-7.7-0.5-13.4,4.3-13.4,11.5c0,9.6,5.8,12,16.3,17.7
		c10.1,5.7,23,10.5,23,27.3c0,16.3-13.9,26.4-29.7,26.4c-3.4,0-25.4,0-25.4,0v-33.1h3.4c4.3,24.9,14.9,29.2,22,29.2
		c9.1,0,13.4-5.7,13.4-13.9c-0.5-10.5-7.7-14.4-17.7-19.6c-14.4-8.1-21.1-12-21.1-25.4c0.5-11.5,9.6-18.7,19.6-21.6
		c-21.1-2.4-27.3-21.6-26.8-42.2c0-20.6,12-42.6,35.5-42.6C156.2,32.6,167.7,32.6,167.7,32.6L167.7,32.6z"/>
</g>
</svg>
