<?xml version="1.0" encoding="utf-8"?>
<!-- Generator: Adobe Illustrator 20.1.0, SVG Export Plug-In . SVG Version: 6.00 Build 0)  -->
<svg version="1.1" id="Layer_1" xmlns="http://www.w3.org/2000/svg" xmlns:xlink="http://www.w3.org/1999/xlink" x="0px" y="0px"
	 viewBox="0 0 640 480" style="enable-background:new 0 0 640 480;" xml:space="preserve">
<style type="text/css">
	.st0{fill:#00ADEF;}
	.st1{fill:#0C4CA3;}
</style>
<g>
	<g>
		<path d="M317.7,114.2V100V84c0-4.9-4.1-9-9-9h-72.8c-6.8,0-12.4,5.6-12.4,12.4c0,6.9,5.6,12.4,12.4,12.4h47.5v12.6
			c0,9.9-12.6,17.9-28.1,17.9H143.8c-15.5,0-28.1-8-28.1-17.9V41.3c0-9.9,12.6-17.9,28.1-17.9h53.7c6.3,0,11.3-5.1,11.3-11.4
			s-5.1-11.4-11.3-11.4h-57.2C108.2,0.6,82,17.4,82,38v76.2c0,20.6,26.3,37.4,58.4,37.4h119C291.4,151.6,317.7,134.8,317.7,114.2z"
			/>
		<path d="M352.3,71.6v41.9c0,21.4,30.1,38.8,66.8,38.8h72c36.8,0,66.8-17.5,66.8-38.8V71.6c0-21.4-30.1-38.8-66.8-38.8h-72
			C382.4,32.8,352.3,50.3,352.3,71.6L352.3,71.6z M384.7,113.3V71.9c0-9.9,14.8-17.9,32.7-17.9H493c18,0,32.7,8,32.7,17.9v41.4
			c0,9.9-14.8,17.9-32.7,17.9h-75.6C399.4,131.2,384.7,123.1,384.7,113.3z"/>
	</g>
	<g>
		<path d="M21.6,210.9v118.5c0,5.7,4.7,10.5,10.5,10.5h14c5.7,0,10.5-4.7,10.5-10.5v-43.7h30.6h45.2h59.8
			c37.8,0,68.8-17.5,68.8-38.8v-20.7c0-21.4-31-38.8-68.8-38.8H87.1H32c-5.7,0-10.5,4.7-10.5,10.5v13H21.6z M56.5,261.9v-53.6h75.9
			h65.2c16.2,0,29.4,7.5,29.4,16.7v20.2c0,9.2-13.2,16.7-29.4,16.7h-65.2H56.5z"/>
		<path d="M290.2,258.4v28.9v12.9v28.3c0,5.7,4.7,10.5,10.5,10.5h11.4c5.7,0,10.5-4.7,10.5-10.5V300v-12.6v-28.7
			c0-9.9,14.8-17.9,32.7-17.9h23.9c5.9,0,10.6-4.8,10.6-10.6s-4.8-10.6-10.6-10.6H357C320.3,219.6,290.2,237.1,290.2,258.4z"/>
		<path d="M412.8,258.4v41.9c0,21.4,30.1,38.8,66.8,38.8h72c36.8,0,66.8-17.5,66.8-38.8v-41.9c0-21.4-30.1-38.8-66.8-38.8h-72
			C442.8,219.6,412.8,237.1,412.8,258.4L412.8,258.4z M445.1,300.1v-41.4c0-9.9,14.8-17.9,32.7-17.9h75.6c18,0,32.7,8,32.7,17.9
			v41.4c0,9.9-14.8,17.9-32.7,17.9h-75.6C459.8,318,445.1,310,445.1,300.1z"/>
	</g>
	<g>
		<rect x="2.5" y="379.8" class="st0" width="135.8" height="99.6"/>
		<rect x="169.9" y="379.8" class="st0" width="135.8" height="99.6"/>
		<rect x="334.3" y="379.8" class="st1" width="135.8" height="99.6"/>
		<rect x="501.7" y="379.8" width="135.8" height="99.6"/>
	</g>
</g>
</svg>
