<svg xmlns="http://www.w3.org/2000/svg" viewBox="0 0 640 480"><defs><style>.cls-1{fill:none;}.cls-2{fill:#b2b4b7;}.cls-3{fill:#231f20;}.cls-4{fill:#242021;}</style></defs><title>Graftech</title><g id="Layer_2" data-name="Layer 2"><g id="Layer_8" data-name="Layer 8"><path class="cls-1" d="M0,0V480H640V0ZM345.44,164.19c.86-3,3.49-3.4,6.05-3.81.61-.1,1.24-.09,1.86-.13h0c.28,0,.55.05.83.05h66.43a2.81,2.81,0,0,0,2-.36,7.5,7.5,0,0,0,6.68-4.17c.55-1.07,4.8-1.82,5.55-1,.32.35.17.77.08,1.18-1.66,7.2-3.23,14.41-5,21.58-1.07,4.37-3.59,6.17-8.13,6.18-5.56,0-11.12,0-16.68,0-1.4,0-1.95.31-2.29,1.86-2.57,11.45-5.31,22.85-8,34.28-3.4,14.58-6.82,29.16-10.11,43.76a9.88,9.88,0,0,0-.27,5.11c.51,1.7,1.38,3,3,3.36,2,.42,2.13,1.44,1.64,3a19.47,19.47,0,0,0-.39,2h0c-.9,0-1.8.09-2.7.09q-17.82,0-35.64,0c-2.95-.32-4.14-1.19-4.69-3.45h0c0-1,0-1.91,0-2.87.54-4.93,2-9.67,3.08-14.48,3.4-15,6.91-29.93,10.4-44.89,2-8.56,4-17.13,6.05-25.67.41-1.69.05-2.3-1.72-2.19-4.35.27-8.71-.3-13.07.36a7,7,0,0,0-5.93,5h0c-1.7,0-3.43.53-5.08-.31C341.24,180.51,343.1,172.29,345.44,164.19ZM105.1,277.08h0a5.74,5.74,0,0,1-1.19.25h-2.17L88,277.28,83.4,265.92c-6.82,8.27-15.75,11.85-25.86,13l-10,0a49.85,49.85,0,0,1-17.78-4.72,44.35,44.35,0,0,1-18.86-17.56A60.06,60.06,0,0,1,3.3,235.29a38.93,38.93,0,0,0-.49-4,7.66,7.66,0,0,0-.1-1.79,1.57,1.57,0,0,0-.21-.72l0-11.94a1.56,1.56,0,0,0,.15-.55,7.25,7.25,0,0,0,.15-2.08,64.81,64.81,0,0,1,8.1-26.7,46.29,46.29,0,0,1,7.2-9.56,46.48,46.48,0,0,1,11.1-8.84,46.59,46.59,0,0,1,14.49-4.9c2.64-.49,5.33-.66,8-1h9.16l2.49.09a1.11,1.11,0,0,0,.44.18,4.64,4.64,0,0,0,1.66.14A59.52,59.52,0,0,1,80.7,168c11.91,5.67,18.88,15.41,22.71,27.71.47,1.5.79,3,1.24,4.54s.18,2.45-1.64,2.32a5,5,0,0,0-1.6.1,1.25,1.25,0,0,0-.5.2l-1.65.09a4.48,4.48,0,0,0-1.89.19,1.07,1.07,0,0,0-.27.12l-2,.11a4.24,4.24,0,0,0-1.74.16,1.08,1.08,0,0,0-.39.16l-2,.11a4.92,4.92,0,0,0-1.58.11,1.24,1.24,0,0,0-.51.2l-1.66.09a4.71,4.71,0,0,0-1.94.19,1.53,1.53,0,0,0-.27.11l-2,.13a4.41,4.41,0,0,0-1.77.15,1.25,1.25,0,0,0-.39.15l-2,.12a4.55,4.55,0,0,0-1.69.14,1.12,1.12,0,0,0-.43.16,16.44,16.44,0,0,0-3.48.27c-1.36.39-2,0-2.29-1.81-.74-5.5-2.82-10.47-7.81-13.49a13.78,13.78,0,0,0-19.93,5.74,33.84,33.84,0,0,0-3.61,14.18l0,0a4.45,4.45,0,0,0-.27,2.17c0,1.21-.09,2.42-.13,3.63a54.48,54.48,0,0,0,0,9.81l.11,3.27a6.59,6.59,0,0,0,.15,2,1.33,1.33,0,0,0,.18.49c.54,7.68,2.83,14.47,9.83,18.77a9.72,9.72,0,0,0,5.17,1.65h0a4.53,4.53,0,0,0,2.52.32h.43a5,5,0,0,0,2.58-.31c5.41-.33,11-5.13,12-10.33a9.18,9.18,0,0,1,.28-1.15c.61-1.92.31-2.31-1.67-2.31-4.93,0-9.85-.06-14.78,0-1.44,0-1.85-.31-1.83-1.8.08-7.35,0-14.71,0-22.06h0a7.17,7.17,0,0,1,1-.15h48.25a10.09,10.09,0,0,1,1.62.25Zm54.7.22Zm28.14.07c-.21,0-.44,0-.64,0h-.24q-13.63,0-27.26,0l-12.42-31.9-.39,0a26.56,26.56,0,0,0-7.18.11l0,0a1.61,1.61,0,0,0-.3,1.1c0,.38.06.76.06,1.13,0,7.13,0,14.25,0,21.37l0,6.16v.39c-.07,1.1-.42,1.6-1.56,1.71l-.48,0c-1,0-2,0-2.95,0q-7.58-.11-15.15,0l-4.42,0h0c-1.21-.08-1.68-.53-1.77-1.83q0-8,0-16,0-32.34,0-64.66c0-.69.1-1.37.15-2.06l48.38,0a1.23,1.23,0,0,0,.5.19,4.93,4.93,0,0,0,1.63.11c5.84,1,11.46,2.5,16.21,6.37a22.13,22.13,0,0,1,7.57,12.63c.18.79.34,1.59.51,2.39,0,2.49,0,5,0,7.48-1.1,8.43-5.74,14.26-13.3,17.81-1.4.66-1.29,1.18-.8,2.36,4.57,10.88,9.06,21.79,13.59,32.69.25.62.6,1.21.9,1.81A.74.74,0,0,1,187.94,277.37Zm81.5-.36a1.92,1.92,0,0,1-1.26.34l-.27,0h-5.27l-19.83,0c-1.62-4.74-2.95-9.57-4.18-14.43-.34-1.35-.86-2.09-2.5-2.06-6.33.11-12.66.08-19,0a1.81,1.81,0,0,0-2.13,1.59c-1.4,4.91-2.91,9.78-4.38,14.68a6.58,6.58,0,0,1-1.31.25l-.5,0h-2.39l-.53,0c-1.82,0-3.64,0-5.46,0H193.1c-1.25,0-2.49-.09-3.74-.2C191,271,193,265,194.93,259c1.69-5.34,3.25-10.72,4.91-16.07,2.2-7,4.46-14.08,6.66-21.12q3.83-12.21,7.58-24.44c1.37-4.44,1.36-4.44,6.08-4.44,7,0,14,0,21.06,0a2,2,0,0,1,2.29,1.66q6.27,20.32,12.62,40.62,6.44,20.61,12.92,41.19a4,4,0,0,0,.39.7Zm29.31-29.19c0,9.24-.05,18.47,0,27.71,0,1.06-.19,1.58-.9,1.76a1.61,1.61,0,0,1-.33.06,5.15,5.15,0,0,1-.59,0c-5.55-.06-11.09-.09-16.64,0l-5.14,0H275c-1.09-.09-1.52-.52-1.6-1.72v0q0-8.06,0-16.12,0-32.38,0-64.78c0-.62.1-1.23.15-1.85,19.63,0,39.26,0,58.88,0,1.78,0,2.15.46,2.12,2.16-.12,6,0,11.93,0,17.89-.76,0-1.52.08-2.28.08-10.54,0-21.08,0-31.62,0-1.58,0-2,.42-1.94,2,.13,2.35,0,4.72.06,7.07.07,1.53-.47,3.11.33,4.59,8.32,0,16.65.12,25,.06,1.65,0,2.23.28,2.18,2.1-.15,5.06-.13,10.13,0,15.2,0,1.62-.47,1.92-2,1.9-7.63-.08-15.27,0-22.9,0-.76,0-1.52.09-2.27.14C298.37,246.45,298.76,247.2,298.75,247.82Zm24.07,42.43q-4.14,14.19-8.29,28.38a3.93,3.93,0,0,0,0,1,1.72,1.72,0,0,0,0,2.2c.41,1.44,1.81,1.13,2.79,1.58.46.21,1.44-.45,1.36.66-.07.81-.86.51-1.36.51q-9.13,0-18.31,0c.11-.53.08-1.13.74-1.15,4.27-.08,5.49-3.21,6.44-6.52,2-6.77,4-13.54,5.73-20.37.66-2.54,1.79-5,1.87-7.71,0-1.64-.94-1.94-2.09-2.21-.38-.09-.85.14-1.23,0s-1.22-.25-1.25-.79.64-.78,1.22-.78h17.28c.38,0,.9-.13,1,.46.09.75-.47.7-1,.72A4.93,4.93,0,0,0,322.82,290.25ZM350,320.77c1.45-.3,2.13-1.37,2.89-2.45.32-.45.57-1.66,1.65-.86s0,1.25-.3,1.7a13.51,13.51,0,0,1-6.38,5.63,14.19,14.19,0,0,1-3.74-.05,3.67,3.67,0,0,1-2-4.73c1.37-4.6,2.9-9.16,4.37-13.73.31-.94,1.28-2.21.31-2.78s-2.24.05-3.27,1a33.77,33.77,0,0,0-10.61,18.57c-.28,1.36-.86,1.66-2.09,1.59a34,34,0,0,0-4.16,0c-1.75.11-1.79-.48-1.31-2,2-6.45,3.88-13,5.84-19.44.33-1.09.14-1.84-1-2.26-.56-.65-1.29-.26-1.94-.33-.17-.67-.18-1.19.72-1.34,3.32-.53,6.62-1.13,9.94-1.65,1.07-.17,1.66-.08,1.12,1.41-1,2.77-1.68,5.66-2.55,8.67a2.77,2.77,0,0,0,1.67-1.27c2.37-3.16,4.72-6.36,8.52-8,1.95-.85,3.93-1.42,5.81.1s1.8,3.59,1.24,5.53c-1.24,4.38-2.73,8.69-4.11,13A7.18,7.18,0,0,0,350,320.77Zm21.55-18.64c-1.9,5.95-3.82,11.88-5.68,17.84-.17.52-.39,1.4.22,1.68.4.19,1.11-.15,1.55-.64.78-.87,1.69-1.63,2.4-2.55.43-.55.75-.46,1.2-.18s.36.6.11,1a12.27,12.27,0,0,1-8.05,6.14c-3.79.81-5.93-1.92-4.72-6.2,1.49-5.26,3.26-10.45,4.89-15.67a13.15,13.15,0,0,0,.28-1.39h0c0-.07.07-.13.07-.2s-.07-.09-.12-.09l-3.3-.2c-.07-1.55.68-2.24,2.14-2.87a26.82,26.82,0,0,0,9.52-7.29,2.27,2.27,0,0,1,2.91-.83l-2.41,7.73h3.16L375,301.7C373.88,302.09,372.64,301.43,371.57,302.13ZM399.18,305c-2.22,4.6-6.31,6.72-11,8-.67.18-1.35.29-2,.4-3.51.57-3.51.57-3.26,4.14a4.1,4.1,0,0,0,4.29,3.89c3.08.11,5.53-1.38,7.8-3.19.62-.49,1.13-.92,1.76-.25s-.2,1.09-.55,1.47a19.56,19.56,0,0,1-9.55,5.75l-.86.12a2.33,2.33,0,0,0-1.3.18l-1.56,0a2.31,2.31,0,0,0-1.44-.2l-.66-.1h0c-4.05-.47-5.43-3-5.7-6.25-.55-6.76,2.22-12.17,7.38-16.59a19.4,19.4,0,0,1,11.8-4.77C399.25,297.32,401.32,300.54,399.18,305ZM419,306.13c-1.28-1.86-1.59-2-2.93-.2-2.89,3.79-4.43,8.26-6,12.68-.69,1.93-.65,4.62-2,5.67s-3.85.31-5.86.34c-.4,0-.81,0-1.24-.06,2-7,4.27-13.9,5.85-21,.46-2-.06-2.78-2.23-3.09-.42-.07-1.1.26-1.13-.51s.68-.59,1.1-.66c3.54-.55,7-1.77,10.76-1.76-.76,3.44-2.32,6.52-2.85,9.87h0a3.68,3.68,0,0,0-.63,2.06,2.48,2.48,0,0,0,1-1.52,55.28,55.28,0,0,1,4.58-8.33c1.05-1.59,3.39-2.57,4.79-1.94,1.93.86,2.19,2.61,1.9,4.4a6.84,6.84,0,0,1-1.69,4.12C421.16,307.46,419.89,307.42,419,306.13Zm34.6,12.62c-1.82,2.55-3.76,5-6.87,6.06l-3.31,0a3.27,3.27,0,0,1-2.16-2.19v-2.07a89.45,89.45,0,0,1,3.25-10.76,42.85,42.85,0,0,0,1.31-4.41c.12-.55.84-1.31.05-1.76a2.06,2.06,0,0,0-2.15.06,17.69,17.69,0,0,0-4.35,4.1,32.22,32.22,0,0,0-7.25,14.94c-.23,1.35-.79,2.14-2.44,2-1.9-.19-3.83,0-5.77,0,2.1-7.17,4.14-14.14,6.19-21.11h0c.34-.69.69-1.39,0-2.06l-.73-.58c-.62-.56-1.49-.11-2.15-.53.14-.47.26-1,.84-1.07,3.75-.58,7.44-1.54,11.54-1.79l-3.1,10.42.37.26c1.14-1.49,2.25-3,3.42-4.46,2.29-2.83,4.84-5.32,8.63-6,3.26-.59,5.57,1.78,5,5.06-.9,5.57-3.3,10.69-4.74,16.09-.15.57-.76,1.22-.05,1.63s1.1-.3,1.55-.74a8.12,8.12,0,0,0,1.55-1.9c.25-.46.55-.86,1.31-.38S453.85,318.41,453.61,318.75Zm2.29-40.7h0c-.71,0-1.45-.21-2.08.33l-3.34.08h0c-1.27.08-2.58-.38-3.79.33H429.32c-.93-.64-2-.25-3-.31-5.49-.15-10.89-.74-15.9-3.21-5.88-2.9-8.72-7.86-9.07-14.22-.6-10.95,1.89-21.47,4.89-31.9a136,136,0,0,1,7.18-18.49c4.62-10.21,13.08-14.25,23.59-15.26,1.3-.13,2.6-.32,3.9-.49h0c1.12,0,2.28.31,3.34-.34h14.14c.91.62,1.92.31,2.9.33a39.13,39.13,0,0,1,11.25,2.61c6.67,3,9.22,8.57,9.72,15.44h0c0,1.23,0,2.47,0,3.7-.64,5.56-1.37,11.08-3.36,16.38s-4.84,7.37-10.47,7.38c-10.84,0-21.69.05-32.53,0-1.73,0-2.59.48-2.77,2.18-.16,1.44-.47,2.86-.62,4.31-.6,5.87,3.19,7.63,7.69,8.19a14.59,14.59,0,0,0,1.87,0h0c.64.56,1.41.31,2.13.32h11.33c.73,0,1.49.25,2.13-.31,4.35.07,8.22-1.05,10.79-4.84,1-1.55,2.52-1.18,3.66-.81s.28,1.54.1,2.36c-1.26,6.06-2.57,12.11-4.21,18.09-1.2,4.33-4.23,6.65-8.44,7.61-1.21.28-2.45.39-3.68.58Zm28.53,21.73c-2,6.5-3.77,13.06-5.68,19.58-.17.57-.41,1,.14,1.45s1.1-.14,1.4-.33a6,6,0,0,0,1.89-2.12c.25-.47.57-1,1.45-.44,1,.68,0,.91-.17,1.18-2.08,3.58-4.75,6.32-9.29,6.31a2.6,2.6,0,0,1-2.89-2V321c0-.26.07-.52.11-.78h0c.49-.6.44-1.33.74-2.32a2.49,2.49,0,0,0-1.26,1.39l-3.74,4.06a7.33,7.33,0,0,1-3.86,2.1,4.78,4.78,0,0,1-5.61-4.09c-.09-.54-.11-1.09-.17-1.63h0c0-1.1,0-2.2,0-3.31.62-5.34,3.13-9.83,6.4-13.93a13.5,13.5,0,0,1,5.15-3.86c4.12-1.83,5.62-1.4,8,2.24.58-.77,0-2.17,1.4-2.5a3.74,3.74,0,0,0,2.31-.27,4.34,4.34,0,0,0,2.45,0C484.94,297.82,484.87,298.34,484.43,299.78Zm-3-36.78c-.93-5.76,0-11.4.93-17a152.11,152.11,0,0,1,6.53-25.08,72,72,0,0,1,6.48-14.5c4.09-6.49,10.34-9.47,17.78-10.26h0c.72,0,1.47.2,2.11-.32,12.22,0,24.45,0,36.67-.06,1.81,0,2.26.35,1.73,2.23-1.26,4.5-2.17,9.11-3.41,13.63-.83,3-2.5,4.14-5.62,4.16-5.28,0-10.56,0-15.84,0a12.88,12.88,0,0,0-6.17,1.53c-2.62,1.43-3.52,4.05-4.46,6.54a119,119,0,0,0-5.82,22.84c-.63,3.81,1.57,6.92,5.73,7.87a40.07,40.07,0,0,0,16.68.15,9.68,9.68,0,0,0,6.43-4.51c.56-.85,3.73-1.5,4.47-.93.4.3.16.62.09.93-1.52,6.37-2.66,12.84-4.6,19.1-1.75,5.65-6.27,7.77-11.63,8.58-1.85.28-3.72.37-5.58.55h0c-.85,0-1.75-.3-2.54.31H508.58c-.79-.61-1.69-.28-2.55-.29a39,39,0,0,1-14.73-2.74A15.8,15.8,0,0,1,481.39,263Zm20.1,38.82c-.54.05-1.3-.24-1.29.76-2.09,5.69-3.72,11.53-5.46,17.33-.16.55-.45,1.42.17,1.72s1.29-.2,1.72-.74c.64-.79,1.67-1.21,2-2.28.21-.62.73-.7,1.36-.37s.32.59.12.94c-1.71,3-4.92,6.4-9.87,6.25-1.89-.05-3.86-2.21-3.43-4a78.23,78.23,0,0,1,2.64-9.45c1.22-3.22,1.91-6.58,3.08-9.79-.93-1-2.45.38-3.34-.83-.05-1.52.87-2,2.17-2.61a27.25,27.25,0,0,0,9.08-6.65c.8-.87,1.6-2,3.29-1.43q-1.17,3.75-2.32,7.49a1.3,1.3,0,0,0,.31.24c.87.27,2.13-.52,2.58.42.37.77-.64,1.76-.48,2.76h0A5.55,5.55,0,0,1,501.49,301.82Zm2.05.06a1.19,1.19,0,0,0,.31-.32A1,1,0,0,1,503.54,301.88Zm8.31,19c.68.29,1.55-.23,2-.91.64-.88,1.19-1.81,1.83-2.69.23-.31.58-.6,1.06-.26a.67.67,0,0,1,.34.83c-.82,3.29-6.09,7.43-9.52,7.58a3.44,3.44,0,0,1-3.74-2.43c0-1,0-1.94,0-2.91,1.19-5.37,3.53-10.39,4.86-15.74.71-2.85.73-3.31-2-3.93-.39-.09-.59-.22-.64-.64s.27-.52.62-.59c3.86-.7,7.73-1.4,11.79-1.73-2.29,7.32-4.49,14.41-6.73,21.49C511.51,319.69,511,320.54,511.85,320.9Zm8.41-31.26a4.5,4.5,0,0,1-7.64,1.81c-.49-.57-.52-1.24-.87-1.81l0-2.06a3.83,3.83,0,0,1,3.74-3.33c2.35-.17,3.56.7,4.8,3.33ZM547,308c-1.53,7.32-5.25,13-12.29,16.09a14.67,14.67,0,0,1-8,1.33,7.57,7.57,0,0,1-6.22-7c0-1,0-1.94,0-2.9a18.89,18.89,0,0,1,5.74-12.37c3.9-4,8.6-6.45,14.53-5.21,3.54.73,5.38,3,6.21,6.32C547,305.51,547,306.75,547,308Zm27.67,12.47c.68.41,1.23-.33,1.7-.83a4.19,4.19,0,0,0,1.16-1.39c.19-.51.64-1.37,1.54-.76s.06,1.18-.19,1.55c-1.67,2.49-3.6,4.71-6.55,5.76H569a2.71,2.71,0,0,1-2.2-2.21l0-2.48h0c1.2-4.32,2.42-8.64,4-12.85a4.5,4.5,0,0,0,.27-.78c.16-1,1.21-2.27,0-3s-2.3.29-3.25,1.18c-5.15,4.89-8.8,10.63-10.12,17.69-.34,1.84-1.26,2.51-3.11,2.27a25.92,25.92,0,0,0-3.74,0c-1.17,0-1.66.09-1.13-1.55,2.1-6.4,3.92-12.9,5.79-19.37.3-1,.71-2.16-.67-2.81-.6-.61-1.45-.15-2.11-.48.12-.36-.23-1,.3-1.07,3.94-.52,7.79-1.7,12-1.79-1.06,3.56-2,6.92-3.15,10.65,1.74-1.22,2.43-2.89,3.56-4.17,2.19-2.51,4.32-5.11,7.74-6s4.44-.55,6.3,2.48v3.32q-2.38,7.47-4.77,14.95C574.53,319.36,574,320.11,574.64,320.47ZM609.53,301c-1.74,6-3.41,11.94-5.18,17.89-.23.78-.67,1.63.24,1.94a2.13,2.13,0,0,0,2-.91c.52-.63.71-1.5,1.45-2,.38-.25.69-.41,1.07,0s.26.54.06.89c-2,3.47-4.64,6.2-8.86,6.58-3.07.28-4.67-1.61-3.39-5.63.38-.51.66-1.11.18-1.62-.16-.16-.44.38-.55.69-1.32,1.5-2.61,3-4,4.47a6.64,6.64,0,0,1-4.72,2.09c-3,.08-4.1-1.55-4.8-4.91,0-1.53,0-3,0-4.57,1.42-7,4.37-13.08,10.68-17a9,9,0,0,1,4.62-1.36c2.32-.07,3.34,1.52,4.13,3.38.85-.82.32-2.24,1.55-2.66a9.79,9.79,0,0,0,2.48-.08,3,3,0,0,0,.93-.19C610.42,298.1,610.38,298.09,609.53,301Zm10.83,20.14c1.27.63,2.07-1,2.94-1.83.34-.33.53-.8.84-1.16s.82-.66,1.4-.17-.07.82-.26,1.09c-1.75,2.58-3.73,4.91-6.81,6-1.86.66-3.7.64-5.14-.67s-1.25-3.42-.77-5.07c2.14-7.26,4.49-14.45,6.75-21.67.78-2.5,1.58-5,2.2-7.52.32-1.32.55-2.87-1.73-2.74a1,1,0,0,1-1.07-.71c-.08-.45.13-.75.67-.83,3.74-.53,7.41-1.58,11.41-1.69-3.49,11.57-6.9,22.78-10.23,34C620.28,319.16,619.17,320.58,620.36,321.16Zm16.78-111.77c-1.89,10.78-4.9,21.33-7.36,32-1.95,8.45-4,16.88-6,25.32-.71,3,.13,4.91,2.94,6.23a1.5,1.5,0,0,1,1,2,6.53,6.53,0,0,0-.34,2.23h0l-30,.09c-2.14-.27-4-.88-4.28-3.45h0c0-.95,0-1.91,0-2.86,1.44-6.57,2.84-13.16,4.33-19.72,2.28-10.11,4.65-20.2,6.94-30.31.76-3.32.15-5.09-2-6.29a8.49,8.49,0,0,0-9,1.07c-2.58,2.17-3.28,5.22-4,8.24q-3.48,15-6.83,30.06c-1,4.5-2.4,8.92-2.82,13.55h0a1.63,1.63,0,0,0,0,2.15h0a2.43,2.43,0,0,0,1.69,2.58c2.27.69,2.31,2.21,2.06,4h0c-.54,1.13-1.56.94-2.52.94h-27.9c-3.63-.45-5.06-2.9-4.06-7.29,2.53-11,5.16-22.05,7.7-33.08,3.92-17,7.84-34,11.65-51,.4-1.78,1.21-3.74-.08-5.61-.44-.64-.78-1.41-1.56-1.58-2.39-.55-2.22-2.05-1.54-3.8.15-.38.26-.77.39-1.16h0l28.33-.09h0c4.64.36,6.16,2.35,5.15,6.85-1.65,7.39-3.34,14.77-5,22.16a14.28,14.28,0,0,0-.16,1.86h0a1.12,1.12,0,0,0-.23,1.4c.44-.18.5-.59.64-.94,2.77-5.5,7.09-8.84,13.3-9.59,1-.12,2-.33,3.05-.49h0c.72,0,1.46.2,2.1-.32H623.6c.63.54,1.37.33,2.08.32h0a38,38,0,0,1,4.64,1C636.93,198.18,638.28,202.89,637.14,209.39Z"/><path class="cls-1" d="M225,224.31q-2.28,8.08-4.53,16.17c-.18.66-.94,1.7.7,1.69h12.4c-2.26-8-4.46-15.86-6.79-24.13C226.08,220.46,225.53,222.38,225,224.31Z"/><path class="cls-1" d="M154.59,211.16c-2.56-.48-5.13-.15-7.3-.28s-4.15.08-6,0c-1.35-.08-1.81.33-1.77,1.73.09,3.61,0,7.22,0,10.84s0,3.62,3.61,3.57c4.08-.06,8.2.4,12.22-.7s6.15-3.78,6-7.62A7.78,7.78,0,0,0,154.59,211.16Z"/><path class="cls-1" d="M438.22,226.23c2.36,0,4.72,0,7.08,0s4.72,0,7.08,0c.84,0,1.55-.1,1.77-1a22.64,22.64,0,0,0,.9-5.1c0-3.44-1.73-5.69-4.94-6.22a10.17,10.17,0,0,0-7.75,1.55c-3.28,2.28-4.22,5.84-5.25,9.39C436.77,226,437.08,226.26,438.22,226.23Z"/><path class="cls-1" d="M538,299.39c-1.84-.59-3.23.46-4.17,2a41.25,41.25,0,0,0-6.1,18.36c-.14,1.69.14,3.29,2,3.88s2.89-.58,3.77-1.9a39.3,39.3,0,0,0,6.25-18.49C539.85,301.64,539.8,300,538,299.39Z"/><path class="cls-1" d="M392.38,299.78a2.18,2.18,0,0,0-2.31.53c-3.39,2.83-5,6.73-6.3,10.77-.39,1.18.57.77,1.1.7,4.2-.6,8.4-5.61,8.46-10.09A1.72,1.72,0,0,0,392.38,299.78Z"/><path class="cls-1" d="M474,299.71c-1.52-.54-2.53.56-3.26,1.66a31,31,0,0,0-5.65,15.8c-.05,1,.07,2.17,1.26,2.6a2.34,2.34,0,0,0,2.56-1,25.56,25.56,0,0,0,6.59-14.88c0-.35,0-.7,0-1C475.45,301.62,475.43,300.21,474,299.71Z"/><path class="cls-1" d="M599.4,299.67c-1.34-.37-2.25.49-2.95,1.47a32.9,32.9,0,0,0-5.86,15.3c.06,1.18-.17,2.45,1,3.21a1.88,1.88,0,0,0,2.44-.55c4.29-4.68,7-10.06,6.94-16.57C601,301.4,600.81,300.06,599.4,299.67Z"/><path class="cls-2" d="M630.32,195.9a38,38,0,0,0-4.64-1h0c-.71,0-1.45.22-2.08-.32H612.83c-.64.52-1.38.34-2.1.32h0c-1,.16-2,.37-3.05.49-6.21.75-10.53,4.09-13.3,9.59-.14.35-.2.76-.64.94a1.12,1.12,0,0,1,.23-1.4h0a14.28,14.28,0,0,1,.16-1.86c1.66-7.39,3.35-14.77,5-22.16,1-4.5-.51-6.49-5.15-6.85l-28.33.09h0c-.13.39-.24.78-.39,1.16-.68,1.75-.85,3.25,1.54,3.8.78.17,1.12.94,1.56,1.58,1.29,1.87.48,3.83.08,5.61-3.81,17-7.73,34-11.65,51-2.54,11-5.17,22-7.7,33.08-1,4.39.43,6.84,4.06,7.29h27.9c1,0,2,.19,2.52-.94h0c.25-1.82.21-3.34-2.06-4a2.43,2.43,0,0,1-1.69-2.58h0a1.63,1.63,0,0,1,0-2.15h0c.42-4.63,1.82-9.05,2.82-13.55q3.36-15,6.83-30.06c.71-3,1.41-6.07,4-8.24a8.49,8.49,0,0,1,9-1.07c2.12,1.2,2.73,3,2,6.29-2.29,10.11-4.66,20.2-6.94,30.31-1.49,6.56-2.89,13.15-4.33,19.72,0,.95,0,1.91,0,2.86h0c.29,2.57,2.14,3.18,4.28,3.45l30-.09h0a6.53,6.53,0,0,1,.34-2.23,1.5,1.5,0,0,0-1-2c-2.81-1.32-3.65-3.19-2.94-6.23,2-8.44,4-16.87,6-25.32,2.46-10.66,5.47-21.21,7.36-32C638.28,202.89,636.93,198.18,630.32,195.9Z"/><path class="cls-2" d="M344.54,189.05h0a7,7,0,0,1,5.93-5c4.36-.66,8.72-.09,13.07-.36,1.77-.11,2.13.5,1.72,2.19-2.07,8.54-4.06,17.11-6.05,25.67-3.49,15-7,29.91-10.4,44.89-1.09,4.81-2.54,9.55-3.08,14.48,0,1,0,1.91,0,2.87h0c.55,2.26,1.74,3.13,4.69,3.45q17.82,0,35.64,0c.9,0,1.8-.06,2.7-.09h0a19.47,19.47,0,0,1,.39-2c.49-1.6.33-2.62-1.64-3-1.65-.35-2.52-1.66-3-3.36a9.88,9.88,0,0,1,.27-5.11c3.29-14.6,6.71-29.18,10.11-43.76,2.66-11.43,5.4-22.83,8-34.28.34-1.55.89-1.88,2.29-1.86,5.56,0,11.12,0,16.68,0,4.54,0,7.06-1.81,8.13-6.18,1.75-7.17,3.32-14.38,5-21.58.09-.41.24-.83-.08-1.18-.75-.81-5-.06-5.55,1a7.5,7.5,0,0,1-6.68,4.17,2.81,2.81,0,0,1-2,.36H354.18c-.28,0-.55,0-.83-.05h0c-.62,0-1.25,0-1.86.13-2.56.41-5.19.82-6.05,3.81-2.34,8.1-4.2,16.32-6,24.55C341.11,189.58,342.84,189,344.54,189.05Z"/><path class="cls-2" d="M468,269.86c1.64-6,3-12,4.21-18.09.18-.82,1-2-.1-2.36s-2.61-.74-3.66.81c-2.57,3.79-6.44,4.91-10.79,4.84-.64.56-1.4.32-2.13.31H444.22c-.72,0-1.49.24-2.13-.32h0a14.59,14.59,0,0,1-1.87,0c-4.5-.56-8.29-2.32-7.69-8.19.15-1.45.46-2.87.62-4.31.18-1.7,1-2.19,2.77-2.18,10.84.09,21.69.06,32.53,0,5.63,0,8.51-2.15,10.47-7.38s2.72-10.82,3.36-16.38c0-1.23,0-2.47,0-3.7h0c-.5-6.87-3.05-12.47-9.72-15.44a39.13,39.13,0,0,0-11.25-2.61c-1,0-2,.29-2.9-.33H444.28c-1.06.65-2.22.3-3.34.34h0c-1.3.17-2.6.36-3.9.49-10.51,1-19,5.05-23.59,15.26a136,136,0,0,0-7.18,18.49c-3,10.43-5.49,21-4.89,31.9.35,6.36,3.19,11.32,9.07,14.22,5,2.47,10.41,3.06,15.9,3.21,1,.06,2-.33,3,.31h17.37c1.21-.71,2.52-.25,3.79-.33h0l3.34-.08c.63-.54,1.37-.34,2.08-.33h0c1.23-.19,2.47-.3,3.68-.58C463.79,276.51,466.82,274.19,468,269.86ZM437.11,224.8c1-3.55,2-7.11,5.25-9.39a10.17,10.17,0,0,1,7.75-1.55c3.21.53,4.93,2.78,4.94,6.22a22.64,22.64,0,0,1-.9,5.1c-.22.94-.93,1.06-1.77,1-2.36,0-4.72,0-7.08,0s-4.72,0-7.08,0C437.08,226.26,436.77,226,437.11,224.8Z"/><path class="cls-2" d="M506,278.48c.86,0,1.76-.32,2.55.29h12.77c.79-.61,1.69-.29,2.54-.31h0c1.86-.18,3.73-.27,5.58-.55,5.36-.81,9.88-2.93,11.63-8.58,1.94-6.26,3.08-12.73,4.6-19.1.07-.31.31-.63-.09-.93-.74-.57-3.91.08-4.47.93a9.68,9.68,0,0,1-6.43,4.51A40.07,40.07,0,0,1,518,254.6c-4.16-.95-6.36-4.06-5.73-7.87a119,119,0,0,1,5.82-22.84c.94-2.49,1.84-5.11,4.46-6.54a12.88,12.88,0,0,1,6.17-1.53c5.28,0,10.56,0,15.84,0,3.12,0,4.79-1.13,5.62-4.16,1.24-4.52,2.15-9.13,3.41-13.63.53-1.88.08-2.24-1.73-2.23-12.22.07-24.45.05-36.67.06-.64.52-1.39.34-2.11.32h0c-7.44.79-13.69,3.77-17.78,10.26a72,72,0,0,0-6.48,14.5A152.11,152.11,0,0,0,482.32,246c-1,5.62-1.86,11.26-.93,17a15.8,15.8,0,0,0,9.91,12.74A39,39,0,0,0,506,278.48Z"/><polygon class="cls-3" points="54.21 214.52 54.21 214.52 54.21 214.52 54.21 214.52"/><path class="cls-3" d="M103.31,214.38H55.23a7.17,7.17,0,0,0-1,.15c0,7.35,0,14.71,0,22.06,0,1.49.39,1.83,1.83,1.8,4.93-.09,9.85,0,14.78,0,2,0,2.28.39,1.67,2.31a9.18,9.18,0,0,0-.28,1.15c-1,5.2-6.63,10-12,10.33a5,5,0,0,1-2.58.31h-.43a4.53,4.53,0,0,1-2.52-.32h0a9.72,9.72,0,0,1-5.17-1.65c-7-4.3-9.29-11.09-9.83-18.77a1.33,1.33,0,0,1-.18-.49,6.59,6.59,0,0,1-.15-2l-.11-3.27a54.48,54.48,0,0,1,0-9.81c0-1.21.09-2.42.13-3.63a4.45,4.45,0,0,1,.27-2.17l0,0a33.84,33.84,0,0,1,3.61-14.18,13.78,13.78,0,0,1,19.93-5.74c5,3,7.07,8,7.81,13.49.24,1.77.93,2.2,2.29,1.81a16.44,16.44,0,0,1,3.48-.27,1.12,1.12,0,0,1,.43-.16,4.55,4.55,0,0,1,1.69-.14l2-.12a1.25,1.25,0,0,1,.39-.15,4.41,4.41,0,0,1,1.77-.15l2-.13a1.53,1.53,0,0,1,.27-.11,4.71,4.71,0,0,1,1.94-.19l1.66-.09a1.24,1.24,0,0,1,.51-.2,4.92,4.92,0,0,1,1.58-.11l2-.11a1.08,1.08,0,0,1,.39-.16,4.24,4.24,0,0,1,1.74-.16l2-.11a1.07,1.07,0,0,1,.27-.12,4.48,4.48,0,0,1,1.89-.19l1.65-.09a1.25,1.25,0,0,1,.5-.2,5,5,0,0,1,1.6-.1c1.82.13,2.08-.81,1.64-2.32s-.77-3-1.24-4.54c-3.83-12.3-10.8-22-22.71-27.71a59.52,59.52,0,0,0-15.23-4.42,4.64,4.64,0,0,1-1.66-.14,1.11,1.11,0,0,1-.44-.18l-2.49-.09H51.72c-2.67.32-5.36.49-8,1a46.59,46.59,0,0,0-14.49,4.9,46.48,46.48,0,0,0-11.1,8.84,46.29,46.29,0,0,0-7.2,9.56,64.81,64.81,0,0,0-8.1,26.7,7.25,7.25,0,0,1-.15,2.08,1.56,1.56,0,0,1-.15.55l0,11.94a1.57,1.57,0,0,1,.21.72,7.66,7.66,0,0,1,.1,1.79,38.93,38.93,0,0,1,.49,4,60.06,60.06,0,0,0,7.61,21.33,44.35,44.35,0,0,0,18.86,17.56,49.85,49.85,0,0,0,17.78,4.72l10,0c10.11-1.15,19-4.73,25.86-13L88,277.28l13.71.05h2.17a5.74,5.74,0,0,0,1.19-.25h0V214.63a10.09,10.09,0,0,0-1.62-.25Z"/><path class="cls-3" d="M174.12,242.23c-.49-1.18-.6-1.7.8-2.36,7.56-3.55,12.2-9.38,13.3-17.81,0-2.49,0-5,0-7.48-.17-.8-.33-1.6-.51-2.39a22.13,22.13,0,0,0-7.57-12.63c-4.75-3.87-10.37-5.37-16.21-6.37a4.93,4.93,0,0,1-1.63-.11,1.23,1.23,0,0,1-.5-.19l-48.38,0c0,.69-.15,1.37-.15,2.06q0,32.32,0,64.66,0,8,0,16c.09,1.3.56,1.75,1.77,1.83h0l4.42,0q7.57-.07,15.15,0c1,0,2,0,2.95,0l.48,0c1.14-.11,1.49-.61,1.56-1.71v-.39l0-6.16c0-7.12,0-14.24,0-21.37,0-.37-.06-.75-.06-1.13a1.61,1.61,0,0,1,.3-1.1l0,0a26.56,26.56,0,0,1,7.18-.11l.39,0,12.42,31.9q13.63,0,27.26,0h.24c.2,0,.43,0,.64,0a.74.74,0,0,0,.67-.64c-.3-.6-.65-1.19-.9-1.81C183.18,264,178.69,253.11,174.12,242.23ZM155.36,226.3c-4,1.1-8.14.64-12.22.7-3.61.05-3.61,0-3.61-3.57s.06-7.23,0-10.84c0-1.4.42-1.81,1.77-1.73,1.87.1,3.75,0,6,0s4.74-.2,7.3.28a7.78,7.78,0,0,1,6.77,7.52C161.51,222.52,159.44,225.17,155.36,226.3Z"/><polygon class="cls-3" points="159.8 277.3 159.8 277.3 159.8 277.3 159.8 277.3"/><path class="cls-3" d="M256.13,235.11q-6.34-20.3-12.62-40.62a2,2,0,0,0-2.29-1.66c-7,.09-14,0-21.06,0-4.72,0-4.71,0-6.08,4.44q-3.78,12.23-7.58,24.44c-2.2,7-4.46,14.07-6.66,21.12-1.66,5.35-3.22,10.73-4.91,16.07C193,265,191,271,189.36,277.14c1.25.11,2.49.16,3.74.2h7.35c1.82,0,3.64,0,5.46,0l.53,0h2.39l.5,0a6.58,6.58,0,0,0,1.31-.25c1.47-4.9,3-9.77,4.38-14.68a1.81,1.81,0,0,1,2.13-1.59c6.32.07,12.65.1,19,0,1.64,0,2.16.71,2.5,2.06,1.23,4.86,2.56,9.69,4.18,14.43l19.83,0h5.27l.27,0a1.92,1.92,0,0,0,1.26-.34h0a4,4,0,0,1-.39-.7Q262.59,255.71,256.13,235.11Zm-35,7.06c-1.64,0-.88-1-.7-1.69q2.23-8.08,4.53-16.17c.54-1.93,1.09-3.85,1.78-6.27,2.33,8.27,4.53,16.09,6.79,24.13Z"/><path class="cls-3" d="M299.09,245.93c.75-.05,1.51-.14,2.27-.14,7.63,0,15.27,0,22.9,0,1.51,0,2-.28,2-1.9-.12-5.07-.14-10.14,0-15.2.05-1.82-.53-2.11-2.18-2.1-8.33.06-16.66,0-25-.06-.8-1.48-.26-3.06-.33-4.59-.1-2.35.07-4.72-.06-7.07-.09-1.55.36-2,1.94-2,10.54.07,21.08,0,31.62,0,.76,0,1.52-.05,2.28-.08,0-6-.07-11.93,0-17.89,0-1.7-.34-2.17-2.12-2.16-19.62.07-39.25,0-58.88,0,0,.62-.15,1.23-.15,1.85q0,32.39,0,64.78,0,8.06,0,16.12v0c.08,1.2.51,1.63,1.6,1.72h.16l5.14,0c5.55,0,11.09,0,16.64,0a5.15,5.15,0,0,0,.59,0,1.61,1.61,0,0,0,.33-.06c.71-.18.9-.7.9-1.76-.07-9.24,0-18.47,0-27.71C298.76,247.2,298.37,246.45,299.09,245.93Z"/><path class="cls-3" d="M354.77,304c.56-1.94.6-4-1.24-5.53s-3.86-.95-5.81-.1c-3.8,1.66-6.15,4.86-8.52,8a2.77,2.77,0,0,1-1.67,1.27c.87-3,1.55-5.9,2.55-8.67.54-1.49-.05-1.58-1.12-1.41-3.32.52-6.62,1.12-9.94,1.65-.9.15-.89.67-.72,1.34.65.07,1.38-.32,1.94.33,1.1.42,1.29,1.17,1,2.26-2,6.48-3.8,13-5.84,19.44-.48,1.54-.44,2.13,1.31,2a34,34,0,0,1,4.16,0c1.23.07,1.81-.23,2.09-1.59a33.77,33.77,0,0,1,10.61-18.57c1-.94,2.31-1.57,3.27-1s0,1.84-.31,2.78c-1.47,4.57-3,9.13-4.37,13.73a3.67,3.67,0,0,0,2,4.73,14.19,14.19,0,0,0,3.74.05,13.51,13.51,0,0,0,6.38-5.63c.29-.45,1.28-1,.3-1.7s-1.33.41-1.65.86c-.76,1.08-1.44,2.15-2.89,2.45a7.18,7.18,0,0,1,.64-3.72C352,312.71,353.53,308.4,354.77,304Z"/><path class="cls-3" d="M579.49,303.83v-3.32c-1.86-3-2.79-3.41-6.3-2.48s-5.55,3.5-7.74,6c-1.13,1.28-1.82,2.95-3.56,4.17,1.1-3.73,2.09-7.09,3.15-10.65-4.21.09-8.06,1.27-12,1.79-.53.07-.18.71-.3,1.07.66.33,1.51-.13,2.11.48,1.38.65,1,1.8.67,2.81-1.87,6.47-3.69,13-5.79,19.37-.53,1.64,0,1.58,1.13,1.55a25.92,25.92,0,0,1,3.74,0c1.85.24,2.77-.43,3.11-2.27,1.32-7.06,5-12.8,10.12-17.69.95-.89,2.06-1.86,3.25-1.18s.16,2,0,3a4.5,4.5,0,0,1-.27.78c-1.57,4.21-2.79,8.53-4,12.85h0l0,2.48a2.71,2.71,0,0,0,2.2,2.21h3.31c3-1.05,4.88-3.27,6.55-5.76.25-.37,1.08-1,.19-1.55s-1.35.25-1.54.76a4.19,4.19,0,0,1-1.16,1.39c-.47.5-1,1.24-1.7.83s-.11-1.11.08-1.69Q577.12,311.31,579.49,303.83Z"/><path class="cls-3" d="M453.55,317.46c-.76-.48-1.06-.08-1.31.38a8.12,8.12,0,0,1-1.55,1.9c-.45.44-.94,1.09-1.55.74s-.1-1.06.05-1.63c1.44-5.4,3.84-10.52,4.74-16.09.53-3.28-1.78-5.65-5-5.06-3.79.69-6.34,3.18-8.63,6-1.17,1.46-2.28,3-3.42,4.46l-.37-.26,3.1-10.42c-4.1.25-7.79,1.21-11.54,1.79-.58.09-.7.6-.84,1.07.66.42,1.53,0,2.15.53l.73.58c.72.67.37,1.37,0,2.06h0c-2.05,7-4.09,13.94-6.19,21.11,1.94,0,3.87-.15,5.77,0,1.65.17,2.21-.62,2.44-2a32.22,32.22,0,0,1,7.25-14.94,17.69,17.69,0,0,1,4.35-4.1,2.06,2.06,0,0,1,2.15-.06c.79.45.07,1.21-.05,1.76a42.85,42.85,0,0,1-1.31,4.41,89.45,89.45,0,0,0-3.25,10.76v2.07a3.27,3.27,0,0,0,2.16,2.19l3.31,0c3.11-1.09,5.05-3.51,6.87-6.06C453.85,318.41,454.38,318,453.55,317.46Z"/><path class="cls-3" d="M483.23,298a4.34,4.34,0,0,1-2.45,0,3.74,3.74,0,0,1-2.31.27c-1.37.33-.82,1.73-1.4,2.5-2.39-3.64-3.89-4.07-8-2.24a13.5,13.5,0,0,0-5.15,3.86c-3.27,4.1-5.78,8.59-6.4,13.93,0,1.11,0,2.21,0,3.31h0c.06.54.08,1.09.17,1.63a4.78,4.78,0,0,0,5.61,4.09,7.33,7.33,0,0,0,3.86-2.1l3.74-4.06a2.49,2.49,0,0,1,1.26-1.39c-.3,1-.25,1.72-.74,2.32h0c0,.26-.07.52-.11.78v2.48a2.6,2.6,0,0,0,2.89,2c4.54,0,7.21-2.73,9.29-6.31.15-.27,1.21-.5.17-1.18-.88-.58-1.2,0-1.45.44a6,6,0,0,1-1.89,2.12c-.3.19-.76.89-1.4.33s-.31-.88-.14-1.45c1.91-6.52,3.7-13.08,5.68-19.58C484.87,298.34,484.94,297.82,483.23,298Zm-7.69,5.88A25.56,25.56,0,0,1,469,318.79a2.34,2.34,0,0,1-2.56,1c-1.19-.43-1.31-1.56-1.26-2.6a31,31,0,0,1,5.65-15.8c.73-1.1,1.74-2.2,3.26-1.66s1.41,1.91,1.49,3.16C475.56,303.21,475.54,303.56,475.54,303.91Z"/><path class="cls-3" d="M607.44,298a3,3,0,0,1-.93.19,9.79,9.79,0,0,1-2.48.08c-1.23.42-.7,1.84-1.55,2.66-.79-1.86-1.81-3.45-4.13-3.38a9,9,0,0,0-4.62,1.36c-6.31,3.93-9.26,10-10.68,17,0,1.52,0,3,0,4.57.7,3.36,1.84,5,4.8,4.91a6.64,6.64,0,0,0,4.72-2.09c1.38-1.44,2.67-3,4-4.47.11-.31.39-.85.55-.69.48.51.2,1.11-.18,1.62-1.28,4,.32,5.91,3.39,5.63,4.22-.38,6.85-3.11,8.86-6.58.2-.35.24-.58-.06-.89s-.69-.25-1.07,0c-.74.48-.93,1.35-1.45,2a2.13,2.13,0,0,1-2,.91c-.91-.31-.47-1.16-.24-1.94,1.77-6,3.44-11.93,5.18-17.89C610.38,298.09,610.42,298.1,607.44,298ZM594.06,319.1a1.88,1.88,0,0,1-2.44.55c-1.2-.76-1-2-1-3.21a32.9,32.9,0,0,1,5.86-15.3c.7-1,1.61-1.84,2.95-1.47s1.58,1.73,1.6,2.86C601.07,309,598.35,314.42,594.06,319.1Z"/><path class="cls-3" d="M328.66,285.6c-.08-.59-.6-.46-1-.46H310.4c-.58,0-1.26.11-1.22.78s.77.66,1.25.79.85-.12,1.23,0c1.15.27,2.13.57,2.09,2.21-.08,2.73-1.21,5.17-1.87,7.71-1.78,6.83-3.77,13.6-5.73,20.37-.95,3.31-2.17,6.44-6.44,6.52-.66,0-.63.62-.74,1.15q9.18,0,18.31,0c.5,0,1.29.3,1.36-.51.08-1.11-.9-.45-1.36-.66-1-.45-2.38-.14-2.79-1.58a1.72,1.72,0,0,1,0-2.2,3.93,3.93,0,0,1,0-1q4.14-14.19,8.29-28.38a4.93,4.93,0,0,1,4.88-3.93C328.19,286.3,328.75,286.35,328.66,285.6Z"/><path class="cls-3" d="M540.77,298c-5.93-1.24-10.63,1.23-14.53,5.21a18.89,18.89,0,0,0-5.74,12.37c0,1,0,1.93,0,2.9a7.57,7.57,0,0,0,6.22,7,14.67,14.67,0,0,0,8-1.33c7-3.09,10.76-8.77,12.29-16.09,0-1.25,0-2.49,0-3.73C546.15,301,544.31,298.68,540.77,298Zm-1,5.28a39.3,39.3,0,0,1-6.25,18.49c-.88,1.32-2,2.46-3.77,1.9s-2.16-2.19-2-3.88a41.25,41.25,0,0,1,6.1-18.36c.94-1.53,2.33-2.58,4.17-2S539.85,301.64,539.8,303.23Z"/><path class="cls-3" d="M394.34,297.61a19.4,19.4,0,0,0-11.8,4.77c-5.16,4.42-7.93,9.83-7.38,16.59.27,3.3,1.65,5.78,5.7,6.25h0l.66.1a2.31,2.31,0,0,1,1.44.2l1.56,0a2.33,2.33,0,0,1,1.3-.18l.86-.12a19.56,19.56,0,0,0,9.55-5.75c.35-.38,1.25-.73.55-1.47s-1.14-.24-1.76.25c-2.27,1.81-4.72,3.3-7.8,3.19a4.1,4.1,0,0,1-4.29-3.89c-.25-3.57-.25-3.57,3.26-4.14.67-.11,1.35-.22,2-.4,4.66-1.27,8.75-3.39,11-8S399.25,297.32,394.34,297.61Zm-1,4.08c-.06,4.48-4.26,9.49-8.46,10.09-.53.07-1.49.48-1.1-.7,1.32-4,2.91-7.94,6.3-10.77a2.18,2.18,0,0,1,2.31-.53A1.72,1.72,0,0,1,393.33,301.69Z"/><path class="cls-3" d="M630.79,284.21c-4,.11-7.67,1.16-11.41,1.69-.54.08-.75.38-.67.83a1,1,0,0,0,1.07.71c2.28-.13,2.05,1.42,1.73,2.74-.62,2.53-1.42,5-2.2,7.52-2.26,7.22-4.61,14.41-6.75,21.67-.48,1.65-.74,3.71.77,5.07s3.28,1.33,5.14.67c3.08-1.11,5.06-3.44,6.81-6,.19-.27,1-.5.26-1.09s-1-.29-1.4.17-.5.83-.84,1.16c-.87.84-1.67,2.46-2.94,1.83s-.08-2,.2-2.94C623.89,307,627.3,295.78,630.79,284.21Z"/><path class="cls-3" d="M372.58,298.43,375,290.7a2.27,2.27,0,0,0-2.91.83,26.82,26.82,0,0,1-9.52,7.29c-1.46.63-2.21,1.32-2.14,2.87l3.3.2s.12.06.12.09,0,.13-.07.2h0a13.15,13.15,0,0,1-.28,1.39c-1.63,5.22-3.4,10.41-4.89,15.67-1.21,4.28.93,7,4.72,6.2a12.27,12.27,0,0,0,8.05-6.14c.25-.42.35-.72-.11-1s-.77-.37-1.2.18c-.71.92-1.62,1.68-2.4,2.55-.44.49-1.15.83-1.55.64-.61-.28-.39-1.16-.22-1.68,1.86-6,3.78-11.89,5.68-17.84,1.07-.7,2.31,0,3.42-.43l.75-3.27Z"/><path class="cls-3" d="M503.85,301.56c-.16-1,.85-2,.48-2.76-.45-.94-1.71-.15-2.58-.42a1.3,1.3,0,0,1-.31-.24q1.15-3.74,2.32-7.49c-1.69-.58-2.49.56-3.29,1.43a27.25,27.25,0,0,1-9.08,6.65c-1.3.57-2.22,1.09-2.17,2.61.89,1.21,2.41-.17,3.34.83-1.17,3.21-1.86,6.57-3.08,9.79a78.23,78.23,0,0,0-2.64,9.45c-.43,1.81,1.54,4,3.43,4,5,.15,8.16-3.26,9.87-6.25.2-.35.48-.63-.12-.94s-1.15-.25-1.36.37c-.36,1.07-1.39,1.49-2,2.28-.43.54-1.12,1-1.72.74s-.33-1.17-.17-1.72c1.74-5.8,3.37-11.64,5.46-17.33,0-1,.75-.71,1.29-.76a5.55,5.55,0,0,0,2.36-.26Z"/><path class="cls-3" d="M503.54,301.88a1,1,0,0,0,.31-.32A1.19,1.19,0,0,1,503.54,301.88Z"/><path class="cls-3" d="M422.22,297.72c-1.4-.63-3.74.35-4.79,1.94a55.28,55.28,0,0,0-4.58,8.33,2.48,2.48,0,0,1-1,1.52,3.68,3.68,0,0,1,.63-2.06h0c.53-3.35,2.09-6.43,2.85-9.87-3.78,0-7.22,1.21-10.76,1.76-.42.07-1.12-.05-1.1.66s.71.44,1.13.51c2.17.31,2.69,1.05,2.23,3.09-1.58,7.07-3.86,14-5.85,21,.43,0,.84.07,1.24.06,2,0,4.61.66,5.86-.34s1.28-3.74,2-5.67c1.59-4.42,3.13-8.89,6-12.68,1.34-1.76,1.65-1.66,2.93.2.88,1.29,2.15,1.33,3.42.11a6.84,6.84,0,0,0,1.69-4.12C424.41,300.33,424.15,298.58,422.22,297.72Z"/><path class="cls-3" d="M518.47,297.48c-4.06.33-7.93,1-11.79,1.73-.35.07-.67.08-.62.59s.25.55.64.64c2.73.62,2.71,1.08,2,3.93-1.33,5.35-3.67,10.37-4.86,15.74,0,1,0,1.94,0,2.91a3.44,3.44,0,0,0,3.74,2.43c3.43-.15,8.7-4.29,9.52-7.58a.67.67,0,0,0-.34-.83c-.48-.34-.83-.05-1.06.26-.64.88-1.19,1.81-1.83,2.69-.49.68-1.36,1.2-2,.91-.86-.36-.34-1.21-.11-1.93C514,311.89,516.18,304.8,518.47,297.48Z"/><path class="cls-4" d="M515.47,284.25a3.83,3.83,0,0,0-3.74,3.33l0,2.06c.35.57.38,1.24.87,1.81a4.5,4.5,0,0,0,7.64-1.81v-2.06C519,285,517.82,284.08,515.47,284.25Z"/></g></g></svg>