<?xml version="1.0" encoding="utf-8"?>
<!-- Generator: Adobe Illustrator 22.1.0, SVG Export Plug-In . SVG Version: 6.00 Build 0)  -->
<svg version="1.1" id="Layer_1" xmlns="http://www.w3.org/2000/svg" xmlns:xlink="http://www.w3.org/1999/xlink" x="0px" y="0px"
	 viewBox="0 0 640 480" style="enable-background:new 0 0 640 480;" xml:space="preserve">
<style type="text/css">
	.st0{fill:#074181;}
</style>
<g>
	<path class="st0" d="M0,228.2c1.2-3.9,2.2-8.1,3.7-12.1c9.4-24.9,27.8-38.4,53.7-42.1c13.3-2,26.1,0,38.2,5.9c2,1,3.4,2,5.7,3.4
		c-2.5,4.9-4.9,9.6-6.9,13.8c-7.1-1.7-13.8-4.2-20.7-5.2c-23.2-3-41.6,9.6-46.8,32.5c-4.4,19-2.5,36.9,11.6,51.7
		c11.3,12.1,25.4,14.8,40.9,10.6c3-0.7,3.9-2.2,3.9-5.4c-0.2-11.8,0-23.4,0-35.5c7.9,0,15.3,0,22.9,0c0.2,1.2,0.5,2.2,0.5,3.4
		c0,15.3,0,30.3,0,45.6c0,1.5-1.2,3.9-2.5,4.4c-17,6.2-34.2,9.4-52.2,5.7c-27.1-5.4-45.3-23.9-50.7-51c-0.2-1.2-0.7-2.2-1-3.4
		C0,243.2,0,235.6,0,228.2z"/>
	<path class="st0" d="M190.1,247.7c9.6,18,19.5,35.7,29.3,54.2c-8.4,1.7-16.3,3.2-23.9,4.4c-1,0.2-3-1.7-3.4-3
		c-6.9-14-13.5-28.1-20.2-42.4c-2.2-5.2-4.4-9.9-11.6-7.4c0-5.9,0-11.1,0-16.7c3-0.5,6.2-0.5,9.1-1.2c17-3.4,20.7-24.1,13.8-34
		c-2.5-3.4-7.1-6.4-11.3-7.1c-5.9-1.2-12.6-0.2-19.2-0.2c0,36.7,0,73.4,0,110.3c-8.4,0-16.3,0-24.6,0c0-42.6,0-84.7,0-127.6
		c7.4,0,14.5,0,21.9,0c10.6,0.2,21.2-0.2,31.5,1c13.1,1.5,23.9,7.4,27.8,20.7c4.4,14.3,2,27.8-7.9,39.2
		C198.3,241.3,194.1,244,190.1,247.7z"/>
	<path class="st0" d="M475.3,239.5c-0.5,15-3.7,29.6-12.6,42.6c-23.6,34.2-75.6,32.5-95.8-3.9c-13.8-24.6-15-50.2-1-75.4
		c11.6-20.7,30-30.8,53.9-29.3c24.4,1.7,40.6,15.3,50.2,37.2C473.8,219.8,475.3,229.4,475.3,239.5z M381.5,240.8
		c0.5,4.2,1,10.3,2.2,16.3c1,4.9,2.7,9.9,4.9,14.5C394,283.1,402.9,290,416,290c13.3,0,22.2-7.1,27.8-18.7
		c4.2-8.9,5.9-18.2,6.4-27.8c0.7-13.8-1-27.1-8.4-38.9c-12.6-20.2-39.9-19.7-52,0.7C383.5,215.4,382,227,381.5,240.8z"/>
	<path class="st0" d="M636.4,185.4c-3,4.7-5.7,8.6-7.9,12.1c-6.2-2.2-11.8-4.7-17.5-5.9c-8.9-1.7-16.3,3.2-18,10.8
		c-1.2,5.4,1.2,9.9,4.9,13.3c6.4,6.2,13.3,11.8,19.7,17.7c4.7,4.2,9.4,8.6,13.3,13.3c17,20.7,9.1,47-16,55.7
		c-16.7,5.7-39.4,1.5-51.2-10.1c2.7-4.4,5.4-8.9,7.6-12.6c7.4,3,14,6.6,21.2,8.4c11.3,2.5,20.9-3.4,22.7-13.1c1.5-7.4-1-13.8-5.9-19
		c-4.4-4.4-9.6-8.6-14.5-12.8c-5.2-4.4-10.6-8.6-15.3-13.3c-19.2-19-12.8-45.6,13.1-53.2C608.1,172.1,622.8,174.5,636.4,185.4z"/>
	<path class="st0" d="M285.4,302.6c0-42.1,0-83.5,0-125.4c21.7,0,43.1,0,65,0c0,4.9,0,9.9,0,15.3c-13.5,0-26.6,0-40.6,0
		c0,2.5,0,4.4,0,6.2c0,9.9,0,19.9,0,29.8c0,5.9,0,5.9,6.2,5.9c7.4,0,15,0,22.9,0c0,5.2,0,10.3,0,15.8c-9.4,0-19,0-29.1,0
		c0,17.7,0,35,0,52.2C301.2,302.6,293.6,302.6,285.4,302.6z"/>
	<path class="st0" d="M549.9,302.6c-19,0-37.7,0-56.6,0c0-41.6,0-83.5,0-125.4c7.9,0,15.8,0,24.1,0c0,35.5,0,70.9,0,106.9
		c11.1,0,21.7,0,32.5,0C549.9,290.5,549.9,296.4,549.9,302.6z"/>
	<path class="st0" d="M234,177c7.9,0,15.8,0,23.9,0c0,41.9,0,83.5,0,125.6c-7.9,0-15.8,0-23.9,0C234,260.7,234,219.1,234,177z"/>
</g>
</svg>
