<?xml version="1.0" encoding="utf-8"?>
<!-- Generator: Adobe Illustrator 21.1.0, SVG Export Plug-In . SVG Version: 6.00 Build 0)  -->
<svg version="1.1" id="Layer_1" xmlns="http://www.w3.org/2000/svg" xmlns:xlink="http://www.w3.org/1999/xlink" x="0px" y="0px"
	 viewBox="0 0 640 480" style="enable-background:new 0 0 640 480;" xml:space="preserve">
<style type="text/css">
	.st0{fill:#FFFFFF;}
	.st1{fill:#005CA2;}
	.st2{clip-path:url(#SVGID_2_);}
	.st3{fill:url(#SVGID_3_);}
	.st4{fill:#D52330;}
</style>
<title>danone</title>
<path class="st0" d="M27.4,169.7V296c0.4,8.1,5.8,15.2,13.6,17.6c85.2,40.4,177.9,62.6,272.2,65.1c100.2-1.5,198.8-25,289-68.7
	c5.8-3.6,9.2-10.1,8.9-16.9V175.9c1.4-16.6-9.4-23.6-23.4-29.3c-93.3-38.4-195.5-45.8-293.8-45.8c-86.7,0.7-172.6,17.3-253.5,48.8
	C32.3,153,27.2,160.9,27.4,169.7"/>
<path class="st1" d="M36,176.6v113.7c0.5,7.6,5.9,14,13.3,15.9c83.4,36.5,173.1,56.4,264.2,58.6c96.8-1.3,192.4-22.4,280.7-62
	c5.5-3,8.9-8.9,8.7-15.2V182.3c1.2-14.9-9-21.2-22.5-26.4c-90.8-34.6-190.2-41.1-285.7-41.2c-83.9,0.6-167.1,15.5-246,44
	C41,161.3,35.9,168.6,36,176.6"/>
<g>
	<defs>
		<path id="SVGID_1_" d="M99,265.8c1,0.7,2,1.2,3.2,1.7c84.1,32.2,125.7,55.3,211.3,75.1c95.5-1,146.5-38.3,233.4-76.2
			c0-0.4,0-0.8,0-1.1l39.3-83.5v-0.8c0.3-1,0.3-2.1,0-3.2c-3.3-2.9-7.1-5.1-11.3-6.5c-89.3-33.7-186.8-40.1-280.3-40.1
			c-82.1,0.6-163.4,15.2-240.6,43c-1.1,0.4-1.7,1.5-1.7,2.6L99,265.8z"/>
	</defs>
	<clipPath id="SVGID_2_">
		<use xlink:href="#SVGID_1_"  style="overflow:visible;"/>
	</clipPath>
	<g class="st2">
		
			<radialGradient id="SVGID_3_" cx="8.2048" cy="474.1992" r="3.2499" fx="8.2048" fy="475.8303" gradientTransform="matrix(51.1287 0 0 -56.9168 -99.3633 27309.0156)" gradientUnits="userSpaceOnUse">
			<stop  offset="0.23" style="stop-color:#FFFFFF"/>
			<stop  offset="1" style="stop-color:#1B5CA4"/>
		</radialGradient>
		<path class="st3" d="M36,114.7H603v250.2H36V114.7z"/>
	</g>
</g>
<path class="st4" d="M487.1,290.4c6.8-4.6,1-13-6.5-9.2c-105.6,51.6-211,52.1-318.3,0.8c-17-8.1-15.3,5-8.2,9.6
	C274.8,370.4,384.4,361.8,487.1,290.4"/>
<g>
	<path class="st0" d="M156.3,219.4c1-14.4-6.1-28.2-18.4-35.7c-12.1-6.1-25.6-8.7-39.1-7.4c-6.6,0.3-13.2,0.9-19.7,1.8
		c3.9,10.6,1.7,53.2,1.7,68.4c0,12.6-0.7,19.4-0.7,19.4c7.4,1.4,15,2.1,22.5,2c13.5,0.2,26.6-4,37.4-12.1
		C151,246.9,157,233.4,156.3,219.4z M138.3,223.1c0.1,10.3-5.7,19.7-14.9,24.2c-7.4,3.4-15.6,4.7-23.7,3.6V193h0.1h7.7
		c8.5-0.2,16.7,2.8,23.1,8.3C136.2,207.1,139,215.1,138.3,223.1z"/>
	<path class="st0" d="M463.7,220.1c-10.9-15.8-24.2-29.9-39.4-41.6h-15.8v86.1h18.4v-58.6c17.9,15.7,31.2,36,38.4,58.7h17.4v-86.2
		h-18.9V220.1z"/>
	<path class="st0" d="M566.6,213.4c-0.5-9.4-3.8-18.4-9.6-25.8c-7.2-8.1-17.8-12.3-28.5-11.3c-11.3-0.3-22.2,4.3-29.9,12.6
		c-8.2,9.8-12.2,22.5-11.3,35.3c-0.6,12.8,4.2,25.3,13.3,34.4c7.1,6.6,16.6,10.1,26.3,9.6c15.2,0.1,29.5-7.3,38.2-19.7l-0.1-0.3
		l-18.1-4.4c-4.6,4.7-11,7.3-17.6,7.1c-12.7,0.3-23.2-9.8-23.6-22.5h60C566.6,223.4,566.9,218.4,566.6,213.4z M548.9,213.5h-42.6
		c1.2-11.7,10.8-20.8,22.5-21.3c11.2,0.1,20.2,9.3,20.1,20.5C549,213,549,213.2,548.9,213.5z"/>
	<path class="st0" d="M185.2,178.6c-17.4,18.5-28.1,47.6-32.6,86.1h18.9c0.5-6.3,1.3-12.7,2.4-18.9h39.7c1.1,6,1.8,12.3,2.4,18.9
		h19.7c-3.6-37.9-14.5-66.5-32.2-86.1H185.2z M178.1,229.8c3.5-12.5,8.8-24.3,15.9-35.2c7.1,10.8,12.4,22.7,15.9,35.2H178.1z"/>
	<path class="st0" d="M294.3,220.1c-10.9-15.8-24.2-29.9-39.4-41.6H239v86.1h18.8v-58.6c17.9,15.7,31.2,36,38.4,58.7h16.8v-86.2
		h-18.8V220.1z"/>
	<path class="st0" d="M360.7,176c-24.6,0.9-43.9,21.4-43.4,46c-0.1,1.5-0.1,3,0,4.4c1.2,24,21.7,42.5,45.7,41.2
		c24-1.2,42.5-21.7,41.2-45.7C404.7,197.3,385.4,176.8,360.7,176z M363.2,250.3c-14.3,1.3-27-9.2-28.3-23.5c-0.2-1.6-0.2-3.2,0-4.8
		c-0.8-15.2,10.8-28.1,25.9-29h0c15.2,0.8,26.8,13.8,25.9,29C388,236.3,377.5,249,363.2,250.3z"/>
	<polygon class="st0" points="360.7,176 360.7,176 360.7,176 	"/>
</g>
</svg>
