<?xml version="1.0" encoding="utf-8"?>
<!-- Generator: Adobe Illustrator 22.1.0, SVG Export Plug-In . SVG Version: 6.00 Build 0)  -->
<svg version="1.1" id="Layer_2_1_" xmlns="http://www.w3.org/2000/svg" xmlns:xlink="http://www.w3.org/1999/xlink" x="0px" y="0px"
	 viewBox="0 0 640 480" style="enable-background:new 0 0 640 480;" xml:space="preserve">
<style type="text/css">
	.st0{fill:#0F593B;}
</style>
<g>
	<g>
		<path class="st0" d="M637.8,113.6c-3,10.1-5.9,19.6-8.7,29.1c-5.1,17.3-10.2,34.7-15.3,52c-8,26.7-16,53.3-24,80.1
			c-4.2,14.1-8,28.4-12.7,42.4c-4.5,13.6-10,26.9-22.1,35.7c-8.8,6.4-18.6,10.4-29.7,10.6c-9.3,0.2-18.6,0.1-27.9,0.2
			c-2.2,0.1-3.3-0.6-4-3c-6.1-22.3-12.2-44.7-18.4-67c-6.3-22.7-12.7-45.4-18.9-68.1c-6.7-24.4-13.4-48.8-20-73.3
			c-0.3-1-0.4-2-0.9-2.9c-0.7-1.2-1.6-2.3-2.4-3.4c-1.1,1.1-3,2.1-3.4,3.5c-4.2,13.9-8.2,27.8-12.2,41.7
			c-6.1,21.2-12.2,42.5-18.3,63.8c-4.3,15.3-8.5,30.7-12.9,46c-3,10.2-5.9,20.5-9.6,30.5c-3.2,8.8-8.1,16.8-15.9,22.4
			c-9.1,6.7-19.6,9.6-30.8,9.6c-8.8,0.1-17.6-0.1-26.4,0.1c-2.1,0.1-3-0.8-3.4-2.7c-5.2-20.5-10.3-41-15.7-61.4
			c-6.7-25.7-13.7-51.4-20.6-77.1c-3.6-13.3-7.4-26.5-11.1-39.7c-5.2-18.4-15.9-32.2-33.2-40.6c-26.1-12.7-53.8-16.9-82.5-12.9
			c-21.1,2.9-39.6,12-53.6,28.2c-6.2,7.1-11,15.6-15.4,24c-9.5,18-12.7,37.6-12.6,57.7c0.2,23.7,5.1,46.3,18.1,66.6
			c5.5,8.7,12.6,15.8,20.6,22.3c21,17,45.5,20.2,71.2,19.2c11.4-0.5,22.1-3.1,32.6-7.3c2.8-1.1,3.9-2.7,3.8-5.7
			c-0.1-15.6-0.1-31.1,0.1-46.7c0.1-3.5-1.7-3.9-4.5-3.9c-13.1,0.1-26.3,0.1-40.7,0.1c3.2-4.9,6-9,8.8-13.1
			c8.1-12.3,21-14.7,34.1-15.2c15.3-0.6,30.6-0.1,45.9-0.2c2.8,0,3.8,0.7,3.8,3.7c-0.1,31.1-0.1,62.2,0,93.3c0,2.4-1,3.3-3.1,4
			c-16.1,5.7-32.8,9.1-49.7,11.9c-22.6,3.7-45.5,4.3-68.2,2.9C97.3,369,69,360.5,45.3,340.5c-16.5-13.9-27.9-31.5-34.7-52.1
			c-3.7-11.3-6.8-22.6-7.8-34.5c-1.5-17.8,0.2-35.2,5-52.5c5.7-20.6,16.2-38.4,30.5-54c9.2-10,20.4-17.6,32.1-24.4
			c11.5-6.7,24-11.2,37.1-13.7c2-0.4,4-0.5,6.1-0.5c27.9-0.1,55.8,0.2,83.8-0.2c10-0.1,19.2,2.5,28.3,5.7
			c12.7,4.4,24.3,11.3,34.5,20c10.8,9.2,18.7,20.9,24.5,33.7c6.3,13.7,12.2,27.8,17,42.1c6.9,20.8,12.7,41.9,18.7,62.9
			c5.3,18.6,10.2,37.3,15.4,55.9c0.3,1,1.4,1.8,2.1,2.7c0.9-0.7,2.2-1.4,2.7-2.3c1.5-3.9,2.9-7.8,4-11.8
			c6.3-22.5,12.4-45.1,18.8-67.7c7.1-25.1,14.1-50.2,21.6-75.2c3.2-10.8,6.6-21.7,11.2-32c7.9-17.6,22.3-27,41.5-28.5
			c9.7-0.7,19.4-0.4,29-0.6c2.7-0.1,3.7,0.8,4.3,3.4c4.3,16.2,8.9,32.4,13.3,48.6c6.6,24.4,13.2,48.8,19.8,73.3
			c8.3,30.6,16.6,61.2,25,91.7c0.4,1.4,1.7,2.5,2.7,3.7c1.5-1.2,3.9-2.1,4.4-3.7c2.3-6.6,4.1-13.4,5.9-20.1
			c4.8-17.4,9.6-34.8,14.4-52.2c6.8-24.8,13.5-49.6,20.4-74.4c6.2-22.4,12.4-44.9,18.7-67.3c0.3-1.2,2.1-2.8,3.2-2.9
			C611.4,113.5,624.3,113.6,637.8,113.6z"/>
	</g>
</g>
</svg>
