<?xml version="1.0" encoding="utf-8"?>
<!-- Generator: Adobe Illustrator 21.0.2, SVG Export Plug-In . SVG Version: 6.00 Build 0)  -->
<svg version="1.1" id="Layer_3" xmlns="http://www.w3.org/2000/svg" xmlns:xlink="http://www.w3.org/1999/xlink" x="0px" y="0px"
	 viewBox="0 0 640 480" style="enable-background:new 0 0 640 480;" xml:space="preserve">
<style type="text/css">
	.st0{fill:#1879BF;}
	.st1{fill:#FFFFFF;}
</style>
<g>
	<path class="st0" d="M318.7,0.5C186.5,0.5,79.2,107.7,79.2,240c0,132.3,107.2,239.5,239.5,239.5S558.2,372.3,558.2,240
		C558.2,107.7,451,0.5,318.7,0.5z M233.5,83.1h52v107.2h0.7c14.8-18.9,32.3-28.3,52.4-28.3c15.8,0,29.8,4.9,42.1,14.6
		c11.9,10.3,18.1,27.1,18.6,50.3v108.5h-52v-97.1c-0.5-24.7-9.4-37.1-26.9-37.1c-11.6-0.2-23.2,8.3-34.9,25.8v108.5h-52V83.1z
		 M399.3,399H233.7v-31.7h165.5V399L399.3,399L399.3,399z"/>
	<path class="st1" d="M285.4,226.9c11.7-17.4,23.3-26,34.9-25.8c17.4,0,26.4,12.4,26.9,37.1v97.1h52V226.9
		c-0.5-23.2-6.7-39.9-18.6-50.3c-12.3-9.7-26.3-14.6-42.1-14.6c-20.1,0-37.6,9.4-52.4,28.3h-0.7h0h0V83.1h-52v252.2h52V226.9z"/>
	<rect x="233.7" y="367.2" class="st1" width="165.5" height="31.7"/>
	<polygon class="st0" points="534.9,81.9 537.3,81.9 537.3,67.2 542.9,67.2 542.9,65.1 529.3,65.1 529.3,67.2 534.9,67.2 	"/>
	<polygon class="st0" points="558.6,65.1 553.2,72 547.7,65.1 545.5,65.1 545.5,81.9 547.9,81.9 547.9,68.8 547.9,68.8 553,75.3 
		553.3,75.3 558.4,68.8 558.4,68.8 558.4,81.9 560.8,81.9 560.8,65.1 	"/>
</g>
</svg>
