<?xml version="1.0" encoding="utf-8"?>
<!-- Generator: Adobe Illustrator 21.1.0, SVG Export Plug-In . SVG Version: 6.00 Build 0)  -->
<svg version="1.1" baseProfile="tiny" xmlns="http://www.w3.org/2000/svg" xmlns:xlink="http://www.w3.org/1999/xlink" x="0px"
	 y="0px" viewBox="0 0 640 480" overflow="scroll" xml:space="preserve">
<g id="Layer_3">
	<g>
		<g>
			<path fill="#020100" d="M18.7,157.9c41.9,0,83.7,0,125.6,0c-0.1-11.4-9.3-20.6-24.4-24.5c0-19.1,0-38.3,0-57.7
				c36-1.8,71.4-6.8,105.8-17.7c34.5-10.9,66.1-27.2,95.5-48.6c2.1,1.6,4.2,3.1,6.3,4.7c25.9,18.7,54.6,31.8,85,41.4
				c25,7.9,50.6,13.2,76.5,16.7c10.6,1.4,21.2,2.4,31.9,3.6c0,19.1,0,38.3,0,57.6c-8.6,0.1-15.3,4.1-20.7,10.4
				c-3.9,4.5-6.2,9.9-6,14.1c21,0,42,0,63,0c21,0,42,0,63.1,0c0,54.6,0,109.1,0,163.8c-39,0-77.9,0-117,0c1.2,6.1,4.7,10.4,9.4,13.6
				c7.8,5.3,16.6,7.3,25.9,7.5c0.5,0,1,0,1.4,0.1c0,0,0.1,0.1,0.3,0.3c-3.9,3.4-7.8,6.8-11.7,10.2c-31.1,26.9-63.2,52.5-97.7,75
				c-19.8,13-40.3,24.9-62.2,34c-13.2,5.5-26.8,9.9-41.2,11.6c-8,1-15.8-0.2-23.6-2c-20-4.5-38.4-12.9-56.4-22.4
				c-31.5-16.7-60.8-36.8-88.8-58.6c-18.9-14.8-37.2-30.4-55.8-45.6c-0.6-0.5-1.1-1-1.8-1.7c3.5-0.3,6.8-0.4,10.1-0.8
				c7.3-0.9,14-3.2,19.7-8.1c4-3.5,6.8-7.7,8.1-13.1c-40.2,0-80.1,0-120.2,0C18.7,267.3,18.7,212.8,18.7,157.9z M33.9,305.7
				c190.7,0,381.1,0,571.5,0c0-44.2,0-88.2,0-132.3c-190.6,0-381,0-571.5,0C33.9,217.6,33.9,261.6,33.9,305.7z M495,99.1
				c0,5.1-0.1,10.3,0,15.4c0,1.7-0.5,2.7-2.1,3.5c-11.4,6.3-20.2,14.9-23.8,27.9c-1,3.9-1.5,7.9-2.2,12c4.3,0,7.9,0,10.9,0
				c1.4-4.1,2.3-8.2,4.2-11.7c5.1-9.8,12.2-17.8,23.2-21.5c0.6-0.2,1.1-1.4,1.1-2.2c0.1-7.7,0-15.4,0-23.1c0-3.7,0-7.3,0-11.1
				c-0.6-0.1-1-0.1-1.3-0.2c-11.8-1.4-23.6-2.5-35.3-4.4c-29-4.6-57.3-11.9-84.9-22.1c-19.6-7.2-38.5-15.8-55.7-27.7
				c-2.9-2-5.7-4.1-8.4-6.2c-26.9,19.9-57.1,32.7-88.6,42.7c-31.5,10-63.8,16.4-97.1,18.5c0,1,0,1.9,0,2.8c0,9.7,0.1,19.4,0,29.1
				c0,1.9,0.5,3,2.2,4c9.5,5.5,17,12.8,20.8,23.4c1.1,3.1,1.8,6.4,2.7,9.7c3.9,0,7.8,0,11.8,0c-1.4-15.9-7.8-28.9-21.1-37.7
				c-4.1-2.7-5.8-5.3-5.2-10c0.4-3.7,0.1-7.5,0.1-11.1c0.6-0.1,0.8-0.1,1.1-0.2c15.9-0.5,31.6-2.5,47.1-5.9
				c44.7-9.8,87-25.4,125.8-50.1c1-0.7,1.7-0.6,2.7,0c2.8,1.9,5.6,3.7,8.5,5.4c22.3,13.6,46,24.2,70.7,32.6
				c22.4,7.6,45.3,13.3,68.8,16C478.9,97.8,486.9,98.4,495,99.1z M488.7,352.4c-0.3,0.2-0.5,0.4-0.7,0.5
				c-32.6,27.2-67,51.9-104.4,72.2c-14.8,8-30,15.3-46.3,19.6c-5.7,1.5-11.6,2.5-17.5,2.6c-4.6,0.1-9.3-1.4-13.9-2.6
				c-18.1-4.8-35-12.7-51.5-21.5c-31.3-16.7-60.4-36.6-87.6-59.2c-4.4-3.7-8.7-7.5-13.2-11.3c9.6-8.2,14.6-18.2,14.7-30.7
				c-4.3,0-8.3,0-12.5,0c-0.3,6.8-2.8,12.5-7,17.6c-4.1,5-9.2,8.8-15.3,11.8c7.3,6,14.2,11.7,21.1,17.3c25.4,20.5,51.3,40.3,79.4,57
				c23.8,14.2,48.7,25.6,76.1,31.1c4.2,0.8,8.7,2.1,12.8,1.5c8.8-1.3,17.6-3.3,26.2-5.9c22.5-6.7,43-17.6,62.8-30
				c33.6-21.1,64.5-45.8,95.1-70.9c0.3-0.2,0.4-0.6,0.6-0.8c-11.3-6.8-20.2-15.2-22.5-28.7c-3.7,0-7.3,0-10.8,0
				C473.7,332.4,476.9,339.2,488.7,352.4z M305.2,432.4c0-37,0-73.7,0-110.6c-3,0-5.9,0.2-8.7-0.1c-2.5-0.2-3.5,0.6-4.2,3.1
				c-3.3,13.2-6.9,26.3-10.5,39.4c-0.1,0.5-0.4,1-0.7,1.9c-1.3-4.5-2.4-8.6-3.6-12.7c-2.6-9.2-5.2-18.5-7.8-27.7
				c-0.5-1.9-1.3-3.8-3.6-3.9c-3.2-0.1-6.4,0-9.7,0c-0.1,0.5-0.2,0.9-0.2,1.3c0,28.5,0,57.1,0,85.6c0,0.5,0,1.3,0.3,1.6
				c3.2,2.4,6.7,4.5,10.9,5.6c0-4.8,0-9.3,0-13.8c0-4.4,0-8.8,0-13.2c0-4.5,0-9,0-13.5c0-4.3-0.1-8.7,0.1-13c0.3,0,0.6,0,0.9,0
				c4.3,13.3,8.6,26.7,12.9,40c1-1.4,1.4-2.6,1.8-3.8c2.7-9.2,5.5-18.4,8.2-27.6c0.2-0.8,0.7-1.6,1.1-2.4c0.3,0.1,0.5,0.2,0.8,0.3
				c0,0.8,0,1.6,0,2.3c0,6.2,0,12.3,0,18.5c0,12,0,24,0,36.1c0,0.8,0.2,2.1,0.7,2.3C297.7,429.6,301.4,430.9,305.2,432.4z
				 M311.6,321.9c0,1.1,0,2.1,0,3c0,23.6,0,47.1,0,70.7c0,12,0,24,0,36.1c0,0.8,0.4,2.1,1,2.3c2.2,1,4.5,1.8,6.8,2.3
				c3.4,0.7,5.4-1.2,5.4-4.6c0-13.2,0-26.4,0-39.7c0-0.9,0-1.9,0-2.8c4.7-0.8,9.1-1.3,13.5-2.3c6.5-1.5,9.1-4.4,9.4-11
				c0.3-7.4,0.3-14.9,0.3-22.3c0-7.3,0-14.6-0.3-21.9c-0.2-5.9-4.2-9.8-10-9.9C329.2,321.8,320.6,321.9,311.6,321.9z M349.2,118.2
				c0,3.8,0,7.5,0,11.3c0.1,6.2-0.1,12.3,0.4,18.5c0.4,5.5,2.9,8.2,8.3,9c10.6,1.7,21.2,1.5,31.8,0.2c5-0.6,7.4-3.4,7.5-8.4
				c0.3-15.6,0.3-31.2,0.3-46.8c0-4.4-2.2-7.6-5.9-9.8c-1.6-0.9-3.2-1.8-4.9-2.4c-6.3-2.5-12.6-5.1-19-7.3c-3.2-1.1-6.6-1.9-10-2.2
				c-3.7-0.4-6.4,1.7-7.4,5.2c-0.6,2.3-1,4.7-1,7.1C349.2,101,349.2,109.6,349.2,118.2z M292.8,120.8c-0.1,0-0.3,0-0.4,0
				c0-10.3,0.3-20.7-0.1-31c-0.3-8.9-4.4-11.6-13-9.3c-0.5,0.1-0.9,0.2-1.4,0.4c-8.6,3.9-17.2,7.7-25.7,11.7c-4,1.9-5.8,5.5-5.9,9.7
				c-0.2,6.7-0.3,13.4-0.3,20.2c0,7.8,0,15.5,0.3,23.3c0.3,8.3,3.4,11.6,11.6,12c8,0.3,16,0.3,24-0.2c9.2-0.6,11-2.9,11-12
				C292.9,137.3,292.8,129,292.8,120.8z M359.9,321.9c-6.1,36.3-12.1,72.4-18.2,109c4.5-1.7,8.5-3.1,12.4-4.7
				c0.8-0.3,1.6-1.5,1.8-2.4c1.3-8,2.5-16,3.8-23.9c0.1-0.7,0.6-1.7,1.1-1.8c4.2-1.3,8.5-2.5,13-3.8c1.1,7.3,2.2,14.1,3.2,21.2
				c2.4-1.1,4.4-2,6.4-3c4.9-2.6,4.9-2.6,4.2-8.1c-0.1-0.5-0.1-1-0.2-1.4c-3.8-22.6-7.6-45.3-11.4-67.9c-0.7-4.4-1.6-8.7-2.4-13.1
				C368.9,321.9,364.5,321.9,359.9,321.9z M236.5,157.9c0-20.3,0-40.4,0-60.6c-4.1,0.9-8.1,1.8-12.1,2.6c-1.5,0.3-2.2,1.2-2.8,2.6
				c-3.1,7.8-6.3,15.6-9.5,23.3c-0.3,0.7-0.6,1.4-1.1,2.4c-0.6-1.2-1-2-1.4-2.8c-2.9-6.2-5.8-12.5-8.7-18.7
				c-0.3-0.7-1.2-1.6-1.7-1.5c-4.2,0.7-8.4,1.6-12.5,2.4c0,16.9,0,33.6,0,50.2c4.6,0,9.1,0,13.9,0c0-6.5,0-12.7,0-19
				c0.3-0.1,0.6-0.2,0.9-0.3c3.3,6.1,6.5,12.1,9.8,18.3c3.3-7.1,6.5-14.1,9.7-21c0.2,0.1,0.5,0.1,0.7,0.2c1.7,7.2,0.9,14.5,1.2,21.9
				C227.7,157.9,232,157.9,236.5,157.9z M412.6,394.4c3.1-2,6-3.9,8.9-5.7c1.4-0.9,1.8-1.9,1.8-3.6c-0.1-20.3,0-40.6,0-60.8
				c0-0.8,0-1.6,0-2.4c-4.1,0-7.9,0-12.1,0c0,11.8,0,23.5,0,35.2c-0.2,0-0.5,0.1-0.7,0.1c-0.2-0.8-0.5-1.6-0.7-2.3
				c-2.5-10.4-5-20.8-7.6-31.2c-0.2-0.7-0.9-1.7-1.4-1.7c-3.6-0.2-7.1-0.1-10.8-0.1c0,29,0,57.7,0,86.7c3.7-2.2,7.1-4.2,10.6-6.2
				c1.3-0.7,1.7-1.6,1.7-3.1c-0.1-11.4-0.2-22.8-0.2-34.1c0-0.8,0-1.7,0-2.5c0.2,0,0.4-0.1,0.6-0.1
				C405.9,373,409.2,383.5,412.6,394.4z M347.8,88.3c0-4.6-0.1-8.8,0-13c0.1-1.8-0.6-2.6-2.1-3.4c-8.1-4.1-16-8.3-24.1-12.4
				c-0.6-0.3-1.7-0.4-2.3-0.1c-7.9,4.3-15.8,8.7-23.7,13.1c-0.5,0.3-1.2,0.8-1.2,1.2c-0.1,4.7-0.1,9.3-0.1,14.4
				c6.4-3.2,12.5-6.1,18.9-9.3c0,26.7,0,52.9,0,79c5.2,0,10.1,0,15.3,0c0-26.3,0-52.5,0-78.9C335,82.1,341.3,85.1,347.8,88.3z
				 M251,362.7C251,362.7,251,362.7,251,362.7c0-10.2,0.1-20.3,0-30.5c0-7.2-2.8-10-10-10.3c-4.5-0.1-9-0.2-13.4,0
				c-2.2,0.1-4.5,0.4-6.6,0.9c-4.1,1.1-5.5,3.1-5.5,7.3c0,15.6,0.1,31.2-0.1,46.8c0,5.3,1.9,9.3,6.3,12.2c5.5,3.7,11,7.4,16.6,11
				c1.5,0.9,3.1,1.7,4.8,2.2c2.9,1,5.4,0.1,6.6-2.7c0.9-2.1,1.4-4.5,1.4-6.7C251.1,382.9,251,372.8,251,362.7z M408.9,98.1
				c0,20.1,0,40,0,59.8c4.4,0,8.6,0,13,0c0-5.3,0-10.5,0-15.8c4.2,0,8.2,0,12.2,0c5.7,0.1,7.7,1.9,8.4,7.6c0.3,2.8,0.5,5.5,0.7,8.2
				c4.3,0,8.6,0,12.7,0c1-7.6-0.3-14.2-3.9-19.8c1.1-1.9,2.3-3.5,3-5.4c1.7-4.9,1.7-10,0.7-15.2c-1.1-6-4.3-10-10.4-11.4
				c-7.8-1.7-15.6-3.6-23.4-5.3C417.6,99.8,413.3,98.9,408.9,98.1z M195.8,334.5c4.2,0,8-0.1,11.8,0c2,0.1,2.7-0.8,2.7-2.7
				c-0.1-2.2,0-4.5,0-6.7c0-2.8-0.4-3.3-3.2-3.3c-4.9,0-9.8-0.1-14.7,0c-5.2,0.1-8.6,3.6-8.6,8.9c0,8.9,0.1,17.8,0,26.7
				c0,2.2,0.5,4.2,2.1,5.6c3.9,3.4,7.8,6.8,12,10c3.6,2.7,7.5,5,11.8,7.7c0-4.5-0.1-8.3,0-12.1c0-1.4-0.4-2.2-1.6-2.9
				c-3.2-1.9-6.3-3.8-9.3-6c-1.3-1-2.8-2.7-2.9-4.1C195.7,348.7,195.8,341.7,195.8,334.5z M426.4,321.8c0.3,1.1,0.5,2,0.8,2.8
				c1.6,4.7,3,9.5,4.9,14c4.9,11.5,7.1,23.3,5.9,35.7c-0.1,1.2,0,2.4,0,4.2c3.6-2.7,6.7-4.9,9.6-7.3c0.8-0.7,1.4-2.1,1.5-3.1
				c0.2-4.7,0-9.4,0.1-14.2c0-1.5,0.4-3,1-4.4c2.7-6.5,5.6-12.9,8.4-19.4c1.1-2.6,2-5.3,3.1-8.4c-3.3,0-6.2,0.1-9.1,0
				c-1.5-0.1-2.1,0.5-2.4,1.9c-1.1,4.2-2.2,8.3-3.4,12.5c-0.8,3.1-1.7,6.1-2.6,9.2c-0.8-1-1.1-2-1.3-3c-1.3-6.3-2.5-12.5-3.9-18.8
				c-0.1-0.7-0.9-1.7-1.4-1.7C434,321.7,430.3,321.8,426.4,321.8z"/>
			<path fill="#020100" d="M539.6,329.7c0.5,1.2,1.6,2.7,1.2,3.6c-0.6,1.5-1.9,3.2-3.4,3.9c-2,1-4.1,0.1-5.4-1.8
				c-1.3-1.8-1.3-3.7-0.1-5.6c0.1-0.1,0.3-0.1,0.5-0.1l-0.1,0c-0.1,0.3-0.1,0.6-0.3,0.9c-0.8,2.2-0.5,4.1,1.5,5.5
				c1.6,1.1,3.3,1.1,4.9,0c1.9-1.4,2.3-3.3,1.5-5.5C539.8,330.2,539.7,329.9,539.6,329.7L539.6,329.7z"/>
			<path fill="#020100" d="M532.9,329.2c1.2-2.1,4.2-2.3,5.7-0.5c0,0,0-0.1,0-0.1C536.7,327.9,534.7,327.9,532.9,329.2L532.9,329.2z
				"/>
			<path fill="#020100" d="M538.6,328.7c0.3,0.3,0.6,0.6,0.9,0.9c0,0,0.1,0,0.1,0C539.3,329.3,539,329,538.6,328.7L538.6,328.7z"/>
			<path fill="#020100" d="M532.4,329.7c0-0.2,0-0.4,0-0.5c0.2,0,0.3,0,0.5,0.1c0,0,0-0.1,0-0.1
				C532.7,329.3,532.6,329.5,532.4,329.7L532.4,329.7z"/>
			<path fill="#FB6500" d="M33.9,305.7c0-44.2,0-88.1,0-132.3c190.5,0,380.9,0,571.5,0c0,44,0,88.1,0,132.3
				C415,305.7,224.6,305.7,33.9,305.7z M46.6,295.3c182.6,0,365.1,0,547.7,0c0-36.9,0-73.8,0-110.7c-182.6,0-365.1,0-547.7,0
				C46.6,221.6,46.6,258.4,46.6,295.3z"/>
			<path fill="#FB6500" d="M495,99.1c-8.1-0.7-16.1-1.3-24.1-2.2c-23.5-2.7-46.4-8.4-68.8-16c-24.7-8.4-48.4-19-70.7-32.6
				c-2.9-1.7-5.7-3.6-8.5-5.4c-1-0.7-1.7-0.7-2.7,0c-38.7,24.7-81.1,40.3-125.8,50.1c-15.5,3.4-31.2,5.4-47.1,5.9
				c-0.2,0-0.5,0.1-1.1,0.2c0,3.7,0.3,7.5-0.1,11.1c-0.5,4.7,1.2,7.3,5.2,10c13.3,8.8,19.7,21.8,21.1,37.7c-4,0-7.9,0-11.8,0
				c-0.9-3.2-1.6-6.5-2.7-9.7c-3.8-10.5-11.3-17.9-20.8-23.4c-1.7-1-2.2-2.1-2.2-4c0.1-9.7,0-19.4,0-29.1c0-0.9,0-1.7,0-2.8
				c33.3-2.1,65.6-8.4,97.1-18.5c31.5-10,61.7-22.8,88.6-42.7c2.8,2,5.6,4.2,8.4,6.2c17.2,11.9,36.2,20.5,55.7,27.7
				c27.5,10.2,55.9,17.4,84.9,22.1c11.7,1.9,23.5,3,35.3,4.4c0.4,0,0.8,0.1,1.3,0.2c0,3.7,0,7.4,0,11.1c0,7.7,0,15.4,0,23.1
				c0,0.7-0.6,2-1.1,2.2c-11,3.7-18,11.6-23.2,21.5c-1.9,3.6-2.7,7.6-4.2,11.7c-3,0-6.6,0-10.9,0c0.7-4.1,1.2-8.1,2.2-12
				c3.5-13,12.3-21.6,23.8-27.9c1.6-0.9,2.1-1.8,2.1-3.5C495,109.4,495,104.3,495,99.1z"/>
			<path fill="#FB6500" d="M488.7,352.4c-11.8-13.2-15-20-14.3-30.4c3.5,0,7.1,0,10.8,0c2.3,13.5,11.2,21.9,22.5,28.7
				c-0.2,0.2-0.3,0.6-0.6,0.8c-30.6,25.1-61.5,49.8-95.1,70.9c-19.8,12.4-40.3,23.4-62.8,30c-8.6,2.5-17.4,4.5-26.2,5.9
				c-4.1,0.6-8.6-0.7-12.8-1.5c-27.4-5.4-52.3-16.9-76.1-31.1c-28.1-16.7-54-36.5-79.4-57c-7-5.6-13.9-11.4-21.1-17.3
				c6.1-3,11.2-6.8,15.3-11.8c4.1-5.1,6.7-10.9,7-17.6c4.2,0,8.2,0,12.5,0c-0.1,12.5-5.2,22.5-14.7,30.7c4.5,3.8,8.8,7.6,13.2,11.3
				c27.3,22.6,56.4,42.6,87.6,59.2c16.5,8.8,33.3,16.7,51.5,21.5c4.6,1.2,9.3,2.6,13.9,2.6c5.8-0.1,11.8-1.1,17.5-2.6
				c16.4-4.3,31.5-11.6,46.3-19.6C421,404.9,455.4,380.2,488,353C488.2,352.8,488.4,352.7,488.7,352.4z"/>
			<path fill="#FB6500" d="M305.2,432.4c-3.8-1.4-7.5-2.8-11.1-4.3c-0.5-0.2-0.7-1.5-0.7-2.3c0-12,0-24,0-36.1c0-6.2,0-12.3,0-18.5
				c0-0.8,0-1.6,0-2.3c-0.3-0.1-0.5-0.2-0.8-0.3c-0.4,0.8-0.9,1.5-1.1,2.4c-2.8,9.2-5.5,18.4-8.2,27.6c-0.4,1.2-0.8,2.4-1.8,3.8
				c-4.3-13.3-8.6-26.7-12.9-40c-0.3,0-0.6,0-0.9,0c-0.1,4.3,0,8.7-0.1,13c0,4.5,0,9,0,13.5c0,4.4,0,8.8,0,13.2c0,4.5,0,9,0,13.8
				c-4.3-1.1-7.7-3.2-10.9-5.6c-0.3-0.2-0.3-1-0.3-1.6c0-28.5,0-57.1,0-85.6c0-0.4,0.1-0.8,0.2-1.3c3.3,0,6.5-0.1,9.7,0
				c2.4,0.1,3.1,2,3.6,3.9c2.6,9.2,5.2,18.5,7.8,27.7c1.1,4.1,2.3,8.2,3.6,12.7c0.3-0.9,0.6-1.4,0.7-1.9
				c3.5-13.1,7.1-26.2,10.5-39.4c0.6-2.6,1.6-3.3,4.2-3.1c2.8,0.2,5.7,0.1,8.7,0.1C305.2,358.7,305.2,395.4,305.2,432.4z"/>
			<path fill="#FB6500" d="M311.6,321.9c9,0,17.5-0.1,26.1,0c5.8,0.1,9.8,4,10,9.9c0.3,7.3,0.3,14.6,0.3,21.9
				c0,7.4,0.1,14.9-0.3,22.3c-0.3,6.5-2.9,9.5-9.4,11c-4.3,1-8.8,1.5-13.5,2.3c0,0.9,0,1.8,0,2.8c0,13.2,0,26.4,0,39.7
				c0,3.4-2,5.3-5.4,4.6c-2.3-0.5-4.6-1.3-6.8-2.3c-0.6-0.2-1-1.5-1-2.3c-0.1-12,0-24,0-36.1c0-23.6,0-47.1,0-70.7
				C311.6,324,311.6,323,311.6,321.9z M325,333.9c0,14.3,0,28.3,0,42.4c1.2-0.1,2.2-0.2,3.2-0.4c5.7-1,6.4-2,6.4-7.8
				c0-9.5,0-19.1,0-28.6c0-1.1,0.1-2.4-0.4-3.3c-0.6-1-1.8-2.1-2.9-2.3C329.3,333.7,327.2,333.9,325,333.9z"/>
			<path fill="#FB6500" d="M349.2,118.2c0-8.6-0.1-17.1,0-25.7c0-2.4,0.3-4.8,1-7.1c1-3.5,3.7-5.6,7.4-5.2c3.4,0.3,6.8,1.1,10,2.2
				c6.4,2.2,12.7,4.8,19,7.3c1.7,0.7,3.3,1.5,4.9,2.4c3.7,2.2,5.9,5.4,5.9,9.8c0,15.6,0,31.2-0.3,46.8c-0.1,5.1-2.5,7.8-7.5,8.4
				c-10.6,1.3-21.3,1.4-31.8-0.2c-5.4-0.8-7.9-3.6-8.3-9c-0.4-6.1-0.3-12.3-0.4-18.5C349.2,125.7,349.2,121.9,349.2,118.2z
				 M384.2,123.8C384.2,123.8,384.2,123.8,384.2,123.8c0-5.1,0-10.2,0-15.4c0-3.1-0.9-5.9-4-7c-4-1.3-8.1-2.4-12.3-3.1
				c-2.9-0.5-4,0.6-4.5,3.6c-0.1,0.8-0.2,1.6-0.2,2.4c0,10.2,0,20.5,0,30.7c0,1.5,0.1,3,0.4,4.5c0.6,3.1,2.4,4.8,5.6,4.9
				c3.2,0.2,6.4,0.2,9.6,0c4-0.2,5.3-1.8,5.3-5.9C384.2,133.8,384.2,128.8,384.2,123.8z"/>
			<path fill="#FB6500" d="M292.8,120.8c0,8.2,0,16.5,0,24.7c0,9.2-1.8,11.4-11,12c-8,0.5-16,0.6-24,0.2c-8.2-0.4-11.3-3.7-11.6-12
				c-0.3-7.8-0.3-15.5-0.3-23.3c0-6.7,0.1-13.5,0.3-20.2c0.1-4.3,2-7.9,5.9-9.7c8.5-4,17.1-7.8,25.7-11.7c0.4-0.2,0.9-0.3,1.4-0.4
				c8.6-2.2,12.7,0.4,13,9.3c0.4,10.3,0.1,20.6,0.1,31C292.6,120.8,292.7,120.8,292.8,120.8z M279.5,121.4c0-6.6,0-13.1,0-19.7
				c0-3.3-1.1-4.5-4.2-3.8c-3.5,0.8-6.9,2.4-10.3,3.6c-4,1.4-5.7,4.4-5.8,8.5c-0.2,10.1-0.5,20.3-0.5,30.4c0,3,1.5,4.3,4.6,4.3
				c4.2,0.1,8.5,0,12.7-0.1c3.1-0.1,3.6-0.6,3.6-3.8C279.6,134.4,279.5,127.9,279.5,121.4z"/>
			<path fill="#FB6500" d="M359.9,321.9c4.6,0,9,0,13.7,0c0.8,4.3,1.7,8.7,2.4,13.1c3.8,22.6,7.6,45.3,11.4,67.9
				c0.1,0.5,0.1,1,0.2,1.4c0.7,5.5,0.7,5.5-4.2,8.1c-2,1-4,1.9-6.4,3c-1.1-7.1-2.1-13.9-3.2-21.2c-4.5,1.3-8.8,2.5-13,3.8
				c-0.5,0.2-1,1.2-1.1,1.8c-1.3,8-2.5,16-3.8,23.9c-0.1,0.9-1,2-1.8,2.4c-3.9,1.6-7.9,3-12.4,4.7
				C347.8,394.3,353.8,358.2,359.9,321.9z M367.7,351.1c-0.4,0-0.8,0-1.2,0c-1.6,11.1-3.2,22.1-4.8,33.7c3.8-1.1,6.9-2,10.2-2.9
				C370.5,371.4,369.1,361.3,367.7,351.1z"/>
			<path fill="#FB6500" d="M236.5,157.9c-4.5,0-8.8,0-13.3,0c-0.4-7.3,0.5-14.7-1.2-21.9c-0.2-0.1-0.5-0.1-0.7-0.2
				c-3.2,7-6.5,13.9-9.7,21c-3.3-6.2-6.6-12.3-9.8-18.3c-0.3,0.1-0.6,0.2-0.9,0.3c0,6.3,0,12.6,0,19c-4.9,0-9.3,0-13.9,0
				c0-16.6,0-33.3,0-50.2c4.1-0.8,8.3-1.7,12.5-2.4c0.5-0.1,1.4,0.8,1.7,1.5c2.9,6.2,5.8,12.5,8.7,18.7c0.4,0.8,0.8,1.6,1.4,2.8
				c0.5-1,0.8-1.7,1.1-2.4c3.2-7.8,6.4-15.5,9.5-23.3c0.6-1.4,1.3-2.3,2.8-2.6c4-0.8,8-1.7,12.1-2.6
				C236.5,117.5,236.5,137.6,236.5,157.9z"/>
			<path fill="#FB6500" d="M412.6,394.4c-3.4-10.9-6.7-21.4-10-31.9c-0.2,0-0.4,0.1-0.6,0.1c0,0.8,0,1.7,0,2.5
				c0.1,11.4,0.1,22.8,0.2,34.1c0,1.4-0.3,2.3-1.7,3.1c-3.5,1.9-6.9,4-10.6,6.2c0-29,0-57.7,0-86.7c3.6,0,7.2-0.1,10.8,0.1
				c0.5,0,1.3,1.1,1.4,1.7c2.6,10.4,5.1,20.8,7.6,31.2c0.2,0.8,0.5,1.6,0.7,2.3c0.2,0,0.5-0.1,0.7-0.1c0-11.7,0-23.4,0-35.2
				c4.2,0,8,0,12.1,0c0,0.9,0,1.6,0,2.4c0,20.3,0,40.6,0,60.8c0,1.6-0.4,2.7-1.8,3.6C418.6,390.5,415.7,392.4,412.6,394.4z"/>
			<path fill="#FB6500" d="M347.8,88.3c-6.6-3.2-12.8-6.3-19.3-9.5c0,26.4,0,52.6,0,78.9c-5.2,0-10.1,0-15.3,0c0-26.1,0-52.3,0-79
				c-6.4,3.2-12.5,6.1-18.9,9.3c0-5.1,0-9.7,0.1-14.4c0-0.4,0.7-1,1.2-1.2c7.9-4.4,15.8-8.8,23.7-13.1c0.6-0.3,1.7-0.2,2.3,0.1
				c8,4.1,16,8.4,24.1,12.4c1.6,0.8,2.2,1.6,2.1,3.4C347.7,79.5,347.8,83.8,347.8,88.3z"/>
			<path fill="#FB6500" d="M251,362.7c0,10.1,0.1,20.2-0.1,30.3c0,2.3-0.5,4.6-1.4,6.7c-1.2,2.8-3.7,3.7-6.6,2.7
				c-1.7-0.6-3.3-1.3-4.8-2.2c-5.6-3.6-11.1-7.3-16.6-11c-4.3-2.9-6.3-6.9-6.3-12.2c0.1-15.6,0-31.2,0.1-46.8c0-4.2,1.4-6.2,5.5-7.3
				c2.1-0.6,4.4-0.9,6.6-0.9c4.5-0.1,9-0.1,13.4,0c7.2,0.2,10,3.1,10,10.3C251,342.4,251,352.6,251,362.7
				C251,362.7,251,362.7,251,362.7z M239,358.7C239,358.7,239,358.7,239,358.7c0-5.8-0.1-11.5,0-17.3c0.1-7.6-0.3-7.9-8.3-7.5
				c-0.4,0-0.8,0.1-1.2,0.2c-1.9,0.6-3.1,1.8-3.1,4c0,12.1-0.1,24.2,0.1,36.3c0,1.7,0.8,3.8,2,4.9c1.9,1.8,4.3,3,6.7,4.2
				c1.7,0.9,3,0.1,3.4-1.8c0.2-1,0.3-2.1,0.3-3.1C239,372,239,365.4,239,358.7z"/>
			<path fill="#FB6500" d="M408.9,98.1c4.4,0.9,8.7,1.7,13,2.7c7.8,1.7,15.6,3.6,23.4,5.3c6.2,1.4,9.3,5.3,10.4,11.4
				c0.9,5.1,1,10.2-0.7,15.2c-0.6,1.8-1.9,3.4-3,5.4c3.6,5.7,5,12.2,3.9,19.8c-4.2,0-8.4,0-12.7,0c-0.2-2.7-0.4-5.5-0.7-8.2
				c-0.7-5.7-2.7-7.5-8.4-7.6c-4-0.1-8,0-12.2,0c0,5.4,0,10.5,0,15.8c-4.4,0-8.6,0-13,0C408.9,138,408.9,118.2,408.9,98.1z
				 M422,128.5c5.6,0.3,11,0.6,16.3,0.9c1.7,0.1,3.2-0.8,3.4-2.4c0.2-2.6,0-5.2-0.2-7.8c-0.1-0.6-0.9-1.5-1.5-1.6
				c-5.9-1.2-11.8-2.2-17.9-3.3C422,119.4,422,123.8,422,128.5z"/>
			<path fill="#FB6500" d="M195.8,334.5c0,7.2-0.2,14.2,0.1,21.1c0.1,1.4,1.6,3.1,2.9,4.1c2.9,2.2,6.1,4.1,9.3,6
				c1.2,0.7,1.6,1.5,1.6,2.9c-0.1,3.8,0,7.6,0,12.1c-4.2-2.8-8.1-5-11.8-7.7c-4.2-3.1-8.1-6.5-12-10c-1.6-1.4-2.2-3.4-2.1-5.6
				c0.1-8.9,0-17.8,0-26.7c0-5.2,3.5-8.8,8.6-8.9c4.9-0.1,9.8,0,14.7,0c2.8,0,3.2,0.4,3.2,3.3c0,2.2,0,4.5,0,6.7
				c0.1,1.9-0.7,2.8-2.7,2.7C203.8,334.4,200,334.5,195.8,334.5z"/>
			<path fill="#FB6500" d="M426.4,321.8c3.9,0,7.6-0.1,11.3,0.1c0.5,0,1.3,1.1,1.4,1.7c1.4,6.2,2.6,12.5,3.9,18.8c0.2,1,0.5,2,1.3,3
				c0.9-3.1,1.7-6.1,2.6-9.2c1.1-4.2,2.3-8.3,3.4-12.5c0.4-1.4,0.9-2,2.4-1.9c2.9,0.1,5.7,0,9.1,0c-1.1,3-2,5.8-3.1,8.4
				c-2.7,6.5-5.7,12.9-8.4,19.4c-0.6,1.4-0.9,2.9-1,4.4c-0.1,4.7,0,9.5-0.1,14.2c0,1.1-0.7,2.5-1.5,3.1c-2.9,2.4-6.1,4.7-9.6,7.3
				c0-1.8-0.1-3,0-4.2c1.1-12.4-1-24.3-5.9-35.7c-2-4.5-3.3-9.3-4.9-14C426.9,323.8,426.7,322.9,426.4,321.8z"/>
			<path fill="#FEFEFE" d="M532.4,329.6c0.2-0.2,0.3-0.3,0.5-0.5c1.8-1.2,3.8-1.3,5.8-0.5c0.3,0.3,0.6,0.6,1,1
				c0.1,0.3,0.2,0.6,0.3,0.9c0.8,2.2,0.5,4.1-1.5,5.5c-1.6,1.2-3.3,1.2-4.9,0c-2-1.4-2.3-3.3-1.5-5.5
				C532.2,330.2,532.3,329.9,532.4,329.6z M534.2,329.8c0,1.9,0,3.5,0,5.2c0.1,0,0.2,0,0.4,0c0.2-0.7,0.4-1.3,0.8-2.7
				c1.1,1.1,1.8,1.8,2.5,2.5c0.1-1.1,0.3-2.5,0.2-3.8c0-0.5-0.8-1.1-1.4-1.3C536,329.6,535.2,329.8,534.2,329.8z"/>
			<path fill="#020100" d="M46.6,295.3c0-37,0-73.8,0-110.7c182.6,0,365.1,0,547.7,0c0,37,0,73.8,0,110.7
				C411.7,295.3,229.2,295.3,46.6,295.3z M555.1,280.6c0-14.6,0-28.9,0-43.3c0.1,0,0.2,0,0.3,0c2.7,14.4,5.4,28.8,8.1,43.2
				c5,0,9.8,0,14.6,0c0-27.7,0-55.2,0-82.6c-4.2,0-8.3,0-12.2,0c0,12.1,0,24.1,0,36.2c-0.1-0.4-0.2-0.6-0.3-0.8
				c-2.4-11.3-4.8-22.5-7.2-33.8c-0.2-0.7-1-1.7-1.5-1.8c-4.9-0.1-9.7-0.1-14.7-0.1c0,27.7,0,55.3,0,82.9
				C546.5,280.6,550.8,280.6,555.1,280.6z M169.7,239.6c3.9-4,6-8.6,6.2-13.9c0.1-4.1,0-8.3-0.5-12.5c-0.3-2.8-1.2-5.6-2.4-8.2
				c-2-4.5-5.8-6.7-10.7-6.7c-3.6,0-7.2,0-10.8,0c-3.3,0-6.7,0-10.2,0c0,28,0,55.8,0,83.6c4.5,0,8.9,0,13.5,0c0-10.7,0-21.3,0-31.8
				c6.3-0.7,8.2,0.9,8.2,6.9c0,6.6,0,13.3,0,19.9c0,3,1.1,4.6,4,4.9c3,0.3,6,0.1,9.2,0.1c0-8.5,0-16.8,0-25.1
				C176.2,250.3,175.7,244,169.7,239.6z M75.6,230.2c0-10.7,0-21.2,0-31.7c-4.3,0-8.3,0-12.3,0c0,27.9,0,55.7,0,83.5
				c4.2,0,8.3,0,12.6,0c0-11.6,0-23.1,0-34.5c3.1,0,5.9,0,8.9,0c0,11.7,0,23.2,0,34.6c4.3,0,8.3,0,12.4,0c0-27.9,0-55.7,0-83.5
				c-4.2,0-8.2,0-12.5,0c0,10.7,0,21.2,0,31.7C81.5,230.2,78.7,230.2,75.6,230.2z M301.2,198.4c0,28,0,55.8,0,83.7
				c5.6,0,11.2,0,16.7,0c10.5,0,16.3-5.9,16.3-16.4c0-17.1-0.1-34.3-0.1-51.4c0-1.8-0.1-3.5-0.3-5.3c-0.8-6.3-4.6-10.4-10.2-10.5
				C316.2,198.3,308.8,198.4,301.2,198.4z M427.6,281.1c7.6,0,15,0.4,22.3-0.1c6.9-0.5,10.9-5.2,11-12c0.1-19.3,0.2-38.6,0-57.9
				c-0.1-8.3-5.3-13.1-13.6-13.3c-6-0.1-12,0-18,0c-0.5,0-1,0.1-1.6,0.2C427.6,225.8,427.6,253.5,427.6,281.1z M537.1,239.9
				c-0.1,0-0.2,0-0.4,0c0-10.2,0.4-20.4-0.1-30.5c-0.4-8.2-5.4-13-13.7-13.6c-11.9-0.8-19,3.6-19.2,15.5
				c-0.4,19.1-0.2,38.1-0.1,57.2c0,5.6,2.5,10.2,7.7,13c11.8,6.3,25.8-2,25.8-15.4C537.2,257.4,537.1,248.6,537.1,239.9z M498.7,227
				c0-6,0.2-11.8,0-17.5c-0.2-6.5-4.2-11.2-10.6-12.5c-2.6-0.5-5.4-0.6-8.1-0.5c-7,0.3-12,4-13.3,10.9c-1.1,5.8-1.2,11.7-1.4,17.6
				c-0.3,7.3,3.1,12.9,9,17.1c2.4,1.7,5,3.2,7.3,5.1c1.6,1.4,3.2,3.1,3.9,5c1.9,4.9,1.7,10,0.6,15.1c-0.4,1.9-1.7,3-3.8,3
				c-2.2-0.1-3.7-1-4.2-3.2c-0.3-1.3-0.4-2.7-0.4-4c0-4.2,0-8.5,0-12.8c-4.2,0-8.3,0-12.3,0c-0.8,5.2,0.3,19.3,1.8,23.8
				c1.5,4.6,4.4,7.7,9.2,8.4c3,0.4,6.1,0.6,9.1,0.3c7-0.6,11.1-4.8,12.9-11.4c1.7-6.1,1.1-12.2,0.7-18.4
				c-0.5-7.3-4.1-12.8-10.1-16.8c-1.1-0.8-2.2-1.6-3.3-2.3c-6.8-4.9-9.5-12.2-7.6-20.4c0.4-1.6,1.1-2.7,2.8-2.9
				c1.9-0.2,3.4,0.3,4.1,2.1c0.5,1.2,0.8,2.4,0.9,3.7c0.3,3.6,0.5,7.1,0.7,10.8C490.5,227,494.5,227,498.7,227z M109.4,198.5
				c-2.9,28-5.7,55.7-8.6,83.6c4.1,0,7.9,0,11.8,0c0.8-6.7,1.6-13.2,2.3-19.9c2.9,0,5.7,0,8.6,0c0.9,6.7,1.7,13.2,2.6,19.8
				c3.9,0,7.7,0,11.7,0c-3.1-27.9-6.1-55.7-9.1-83.5C122.1,198.5,115.9,198.5,109.4,198.5z M364,197.9c-6.1,0-12,0-17.9,0
				c-3.5,27.9-6.9,55.6-10.3,83.4c4.5,0,8.3,0,12.2,0c0.8-6.8,1.7-13.4,2.5-20.1c2.7,0,5.1,0.1,7.4,0c1.3-0.1,1.6,0.6,1.8,1.7
				c0.3,2.5,0.6,4.9,1,7.4c0.6,3.8,1.2,7.5,1.8,11.1c4.1,0,7.9,0,11.8,0C370.9,253.5,367.5,225.8,364,197.9z M370.9,197.9
				c3.7,28,7.4,55.8,11.1,83.5c4.6,0,8.9,0,13.4,0c3.9-27.8,7.7-55.6,11.6-83.5c-4.3,0-8.3,0-12.5,0c-2,15.9-3.9,31.7-5.8,47.5
				c-0.1,0-0.3,0-0.4-0.1c-1.6-15.8-3.2-31.6-4.7-47.4C379.2,197.9,375.1,197.9,370.9,197.9z M223.1,245.9c4.1,0,8.2,0,12.4,0
				c0-5.1,0-9.8,0-14.8c-4.2,0-8.2,0-12.3,0c0-6.6,0-12.9,0-19.5c4.2,0,8.2,0,12.3,0c0-4.5,0-8.9,0-13.1c-8.7,0-17.1,0-25.7,0
				c0,27.9,0,55.6,0,83.5c8.6,0,17,0,25.6,0c0-4.6,0-9.2,0-13.9c-4.1,0-8.2,0-12.3,0C223.1,260.6,223.1,253.4,223.1,245.9z
				 M249.6,281.4c4.3,0,8.3,0,12.6,0c0-0.9,0-1.7,0-2.4c0-9.6,0-19.2,0-28.8c0-1.6,0.2-3.2,0.6-4.7c2.4-9,5-17.9,7.3-26.8
				c1.7-6.6,3.1-13.3,4.7-20.1c-4.4,0-8.4,0-12.6,0c-1.9,8.9-3.9,17.7-5.8,26.5c-0.2,0-0.5,0-0.7,0.1c-1.8-8.9-3.7-17.7-5.5-26.6
				c-4.3,0-8.6,0-13.1,0c2.3,9,4.1,18,6.7,26.7c4.4,14.3,7,28.7,5.9,43.7c-0.3,3.3,0,6.7,0,10.1
				C249.6,279.7,249.6,280.5,249.6,281.4z M181.1,198.5c0,27.9,0,55.7,0,83.4c8.7,0,17.2,0,25.6,0c0-4.7,0-9.2,0-13.9
				c-4.2,0-8.2,0-12.4,0c0-23.3,0-46.3,0-69.5C189.9,198.5,185.6,198.5,181.1,198.5z M421.8,281.5c0-28,0-55.7,0-83.6
				c-4.2,0-8.2,0-12.4,0c0,27.9,0,55.7,0,83.6C413.6,281.5,417.6,281.5,421.8,281.5z M272.8,235.5c0,3.6,0,6.9,0,10.2
				c7.7,0,15.1,0,22.7,0c0-3.5,0-6.9,0-10.2C287.8,235.5,280.3,235.5,272.8,235.5z"/>
			<path fill="#020100" d="M325,333.9c2.2,0,4.3-0.3,6.4,0.1c1.1,0.2,2.2,1.3,2.9,2.3c0.5,0.9,0.4,2.2,0.4,3.3c0,9.5,0,19.1,0,28.6
				c0,5.8-0.8,6.7-6.4,7.8c-1,0.2-2,0.2-3.2,0.4C325,362.2,325,348.2,325,333.9z"/>
			<path fill="#020100" d="M384.2,123.8c0,5,0,9.9,0,14.9c0,4.1-1.3,5.6-5.3,5.9c-3.2,0.2-6.4,0.1-9.6,0c-3.2-0.2-5-1.8-5.6-4.9
				c-0.3-1.5-0.4-3-0.4-4.5c0-10.2,0-20.5,0-30.7c0-0.8,0-1.6,0.2-2.4c0.5-3,1.6-4.1,4.5-3.6c4.1,0.8,8.3,1.8,12.3,3.1
				c3.1,1,4,3.9,4,7C384.2,113.6,384.2,118.7,384.2,123.8C384.2,123.8,384.2,123.8,384.2,123.8z"/>
			<path fill="#020100" d="M279.5,121.4c0,6.5,0,13,0,19.4c0,3.2-0.5,3.7-3.6,3.8c-4.2,0.1-8.5,0.2-12.7,0.1c-3.1,0-4.6-1.3-4.6-4.3
				c0.1-10.2,0.3-20.3,0.5-30.4c0.1-4,1.8-7,5.8-8.5c3.4-1.2,6.8-2.8,10.3-3.6c3.1-0.7,4.2,0.6,4.2,3.8
				C279.6,108.3,279.5,114.9,279.5,121.4z"/>
			<path fill="#020100" d="M367.7,351.1c1.4,10.1,2.7,20.3,4.1,30.7c-3.3,0.9-6.4,1.8-10.2,2.9c1.7-11.6,3.3-22.6,4.8-33.7
				C366.9,351.1,367.3,351.1,367.7,351.1z"/>
			<path fill="#020100" d="M239,358.7c0,6.6,0,13.3,0,19.9c0,1-0.1,2.1-0.3,3.1c-0.4,1.8-1.7,2.7-3.4,1.8c-2.3-1.2-4.8-2.4-6.7-4.2
				c-1.2-1.1-2-3.2-2-4.9c-0.2-12.1-0.1-24.2-0.1-36.3c0-2.2,1.1-3.4,3.1-4c0.4-0.1,0.8-0.2,1.2-0.2c8-0.4,8.5-0.2,8.3,7.5
				C239,347.2,239,353,239,358.7C239,358.7,239,358.7,239,358.7z"/>
			<path fill="#020100" d="M422,128.5c0-4.7,0-9.1,0-14.2c6.1,1.1,12,2.2,17.9,3.3c0.6,0.1,1.5,1,1.5,1.6c0.2,2.6,0.4,5.2,0.2,7.8
				c-0.2,1.7-1.6,2.5-3.4,2.4C433,129.1,427.7,128.8,422,128.5z"/>
			<path fill="#020100" d="M534.2,329.8c0.9,0,1.8-0.2,2.5,0.1c0.6,0.2,1.4,0.8,1.4,1.3c0.1,1.3-0.1,2.6-0.2,3.8
				c-0.7-0.7-1.4-1.4-2.5-2.5c-0.4,1.3-0.6,2-0.8,2.7c-0.1,0-0.2,0-0.4,0C534.2,333.3,534.2,331.6,534.2,329.8z"/>
			<path fill="#FEFEFE" d="M555.1,280.6c-4.3,0-8.5,0-12.9,0c0-27.5,0-55.1,0-82.9c4.9,0,9.8-0.1,14.7,0.1c0.5,0,1.4,1.1,1.5,1.8
				c2.5,11.2,4.8,22.5,7.2,33.8c0,0.2,0.1,0.4,0.3,0.8c0-12.2,0-24.1,0-36.2c3.9,0,8,0,12.2,0c0,27.4,0,54.9,0,82.6
				c-4.7,0-9.6,0-14.6,0c-2.7-14.4-5.4-28.8-8.1-43.2c-0.1,0-0.2,0-0.3,0C555.1,251.7,555.1,266,555.1,280.6z"/>
			<path fill="#FEFEFE" d="M169.7,239.6c5.9,4.4,6.5,10.7,6.4,17.3c-0.1,8.3,0,16.6,0,25.1c-3.2,0-6.2,0.2-9.2-0.1
				c-2.9-0.3-4-1.9-4-4.9c0-6.6,0-13.3,0-19.9c0-6-1.9-7.6-8.2-6.9c0,10.5,0,21,0,31.8c-4.6,0-9,0-13.5,0c0-27.8,0-55.6,0-83.6
				c3.5,0,6.8,0,10.2,0c3.6,0,7.2,0,10.8,0c5,0,8.7,2.2,10.7,6.7c1.2,2.6,2.1,5.4,2.4,8.2c0.5,4.1,0.6,8.3,0.5,12.5
				C175.7,231,173.7,235.6,169.7,239.6z M154.7,233.9c1.5,0,2.9,0,4.3,0c2,0,3.1-1,3.1-2.9c0.1-5.2,0.2-10.4,0.1-15.6
				c0-2.1-1.3-3.3-3.3-3.5c-1.4-0.2-2.8,0-4.3,0C154.7,219.2,154.7,226.4,154.7,233.9z"/>
			<path fill="#FEFEFE" d="M75.6,230.2c3.1,0,5.9,0,9.1,0c0-10.5,0-21,0-31.7c4.3,0,8.3,0,12.5,0c0,27.8,0,55.6,0,83.5
				c-4.1,0-8.1,0-12.4,0c0-11.4,0-22.9,0-34.6c-3,0-5.9,0-8.9,0c0,11.5,0,22.9,0,34.5c-4.3,0-8.4,0-12.6,0c0-27.8,0-55.5,0-83.5
				c4,0,8.1,0,12.3,0C75.6,209,75.6,219.5,75.6,230.2z"/>
			<path fill="#FEFEFE" d="M301.2,198.4c7.6,0,15-0.1,22.3,0c5.6,0.1,9.4,4.2,10.2,10.5c0.2,1.7,0.3,3.5,0.3,5.3
				c0.1,17.1,0.1,34.3,0.1,51.4c0,10.6-5.8,16.4-16.3,16.4c-5.5,0-11,0-16.7,0C301.2,254.2,301.2,226.4,301.2,198.4z M314,210.9
				c0,19.3,0,38.2,0,57.2c0.9,0,1.6,0,2.3,0c4.1,0,5-0.9,5-5.1c0-3.1,0-6.2,0-9.4c0-12.6,0-25.1-0.1-37.7c0-3-0.9-4.3-3.3-4.8
				C316.8,210.8,315.5,210.9,314,210.9z"/>
			<path fill="#FEFEFE" d="M427.6,281.1c0-27.6,0-55.3,0-83.2c0.6-0.1,1.1-0.2,1.6-0.2c6,0,12-0.1,18,0c8.3,0.1,13.5,5,13.6,13.3
				c0.2,19.3,0.2,38.6,0,57.9c0,6.8-4.1,11.5-11,12C442.5,281.5,435.1,281.1,427.6,281.1z M441,268c1.5,0,2.8,0.1,4.1,0
				c3.5-0.3,4.1-1,4.1-4.5c0-15.7,0.1-31.4-0.1-47.1c0-1.5-0.9-3.7-2.1-4.4c-1.6-1-3.8-0.9-6-1.3C441,230.1,441,248.9,441,268z"/>
			<path fill="#FEFEFE" d="M537.1,239.9c0,8.7,0,17.5,0,26.2c0,13.3-14,21.7-25.8,15.4c-5.2-2.8-7.6-7.3-7.7-13
				c-0.1-19.1-0.3-38.1,0.1-57.2c0.3-11.9,7.4-16.4,19.2-15.5c8.3,0.6,13.3,5.4,13.7,13.6c0.5,10.1,0.1,20.3,0.1,30.5
				C536.9,239.9,537,239.9,537.1,239.9z M524.3,239.7c0-8.4,0-16.8,0-25.2c0-2.1-0.6-3.8-2.7-4.6c-2.6-1-6.2,0.4-6.2,4.7
				c0.2,16.2,0.1,32.4,0.1,48.6c0,0.6,0,1.1,0.1,1.7c0.4,2.9,2.8,5.3,5.2,5.1c2.2-0.2,3.4-2.1,3.5-5.5c0-0.6,0-1.3,0-1.9
				C524.3,254.9,524.3,247.3,524.3,239.7z"/>
			<path fill="#FEFEFE" d="M498.7,227c-4.2,0-8.2,0-12.3,0c-0.2-3.7-0.4-7.2-0.7-10.8c-0.1-1.2-0.5-2.5-0.9-3.7
				c-0.7-1.8-2.3-2.4-4.1-2.1c-1.7,0.2-2.4,1.3-2.8,2.9c-1.9,8.3,0.8,15.6,7.6,20.4c1.1,0.8,2.2,1.6,3.3,2.3c6,4,9.6,9.5,10.1,16.8
				c0.4,6.2,1,12.3-0.7,18.4c-1.8,6.6-5.9,10.7-12.9,11.4c-3,0.3-6.1,0.1-9.1-0.3c-4.8-0.7-7.7-3.8-9.2-8.4
				c-1.5-4.5-2.5-18.6-1.8-23.8c4,0,8.1,0,12.3,0c0,4.4,0,8.6,0,12.8c0,1.4,0.1,2.7,0.4,4c0.5,2.2,2,3.1,4.2,3.2
				c2.1,0.1,3.4-1,3.8-3c1.1-5.1,1.3-10.2-0.6-15.1c-0.8-1.9-2.3-3.6-3.9-5c-2.2-1.9-4.9-3.4-7.3-5.1c-5.9-4.2-9.2-9.8-9-17.1
				c0.2-5.9,0.3-11.9,1.4-17.6c1.3-6.9,6.3-10.6,13.3-10.9c2.7-0.1,5.5,0,8.1,0.5c6.4,1.3,10.4,6,10.6,12.5
				C498.8,215.2,498.7,221,498.7,227z"/>
			<path fill="#FEFEFE" d="M109.4,198.5c6.4,0,12.7,0,19.3,0c3,27.8,6.1,55.6,9.1,83.5c-4.1,0-7.8,0-11.7,0
				c-0.9-6.6-1.7-13.2-2.6-19.8c-2.9,0-5.7,0-8.6,0c-0.8,6.6-1.6,13.2-2.3,19.9c-4,0-7.8,0-11.8,0
				C103.7,254.2,106.6,226.4,109.4,198.5z M118.9,216.9c-0.2,0-0.3,0-0.5,0c-0.5,9.5-0.9,19-1.4,28.6c1.7,0,3.1,0,5,0
				C120.9,235.8,119.9,226.4,118.9,216.9z"/>
			<path fill="#FEFEFE" d="M364,197.9c3.5,27.9,6.9,55.6,10.4,83.4c-4,0-7.7,0-11.8,0c-0.6-3.6-1.2-7.4-1.8-11.1
				c-0.4-2.5-0.7-4.9-1-7.4c-0.1-1.1-0.5-1.7-1.8-1.7c-2.4,0.1-4.8,0-7.4,0c-0.8,6.7-1.7,13.4-2.5,20.1c-3.9,0-7.7,0-12.2,0
				c3.4-27.8,6.9-55.6,10.3-83.4C352,197.9,357.9,197.9,364,197.9z M357.8,245.5c-0.9-9.7-1.7-19.1-2.5-28.5c-0.2,0-0.4,0-0.7,0.1
				c-0.9,9.4-1.7,18.9-2.6,28.4C353.9,245.5,355.5,245.5,357.8,245.5z"/>
			<path fill="#FEFEFE" d="M370.9,197.9c4.2,0,8.3,0,12.6,0c1.6,15.8,3.2,31.6,4.7,47.4c0.1,0,0.3,0,0.4,0.1
				c1.9-15.8,3.9-31.5,5.8-47.5c4.2,0,8.2,0,12.5,0c-3.9,27.9-7.7,55.7-11.6,83.5c-4.5,0-8.8,0-13.4,0
				C378.3,253.6,374.6,225.9,370.9,197.9z"/>
			<path fill="#FEFEFE" d="M223.1,245.9c0,7.5,0,14.7,0,22.1c4.1,0,8.2,0,12.3,0c0,4.8,0,9.3,0,13.9c-8.6,0-17,0-25.6,0
				c0-27.9,0-55.6,0-83.5c8.6,0,17,0,25.7,0c0,4.3,0,8.6,0,13.1c-4.1,0-8.1,0-12.3,0c0,6.5,0,12.9,0,19.5c4.1,0,8.2,0,12.3,0
				c0,5,0,9.7,0,14.8C231.2,245.9,227.1,245.9,223.1,245.9z"/>
			<path fill="#FEFEFE" d="M249.6,281.4c0-0.9,0-1.7,0-2.4c0-3.4-0.2-6.7,0-10.1c1.1-15-1.6-29.4-5.9-43.7
				c-2.7-8.7-4.5-17.6-6.7-26.7c4.5,0,8.8,0,13.1,0c1.8,8.8,3.7,17.7,5.5,26.6c0.2,0,0.5,0,0.7-0.1c1.9-8.8,3.9-17.7,5.8-26.5
				c4.3,0,8.3,0,12.6,0c-1.6,6.8-3,13.4-4.7,20.1c-2.3,9-4.9,17.9-7.3,26.8c-0.4,1.5-0.6,3.1-0.6,4.7c0,9.6,0,19.2,0,28.8
				c0,0.8,0,1.6,0,2.4C257.9,281.4,253.8,281.4,249.6,281.4z"/>
			<path fill="#FEFEFE" d="M181.1,198.5c4.5,0,8.8,0,13.2,0c0,23.2,0,46.2,0,69.5c4.2,0,8.2,0,12.4,0c0,4.7,0,9.3,0,13.9
				c-8.4,0-16.9,0-25.6,0C181.1,254.2,181.1,226.4,181.1,198.5z"/>
			<path fill="#FEFEFE" d="M421.8,281.5c-4.2,0-8.2,0-12.4,0c0-27.9,0-55.7,0-83.6c4.1,0,8.2,0,12.4,0
				C421.8,225.7,421.8,253.5,421.8,281.5z"/>
			<path fill="#FEFEFE" d="M272.8,235.5c7.5,0,15,0,22.7,0c0,3.4,0,6.7,0,10.2c-7.6,0-15,0-22.7,0
				C272.8,242.4,272.8,239.1,272.8,235.5z"/>
			<path fill="#020100" d="M154.7,233.9c0-7.5,0-14.7,0-22c1.5,0,2.9-0.1,4.3,0c2,0.3,3.3,1.4,3.3,3.5c0,5.2,0,10.4-0.1,15.6
				c-0.1,1.8-1.2,2.9-3.1,2.9C157.6,233.9,156.2,233.9,154.7,233.9z"/>
			<path fill="#020100" d="M314,210.9c1.5,0.1,2.8,0,4,0.2c2.4,0.5,3.2,1.9,3.3,4.8c0,12.6,0.1,25.1,0.1,37.7c0,3.1,0,6.2,0,9.4
				c0,4.2-0.9,5.1-5,5.1c-0.7,0-1.4,0-2.3,0C314,249,314,230.1,314,210.9z"/>
			<path fill="#020100" d="M441,268c0-19,0-37.9,0-57.3c2.2,0.4,4.4,0.3,6,1.3c1.2,0.8,2.1,2.9,2.1,4.4c0.1,15.7,0.1,31.4,0.1,47.1
				c0,3.5-0.7,4.2-4.1,4.5C443.8,268.1,442.5,268,441,268z"/>
			<path fill="#020100" d="M524.3,239.7c0,7.6,0,15.2,0,22.8c0,0.6,0,1.3,0,1.9c-0.1,3.4-1.3,5.3-3.5,5.5c-2.3,0.2-4.8-2.2-5.2-5.1
				c-0.1-0.6-0.1-1.1-0.1-1.7c0-16.2,0.1-32.4-0.1-48.6c0-4.3,3.6-5.7,6.2-4.7c2.1,0.8,2.7,2.5,2.7,4.6
				C524.3,222.9,524.3,231.3,524.3,239.7z"/>
			<path fill="#020100" d="M118.9,216.9c1,9.5,2,19,3.1,28.6c-1.9,0-3.3,0-5,0c0.5-9.6,0.9-19.1,1.4-28.6
				C118.6,216.9,118.7,216.9,118.9,216.9z"/>
			<path fill="#020100" d="M357.8,245.5c-2.2,0-3.9,0-5.8,0c0.9-9.5,1.8-19,2.6-28.4c0.2,0,0.4,0,0.7-0.1
				C356.1,226.5,356.9,235.9,357.8,245.5z"/>
		</g>
	</g>
</g>
<g id="Layer_2">
</g>
</svg>
