<?xml version="1.0" encoding="utf-8"?>
<!-- Generator: Adobe Illustrator 21.1.0, SVG Export Plug-In . SVG Version: 6.00 Build 0)  -->
<svg version="1.1" baseProfile="tiny" xmlns="http://www.w3.org/2000/svg" xmlns:xlink="http://www.w3.org/1999/xlink" x="0px"
	 y="0px" viewBox="0 0 640 480" overflow="scroll" xml:space="preserve">
<g id="Layer_3">
</g>
<g id="Layer_2">
	<g>
		<path fill="none" d="M562,434.9c0-2.2-2-2.6-3.8-2.6h-3.6v5.4h3.2C560,437.8,562,437.6,562,434.9z"/>
		<path fill="none" d="M557.7,426.1c-7,0-12.4,5.4-12.4,12.7c0,7.4,5.4,12.8,12.4,12.8c6.9,0,12.4-5.4,12.4-12.8
			C570.1,431.6,564.7,426.1,557.7,426.1z M562.2,447.7l-4.7-7.6h-3.1l0,0v7.6h-2.5v-17.6h6.7c4.2,0,6.2,1.5,6.2,5
			c0,3.1-2,4.5-4.6,4.8l5,7.7h-3V447.7z"/>
		<path fill="#FFFFFF" d="M525.4,224.6l-0.2-194.5h-28.6l-4.2-28.6L300,30H105.5v28.8L76.9,63l28.5,192.4l-0.2,194.5h28.9l4.2,28.6
			L330.7,450l194.5-0.1v-28.7l28.6-4.2L525.4,224.6z M147.8,465.8l-32.2-218c5.4,0.3,13.5-0.8,25-4.3c4.8-1.3,14-3.8,21.1-5.5
			c2.2,15.1,4.9,32.5,5,32.9c0,0,1.6,8,3.6,9.3c1.8,1.2,2.1,1.7,9.3,0.9c7.2-0.8,12.9-2.4,12.8-4.7c0,0,0.1-1-0.2-2.5
			c0,0-3.5-19.5-6.9-42.1c4.3-1.1,8.5-2.1,11.9-2.9c4-1,7.7-2.1,11.4-2.9c1.8,12.5,4.7,31.7,4.7,31.7c0.9,5.9,2.2,10.9,2.2,10.9
			s1.9,5.5,6.3,5.1c3.5-0.3,10.6-1.6,13.1-3.5c1.9-1.5-0.2-3.8-0.5-5.1c0,0-5.8-16.7-9.1-42.3c16.4-2.9,26.9-4,26.9-4
			s-18.8,19.3-12.7,33.6c6.1,14.3,25.2,10,38.3-6.7c0,0,5.5,16.1,23.1,10.7c0,0,0.8-0.2,0.9-0.8c0.1-0.6-0.5-1.3-1.2-1.6
			c0,0-5.9-2.7-6.5-12.6c-0.6-9.9,3.3-26.5,3.3-27.1s0.2-4.6-4.8-3.4c-5,1.2-11.1,5-12.4,6.3s-1.6,2.6-2.3,4.9
			c0,0-5.6,18.3-15.6,27.3c-10.9,9.8-8.3-3.5-5.2-10.2c0,0,6.1-14.2,20.5-25.4c0,0,4.4-3.1,8.5-4.8c1.3-0.5,2-2.3-0.8-3
			c0,0-3.3-0.6-8.3-0.4c0,0-19.4,0.8-52.7,7.7c-0.5-5.6-0.9-11.5-1.1-17.7c-0.6-20.7,1-29.2,1-29.2s0.5-2.9-1.3-3.9
			c0,0-1.5-1.5-5.9-1c-7.1,0.7-12.9,3.2-15.8,4.9c0,0-1.3,0.7-0.9,1.4c0.3,0.5,1.1,0.6,1.9,2.1c0,0,1.3,1.6,1.8,10.6
			c0,0,3.3,36.2,3.3,36.6c-4.2,1-8.5,2.1-13.1,3.3c-3.6,1-7,1.9-10.3,2.7c-1.4-10-2.6-20.1-3.3-29l-1.5-20.4c0,0,0.3-6.9-4.4-6.9
			c-4.3,0.1-17.6,3.8-26.2,10.6c-2.7,2.1,0.5,2.7,0.9,2.9c0,0,2.6,0.8,3.5,4.7c0,0,3.7,17.9,6,32.6l-0.3,0.1c0,0-30.1,8-44.9,16.7
			l-24.1-162l393.3-58.2l26,175.9l-1.1-7.2c-3.3-2-8.2-2.8-14.9-1.4c-23.2,4.7-34.1,26.1-34.1,26.1c-6.3,8.7-10.4,31.5,12.1,28.9
			s34.1-18.1,38.7-25.7c0.7-1.1,1.3-2.2,1.8-3.5L541,407.5L147.8,465.8z M159.2,221.4h0.2c0.2,1.2,0.3,2.3,0.5,3.4
			c0.2,1.4,0.4,2.9,0.6,4.5c-13.9,3.6-23.5,6-28.9,6.7c0,0-5,1.1-5.2-0.6c-0.2-1.6,2.6-2.7,4.1-3.6l0,0
			C130.4,231.8,142.8,225.4,159.2,221.4z M478.4,227.5c-2.3,1-6.6,2.6-6.1-7s7-20.6,10.1-24.1c3.2-3.5,5.5-6.3,9.4-6.7
			c0,0,6.1-0.1,2.2,14.5l0,0C490.1,218.8,480.7,226.5,478.4,227.5z"/>
		<path fill="#FFFFFF" d="M454.5,192.9c3.8-1,6.4,1.5,7.4,2.5c0.9,1,1.5,0.6,1.5,0.6c2.6-0.9,5-5.2,5-5.2c1.1-1.5,5.2-12.4-5.7-11.6
			l0,0c-12.2,0.8-22.4,12.3-27.1,18.6c-0.1,0.1-0.1,0.1-0.2,0.1s-0.2,0-0.3-0.1c0,0,0-0.1-0.1-0.1v-0.1l0,0c-2-3.4-5.9-7.4-13.2-7
			c-4.5,0.3-9.9,3.8-10.3,5c0,0-0.9,1.5,0.8,1.8c1.7,0.3,10.1,0.7,9.7,9.6c0,0,0.1,12.8-4.8,30.3c0,0-2.8,5.9,3.6,5.8
			c6.4-0.2,18.4-1.8,18.8-6s0.2-3.5,0.2-3.5s0.1-15.4-1.5-25.4c0-0.2,0-0.5,0.1-0.6C444.5,195.5,454.5,192.9,454.5,192.9z"/>
		<path fill="#FFFFFF" d="M339.8,160.8c0,0,4.5,1.6,6.8,9.2c0,0,10.7,30.3,12.5,73.8c0.2,5,2.6,6.2,2.6,6.2c8,4.7,24.5-8,36.1-20.4
			c11.8-12.6,19.3-29.9,4.9-34.9c-11.6-4-24,3.9-28.4,7.2c0,0,0,0-0.1,0c-0.2,0-0.4-0.1-0.4-0.3c-1.4-13.2-3-25.8-3.8-29.5
			c-2.1-8.7-1.1-19.6-13.5-17.7c-3.8,0.6-12.4,2-17.2,5C338.8,159.7,338.3,160.4,339.8,160.8z M388.8,207.8
			c4.3,7.3-2.4,24.3-11.4,29.9c0,0-1.3-13.4-2.9-28.2C378,206.8,385.5,202.1,388.8,207.8z"/>
		<path fill="#FFFFFF" d="M408.6,257.8c0,0-0.5-1.6-0.8-2.3c-0.3-0.8-1.1-0.6-1.1-0.6c-1.7,0.3-1.2,2.3-1.2,2.3
			c5.6,23.4,8.5,79-37.1,97.8c-45.7,18.8-84-6.7-90.1-10.9c-17.1-11.6-19.8-21.3-20.1-22.8c0-0.1,0.1-0.2,0.2-0.2
			c3.1,0.3,39.9,3.6,76.6-10.9c38.4-15.2,64-45.7,69.6-59.6c0,0,0.9-1.8-0.2-2.3s-1.8,0.9-1.8,0.9c-0.4,0.5-0.8,1.1-1.3,1.6
			c-16,20.5-39.2,41.3-81.9,53.1c-46.2,12.8-82.8,0-82.8,0s-0.7-0.3-1.1-0.1c-0.4,0.2-0.4,1.4-0.3,1.9c0,0,3.3,46.1,66.9,63.7
			C362.5,386.1,432.7,352.6,408.6,257.8L408.6,257.8z"/>
		<path fill="#FFFFFF" d="M313,285c9.3-2.2,16.8-5.7,30.2-20.4c0,0,13.9-14.4,9.7-25.4c0,0-0.9-4.8-10.4-7.1c0,0-15.1-3.5-19-5.1
			c-4-1.6-4.7-5.8-4.2-8.5c0,0,1-7.8,17.5-14.5c0,0,5.3-2.1,12.2-3c0.5-0.1,0.4-0.5,0.4-0.5c0.1-1.1-0.4-3.8-0.4-3.8
			s-2.2-11-12.4-8.8c0,0-9.9,2.2-22.4,12.8c0,0-17,13.5-12.3,26.8c0,0,1.4,3.7,7,5.2s8,2,12.1,2.6h-0.4c0,0,9.1,0.9,11.5,4.6
			c2.5,3.7-1.8,10.4-2.1,11c-0.3,0.6-6.9,10.3-17.6,18c0,0-7.1,4.8-14.2,1.8c0,0-1.4-0.5-2-1.1c-0.3-0.2-2.6-0.9-2.8,0.9
			c-0.2,1.8,2.2,4.3,2.9,5.3C296.4,276,303.7,287.3,313,285z"/>
		<path fill="#00949B" d="M388.8,207.8c-3.4-5.7-10.9-0.9-14.3,1.7c1.6,14.8,2.9,28.2,2.9,28.2C386.5,232,393.2,215.1,388.8,207.8z"
			/>
		<path fill="#00949B" d="M491.9,189.7c-4,0.4-6.3,3.1-9.4,6.7c-3.2,3.5-9.6,14.6-10.1,24.1c-0.5,9.6,3.8,8,6.1,7
			c2.3-1,11.7-8.7,15.6-23.3l0,0C498,189.6,491.9,189.7,491.9,189.7z"/>
		<path fill="#00949B" d="M126.3,235.3c0.2,1.7,5.2,0.6,5.2,0.6c5.4-0.8,15-3.1,28.9-6.7c-0.2-1.6-0.4-3.1-0.6-4.5
			c-0.1-1.1-0.3-2.2-0.5-3.4h-0.2c-16.4,4-28.8,10.4-28.8,10.4l0,0C128.8,232.6,126.1,233.8,126.3,235.3z"/>
		<path fill="#00949B" d="M511.5,207.4c-0.5,1.2-1.1,2.4-1.8,3.5c-4.7,7.6-16.3,23.2-38.7,25.7s-18.4-20.1-12.1-28.9
			c0,0,10.8-21.4,34.1-26.1c6.8-1.4,11.6-0.6,14.9,1.4l1.1,7.2L483,14.3L89.6,72.4l23.9,161.9c14.8-8.7,44.9-16.7,44.9-16.7l0.3-0.1
			c-2.3-14.7-6-32.6-6-32.6c-0.9-3.8-3.5-4.7-3.5-4.7c-0.4-0.3-3.6-0.8-0.9-2.9c8.6-6.8,22-10.5,26.2-10.6c4.7-0.1,4.4,6.9,4.4,6.9
			l1.5,20.4c0.7,8.9,2,19,3.3,29c3.3-0.9,6.7-1.8,10.3-2.7c4.5-1.2,8.9-2.3,13.1-3.3c-0.1-0.4-3.3-36.6-3.3-36.6
			c-0.5-9.1-1.8-10.6-1.8-10.6c-0.8-1.5-1.6-1.6-1.9-2.1c-0.4-0.6,0.9-1.4,0.9-1.4c2.9-1.7,8.7-4.2,15.8-4.9c4.4-0.5,5.9,1,5.9,1
			c1.8,1,1.3,3.9,1.3,3.9s-1.6,8.5-1,29.2c0.2,6.2,0.6,12.1,1.1,17.7c33.3-7,52.7-7.7,52.7-7.7c5-0.3,8.3,0.4,8.3,0.4
			c2.8,0.8,2,2.5,0.8,3c-4.1,1.7-8.5,4.8-8.5,4.8c-14.4,11.2-20.5,25.4-20.5,25.4c-3.1,6.7-5.8,20,5.2,10.2
			c10-9,15.6-27.3,15.6-27.3c0.7-2.4,0.9-3.6,2.3-4.9c1.3-1.3,7.4-5.1,12.4-6.3s4.8,2.8,4.8,3.4s-3.8,17.2-3.3,27.1
			c0.6,9.9,6.5,12.6,6.5,12.6c0.7,0.4,1.3,1,1.2,1.6c-0.1,0.6-0.9,0.8-0.9,0.8c-17.6,5.4-23.1-10.7-23.1-10.7
			c-13.1,16.7-32.2,20.9-38.3,6.7c-6.1-14.3,12.7-33.6,12.7-33.6s-10.5,1-26.9,4c3.3,25.6,9.1,42.3,9.1,42.3
			c0.3,1.3,2.4,3.6,0.5,5.1c-2.4,2-9.5,3.2-13.1,3.5c-4.4,0.4-6.3-5.1-6.3-5.1s-1.3-5-2.2-10.9c0,0-2.9-19.2-4.7-31.7
			c-3.7,0.8-7.4,1.9-11.4,2.9c-3.4,0.8-7.5,1.9-11.9,2.9c3.3,22.6,6.9,42.1,6.9,42.1c0.3,1.5,0.2,2.5,0.2,2.5
			c0.1,2.3-5.6,3.9-12.8,4.7c-7.2,0.7-7.5,0.3-9.3-0.9c-1.9-1.4-3.6-9.3-3.6-9.3c-0.1-0.4-2.8-17.8-5-32.9
			c-7.1,1.8-16.3,4.2-21.1,5.5c-11.5,3.5-19.6,4.6-25,4.3l32.2,218l393.3-58.2L511.5,207.4z M339.2,159.5c4.8-3,13.4-4.5,17.2-5
			c12.4-1.8,11.5,9.1,13.5,17.7c0.9,3.7,2.4,16.3,3.8,29.5c0.1,0.2,0.2,0.3,0.4,0.3c0,0,0,0,0.1,0c4.4-3.2,16.8-11.2,28.4-7.2
			c14.4,5,6.9,22.2-4.9,34.9c-11.6,12.4-28.1,25.2-36.1,20.4c0,0-2.4-1.2-2.6-6.2c-1.8-43.6-12.5-73.8-12.5-73.8
			c-2.3-7.6-6.8-9.2-6.8-9.2C338.3,160.4,338.8,159.7,339.2,159.5z M293.5,270.6c0.2-1.8,2.5-1.1,2.8-0.9c0.7,0.5,2,1.1,2,1.1
			c7.2,3,14.2-1.8,14.2-1.8c10.6-7.8,17.2-17.5,17.6-18c0.3-0.6,4.6-7.2,2.1-11c-2.4-3.8-11.5-4.6-11.5-4.6h0.4
			c-4.1-0.7-6.5-1.2-12.1-2.6c-5.6-1.5-7-5.2-7-5.2c-4.7-13.3,12.3-26.8,12.3-26.8c12.6-10.6,22.4-12.8,22.4-12.8
			c10.2-2.1,12.4,8.8,12.4,8.8s0.5,2.7,0.4,3.8c0,0,0.1,0.4-0.4,0.5c-6.9,0.9-12.2,3-12.2,3c-16.5,6.7-17.5,14.5-17.5,14.5
			c-0.5,2.7,0.2,6.8,4.2,8.5c3.9,1.6,19,5.1,19,5.1c9.5,2.3,10.4,7.1,10.4,7.1c4.2,11.1-9.7,25.4-9.7,25.4
			c-13.5,14.7-20.9,18.2-30.2,20.4c-9.3,2.2-16.6-9.1-16.6-9.1C295.6,274.9,293.3,272.4,293.5,270.6z M302,369.3
			c-63.6-17.6-66.9-63.7-66.9-63.7c0-0.5-0.1-1.7,0.3-1.9c0.4-0.2,1.1,0.1,1.1,0.1s36.6,12.7,82.8,0c42.7-11.8,65.9-32.6,81.9-53.1
			c0.4-0.6,0.9-1.1,1.3-1.6c0,0,0.7-1.3,1.8-0.9c1.2,0.5,0.2,2.3,0.2,2.3c-5.5,13.9-31.1,44.4-69.6,59.6
			c-36.7,14.5-73.5,11.2-76.6,10.9c-0.1,0-0.2,0.1-0.2,0.2c0.3,1.5,3,11.2,20.1,22.8c6.1,4.2,44.4,29.7,90.1,10.9
			c45.7-18.8,42.7-74.4,37.1-97.8c0,0-0.6-2,1.2-2.3c0,0,0.8-0.2,1.1,0.6c0.3,0.7,0.8,2.3,0.8,2.3l0,0
			C432.7,352.6,362.5,386.1,302,369.3z M439.8,233.6c0,0,0.2-0.8-0.2,3.5c-0.4,4.2-12.4,5.9-18.8,6c-6.4,0.2-3.6-5.8-3.6-5.8
			C422,219.8,422,207,422,207c0.4-8.9-8.1-9.3-9.7-9.6c-1.7-0.3-0.8-1.8-0.8-1.8c0.4-1.2,5.8-4.8,10.3-5c7.3-0.4,11.2,3.6,13.2,7
			l0,0v0.1c0,0,0,0.1,0.1,0.1c0.1,0.1,0.2,0.1,0.3,0.1c0.1,0,0.1-0.1,0.2-0.1c4.7-6.3,14.9-17.8,27.1-18.6l0,0
			c10.9-0.7,6.8,10.1,5.7,11.6c0,0-2.4,4.4-5,5.2c0,0-0.6,0.4-1.5-0.6s-3.5-3.5-7.4-2.5c0,0-10,2.6-16,14.7c0,0.1-0.1,0.3-0.1,0.6
			C439.9,218.3,439.8,233.6,439.8,233.6z"/>
		<path fill="#00949B" d="M564.8,435.1c0-3.5-2.1-5-6.2-5h-6.7v17.6h2.7v-7.6l0,0h3.1l4.7,7.6h3l-5-7.7
			C562.8,439.6,564.8,438.2,564.8,435.1z M554.5,437.8L554.5,437.8L554.5,437.8v-5.4h3.6c1.9,0,3.8,0.4,3.8,2.6c0,2.7-2,2.9-4.3,2.9
			h-3.1V437.8z"/>
		<path fill="#00949B" d="M557.7,423.6c-8.4,0-15.5,6.5-15.5,15.2c0,8.8,7.1,15.3,15.5,15.3c8.3,0,15.4-6.5,15.4-15.3
			C573.2,430.1,566.1,423.6,557.7,423.6z M557.7,451.6c-7,0-12.4-5.4-12.4-12.8c0-7.2,5.4-12.7,12.4-12.7c6.9,0,12.4,5.4,12.4,12.7
			C570.1,446.2,564.7,451.6,557.7,451.6z"/>
	</g>
</g>
</svg>
