<?xml version="1.0" encoding="utf-8"?>
<!-- Generator: Adobe Illustrator 21.1.0, SVG Export Plug-In . SVG Version: 6.00 Build 0)  -->
<svg version="1.1" id="Layer_1" xmlns="http://www.w3.org/2000/svg" xmlns:xlink="http://www.w3.org/1999/xlink" x="0px" y="0px"
	 viewBox="0 0 640 480" style="enable-background:new 0 0 640 480;" xml:space="preserve">
<style type="text/css">
	.st0{fill:#FFFFFF;}
</style>
<path d="M536.4,317.2l-3.2,24.6l95.7-23l12.4-47.2c-9.3-7.9-14.6-19.5-14.6-31.7c0-12,5.2-23.4,14.2-31.3L628,159.8l-95.4-23
	l3.5,24.8H109.8l3.5-24.8l-95.4,23L5.1,208.7c9,7.9,14.2,19.3,14.2,31.3c0,12.7-5.7,24-14.6,31.7l12.4,47.2l95.7,23l-3.2-24.6
	L536.4,317.2L536.4,317.2z"/>
<path class="st0" d="M543.7,310.7l-3,22.7l82.2-19.4l10.9-40.4c-8.8-9-13.7-21-13.7-33.6c0-12.7,4.9-24.2,12.9-32.8l-10.7-42.6
	l-82.2-19.7l3.5,23.2H102.2l3.5-23.2l-82.2,19.7l-10.7,42.6c8.3,8.9,12.9,20.6,12.9,32.8c0,12.6-4.9,24.6-13.7,33.6L23,314
	l82.2,19.4l-3-22.7L543.7,310.7L543.7,310.7L543.7,310.7z"/>
<path d="M620.2,305.9l8.5-31.1c-8.5-9.6-13.1-22-13.1-34.8c0-13.1,4.8-25.1,12.7-34.3l-8.6-32.7H26.3l-8.6,32.7
	c8.2,9.5,12.7,21.7,12.7,34.3c0,13.3-4.9,25.5-13.1,34.8l8.5,31.1H620.2z M617.7,311.1h-68.9l-2.2,17.3L617.7,311.1z M619.3,167.8
	h-70.8l-2.4-17.5L619.3,167.8L619.3,167.8z"/>
<path class="st0" d="M215.4,210.5c6.2,0,11.2-5,11.2-11.2c0-6.2-5-11.2-11.2-11.1c-6.2,0-11.2,5-11.2,11.1
	C204.3,205.5,209.3,210.5,215.4,210.5z"/>
<path d="M28.2,311.1h68.9l2.2,17.3L28.2,311.1L28.2,311.1z M26.6,167.8h70.8l2.4-17.5L26.6,167.8z"/>
<path class="st0" d="M96.4,265.6c0,2.7-1.4,8.9-8.9,9.7l0.8,7.3h38.1l0.5-7.6c-4.1-0.3-7.8-2.2-8.4-9.2v-57.2
	c0-4.6-0.4-10.8,7.7-10.8l-1.1-7.6H89.6l-1.1,7.6c4.1,0,7.8,0,7.8,11.3v17.6H73.1v-17.6c0-11.3,3.5-11.3,7.6-11.3l-0.8-7.6h-36
	l-0.8,7.6c8.8,0,7.8,6.2,7.8,10.8v57.2c-0.5,7-4.3,8.9-8.4,9.2l0.5,7.6h38.1l0.8-7.3c-7.6-0.8-8.9-7-8.9-9.7v-26.7h23.2L96.4,265.6
	L96.4,265.6L96.4,265.6z M227.1,264.2c0,2.7,0.4,10.4,8,11.2l-0.8,7.3h-35.5l-0.5-7.6c4.1-0.3,7.3-2.2,7.8-9.2v-32.4
	c0-4.6-0.8-10.3-6.8-10.8l0.8-7.6h27L227.1,264.2L227.1,264.2z M150.7,214.9c24.6-7.3,37.3,10.8,40,15.9c2.7,5.1,6.2,10.8-6.2,16.5
	c-12.4,5.7-24.6,10-33.4,12.4c1.6,5.3,6.9,14.9,18.2,12.7c11.4-2.2,14.9-7.6,17-9.4c3.2-2.7,5.4-1.9,7,0.3c1.6,2.2,2.5,5.1-1.4,8.6
	c-3.8,3.5-12.2,12.7-26.8,12.7s-30.3-8.9-35.1-23.2C125.3,247.1,128,222.5,150.7,214.9L150.7,214.9z"/>
<path d="M156,225c6.1-2.3,13.4-1.4,16.6,8.4c3.2,9.7-3.1,10.5-5.3,11.3c-2.2,0.8-6.7,2.8-9.7,3.5c-5.7,1.3-8.8,0.9-8.8-6.6
	C148.8,234,151.8,227.3,156,225z"/>
<path class="st0" d="M430.7,224.6c-0.8-2.5-2.6-4.3-6-4.6l0.8-7.6h29.2l1.1,7.6c-2.2,0.8-5.7,1.9-10,6.5
	c0.3,0.3-11.1,10.8-11.1,10.8l17.9,32.9c1.6,2.5,4.1,4.8,7.9,5.2l-0.8,7.3h-22L421,251.6c-0.3-0.3-5.9,5.4-5.9,5.4v7.2
	c0,2.7,0.4,10.4,8,11.2l-0.8,7.3h-35.5l-0.5-7.6c4.1-0.3,7.3-2.2,7.8-9.2v-57.2c0-4.6-0.8-10.3-6.8-10.8l0.8-7.6h27v50L430.7,224.6
	L430.7,224.6z M269.9,215.2h-26l-0.8,7.6c5.9,0.5,6.8,6.2,6.8,10.8V266c-0.5,7-3.8,8.9-7.8,9.2l0.5,7.6h34.5l0.8-7.3
	c-7.6-0.8-8-8.5-8-11.2v-27.4c0.3-3.5,3.4-9.4,9.9-9.4c6.5,0,6.9,6.8,6.9,10.8v31.3c0,5.1,2.4,14,14.6,14c12.2,0,13-5.4,14.1-6.8
	c1.1-1.3,1.4-3.5,0.3-4.6c-1.1-1.1-2.9-1.9-4.1-0.5c-1.2,1.4-3.3,1.9-4.1,1.6c-1.4-0.5-1.4-3-1.4-4.9v-37c0-6.5-1.4-11.6-7.3-15.7
	c-5.9-4-13.8-2.7-17.3-1.3c-3.5,1.3-7.3,3.8-9.7,5.7L269.9,215.2L269.9,215.2z M483.3,214.9c24.6-7.3,37.3,10.8,40,15.9
	c2.7,5.1,6.2,10.8-6.2,16.5c-12.4,5.7-24.6,10-33.4,12.4c1.6,5.3,6.9,14.9,18.2,12.7c11.4-2.2,14.9-7.6,17-9.4
	c3.2-2.7,5.4-1.9,7,0.3c1.6,2.2,2.5,5.1-1.3,8.6c-3.8,3.5-12.2,12.7-26.8,12.7c-14.6,0-30.3-8.9-35.1-23.2
	C457.9,247.1,460.6,222.5,483.3,214.9L483.3,214.9z M339.6,214.9c24.6-7.3,37.3,10.8,40,15.9c2.7,5.1,6.2,10.8-6.2,16.5
	c-12.4,5.7-24.6,10-33.4,12.4c1.6,5.3,6.9,14.9,18.2,12.7c11.4-2.2,14.9-7.6,17-9.4c3.2-2.7,5.4-1.9,7,0.3c1.6,2.2,2.5,5.1-1.4,8.6
	c-3.8,3.5-12.2,12.7-26.8,12.7c-14.6,0-30.3-8.9-35.1-23.2C314.2,247.1,316.9,222.5,339.6,214.9L339.6,214.9z"/>
<path d="M488.6,225c6.1-2.3,13.4-1.4,16.6,8.4c3.2,9.7-3.1,10.5-5.3,11.3c-2.2,0.8-6.7,2.8-9.7,3.5c-5.7,1.3-8.8,0.9-8.8-6.6
	C481.4,234,484.4,227.3,488.6,225L488.6,225z M344.9,225c6.1-2.3,13.4-1.4,16.6,8.4c3.2,9.7-3.1,10.5-5.3,11.3
	c-2.2,0.8-6.7,2.8-9.7,3.5c-5.7,1.3-8.8,0.9-8.8-6.6C337.7,234,340.7,227.3,344.9,225z"/>
<path class="st0" d="M558.2,215.2h-26l-0.8,7.6c5.9,0.5,6.8,6.2,6.8,10.8V266c-0.5,7-3.8,8.9-7.8,9.2l0.5,7.6h34.5l0.8-7.3
	c-7.6-0.8-8-8.5-8-11.2v-27.4c0.3-3.5,3.4-9.4,9.9-9.4c6.5,0,6.9,6.8,6.9,10.8v31.3c0,5.1,2.4,14,14.6,14c12.2,0,13-5.4,14.1-6.8
	c1.1-1.3,1.3-3.5,0.3-4.6c-1.1-1.1-2.9-1.9-4.1-0.5c-1.2,1.4-3.3,1.9-4.1,1.6c-1.3-0.5-1.3-3-1.3-4.9v-37c0-6.5-1.3-11.6-7.3-15.7
	c-6-4.1-13.8-2.7-17.3-1.3c-3.5,1.3-7.3,3.8-9.7,5.7L558.2,215.2L558.2,215.2z M595.9,210.9c-4.8,0-9.1-3.3-9.1-9c0-5.7,4.3-9,9.1-9
	c4.8,0,9,3.3,9,9C605,207.5,600.7,210.9,595.9,210.9L595.9,210.9z"/>
<path d="M595.9,194.3c-3.9,0-7.1,3-7.1,7.6c0,4.6,3.2,7.6,7.1,7.6v0c3.8,0,7.1-3.1,7.1-7.6C603,197.3,599.8,194.3,595.9,194.3
	L595.9,194.3z"/>
<path class="st0" d="M600.1,206.7h-2.5l-2.2-4.1h-1v4.1h-2.1V197h3.6c2.5,0,4,0.7,4,2.9c0,1.8-1.1,2.4-2.3,2.5L600.1,206.7
	L600.1,206.7z"/>
<path d="M596.3,201h-1.8v-2.3h1.4c0.8,0,1.9,0.1,1.9,1.1C597.7,200.8,597.2,201,596.3,201L596.3,201z"/>
</svg>
