<svg id="Layer_1" data-name="Layer 1" xmlns="http://www.w3.org/2000/svg" viewBox="0 0 640 480"><defs><style>.cls-1{fill:#fff;}.cls-2{fill:#eb1c24;}</style></defs><title>Artboard 1</title><g id="Layer_2" data-name="Layer 2"><g id="Layer_1-2" data-name="Layer 1-2"><ellipse class="cls-1" cx="320.96" cy="245.15" rx="309.5" ry="167"/><path class="cls-2" d="M318.07,421.15c-13.39-.68-28.53-1.19-43.62-2.29a487.66,487.66,0,0,1-92.15-15.69,387.93,387.93,0,0,1-73.37-27.6C88,365,68.37,352.51,51,336.67,36.29,323.27,23.85,308.1,15.29,290c-7.77-16.46-11.37-33.75-10-52,1.21-16.21,6.26-31.24,14.27-45.32,10.57-18.58,25-33.79,41.53-47.09,17.42-14,36.55-25.18,56.75-34.6A398.62,398.62,0,0,1,202,82.91c13.1-2.85,26.3-5.37,39.58-7.23,14.08-2,28.27-3.22,42.45-4.35a419.33,419.33,0,0,1,52-.92c14.11.63,28.21,1.53,42.27,2.83a464.76,464.76,0,0,1,71.3,12.48c30.39,7.7,59.73,18.21,87.46,33,21.62,11.5,41.65,25.22,58.9,42.74,12.52,12.71,23,26.89,30,43.42q17.18,40.65-.06,81.34c-7.94,18.66-20.17,34.26-34.81,48.09-18,17-38.59,30.29-60.65,41.37-27.77,14-57,23.86-87.15,31.08a433.45,433.45,0,0,1-47.08,8.78q-19.81,2.47-39.76,4C344.25,420.35,332,420.56,318.07,421.15Zm1.55-16.33a550.71,550.71,0,0,0,62.57-3.5,499.43,499.43,0,0,0,49.49-8.08c30-6.5,59-15.64,86.76-28.83,21.32-10.14,41.31-22.35,58.89-38.26,13.89-12.57,25.61-26.82,33.22-44.12,9.53-21.67,10.63-43.75,2.77-66.16-5.43-15.5-14.42-28.8-25.49-40.77-13.58-14.69-29.45-26.5-46.63-36.6-28.81-16.93-59.79-28.47-92-36.8a449.68,449.68,0,0,0-66.89-12.16c-13.15-1.34-26.33-2.41-39.53-3.09-16.67-.86-33.37-.65-50.06.15-15,.72-29.91,1.85-44.73,4-13.32,2-26.62,4.22-39.8,6.93A385.53,385.53,0,0,0,128,123.19c-22.57,10.1-43.8,22.4-62.61,38.6-13.15,11.33-24.52,24.15-32.84,39.5-7.19,13.27-11.37,27.4-11.64,42.57-.29,16.37,4,31.6,11.74,45.9,9,16.45,21.38,30,35.71,41.82,17.06,14.13,36,25.2,56.07,34.43,27.83,12.81,56.92,21.72,86.87,27.94a514.17,514.17,0,0,0,58.94,8.66q24.65,2.21,49.37,2.2Z"/><path class="cls-2" d="M72.67,298.45V182.78H95.56V230h49.62V182.75h22.88V298.43H145.25V248.74H95.62v49.71Z"/><path class="cls-2" d="M394.36,253.26v45.17H372.88V182.83h21.47V251l8.25-10.25q10-12.4,19.94-24.8a2.44,2.44,0,0,1,1.48-1c8.21-.06,16.42,0,25.1,0L418,251.58l35.13,47h-25a3,3,0,0,1-2.86-1.45Q410.5,276,395.65,255C395.32,254.55,395,254.09,394.36,253.26Z"/><path class="cls-2" d="M532.57,262.33H470.88c-.14,9.49,4.51,20.81,18.68,22.09a23.62,23.62,0,0,0,13.22-2.15,15.73,15.73,0,0,0,7.46-7.61,1.55,1.55,0,0,1,1.14-.77h19.41c-.42,1.28-.74,2.43-1.17,3.55-4.28,11-12.13,18.21-23.49,21.46a49.83,49.83,0,0,1-28.23,0c-12.24-3.6-20.93-11.38-25.34-23.35-5.46-14.8-4.93-29.46,3.21-43.25,6.62-11.2,16.79-17.43,29.64-19.2,8.8-1.22,17.35-.3,25.35,3.81,10.24,5.26,16.27,13.95,19.6,24.7A57.14,57.14,0,0,1,532.57,262.33Zm-21.48-14.45c-.43-2-.72-3.93-1.24-5.76-1.75-6.18-5.08-11-11.64-12.82a25,25,0,0,0-14.18.15c-8,2.43-12.9,10.55-13,18.43Z"/><path class="cls-2" d="M264.38,262.35H202.65c0,10.05,5,21.06,19.24,22.11a23,23,0,0,0,12.88-2.27,15.79,15.79,0,0,0,7.23-7.41,1.59,1.59,0,0,1,1.06-.87c6.45-.05,12.9,0,19.5,0-2.15,7.56-5.95,13.87-12.05,18.68-6.41,5.05-13.85,7.38-21.86,8.05-9.2.78-18.11-.36-26.38-4.71a37.13,37.13,0,0,1-18.55-22.06c-4.42-13.55-4-27,2.75-39.67,6.53-12.26,17-19.19,30.78-21.1,9.43-1.31,18.52-.16,26.89,4.66,9.36,5.39,14.92,13.76,18,23.89A57.87,57.87,0,0,1,264.38,262.35Zm-21.51-14.48c-.41-2-.7-3.86-1.21-5.69-1.74-6.26-5.12-11.13-11.75-12.93a25,25,0,0,0-14,.19c-7.91,2.4-12.84,10.24-13,18.42Z"/><path class="cls-2" d="M277.18,214.94h20.46V226.8a13.38,13.38,0,0,0,1-1.07c6-8.71,14.41-12.85,24.81-13.14a40.16,40.16,0,0,1,13.72,1.85c9.2,3,14.15,9.74,15.87,18.92a77.3,77.3,0,0,1,1.28,13.49c.15,16.8.06,33.59.06,50.39v1.19H332.71v-1.88c0-16.16.06-32.31-.12-48.47a35.46,35.46,0,0,0-1.63-9.7c-1.62-5.38-5.57-8.39-11.13-8.87a29,29,0,0,0-8.1.4c-7.29,1.45-10.77,6.65-12,13.49a63.59,63.59,0,0,0-.94,10.8c-.1,14.13,0,28.26,0,42.39v1.84H277.18Z"/><path class="cls-2" d="M566.76,298.47H545.39V182.78h21.37Z"/></g></g></svg>