<?xml version="1.0" encoding="utf-8"?>
<!-- Generator: Adobe Illustrator 22.1.0, SVG Export Plug-In . SVG Version: 6.00 Build 0)  -->
<svg version="1.1" id="Layer_2_1_" xmlns="http://www.w3.org/2000/svg" xmlns:xlink="http://www.w3.org/1999/xlink" x="0px" y="0px"
	 viewBox="0 0 640 480" style="enable-background:new 0 0 640 480;" xml:space="preserve">
<style type="text/css">
	.st0{fill:#1A496D;}
</style>
<g>
	<path class="st0" d="M78,390.4c-0.9-0.9-2.8-0.9-3.7-1.8c-35.9-31.3-63.5-68.1-71.8-116C-6.7,218.3,9.9,171.3,43,129
		c27.6-35,62.6-59.8,102.2-78.2c50.6-23,104.9-34.1,160.1-32.2C396.4,22.2,479.3,50.8,552,106c30.4,23.9,56.1,51.5,72.7,87.4
		c28.5,60.7,16.6,128.8-30.4,176.7c-35,35.9-79.1,58.9-127,72.7c-58,17.5-117.8,23-178.5,15.6c-52.5-6.4-102.2-23-145.4-55.2
		c-20.2-14.7-35.9-33.1-45.1-57.1c-15.6-40.5-4.6-80.1,29.5-106.8c23-18.4,49.7-29.5,78.2-35.9c5.5-0.9,7.4-3.7,7.4-9.2
		c0-22.1,0-44.2,0-66.3c0-3.7,0-7.4,0-12c3.7,0,5.5,0,8.3,0c25.8,0,51.5,0,77.3,0c6.4,0,8.3,2.8,8.3,8.3c0,23,0,46,0,69.9
		c0,4.6,0.9,7.4,6.4,8.3c26.7,4.6,52.5,13.8,72.7,33.1c23.9,22.1,33.1,48.8,26.7,81c-7.4,33.1-29.5,51.5-60.7,59.8
		c-19.3,5.5-39.6,7.4-59.8,5.5c-1.8,0-2.8,0-4.6-0.9c0,0-0.9-0.9-1.8-2.8c16.6,0.9,32.2,0,46.9-5.5c14.7-5.5,28.5-12.9,40.5-25.8
		c-9.2,0-16.6,0-24.8,0c0-3.7,0-5.5,0-8.3c0-32.2,0-64.4,0-96.6c0-5.5-1.8-9.2-7.4-11c-11-5.5-22.1-10.1-35-12c0,42.3,0,84.7,0,127
		c-31.3,0-62.6,0-93.9,0c0-1.8,0-4.6,0-7.4c0-32.2,0-65.3,0-97.6c0-4.6,1.8-7.4,5.5-10.1c23.9-14.7,49.7-19.3,76.4-20.2
		c4.6,0,9.2,0,13.8,0c0,0,0,0,0.9-0.9c-0.9-0.9-1.8-1.8-3.7-1.8c-38.7-9.2-77.3-8.3-113.2,10.1c-60.7,31.3-78.2,109.5-35.9,163.8
		c23.9,31.3,57.1,48.8,94.8,57.1c46.9,11,93.9,8.3,140.8-0.9c45.1-8.3,86.5-23.9,123.3-51.5c38.7-28.5,68.1-63.5,78.2-111.4
		c12.9-60.7-6.4-131.6-70.9-173c-37.7-23.9-79.1-35-122.4-41.4c-35.9-5.5-71.8-7.4-107.7-4.6c-66.3,4.6-127.9,21.2-184.1,57.1
		c-34.1,21.2-62.6,47.9-80.1,84.7C4.4,245.9,9,292.8,34.7,338.8c10.1,17.5,23,33.1,38.7,46.9c0.9,0.9,1.8,1.8,2.8,2.8
		C78.9,388.5,78,388.5,78,390.4z"/>
	<path class="st0" d="M444.3,344.3c-9.2,0-17.5,0-25.8,0c3.7-9.2,7.4-17.5,9.2-26.7c8.3-35.9-6.4-69.9-37.7-90.2
		c-11-7.4-23-12-35-17.5c-1.8-0.9-4.6-3.7-4.6-4.6c0-29.5,0-59.8,0-90.2c31.3,0,61.7,0,93.9,0C444.3,191.6,444.3,267,444.3,344.3z"
		/>
</g>
</svg>
