<?xml version="1.0" encoding="utf-8"?>
<!-- Generator: Adobe Illustrator 21.1.0, SVG Export Plug-In . SVG Version: 6.00 Build 0)  -->
<svg version="1.1" id="Layer_1" xmlns="http://www.w3.org/2000/svg" xmlns:xlink="http://www.w3.org/1999/xlink" x="0px" y="0px"
	 viewBox="0 0 640 480" style="enable-background:new 0 0 640 480;" xml:space="preserve">
<g transform="translate(0.000000,552.000000) scale(0.100000,-0.100000)">
	<path d="M90,3789.3v-761.9h150.3h150.3v305.8V3639h368h368l1-304.3l1.6-304.8h150.3h150.3l1.6,760.9l1,760.4h-152.9h-152.9v-305.8
		v-305.8l-366.5,1l-367,1.6l-1.6,304.8l-1,304.3H240.3H90V3789.3z"/>
	<path d="M2715.4,4521.7c-16.1-137.4-82.4-260.7-195.9-364.4c-79.3-72-331.7-285.1-337.4-285.1c-1.6,0-3.1,151.9-3.1,336.9v336.9
		h-150.3h-150.3l1-757.8l1.6-758.3l149.3-1.6l148.8-1v234.3l0.5,234.8l103.7,85.5c57.5,47.2,110.4,90.7,118.2,96.4l13.5,11.4
		l217.7-331.2l217.2-331.2h172.6c94.9,0,172.6,1.6,172.6,4.1c0,2.1-126,192.8-279.9,423.5l-280.4,419.9l35.2,30.6
		c63.2,54.9,143.6,140.5,178.8,190.2c86.6,121.3,146.2,277.8,157.6,413.1l3.6,42.5h-145.7h-145.7L2715.4,4521.7z"/>
	<path d="M3464.4,3789.3v-761.9h536.5h536.5v152.9v152.9h-386.2H3765l1,154.5l1.6,153.9l367,1.6l366.5,1v150.3v150.3h-368h-368
		v152.9v152.9h386.2h386.2v150.3v150.3h-536.5h-536.5V3789.3z"/>
	<path d="M4957.1,4403v-150.3l52.4-6.2c106.3-12.4,191.8-53.9,266.9-128c53.9-53.4,84-96.9,105.7-154.5
		c25.4-64.3,32.7-103.7,32.7-172.1c0.5-124.4-40.4-227-125.4-315.7c-79.3-82.4-181.9-132.2-290.8-141l-41.5-3.6v-149.3v-149.8h30.6
		c71,0,178.8,23.3,259.7,55.5c153.4,61.7,295.5,187.1,373.7,330.2l14,25.4l13-25.4c48.7-94.9,165.9-215.6,270.6-277.8
		c104.2-62.2,220.8-99,335.9-106.3l55.5-3.1v150.3v150.3l-37.3,3.1c-293.9,25.4-487.2,317.2-397,599.7
		c54.4,170.5,214.6,297.5,395.5,314.1l38.9,3.6v150.3v150.3l-52.9-3.6c-92.8-5.7-185.6-30.1-273.2-71
		c-129.1-60.1-263.3-183.5-329.7-302.7l-19.2-33.7l-26.4,44.6c-123.9,207.3-355.6,348.3-597.1,363.4l-54.4,3.1V4403z"/>
	<path d="M652.4,2514.2c-162.2-26.4-270.1-36.3-392.4-36.3h-71.5v-45.1v-44.6l137.4,3.1l137.4,2.6v-25.4v-25.4H276.6H90v-44.1V2255
		h97.4l96.9-0.5l-18.1-15c-9.8-8.8-29.5-23.3-44.1-32.1c-23.8-16.1-29-17.1-78.8-18.7l-53.4-2.1V2140v-46.7l61.2,1.6
		c56,2.1,63.8,3.6,94.3,18.7c18.7,8.8,68.9,44.6,111.4,78.8c57,46.1,81.4,62.7,92.3,62.7h14v-93.3v-93.3H325.8H188.5v-153.9
		c0-89.2,2.1-162.8,5.2-173.6c3.1-10.4,13.5-25.9,23.8-34.7l18.1-16.1h294.9H826v189.2v189.2H688.7H551.3v93.3v93.3h15
		c11.4,0,33.2-15,91.7-62.2c42.5-34.2,92.3-70,110.9-79.3c31.1-15.6,37.8-16.6,94.3-18.7l61.2-1.6v46.7v46.6l-53.9,2.1
		c-52.4,1.6-54.4,2.1-81.4,21.3c-15.5,10.4-34.7,25.4-43.5,32.1l-15.5,13h97.4h96.9v44.1v44.1H737.9H551.3v32.7v32.7l131.1,19.7
		c71.5,11.4,133.7,21.3,137.4,22.8c4.1,1.6,6.2,15.6,6.2,45.6c0,38.4-1,43.5-8.8,43C812,2539.1,737.9,2527.7,652.4,2514.2z
		 M737.9,1944v-31.1H507.3H276.6v31.1v31.1h230.7h230.7V1944z M737.9,1804.1V1773H515.6H292.7l-7.8,11.4c-4.7,6.2-8.3,20.2-8.3,31.1
		v19.7h230.7h230.7V1804.1z"/>
	<path d="M1810.9,2490.9v-49.2h-57h-57v-44.1v-44.1h57h57v-33.7v-33.7h-57h-57v-44.1v-43.5l57.5-1.6l57.5-1.6L1786,2170
		c-35.2-34.7-44.6-38.9-85-39.4h-35.2v-47.2v-47.7l48.7,2.6l48.7,2.6l2.1-145.7c1.6-139.4,2.1-146.7,13.5-167.4
		c20.2-38.4,16.1-37.8,250.9-37.8c200.1,0,209.4,0.5,226,10.4c25.9,16.1,37.3,45.6,37.3,100v45.1h-43.5h-43.5l-2.1-29
		c-2.1-20.7-5.2-31.6-12.4-36.8c-7.8-5.7-40.9-6.7-170.5-5.7l-160.7,1.6l-1.6,37.3l-1.6,37.3l144.1,1.6
		c132.2,1.6,145.7,2.6,164.3,11.9c37.3,19.2,42,30.1,43.5,112c1.6,65.8,2.6,72.6,10.4,69.5c4.7-2.1,30.6-5.2,57-6.2l47.7-3.1v47.7
		v47.2h-33.7c-40.9,0-53.9,6.2-88.1,40.9l-25.4,26.4h58.1h58.1v44.1v44.1h-57h-57v33.7v33.7h57h57v44.1v43.5l-55.5,1.6l-56,1.6
		l-1.6,48.2l-1.6,47.7h-43.5h-44.1v-49.2v-49.2h-98.5h-98.5v49.2v49.2h-41.5h-41.5V2490.9z M2090.8,2319.8v-33.7h-98.5h-98.5v33.7
		v33.7h98.5h98.5V2319.8z M2093.4,2150.3l44.6-48.2l-73.1-1.6c-40.4-0.5-104.2-0.5-142.5,0l-69.5,1.6l44.1,48.2l44.6,47.7h53.4h53.4
		L2093.4,2150.3z M2121.9,1986.5c0-45.6,3.1-45.1-139.4-46.7l-124.9-1.6v36.3v36.8h132.2h132.2V1986.5z"/>
	<path d="M3189.6,2537.5c0-1.6,10.4-23.8,23.3-49.2l23.3-46.6h-186.6h-186.6v-44.1v-44.1h419.8h419.9v44.1v44.1h-187.6H3327
		l-25.9,49.2l-25.9,49.2h-42.5C3208.8,2540.1,3189.6,2539.1,3189.6,2537.5z"/>
	<path d="M4267.8,2317.2v-197h64.8c35.8,0,64.8-1,64.8-2.6c0-8.3-63.2-105.2-73.6-113c-10.4-7.8-25.9-10.4-68.4-12.4l-54.9-3.1
		v-44.1V1901l61.2,2.6c67.9,3.1,102.6,14,128.5,40.9c11.9,12.4,18.7,15,39.4,15c13.5,0,24.9-1,24.9-2.6c0-7.3-82.4-146.2-96.4-162.8
		l-16.6-18.7l-60.1-1.6l-60.1-2.1V1731v-40.9h70c59.6,0,73.6,1.6,90.2,10.4c32.7,16.6,61.2,53.9,119.7,158.1l55.5,98.5l84.5,1.6
		l84,1.6l-17.1-30.1c-55.5-99-80.9-138.9-95.4-147.2c-12.4-7.8-25.9-9.8-68.4-9.8h-53.4v-41.5v-41.5h68.4
		c108.9,0,119.7,8.8,209.9,169.5l56,100h45.6h45.1v-80.3c0-78.8-0.5-80.9-13-93.3c-11.4-11.9-16.6-13-57-13h-44.1v-41.5v-41.5h77.2
		c76.7,0,77.8,0,94.3,14c29,24.9,30.6,33.2,30.6,195.9v147.7h-269.5c-148.2,0-269.5,1.6-269.5,3.1c0,1.6,8.3,18.1,18.7,36.3
		l18.7,33.2h250.9h251.4l-1.6,167.4c-1.6,161.2-2.1,167.4-13,185c-6.2,9.8-19.2,22.8-28.5,28.5c-16.6,9.8-27.5,10.4-355.1,11.9
		l-338.5,1.6V2317.2z M4904.8,2413.6c8.3-7.3,10.9-16.1,10.9-35.2v-24.9h-279.9h-279.9v36.3v36.8l269-1.6
		C4881,2423.5,4894.4,2423,4904.8,2413.6z M4915.7,2239.5v-36.3h-279.9h-279.9v36.3v36.3h279.9h279.9V2239.5z"/>
	<path d="M5607.7,2506.9c-19.2-8.8-41.5-32.1-48.7-51.3c-3.6-9.8-5.7-122.8-5.7-340.5c0-368.5,3.1-342.1-42-342.1h-25.4v-41.5v-41.5
		h54.9h54.9l17.1,17.1c9.3,9.3,19.7,26.4,22.8,37.3c3.1,12.4,5.7,67.4,5.7,133.7v112.5h124.4h124.4l-1,157.1l-1.6,156.5l-122.8,1.6
		l-123.4,1v46.1c0,73.1-6.2,70,139.4,72l119.7,1.6v44.1v43.5h-138.4C5657.4,2513.7,5619.6,2512.1,5607.7,2506.9z M5796.9,2146.2
		v-67.4h-77.8h-77.8v67.4v67.4h77.8h77.8V2146.2z"/>
	<path d="M6022.8,2509c-19.2-6.2-44.1-29-52.9-50.3c-5.7-13.5-7.3-77.8-7.3-343.1c0-369.1,3.1-342.6-42-342.6h-25.4v-41.5v-41.5
		h54.4c52.9,0,54.4,0.5,72,16.1c10.4,8.8,20.7,24.4,23.8,34.7c3.1,11.9,5.2,107.8,5.2,246.2v226.5h64.8h64.8v-261.8v-261.8h44.1
		h44.1v261.8v261.8h20.7h20.7v46.6v46.7h-130.1h-130.1l2.1,49.2c2.6,71-5.7,66.9,138.9,68.9l119.2,1.6v44.1v43.5l-135.8-0.5
		C6099,2513.7,6031.1,2511.1,6022.8,2509z"/>
	<path d="M1489.5,2497.6c0.5-3.6,13-39.4,28-79.3l27.5-72.6l45.1-1.6c25.4-1,44.6,0.5,43.5,3.1c-0.5,2.6-14.5,38.9-30.1,80.9
		l-28,75.7h-43C1501.4,2503.8,1489.5,2502.3,1489.5,2497.6z"/>
	<path d="M3039.3,2257.1c-24.4-24.9-54.4-51.3-66.9-59.6c-20.7-13.5-27.5-15-66.3-15h-43v-44.6v-44.6l63.8,2.1
		c60.6,1.6,65.3,2.1,82.9,16.1c9.8,7.8,19.7,14,21.8,14c2.6,0,132.2-110.9,172.6-147.2c4.7-4.7-16.1-25.4-94.9-93.8
		c-56-48.7-110.4-92.8-120.8-98c-14-7.3-33.7-10.9-72-12.4l-53.4-2.6V1731v-40.9h76.2c71,0,77.2,1,97.4,12.4
		c11.9,7.3,71.5,56,132.7,109.4c60.6,52.9,112.5,95.4,114.6,94.9c2.1-1,51.8-43.5,110.9-94.9c150.8-131.1,133.2-121.8,229.1-121.8
		h78.8v40.9v40.9l-52.9,2.1c-36.8,1.6-59.1,4.7-72.6,11.4c-15.6,7.3-167.9,135.3-210.4,176.2l-11.9,11.4l73.6,63.8
		c39.9,35.2,79.8,70,88.1,76.7l15,13l24.4-16.1c23.3-15.6,25.4-16.1,85.5-16.1h61.7l-1.6,43l-1.6,42.5l-47.2,2.6
		c-54.9,3.1-61.2,6.7-129.6,76.2l-42,43h-61.7h-61.7l53.4-53.4l53.4-53.4l-88.6-77.8c-49.2-42.5-90.7-77.7-92.8-78.8
		c-1.6-0.5-43.5,34.2-93.3,77.2l-89.7,78.8l53.4,53.4l53.9,53.9h-62.2h-62.2L3039.3,2257.1z"/>
	<path d="M1489.5,2286.7c0-2.1,12.4-37.8,28-78.8l28-74.6l45.1-1.6c35.2-1,44.6,0,43,5.2c-1.6,3.6-15,39.9-30.1,80.9l-27.5,73.6
		h-43.5C1509.2,2291.3,1489.5,2289.2,1489.5,2286.7z"/>
	<path d="M1546.5,1913.5c0-142.5,0.5-140.5-42-140.5h-25.4v-41.5v-41.5h54.9h54.9l17.1,17.1c9.3,9.3,19.7,26.4,22.8,37.3
		c3.6,13,5.7,74.1,5.7,157.1v135.8h-44.1h-44.1V1913.5z"/>
</g>
</svg>
