<?xml version="1.0" encoding="utf-8"?>
<!-- Generator: Adobe Illustrator 22.1.0, SVG Export Plug-In . SVG Version: 6.00 Build 0)  -->
<svg version="1.1" id="Layer_2_1_" xmlns="http://www.w3.org/2000/svg" xmlns:xlink="http://www.w3.org/1999/xlink" x="0px" y="0px"
	 viewBox="0 0 640 480" style="enable-background:new 0 0 640 480;" xml:space="preserve">
<path d="M306,480c-43.8-2.5-93.2-5-142-8.5c-17.9-1-35.9-5.5-52.8-11.5c-32.9-12-54.3-34.9-64.8-67.8c-9.5-30.4-15.9-61.8-17.9-93.2
	c-3-42.3-5.5-85.2-6.5-128c-0.5-25.9,1-51.8,7-77.7c9-38.9,32.4-64.3,71.2-74.2c20.9-5.5,42.3-8.5,63.8-11
	c82.7-9.5,165.9-10,248.6-5.5c36.4,2,72.7,7,109.1,11.5c17.9,2.5,34.9,9,49.8,18.9c23.4,15.4,34.9,38.4,40.4,65.3
	c6,29.4,6.5,59.3,6,89.2c-1,32.4-2.5,64.3-5,96.6c-2.5,34.9-8.5,69.7-17.9,103.6c-11.5,40.9-38.4,65.3-78.7,76.2
	c-26.9,7.5-54.3,9-81.7,10.5C393.7,477,352.4,478.5,306,480z M320.5,26.2c-25.9,0.5-51.8,1-77.2,2c-15.9,0.5-31.4,3-47.3,4
	c-5,0.5-7,3-5.5,8c1,3,1.5,6.5,2.5,9.5c11.5,42.8,22.4,85.2,33.9,128c6,22.4,11.5,45.3,22.4,66.8c10.5,19.9,25.4,34.4,48.8,35.9
	c14.4,1,28.9,1,43.3,0c17.9-1,32.4-10,41.8-24.9c7.5-12,13.9-24.4,17.9-37.9c16.4-57.8,31.9-115.6,47.3-173.9c3-10,2-11-9.5-12
	C400.2,27.1,360.3,26.6,320.5,26.2z M580.5,197c0-14.9,0.5-29.9,0-44.8c-0.5-17.9-1-36.4-6-53.8c-5-16.9-11-33.4-26.9-42.8
	c-11.5-6.5-24.9-11-37.9-15.4c-4.5-1.5-8,1.5-8,7c-0.5,5,0,10,0,14.9c-2,70.7-5.5,141.5-11.5,212.2c-4.5,51.3-10,102.6-15.4,153.4
	c-1.5,12.5,4,17.4,15.4,13.5c12.5-4,24.4-10,35.9-15.4c14.9-7,24.9-18.9,30.4-33.9c4.5-13,9-26.4,11-40.4
	C576,300.7,580.5,249.3,580.5,197z M140.1,128.3c0-13.5,0-28.9,0-44.3c0-11.5,0-22.9-0.5-34.4c-0.5-8-4-10.5-11.5-8
	c-6.5,2-13,4.5-19.4,6.5c-17.4,6.5-29.4,18.4-36.9,35.4c-8.5,19.9-11,41.3-11,62.8c-1,53.3-0.5,107.1,6.5,159.9
	c3,20.9,6,42.3,10,63.3c2.5,13.5,7.5,26.9,15.9,37.9c15.4,20.4,37.4,29.4,61.3,34.9c10.5,2.5,13.9-2.5,13-13
	c-3-27.9-7-55.8-9.5-83.7C151.1,273.8,145.6,202,140.1,128.3z M320.5,450.1v0.5c17.4,0,34.4,0,51.8,0c10,0,19.9-0.5,29.4-1
	c6.5-0.5,7-2,5.5-8c-7.5-23.9-15.4-48.3-22.9-72.2c-3.5-12-11.5-18.9-23.4-21.9c-25.9-6-52.3-6.5-78.2-0.5
	c-13.5,3-22.4,10.5-26.4,23.9c-6.5,21.4-13.5,42.8-20.4,64.8c-4.5,14.4-4.5,14.9,11,14.9C271.1,450.1,296.1,450.1,320.5,450.1z"/>
</svg>
