<svg id="Layer_1" data-name="Layer 1" xmlns="http://www.w3.org/2000/svg" viewBox="0 0 640 480"><defs><style>.cls-1{fill:#6d0303;}</style></defs><title>Artboard 1</title><path class="cls-1" d="M13.61,179.47H36v49.29H60.39V179.47H82.74v122.1H60.39V251.66H36v49.91H13.61Z"/><path class="cls-1" d="M101.43,274.55h20.78v27H101.43Z"/><path class="cls-1" d="M231.57,206l-18.47,8.5q-3.95-15.12-14.45-15.12a9.71,9.71,0,0,0-7.78,3.35A11.67,11.67,0,0,0,188,210.6a10.64,10.64,0,0,0,3.39,8.27q3.39,3.09,14.19,8.1A78.68,78.68,0,0,1,221,235.64a30.81,30.81,0,0,1,9.09,11.67,39.91,39.91,0,0,1,3.46,17.13q0,17.09-9.8,28t-26.26,11q-27.64,0-35.31-33.54l19.52-6.71q3.58,18.43,16.31,18.43a12.73,12.73,0,0,0,9.42-3.62,12.9,12.9,0,0,0,3.61-9.53,13.41,13.41,0,0,0-2.53-8Q206,256.93,196.93,253q-11.7-5-17.43-9.08A30.25,30.25,0,0,1,170,232.29a38.44,38.44,0,0,1-3.72-17.22q0-16.46,8.83-27t23.35-10.51Q225,177.59,231.57,206Z"/><path class="cls-1" d="M247.36,179.47h22.35v49.29h24.43V179.47h22.35v122.1H294.15V251.66H269.71v49.91H247.36Z"/><path class="cls-1" d="M353.67,179.47h22.5l29.05,122.1H382.36l-5.07-25.22H348.64l-5,25.22H323.12Zm19.42,75.94-10.28-50-9.86,50Z"/><path class="cls-1" d="M413.71,179.47h32a75,75,0,0,1,14.27,1,22.14,22.14,0,0,1,10,5.55,30,30,0,0,1,7.93,12.34A50.84,50.84,0,0,1,480.75,216q0,22.9-14.3,32.2l18.7,53.4H460.82l-13.6-48.3H436.05v48.3H413.71Zm22.35,19.77V233.5h9.83q13.11,0,13.11-17.62a22.38,22.38,0,0,0-1.94-10,11.57,11.57,0,0,0-4.51-5.28q-2.57-1.39-7.56-1.39Z"/><path class="cls-1" d="M496.84,179.47h61.83V200.4H519.19v28.36h30.69v20.93H519.19v30.06h39.48v21.83H496.84Z"/><path class="cls-1" d="M631.82,206l-18.47,8.5q-3.95-15.12-14.45-15.12a9.71,9.71,0,0,0-7.78,3.35,11.67,11.67,0,0,0-2.87,7.83,10.64,10.64,0,0,0,3.39,8.27Q595,222,605.82,227a78.67,78.67,0,0,1,15.46,8.68,30.8,30.8,0,0,1,9.09,11.67,39.91,39.91,0,0,1,3.46,17.13q0,17.09-9.8,28t-26.26,11q-27.64,0-35.31-33.54L582,263.19q3.57,18.43,16.31,18.43a12.73,12.73,0,0,0,9.42-3.62,12.9,12.9,0,0,0,3.61-9.53,13.41,13.41,0,0,0-2.53-8q-2.53-3.53-11.62-7.47-11.7-5-17.43-9.08a30.25,30.25,0,0,1-9.46-11.63,38.43,38.43,0,0,1-3.72-17.22q0-16.46,8.83-27t23.35-10.51Q625.26,177.59,631.82,206Z"/></svg>