<?xml version="1.0" standalone="no"?>
<!DOCTYPE svg PUBLIC "-//W3C//DTD SVG 20010904//EN"
 "http://www.w3.org/TR/2001/REC-SVG-20010904/DTD/svg10.dtd">
<svg version="1.0" xmlns="http://www.w3.org/2000/svg"
 width="1024.000000pt" height="1024.000000pt" viewBox="0 0 1024.000000 1024.000000"
 preserveAspectRatio="xMidYMid meet">
<metadata>
Created by potrace 1.14, written by Peter Selinger 2001-2017
</metadata>
<g transform="translate(0.000000,1024.000000) scale(0.100000,-0.100000)"
fill="#000000" stroke="none">
<path d="M4840 10234 c-306 -22 -591 -61 -827 -114 -1536 -343 -2817 -1358
-3504 -2775 -472 -974 -621 -2089 -423 -3160 364 -1963 1848 -3544 3782 -4029
1594 -400 3278 -16 4532 1033 208 174 471 437 639 636 439 525 775 1140 972
1778 560 1822 74 3791 -1269 5134 -845 844 -1924 1356 -3117 1479 -142 14
-666 26 -785 18z m760 -668 c842 -98 1593 -400 2245 -904 945 -731 1554 -1792
1706 -2971 83 -648 20 -1327 -181 -1946 -330 -1017 -1025 -1892 -1945 -2448
-154 -93 -503 -266 -665 -330 -356 -140 -729 -233 -1135 -284 -204 -26 -809
-25 -1015 0 -556 70 -1046 217 -1505 452 -456 234 -788 476 -1155 844 -351
352 -611 714 -835 1163 -294 590 -445 1204 -462 1878 -16 650 109 1290 369
1890 467 1074 1359 1935 2453 2368 382 152 831 260 1210 291 72 6 146 13 165
15 84 10 623 -3 750 -18z"/>
<path d="M4696 9364 c-708 -70 -1394 -320 -1983 -723 -250 -171 -508 -392
-703 -603 -636 -686 -1013 -1501 -1127 -2433 -25 -212 -25 -756 1 -965 120
-975 534 -1834 1211 -2516 1212 -1218 3019 -1591 4615 -952 736 295 1384 803
1863 1460 798 1096 1019 2540 587 3838 -162 487 -395 914 -728 1332 -135 170
-468 503 -642 642 -660 527 -1433 841 -2266 921 -195 19 -634 18 -828 -1z
m324 -1268 l0 -495 -189 -3 c-184 -3 -190 -4 -215 -27 -51 -48 -42 -135 18
-172 27 -17 52 -19 209 -19 l177 0 0 -825 0 -825 -130 0 c-149 0 -190 -11
-214 -59 -26 -50 -21 -88 18 -127 l34 -34 146 0 146 0 -2 -462 -3 -463 -120
-5 -120 -5 -3 -65 c-6 -114 -70 -406 -149 -670 -119 -403 -337 -1045 -513
-1512 l-21 -58 -729 0 -729 0 51 108 c412 878 646 1898 709 3079 26 490 -5
1406 -58 1711 l-5 32 546 0 c472 0 546 2 546 15 0 19 -179 1323 -185 1353 l-5
22 395 0 395 0 0 -494z m990 483 c0 -6 -40 -310 -90 -676 -49 -366 -90 -674
-90 -684 0 -18 18 -19 546 -19 l547 0 -6 -37 c-55 -344 -85 -1243 -58 -1735
63 -1150 296 -2173 687 -3009 35 -76 64 -140 64 -143 0 -3 -328 -6 -729 -6
l-728 0 -33 87 c-394 1069 -650 1924 -650 2174 l0 49 -115 0 -115 0 0 465 0
465 138 0 c151 0 169 6 197 60 19 37 19 54 -1 95 -25 53 -63 65 -208 65 l-126
0 0 824 0 825 181 3 181 3 29 33 c47 52 37 131 -21 165 -23 14 -57 17 -199 17
l-171 0 0 495 0 495 385 0 c274 0 385 -3 385 -11z"/>
<path d="M3984 6496 c-107 -27 -203 -108 -252 -214 l-27 -57 0 -835 0 -835 31
-65 c18 -36 46 -80 63 -98 l31 -34 -50 -190 c-34 -124 -49 -199 -45 -218 10
-46 50 -75 102 -75 64 0 83 26 122 171 18 66 39 144 47 174 l15 55 51 -1 51 0
44 -160 c53 -197 59 -211 94 -229 49 -26 96 -15 131 29 27 32 22 76 -31 269
l-49 178 34 37 c19 20 47 62 62 92 l27 55 0 845 0 845 -27 58 c-37 79 -120
159 -194 187 -73 27 -164 33 -230 16z m176 -219 c70 -47 75 -65 78 -324 l3
-233 -165 0 -166 0 0 234 c0 226 1 234 23 267 53 79 156 105 227 56z m78
-1177 c2 -228 0 -439 -3 -468 -11 -87 -81 -152 -166 -152 -55 0 -111 33 -138
80 -21 37 -21 48 -21 499 l0 461 163 -2 162 -3 3 -415z"/>
<path d="M6167 6458 c-26 -41 -427 -831 -427 -840 0 -5 75 -154 168 -331 l167
-322 5 -516 c6 -577 1 -545 76 -569 48 -16 104 13 121 61 9 24 12 172 12 527
l1 493 169 328 170 329 -219 427 c-121 235 -222 430 -224 432 -2 3 -11 -6 -19
-19z m186 -744 l47 -99 -106 -207 c-58 -115 -108 -208 -112 -208 -4 0 -55 94
-113 209 l-106 208 85 169 c46 93 95 189 109 213 l25 44 62 -116 c33 -63 82
-159 109 -213z"/>
</g>
</svg>
