<?xml version="1.0" encoding="utf-8"?>
<!-- Generator: Adobe Illustrator 20.1.0, SVG Export Plug-In . SVG Version: 6.00 Build 0)  -->
<svg version="1.1" id="Layer_1" xmlns="http://www.w3.org/2000/svg" xmlns:xlink="http://www.w3.org/1999/xlink" x="0px" y="0px"
	 viewBox="0 0 640 480" style="enable-background:new 0 0 640 480;" xml:space="preserve">
<g>
	<path d="M1.7,145.2c0,2.7,1.8,3.4,9.1,4.1c6.1,0.7,10.4,2.1,12.9,4.8c3.9,3.7,3.9,4.5,4.5,85.9l0.5,82.1l-4.5,4.5
		c-3.6,3.6-6.2,4.5-13.6,4.5c-6.8,0-8.9,0.7-8.9,2.7c0,2.3,5.7,2.7,40.2,2.7c38.2,0,50.7-1.8,31.4-4.3c-6.6-0.9-9.8-2.3-12.5-5.9
		c-3.6-4.5-3.7-6.6-3.7-83c0-64.4,0.5-79.4,2.7-84.4c2.7-6.6,8.2-9.8,17.1-9.8c3.9,0,5.2-0.9,5.2-3.6c0-3.4-1.2-3.6-40.2-3.6
		C3.8,141.8,1.7,142,1.7,145.2z"/>
	<path d="M383.6,170.4c0,2.5,1.2,3.6,4.1,3.6c7,0,20.2,9.8,29.3,22c8.9,12,40.2,57.8,41.2,60.5c0.4,0.7-3.2,6.1-8,12
		c-4.6,5.7-13.4,16.6-19.3,24.3c-25,32.8-30.7,38.6-38.7,39.4c-2.3,0.2-4.6,0.5-5.4,0.5c-0.9,0.2-1.4,1.4-1.4,2.9
		c0,2.3,4.5,2.7,29.5,2.7s29.5-0.4,29.5-2.7c0-1.8-1.8-2.7-6.1-2.7c-9.3,0-17.1-3.4-17.1-7.5c0-2,9.5-17,21.1-33.4l21.1-29.8
		l18.6,27.3c24.8,36.1,24.8,36.1,19.6,40.2c-2.3,1.8-6.8,3.2-10.9,3.2c-5,0-7,0.7-7,2.7c0,2.3,5.2,2.7,35.7,2.7
		c29.1,0,35.7-0.5,35.7-2.5c0-1.2-2.3-2.9-5.2-3.4c-8.4-1.8-16.4-10.2-36.8-39.1c-10.7-15-22.3-31.4-26.1-36.4l-6.8-9.3l19.1-24.5
		c10.5-13.6,22-28.4,25.3-32.8c7.9-10,16.8-16.2,23.4-16.2c3.9,0,5.2-0.9,5.2-3.6c0-3.4-1.2-3.6-28.7-3.6c-26.2,0-28.6,0.2-28,3
		c0.4,2.1,2.9,3.6,7.5,4.3c10.7,1.8,14.3,8.4,9.3,17.8c-2.9,5.5-35.2,46.2-36.6,46.2c-1.1,0-18.7-23.2-31.8-41.6
		c-7.7-10.9-9.5-17.7-5.4-20.3c1.1-0.7,5.7-1.8,10.2-2.3c5.7-0.7,8.2-1.8,8.6-4.1c0.5-2.9-2.1-3-36.9-3
		C384.9,166.8,383.6,167,383.6,170.4z"/>
	<path d="M108.8,174c0,2.7,1.2,3.6,5.2,3.6c2.9,0,7,1.6,9.3,3.4l4.3,3.4v70.9V326l-4.3,3.4c-2.3,1.8-6.4,3.4-9.3,3.4
		c-2.9,0-5.2,0.7-5.2,1.8s15.7,1.8,43.7,1.8c39.8,0,44.6-0.4,55.3-3.7c8.9-3,13.4-5.7,19.5-12.3c11.6-12.5,14.1-23.6,8.9-41.2
		c-3.6-11.8-16.2-25.2-27.3-28.6c-7.1-2.1-9.8-5.2-4.6-5.2c1.4,0,6.6-3.7,11.4-8.6c13.9-13.4,16.2-29.3,6.6-45.7
		c-9.5-16.1-28-20.5-85.3-20.7C110,170.4,108.8,170.6,108.8,174z M189.4,183.4c10,5.7,13.9,13.6,13.9,26.8c0,12-2.1,18.2-8.6,25
		c-7.5,8-17.8,12.3-31.1,13.4l-12.1,0.9v-36.2V177l14.8,0.9C178.5,178.4,183,179.5,189.4,183.4z M189.4,257.8
		c14.8,4.3,23.7,18.4,23.6,37.5c-0.2,12.9-5.7,23.4-15.3,29.8c-6.2,4.3-9.6,5.2-21.8,5.5c-12.7,0.5-15,0.2-19.3-3.2l-5-3.7v-35v-35
		l15.7,1.1C175.9,255.5,185.9,256.8,189.4,257.8z"/>
	<path d="M264,210.5c0,1.6,1.6,2.7,4.3,2.7c9.8,0,10,0.9,10,60c0,51.9-0.2,54.4-3.6,57.8c-2,2-5.2,3.6-7.1,3.6c-2,0-3.6,0.7-3.6,1.8
		s18.2,1.8,50.9,1.8h50.9l1.1-5c0.7-2.7,2.3-9.3,3.6-14.6c4.5-17.8,2.3-21.2-5.2-8.4c-2.5,4.3-8,11.1-12.5,15
		c-9.3,8.6-18.6,10.5-38.9,8.6c-9.3-0.9-12.9-2.1-14.1-4.5c-1.1-1.8-1.8-14.6-1.8-28.4v-25.2h14.1c13.6,0,14.3,0.2,18.7,5.4
		c2.5,3,5.4,8.7,6.4,12.5c3.7,13.7,5.4,7.5,5.4-20.5c0-25.7-1.6-34.8-4.1-22.5c-0.7,2.9-3.6,8-6.8,11.6c-5.5,6.4-5.7,6.4-19.6,6.4
		H298v-27.7v-27.7h20.2c22.5,0,27.3,1.8,36.2,13.4c2.9,3.6,6.4,8.4,8.2,10.4c5,6.6,5.4,2.1,0.9-13.2l-4.3-15l-47.7-0.5
		C270.1,207.9,264,208.2,264,210.5z"/>
	<path d="M580.7,289.8c-6.6,4.1-10.5,8.9-4.6,5.7c5.7-3,10.7-2.3,12.9,1.6c1.6,3.2,1.1,4.5-3.4,8.7L580,311l5.2,2.1
		c6.2,2.5,10,8.9,8.4,15c-1.2,5.4-7,6.2-12.5,2c-4.5-3.4-9.3-3.4-10.7,0c-0.5,1.6,0.7,3.7,3.4,5.5c7.9,5.2,23.2,0,27.3-9.3
		c3-6.4,2.7-10.4-1.6-15.5c-2.9-3.7-3.2-5.5-1.8-8.2C603.9,291.2,592.3,282.5,580.7,289.8z"/>
	<path d="M613.3,297.8c-3.9,15-3.9,15.3,2,15.3c7.5,0,16.4,6.2,16.4,11.6c0,7-5.2,8.4-13.9,3.9c-5.9-2.9-8-3.2-9.6-1.6
		c-4.1,4.1,0.7,8.4,10.5,8.9c7.5,0.5,9.5-0.2,13.6-4.3c3.7-3.7,4.8-6.4,4.8-12.5c0-8.7-5-14.1-15.3-16.1c-3.4-0.5-6.1-2.1-6.1-3.6
		c0-1.8,2.7-2.5,10.5-2.5c10.4,0,10.5-0.2,11.2-5.4l0.9-5.4h-11.1h-10.9L613.3,297.8z"/>
</g>
</svg>
