<?xml version="1.0" encoding="utf-8"?>
<!-- Generator: Adobe Illustrator 22.1.0, SVG Export Plug-In . SVG Version: 6.00 Build 0)  -->
<svg version="1.1" id="Layer_4" xmlns="http://www.w3.org/2000/svg" xmlns:xlink="http://www.w3.org/1999/xlink" x="0px" y="0px"
	 viewBox="0 0 640 480" style="enable-background:new 0 0 640 480;" xml:space="preserve">
<style type="text/css">
	.st0{fill:#74C8E9;}
</style>
<g>
	<path class="st0" d="M505.9,55c-124,0-247.5,0-370.9,0c0,123.2,0,246.3,0,369.7c13.2,0,26.5,0,40.1,0c0,18.5,0,36.4,0,54.7
		c-31.5,0-62.9,0-94.6,0c0-159.5,0-319.1,0-479c159.5,0,319.1,0,479,0c0,86.3,0,172.3,0,258.8c-17.7,0-35.4,0-53.3,0
		C505.9,191.3,505.9,123.4,505.9,55z"/>
	<path d="M550.5,470.3c-11.3,2.7-21.4,6-31.9,7.6c-20.8,2.9-41.1,1.4-59.4-10.5c-13.8-9-22-22-26.1-37.6c-2.1-8.2-3.5-16.9-3.3-25.3
		c0.2-17.3,4.1-34.1,14.2-48.7c11.1-16.2,26.3-25.5,46.1-27.6c16-1.8,30.6,1.2,43.6,10.9c10.1,7.6,16.2,17.9,20.1,29.8
		c4.3,13.4,5.5,27.1,2.9,41.5c-32.5,0-65,0-98.1,0c0,7.4,1.6,14.4,4.5,20.6c6.8,14.6,18.7,21.8,34.5,23.2
		c16.2,1.4,31.7-0.4,47.3-7.4C546.6,454.2,548.4,461.6,550.5,470.3z M529.3,387.6c-0.4-3.7-0.4-7-1.2-10.1
		c-5.5-22.6-19.5-29.2-38.7-26.7c-13.6,1.9-21.8,11.7-26.7,24.3c-1.6,3.9-2.5,8-3.9,12.7C482.6,387.6,505.6,387.6,529.3,387.6z"/>
	<path d="M420.7,336.2c-2.3,8.2-4.7,16-6.6,23.2c-6.8-1.9-12.9-4.3-19.1-5.5c-27.1-5.3-52.6,6.4-58.8,38c-3.1,16.2-1,31.9,9.5,45.8
		c6.8,9,16.2,14,27.3,16c13.4,2.3,26.1-0.2,38.4-5.5c1-0.4,1.9-0.8,3.5-1.6c1.2,4.9,2.1,9.5,3.1,14c0,0.4,0,0.8,0,1.2
		c1.9,8.8,1.9,8.6-6.6,11.7c-12.9,4.5-26.1,6.4-39.5,5.6c-19.5-1.4-36.6-8-49.6-23.2c-9.5-11.3-14.4-24.5-16.2-39.1
		c-1.9-16.4,0-31.7,6.6-46.7c4.9-11.3,12.5-20.2,22.4-27.3c14.8-10.5,31.3-14.6,49.3-14.4C396.9,328.4,408.8,330.5,420.7,336.2z"/>
	<path d="M253.2,478.9c0-48.5,0-96.6,0-144.7c9.7,0,19.3,0,29.4,0c0,1.6,0.2,2.9,0.2,4.3c0,45.2,0,90.1,0,135.3c0,3.9-1,5.3-5.1,5.1
		C269.8,478.7,261.8,478.9,253.2,478.9z"/>
</g>
</svg>
