<svg id="Layer_1" data-name="Layer 1" xmlns="http://www.w3.org/2000/svg" viewBox="0 0 640 480"><defs><style>.cls-1{fill:#ec1a42;}.cls-2{fill:#0468b3;}.cls-3{fill:#0267b3;}.cls-4{fill:#ec1c43;}.cls-5{fill:#0066b2;}.cls-6{fill:#0367b3;}.cls-7{fill:#f26882;}.cls-8{fill:#f8b3c0;}</style></defs><title>Artboard 1</title><g id="Layer_2" data-name="Layer 2"><g id="Layer_1-2" data-name="Layer 1-2"><path class="cls-1" d="M79.55,142.79c1.17,9.31,3.45,13.67,10.06,19.62-4.71,3.32-9.48,6.51-14.07,9.95-10.54,7.91-20.21,16.8-27.66,27.82C40.81,210.64,36.51,222,37.75,234.84a71.8,71.8,0,0,0,12,32.86c9.65,14.67,22.64,25.88,37.19,35.4,20.29,13.28,42.44,22.5,65.43,29.91a425.3,425.3,0,0,0,69.73,16.25c19.6,2.83,39.32,5,59,6.77,28.54,2.6,57.18,2.64,85.81,1.94a833.83,833.83,0,0,0,84.81-6.33A631,631,0,0,0,534,336a369.51,369.51,0,0,0,58.81-20.56c17.34-7.91,33.73-17.36,48.1-30.05l.68.38a6.53,6.53,0,0,1-1,2.06,217.94,217.94,0,0,1-30.73,22.93c-28.79,18.07-59.92,30.88-92.32,40.8a539.92,539.92,0,0,1-64.82,15.34c-20.85,3.66-41.84,6.2-63,7.83a721.08,721.08,0,0,1-81.79,1.78c-20.14-.73-40.28-2.11-60.35-3.88A563.07,563.07,0,0,1,145.1,354c-27.68-7.74-54.49-17.73-79.45-32.18-17.86-10.34-34.24-22.54-47-39.07-7.89-10.28-13.56-21.62-15.73-34.53-2.83-16.83,1-32.39,9.36-47,9.57-16.74,23.1-29.87,38.72-40.86,8.45-6,17.52-11,26.33-16.5A24.52,24.52,0,0,1,79.55,142.79Z"/><path class="cls-2" d="M153.39,283.15H136c-1.37-29.64,1.69-59.36-2.15-89.25l7.8-2.08c2.71-.72,5.33-1.38,8.42-2.18l2.24,9.69c3.42-2.23,6.81-4.79,10.51-6.75a21.2,21.2,0,0,1,13.41-2.12c8.83,1.39,14.34,7.7,15.06,17.14.2,2.58.3,5.18.3,7.77V283h-17.7v-2.87q0-30.88-.12-61.76a26.35,26.35,0,0,0-.58-5.47c-.92-4.22-3.93-6.16-8.21-5.32-4.67.92-8.1,3.85-11,7.38a4.83,4.83,0,0,0-.54,2.84v62.26Z"/><path class="cls-3" d="M542.78,283.15h-17.4c-1.36-29.69,1.73-59.42-2.21-89.25l7.88-2.09,8.39-2.17,2.26,10.05a85.56,85.56,0,0,1,7.38-5.55c6-3.64,12.53-5.13,19.45-2.95,7.53,2.37,11,8,12,15.47a54.52,54.52,0,0,1,.42,7v69.4H563.31v-3q-.06-30.75-.15-61.51a26.6,26.6,0,0,0-.63-5.71c-.93-4.12-3.89-6.08-8-5.3-4.76.9-8.28,3.86-11.24,7.48-.53.65-.48,1.89-.48,2.86v62.27Z"/><path class="cls-3" d="M447.67,237.16c.27-10.32,1.62-20.39,5.92-29.85,3.75-8.26,9.36-14.7,18.55-17,11.79-2.94,22.81,1.49,29.64,11.75,4.7,7.06,6.86,15,7.81,23.31,1.43,12.41.87,24.73-2.89,36.74-2.31,7.4-5.91,14-12.37,18.69-11.45,8.27-28.36,5.67-36.76-5.65-5.08-6.84-7.31-14.79-8.5-23C448.36,247.18,448.12,242.15,447.67,237.16Zm43.86-.5-.89-.06c0-3.93.19-7.87,0-11.78-.29-4.85-1-9.66-3.48-14-1.86-3.29-4.59-5.22-8.55-5.11s-6.14,2.29-7.83,5.39a12.41,12.41,0,0,0-1.33,3.23,73.83,73.83,0,0,0-2,10.8c-.65,10.85-1.28,21.77,1.29,32.45a23.31,23.31,0,0,0,4.59,9.24,7.73,7.73,0,0,0,12.36-.88,19.78,19.78,0,0,0,3.37-7.71c1.09-7.12,1.67-14.37,2.47-21.57Z"/><path class="cls-3" d="M360,283.13H342.41V222.87a54.83,54.83,0,0,0-.88-10.21c-.78-4-3.87-5.84-7.89-5.08-4.76.9-8.28,3.85-11.25,7.47a4.9,4.9,0,0,0-.5,2.85v65.16H304.48c-1.39-29.6,1.78-59.33-2.27-89.16l16.27-4.26,2.27,10.06c2.36-1.79,4.73-3.91,7.38-5.54,5.69-3.49,11.89-4.9,18.5-3.28,7.13,1.75,11.87,7.42,12.87,15.28a54.24,54.24,0,0,1,.48,6.75q0,34.14,0,68.28C360,281.77,360,282.34,360,283.13Z"/><path class="cls-3" d="M428.2,260.42l6.8,12.72c-6.06,6.67-13.22,11.31-22.36,12.05-14.94,1.22-25.93-5.28-31.2-19.53-6.94-18.75-6.81-37.86-.24-56.75,2.59-7.45,7.29-13.56,14.68-17a25.79,25.79,0,0,1,32.86,9.46c4,6.11,5.78,13,6.46,20.1.66,6.9.78,13.84,1.15,21.07h-40.9c0,6.29,0,12.29,2.67,17.89,4.17,8.68,13,11.25,21.77,6.13C422.76,264.85,425.27,262.59,428.2,260.42Zm-10-32.55c-.3-6.09-.08-12-2.44-17.49-1.58-3.69-4.38-5.86-8.5-5.94a9.12,9.12,0,0,0-8.89,5.76c-2.58,5.58-2.76,11.57-3,17.68Z"/><path class="cls-3" d="M233.61,207.36v75.72H215.54V207.51h-6V192h5.71c0-3.77-.19-7.27,0-10.75.31-4.57.41-9.25,1.55-13.64,3.27-12.59,12.81-18.47,25.62-16.35A24.63,24.63,0,0,1,254,155.89L249.23,169a72,72,0,0,0-7-2.05c-3.54-.67-6,.77-7.38,4.13a11,11,0,0,0-.94,3.86c-.1,5.58,0,11.16,0,17h16.28l-3.26,15.46Z"/><path class="cls-4" d="M335.92,98.28c-14.87.84-29.76,1.38-44.59,2.6a515.31,515.31,0,0,0-68.08,10.73c-31.33,6.87-61.63,17-91.36,28.94-.38.15-.78.28-1.34.49a26.58,26.58,0,0,0-7.61-17c4-1.35,7.76-2.69,11.54-3.84a465.17,465.17,0,0,1,52.23-13.09,603.57,603.57,0,0,1,64.66-8.31,685.39,685.39,0,0,1,72.76-1.4c3.93.14,7.86.36,11.79.54A1,1,0,0,1,335.92,98.28Z"/><path class="cls-5" d="M97,175.63l17.32-2.29V283.08H97Z"/><path class="cls-3" d="M263.81,192.57c.63-.1,1.11-.2,1.6-.26l16.07-2.13V283H263.81Z"/><path class="cls-3" d="M86.33,142.18a18.78,18.78,0,1,1,37.56-.09h0a18.78,18.78,0,0,1-37.56.09Z"/><path class="cls-6" d="M272.32,179.23a11.65,11.65,0,0,1-11.62-11.67,11.81,11.81,0,0,1,11.94-11.67,11.67,11.67,0,0,1,11.5,11.55A11.83,11.83,0,0,1,272.32,179.23Z"/><path class="cls-7" d="M335.92,98.28a1,1,0,0,0,0-.35h3.49a.82.82,0,0,1,0,.34Z"/><path class="cls-8" d="M339.41,98.28a.82.82,0,0,0,0-.34h3v.34Z"/></g></g></svg>