<?xml version="1.0" encoding="utf-8"?>
<!-- Generator: Adobe Illustrator 21.1.0, SVG Export Plug-In . SVG Version: 6.00 Build 0)  -->
<svg version="1.1" id="Layer_1" xmlns="http://www.w3.org/2000/svg" xmlns:xlink="http://www.w3.org/1999/xlink" x="0px" y="0px"
	 viewBox="0 0 640 480" style="enable-background:new 0 0 640 480;" xml:space="preserve">
<style type="text/css">
	.st0{fill:#1A3B73;}
	.st1{fill:#FFFFFF;}
	.st2{fill:#DB812E;}
</style>
<g>
	<path class="st0" d="M99.8,314.9c5.9,0,10,1.2,12.5,3.8c2.8,2.8,4.1,7.5,4.1,15.2v95.9c0,13.3-2.8,19.2-19.2,19.2h-2.3v5.9h73.8
		V449l-2.2,0c-16.3-0.2-19-6.1-19-19.2v-95.9c0-7.7,1.3-12.3,4.1-15.2c2.6-2.6,6.7-3.8,12.7-3.8h4.4v-6H94.9v6L99.8,314.9
		L99.8,314.9z M335.9,406c0,0-1.3-6-1.5-9.3v-43.8c-0.3-25.6,3.2-38.3-19.1-38.2v-5.7h51.4v5.7c-23-0.1-20.1,12.6-20.2,38.2v102.3
		l-7.3-0.1l-111-116.1c0,0,1.3,6,1.4,9.3V420c-0.6,26.2,2.6,29.3,19.5,29v6h-53.6v-6c16.9,0,20.2-2.2,20.2-31.2v1.7v-70.7l-0.1-11.2
		c0.6-14.5-4.7-23-21.1-22.8v-5.7h49.3L335.9,406z M521.9,306.1h-5.7L516,308c-0.4,2.9-1.5,7.7-4.8,7.7c-0.9,0-3.3-0.4-5.9-1.6
		c-11.5-5-26.3-8-38.9-8c-24.4,0-46.4,8.7-62.2,24.6c-14.5,14.6-22.4,34.4-22.3,55.8c0.1,20.5,8.2,37.4,24.7,51.6
		c16.6,14.2,35.3,20.3,62.4,20.3c22.6,0,35.5-3.2,55.3-13.9l3.5-1.9v-38.3c0-16.3,2-18.9,15.3-19.4l2.2-0.1v-5.7h-64.9v5.7l2.2,0.1
		c14.8,0.6,17.6,3.2,17.6,16.7v35.5c-11,7.2-18.9,10-29,10c-14.9,0-28.1-5.8-38.3-15.9c-11.9-11.9-17.7-29.3-17.7-48.9
		c0-21.1,5.6-39.2,17.2-50.7c9.2-9.2,21.5-14.3,35.5-14.3c12.5,0,27,5.4,36.9,13.2c8.1,6.6,12.3,13,15.5,23.6l0.5,1.6h5.5
		L521.9,306.1L521.9,306.1z"/>
	<g>
		<path class="st1" d="M425.7,294.4c5.1-0.8,10.4-0.6,14.5-4.4c17.1,2.6,34.4-1.6,47.8-11c7.1-5.7,13.3-12.2,18.6-19.6
			c4.5-6.4,8.1-12.3,10.4-19.4c1.7-4.4,3.1-9,4.1-13.7c4.9-22.2,2.3-47-4.9-68c-1.3-3.8-2.8-7.6-4.5-11.3
			c-9-18.6-21.3-38.7-40.1-50.5c-10.6-6.6-20.4-16.9-26.4-27.5c-3.3-2.9-6.4-6.8-10.6-7.5c1.1,1.9,2.4,3.8,2.7,6l-0.2,0.3
			c-4.5,0.1-8-2.2-11.1-5.1l3.4-3.1c-1.3-0.6-2.7-0.9-4.2-1.2c-12.9-1.5-23.5,4.5-35,7.4l-0.2,0.6c7,3.1,8.5,10.9,12.6,16.1
			c1-1.2,2.7-0.3,4.1-0.4c2,0.1,4,1.6,6,1.1c0.1-1.7-0.9-3.1-1.2-4.6c1.2-0.6,2.7-0.1,4,0c3.7,2.2,9.6-0.4,12,4.6
			c-4.2,0.3-8.2,1.2-12.2,2.1c0.3,1.6,1.9,2.9,1.7,4.5c-3.4-1.4-7.1-2.3-10.7-2.7l-0.2,0.6c4.8,5.6,11.4,9,18.1,10.9
			c9.7,2.2,18.2-2.4,27.5-0.8c22.9,10.5,42.5,34.5,51,57.3c0.4,1.1,0.8,2.2,1.2,3.3c7.1,20.8,8.5,46.4,1.3,68
			c-3.8,9-8,17.5-14.7,24.9c-2.5,3.1-5.3,5.8-8.4,8.3c-9.6,7.5-21.4,10.8-33.6,7.4c-0.8-0.5-2.3-0.7-2-2c0.4-1.8,0.8-3.6,1.2-5.4
			c2.1-10.6,2.9-21.5,2.4-32.3l0-1.4c-0.7-15.9-3.8-30.1-9.7-43.9c-3.7-7.9-8.2-16.5-13.8-24.2c-6.7-9.2-15-17.1-25.6-21.1
			c-6.5-1.7-14.6-2.1-19.5,3.4c-3.5,3.1-5,7.2-4.5,11.8c-5.5,3.5-11.7,5.4-18.4,5.9c-1.7,0.1-3.3,0.8-5.1,0.7
			c-1.6,0.1-3.2,0-4.8-0.2c-8.1-1-16.3-5.4-22.5-10.4c-0.1-3.3-0.3-6.5-0.5-10c-3.6-1.9-6.5-5.4-6.8-9.5l0.3-0.3
			c2.1,0.6,3.8,1.7,5.7,2.7c-0.8-5-1.8-9.9-4.3-14.3c-2.3-1-4.6-1.7-6.8-2.9c-2.5-1.6-4.1-4.7-4.5-7.4c2.2,2.2,6.1,1.4,7.9,3.7
			c-3-8.9-3.1-19.1-8-27.2c-2.5-6-9-8.8-13.5-13.2c-1.7-2.1-2.4-5.1-5.6-5.4c-2.5-0.6-2.7-3.5-3.2-5.4c1.6,0.2,2.9,1.3,4.3,1.5
			c-3.7-9.8-7-20.8-17-27l-1.7,1.1c-3.9,0.6-8.1,0.8-12,1c1.7-2.6,4.8-3.6,7.2-4.8c-2.8-2.1-5.1-2.6-8.7-3.2c-2,2-5.7,3.1-8.4,3.6
			l-0.3-0.3c-0.1-2.3-0.6-5.1,2.9-5.7c-3.3-1.6-8.8-0.9-12.2,0c-0.9,2.5-3.7,4.7-3.5,7.7c-2,2-3.4,4.8-5.4,6.3
			c-0.1-4.9,2-9.5,2.9-13.6c-2.9,1.1-5.8,2.6-8.6,4c-4.5-2.6-9.3-5.2-14.2-7.2c-0.4-0.2-1.4-0.4-1.2,0.5c4.2,3,2.5,8.6,3,12.9
			l-2.6-2.2c-1.3-3.3-5-5.6-5.6-9.2c-4.4,0.8-7.1,2-11.2,3.7l-0.6,0.3c3,0,5.6,2.4,7,4.7c-4.5,0.2-8.6-1.5-13.1-2
			c-0.4-0.4-0.8-1-1.5-0.9c-2.2,0.8-4.1,2.4-6.1,4c-4.4,4.4-8.9,9.2-11,14.9c1.5,0.3,3.3,0.2,4.4,1.1c-2.4,1.5-4.5,4-6.9,5.4
			c-0.8,3.3-0.7,7.1-0.9,10.7c-1.9,2.8-4.4,5.3-5.6,8.4c-4,12.8-5,27.1-4.4,41.7c-1.3,1.2-3,2-4.2,3l0.1,13h0.3
			c0.6-2.7,3.8-4.3,5.8-6.1h0.6c-0.3,2.9-0.7,5.9-0.8,8.9l-3.7,3.1c-3.7,3.3-0.6,8.2-0.9,12.3c0.3,1.1,0.4,2.7,1.2,2.9
			c0.5-1.6,1.9-2.7,2.8-4.2c1.6-0.4,3-1.7,4.5-1.9c-0.8,3.2-1.9,6.4-3.2,9.4c-0.7,0.5-1.4,1-1.9,1.6c-0.7,0.6-1.1,1.5-1.3,2.4
			c2.9,15.2,7.4,30.1,12.6,44.4c-3.5,6-5.5,13-8.4,19.1c-0.4,0.9-0.8,1.7-1.1,2.6c-2.9,7.4-3.8,15.8-7.5,22.9
			c-1.5-1-3.1-1.8-4.7-2.5c-6.9-2.3-14.9-0.8-20,4.5c-4.5-0.8-9.1-0.1-12.6,2.3c-2.5,1.9-4.5,4.2-5.6,6.8c-0.8,1.9-1.1,4-1,6.1
			c-2.9,2-4.4,5-5.4,8.1c-1.3,6.9,1.1,14.1,5.1,19.4L425.7,294.4L425.7,294.4L425.7,294.4z"/>
		<path class="st1" d="M383.4,150.6c-0.1,1.7-1.3,3.5-0.2,4.9c1.5-1.7,4.1-1.7,6.2-2.4c5.7-0.5,11.1,1.3,16.4,2.6
			c-1.3-2.1-2.2-4.5-3.7-6.4c-3-0.8-7.4,1.3-7.9-3.1c-1.8-1.5-4.6-0.4-6.5-0.3C385.9,147.1,384.5,148.7,383.4,150.6L383.4,150.6z
			 M187.9,95.4L187.9,95.4L187.9,95.4L187.9,95.4z M211.2,152.3l3.8-3.7c0.3,0,0.6,0.1,0.8,0.3l-0.3,7.1c1.9,1.7,4.1,2.3,6.6,2.4
			c0.2-1.9,1.7-3.3,2.5-4.9c0.7-1.3,0.3-3.3,1.7-4.3l0.4,0.5c0.5,2.1,0.3,4.5,1.4,6.3c0.1,1,0.3,2.3,0.4,3.2
			c2.8,0.1,5.4-0.7,7.5-1.7c-0.1-2.4,0.7-4.4,1.1-6.7c0.6-0.8-0.7-2.2,0.9-2.1c0.9,1.9,2.5,3.9,3.4,5.9c3.7-3.8,5.2-8.7,6.1-13.8
			c-1.1-1.5-2.7-1.5-4-2.4c-10.9-3.5-24.8-4.2-35.3,1.2C207.6,144,208.4,148.8,211.2,152.3L211.2,152.3z M109.6,272.3
			c-0.4,4.9,0,9.6,0.3,14.4c1,1.6,2.9,3.5,4.7,3.6l0.3-3.3c0.8-4.6-1.7-9.4,0.9-13.2c1.8,0.6,3.6,1.5,5.1,2.3
			c0.7-4.2-0.3-9.1-4.4-11.7L109.6,272.3L109.6,272.3z M125.4,265.4c-2.5,7.5-4.4,16.7-1.3,24.6c1.7-1.1,3.5-2.2,5-3.8
			c-0.3-6-1.1-12.4,2.4-17.4c3.1,1,5.3,4,6.5,6.9c2.1-2.7,2.8-6.4,2-10c0.1-2.8-3.1-2.2-4.6-3.3c0.5-2.4,0.5-5.1,3-6.5l-7.7,0.8
			C128.6,259.4,126.4,262.2,125.4,265.4z M141.1,287.5c0.3,0.6,0,1.6,0.6,1.7c1-5.4,5.3-8.8,7.7-13.6c1.1-1.6,1.1-3.8,2.9-5.1
			c2.5,0,4.3,1.8,6.7,2c0.8,0.6-0.4,1.1-0.5,1.7c-0.5,4.4-2.2,8-1.8,12.4h0.4c3.4-3.6,5.7-7.4,8.2-11.5l0.4-3.6
			c0.6-4.4-4.1-7.2-7.2-9l2.7-3.5l-3.8-1.3c-4.5,0.5-8.5,2.3-11.7,5.8C142,270.7,141.4,278.8,141.1,287.5L141.1,287.5z M158.4,249.5
			c1.5,0.5,2.8-0.8,4.3-0.1c5.9,2.2,12,4.4,16.4,9.3l5.2,13.4l2.6-8.2l-1.7-4.5c-1.5-3.2-5.5-2.9-8.2-3.1c-1.1-1.3,0.1-2.8,0.5-4
			c1.3-4.5-4.2-4.3-6.5-6.1c0.1-2.8-3.2-1.8-5.1-2.1l-0.6-0.8c-0.4-0.6-1.3-0.6-1.9-0.1c-0.1-0.2-0.4-0.3-0.2-0.6l-1.4,0.3
			C159.8,244.6,158.4,246.9,158.4,249.5L158.4,249.5z M162.1,234.8c0.2,0.8,0.7,1.6,1.3,2.2c2.9-0.8,5.6-2.7,9-1.5
			c4.3,3.8,8.8,7.7,14,9.8l1.8-0.3c1.1,0.4,2.4,0.5,3.2,1.7c0.7,1.7-1.1,2.8-1.7,4.2c2.9,2.1,1.7,5.9,3.5,8.4l4.6-6.1
			c-1.1-2.7,0.1-7.3-4.1-7.5c-1.4-0.7-2.3-2.1-2.3-3.7c-2.7-2.5-6.1-3.6-8.9-6.1c-2.2-1.8-3.6-4.5-6.5-5.2c-2-1.1-4.1-1.7-6.4-2.2
			C165.3,227.7,164.9,232.8,162.1,234.8L162.1,234.8z M168.2,222.2l0.8,1.2c3.2-0.2,6.1-1.6,9.2-1.5c2.1,1.3,4.9,1.2,7,2.3
			c1.7,2.4,3.6,5.1,6.1,6.7c5.2,0.8,8.1,6.3,9.8,10.4v-2c0.8-2.7-0.1-5.9-1.1-8.4c-1.3-1.3-3.1-2.1-4.5-3.3c-0.3-0.8-0.1-1.2,0.2-2
			c-2-2.1-4.9-3.3-7.4-4.9c-3.4-4.9-9.9-3.6-15.1-4.9L168.2,222.2L168.2,222.2z M168.1,175.3c0.6,2,1.3,4.5,1.6,6.6
			c1.8-4,5.3-5.7,8.5-9c-1.8-1.2-4-1.8-6-2.2v-0.1C170.8,172,168.6,173.4,168.1,175.3z M179.7,196.3l2.9-2.9
			c2.9-2.9,5.2-6.3,5.7-10.1c-2-1.2-4.7-0.4-6.7,0.3C180.9,187.8,179.8,191.8,179.7,196.3L179.7,196.3z M181.8,205.3
			c4.4,0.3,8.7,1.1,12.3-1.3l3.6-11.5c-1.1-0.1-2.3-0.6-3.4-0.2C191.9,197.5,187.2,202.7,181.8,205.3L181.8,205.3z M183.1,164.5
			c2.9,4.2,7.7,9,12.6,10.3c-0.6-5.4-5.2-9.1-7.5-13.7l-0.1-1.5c-1.9-1.8-4.1-3-6-4C181.7,158.7,182.5,161.7,183.1,164.5
			L183.1,164.5z M198.7,205.8c3.4,0.6,7,0,10.2-1c4.6-1.1,7-6.1,8.6-10h-5.7l-6.1,6C203.2,202.2,200.9,204.1,198.7,205.8
			L198.7,205.8z M198,158.7c1,5,3.1,9.5,6,13.8l0.8-9.5L198,158.7z M219,183.6c0.4-3.2-0.9-6.9-1.3-10.2c-1.9-1.3-4.6-1.2-6.6-2.4
			C211.2,176.1,215.2,180.3,219,183.6z M213.2,216.1c4-1.3,7.9-2.7,11.6-4.7c2.4-3.4,6-6.5,6.5-10.4c-2.9,0.8-5.5-0.1-8.2,1.2
			c-1.7,3-2.7,6.4-5.9,8.6C216.6,212.9,214.3,214.4,213.2,216.1z M219.4,224l4.8,6.3c2.6,0.8,5.8,0.6,8-0.9l-1.7-5.7
			C227.1,224.9,223.1,224.5,219.4,224z M227.4,178.7l1.9,8.4c4.5-3.6,5.4-9,5.3-14.6C232,175.5,230.5,177.3,227.4,178.7z M240,193.6
			c0.1,1.2,0.4,2.4,1.1,3.3c5,1.8,5.5,7.9,10.1,10.2c3,1.3,6.4-0.3,9.1-1.5c-2-2.2-4.2-3.8-6.1-6.2c-1.3-0.6-2.7-1.4-2.6-3.1
			L240,193.6L240,193.6z M244,223.8c2.2,2.5,5.1,3.8,8.2,4.5c-0.5-0.7,0.3,0,0.5-0.4l-3.8-8.4c-1.9,0.1-3.9,0.4-5.7,0.3
			C243.2,221.1,243.5,222.5,244,223.8L244,223.8z M250.8,184.4c-1.8-4.2-2.5-9.2-3.1-13.8c-1.9,2.3-3.9,3.8-5.7,6.1
			C241.2,181.4,247.9,182.6,250.8,184.4L250.8,184.4z M258.6,180c2.3,3,7.4,2,10.2,1.1c-1.3-2.3-5.7-3.6-6.4-6.1
			c-0.4-4.3-1.4-8.6-2.8-12.7C257.3,167.7,254.6,174.1,258.6,180L258.6,180z M262.6,193.6c6.4,4.7,12.7,10.1,21.6,8.1
			c0.6-0.5,1.7-0.4,1.9-1.2c-2.6-1.7-5.4-2.9-8.1-4.5l-3.1-4.5h-1.4C270,192.7,266.3,193.1,262.6,193.6L262.6,193.6z M262.7,245.4
			h0.4c3.8-3.1,8.4-4.1,12.9-5.4c1.2,0.5,0.5,1.8,1.5,2.3c2.7-1.2,6.1-0.9,8.9-1.9c3.4,0.1,6.2,0.2,8.9,1.7c2.2,2.9,6.3,2.6,9.1,4.5
			l-0.5-4.5c-5.9-7-15.2-7.5-23.8-7.4l-0.2-0.9c-2,0-4.3,0.5-6.3,1.4c-2.7,0.1-5.4,1.5-8,2.3C264.6,240,263.6,242.9,262.7,245.4
			L262.7,245.4z M267.9,166.8c2.5,3.3,6.2,5.8,10.4,4.9c-2.2-2.1-4.7-4.4-4.8-7.4c0.6-5.7-5.6-6.1-8.7-9.1
			C265.8,159.2,265.7,163.4,267.9,166.8z M267.2,256.8h0.7c3.4-2.1,8.3-0.5,11.7-2.8c1.9-1,2,1.6,3.3,2.3c3.1,1.9,3.5,7.7,7.9,6.3
			c5.3,2.8,4,9.2,4.2,13.9l4.9-3.1c-0.5-2.5,0.9-5.5-0.6-7.7c-1.2-2.7-4.5-3-6.1-5.2c1.9-3.3-2.4-4.8-3.3-7.2l0.3-0.3l6.8,0.9
			c2.3,1.4,3.1,4,3.8,6.3c5.3,0.9,6.6,6.9,8.4,10.7c1.1-2.6,1.5-5.4,2.6-8c0.1-2.1-2.8-2.1-4.2-3.1c-0.4-3.3-1.9-6.3-4.7-8.3
			c-5.9-1.5-11.1-4.7-17.5-4.7l-5.4,1.7c-2.9,0.7-6.1-0.2-8.3,1.9C268.3,250.7,268,254.4,267.2,256.8L267.2,256.8z M270.6,230.4
			l1.2,0.6c2.6-1.2,5.2-2.6,8-3.6c4.3-1.2,7.6,3.6,11.2,0.6c1.3-1,2.5,0.4,3.5,1.2c1.5,2.8,5.1,2.6,7.8,3.4c-1.3-3.6-3-8.6-7.7-9.2
			c-1.9-0.8-4-0.8-5.8-1.9c-4.9-5.4-8.1,4.5-13.5,2C273.4,225.6,271,227.6,270.6,230.4L270.6,230.4z"/>
		<path class="st1" d="M271.8,261.6c2,1.7,4.1,4.7,7.4,4.3c4,1.9,2.3,7.1,4.5,9.8l2.3-2.1l-0.2-0.1l0.3-0.3l0.1,0.2
			c0.6-1.9-0.3-5.3-1.3-7.6c-1.5-1-3.2,0.1-4.6-0.9c-0.2-2-1.5-3.1-2.9-4.3c-1-0.8-2.4,0.3-3.5,0.2L271.8,261.6L271.8,261.6z
			 M279.8,183.6c2.1,3.5,6.2,5.7,9.5,8.1c2.7,1.2,6.2,1.5,9.1,0.9c-2.7-2.3-5.3-4.8-7.6-7.5c-0.9-1.3-1.1-2.9-2.3-4
			C285.5,181.7,282.1,181.6,279.8,183.6z M283.3,160.7c3,3.6,7.5,2.2,11.6,2.3v-0.4l-6.4-5.4C286.8,157.8,284.9,159.3,283.3,160.7
			L283.3,160.7z M165.6,100.4l3.7,11.5c-0.1-6.5,3-12,2.3-18.6l2.8-4.1l-5.8,1.8C167,93.9,165.7,96.9,165.6,100.4z M168.1,80.4
			l5-2.9V70c-2.1,1.3-3.3,3.5-4.9,5.2L168.1,80.4z"/>
		<path class="st1" d="M271.8,92.1c-1.2,1.6-3.1,2-4.6,2.3c2.7-4.9,4-11.8,1.8-17.3c1.4-0.5,3-0.8,4.3-1.5l-0.1-0.1l3.5-3.1
			c4.7-3.2,2.9-9.3,4.6-13.8c-2.3-3.6-3-7.9-6.3-10.9l0.2-0.1c-2.6-3.3-7.4-3-10.9-4.6c-4.7-1.6-8.4,1.7-11.8,3.8
			c-1.5,0.3-0.6,2.2-2.2,2.1c-0.9,2.4-2,4.9-2.6,7.5c-6.3-0.9-13.2-0.2-18.2,3.4c-2.7-2-6-2.4-9.1-3.3c-2.3-0.4-4.9,0.4-6.6-0.9
			c-2.4-2.7-3-7.7-7.1-8.4c-1.5-0.5-1.8-2.1-1.8-3.5c-2.8-0.4-5.2-1.7-7.9-2.3c-4.1-1.9-7.3,1.1-10.4,3.1c-1.3,0.6-2.9,0.8-4.1,1.6
			c-2.3,3.6-4.5,7.2-6,11.2c0.5,3.3,1.9,6.1,3.5,8.9c1.5,4.2,6.1,7.4,10,9.1c-1.8,6.6-1.8,13.6,0,20.3l-0.1,0.1
			c-0.1,0.1-0.1,0.1-0.2,0.2c-0.6,0-1.3,0.1-1.8-0.2h-0.1c0.9,6.1,3.8,11.5,8.4,16c1.7,0.6,1.3,2.6,2,3.8c0.5,0.6,0.5,1.8,0.3,2.3
			c-9.4-0.3-18.7,2-26.9,6.7c-2,1-1.1,3.8-1.3,5.8c5.6-3.7,11.7-6.5,18.4-7.7c2.9-0.2,6.1-0.9,8.9-0.1l0.3,5.5
			c-7.6,4-15.9,6.3-22.4,12.8c0.1,2-0.3,4.3,0.3,6l5.8-4.7c5.6-4.3,11.5-7.9,18-10.3c1.7,2.1,3.5,4.2,5.8,5.5
			c3.9-2.5,8.1-4.3,12.6-5.5c2.4-1.4,6.1-0.1,7.7-2.9l1.1-5.8c-0.2-0.1-0.3-0.4-0.6-0.3c-3-1.7-5-4.7-4.7-8.3
			c-1,0.5-2.2,0.8-3.4,0.9c-1-0.3-2-0.5-2.4-1.5c-0.1-1.3-0.7-3.2,0.6-4.2c4.2-2.6,9.5-2.7,14.8-2.3c3.9,0.5,9.5,0.3,10.9,4.9
			c-0.2,1.3-0.1,2.8-1.4,3.7c-1.4,0.8-3-0.1-4.3-0.6c-1,3.1-2.7,6.7-6.3,7.7l0.5,3.7c0.4,1.7,0.6,4.4,3.2,3.8
			c6.1,1.5,11.4,4.6,16.8,8c1.8-1.8,3.2-3.8,4.5-5.7c9.5,3.2,17.6,10.3,25.5,16.9l0.3-5.4c-7.4-6.6-15.7-11.3-24.2-14.9
			c0.3-1.7,0.7-3.4,0.8-5.2c10.2,0.6,19.8,3.7,28.2,8.6l-0.1-4.6c-8.8-4.7-18.5-7.9-29-8c-0.4-0.6-0.5-1.3-0.4-2
			c5.1-0.8,8.8-6.1,10-10.7c2.6-3,6.4-6.3,5.5-10.7c0.1-0.4,0.2-0.8,0.4-1.1C271.9,94.3,272.2,93.1,271.8,92.1L271.8,92.1z"/>
		<path class="st1" d="M280.7,108.5l5.2-1.7l0.6-2.9c1.5-4.3-1.7-7.5-3.2-10.9L280.7,108.5L280.7,108.5z M293.9,128.8
			c2.5,2.7,4.9,7.2,9.3,5.8c-0.3-1.8-1.3-3.4-2-5c-1.1-1.4-1.5-5.2-3.8-3.8c-1.7-1.2-2.2-3.1-3.3-4.6
			C293.7,123.5,294,126.4,293.9,128.8z M294.8,147.5c1,1.4,1.2,3.1,2.2,4.3c1.7,1.1,4.3,1,6.4,0.8c1.9-0.4,3.1,1.7,4.9,0.4
			c-2.2-1.4-3.6-4-5.7-5.8C300.2,145.2,297.5,146.9,294.8,147.5L294.8,147.5z M298.2,177.3c4.4,2.6,10,5.2,15.9,4.3
			c0.6-0.3,1.7-0.3,1.8-1c-3.6-1.3-7.5-4.9-11.3-5.7c-2.1-3.3-4.9,0.8-7.6,0.6C297.2,176.2,298,176.8,298.2,177.3L298.2,177.3z
			 M311.5,233.7l1,2.1c1,6.7,5.2,12.8,2.9,20.1c1.9,1.3,2.5,3.6,3.7,5.4h0.3c1.5-5.6,0.5-11.3-0.3-16.9
			C319.7,239.3,314.5,236.3,311.5,233.7L311.5,233.7z M312.6,168.2c3.3,2.6,8.6,2.8,12.5,1.5c-2.4-1.3-5.1-2.8-7.1-4.6L312.6,168.2
			L312.6,168.2z M328.4,187.9c-0.3,2.7,1.5,4.9,3.4,6.3c0.7-1.6,1.8-2.9,2-4.7c-0.6-2.9-2.2-5.4-4.6-7.1
			C328.7,184.1,328.2,185.8,328.4,187.9L328.4,187.9z M328.6,217c-0.4,3,2.9,3.4,4.3,5.1c1.2,1.4-0.8,2.4-0.8,3.7
			c2.4,3.1,3.8,6.7,3.8,10.9c1-3.9,2.4-7.6,3-11.6c-0.3-2.8-4.7-2.2-4-5.4c1.3-3.2-0.3-6.3-1.1-9.2c-0.3-0.5-0.8-1.4-1.3-1.1
			C331.3,212,328.4,213.8,328.6,217L328.6,217z M337.4,201.8l3.3,6.5c1.5-0.2,2.4-1.6,3.6-2.6c0.9-2.7-1.5-4.4-2.2-6.6
			c-0.6-1.5,0-3.6-1.1-4.9c-0.8-0.5-1.8-1.3-2.8-1.1L337.4,201.8L337.4,201.8z M341.7,184.8c2.6,1.6,5.6,3.9,7,6.7
			c2.3,6.5,5.8,12.4,8.4,18.7c1,4.4,1.7,8.4,2.9,12.7c0.5,1.1,0.2,3.4,2,3.2c0.5-4.9,1.5-9.5,1.5-14.6c-1.6-2.1-3.7-3-5.7-4.3v-0.4
			c0.3-1.1,1.1-2.4,2.5-2.2c0.6-0.7,2.3-1.3,1.5-2.4c-3.3-3.3-3.1-9.1-8.4-10.1c-1.9-0.8-2.3-2.7-2.5-4.5
			C348.5,185.6,344.8,184.9,341.7,184.8z M344.7,219.5c3.3,3,2.1,7.4,1.9,11.4c-0.5,2.4,2.6,1,3.5,2.3c2,2.9,0.8,7.2,0.1,10.4
			c1.7-2.6,3.7-4.9,5.1-7.8c-0.1-1.1,1.3-1.6,1.3-2.9c0.6-1.9-1.6-1-2.5-1.2c-0.8-0.2-1.6-0.7-1.4-1.7c1.7-3.2,0.1-7-0.5-10.2
			c-0.8-2.6,0.3-6.1-0.9-8.4C349.3,214,343.2,214.7,344.7,219.5z M350.7,174.1c5.7,5.8,9.9,11.5,16,17.1c0.1-2.5-0.2-4.8-0.3-7.2
			c-0.9-1.7-2.6-3-4-4.3C357.8,179.2,355.5,173.1,350.7,174.1z M365.6,204.5c0.1,0.6,0.4,1.1,0.6,1.7c2.5,4.1,4.9,8.3,6.6,12.7
			c-0.5-4.7,2.7-10.6-1.5-14.3c-0.6-1.5-2.5-1-3.7-0.9L365.6,204.5L365.6,204.5z M380.9,251.3c1.8,0.8,4.1-0.7,5.8-1.7
			c1.6-0.4,2.9,0.5,4.1,1.3c0.5,1,0,2,0.2,2.9c3.8,1.1,7.6,2.5,11,4.7l1.1-1.1c0.3-2.7-1.9-4.7-4-6.3c-1.3-0.8-3.3-0.3-4.3-1.6
			c0.6-1,0.6-2.5,0.6-3.7c-2.1,0-3.5-0.6-5.2-1.7c-1.1-0.3-2-1.2-3,0C384.2,246.5,384,249.7,380.9,251.3L380.9,251.3z M385.4,170.8
			c1.6-0.4,3.3-0.9,4.6-2c4.3-3.9,10.5-1.3,15.5-1.3c-1-1.7-2.2-3.4-3.5-4.9c-1.8-0.7-3.5-1.5-5.5-1.5c-4.4-2.5-7.3,1.7-10.6,3.8
			C384.9,166.5,384.5,169,385.4,170.8L385.4,170.8z M385.5,183.9c0-0.2,0-0.4,0.2-0.4c0.6,0.5-0.1,1.7,0.9,2c1.7-0.8,3.2-2,4.7-3.1
			c4.3,0,6.8-4.2,11.1-4.2c7,1.3,14,2.7,20.2,6.1c-0.4-4.2-4-7.9-7.7-9.8c-2-0.7-3.6,0.4-5.1,1.5c-4.3,2.7-2-3.9-5.1-4
			c-3.9,1.2-7.9,2.6-12.3,2.2c-2.5,0.9-4.4,3.3-7.2,3.1C385.1,179.5,384.8,182,385.5,183.9z M388.5,198.2c1.3,1.4,3.6,1.1,5.5,1.4
			l5.6-2.2c0.1-1-1.7-1.3-1.3-2.4c1.6-1.7,3.7-0.5,5.6-1.2c2.7-0.4,5.4-3.1,8.1-1.1c-0.1,0.3,0.1,0.8-0.1,1.1c-0.8,2,0.6,3.2,2.1,4
			c3.1,0.6,6.1,3.5,9.2,2.2c-0.3-2.6-1-5-1.7-7.5c-2.6-0.5-4.5-2.6-6.9-3.5c-1.1,1-2.5,1.8-3.8,1.7c-4.9-1.1-10.8-4.2-15.8-1.1
			c-1.8,2.2-5,1.5-7.4,2.5C387.6,194.1,387.9,196.2,388.5,198.2L388.5,198.2z M390.6,236.2c-0.4,1.1-1.5,2.9,0.5,3.4
			c4.1,0.1,9.3-2,12.5,1.2c1.1,0.8,0.6,2.6,0.5,3.6l5.4,4.5c0.5-2.7,1.5-5.1,1.5-8c-0.4-2.1-1.6-4-3.2-5.4c-3.5,0-5.6-4.1-9.4-3.6
			c-2-0.5-3.7,1.3-5.7,1.3C391.9,234.2,391.3,235.3,390.6,236.2L390.6,236.2z M392.1,206.1c0.8,1.7,1.8,4.5,3.4,4.7
			c3.8-1.7,9.3-2.7,13.5-0.9c1.4,0.3,1.4,1.9,1.1,2.9c2.2,1.3,4.8,2.3,7.1,3.7l-0.6-3.8c-0.1-4.2-5.4-4.6-5.7-8.7
			c-4.3-1.4-9.1-1.8-13.6-0.8c-1.5,1.3-3.6,1.2-5.4,1.5C391.7,205.3,392,205.6,392.1,206.1L392.1,206.1z M393.2,226.8
			c2.5-0.7,4.1-3.5,6.8-3.7c4.1,0.1,7.8,1.7,10.3,5.2c1.5,1,1.2,3.6,3.2,3.6c-0.6-3.1,0.5-6,0.3-9.2c-2.7-4.5-9.3-1-11.8-6.3
			l-4.7,0.3c-3.4,0.8-2.5,4.8-3,7.5C393.9,225.1,393.1,225.8,393.2,226.8L393.2,226.8z M416.7,254.8c2,4,6.3,7,6.8,11.5
			c1-1.2,1.7-2.6,2.4-4c-0.1-1.3-1.5-1.3-2.1-2.3c-0.6-1.7,0.3-3.1,0.6-4.6c-0.8-2.4-2.8-4.6-5-6L416.7,254.8L416.7,254.8z
			 M424.5,244.7l4.6,6.3c2-3.1,2-7.7,1.2-11.5c-0.4-0.7-1.3-1.8-2.4-1.3C426.2,239.9,425.9,242.6,424.5,244.7z M405.8,69.6
			c1.7,0.8,3.3,1.6,5.2,1.7c1.3-0.7,3.1-1.2,4.7-0.8c2.4,1.5,5.2-0.3,8-0.2c-2.4-2.3-5.2-3.7-8-5C412.2,66.1,409.3,68.6,405.8,69.6z
			 M430.8,75.6c3.4,0.3,5.8,3.3,8.1,5.8c2.9,0.4,5.1,2.5,6.8,4.6l-1.1-3.4c-0.8-3.4-2.9-6-5-8.7C436.5,74.2,433.5,74.4,430.8,75.6
			L430.8,75.6z"/>
		<path class="st2" d="M192.1,47.6l1.9,0.2c5,2.5,13.1,3.8,13.5,11c-5,2-9.9,4.7-13.9,8.8c-3.1-3.1-9.3-1.4-10.3-6.9
			C184.2,55.4,186.1,48.9,192.1,47.6L192.1,47.6z M196.9,80c5.8-0.5,11.4,0.3,17.5-0.2c1.5,0.6,3,1.9,3.7,3.4
			c-0.2,6.9-2.3,13.5-2.6,20.6c-2.6,1.1-5.2,3.3-5.8,6.1c-2.4,0.7-4.5,2.1-6.8,3.2c-1-2.2-0.8-5.4,1-7.2c2.5-3.5,9-2.7,8.4-8.3
			c1.7-2.7,0.1-6.1,0.1-9c-0.6-2.1-1.3,0.7-2.3,0.6c-2,0.4-4.2,0.6-5.9-0.4c-1.4-1.4-3-2.6-3.4-4.5c-1.8-0.9-3.9-2.3-4.8-4.2
			L196.9,80L196.9,80z M204,121.7c2.7,0.4,5.6-0.8,8,0.5c-0.5,0.9-1.9,1.3-2.9,1.5l-4.3,2C203.1,125.3,204,122.8,204,121.7
			L204,121.7z M215.2,68.3c2.7-0.9,5.7-2.7,8.6-1.9c-2.1,2.1-3.8,4.9-5.4,7.4l-8.8-0.2C210.6,71.4,213,69.4,215.2,68.3L215.2,68.3z
			 M240.8,66.2c3.6-0.6,3.4,4.1,6.8,4.3c0.6,0.8,1.4,1.5,1.1,2.6c-1.9,0.8-4.7,0.4-6.9,0.9c-2.9-1.6-1-6.6-5.6-6.3
			c-0.2-0.4-0.8-1.1-0.1-1.4C237.5,65.8,239.3,66,240.8,66.2L240.8,66.2z M238.5,83.3c1.6-2.2,4-2.4,6.3-2.9l16.6,0.3
			c0.7,0.6-0.6,1.2-0.6,2c-1,1-2.5,1.2-3.4,2.1c-2.2,0.1-2,2.6-3.5,3.7c-2.4,2.4-5.8,1.3-8.6,0.9c-1-0.7-2-1.7-2.5-2.8l-0.8,0.8
			c1,3.6,0.7,7.6,1.4,11.2l4,2.6c0.1,5.9,7,4.3,10,7.6c-0.7,2.1-2.1,3.9-3.6,5.7c-2.3-2.2-5.1-3.9-8.1-4.9c-0.3-3.5-4-5.5-6.1-7.2
			c-0.6-6.3-0.7-12.7-1.7-18.7L238.5,83.3L238.5,83.3z M244.5,122.8h7.7l-1,4l-7.7-3.3C243.4,122.9,244.1,122.7,244.5,122.8z
			 M258.3,50.3l5.7-1.8c3.3,1.5,6.3,3.5,9.3,5.6c2.4,4.4,2,10.2,0.9,15.1c-1.7,1.9-5.5,0-6.9,3.1h-0.3c-2.1-6-8.1-11.4-13.7-14.1
			C254.3,55.1,255.3,52.1,258.3,50.3L258.3,50.3z"/>
		<path class="st1" d="M391.7,294h34.1c5.1-0.8,10.4-0.6,14.5-4.4c17.1,2.6,34.4-1.6,47.8-11c7.1-5.7,13.3-12.2,18.6-19.6
			c4.5-6.4,8.1-12.3,10.4-19.4c1.7-4.4,3.1-9,4.1-13.7c4.9-22.2,2.3-46.9-4.9-68c-1.3-3.8-2.8-7.6-4.5-11.3
			c-9-18.6-21.2-38.7-40.1-50.5c-10.6-6.6-20.4-16.9-26.4-27.5c-3.3-3-6.4-6.8-10.6-7.6c1.2,1.9,2.4,3.8,2.8,6l-0.3,0.3
			c-4.5,0.1-8-2.2-11.1-5.1l3.4-3.1c-1.3-0.6-2.8-0.9-4.2-1.2c-12.9-1.5-23.5,4.5-35,7.4l-0.2,0.6c7,3.1,8.5,10.9,12.6,16.1
			c1-1.2,2.8-0.3,4.2-0.5c2,0.1,4,1.6,5.9,1.1c0.1-1.7-0.9-3.1-1.2-4.6c1.2-0.6,2.7-0.1,4,0c3.7,2.2,9.6-0.4,12,4.6
			c-4.2,0.3-8.2,1.1-12.2,2.1c0.3,1.6,1.9,2.9,1.7,4.5c-3.4-1.4-7.1-2.3-10.8-2.8l-0.2,0.6c4.8,5.6,11.4,9,18.1,10.9
			c9.7,2.2,18.2-2.4,27.5-0.8c22.9,10.5,42.5,34.5,51,57.3c0.4,1.1,0.8,2.2,1.2,3.3c7.1,20.8,8.5,46.4,1.3,68
			c-3.8,9-8,17.5-14.7,24.9c-2.5,3.1-5.3,5.8-8.4,8.3c-9.6,7.5-21.4,10.8-33.6,7.4c-0.8-0.5-2.3-0.6-2.1-2c0.4-1.8,0.8-3.6,1.2-5.4
			c2-10.4,3-21.3,2.4-32.3c0-0.5,0-0.9-0.1-1.4c-0.7-15.9-3.8-30.1-9.7-43.9c-3.7-7.9-8.2-16.5-13.8-24.2
			c-6.7-9.2-15-17.1-25.6-21.1c-6.5-1.7-14.6-2-19.5,3.4c-3.5,3.1-5,7.2-4.5,11.8c-5.5,3.5-11.7,5.4-18.4,6c-1.7,0.1-3.3,0.7-5,0.7
			c-1.6,0.1-3.2,0-4.8-0.2c-8.1-1-16.3-5.4-22.5-10.4c-0.1-3.3-0.3-6.5-0.5-10c-3.6-1.9-6.5-5.4-6.8-9.5l0.3-0.3
			c2,0.6,3.8,1.7,5.7,2.8c-0.8-5-1.8-9.9-4.3-14.3c-2.3-1-4.6-1.7-6.8-2.9c-2.5-1.7-4.1-4.7-4.5-7.4c2.2,2.2,6.1,1.4,7.9,3.7
			c-3-8.9-3.1-19.1-8-27.2c-2.5-6-9-8.8-13.5-13.2c-1.7-2.1-2.4-5-5.6-5.4c-2.6-0.6-2.7-3.5-3.2-5.4c1.6,0.2,2.9,1.3,4.3,1.5
			c-3.7-9.9-7-20.8-17-27l-1.7,1.1c-3.9,0.6-8.1,0.8-12,1c1.7-2.6,4.8-3.6,7.2-4.8c-2.8-2.1-5.1-2.6-8.7-3.2c-2,2.1-5.7,3.1-8.4,3.6
			l-0.3-0.2c-0.1-2.3-0.6-5.1,2.9-5.7c-3.3-1.6-8.8-1-12.2,0c-1,2.5-3.7,4.7-3.5,7.7c-2,2.1-3.4,4.8-5.4,6.3
			c-0.1-4.9,2-9.5,2.9-13.6c-2.9,1.1-5.8,2.6-8.6,4c-4.6-2.6-9.3-5.3-14.2-7.2c-0.5-0.2-1.4-0.4-1.2,0.4c4.2,3,2.5,8.6,3,12.9
			l-2.6-2.2c-1.3-3.3-5-5.6-5.6-9.2c-4.4,0.8-7.1,2-11.2,3.7l-0.6,0.3c3,0,5.6,2.4,7,4.7c-4.5,0.3-8.6-1.5-13-2
			c-0.5-0.5-0.8-1-1.6-0.9c-2.2,0.8-4.1,2.4-6.1,4c-4.4,4.3-8.9,9.2-11,14.9c1.5,0.3,3.3,0.2,4.4,1.1c-2.4,1.5-4.5,4-6.9,5.4
			c-0.8,3.3-0.7,7.1-0.9,10.7c-1.8,2.8-4.3,5.3-5.5,8.4c-4,12.9-5,27.1-4.4,41.7c-1.3,1.2-3,2-4.2,2.9l0.1,13h0.3
			c0.6-2.7,3.8-4.3,5.8-6.1h0.6c-0.3,2.9-0.7,5.9-0.8,8.9l-3.7,3.1c-3.7,3.3-0.6,8.2-0.9,12.3c0.3,1.1,0.4,2.7,1.2,3
			c0.4-1.6,1.9-2.8,2.7-4.2c1.6-0.4,3-1.7,4.5-1.9c-0.8,3.2-1.9,6.3-3.2,9.4c-0.6,0.4-1.3,1-1.9,1.6c-0.7,0.6-1.1,1.5-1.3,2.4
			c2.9,15.2,7.4,30.1,12.6,44.4c-3.5,5.9-5.5,13-8.4,19.1c-0.4,0.9-0.8,1.7-1.1,2.6c-2.9,7.4-3.8,15.7-7.5,22.9
			c-1.5-1-3.1-1.8-4.7-2.5c-6.9-2.3-14.9-0.8-20,4.5c-4.5-0.8-9.1-0.1-12.6,2.3c-2.5,1.9-4.5,4.2-5.6,6.9c-0.8,1.9-1.1,4-1,6.1
			c-2.9,2-4.4,5.1-5.4,8.1c-1.4,6.9,1.1,14.1,5,19.4L391.7,294L391.7,294L391.7,294z"/>
		<path class="st2" d="M516.4,157.9c-1.3-3.8-2.8-7.6-4.5-11.3c-9-18.6-21.2-38.7-40.1-50.5c-10.6-6.6-20.4-16.9-26.4-27.5
			c-3.3-3-6.4-6.8-10.6-7.6c1.2,1.9,2.4,3.8,2.8,6l-0.3,0.3c-4.5,0.1-8-2.2-11.1-5.1l3.4-3.1c-1.3-0.6-2.8-0.9-4.2-1.2
			c-12.9-1.5-23.5,4.5-35,7.4l-0.2,0.6c7,3.1,8.5,10.9,12.6,16.1c1-1.2,2.8-0.3,4.2-0.5c2,0.1,4,1.6,5.9,1.1
			c0.1-1.7-0.9-3.1-1.2-4.6c1.2-0.6,2.7-0.1,4,0c3.7,2.2,9.6-0.4,12,4.6c-4.2,0.3-8.2,1.1-12.2,2.1c0.3,1.6,1.9,2.9,1.7,4.5
			c-3.4-1.4-7.1-2.3-10.8-2.8l-0.2,0.6c4.8,5.6,11.4,9,18.1,10.9c9.7,2.2,18.2-2.4,27.5-0.8c22.9,10.5,42.5,34.5,51,57.3
			c0.4,1.1,0.8,2.2,1.2,3.3c7.1,20.8,8.5,46.4,1.3,68c-3.8,9-8,17.5-14.7,24.9c-2.5,3.1-5.3,5.8-8.4,8.3
			c-9.6,7.5-21.4,10.8-33.6,7.4c-0.8-0.5-2.3-0.6-2.1-2c0.4-1.8,0.8-3.6,1.2-5.4c2-10.4,3-21.3,2.4-32.3c0-0.5,0-0.9-0.1-1.4
			c-0.7-15.9-3.8-30.1-9.7-43.9c-3.7-7.9-8.2-16.5-13.8-24.2c-6.7-9.2-15-17.1-25.6-21.1c-6.5-1.7-14.6-2-19.5,3.4
			c-3.5,3.1-5,7.2-4.5,11.8c-5.5,3.5-11.7,5.4-18.4,6c-1.7,0.1-3.3,0.7-5,0.7c-1.6,0.1-3.2,0-4.8-0.2c-8.1-1-16.3-5.4-22.5-10.4
			c-0.1-3.3-0.3-6.5-0.5-10c-3.6-1.9-6.5-5.4-6.8-9.5l0.3-0.3c2,0.6,3.8,1.7,5.7,2.8c-0.8-5-1.8-9.9-4.3-14.3
			c-2.3-1-4.6-1.7-6.8-2.9c-2.5-1.7-4.1-4.7-4.5-7.4c2.2,2.2,6.1,1.4,7.9,3.7c-3-8.9-3.1-19.1-8-27.2c-2.5-6-9-8.8-13.5-13.2
			c-1.7-2.1-2.4-5-5.6-5.4c-2.6-0.6-2.7-3.5-3.2-5.4c1.6,0.2,2.9,1.3,4.3,1.5c-3.7-9.9-7-20.8-17-27l-1.7,1.1c-3.9,0.6-8.1,0.8-12,1
			c1.7-2.6,4.8-3.6,7.2-4.8c-2.8-2.1-5.1-2.6-8.7-3.2c-2,2.1-5.7,3.1-8.4,3.6l-0.3-0.2c-0.1-2.3-0.6-5.1,2.9-5.7
			c-3.3-1.6-8.8-1-12.2,0c-1,2.5-3.7,4.7-3.5,7.7c-2,2.1-3.4,4.8-5.4,6.3c-0.1-4.9,2-9.5,2.9-13.6c-2.9,1.1-5.8,2.6-8.6,4
			c-4.6-2.6-9.3-5.3-14.2-7.2c-0.5-0.2-1.4-0.4-1.2,0.4c4.2,3,2.5,8.6,3,12.9l-2.6-2.2c-1.3-3.3-5-5.6-5.6-9.2
			c-4.4,0.8-7.1,2-11.2,3.7l-0.6,0.3c3,0,5.6,2.4,7,4.7c-4.5,0.3-8.6-1.5-13-2c-0.5-0.5-0.8-1-1.6-0.9c-2.2,0.8-4.1,2.4-6.1,4
			c-4.4,4.3-8.9,9.2-11,14.9c1.5,0.3,3.3,0.2,4.4,1.1c-2.4,1.5-4.5,4-6.9,5.4c-0.8,3.3-0.7,7.1-0.9,10.7c-1.8,2.8-4.3,5.3-5.5,8.4
			c-4,12.9-5,27.1-4.4,41.7c-1.3,1.2-3,2-4.2,2.9l0.1,13h0.3c0.6-2.7,3.8-4.3,5.8-6.1h0.6c-0.3,2.9-0.7,5.9-0.8,8.9l-3.7,3.1
			c-3.7,3.3-0.6,8.2-0.9,12.3c0.3,1.1,0.4,2.7,1.2,3c0.4-1.6,1.9-2.8,2.7-4.2c1.6-0.4,3-1.7,4.5-1.9c-0.8,3.2-1.9,6.3-3.2,9.4
			c-0.6,0.4-1.3,1-1.9,1.6c-0.7,0.6-1.1,1.5-1.3,2.4c2.9,15.2,7.4,30.1,12.6,44.4c-3.5,5.9-5.5,13-8.4,19.1
			c-0.4,0.9-0.8,1.7-1.1,2.6c-2.9,7.4-3.8,15.7-7.5,22.9c-1.5-1-3.1-1.8-4.7-2.5c-6.9-2.3-14.9-0.8-20,4.5
			c-4.5-0.8-9.1-0.1-12.6,2.3c-2.5,1.9-4.5,4.2-5.6,6.9c-0.8,1.9-1.1,4-1,6.1c-2.9,2-4.4,5.1-5.4,8.1c-1.4,6.9,1.1,14.1,5,19.4h113
			c-1.7-2-3.2-4.7-4.4-7.1c-2.4-3.7-0.8-8.8-1-13.1c2.3-4.6,4.6-9.3,7.3-13.9c0.5-0.9,1.1-1.8,1.6-2.7l5.2-2c2.7,0,5.1-2,7.7-1.3
			c3.5,3.5,3.5-3.5,6.9-3.8c7.9-1,15.8-0.3,20.3,6.5c0,0.9,1.4,0.9,1.1,1.7c-1,0.3-2-0.3-3.1-0.3c-4.9-1.2-10.6-4.3-15.3-1.5
			c-0.2,1.1-0.4,2.3-0.7,3.5c-0.2,1.2-0.5,2.4-0.6,3.6c3.1,0.9,5.8,3.1,8.1,5.6c1.6-3.1,5-4.5,8-5.6c2.6,0.6,5.5,0.6,7.7,2.3
			c4,3.7,2,10.1,1.7,14.8c3.6,2,7.7,3.2,11.4,5.2c-1.7,1.6-4,2.2-6.1,3l-6.1-1.2c-0.7-0.5-1.9-0.5-2.2-1.4c-2,2.2-4.5,5.1-5.8,7.9
			h87.6c-1.2-2.6-2.5-4.7-4.1-7.1c-1.8-3.8-1.1-9.1-1.3-13.2l8.2-12.5c4.5-0.1,9.5-1.7,14.4-0.9c0.2-0.1,0.5-0.2,0.7-0.4
			c2-1.4,2.6-4.6,5.6-4.2c5.4-1.5,9.5,1,13.5,3.4c-0.1,0.3-0.3,0.6-0.4,0.8c-1.7,2.7-4.8-0.3-7.1,0.5c-1,1,0.5,2.2,0.6,3.4
			c0.8,1.1-0.8,1-1.4,1.2c-1.4,0.2-2.8-0.2-3.8-1.2c-0.3-0.3-0.1-0.7-0.6-0.8c-1.1,1.9-2.8,3.6-3.3,5.8c1.5,1.4,3.4,2.8,4.2,4.6
			c1.5,2.1-1.2,3.7-1.7,5.6c-0.2,0.4-0.8,0.4-1,0c-1.3-0.8-2.5-2.7-4-2.2c-1.3,5.7,0.4,11.4-0.3,17.1c2.5,0.6,5.4-0.1,8.1,0l1.1-12
			c1.1-7.8,5.8-14.3,11.2-20.3c5.9-4,9.7,3.9,14,6.7c0.7,0.1,0.5,0.9,0.8,1.3c-0.1,1.3-1.4,1.8-2.3,2.2c-2.7,0.9-4.7-2-6.3-3.7
			c-1.6,1.7-2.3,4-4.1,5.4l0.6,0.2c2.1,2.1,4.2,4.4,4.6,7.2c-0.3,2.5-1.5,5-3.8,6.3c-1.7-3-3.1-6-4.3-9.2c0.1,0.1-0.1,0.2-0.2,0.3
			c-3.5,0.9-4.5,4.9-5,8.1c0.2,3.1-2.2,4.4-1.5,7.5h45.6c5.1-0.8,10.4-0.6,14.5-4.4c17.1,2.6,34.4-1.6,47.8-11
			c7.1-5.7,13.3-12.2,18.6-19.6c4.5-6.4,8.1-12.3,10.4-19.4c1.7-4.4,3.1-9,4.1-13.7C526.2,203.8,523.6,179,516.4,157.9L516.4,157.9z
			"/>
		<path class="st2" d="M222.9,276.6c2.5-1.6,6.5-2,7.1-5.7c-1-0.8-1.9-1.7-3.1-2l-2.6,0.8c0.2-1.5,1-3.3,1.6-4.9l8.4-2.7
			c-1.2,3.8-1.6,8.6-2,13c0.8,6.5,1.7,13.5,5.1,18.9h-9.1C227.3,288,221,283.6,222.9,276.6L222.9,276.6z M242.6,268.9h0.5l6.1,5.6
			l0.9-0.2c-0.5,6.6-0.8,13.1-0.9,19.7h-6.6c-1.3-6.3-3.6-13-3.3-19.8C240.4,272.4,241.1,270.2,242.6,268.9z M256.2,275.1
			c1.2-1.6,1.7-4.3,4.1-4.6c1.7,0.1,3.3,0.3,4.6,1.5c2.2,2.8,0.1,6.4-0.8,9.2c-0.9,4.3-2.4,8.8-3.9,12.8h-6.4L256.2,275.1
			L256.2,275.1z M353.3,273.1c1.4,1.8,1.9,4.2,4,5.8c1.9-2.6,2.3-6.5,1.4-9.8l-1.8-1.9c2.4-0.6,4.9-0.8,7.2-1.2
			c-1,3.4-3,6.5-2.6,10.4c0.1,5.8,1,11.5,1.5,17.5h-7c-2.6-5.6-5.1-11-4.9-17.5C351.7,275.3,352.2,274,353.3,273.1L353.3,273.1z"/>
		<path class="st1" d="M383.5,150.2c-0.1,1.7-1.3,3.5-0.2,4.9c1.6-1.7,4.1-1.7,6.1-2.4c5.7-0.5,11.1,1.3,16.4,2.6
			c-1.3-2.1-2.2-4.5-3.7-6.4c-3-0.8-7.4,1.3-7.9-3.1c-1.8-1.5-4.6-0.4-6.5-0.3C386,146.7,384.6,148.3,383.5,150.2L383.5,150.2z
			 M188,95C188,94.9,188,94.9,188,95L188,95L188,95z M211.3,151.8l3.8-3.7c0.3,0,0.6,0.1,0.8,0.3l-0.3,7.1c1.8,1.7,4.1,2.3,6.6,2.4
			c0.2-1.9,1.7-3.3,2.5-4.9c0.7-1.3,0.3-3.3,1.7-4.3l0.5,0.4c0.4,2.1,0.3,4.5,1.4,6.3c0.1,1,0.3,2.3,0.4,3.2
			c2.6,0.1,5.2-0.5,7.6-1.7c-0.1-2.4,0.7-4.4,1.1-6.6c0.6-0.8-0.7-2.2,0.9-2.1c0.9,1.9,2.5,3.9,3.4,6c3.7-3.8,5.3-8.7,6.1-13.8
			c-1.1-1.5-2.7-1.5-4-2.4c-10.9-3.5-24.8-4.2-35.3,1.2C207.6,143.5,208.5,148.3,211.3,151.8L211.3,151.8z M109.6,271.8
			c-0.4,4.9,0,9.6,0.3,14.4c1,1.6,2.9,3.5,4.7,3.6l0.3-3.3c0.8-4.5-1.7-9.4,0.9-13.2c1.8,0.6,3.6,1.5,5.1,2.3
			c0.8-4.2-0.3-9.1-4.4-11.7L109.6,271.8L109.6,271.8z M125.5,264.9c-2.5,7.5-4.4,16.7-1.3,24.6c1.7-1.2,3.5-2.2,5-3.8
			c-0.3-6-1.1-12.4,2.4-17.4c3.1,1,5.3,4,6.5,6.9c2.1-2.7,2.8-6.4,2-10c0.1-2.8-3.1-2.2-4.6-3.3c0.5-2.4,0.5-5.1,3-6.5l-7.7,0.8
			C128.7,259,126.5,261.7,125.5,264.9z M141.2,287c0.3,0.6,0,1.6,0.6,1.7c1-5.4,5.3-8.8,7.7-13.6c1.1-1.6,1.1-3.8,2.9-5
			c2.5,0,4.3,1.8,6.7,2c0.8,0.6-0.4,1.1-0.5,1.7c-0.5,4.4-2.2,8-1.9,12.4h0.4c3.4-3.6,5.7-7.4,8.2-11.5l0.4-3.6
			c0.6-4.4-4.1-7.2-7.2-9l2.7-3.5l-3.8-1.3c-4.5,0.4-8.7,2.5-11.7,5.8C142.1,270.2,141.5,278.3,141.2,287L141.2,287z M158.4,249.1
			c1.5,0.4,2.8-0.8,4.3-0.1c5.9,2.2,12,4.4,16.4,9.3l5.2,13.4l2.6-8.3l-1.7-4.5c-1.5-3.2-5.5-2.9-8.2-3.1c-1.1-1.3,0.1-2.8,0.5-4
			c1.3-4.5-4.2-4.3-6.5-6.1c0.1-2.7-3.2-1.8-5.1-2l-0.6-0.8c-0.4-0.6-1.3-0.6-1.9-0.1c-0.1-0.2-0.4-0.3-0.2-0.6l-1.4,0.3
			C159.9,244.2,158.5,246.4,158.4,249.1L158.4,249.1z M162.2,234.4c0.2,0.8,0.7,1.6,1.3,2.2c2.9-0.8,5.6-2.8,9-1.5
			c4.3,3.8,8.8,7.7,13.9,9.8l1.9-0.3c1.1,0.4,2.4,0.4,3.2,1.7c0.7,1.7-1.1,2.7-1.7,4.1c2.9,2.1,1.7,5.9,3.5,8.4l4.6-6.1
			c-1.1-2.7,0.1-7.3-4.1-7.5c-1.4-0.7-2.3-2.1-2.3-3.7c-2.7-2.5-6.1-3.6-8.9-6.1c-2.3-1.8-3.6-4.5-6.5-5.2c-2-1.1-4.2-1.7-6.5-2.2
			C165.3,227.2,165,232.4,162.2,234.4L162.2,234.4z M168.3,221.7l0.8,1.2c3.2-0.2,6.1-1.6,9.2-1.5c2.1,1.3,4.9,1.2,7,2.3
			c1.7,2.4,3.6,5,6.1,6.6c5.2,0.8,8.1,6.3,9.8,10.4v-2c0.8-2.8-0.1-6-1.1-8.5c-1.3-1.3-3.1-2.1-4.5-3.2c-0.3-0.8-0.1-1.2,0.2-2
			c-2-2.1-4.9-3.3-7.4-4.9c-3.4-4.9-9.9-3.6-15.1-4.9L168.3,221.7L168.3,221.7z M168.2,174.8c0.6,2,1.3,4.5,1.6,6.6
			c1.8-4,5.3-5.8,8.4-9c-1.8-1.2-4-1.8-6-2.2v-0.1C170.9,171.5,168.7,172.9,168.2,174.8z M179.8,195.9l2.9-2.9
			c2.9-3,5.2-6.3,5.7-10.1c-2-1.2-4.7-0.4-6.7,0.3C181,187.3,179.9,191.4,179.8,195.9L179.8,195.9z M181.9,204.9
			c4.4,0.2,8.7,1.1,12.3-1.4l3.6-11.5c-1.1-0.1-2.3-0.6-3.4-0.2C192,197.1,187.3,202.3,181.9,204.9L181.9,204.9z M183.2,164.1
			c2.9,4.2,7.7,8.9,12.6,10.3c-0.6-5.4-5.2-9.1-7.5-13.7l-0.1-1.5c-1.9-1.8-4.1-3-6-4C181.8,158.3,182.6,161.2,183.2,164.1z
			 M198.8,205.4c3.4,0.6,7,0,10.2-1c4.5-1.1,7-6.1,8.6-10h-5.7l-6.1,6C203.3,201.8,201,203.7,198.8,205.4z M198.1,158.3
			c1,5,3.1,9.5,6,13.8l0.8-9.5L198.1,158.3L198.1,158.3z M219.1,183.1c0.4-3.2-0.9-6.9-1.3-10.2c-1.9-1.3-4.6-1.2-6.6-2.4
			C211.3,175.6,215.2,179.9,219.1,183.1L219.1,183.1z M213.3,215.6c4-1.3,7.9-2.7,11.7-4.7c2.4-3.4,5.9-6.5,6.5-10.4
			c-3,0.8-5.5-0.1-8.2,1.2c-1.7,3-2.7,6.4-5.9,8.6C216.7,212.4,214.3,213.9,213.3,215.6z M219.5,223.5l4.8,6.3
			c2.6,0.8,5.8,0.6,8-0.9l-1.7-5.7C227.2,224.5,223.2,224.1,219.5,223.5z M227.5,178.2l1.9,8.4c4.5-3.6,5.4-8.9,5.3-14.6
			C232.1,175,230.6,176.8,227.5,178.2L227.5,178.2z M240.1,193.1c0.1,1.2,0.4,2.4,1.1,3.3c5,1.8,5.5,7.9,10.1,10.2
			c3,1.4,6.5-0.3,9.1-1.5c-2-2.2-4.2-3.8-6.1-6.1c-1.3-0.6-2.7-1.4-2.6-3.1L240.1,193.1L240.1,193.1z M244.1,223.3
			c2.2,2.5,5.1,3.8,8.2,4.5c-0.5-0.7,0.3,0,0.5-0.4l-3.8-8.4c-1.9,0.1-3.9,0.5-5.7,0.3C243.3,220.6,243.6,222,244.1,223.3z
			 M250.9,183.9c-1.8-4.2-2.5-9.2-3.1-13.8c-1.9,2.3-3.9,3.8-5.7,6.1C241.3,181,248,182.1,250.9,183.9z M258.7,179.6
			c2.3,3,7.4,2,10.2,1.1c-1.4-2.3-5.7-3.7-6.4-6.1c-0.4-4.3-1.3-8.6-2.8-12.7C257.4,167.2,254.7,173.7,258.7,179.6z M262.7,193.1
			c6.4,4.7,12.7,10.1,21.6,8.1c0.6-0.4,1.7-0.4,1.9-1.2c-2.6-1.7-5.4-3-8.1-4.5l-3.1-4.5h-1.4C270.1,192.2,266.4,192.7,262.7,193.1z
			 M262.8,245h0.5c3.8-3.1,8.4-4.1,12.9-5.4c1.2,0.5,0.5,1.8,1.6,2.3c2.7-1.1,6.1-0.9,8.9-1.8c3.4,0.1,6.2,0.2,8.9,1.6
			c2.2,2.9,6.3,2.6,9.1,4.5l-0.5-4.5c-5.9-7-15.2-7.5-23.8-7.3l-0.2-0.9c-2,0-4.3,0.4-6.3,1.3c-2.7,0.1-5.4,1.5-8,2.3
			C264.7,239.6,263.7,242.5,262.8,245z M268,166.4c2.5,3.3,6.2,5.8,10.4,4.9c-2.2-2.1-4.7-4.4-4.8-7.4c0.6-5.7-5.6-6.2-8.7-9.1
			C265.9,158.7,265.8,163,268,166.4z M267.3,256.3h0.8c3.4-2.1,8.3-0.5,11.6-2.7c1.9-1,2,1.6,3.3,2.3c3.1,1.9,3.5,7.7,7.9,6.3
			c5.3,2.7,4,9.2,4.2,13.9l4.9-3.1c-0.5-2.5,1-5.5-0.6-7.7c-1.2-2.8-4.6-3-6.1-5.2c1.9-3.3-2.4-4.8-3.3-7.2l0.3-0.3l6.8,0.9
			c2.3,1.4,3.1,4,3.8,6.3c5.3,0.9,6.6,6.9,8.4,10.7c1.1-2.6,1.5-5.4,2.6-8c0.1-2.1-2.7-2.1-4.1-3.1c-0.4-3.3-1.9-6.3-4.7-8.3
			c-5.9-1.5-11.1-4.7-17.5-4.7l-5.4,1.7c-3,0.7-6.1-0.2-8.3,1.9C268.4,250.3,268.1,253.9,267.3,256.3L267.3,256.3z M270.7,230
			l1.2,0.6c2.6-1.2,5.2-2.6,8-3.7c4.3-1.2,7.6,3.7,11.2,0.6c1.3-0.9,2.5,0.5,3.5,1.2c1.6,2.8,5.1,2.6,7.8,3.4
			c-1.3-3.6-3-8.6-7.7-9.2c-1.9-0.8-4-0.8-5.8-1.9c-4.9-5.4-8.1,4.5-13.5,2.1C273.5,225.2,271.1,227.2,270.7,230z"/>
		<path class="st1" d="M271.9,261.1c2,1.7,4.2,4.7,7.4,4.3c4,1.8,2.3,7.1,4.5,9.8l2.3-2.1l-0.2-0.1l0.3-0.3l0.1,0.2
			c0.6-1.9-0.3-5.3-1.3-7.5c-1.5-1-3.2,0.1-4.6-0.9c-0.2-2.1-1.5-3.1-3-4.3c-1-0.8-2.4,0.2-3.5,0.2L271.9,261.1L271.9,261.1z
			 M279.9,183.1c2.1,3.5,6.2,5.7,9.5,8.1c2.7,1.2,6.2,1.5,9.1,0.9c-2.7-2.3-5.3-4.8-7.6-7.5c-0.9-1.3-1.1-2.9-2.3-4
			C285.6,181.2,282.2,181.2,279.9,183.1z M283.4,160.3c2.9,3.6,7.5,2.2,11.6,2.3v-0.5l-6.4-5.4C286.9,157.3,285,158.9,283.4,160.3
			L283.4,160.3z M165.7,99.9l3.7,11.5c-0.1-6.5,3-12,2.3-18.6l2.7-4.1l-5.8,1.8C167.1,93.5,165.8,96.4,165.7,99.9z M168.2,80l5-2.9
			v-7.5c-2.1,1.3-3.3,3.5-4.9,5.2L168.2,80z"/>
		<path class="st1" d="M271.9,91.6c-1.2,1.6-3.1,2-4.6,2.3c2.7-4.9,4-11.8,1.9-17.3c1.4-0.5,2.9-0.8,4.3-1.5l-0.1-0.1l3.5-3.1
			c4.7-3.2,2.9-9.3,4.6-13.8c-2.3-3.6-3-7.9-6.3-10.9l0.2-0.1c-2.6-3.3-7.4-2.9-10.9-4.6c-4.7-1.6-8.4,1.7-11.8,3.8
			c-1.5,0.3-0.6,2.2-2.2,2.1c-0.9,2.4-2,4.9-2.6,7.6c-6.3-0.9-13.2-0.2-18.2,3.4c-2.7-2-6-2.4-9.1-3.3c-2.3-0.5-4.9,0.4-6.6-0.9
			c-2.4-2.7-3-7.7-7.1-8.4c-1.5-0.5-1.8-2.1-1.8-3.5c-2.8-0.5-5.2-1.7-7.9-2.3c-4.1-1.9-7.4,1.1-10.4,3.1c-1.3,0.6-2.9,0.8-4.1,1.5
			c-2.3,3.6-4.5,7.2-6,11.2c0.5,3.3,1.9,6.1,3.5,8.9c1.5,4.2,6.1,7.4,10,9.1c-1.9,6.6-1.9,13.6,0,20.3c0,0-0.1,0.1-0.1,0.1
			c0,0-0.2,0.2-0.2,0.2c-0.6,0-1.3,0.1-1.8-0.2H188c0.9,6.1,3.8,11.5,8.4,16.1c1.7,0.6,1.3,2.6,2,3.8c0.5,0.6,0.5,1.8,0.3,2.3
			c-9.4-0.3-18.7,2-26.9,6.7c-2,1-1.1,3.8-1.3,5.8c5.6-3.7,11.7-6.5,18.4-7.7c2.9-0.2,6.1-0.9,8.9-0.1l0.3,5.5
			c-7.6,4-15.9,6.3-22.4,12.8c0.1,2-0.3,4.3,0.3,5.9l5.8-4.7c5.6-4.3,11.5-7.9,18-10.3c1.7,2,3.5,4.2,5.8,5.5
			c3.9-2.5,8.1-4.4,12.6-5.5c2.4-1.4,6.2-0.1,7.7-2.9l1.1-5.8c-0.2-0.1-0.3-0.4-0.6-0.3c-3-1.7-5-4.7-4.7-8.2
			c-1.1,0.5-2.2,0.8-3.4,0.9c-1-0.2-2-0.5-2.4-1.5c-0.1-1.3-0.7-3.2,0.6-4.1c4.1-2.6,9.5-2.7,14.8-2.3c3.9,0.5,9.5,0.3,10.9,4.9
			c-0.2,1.4-0.1,2.8-1.4,3.7c-1.4,0.8-3-0.1-4.3-0.6c-1,3.1-2.7,6.7-6.3,7.7l0.4,3.7c0.4,1.7,0.6,4.4,3.2,3.8
			c6.1,1.5,11.5,4.6,16.7,8c1.8-1.8,3.2-3.8,4.5-5.7c9.5,3.2,17.6,10.3,25.5,16.9l0.3-5.4c-7.4-6.6-15.7-11.3-24.3-14.9
			c0.3-1.7,0.7-3.4,0.8-5.3c10.2,0.6,19.8,3.7,28.2,8.6l-0.1-4.6c-8.8-4.7-18.5-7.9-29-8c-0.4-0.6-0.5-1.3-0.5-2
			c5.1-0.8,8.8-6.1,10-10.7c2.6-3,6.4-6.3,5.5-10.7c0.1-0.4,0.2-0.8,0.4-1.2C272,93.8,272.3,92.7,271.9,91.6L271.9,91.6z"/>
		<path class="st1" d="M280.8,108.1l5.2-1.7l0.6-2.9c1.5-4.3-1.7-7.5-3.2-10.9L280.8,108.1L280.8,108.1z M294,128.3
			c2.5,2.8,4.9,7.2,9.3,5.8c-0.3-1.9-1.3-3.4-2-5.1c-1.1-1.3-1.5-5.2-3.8-3.8c-1.7-1.1-2.2-3.1-3.3-4.6
			C293.8,123,294.1,126,294,128.3L294,128.3z M294.9,147.1c1,1.3,1.2,3.1,2.2,4.3c1.7,1.1,4.3,0.9,6.4,0.8c1.9-0.5,3.1,1.7,4.9,0.4
			c-2.2-1.4-3.6-4-5.7-5.8C300.2,144.8,297.6,146.5,294.9,147.1L294.9,147.1z M298.3,176.8c4.4,2.6,10,5.2,15.9,4.3
			c0.6-0.3,1.7-0.2,1.9-1c-3.7-1.3-7.5-4.9-11.3-5.7c-2.1-3.3-4.9,0.8-7.5,0.6C297.3,175.7,298.1,176.3,298.3,176.8L298.3,176.8z
			 M311.6,233.3l1,2c1,6.7,5.2,12.8,2.9,20.1c1.9,1.4,2.5,3.6,3.7,5.4h0.3c1.5-5.6,0.5-11.3-0.3-16.9
			C319.7,238.9,314.6,235.9,311.6,233.3L311.6,233.3z M312.7,167.8c3.3,2.6,8.6,2.8,12.5,1.5c-2.4-1.3-5.1-2.8-7.1-4.6L312.7,167.8
			L312.7,167.8z M328.5,187.4c-0.3,2.7,1.5,4.9,3.4,6.3c0.7-1.6,1.8-3,2-4.7c-0.6-2.9-2.2-5.4-4.6-7.1
			C328.8,183.7,328.3,185.4,328.5,187.4L328.5,187.4z M328.7,216.6c-0.5,3,2.9,3.4,4.3,5.1c1.1,1.4-0.8,2.4-0.8,3.7
			c2.4,3.1,3.9,6.7,3.9,10.9c0.9-3.9,2.4-7.6,2.9-11.6c-0.3-2.8-4.7-2.2-4-5.4c1.3-3.2-0.3-6.3-1.1-9.2c-0.3-0.4-0.8-1.3-1.3-1.1
			C331.4,211.5,328.5,213.4,328.7,216.6L328.7,216.6z M337.5,201.4l3.3,6.5c1.5-0.2,2.4-1.6,3.6-2.6c0.9-2.7-1.5-4.4-2.2-6.6
			c-0.6-1.5,0-3.6-1.1-4.9c-0.8-0.5-1.8-1.4-2.7-1.1L337.5,201.4L337.5,201.4z M341.7,184.4c2.6,1.6,5.6,3.9,7,6.7
			c2.2,6.5,5.8,12.4,8.4,18.7c1,4.4,1.7,8.4,2.9,12.7c0.5,1.2,0.2,3.4,2,3.2c0.5-4.9,1.5-9.5,1.5-14.6c-1.6-2.1-3.7-3-5.7-4.3v-0.5
			c0.3-1.1,1.2-2.4,2.5-2.2c0.6-0.6,2.3-1.3,1.5-2.4c-3.3-3.3-3.1-9-8.4-10.1c-1.9-0.8-2.3-2.7-2.5-4.5
			C348.6,185.1,344.9,184.4,341.7,184.4L341.7,184.4z M344.8,219c3.2,3,2.1,7.4,1.8,11.4c-0.5,2.4,2.6,1,3.5,2.3
			c2,2.9,0.8,7.2,0.1,10.4c1.7-2.6,3.7-4.9,5-7.8c-0.1-1.1,1.3-1.6,1.3-2.9c0.6-1.8-1.6-1-2.5-1.2c-0.8-0.2-1.6-0.7-1.3-1.7
			c1.7-3.2,0.1-7-0.5-10.2c-0.8-2.6,0.3-6.2-0.9-8.4C349.4,213.6,343.3,214.2,344.8,219L344.8,219z M350.8,173.6
			c5.7,5.8,9.8,11.5,16,17.1c0.1-2.5-0.2-4.8-0.3-7.2c-0.9-1.7-2.6-3-4-4.3C357.9,178.8,355.5,172.7,350.8,173.6z M365.6,204.1
			c0.1,0.6,0.4,1.1,0.7,1.7c2.5,4.1,4.9,8.3,6.6,12.7c-0.5-4.7,2.7-10.6-1.6-14.3c-0.6-1.5-2.5-1-3.7-0.9L365.6,204.1L365.6,204.1z
			 M381,250.8c1.8,0.8,4.1-0.6,5.8-1.7c1.6-0.4,3,0.5,4.2,1.4c0.5,1,0,2,0.2,2.9c3.8,1.1,7.6,2.5,11,4.7l1.1-1.1
			c0.3-2.7-1.9-4.7-4-6.3c-1.3-0.8-3.3-0.3-4.3-1.5c0.6-1,0.6-2.6,0.6-3.7c-2.1,0-3.5-0.6-5.2-1.7c-1.1-0.3-2.1-1.2-3,0
			C384.3,246.1,384.1,249.3,381,250.8L381,250.8z M385.5,170.3c1.6-0.5,3.3-0.9,4.6-2.1c4.3-3.9,10.5-1.3,15.5-1.3
			c-1-1.7-2.2-3.4-3.5-4.9c-1.8-0.7-3.5-1.5-5.5-1.5c-4.4-2.6-7.3,1.7-10.6,3.8C385,166,384.6,168.6,385.5,170.3L385.5,170.3z
			 M385.6,183.5c0-0.2,0-0.4,0.2-0.4c0.6,0.5-0.1,1.7,0.9,2c1.7-0.8,3.2-2,4.7-3.1c4.3,0,6.9-4.2,11.1-4.2c7,1.3,14,2.7,20.2,6.1
			c-0.5-4.1-4-7.9-7.7-9.8c-2.1-0.7-3.7,0.4-5.1,1.5c-4.3,2.7-2-3.9-5-4c-3.9,1.2-7.9,2.6-12.3,2.2c-2.6,1-4.4,3.3-7.2,3.1
			C385.2,179,384.9,181.6,385.6,183.5z M388.6,197.8c1.3,1.4,3.6,1.2,5.5,1.4l5.6-2.2c0.1-1-1.7-1.3-1.3-2.4
			c1.5-1.7,3.6-0.5,5.5-1.2c2.7-0.4,5.4-3.1,8.1-1.1c-0.1,0.3,0.1,0.8-0.1,1.1c-0.8,2,0.6,3.2,2.1,4c3.1,0.6,6.1,3.5,9.2,2.2
			c-0.3-2.6-1-5-1.7-7.5c-2.6-0.5-4.5-2.6-6.9-3.5c-1.1,1-2.5,1.8-3.8,1.7c-4.9-1.2-10.8-4.2-15.8-1.1c-1.8,2.2-5,1.5-7.4,2.5
			C387.7,193.6,388,195.7,388.6,197.8L388.6,197.8z M390.7,235.8c-0.4,1.1-1.5,2.9,0.5,3.4c4.1,0.1,9.3-2,12.5,1.2
			c1.1,0.8,0.6,2.6,0.5,3.7l5.4,4.5c0.5-2.7,1.5-5.1,1.6-8c-0.5-2.1-1.5-4-3.3-5.4c-3.5,0-5.6-4.1-9.4-3.6c-2-0.4-3.7,1.3-5.7,1.3
			C391.9,233.7,391.4,234.8,390.7,235.8L390.7,235.8z M392.2,205.6c0.8,1.7,1.8,4.6,3.4,4.7c3.8-1.6,9.3-2.7,13.5-0.9
			c1.4,0.2,1.4,1.8,1.1,2.9c2.2,1.3,4.8,2.3,7.1,3.7l-0.6-3.8c-0.1-4.2-5.4-4.5-5.7-8.6c-4.3-1.4-9.1-1.9-13.6-0.8
			c-1.5,1.3-3.6,1.2-5.4,1.5C391.8,204.9,392.1,205.2,392.2,205.6L392.2,205.6z M393.3,226.3c2.5-0.7,4.1-3.4,6.8-3.7
			c4.1,0.1,7.7,1.7,10.3,5.3c1.5,1,1.2,3.6,3.2,3.6c-0.6-3.1,0.4-6,0.3-9.2c-2.7-4.5-9.3-1-11.8-6.3l-4.7,0.3
			c-3.4,0.8-2.5,4.8-2.9,7.5C394,224.7,393.2,225.3,393.3,226.3L393.3,226.3z M416.8,254.3c2,4,6.3,7,6.8,11.5c1-1.2,1.7-2.6,2.4-4
			c-0.1-1.3-1.5-1.3-2.1-2.3c-0.6-1.7,0.3-3.1,0.6-4.6c-0.8-2.4-2.8-4.6-5.1-6L416.8,254.3L416.8,254.3z M424.6,244.2l4.6,6.3
			c2-3.1,2-7.7,1.2-11.5c-0.4-0.7-1.3-1.9-2.4-1.3C426.3,239.4,426,242.2,424.6,244.2L424.6,244.2z M405.9,69.2
			c1.7,0.8,3.3,1.6,5.3,1.7c1.3-0.7,3.1-1.2,4.7-0.8c2.4,1.5,5.2-0.3,8-0.2c-2.4-2.3-5.2-3.7-8-5.1
			C412.3,65.6,409.4,68.2,405.9,69.2z M430.9,75.2c3.4,0.3,5.8,3.3,8.1,5.8c2.9,0.4,5,2.5,6.8,4.6l-1.1-3.4c-0.8-3.4-2.9-6-5.1-8.7
			C436.6,73.7,433.6,74,430.9,75.2L430.9,75.2z"/>
		<path class="st2" d="M192.2,47.1l1.9,0.2c5,2.5,13,3.8,13.5,11c-5.1,2-9.9,4.7-13.9,8.8c-3.1-3.1-9.3-1.4-10.3-6.9
			C184.3,55,186.2,48.5,192.2,47.1L192.2,47.1z M197,79.5c5.8-0.5,11.5,0.3,17.5-0.2c1.5,0.6,3,1.9,3.7,3.4
			c-0.2,6.9-2.3,13.5-2.6,20.6c-2.6,1.1-5.2,3.3-5.8,6.1c-2.4,0.7-4.5,2.1-6.8,3.2c-1-2.2-0.8-5.4,1-7.2c2.5-3.5,9-2.7,8.4-8.3
			c1.7-2.7,0.1-6.1,0.1-8.9c-0.6-2.1-1.3,0.7-2.3,0.6c-2,0.4-4.1,0.6-5.9-0.5c-1.3-1.4-3-2.6-3.4-4.5c-1.8-0.9-3.9-2.3-4.8-4.2
			L197,79.5L197,79.5z M204.1,121.2c2.7,0.4,5.6-0.8,8,0.5c-0.5,0.9-1.9,1.3-3,1.5l-4.3,2C203.2,124.9,204.1,122.3,204.1,121.2z
			 M215.3,67.8c2.7-0.9,5.7-2.7,8.6-1.9c-2.1,2.1-3.8,4.9-5.4,7.4l-8.8-0.2C210.7,70.9,213.1,69,215.3,67.8L215.3,67.8z M240.9,65.7
			c3.6-0.6,3.4,4.1,6.8,4.3c0.6,0.8,1.4,1.5,1.1,2.6c-1.9,0.8-4.7,0.4-6.9,0.9c-2.9-1.6-1-6.6-5.6-6.3c-0.3-0.4-0.8-1.2-0.1-1.4
			C237.6,65.3,239.4,65.5,240.9,65.7L240.9,65.7z M238.6,82.9c1.6-2.2,4-2.4,6.3-2.9l16.6,0.3c0.7,0.6-0.6,1.2-0.6,2
			c-1,1-2.5,1.2-3.4,2.1c-2.2,0.1-2,2.6-3.5,3.7c-2.4,2.4-5.8,1.3-8.6,0.9c-1-0.7-2-1.7-2.5-2.8l-0.8,0.8c1,3.6,0.7,7.6,1.4,11.2
			l4,2.6c0.1,5.9,7,4.3,10,7.5c-0.7,2.1-2.1,3.9-3.6,5.7c-2.3-2.2-5.1-3.9-8.1-4.9c-0.3-3.4-4-5.5-6.1-7.2
			c-0.6-6.3-0.7-12.7-1.7-18.7L238.6,82.9L238.6,82.9z M244.6,122.3h7.7l-1,4l-7.7-3.3C243.5,122.5,244.2,122.3,244.6,122.3z
			 M258.4,49.9l5.7-1.8c3.3,1.6,6.4,3.5,9.3,5.6c2.4,4.3,2,10.2,0.9,15.1c-1.7,1.9-5.5,0-6.9,3.1h-0.3c-2.1-6-8.1-11.4-13.7-14.1
			C254.4,54.7,255.4,51.7,258.4,49.9L258.4,49.9z"/>
	</g>
</g>
</svg>
