<?xml version="1.0" encoding="utf-8"?>
<!-- Generator: Adobe Illustrator 22.1.0, SVG Export Plug-In . SVG Version: 6.00 Build 0)  -->
<svg version="1.1" id="Layer_2_1_" xmlns="http://www.w3.org/2000/svg" xmlns:xlink="http://www.w3.org/1999/xlink" x="0px" y="0px"
	 viewBox="0 0 640 480" style="enable-background:new 0 0 640 480;" xml:space="preserve">
<style type="text/css">
	.st0{fill:#0E68AF;}
</style>
<g>
	<path class="st0" d="M334.3,182c0,11,0,20.8,0,32.6c-5.3,0-10.1,0-14.9,0c-23.1,0-46.1,0-69.2,0c-7.5,0-15.9-1.3-16.1,10.3
		c-0.3,12.6,8.7,11,16.6,11.1c16.4,0.1,32.7,0,49.1,0c27.9,0,45.9,17.3,45.8,43.8c-0.1,26.3-17.3,43.1-44.8,43.3
		c-29.3,0.2-58.6,0-89,0c0-10.6,0-20.4,0-31.7c4-0.2,8.5-0.6,12.9-0.6c24.8-0.1,49.5-0.2,74.2,0c7.9,0.1,12.9-1.9,12.9-11.1
		c0-9.1-5.2-11.5-12.9-11.5c-18.5,0-36.9,0.2-55.4,0c-25.7-0.3-42.8-17.3-43-42.3c-0.2-26.1,16.9-43.8,42.7-44
		C273.3,181.8,303.4,182,334.3,182z"/>
	<path class="st0" d="M628.7,182c0,11.6,0,21.4,0,32.6c-29.3,0-57.7-0.2-86.1,0.2c-4.4,0.1-10.5,1.9-12.8,5.1
		c-5.2,7.3,0.4,15.8,10.1,16c19.7,0.4,39.5-0.3,59.2,0.2s36.5,14,39.7,30.8c4.7,24.7-3,42.9-22.3,52.2c-3.3,1.6-7.1,3.4-10.6,3.4
		c-32.6,0.2-65.3,0.2-98.8,0.2c0-10.5,0-20.4,0-31.9c24.2,0,48,0,71.8,0c5.4,0,10.9-0.2,16.4,0c7.9,0.3,11.7-3.1,11.7-11.1
		c0-8.1-4.5-11.2-11.9-11.2c-18.1-0.1-36.1,0-54.2-0.1c-28.3-0.1-44.7-15.6-45-42.6c-0.2-27.3,16.7-43.7,45.2-43.7
		C569.8,181.9,598.7,182,628.7,182z"/>
	<path class="st0" d="M192.6,324.6c-11.5,0-21.3,0-32.8,0c0-18.5,0.2-36.4,0-54.3c-0.6-61.7,8.4-53.1-54.3-53.7c-0.8,0-1.7,0-2.5,0
		c-18.6,0.1-21.4,2.7-21.5,20.9c-0.2,27.7-0.1,55.4-0.2,83c0,0.8-0.4,1.6-0.8,3.6c-9.8,0-20,0-31.9,0c0-5.3,0-10.6,0-15.9
		c0-26-0.2-52,0.1-78c0.3-26.6,18.7-45.2,45-45.6c18-0.3,36-0.3,54.1,0c24.1,0.4,43.6,16.9,44.6,40.7
		C193.5,258,192.6,290.7,192.6,324.6z"/>
	<path class="st0" d="M432,282.1c0,13.8,0,26.7,0,40.4c-11,0-20.8,0-32.3,0c0-12.7,0-25.9,0-40.2c-6.2-0.5-11.2-0.8-16-1.3
		c-20.7-2.1-38.7-18.7-39.8-39c-1-19.2-0.2-38.5-0.2-58.7c10.7,0,20.9,0,32.8,0c0,16.1-0.1,31.9,0,47.7c0.1,13.8,3.2,17.2,17,17.5
		c14.7,0.3,29.4,0,44.1,0.1c11.5,0.1,17-5.3,16.8-16.9c-0.2-15.9,0-31.8,0-48.5c11.2,0,21.5,0,32.6,0c0,20.8,1.5,41.4-0.4,61.6
		c-1.9,19.2-20.4,34.1-40,36C442.4,281.3,438.2,281.6,432,282.1z"/>
	<path class="st0" d="M37.3,323.2c-11.1,0-21.4,0-32.4,0c0-39.6,0-78.4,0-118.1c10.9,0,21.2,0,32.4,0
		C37.3,244.3,37.3,283.1,37.3,323.2z"/>
	<path d="M20.9,155.4c11.7-0.1,20.8,8.9,20.9,20.4c0.1,11.5-9,20.4-20.7,20.4c-11.8,0-21-8.8-21.1-20.2
		C-0.2,164.8,9.3,155.5,20.9,155.4z"/>
</g>
</svg>
