<?xml version="1.0" encoding="utf-8"?>
<!-- Generator: Adobe Illustrator 22.1.0, SVG Export Plug-In . SVG Version: 6.00 Build 0)  -->
<svg version="1.1" id="Layer_2_1_" xmlns="http://www.w3.org/2000/svg" xmlns:xlink="http://www.w3.org/1999/xlink" x="0px" y="0px"
	 viewBox="0 0 640 480" style="enable-background:new 0 0 640 480;" xml:space="preserve">
<style type="text/css">
	.st0{fill:#241D4C;}
</style>
<g>
	<g>
		<path class="st0" d="M153.9,249.9c6.1-2.3,12.2-4.3,18.8-6.8c0,3.3,0,6.1,0,9.4c1.3-0.8,2-1.3,3-1.8c10.4-6.6,21.1-8.9,32.7-3.8
			c6.8,3,10.4,8.1,10.4,16c-0.3,11.2,0,22.3,0,33.5c0,2.8,0.5,4.6,3.8,4.8c0.3,0,0.5,0.5,1.3,1c-1,0.3-1.5,0.8-2.3,0.8
			c-6.3,0-12.7,0-19,0c-0.5,0-1-0.5-1.8-1c0.5-0.3,1-0.8,1.5-1c2.5-0.3,3-1.8,3-4.1c0-9.9,0-20,0-29.9c0-1.3,0-2.3-0.3-3.6
			c-0.5-6.1-3.6-9.9-9.4-11.4c-7.6-2-15-0.8-21.3,4.1c-1,0.8-1.8,2.3-1.8,3.6c-0.3,12.4,0,24.6,0,37c0,2.3,0.8,3.6,3,4.1
			c0.5,0,1,0.5,1.3,1c-0.5,0.3-1,0.8-1.8,0.8c-6.1,0-12.4,0-18.5,0c-0.5,0-1.3-0.5-1.8-0.8c0.5-0.3,1-1,1.5-1c2.3-0.3,3-1.8,3-3.8
			c0-13.2,0-26.4,0-39.6c0-3.8-1.5-6.1-5.6-6.6C153.9,250.7,153.9,250.4,153.9,249.9z"/>
		<path class="st0" d="M566.6,269.4c-16.7,0-33.2,0-50,0c-2,7.4,2.3,18,8.9,22.8c9.4,6.6,19.5,6.1,29.7,2.3
			c3.6-1.3,7.1-3.3,10.7-5.3c0.5,2.3,0.3,4.1-1.8,5.6c-9.1,6.8-19.5,9.1-30.9,8.4c-8.1-0.5-15.2-3-21.3-8.4
			c-13.7-12.2-12.9-33,2-43.4c13.2-9.1,27.1-9.9,41.3-2.5C563.8,253.4,567.4,262.6,566.6,269.4z M552.1,264.6
			c0.5-5.6-2-10.7-6.6-13.4c-3.8-2.3-8.1-2.8-12.4-2.5c-8.6,0.8-16,7.9-16.2,16C528.8,264.6,540.5,264.6,552.1,264.6z"/>
		<path class="st0" d="M320.1,269.4c-1.3,17.2,10.4,29.2,28.7,27.4c7.6-0.8,13.9-3.8,20.3-7.9c0.8,2.3,0.8,4.1-1.5,5.8
			c-10.7,8.1-22.6,9.9-35.3,8.1c-7.9-1.3-14.7-4.6-19.8-10.7c-10.1-11.9-9.1-28.2,2.8-38.8c11.2-10.1,31.4-11.9,44.4-4.1
			c6.6,4.1,10.1,9.9,10.9,17.8c0,0.8,0,1.3,0,2.3C353.5,269.4,336.8,269.4,320.1,269.4z M320.8,264.6c11.7,0,23.3,0,35.3,0
			c0.8-6.1-2.5-12.2-8.1-14.2c-3.3-1.3-7.4-1.8-10.9-1.5C328.2,249.4,321.3,256.5,320.8,264.6z"/>
		<path class="st0" d="M639.1,260.8c-1-0.8-2.5-1.3-3.3-2.3c-8.6-11.2-26.6-13.4-36-4.1c-7.4,7.4-8.6,16.5-5.6,26.1
			c3,9.4,9.9,14.2,19.5,15.2c8.4,1,16.2-0.8,23.1-5.6c0.8-0.5,1.5-1,2.3-1.5c0,0,0.3,0,0.5,0c0.5,2.3,0.3,4.1-1.8,5.8
			c-12.4,9.4-26.4,11.2-40.6,5.6c-11.2-4.3-18-12.9-18.5-25.1c-0.5-12.7,6.1-21.6,17-26.9c14.2-6.8,28.4-5.3,42.6,0.5
			c0.8,0.3,1.5,1.5,1.5,2.3c0.3,2.8,0,5.8,0,8.6C639.6,260.3,639.4,260.5,639.1,260.8z"/>
		<path class="st0" d="M134.2,302.9c-6.8,0-13.7,0-20.5,0c-0.5,0-1-0.5-1.3-0.8c0.3-0.3,0.8-0.8,1-1c2.8-0.3,3.3-2,3.3-4.6
			c0-24.1,0-48.4,0-72.5c0-2.8-0.5-4.6-3.6-5.1c-0.5,0-0.8-0.5-1.8-1.3c8.1,0,15.2,0,23.3,0c-0.8,0.8-1.3,1.3-1.8,1.5
			c-2.5,0.5-3.3,2-3.3,4.6c0,24.3,0,48.7,0,72.8c0,2.5,0.5,4.6,3.6,4.8c0.5,0,0.8,0.8,1.3,1C134.4,302.1,134.4,302.4,134.2,302.9z"
			/>
		<path class="st0" d="M386.8,288.2c0.3,0.5,0.8,0.8,1,1.3c2.5,5.6,7.1,8.6,12.9,9.4c4.1,0.5,8.1,0.3,12.2-0.3
			c3.6-0.5,6.3-2.8,7.1-6.6c0.8-4.1-1.3-7.1-4.6-8.9s-7.1-3-10.4-4.8c-4.6-2-9.1-3.8-13.2-6.3c-7.6-5.1-7.9-15.2-0.8-21.1
			c4.3-3.6,9.4-5.3,15-5.6c6.8-0.5,13.4,0.3,20,2.5c1.8,0.5,2.8,1.5,2.5,3.6c-0.3,1.5,0,3.3,0,4.8c0,0.5-0.5,0.8-0.8,1.3
			c-0.5-0.3-1.3-0.5-1.5-1c-1.8-5.1-6.1-6.8-10.7-7.1c-4.3-0.3-8.6,0-12.7,0.5c-3,0.5-5.6,2.5-6.1,5.8c-0.8,3.6,0.8,6.6,3.8,8.1
			c4.3,2.3,8.9,3.8,13.2,5.8c3.8,1.5,7.9,2.8,11.4,4.8c10.4,5.8,10.4,17.8,0.5,24.1c-6.6,4.3-13.9,5.3-21.3,4.8c-5.1-0.3-9.9-2-15-3
			c-1.8-0.5-2.8-1.5-2.8-3.6c0-2.8-0.3-5.6-0.3-8.4C386.3,288.4,386.5,288.4,386.8,288.2z"/>
		<path class="st0" d="M446.6,246.6c2.8,0,5.6,0,8.4,0c0-3.8,0-7.4,0-10.9c4.6,0,8.6,0,13.2,0c0,3.6,0,7.1,0,10.9
			c7.4,0,14.2,0,21.6,0c0,1.8,0,3,0,4.8c-7.1,0-14.2,0-21.6,0c0,1.3-0.3,2.3-0.3,3.3c0,9.9,0,20,0,29.9c0,10.9,7.6,16.5,18,13.2
			c2-0.5,3.8-1.3,6.3-2.3c-0.5,1-0.5,2-1,2.5c-8.9,7.6-23.3,7.1-31.2,0.5c-3.8-3-5.3-7.4-5.3-12.2c0-10.4,0-21.1,0-31.4
			c0-2.8-0.8-3.6-3.3-3.3c-1.5,0.3-3.3,0-5.1,0C446.6,249.9,446.6,248.4,446.6,246.6z"/>
		<path class="st0" d="M269.6,285.4c5.8-11.4,11.4-22.1,17-33c1.3-2.3,0-3.8-2.8-4.8c-0.5-0.3-1-0.8-1.8-1.3
			c0.5-0.3,1.3-0.8,1.8-0.8c5.3,0,10.7,0,16,0c0.5,0,1,0.5,1.5,1c-0.5,0.3-1,0.8-1.5,1c-3,0.5-4.8,2.8-6.3,5.3
			c-8.9,15.7-17.5,31.7-26.4,47.4c-0.5,0.8-1,1.8-1.8,3c-3-5.6-6.1-10.9-8.9-16.2c-6.1-11.2-12.2-22.3-18.5-33.7
			c-1.5-3-3.6-5.6-7.4-5.8c-0.3,0-0.8-0.5-1.5-1.3c1.3-0.3,2-0.5,2.8-0.5c7.6,0,15.2,0,22.8,0c0.8,0,1.5,0.5,2,0.8
			c-0.5,0.5-1,1-1.8,1.3c-3,1-3.6,2.8-2.3,5.6C258.4,263.6,264,274.2,269.6,285.4z"/>
	</g>
	<g>
		<path class="st0" d="M46.4,258.3c-1,0-2,0-3.3,0c0-0.3,0-0.5,0-0.8c0-2,0-4.1,0-6.1c0-1-0.3-1.3-1.3-1.5c-2-0.3-4.1-0.5-5.8-1
			c-1.8-0.5-3.8-0.8-5.6-1.5c-2.3-1-4.8-2.3-6.8-3.6c-2.8-1.8-5.6-3.8-7.6-6.3c-2-2.3-3.8-4.8-5.1-7.4c-1-2-1.8-4.1-2.3-6.3
			c-0.5-1.5-0.5-3-0.8-4.6c-2,0-4.3,0-6.3,0c-1,0-1.5-0.5-1.5-1.5c0-0.8,0-1.5,0-2.3c0.5,0,1,0,1.5,0c13.4,0,26.9,0,40.3,0
			c1.5,0,1.5,0,1.5-1.5c0-7.6,0-15.2,0-22.8c0-1.5-0.5-1.8-2-1.5c-1,0.3-2,0.5-3.3,0.8c-1.5,0.5-3.3,1-4.6,1.5
			c-1.8,0.8-3.3,1.8-4.8,2.8c-1.5,1-2.8,2.5-4.1,3.8c-2.5,2.8-4.6,5.8-5.8,9.6c-0.3,0.5-0.3,1-0.5,1.3c-0.3,0.3-0.8,0.8-1,0.8
			c-2.8,0-5.6,0-8.4,0c0.3-1,0.3-1.8,0.8-2.5c1-2,2-4.3,3.3-6.3c1.8-3,4.1-5.6,6.8-7.6c1.8-1.3,3.6-2.8,5.3-3.8
			c1.5-0.8,3-1.5,4.6-2.3c1.8-0.8,3.3-1.3,5.1-1.8c1-0.3,2-0.5,3-0.5c1.8-0.3,3.6-0.5,5.3-0.8c0-2.5,0-5.3,0-8.1c1.3,0,2.3,0,3.6,0
			c0,0.5,0,1,0,1.5c0,11.9,0,24.1,0,36c0,0.5,0.3,1,0.3,1.8c14.2,0,28.7,0,42.9,0c0,1.3,0,2.5,0,3.8c-2.5,0-5.1,0-7.9,0
			c-0.8,8.9-4.6,16-11.2,21.6c-5.3,4.6-11.9,7.6-19,8.6c0-1.8,0-3.3,0-5.1c6.3-1.8,11.4-5.1,15.5-10.1c3.3-4.3,5.1-9.4,5.6-14.7
			c-8.6,0-17.2,0-25.9,0c0,1.5-0.3,2.8-0.3,4.3c0,9.6,0,19.3,0,28.9C46.4,254.2,46.4,256.2,46.4,258.3z M17,219.2
			c0.3,7.1,3.3,12.9,7.9,17.8c4.8,4.8,10.7,7.6,17.8,7.9c0-0.3,0.3-0.8,0.3-1.3c0-7.9,0-15.5,0-23.3c0-0.3,0-0.8,0-1
			C34.2,219.2,25.6,219.2,17,219.2z"/>
		<path class="st0" d="M51.5,190.3c0-1.8,0-3.3,0-5.1c5.6,1,10.9,3,15.5,6.1c6.8,4.6,11.7,10.9,13.9,19c-3,0-5.8,0-8.6,0
			c-0.3,0-0.8-0.5-0.8-0.8c-0.5-2.5-1.8-4.6-3-6.6c-0.8-1.3-1.8-2.8-3-3.8c-1.3-1.3-2.3-2.5-3.8-3.6c-1.8-1.3-3.6-2.3-5.6-3.3
			C54.5,191.1,53,190.8,51.5,190.3z"/>
	</g>
</g>
</svg>
