<svg xmlns="http://www.w3.org/2000/svg" viewBox="0 0 640 480"><defs><style>.cls-1{fill:none;}.cls-2{fill:#231f20;}</style></defs><title>iota</title><g id="Layer_2" data-name="Layer 2"><g id="Bitcoin"><path class="cls-1" d="M0,0V480H640V0ZM504.51,91.36a24.24,24.24,0,1,1-24.24,24.24A24.25,24.25,0,0,1,504.51,91.36Zm-7.82,67.72A20.74,20.74,0,1,1,476,179.81,20.74,20.74,0,0,1,496.69,159.08Zm-18.84,54.7a17.69,17.69,0,1,1-17.68,17.68A17.69,17.69,0,0,1,477.85,213.78ZM452.4,255.27A15.38,15.38,0,1,1,437,270.65,15.38,15.38,0,0,1,452.4,255.27Zm-19.8-63a21.24,21.24,0,1,1,21.24-21.24A21.24,21.24,0,0,1,432.6,192.29Zm42.51,112.12a13.4,13.4,0,1,1-13.4,13.39A13.4,13.4,0,0,1,475.11,304.41ZM440.79,130.8a24.3,24.3,0,1,1,24.3-24.3A24.3,24.3,0,0,1,440.79,130.8ZM433,2.5a28.71,28.71,0,1,1-28.7,28.7A28.7,28.7,0,0,1,433,2.5ZM414.07,204.93a17.82,17.82,0,1,1-17.81,17.81A17.81,17.81,0,0,1,414.07,204.93ZM403.9,261.81a15.24,15.24,0,1,1-15.24-15.24A15.24,15.24,0,0,1,403.9,261.81ZM406.5,316a11.39,11.39,0,1,1-11.39-11.39A11.39,11.39,0,0,1,406.5,316Zm-46.32-39.83a13.25,13.25,0,1,1-13.25,13.25A13.25,13.25,0,0,1,360.18,276.21Zm-12.89-82A12.89,12.89,0,1,1,360.18,207,12.88,12.88,0,0,1,347.29,194.16ZM365.12,162a11.24,11.24,0,1,1,11.23-11.24A11.24,11.24,0,0,1,365.12,162Zm12.74-55.49a9.5,9.5,0,1,1-9.5,9.5A9.5,9.5,0,0,1,377.86,106.5ZM356.38,85.28a11.55,11.55,0,1,1-11.54,11.54A11.55,11.55,0,0,1,356.38,85.28Zm-7.88,49.19a13,13,0,1,1-13-13A13,13,0,0,1,348.5,134.47ZM237.89,279.87A13.16,13.16,0,1,1,224.73,293,13.16,13.16,0,0,1,237.89,279.87ZM226,259.25a11.39,11.39,0,1,1,11.39,11.4A11.39,11.39,0,0,1,226,259.25ZM247.56,316a15.31,15.31,0,1,1-15.31,15.31A15.3,15.3,0,0,1,247.56,316ZM275,198.59a17.77,17.77,0,1,1,17.77-17.77A17.77,17.77,0,0,1,275,198.59Zm15.83,43.54a13.28,13.28,0,1,1-13.28-13.27A13.28,13.28,0,0,1,290.79,242.13Zm-22.07,113.1a17.67,17.67,0,1,1-17.66,17.67A17.67,17.67,0,0,1,268.72,355.23ZM272,280.55a15.11,15.11,0,1,1,15.11,15.11A15.1,15.1,0,0,1,272,280.55Zm36.44,24a17.68,17.68,0,1,1-17.69,17.68A17.68,17.68,0,0,1,308.48,304.52Zm13.17-106a15.3,15.3,0,1,1,15.29-15.3A15.3,15.3,0,0,1,321.65,198.54Zm5.33-131a12.91,12.91,0,1,1-12.92,12.91A12.91,12.91,0,0,1,327,67.58Zm-14.36,56a15.21,15.21,0,1,1-15.21-15.21A15.21,15.21,0,0,1,312.62,123.58Zm-23.9-69.36a15.34,15.34,0,1,1-15.34,15.34A15.34,15.34,0,0,1,288.72,54.22Zm-20.07,67.07a17.78,17.78,0,1,1-17.78-17.77A17.78,17.78,0,0,1,268.65,121.29Zm-26.6-72a17.79,17.79,0,1,1-17.79,17.79A17.79,17.79,0,0,1,242.05,49.32Zm-.22,141.05A20.86,20.86,0,1,1,221,169.5,20.86,20.86,0,0,1,241.83,190.37Zm-41.16,85a9.59,9.59,0,1,1,9.59-9.59A9.59,9.59,0,0,1,200.67,275.39Zm5.45,18.34a11.27,11.27,0,1,1-11.26-11.27A11.26,11.26,0,0,1,206.12,293.73ZM217.47,130.8A20.8,20.8,0,1,1,196.67,110,20.79,20.79,0,0,1,217.47,130.8ZM188.1,56.49a20.17,20.17,0,1,1-20.17,20.17A20.16,20.16,0,0,1,188.1,56.49Zm-50.77,75.23A24.26,24.26,0,1,1,113.07,156,24.26,24.26,0,0,1,137.33,131.72ZM99.92,288.93a28.47,28.47,0,1,1,28.47-28.47A28.47,28.47,0,0,1,99.92,288.93Zm61.54-48.85a24.39,24.39,0,1,1,24.38-24.39A24.38,24.38,0,0,1,161.46,240.08Zm20.74,87.36a13.14,13.14,0,1,1,13.13,13.13A13.13,13.13,0,0,1,182.2,327.44ZM190,365.88a15.18,15.18,0,1,1,15.18,15.18A15.18,15.18,0,0,1,190,365.88Zm36.14,59.23a17.63,17.63,0,1,1,17.63-17.63A17.63,17.63,0,0,1,226.11,425.11Zm35.56,45.07a20.68,20.68,0,1,1,20.69-20.68A20.68,20.68,0,0,1,261.67,470.18Zm42.49-34.42A20.76,20.76,0,1,1,324.91,415,20.76,20.76,0,0,1,304.16,435.76Zm18.72-71.49a20.81,20.81,0,1,1,20.81,20.81A20.81,20.81,0,0,1,322.88,364.27ZM355.72,477.5a24,24,0,1,1,24-24A24,24,0,0,1,355.72,477.5Zm39.55-50a23.82,23.82,0,1,1,23.82-23.82A23.81,23.81,0,0,1,395.27,427.51Zm23.62-73.92a9.6,9.6,0,1,1,9.6-9.59A9.59,9.59,0,0,1,418.89,353.59ZM424,311.47a13.29,13.29,0,1,1,13.28-13.29A13.29,13.29,0,0,1,424,311.47Zm22.22,13.12a10.56,10.56,0,1,1-10.56,10.56A10.56,10.56,0,0,1,446.22,324.59ZM464.76,462.5a28.56,28.56,0,1,1,28.56-28.56A28.56,28.56,0,0,1,464.76,462.5Zm38.75-157.11a15.05,15.05,0,1,1,15-15.05A15,15,0,0,1,503.51,305.39Zm25.25-36.57A17.84,17.84,0,1,1,546.6,251,17.83,17.83,0,0,1,528.76,268.82Zm18.92-48.51a20.87,20.87,0,1,1,20.87-20.87A20.87,20.87,0,0,1,547.68,220.31Z"/><circle class="cls-2" cx="432.95" cy="31.2" r="28.7" transform="translate(104.75 315.28) rotate(-45)"/><circle class="cls-2" cx="440.79" cy="106.5" r="24.3" transform="translate(173.72 472.98) rotate(-67.5)"/><circle class="cls-2" cx="504.51" cy="115.6" r="24.24"/><circle class="cls-2" cx="496.69" cy="179.81" r="20.74"/><circle class="cls-2" cx="547.68" cy="199.44" r="20.87"/><circle class="cls-2" cx="432.6" cy="171.05" r="21.24" transform="translate(-14.75 43.46) rotate(-5.65)"/><circle class="cls-2" cx="414.07" cy="222.74" r="17.82"/><circle class="cls-2" cx="477.85" cy="231.46" r="17.68" transform="translate(-30.91 79.53) rotate(-9.22)"/><circle class="cls-2" cx="528.76" cy="250.98" r="17.84"/><circle class="cls-2" cx="503.51" cy="290.34" r="15.05"/><circle class="cls-2" cx="452.4" cy="270.65" r="15.38"/><circle class="cls-2" cx="388.66" cy="261.81" r="15.24" transform="translate(-29.08 49.45) rotate(-7.02)"/><circle class="cls-2" cx="424" cy="298.18" r="13.28" transform="translate(-57.17 105.39) rotate(-13.28)"/><circle class="cls-2" cx="475.11" cy="317.8" r="13.39" transform="translate(-60.31 117.66) rotate(-13.28)"/><circle class="cls-2" cx="446.22" cy="335.15" r="10.56" transform="translate(-34.18 619.15) rotate(-67.5)"/><circle class="cls-2" cx="418.89" cy="344" r="9.6" transform="translate(-120.55 396.96) rotate(-45)"/><circle class="cls-2" cx="395.11" cy="316.04" r="11.39" transform="translate(-107.75 371.95) rotate(-45)"/><circle class="cls-2" cx="360.18" cy="289.46" r="13.25" transform="translate(-99.19 339.46) rotate(-45)"/><circle class="cls-2" cx="464.76" cy="433.94" r="28.56" transform="translate(-170.72 455.74) rotate(-45)"/><circle class="cls-2" cx="395.27" cy="403.69" r="23.82" transform="translate(-82.18 101.61) rotate(-13.28)"/><circle class="cls-2" cx="355.72" cy="453.48" r="24.02" transform="translate(-199.36 608.58) rotate(-67.5)"/><circle class="cls-2" cx="343.69" cy="364.27" r="20.8" transform="translate(-59.85 660.88) rotate(-82.98)"/><circle class="cls-2" cx="304.16" cy="415" r="20.75"/><circle class="cls-2" cx="261.67" cy="449.5" r="20.68" transform="translate(-96.27 72.14) rotate(-13.28)"/><circle class="cls-2" cx="226.11" cy="407.48" r="17.63"/><circle class="cls-2" cx="268.72" cy="372.9" r="17.66"/><circle class="cls-2" cx="308.48" cy="322.2" r="17.68"/><circle class="cls-2" cx="247.56" cy="331.35" r="15.3" transform="translate(-131.8 496.15) rotate(-76.72)"/><circle class="cls-2" cx="205.15" cy="365.88" r="15.17"/><circle class="cls-2" cx="195.33" cy="327.44" r="13.14"/><circle class="cls-2" cx="194.86" cy="293.73" r="11.27" transform="matrix(0.99, -0.16, 0.16, 0.99, -44.53, 35.01)"/><circle class="cls-2" cx="200.67" cy="265.8" r="9.59" transform="translate(-130.93 296.76) rotate(-58.28)"/><circle class="cls-2" cx="237.36" cy="259.25" r="11.39" transform="translate(-100.85 163.51) rotate(-31.72)"/><circle class="cls-2" cx="277.51" cy="242.13" r="13.27" transform="translate(-5.95 477.28) rotate(-80.78)"/><circle class="cls-2" cx="287.15" cy="280.55" r="15.11" transform="translate(-114.28 285.21) rotate(-45)"/><circle class="cls-2" cx="237.89" cy="293.03" r="13.16" transform="translate(-123.87 400.67) rotate(-67.5)"/><circle class="cls-2" cx="99.92" cy="260.46" r="28.47"/><circle class="cls-2" cx="161.46" cy="215.69" r="24.38" transform="translate(-82.67 101.71) rotate(-28.15)"/><circle class="cls-2" cx="137.33" cy="155.98" r="24.26" transform="translate(-49.24 64.43) rotate(-22.5)"/><circle class="cls-2" cx="196.67" cy="130.8" r="20.79" transform="translate(-35.08 85.22) rotate(-22.5)"/><circle class="cls-2" cx="220.97" cy="190.37" r="20.86" transform="translate(-27.64 37.85) rotate(-9.22)"/><circle class="cls-2" cx="274.96" cy="180.82" r="17.76" transform="translate(35.8 406.88) rotate(-76.72)"/><circle class="cls-2" cx="321.65" cy="183.24" r="15.3" transform="translate(-35.36 281.11) rotate(-45)"/><circle class="cls-2" cx="360.18" cy="194.16" r="12.88" transform="translate(-21.02 45.46) rotate(-7.02)"/><circle class="cls-2" cx="365.12" cy="150.75" r="11.24" transform="translate(-24.87 87.92) rotate(-13.28)"/><circle class="cls-2" cx="335.48" cy="134.47" r="13.01" transform="translate(3.18 276.61) rotate(-45)"/><circle class="cls-2" cx="297.41" cy="123.58" r="15.21" transform="translate(-10.73 29.91) rotate(-5.65)"/><circle class="cls-2" cx="250.87" cy="121.29" r="17.78" transform="translate(-16.19 41.75) rotate(-9.22)"/><circle class="cls-2" cx="188.1" cy="76.66" r="20.17" transform="translate(-15.02 77.82) rotate(-22.5)"/><circle class="cls-2" cx="242.05" cy="67.11" r="17.79"/><circle class="cls-2" cx="288.72" cy="69.56" r="15.34" transform="translate(-8.26 68.2) rotate(-13.28)"/><circle class="cls-2" cx="326.98" cy="80.49" r="12.91"/><circle class="cls-2" cx="356.38" cy="96.82" r="11.55"/><circle class="cls-2" cx="377.86" cy="116" r="9.5"/></g></g></svg>