<?xml version="1.0" encoding="utf-8"?>
<!-- Generator: Adobe Illustrator 22.1.0, SVG Export Plug-In . SVG Version: 6.00 Build 0)  -->
<svg version="1.1" id="Layer_4" xmlns="http://www.w3.org/2000/svg" xmlns:xlink="http://www.w3.org/1999/xlink" x="0px" y="0px"
	 viewBox="0 0 640 480" style="enable-background:new 0 0 640 480;" xml:space="preserve">
<style type="text/css">
	.st0{fill:#17387A;}
</style>
<g>
	<path class="st0" d="M60.7,128.8V60.4h185.4v232.3c0,42.6-10.9,74.2-32.9,95.3c-22,21-50.2,31.7-84.4,31.7
		c-42.8,0-80.3-16.5-112.2-49.4l41.3-57c21.3,23.1,43.8,34.7,67.4,34.7c11.1,0,20.8-4.3,28.9-12.9c7.9-8.6,11.9-21.5,11.9-39V128.8
		H60.7z"/>
	<path class="st0" d="M572.4,107c33.9,31.2,50.9,74.2,50.9,129.7s-16.5,99.3-49.7,131.5c-33.2,32.2-83.6,48.4-151.5,48.4H300.4V60.4
		h125.9C489.6,60.4,538.5,76.1,572.4,107z M514.2,318.8c19.5-18.2,29.4-45.1,29.4-80.1s-9.9-61.8-29.4-80.8
		c-19.5-18.7-49.4-28.4-89.9-28.4h-44.3v216.6h50.4C466.5,346.4,494.4,337.3,514.2,318.8z"/>
</g>
</svg>
