<?xml version="1.0" encoding="utf-8"?>
<!-- Generator: Adobe Illustrator 22.1.0, SVG Export Plug-In . SVG Version: 6.00 Build 0)  -->
<svg version="1.1" id="Layer_2_1_" xmlns="http://www.w3.org/2000/svg" xmlns:xlink="http://www.w3.org/1999/xlink" x="0px" y="0px"
	 viewBox="0 0 640 480" style="enable-background:new 0 0 640 480;" xml:space="preserve">
<style type="text/css">
	.st0{fill:#086636;}
</style>
<g>
	<path class="st0" d="M560.4,479.8c-3.6,0-6.6,0-9.7,0c-153.6,0-307.1-0.1-460.7,0.2c-7.6,0-10.4-1.6-10.4-9.9
		c0.2-153.8,0.2-307.7,0.2-461.6c0-2.6,0-5.1,0-8.6C240.1,0,400,0,560.3,0C560.4,159.7,560.4,319.2,560.4,479.8z M320.9,460.4
		c117.9,1.2,219.1-94.3,221.1-216.6C544,116.4,443.5,19.1,323.9,18C198.9,16.8,99.1,115.4,99,237.8
		C99,362.4,196.7,460.4,320.9,460.4z"/>
	<path class="st0" d="M402.4,398.7c23-70.9,46-141.8,69.6-214.3c-16.7,0-31.8-0.2-46.9,0.2c-1.8,0.1-4.2,3.5-5,5.8
		c-8.6,25.8-17.4,51.6-25.3,77.6c-2.5,8.1-5.8,11.9-14.8,11c-9-0.9-18.2-0.2-28.8-0.2c10.3-31.8,20.1-62.4,30.4-94.6
		c-16.7,0-31.8-0.3-46.8,0.4c-2.2,0.1-5,5-6.1,8.2c-8.1,24.2-15.8,48.5-23.6,72.8c-14.7,45.5-29.4,91.1-44.2,136.5
		c-0.7,2.1-1.7,4.2-2.5,6.2c-61.3-17.6-126.7-90.3-118.9-182.9C148.2,122.5,232.7,65.6,295.2,61c-1.9,6.5-3.7,12.7-5.6,18.7
		c-16,49-31.9,98.1-48,147.1c-1,3-1.9,6-3.1,9c-3.1,7.5-9.9,10.7-16.6,8.1c-6.9-2.6-10.2-9.4-7.9-16.7c3.5-11.2,7.2-22.3,10.7-33.6
		c0.9-2.6,1.3-5.4,2.3-9.3c-16.1,0-31-0.1-45.9,0.2c-1.5,0-3.8,1.9-4.3,3.3c-5.4,16.8-13.4,33.1-10.8,51.6c4,29.2,25.5,49.7,55.9,53
		c25.8,2.9,53.1-14.9,61.9-41.3c12.5-37.5,24.4-75.2,36.6-112.8c7.9-24.3,15.8-48.5,23.4-72.9c2.3-7.4,7.6-4.9,11.9-4
		c29.7,6.4,56.4,18.8,79.9,38c84.1,68.6,88.7,197.3,9.3,271.1c-12.2,11.4-26.4,20.6-39.6,30.8C404.4,400.4,403.4,399.5,402.4,398.7z
		"/>
	<path class="st0" d="M375.4,326.4c-3.4,10.8-6.2,19.8-9.1,28.6c-6.1,18.8-12.4,37.5-18.1,56.4c-1.7,5.5-4.4,8.2-10.2,8.1
		c-10.4-0.2-20.9-0.1-32.5-0.1c6.3-19.8,12.3-38.5,18.3-57.3c3.2-9.8,6.7-19.5,9.6-29.4c1.5-5.1,4.2-6.8,9.3-6.6
		C352.9,326.6,363.3,326.4,375.4,326.4z"/>
</g>
</svg>
