<?xml version="1.0" encoding="utf-8"?>
<!-- Generator: Adobe Illustrator 18.1.1, SVG Export Plug-In . SVG Version: 6.00 Build 0)  -->
<svg version="1.1" id="Layer_1" xmlns="http://www.w3.org/2000/svg" xmlns:xlink="http://www.w3.org/1999/xlink" x="0px" y="0px"
	 viewBox="0 0 640 480" enable-background="new 0 0 640 480" xml:space="preserve">
<g>
	<path fill-rule="evenodd" clip-rule="evenodd" fill="#231F20" d="M414.9,146.2h-94.5h-94.5c-22.3,0-40.5,16.5-40.5,36.7v63
		c0,90.8,32.1,142.7,135,228.3c102.9-85.6,135-137.5,135-228.3v-63C455.4,162.7,437.2,146.2,414.9,146.2L414.9,146.2z"/>
	<path fill-rule="evenodd" clip-rule="evenodd" fill="#FFFFFF" d="M257.7,167.9c0,0,7.1,11.2,5.2,12.5c-2.9,1.9-12.2-4-12.2-4
		s6.2,13.3,9.7,18.6c1.4,2.1,4.7,3.6,5.7,6.3c4,10.6-8.8,26.9,3.2,34.3c4,2.5,9,1.1,13.6-1.2c0,0,1.4-0.8,2.2-0.4
		c2.2,1.1-0.3,6.5-0.6,7.4c-5,11.5-9.3,5.5-14.8,0.6c-11.2-9.9-12.1,4.1-15.6,5.4c-12.7,4.5-11.3-0.7-15.5,1.1c-2.6,1.1-3,6.5-3.8,9
		c-1.6,5.2-5.3,18.6,6.3,14.6c6.8-2.4,8.8-19.2,15.4-10.7c7.9,10.3-2.8,20.8,8,33.1c2.9,3.4,6.4,4.9,9.8,1.4c1.2-1.2,2.5-3,3-4.7
		c0.6-1.9,0.8-5.1-0.2-8c-2.2-6.4-7.6-6.7-5.7-15.5c2.4-0.5,2.7-0.7,5.1,0.7c4.1,2.3,10.1,3.6,13.5,6.9c5.4,5.2,9.7,11.2,16.5,14.9
		c2,4.4-2.7,10-4.2,12.4c-2.7,4.3-6.3,9.8-7.3,15c-2,9.7,7.4,19.7-3.3,23.1c-12.4,3.9-32.6,0.8-33.9,14.2c-0.3,2.5-0.8,6.6,1.1,9
		c1.6,1.9,5.9,3.5,8.6,3.5c10.4-0.1,1.1-11.3,9.5-13.9c4.1-1.2,8.9,1.5,12.1,1.8c3.6,0.3,8.3,0,11.5-0.1c12.5-0.4,14.5-5.4,20.6-9.3
		c8.1-5,15.3,8.9,18.1,14.1c2.3,4.3,8.2,6.2,9.9,10.9c1.9,5.1,2.1,13,1.4,17.4c-0.5,3.7-4.3,3.2-5.9,6c-2.5,4.6-3.4,23.9,4.2,26.5
		c6,2,16.3-5,14.2-10.5c-0.6-1.7-3.5-3.1-3.9-5c-2.5-13,19.6-24.1,20.2-27.2c1-5-7.4-4.2-5.5-14.7c1.3-7.7,9.2-12.9,12.8-19
		c1.9-3.3,1.2-9.5,3.6-12.5c2-2.5,5.5-3.3,7-6.2c8.4-15.5-1.3-39.7-7.5-56.9c-1.8-5-11.3-25.1-5.1-27.5c1.6-0.6,2.6,0.1,3.5,0.2
		c3.6,3.8,1.3,9.7,3.1,14c2.6,5.8,10,8.4,15.3,10.8c-0.6,0.5,1.1,0.2,1.2,0.2c-1.5-3.3-2.8-5.9-2.9-9.8c-0.1-11-1.8-19.6-8.8-24.5
		c-3.5-2.5-9.7-4.4-14.8-1.7c-20.8,10.9-0.3,44.9,5,63c2.4,8-3.2,12.7-9.8,9.7c-5.3-2.4-8.1-15.1-9.8-21.3
		c-6.5-24.6-15.7-68.9-27.1-81.8c-10.5-11.9-38.2-17.5-56.7-20.9c-3-0.6-7.8-1.2-10.7-2.4C269.8,175.9,257.7,167.9,257.7,167.9
		L257.7,167.9z"/>
	<path fill-rule="evenodd" clip-rule="evenodd" fill="#231F20" d="M404.5,98.7c0.3-1.6,5.4-9.9,11.3-20.3
		C431,51.8,452,12,414.4,39.1c-9.9,7.2-16.2,18.2-27.8,14.5l0,0C374.9,50,368.1,37.4,372,25.9c10.2-30.4-25.2-26.5-25.7-2.7
		c-0.6,29.8-51.2,29.8-51.8,0c-0.5-23.8-36-27.8-25.7,2.7c3.9,11.6-2.9,24.2-14.5,27.8l0,0c-11.7,3.6-17.9-7.4-27.8-14.5
		c-52.2-37.8,8.8,54,9.9,59.6C281.8,85.1,334.6,80.6,404.5,98.7L404.5,98.7z"/>
</g>
</svg>
