<svg xmlns="http://www.w3.org/2000/svg" xmlns:xlink="http://www.w3.org/1999/xlink" viewBox="0 0 640 480"><defs><style>.cls-1{isolation:isolate;}.cls-2{fill:none;}.cls-3{fill:#02487b;}.cls-4{fill:url(#linear-gradient);}.cls-5{fill:url(#linear-gradient-2);}.cls-6{fill:url(#linear-gradient-3);}.cls-7{fill:url(#linear-gradient-4);}.cls-11,.cls-13,.cls-8,.cls-9{mix-blend-mode:overlay;}.cls-8{fill:url(#linear-gradient-5);}.cls-9{fill:url(#linear-gradient-6);}.cls-10{fill:url(#linear-gradient-7);}.cls-11{fill:url(#linear-gradient-8);}.cls-12{fill:url(#linear-gradient-9);}.cls-13{fill:url(#linear-gradient-10);}</style><linearGradient id="linear-gradient" x1="398.86" y1="373.52" x2="458.52" y2="270.18" gradientUnits="userSpaceOnUse"><stop offset="0" stop-color="#004e70"/><stop offset="0.27" stop-color="#1c6a8d"/><stop offset="0.85" stop-color="#65b1d6"/><stop offset="1" stop-color="#78c4e9"/></linearGradient><linearGradient id="linear-gradient-2" x1="281.01" y1="223.4" x2="623.54" y2="98.73" gradientUnits="userSpaceOnUse"><stop offset="0" stop-color="#feda01"/><stop offset="1" stop-color="#d36611"/></linearGradient><linearGradient id="linear-gradient-3" x1="287.47" y1="236.5" x2="637.49" y2="236.5" gradientUnits="userSpaceOnUse"><stop offset="0" stop-color="#e0bb03"/><stop offset="1" stop-color="#c65b12"/></linearGradient><linearGradient id="linear-gradient-4" x1="287.47" y1="169.59" x2="637.49" y2="169.59" xlink:href="#linear-gradient-3"/><linearGradient id="linear-gradient-5" x1="359.9" y1="196.89" x2="476.81" y2="399.39" gradientUnits="userSpaceOnUse"><stop offset="0" stop-color="#004266"/><stop offset="0.06" stop-color="#0c4f73"/><stop offset="0.27" stop-color="#32789d"/><stop offset="0.47" stop-color="#5199be"/><stop offset="0.67" stop-color="#66b1d6"/><stop offset="0.85" stop-color="#73bfe4"/><stop offset="1" stop-color="#78c4e9"/></linearGradient><linearGradient id="linear-gradient-6" x1="389.04" y1="180.07" x2="505.95" y2="382.57" xlink:href="#linear-gradient-5"/><linearGradient id="linear-gradient-7" x1="284.16" y1="232.05" x2="626.69" y2="107.38" xlink:href="#linear-gradient-2"/><linearGradient id="linear-gradient-8" x1="389.1" y1="180.03" x2="506.01" y2="382.53" xlink:href="#linear-gradient-5"/><linearGradient id="linear-gradient-9" x1="287.47" y1="215.2" x2="637.49" y2="215.2" xlink:href="#linear-gradient-3"/><linearGradient id="linear-gradient-10" x1="378.93" y1="185.91" x2="495.84" y2="388.4" xlink:href="#linear-gradient-5"/></defs><title>KAZ-LON</title><g class="cls-1"><g id="Layer_2" data-name="Layer 2"><g id="Layer_8" data-name="Layer 8"><path class="cls-2" d="M0,0V480H640V0ZM19.1,338.51c0,.62.15,1.23-.87,1.23s-.84-.66-.84-1.24c0-4.35,0-8.69,0-13.14-.59.26-.61.83-.77,1.25-1.59,4-3.14,8-4.7,12-.24.61-.4,1.21-1.34,1.17s-1-.67-1.15-1.21c-1.53-4-4.83-12.67-5.23-13,0,2.93-.09,11.28,0,12.51s-.3,1.86-1.63,1.61q0-7.8-.07-15.59c0-.62,0-1.24,0-1.86,2.36-.37,2.35-.37,3.12,1.67,1.63,4.37,3.27,8.73,5,13.4,1.48-3.78,5.18-13.16,5.62-14.37a1.12,1.12,0,0,1,1.1-.87c1.31-.11,1.82.19,1.78,1.67C19,328.68,19.1,333.6,19.1,338.51Zm21.1,1.24c-.89,0-.87-.49-.87-1.1q0-7.71,0-15.43c0-.59-.06-1.11.84-1.13s.94.5.94,1.17c0,2.57,0,12.86,0,15.43C41.11,339.35,41,339.75,40.2,339.75Zm34.52-.08c-.67.13-1.4.22-1.9-.57-.95-1.49-7.21-10.57-9.33-13.66l-.33.09v13c0,.65.07,1.24-.91,1.18-.63,0-.83-.24-.83-.84,0-5.3,0-10.6,0-15.9,0-.38-.07-.81.5-.85a1.8,1.8,0,0,1,2,.76c2.4,3.61,8.61,12.6,9.49,13.87V329.7c0-2.2,0-4.4,0-6.59,0-.74.21-1,1-1s.77.48.77,1c0,5.11,0,10.22,0,15.33C75.08,338.88,75.39,339.54,74.72,339.67Zm31.62,0c-3.29,0-6.59,0-9.88,0-.89,0-1.14-.24-1.13-1.12.06-2.58,0-5.16,0-7.73s0-5.07,0-7.6c0-.8.1-1.2,1.07-1.18,3.34.06,6.68,0,10,0,.53,0,1-.09,1,.75s-.43.8-1,.8c-2.77,0-5.54,0-8.31,0-.89,0-1.15.25-1.1,1.12.07,1.38,0,2.77,0,4.15,0,.77.26,1,1,1,2.53,0,5.06,0,7.59,0,.5,0,1.07-.15,1.11.7s-.51.85-1.12.84c-2.48,0-5,0-7.45,0-.86,0-1.17.19-1.13,1.1.08,1.53.08,3.06,0,4.58,0,.88.22,1.15,1.11,1.13,2.72-.05,5.44,0,8.17,0,.53,0,1.17-.2,1.17.76S106.88,339.71,106.34,339.71Zm31.73-1.77a20.46,20.46,0,0,0-.47-3.82,2.65,2.65,0,0,0-2.65-2.19c-1.95,0-3.91,0-5.87-.06-.84,0-.76.49-.76,1,0,1.91,0,3.82,0,5.73,0,.61,0,1.1-.86,1.11s-.88-.44-.88-1.07q0-7.74,0-15.48c0-.77.15-1.11,1-1.09,2.39.06,4.78,0,7.17,0,3.71.12,5.66,2.37,5,5.69a4.21,4.21,0,0,1-2.88,3.31c2.55.94,2.66,2.95,2.67,5a12.68,12.68,0,0,0,.62,3.5C138.25,339.82,138.24,339.79,138.07,337.94Zm35,1.7c-.53.16-1.35.43-1.71-.48-.51-1.34-1.07-2.65-1.53-4a1.19,1.19,0,0,0-1.36-.91c-1.95.05-3.91.06-5.86,0a1.25,1.25,0,0,0-1.42,1c-.33,1-.85,2-1.14,3.07s-1,1.65-2.35,1.23c1.94-4.85,3.85-9.62,5.75-14.39.29-.71.59-1.41.84-2.13a1.22,1.22,0,0,1,1.34-1,1.27,1.27,0,0,1,1.36,1c2,5.19,4,10.36,6,15.56C173.13,338.9,173.72,339.46,173.08,339.64Zm29.12.08c-3.15,0-6.3,0-9.45,0-.81,0-1.06-.22-1.05-1,.05-2.62,0-12.94,0-15.47,0-.57-.13-1.11.81-1.13s.92.5.92,1.17c0,4.58,0,9.16,0,13.75,0,.93.24,1.21,1.19,1.19,2.53-.07,5.06,0,7.59,0,.54,0,1-.05,1,.77S202.75,339.72,202.2,339.72Zm27,.21c-.51.08-1,.09-1.44.12a10.33,10.33,0,0,1-4.16-.83,5,5,0,0,1-2.93-4.42c0-.52-.07-1,.67-.92.49,0,1-.18,1.1.7a3.81,3.81,0,0,0,3.1,3.65c2.14.55,4.29.61,6.07-1a2.69,2.69,0,0,0-.68-4.6,16.88,16.88,0,0,0-3.68-1.14c-.88-.23-1.78-.39-2.64-.66-2.21-.67-3.25-1.86-3.37-3.75a4.52,4.52,0,0,1,2.74-4.62,7.78,7.78,0,0,1,7.53.51,4.64,4.64,0,0,1,2.14,3.41c.06.43.16.92-.51.93-.48,0-1.1.22-1.22-.59-.48-3.14-4-3.91-6.61-3.16A3.13,3.13,0,0,0,223,326.6a2.62,2.62,0,0,0,2.35,2.63q2.22.54,4.44,1.11c3.21.84,4.71,2.41,4.61,4.81C234.27,337.82,232.53,339.43,229.23,339.93Zm4.24-99.75L203.29,273.9q-6.69,7.47-13.36,15l-.89,1h1.75q21,0,42,0c1.13,0,1.41.29,1.4,1.41-.07,4.39-.08,8.79,0,13.18,0,1.22-.24,1.58-1.53,1.57q-30.75-.06-61.49,0c-9.36,0-18.73,0-28.09,0a1.58,1.58,0,0,1-1.84-1.38c-1.07-3.56-2.28-7.08-3.36-10.64a1.19,1.19,0,0,0-1.38-1q-14.19,0-28.38,0c-.94,0-1.22.4-1.45,1.16-1.12,3.59-2.31,7.16-3.4,10.76a1.28,1.28,0,0,1-1.47,1.12q-21.36,0-42.71,0a1.93,1.93,0,0,1-1.84-1.21q-10.45-17.16-20.9-34.34c-.67-1.1-1-1.1-1.87-.2-3.5,3.66-7.06,7.26-10.64,10.84a2.4,2.4,0,0,0-.68,1.91c0,7.22,0,14.43,0,21.65,0,1-.2,1.36-1.31,1.35-6.45-.08-12.9-.07-19.35-.08V224c0-.38,0-.76.06-1.14,6.41,0,12.81,0,19.21,0,1.17,0,1.39.35,1.39,1.44q-.06,15,0,30a2.47,2.47,0,0,0,.18,1.48l8.31-9.29q10-11.21,20-22.44a3.07,3.07,0,0,1,2.57-1.14c8.08.05,16.15,0,24.22,0h1.75c-2.17,2.29-4.07,4.32-6,6.33Q62.61,241.36,51,253.5a1.38,1.38,0,0,0-.23,2q14.62,24.25,29.2,48.55c.26.44.55.88.95,1.52,1.25-3.36,2.43-6.54,3.6-9.71Q97.67,260,110.82,224.12a1.61,1.61,0,0,1,1.81-1.3c6.21.06,12.42.07,18.63,0a1.8,1.8,0,0,1,2,1.45q14.55,38.88,29.19,77.72a2.28,2.28,0,0,0,.64,1v-4.87a14.07,14.07,0,0,0,0-2.43c-.64-3.83,1-6.54,3.55-9.33,14-15.4,27.8-31,41.67-46.5.16-.17.31-.35.69-.79h-1.71c-13,0-26,0-39,0-1.22,0-1.62-.23-1.59-1.54.09-4.49.06-9,0-13.47,0-1,.24-1.29,1.26-1.28q32.61,0,65.22,0c.91,0,1.23.21,1.22,1.18q-.07,7.1,0,14.19A2.77,2.77,0,0,1,233.47,240.18Zm346.11,109.9-299.28-45-2-12.3,301.28,47.3ZM450.66,192.5l186.83-55.39v12L459,202.07l120.57,138-301.4-47.33,60-54.83-50.72,15v-12l70.22-20.82.12-.11-70.45,20.87L418.47,129.92l219,7.17L450.62,192.46Z"/><path class="cls-2" d="M138.12,326.59a3,3,0,0,0-3.1-2.92c-1,0-1.91,0-2.86,0h0c-.95,0-1.9,0-2.85,0-.7,0-1,.12-1,.92.05,1.67,0,3.33,0,5,0,.43,0,.88.62.86a44.69,44.69,0,0,0,6.55-.17A3.2,3.2,0,0,0,138.12,326.59Z"/><path class="cls-2" d="M125.29,253.3l-2.91-9.83-.3,0q-4.92,16.56-9.87,33.12c-.37,1.22.43.87,1,.87,6,0,12,0,18,0,1,0,1.3-.11,1-1.23C129.83,268.64,127.57,261,125.29,253.3Z"/><path class="cls-2" d="M165.56,324c-1.11,2.85-2.07,5.38-3.08,7.89-.26.67-.2.92.59.9,1.67-.05,3.34,0,5,0,.57,0,.76-.12.52-.74C167.6,329.45,166.65,326.87,165.56,324Z"/><path class="cls-3" d="M17.36,322.09a1.12,1.12,0,0,0-1.1.87c-.44,1.21-4.14,10.59-5.62,14.37-1.75-4.67-3.39-9-5-13.4-.77-2-.76-2-3.12-1.67,0,.62,0,1.24,0,1.86q0,7.8.07,15.59c1.33.25,1.75-.3,1.63-1.61s0-9.58,0-12.51c.4.28,3.7,9,5.23,13,.2.54.25,1.17,1.15,1.21s1.1-.56,1.34-1.17c1.56-4,3.11-8,4.7-12,.16-.42.18-1,.77-1.25,0,4.45,0,8.79,0,13.14,0,.58-.22,1.24.84,1.24s.87-.61.87-1.23c0-4.91-.07-9.83,0-14.75C19.18,322.28,18.67,322,17.36,322.09Z"/><path class="cls-3" d="M75.1,323.13c0-.55.05-1-.77-1s-1,.27-1,1c0,2.19,0,4.39,0,6.59v7.07c-.88-1.27-7.09-10.26-9.49-13.87a1.8,1.8,0,0,0-2-.76c-.57,0-.5.47-.5.85,0,5.3,0,10.6,0,15.9,0,.6.2.81.83.84,1,.06.92-.53.91-1.18v-13l.33-.09c2.12,3.09,8.38,12.17,9.33,13.66.5.79,1.23.7,1.9.57s.36-.79.36-1.21C75.1,333.35,75.09,328.24,75.1,323.13Z"/><path class="cls-3" d="M41.11,323.26c0-.67,0-1.2-.94-1.17s-.84.54-.84,1.13q0,7.71,0,15.43c0,.61,0,1.1.87,1.1s.91-.4.91-1.06C41.09,336.12,41.09,325.83,41.11,323.26Z"/><path class="cls-3" d="M234.41,224c0-1-.31-1.18-1.22-1.18q-32.61,0-65.22,0c-1,0-1.27.29-1.26,1.28,0,4.49.08,9,0,13.47,0,1.31.37,1.54,1.59,1.54,13-.05,26,0,39,0H209c-.38.44-.53.62-.69.79-13.87,15.52-27.67,31.1-41.67,46.5-2.53,2.79-4.19,5.5-3.55,9.33a14.07,14.07,0,0,1,0,2.43V303a2.28,2.28,0,0,1-.64-1q-14.61-38.85-29.19-77.72a1.8,1.8,0,0,0-2-1.45c-6.21.08-12.42.07-18.63,0a1.61,1.61,0,0,0-1.81,1.3Q97.68,260,84.48,295.89c-1.17,3.17-2.35,6.35-3.6,9.71-.4-.64-.69-1.08-.95-1.52q-14.59-24.29-29.2-48.55a1.38,1.38,0,0,1,.23-2q11.65-12.13,23.26-24.32c1.93-2,3.83-4,6-6.33H78.47c-8.07,0-16.14,0-24.22,0A3.07,3.07,0,0,0,51.68,224q-10,11.25-20,22.44l-8.31,9.29a2.47,2.47,0,0,1-.18-1.48q0-15,0-30c0-1.09-.22-1.45-1.39-1.44-6.4.06-12.8,0-19.21,0,0,.38-.06.76-.06,1.14v81.94c6.45,0,12.9,0,19.35.08,1.11,0,1.31-.32,1.31-1.35-.05-7.22,0-14.43,0-21.65a2.4,2.4,0,0,1,.68-1.91c3.58-3.58,7.14-7.18,10.64-10.84.86-.9,1.2-.9,1.87.2q10.41,17.21,20.9,34.34A1.93,1.93,0,0,0,59.08,306q21.36-.06,42.71,0a1.28,1.28,0,0,0,1.47-1.12c1.09-3.6,2.28-7.17,3.4-10.76.23-.76.51-1.16,1.45-1.16q14.19.06,28.38,0a1.19,1.19,0,0,1,1.38,1c1.08,3.56,2.29,7.08,3.36,10.64a1.58,1.58,0,0,0,1.84,1.38c9.36-.05,18.73,0,28.09,0q30.75,0,61.49,0c1.29,0,1.55-.35,1.53-1.57-.08-4.39-.07-8.79,0-13.18,0-1.12-.27-1.41-1.4-1.41q-21,.06-42,0H189l.89-1q6.67-7.47,13.36-15l30.18-33.72a2.77,2.77,0,0,0,.94-2Q234.34,231.11,234.41,224ZM131.2,277.52c-6,0-12,0-18,0-.52,0-1.32.35-1-.87q5-16.54,9.87-33.12l.3,0,2.91,9.83c2.28,7.66,4.54,15.34,6.87,23C132.5,277.41,132.21,277.53,131.2,277.52Z"/><path class="cls-3" d="M136.91,331.14a4.21,4.21,0,0,0,2.88-3.31c.64-3.32-1.31-5.57-5-5.69-2.39-.08-4.78,0-7.17,0-.86,0-1,.32-1,1.09q0,7.74,0,15.48c0,.63,0,1.08.88,1.07s.86-.5.86-1.11c0-1.91,0-3.82,0-5.73,0-.54-.08-1,.76-1,2,.06,3.92,0,5.87.06a2.65,2.65,0,0,1,2.65,2.19,20.46,20.46,0,0,1,.47,3.82c.17,1.85.18,1.88,2.13,1.67a12.68,12.68,0,0,1-.62-3.5C139.57,334.09,139.46,332.08,136.91,331.14Zm-1.42-.88a44.69,44.69,0,0,1-6.55.17c-.67,0-.62-.43-.62-.86,0-1.67,0-3.33,0-5,0-.8.3-1,1-.92.95.05,1.9,0,2.85,0h0c1,0,1.91,0,2.86,0a3,3,0,0,1,3.1,2.92A3.2,3.2,0,0,1,135.49,330.26Z"/><path class="cls-3" d="M229.78,330.34q-2.22-.57-4.44-1.11A2.62,2.62,0,0,1,223,326.6a3.13,3.13,0,0,1,2.35-3.07c2.65-.75,6.13,0,6.61,3.16.12.81.74.6,1.22.59.67,0,.57-.5.51-.93a4.64,4.64,0,0,0-2.14-3.41,7.78,7.78,0,0,0-7.53-.51,4.52,4.52,0,0,0-2.74,4.62c.12,1.89,1.16,3.08,3.37,3.75.86.27,1.76.43,2.64.66A16.88,16.88,0,0,1,231,332.6a2.69,2.69,0,0,1,.68,4.6c-1.78,1.64-3.93,1.58-6.07,1a3.81,3.81,0,0,1-3.1-3.65c-.06-.88-.61-.66-1.1-.7-.74-.07-.72.4-.67.92a5,5,0,0,0,2.93,4.42,10.33,10.33,0,0,0,4.16.83c.4,0,.93,0,1.44-.12,3.3-.5,5-2.11,5.16-4.78C234.49,332.75,233,331.18,229.78,330.34Z"/><path class="cls-3" d="M106.34,338.18c-2.73,0-5.45,0-8.17,0-.89,0-1.15-.25-1.11-1.13.07-1.52.07-3.05,0-4.58,0-.91.27-1.12,1.13-1.1,2.49.06,5,0,7.45,0,.61,0,1.15.06,1.12-.84s-.61-.7-1.11-.7c-2.53,0-5.06,0-7.59,0-.73,0-1-.19-1-1,0-1.38.07-2.77,0-4.15,0-.87.21-1.14,1.1-1.12,2.77.06,5.54,0,8.31,0,.57,0,1,0,1-.8s-.51-.75-1-.75c-3.34,0-6.68,0-10,0-1,0-1.08.38-1.07,1.18,0,2.53,0,5.06,0,7.6s0,5.15,0,7.73c0,.88.24,1.14,1.13,1.12,3.29-.05,6.59,0,9.88,0,.54,0,1.17.2,1.17-.77S106.87,338.18,106.34,338.18Z"/><path class="cls-3" d="M167,323a1.27,1.27,0,0,0-1.36-1,1.22,1.22,0,0,0-1.34,1c-.25.72-.55,1.42-.84,2.13-1.9,4.77-3.81,9.54-5.75,14.39,1.38.42,2,0,2.35-1.23s.81-2,1.14-3.07a1.25,1.25,0,0,1,1.42-1c1.95.07,3.91.06,5.86,0a1.19,1.19,0,0,1,1.36.91c.46,1.35,1,2.66,1.53,4,.36.91,1.18.64,1.71.48s0-.74-.06-1C171,333.4,169,328.23,167,323Zm1.07,9.71c-1.66,0-3.33,0-5,0-.79,0-.85-.23-.59-.9,1-2.51,2-5,3.08-7.89,1.09,2.9,2,5.48,3,8C168.83,332.63,168.64,332.75,168.07,332.75Z"/><path class="cls-3" d="M202.2,338.17c-2.53,0-5.06,0-7.59,0-1,0-1.2-.26-1.19-1.19.05-4.59,0-9.17,0-13.75,0-.67.05-1.19-.92-1.17s-.81.56-.81,1.13c0,2.53,0,12.85,0,15.47,0,.82.24,1.05,1.05,1,3.15,0,6.3,0,9.45,0,.55,0,1,0,1-.78S202.74,338.17,202.2,338.17Z"/><polygon class="cls-4" points="280.3 305.07 579.58 350.08 579.58 340.07 278.3 292.77 280.3 305.07"/><polygon class="cls-5" points="418.48 129.92 287.36 240.83 357.81 219.96 422.77 160.59 450.62 192.46 637.5 137.09 418.48 129.92"/><polygon class="cls-6" points="287.47 240.88 287.47 252.93 338.19 237.89 357.69 220.06 287.47 240.88"/><polygon class="cls-7" points="637.49 149.15 637.49 137.11 450.66 192.5 459.01 202.07 637.49 149.15"/><polygon class="cls-8" points="278.19 292.72 579.59 340.05 459.01 202.07 338.19 237.89 278.19 292.72"/><polygon class="cls-9" points="357.69 220.06 450.66 192.5 450.62 192.46 357.81 219.96 357.69 220.06"/><polygon class="cls-10" points="357.81 219.96 450.62 192.46 422.77 160.59 357.81 219.96"/><polygon class="cls-11" points="357.81 219.96 450.62 192.46 422.77 160.59 357.81 219.96"/><polygon class="cls-12" points="338.19 237.89 459.01 202.07 450.66 192.5 357.69 220.06 338.19 237.89"/><polygon class="cls-13" points="338.19 237.89 459.01 202.07 450.66 192.5 357.69 220.06 338.19 237.89"/></g></g></g></svg>