<?xml version="1.0" encoding="utf-8"?>
<!-- Generator: Adobe Illustrator 21.1.0, SVG Export Plug-In . SVG Version: 6.00 Build 0)  -->
<svg version="1.1" baseProfile="tiny" xmlns="http://www.w3.org/2000/svg" xmlns:xlink="http://www.w3.org/1999/xlink" x="0px"
	 y="0px" viewBox="0 0 640 480" overflow="scroll" xml:space="preserve">
<g id="Layer_3">
	<path fill="#242021" d="M316.7,481.8c-132.3,0-240.4-108.3-240.4-240.9C76.3,107.3,184.5-0.1,319,0c131.1,0.1,239,108.8,239,240.8
		C558,373.8,449.9,481.8,316.7,481.8z M365.6,208.9c2.3-2.1,3.8-3.4,5.1-4.7c21.2-19.7,42.3-39.5,63.6-59c1.8-1.6,4.7-2.8,7.1-2.8
		c13-0.3,26-0.1,39.1-0.1c1.2,0,2.3-0.2,3.7-0.4C450.1,82.1,376.4,36.3,290.1,48.1c-29.2,4-56.1,14.3-80.6,30.7
		c-24.6,16.4-44.4,37.3-60,63.4c18.3,0,35.5,0.1,52.7-0.1c3.5,0,4.9,1.2,6.1,4.4c13.8,35.9,27.8,71.7,41.8,107.5
		c1.3,3.3,2.6,6.6,4.3,10.7c1-2.3,1.6-3.6,2.1-4.9c15.5-37.8,31-75.6,46.4-113.5c1.3-3.1,2.8-4.3,6.3-4.3
		c17.4,0.2,34.7,0.1,52.1,0.1c1.4,0,2.8,0.1,4.5,0.2C365.6,164.4,365.6,186.1,365.6,208.9z M485,340.2c-13.1,0-24.8,0.1-36.4-0.1
		c-2,0-4.6-1.3-5.9-2.8c-17.3-20.9-34.4-42-51.5-63.1c-3.8-4.7-7.6-9.3-11.5-14c-4,3.4-7.5,6.6-11.2,9.3c-2.8,2-3.8,4.3-3.8,7.7
		c-0.3,19.3-0.8,38.6-1.2,57.9c0,1.7-0.1,3.4-0.2,4.9c-15.7,0-30.7,0-46.1,0c0-32.5,0-64.6,0-96.8c-1.1,0.8-1.5,1.8-1.9,2.8
		c-13.1,30.1-26.3,60.2-39.2,90.4c-1.3,2.9-2.6,4.1-5.9,4c-11.1-0.3-22.2-0.3-33.3,0c-3.7,0.1-5.2-1.3-6.6-4.5
		c-12.7-29.6-25.6-59.1-38.4-88.7c-0.6-1.4-1.3-2.7-2-4c-0.4,0.1-0.8,0.2-1.2,0.2c0,32.2,0,64.4,0,97c-13.2,0-25.6,0-39.1,0
		c38.6,59.3,91.8,93,162,94.8C386.3,437.1,443.2,403.2,485,340.2z M416,229.6c25.3,32.6,50.3,64.8,75.3,97.1
		c28.1-53.4,26.2-124.1-0.9-173C465.7,179,440.9,204.2,416,229.6z M145.3,331.2c0-60.5,0-120.4,0-180.6
		C115.2,203.8,115,277.3,145.3,331.2z"/>
	<path fill="#FEFEFE" d="M145.3,150.6c0,60.3,0,120.1,0,180.6"/>
</g>
<g id="Layer_2">
</g>
</svg>
