<?xml version="1.0" encoding="utf-8"?>
<!-- Generator: Adobe Illustrator 22.1.0, SVG Export Plug-In . SVG Version: 6.00 Build 0)  -->
<svg version="1.1" id="Layer_1" xmlns="http://www.w3.org/2000/svg" xmlns:xlink="http://www.w3.org/1999/xlink" x="0px" y="0px"
	 viewBox="0 0 640 480" style="enable-background:new 0 0 640 480;" xml:space="preserve">
<style type="text/css">
	.st0{fill:#E32526;}
	.st1{fill:#183D6D;}
</style>
<g>
	<path class="st0" d="M381.1,245.9c-5.6,0-11,0-16,0c-0.9,0-1.8,1.2-2.1,2.4c-1.5,4.4-2.7,8.9-4.2,13.3c-2.4,7.7-6.5,13.9-13.6,18.4
		c-10.1,6.2-20.5,11.9-32.6,13.6c-12.2,1.8-21-2.4-27-13.3c-3.9-6.8-5.6-14.2-5-22.2c0.3-2.4,0.9-4.4,3-5.3
		c4.7-2.1,9.8-4.2,14.5-6.2c2.1-0.9,3,0,3,2.1c0,4.4-0.6,9.2,0,13.6c0.9,5.3,2.7,11,5,16c4.7,9.2,15.4,9.8,21.9,1.8
		c5-5.9,8.3-13,10.4-20.5c5-18.1,10.1-36.2,15.4-54.3c2.1-7.4,1.2-8.6-6.2-9.2c-19.3-1.8-26.1,14.2-21,29.1c1.2,3.6,3.3,7.1,5,11.6
		c-5.9,0.6-11.6,0.9-16.9,1.2c-0.9,0-2.4-1.5-2.7-2.4c-3.6-8.3-5.3-16.9-2.1-26.1c3.9-10.1,12.2-14.5,21.9-15.4
		c13.9-1.2,27.9-1.2,42.1-1.5c3.3,0,3.9,1.2,3,4.4c-3.6,13-7.1,26.1-11,39.1c0,0.6-0.3,0.9-0.6,2.4c3,0,5.6,0,8.6,0
		c9.2,0,9.2,0,11.6-8.6c2.1-7.4,4.2-15.1,6.2-22.5c0.9-2.7,1.8-5.3,3.3-7.7c2.7-5,6.8-7.7,12.7-7.1c5,0.3,9.8,0,15.4,0
		c-9.5,10.1-12.2,22.5-15.4,34.7c-4.2,15.4-8,30.8-12.2,46c-0.9,3.3-0.3,6.2,2.4,8.6c1.8,1.8,1.5,3-0.6,4.4
		c-7.1,4.7-15.4,5.6-23.7,5.6c-0.9,0-2.7-2.1-2.7-3.3c0-3,0.3-5.9,1.2-8.9c2.7-10.1,5.3-20.5,8.3-30.5
		C380.8,248.3,380.8,247.4,381.1,245.9z"/>
	<path class="st1" d="M22.1,192.8c0,15.1,0,30.2,0,46c1.2-1.5,1.8-2.1,2.4-3c9.8-13.3,19.6-27,29.1-40.6c1.5-1.8,2.7-2.7,5-2.7
		c6.8,0.3,13.9,0,21.3,0c-0.9,1.2-1.2,2.1-1.8,2.7c-10.7,14.5-21.3,29.1-32,43.6c-1.5,2.1-1.5,3.3-0.3,5.3
		c9.8,14.2,19.3,28.8,28.8,43c0.6,0.6,0.9,1.5,1.5,2.7c-1.2,0-2.1,0.3-3,0.3c-6.5,0-13,0-19.6,0c-2.1,0-3.3-0.6-4.4-2.4
		c-7.7-11.9-15.7-23.7-23.4-35.6c-0.9-1.5-1.8-3-3.6-4.2c0,13.9,0,27.9,0,42.1c-7.1,0-13.9,0-20.5,0c-0.6,0-1.2-0.9-1.5-1.5
		s0-1.5,0-2.4c0-29.9,0-59.9,0-89.5c0-3.3,0.9-4.2,4.2-4.2C9.9,192.8,15.5,192.8,22.1,192.8z"/>
	<path class="st1" d="M129.4,237.6c0-6.2,0-12.2,0-17.8c0-0.6,0.9-1.5,1.5-1.8c11.3-1.8,22.5-2.7,33.8,0.9
		c9.8,3.3,14.8,10.4,16,20.2c0.6,4.2,0.6,8.3,0.6,12.5c0,12.7,0,25.5,0,38.8c-6.5,0-13,0-19.9,0c-0.3-0.6-0.3-1.8-0.6-2.7
		c-0.6,0.3-1.2,0.3-1.8,0.6c-5.9,3-11.9,4.4-18.7,3.3c-10.7-2.1-17.5-9.5-18.7-20.5c-0.9-10.4,4.4-19.6,14.5-23.4
		c6.5-2.4,13-2.7,19.9-1.5c1.5,0.3,3,0.3,4.4,0.6c-0.3-5-2.4-8-6.8-9.5c-7.1-2.4-13.9-1.2-21,0.3C132.1,237,130.9,237.3,129.4,237.6
		z M160.8,267.8c0-1.8,0.3-3.6,0-5.3c0-0.9-0.9-1.8-1.5-2.1c-4.4-0.9-8.9-1.5-13,0.3c-3,1.2-4.7,3.6-5,6.5c-0.3,3.3,0.9,6.2,3.9,7.4
		c2.4,0.9,5.3,1.5,7.7,1.5C160.5,276.1,160.8,275.5,160.8,267.8z"/>
	<path class="st0" d="M531.1,230.2c7.1-5.3,14.2-8.9,22.2-10.4c2.7-0.3,5.3-0.6,7.7-0.3c3.9,0.3,5.9,2.7,5.6,6.5
		c0,2.1-0.6,4.4-0.9,6.5c-3.6,13.3-7.4,26.4-11,39.4c0,0.3-0.3,0.9-0.3,1.2c-1.5,5.6-0.9,6.8,4.7,9.8c-1.5,1.2-2.4,2.4-3.9,3
		c-6.2,2.4-12.5,4.7-18.7,6.5c-5.3,1.5-8.3-1.5-7.1-7.1c1.8-7.7,4.2-15.4,6.2-22.8c2.1-7.1,4.2-14.5,6.2-21.6
		c0.3-1.2,0.6-2.1,0.9-3.3c0.6-4.2-1.2-5.6-5-3.9c-5,2.1-9.2,5.6-11,11c-3.3,10.1-6.2,20.5-8.9,30.8c-0.6,2.1-0.6,4.4-0.3,6.8
		c0,2.1-0.6,3.9-2.4,4.4c-5,2.1-10.1,4.2-15.1,5.6c-3.3,0.9-5.6-0.6-5.9-4.2c-0.3-3.3,0.3-6.5,1.2-9.5c3.6-12.7,7.7-25.5,11.6-37.9
		c0.9-3.3,1.5-6.2-0.9-9.2c-1.2-1.5-0.9-2.7,0.9-3.3c6.5-2.7,13.3-5.3,20.2-7.4c4.4-1.2,5.3,0,5,4.7
		C531.7,226.6,531.4,228.1,531.1,230.2z"/>
	<path class="st1" d="M218.9,290.4c-7.1,0-13.3,0-20.5,0c0-1.5,0-2.7,0-3.9c0-15.4,0-30.8,0-46.2c0-3-0.9-4.2-3.9-3.9
		c-1.5,0.3-3.3,0-5,0c0-5.9,0-11.9,0-17.8c1.8,0,3.6,0,5.3,0c2.4,0.3,3.6-0.6,3.6-3.3c0-2.7,0.3-5.3,0.6-8
		c2.1-12.2,9.5-19.3,21.6-21c4.4-0.6,8.9-0.3,13.3,0c0.6,0,2.1,1.2,2.1,1.8c0.3,5.3,0,10.7,0,16c-2.7,0-4.7,0-7.1,0
		c-7.4,0.3-11.6,5.6-10.1,12.7c0,0.6,1.5,1.5,2.4,1.5c3.6,0.3,7.4,0,11,0c0,0.9,0.3,1.5,0.3,2.1c0,5,0,10.1,0,16c-3.3,0-6.2,0-9.2,0
		c-4.7,0-4.7,0-4.7,4.7c0,15.1,0,29.9,0,45.1C218.9,287.4,218.9,288.6,218.9,290.4z"/>
	<path class="st0" d="M589.2,272c1.8,0.3,3,0.3,4.2,0.3c8.9,0,18.1-0.3,27,0c5.9,0.3,8.9-4.2,10.7-8.3c1.5-4.2-1.8-8.6-6.2-8.6
		c-1.2,0-2.4,0-3.6,0.3c-0.9-4.2,1.5-8.6,5.6-8.9c3.3-0.3,6.5,0.6,9.5,1.8c3,1.2,4.4,4.4,3.3,7.7c-1.2,4.2-2.7,8.3-4.7,12.2
		c-4.2,6.8-8.6,13-13,19.6c-1.5,2.1-3.3,3-5.9,3c-16.3,0-32.9,0-49.2-0.3c-1.5,0-3-0.6-4.7-0.9c0.6-1.5,0.9-3.3,1.8-4.2
		c8.6-10.4,17.2-20.5,25.8-30.8c3.3-3.9,6.5-7.7,9.5-11.6c0.9-1.2,1.2-2.4,2.4-4.2c-1.8-0.3-3-0.3-3.9-0.3c-4.7,0-9.5,0-14.2,0
		c-2.7,0-5,0.3-6.8,2.7c-0.6,0.9-1.8,1.2-3.3,2.1c0.3-1.5,0.3-2.4,0.3-3.3c1.5-4.4,3-8.9,5-13c2.1-4.2,5.3-6.5,10.4-6.5
		c10.4,0.3,20.8,0,31.4,0c1.2,0,2.7,0.6,3.9,0.9c-0.6,1.5-0.6,3-1.5,4.2c-10.4,14.2-20.8,28.5-31.1,42.7
		C590.7,269.3,590.1,270.5,589.2,272z"/>
	<path class="st1" d="M248.6,199.1c1.8,0,2.7,0,3.9,0c5.3,0,10.7,0,16.6,0c0,5.3,0.3,10.4,0,15.4c-0.3,3.3,0.9,4.4,4.2,4.2
		c3.6-0.3,7.4,0,11.3,0c0,5.9,0,11.9,0,17.8c-4.2,0-8,0-11.9,0c-2.7,0-3.6,0.6-3.6,3.6c0.3,7.7,0,15.1,0.3,22.8
		c0.3,10.1,3.6,19.3,9.5,27.6c0.6,0.9,1.2,1.5,1.8,2.4c-13.3,3.6-28.5-6.5-30.8-21c-0.9-5.9-0.6-12.2-0.9-18.1c0-4.4-0.3-9.2,0-13.6
		c0-2.7-0.9-3.6-3.3-3.3c-1.5,0-3,0-4.7,0c0-5.9,0-11.6,0-17.5c2.4,0,5-0.3,8-0.3C248.6,211.8,248.6,205.6,248.6,199.1z"/>
	<path class="st0" d="M454.3,276.1c-0.3,0.9-0.6,2.1-1.2,3c-6.8,10.4-22.8,16.6-35,13.6c-8.3-2.1-12.5-7.7-13-17.2
		c-1.8-23.4,15.4-47.1,38.2-53.1c3.9-0.9,8-1.5,12.2-1.5c6.8-0.3,11.3,5.3,10.1,12.2c-0.9,4.7-3.6,8.3-7.1,11.6
		c-7.4,6.2-16.3,9.8-25.5,12.2c-2.7,0.6-3.9,1.8-4.4,4.4c-0.3,2.4-0.9,5-0.9,7.4c0,8,5,12.7,13,11.6c3-0.3,5.6-1.5,8.3-2.4
		c1.5-0.6,3-1.2,4.4-1.8C454,275.5,454.3,275.8,454.3,276.1z M430.6,250.3c4.4-0.3,8.6-0.3,10.4-3.3c2.7-4.4,4.2-9.5,5.6-14.5
		c0.3-0.9-0.3-3-0.9-3.3c-1.2-0.3-2.7,0-3.9,0.6c-0.9,0.3-1.8,1.5-2.4,2.4C436.5,237.9,433.8,243.5,430.6,250.3z"/>
	<path class="st1" d="M82,290.1c0-24,0-47.4,0-71.1c6.8,0,13.3,0,20.5,0c0,4.2,0,8,0,11.9c4.4-6.5,10.4-10.7,18.7-12.2
		c0,6.5,0,12.5,0,18.7c0,0.6-1.5,1.8-2.7,2.1c-7.7,2.4-13.6,6.5-15.4,14.8c-0.6,2.1-0.3,4.4-0.3,6.8c0,8.6,0,16.9,0,25.5
		c0,1.2,0,2.4,0,3.9C95.6,290.1,88.8,290.1,82,290.1z"/>
	<path class="st0" d="M488.4,283.3c-0.9,0.9-1.5,1.5-2.4,1.8c-6.5,2.7-13.3,5.6-20.2,7.4c-5.6,1.8-9.2-1.8-8-7.7
		c0.9-4.7,2.4-9.5,3.9-13.9c3.3-10.4,6.5-20.8,9.8-31.1c0.9-3,1.2-5.6-0.9-8.3c-0.3-0.6,0-2.7,0.9-3c6.8-4.2,14.2-6.8,22.2-7.4
		c2.4-0.3,3.6,1.2,3.3,3.3c-0.6,3-0.9,6.2-1.8,9.2c-3.6,12.5-7.4,24.9-11,37.4c-0.3,0.6-0.6,1.5-0.6,2.1
		C482.2,278.5,482.8,280,488.4,283.3z"/>
	<path class="st0" d="M502.3,190.2c3.9-0.3,4.7,0.6,4.2,3.9c-0.6,2.7-1.2,5.3-2.1,7.7c-0.3,1.2-1.2,2.7-2.1,3.3
		c-5.3,2.7-10.4,5-16,7.1c-2.4,0.9-3.9-0.9-3.6-3.9c0.3-9.8,4.2-14.5,13.6-16.9C498.5,190.8,500.6,190.5,502.3,190.2z"/>
</g>
</svg>
