<?xml version="1.0" encoding="utf-8"?>
<!-- Generator: Adobe Illustrator 18.1.1, SVG Export Plug-In . SVG Version: 6.00 Build 0)  -->
<svg version="1.1" id="Layer_1" xmlns="http://www.w3.org/2000/svg" xmlns:xlink="http://www.w3.org/1999/xlink" x="0px" y="0px"
	 viewBox="0 0 640 480" enable-background="new 0 0 640 480" xml:space="preserve">
<g>
	<path fill-rule="evenodd" clip-rule="evenodd" fill="#003876" d="M413.5,4.4H557v185.1c0,0,5.6,214.2-237.3,284.9
		c0,0-219.3-44.1-243.9-280.8V4.7h111.7L413.5,4.4L413.5,4.4L413.5,4.4z"/>
	<path fill-rule="evenodd" clip-rule="evenodd" fill="#77D2F7" d="M408.7,16.1H545V192c0,0,5.4,203.5-225.5,270.7
		c0,0-208.4-41.9-231.8-266.8V16.3h106.2L408.7,16.1L408.7,16.1L408.7,16.1z"/>
	<path fill-rule="evenodd" clip-rule="evenodd" fill="#FFFFFF" d="M239.8,15.9l161.4,0v412.9v-0.5c0,0-38,24.1-82,34
		c0,0-45.9-10.9-79.3-31.8V15.9L239.8,15.9L239.8,15.9z"/>
</g>
</svg>
