<?xml version="1.0" encoding="utf-8"?>
<!-- Generator: Adobe Illustrator 22.1.0, SVG Export Plug-In . SVG Version: 6.00 Build 0)  -->
<svg version="1.1" id="svg3404" xmlns:svg="http://www.w3.org/2000/svg"
	 xmlns="http://www.w3.org/2000/svg" xmlns:xlink="http://www.w3.org/1999/xlink" x="0px" y="0px" viewBox="0 0 640 480"
	 style="enable-background:new 0 0 640 480;" xml:space="preserve">
<style type="text/css">
	.st0{fill:#6F6B6C;}
</style>
<g>
	<path class="st0" d="M150.8,278.8c-11.9-59.1-2.9-141.1,35.7-155.4c-1.9-20-1.4-44.3-1-64.3c0.5-21.4,1.9-37.2-5.2-36.2
		c-8.6,1.4-37.2,58.6-43.4,132.5c-2.4,26.7-0.5,53.4,3.3,77.2C143.2,248.3,146.5,263.6,150.8,278.8z"/>
	<path class="st0" d="M488.2,278.8c4.3-15.3,7.6-30.5,10-46.2c3.8-24.3,5.7-51,3.3-77.2C495.4,82,467.3,24.3,458.2,22.9
		c-6.2-1-5.2,15.3-4.3,36.7c0.5,20,0.5,44.3-1,64.3C491.6,137.7,500.2,220.2,488.2,278.8z"/>
	<path class="st0" d="M242.3,164c22.4,54.3,36.2,113,39.6,126.3c3.8-5.2,19.1-19.5,37.7-19.5c18.6,0,33.8,13.8,37.7,19.5
		c3.3-13.3,17.2-72,39.6-126.3c-1-10-6.7-40-9.1-51C383.4,92.5,362.9,0,319.5,0c-43.4,0-64.3,92.5-68.6,112.5
		C248.5,123.4,243.3,153.5,242.3,164z"/>
	<path class="st0" d="M232.3,146.3c7.6-44.3,14.8-70.5,23.8-94.8c-17.2,2.9-37.2,43.4-43.4,74.4
		C222.3,132.5,231.8,145.8,232.3,146.3z"/>
	<path class="st0" d="M426.3,125.8c-6.2-31-26.2-71.5-43.4-74.4c9.1,24.3,16.7,50.5,23.8,94.8C407.2,145.8,416.8,132.5,426.3,125.8z
		"/>
	<path class="st0" d="M478.7,377c47.2-37.2,66.2-108.2,58.1-114.9c-4.3-1.4-12.4,15.7-23.4,36.7c-8.6,15.7-16.7,26.2-16.7,26.2l-1,1
		c-0.5,0,0.5-1,0.5-1c33.8-70.1,37.7-119.6,39.1-142c2.4-51-6.7-53.4-10.5-37.2c-4.3,19.5-9.5,44.3-13.3,68.6
		c-10.5,67.7-39.1,134.9-62,171.6c-3.3,5.2-6.2,4.8-7.2,3.8c-0.5-1,0-1.9,1.9-6.2c65.8-121.5,38.1-244.5-1-245.9
		c-37.2-1.4-72.9,145.8-77.2,162c25.3,42.9,31.5,102.9,29.5,117.7c0,1.4-1.4,2.4-2.4,2.4c-1.4,0-2.4-1-2.9-2.4
		c0-27.6-21-132-70.1-132c-49.1,0-70.5,104.9-70.5,132.5c0,1.4-1.4,2.4-2.9,2.4s-2.4-1-2.4-2.4c-1.4-14.8,4.3-74.8,29.6-117.7
		c-4.3-16.2-40-163.5-77.2-162c-39.1,1.4-67.2,123.9-1,245.4c1.9,3.8,2.4,5.2,1.9,6.2c-1,1-3.8,1.4-7.2-3.8
		c-22.9-36.7-52-103.9-62-171.6c-3.8-24.3-9.1-49.1-13.3-68.6c-3.8-16.7-12.9-14.3-10.5,37.2c1,22.9,4.8,72,39.1,142c0,0,0.5,1,0,1
		c-0.5,0-1-1-1-1s-8.1-10.5-16.7-26.2c-11-21-19.1-38.1-23.4-36.7c-8.1,6.2,11,77.2,58.1,114.9l1.9,1.9c0,1-1.9-0.5-1.9-0.5
		c-18.6-11.4-42.9-36.7-47.2-27.6c-2.4,11,35.7,55.8,96.8,77.7c0,0,4.3,1.4,4.3,2.4s-2.4,0-2.4,0C204.2,428,175.6,417,168,418
		c-8.1,1-3.3,6.7,4.3,13.3c7.6,6.7,41.9,27.2,89.1,30.5c0.5,4.3,16.7,19.1,58.6,19.1s58.6-14.8,58.6-19.1
		c47.2-3.3,82-23.8,89.1-30.5c7.6-6.7,11.9-12.4,4.3-13.3c-7.6-1-36.2,10-44.8,12.9c0,0-2.4,1-2.4,0s4.3-2.4,4.3-2.4
		c61-21.9,99.1-66.7,96.3-77.2c-4.3-9.1-28.6,16.2-47.2,27.6c0,0-1.9,1-1.9,0.5C476.3,378.9,478.7,377,478.7,377z"/>
</g>
</svg>
