<svg id="Layer_1" data-name="Layer 1" xmlns="http://www.w3.org/2000/svg" viewBox="0 0 640 480"><defs><style>.cls-1{fill:#003867;}</style></defs><title>Artboard 1</title><g id="layer1"><path id="path26659" class="cls-1" d="M176.1,312.18c-28.33-7.53-54.8-12.75-79.31-12.75-25.81,0-46.25,11-46.25,28.12,0,16.1,15.23,25.66,42.33,25.66,27.84,0,56.12-17.26,83.23-41M92.59,368C41.83,368,10,352.91,10,330.88,10,299.41,60.27,283,119.43,283a495.83,495.83,0,0,1,79.31,7.67c11-11.17,21.89-23,32.35-34.66,20.87-23.21,51.61-56.67,77.28-76.26,48.73-37.26,111-64.24,176.61-64.24,81.65,0,147,27.55,147,68.73,0,23.61-23.21,44.08-64.67,45.69l-1.3-7.53c8.69-4.06,19.43-11.31,19.43-33.65,0-29.3-32.91-58.44-93.38-58.44-58.15,0-91.35,27.27-128.77,66.11C343.74,216.75,322.7,242,303.57,261.7a409.82,409.82,0,0,1-45.69,40.14c65.54,13.2,134.86,28.57,198.94,28.57,66,0,96-17.12,111.37-31.33l4.2,6.09C555.88,339.1,505.85,368,441.91,368c-81.93,0-155-23-219.11-42.33C177.94,352.44,131.59,368,92.59,368"/></g></svg>