<?xml version="1.0" encoding="utf-8"?>
<!-- Generator: Adobe Illustrator 21.0.2, SVG Export Plug-In . SVG Version: 6.00 Build 0)  -->
<svg version="1.1" id="Layer_1" xmlns="http://www.w3.org/2000/svg" xmlns:xlink="http://www.w3.org/1999/xlink" x="0px" y="0px"
	 viewBox="0 0 640 480" style="enable-background:new 0 0 640 480;" xml:space="preserve">
<style type="text/css">
	.st0{fill:#3ACE01;}
	.st1{fill:#FFFFFF;}
</style>
<g>
	<path class="st0" d="M179.2,1.7h281.6c53.7,0,97.6,43.9,97.6,97.6v281.6c0,53.7-43.9,97.6-97.6,97.6H179.2
		c-53.7,0-97.6-43.9-97.6-97.6V99.2C81.7,45.6,125.6,1.7,179.2,1.7z"/>
	<path class="st1" d="M319.5,80.6c96.6,0,174.9,62.7,174.9,140c0,27-9.6,52.2-26.1,73.6c-0.8,1.2-1.9,2.6-3.2,4l-0.1,0.1
		c-5.7,6.8-12,13.1-19,19c-48.4,44.7-128,97.9-138.5,89.7c-9.1-7.1,15-42-12.8-47.9c-1.9-0.2-3.9-0.5-5.8-0.7l0,0v0
		c-81.9-11.6-144.1-68.9-144.1-137.9C144.7,143.3,223,80.6,319.5,80.6L319.5,80.6z"/>
	<path class="st0" d="M218.1,265.3h35.3c5,0,9.1-4.1,9.1-9.1v-0.8c0-5-4.1-9.1-9.1-9.1H228v-57.8c0-5-4.1-9.1-9.1-9.1h-0.8
		c-5,0-9.1,4.1-9.1,9.1v67.6C209,261.2,213.1,265.3,218.1,265.3z M436.6,222.9v-0.8c0-5-4.1-9.1-9.1-9.1h-25.4v-14.4h25.4
		c5,0,9.1-4.1,9.1-9.1v-0.8c0-5-4.1-9.1-9.1-9.1h-35.3c-5,0-9.1,4.1-9.1,9.1v67.6c0,5,4.1,9.1,9.1,9.1h35.3c5,0,9.1-4.1,9.1-9.1
		v-0.8c0-5-4.1-9.1-9.1-9.1h-25.4V232h25.4C432.5,232,436.6,227.9,436.6,222.9L436.6,222.9z M368.8,262.6L368.8,262.6
		c1.7-1.7,2.6-4,2.6-6.4v-67.6c0-5-4.1-9.1-9.1-9.1h-0.8c-5,0-9.1,4.1-9.1,9.1v39.7l-33-44.2c-1.6-2.7-4.5-4.6-7.9-4.6h-0.8
		c-5,0-9.1,4.1-9.1,9.1v67.6c0,5,4.1,9.1,9.1,9.1h0.8c5,0,9.1-4.1,9.1-9.1v-40.5l33.2,45.4c0.2,0.3,0.4,0.6,0.7,0.9l0,0
		c0.9,1.2,2.2,2.1,3.6,2.6c1.1,0.4,2.2,0.7,3.5,0.7h0.8c1.5,0,2.9-0.4,4.3-1.1C367.5,263.8,368.3,263.3,368.8,262.6L368.8,262.6z
		 M278.9,265.3h0.8c5,0,9.1-4.1,9.1-9.1v-67.6c0-5-4.1-9.1-9.1-9.1h-0.8c-5,0-9.1,4.1-9.1,9.1v67.6
		C269.8,261.2,273.9,265.3,278.9,265.3L278.9,265.3z"/>
</g>
</svg>
