<?xml version="1.0" encoding="utf-8"?>
<!-- Generator: Adobe Illustrator 21.0.2, SVG Export Plug-In . SVG Version: 6.00 Build 0)  -->
<svg version="1.1" id="Litecoin" xmlns="http://www.w3.org/2000/svg" xmlns:xlink="http://www.w3.org/1999/xlink" x="0px" y="0px"
	 viewBox="0 0 640 480" enable-background="new 0 0 640 480" xml:space="preserve">
<g>
	<path fill="#FFFFFF" d="M559.5,240c0,132.1-107.4,239.5-239.5,239.5c-132,0-239.5-107.4-239.5-239.5C80.5,108,187.9,0.5,320,0.5
		C452.1,0.5,559.5,108,559.5,240z"/>
	<path fill="#CECFD0" d="M513.7,231.9c-0.5-14.4-2.7-28.4-6.4-41.8c-3.6-13.4-8.5-26.3-14.8-38.3c-6.4-12.5-14.2-24.2-23-35
		c-9.5-11.6-20.4-22-32.4-31.1c-13.8-10.5-29.1-19.3-45.6-25.6C369.4,51,345.2,46.2,320,46.2c-1.1,0-2.1,0-3.2,0.1
		c-50.7,0.7-96.6,21.1-130.7,53.7c-18.4,17.6-33.3,38.8-43.6,62.4c-6.9,15.8-11.9,32.7-14.3,50.4c-1.3,8.9-1.9,18-1.9,27.3
		c0,5.9,0.3,11.9,0.8,17.6c1.3,14.1,4,27.8,8.3,41c4.1,13.2,9.7,25.8,16.5,37.6c6.9,12.3,15.3,23.7,24.8,34.2
		c10.3,11.3,22,21.5,34.8,30.1c15.2,10.3,31.8,18.4,49.6,24.1c18.6,6,38.4,9.2,59,9.2c11.5,0,22.8-1,33.8-3h0.2
		c27.8-4.9,53.6-15.7,75.9-31.2c25.9-17.9,47.3-41.9,61.9-69.9c8.6-16.2,14.8-33.6,18.4-51.9v-0.1c2.4-12.2,3.7-24.7,3.7-37.6
		C513.9,237.2,513.8,234.5,513.7,231.9z M320,64.4c15.8,0,31.1,2.1,45.7,6.1l-197.4,81.2C198.8,99.6,255.4,64.4,320,64.4z
		 M320,415.6c-10.4,0-20.5-0.9-30.4-2.7l173.6-71.4C431.3,386.2,379,415.6,320,415.6z M495.6,240c0,16-2.2,31.6-6.3,46.3l-42.4,17.4
		l-22.3,9.1l-3.3,10h-20.9L356,341.1l-123.7,50.9c-13.9-7.9-26.5-17.7-37.4-29l53-21.8l44.5-18.3h-44.3l7.8-29.3l-21.3,8.7l-65.6,27
		c-7-11.7-12.6-24.3-16.7-37.5l68-28l18.3-7.5v-18.8l36-14.6l7.7-28.9l-21.3,8.8l-116.1,47.8c-0.2-3.4-0.3-6.8-0.3-10.3
		c0-12.1,1.3-24,3.7-35.5L274,152.6l21.2-8.7l5.8-22h47.7l31.7-13.1l36.7-15.1c12.9,8.5,24.5,18.7,34.6,30.2l-83,34.1l-20.8,8.6
		l-6.8,28.9l29.8-12.1v18.3l18.3-7.6l86.4-35.5c6.4,12,11.3,24.9,14.7,38.4l-144.9,59.6l-20.9,8.6l-3.9,16.4h71.8l44.4-18.3
		l58.9-24.2V240z"/>
	<path fill="#3D3D3D" d="M320,479.5C187.9,479.5,80.5,372.1,80.5,240C80.5,107.9,187.9,0.5,320,0.5c132.1,0,239.5,107.4,239.5,239.5
		C559.5,372.1,452.1,479.5,320,479.5z M320,18.8C198,18.8,98.8,118,98.8,240c0,122,99.2,221.2,221.2,221.2
		c122,0,221.2-99.2,221.2-221.2C541.2,118,442,18.8,320,18.8z M320,433.8c-106.9,0-193.8-87-193.8-193.9
		c0-106.9,86.9-193.8,193.8-193.8c106.9,0,193.8,87,193.8,193.8C513.8,346.9,426.9,433.8,320,433.8z M320,64.4
		c-96.8,0-175.6,78.8-175.6,175.6c0,96.8,78.8,175.6,175.6,175.6c96.8,0,175.6-78.8,175.6-175.6C495.6,143.2,416.8,64.4,320,64.4z"
		/>
	<path fill="#3D3D3D" d="M343.7,263.4l1.6-6.8l5-21.3l38.8-15.8v-63.3l-22.2,9l1.7-7.2l11.7-49.3l1.3-5.2H287l-13,49l-13.1,49.9
		l-1.7,6.7L220.2,225v63.3l20.2-8.1l-5.8,22l-10.2,38.9h210.2l12.4-37.4l13.4-40.3H343.7z M421.4,322.8H248.1l7.8-29.3l11.6-44.1
		l-28.9,11.8v-23.8l36-14.6l7.7-28.9l13.1-49.8l5.8-22h57.5l-10.7,44.8l-6.8,28.9l29.8-12.1v23.9l-36.2,14.7l-10.3,43.2l-3.9,16.4
		h114.6l-10.4,31.1L421.4,322.8z"/>
</g>
</svg>
