<?xml version="1.0" encoding="utf-8"?>
<!-- Generator: Adobe Illustrator 22.1.0, SVG Export Plug-In . SVG Version: 6.00 Build 0)  -->
<svg version="1.1" id="Layer_1" xmlns="http://www.w3.org/2000/svg" xmlns:xlink="http://www.w3.org/1999/xlink" x="0px" y="0px"
	 viewBox="0 0 640 480" style="enable-background:new 0 0 640 480;" xml:space="preserve">
<style type="text/css">
	.st0{fill:#EC4046;}
</style>
<g>
	<g>
		<path class="st0" d="M320.2,418c-98.7,0-197.5,0-296.6,0c-14.7,0-22-7.3-22-22c0-104.5,0-208.6,0-313.2C1.6,69.3,9.3,62,22.5,62
			c198.6,0,396.8,0,595.5,0c12.3,0,20.4,7.7,20.4,20.4c0,105.3,0,210.2,0,315.5c0,12.3-8.1,20.1-20.8,20.1
			C518.8,418,419.7,418,320.2,418z M469.4,251c17.7,0,34.7,0,51.3,0c15.8,0,15.4,0,15.8-16.2c0-5.8-1.5-8.1-7.7-7.7
			c-17.7,0.4-35.5,0-53.6,0.4c-5,0-6.6-1.5-6.2-6.6c0.4-8.9,0.4-17.4,0-26.2c-0.4-5,1.5-6.2,6.2-6.2c15.8,0,31.2,0,47.1,0
			c18.5,0,18.1,0,18.1-18.5c0-5-1.5-6.9-6.6-6.9c-28.9,0.4-57.8,0-86.8,0c-1.5,0-3.5,0.4-5.4,0.4c0,50.9,0,101.4,0,152.3
			c3.1,0,5.4,0,7.7,0c26.2,0,52.8,0,79.1,0c13.5,0,12,1.9,12-12c0-13.1,0-13.1-13.5-13.1c-17.4,0-34.7,0-52.4,0
			c-2.3,0-5.4,0.8-5.4-3.5C469.4,275.7,469.4,263.7,469.4,251z M279.7,163.8c0,1.9,0,2.7,0.4,3.9c17,48.6,33.9,96.8,50.9,145.4
			c0.8,1.5,3.5,3.5,5.4,3.5c6.9,0.4,13.9,0,20.8,0.4c5.4,0.4,7.3-1.5,9.3-6.6c15.8-46.7,32-93.3,48.2-140c0.8-1.9,1.2-3.5,1.9-6.2
			c-8.5,0-16.2,0.4-23.9,0c-4.6-0.4-6.6,1.5-8.1,5.8c-7.7,24.7-15.4,49-23.1,73.3c-4.2,13.1-8.5,26.6-13.1,41.3
			c-1.2-3.9-2.3-6.2-3.1-8.9c-11.2-35.5-22.4-70.6-33.9-106.1c-0.8-2.3-3.1-5-5-5.4C297.8,163.4,289,163.8,279.7,163.8z
			 M129.3,291.1c0-12.3,0-23.5,0-34.7c0-28.5,0-57.5,0-86c0-4.6-1.2-6.9-6.2-6.6c-5.4,0.4-11.2,0.4-16.6,0c-5-0.4-6.2,1.5-6.2,6.2
			c0,18.9,0,38.2,0,57.1c0,27.8,0,55.5,0,83.3c0,3.5-0.4,6.6,5,6.6c29.3,0,59,0,88.3,0c3.5,0,4.6-1.2,4.6-4.6c0-4.6-0.4-9.6,0-14.3
			c0.4-5-1.2-6.9-6.6-6.9c-11.2,0.4-22.8,0-33.9,0C148.6,291.1,139.3,291.1,129.3,291.1z M226.5,163.8c0,50.9,0,101.4,0,152
			c9.3,0,18.1,0,27.4,0c0-50.9,0-101,0-152C244.6,163.8,235.7,163.8,226.5,163.8z"/>
	</g>
</g>
</svg>
