<?xml version="1.0" encoding="utf-8"?>
<!-- Generator: Adobe Illustrator 22.1.0, SVG Export Plug-In . SVG Version: 6.00 Build 0)  -->
<svg version="1.1" id="Layer_2_1_" xmlns="http://www.w3.org/2000/svg" xmlns:xlink="http://www.w3.org/1999/xlink" x="0px" y="0px"
	 viewBox="0 0 640 480" style="enable-background:new 0 0 640 480;" xml:space="preserve">
<style type="text/css">
	.st0{fill:#FD4619;}
	.st1{fill:#ACB1B6;}
	.st2{fill:#1277D3;}
	.st3{fill:#FFFFFF;}
</style>
<g>
	<path class="st0" d="M25.7,9.9c5.1,10.9,2.2,20.9,2.2,20.9L11.5,138.4L0.4,216c0,0-2.6,9.3,6.1,16.7l11.8,9.1l28.4,9.4l220.3-99
		L25.7,9.9z"/>
	<path class="st1" d="M442.4,344.3h9.4L640,293c0,0-11.9-2.2-21.3-28.9c-9.4-26.7-28.2-66.5-28.2-66.5s-5.1-15.2-39-5.1
		C517.6,202.8,442.4,344.3,442.4,344.3z"/>
	<g>
		<path class="st2" d="M581.9,190.6l-0.5-0.1C582.7,190.9,581.9,190.6,581.9,190.6z"/>
		<path class="st2" d="M581.6,190.5c-0.3-0.1-0.7-0.2-1.3-0.4h0.1c0,0,0.3,0-0.7-0.2l0,0c-3.8-1.3-22.4-3-22.4-3l-390.5-54.2
			c0,0-29.6-10.9-54.2,19.5c-26.7,32.9-74.4,75.1-74.4,75.1s-11.5,15.2-27.5,8.5l297,227.7c0,0,46.2,20.2,72.2-10.1
			c23.6-27.5,152.7-217.9,176.2-252.5c0.4-0.5,0.8-1.2,1.4-2c0.3-0.4,0.6-0.9,0.8-1.2c5.1-6.9,14-8.3,15.7-8.5l2.1,0.3L581.6,190.5z
			"/>
	</g>
	<path class="st3" d="M98.8,210.5c4.8,0,9.4,0,14.5,0c0,1.6,0.2,3.2,0.2,4.7c0,15.6,0,31.1,0,46.7c0,8.3,0,8.3,8.4,7.9
		c0.5,3.6,1.1,7.2,1.6,10.7c-9.2,5.8-22,2.5-24.4-6.2c-0.3-1.1-0.5-2.3-0.5-3.5c0-19.2,0-38.3,0-57.5
		C98.6,212.4,98.8,211.6,98.8,210.5z"/>
	<path class="st3" d="M298.8,269.8c0,0-2.2,0.3-3.3,0.3c-5.9,0.1-6.1-0.8-6.1-8.4c0-11.2,0-22.3,0-33.5c0-4.3,0-8.6,0-12.9v-5.1
		h-14.5v6.5c0,16.7,0,33.4,0,50.2c0,2.2,0.1,4.5,0.5,6.7c0.9,5.4,5.4,8.9,11.8,9.4c0.5,0.1,1,0.2,1.7,0.1c9.4-0.1,12.1-1.9,12.1-1.9
		L298.8,269.8z"/>
	<path class="st3" d="M267,213.8c0-0.3,0-0.6,0-0.9v-2.3h-0.2c-4.8,0-9.3,0-14.2,0c0,6.3,0,12.2,0,18.7c-1.9-0.3-3.2-0.6-4.5-0.8
		c-13.1-2-22.6,3.6-24,15.4c-0.9,7.9-0.4,16.2,0.5,24.1c1,8.4,7.3,13.8,15.7,14.7c8,0.9,15.8-0.1,23.4-2.9c2.6-0.9,3.4-2.2,3.4-4.9
		C266.9,254.6,267,234.2,267,213.8z M248.9,270.2c-6,1-10.3-2.4-10.6-8.5c-0.1-4-0.1-8,0-12.1c0.2-7.1,6-10.8,12.4-7.9
		c0.8,0.4,1.6,2,1.6,3.1c0.2,3.7,0.1,7.4,0.1,11.2c0,3.4-0.2,6.9,0,10.3C252.7,269.1,251.2,269.9,248.9,270.2z"/>
	<path class="st3" d="M343.6,260.6c0-5.2,0.3-9.9-0.1-14.5c-0.9-11.9-9.3-18.3-22.9-17.9c-10.3,0.3-18.5,8.6-18.8,19.1
		c-0.1,5.7-0.1,11.4,0,17.1c0.2,8,4.8,14.5,12.4,17c7,2.3,13.9,2.3,20.6,0.3l0,0c0,0,2.4-0.5,5.4-2.1c0,0,0.1,0,0.2-0.1
		c2.8-1.6,2.9-1.6,2.9-1.6l-4.6-11.2c-16.3,5.2-22.8,3.4-21.6-6.2C325.7,260.6,334.4,260.6,343.6,260.6z M322.2,241.3
		c4.2-0.4,6.4,1.8,6.9,7.7c-4.2,0-8.2,0-12.1,0C316.6,244.3,318.3,241.7,322.2,241.3z"/>
	<path class="st3" d="M390.5,243.9c0-7-3.6-12-10.3-14.2c-4.9-1.6-9.7-1.9-14.5-1.5h0c-5.4,0.2-15.1,3.9-15.1,3.9l1,7.7
		c0.2,1.8,0.5,3.6,0.7,5.4c5.2-1.3,9.7-2.7,14.4-3.5c5.8-0.9,8.9,1.7,8.6,7.5c-3.6,0-7.1-0.1-10.6,0c-9.4,0.4-16,6.1-16.8,14.3
		c-0.9,9.8,4.1,16.8,14,18.8c9.1,1.8,17.7,0.1,26.3-3c2.4-0.9,2.2-2.7,2.2-4.1C390.6,264.9,390.5,254.4,390.5,243.9z M370.4,270.8
		c-4.4,0.4-7.6-2.7-7.4-5.6c0.3-3.8,4.4-5.2,12.3-4.2C376.2,269.8,375.6,270.3,370.4,270.8z"/>
	<path class="st3" d="M423.7,250.1c-2.2-0.8-4.4-1.6-6.6-2.4l0,0c0,0-6.3-1.1-4.9-5.2c0.7-2,2.1-2.3,3.7-2.1
		c1.6-0.1,11.6,2.4,14.6,3.2c1.8-3.3,3.8-6.7,5.9-10.4c-7-4.5-18.4-6.4-26-4.5c-8.9,2.2-14.1,8.1-14.4,16.1c-0.2,7,4.1,12.7,12,15.8
		l0,0l9.9,4.1c0,0,3.7,2,1.9,4.8c-1.1,1.8-8.2,0.2-12.9-1.1c-1.4-0.4-2.8-0.9-4.3-1.3l0,0l0,0c-0.5-0.1-1.1-0.3-1.7-0.5
		c-1.9,3.7-3.9,7.5-6,11.5c9.1,4.5,18,6.5,27.4,4.2c8.9-2.2,14.4-8.2,14.4-16.1C436.6,259.1,434.6,254.1,423.7,250.1z"/>
	<path class="st3" d="M483.1,260.6c0-5,0.2-9.5,0-14c-0.7-9.9-7.3-17.1-16.7-18.3c-11.7-1.5-21.2,3-23.8,12.9
		c-1.8,6.8-1.6,14.2-1.7,21.3c-0.1,5.3,1.4,10.3,5.3,14.4c5,5.4,13,7,20.6,6.3l0,0c1.8,0,3.9-0.4,6-1c2.2-0.5,4.2-1.3,6.1-2.1
		c2.1-0.9,3.6-1.6,3.6-1.6l-3.7-9.8c-0.2-0.6-0.5-1.3-0.7-1.9c-16.6,5.1-22.6,3.4-21.6-6.2C465.1,260.6,473.8,260.6,483.1,260.6z
		 M461.1,241.4c4.6-0.6,6.8,1.6,7.3,7.7c-4.1,0-8,0-11.8,0C455.9,244.7,457.6,241.9,461.1,241.4z"/>
	<path class="st3" d="M149.5,282.8c3.7-0.2,11.3-1,17.6-4.8l-3.1-7c-0.1-0.2-0.2-0.5-0.2-0.7c-0.4-1.2-1.1-2.4-1.6-3.6
		c-15.1,5.6-22.6,3.5-21.5-6.1c8.6,0,17.3,0,26.5,0c0-5,0.2-9.5,0-13.9c-0.7-10.9-8-18.1-18.2-18.4c-13.1-0.5-21.7,5.4-23,16.8
		c-0.8,7-0.7,14.1,0,21c0.8,8.9,7.2,15.4,15.8,16.4C144.1,282.8,146.8,282.9,149.5,282.8z M146.6,241.2c4.1,0,5.9,2.3,5.9,7.9
		c-4.3,0-8.2,0-12.2,0C140.4,243.7,142.4,241.2,146.6,241.2z"/>
	<path class="st3" d="M216.2,241.5c-0.1-5-3.5-8.9-8.3-10.9c-9.1-3.8-18.1-2.9-26.8-0.1l0,0c0,0,0,0-0.1,0c-1,0.3-1.9,0.6-2.9,1
		c-0.4,0.1-0.8,0.3-1.2,0.4c0,0,0,0-0.1,0c-0.5,0.2-1,0.4-1.5,0.6l0,0c-0.9,0.3-1.6,0.6-1.6,0.6l0,9.4c0,12,0,23.9,0,35.9
		c0,1.2,0.2,2.3,0.3,3.4c5,0,9.7,0,14.5,0c0-11.8,0-20.9,0-32.3c0-5,1.8-8.3,6.8-8.1c4.6,0.2,6.4,3.3,6.4,8.3c0,8.8,0,17.7,0,26.5
		c0,1.8,0,3.7,0,5.6c5.3,0,9.9,0,14.4,0C216.3,268.3,216.6,254.9,216.2,241.5z"/>
</g>
</svg>
