<?xml version="1.0" encoding="utf-8"?>
<!-- Generator: Adobe Illustrator 22.1.0, SVG Export Plug-In . SVG Version: 6.00 Build 0)  -->
<svg version="1.1" id="Layer_4" xmlns="http://www.w3.org/2000/svg" xmlns:xlink="http://www.w3.org/1999/xlink" x="0px" y="0px"
	 viewBox="0 0 640 480" style="enable-background:new 0 0 640 480;" xml:space="preserve">
<path d="M334.5,19c-0.5-6.7-1-11.9-1.4-19c2.4,1.4,3.8,2.4,4.8,2.9c3.3,2.4,6.7,5.2,10,7.6c2.9,1.9,5.7,4.3,8.6,6.2
	c1.9,1.4,4.3,2.9,6.7,3.8c1.4-2.4,2.9-4.8,3.8-6.7c-0.5,0-0.5-0.5-1-0.5c0.5,0,0.5-0.5,1-0.5c9.5,1.9,19.5,2.9,29,5.7
	c4.3,1.4,8.1,5.7,11.9,9.5c5.7,5.7,11.4,6.2,17.6,0.5c3.8,2.4,4.3,6.2,4.3,10c0,2.9-1,5.2-1.9,8.1c-2.4,6.2-1.4,9,5.2,11.4
	c6.7,2.4,12.4,5.2,17.1,10.9c1.4,1.9,5.2,1.9,8.6,3.3c1,8.6-2.9,13.3-16.2,18.1c1.4,11.9,10.5,17.6,19.5,23.3
	c-2.9,6.7-8.6,9.5-15.2,11.4c2.4,9.5,9.5,17.6,6.2,28c-10,1.4-11.4,3.8-7.1,12.8c1.4,3.3,1,5.2-1.9,7.1c-2.9,1.9-4.3,4.8-2.9,8.1
	c1.4,3.3,4.3,5.2,8.6,4.8c10.9-1,21.9-1.4,33.3-1.9c5.7-0.5,11.4-1,16.6-0.5c7.6,1,13.3,6.2,18.5,11.9c12.8,14.3,25.7,29,39.4,42.3
	c9,9,19,16.2,29,24.2c4.8,3.8,8.1,8.1,9.5,13.8c1,4.3-0.5,6.7-4.3,8.1c-9.5,3.3-18.5,2.4-27.6-2.9c-3.3-1.9-3.8-5.2-3.3-9
	c0.5-8.1,0-9-8.6-10.9c-2.9-1-5.7-3.3-7.1-5.7c-9-16.6-21.9-29.5-37.1-40.9c-8.6-6.7-18.1-6.2-27.6-1.9
	c-12.4,5.2-24.2,10.9-36.6,16.6c-0.5,0-0.5,1-0.5,1c10.5,0,20.9,0,31.4,0c1.4,0,2.9-0.5,4.8-0.5c12.4-0.5,17.6,2.9,22.8,13.8
	c8.6,19,16.6,38.5,25.7,57.5c4.3,8.6,9.5,17.1,14.3,25.2c4.8,7.6,7.1,15.7,7.1,24.7c0,6.2-3.3,9-9,7.1c-6.7-2.4-12.8-4.8-18.5-8.6
	c-5.7-3.8-6.2-8.6-2.9-14.7c1-1.4,1.9-3.3,2.4-4.8c1-3.3,0.5-5.7-2.9-8.1c-2.4-1.4-4.3-4.8-5.2-7.6c-4.8-12.4-8.1-25.2-13.3-37.1
	c-2.9-6.2-8.1-11.4-12.4-16.6c-3.3-4.3-8.6-5.7-13.3-3.3c-10.5,4.8-20.4,10.5-30.9,15.2c-11.4,5.7-23.3,11.4-35.2,16.6
	c-2.9,1.4-7.1,1.9-10.5,1c-9-2.4-17.6-0.5-25.7,3.3c-16.2,8.1-33.7,9.5-51.8,10.5c-20,1-39.4-2.9-58.9-5.2c-2.9-0.5-6.2,0-9-0.5
	c-3.8-0.5-5.2,1-6.7,4.3c-6.2,14.7-13.3,28.5-25.7,39.4c-4.8,3.8-9.5,7.6-15.2,10.5c-10,5.2-13.3,10-10.9,21.4
	c1.4,6.2,3.8,11.9,7.1,17.1c9.5,14.7,19.5,29,29.5,43.7c5.7,8.6,12.4,15.7,21.4,20.4c6.7,3.8,12.4,8.6,14.7,16.2c1.9,6.2,0,9-6.7,9
	c-6.2,0-12.8,0-19,0c-5.7,0-8.1-1.9-9-7.6c-0.5-2.4,0-5.2-1.4-7.1c-1.9-3.3-3.8-7.1-7.1-8.6c-5.7-3.3-9-7.1-9.5-13.8
	c0-2.9-1.4-5.7-2.9-8.1c-13.3-17.6-26.1-35.6-40.4-52.8c-9-10.9-10.5-19-1.4-30.9c3.3-4.3,7.6-8.6,6.7-15.2c-6.7,3.3-13.3,6.2-20,9
	c-2.9,1.4-6.2,1.9-9.5,2.4c-12.4,1.9-22.8,10.9-24.2,23.8c-1.9,18.1-3.3,36.6-4.3,55.1c-0.5,13.3,5.7,23.8,17.6,30.9
	c5.7,3.3,10.9,8.1,12.4,15.7c1,4.8-0.5,7.1-5.2,7.1c-7.1,0-14.7,0-21.9,0c-5.2,0-8.6-3.3-8.1-9.5c0.5-9-3.3-15.2-10-20
	c-5.2-3.8-6.2-9-5.2-14.7c3.8-26.6,6.7-53.7,2.9-80.8c-1.4-10,1.4-17.1,9.5-22.3c9.5-6.2,16.6-14.7,22.8-24.7
	c4.3-7.1,5.2-15.2,3.3-23.8c-3.3-16.2-3.8-32.3,2.9-48c2.4-5.7,5.7-10.9,8.6-16.2c-8.6-5.2-22.8-3.3-30.9,4.3
	c-5.2-4.3-5.2-7.1,0.5-17.1c-6.7-2.4-10.9,1-20,15.2c-1.9-2.4-3.8-4.8-5.7-7.1c-3.8,2.9-4.3,6.2-3.3,10.5
	c1.9,8.1,7.6,12.8,13.3,18.1c5.2,5.2,11.4,10,16.2,15.7c13.3,16.2,7.1,38-11.9,45.6c-5.2,1.9-10.5,3.3-15.2,5.7
	c-8.1,3.3-8.6,6.7-2.9,12.8c-3.3,4.8-10.9,5.2-16.6,1.4c-9-6.7-9-19.5,0.5-27.1c3.3-2.9,7.6-5.2,11.4-8.1c8.1-5.7,8.6-14.3,0.5-20.9
	c-8.6-7.1-17.6-13.8-24.7-21.9c-20.9-22.8-19.5-63.7,4.8-83.2c18.1-14.3,43.2-13.3,58.9,3.8c5.2,5.7,10.5,12.4,15.7,18.1
	c6.7,7.6,14.3,13.8,24.2,16.2c2.4,0.5,5.2,0.5,7.1-1c20.4-12.8,42.8-14.3,66.1-10.5c13.3,2.4,26.6,3.3,39.9,3.3
	c15.7-0.5,29-8.6,42.3-16.6c21.4-13.3,35.6-31.4,42.3-55.6c1.4-4.8,1.9-10.5,1.9-15.7c0-4.8-2.9-6.7-7.6-5.2
	c-9,3.3-15.7,10-21.9,17.1c-1,1-1,2.4-1,3.8c-1,6.2-6.7,10.5-12.8,9c-3.3-1-6.2-1-9.5-2.4c-1.9-0.5-4.3-1.4-5.7-3.3
	c-6.7-7.1-7.1-17.6-1.9-25.7c2.9-4.3,4.8-9.5,6.7-14.3c3.3-6.7,6.7-12.8,9-20c1-2.9,1-6.2,1.4-9c0.5-2.4,0-5.7,1.4-7.6
	c1.9-3.3,4.3-6.7,6.7-9.5c5.2-7.1,5.2-10.5-0.5-17.1c-1.4-1.9-2.9-3.8-3.3-6.2c-0.5-1,0-2.9,1-3.3c1-0.5,2.9-0.5,3.8,0
	C328.8,13.8,331.2,16.2,334.5,19z M332.2,179.2c-0.5-0.5-1-0.5-1-1c-4.3,2.9-8.1,5.7-12.4,8.6c-20.4,12.8-42.3,18.5-66.5,14.7
	c-16.6-2.9-33.3-5.7-50.4-3.8c-29,3.3-53.7,26.1-58,55.1c-0.5,4.8-1.4,10.5,1.4,16.2c1.4-1.9,2.9-2.9,3.8-4.3
	c1.4-2.4,2.9-5.2,4.3-7.6c17.6-27.1,42.8-42.8,75.1-45.6c11.4-1,23.3-1,34.7,3.8c8.6,3.8,9,7.1,1.9,12.4c-0.5,0.5-1.4,1-1.9,1.4
	c-1.9,2.4-1.9,4.3,1,5.7c1.9,1,4.8,1.9,6.7,1.4c7.1-0.5,14.3-1,21.4-1.9c8.6-1.4,13.8-6.7,15.7-14.7c2.9-12.8,9.5-23.3,18.5-32.3
	C328.4,184.9,329.8,182,332.2,179.2z M430.1,227.6c1-1.9,1.4-2.9,1.4-3.8c3.8-14.7-1-27.6-12.4-37.1c-8.6-6.7-8.1-12.8-4.8-21.9
	c9.5-23.8,14.7-48,10.9-73.7c-3.3-22.3-15.7-38-36.6-46.6c-2.4-1-5.7-1.4-8.1-1.9c0.5,1.4,1,1.9,1.9,2.4c21.4,10,29.9,28,29.9,50.9
	c-0.5,25.7-9.5,48.5-27.1,67.5c-1.9,2.4-4.3,4.3-6.2,7.1c-2.4,2.9-1.4,5.7,1.4,7.6c3.3,1.9,7.1,3.8,10.9,5.7
	c17.6,8.6,30.4,21.4,37.1,39.9C428.6,224.8,429.1,225.7,430.1,227.6z M53.7,195.3c1,0.5,1.4,1,2.4,1.9c1-1.4,1.4-2.9,2.4-3.8
	c2.9-3.8,5.7-7.6,8.6-11.4c3.8-4.8,9-8.1,15.2-8.6c1.9,0,4.8,1,5.7,2.4c0.5,1-0.5,3.8-1.4,5.2c-1,2.4-2.4,4.3-3.3,6.7
	c0.5,0.5,1,1.4,1.4,1.9c11.4-10.5,23.8-11.4,38.5-7.1c-1.9-10.5-8.1-16.2-15.7-20.4c-13.8-6.7-26.6-5.2-38.5,4.3
	C58.9,174.4,53.7,183.4,53.7,195.3z M348.8,58.9c0-0.5,0.5-1,0.5-1c-1-1.4-1.4-3.3-2.9-3.8c-7.6-2.9-6.7-8.1-5.7-14.3
	c0.5-1.9-0.5-3.8-1-5.7c-1.9,0.5-4.8,0-6.2,1.4c-3.8,3.8-7.1,8.6-10.5,12.8c-0.5,1-1,2.9-0.5,3.8c3.3,5.7,0,10-2.4,14.7
	c-5.7,11.9-11.9,24.2-18.1,37.5c3.3-0.5,5.7-1,8.1-1.4c4.8-1,6.2,0.5,6.2,5.2c0,2.4-1,4.8-1.4,7.6c4.8-1.4,6.2-3.3,5.2-8.1
	c-1-3.8-1.4-8.1-1-11.9c1-10.9,6.2-20,11.9-29C335,61.3,339.8,56.1,348.8,58.9z M536.5,330.3c-0.5,0-1,0.5-1.9,0.5
	c-1.4,3.8-2.9,7.6-3.8,11.4c-0.5,1.4,0,3.8,1,4.3c2.4,1,4.8,1.9,7.6,1.9c0.5,0,1.4-2.9,1.4-4.3C539.8,339.3,537.9,335,536.5,330.3z
	 M580.7,263.8c-0.5,0.5-1,0.5-1.4,1c0.5,3.8,0.5,7.6,1,11.4c0.5,3.8,3.8,2.4,5.7,1.9c1.4-0.5,2.9-3.3,2.9-3.8
	C585.9,270.4,583.1,267.1,580.7,263.8z M256.6,472.4c-0.5-6.2-4.3-10.9-10.5-11.9C247.6,472.9,248,473.3,256.6,472.4z M137.8,472.4
	c-1.4-6.7-5.7-10-10.9-12.4C125.9,470,128.3,473.3,137.8,472.4z"/>
</svg>
