<?xml version="1.0" encoding="utf-8"?>
<!-- Generator: Adobe Illustrator 21.1.0, SVG Export Plug-In . SVG Version: 6.00 Build 0)  -->
<svg version="1.1" baseProfile="tiny" xmlns="http://www.w3.org/2000/svg" xmlns:xlink="http://www.w3.org/1999/xlink" x="0px"
	 y="0px" viewBox="0 0 640 480" overflow="scroll" xml:space="preserve">
<g id="Layer_3">
	<g>
		<path fill="#0E65AE" d="M405,266.6c-1.4,1.3-3.1,2.3-5.9,1.9c6.5-7,13-14,19.5-21.1c6.5-7.1,13.1-14.1,21-22.7
			c-146.1-2.3-290.2-4.6-434.2-7c-0.1-0.7-0.1-1.5-0.2-2.2c2.9,0,5.8,0,8.7,0c141.9,0,283.8,0,425.7,0.1c6.2,0,10.4-1.9,14.6-6.4
			c26.5-29,53.3-57.7,80-86.5c1.6-1.7,1-1.2,3.3-3.3c3.8-3.7-2.2,2.1,4.9-4.9c-8.6,32-18.3,68.1-27.1,100.8c36.6,0,72.3,0,107.9,0
			c0.1,0.4,0.3,0.8,0.4,1.2c-2.2,1.2-4.4,2.5-6.7,3.6c-37.2,18.6-74.6,36.9-111.8,55.5c-6.6,3.3-6.4,1.8-9.5,11.8
			c-5.2,20.4-10.8,40.7-16.4,61.1c-0.6,2.3-1.6,4.6-2.4,6.9c-0.7-0.2-1.3-0.4-2-0.6c4.9-22.9,9.9-45.9,14.8-68.8
			c0.1-0.6,0.1-1.2,0.2-1.9c-0.5,0.2-1,0.4-1.5,0.6c-32.7,16.1-65.4,32.2-98.1,48.4c-19.1,9.5-38.2,19-57.4,28.5
			c-2.3,1.2-4.7,2.1-7.9,1.8c2.4-1.4,4.7-2.8,7.1-4.1c51.4-27.7,102.8-55.4,154.3-82.9c4.6-2.5,7.4-5.3,8.4-10.7
			c2.4-13,5.5-25.8,8.7-40.6c-8.8,0-47.8,0.4-55.5-0.8 M575.7,228.4c-0.1-0.8-0.2-1.7-0.3-2.5c-19.8,0-39.6,0-59.4,0.1
			c-1.4,0-3.6,1-3.9,1.9c-3.7,13-7.1,26-11,40.7C527.1,254.5,551.4,241.5,575.7,228.4z M517.9,159.7c-0.4-0.3-0.8-0.6-1.2-0.9
			c-19.1,18.5-38.2,36.9-58.8,56.8c15.9,0,29.6,0.2,43.3-0.2c1.8,0,4.6-2.5,5.1-4.4C510.4,194,514.1,176.8,517.9,159.7z"/>
		<polygon fill="#0E65AE" points="552.9,142.7 553.2,142.1 552.8,142 		"/>
		<path fill="#FDFEFE" d="M646,151.5c0.5-0.2,1-0.4,1.5-0.6c-0.1,0.6-0.1,1.2-0.2,1.9C646.9,152.4,646.5,151.9,646,151.5z"/>
	</g>
</g>
<g id="Layer_2">
</g>
</svg>
