<?xml version="1.0" encoding="utf-8"?>
<!-- Generator: Adobe Illustrator 21.0.2, SVG Export Plug-In . SVG Version: 6.00 Build 0)  -->
<svg version="1.1" id="Layer_1" xmlns:svg="http://www.w3.org/2000/svg"
	 xmlns="http://www.w3.org/2000/svg" xmlns:xlink="http://www.w3.org/1999/xlink" x="0px" y="0px" viewBox="0 0 640 480"
	 style="enable-background:new 0 0 640 480;" xml:space="preserve">
<g>
	<polyline id="polyline3" points="348.2,290.2 430.9,290.2 430.9,280.1 362.4,280.1 362.4,247.7 413.8,247.7 413.8,237.5 
		362.4,237.5 362.4,207.8 430.9,207.8 430.9,197.7 348.2,197.7 348.2,290.2 	"/>
	<polyline id="polyline5" points="391.2,182.8 380,195.3 415.1,182.8 391.2,182.8 	"/>
	<polyline id="polyline7" points="569.7,280.1 569.7,197.7 556.7,197.7 556.7,290.2 640.3,290.2 640.3,280.1 569.7,280.1 	"/>
	<path id="path9" d="M484.4,197.7l-47,92.5h15.9l12-23.9h56.4l12.1,23.9h15.7l-47-92.5H484.4 M471.3,254.6l22.2-44.2l22.4,44.2
		H471.3z"/>
	<path id="path11" d="M303.4,251.5c21.2-5.7,23.2-21.4,23.1-27c-1.3-16.5-12.4-26.7-32.4-26.7h-58.3v92.5h13.3v-38.8H287l27.9,38.8
		h16.7C331.7,290.2,311.6,264.1,303.4,251.5 M292.3,240.4h-43.2v-31.8h44.7c10.3,0,16.1,4.8,18.2,10.9c1.4,4.2,0.5,9.7-1.8,13.4
		C306.4,239.1,299.3,240.4,292.3,240.4z"/>
	<path id="path13" d="M156,182c-37.5,0-63.1,26.4-63.1,58.4c0,33.7,28.2,57.5,63.1,57.5c34.8,0,63-23.4,63-57.5
		C219,208.5,193.1,182,156,182 M155.5,286.5c-25.9,0-47.3-20.8-47.3-46c0-25.1,20.4-46.9,48.3-46.9c27.3,0,47.3,21.8,47.3,46.9
		C203.9,265.6,181.5,286.5,155.5,286.5z"/>
	<polyline id="polyline15" points="59.5,230.4 69.1,230.4 86.5,197.7 72.5,197.7 59.5,230.4 	"/>
	<polyline id="polyline17" points="12.6,280.1 12.6,197.7 -0.3,197.7 -0.3,290.2 83.3,290.2 83.3,280.1 12.6,280.1 	"/>
</g>
</svg>
