<svg xmlns="http://www.w3.org/2000/svg" viewBox="0 0 640 478"><defs><style>.cls-1{fill:none;}.cls-2{fill:#084ebc;}</style></defs><title>Lisk</title><g id="Layer_2" data-name="Layer 2"><g id="Layer_8" data-name="Layer 8"><path class="cls-1" d="M0,0V478H640V0ZM232.33,475.5l-63.08-73,.23-.4h-.58L119.18,344.5l39.87-69.07,105-182L305,166.89,209,333.42l59.16,68.65h72L275.69,475.5Zm171.17,0H304l127.4-140.18L278,70.22,319.84.5l201,344.73Z"/><polygon class="cls-2" points="278.01 70.22 431.43 335.32 304.03 475.5 403.5 475.5 520.82 345.23 319.84 0.5 278.01 70.22"/><polygon class="cls-2" points="268.19 402.07 209.03 333.42 304.97 166.89 264.07 93.45 159.05 275.43 119.18 344.5 168.9 402.07 169.48 402.07 169.25 402.47 232.33 475.5 275.69 475.5 340.15 402.07 268.19 402.07"/></g></g></svg>