<?xml version="1.0" encoding="utf-8"?>
<!-- Generator: Adobe Illustrator 21.1.0, SVG Export Plug-In . SVG Version: 6.00 Build 0)  -->
<svg version="1.1" baseProfile="tiny" xmlns="http://www.w3.org/2000/svg" xmlns:xlink="http://www.w3.org/1999/xlink" x="0px"
	 y="0px" viewBox="0 0 640 480" overflow="scroll" xml:space="preserve">
<g id="Layer_3">
	<g id="g6737" transform="translate(-263.3037,348.46946)">
		<path id="path5423" fill="#EFAE00" d="M821.4-110.4c0,131.5-106,236.9-237.5,236.9C453,126.5,347,21.1,347-109.8
			c0-133.8,106-238.7,241-238.7C716-348.5,821.4-240.7,821.4-110.4z M371.3-110.4c0,117.6,95,212,212.6,212
			c117,0,212.6-93.8,212.6-211.4c0-119.9-93.8-213.7-214.3-213.7C466.9-323.6,371.3-227.4,371.3-110.4z M531.8-120.2l-2.9,5.8
			c-10.4-2.3-30.7-9.8-51.6-19.1l-2.9,5.2l8.7,4.6c30.1,15.6,40.5,19.1,57.3,19.1c35.3,0,62-19.7,74.7-55
			c21.4-4.6,49.2-6.4,82.8-6.4c28.4,0,52.7,1.2,84.6,5.2l-8.1,9.8c-14.5-1.7-41.7-3.5-60.8-3.5c-23.8,0-37.7,0-45.8,0.6l-3.5,8.7
			c19.1-1.2,26.1-1.2,41.1-1.2c26.1,0,46.3,1.2,63.1,2.3l-8.1,11c-30.1-1.2-43.4-1.7-66-1.7c-12.2,0-21.4,0.6-35.9,1.2l-4.1,8.7
			c12.7-1.2,30.7-1.7,48.7-1.7s38.8,0.6,51,1.2l-8.1,10.4c-8.7-0.6-24.9-0.6-37.7-0.6c-20.3,0-46.3,1.2-59.1,2.9l-4.1,7.5
			c24.3-2.3,39.4-3.5,66-3.5c10.4,0,16.8,0,29,1.2l-9.3,11c-16.2-1.2-21.4-1.2-27.8-1.2c-44.6,0-74.1,6.4-103.7,23.2
			c27.2,27.2,71.8,45.8,112.4,45.8c3.5,0,5.2,0,13.9-0.6L706.7-9.6C599.6-38,580.5-45.5,482-104c-38.8-22-70.7-37.1-96.2-44.6
			l3.5-12.2c5.8,1.2,19.1,4.6,31.3,9.3l5.8-13.3L531.8-120.2"/>
	</g>
</g>
<g id="Layer_2">
</g>
</svg>
