<?xml version="1.0" encoding="utf-8"?>
<!-- Generator: Adobe Illustrator 22.1.0, SVG Export Plug-In . SVG Version: 6.00 Build 0)  -->
<svg version="1.1" id="Layer_2_1_" xmlns="http://www.w3.org/2000/svg" xmlns:xlink="http://www.w3.org/1999/xlink" x="0px" y="0px"
	 viewBox="0 0 640 480" style="enable-background:new 0 0 640 480;" xml:space="preserve">
<style type="text/css">
	.st0{fill:#E22739;}
</style>
<path class="st0" d="M80.6,480h478.8V0H80.6V480z M230.2,80.3c0-36.4,53.7-36.4,53.7,0v186.5c0,25,36.1,26.5,36.1,0V80.3
	c0-36.4,53.1-36.7,53.7,0v188.5c0,43.1-32.2,71.7-71.7,71.7s-71.7-29.2-71.7-71.7V80.3z M193.9,80.3v260.6c0.1,9.3,7.4,17,16.8,17.3
	h247.5L394,207.3c-4.9-14.1-3.3-29.5,4.4-42.3l58.8-96.9c4.5-9,13.6-14.7,23.6-15c14.2-1.1,26.6,9.4,27.7,23.6
	c0,0.5,0.1,0.9,0.1,1.4c0,4.4-0.7,8.8-2.2,12.9l-53.8,87.1c-4.9,7.4-5.7,16.7-2.2,24.8L532,411.8H193.9
	c-29.6,0.2-53.6-23.7-53.8-53.2c0-0.1,0-0.1,0-0.2l-0.3-278C140.6,44.5,192.9,43.9,193.9,80.3z"/>
</svg>
