<?xml version="1.0" encoding="utf-8"?>
<!-- Generator: Adobe Illustrator 21.1.0, SVG Export Plug-In . SVG Version: 6.00 Build 0)  -->
<svg version="1.1" id="Layer_1" xmlns="http://www.w3.org/2000/svg" xmlns:xlink="http://www.w3.org/1999/xlink" x="0px" y="0px"
	 viewBox="0 0 640 480" style="enable-background:new 0 0 640 480;" xml:space="preserve">
<style type="text/css">
	.st0{fill:#97897F;}
</style>
<g>
	<path class="st0" d="M19.8,288.4c0-10.5,0-106.9,0-106.9c0-7.4-6.8-9.8-2.6-9.8h23.2c5.1,0-2.1,1.6-2.2,9.4
		c-0.1,5.7,0.1,107,0.1,107c0,11.5,0.1,12.7,19.7,13.8c8.4,0.5,31.5,1.6,51.3-22.5c6-7.4,4.2-2,4.2-2s-3.1,21.9-4.4,26.2
		c-1,3.2-1.9,2.5-4.8,2.6c-3,0.1-87.1,0-87.1,0c-4.6,0-2.2-1.3,1.2-6.3C20.1,297.3,19.8,288.5,19.8,288.4L19.8,288.4z M138.5,189.2
		c1.4,3.4,46.5,115.9,46.5,115.9c0.7,1.1,1.3,1.1,1.3,1.1h10.2c1,0,1.7-0.9,2-1.3c0,0,37.8-99.7,40.1-105.7
		c2.3-5.9,10.3-20,15.2-24.7c3.8-3.6-2.1-2.9-2.1-2.9h-25.9c-1.7,0-4.6-1.1-0.1,5.5c8.1,11.8,2.5,24.8,2.5,24.8l-31,85.7
		c0,0-37.2-96.9-38.5-100.2c-1.3-3.3-1.1-8.9,1-11.4c4.2-5,2.7-4.3-0.6-4.3h-30.2C122.8,171.7,133,174,138.5,189.2L138.5,189.2z
		 M313,191.6c0.2,14.1-9,85.7-12.1,95.6c-2.8,8.9-6.5,15.4-7.8,16.8c-1.5,1.7-1.6,2.2,0.5,2.2h19.3c3.8,0-0.2-3.7-0.2-3.7
		s-3.3-4.9-2.2-15.3c0.4-4,11.1-95.7,11.1-95.7s41.5,110.6,42.9,113.8c1.5,3.8,3.4,4.2,5.1,0.1c0.6-1.4,44.6-116.4,44.6-116.4
		s9.9,90.2,10.6,97.5s1.2,12.6,0.7,14.6c-1.2,4.3-4.6,5.1-1.2,5.1h25.6c3.6,0,2.9-0.6,1.4-2.9c-1.1-1.8-4.5-5-8.1-19.2
		c-3-11.8-9-94.1-9.4-99.4c-0.9-12.5,7.3-13.1,3.2-13.1h-23.9c0,0-3,0.3-4.1,4.4c-0.6,2-35.9,101.8-35.9,101.8l-38.6-106.2h-24.3
		C301.5,171.7,313.6,173.3,313,191.6L313,191.6z M623.5,173.6c1.5-1.5,1.5-1.9-1.9-1.9h-21.8c-4.9,0-2.4,1.9-2.4,1.9s3.4,4,3.5,9.8
		V234h-62.8c0,0,0-44.3,0-46.9c0.1-8.7,2.5-11.3,3.6-12.7c2.1-3,1.1-2.6-2.2-2.6h-20.7c-3.8,0-4.7,0.3-2,2.2c0,0,2.7,1.9,2.5,13.7
		c0,0,0.1,98.4,0,103.1c-0.2,8-0.7,11.7-2.5,13.9c-1.7,2.1,0.9,1.6,0.9,1.6h22.3c2,0,0.7-1.2,0.7-1.2s-2.4-0.5-2.6-14.3v-51.1H601
		c0,0,0.4,48.6,0.3,51.2c-0.1,8.3-0.1,11.7-2,13.5c-1.2,1.2-4,2,1.4,2h21.8c2.9,0,3.8,0,1.6-1.8c-1.3-1.1-3.3-3-3.3-13.6V184.4
		C620.8,175.7,623.5,173.6,623.5,173.6z"/>
</g>
</svg>
