<?xml version="1.0" encoding="utf-8"?>
<!-- Generator: Adobe Illustrator 22.1.0, SVG Export Plug-In . SVG Version: 6.00 Build 0)  -->
<svg version="1.1" id="Layer_1" xmlns="http://www.w3.org/2000/svg" xmlns:xlink="http://www.w3.org/1999/xlink" x="0px" y="0px"
	 viewBox="0 0 640 480" style="enable-background:new 0 0 640 480;" xml:space="preserve">
<style type="text/css">
	.st0{fill:#C5168D;}
</style>
<title>XEM</title>
<g>
	<g>
		<path class="st0" d="M494.5,170.7c0,32.1,0,63.6,0,95.5c-1.3,0-2.3,0.3-3.5,0.3c-13.4,0-26.8,0.3-40.2,0c-3.8,0-5.1,0.8-4.8,4.8
			c0.8,19.2-2.8,37.6-12.1,54.8c-14.6,26.5-37.9,39.4-67.7,40.9c-5.1,0.3-9.8-0.3-15.2-0.5c0-2,0-3.3,0-4.5c0-74-1-148.2,0.3-222.2
			c0.8-49.7,24.7-87.4,68.7-111.1c26.3-14.1,54.5-18.2,83.6-12.1c42.7,8.8,73.5,33.3,92.2,72.7c3.3,7.1,5.6,14.9,7.8,22.5
			c0.8,2.3,1.8,3.3,4.3,3.3c8.6-0.3,16.9,0,25.5,0c3,0,3.8,0.8,3.8,3.8c0,29.3,0,58.8,0,88.1c0,3-0.8,4-4,4
			c-7.3-0.3-14.4,0-21.7-0.3c-3,0-4.3,0.8-4.3,4c0.3,7.6,0,14.9,0,22.5c0,18.2,11.4,31.1,29,33.8c2.8,0.5,3.5,1.3,3.5,4
			c0,29.3,0,58.6,0,87.6c0,3-1,3.8-3.8,3.5c-53-3.3-90.7-29-113.4-77c-7.8-16.4-10.6-33.8-10.6-51.8c0-31.1,0-62.1,0-93.2
			c0-13.9-5.3-24.5-17.4-31.3c-19.4-10.9-45.7,2.5-47.5,24.5c-1,10.4-0.5,20.7-0.8,30.8c0,2.5,1.5,2.8,3.5,2.8c13.6,0,27,0,40.7,0
			C491.5,170.7,492.8,170.7,494.5,170.7z"/>
		<path class="st0" d="M143,369.9c7.1,2,13.6,4.3,20.5,5.8c13.9,3.3,28,4.8,42.2,2.3c12.6-2.3,24.2-7.1,32.1-18.2
			c2.3-3.5,3.8-7.6,5.6-11.4c-0.5-0.3-0.8-0.5-1.3-0.8c-3.8,2.3-7.3,4.8-11.4,6.8c-17.7,9.1-36.4,10.6-55.6,6.6
			c-18.2-3.8-34.1-11.6-45.5-26.8c-7.8-10.4-12.4-22.2-14.1-35.1c-1-6.8-1.5-13.9-1.5-20.7c0-53.3,0-106.3,0-159.6
			c0-1.3,0-2.5,0-4.3c1.5,0,2.8-0.3,4-0.3c29,0,58.1,0,87.4,0c3.5,0,4.5,1,4.5,4.5c0,45.2,0,90.4,0,135.6c0,7.1,3.8,12.6,9.8,14.6
			c6.6,2,13.4,0.3,17.2-5.3c1.8-3,2.8-6.8,2.8-10.4c0.3-33.1,0-65.9,0-99c0-11.6,0-23.2,0-34.8c0-5.1,0-5.1,4.8-5.1
			c29,0,57.8,0,86.9,0c3.3,0,4,0.8,4,4c0,73.5,0,147-0.3,220.7c0,29-7.6,56.3-25.3,80.1c-17.4,23.2-40.7,37.4-69.2,43.2
			c-18.4,3.8-37.1,4.8-55.8,2.5c-13.4-1.5-26.8-4.8-40.2-7.6c-1-0.3-2.3-2.3-2.3-3.5c-0.3-8.1,0-15.9,0-24c0-18.4,0-36.9,0-55.3
			C142.8,373,142.8,371.4,143,369.9z"/>
		<path class="st0" d="M129.6,359.1c-4.8,4.3-11.1,7.1-17.9,9.3c-20.7,6.6-41.2,6.6-61.1-2c-22.2-9.3-36.4-26.3-44.2-48.7
			c-4-11.9-6.1-24-6.1-36.4c0-84.3,0-168.4,0-252.8c0-7.8-1.3-7.1,6.8-7.1c28.5,0,57.1,0,85.9,0c1.3,0,2.5,0,4.3,0.3
			c0,3.5,0,7.1,0,10.4c0,82.8,0,165.9,0,248.7c0,20.7,3.8,40.7,15.7,58.1C117.5,345.9,123.8,352.3,129.6,359.1z"/>
	</g>
</g>
</svg>
