<?xml version="1.0" encoding="utf-8"?>
<!-- Generator: Adobe Illustrator 21.1.0, SVG Export Plug-In . SVG Version: 6.00 Build 0)  -->
<svg version="1.1" baseProfile="tiny" id="Layer_1" xmlns="http://www.w3.org/2000/svg" xmlns:xlink="http://www.w3.org/1999/xlink"
	 x="0px" y="0px" viewBox="0 0 640 480" overflow="scroll" xml:space="preserve">
<g>
	<path fill="#080808" d="M640,262.5c-0.4,1.1-0.8,2.1-1.2,3.2c-4.1,11.9-12.1,19.4-24.7,21.2c-12.5,1.8-22.3-3.1-29.5-13.2
		c-4.3-6.1-6.6-13.1-6.6-21c1.6-0.1,3.1-0.2,3.9-0.2c2.1,5.9,3.4,11.7,6.3,16.7c5.1,8.9,13.1,13.8,23.6,13
		c10.9-0.9,19.5-8.5,22.3-18.8c2.5-9.2,0.1-17.2-7.5-22.7c-5.3-3.8-11.4-6.4-17.3-9.5c-4-2-8.2-3.5-12-5.8
		c-9.8-6-13.5-17.4-9.6-28.4c3.8-10.6,14.6-17.4,25.6-16.1c12.9,1.5,23,11.8,23,23.9c-1.5,0-3.1,0-4.9,0c-0.5-6.1-3.6-10.8-8.3-14.5
		c-6.1-4.9-14.8-5.6-21.6-1.9c-6.7,3.7-10.3,11.2-9.7,19.1c0.5,6.9,3.9,11.7,9.8,14.6c5.4,2.7,11.1,4.8,16.6,7.4
		c6.8,3.1,13.1,6.9,17.3,13.2c1.9,2.8,3.1,6.1,4.6,9.2C640,255.3,640,258.9,640,262.5z"/>
	<path fill="#0C0C0C" d="M595.2,153c0.6,2.1,1.1,4.2,1.9,6.2c0.2,0.5,1.1,0.8,1.7,0.9c1.8,0.2,3.6,0.3,6.2,0.4
		c-2.4,1.8-4.2,3.1-6.1,4.6c0.7,2.3,1.4,4.5,2.1,6.7c-4.2-3.1-8.1-4.3-12,0.9c-0.1-0.2-0.3-0.5-0.4-0.7c0.6-2.1,1.3-4.3,2-6.7
		c-1.8-1.3-3.7-2.8-6.4-4.8c3.2,0,5.5,0,8,0c0.8-2.7,1.6-5,2.3-7.4C594.7,153,595,153,595.2,153z"/>
	<path fill="#E60202" d="M0.6,221.5c13.8,0,27.7,0,41.6,0c4.3-13.3,8.6-26.3,13.1-40.2c0.8,2.1,1.3,3.3,1.7,4.6
		c3.5,10.8,7.1,21.7,10.4,32.5c0.8,2.5,2,3.1,4.5,3.1c11.3-0.1,22.6-0.1,33.9,0c1.1,0,2.3,0,3.7,0.6c-2.2,1.8-4.3,3.6-6.5,5.3
		c-8,5.9-15.9,11.8-24,17.6c-1.9,1.4-2.2,2.6-1.4,4.8c3.7,11.1,7.3,22.3,10.9,33.4c0.3,1,0.5,2,1,3.6c-1.5-1-2.4-1.6-3.2-2.2
		c-8.6-6.2-17.1-12.4-25.7-18.6c-5.2-3.8-5.3-3.8-10.4-0.1c-8.7,6.2-17.3,12.5-25.9,18.7c-0.9,0.7-1.8,1.3-3.3,2.3
		c3.3-10.2,6.4-19.8,9.4-29.4c0.7-2.2,1.3-4.5,2.2-6.7c1.3-3,0.7-4.9-2.1-6.8c-9.4-6.5-18.5-13.3-27.7-20.1
		c-0.9-0.6-1.7-1.3-2.5-1.9C0.4,222,0.5,221.8,0.6,221.5z"/>
	<path fill="#050505" d="M137.9,286.7c-2.2,0-3.9,0-5.7,0c0-34.4,0-68.6,0-103c1.7,0,3.4,0,5.6,0c0,4.9,0,10,0,15
		c9.8-12.1,21.9-18.7,37.4-17.2c15.3,1.5,26.2,9.9,32.8,23.8c2.5-3.6,4.6-7.1,7.1-10.3c10.3-12.5,26.8-16.8,42.9-11.5
		c14.2,4.7,25.5,18.8,25.9,34.1c0.6,22.8,0.5,45.7,0.6,68.5c0,0.2-0.2,0.4-0.3,0.7c-1.6,0-3.3,0-5.5,0c0-1.2,0-2.3,0-3.4
		c0-20.9,0-41.8,0-62.8c0-19.2-15.7-34.5-34.9-33.9c-15.4,0.4-29.5,11.9-32.3,27.1c-0.9,4.8-0.4,9.8-0.4,14.7
		c-0.1,18.5-0.1,36.9-0.2,55.4c0,0.9,0,1.9,0,2.9c-1.9,0-3.4,0-5.4,0c0-7.1,0-14.1,0-21.1c-0.1-15.4-0.6-30.7-0.3-46.1
		c0.4-15.9-14.8-34.3-35.9-32.8c-15,1.1-28.1,12-31.2,26.8c-0.5,2.6-0.2,5.3-0.2,8C137.9,243.1,137.9,264.8,137.9,286.7z"/>
	<path fill="#090909" d="M389.1,208.6c0-8.6,0-16.6,0-24.8c2.1,0,3.9,0,5.8,0c0,34.3,0,68.5,0,102.8c-1.9,0-3.6,0-5.8,0
		c0-9.1,0-18.1,0-27.1c-11.1,16.9-26.1,26.6-46.3,27.1c-14.5,0.3-27.2-4.7-37.6-14.9c-21.7-21.1-21.1-55.6,0.9-76.9
		C325.9,175.7,368.3,173.1,389.1,208.6z M341.9,280.9c26,0,47.3-21.2,47.3-47.1c0-26-21.3-47.2-47.2-47.2
		c-26.1,0.1-47.2,21.3-47.2,47.6C294.9,259.6,316.3,280.8,341.9,280.9z"/>
	<path fill="#070707" d="M499.7,212.4c-5.2,1.5-5.2,1.4-7.9-2.9c-11.2-17.2-27.2-25.3-47.4-22.4c-19.1,2.8-32,14.3-38.1,32.7
		c-10.3,31.3,16.6,64.3,49.3,60.8c16.6-1.8,28.9-10.1,37.1-24.5c1.9-3.4,4.7-1.2,7-2c-3.9,17.3-29.4,33.3-50.2,32.5
		c-27-1-48.5-22.2-50.9-47.7c-2.4-26.3,14.1-50,39.2-56.4C463.2,176.1,489.2,188.6,499.7,212.4z"/>
	<path fill="#070707" d="M521.3,322.9c3.7-9,6.7-18,10.8-26.5c3.6-7.4,3.5-13.8,0.2-21.5c-12.4-29.4-23.9-59.1-35.8-88.8
		c-0.3-0.7-0.5-1.4-0.7-2.1c5.6-1,5.6-1,7.7,4.2c11.3,28.2,22.7,56.4,34,84.7c0.5,1.3,1.1,2.5,2,4.4c1-2.2,1.7-3.9,2.4-5.6
		c11.3-27.9,22.6-55.8,34-83.7c2-5,2.1-5,8.1-4.1c-1,2.5-1.9,5-2.9,7.4c-17.3,42.5-34.5,84.9-51.8,127.4
		C527.3,323.7,527.2,323.7,521.3,322.9z"/>
</g>
</svg>
