<?xml version="1.0" encoding="utf-8"?>
<!-- Generator: Adobe Illustrator 18.1.1, SVG Export Plug-In . SVG Version: 6.00 Build 0)  -->
<svg version="1.1" id="Layer_1" xmlns="http://www.w3.org/2000/svg" xmlns:xlink="http://www.w3.org/1999/xlink" x="0px" y="0px"
	 viewBox="0 0 640 480" enable-background="new 0 0 640 480" xml:space="preserve">
<g>
	<path fill-rule="evenodd" clip-rule="evenodd" fill="#FFF100" d="M156.8,26.3v339.5l162.4,104.4l162.4-104.4l0.2-339
		c-5.1-4.6-16-14.7-24.5-19.9H180.3C173.2,11.9,159.2,23.7,156.8,26.3L156.8,26.3z"/>
	<polygon fill="#231F20" points="159.8,26.3 159.8,364.2 319.1,466.6 478.4,364.2 478.6,26.8 484.8,26.8 484.6,365.8 484.6,367.5 
		483.2,368.4 320.8,472.8 319.1,473.9 317.5,472.8 155.1,368.4 153.7,367.5 153.7,26.3 159.8,26.3 	"/>
	<path fill="#231F20" d="M479.7,29.1c-1.5-1.3-0.4-0.3-1.9-1.7h0c-5.5-5-14.8-13.4-22.1-17.8l3.2-5.2c7.9,4.8,17.4,13.4,23,18.5h0
		c0.2,0.1-0.7-0.6,1.9,1.7L479.7,29.1L479.7,29.1z"/>
	<polygon fill="#231F20" points="457.2,10 180.3,10 180.3,3.9 457.2,3.9 457.2,10 	"/>
	<path fill="#231F20" d="M182.1,9.5c-3.3,2.3-8,6-12.3,9.5c-5,4.1-9.5,8.1-10.8,9.4l-4.5-4.2c1.4-1.5,6.1-5.7,11.4-10
		c4.6-3.7,9.4-7.6,12.6-9.8L182.1,9.5L182.1,9.5z"/>
	<path fill-rule="evenodd" clip-rule="evenodd" fill="#E12E22" d="M330.6,171.5c-1.1-0.5-5.2,2.8-7,5.7c-1.8,2.9-2.4,6.7,0.2,8.1
		c2.6,1.4,5.9-0.4,6.7-5C331,177.6,331.8,172.1,330.6,171.5L330.6,171.5z M299.5,180.3c0.7,4.6,4.1,6.4,6.7,5
		c2.6-1.4,2.1-5.1,0.2-8.1c-1.8-2.9-5.7-6.2-6.8-5.7C298.4,172.1,299.1,177.7,299.5,180.3L299.5,180.3z M315.8,225.5
		c5.5-9,7.7-18.3,7.7-18.3h-15.6C307.9,207.2,310.4,216.7,315.8,225.5L315.8,225.5z M318.5,158.2l12.6-21.9l9.8,21.9h16.3
		c-9.8,9.2-13.8,23.2-13.8,32.4v10.1c0,4.3-2.2,11.4-2.2,11.4s14.1,10.8,16.3,12.6c0.9,0.8,1.9,1.2,1.2,3.1
		c-1.1,3.2-10.7,7.4-11.7,8.3c-2.2,1.8-2.7,3.1-2.1,4.9c0.6,1.8,2.4,2.2,6.1,0.9c3.7-1.2,11.4-5.2,17.8-8c6.5-2.8,15.1-2.2,15.1-2.2
		v-12.3h-24.3v-39.4l-4.3-6.9l10.8-19.1l10.8,19.2l-4.3,6.8v20.6h12.5v-20.6l-4.3-6.8l10.8-19.1l10.8,19.1l-4.3,6.8v20.6h12.5v-20.6
		l-4.3-6.8l10.8-19.1l10.8,19.1l-4.3,6.8l0.1,39.3l-24.4,0v18.1c5.5,5.2,10.8,17,10.8,24.1c0,7.1-4.6,10.2-4.6,10.2
		c1.5,5.5,1.2,7.8,0.6,12.9c-0.6,5.2-7.1,13.2-7.1,13.2v93.8c0,6.4-14.8,5.8-14.8,0.3v-91.9c-8.3-9.2-31.1-16.3-31.1-16.3
		c-8.3,8.3-13.5,22.8-13.5,22.8c3.7,2.5,9.2,0,11.4-2.5c2.2-2.5,6.5-3.1,8.9-1.5c2.5,1.5,3.1,2.2,2.2,5.8c-0.9,3.7-2.5,9.8-2.5,14.1
		c0,4.3,4.9,3.4,8.6,3.7c7.4,0.6,8.6,8.9,8,13.5c-0.6,4.6-2.8,14.5-2.8,20.6c0,6.1,0.3,12.3,0.9,15.7c0.6,3.4,1.8,7.1,1.5,11.4
		c-0.4,5.8-4,6.8-7.7,3.1c-3.7-3.7-55-58.4-55-58.4c-3.4,11.1,10.8,30.1,15.4,36c4.6,5.8,4.3,10.2,0.3,14.1c-4,4-11.7,6.2-13.2,9.8
		c-1.5,3.7,3.7,14.8,14.5,28.6c10.8,13.8-12.3,23.1-26.1,25.8c-13.8,2.8-13.8-6.8-12.9-12c0.9-5.2,0.9-8.3,0.6-12.9
		c-0.3-4.6-4.6-11.1-10.5-18.8c-5.8-7.7-5.8-14.8-3.4-32.6c2.5-17.8,1.8-29.2,1.8-29.2s-6.2,0.3-15.1,0c-8.9-0.3-16.3-5.5-16.9-27
		c-0.6-21.5-1.1-72.9-2.6-78.2c-1.4-5.3-7.2-6.4-9.6-7c-2.5-0.6-2.6-4.3-0.2-5.5c6.4-3.2,14.1-11.1,11.2-16
		c-2.9-4.9-14.1-3.9-21.7-0.2c-7.6,3.7-15.6,11.7-17.6,13.9c-2.1,2.3-3.7,2.3-3.5-0.2c0.2-2.5-1.4-14.1-2.5-18.2
		c-1-4.1-4.7-11.9-5.9-13.9c-1.2-2.1,0-2.9,2-2.1c2.1,0.8,6.6,2.7,10.9,3.9c4.3,1.2,8.4-0.8,10.5-4.9c2.1-4.1,5.9-12.9,8-16.8
		c2.1-3.9,5.3-3.1,8-2.5c2.7,0.6,5.1,2.3,7.6,3.3c2.5,1,4.5,0.8,5.3-0.4c0.8-1.2,1.8-1.6,3.3-4.7c1.4-3.1,3.3-1.6,3.5-0.4
		c7.4,44.1,26.4,46.1,26.4,46.1c-2.9,7.4-9.6,19.1-11.3,21.9c-1.6,2.9-2.3,6.8-2.7,9.8c-0.4,3.1,1,32.2,3.1,42.8
		c2.1,10.7,8.6,6.6,10.7,3.3c2-3.3,8.4-16.8,8.4-16.8s1.6-3.7,1.6-6.8c0-3.1-5.3-9.8-6.6-11.9c-1.2-2-5.7-6.1-5.7-16.4
		c0-10.2,9.2-17.4,12.5-20.1c3.3-2.7,3.3-6.3,2.9-8.6c-1.4-7.9-9.8-24.6-13.9-31c-4.1-6.3-12.1-18.4-12.1-18.4h16.6l10.7-22.1
		l11.7,22.2L318.5,158.2L318.5,158.2z M384,269.9v-12.6c0,0-3.4-5.2-11.7-5.2c-8.3,0-13.2,2.5-13.2,4.6
		C359.1,260.1,366.5,269.9,384,269.9L384,269.9z"/>
	<polygon fill-rule="evenodd" clip-rule="evenodd" fill="#E12E22" points="169.5,111 469,111 469,131.4 169.5,131.4 169.5,111 	"/>
	<polygon fill-rule="evenodd" clip-rule="evenodd" fill="#E12E22" points="169.5,100.5 169.5,19.1 469,19.1 469,100.5 169.5,100.5 	
		"/>
	<polygon fill-rule="evenodd" clip-rule="evenodd" fill="#FFF100" points="410.1,102.9 410.1,89 388.3,89 388.3,80.1 406.1,80.1 
		406.1,40.7 389.8,40.7 384.2,30 378.7,40.7 362.4,40.7 362.4,80.1 380.2,80.1 380.2,89 337.5,89 337.5,80.1 355.3,80.1 355.3,40.7 
		339,40.7 333.5,30 327.9,40.7 311.6,40.7 311.6,80.1 329.4,80.1 329.4,89 285.9,89 285.9,80.1 303.7,80.1 303.7,40.7 287.4,40.7 
		281.8,30 276.3,40.7 260,40.7 260,80.1 277.8,80.1 277.8,89 243.4,89.1 209.2,81.1 216.1,102.9 410.1,102.9 	"/>
	<polygon fill-rule="evenodd" clip-rule="evenodd" fill="#FFF100" points="221,79.4 243.9,85 256.3,50.4 256.3,41.7 221,79.4 	"/>
</g>
</svg>
