<?xml version="1.0" encoding="utf-8"?>
<!-- Generator: Adobe Illustrator 21.0.2, SVG Export Plug-In . SVG Version: 6.00 Build 0)  -->
<svg version="1.1" id="Layer_1" xmlns="http://www.w3.org/2000/svg" xmlns:xlink="http://www.w3.org/1999/xlink" x="0px" y="0px"
	 viewBox="0 0 640 480" style="enable-background:new 0 0 640 480;" xml:space="preserve">
<style type="text/css">
	.st0{fill:#036555;}
</style>
<g>
	<path class="st0" d="M195.6,194.7l6.6,15.9l6.6,16.2c4.6-1,8.3-1,10.6-1c3,0,5.6,0,9.9,1c-17.8-34.4-35-77.3-47.2-107.7h-2
		c-7.9,19.2-22.5,51.9-26.4,61.1c-4.6,11.2-14.9,33.4-21.5,46.6c2.1-0.7,4.4-1,6.6-1c2,0,3.6,0.3,5.9,1c3.3-8.9,7.9-20.2,12.9-32
		c6.6-0.3,12.6-0.7,18.5-0.7C182.4,194.1,189,194.4,195.6,194.7z M177.1,148.1l15.2,38.3c-6.9,0.3-10.6,0.3-15.2,0.3
		c-5.6,0-8.9,0-16.2-0.3L177.1,148.1z"/>
	<polygon class="st0" points="231.9,359.6 231.9,359.6 231.9,359.6 	"/>
	<polygon class="st0" points="118.3,226.8 118.3,226.8 118.3,226.8 	"/>
	<path class="st0" d="M36.7,296.5c-13.5-5.6-20.5-10.6-20.5-21.1c0-9.9,7.6-16.2,20.2-16.2c8.3,0,15.5,3,22.1,8.3
		c0.7-3.6,2.3-7.3,4.3-10.2c-7.9-3.6-16.5-5-25.8-5c-27.1,0-35.7,15.5-35.7,28.8c0,16.2,7.9,23.8,28.4,31.7
		c12.9,4.9,19.5,11.2,19.5,22.1c0,11.6-8.6,18.8-20.5,18.8c-6.9,0-18.8-3.6-27.1-11.2c-0.3,4.3-0.3,8.3-1.7,11.9
		c5.3,2.6,17.5,6.6,28.4,6.6c27.7,0,38-17.2,38-32.7C66.4,311.7,55.5,304.4,36.7,296.5z"/>
	<path class="st0" d="M231.9,350.4c-13.2,0.3-37,1-42,1v-45.6c12.9,0,25.8,0,38.7,1.3c-0.3-1.6-0.7-3.3-0.7-4.6c0-1.3,0-3,0.7-4.9
		c-9.3,1-30.4,1.3-38.7,1.3v-37.3c14.2,0,22.8,0,28.1,0.3l12.9,0.7c-0.3-2-0.3-3-0.3-4.6s0-2.3,0.3-4.6c-10.9,0.3-25.8,1-32.4,1
		c-4.6,0-19.2-0.3-26.8-1c0.7,8.3,1,21.8,1,31.4v43.3c0,6.3-0.7,18.8-1,31.7c9.6-0.7,22.1-0.7,26.8-0.7c7.6,0,24.1,0,33.4,0.7
		c-0.3-1.6-0.7-3-0.7-5C231.3,353.3,231.6,351.7,231.9,350.4z"/>
	<polygon class="st0" points="229.3,226.8 229.3,226.8 229.3,226.8 	"/>
	<path class="st0" d="M122.2,253.2c-8.3,0-17.2,1-23.5,1c-2.3,0-7.3,0-12.6-0.7c0.3,10.6,1,19.5,1,29.7v45.3c0,9.9-0.7,20.8-1,31.1
		c4.3-0.7,7.3-0.7,9.3-0.7c2.3,0,5.6,0,9.6,0.7c-0.7-9.9-1-19.8-1-29.7v-16.5c3.6,0.3,7.3,0.3,11.2,0.3c19.2,0,40.6-7.3,40.6-32.7
		l0,0C156,261.8,140.8,253.2,122.2,253.2z M114.3,307.1c-3,0-6.3,0-10.2-0.7v-45.3c4.6-0.7,8.6-1,12.6-1c13.9,0,21.1,8.9,21.1,21.8
		h0C137.8,297.2,128.9,307.1,114.3,307.1z"/>
	<path class="st0" d="M14.9,226.8c1.3-23.8,4-47.2,6.9-72c12.9,18.8,24.1,35,36.7,52.2C69,190.4,80,172.6,91.8,154.4
		c3.3,25.4,6.3,48.6,7.9,72.4c4.3-1,7.3-1,9.3-1c2.6,0,5.3,0,9.2,1c-5.3-36-9.9-73.7-13.5-107.7c-1,0.3-1.3,0.3-2,0
		c-6.9,12.2-14.9,25.4-20.8,34.7c-5.6,8.9-12.2,19.5-19.8,30.7c-15.9-20.5-32.4-46.3-43.3-65.4c-0.7,0.3-1,0-1.7,0
		c-3.6,34-8.6,72-13.5,107.7c2.6-1,4.3-1,5.6-1C11.2,225.8,12.5,226.1,14.9,226.8z"/>
	<path class="st0" d="M595.1,307.4c14.5-2.3,27.8-12.2,27.8-29.1c0-14.9-11.6-25.1-28.7-25.1c-12.2,0-21.5,1-26.1,1
		c-5,0-9.3,0-14.2-0.7c0.7,19.2,1,20.2,1,31.7v42.3c0,8.3-0.3,16.8-1,32c3.6-0.7,7.3-0.7,9.6-0.7c3,0,6.6,0,9.2,0.7
		c-0.7-10.2-1-27.8-1-32v-24.1c15.9,19.8,36.3,44.9,44.3,56.2c4-0.7,7.3-0.7,11.2-0.7c3,0,7.9,0,12.9,0.7
		c-14.5-15.5-27.8-29.7-40.6-46.6L595.1,307.4z M571.6,302.8v-41.3c4-1,8.9-1.3,11.9-1.3c12.9,0,20.8,7.6,20.8,20.8h0
		c0,10.6-5.3,22.1-20.5,22.1C579.5,303.1,575.6,303.1,571.6,302.8z"/>
	<path class="st0" d="M244.2,226.8c3.6-1,7.3-1,9.9-1c2.6,0,6.3,0.3,9.3,1c-0.7-10.6-1-28.1-1-32v-24.4c15.5,20.2,36,44.9,43.9,56.5
		c4-1,7.3-1,11.2-1c3.3,0,7.9,0,12.9,1c-14.2-15.5-27.8-30.1-40.6-46.9l-4.3-5.6c14.9-2.3,27.8-12.2,27.8-28.7
		c0-15.2-11.6-25.1-28.7-25.1c-12.2,0-21.1,0.7-25.8,0.7c-5.3,0-9.6,0-14.5-0.3c0.7,18.8,1,20.2,1,31.7v42.3
		C245.2,203,244.8,211.2,244.2,226.8z M262.3,128.6c4-1,8.9-1.7,11.6-1.7c13.2,0,21.2,7.6,21.2,21.2c0,10.2-5.6,22.1-20.8,22.1
		c-4,0-7.9,0-11.9-0.3V128.6z"/>
	<path class="st0" d="M595.4,214.9l9.9,11.9c3-0.3,6.3-1,9.6-1c4.6,0,9.9,0.7,15.2,1.6l0,0c-5.6-5.9-14.2-15.5-22.5-24.8
		c6.9-7.6,14.2-18.8,18.5-28.4c-2.6-1.3-6.3-4-8.9-6.3c-1,8.3-6.6,19.2-14.5,28.7c-11.2-13.2-14.2-16.8-24.5-30.7
		c13.9-8.9,20.5-19.2,20.5-27.4c0-9.6-6.6-19.5-22.8-19.5c-17.5,0-26.1,10.9-26.1,23.8c0,7.6,2,14.2,10.2,25.1
		c-13.2,7.3-26.1,17.8-26.1,34.7c0,16.5,13.2,25.1,29.4,25.1C578.2,227.8,587.8,221.8,595.4,214.9z M576.2,126
		c9.9,0,11.6,8.9,11.6,11.9c0,9.9-6.9,16.8-13.9,22.5c-4.6-6.6-10.2-15.5-10.2-22.5C563.7,130.3,569,126,576.2,126z M550.5,196.4
		c0-13.2,8.6-19.2,13.9-22.5c12.2,16.8,12.9,17.8,26.8,34.7c-3.6,3.3-12.2,9.6-19.5,9.6C562,218.2,550.5,211.2,550.5,196.4z"/>
	<polygon class="st0" points="640,359.6 640,359.6 640,359.6 	"/>
	<path class="st0" d="M490,351.3v-45.6c13.2,0,26.1,0,39,1.3c-0.3-1.6-0.7-3.3-0.7-4.6c0-1.3,0-3,0.7-4.9c-9.2,1-30.7,1.3-39,1.3
		v-37.3c14.5,0,23.1,0,28.1,0.3l13.2,0.7c-0.7-2-0.7-3-0.7-4.6s0-2,0.7-4.6c-10.9,0.3-25.8,1-32.4,1c-4.6,0-19.2-0.3-26.8-1
		c0.7,8.3,1,21.8,1,31.4v43.3c0,6.3-0.7,18.8-1,31.7c9.3-0.7,22.1-0.7,26.8-0.7c7.6,0,23.8,0,33.4,0.7h0c-0.3-1.6-0.7-3-0.7-5
		c0-1.3,0.3-3,0.7-4.3C519.1,350.7,495.3,351.3,490,351.3z"/>
	<path class="st0" d="M501.6,195.1L501.6,195.1c0-16.5-10.9-23.8-29.7-31.7c-13.6-5.6-20.5-10.2-20.5-21.1c0-9.6,7.6-16.2,20.2-16.2
		c8.3,0,15.5,3,22.1,8.3c0.7-3.6,2.3-7.3,4-9.9c-7.6-3.6-16.5-5.3-25.4-5.3c-26.4,0-36,15.5-36,29.1c0,15.9,8.3,23.5,28.8,31.4
		c12.9,5,19.5,11.2,19.5,22.5s-8.6,18.5-20.5,18.5c-7.3,0-18.8-3.6-27.1-10.9c-0.3,4.3-0.7,7.9-1.6,11.6c5,2.6,17.2,6.6,28.4,6.6
		C491.3,227.8,501.6,210.9,501.6,195.1z"/>
	<path class="st0" d="M362.1,194.7v-22.1c12.2,14.5,31.1,38.3,41.6,54.2c3.8-0.6,7.7-1,11.6-1c3,0,7.6,0,12.6,1
		c-11.9-12.6-32.7-38.7-41-48.6l-8.3-10.2c8.6-10.2,14.5-16.5,20.8-24.1c7.3-7.9,13.9-16.2,21.8-23.5c-3.6,0.7-5.6,0.7-7.6,0.7
		c-2,0-4,0-5.9-0.7c-2.3,3.6-5.9,8.3-9.9,12.9c-4,4.3-7.9,8.6-10.9,12.2c-8.3,9.6-12.9,14.2-24.8,25.4v-18.2c0-10.6,0-17.5,0.7-32.4
		c-3.3,0.7-6.9,0.7-9.3,0.7c-2.6,0-6.9,0-9.6-0.7c0.7,15.9,1,20.5,1,32v42.3c0,10.6-0.3,16.8-1,32c4-1,7.3-1,9.6-1
		c2.3,0,6.3,0.3,9.3,1C362.1,209.9,362.1,200,362.1,194.7z"/>
	<path class="st0" d="M331.7,253.2c1,13.2,1.3,26.4,1.3,39.3v34c-5.3-4.6-18.2-16.5-33-30.4c-15.1-14.1-29.8-28.8-43.9-43.9h-2.3
		c0.3,14.9,0.7,30.7,0.7,44.9V318c0,17.8,0,27.4-1,41.6c2.6-0.7,4-0.7,6-0.7c1.3,0,2.6,0,5,0.7c-0.7-13.5-1-35.7-1-41.6v-33
		c24.8,22.8,55.2,53.2,77.6,76h1.3c0-12.2-0.7-24.5-0.7-36.7v-18.8c0-22.1,0-33,1-52.2h0c-2,0.7-3.6,1-5.3,1
		C335.4,254.2,333.7,253.9,331.7,253.2z"/>
	<path class="st0" d="M415.7,353.3c-23.5,0-36-21.1-36-47.6c0-29.4,14.2-46.6,38.3-46.6c12.6,0,24.5,5.6,30.1,11.2
		c0.3-2.6,1.3-7.9,3-10.9c-11.6-5.6-22.1-7.3-33.7-7.3c-38.7,0-56.5,24.1-56.5,55.2c0,35,23.5,53.5,52.9,53.5
		c16.9,0,30.7-5.3,38.7-10.2l0,0c-1.6-3.3-2.6-8.3-3.3-10.9C435.5,351,426.2,353.3,415.7,353.3z"/>
</g>
</svg>
