<?xml version="1.0" encoding="utf-8"?>
<!-- Generator: Adobe Illustrator 21.1.0, SVG Export Plug-In . SVG Version: 6.00 Build 0)  -->
<svg version="1.1" id="Layer_1" xmlns="http://www.w3.org/2000/svg" xmlns:xlink="http://www.w3.org/1999/xlink" x="0px" y="0px"
	 viewBox="0 0 640 480" style="enable-background:new 0 0 640 480;" xml:space="preserve">
<g>
	<path d="M325.7,62.4c-5.1,2.7-26.1,18-46.3,34.3c-20.5,16.1-42.4,31.9-49.2,35.1c-10,4.6-27.8,7.8-98.6,16.8
		c-99.4,12.7-97.4,12.4-97.4,17c0,2.2,5.4,14.6,12.2,28c14.4,28.7,15.6,29.5,44.6,23.1c104-22.2,149.8-33.4,160.7-39.2
		c6.8-3.4,31.7-23.1,55.3-43.6c23.4-20.2,45-38.2,48-39.7c7.1-3.9,16.1-3.7,26.5,0.7c8,3.2,7.3,2.4-9-15.8
		c-9.7-10.5-19-19.7-20.9-20.5C344.7,56.1,334.9,57.5,325.7,62.4z"/>
	<path d="M515.1,98.9c-69.9,9.5-100.3,11.4-112.5,7.1c-10.2-3.7,16.8,20.5,30.4,27.3c12.4,5.8,3.2,7.3,102.8-16.6
		c63.1-15.1,68.2-16.8,68.2-23.1C604,87.3,597.4,87.7,515.1,98.9z"/>
	<path d="M321.5,225.8c-151.9,19.7-278.8,36.5-282,37.3c-2.9,0.7-5.4,2.9-5.4,5.1c0,2.2,5.6,14.6,12.4,28
		c9.7,19,13.6,24.4,18.5,25.6c6.1,1.7,163.9-32.6,379.4-82.1c125.6-29,152.4-36,158-41.2c4.4-4.4,4.4-4.4,0-6.6
		C599.4,190.3,511.7,201,321.5,225.8z"/>
	<path d="M501.7,304.9c-44.8,5.8-167.3,22.2-272.2,35.8c-113.2,14.9-191.9,26.3-193.6,28c-2.2,2.2,0,8.5,10,28.2l12.9,25.6h14.9
		c13.9,0,132-25.3,351.4-75.5c159-36.3,182.9-42.9,180.7-49.4C604,292.3,584.5,293.7,501.7,304.9z"/>
</g>
</svg>
