<?xml version="1.0" encoding="utf-8"?>
<!-- Generator: Adobe Illustrator 21.0.2, SVG Export Plug-In . SVG Version: 6.00 Build 0)  -->
<svg version="1.1" id="Layer_1" xmlns="http://www.w3.org/2000/svg" xmlns:xlink="http://www.w3.org/1999/xlink" x="0px" y="0px"
	 viewBox="0 0 640 480" style="enable-background:new 0 0 640 480;" xml:space="preserve">
<style type="text/css">
	.st0{fill:#FFFFFF;}
	.st1{fill:none;}
</style>
<path class="st0" d="M2154-742h2500v2500H2154V-742z"/>
<g>
	<path class="st1" d="M257.9,229.2c0.5-1.1-0.9-1.8-4.9-1.6c-2.7,0.2-10.6,0.7-11.5,0.7c-2.2,0-4.7-0.2-4.3-2.5
		c0.5-2,3.1-2.5,5.2-2.5c6.3,0,12.4,0,18.7-0.9c2-0.5,4-1.3,5.2-3.4c1.1-2-0.7-2.9-3.8-2.7c-4.7,0.2-20.5,0.7-24.1-1.3
		c-0.9-0.7-1.3-1.8-0.9-2.9c0.4-1.3,2.5-1.3,4.3-1.1c6.1,0.5,11.7,0.7,17.8,0.5c3.8-0.2,10.1-1.3,12.6-4.5c1.3-1.6,1.3-3.8-2.2-3.8
		c-5.2-0.2-11.5,0.9-16.9,0.9c-3.6,0-14.6,0.5-14.4-2.2c0-2.2,3.1-3.6,4.9-3.8c5.2,0,13,0.5,18.2,0c13.5-0.2,20.2-13,5.4-9.7
		c-7.2,1.6-12.8,1.6-20.2,1.6c-1.6,0-3.1-0.2-2.7-2c0.5-3.6,14.2-2.7,17.8-10.3c1.3-2.9,2-6.5,0.9-8.8c-0.9-2-3.4-4.1-5.2-2
		c-11.2,12.6-20,12.4-24.7,14.2c-16.2,6.1-21.4,16.9-21.8,28.3c0,4.9,4.3,21.6,19.6,24.3c6.1,0.9,12.6,0.4,18.7-0.5
		C253.9,232.3,257.7,231.2,257.9,229.2z"/>
	<path class="st1" d="M192.3,165.1c11.7-6.1,29-7.9,43,2.7c-4.5-15.1-16.9-26.1-36.7-26.1c-17.1-0.2-33.3,9.7-38.5,25v0
		c-3.8,11.2,0,27.2,10.3,34C169.8,186,178.6,171.8,192.3,165.1z"/>
	<path class="st1" d="M313.9,271.2c0.5-16,10.6-24.3,13.5-25.9v-0.5h-0.2c-27.9,3.1-50.4-0.7-68.4-8.3c-3.4,2.5-7.4,3.1-15.3,4.3h0
		c2.3,15.5,40.7,30.6,70.4,30.6V271.2z"/>
	<path class="st1" d="M205.1,196.8c4-12.8,20.2-21.6,28.8-22.7c-19.1-12.8-44.1-6.5-52.8,11.9c-4.3,9-5.6,20.9-1.3,29.9
		c6.3,13,22,17.1,35.3,16.9C210.3,229.4,200.4,220.2,205.1,196.8z"/>
	<path class="st1" d="M268.7,313.5v0.2c-0.5,10.8,5.6,17.1,11.2,20.7l0,0c7.4,5.2,19.3,6.1,29,4.7v-0.5c0.2-1.6,0.7-3.1,2.2-5.6
		v-0.7c0-1.6-0.9-1.6-0.9-3.1V329C300,329.7,279.8,327.4,268.7,313.5z"/>
	<path class="st1" d="M169.1,144.8c12.6-10.6,30.1-9.4,33.3-9.4c13,0.5,35.3,8.5,39.1,32.8v0.2c13.5-19.8-1.4-55.3-32.8-55.3h-2.2
		c-27,0-38.9,22.5-37.3,31.9V144.8z"/>
	<path class="st1" d="M309,293.5c0.9-6.7,3.6-10.6,4.5-12.6c0.2-2-0.2-2.5-0.5-2.5h-0.2c-31-0.5-52.4-12.1-58.7-17.5h-0.2
		c0,0.2,0,0.5,0,0.7C267.6,297.5,309,293.7,309,293.5z"/>
	<path class="st1" d="M307,360.5c-0.2,0.2-1.3-6.5,0.5-14.6c-2.7,0.7-25.2,4.3-38.7-12.4c-1.6,4.3-2.7,18.4,16.4,25.4
		C296.6,362.9,302.2,360.9,307,360.5z"/>
	<path class="st1" d="M311.7,322.2c0.4-3.1,2.2-5.2,2.2-5.2v-3.8c-4.1-3.1-4.7-8.1-5.2-11.9c-21.4,1.6-42.3-7.6-47.9-17.1v1.1
		C261.5,309.9,291,322.9,311.7,322.2z"/>
	<path class="st1" d="M330.4,86.1c5.4,0.5,8.1-4.9,11.7-7.2c-5.2-1.8-16.9-2.2-21.6,0C320.9,79.8,325.6,85.7,330.4,86.1z"/>
	<path class="st1" d="M345.4,44.3c3.6,0.2,5.8,7.6,5.6,10.6v1.6c0.4-1.6,0.9-1.6,1.1-5.8c0.4-4.7-2.3-12.6-6.1-12.8
		c-4-0.5-7.6,5.2-7.9,11.7c-0.4,2,0,4,0.2,6.1v-1.3C338.9,51.3,342,44.1,345.4,44.3z"/>
	<path class="st1" d="M417.2,122.8c15.1,12.6,10.6,36.9,4.5,44.8c14.6-11.2,22-27.4,20.7-45.9c0-22.7-17.3-40.9-40-42.7
		c-3.6-0.2-7,0-10.3,1.6C414.7,87.3,421.4,107.7,417.2,122.8z"/>
	<path class="st1" d="M280.2,201.7c12.6,1.8,31.9,3.1,51.5,0.9c37.3-4.7,77.8-19.3,87.9-45.6c3.8-9.7,0.5-20.9-5.6-29.5
		c-9.4,17.5-46.3,30.1-64.1,34.2c-16.6,3.8-34.6,5.6-50.6,4.9c-9.4-0.7-21.6-2.5-29.9-4c0,0,2,4.1,1.8,8.5c0,4.3-0.4,8.3-3.8,11.5
		c1.3,0,3.4-0.7,4.7-0.9c3.8-0.7,7.6-1.8,10.1,3.4c2.5,7.6-2.7,11.9-2.7,11.9C280.4,198.6,280.7,199.7,280.2,201.7L280.2,201.7z"/>
	<path class="st1" d="M439.6,93.1c9.4,12.4,10.3,29.5,7.6,44.5c-1.1,6.3-3.4,12.4-7.2,18.7h0.4c13.5-9.9,18.2-22.9,19.3-39.4
		c0.4-6.5-0.4-13-3.4-19.6c-3.4-7.9-9-14.4-16.2-18c-4-2.3-11.9-3.8-21.1-2v0.5C433.1,82.3,441.9,96,439.6,93.1z"/>
	<path class="st1" d="M318.2,43.4c3.1,0,6.3,7.2,6.3,10.1v1.6c0.5-1.6,0.9-1.6,0.9-5.8c0-4.7-3.4-12.6-7.2-12.6
		c-4,0-7.2,5.6-7.2,12.6c0,2,0.2,3.8,0.9,5.6v-1.3C311.9,50.6,314.6,43.4,318.2,43.4z"/>
	<path class="st1" d="M274.8,155.6L274.8,155.6c26.5,5.2,50.4,4.5,75.3-1.8c17.5-4.5,60.3-18,61.6-36.2v-0.2c0.2-2.5,0-4.7-0.4-7.2
		c-2.7-13.7-13-24.1-27-26.5h-2c-2.7,6.1-7.2,10.3-13,13.3c2.3,4.3,0.7,9.4-3.4,11.9h-1.1c1.8-3.6,1.4-7.9-1.1-11
		c-2.3,0-3.2-2.9-0.9-3.1c6.3-0.2,14.4-11,14.8-20.2c0.7-11.7-6.3-22-17.1-25.6h-0.2c0.9-1.4,2.7-1.8,4.3-1.1h0.2v-0.2
		c1.8-14.6-7.4-27.9-21.4-31.5c-3.2-0.7-2.5-3.4-3.2-6.1c-0.9-2.5-4.9-2.9-8.1-2.9c-5.6-0.2-6.1,0.7-7.7,3.4
		c-0.3,0.3-0.4,0.7-0.4,1.1c-0.7,3.4-0.7,3.4-3.4,4c-13.3,3.6-22.5,15.1-23.4,29c2-0.9,4.3-0.2,5.2,1.8h-0.2
		c-13.7,2.7-22.7,16-20,29.7c1.8,9.2,8.3,17.1,17.3,20v0.2c-3.1,3.1-4,7.2-2.7,11.2v0.9h-0.2c-3.4-2.3-5.2-5.8-3.6-9.7
		c-5.4-1.6-12.8-6.5-16-11.5c-14.8,1.6-17.5,2.9-25.4,6.5C280.9,103.7,284.9,136.7,274.8,155.6z M334.2,49.3
		c0.7-9,5.8-15.7,11.9-15.5c6.1,0.5,10.3,7.9,10.1,16.9c-0.7,9-5.8,16-12.1,15.7C338.2,65.7,333.5,58,334.2,49.3z M318.2,32.8
		c6.3,0,11,7.2,11,16.4c0,8.8-4.7,16-11,16c-5.8,0-10.8-7.2-10.8-16C307.4,40,312.4,32.8,318.2,32.8z M307,79.8
		c1.1-1.8,2.5-3.1,2.5-4.9c0-2.7,2.5-3.4,3.4-1.1c1.1,3.4,4,2.9,7.4,2c8.3-2,19.1-0.7,24.1,0.5c2.7,0.7,5.6-4.7,6.1,0.2
		c0,1.1,0.2,2,0,3.1c0,0.2-0.2,0.2-0.2,0.2c-0.7,0.7-1.3,0.7-1.8,0.5c-1.1-0.7-1.6-1.1-3.4-0.2c-2.5,2-5.4,4.5-7.2,6.3
		c-2.3,2-4.9,2.9-7.2,2.9c-6.5-0.2-11.9-7.4-11.9-7.4c-2.2-2.2-6.5-3.4-9.7-1.1C307.2,82.1,305.8,81.6,307,79.8z"/>
	<path class="st1" d="M313,376.7c-2.2-2.5-3.6-5.4-4.7-9.7c-2,0.7-24.5,3.6-33.5-7.4c0,9.7,11.9,18.9,20.7,19.8
		C304.9,380.3,307.4,378.9,313,376.7z"/>
	<path class="st1" d="M253,161.5c2.7-3.4,8.5-5.6,12.1-3.1c10.3-15.3,9.2-34.9-2.9-48.8c-15.1-16.9-41.2-18.4-58-3.4
		c-1.3,1.1-0.7,0.2-1.8,1.3C230.1,102.8,260.9,128,253,161.5z"/>
	<path class="st1" d="M464.1,98.9h-0.2v0.2c4.3,10.6,3.4,18,2,27.2c-2.2,16.2-11.9,28.3-23.6,33.7v0.2c10.6,0,35.3-5.4,38.7-30.8
		C482.4,119.9,477.9,105.5,464.1,98.9z"/>
	<path class="st1" d="M432.7,165.3c-2.9,4-4.9,5.2-9.9,7.2v0.2h0c10.8,9.2,28.3,6.3,31.5,5.4c12.1-3.6,20-13.9,20.9-25
		C467.1,161.9,448.2,168.7,432.7,165.3z"/>
	<path class="st1" d="M431.1,185.3L431.1,185.3c-3.4-0.9-7.6-2.7-8.5-3.8c0,7.2-2.2,17.5-5.2,23.8c0.2,2.2,0.7,4.7,0.4,7.4
		c2.7-4.9,8.3-12.6,9.4-15.1C428.2,195.6,430.6,190.9,431.1,185.3z"/>
	<path class="st1" d="M415.8,174.7c-20.7,18.7-41.4,26.5-62.7,31.3c-25.6,5.8-48.3,7-74.4,2.7c-0.7,1.8-1.8,4.3-5.6,6.3
		c0.7,2.9,0,8.5-4.9,10.8l0,0c-0.2,2.5-0.5,3.4-1.8,4.7c33.3,12.4,81.4,7.9,113.1-4c26.1-9.9,38.7-28.3,36.4-50.1V174.7z"/>
	<path class="st1" d="M316.9,382.5L316.9,382.5c-4.9,3.1-21.8,3.8-26.3,0.4c2,11-5.2,20.2-7.4,28.8c-2.2,7.2-2,13.3,9.2,18
		c0.2,0,7.9-13.9,16-22.3C315.7,399.8,316.9,394.9,316.9,382.5z"/>
	<path class="st1" d="M383.2,232.3c7.6,0.9,13,3.4,19.3,7.9h0.2c5.4-5.2,9-18.7,8.3-26.5C407.3,220.6,394,229.4,383.2,232.3z"/>
	<path class="st1" d="M367,262.9h-2c-41.8,0-55.5,35.1-43.4,46.8c1.1-13.5,14.4-27.2,40-25.9c18.9,1.1,36.9,11.9,36.9,32.6v0.2v0
		h0.2C412,302.7,406.1,262.9,367,262.9z"/>
	<path class="st1" d="M322.3,317.3c-0.2,0-1.6,2-1.6,2c-7.4,17.5,5.4,40.9,26.3,47.2c25.6,7.9,47.9-3.1,47.9-26.8v-0.2
		C381.4,360,326.8,360.5,322.3,317.3z"/>
	<path class="st1" d="M315.3,346.8c-4.7,22.7,7.4,35.3,26.8,40c9,2,30.8,2.9,40-15.7C357.8,382.7,323.4,370.6,315.3,346.8z"/>
	<path class="st1" d="M325.4,387h-0.2c-0.7,6.7-2.7,14.6-7.2,20.5c-3.4,4-10.8,11.9-16.4,22c-9,18.7-4,27.9,0.7,32.4
		c8.5,7.6,27,14.4,39.6,3.1h-0.2c-7.2,1.6-10.1,2-18.9,0.2c-5.4-1.6-2-2,0-2c4.7,0.2,17.1,0.5,21.4-3.4c6.1-5.6,4.5-14.8,4.5-22.7
		c-1.4-21.6-0.9-30.1,4.3-42v-0.5h-0.2C342.5,394.9,330.1,390.6,325.4,387z"/>
	<path class="st1" d="M346.1,342c11.2,6.1,21.8,6.5,34,0.4c7.2-3.4,12.6-9.9,12.8-20.9c0.4-36-58.9-42-64.5-10.6l0,0
		C326.8,320.5,333,334.8,346.1,342z"/>
	<path class="st1" d="M370.8,237.9h-2.5c-22.7,0-49.5,11.5-49.5,36.4v2h0.2c5.2-10.3,18.7-21.6,48.6-21.6h1.1v0
		c25.6-0.7,38.2,16.2,40.5,27.2h0.4C413.8,264,405.9,237.9,370.8,237.9z"/>
	<polygon class="st1" points="241.5,168.9 241.5,168.4 241.5,168.4 	"/>
	<polygon class="st1" points="466.8,210.5 466.8,210.5 466.8,210.5 	"/>
	<path d="M309,80.7c3.1-2.3,7.4-1.1,9.7,1.1c0,0,5.4,7.2,11.9,7.4c2.2,0,4.9-0.9,7.2-2.9c1.8-1.8,4.7-4.3,7.2-6.3
		c1.8-0.9,2.2-0.4,3.4,0.2c0.4,0.2,1.1,0.2,1.8-0.5c0,0,0.2,0,0.2-0.2c0.2-1.1,0-2,0-3.1c-0.4-4.9-3.4,0.4-6.1-0.2
		c-4.9-1.1-15.7-2.5-24.1-0.5c-3.4,0.9-6.3,1.3-7.4-2c-0.9-2.2-3.4-1.6-3.4,1.1c0,1.8-1.3,3.1-2.5,4.9
		C305.8,81.6,307.2,82.1,309,80.7z M342,78.9c-3.6,2.2-6.3,7.6-11.7,7.2c-4.7-0.5-9.4-6.3-9.9-7.2C325.2,76.7,336.9,77.1,342,78.9z"
		/>
	<path d="M318.2,65.2c6.3,0,11-7.2,11-16c0-9.2-4.7-16.4-11-16.4c-5.8,0-10.8,7.2-10.8,16.4C307.4,58,312.4,65.2,318.2,65.2z
		 M311.9,54.9c-0.7-1.8-0.9-3.6-0.9-5.6c0-7,3.1-12.6,7.2-12.6c3.8,0,7.2,7.9,7.2,12.6c0,4.3-0.4,4.3-0.9,5.8v-1.6
		c0-2.9-3.1-10.1-6.3-10.1c-3.6,0-6.3,7.2-6.3,10.1V54.9z"/>
	<path d="M344.1,66.3c6.3,0.2,11.5-6.7,12.1-15.7c0.2-9-4-16.4-10.1-16.9c-6.1-0.2-11.2,6.5-11.9,15.5
		C333.5,58,338.2,65.7,344.1,66.3z M338.4,55.6c-0.2-2-0.7-4-0.2-6.1c0.2-6.5,3.8-12.1,7.9-11.7c3.8,0.2,6.5,8.1,6.1,12.8
		c-0.2,4.3-0.7,4.3-1.1,5.8v-1.6c0.2-2.9-2-10.3-5.6-10.6c-3.4-0.2-6.5,7-7,9.9V55.6z"/>
	<path class="st1" d="M309,293.5c0.9-6.7,3.6-10.6,4.5-12.6c0.2-2-0.2-2.5-0.5-2.5h-0.2c-31-0.5-52.4-12.1-58.7-17.5h-0.2
		c0,0.2,0,0.5,0,0.7C267.6,297.5,309,293.7,309,293.5z"/>
	<path class="st1" d="M311.7,322.2c0.4-3.1,2.2-5.2,2.2-5.2v-3.8c-4.1-3.1-4.7-8.1-5.2-11.9c-21.4,1.6-42.3-7.6-47.9-17.1v1.1
		C261.5,309.9,291,322.9,311.7,322.2z"/>
	<path class="st1" d="M313.9,271.2c0.5-16,10.6-24.3,13.5-25.9v-0.5h-0.2c-27.9,3.1-50.4-0.7-68.4-8.3c-3.4,2.5-7.4,3.1-15.3,4.3h0
		c2.3,15.5,40.7,30.6,70.4,30.6V271.2z"/>
	<path class="st1" d="M205.1,196.8c4-12.8,20.2-21.6,28.8-22.7c-19.1-12.8-44.1-6.5-52.8,11.9c-4.3,9-5.6,20.9-1.3,29.9
		c6.3,13,22,17.1,35.3,16.9C210.3,229.4,200.4,220.2,205.1,196.8z"/>
	<path class="st1" d="M257.9,229.2c0.5-1.1-0.9-1.8-4.9-1.6c-2.7,0.2-10.6,0.7-11.5,0.7c-2.2,0-4.7-0.2-4.3-2.5
		c0.5-2,3.1-2.5,5.2-2.5c6.3,0,12.4,0,18.7-0.9c2-0.5,4-1.3,5.2-3.4c1.1-2-0.7-2.9-3.8-2.7c-4.7,0.2-20.5,0.7-24.1-1.3
		c-0.9-0.7-1.3-1.8-0.9-2.9c0.4-1.3,2.5-1.3,4.3-1.1c6.1,0.5,11.7,0.7,17.8,0.5c3.8-0.2,10.1-1.3,12.6-4.5c1.3-1.6,1.3-3.8-2.2-3.8
		c-5.2-0.2-11.5,0.9-16.9,0.9c-3.6,0-14.6,0.5-14.4-2.2c0-2.2,3.1-3.6,4.9-3.8c5.2,0,13,0.5,18.2,0c13.5-0.2,20.2-13,5.4-9.7
		c-7.2,1.6-12.8,1.6-20.2,1.6c-1.6,0-3.1-0.2-2.7-2c0.5-3.6,14.2-2.7,17.8-10.3c1.3-2.9,2-6.5,0.9-8.8c-0.9-2-3.4-4.1-5.2-2
		c-11.2,12.6-20,12.4-24.7,14.2c-16.2,6.1-21.4,16.9-21.8,28.3c0,4.9,4.3,21.6,19.6,24.3c6.1,0.9,12.6,0.4,18.7-0.5
		C253.9,232.3,257.7,231.2,257.9,229.2z"/>
	<path class="st1" d="M313,376.7c-2.2-2.5-3.6-5.4-4.7-9.7c-2,0.7-24.5,3.6-33.5-7.4c0,9.7,11.9,18.9,20.7,19.8
		C304.9,380.3,307.4,378.9,313,376.7z"/>
	<path class="st1" d="M316.9,382.5L316.9,382.5c-4.9,3.1-21.8,3.8-26.3,0.4c2,11-5.2,20.2-7.4,28.8c-2.2,7.2-2,13.3,9.2,18
		c0.2,0,7.9-13.9,16-22.3C315.7,399.8,316.9,394.9,316.9,382.5z"/>
	<path class="st1" d="M268.7,313.5v0.2c-0.5,10.8,5.6,17.1,11.2,20.7l0,0c7.4,5.2,19.3,6.1,29,4.7v-0.5c0.2-1.6,0.7-3.1,2.2-5.6
		v-0.7c0-1.6-0.9-1.6-0.9-3.1V329C300,329.7,279.8,327.4,268.7,313.5z"/>
	<path class="st1" d="M307,360.5c-0.2,0.2-1.3-6.5,0.5-14.6c-2.7,0.7-25.2,4.3-38.7-12.4c-1.6,4.3-2.7,18.4,16.4,25.4
		C296.6,362.9,302.2,360.9,307,360.5z"/>
	<path class="st1" d="M280.2,201.7c12.6,1.8,31.9,3.1,51.5,0.9c37.3-4.7,77.8-19.3,87.9-45.6c3.8-9.7,0.5-20.9-5.6-29.5
		c-9.4,17.5-46.3,30.1-64.1,34.2c-16.6,3.8-34.6,5.6-50.6,4.9c-9.4-0.7-21.6-2.5-29.9-4c0,0,2,4.1,1.8,8.5c0,4.3-0.4,8.3-3.8,11.5
		c1.3,0,3.4-0.7,4.7-0.9c3.8-0.7,7.6-1.8,10.1,3.4c2.5,7.6-2.7,11.9-2.7,11.9C280.4,198.6,280.7,199.7,280.2,201.7L280.2,201.7z"/>
	<path class="st1" d="M192.3,165.1c11.7-6.1,29-7.9,43,2.7c-4.5-15.1-16.9-26.1-36.7-26.1c-17.1-0.2-33.3,9.7-38.5,25v0
		c-3.8,11.2,0,27.2,10.3,34C169.8,186,178.6,171.8,192.3,165.1z"/>
	<path class="st1" d="M439.6,93.1c9.4,12.4,10.3,29.5,7.6,44.5c-1.1,6.3-3.4,12.4-7.2,18.7h0.4c13.5-9.9,18.2-22.9,19.3-39.4
		c0.4-6.5-0.4-13-3.4-19.6c-3.4-7.9-9-14.4-16.2-18c-4-2.3-11.9-3.8-21.1-2v0.5C433.1,82.3,441.9,96,439.6,93.1z"/>
	<path class="st1" d="M274.8,155.6L274.8,155.6c26.5,5.2,50.4,4.5,75.3-1.8c17.5-4.5,60.3-18,61.6-36.2v-0.2c0.2-2.5,0-4.7-0.4-7.2
		c-2.7-13.7-13-24.1-27-26.5h-2c-2.7,6.1-7.2,10.3-13,13.3c2.3,4.3,0.7,9.4-3.4,11.9h-1.1c1.8-3.6,1.4-7.9-1.1-11
		c-2.3,0-3.2-2.9-0.9-3.1c6.3-0.2,14.4-11,14.8-20.2c0.7-11.7-6.3-22-17.1-25.6h-0.2c0.9-1.4,2.7-1.8,4.3-1.1h0.2v-0.2
		c1.8-14.6-7.4-27.9-21.4-31.5c-3.2-0.7-2.5-3.4-3.2-6.1c-0.9-2.5-4.9-2.9-8.1-2.9c-5.6-0.2-6.1,0.7-7.7,3.4
		c-0.3,0.3-0.4,0.7-0.4,1.1c-0.7,3.4-0.7,3.4-3.4,4c-13.3,3.6-22.5,15.1-23.4,29c2-0.9,4.3-0.2,5.2,1.8h-0.2
		c-13.7,2.7-22.7,16-20,29.7c1.8,9.2,8.3,17.1,17.3,20v0.2c-3.1,3.1-4,7.2-2.7,11.2v0.9h-0.2c-3.4-2.3-5.2-5.8-3.6-9.7
		c-5.4-1.6-12.8-6.5-16-11.5c-14.8,1.6-17.5,2.9-25.4,6.5C280.9,103.7,284.9,136.7,274.8,155.6z"/>
	<path class="st1" d="M417.2,122.8c15.1,12.6,10.6,36.9,4.5,44.8c14.6-11.2,22-27.4,20.7-45.9c0-22.7-17.3-40.9-40-42.7
		c-3.6-0.2-7,0-10.3,1.6C414.7,87.3,421.4,107.7,417.2,122.8z"/>
	<path class="st1" d="M169.1,144.8c12.6-10.6,30.1-9.4,33.3-9.4c13,0.5,35.3,8.5,39.1,32.8v0.2c13.5-19.8-1.4-55.3-32.8-55.3h-2.2
		c-27,0-38.9,22.5-37.3,31.9V144.8z"/>
	<polygon class="st1" points="241.5,168.9 241.5,168.4 241.5,168.4 	"/>
	<path class="st1" d="M253,161.5c2.7-3.4,8.5-5.6,12.1-3.1c10.3-15.3,9.2-34.9-2.9-48.8c-15.1-16.9-41.2-18.4-58-3.4
		c-1.3,1.1-0.7,0.2-1.8,1.3C230.1,102.8,260.9,128,253,161.5z"/>
	<path class="st1" d="M432.7,165.3c-2.9,4-4.9,5.2-9.9,7.2v0.2h0c10.8,9.2,28.3,6.3,31.5,5.4c12.1-3.6,20-13.9,20.9-25
		C467.1,161.9,448.2,168.7,432.7,165.3z"/>
	<path class="st1" d="M431.1,185.3L431.1,185.3c-3.4-0.9-7.6-2.7-8.5-3.8c0,7.2-2.2,17.5-5.2,23.8c0.2,2.2,0.7,4.7,0.4,7.4
		c2.7-4.9,8.3-12.6,9.4-15.1C428.2,195.6,430.6,190.9,431.1,185.3z"/>
	<path class="st1" d="M448,235.7c0,7.6,3.4,6.5,3.4-1.3C451.3,230.3,448,231.2,448,235.7z"/>
	<polygon class="st1" points="466.8,210.5 466.8,210.5 466.8,210.5 	"/>
	<path class="st1" d="M464.1,98.9h-0.2v0.2c4.3,10.6,3.4,18,2,27.2c-2.2,16.2-11.9,28.3-23.6,33.7v0.2c10.6,0,35.3-5.4,38.7-30.8
		C482.4,119.9,477.9,105.5,464.1,98.9z"/>
	<path class="st1" d="M346.1,342c11.2,6.1,21.8,6.5,34,0.4c7.2-3.4,12.6-9.9,12.8-20.9c0.4-36-58.9-42-64.5-10.6l0,0
		C326.8,320.5,333,334.8,346.1,342z"/>
	<path class="st1" d="M322.3,317.3c-0.2,0-1.6,2-1.6,2c-7.4,17.5,5.4,40.9,26.3,47.2c25.6,7.9,47.9-3.1,47.9-26.8v-0.2
		C381.4,360,326.8,360.5,322.3,317.3z"/>
	<path class="st1" d="M415.8,174.7c-20.7,18.7-41.4,26.5-62.7,31.3c-25.6,5.8-48.3,7-74.4,2.7c-0.7,1.8-1.8,4.3-5.6,6.3
		c0.7,2.9,0,8.5-4.9,10.8l0,0c-0.2,2.5-0.5,3.4-1.8,4.7c33.3,12.4,81.4,7.9,113.1-4c26.1-9.9,38.7-28.3,36.4-50.1V174.7z"/>
	<path class="st1" d="M315.3,346.8c-4.7,22.7,7.4,35.3,26.8,40c9,2,30.8,2.9,40-15.7C357.8,382.7,323.4,370.6,315.3,346.8z"/>
	<path class="st1" d="M325.4,387h-0.2c-0.7,6.7-2.7,14.6-7.2,20.5c-3.4,4-10.8,11.9-16.4,22c-9,18.7-4,27.9,0.7,32.4
		c8.5,7.6,27,14.4,39.6,3.1h-0.2c-7.2,1.6-10.1,2-18.9,0.2c-5.4-1.6-2-2,0-2c4.7,0.2,17.1,0.5,21.4-3.4c6.1-5.6,4.5-14.8,4.5-22.7
		c-1.4-21.6-0.9-30.1,4.3-42v-0.5h-0.2C342.5,394.9,330.1,390.6,325.4,387z"/>
	<path class="st1" d="M367,262.9h-2c-41.8,0-55.5,35.1-43.4,46.8c1.1-13.5,14.4-27.2,40-25.9c18.9,1.1,36.9,11.9,36.9,32.6v0.2v0
		h0.2C412,302.7,406.1,262.9,367,262.9z"/>
	<path class="st1" d="M383.2,232.3c7.6,0.9,13,3.4,19.3,7.9h0.2c5.4-5.2,9-18.7,8.3-26.5C407.3,220.6,394,229.4,383.2,232.3z"/>
	<path class="st1" d="M370.8,237.9h-2.5c-22.7,0-49.5,11.5-49.5,36.4v2h0.2c5.2-10.3,18.7-21.6,48.6-21.6h1.1v0
		c25.6-0.7,38.2,16.2,40.5,27.2h0.4C413.8,264,405.9,237.9,370.8,237.9z"/>
	<g>
		<path class="st1" d="M316.9,382.5L316.9,382.5c-4.9,3.1-21.8,3.8-26.3,0.4c2,11-5.2,20.2-7.4,28.8c-2.2,7.2-2,13.3,9.2,18
			c0.2,0,7.9-13.9,16-22.3C315.7,399.8,316.9,394.9,316.9,382.5z"/>
		<path class="st1" d="M313.9,271.2c0.5-16,10.6-24.3,13.5-25.9v-0.5h-0.2c-27.9,3.1-50.4-0.7-68.4-8.3c-3.4,2.5-7.4,3.1-15.3,4.3h0
			c2.3,15.5,40.7,30.6,70.4,30.6V271.2z"/>
		<path class="st1" d="M257.9,229.2c0.5-1.1-0.9-1.8-4.9-1.6c-2.7,0.2-10.6,0.7-11.5,0.7c-2.2,0-4.7-0.2-4.3-2.5
			c0.5-2,3.1-2.5,5.2-2.5c6.3,0,12.4,0,18.7-0.9c2-0.5,4-1.3,5.2-3.4c1.1-2-0.7-2.9-3.8-2.7c-4.7,0.2-20.5,0.7-24.1-1.3
			c-0.9-0.7-1.3-1.8-0.9-2.9c0.4-1.3,2.5-1.3,4.3-1.1c6.1,0.5,11.7,0.7,17.8,0.5c3.8-0.2,10.1-1.3,12.6-4.5c1.3-1.6,1.3-3.8-2.2-3.8
			c-5.2-0.2-11.5,0.9-16.9,0.9c-3.6,0-14.6,0.5-14.4-2.2c0-2.2,3.1-3.6,4.9-3.8c5.2,0,13,0.5,18.2,0c13.5-0.2,20.2-13,5.4-9.7
			c-7.2,1.6-12.8,1.6-20.2,1.6c-1.6,0-3.1-0.2-2.7-2c0.5-3.6,14.2-2.7,17.8-10.3c1.3-2.9,2-6.5,0.9-8.8c-0.9-2-3.4-4.1-5.2-2
			c-11.2,12.6-20,12.4-24.7,14.2c-16.2,6.1-21.4,16.9-21.8,28.3c0,4.9,4.3,21.6,19.6,24.3c6.1,0.9,12.6,0.4,18.7-0.5
			C253.9,232.3,257.7,231.2,257.9,229.2z"/>
		<path class="st1" d="M205.1,196.8c4-12.8,20.2-21.6,28.8-22.7c-19.1-12.8-44.1-6.5-52.8,11.9c-4.3,9-5.6,20.9-1.3,29.9
			c6.3,13,22,17.1,35.3,16.9C210.3,229.4,200.4,220.2,205.1,196.8z"/>
		<path class="st1" d="M313,376.7c-2.2-2.5-3.6-5.4-4.7-9.7c-2,0.7-24.5,3.6-33.5-7.4c0,9.7,11.9,18.9,20.7,19.8
			C304.9,380.3,307.4,378.9,313,376.7z"/>
		<path class="st1" d="M268.7,313.5v0.2c-0.5,10.8,5.6,17.1,11.2,20.7l0,0c7.4,5.2,19.3,6.1,29,4.7v-0.5c0.2-1.6,0.7-3.1,2.2-5.6
			v-0.7c0-1.6-0.9-1.6-0.9-3.1V329C300,329.7,279.8,327.4,268.7,313.5z"/>
		<path class="st1" d="M307,360.5c-0.2,0.2-1.3-6.5,0.5-14.6c-2.7,0.7-25.2,4.3-38.7-12.4c-1.6,4.3-2.7,18.4,16.4,25.4
			C296.6,362.9,302.2,360.9,307,360.5z"/>
		<path class="st1" d="M309,293.5c0.9-6.7,3.6-10.6,4.5-12.6c0.2-2-0.2-2.5-0.5-2.5h-0.2c-31-0.5-52.4-12.1-58.7-17.5h-0.2
			c0,0.2,0,0.5,0,0.7C267.6,297.5,309,293.7,309,293.5z"/>
		<path class="st1" d="M280.2,201.7c12.6,1.8,31.9,3.1,51.5,0.9c37.3-4.7,77.8-19.3,87.9-45.6c3.8-9.7,0.5-20.9-5.6-29.5
			c-9.4,17.5-46.3,30.1-64.1,34.2c-16.6,3.8-34.6,5.6-50.6,4.9c-9.4-0.7-21.6-2.5-29.9-4c0,0,2,4.1,1.8,8.5c0,4.3-0.4,8.3-3.8,11.5
			c1.3,0,3.4-0.7,4.7-0.9c3.8-0.7,7.6-1.8,10.1,3.4c2.5,7.6-2.7,11.9-2.7,11.9C280.4,198.6,280.7,199.7,280.2,201.7L280.2,201.7z"/>
		<path class="st1" d="M274.8,155.6L274.8,155.6c26.5,5.2,50.4,4.5,75.3-1.8c17.5-4.5,60.3-18,61.6-36.2v-0.2c0.2-2.5,0-4.7-0.4-7.2
			c-2.7-13.7-13-24.1-27-26.5h-2c-2.7,6.1-7.2,10.3-13,13.3c2.3,4.3,0.7,9.4-3.4,11.9h-1.1c1.8-3.6,1.4-7.9-1.1-11
			c-2.3,0-3.2-2.9-0.9-3.1c6.3-0.2,14.4-11,14.8-20.2c0.7-11.7-6.3-22-17.1-25.6h-0.2c0.9-1.4,2.7-1.8,4.3-1.1h0.2v-0.2
			c1.8-14.6-7.4-27.9-21.4-31.5c-3.2-0.7-2.5-3.4-3.2-6.1c-0.9-2.5-4.9-2.9-8.1-2.9c-5.6-0.2-6.1,0.7-7.7,3.4
			c-0.3,0.3-0.4,0.7-0.4,1.1c-0.7,3.4-0.7,3.4-3.4,4c-13.3,3.6-22.5,15.1-23.4,29c2-0.9,4.3-0.2,5.2,1.8h-0.2
			c-13.7,2.7-22.7,16-20,29.7c1.8,9.2,8.3,17.1,17.3,20v0.2c-3.1,3.1-4,7.2-2.7,11.2v0.9h-0.2c-3.4-2.3-5.2-5.8-3.6-9.7
			c-5.4-1.6-12.8-6.5-16-11.5c-14.8,1.6-17.5,2.9-25.4,6.5C280.9,103.7,284.9,136.7,274.8,155.6z"/>
		<path class="st1" d="M417.2,122.8c15.1,12.6,10.6,36.9,4.5,44.8c14.6-11.2,22-27.4,20.7-45.9c0-22.7-17.3-40.9-40-42.7
			c-3.6-0.2-7,0-10.3,1.6C414.7,87.3,421.4,107.7,417.2,122.8z"/>
		<path class="st1" d="M439.6,93.1c9.4,12.4,10.3,29.5,7.6,44.5c-1.1,6.3-3.4,12.4-7.2,18.7h0.4c13.5-9.9,18.2-22.9,19.3-39.4
			c0.4-6.5-0.4-13-3.4-19.6c-3.4-7.9-9-14.4-16.2-18c-4-2.3-11.9-3.8-21.1-2v0.5C433.1,82.3,441.9,96,439.6,93.1z"/>
		<polygon class="st1" points="241.5,168.9 241.5,168.4 241.5,168.4 		"/>
		<path class="st1" d="M169.1,144.8c12.6-10.6,30.1-9.4,33.3-9.4c13,0.5,35.3,8.5,39.1,32.8v0.2c13.5-19.8-1.4-55.3-32.8-55.3h-2.2
			c-27,0-38.9,22.5-37.3,31.9V144.8z"/>
		<path class="st1" d="M192.3,165.1c11.7-6.1,29-7.9,43,2.7c-4.5-15.1-16.9-26.1-36.7-26.1c-17.1-0.2-33.3,9.7-38.5,25v0
			c-3.8,11.2,0,27.2,10.3,34C169.8,186,178.6,171.8,192.3,165.1z"/>
		<path class="st1" d="M253,161.5c2.7-3.4,8.5-5.6,12.1-3.1c10.3-15.3,9.2-34.9-2.9-48.8c-15.1-16.9-41.2-18.4-58-3.4
			c-1.3,1.1-0.7,0.2-1.8,1.3C230.1,102.8,260.9,128,253,161.5z"/>
		<path class="st1" d="M311.7,322.2c0.4-3.1,2.2-5.2,2.2-5.2v-3.8c-4.1-3.1-4.7-8.1-5.2-11.9c-21.4,1.6-42.3-7.6-47.9-17.1v1.1
			C261.5,309.9,291,322.9,311.7,322.2z"/>
		<polygon class="st1" points="466.8,210.5 466.8,210.5 466.8,210.5 		"/>
		<path class="st1" d="M325.4,387h-0.2c-0.7,6.7-2.7,14.6-7.2,20.5c-3.4,4-10.8,11.9-16.4,22c-9,18.7-4,27.9,0.7,32.4
			c8.5,7.6,27,14.4,39.6,3.1h-0.2c-7.2,1.6-10.1,2-18.9,0.2c-5.4-1.6-2-2,0-2c4.7,0.2,17.1,0.5,21.4-3.4c6.1-5.6,4.5-14.8,4.5-22.7
			c-1.4-21.6-0.9-30.1,4.3-42v-0.5h-0.2C342.5,394.9,330.1,390.6,325.4,387z"/>
		<path class="st1" d="M431.1,185.3L431.1,185.3c-3.4-0.9-7.6-2.7-8.5-3.8c0,7.2-2.2,17.5-5.2,23.8c0.2,2.2,0.7,4.7,0.4,7.4
			c2.7-4.9,8.3-12.6,9.4-15.1C428.2,195.6,430.6,190.9,431.1,185.3z"/>
		<path class="st1" d="M464.1,98.9h-0.2v0.2c4.3,10.6,3.4,18,2,27.2c-2.2,16.2-11.9,28.3-23.6,33.7v0.2c10.6,0,35.3-5.4,38.7-30.8
			C482.4,119.9,477.9,105.5,464.1,98.9z"/>
		<path class="st1" d="M415.8,174.7c-20.7,18.7-41.4,26.5-62.7,31.3c-25.6,5.8-48.3,7-74.4,2.7c-0.7,1.8-1.8,4.3-5.6,6.3
			c0.7,2.9,0,8.5-4.9,10.8l0,0c-0.2,2.5-0.5,3.4-1.8,4.7c33.3,12.4,81.4,7.9,113.1-4c26.1-9.9,38.7-28.3,36.4-50.1V174.7z"/>
		<path class="st1" d="M432.7,165.3c-2.9,4-4.9,5.2-9.9,7.2v0.2h0c10.8,9.2,28.3,6.3,31.5,5.4c12.1-3.6,20-13.9,20.9-25
			C467.1,161.9,448.2,168.7,432.7,165.3z"/>
		<path class="st1" d="M448,235.7c0,7.6,3.4,6.5,3.4-1.3C451.3,230.3,448,231.2,448,235.7z"/>
		<path class="st1" d="M367,262.9h-2c-41.8,0-55.5,35.1-43.4,46.8c1.1-13.5,14.4-27.2,40-25.9c18.9,1.1,36.9,11.9,36.9,32.6v0.2v0
			h0.2C412,302.7,406.1,262.9,367,262.9z"/>
		<path class="st1" d="M322.3,317.3c-0.2,0-1.6,2-1.6,2c-7.4,17.5,5.4,40.9,26.3,47.2c25.6,7.9,47.9-3.1,47.9-26.8v-0.2
			C381.4,360,326.8,360.5,322.3,317.3z"/>
		<path class="st1" d="M346.1,342c11.2,6.1,21.8,6.5,34,0.4c7.2-3.4,12.6-9.9,12.8-20.9c0.4-36-58.9-42-64.5-10.6l0,0
			C326.8,320.5,333,334.8,346.1,342z"/>
		<path class="st1" d="M315.3,346.8c-4.7,22.7,7.4,35.3,26.8,40c9,2,30.8,2.9,40-15.7C357.8,382.7,323.4,370.6,315.3,346.8z"/>
		<path class="st1" d="M370.8,237.9h-2.5c-22.7,0-49.5,11.5-49.5,36.4v2h0.2c5.2-10.3,18.7-21.6,48.6-21.6h1.1v0
			c25.6-0.7,38.2,16.2,40.5,27.2h0.4C413.8,264,405.9,237.9,370.8,237.9z"/>
		<path class="st1" d="M383.2,232.3c7.6,0.9,13,3.4,19.3,7.9h0.2c5.4-5.2,9-18.7,8.3-26.5C407.3,220.6,394,229.4,383.2,232.3z"/>
		<path class="st1" d="M468.2,197.2c-0.9-4.7-3.8-9.4-3.8-14.4c-8.1,4.9-16.4,4.9-25.6,4c-0.9,0.7-1.1,8.1-6.3,16.4
			c-2.2,3.4-5.6,7.2-7,11c-2.9,7.9,6.1,7.6,8.8,1.8c1.6-3.4,3.2-9.7,4.7-12.4c3.8-7.4,13.5-5.4,15.1,10.1c2.3,12.8,0.4,32.2,9.9,29
			c1.1-0.2-1.1-12.8-0.9-18.9c0-7-0.9-16.9-0.9-18.4c3.8,0.9,4.1,3.8,4.7,4.9C469.1,207.6,468.9,200.8,468.2,197.2z"/>
		<path d="M461.4,91.3c0,0-0.2-0.2-0.4-0.2c-3.8-10.3-22.5-26.3-49.7-17.1c-4.5-0.9-15.1-3.1-26.5,1.6c2-11.2-5.4-24.3-12.8-27.2
			c1.3-8.3-0.6-16.9-5.4-23.8c-5.2-7.2-9.9-10.6-17.3-13.5c-3.6-2.9-2-7.9-6.3-9.4c-5.8-2.3-16.9-1.6-18.2-1.1
			c-5.8,1.8-4.7,7.2-7.6,8.1c-23.4,7.6-26.8,29-27.4,35.1c-15.1,7-18.4,24.5-14.8,37.6c-10.8,0.2-25.6,5.6-33.7,9.2
			c-27.9-4-42,7.4-48.1,17.8c-14.2,4-33.5,21.6-29.7,40.2c-16.6,16.6-16.2,49.2,7.4,60.7c3.6,26.5,33.5,32.8,52.4,28.3
			c4.9,2.2,6.3,2.5,11.7,3.1c2,3.4,7.4,10.8,7.4,11.2c0.2,12.1,5.8,21.6,9.7,25.2c-0.5,12.6,2,22.9,8.3,31.3v0.5
			c0,9,2.2,16,3.4,18.4c0,0.2-0.2,0.7-0.5,0.9c-4.3,6.7-1.1,20.7,5.4,27.7c-0.2,10.6,2,15.1,10.8,23.2c4.9,4.5,5.4,5.2,6.1,8.1
			c-0.4,4-5.6,16.9-9,25.4c-5.6,13.9,7.4,19.6,13.3,22.9c-3.4,13.9-3.6,28.1,9.7,37.1h0c18.7,12.4,51,10.1,56.4-11.2
			c2.9-11.9,1.3-23.8,0.4-33.1c-0.7-7.9-0.2-25,6.3-34.2c7.2-1.3,25.9-6.1,28.3-27.4c6.3-7.6,14.8-19.6,8.3-35.5
			c0.5-3.4,0.2-2.9,0-5.8c8.8-5.8,14.4-18.2,12.8-34.6c7.4-4.9,8.5-33.7-2.7-45c2-2.5,9-15.7,8.5-24.3c2.3,2.9,4,5.4,12.8,5.6
			c5.2,0.2,7.9-0.7,10.8,6.5c3.2,6.7,0.9,15.7,13.7,13.7c9.9,5.4,16.4,1.1,16.2-0.7c-0.7-11.9-2.7-22.9,1.3-34.4
			c1.6-4.5,3.1-9.4,1.8-16.4c-0.9-6.5-4.5-9.7-4.5-16c9.9-8.8,12.4-22.3,11-31.3c4.3-4.3,6.5-13,7-17.8
			C490.5,109.3,475.8,94.5,461.4,91.3z M419.2,77.4c9.2-1.8,17.1-0.2,21.1,2c7.2,3.6,12.8,10.1,16.2,18c2.9,6.5,3.8,13,3.4,19.6
			c-1.1,16.4-5.8,29.5-19.3,39.4h-0.4h0h0c3.8-6.3,6.1-12.4,7.2-18.7c2.7-15.1,1.8-32.2-7.6-44.5c2.3,2.9-6.5-10.8-20.5-15.3V77.4z
			 M402.3,78.9c22.7,1.8,40,20,40,42.7c1.3,18.4-6.1,34.6-20.7,45.9c6.1-7.9,10.6-32.2-4.5-44.8c4.3-15.1-2.5-35.5-25.2-42.3
			C395.3,78.9,398.7,78.7,402.3,78.9z M279.5,197c0,0,5.2-4.3,2.7-11.9c-2.5-5.2-6.3-4-10.1-3.4c-1.3,0.2-3.4,0.9-4.7,0.9
			c3.4-3.1,3.8-7.2,3.8-11.5c0.2-4.5-1.8-8.5-1.8-8.5c8.3,1.6,20.5,3.4,29.9,4c16,0.7,34-1.1,50.6-4.9c17.8-4,54.6-16.6,64.1-34.2
			c6.1,8.5,9.4,19.8,5.6,29.5c-10.1,26.3-50.6,40.9-87.9,45.6c-19.6,2.3-38.9,0.9-51.5-0.9v0C280.7,199.7,280.4,198.6,279.5,197z
			 M277.1,87.3c3.1,4.9,10.6,9.9,16,11.5c-1.6,3.8,0.2,7.4,3.6,9.7h0.2v-0.9c-1.3-4-0.5-8.1,2.7-11.2V96c-9-2.9-15.5-10.8-17.3-20
			c-2.7-13.7,6.3-27,20-29.7h0.2c-0.9-2-3.1-2.7-5.2-1.8c0.9-13.9,10.1-25.4,23.4-29c2.7-0.7,2.7-0.7,3.4-4c0-0.4,0.2-0.8,0.4-1.1
			c1.6-2.7,2-3.6,7.7-3.4c3.1,0,7.2,0.5,8.1,2.9c0.7,2.7,0,5.4,3.2,6.1c13.9,3.6,23.2,16.9,21.4,31.5v0.2h-0.2
			c-1.6-0.7-3.4-0.2-4.3,1.1h0.2c10.8,3.6,17.8,13.9,17.1,25.6c-0.4,9.2-8.5,20-14.8,20.2c-2.3,0.2-1.3,3.1,0.9,3.1
			c2.5,3.1,2.9,7.4,1.1,11h1.1c4-2.5,5.6-7.6,3.4-11.9c5.8-2.9,10.3-7.2,13-13.3h2c13.9,2.5,24.3,12.8,27,26.5
			c0.4,2.5,0.7,4.7,0.4,7.2v0.2c-1.3,18.2-44.1,31.7-61.6,36.2c-25,6.3-48.8,7-75.3,1.8h0c10.1-18.9,6.1-51.9-23.2-61.8
			C259.5,90.2,262.2,88.8,277.1,87.3z M204.2,106.1c16.9-15.1,43-13.5,58,3.4c12.1,13.9,13.3,33.5,2.9,48.8
			c-3.6-2.5-9.4-0.2-12.1,3.1c7.9-33.5-22.9-58.7-50.6-54C203.5,106.4,202.8,107.3,204.2,106.1z M206.4,113.1h2.2
			c31.5,0,46.3,35.5,32.8,55.3v0.5l0-0.5c0,0,0,0,0,0v-0.2c-3.8-24.3-26.1-32.4-39.1-32.8c-3.1,0-20.7-1.1-33.3,9.4v0.2
			C167.5,135.6,179.5,113.1,206.4,113.1z M170.5,200.6c-10.3-6.7-14.2-22.7-10.3-34v0c5.2-15.3,21.4-25.2,38.5-25
			c19.8,0,32.2,11,36.7,26.1c-13.9-10.6-31.3-8.8-43-2.7C178.6,171.8,169.8,186,170.5,200.6z M179.7,215.9c-4.3-9-2.9-20.9,1.3-29.9
			c8.8-18.4,33.7-24.7,52.8-11.9c-8.5,1.1-24.7,9.9-28.8,22.7c-4.7,23.4,5.2,32.6,9.9,36C201.7,233,186,228.9,179.7,215.9z
			 M230.7,233.4c-15.3-2.7-19.6-19.3-19.6-24.3c0.5-11.5,5.6-22.3,21.8-28.3c4.7-1.8,13.5-1.6,24.7-14.2c1.8-2,4.3,0,5.2,2
			c1.1,2.2,0.5,5.8-0.9,8.8c-3.6,7.6-17.3,6.7-17.8,10.3c-0.4,1.8,1.1,2,2.7,2c7.4,0,13,0,20.2-1.6c14.8-3.4,8.1,9.4-5.4,9.7
			c-5.2,0.5-13,0-18.2,0c-1.8,0.2-4.9,1.6-4.9,3.8c-0.2,2.7,10.8,2.2,14.4,2.2c5.4,0,11.7-1.1,16.9-0.9c3.6,0,3.6,2.2,2.2,3.8
			c-2.5,3.1-8.8,4.3-12.6,4.5c-6.1,0.2-11.7,0-17.8-0.5c-1.8-0.2-3.8-0.2-4.3,1.1c-0.5,1.1,0,2.2,0.9,2.9c3.6,2,19.3,1.6,24.1,1.3
			c3.1-0.2,4.9,0.7,3.8,2.7c-1.1,2-3.1,2.9-5.2,3.4c-6.3,0.9-12.4,0.9-18.7,0.9c-2,0-4.7,0.5-5.2,2.5c-0.5,2.2,2,2.5,4.3,2.5
			c0.9,0,8.8-0.5,11.5-0.7c4-0.2,5.4,0.5,4.9,1.6c-0.2,2-4,3.1-8.5,3.8C243.3,233.9,236.8,234.3,230.7,233.4z M243.5,240.8
			L243.5,240.8c7.9-1.1,11.9-1.8,15.3-4.3c18,7.6,40.5,11.5,68.4,8.3h0.2v0.5c-2.9,1.6-13,9.9-13.5,25.9v0.2
			C284.2,271.4,245.8,256.4,243.5,240.8z M253.9,261.5c0-0.2,0-0.5,0-0.7h0.2c6.3,5.4,27.7,17.1,58.7,17.5h0.2
			c0.2,0,0.7,0.4,0.5,2.5c-0.9,2-3.6,5.8-4.5,12.6C309,293.7,267.6,297.5,253.9,261.5z M260.9,285.4v-1.1
			c5.6,9.4,26.5,18.7,47.9,17.1c0.5,3.8,1.1,8.8,5.2,11.9v3.8c0,0-1.8,2-2.2,5.2C291,322.9,261.5,309.9,260.9,285.4z M311.2,332.4
			v0.7c-1.6,2.5-2,4-2.2,5.6v0.5c-9.7,1.3-21.6,0.4-29-4.7l0,0c-5.6-3.6-11.7-9.9-11.2-20.7v-0.2c11,13.9,31.3,16.2,41.6,15.5v0.2
			C310.3,330.8,311.2,330.8,311.2,332.4z M268.7,333.5c13.5,16.6,36,13,38.7,12.4c-1.8,8.1-0.7,14.8-0.5,14.6
			c-4.7,0.5-10.3,2.5-21.8-1.6C266,351.9,267.2,337.8,268.7,333.5z M274.8,359.6c9,11,31.5,8.1,33.5,7.4c1.1,4.3,2.5,7.2,4.7,9.7
			c-5.6,2.2-8.1,3.6-17.5,2.7C286.7,378.5,274.8,369.2,274.8,359.6z M292.3,429.7c-11.2-4.7-11.5-10.8-9.2-18
			c2.2-8.5,9.4-17.8,7.4-28.8c4.5,3.4,21.4,2.7,26.3-0.4l0,0c0,12.4-1.1,17.3-8.5,25C300.2,415.8,292.6,429.7,292.3,429.7z
			 M352.8,395.1c-5.2,11.9-5.6,20.5-4.3,42c0,7.9,1.6,17.1-4.5,22.7c-4.3,3.8-16.6,3.6-21.4,3.4c-2,0-5.4,0.5,0,2
			c8.8,1.8,11.7,1.3,18.9-0.2h0.2c-12.6,11.2-31,4.5-39.6-3.1c-4.7-4.5-9.7-13.7-0.7-32.4c5.6-10.1,13-18,16.4-22
			c4.5-5.8,6.5-13.7,7.2-20.5h0.2c4.7,3.6,17.1,7.9,27.2,7.6h0.2V395.1z M342,386.8c-19.3-4.7-31.5-17.3-26.8-40
			c8.1,23.8,42.5,36,66.8,24.3C372.9,389.7,351,388.8,342,386.8z M394.9,339.8c0,23.6-22.3,34.6-47.9,26.8
			c-20.9-6.3-33.7-29.7-26.3-47.2c0,0,1.4-2,1.6-2c4.5,43.2,59.1,42.7,72.6,22.3V339.8z M328.3,311L328.3,311
			c5.6-31.5,65-25.4,64.5,10.6c-0.2,11-5.6,17.5-12.8,20.9c-12.1,6.1-22.7,5.6-34-0.4C333,334.8,326.8,320.5,328.3,311z
			 M398.7,316.6h-0.2v0v-0.2c0-20.7-18-31.5-36.9-32.6c-25.6-1.3-38.9,12.4-40,25.9c-12.1-11.7,1.6-46.8,43.4-46.8h2
			C406.1,262.9,412,302.7,398.7,316.6z M409.7,282h-0.4c-2.2-11-14.8-27.9-40.5-27.2v0h-1.1c-29.9,0-43.4,11.2-48.6,21.6h-0.2v-2
			c0-25,26.8-36.4,49.5-36.4h2.5C405.9,237.9,413.8,264,409.7,282z M402.8,240.2h-0.2c-6.3-4.5-11.7-7-19.3-7.9
			c10.8-2.9,24.1-11.7,27.9-18.7C411.8,221.5,408.2,235,402.8,240.2z M379.4,226.5c-31.7,11.9-79.8,16.4-113.1,4
			c1.3-1.4,1.6-2.3,1.8-4.7l0,0c4.9-2.2,5.6-7.9,4.9-10.8c3.8-2,4.9-4.5,5.6-6.3c26.1,4.3,48.8,3.1,74.4-2.7
			c21.4-4.7,42-12.6,62.7-31.3v1.6C418,198.1,405.5,216.6,379.4,226.5z M417.8,212.7c0.2-2.7-0.2-5.2-0.4-7.4
			c2.9-6.3,5.2-16.6,5.2-23.8c0.9,1.1,5.2,2.9,8.5,3.8h0c-0.4,5.6-2.9,10.3-3.8,12.4C426.1,200.1,420.5,207.8,417.8,212.7z
			 M448,235.7c0-4.5,3.4-5.4,3.4-1.3C451.3,242.2,448,243.3,448,235.7z M447.3,226c0.2-2.9,2.3-3.6,2.3-0.9
			C449.5,230.3,447.3,230.7,447.3,226z M466.8,210.5L466.8,210.5C466.8,210.5,466.8,210.5,466.8,210.5c-0.7-1.1-0.9-4-4.7-4.9
			c0,1.6,0.9,11.5,0.9,18.4c-0.2,6.1,2,18.7,0.9,18.9c-9.4,3.1-7.6-16.2-9.9-29c-1.6-15.5-11.2-17.5-15.1-10.1
			c-1.6,2.7-3.1,9-4.7,12.4c-2.7,5.8-11.7,6.1-8.8-1.8c1.3-3.8,4.7-7.6,7-11c5.2-8.3,5.4-15.7,6.3-16.4c9.2,0.9,17.5,0.9,25.6-4
			c0,4.9,2.9,9.7,3.8,14.4C468.9,200.8,469.1,207.6,466.8,210.5C466.8,210.5,466.8,210.5,466.8,210.5z M454.3,178.1
			c-3.1,0.9-20.7,3.8-31.5-5.4h0v-0.2c4.9-2,7-3.1,9.9-7.2c15.5,3.4,34.4-3.4,42.5-12.1C474.3,164.2,466.4,174.5,454.3,178.1z
			 M481,129.5c-3.4,25.4-28.1,30.8-38.7,30.8v-0.2c11.7-5.4,21.4-17.5,23.6-33.7c1.3-9.2,2.3-16.6-2-27.2v-0.2h0.2
			C477.9,105.5,482.4,119.9,481,129.5z"/>
	</g>
</g>
</svg>
