<?xml version="1.0" encoding="utf-8"?>
<!-- Generator: Adobe Illustrator 18.1.1, SVG Export Plug-In . SVG Version: 6.00 Build 0)  -->
<svg version="1.1" id="Layer_1" xmlns="http://www.w3.org/2000/svg" xmlns:xlink="http://www.w3.org/1999/xlink" x="0px" y="0px"
	 viewBox="0 0 640 480" enable-background="new 0 0 640 480" xml:space="preserve">
<g>
	<path fill="#F44F25" d="M83.6,5.4c74.6,0,149.2,0,223.8,0c0,74.6,0,149.3,0,223.9c-74.6,0-149.2,0-223.8,0
		C83.6,154.6,83.6,80,83.6,5.4L83.6,5.4z"/>
	<path fill="#81B901" d="M330.6,5.4c74.6,0,149.2,0,223.8,0c0,74.6,0,149.2,0,223.9c-74.6,0-149.2,0-223.8,0
		C330.6,154.6,330.6,80,330.6,5.4L330.6,5.4z"/>
	<path fill="#02A4EF" d="M83.6,252.4c27.3-0.4,54.7-0.1,82-0.2c47.3,0.1,94.5-0.2,141.8,0.1c0,74.3,0,148.7,0,223
		c-74.6,0-149.2,0-223.8,0C83.6,401,83.7,326.7,83.6,252.4L83.6,252.4z"/>
	<path fill="#FFB902" d="M330.6,252.3c69.9-0.3,139.9,0,209.8-0.1c4.7,0.1,9.3-0.2,14,0.2c0,74.3,0,148.7,0,223
		c-74.6,0-149.2,0-223.8,0C330.6,401,330.6,326.7,330.6,252.3L330.6,252.3z"/>
</g>
</svg>
