<?xml version="1.0" encoding="utf-8"?>
<!-- Generator: Adobe Illustrator 22.1.0, SVG Export Plug-In . SVG Version: 6.00 Build 0)  -->
<svg version="1.1" id="Layer_1" xmlns="http://www.w3.org/2000/svg" xmlns:xlink="http://www.w3.org/1999/xlink" x="0px" y="0px"
	 viewBox="0 0 640 480" style="enable-background:new 0 0 640 480;" xml:space="preserve">
<g>
	<path d="M161.3,198.8c106,0,211.2,0,317.2,0c0,1.9,0.4,3.8,0.4,5.6c0,77-0.4,154.1,0.4,231.1c0.4,26.7-19.2,43.6-44,43.6
		c-77.4-0.4-154.8,0-232.3,0c-15,0-27.8-5.3-35.7-18.8c-3.4-6-6-13.2-6-19.9c-0.4-79.3-0.4-158.2-0.4-237.5
		C160.9,201.9,161.3,200.7,161.3,198.8z M277.1,378.5c0-32.7,0-65,0-98.1c-5.6,0-10.5-0.4-15.8,0c-1.1,0-3,1.9-3.8,3
		c-2.3,5.3-4.5,10.5-6.8,15.8c-4.9,12-9.8,23.7-15,36.1c-6-14.7-12-29.3-18-43.6c-4.9-11.7-4.9-11.3-18-11.7c-4.5,0-5.3,1.5-5.3,5.6
		c0,27.1-0.4,54.1,0,81.2c0,13.5-2.6,11.3,12.4,12c4.1,0,5.6-1.1,5.6-5.6c-0.4-10.9-0.4-22.2-0.8-33.1c0-7.1,0-14.3,0-23.3
		c3.8,10.1,6.8,18.8,10.1,27.4c4.9,12.8,4.9,12.8,18.4,12.4c3,0,4.5-1.1,5.3-3.8c3.4-9.8,7.1-19.2,10.5-28.9c0.8-2.6,1.9-4.9,3-7.9
		c0,20.7,0,41,0,61.6C265.8,378.5,271,378.5,277.1,378.5z M449.9,280.4c-6,0-11.3,0.4-16.2,0c-3.8-0.4-5.6,1.1-7.5,4.5
		c-6,10.5-12,21-18,31.6c-0.4,0-0.8,0-0.8,0c0-11.7,0-23.7,0-36.1c-4.9,0-8.6,0.4-12.8,0c-4.5-0.4-5.3,1.5-5.3,5.6
		c0,26.7,0,53.4,0,80.1c0,13.9,0,13.9,13.9,12.8c3.4-0.4,4.1-1.5,4.1-4.5c0-6.8,0.4-13.9,0-20.7c-0.4-5.3,1.9-9.4,5.6-13.5
		c1.1,1.9,1.9,3.4,2.6,4.9c5.3,10.1,10.5,20.3,15.8,30.1c0.8,1.5,2.3,3.4,3.4,3.4c6,0.4,12,0,18.8,0c-1.5-2.6-2.3-4.1-3-5.6
		c-8.6-15-16.9-30.4-25.6-45.5c-1.9-3-1.9-5.3,0-8.3c4.9-7.5,9.8-15.4,14.3-22.9C443.2,291.3,446.2,286.4,449.9,280.4z M379.7,378.5
		c0-5.6,0-10.9,0-16.9c-10.5,0-20.3,0-30.8,0c0-27.4,0-53.7,0-80.8c-6,0-11.7,0-17.3,0c0,32.7,0,65,0,97.7
		C347.7,378.5,363.5,378.5,379.7,378.5z M295.5,378.9c4.1,0,7.9-0.4,11.7,0c4.9,0.4,6.4-1.5,6.4-6.4c-0.4-28.9,0-57.5,0-86.4
		c0-1.9-0.4-3.4-0.4-5.3c-6,0-11.7,0-17.7,0C295.5,313.5,295.5,345.8,295.5,378.9z"/>
	<path d="M162.1,184.9c1.9-13.2,6.8-24.4,13.5-34.6c9-12.8,18-25.6,26.7-38.7c1.9-2.6,3.8-3.8,7.1-3.8c73.3,0,146.6,0,219.9,0
		c3.8,0,5.6,1.1,7.9,4.1c8.3,12.4,16.9,24.4,25.6,36.8c7.5,10.5,12.4,22.2,14.7,35.7C372.5,184.9,267.7,184.9,162.1,184.9z"/>
	<path d="M319.9,45.9c-43.2,0-86.1,0-129.3,0c-4.5,0-6.4-1.1-6.4-6c0.4-6,0-11.7,0-17.7c0-13.5,7.9-21.4,21.4-21.4
		c71.8,0,143.2,0,215,0c4.5,0,9.4,0,13.9,0c11.7,0,19.9,7.9,20.3,19.5c0.4,6.4,0,13.2,0,19.9c0.4,4.1-1.5,5.6-5.6,5.3
		c-36.8,0-74,0-110.9,0C332.3,45.9,326.3,45.9,319.9,45.9z"/>
	<path d="M319.5,94.7c-35,0-70.3,0-105.2,0c-4.9,0-6-1.5-6-6c0.4-7.9,0.4-15.8,0-23.3c0-4.5,1.5-5.6,5.6-5.6c41.7,0,83.4,0,124.8,0
		c28.6,0,56.7,0,85.3,0c4.9,0,7.1,1.1,6.8,6.4c-0.4,7.9-0.4,16.2,0,24.1c0,3.8-1.5,4.9-4.9,4.9C390.9,94.7,355.2,94.7,319.5,94.7
		L319.5,94.7z"/>
	<path d="M148.9,178.9c-8.3-11.3-15.8-21.8-23.3-32.3c-8.3-11.7-16.9-23.3-25.2-35c-2.3-3.4-3.4-6.8-0.4-9.8c1.9-1.9,5.6-3,8.3-3
		c1.9,0,4.1,1.9,5.3,3.8c13.5,18,26.7,36.5,39.8,54.9c0.8,1.1,1.1,3,0.8,4.1C152.7,166.9,150.8,172.2,148.9,178.9z"/>
	<path d="M490.9,177.8c-1.9-5.6-3.8-10.9-5.3-16.5c-0.4-1.5,0.4-3.4,1.1-4.5c13.2-18,26.3-36.5,39.5-54.5c3.4-4.5,8.3-5.3,12-2.6
		c3.8,2.6,4.9,7.1,1.5,11.7c-15.8,21.8-31.6,44-47.4,65.8C492,177.4,491.7,177.4,490.9,177.8z"/>
</g>
</svg>
