<?xml version="1.0" encoding="utf-8"?>
<!-- Generator: Adobe Illustrator 22.1.0, SVG Export Plug-In . SVG Version: 6.00 Build 0)  -->
<svg version="1.1" id="Layer_2_1_" xmlns="http://www.w3.org/2000/svg" xmlns:xlink="http://www.w3.org/1999/xlink" x="0px" y="0px"
	 viewBox="0 0 640 480" style="enable-background:new 0 0 640 480;" xml:space="preserve">
<style type="text/css">
	.st0{fill:#EB162B;}
</style>
<g>
	<path class="st0" d="M319.5,319.2c-8.1-14-15.8-27.1-23.1-40.3c-22.2-38.5-44.3-76.5-66.5-114.9c-1.4-2.3-1.8-4.1-0.5-6.8
		c29.4-51.1,59.3-102.7,88.7-153.8c0.5-0.5,0.9-1.4,1.4-2.3c0.9,1.4,1.8,2.7,2.7,4.1c29.4,50.2,58.4,100.4,87.8,151.1
		c1.8,2.7,1.8,5,0,8.1c-29.4,50.2-58.4,100.4-87.8,150.2C321.4,316,320.9,316.9,319.5,319.2z"/>
	<path class="st0" d="M596,478.9c-1.8,0-3.2,0-4.1,0c-58.4,0-116.7,0-175.1,0c-2.7,0-4.5-0.5-5.9-3.2
		c-29.4-51.1-59.3-101.8-88.7-152.9c-0.5-0.9-0.9-1.4-1.4-2.7c1.8,0,3.2-0.5,5-0.5c58.4,0,116.3,0,174.6,0c3.2,0,5,0.9,6.8,4.1
		c29,50.2,57.9,100.4,86.9,150.7C594.2,475.7,595.1,477.1,596,478.9z"/>
	<path class="st0" d="M44,478.4c1.4-2.3,1.8-3.6,2.7-5c29-50.2,57.9-100.4,86.9-150.2c1.4-2.7,3.2-3.6,5.9-3.6
		c58.4,0,116.3,0,174.6,0c1.4,0,2.7,0,4.5,0.5c-0.9,1.8-1.4,2.7-1.8,4.1c-29,50.2-58.4,100.9-87.3,151.1c-1.4,2.3-2.7,3.6-5.4,3.6
		c-58.8,0-118.1,0-176.9,0C46.3,478.9,45.8,478.4,44,478.4z"/>
</g>
</svg>
