<?xml version="1.0" encoding="utf-8"?>
<!-- Generator: Adobe Illustrator 18.1.1, SVG Export Plug-In . SVG Version: 6.00 Build 0)  -->
<svg version="1.1" id="Layer_1" xmlns="http://www.w3.org/2000/svg" xmlns:xlink="http://www.w3.org/1999/xlink" x="0px" y="0px"
	 viewBox="0 0 640 480" enable-background="new 0 0 640 480" xml:space="preserve">
<path fill="#01447B" d="M381.7,155.6c72.4-0.1,144.9-0.7,217.3,0.3c10.4,2.2,22.1,5.2,28.1,14.8c4.2,5.9,0.2,13.3-1.4,19.4
	c-11.2,20.5-25.3,39.1-37.4,59c-8.7,13.2-17.4,26.3-26.3,39.4c-7.6,11.2-15.1,22.5-22.5,33.9c-24.7,0-49.3,0.2-74-0.1
	c10-15.7,20.5-31.1,30.7-46.6c11.3-17.7,23.2-35.1,34.6-52.7c4.6-7,9.4-13.9,14.3-20.7c-8.8,0.1-17.6,0.2-26.4,0.4
	c-5.1,8.3-10.4,16.4-15.8,24.5c-11.6,16.4-22.6,33.3-33.6,50.2c-10,15.2-20.4,30.1-30.4,45.3c-22.5-0.2-45,0-67.5,0l-1.7-0.4
	c7.8-11.2,15.1-22.7,22.7-34c14.4-22.1,29.6-43.7,43.9-65.9c4.2-6.7,8.7-13.3,13.3-19.7c-8.9,0.2-17.9,0-26.8,0.4
	c-0.9,1.2-2.8,3.5-3.7,4.6c-18.2,26.6-36,53.5-53.6,80.5c-7.3,11.7-15.2,23-22.9,34.4c-23.1,0.1-46.2,0.3-69.3-0.2
	c7.1-11,14.4-21.7,21.7-32.6c4.9-7.3,9.8-14.6,14.5-22c13.6-19.6,26.5-39.7,40-59.4c1-1.4,2.9-4.2,3.8-5.5
	c-34.2-3.8-68.7-4.4-102.9-7.4c-64-4-128-8.5-192-12.7c-16.2-0.2-32.3-3.4-48.5-1.5c11.6-5.4,24.8-3.5,37.2-4.9
	C158.7,169.4,270.2,163.3,381.7,155.6"/>
<path fill="#01447B" d="M8.6,189.5c1.9-0.2,5.8-0.7,7.8-0.9c44.3,3.5,88.3,9.3,132.6,12.4c55.2,6.7,110.6,10.9,165.9,17
	c-8.4,14-17.9,27.2-27,40.7l4.6,1.8c-7.3-1.1-14.5-2.5-21.6-4.3c-74.1-19.2-148.2-38.3-222.3-57.4C35.2,195.4,22,191.7,8.6,189.5"/>
<path fill="#01447B" d="M9.7,200.2c1.4,0.1,4.2,0.4,5.6,0.6c80.8,22.5,160.9,47.9,241.3,71.8c6,1.9,12.1,4,18.1,6
	c-2.7,3.9-5.3,7.9-8,11.9c-6.5,10-13,19.9-19.4,29.9c-5.8-2.5-11.5-5.1-17.1-8c-23-12-46.2-23.7-69.2-35.7
	C110.8,250.8,60.9,224.1,9.7,200.2"/>
</svg>
