<?xml version="1.0" encoding="utf-8"?>
<!-- Generator: Adobe Illustrator 22.1.0, SVG Export Plug-In . SVG Version: 6.00 Build 0)  -->
<svg version="1.1" id="Layer_2_1_" xmlns="http://www.w3.org/2000/svg" xmlns:xlink="http://www.w3.org/1999/xlink" x="0px" y="0px"
	 viewBox="0 0 640 480" style="enable-background:new 0 0 640 480;" xml:space="preserve">
<path d="M326.5,0c71.9,1.5,140,27.7,192.6,87.7c85.3,97.4,74.6,242.7-23.4,328.4c-102.7,89.7-268.6,84.4-364.4-12.4
	c-48.2-48.7-71.9-108-67.4-176.3c6-90.2,52.3-155.4,131.3-197.7C233.9,9,275.9,0.4,326.5,0z M416.7,233.5
	c-2-35.3-19.8-68.1-56.1-89.8c-24.3-14.5-49.8-16.5-75.3-3.2c-38.3,19.9-59.7,52-61.7,94.8c-2,42.5,16.9,75.7,52.4,98.9
	c17.3,11.3,36.5,16.8,57.5,12.4C380.2,336.8,416.6,290.3,416.7,233.5z M435.9,39.3c70.9,49.6,113,115.2,112.7,203.5
	c-0.3,89.4-46.8,152.5-117.4,201.3c28.9-10.8,52.9-28.6,73.4-51.2c35-38.7,55.3-84.1,58.7-136.2C569.6,158.2,513.7,75.2,435.9,39.3z
	 M202.3,40.3c-82.8,38.2-142,134.4-122.4,242.2c6.5,35.8,21.8,67.7,43.8,96.8c23.9,31.7,66.2,61.3,84.1,63.6
	C137.4,394.5,91.6,331.6,91.2,243.2C90.8,155.6,132.1,89.8,202.3,40.3z M377.7,337.8c33.8-4.6,66.8-49.7,69.9-92.4
	c3.1-41.4-29.4-91.1-67-101.5c33.4,23.9,48.4,56.7,48.7,97.1C429.6,281.8,413.6,313.9,377.7,337.8z M258.6,144.1
	c-40.2,12.4-70.9,62.7-65.9,106.8c4.5,39.8,38.6,83.7,68.8,86.6c-34.7-23.7-51.2-55.4-50.9-96.2C211,201,225.4,168.2,258.6,144.1z"
	/>
</svg>
