<svg id="Layer_1" data-name="Layer 1" xmlns="http://www.w3.org/2000/svg" viewBox="0 0 640 480"><defs><style>.cls-1{fill:#007bbb;}</style></defs><title>Artboard 1</title><path class="cls-1" d="M3,229.79q0-20.13,0-40.27c0-3,.8-3.8,3.74-3.8,5.94,0,11.88,0,17.83,0a23.08,23.08,0,0,1,15.95,6.16c8.23,7.58,16.32,15.32,24.46,23,10,9.43,21.92,14.42,35.55,15.51a61.06,61.06,0,0,0,33.85-6.62,60,60,0,0,0,13.3-10q14.1-13.35,28.32-26.57a5.38,5.38,0,0,1,3.18-1.43c5.14-.14,10.29-.13,15.44,0A14.36,14.36,0,0,1,208.69,200q.1,40.43,0,80.86c0,2-1,3.22-2.75,3.24a108.06,108.06,0,0,1-11.92-.24A13.73,13.73,0,0,1,182,270.7c-.18-5.94,0-11.88-.09-17.82-.08-8.76-6.41-14.72-15.12-14.31a25.61,25.61,0,0,0-11,3.26c-5.48,3-9.93,7.21-14.47,11.36-6.46,5.9-12.9,11.84-19.59,17.47a37.37,37.37,0,0,1-9.08,5.45c-6.37,2.77-12.59,1.55-18.11-2.27a144.13,144.13,0,0,1-12.63-10.14c-6.75-5.89-13.21-12.13-20-17.92a29.69,29.69,0,0,0-17-7.23c-8.66-.73-15.08,6.39-15,14.27.07,9.13,0,18.25,0,27.38,0,3-.86,3.94-3.85,3.91-3.6,0-7.23.11-10.8-.27A14,14,0,0,1,3,270.38c0-.27,0-.53,0-.8Q3,249.69,3,229.79Z"/><path class="cls-1" d="M288,226.59c-7-8.56-14.88-14.87-26-15.51-4.48-.26-8.86.32-12.65,3.24a13.79,13.79,0,0,0-5.8,10.85c-.35,13.3,5,23.64,16.65,30.37a22.6,22.6,0,0,0,11.3,2.86c9.44.05,18.89,0,28.33.07a24.25,24.25,0,0,1,6,.69c6.53,1.73,9.7,6.27,10.22,13.33.23,3.06,0,6.15.08,9.23a2.13,2.13,0,0,1-2.21,2.36,13.21,13.21,0,0,1-1.43,0c-12.79,0-25.58.17-38.36,0-24.2-.4-41.18-12.08-51.66-33.64a50.5,50.5,0,0,1-4.7-22.36q0-19.66,0-39.32c0-2.42.6-3,3-3,12.95,0,25.89.1,38.84,0,12.14-.12,22.93,3.76,32.67,10.7,10.56,7.52,18.42,17.22,22.32,29.73A37,37,0,0,1,316,236.29c.14,7.1-3.9,11.37-11,11.5-10.18.19-20.38.24-30.56,0-8.94-.21-17.22-7.56-18.75-16.08,0-.21-.08-.42-.11-.63-.43-3.61.34-4.48,4-4.48H288Z"/><path class="cls-1" d="M404.31,254.19c7.52,5.55,14.48,11.91,22.76,16.44a8,8,0,0,0,1.86.89c2.59.62,3.23,2.36,3,4.78-.14,1.69,0,3.39,0,5.09-.05,2-.74,2.71-2.69,2.71-6.9,0-13.8,0-20.69,0a17.62,17.62,0,0,1-11-4c-10.25-8.08-20.46-16.2-30.74-24.23a12,12,0,0,1-4.79-9.6c-.11-3.5-.06-7,0-10.51,0-2.66,1-3.26,3.52-2.49,4.55,1.39,9,3.22,13.85,3.34,3.78.09,7.42-.3,10.74-2.24,3.7-2.16,5.5-5.39,4.84-8.7a15.22,15.22,0,0,0-4.53-7.88c-4.69-4.62-10.55-6.76-16.89-7.8a30.28,30.28,0,0,0-14.32.66c-2.57.82-5,2-6.32,4.49a12,12,0,0,0-1.42,5.08c-.11,13.21-.07,26.42-.06,39.64a31,31,0,0,1-1.62,11.27c-2.22,5.8-5.84,10.31-12,12.2a25.2,25.2,0,0,1-11,.43,1.94,1.94,0,0,1-1.8-2.07c0-.64,0-1.27,0-1.91q0-45.29,0-90.58c0-3.11.36-3.47,3.48-3.47,13.58,0,27.18-.41,40.75.14,17.3.71,32.35,7.25,44.37,19.92,4.67,4.93,8.2,10.64,9.3,17.59,1.69,10.72-1.73,19.33-10.52,25.7C409.72,250.9,407,252.46,404.31,254.19Z"/><path class="cls-1" d="M566.5,235c4.29-4.12,8.55-8.1,12.68-12.21,10-9.92,19.91-19.85,29.75-29.89,6.1-6.23,13.57-7.95,21.86-7,5,.56,7.95,5.44,7,11a19.35,19.35,0,0,1-5.48,10.71q-11.79,12-23.57,23.92c-4.7,4.78-4.41,10.29.76,14.54a47.75,47.75,0,0,0,14.05,7.59c3.19,1.18,6.29,2.53,8.77,5A17.81,17.81,0,0,1,638,271.52c0,3.24,0,6.47,0,9.71,0,2.16-.7,2.76-2.84,2.9-6.62.43-12.6-1.74-18.56-4.24-8.64-3.63-17.34-7.11-26-10.67a28.71,28.71,0,0,0-13.18-2.3,13.65,13.65,0,0,0-8.62,4.3c-2.85,2.77-5.62,5.64-8.65,8.21a20.53,20.53,0,0,1-13.54,4.69c-1.38,0-2.76,0-4.14,0-2,0-2.8-.78-2.82-2.78,0-1.49,0-3,0-4.46q0-43.53,0-87.06c0-3.49.44-4,3.91-4a77,77,0,0,1,10.49.15c7.5,1,12.46,7.11,12.48,15,0,10.82,0,21.65,0,32.47C566.5,234,566.5,234.55,566.5,235Z"/><path class="cls-1" d="M456.82,185.73c5.47,0,10.93.1,16.4,0,14.69-.32,27.24,4.89,38.09,14.57q1.13,1,2.19,2.09a1.62,1.62,0,0,1,.06,2.53c-3.89,3.84-7.65,7.83-11.75,11.42-3.95,3.46-7.94,3.36-12.19.28a26.56,26.56,0,0,0-12.72-5.39C466,210,458,217.89,459.16,228.84c1.53,14.13,9.51,23.66,21.91,29.83a17.24,17.24,0,0,0,10.4,1.5c5.63-.85,9.25-4.18,11.11-9.47,1.34-3.82,3.71-6.52,7.76-7.44a18.17,18.17,0,0,1,3.79-.4c4.51,0,9,0,13.53,0,2.48,0,3.13.71,2.94,3.17-.76,10-3.79,19.1-10.69,26.46-8.58,9.16-19.46,13.27-32,13.15-22.34-.21-48.4-18-54.53-46.41a52.77,52.77,0,0,1-1.11-10.57c-.13-13.26-.05-26.53-.05-39.8,0-2.51.6-3.11,3.07-3.12Z"/></svg>