<?xml version="1.0" encoding="utf-8"?>
<!-- Generator: Adobe Illustrator 22.1.0, SVG Export Plug-In . SVG Version: 6.00 Build 0)  -->
<svg version="1.1" id="Layer_1" xmlns="http://www.w3.org/2000/svg" xmlns:xlink="http://www.w3.org/1999/xlink" x="0px" y="0px"
	 viewBox="0 0 640 480" style="enable-background:new 0 0 640 480;" xml:space="preserve">
<style type="text/css">
	.st0{fill:#016C95;}
	.st1{fill:#FFFFFF;}
	.st2{fill:#FFC805;}
	.st3{fill:#FE0100;}
</style>
<g>
	<ellipse class="st0" cx="320" cy="240" rx="320" ry="124.7"/>
	<path d="M483.7,245.1c-3.4-9.5-6.5-18.7-9.5-27.9c-4.4-12.6-8.5-25.1-12.9-37.7c-0.3-1-0.7-1.4-1.7-1.4c-10.9,0-21.7,0-32.6,0
		c-1,0-1.4,0.3-1.7,1.4c-5.8,16.6-11.2,33.3-17,49.9c-6.8,20.4-13.9,40.8-20.7,61.5c-1,3.1-2,6.1-3.1,9.2c10.9,0,21.7,0,32.6,0
		c3.1,0,3.1,0,4.1-3.1c5.8-17.3,11.9-35,17.7-52.3c1.4-3.4,2.4-7.1,3.7-10.9c2.7,7.5,5.1,14.6,7.5,21.4c5.1,14.6,9.9,28.9,14.9,43.5
		c0.3,1,1,1.4,2,1.4c10.9,0,21.7,0,32.6,0c1,0,1.4-0.3,1.7-1.4c2-6.5,4.1-12.6,6.5-18.7c6.1-18.3,12.2-36.3,18.7-54.7
		c4.1-12.2,8.2-24.5,12.6-36.7c1-3.4,2-6.8,3.4-10.2c-11.9,0-23.8,0-35.7,0C498.7,200.6,491.2,222.7,483.7,245.1z"/>
	<path d="M322.4,208.4c-8.2,23.8-16.3,47.6-24.1,71c1,0,1.7,0,2.4,0c11.2,0,22.4,0,33.6,0c0.7,0,1.4,0,1.7-1
		c2-6.5,4.4-12.9,6.5-19.4c3.1-8.8,6.1-18,9.2-26.8c2.7-7.8,5.1-15.3,7.8-23.1c0-0.3,0.7-0.7,1.4-0.7c11.9,0,23.8,0,35.7,0
		c1.4,0,2-0.3,2.4-1.7c2.4-6.8,4.8-13.9,7.1-20.7c1-2.4,1.7-5.1,2.7-7.5c-38,0-76.1,0-114.1,0c-3.4,9.9-6.8,20-10.2,29.9
		C296.9,208.4,309.5,208.4,322.4,208.4z"/>
	<path class="st1" d="M100.9,299.8c2.4-7.1,4.8-14.3,7.1-21.4c7.8-23.1,15.6-46.2,23.4-69.3c3.4-9.9,6.8-19.7,10.2-29.6
		c0.3-0.7,1-1.4,1.4-1.4c16,0,31.9,0,47.9,0c0,0,0.3,0,0.7,0c-2,24.1-4.1,48.2-5.8,73c2-3.4,3.7-6.5,5.8-9.5
		c6.5-10.9,13.2-21.7,19.7-33c5.8-9.9,11.5-19.7,17.3-29.2c0.7-1,1.4-1.7,2.7-1.7c15.6,0,31.6,0,47.6,0c-1,2.7-1.7,5.4-2.7,8.2
		c-4.8,13.9-9.5,27.9-14.3,41.8c-6.8,19.7-13.6,39.4-20,59.4c-1.4,3.7-2.4,7.5-3.7,10.9c-0.3,0.3-0.7,1-1,1c-9.9,0-19.7,0-30.2,0
		c10.2-30.2,20.4-60.5,30.6-90.4c0,0,0,0-0.3,0c-1,1.7-2,3.4-3.1,4.8c-8.5,14.6-17.3,28.9-25.8,43.5c-7.8,13.2-16,26.5-23.8,40.1
		c-1,1.7-2,2.4-3.7,2c-7.8,0-15.6,0-23.4,0c-0.7,0-1.4,0-2,0c0-2.4,0.3-4.8,0.3-7.1c0.3-3.4,0.7-6.8,1-10.5c0.3-5.1,1-10.5,1.4-15.6
		c0.3-3.4,0.3-6.5,0.7-9.9c0.3-5.4,1-10.9,1.4-16.3c0.3-3.4,0.3-7.1,0.7-10.5c0.3-5.1,1-10.2,1.4-15.3c0-2,0.3-3.7,0.3-5.8
		c-2.4,6.8-4.8,13.9-7.1,20.7c-3.4,10.5-7.1,21.1-10.5,31.3c-4.1,12.2-8.5,24.5-12.6,37c-0.3,0.7-0.3,1.4-1.4,1.4
		C120.9,299.8,111.1,299.8,100.9,299.8z"/>
	<path class="st1" d="M483.7,245.1c7.5-22.4,15.3-44.5,22.8-66.6c11.9,0,23.4,0,35.7,0c-1,3.4-2.4,6.8-3.4,10.2
		c-4.1,12.2-8.5,24.5-12.6,36.7c-6.1,18.3-12.2,36.3-18.7,54.7c-2,6.1-4.4,12.6-6.5,18.7c-0.3,1-0.7,1.4-1.7,1.4
		c-10.9,0-21.7,0-32.6,0c-1,0-1.7-0.3-2-1.4c-4.8-14.6-9.9-28.9-14.9-43.5c-2.4-7.1-4.8-13.9-7.5-21.4c-1.4,4.1-2.4,7.5-3.7,10.9
		c-5.8,17.3-11.9,35-17.7,52.3c-1,3.1-1,3.1-4.1,3.1c-10.9,0-21.4,0-32.6,0c1-3.1,2-6.1,3.1-9.2c6.8-20.4,13.9-40.8,20.7-61.5
		c5.8-16.6,11.2-33.3,17-49.9c0.3-1,0.7-1.4,1.7-1.4c10.9,0,21.7,0,32.6,0c1,0,1.4,0.3,1.7,1.4c4.1,12.6,8.5,25.1,12.9,37.7
		C477.3,226.4,480.3,235.6,483.7,245.1z"/>
	<path class="st2" d="M322.4,208.4c-12.9,0-25.5,0-38.4,0c3.4-10.2,6.8-20,10.2-29.9c38,0,76.1,0,114.1,0c-1,2.7-1.7,5.1-2.7,7.5
		c-2.4,6.8-4.8,13.9-7.1,20.7c-0.3,1.4-1,1.7-2.4,1.7c-11.9,0-23.8,0-35.7,0c-0.3,0-1,0.3-1.4,0.7c-2.7,7.8-5.4,15.3-7.8,23.1
		c-3.1,8.8-6.1,18-9.2,26.8c-2,6.5-4.4,12.9-6.5,19.4c-0.3,1-1,1-1.7,1c-11.2,0-22.4,0-33.6,0c-0.7,0-1.7,0-2.4,0
		C306.1,255.6,314.2,232.2,322.4,208.4z"/>
	<path class="st3" d="M291.8,299.4c1-3.4,2-6.8,3.1-9.9c0.3-1.4,1-2.7,1.4-4.4c0.3-1.4,1-1.7,2.4-1.7c10.5,0,20.7,0,31.3,0
		c3.7,0,3.7,0,2.7,3.4c-1,3.7-2.4,7.5-3.7,11.2c-0.3,0.3-1.4,1-2,1c-6.8,0-13.6,0-20.4,0c-4.1,0-8.2,0-12.6,0
		C293.5,299.4,292.8,299.4,291.8,299.4z"/>
</g>
</svg>
