<svg id="Layer_1" data-name="Layer 1" xmlns="http://www.w3.org/2000/svg" viewBox="0 0 640 480"><defs><style>.cls-1{fill:#03558b;}.cls-2{fill:#02548a;}.cls-3{fill:#00538a;}.cls-4{fill:#02548b;}.cls-5{fill:#07578d;}</style></defs><title>Artboard 1</title><path class="cls-1" d="M77.14,282.2V249.89H533.62a36.32,36.32,0,0,1-2.38,3.3c-8.22,8.91-16.5,17.86-24.82,26.4a9.7,9.7,0,0,1-6.3,2.64q-209.39.2-418.75,0A22.72,22.72,0,0,1,77.14,282.2Z"/><path class="cls-2" d="M552,198.86v32.48H95.49c9.9-10.63,19.11-20.89,28.72-30.89a9.54,9.54,0,0,1,6.24-1.52H552Z"/><path class="cls-3" d="M77.34,149H456.25a12.91,12.91,0,0,1,9.9,3.73c9.9,9.57,20.23,18.88,31,28.88H77.34Z"/><path class="cls-3" d="M131.44,299.66H552v32.78H172.16a12.15,12.15,0,0,1-9.27-3.56c-8.85-8.52-18-16.77-27-25.08Z"/><path class="cls-1" d="M185.83,132.88c10.3-11.12,19.8-21.49,29.47-31.59a9.41,9.41,0,0,1,6.17-1.65H552V133Z"/><path class="cls-4" d="M77.21,381.52v-33H443c-1,1.25-1.65,2.31-2.54,3.3-8.32,9-16.5,18.12-25.12,27a9,9,0,0,1-5.61,2.9q-165.43.2-330.82,0A11,11,0,0,1,77.21,381.52Z"/><path class="cls-2" d="M77.21,84.46V51H351a12.25,12.25,0,0,1,9.31,3.6c9.51,9.11,19.28,18,28.91,26.9.83.79,1.58,1.68,2.84,3.07Z"/><path class="cls-3" d="M552,397V430.5H277.55a12.18,12.18,0,0,1-9.24-3.66c-10.33-9.9-20.93-19.54-32.11-29.9Z"/><path class="cls-5" d="M274.19,36.87C284.52,25.68,294,15.22,303.89,4.92a7,7,0,0,1,4.62-1.75H549.79a14.85,14.85,0,0,1,2.21.36V36.9Z"/><path class="cls-2" d="M77.24,477.9V444.53H354.82c-1.22,1.49-2.08,2.67-3.07,3.76-8.45,9.14-16.87,18.35-25.51,27.3a9.7,9.7,0,0,1-6.27,2.71q-119.25.2-238.5,0A16.68,16.68,0,0,1,77.24,477.9Z"/></svg>