<svg id="Layer_1" data-name="Layer 1" xmlns="http://www.w3.org/2000/svg" viewBox="0 0 640 480"><title>Artboard 1</title><g id="Layer_2" data-name="Layer 2"><g id="Layer_1-2" data-name="Layer 1-2"><path d="M16,195.17H29.7l32.11,56.69V195.17H76.09v86.15H62.35L30.28,224.8v56.52H16Z"/><path d="M116.13,195.17h14.49l28.86,86.15H144.63l-5.87-17.75H108.14L102,281.32H87.19ZM123.46,218l-10.07,29.59h20.08Z"/><path d="M209.9,206.88,199.32,217.6q-5.57-8.9-11.35-8.9a6.35,6.35,0,0,0-4.6,1.73,5.3,5.3,0,0,0-1.79,3.89,7.31,7.31,0,0,0,1.28,4.1q1.74,2.58,10.48,11.07,8.18,7.85,9.91,9.9a34.59,34.59,0,0,1,6.16,9.61,27.14,27.14,0,0,1,1.81,10q0,10.6-6.38,17.51t-16.65,6.91a22.47,22.47,0,0,1-14-4.51q-5.91-4.44-10.19-14.11l12-8.32q5.42,11.42,12.47,11.42a8.48,8.48,0,0,0,6.18-2.46,7.74,7.74,0,0,0,2.5-5.68,10.73,10.73,0,0,0-1.89-5.86Q193.42,251,187,245q-12.26-11.48-15.84-17.72a24.84,24.84,0,0,1-3.58-12.45,21.82,21.82,0,0,1,6-15.37A19.24,19.24,0,0,1,188.19,193a20.8,20.8,0,0,1,10.7,3Q204,199,209.9,206.88Z"/><path d="M224.9,195.17h16.92q16.36,0,24.31,4.66T279.23,215q5.15,10.48,5.15,24.48a55.79,55.79,0,0,1-2.88,18.3,38.8,38.8,0,0,1-8,13.85,27.65,27.65,0,0,1-11,7.61q-5.91,2.11-20.49,2.11H224.9ZM239.08,211v54.33h6.63q9.79,0,14.21-2.58t7.22-8.68a35.82,35.82,0,0,0,2.81-15q0-13.72-6.68-21.28-6-6.8-19.33-6.8Z"/><path d="M320.89,195.17h14.49l28.86,86.15H349.4l-5.87-17.75H312.9l-6.1,17.75H292ZM328.22,218l-10.06,29.59h20.08Z"/><path d="M439.66,268.73l13.06,19.38H435.81l-6.63-9.8a33.72,33.72,0,0,1-18.34,5.17q-16.91,0-28.09-13.38t-11.19-31.89a49.72,49.72,0,0,1,5.21-22.7,42.13,42.13,0,0,1,14.31-16.42A34.57,34.57,0,0,1,410.66,193q16,0,27.44,13.24t11.46,32.27Q449.56,256,439.66,268.73Zm-8.93-13.24a33.15,33.15,0,0,0,4.54-17.1q0-12.24-7.2-20.79T410.66,209A22.25,22.25,0,0,0,393,217.36q-7.1,8.32-7.1,21.14,0,14.29,8.94,22.61a22.73,22.73,0,0,0,15.89,6.5,20.86,20.86,0,0,0,9.61-2.29L407,245.48h17Z"/><path d="M471.65,195.17H493v86.15H478.84V210.57H463.38Z"/><path d="M542,193a22.37,22.37,0,0,1,14.16,4.63q5.94,4.63,9.18,14.14t3.24,26.5q0,17.16-3.29,26.71t-8.85,14q-5.56,4.48-14,4.48A22.39,22.39,0,0,1,528.17,279q-5.77-4.51-9-13.71t-3.26-26.18q0-23.72,6.38-34.38Q529.34,193,542,193Zm.33,15.58a9,9,0,0,0-6.42,2.67q-2.8,2.67-4.28,9.17t-1.48,19q0,16.34,3.38,22.58t8.78,6.24q5.19,0,8.25-5.92,3.72-7.14,3.72-23.9,0-17-3.33-23.43T542.33,208.58Z"/><path d="M600.51,193a22.37,22.37,0,0,1,14.16,4.63q5.94,4.63,9.18,14.14t3.24,26.5q0,17.16-3.29,26.71T615,279q-5.56,4.48-14,4.48A22.39,22.39,0,0,1,586.68,279q-5.77-4.51-9-13.71t-3.26-26.18q0-23.72,6.38-34.38Q587.85,193,600.51,193Zm.33,15.58a9,9,0,0,0-6.42,2.67q-2.8,2.67-4.28,9.17t-1.48,19q0,16.34,3.38,22.58t8.78,6.24q5.19,0,8.25-5.92,3.72-7.14,3.72-23.9,0-17-3.33-23.43T600.84,208.58Z"/></g></g></svg>