<?xml version="1.0" encoding="utf-8"?>
<!-- Generator: Adobe Illustrator 22.1.0, SVG Export Plug-In . SVG Version: 6.00 Build 0)  -->
<svg version="1.1" id="Layer_4" xmlns="http://www.w3.org/2000/svg" xmlns:xlink="http://www.w3.org/1999/xlink" x="0px" y="0px"
	 viewBox="0 0 640 480" style="enable-background:new 0 0 640 480;" xml:space="preserve">
<style type="text/css">
	.st0{fill:#EC6F1B;}
</style>
<path class="st0" d="M231.6,373.2C343.7,281.3,454.8,191.6,564.8,102c2.1,1.1,4.3,2.1,6.4,4.3c-2.1,7.5-3.2,17.1-7.5,23.5
	c-22.4,33.1-44.8,67.3-69.4,98.2c-59.8,74.7-119.6,149.5-192.2,212.5c-14.9,13.9-32,24.6-49.1,36.3c-4.3,3.2-13.9,4.3-17.1,2.1
	c-3.2-3.2-4.3-11.7-2.1-17.1c8.5-23.5,19.2-45.9,28.8-69.4c3.2-6.4,6.4-12.8,6.4-21.4c-3.2,2.1-6.4,3.2-9.6,6.4
	c-21.4,19.2-42.7,38.4-65.1,56.6c-8.5,7.5-18.2,13.9-28.8,18.2c-52.3,21.4-96.1-11.7-96.1-73.7c-1.1-99.3,0-197.5,0-296.8
	c0-20.3,0-39.5,0-59.8C69.3,4.8,81-3.8,97.1,1.6c8.5,3.2,17.1,7.5,24.6,12.8c69.4,48.1,123.9,110,168.7,181.5
	c14.9,24.6,14.9,49.1,5.3,74.7c-11.7,33.1-34.2,59.8-56.6,85.4c-3.2,3.2-5.3,6.4-7.5,9.6C231.6,366.8,231.6,367.8,231.6,373.2z"/>
</svg>
