<?xml version="1.0" encoding="utf-8"?>
<!-- Generator: Adobe Illustrator 22.1.0, SVG Export Plug-In . SVG Version: 6.00 Build 0)  -->
<svg version="1.1" id="Layer_2_1_" xmlns="http://www.w3.org/2000/svg" xmlns:xlink="http://www.w3.org/1999/xlink" x="0px" y="0px"
	 viewBox="0 0 640 480" style="enable-background:new 0 0 640 480;" xml:space="preserve">
<style type="text/css">
	.st0{fill:#AC8B40;}
</style>
<path class="st0" d="M440,335.8c-0.4,23.2-0.2,46.4-0.2,70.3c65.8-37.2,120.6-131.7,95.8-237.7C512,67.5,415.2-4.9,309.4,0.3
	C201,5.5,113.9,85.9,100,196.3c-11.8,93.8,41.5,179,102.4,210.5c0-20.2-0.4-40.1,0.2-60c0.3-8.6-2.6-14.9-7.8-21.7
	c-8.7-11.6-16.9-23.8-23.1-36.8c-9.4-19.6-15.2-40.4-13.7-62.5c34.9-4.8,56.8,11.5,60,43c-0.1,50.6-0.1,93.7,0.2,147.7
	c0.1,9.9-2.8,17.7-9.6,24.7c-11.2,11.5-22.1,23.2-35.1,36.9c23.2,0,44,0.2,64.8-0.2c2.6-0.1,5.4-2.6,7.5-4.5
	c19.2-17.3,26.6-24,29.4-36.4c0.9-2.4,1.5-5,1.5-7.8c0-1.2,0-2.4,0-3.7c0.3-6,0.3-13.3,0.3-22.6c0-53.7,0.9-71.7-0.2-125.3l-0.3-0.2
	c0-5.8,0-11.6-0.1-17.3c-0.2-37.1-20.6-58.3-57.7-57.7c-20,0.3-39.9,4.3-60.4,6.6c-2.7-7.6,0.7-13.4,10.1-14.9
	c17.3-2.7,34.8-6.9,52.1-6.6c46.2,0.9,71.5,28.1,71.6,74.3c0.1,68.3,0.1,136.5,0.1,204.7c0,4.1,0,8.2,0,12.7c20.1,0,38.7,0,58.7,0
	c0-4.6,0-8.8,0-12.9c0-38.3,0.2-76.6,0-115c-0.2-41.8,0.4-83.6-1.8-125.3c-1.5-30-18.1-51.2-47.3-61.5c-22.2-7.8-45.4-9-68-4.8
	c-23.8,4.4-46.9,11.9-70.7,18.2c0.8-6.7,2.9-13.5,12.4-17.4c28.4-11.5,57.9-17,88.3-17.7c59.1-1.3,103.7,36.6,102.3,100.7
	c-1.1,53.6-0.2,107.3-0.2,161c0,42.2,0,42.3,31.2,70.4c2.2,2,5,4.5,7.5,4.5c20.8,0.4,41.6,0.2,64.8,0.2
	c-13-13.7-23.9-25.5-35.1-36.9c-6.9-7-9.6-14.8-9.6-24.7c0.3-64,0.3-128.1,0.1-192.1c-0.2-49.5-22.3-83.6-64.9-99.8
	c-31.6-12.1-64.7-13.1-97.4-7.9c-28.2,4.5-55.8,13-82.7,19.5c-0.4,1.4-0.3,0.2,0.2-0.7c36.1-64.5,123.9-96.5,193.5-70.5
	c109.5,41,144.4,169.3,70.9,260C442.6,329.6,440.1,332.9,440,335.8z"/>
</svg>
