<svg xmlns="http://www.w3.org/2000/svg" xmlns:xlink="http://www.w3.org/1999/xlink" viewBox="0 0 640 480"><defs><style>.cls-1{fill:none;}.cls-2{fill:#74bc2a;}.cls-3{fill:url(#linear-gradient);}</style><linearGradient id="linear-gradient" x1="293.55" y1="194.03" x2="105.51" y2="382.08" gradientUnits="userSpaceOnUse"><stop offset="0" stop-color="#74bc2a"/><stop offset="1" stop-color="#b9e106"/></linearGradient></defs><title>Asset 5</title><g id="Layer_2" data-name="Layer 2"><g id="Bitcoin"><path class="cls-1" d="M0,0V480H640V0ZM282,477.5,120.29,398.09V95.43L282,176.6Zm237.76-81.17L358.05,316.92V150.42l161.66-55ZM281.07,164.85,120.29,83.67,358.93,2.5,519.71,83.67Z"/><polygon class="cls-2" points="120.28 83.67 281.07 164.85 519.72 83.67 358.93 2.5 120.28 83.67"/><polygon class="cls-3" points="120.28 398.09 281.95 477.5 281.95 176.6 120.28 95.43 120.28 398.09"/><polygon class="cls-2" points="358.05 316.92 519.72 396.33 519.72 95.43 358.05 150.42 358.05 316.92"/></g></g></svg>