<?xml version="1.0" encoding="utf-8"?>
<!-- Generator: Adobe Illustrator 22.1.0, SVG Export Plug-In . SVG Version: 6.00 Build 0)  -->
<svg version="1.1" id="Layer_1" xmlns="http://www.w3.org/2000/svg" xmlns:xlink="http://www.w3.org/1999/xlink" x="0px" y="0px"
	 viewBox="0 0 640 480" style="enable-background:new 0 0 640 480;" xml:space="preserve">
<style type="text/css">
	.st0{fill:#015696;}
</style>
<g>
	<g>
		<path class="st0" d="M0,162.9c2.4-6.7,7.3-9.1,14.2-8.5c5.5,0.3,11.2,0,16.7,0c8.5,0,14.5,3.6,18.8,10.9
			c18.5,33.6,37,67,55.5,100.3c0.6,0.9,1.2,1.8,2.4,2.7c0-1.2,0-2.4,0-3.6c-0.3-31.5-0.3-63.3-0.6-94.8c0-9.1,3.6-13,12.7-13
			c84.8,0,169.4,0,254.2,0c7.6,0,9.7,2.1,9.7,9.7c0,2.4,0,4.8,0,7.6c0,4.5-3,7.3-7.3,7.3c-0.9,0-1.5,0-2.4,0
			c-76.4,0-152.7,0-229.1,0c-1.5,0-3,0-4.8,0c0,1.8-0.3,3.6-0.3,5.2c0,41.2,0,82.1,0,123.3c0,1.5,0,3.3-0.3,4.8
			c-0.6,5.2-4.2,8.8-9.4,8.8c-7.3,0-14.5,0.3-22.1,0c-6.4-0.3-11.2-3.3-14.2-9.1c-14.8-26.4-29.4-52.7-44.2-78.8
			c-4.8-8.5-9.4-17.3-15.2-25.8c0,1.2-0.3,2.4-0.3,3.3c0.3,32.7,0.3,65.5,0.6,97.9c0,3.9-0.6,7.6-3.9,10c-3.9,3-22.7,3-26.4,0
			c-1.8-1.5-2.7-4.2-4.2-6.4C0,264.7,0,213.8,0,162.9z"/>
		<path class="st0" d="M639.4,265.3c-2.4,4.8-6.7,6.4-11.8,6.4c-24.8-0.3-49.4,0-74.2,0c-1.5,0-2.7,0-5.2,0
			c1.2,4.2,2.1,8.2,3.6,11.5c10.3,22.1,40.3,20.3,50.3,5.8c3-4.2,6.7-5.8,11.8-5.5c4.5,0.3,9.1,0,13.9,0c6.1,0,8.5,3.3,6.7,9.4
			c-2.1,7.9-6.7,13.9-12.7,19.4c-20.9,17.9-61.8,20.9-84.5-0.3c-11.2-10.3-17.9-23.3-20-38.2c-3.3-20.6,0.9-39.4,14.5-55.5
			c10.6-12.4,24.2-18.8,40.6-20c13.6-0.9,27,0.9,39.1,8.2c16.4,9.7,24.5,24.8,27.6,43c0.3,1.2,0.6,2.1,0.9,3.3
			C639.4,256.5,639.4,260.8,639.4,265.3z M605.8,247.7c0.9-12.1-12.1-23.9-27.3-24.8c-14.8-0.9-28.5,10.9-29.1,24.8
			C568.2,247.7,587,247.7,605.8,247.7z"/>
		<path class="st0" d="M184.2,271.4c-0.6,11.5,9.4,24.2,21.2,27c13,2.7,24.5,0.3,32.7-11.2c2.1-2.7,4.8-4.2,8.2-4.2
			c5.8,0,11.5,0,17.3,0c4.5,0,7.3,3.3,6.1,7.9c-2.7,10.9-9.4,19.1-18.8,24.8c-10.6,6.7-22.1,10-34.5,10.3c-11.5,0.3-22.7-1.2-33-7
			c-17.6-9.7-27.6-24.8-31.2-44.2c-3.6-20.3-0.3-39.1,12.7-55.8c10.6-13.6,25.2-20.6,42.1-21.5c13.9-0.9,27.6,1.2,39.4,8.8
			c16.7,10.3,24.5,26.1,27,44.8c0.3,3,0.6,6.1,0.6,9.1c0,7.6-3.3,10.9-10.9,10.9c-24.8,0-50,0-74.8,0
			C187.6,271.4,186.1,271.4,184.2,271.4z M242.1,247.7c-1.5-10-6.7-17.3-15.2-21.5c-11.2-5.5-22.1-4.8-32.1,2.7
			c-6.1,4.5-9.7,10.9-10.3,18.8C203.9,247.7,222.7,247.7,242.1,247.7z"/>
		<path class="st0" d="M371.8,236.5c-1.2,0-2.4,0-3.6,0c-5.5,0.6-9.4-0.6-12.4-6.1c-3-6.1-9.7-8.2-16.1-8.5
			c-5.5-0.3-10.9,0.3-16.4,1.2c-2.1,0.3-4.5,2.1-6.1,3.9c-4.2,5.2-2.7,11.8,3.6,14.2c6.7,2.4,13.6,4.2,20.6,6.1
			c8.2,2.4,16.7,3.9,24.5,7c12.4,4.5,21.2,13,23,27c2.4,16.1-4.2,29.1-18.8,37c-9.4,5.2-19.4,7.6-30.3,7.9
			c-12.1,0.3-23.9-0.6-35.5-5.8c-7.6-3.3-14.2-7.9-19.4-14.2c-3.6-4.8-5.8-10-5.5-16.1c0.3-3.9,2.4-6.7,6.4-6.7c5.8-0.3,11.5,0,17,0
			c3,0,5.8,0.9,7,3.9c3,7.6,9.1,10.9,16.4,12.4c7.6,1.8,14.8,1.5,22.1-1.2c2.7-0.9,5.5-3,7-5.5c3.6-5.5,1.2-11.2-5.2-13.6
			c-6.7-2.4-13.3-3.9-20-6.1c-9.1-2.7-18.5-4.5-27-8.2c-9.7-3.9-17-10.9-19.7-21.5c-4.2-15.5,3-30.9,17.6-39.1
			c7-3.9,14.5-6.1,22.7-7c16.4-1.8,32.4-0.3,47,8.8c7.9,4.8,13.6,11.2,15.5,20.6c1.2,6.4-0.9,8.8-7.3,8.8
			C376.4,236.5,374.2,236.5,371.8,236.5z"/>
		<path class="st0" d="M403.6,225c-2.4,0-4.2,0-6.4,0c-4.8-0.3-7.6-2.7-7.6-7.9c0-2.7,0-5.5,0-8.2c0.3-4.5,2.7-7,7.3-7
			c7-0.3,7-0.3,7-7c0-9.7,0-19.1,0-28.8c0-7.3,3.6-10.9,10.9-10.9c3.3,0,7,0,10.3,0c7.6,0,10.6,3.3,10.9,10.9c0,10.3,0,20.6,0,30.9
			c0,1.5,0,3,0.3,4.8c7,0,13.6,0,20.3,0c6.4,0,8.2,2.1,8.2,8.2c0,2.4,0,4.8,0,7c0,5.2-2.4,7.6-7.9,7.6c-6.4,0-12.4,0-18.8,0
			c-0.6,0-1.2,0-1.8,0.3c0,1.5-0.3,2.7-0.3,3.9c0,16.4,0,32.4,0,48.8c0,2.4,0,5.2,0.6,7.6c1.5,7.9,7.9,13.6,16.1,13.9
			c1.5,0,3.3,0,4.8,0c3.9,0.3,6.4,3,6.4,6.7s0,7.3,0,10.9c0,3.3-2.4,6.7-5.8,6.7c-8.5,0-17,0.6-25.2-1.2
			c-17.6-3.6-29.1-18.8-29.4-37.3c0-18.5,0-37.3,0-55.8C403.6,228.4,403.6,226.8,403.6,225z"/>
		<path class="st0" d="M505.2,239.9c0,23.9,0,48.2,0,72.1c0,9.1-3,12.1-12.1,12.1c-3.6,0-7.6,0-11.2,0c-5.8,0-9.4-3.3-9.4-9.7
			c-0.3-8.8-0.3-17.6-0.3-26.4c0-40.3-0.3-80.6-0.3-121.2c0-8.2,3.3-11.5,11.5-11.8c3.6,0,7.6,0,11.2,0c7,0.3,10.6,3.9,10.6,10.9
			C505.2,190.8,505.2,215.3,505.2,239.9z"/>
		<path class="st0" d="M578.5,181.1c-15.8,0-31.8,0-47.6,0c-5.8,0-7-1.5-7.3-7.3c0-0.9,0-1.8,0-2.7c0-6.1,1.5-7.6,7.6-8.2
			c22.7-2.4,45.5-4.5,68.2-7c9.4-0.9,18.8-1.8,28.2-2.7c3.9-0.3,7.6,2.4,8.2,6.7c0.3,4.8,0.3,9.4,0,14.2c-0.3,4.2-3.6,7-8.8,7
			C610.9,181.4,594.8,181.1,578.5,181.1z"/>
	</g>
</g>
</svg>
