<?xml version="1.0" encoding="utf-8"?>
<!-- Generator: Adobe Illustrator 21.1.0, SVG Export Plug-In . SVG Version: 6.00 Build 0)  -->
<svg version="1.1" id="Ñëîé_1" xmlns="http://www.w3.org/2000/svg" xmlns:xlink="http://www.w3.org/1999/xlink" x="0px" y="0px"
	 viewBox="0 0 640 480" style="enable-background:new 0 0 640 480;" xml:space="preserve">
<style type="text/css">
	.st0{opacity:0.31;fill:url(#SVGID_1_);}
	.st1{fill:url(#SVGID_2_);}
	.st2{fill:url(#SVGID_3_);}
	.st3{fill:url(#SVGID_4_);}
</style>
<g>
	
		<radialGradient id="SVGID_1_" cx="220.5988" cy="-1701.7151" r="253.8219" gradientTransform="matrix(0.6643 2.300000e-03 -5.000000e-04 0.1473 172.6053 679.8315)" gradientUnits="userSpaceOnUse">
		<stop  offset="0" style="stop-color:#666666"/>
		<stop  offset="0.17" style="stop-color:#939393"/>
		<stop  offset="0.3443" style="stop-color:#BABABA"/>
		<stop  offset="0.5173" style="stop-color:#D8D8D8"/>
		<stop  offset="0.6863" style="stop-color:#EEEEEE"/>
		<stop  offset="0.8494" style="stop-color:#FBFBFB"/>
		<stop  offset="1" style="stop-color:#FFFFFF"/>
	</radialGradient>
	<path class="st0" d="M488.6,430.3c-0.1,20.7-75.6,37.1-168.7,36.8c-93.1-0.3-168.5-17.3-168.4-38c0.1-20.6,75.6-37.1,168.7-36.8
		C413.2,392.6,488.6,409.6,488.6,430.3z"/>
	<g>
		<g>
			<linearGradient id="SVGID_2_" gradientUnits="userSpaceOnUse" x1="239.4791" y1="186.0317" x2="344.9033" y2="186.0317">
				<stop  offset="0" style="stop-color:#77C4F3"/>
				<stop  offset="0.5" style="stop-color:#42B5F0"/>
				<stop  offset="1" style="stop-color:#449AD8"/>
			</linearGradient>
			<path class="st1" d="M302.9,8.3c67.2,62,40.9,123.4,9.4,181.4c-32,58.4-68.4,113.6-34.1,173.9c-61.2-66-38.7-120.8-8.1-177.5
				C300.4,129.9,339.8,71.6,302.9,8.3z"/>
			<linearGradient id="SVGID_3_" gradientUnits="userSpaceOnUse" x1="332.0208" y1="243.5399" x2="394.9386" y2="243.5399">
				<stop  offset="0" style="stop-color:#77C4F3"/>
				<stop  offset="0.5" style="stop-color:#42B5F0"/>
				<stop  offset="1" style="stop-color:#449AD8"/>
			</linearGradient>
			<path class="st2" d="M364.6,122.8c-48.4,38.7-33.5,81.5-14.9,122.2c18.9,41,40.9,80,14.9,119.2c44.5-41.7,31.9-79.8,13.8-119.6
				C360.5,205.1,336.6,163.8,364.6,122.8z"/>
		</g>
		<linearGradient id="SVGID_4_" gradientUnits="userSpaceOnUse" x1="318.1016" y1="320.7231" x2="321.0132" y2="437.1788">
			<stop  offset="0" style="stop-color:#FBE5A1"/>
			<stop  offset="0.5" style="stop-color:#F2C544"/>
			<stop  offset="1" style="stop-color:#E7A544"/>
		</linearGradient>
		<path class="st3" d="M429.9,404H360c-2,0-3.9-0.8-5.3-2.2c-1.4-1.4-2.1-3.3-2.1-5.3c0.4-12.1-6.4-18.7-12.1-22.1
			c-11.3-6.7-28.4-6.7-39.7,0c-5.7,3.4-12.5,10-12.1,22.1c0.1,2-0.7,3.9-2.1,5.3c-1.4,1.4-3.3,2.2-5.3,2.2h-71.3
			c-4.1,0-7.3-3.3-7.3-7.3c0-4.1,3.3-7.3,7.3-7.3h64.4c1.7-11.7,8.2-21.3,18.9-27.6c16.1-9.5,38.6-9.5,54.6,0
			c10.7,6.3,17.2,15.9,18.9,27.6h63c4.1,0,7.3,3.3,7.3,7.3C437.2,400.7,434,404,429.9,404z"/>
	</g>
</g>
</svg>
