<?xml version="1.0" encoding="utf-8"?>
<!-- Generator: Adobe Illustrator 19.1.1, SVG Export Plug-In . SVG Version: 6.00 Build 0)  -->
<svg version="1.1" id="Layer_1" xmlns="http://www.w3.org/2000/svg" xmlns:xlink="http://www.w3.org/1999/xlink" x="0px" y="0px"
	 viewBox="80 0 640 480" style="enable-background:new 80 0 640 480;" xml:space="preserve">
<style type="text/css">
	.st0{fill:url(#SVGID_1_);}
	.st1{fill:url(#SVGID_2_);}
	.st2{fill:url(#SVGID_3_);}
	.st3{fill:url(#SVGID_4_);}
	.st4{fill:url(#SVGID_5_);}
	.st5{fill:url(#SVGID_6_);}
	.st6{fill:url(#SVGID_7_);}
	.st7{fill:url(#SVGID_8_);}
	.st8{fill:url(#SVGID_9_);}
	.st9{fill:url(#SVGID_10_);}
	.st10{fill:url(#SVGID_11_);}
	.st11{fill:url(#SVGID_12_);}
	.st12{fill:url(#SVGID_13_);}
	.st13{fill:url(#SVGID_14_);}
	.st14{fill:url(#SVGID_15_);}
	.st15{fill:url(#SVGID_16_);}
	.st16{fill:url(#SVGID_17_);}
	.st17{fill:url(#SVGID_18_);}
	.st18{fill:url(#SVGID_19_);}
	.st19{fill:url(#SVGID_20_);}
	.st20{fill:url(#SVGID_21_);}
	.st21{fill:url(#SVGID_22_);}
	.st22{fill:url(#SVGID_23_);}
	.st23{fill:url(#SVGID_24_);}
	.st24{fill:url(#SVGID_25_);}
	.st25{fill:url(#SVGID_26_);}
	.st26{fill:url(#SVGID_27_);}
	.st27{fill:url(#SVGID_28_);}
	.st28{fill:url(#SVGID_29_);}
	.st29{fill:url(#SVGID_30_);}
	.st30{fill:url(#SVGID_31_);}
	.st31{fill:url(#SVGID_32_);}
	.st32{fill:url(#SVGID_33_);}
	.st33{fill:url(#SVGID_34_);}
	.st34{fill:url(#SVGID_35_);}
	.st35{display:none;}
	.st36{display:inline;fill:url(#SVGID_36_);}
	.st37{display:inline;fill:url(#SVGID_37_);}
	.st38{display:inline;fill:url(#SVGID_38_);}
	.st39{display:inline;fill:url(#SVGID_39_);}
	.st40{display:inline;fill:url(#SVGID_40_);}
	.st41{display:inline;fill:url(#SVGID_41_);}
	.st42{display:inline;fill:url(#SVGID_42_);}
	.st43{display:inline;fill:url(#SVGID_43_);}
	.st44{fill:url(#SVGID_44_);}
	.st45{fill:url(#SVGID_45_);}
	.st46{fill:url(#SVGID_46_);}
	.st47{fill:url(#SVGID_47_);}
	.st48{fill:url(#SVGID_48_);}
	.st49{fill:url(#SVGID_49_);}
	.st50{fill:url(#SVGID_50_);}
	.st51{fill:url(#SVGID_51_);}
	.st52{display:inline;fill:url(#SVGID_52_);}
	.st53{display:inline;fill:url(#SVGID_53_);}
	.st54{display:inline;fill:url(#SVGID_54_);}
	.st55{display:inline;fill:url(#SVGID_55_);}
	.st56{display:inline;fill:url(#SVGID_56_);}
	.st57{display:inline;fill:url(#SVGID_57_);}
	.st58{display:inline;fill:url(#SVGID_58_);}
	.st59{display:inline;fill:url(#SVGID_59_);}
	.st60{fill:url(#SVGID_60_);}
	.st61{fill:url(#SVGID_61_);}
	.st62{fill:url(#SVGID_62_);}
	.st63{fill:url(#SVGID_63_);}
	.st64{fill:url(#SVGID_64_);}
	.st65{fill:url(#SVGID_65_);}
	.st66{fill:url(#SVGID_66_);}
	.st67{fill:url(#SVGID_67_);}
	.st68{display:inline;fill:url(#SVGID_68_);}
	.st69{display:inline;fill:url(#SVGID_69_);}
	.st70{display:inline;fill:url(#SVGID_70_);}
	.st71{display:inline;fill:url(#SVGID_71_);}
	.st72{display:inline;fill:url(#SVGID_72_);}
	.st73{display:inline;fill:url(#SVGID_73_);}
	.st74{display:inline;fill:url(#SVGID_74_);}
	.st75{display:inline;fill:url(#SVGID_75_);}
</style>
<g id="Layer_3">
	<g>
		<g>
			<g>
				
					<linearGradient id="SVGID_1_" gradientUnits="userSpaceOnUse" x1="1273.8771" y1="-157.1567" x2="1404.205" y2="-6.9946" gradientTransform="matrix(-1 0 0 -1 1864.2816 200)">
					<stop  offset="0" style="stop-color:#868181"/>
					<stop  offset="0.4004" style="stop-color:#959090"/>
					<stop  offset="0.7862" style="stop-color:#B2ADAD"/>
					<stop  offset="1" style="stop-color:#EDE8E8"/>
				</linearGradient>
				<path class="st0" d="M518.3,212.4c-1.3-0.2-12.8-3.2-14.2-3.1c-1.4,0-3.6,2.2-4.9,4.3c-0.8,1.2-1.6,2-2.4,5.5
					c0,0-96.6,18.1-96.7,19.4s0.4,2.6,1.5,3.8l140.8,148.8c0.8,0.8,1.7,1.6,2.8,2.2c1.1,0.7,2.3,1.3,3.7,1.8s2.9,1,4.4,1.4
					c1.6,0.4,3.3,0.7,5,0.9c1.5,0.2,3,0.3,4.5,0.4s3.1,0.1,4.7,0c1.6-0.1,3.1-0.2,4.7-0.4c1.6-0.2,3.1-0.5,4.6-0.8L670,376
					c3.2-0.7,6-1.7,8.2-2.8c2.2-1.1,3.9-2.5,5-3.9s1.6-2.9,1.5-4.4s-0.9-3-2.4-4.5l-149.8-143L518.3,212.4L518.3,212.4z"/>
			</g>
			<g>
				<g>
					
						<linearGradient id="SVGID_2_" gradientUnits="userSpaceOnUse" x1="1276.9192" y1="-146.7721" x2="1427.1877" y2="26.3652" gradientTransform="matrix(-1 0 0 -1 1864.2816 200)">
						<stop  offset="0" style="stop-color:#5C5757"/>
						<stop  offset="0.2185" style="stop-color:#868181"/>
						<stop  offset="0.5777" style="stop-color:#959090"/>
						<stop  offset="0.9343" style="stop-color:#B2ADAD"/>
						<stop  offset="1" style="stop-color:#EDE8E8"/>
					</linearGradient>
					<path class="st1" d="M522.4,210.1c-1.3-0.2-97.2-48.1-98.6-48c-1.4,0-3.6,2.2-4.9,4.3c-0.8,1.2-1.6,2-2.4,5.5
						c0,0-12.3,63-12.4,64.3s0.4,2.6,1.5,3.8l140.8,148.8c0.8,0.8,1.7,1.6,2.8,2.2c1.1,0.7,2.4,1.3,3.7,1.8c1.4,0.5,2.9,1,4.4,1.4
						c1.6,0.4,3.3,0.7,5,0.9c1.5,0.2,3,0.3,4.5,0.4s3.1,0.1,4.7,0c1.6-0.1,3.1-0.2,4.7-0.4c1.6-0.2,3.1-0.5,4.6-0.8l93.2-20.6
						c3.2-0.7,6-1.7,8.2-2.8c2.2-1.1,3.9-2.5,5-3.9s1.6-2.9,1.5-4.4s-0.9-3-2.4-4.4l-149.7-143L522.4,210.1L522.4,210.1z"/>
				</g>
				<g>
					
						<linearGradient id="SVGID_3_" gradientUnits="userSpaceOnUse" x1="1373.724" y1="-55.6766" x2="1355.042" y2="-38.832" gradientTransform="matrix(-1 0 0 -1 1864.2816 200)">
						<stop  offset="0" style="stop-color:#ECE7E7"/>
						<stop  offset="0.2523" style="stop-color:#A29D9D"/>
						<stop  offset="0.411" style="stop-color:#544F4F"/>
						<stop  offset="0.5345" style="stop-color:#959090"/>
						<stop  offset="0.9343" style="stop-color:#B2ADAD"/>
						<stop  offset="1" style="stop-color:#EDE8E8"/>
					</linearGradient>
					<path class="st2" d="M421.4,176.2c-2.3-2-3.7-4-4.4-6.1c0.7-2.2,1.4-2.9,2-3.9c1.3-2,3.5-4.2,4.9-4.3c1.4,0,97.3,47.9,98.6,48
						l14.1,5.1l82.9,79.1l-40,11.4c0,0-20.2,13.2-22.2,13.2L421.4,176.2z"/>
				</g>
				
					<linearGradient id="SVGID_4_" gradientUnits="userSpaceOnUse" x1="1315.1586" y1="-135.0293" x2="1296.9363" y2="-136.8668" gradientTransform="matrix(-1 0 0 -1 1864.2816 200)">
					<stop  offset="0" style="stop-color:#676262"/>
					<stop  offset="0.2191" style="stop-color:#746F6F"/>
					<stop  offset="0.409" style="stop-color:#686363"/>
					<stop  offset="0.5531" style="stop-color:#4B4646"/>
					<stop  offset="0.7145" style="stop-color:#555050"/>
					<stop  offset="1" style="stop-color:#7D7878"/>
				</linearGradient>
				<path class="st3" d="M554.3,309.4c3.3,3.9,3.3,7.9,2.2,14.3l-8.6,66.4c0.8,0.8,0.2,0.2,1.3,0.8c1.1,0.7,2.1,1.3,3.4,2.1
					c1.3,0.7,2.8,1.3,4.3,1.9s3.1,0.9,5,1.3c1.5,0.3,3.5,0,5.1,0.1c1.5,0.1,12.4-1.7,13.9-2l93.2-20.6c3.2-0.7,6-1.7,8.2-2.8
					c2.2-1.1,3.9-2.5,5-3.9s1.6-2.9,1.5-4.4s-0.5-3.1-0.9-4.9l-12.6-63c-0.5-1.8-1.1-4.8-3.4-7.2L554.3,309.4z"/>
				<g>
					<g>
						
							<linearGradient id="SVGID_5_" gradientUnits="userSpaceOnUse" x1="1175.4691" y1="-140.466" x2="1301.0815" y2="-140.466" gradientTransform="matrix(-1 0 0 -1 1864.2816 200)">
							<stop  offset="0" style="stop-color:#676262"/>
							<stop  offset="0.2191" style="stop-color:#746F6F"/>
							<stop  offset="0.409" style="stop-color:#686363"/>
							<stop  offset="0.5531" style="stop-color:#4B4646"/>
							<stop  offset="0.7145" style="stop-color:#555050"/>
							<stop  offset="1" style="stop-color:#7D7878"/>
						</linearGradient>
						<path class="st4" d="M563.2,396.3c6.3,0.3,16.3-1.6,17.8-1.9l93.1-20.7c3.2-0.7,6-1.7,8.2-2.8s3.9-2.5,5-3.9s1.6-2.9,1.5-4.4
							s-0.5-3.1-0.9-4.9l-12.5-63c-0.5-1.8-1.9-7.4-4.1-10.1l-91.2,30.2c-7.8,0.4-14,1.5-14.5,7.5L563.2,396.3z"/>
					</g>
				</g>
				<g>
					<g>
						
							<linearGradient id="SVGID_6_" gradientUnits="userSpaceOnUse" x1="1182.2522" y1="-125.3532" x2="1300.4828" y2="-149.0408" gradientTransform="matrix(-1 0 0 -1 1864.2816 200)">
							<stop  offset="0" style="stop-color:#534E4E"/>
							<stop  offset="2.656040e-002" style="stop-color:#363131"/>
							<stop  offset="4.714480e-002" style="stop-color:#676262"/>
							<stop  offset="0.2191" style="stop-color:#746F6F"/>
							<stop  offset="0.409" style="stop-color:#686363"/>
							<stop  offset="0.5531" style="stop-color:#4B4646"/>
							<stop  offset="0.7145" style="stop-color:#555050"/>
							<stop  offset="1" style="stop-color:#7D7878"/>
						</linearGradient>
						<path class="st5" d="M665,294.6l-7.6-5.4l14-4.6c2.2,2.7,3.6,8.3,4.1,10.1l12.5,63c0.4,1.8,0.8,3.4,0.9,4.9
							c0.1,1.5-0.4,3-1.5,4.4c-0.1,0.1-0.1,0.1-0.2,0.2c-2.4-12.4-13-66.5-14.4-70.1C671.1,293,665,294.6,665,294.6z"/>
					</g>
					
						<linearGradient id="SVGID_7_" gradientUnits="userSpaceOnUse" x1="1152.0013" y1="-130.5154" x2="1488.5714" y2="70.1726" gradientTransform="matrix(-1 0 0 -1 1864.2816 200)">
						<stop  offset="0" style="stop-color:#3D3838"/>
						<stop  offset="0.2185" style="stop-color:#585353"/>
						<stop  offset="0.2835" style="stop-color:#464141"/>
						<stop  offset="0.3572" style="stop-color:#474242"/>
						<stop  offset="0.512" style="stop-color:#524D4D"/>
						<stop  offset="0.6248" style="stop-color:#797474"/>
						<stop  offset="0.6746" style="stop-color:#757070"/>
						<stop  offset="0.7344" style="stop-color:#959090"/>
						<stop  offset="0.7915" style="stop-color:#858080"/>
						<stop  offset="0.8858" style="stop-color:#D7D2D2"/>
					</linearGradient>
					<path class="st6" d="M517.7,144.6c1.4,0.2,2.8,0.4,4.2,0.7c1.3,0.3,2.6,0.7,3.7,1.1c1.2,0.4,2.2,0.9,3.2,1.5
						c0.9,0.5,1.8,1.1,2.4,1.8l138.9,133.5c1.4,1.3,2.2,2.7,2.4,4.1s-0.1,2.7-0.9,4c-0.8,1.3-2.2,2.4-4,3.4s-4.1,1.8-6.8,2.4
						l-77.7,17c-1.2,0.3-2.4,0.5-3.6,0.6c-1.2,0.1-2.4,0.2-3.6,0.3c-1.2,0-2.4,0-3.7,0c-1.2-0.1-2.4-0.2-3.6-0.3
						c-1.6-0.2-3.2-0.5-4.7-0.9s-2.9-0.8-4.2-1.4c-1.3-0.5-2.5-1.1-3.6-1.8c-1.1-0.7-2-1.4-2.7-2.2l-131.8-138
						c-1.1-1.2-1.6-2.4-1.6-3.5c0-1.2,0.5-2.3,1.5-3.4c1-1.1,2.4-2.1,4.2-2.9s4.1-1.5,6.6-2l72.4-13.6c1.1-0.2,2.1-0.4,3.2-0.5
						s2.2-0.2,3.3-0.2c1.1,0,2.2,0,3.3,0C515.6,144.4,516.6,144.5,517.7,144.6L517.7,144.6z"/>
				</g>
				<g>
					
						<linearGradient id="SVGID_8_" gradientUnits="userSpaceOnUse" x1="1450.8943" y1="44.2947" x2="1296.5417" y2="-119.5518" gradientTransform="matrix(-1 0 0 -1 1864.2816 200)">
						<stop  offset="0" style="stop-color:#ACA7A7"/>
						<stop  offset="0.2185" style="stop-color:#666161"/>
						<stop  offset="0.3572" style="stop-color:#615C5C"/>
						<stop  offset="0.512" style="stop-color:#5E5959"/>
						<stop  offset="0.6972" style="stop-color:#6C6767"/>
						<stop  offset="0.8977" style="stop-color:#7A7575"/>
						<stop  offset="0.996" style="stop-color:#868181"/>
					</linearGradient>
					<path class="st7" d="M552.3,304c5.2,5,11.3,8.5,16.5,10.7c-0.1,0-0.1,0-0.2,0c-1.6-0.2-3.2-0.5-4.7-0.9s-2.9-0.8-4.2-1.4
						c-1.3-0.5-2.5-1.1-3.6-1.8c-1.1-0.7-2-1.4-2.7-2.2l-131.8-138c-1.1-1.2-1.6-2.4-1.6-3.5c0-0.6,0.1-1.2,0.4-1.8
						C443.8,191.2,541.6,293.6,552.3,304z"/>
				</g>
				<g>
					
						<linearGradient id="SVGID_9_" gradientUnits="userSpaceOnUse" x1="1255.4138" y1="-114.9361" x2="1292.1647" y2="105.6448" gradientTransform="matrix(-1 0 0 -1 1864.2816 200)">
						<stop  offset="0" style="stop-color:#3F3A3A"/>
						<stop  offset="0.3572" style="stop-color:#615C5C"/>
						<stop  offset="0.5246" style="stop-color:#777272"/>
						<stop  offset="0.7344" style="stop-color:#959090"/>
						<stop  offset="0.7915" style="stop-color:#B2ADAD"/>
						<stop  offset="0.8858" style="stop-color:#EDE8E8"/>
					</linearGradient>
					<path class="st8" d="M668.4,285.2c-7.4-7.3-140.1-136.4-140.1-136.4s-4.6-3.3-16.1-4.5c0.7,0,1.4,0,2.2,0
						c1.1,0.1,2.2,0.1,3.2,0.3c1.4,0.2,2.8,0.4,4.2,0.7c1.3,0.3,2.6,0.7,3.7,1.1c1.2,0.4,2.2,0.9,3.2,1.5c0.9,0.5,1.8,1.1,2.4,1.8
						l139,133.5c1.4,1.3,2.2,2.7,2.4,4.1s-0.1,2.7-0.9,4c-0.8,1.3-2.2,2.4-4,3.4c-1.2,0.7-2.6,1.2-4.1,1.7
						C668.1,293.6,672.6,289.4,668.4,285.2z"/>
				</g>
			</g>
		</g>
		<g>
			<g>
				
					<linearGradient id="SVGID_10_" gradientUnits="userSpaceOnUse" x1="1412.6249" y1="-188.4307" x2="1542.9541" y2="-38.2673" gradientTransform="matrix(-1 0 0 -1 1864.2816 200)">
					<stop  offset="0" style="stop-color:#868181"/>
					<stop  offset="0.4004" style="stop-color:#959090"/>
					<stop  offset="0.7862" style="stop-color:#B2ADAD"/>
					<stop  offset="1" style="stop-color:#EDE8E8"/>
				</linearGradient>
				<path class="st9" d="M379.6,243.7c-1.3-0.2-12.8-3.2-14.2-3.1c-1.4,0-3.6,2.2-4.9,4.3c-0.8,1.2-1.6,2-2.4,5.5
					c0,0-96.6,18.1-96.7,19.4c-0.1,1.3,0.4,2.6,1.5,3.8l140.8,148.8c0.8,0.8,1.7,1.6,2.8,2.2c1.1,0.7,2.3,1.3,3.7,1.8s2.9,1,4.4,1.4
					c1.6,0.4,3.3,0.7,5,0.9c1.5,0.2,3,0.3,4.5,0.4s3.1,0.1,4.7,0s3.1-0.2,4.7-0.4s3.1-0.5,4.6-0.8l93.2-20.6c3.2-0.7,6-1.7,8.2-2.8
					s3.9-2.5,5-3.9s1.6-2.9,1.5-4.4s-0.9-3-2.4-4.4l-149.8-143L379.6,243.7L379.6,243.7z"/>
			</g>
			<g>
				<g>
					
						<linearGradient id="SVGID_11_" gradientUnits="userSpaceOnUse" x1="1418.9952" y1="-178.5997" x2="1569.2639" y2="-5.4621" gradientTransform="matrix(-1 0 0 -1 1864.2816 200)">
						<stop  offset="0" style="stop-color:#5C5757"/>
						<stop  offset="0.2185" style="stop-color:#868181"/>
						<stop  offset="0.5777" style="stop-color:#959090"/>
						<stop  offset="0.9343" style="stop-color:#B2ADAD"/>
						<stop  offset="1" style="stop-color:#EDE8E8"/>
					</linearGradient>
					<path class="st10" d="M380.3,241.9c-1.3-0.2-97.2-48.1-98.6-48c-1.4,0-3.6,2.2-4.9,4.3c-0.8,1.2-1.6,2-2.4,5.5
						c0,0-12.3,63-12.4,64.3c-0.1,1.3,0.4,2.6,1.5,3.8l140.8,148.8c0.8,0.8,1.7,1.6,2.8,2.2c1.1,0.7,2.3,1.3,3.7,1.8s2.9,1,4.4,1.4
						c1.6,0.4,3.3,0.7,5,0.9c1.5,0.2,3,0.3,4.5,0.4s3.1,0.1,4.7,0s3.1-0.2,4.7-0.4c1.6-0.2,3.1-0.5,4.6-0.8l93.2-20.6
						c3.2-0.7,6-1.7,8.2-2.8s3.9-2.5,5-3.9s1.6-2.9,1.5-4.4s-0.9-3-2.4-4.4L394.4,247L380.3,241.9L380.3,241.9z"/>
				</g>
				<g>
					
						<linearGradient id="SVGID_12_" gradientUnits="userSpaceOnUse" x1="1515.799" y1="-87.5538" x2="1497.1184" y2="-70.7106" gradientTransform="matrix(-1 0 0 -1 1864.2816 200)">
						<stop  offset="0" style="stop-color:#ECE7E7"/>
						<stop  offset="0.2523" style="stop-color:#A29D9D"/>
						<stop  offset="0.411" style="stop-color:#544F4F"/>
						<stop  offset="0.5345" style="stop-color:#959090"/>
						<stop  offset="0.9343" style="stop-color:#B2ADAD"/>
						<stop  offset="1" style="stop-color:#EDE8E8"/>
					</linearGradient>
					<path class="st11" d="M279.3,208.1c-2.3-2-3.7-4-4.4-6.1c0.7-2.2,1.4-2.9,2-3.9c1.3-2,3.5-4.2,4.9-4.3c1.4,0,97.3,47.9,98.6,48
						l14.1,5.1l82.9,79.1l-40,11.4c0,0-20.2,13.2-22.2,13.2L279.3,208.1z"/>
				</g>
				
					<linearGradient id="SVGID_13_" gradientUnits="userSpaceOnUse" x1="1457.2621" y1="-166.9289" x2="1439.0399" y2="-168.7664" gradientTransform="matrix(-1 0 0 -1 1864.2816 200)">
					<stop  offset="0" style="stop-color:#676262"/>
					<stop  offset="0.2191" style="stop-color:#746F6F"/>
					<stop  offset="0.409" style="stop-color:#686363"/>
					<stop  offset="0.5531" style="stop-color:#4B4646"/>
					<stop  offset="0.7145" style="stop-color:#555050"/>
					<stop  offset="1" style="stop-color:#7D7878"/>
				</linearGradient>
				<path class="st12" d="M412.2,341.2c3.3,3.9,3.3,7.9,2.2,14.3l-8.6,66.4c0.8,0.8,0.2,0.2,1.3,0.9c1.1,0.7,2.1,1.3,3.4,2.1
					c1.3,0.7,2.8,1.3,4.3,1.9s3.1,0.9,5,1.3c1.5,0.3,3.5,0,5.1,0.1c1.5,0.1,12.4-1.7,13.9-2l93.2-20.6c3.2-0.7,6-1.7,8.2-2.8
					s3.9-2.5,5-3.9s1.6-2.9,1.5-4.4s-0.5-3.1-0.9-4.9l-12.6-63c-0.5-1.8-1.1-4.8-3.4-7.2L412.2,341.2z"/>
				<g>
					<g>
						
							<linearGradient id="SVGID_14_" gradientUnits="userSpaceOnUse" x1="1317.4691" y1="-172.366" x2="1443.1816" y2="-172.366" gradientTransform="matrix(-1 0 0 -1 1864.2816 200)">
							<stop  offset="0" style="stop-color:#676262"/>
							<stop  offset="0.2191" style="stop-color:#746F6F"/>
							<stop  offset="0.409" style="stop-color:#686363"/>
							<stop  offset="0.5531" style="stop-color:#4B4646"/>
							<stop  offset="0.7145" style="stop-color:#555050"/>
							<stop  offset="1" style="stop-color:#7D7878"/>
						</linearGradient>
						<path class="st13" d="M421.1,428.2c6.3,0.3,16.3-1.6,17.8-1.9l93.2-20.7c3.2-0.7,6-1.7,8.2-2.8c2.2-1.2,3.9-2.5,5-3.9
							s1.6-2.9,1.5-4.4s-0.5-3.1-0.9-4.9l-12.5-63c-0.5-1.8-1.9-7.4-4.1-10.1l-91.2,30.2c-7.8,0.4-14,1.5-14.5,7.5L421.1,428.2z"/>
					</g>
				</g>
				<g>
					<g>
						
							<linearGradient id="SVGID_15_" gradientUnits="userSpaceOnUse" x1="1324.3429" y1="-157.2513" x2="1442.5735" y2="-180.9388" gradientTransform="matrix(-1 0 0 -1 1864.2816 200)">
							<stop  offset="0" style="stop-color:#534E4E"/>
							<stop  offset="2.656040e-002" style="stop-color:#363131"/>
							<stop  offset="4.714480e-002" style="stop-color:#676262"/>
							<stop  offset="0.2191" style="stop-color:#746F6F"/>
							<stop  offset="0.409" style="stop-color:#686363"/>
							<stop  offset="0.5531" style="stop-color:#4B4646"/>
							<stop  offset="0.7145" style="stop-color:#555050"/>
							<stop  offset="1" style="stop-color:#7D7878"/>
						</linearGradient>
						<path class="st14" d="M522.9,326.5l-7.6-5.4l14-4.6c2.2,2.7,3.6,8.3,4.1,10.1l12.5,63c0.4,1.8,0.8,3.4,0.9,4.9s-0.4,3-1.5,4.4
							c-0.1,0.1-0.1,0.1-0.2,0.2c-2.4-12.4-13-66.5-14.4-70.1C529,324.8,522.9,326.5,522.9,326.5z"/>
					</g>
					
						<linearGradient id="SVGID_16_" gradientUnits="userSpaceOnUse" x1="1283.0573" y1="-170.5941" x2="1621.7196" y2="34.2755" gradientTransform="matrix(-1 0 0 -1 1864.2816 200)">
						<stop  offset="0" style="stop-color:#3D3838"/>
						<stop  offset="0.2185" style="stop-color:#585353"/>
						<stop  offset="0.2835" style="stop-color:#464141"/>
						<stop  offset="0.3572" style="stop-color:#474242"/>
						<stop  offset="0.512" style="stop-color:#524D4D"/>
						<stop  offset="0.6248" style="stop-color:#797474"/>
						<stop  offset="0.6746" style="stop-color:#757070"/>
						<stop  offset="0.7344" style="stop-color:#959090"/>
						<stop  offset="0.7915" style="stop-color:#858080"/>
						<stop  offset="0.8858" style="stop-color:#D7D2D2"/>
					</linearGradient>
					<path class="st15" d="M375.6,176.5c1.4,0.2,2.8,0.4,4.2,0.7c1.3,0.3,2.6,0.7,3.7,1.1c1.2,0.4,2.2,0.9,3.2,1.5
						c0.9,0.5,1.8,1.1,2.4,1.8l138.8,133.5c1.4,1.3,2.2,2.7,2.4,4.1c0.2,1.4-0.1,2.7-0.9,4s-2.2,2.4-4,3.4s-4.1,1.8-6.8,2.4
						l-77.7,17c-1.2,0.3-2.4,0.5-3.6,0.6s-2.4,0.2-3.6,0.3c-1.2,0-2.4,0-3.7,0c-1.2-0.1-2.4-0.2-3.6-0.3c-1.6-0.2-3.2-0.5-4.7-0.9
						s-2.9-0.8-4.2-1.4c-1.3-0.5-2.5-1.1-3.6-1.8c-1.1-0.7-2-1.4-2.7-2.2l-131.8-138c-1.1-1.2-1.6-2.4-1.6-3.5
						c0-1.2,0.5-2.3,1.5-3.4c1-1.1,2.4-2.1,4.2-2.9s4.1-1.5,6.6-2l72.4-13.6c1.1-0.2,2.1-0.4,3.2-0.5s2.2-0.2,3.3-0.2s2.2,0,3.3,0
						C373.5,176.3,374.5,176.4,375.6,176.5L375.6,176.5z"/>
				</g>
				<g>
					
						<linearGradient id="SVGID_17_" gradientUnits="userSpaceOnUse" x1="1593.0188" y1="12.4207" x2="1438.6672" y2="-151.4247" gradientTransform="matrix(-1 0 0 -1 1864.2816 200)">
						<stop  offset="0" style="stop-color:#ACA7A7"/>
						<stop  offset="0.2185" style="stop-color:#666161"/>
						<stop  offset="0.3572" style="stop-color:#615C5C"/>
						<stop  offset="0.512" style="stop-color:#5E5959"/>
						<stop  offset="0.6972" style="stop-color:#6C6767"/>
						<stop  offset="0.8977" style="stop-color:#7A7575"/>
						<stop  offset="0.996" style="stop-color:#868181"/>
					</linearGradient>
					<path class="st16" d="M410.2,335.9c5.2,5.1,11.3,8.5,16.5,10.7c-0.1,0-0.1,0-0.2,0c-1.6-0.2-3.2-0.5-4.7-0.9s-2.9-0.8-4.2-1.4
						c-1.3-0.5-2.5-1.1-3.6-1.8c-1.1-0.7-2-1.4-2.7-2.2l-131.8-138c-1.1-1.2-1.6-2.4-1.6-3.5c0-0.6,0.1-1.2,0.4-1.8
						C301.7,223.1,399.5,325.5,410.2,335.9z"/>
				</g>
				<g>
					
						<linearGradient id="SVGID_18_" gradientUnits="userSpaceOnUse" x1="1397.6191" y1="-146.8048" x2="1434.3702" y2="73.7785" gradientTransform="matrix(-1 0 0 -1 1864.2816 200)">
						<stop  offset="0" style="stop-color:#3F3A3A"/>
						<stop  offset="0.3572" style="stop-color:#615C5C"/>
						<stop  offset="0.5246" style="stop-color:#777272"/>
						<stop  offset="0.7344" style="stop-color:#959090"/>
						<stop  offset="0.7915" style="stop-color:#B2ADAD"/>
						<stop  offset="0.8858" style="stop-color:#EDE8E8"/>
					</linearGradient>
					<path class="st17" d="M526.3,317.1c-7.4-7.4-140.1-136.4-140.1-136.4s-4.6-3.3-16.1-4.5c0.7,0,1.4,0,2.2,0
						c1.1,0,2.2,0.1,3.2,0.3c1.4,0.2,2.8,0.4,4.2,0.7c1.3,0.3,2.6,0.7,3.7,1.1c1.2,0.4,2.2,0.9,3.2,1.5c0.9,0.5,1.8,1.1,2.4,1.8
						l138.8,133.5c1.4,1.3,2.2,2.7,2.4,4.1c0.2,1.4-0.1,2.7-0.9,4s-2.2,2.4-4,3.4c-1.2,0.7-2.6,1.2-4.1,1.7
						C526,325.5,530.5,321.3,526.3,317.1z"/>
				</g>
			</g>
		</g>
		<g>
			<g>
				
					<linearGradient id="SVGID_19_" gradientUnits="userSpaceOnUse" x1="1354.5042" y1="-83.8895" x2="1504.7745" y2="89.2502" gradientTransform="matrix(-1 0 0 -1 1864.2816 200)">
					<stop  offset="0" style="stop-color:#5C5757"/>
					<stop  offset="0.2185" style="stop-color:#868181"/>
					<stop  offset="0.5777" style="stop-color:#959090"/>
					<stop  offset="0.9343" style="stop-color:#B2ADAD"/>
					<stop  offset="1" style="stop-color:#EDE8E8"/>
				</linearGradient>
				<path class="st18" d="M444.8,147.2c-1.3-0.2-97.2-48.1-98.6-48c-1.4,0-3.6,2.2-4.9,4.3c-0.8,1.2-1.6,2-2.4,5.5
					c0,0-12.3,63-12.4,64.3c-0.1,1.3,0.4,2.6,1.5,3.8l140.8,148.8c0.8,0.8,1.7,1.6,2.8,2.2c1.1,0.7,2.4,1.3,3.7,1.8
					c1.4,0.5,2.9,1,4.4,1.4c1.6,0.4,3.3,0.7,5,0.9c1.5,0.2,3,0.3,4.5,0.4s3.1,0.1,4.7,0s3.1-0.2,4.7-0.4c1.6-0.2,3.1-0.5,4.6-0.8
					l93.2-20.6c3.2-0.7,6-1.7,8.2-2.8c2.2-1.1,3.9-2.5,5-3.9s1.6-2.9,1.5-4.4s-0.9-3-2.4-4.4l-149.8-143L444.8,147.2L444.8,147.2z"
					/>
			</g>
			<g>
				
					<linearGradient id="SVGID_20_" gradientUnits="userSpaceOnUse" x1="1451.3243" y1="7.2234" x2="1432.6423" y2="24.0678" gradientTransform="matrix(-1 0 0 -1 1864.2816 200)">
					<stop  offset="0" style="stop-color:#ECE7E7"/>
					<stop  offset="0.2523" style="stop-color:#A29D9D"/>
					<stop  offset="0.411" style="stop-color:#544F4F"/>
					<stop  offset="0.5345" style="stop-color:#959090"/>
					<stop  offset="0.9343" style="stop-color:#B2ADAD"/>
					<stop  offset="1" style="stop-color:#EDE8E8"/>
				</linearGradient>
				<path class="st19" d="M343.8,113.3c-2.3-2-3.7-4-4.4-6.1c0.7-2.2,1.3-2.9,2-3.9c1.3-2,3.5-4.2,4.9-4.3c1.4,0,97.3,47.9,98.6,48
					l14.1,5.1l82.9,79.1l-40,11.4c0,0-20.2,13.2-22.3,13.2L343.8,113.3z"/>
			</g>
			
				<linearGradient id="SVGID_21_" gradientUnits="userSpaceOnUse" x1="1392.7505" y1="-72.2215" x2="1374.5283" y2="-74.059" gradientTransform="matrix(-1 0 0 -1 1864.2816 200)">
				<stop  offset="0" style="stop-color:#676262"/>
				<stop  offset="0.2191" style="stop-color:#746F6F"/>
				<stop  offset="0.409" style="stop-color:#686363"/>
				<stop  offset="0.5531" style="stop-color:#4B4646"/>
				<stop  offset="0.7145" style="stop-color:#555050"/>
				<stop  offset="1" style="stop-color:#7D7878"/>
			</linearGradient>
			<path class="st20" d="M476.8,246.5c3.3,3.9,3.3,7.9,2.2,14.3l-8.6,66.4c0.8,0.8,0.2,0.2,1.3,0.9s2.1,1.3,3.4,2.1
				c1.3,0.7,2.8,1.3,4.3,1.9s3.1,0.9,5,1.3c1.4,0.3,3.5,0,5.1,0.1c1.5,0.1,12.4-1.7,13.9-2l93.2-20.6c3.2-0.7,6-1.7,8.2-2.8
				s3.9-2.5,5-3.9s1.6-2.9,1.5-4.4s-0.5-3.1-0.9-4.9l-12.6-63c-0.5-1.8-1.1-4.8-3.4-7.2L476.8,246.5z"/>
			<g>
				<g>
					
						<linearGradient id="SVGID_22_" gradientUnits="userSpaceOnUse" x1="1252.9691" y1="-77.566" x2="1378.6816" y2="-77.566" gradientTransform="matrix(-1 0 0 -1 1864.2816 200)">
						<stop  offset="0" style="stop-color:#676262"/>
						<stop  offset="0.2191" style="stop-color:#746F6F"/>
						<stop  offset="0.409" style="stop-color:#686363"/>
						<stop  offset="0.5531" style="stop-color:#4B4646"/>
						<stop  offset="0.7145" style="stop-color:#555050"/>
						<stop  offset="1" style="stop-color:#7D7878"/>
					</linearGradient>
					<path class="st21" d="M485.6,333.4c6.3,0.3,16.3-1.6,17.8-1.9l93.2-20.7c3.2-0.7,6-1.7,8.2-2.8c2.2-1.1,3.9-2.5,5-3.9
						s1.6-2.9,1.5-4.4s-0.5-3.1-0.9-4.9l-12.5-63c-0.5-1.8-1.9-7.4-4.1-10.1l-91.2,30.2c-7.8,0.4-14,1.5-14.5,7.5L485.6,333.4z"/>
				</g>
			</g>
			<g>
				<g>
					
						<linearGradient id="SVGID_23_" gradientUnits="userSpaceOnUse" x1="1259.8452" y1="-62.4317" x2="1378.0879" y2="-86.1218" gradientTransform="matrix(-1 0 0 -1 1864.2816 200)">
						<stop  offset="0" style="stop-color:#534E4E"/>
						<stop  offset="2.656040e-002" style="stop-color:#363131"/>
						<stop  offset="4.714480e-002" style="stop-color:#676262"/>
						<stop  offset="0.2191" style="stop-color:#746F6F"/>
						<stop  offset="0.409" style="stop-color:#686363"/>
						<stop  offset="0.5531" style="stop-color:#4B4646"/>
						<stop  offset="0.7145" style="stop-color:#555050"/>
						<stop  offset="1" style="stop-color:#7D7878"/>
					</linearGradient>
					<path class="st22" d="M587.4,231.7l-7.7-5.4l14-4.6c2.2,2.7,3.6,8.3,4.1,10.1l12.5,63c0.4,1.8,0.8,3.4,0.9,4.9
						c0.1,1.5-0.4,3-1.5,4.4c-0.1,0.1-0.1,0.1-0.2,0.2c-2.4-12.4-13-66.5-14.4-70.1C593.5,230.1,587.4,231.7,587.4,231.7z"/>
				</g>
				
					<linearGradient id="SVGID_24_" gradientUnits="userSpaceOnUse" x1="1235.7159" y1="-53.8968" x2="1572.2866" y2="125.8861" gradientTransform="matrix(-1 0 0 -1 1864.2816 200)">
					<stop  offset="0" style="stop-color:#3D3838"/>
					<stop  offset="0.2185" style="stop-color:#585353"/>
					<stop  offset="0.2835" style="stop-color:#464141"/>
					<stop  offset="0.3572" style="stop-color:#474242"/>
					<stop  offset="0.512" style="stop-color:#524D4D"/>
					<stop  offset="0.6248" style="stop-color:#797474"/>
					<stop  offset="0.6746" style="stop-color:#757070"/>
					<stop  offset="0.7344" style="stop-color:#959090"/>
					<stop  offset="0.7915" style="stop-color:#858080"/>
					<stop  offset="0.8858" style="stop-color:#D7D2D2"/>
				</linearGradient>
				<path class="st23" d="M440.1,81.7c1.4,0.2,2.8,0.4,4.1,0.7c1.3,0.3,2.6,0.7,3.7,1.1c1.2,0.4,2.2,0.9,3.2,1.5
					c0.9,0.5,1.8,1.1,2.4,1.8l138.8,133.5c1.4,1.3,2.2,2.7,2.4,4.1s-0.1,2.7-0.9,4c-0.8,1.3-2.2,2.4-4,3.4s-4.1,1.8-6.8,2.4
					l-77.7,17c-1.2,0.3-2.4,0.5-3.6,0.6s-2.4,0.2-3.6,0.3c-1.2,0-2.4,0-3.7,0c-1.2-0.1-2.4-0.2-3.6-0.3c-1.6-0.2-3.2-0.5-4.7-0.9
					s-2.9-0.8-4.2-1.4c-1.3-0.5-2.5-1.1-3.6-1.8s-2-1.4-2.7-2.2l-131.8-138c-1.1-1.2-1.6-2.4-1.6-3.5c0-1.2,0.5-2.3,1.5-3.4
					s2.4-2.1,4.2-2.9s4.1-1.5,6.6-2l72.4-13.6c1.1-0.2,2.1-0.4,3.2-0.5s2.2-0.2,3.3-0.2s2.2,0,3.3,0C438,81.5,439,81.6,440.1,81.7
					L440.1,81.7z"/>
			</g>
			<g>
				
					<linearGradient id="SVGID_25_" gradientUnits="userSpaceOnUse" x1="1528.4797" y1="107.1795" x2="1374.1254" y2="-56.6691" gradientTransform="matrix(-1 0 0 -1 1864.2816 200)">
					<stop  offset="0" style="stop-color:#ACA7A7"/>
					<stop  offset="0.2185" style="stop-color:#666161"/>
					<stop  offset="0.3572" style="stop-color:#615C5C"/>
					<stop  offset="0.512" style="stop-color:#5E5959"/>
					<stop  offset="0.6972" style="stop-color:#6C6767"/>
					<stop  offset="0.8977" style="stop-color:#7A7575"/>
					<stop  offset="0.996" style="stop-color:#868181"/>
				</linearGradient>
				<path class="st24" d="M474.7,241.1c5.2,5,11.3,8.5,16.5,10.7c-0.1,0-0.1,0-0.2,0c-1.6-0.2-3.2-0.5-4.7-0.9s-2.9-0.8-4.2-1.4
					c-1.3-0.5-2.5-1.1-3.6-1.8s-2-1.4-2.7-2.2L344,107.5c-1.1-1.2-1.6-2.4-1.6-3.5c0-0.6,0.1-1.2,0.4-1.8
					C366.2,128.3,464,230.7,474.7,241.1z"/>
			</g>
			<g>
				
					<linearGradient id="SVGID_26_" gradientUnits="userSpaceOnUse" x1="1333.0758" y1="-52.0655" x2="1369.8262" y2="168.5144" gradientTransform="matrix(-1 0 0 -1 1864.2816 200)">
					<stop  offset="0" style="stop-color:#3F3A3A"/>
					<stop  offset="0.3572" style="stop-color:#615C5C"/>
					<stop  offset="0.5246" style="stop-color:#777272"/>
					<stop  offset="0.7344" style="stop-color:#959090"/>
					<stop  offset="0.7915" style="stop-color:#B2ADAD"/>
					<stop  offset="0.8858" style="stop-color:#EDE8E8"/>
				</linearGradient>
				<path class="st25" d="M590.9,222.3C583.5,215,450.8,86,450.8,86s-4.6-3.3-16.1-4.5c0.7,0,1.4,0,2.2,0c1.1,0.1,2.2,0.1,3.2,0.3
					c1.4,0.2,2.8,0.4,4.1,0.7c1.3,0.3,2.6,0.7,3.7,1.1c1.2,0.4,2.2,0.9,3.2,1.5c0.9,0.5,1.8,1.1,2.4,1.8l138.8,133.5
					c1.4,1.3,2.2,2.7,2.4,4.1c0.2,1.4-0.1,2.7-0.9,4c-0.8,1.3-2.2,2.4-4,3.4c-1.2,0.7-2.6,1.2-4.1,1.7
					C590.5,230.7,595.1,226.5,590.9,222.3z"/>
			</g>
		</g>
		<g>
			<g>
				
					<linearGradient id="SVGID_27_" gradientUnits="userSpaceOnUse" x1="1556.8225" y1="-220.3412" x2="1687.1517" y2="-70.1777" gradientTransform="matrix(-1 0 0 -1 1864.2816 200)">
					<stop  offset="0" style="stop-color:#868181"/>
					<stop  offset="0.4004" style="stop-color:#959090"/>
					<stop  offset="0.7862" style="stop-color:#B2ADAD"/>
					<stop  offset="1" style="stop-color:#EDE8E8"/>
				</linearGradient>
				<path class="st26" d="M235.4,275.6c-1.3-0.2-12.8-3.2-14.2-3.1c-1.4,0-3.6,2.2-4.9,4.3c-0.8,1.2-1.6,2-2.4,5.5
					c0,0-96.6,18.1-96.7,19.4s0.4,2.6,1.5,3.8l140.7,148.7c0.8,0.8,1.7,1.6,2.8,2.2c1.1,0.7,2.4,1.3,3.7,1.8c1.4,0.5,2.9,1,4.4,1.4
					c1.6,0.4,3.3,0.7,5,0.9c1.5,0.2,3,0.3,4.5,0.4s3.1,0.1,4.7,0s3.1-0.2,4.7-0.4c1.6-0.2,3.1-0.5,4.6-0.8l93.2-20.6
					c3.2-0.7,6-1.7,8.2-2.8s3.9-2.5,5-3.9s1.6-2.9,1.5-4.4s-0.9-3-2.4-4.4l-149.8-143L235.4,275.6L235.4,275.6z"/>
			</g>
			<g>
				<g>
					
						<linearGradient id="SVGID_28_" gradientUnits="userSpaceOnUse" x1="1563.9142" y1="-209.5486" x2="1714.1829" y2="-36.411" gradientTransform="matrix(-1 0 0 -1 1864.2816 200)">
						<stop  offset="0" style="stop-color:#5C5757"/>
						<stop  offset="0.2185" style="stop-color:#868181"/>
						<stop  offset="0.5777" style="stop-color:#959090"/>
						<stop  offset="0.7862" style="stop-color:#B6B1B1"/>
						<stop  offset="1" style="stop-color:#D6D1D1"/>
					</linearGradient>
					<path class="st27" d="M235.4,272.9c-1.3-0.2-97.2-48.1-98.6-48c-1.4,0-3.6,2.2-4.9,4.3c-0.8,1.2-1.6,2-2.4,5.5
						c0,0-12.3,63-12.4,64.3c-0.1,1.3,0.4,2.6,1.5,3.8l140.8,148.8c0.8,0.8,1.7,1.6,2.8,2.2c1.1,0.7,2.4,1.3,3.7,1.8
						c1.4,0.5,2.9,1,4.4,1.4c1.6,0.4,3.3,0.7,5,0.9c1.5,0.2,3,0.3,4.5,0.4s3.1,0.1,4.7,0c1.6-0.1,3.1-0.2,4.7-0.4s3.1-0.5,4.6-0.8
						l93.2-20.6c3.2-0.7,6-1.7,8.2-2.8s3.9-2.5,5-3.9s1.6-2.9,1.5-4.4s-0.9-3-2.4-4.5l-149.8-143L235.4,272.9L235.4,272.9z"/>
				</g>
				<g>
					
						<linearGradient id="SVGID_29_" gradientUnits="userSpaceOnUse" x1="1660.8218" y1="-118.4744" x2="1642.1398" y2="-101.63" gradientTransform="matrix(-1 0 0 -1 1864.2816 200)">
						<stop  offset="0" style="stop-color:#ECE7E7"/>
						<stop  offset="0.2523" style="stop-color:#403B3B"/>
						<stop  offset="0.411" style="stop-color:#544F4F"/>
						<stop  offset="0.5345" style="stop-color:#959090"/>
						<stop  offset="0.9343" style="stop-color:#B2ADAD"/>
						<stop  offset="1" style="stop-color:#EDE8E8"/>
					</linearGradient>
					<path class="st28" d="M134.3,239c-2.3-2-3.7-4-4.4-6.1c0.7-2.2,1.3-2.9,2-3.9c1.3-2,3.5-4.2,4.9-4.3c1.4,0,97.3,47.9,98.6,48
						l14.1,5.1l82.9,79.1l-40,11.4c0,0-20.2,13.2-22.2,13.2L134.3,239z"/>
				</g>
				
					<linearGradient id="SVGID_30_" gradientUnits="userSpaceOnUse" x1="1602.2284" y1="-197.9221" x2="1584.0061" y2="-199.7596" gradientTransform="matrix(-1 0 0 -1 1864.2816 200)">
					<stop  offset="0" style="stop-color:#676262"/>
					<stop  offset="0.2191" style="stop-color:#746F6F"/>
					<stop  offset="0.409" style="stop-color:#686363"/>
					<stop  offset="0.5531" style="stop-color:#4B4646"/>
					<stop  offset="0.7145" style="stop-color:#555050"/>
					<stop  offset="1" style="stop-color:#7D7878"/>
				</linearGradient>
				<path class="st29" d="M267.3,372.2c3.3,3.9,3.3,7.9,2.2,14.3l-8.6,66.4c0.8,0.8,0.2,0.2,1.3,0.9c1.1,0.7,2.1,1.3,3.4,2.1
					c1.3,0.7,2.8,1.3,4.3,1.9s3.1,0.9,5,1.3c1.5,0.3,3.5,0,5.1,0.1c1.5,0.1,12.4-1.7,13.9-2l93.2-20.6c3.2-0.7,6-1.7,8.2-2.8
					s3.9-2.5,5-3.9s1.6-2.9,1.5-4.4s-0.5-3.1-0.9-4.9l-12.6-63c-0.5-1.8-1.1-4.8-3.4-7.2L267.3,372.2z"/>
				<g>
					<g>
						
							<linearGradient id="SVGID_31_" gradientUnits="userSpaceOnUse" x1="1462.4691" y1="-203.266" x2="1588.1816" y2="-203.266" gradientTransform="matrix(-1 0 0 -1 1864.2816 200)">
							<stop  offset="0" style="stop-color:#676262"/>
							<stop  offset="0.2191" style="stop-color:#746F6F"/>
							<stop  offset="0.409" style="stop-color:#686363"/>
							<stop  offset="0.5531" style="stop-color:#4B4646"/>
							<stop  offset="0.7145" style="stop-color:#555050"/>
							<stop  offset="1" style="stop-color:#7D7878"/>
						</linearGradient>
						<path class="st30" d="M276.1,459.1c6.3,0.3,16.3-1.6,17.8-1.9l93.2-20.7c3.2-0.7,6-1.7,8.2-2.8c2.2-1.2,3.9-2.5,5-3.9
							s1.6-2.9,1.5-4.4s-0.5-3.1-0.9-4.9l-12.5-63c-0.5-1.8-1.9-7.4-4.1-10.1l-91.2,30.2c-7.8,0.4-14,1.5-14.5,7.5L276.1,459.1z"/>
					</g>
				</g>
				<g>
					<g>
						
							<linearGradient id="SVGID_32_" gradientUnits="userSpaceOnUse" x1="1469.3086" y1="-188.2444" x2="1587.5146" y2="-211.9272" gradientTransform="matrix(-1 0 0 -1 1864.2816 200)">
							<stop  offset="0" style="stop-color:#534E4E"/>
							<stop  offset="2.656040e-002" style="stop-color:#363131"/>
							<stop  offset="4.714480e-002" style="stop-color:#676262"/>
							<stop  offset="0.2191" style="stop-color:#746F6F"/>
							<stop  offset="0.409" style="stop-color:#686363"/>
							<stop  offset="0.5531" style="stop-color:#4B4646"/>
							<stop  offset="0.7145" style="stop-color:#555050"/>
							<stop  offset="1" style="stop-color:#7D7878"/>
						</linearGradient>
						<path class="st31" d="M377.9,357.5l-7.6-5.4l14-4.6c2.2,2.7,3.6,8.3,4.1,10.1l12.5,63c0.4,1.8,0.8,3.4,0.9,4.9s-0.4,3-1.5,4.4
							c-0.1,0.1-0.1,0.1-0.2,0.2c-2.4-12.4-13-66.5-14.4-70.1C384,355.8,377.9,357.5,377.9,357.5z"/>
					</g>
					
						<linearGradient id="SVGID_33_" gradientUnits="userSpaceOnUse" x1="1460.3881" y1="-182.5477" x2="1759.328" y2="-0.6752" gradientTransform="matrix(-1 0 0 -1 1864.2816 200)">
						<stop  offset="0" style="stop-color:#3D3838"/>
						<stop  offset="0.2185" style="stop-color:#585353"/>
						<stop  offset="0.2835" style="stop-color:#464141"/>
						<stop  offset="0.3572" style="stop-color:#474242"/>
						<stop  offset="0.512" style="stop-color:#524D4D"/>
						<stop  offset="0.6248" style="stop-color:#797474"/>
						<stop  offset="0.6746" style="stop-color:#757070"/>
						<stop  offset="0.7344" style="stop-color:#959090"/>
						<stop  offset="0.7915" style="stop-color:#858080"/>
						<stop  offset="0.8858" style="stop-color:#D7D2D2"/>
					</linearGradient>
					<path class="st32" d="M230.6,207.5c1.4,0.2,2.8,0.4,4.2,0.7c1.3,0.3,2.6,0.7,3.7,1.1c1.2,0.4,2.2,0.9,3.2,1.5
						c0.9,0.5,1.8,1.1,2.4,1.8l138.8,133.5c1.4,1.3,2.2,2.7,2.4,4.1s-0.1,2.7-0.9,4s-2.2,2.4-4,3.4s-4.1,1.8-6.8,2.4l-77.7,17
						c-1.2,0.3-2.4,0.5-3.6,0.6s-2.4,0.2-3.7,0.3c-1.2,0-2.4,0-3.6,0c-1.2-0.1-2.4-0.2-3.6-0.3c-1.6-0.2-3.2-0.5-4.7-0.9
						s-2.9-0.8-4.2-1.4c-1.3-0.5-2.5-1.1-3.6-1.8c-1.1-0.7-2-1.4-2.7-2.2l-131.8-138c-1.1-1.2-1.6-2.4-1.6-3.5
						c0-1.2,0.5-2.3,1.5-3.4c1-1.1,2.4-2.1,4.2-2.9c1.8-0.8,4.1-1.5,6.6-2l72.4-13.6c1.1-0.2,2.1-0.4,3.2-0.5
						c1.1-0.1,2.2-0.2,3.3-0.2s2.2,0,3.3,0C228.5,207.2,229.6,207.3,230.6,207.5L230.6,207.5z"/>
				</g>
				<g>
					
						<linearGradient id="SVGID_34_" gradientUnits="userSpaceOnUse" x1="1738.0087" y1="-18.59" x2="1583.6538" y2="-182.4387" gradientTransform="matrix(-1 0 0 -1 1864.2816 200)">
						<stop  offset="0" style="stop-color:#ACA7A7"/>
						<stop  offset="0.2185" style="stop-color:#666161"/>
						<stop  offset="0.3572" style="stop-color:#615C5C"/>
						<stop  offset="0.512" style="stop-color:#5E5959"/>
						<stop  offset="0.6972" style="stop-color:#6C6767"/>
						<stop  offset="0.8977" style="stop-color:#7A7575"/>
						<stop  offset="0.996" style="stop-color:#868181"/>
					</linearGradient>
					<path class="st33" d="M265.2,366.8c5.2,5,11.3,8.5,16.5,10.8c-0.1,0-0.1,0-0.2,0c-1.6-0.2-3.2-0.5-4.7-0.9s-2.9-0.8-4.2-1.4
						c-1.3-0.5-2.5-1.1-3.6-1.8s-2-1.4-2.7-2.2l-131.8-138c-1.1-1.2-1.6-2.4-1.6-3.5c0-0.6,0.1-1.2,0.4-1.8
						C156.7,254,254.5,356.4,265.2,366.8z"/>
				</g>
				<g>
					
						<linearGradient id="SVGID_35_" gradientUnits="userSpaceOnUse" x1="1542.5233" y1="-177.7802" x2="1579.2742" y2="42.8007" gradientTransform="matrix(-1 0 0 -1 1864.2816 200)">
						<stop  offset="0" style="stop-color:#3F3A3A"/>
						<stop  offset="0.3572" style="stop-color:#615C5C"/>
						<stop  offset="0.5246" style="stop-color:#777272"/>
						<stop  offset="0.7344" style="stop-color:#959090"/>
						<stop  offset="0.7915" style="stop-color:#B2ADAD"/>
						<stop  offset="0.8858" style="stop-color:#EDE8E8"/>
					</linearGradient>
					<path class="st34" d="M381.4,348.1c-7.4-7.4-140.1-136.4-140.1-136.4s-4.6-3.3-16.1-4.5c0.7,0,1.4,0,2.2,0
						c1.1,0,2.2,0.1,3.2,0.3c1.4,0.2,2.8,0.4,4.2,0.7c1.3,0.3,2.6,0.7,3.7,1.1c1.2,0.4,2.2,0.9,3.2,1.5c0.9,0.5,1.8,1.1,2.4,1.8
						l138.8,133.5c1.4,1.3,2.2,2.7,2.4,4.1s-0.1,2.7-0.9,4s-2.2,2.4-4,3.4c-1.2,0.7-2.6,1.2-4.2,1.7
						C381,356.5,385.6,352.3,381.4,348.1z"/>
				</g>
			</g>
			<g class="st35">
				
					<linearGradient id="SVGID_36_" gradientUnits="userSpaceOnUse" x1="1610.3179" y1="-148.7397" x2="1607.5969" y2="-30.3813" gradientTransform="matrix(-1 0 0 -1 1864.2816 200)">
					<stop  offset="0" style="stop-color:#5C5757"/>
					<stop  offset="0.2185" style="stop-color:#868181"/>
					<stop  offset="0.3572" style="stop-color:#5E5959"/>
					<stop  offset="0.512" style="stop-color:#524D4D"/>
					<stop  offset="0.6248" style="stop-color:#797474"/>
					<stop  offset="0.7344" style="stop-color:#959090"/>
					<stop  offset="0.7915" style="stop-color:#B2ADAD"/>
					<stop  offset="0.8858" style="stop-color:#EDE8E8"/>
				</linearGradient>
				<path class="st36" d="M249.1,245.9c0.2,0,0.3-0.1,0.5-0.1c3-0.5,5.7-0.6,8.2-0.4c2.5,0.2,4.7,0.7,6.7,1.5s3.6,1.8,4.7,3
					c1.1,1.2,1.6,2.3,1.4,3.4c-0.2,1.1-0.9,2.1-2.3,2.9c-1.4,0.8-3.2,1.4-5.6,1.8c-0.1,0-0.2,0-0.3,0c-1.6,0.3-3.4,0.5-5.4,0.6
					c-2,0.1-3.8,0.1-5.5,0.1c-0.4-0.7-0.9-1.3-1.4-1.8s-1-1-1.6-1.4l-1.5-0.2l-0.4-0.4c0.8-0.1,1.7-0.2,2.7-0.4
					c0.3,0,0.5-0.1,0.9-0.1c1.1-0.2,2.6-0.5,4.5-0.8l0.5,0.5l-1.8,0.4c-1,0.2-1.5,0.3-1.6,0.4s-0.1,0.1,0,0.2s0.4,0.5,1.1,1.2
					c0.5,0.5,1,1,1.5,1.5c2.4,0.1,4.4,0,6.2-0.3c0.1,0,0.2,0,0.2,0c3.2-0.6,5.1-1.6,5.9-3.1c0.6-1.3,0.2-2.7-1.2-4.3
					c-1.5-1.6-3.6-2.7-6.3-3.4c-2.5-0.6-5.3-0.7-8.4-0.2c-0.1,0-0.2,0-0.3,0.1c-1.6,0.3-3,0.7-4,1.1c-1.1,0.5-1.8,0.9-1.9,1.1
					c-0.1,0.1,0.1,0.5,0.7,1l0.5,0.6l-1,0.2c-1.2-1-2.2-1.8-3-2.4l1.2-0.4c1.4-0.5,2.6-0.9,3.6-1.2
					C247.2,246.2,248.1,246,249.1,245.9L249.1,245.9z"/>
				
					<linearGradient id="SVGID_37_" gradientUnits="userSpaceOnUse" x1="1634.8271" y1="-148.1912" x2="1632.1058" y2="-29.8168" gradientTransform="matrix(-1 0 0 -1 1864.2816 200)">
					<stop  offset="0" style="stop-color:#5C5757"/>
					<stop  offset="0.2185" style="stop-color:#868181"/>
					<stop  offset="0.3572" style="stop-color:#5E5959"/>
					<stop  offset="0.512" style="stop-color:#524D4D"/>
					<stop  offset="0.6248" style="stop-color:#797474"/>
					<stop  offset="0.7344" style="stop-color:#959090"/>
					<stop  offset="0.7915" style="stop-color:#B2ADAD"/>
					<stop  offset="0.8858" style="stop-color:#EDE8E8"/>
				</linearGradient>
				<path class="st37" d="M236.6,261.3c-0.1,0-0.1,0-0.2,0c-1.6,0.3-3.3,0.3-4.9,0.1c-1.6-0.2-3.1-0.6-4.6-1.3s-2.7-1.6-3.8-2.7
					c-1.1-1.2-1.7-2.3-1.7-3.3s0.5-1.8,1.4-2.4c0.9-0.6,2.3-1.1,4-1.4c0.1,0,0.1,0,0.2,0c1.7-0.3,3.3-0.3,4.9-0.2
					c1.6,0.2,3.1,0.6,4.5,1.2s2.5,1.4,3.4,2.4c1.2,1.3,1.8,2.5,1.9,3.5c0.1,1.1-0.4,2-1.3,2.7C239.6,260.6,238.3,261.1,236.6,261.3
					L236.6,261.3z M225.2,249.8c-3.5,0.6-5.8,1.6-6.8,2.9c-1.1,1.4-0.8,3,0.8,4.7c1.8,1.9,4.5,3.3,8.1,4.1c3.6,0.9,7.3,1,11,0.4
					c0.1,0,0.2,0,0.2,0c2.2-0.4,3.9-0.9,5-1.7c1.2-0.8,1.8-1.7,1.9-2.8c0.1-1.1-0.5-2.3-1.6-3.5c-1.7-1.9-4.3-3.2-7.6-3.9
					c-3.3-0.8-6.9-0.8-10.6-0.2C225.5,249.7,225.3,249.8,225.2,249.8L225.2,249.8z"/>
				
					<linearGradient id="SVGID_38_" gradientUnits="userSpaceOnUse" x1="1653.9047" y1="-147.7503" x2="1651.1833" y2="-29.374" gradientTransform="matrix(-1 0 0 -1 1864.2816 200)">
					<stop  offset="0" style="stop-color:#5C5757"/>
					<stop  offset="0.2185" style="stop-color:#868181"/>
					<stop  offset="0.3572" style="stop-color:#5E5959"/>
					<stop  offset="0.512" style="stop-color:#524D4D"/>
					<stop  offset="0.6248" style="stop-color:#797474"/>
					<stop  offset="0.7344" style="stop-color:#959090"/>
					<stop  offset="0.7915" style="stop-color:#B2ADAD"/>
					<stop  offset="0.8858" style="stop-color:#EDE8E8"/>
				</linearGradient>
				<path class="st38" d="M202.8,253.6c1.9-0.3,3.5-0.5,4.6-0.7c0.3,0,0.7-0.1,1.2-0.2c0.9-0.2,2.2-0.4,3.8-0.7l0.5,0.5l-1.7,0.3
					c0,0,0,0-0.1,0c-0.7,0.1-1,0.3-1,0.5s0.8,1.2,2.4,2.9l4.4,4.6c1.5,1.6,2.4,2.4,2.8,2.6s1.1,0.3,2.1,0.4l0.4,0.5
					c-2.2,0.3-3.8,0.5-4.9,0.7l-7.5,1.3c-1.7,0.3-3,0.4-4,0.5c-1-0.9-2.2-1.9-3.4-2.9l1.1-0.2l2.8,1.8c0.9,0,1.8-0.1,2.7-0.2
					c1.2-0.1,2.8-0.4,4.8-0.7c0.4-0.1,0.7-0.1,1.1-0.2c0.6-0.1,1.3-0.2,2-0.4l-0.5-0.5l-2.2-2.4l-5.1-5.4c-1.2-1.3-1.9-2-2.2-2.1
					c-0.3-0.2-0.7-0.2-1.3-0.1l-2,0.3L202.8,253.6L202.8,253.6z"/>
				
					<linearGradient id="SVGID_39_" gradientUnits="userSpaceOnUse" x1="1678.5278" y1="-147.1679" x2="1675.8071" y2="-28.8166" gradientTransform="matrix(-1 0 0 -1 1864.2816 200)">
					<stop  offset="0" style="stop-color:#5C5757"/>
					<stop  offset="0.2185" style="stop-color:#868181"/>
					<stop  offset="0.3572" style="stop-color:#5E5959"/>
					<stop  offset="0.512" style="stop-color:#524D4D"/>
					<stop  offset="0.6248" style="stop-color:#797474"/>
					<stop  offset="0.7344" style="stop-color:#959090"/>
					<stop  offset="0.7915" style="stop-color:#B2ADAD"/>
					<stop  offset="0.8858" style="stop-color:#EDE8E8"/>
				</linearGradient>
				<path class="st39" d="M193.4,268.2c-0.1,0-0.2,0-0.3,0.1c-3,0.5-5.7,0.5-8.1-0.1c-2.9-0.7-5.3-1.9-7-3.8c-1.5-1.6-1.9-3-1-4.2
					c0.8-1.1,2.8-1.9,5.8-2.4c0.1,0,0.2,0,0.3,0c1.1-0.2,2.5-0.3,4.2-0.5c0.6,0.5,1.3,1.1,1.9,1.8l5.2,5.5c1,1,1.8,2,2.5,2.9
					C195.5,267.8,194.4,268.1,193.4,268.2L193.4,268.2z M180.5,257.3c-1.2,0.2-2.4,0.5-3.5,0.8c-1.3,0.4-2.4,0.9-3.1,1.6
					c-0.8,0.7-1.1,1.4-1.1,2.2c0,0.8,0.5,1.7,1.4,2.6c1.8,1.9,4.5,3.3,8.1,4.1s7.4,1,11.3,0.3l1.9-0.3c1.9-0.4,3.1-0.6,3.6-0.7
					c0.9-0.1,2-0.3,3.4-0.4l-0.4-0.4l-1.9-0.2c-1-0.8-2.5-2.4-4.6-4.5l-2.3-2.5c-0.9-1-1.7-1.9-2.2-2.6c-0.3-0.4-0.4-0.7-0.4-0.8
					c0.1-0.1,0.4-0.2,1.1-0.4l1.2-0.3l-0.5-0.5c-1.3,0.2-2.2,0.4-2.9,0.5c-0.2,0-0.4,0.1-0.6,0.1l-4.3,0.7l-3.5,0.5
					C180.9,257.2,180.7,257.3,180.5,257.3L180.5,257.3z"/>
			</g>
			<g class="st35">
				
					<linearGradient id="SVGID_40_" gradientUnits="userSpaceOnUse" x1="1593.7736" y1="-52.6017" x2="1622.7792" y2="-52.6017" gradientTransform="matrix(-1 0 0 -1 1864.2816 200)">
					<stop  offset="0" style="stop-color:#5C5757"/>
					<stop  offset="0.2185" style="stop-color:#645F5F"/>
					<stop  offset="0.3572" style="stop-color:#5E5959"/>
					<stop  offset="0.7112" style="stop-color:#524D4D"/>
					<stop  offset="0.994" style="stop-color:#797474"/>
				</linearGradient>
				<path class="st40" d="M249,246.5c0.2,0,0.3-0.1,0.5-0.1c3-0.5,5.7-0.6,8.2-0.4c2.5,0.2,4.7,0.7,6.7,1.5s3.6,1.8,4.7,3
					c1.1,1.2,1.6,2.3,1.4,3.4c-0.2,1.1-0.9,2.1-2.3,2.9s-3.2,1.4-5.6,1.8c-0.1,0-0.2,0-0.3,0c-1.6,0.3-3.4,0.5-5.4,0.6
					c-2,0.1-3.8,0.1-5.5,0.1c-0.4-0.7-0.9-1.3-1.4-1.8s-1-1-1.6-1.4l-1.5-0.2l-0.4-0.4c0.8-0.1,1.7-0.2,2.7-0.4
					c0.3,0,0.5-0.1,0.9-0.1c1.1-0.2,2.6-0.5,4.5-0.8l0.5,0.5l-1.8,0.4c-1,0.2-1.5,0.3-1.6,0.4c-0.1,0-0.1,0.1,0,0.2s0.4,0.5,1.1,1.2
					c0.5,0.5,1,1,1.5,1.5c2.4,0.1,4.4,0,6.2-0.3c0.1,0,0.2,0,0.2,0c3.2-0.6,5.1-1.6,5.9-3.1c0.6-1.3,0.2-2.7-1.2-4.3
					c-1.5-1.6-3.6-2.7-6.3-3.4c-2.5-0.6-5.3-0.7-8.5-0.2c-0.1,0-0.2,0-0.3,0.1c-1.6,0.3-3,0.7-4,1.1c-1.1,0.5-1.7,0.9-1.9,1.1
					c-0.1,0.1,0.1,0.5,0.7,1l0.5,0.6l-1,0.2c-1.2-1-2.2-1.8-3-2.4l1.2-0.4c1.4-0.5,2.6-0.9,3.6-1.2C247.1,246.9,248,246.7,249,246.5
					L249,246.5z"/>
				
					<linearGradient id="SVGID_41_" gradientUnits="userSpaceOnUse" x1="1618.9708" y1="-56.5253" x2="1646.636" y2="-56.5253" gradientTransform="matrix(-1 0 0 -1 1864.2816 200)">
					<stop  offset="0" style="stop-color:#5C5757"/>
					<stop  offset="0.2185" style="stop-color:#645F5F"/>
					<stop  offset="0.3572" style="stop-color:#5E5959"/>
					<stop  offset="0.7112" style="stop-color:#524D4D"/>
					<stop  offset="0.994" style="stop-color:#797474"/>
				</linearGradient>
				<path class="st41" d="M236.5,262c-0.1,0-0.1,0-0.2,0c-1.7,0.3-3.3,0.3-4.9,0.1c-1.6-0.2-3.1-0.6-4.6-1.3s-2.7-1.6-3.8-2.7
					c-1.1-1.2-1.7-2.3-1.7-3.3s0.5-1.8,1.4-2.4s2.3-1.1,4-1.4c0.1,0,0.1,0,0.2,0c1.7-0.3,3.3-0.3,4.9-0.2c1.6,0.2,3.1,0.6,4.5,1.2
					c1.4,0.6,2.5,1.4,3.4,2.4c1.2,1.3,1.8,2.5,1.9,3.5c0.1,1.1-0.4,2-1.3,2.7C239.4,261.2,238.1,261.7,236.5,262L236.5,262z
					 M225.1,250.5c-3.5,0.6-5.8,1.6-6.8,2.9c-1.1,1.4-0.8,3,0.8,4.7c1.8,1.9,4.5,3.3,8.1,4.1c3.6,0.9,7.3,1,11,0.4
					c0.1,0,0.2,0,0.2,0c2.2-0.4,3.9-0.9,5-1.7c1.2-0.8,1.8-1.7,1.9-2.8c0.1-1.1-0.5-2.3-1.6-3.5c-1.7-1.9-4.3-3.2-7.6-3.9
					c-3.3-0.8-6.9-0.8-10.6-0.2C225.3,250.4,225.2,250.4,225.1,250.5L225.1,250.5z"/>
				
					<linearGradient id="SVGID_42_" gradientUnits="userSpaceOnUse" x1="1642.2501" y1="-60.05" x2="1662.1211" y2="-60.05" gradientTransform="matrix(-1 0 0 -1 1864.2816 200)">
					<stop  offset="0" style="stop-color:#5C5757"/>
					<stop  offset="0.2185" style="stop-color:#645F5F"/>
					<stop  offset="0.3572" style="stop-color:#5E5959"/>
					<stop  offset="0.7112" style="stop-color:#524D4D"/>
					<stop  offset="0.994" style="stop-color:#797474"/>
				</linearGradient>
				<path class="st42" d="M202.7,254.3c1.9-0.3,3.5-0.5,4.6-0.7c0.3,0,0.7-0.1,1.2-0.2c0.9-0.2,2.2-0.4,3.8-0.7l0.5,0.5l-1.7,0.3
					c0,0,0,0-0.1,0c-0.7,0.1-1,0.3-1,0.5s0.8,1.2,2.4,2.9l4.4,4.6c1.5,1.6,2.4,2.4,2.7,2.6c0.4,0.2,1.1,0.3,2.1,0.4l0.4,0.4
					c-2.2,0.3-3.8,0.5-4.9,0.7l-7.5,1.3c-1.7,0.3-3,0.4-4,0.5c-1-0.9-2.2-1.9-3.4-2.9l1.1-0.2l2.8,1.8c0.9,0,1.8-0.1,2.7-0.2
					c1.2-0.1,2.8-0.4,4.8-0.7c0.4-0.1,0.7-0.1,1.1-0.2c0.6-0.1,1.3-0.2,2-0.4l-0.5-0.5l-2.2-2.4l-5-5.4c-1.2-1.3-1.9-2-2.3-2.1
					c-0.3-0.1-0.7-0.2-1.3-0.1l-2,0.3L202.7,254.3L202.7,254.3z"/>
				
					<linearGradient id="SVGID_43_" gradientUnits="userSpaceOnUse" x1="1661.932" y1="-63.014" x2="1691.5836" y2="-63.014" gradientTransform="matrix(-1 0 0 -1 1864.2816 200)">
					<stop  offset="0" style="stop-color:#5C5757"/>
					<stop  offset="0.2185" style="stop-color:#645F5F"/>
					<stop  offset="0.3572" style="stop-color:#5E5959"/>
					<stop  offset="0.7112" style="stop-color:#524D4D"/>
					<stop  offset="0.994" style="stop-color:#797474"/>
				</linearGradient>
				<path class="st43" d="M193.2,268.9c-0.1,0-0.2,0-0.3,0.1c-3,0.5-5.7,0.5-8.1-0.1c-2.9-0.7-5.3-1.9-7-3.8c-1.5-1.6-1.9-3-1-4.2
					c0.8-1.1,2.8-1.9,5.8-2.4c0.1,0,0.2,0,0.3,0c1.1-0.2,2.5-0.3,4.1-0.5c0.6,0.5,1.3,1.1,1.9,1.8l5.2,5.5c1,1,1.8,2,2.5,2.9
					C195.4,268.5,194.3,268.7,193.2,268.9L193.2,268.9z M180.4,258c-1.2,0.2-2.4,0.5-3.5,0.8c-1.3,0.4-2.4,0.9-3.1,1.6
					c-0.8,0.7-1.1,1.4-1.1,2.2c0,0.8,0.5,1.7,1.4,2.6c1.8,1.9,4.5,3.3,8.1,4.1c3.6,0.8,7.4,1,11.3,0.3l1.9-0.3
					c1.9-0.4,3.1-0.6,3.6-0.7c0.9-0.1,2-0.3,3.4-0.4l-0.4-0.4l-1.9-0.2c-1-0.8-2.5-2.4-4.6-4.5l-2.3-2.5c-0.9-1-1.7-1.9-2.2-2.6
					c-0.3-0.4-0.5-0.7-0.4-0.8s0.4-0.2,1.1-0.4l1.2-0.3l-0.5-0.5c-1.3,0.2-2.2,0.4-2.9,0.5c-0.2,0-0.4,0.1-0.6,0.1l-4.3,0.7
					l-3.5,0.5C180.8,257.9,180.6,257.9,180.4,258L180.4,258z"/>
			</g>
		</g>
		<g>
			<g>
				<g>
					
						<linearGradient id="SVGID_44_" gradientUnits="userSpaceOnUse" x1="1496.5377" y1="-115.679" x2="1646.8059" y2="57.4581" gradientTransform="matrix(-1 0 0 -1 1864.2816 200)">
						<stop  offset="0" style="stop-color:#5C5757"/>
						<stop  offset="0.2185" style="stop-color:#868181"/>
						<stop  offset="0.5777" style="stop-color:#959090"/>
						<stop  offset="0.7862" style="stop-color:#B6B1B1"/>
						<stop  offset="1" style="stop-color:#D6D1D1"/>
					</linearGradient>
					<path class="st44" d="M302.7,179c-1.3-0.2-97.2-48.1-98.6-48c-1.4,0-3.6,2.2-4.9,4.3c-0.8,1.2-1.6,2-2.4,5.5
						c0,0-12.3,63-12.4,64.3s0.4,2.6,1.5,3.8l140.9,148.8c0.8,0.8,1.7,1.6,2.8,2.2c1.1,0.7,2.3,1.3,3.7,1.8s2.9,1,4.4,1.4
						c1.6,0.4,3.3,0.7,5,0.9c1.5,0.2,3,0.3,4.5,0.4s3.1,0.1,4.7,0s3.1-0.2,4.7-0.4c1.6-0.2,3.1-0.5,4.6-0.8l93.2-20.6
						c3.2-0.7,6-1.7,8.2-2.8s3.9-2.5,5-3.9s1.6-2.9,1.5-4.4s-0.9-3-2.4-4.5L316.9,184L302.7,179L302.7,179z"/>
				</g>
				<g>
					
						<linearGradient id="SVGID_45_" gradientUnits="userSpaceOnUse" x1="1593.374" y1="-24.6812" x2="1574.6926" y2="-7.8373" gradientTransform="matrix(-1 0 0 -1 1864.2816 200)">
						<stop  offset="0" style="stop-color:#ECE7E7"/>
						<stop  offset="0.2523" style="stop-color:#403B3B"/>
						<stop  offset="0.411" style="stop-color:#544F4F"/>
						<stop  offset="0.5345" style="stop-color:#959090"/>
						<stop  offset="0.9343" style="stop-color:#B2ADAD"/>
						<stop  offset="1" style="stop-color:#EDE8E8"/>
					</linearGradient>
					<path class="st45" d="M201.7,145.2c-2.3-2-3.7-4-4.4-6.1c0.7-2.2,1.4-2.9,2-3.9c1.3-2,3.5-4.2,4.9-4.3c1.4,0,97.3,47.9,98.6,48
						l14.1,5.1l82.9,79.2l-40,11.4c0,0-20.2,13.2-22.2,13.2L201.7,145.2z"/>
				</g>
				
					<linearGradient id="SVGID_46_" gradientUnits="userSpaceOnUse" x1="1534.8536" y1="-104.0311" x2="1516.6307" y2="-105.8687" gradientTransform="matrix(-1 0 0 -1 1864.2816 200)">
					<stop  offset="0" style="stop-color:#676262"/>
					<stop  offset="0.2191" style="stop-color:#746F6F"/>
					<stop  offset="0.409" style="stop-color:#686363"/>
					<stop  offset="0.5531" style="stop-color:#4B4646"/>
					<stop  offset="0.7145" style="stop-color:#555050"/>
					<stop  offset="1" style="stop-color:#7D7878"/>
				</linearGradient>
				<path class="st46" d="M334.6,278.3c3.3,3.9,3.3,7.9,2.2,14.3l-8.6,66.4c0.8,0.8,0.2,0.2,1.3,0.9c1.1,0.7,2.1,1.3,3.4,2.1
					c1.3,0.7,2.8,1.3,4.3,1.9s3.1,0.9,5,1.3c1.4,0.3,3.5,0,5.1,0.1c1.5,0.1,12.4-1.7,13.9-2l93.2-20.6c3.2-0.7,6-1.7,8.2-2.8
					s3.9-2.5,5-3.9s1.6-2.9,1.5-4.4s-0.5-3.1-0.9-4.9l-12.6-63c-0.5-1.8-1.1-4.8-3.4-7.2L334.6,278.3z"/>
				<g>
					<g>
						
							<linearGradient id="SVGID_47_" gradientUnits="userSpaceOnUse" x1="1395.0691" y1="-109.466" x2="1520.7816" y2="-109.466" gradientTransform="matrix(-1 0 0 -1 1864.2816 200)">
							<stop  offset="0" style="stop-color:#676262"/>
							<stop  offset="0.2191" style="stop-color:#746F6F"/>
							<stop  offset="0.409" style="stop-color:#686363"/>
							<stop  offset="0.5531" style="stop-color:#4B4646"/>
							<stop  offset="0.7145" style="stop-color:#555050"/>
							<stop  offset="1" style="stop-color:#7D7878"/>
						</linearGradient>
						<path class="st47" d="M343.5,365.3c6.3,0.3,16.3-1.6,17.8-1.9l93.2-20.7c3.2-0.7,6-1.7,8.2-2.8s3.9-2.5,5-3.9s1.6-2.9,1.5-4.4
							s-0.5-3.1-0.9-4.9l-12.5-63c-0.5-1.8-1.9-7.4-4.1-10.1l-91.2,30.2c-7.8,0.4-14,1.5-14.5,7.5L343.5,365.3z"/>
					</g>
				</g>
				<g>
					<g>
						
							<linearGradient id="SVGID_48_" gradientUnits="userSpaceOnUse" x1="1401.9381" y1="-94.3303" x2="1520.1686" y2="-118.0178" gradientTransform="matrix(-1 0 0 -1 1864.2816 200)">
							<stop  offset="0" style="stop-color:#534E4E"/>
							<stop  offset="2.656040e-002" style="stop-color:#363131"/>
							<stop  offset="4.714480e-002" style="stop-color:#676262"/>
							<stop  offset="0.2191" style="stop-color:#746F6F"/>
							<stop  offset="0.409" style="stop-color:#686363"/>
							<stop  offset="0.5531" style="stop-color:#4B4646"/>
							<stop  offset="0.7145" style="stop-color:#555050"/>
							<stop  offset="1" style="stop-color:#7D7878"/>
						</linearGradient>
						<path class="st48" d="M445.3,263.6l-7.7-5.4l14-4.6c2.2,2.7,3.6,8.3,4.1,10.1l12.5,63c0.4,1.8,0.8,3.4,0.9,4.9s-0.4,3-1.5,4.4
							c-0.1,0.1-0.1,0.1-0.2,0.2c-2.4-12.4-13-66.5-14.4-70.1C451.4,262,445.3,263.6,445.3,263.6z"/>
					</g>
					
						<linearGradient id="SVGID_49_" gradientUnits="userSpaceOnUse" x1="1399.5436" y1="-84.6291" x2="1698.4839" y2="97.2438" gradientTransform="matrix(-1 0 0 -1 1864.2816 200)">
						<stop  offset="0" style="stop-color:#3D3838"/>
						<stop  offset="0.2185" style="stop-color:#585353"/>
						<stop  offset="0.2835" style="stop-color:#464141"/>
						<stop  offset="0.3572" style="stop-color:#474242"/>
						<stop  offset="0.512" style="stop-color:#524D4D"/>
						<stop  offset="0.6248" style="stop-color:#797474"/>
						<stop  offset="0.6746" style="stop-color:#757070"/>
						<stop  offset="0.7344" style="stop-color:#959090"/>
						<stop  offset="0.7915" style="stop-color:#858080"/>
						<stop  offset="0.8858" style="stop-color:#D7D2D2"/>
					</linearGradient>
					<path class="st49" d="M298,113.6c1.4,0.2,2.8,0.4,4.2,0.7c1.3,0.3,2.6,0.7,3.7,1.1c1.2,0.4,2.2,0.9,3.2,1.5
						c0.9,0.5,1.8,1.1,2.4,1.8l138.9,133.5c1.4,1.3,2.2,2.7,2.4,4.1c0.2,1.4-0.1,2.7-0.9,4s-2.2,2.4-4,3.4s-4.1,1.8-6.8,2.4
						l-77.7,17c-1.2,0.3-2.4,0.5-3.6,0.6s-2.4,0.2-3.6,0.3c-1.2,0-2.4,0-3.7,0c-1.2-0.1-2.4-0.2-3.6-0.3c-1.6-0.2-3.2-0.5-4.7-0.9
						s-2.9-0.8-4.2-1.4c-1.3-0.5-2.5-1.1-3.6-1.8c-1.1-0.7-2-1.4-2.7-2.2l-131.8-138c-1.1-1.2-1.6-2.4-1.6-3.5
						c0-1.2,0.5-2.3,1.5-3.4c1-1.1,2.4-2.1,4.2-2.9c1.8-0.8,4.1-1.5,6.6-2L285,114c1.1-0.2,2.1-0.4,3.2-0.5c1.1-0.1,2.2-0.2,3.3-0.2
						s2.2,0,3.3,0C295.9,113.4,296.9,113.5,298,113.6L298,113.6z"/>
				</g>
				<g>
					
						<linearGradient id="SVGID_50_" gradientUnits="userSpaceOnUse" x1="1670.6531" y1="75.2572" x2="1516.2997" y2="-88.5902" gradientTransform="matrix(-1 0 0 -1 1864.2816 200)">
						<stop  offset="0" style="stop-color:#ACA7A7"/>
						<stop  offset="0.2185" style="stop-color:#666161"/>
						<stop  offset="0.3572" style="stop-color:#615C5C"/>
						<stop  offset="0.512" style="stop-color:#5E5959"/>
						<stop  offset="0.6972" style="stop-color:#6C6767"/>
						<stop  offset="0.8977" style="stop-color:#7A7575"/>
						<stop  offset="0.996" style="stop-color:#868181"/>
					</linearGradient>
					<path class="st50" d="M332.6,273c5.2,5.1,11.3,8.5,16.5,10.8c-0.1,0-0.1,0-0.2,0c-1.6-0.2-3.2-0.5-4.7-0.9s-2.9-0.8-4.2-1.4
						c-1.3-0.5-2.5-1.1-3.6-1.8c-1.1-0.7-2-1.4-2.7-2.2l-131.8-138c-1.1-1.2-1.6-2.4-1.6-3.5c0-0.6,0.1-1.2,0.4-1.8
						C224.1,160.2,321.9,262.6,332.6,273z"/>
				</g>
				<g>
					
						<linearGradient id="SVGID_51_" gradientUnits="userSpaceOnUse" x1="1475.0702" y1="-83.899" x2="1511.8208" y2="136.6808" gradientTransform="matrix(-1 0 0 -1 1864.2816 200)">
						<stop  offset="0" style="stop-color:#3F3A3A"/>
						<stop  offset="0.3572" style="stop-color:#615C5C"/>
						<stop  offset="0.5246" style="stop-color:#777272"/>
						<stop  offset="0.7344" style="stop-color:#959090"/>
						<stop  offset="0.7915" style="stop-color:#B2ADAD"/>
						<stop  offset="0.8858" style="stop-color:#EDE8E8"/>
					</linearGradient>
					<path class="st51" d="M448.8,254.2c-7.4-7.4-140.1-136.4-140.1-136.4s-4.6-3.3-16.1-4.5c0.7,0,1.4,0,2.2,0
						c1.1,0.1,2.2,0.1,3.2,0.3c1.4,0.2,2.8,0.4,4.2,0.7c1.3,0.3,2.6,0.7,3.7,1.1c1.2,0.4,2.2,0.9,3.2,1.5c0.9,0.5,1.8,1.1,2.4,1.8
						l138.9,133.5c1.4,1.3,2.2,2.7,2.4,4.1c0.2,1.4-0.1,2.7-0.9,4s-2.2,2.4-4,3.4c-1.2,0.7-2.6,1.2-4.1,1.7
						C448.4,262.6,453,258.4,448.8,254.2z"/>
				</g>
			</g>
			<g class="st35">
				
					<linearGradient id="SVGID_52_" gradientUnits="userSpaceOnUse" x1="1545.2196" y1="-53.2241" x2="1542.4989" y2="65.1343" gradientTransform="matrix(-1 0 0 -1 1864.2816 200)">
					<stop  offset="0" style="stop-color:#5C5757"/>
					<stop  offset="0.2185" style="stop-color:#868181"/>
					<stop  offset="0.3572" style="stop-color:#5E5959"/>
					<stop  offset="0.512" style="stop-color:#524D4D"/>
					<stop  offset="0.6248" style="stop-color:#797474"/>
					<stop  offset="0.7344" style="stop-color:#959090"/>
					<stop  offset="0.7915" style="stop-color:#B2ADAD"/>
					<stop  offset="0.8858" style="stop-color:#EDE8E8"/>
				</linearGradient>
				<path class="st52" d="M314.3,150.3c0.2,0,0.3-0.1,0.5-0.1c3-0.5,5.7-0.6,8.2-0.4c2.4,0.2,4.7,0.7,6.7,1.5s3.6,1.8,4.7,3
					s1.6,2.3,1.4,3.4c-0.2,1.1-0.9,2.1-2.4,2.9c-1.4,0.8-3.2,1.4-5.6,1.8c-0.1,0-0.2,0-0.3,0c-1.6,0.3-3.4,0.5-5.4,0.6
					s-3.8,0.1-5.5,0.1c-0.4-0.7-0.9-1.3-1.4-1.8s-1-1-1.6-1.4l-1.5-0.2l-0.4-0.4c0.8-0.1,1.7-0.2,2.7-0.4c0.3,0,0.5-0.1,0.9-0.1
					c1.1-0.2,2.6-0.5,4.5-0.8l0.5,0.5l-1.8,0.4c-1,0.2-1.5,0.3-1.6,0.4c-0.1,0-0.1,0.1,0,0.2c0.1,0.1,0.4,0.5,1.1,1.2
					c0.5,0.5,1,1,1.5,1.5c2.4,0.1,4.4,0,6.2-0.3c0.1,0,0.2,0,0.2,0c3.2-0.6,5.1-1.6,5.8-3.1c0.6-1.3,0.3-2.7-1.2-4.3
					s-3.6-2.7-6.3-3.4c-2.5-0.6-5.3-0.7-8.4-0.2c-0.1,0-0.2,0-0.3,0.1c-1.6,0.3-3,0.7-4,1.1c-1.1,0.5-1.7,0.9-1.9,1.1
					c-0.1,0.1,0.1,0.5,0.7,1l0.5,0.6l-1,0.2c-1.2-1-2.2-1.8-3-2.4l1.2-0.4c1.4-0.5,2.6-0.9,3.6-1.2
					C312.4,150.7,313.3,150.5,314.3,150.3L314.3,150.3z"/>
				
					<linearGradient id="SVGID_53_" gradientUnits="userSpaceOnUse" x1="1569.6265" y1="-52.6634" x2="1566.9056" y2="65.6954" gradientTransform="matrix(-1 0 0 -1 1864.2816 200)">
					<stop  offset="0" style="stop-color:#5C5757"/>
					<stop  offset="0.2185" style="stop-color:#868181"/>
					<stop  offset="0.3572" style="stop-color:#5E5959"/>
					<stop  offset="0.512" style="stop-color:#524D4D"/>
					<stop  offset="0.6248" style="stop-color:#797474"/>
					<stop  offset="0.7344" style="stop-color:#959090"/>
					<stop  offset="0.7915" style="stop-color:#B2ADAD"/>
					<stop  offset="0.8858" style="stop-color:#EDE8E8"/>
				</linearGradient>
				<path class="st53" d="M301.8,165.8c-0.1,0-0.1,0-0.2,0c-1.7,0.3-3.3,0.3-4.9,0.1s-3.1-0.6-4.6-1.3s-2.7-1.6-3.8-2.7
					c-1.1-1.2-1.7-2.3-1.7-3.3s0.5-1.8,1.4-2.4s2.3-1.1,4-1.4c0.1,0,0.1,0,0.2,0c1.7-0.3,3.3-0.3,4.9-0.2c1.6,0.2,3.1,0.6,4.5,1.2
					c1.4,0.6,2.5,1.4,3.4,2.4c1.2,1.3,1.8,2.5,1.9,3.5c0.1,1.1-0.4,2-1.3,2.7S303.4,165.5,301.8,165.8L301.8,165.8z M290.4,154.3
					c-3.5,0.6-5.8,1.6-6.8,2.9c-1.1,1.4-0.8,3,0.8,4.7c1.8,1.9,4.5,3.3,8.1,4.1c3.6,0.9,7.3,1,11,0.4c0.1,0,0.2,0,0.2,0
					c2.2-0.4,3.9-0.9,5-1.7c1.2-0.8,1.8-1.7,1.9-2.8c0.1-1.1-0.5-2.3-1.6-3.5c-1.7-1.9-4.3-3.2-7.6-3.9c-3.3-0.8-6.9-0.8-10.6-0.2
					C290.7,154.2,290.5,154.2,290.4,154.3L290.4,154.3z"/>
				
					<linearGradient id="SVGID_54_" gradientUnits="userSpaceOnUse" x1="1588.7039" y1="-52.2198" x2="1585.9833" y2="66.1297" gradientTransform="matrix(-1 0 0 -1 1864.2816 200)">
					<stop  offset="0" style="stop-color:#5C5757"/>
					<stop  offset="0.2185" style="stop-color:#868181"/>
					<stop  offset="0.3572" style="stop-color:#5E5959"/>
					<stop  offset="0.512" style="stop-color:#524D4D"/>
					<stop  offset="0.6248" style="stop-color:#797474"/>
					<stop  offset="0.7344" style="stop-color:#959090"/>
					<stop  offset="0.7915" style="stop-color:#B2ADAD"/>
					<stop  offset="0.8858" style="stop-color:#EDE8E8"/>
				</linearGradient>
				<path class="st54" d="M268,158.1c1.9-0.3,3.5-0.5,4.6-0.7c0.3,0,0.7-0.1,1.2-0.2c0.9-0.2,2.2-0.4,3.8-0.7l0.5,0.5l-1.7,0.3
					c0,0,0,0-0.1,0c-0.7,0.1-1,0.3-1,0.5s0.8,1.2,2.4,2.9l4.4,4.6c1.5,1.6,2.4,2.4,2.8,2.6s1.1,0.3,2.1,0.4l0.4,0.5
					c-2.2,0.3-3.8,0.5-4.9,0.7l-7.5,1.3c-1.7,0.3-3,0.4-4,0.5c-1-0.9-2.2-1.9-3.4-2.9l1-0.2l2.8,1.8c0.9,0,1.8-0.1,2.7-0.2
					c1.2-0.1,2.8-0.4,4.8-0.7c0.4-0.1,0.7-0.1,1.1-0.2c0.6-0.1,1.3-0.2,2-0.4l-0.5-0.5l-2.2-2.4l-5.1-5.4c-1.2-1.3-1.9-2-2.2-2.1
					c-0.3-0.1-0.7-0.2-1.3-0.1l-2,0.3L268,158.1L268,158.1z"/>
				
					<linearGradient id="SVGID_55_" gradientUnits="userSpaceOnUse" x1="1613.3278" y1="-51.6639" x2="1610.6067" y2="66.7016" gradientTransform="matrix(-1 0 0 -1 1864.2816 200)">
					<stop  offset="0" style="stop-color:#5C5757"/>
					<stop  offset="0.2185" style="stop-color:#868181"/>
					<stop  offset="0.3572" style="stop-color:#5E5959"/>
					<stop  offset="0.512" style="stop-color:#524D4D"/>
					<stop  offset="0.6248" style="stop-color:#797474"/>
					<stop  offset="0.7344" style="stop-color:#959090"/>
					<stop  offset="0.7915" style="stop-color:#B2ADAD"/>
					<stop  offset="0.8858" style="stop-color:#EDE8E8"/>
				</linearGradient>
				<path class="st55" d="M258.6,172.7c-0.1,0-0.2,0-0.3,0.1c-3,0.5-5.7,0.5-8.1-0.1c-2.9-0.7-5.3-1.9-7-3.8c-1.5-1.6-1.9-3-1-4.2
					c0.8-1.1,2.8-1.9,5.8-2.4c0.1,0,0.2,0,0.3,0c1.1-0.2,2.5-0.3,4.2-0.5c0.6,0.5,1.3,1.1,1.9,1.8l5.2,5.5c1,1,1.8,2,2.5,2.9
					C260.7,172.3,259.6,172.6,258.6,172.7L258.6,172.7z M245.7,161.8c-1.2,0.2-2.4,0.5-3.5,0.8c-1.3,0.4-2.4,0.9-3.1,1.6
					c-0.8,0.7-1.1,1.4-1.1,2.2s0.5,1.7,1.4,2.6c1.8,1.9,4.5,3.3,8.1,4.1s7.4,0.9,11.3,0.3l1.9-0.3c1.9-0.4,3.1-0.6,3.6-0.7
					c0.9-0.1,2-0.3,3.4-0.4l-0.4-0.4l-1.9-0.2c-1-0.8-2.5-2.4-4.6-4.5l-2.3-2.5c-0.9-1-1.7-1.9-2.2-2.6c-0.3-0.4-0.4-0.7-0.4-0.8
					s0.4-0.2,1.1-0.4l1.2-0.3l-0.5-0.5c-1.3,0.2-2.2,0.4-2.9,0.5c-0.2,0-0.4,0.1-0.6,0.1l-4.3,0.7l-3.5,0.5
					C246.1,161.7,245.9,161.7,245.7,161.8L245.7,161.8z"/>
			</g>
			<g class="st35">
				
					<linearGradient id="SVGID_56_" gradientUnits="userSpaceOnUse" x1="1528.5836" y1="42.8983" x2="1557.587" y2="42.8983" gradientTransform="matrix(-1 0 0 -1 1864.2816 200)">
					<stop  offset="0" style="stop-color:#5C5757"/>
					<stop  offset="0.2185" style="stop-color:#645F5F"/>
					<stop  offset="0.3572" style="stop-color:#5E5959"/>
					<stop  offset="0.7112" style="stop-color:#524D4D"/>
					<stop  offset="0.994" style="stop-color:#797474"/>
				</linearGradient>
				<path class="st56" d="M314.2,151c0.2,0,0.3-0.1,0.5-0.1c3-0.5,5.7-0.6,8.2-0.4s4.7,0.7,6.7,1.5s3.6,1.8,4.7,3s1.6,2.3,1.4,3.4
					c-0.2,1.1-0.9,2.1-2.3,2.9c-1.4,0.8-3.2,1.4-5.6,1.8c-0.1,0-0.2,0-0.3,0c-1.6,0.3-3.4,0.5-5.4,0.6s-3.8,0.1-5.5,0.1
					c-0.4-0.7-0.9-1.3-1.4-1.8s-1-1-1.6-1.4l-1.5-0.2l-0.4-0.4c0.8-0.1,1.7-0.2,2.7-0.4c0.3,0,0.5-0.1,0.9-0.1
					c1.1-0.2,2.6-0.5,4.5-0.8l0.5,0.5l-1.8,0.4c-1,0.2-1.5,0.3-1.6,0.4c-0.1,0-0.1,0.1,0,0.2s0.4,0.5,1.1,1.2c0.5,0.5,1,1,1.5,1.5
					c2.4,0.1,4.4,0,6.2-0.3c0.1,0,0.2,0,0.2,0c3.2-0.6,5.1-1.6,5.9-3.1c0.6-1.3,0.2-2.7-1.2-4.3c-1.5-1.6-3.6-2.7-6.3-3.4
					c-2.5-0.6-5.3-0.7-8.4-0.2c-0.1,0-0.2,0-0.3,0.1c-1.6,0.3-3,0.7-4,1.1c-1.1,0.5-1.8,0.9-1.9,1.1c-0.1,0.1,0.1,0.5,0.7,1l0.5,0.6
					l-1,0.2c-1.2-1-2.2-1.8-3-2.4l1.2-0.4c1.4-0.5,2.6-0.9,3.6-1.2C312.2,151.4,313.2,151.2,314.2,151L314.2,151z"/>
				
					<linearGradient id="SVGID_57_" gradientUnits="userSpaceOnUse" x1="1553.7709" y1="39.0748" x2="1581.436" y2="39.0748" gradientTransform="matrix(-1 0 0 -1 1864.2816 200)">
					<stop  offset="0" style="stop-color:#5C5757"/>
					<stop  offset="0.2185" style="stop-color:#645F5F"/>
					<stop  offset="0.3572" style="stop-color:#5E5959"/>
					<stop  offset="0.7112" style="stop-color:#524D4D"/>
					<stop  offset="0.994" style="stop-color:#797474"/>
				</linearGradient>
				<path class="st57" d="M301.7,166.5c-0.1,0-0.1,0-0.2,0c-1.7,0.3-3.3,0.3-4.9,0.1s-3.1-0.6-4.6-1.3s-2.7-1.6-3.8-2.7
					c-1.1-1.2-1.7-2.3-1.7-3.3s0.5-1.8,1.4-2.4c0.9-0.6,2.3-1.1,4-1.4c0.1,0,0.1,0,0.2,0c1.7-0.3,3.4-0.3,4.9-0.2
					c1.6,0.2,3.1,0.6,4.5,1.2c1.4,0.6,2.5,1.4,3.4,2.4c1.2,1.3,1.8,2.5,1.9,3.5c0.1,1.1-0.4,2-1.3,2.7
					C304.6,165.7,303.3,166.2,301.7,166.5L301.7,166.5z M290.3,154.9c-3.5,0.6-5.8,1.6-6.8,2.9c-1.1,1.4-0.8,3,0.8,4.7
					c1.8,1.9,4.5,3.3,8.1,4.1c3.6,0.9,7.3,1,11,0.4c0.1,0,0.2,0,0.2,0c2.2-0.4,3.9-0.9,5-1.7c1.2-0.8,1.8-1.7,1.9-2.8
					c0.1-1.1-0.5-2.3-1.6-3.5c-1.7-1.9-4.3-3.2-7.6-3.9c-3.3-0.8-6.9-0.8-10.6-0.2C290.5,154.9,290.4,154.9,290.3,154.9L290.3,154.9
					z"/>
				
					<linearGradient id="SVGID_58_" gradientUnits="userSpaceOnUse" x1="1577.0598" y1="35.45" x2="1596.9275" y2="35.45" gradientTransform="matrix(-1 0 0 -1 1864.2816 200)">
					<stop  offset="0" style="stop-color:#5C5757"/>
					<stop  offset="0.2185" style="stop-color:#645F5F"/>
					<stop  offset="0.3572" style="stop-color:#5E5959"/>
					<stop  offset="0.7112" style="stop-color:#524D4D"/>
					<stop  offset="0.994" style="stop-color:#797474"/>
				</linearGradient>
				<path class="st58" d="M267.9,158.8c1.9-0.3,3.5-0.5,4.6-0.7c0.3,0,0.7-0.1,1.2-0.2c0.9-0.2,2.2-0.4,3.8-0.7l0.5,0.5l-1.7,0.3
					c0,0,0,0-0.1,0c-0.7,0.1-1,0.3-1,0.5s0.8,1.2,2.4,2.9l4.4,4.6c1.5,1.6,2.4,2.4,2.7,2.6c0.4,0.2,1.1,0.3,2.1,0.4l0.4,0.4
					c-2.2,0.3-3.8,0.5-4.9,0.7l-7.5,1.3c-1.7,0.3-3,0.4-4,0.5c-1-0.9-2.2-1.9-3.4-2.9l1-0.2l2.8,1.8c0.9,0,1.8-0.1,2.7-0.2
					c1.2-0.1,2.8-0.4,4.8-0.7c0.4-0.1,0.7-0.1,1.1-0.2c0.6-0.1,1.3-0.2,2-0.4l-0.5-0.5l-2.2-2.4l-5.1-5.4c-1.2-1.3-1.9-2-2.2-2.1
					c-0.3-0.1-0.7-0.2-1.3-0.1l-2,0.3L267.9,158.8L267.9,158.8z"/>
				
					<linearGradient id="SVGID_59_" gradientUnits="userSpaceOnUse" x1="1596.7418" y1="32.5071" x2="1626.3944" y2="32.5071" gradientTransform="matrix(-1 0 0 -1 1864.2816 200)">
					<stop  offset="0" style="stop-color:#5C5757"/>
					<stop  offset="0.2185" style="stop-color:#645F5F"/>
					<stop  offset="0.3572" style="stop-color:#5E5959"/>
					<stop  offset="0.7112" style="stop-color:#524D4D"/>
					<stop  offset="0.994" style="stop-color:#797474"/>
				</linearGradient>
				<path class="st59" d="M258.4,173.4c-0.1,0-0.2,0-0.3,0.1c-3,0.5-5.7,0.5-8.1-0.1c-2.9-0.7-5.3-1.9-7-3.8c-1.5-1.7-1.9-3-1-4.2
					c0.8-1.1,2.8-1.9,5.8-2.4c0.1,0,0.2,0,0.3,0c1.1-0.2,2.5-0.3,4.1-0.5c0.6,0.5,1.3,1.1,1.9,1.8l5.2,5.5c1,1,1.8,2,2.5,2.9
					C260.6,173,259.5,173.2,258.4,173.4L258.4,173.4z M245.6,162.5c-1.2,0.2-2.4,0.5-3.5,0.8c-1.3,0.4-2.4,0.9-3.1,1.6
					c-0.8,0.7-1.1,1.4-1.1,2.2s0.5,1.7,1.4,2.6c1.8,1.9,4.5,3.3,8.1,4.1s7.4,0.9,11.3,0.3l1.9-0.3c1.9-0.4,3.1-0.6,3.6-0.7
					c0.9-0.1,2-0.3,3.4-0.4l-0.4-0.4l-1.9-0.2c-1-0.8-2.5-2.4-4.6-4.5l-2.3-2.5c-0.9-1-1.7-1.9-2.2-2.6c-0.3-0.4-0.5-0.7-0.4-0.8
					c0-0.1,0.4-0.2,1.1-0.4l1.2-0.3l-0.5-0.5c-1.3,0.2-2.2,0.4-2.9,0.5c-0.2,0-0.5,0.1-0.6,0.1l-4.3,0.7l-3.5,0.5
					C246,162.4,245.8,162.4,245.6,162.5L245.6,162.5z"/>
			</g>
		</g>
		<g>
			<g>
				<g>
					
						<linearGradient id="SVGID_60_" gradientUnits="userSpaceOnUse" x1="1432.026" y1="-20.1349" x2="1582.295" y2="153.0031" gradientTransform="matrix(-1 0 0 -1 1864.2816 200)">
						<stop  offset="0" style="stop-color:#5C5757"/>
						<stop  offset="0.2185" style="stop-color:#868181"/>
						<stop  offset="0.5777" style="stop-color:#959090"/>
						<stop  offset="0.7862" style="stop-color:#B6B1B1"/>
						<stop  offset="1" style="stop-color:#D6D1D1"/>
					</linearGradient>
					<path class="st60" d="M367.3,83.5c-1.3-0.2-97.2-48.1-98.6-48c-1.4,0-3.6,2.2-4.9,4.3c-0.8,1.2-1.6,2-2.4,5.5
						c0,0-12.3,63-12.4,64.3s0.4,2.6,1.5,3.8l140.8,148.8c0.8,0.8,1.7,1.6,2.8,2.2c1.1,0.7,2.3,1.3,3.7,1.8s2.9,1,4.4,1.4
						c1.6,0.4,3.3,0.7,5,0.9c1.5,0.2,3,0.3,4.5,0.4s3.1,0.1,4.7,0s3.1-0.2,4.7-0.4c1.6-0.2,3.1-0.5,4.6-0.8l93.2-20.6
						c3.2-0.7,6-1.7,8.2-2.8s3.9-2.5,5-3.9s1.6-2.9,1.5-4.4s-0.9-3-2.4-4.5l-149.8-143L367.3,83.5L367.3,83.5z"/>
				</g>
				<g>
					
						<linearGradient id="SVGID_61_" gradientUnits="userSpaceOnUse" x1="1528.9143" y1="70.9322" x2="1510.2319" y2="87.7771" gradientTransform="matrix(-1 0 0 -1 1864.2816 200)">
						<stop  offset="0" style="stop-color:#ECE7E7"/>
						<stop  offset="0.2523" style="stop-color:#403B3B"/>
						<stop  offset="0.411" style="stop-color:#544F4F"/>
						<stop  offset="0.5345" style="stop-color:#959090"/>
						<stop  offset="0.9343" style="stop-color:#B2ADAD"/>
						<stop  offset="1" style="stop-color:#EDE8E8"/>
					</linearGradient>
					<path class="st61" d="M266.2,49.6c-2.3-2-3.7-4-4.4-6.1c0.7-2.2,1.3-2.9,2-3.9c1.3-2,3.5-4.2,4.9-4.3c1.4,0,97.3,47.9,98.6,48
						l14.1,5.1l82.9,79.1l-40,11.4c0,0-20.2,13.2-22.2,13.2L266.2,49.6z"/>
				</g>
				
					<linearGradient id="SVGID_62_" gradientUnits="userSpaceOnUse" x1="1470.3329" y1="-8.5216" x2="1452.1108" y2="-10.3591" gradientTransform="matrix(-1 0 0 -1 1864.2816 200)">
					<stop  offset="0" style="stop-color:#676262"/>
					<stop  offset="0.2191" style="stop-color:#746F6F"/>
					<stop  offset="0.409" style="stop-color:#686363"/>
					<stop  offset="0.5531" style="stop-color:#4B4646"/>
					<stop  offset="0.7145" style="stop-color:#555050"/>
					<stop  offset="1" style="stop-color:#7D7878"/>
				</linearGradient>
				<path class="st62" d="M399.2,182.8c3.3,3.9,3.3,7.9,2.2,14.3l-8.6,66.4c0.8,0.8,0.2,0.2,1.3,0.9c1.1,0.7,2.1,1.3,3.4,2.1
					c1.3,0.7,2.8,1.3,4.3,1.9s3.1,0.9,5,1.3c1.5,0.3,3.5,0,5.1,0.1c1.5,0.1,12.4-1.7,13.9-2l93.2-20.6c3.2-0.7,6-1.7,8.2-2.8
					s3.9-2.5,5-3.9s1.6-2.9,1.5-4.4s-0.5-3.1-0.9-4.9l-12.6-63c-0.5-1.8-1.1-4.8-3.4-7.2L399.2,182.8z"/>
				<g>
					<g>
						
							<linearGradient id="SVGID_63_" gradientUnits="userSpaceOnUse" x1="1330.5691" y1="-13.916" x2="1456.2816" y2="-13.916" gradientTransform="matrix(-1 0 0 -1 1864.2816 200)">
							<stop  offset="0" style="stop-color:#676262"/>
							<stop  offset="0.2191" style="stop-color:#746F6F"/>
							<stop  offset="0.409" style="stop-color:#686363"/>
							<stop  offset="0.5531" style="stop-color:#4B4646"/>
							<stop  offset="0.7145" style="stop-color:#555050"/>
							<stop  offset="1" style="stop-color:#7D7878"/>
						</linearGradient>
						<path class="st63" d="M408,269.7c6.3,0.3,16.3-1.6,17.8-1.9l93.2-20.7c3.2-0.7,6-1.7,8.2-2.8c2.2-1.2,3.9-2.5,5-3.9
							s1.6-2.9,1.5-4.4s-0.5-3.1-0.9-4.8l-12.5-63c-0.5-1.8-1.9-7.4-4.1-10.1l-91.3,30.1c-7.8,0.4-14,1.5-14.5,7.5L408,269.7z"/>
					</g>
				</g>
				<g>
					<g>
						
							<linearGradient id="SVGID_64_" gradientUnits="userSpaceOnUse" x1="1337.4319" y1="1.3009" x2="1455.6744" y2="-22.3892" gradientTransform="matrix(-1 0 0 -1 1864.2816 200)">
							<stop  offset="0" style="stop-color:#534E4E"/>
							<stop  offset="2.656040e-002" style="stop-color:#363131"/>
							<stop  offset="4.714480e-002" style="stop-color:#676262"/>
							<stop  offset="0.2191" style="stop-color:#746F6F"/>
							<stop  offset="0.409" style="stop-color:#686363"/>
							<stop  offset="0.5531" style="stop-color:#4B4646"/>
							<stop  offset="0.7145" style="stop-color:#555050"/>
							<stop  offset="1" style="stop-color:#7D7878"/>
						</linearGradient>
						<path class="st64" d="M509.8,168l-7.6-5.4l14-4.6c2.2,2.7,3.6,8.3,4.1,10.1l12.5,63c0.4,1.8,0.8,3.4,0.9,4.8
							c0.1,1.5-0.4,3-1.5,4.4c-0.1,0.1-0.1,0.1-0.2,0.2c-2.4-12.4-13-66.5-14.4-70.2C515.9,166.4,509.8,168,509.8,168z"/>
					</g>
					
						<linearGradient id="SVGID_65_" gradientUnits="userSpaceOnUse" x1="1339.6849" y1="13.7576" x2="1638.6255" y2="195.6304" gradientTransform="matrix(-1 0 0 -1 1864.2816 200)">
						<stop  offset="0" style="stop-color:#3D3838"/>
						<stop  offset="0.2185" style="stop-color:#585353"/>
						<stop  offset="0.2835" style="stop-color:#464141"/>
						<stop  offset="0.3572" style="stop-color:#474242"/>
						<stop  offset="0.512" style="stop-color:#524D4D"/>
						<stop  offset="0.6248" style="stop-color:#797474"/>
						<stop  offset="0.6746" style="stop-color:#757070"/>
						<stop  offset="0.7344" style="stop-color:#959090"/>
						<stop  offset="0.7915" style="stop-color:#858080"/>
						<stop  offset="0.8858" style="stop-color:#D7D2D2"/>
					</linearGradient>
					<path class="st65" d="M362.5,18c1.4,0.2,2.8,0.4,4.2,0.7c1.3,0.3,2.6,0.7,3.7,1.1c1.2,0.4,2.2,0.9,3.2,1.5
						c1,0.5,1.8,1.1,2.5,1.8l138.8,133.5c1.4,1.3,2.2,2.7,2.4,4.1c0.2,1.4-0.1,2.7-0.9,4s-2.2,2.4-4,3.4s-4.1,1.8-6.8,2.4l-77.7,17
						c-1.2,0.3-2.4,0.5-3.6,0.6s-2.4,0.2-3.6,0.3c-1.2,0-2.4,0-3.7,0c-1.2-0.1-2.4-0.2-3.6-0.3c-1.6-0.2-3.2-0.5-4.7-0.9
						s-2.9-0.8-4.2-1.3s-2.5-1.1-3.6-1.8s-2-1.4-2.7-2.2l-131.8-138c-1.1-1.2-1.6-2.4-1.6-3.5c0-1.2,0.5-2.3,1.5-3.4
						s2.4-2.1,4.2-2.9c1.8-0.8,4.1-1.5,6.6-2l72.4-13.6c1.1-0.2,2.1-0.4,3.2-0.5s2.2-0.2,3.3-0.2c1.1,0,2.2,0,3.3,0
						S361.5,17.9,362.5,18L362.5,18z"/>
				</g>
				<g>
					
						<linearGradient id="SVGID_66_" gradientUnits="userSpaceOnUse" x1="1606.1455" y1="170.7992" x2="1451.7908" y2="6.9504" gradientTransform="matrix(-1 0 0 -1 1864.2816 200)">
						<stop  offset="0" style="stop-color:#ACA7A7"/>
						<stop  offset="0.2185" style="stop-color:#666161"/>
						<stop  offset="0.3572" style="stop-color:#615C5C"/>
						<stop  offset="0.512" style="stop-color:#5E5959"/>
						<stop  offset="0.6972" style="stop-color:#6C6767"/>
						<stop  offset="0.8977" style="stop-color:#7A7575"/>
						<stop  offset="0.996" style="stop-color:#868181"/>
					</linearGradient>
					<path class="st66" d="M397.1,177.4c5.2,5,11.3,8.5,16.5,10.8c-0.1,0-0.1,0-0.2,0c-1.6-0.2-3.2-0.5-4.7-0.9s-2.9-0.8-4.2-1.3
						s-2.5-1.1-3.6-1.8s-2-1.4-2.7-2.2L266.4,44c-1.1-1.2-1.6-2.4-1.6-3.5c0-0.6,0.1-1.2,0.4-1.8C288.6,64.6,386.4,167,397.1,177.4z
						"/>
				</g>
				<g>
					
						<linearGradient id="SVGID_67_" gradientUnits="userSpaceOnUse" x1="1410.5615" y1="11.6496" x2="1447.313" y2="232.235" gradientTransform="matrix(-1 0 0 -1 1864.2816 200)">
						<stop  offset="0" style="stop-color:#3F3A3A"/>
						<stop  offset="0.3572" style="stop-color:#615C5C"/>
						<stop  offset="0.5246" style="stop-color:#777272"/>
						<stop  offset="0.7344" style="stop-color:#959090"/>
						<stop  offset="0.7915" style="stop-color:#B2ADAD"/>
						<stop  offset="0.8858" style="stop-color:#EDE8E8"/>
					</linearGradient>
					<path class="st67" d="M513.3,158.6C506,151.2,373.2,22.2,373.2,22.2s-4.6-3.3-16.1-4.5c0.7,0,1.4,0,2.2,0
						c1.1,0,2.2,0.1,3.2,0.3c1.4,0.2,2.8,0.4,4.2,0.7c1.3,0.3,2.6,0.7,3.7,1.1c1.2,0.4,2.2,0.9,3.2,1.5c1,0.5,1.8,1.1,2.5,1.8
						l138.8,133.5c1.4,1.3,2.2,2.7,2.4,4.1c0.2,1.4-0.1,2.7-0.9,4s-2.2,2.4-4,3.4c-1.2,0.7-2.6,1.2-4.2,1.7
						C512.9,167,517.5,162.8,513.3,158.6z"/>
				</g>
			</g>
			<g class="st35">
				
					<linearGradient id="SVGID_68_" gradientUnits="userSpaceOnUse" x1="421.8242" y1="47.1596" x2="419.1034" y2="165.518" gradientTransform="matrix(1 0 0 -1 -102.388 200)">
					<stop  offset="0" style="stop-color:#5C5757"/>
					<stop  offset="0.2185" style="stop-color:#868181"/>
					<stop  offset="0.3572" style="stop-color:#5E5959"/>
					<stop  offset="0.512" style="stop-color:#524D4D"/>
					<stop  offset="0.6248" style="stop-color:#797474"/>
					<stop  offset="0.7344" style="stop-color:#959090"/>
					<stop  offset="0.7915" style="stop-color:#B2ADAD"/>
					<stop  offset="0.8858" style="stop-color:#EDE8E8"/>
				</linearGradient>
				<path class="st68" d="M324.3,50c-0.2,0-0.3-0.1-0.5-0.1c-3-0.5-5.7-0.6-8.2-0.4s-4.7,0.7-6.7,1.5s-3.6,1.8-4.7,3
					s-1.6,2.3-1.4,3.4s0.9,2.1,2.3,2.9c1.4,0.8,3.2,1.4,5.6,1.8c0.1,0,0.2,0,0.3,0c1.6,0.3,3.4,0.5,5.4,0.6s3.8,0.1,5.5,0.1
					c0.4-0.7,0.9-1.3,1.4-1.8s1-1,1.6-1.4l1.5-0.2l0.4-0.4c-0.8-0.1-1.7-0.2-2.7-0.4c-0.3,0-0.5-0.1-0.9-0.1
					c-1.1-0.2-2.6-0.5-4.5-0.8l-0.5,0.5l1.8,0.4c1,0.2,1.5,0.3,1.6,0.4c0.1,0,0.1,0.1,0,0.2s-0.4,0.5-1.1,1.2c-0.5,0.5-1,1-1.5,1.5
					c-2.4,0.1-4.4,0-6.2-0.3c-0.1,0-0.2,0-0.2,0c-3.2-0.6-5.1-1.6-5.9-3.1c-0.6-1.3-0.2-2.7,1.2-4.3c1.5-1.6,3.6-2.7,6.3-3.4
					c2.5-0.6,5.3-0.7,8.4-0.2c0.1,0,0.2,0,0.3,0.1c1.6,0.3,3,0.7,4,1.1c1.1,0.5,1.8,0.9,1.9,1.1c0.1,0.1-0.1,0.5-0.7,1l-0.5,0.6
					l1,0.2c1.2-1,2.2-1.8,3-2.4l-1.2-0.4c-1.4-0.5-2.6-0.9-3.6-1.2C326.2,50.3,325.3,50.1,324.3,50L324.3,50z"/>
				
					<linearGradient id="SVGID_69_" gradientUnits="userSpaceOnUse" x1="446.335" y1="47.7227" x2="443.6141" y2="166.0814" gradientTransform="matrix(1 0 0 -1 -102.388 200)">
					<stop  offset="0" style="stop-color:#5C5757"/>
					<stop  offset="0.2185" style="stop-color:#868181"/>
					<stop  offset="0.3572" style="stop-color:#5E5959"/>
					<stop  offset="0.512" style="stop-color:#524D4D"/>
					<stop  offset="0.6248" style="stop-color:#797474"/>
					<stop  offset="0.7344" style="stop-color:#959090"/>
					<stop  offset="0.7915" style="stop-color:#B2ADAD"/>
					<stop  offset="0.8858" style="stop-color:#EDE8E8"/>
				</linearGradient>
				<path class="st69" d="M336.8,65.4c-1.7-0.3-3-0.8-3.9-1.5s-1.4-1.6-1.3-2.7c0.1-1.1,0.7-2.3,1.9-3.5c0.9-1,2-1.7,3.4-2.4
					c1.4-0.6,2.9-1,4.5-1.2s3.2-0.1,4.9,0.2c0.1,0,0.1,0,0.2,0c1.8,0.3,3.1,0.8,4,1.4c1,0.7,1.4,1.5,1.4,2.4c0,1-0.6,2.1-1.7,3.3
					c-1.1,1.1-2.3,2.1-3.8,2.7c-1.5,0.7-3,1.1-4.6,1.3C340.2,65.6,338.6,65.6,336.8,65.4C336.9,65.5,336.9,65.5,336.8,65.4
					L336.8,65.4z M348.2,53.9c-0.1,0-0.2,0-0.4-0.1c-3.8-0.6-7.3-0.5-10.6,0.2c-3.3,0.8-5.8,2.1-7.6,3.9c-1.2,1.2-1.7,2.4-1.6,3.5
					s0.7,2.1,1.9,2.8c1.2,0.7,2.8,1.3,5,1.7c0.1,0,0.2,0,0.2,0c3.7,0.6,7.4,0.5,11-0.4c3.6-0.9,6.3-2.2,8.1-4.1
					c1.6-1.7,1.9-3.3,0.8-4.7C353.9,55.5,351.7,54.5,348.2,53.9L348.2,53.9z"/>
				
					<linearGradient id="SVGID_70_" gradientUnits="userSpaceOnUse" x1="465.5131" y1="48.1617" x2="462.7921" y2="166.5246" gradientTransform="matrix(1 0 0 -1 -102.388 200)">
					<stop  offset="0" style="stop-color:#5C5757"/>
					<stop  offset="0.2185" style="stop-color:#868181"/>
					<stop  offset="0.3572" style="stop-color:#5E5959"/>
					<stop  offset="0.512" style="stop-color:#524D4D"/>
					<stop  offset="0.6248" style="stop-color:#797474"/>
					<stop  offset="0.7344" style="stop-color:#959090"/>
					<stop  offset="0.7915" style="stop-color:#B2ADAD"/>
					<stop  offset="0.8858" style="stop-color:#EDE8E8"/>
				</linearGradient>
				<path class="st70" d="M370.6,57.7c-1.9-0.3-3.5-0.5-4.6-0.7c-0.3,0-0.7-0.1-1.2-0.2c-0.9-0.2-2.2-0.4-3.8-0.7l-0.5,0.5l1.7,0.3
					c0,0,0,0,0.1,0c0.7,0.1,1,0.3,1,0.5s-0.8,1.2-2.4,2.9l-4.3,4.6c-1.5,1.6-2.4,2.4-2.8,2.6s-1.1,0.3-2.1,0.4l-0.4,0.4
					c2.2,0.3,3.8,0.5,4.9,0.7l7.5,1.3c1.7,0.3,3,0.4,4,0.5c1-0.9,2.2-1.9,3.4-2.9l-1.1-0.2l-2.8,1.8c-0.9,0-1.8-0.1-2.7-0.2
					c-1.2-0.1-2.8-0.4-4.8-0.7c-0.4-0.1-0.7-0.1-1.1-0.2c-0.7-0.1-1.3-0.2-2-0.4l0.5-0.5l2.2-2.4l5.1-5.4c1.2-1.3,1.9-2,2.2-2.1
					s0.7-0.2,1.3-0.1l2,0.3L370.6,57.7L370.6,57.7z"/>
				
					<linearGradient id="SVGID_71_" gradientUnits="userSpaceOnUse" x1="490.1321" y1="48.726" x2="487.4111" y2="167.0915" gradientTransform="matrix(1 0 0 -1 -102.388 200)">
					<stop  offset="0" style="stop-color:#5C5757"/>
					<stop  offset="0.2185" style="stop-color:#868181"/>
					<stop  offset="0.3572" style="stop-color:#5E5959"/>
					<stop  offset="0.512" style="stop-color:#524D4D"/>
					<stop  offset="0.6248" style="stop-color:#797474"/>
					<stop  offset="0.7344" style="stop-color:#959090"/>
					<stop  offset="0.7915" style="stop-color:#B2ADAD"/>
					<stop  offset="0.8858" style="stop-color:#EDE8E8"/>
				</linearGradient>
				<path class="st71" d="M380,72.3c-1-0.2-2.1-0.4-3.3-0.7c0.7-0.9,1.5-1.9,2.5-2.9l5.2-5.5c0.6-0.7,1.3-1.3,1.9-1.8
					c1.6,0.1,3,0.3,4.2,0.5c0.1,0,0.2,0,0.3,0c3,0.5,5,1.3,5.8,2.4s0.5,2.5-1,4.2c-1.8,1.9-4.1,3.2-7.1,3.8
					c-2.4,0.5-5.1,0.6-8.1,0.1C380.3,72.4,380.2,72.4,380,72.3L380,72.3z M392.9,61.4c-0.2,0-0.4-0.1-0.6-0.1l-3.5-0.5l-4.3-0.7
					c-0.2,0-0.4-0.1-0.6-0.1c-0.7-0.1-1.6-0.3-2.9-0.5l-0.5,0.5l1.2,0.3c0.7,0.2,1.1,0.3,1.1,0.4c0.1,0.1-0.1,0.4-0.4,0.8
					c-0.6,0.7-1.3,1.6-2.2,2.6l-2.3,2.5c-2,2.2-3.6,3.7-4.6,4.5l-1.9,0.2l-0.4,0.4c1.4,0.1,2.5,0.3,3.4,0.4c0.5,0.1,1.7,0.3,3.6,0.7
					l1.9,0.3c3.9,0.6,7.7,0.5,11.3-0.3s6.3-2.2,8.1-4.1c0.9-0.9,1.3-1.8,1.4-2.6c0-0.8-0.3-1.6-1.1-2.2c-0.7-0.7-1.8-1.2-3.1-1.6
					C395.3,61.9,394.1,61.6,392.9,61.4L392.9,61.4z"/>
			</g>
			<g class="st35">
				
					<linearGradient id="SVGID_72_" gradientUnits="userSpaceOnUse" x1="405.2872" y1="143.2983" x2="434.2896" y2="143.2983" gradientTransform="matrix(1 0 0 -1 -102.388 200)">
					<stop  offset="0" style="stop-color:#5C5757"/>
					<stop  offset="0.2185" style="stop-color:#645F5F"/>
					<stop  offset="0.3572" style="stop-color:#5E5959"/>
					<stop  offset="0.7112" style="stop-color:#524D4D"/>
					<stop  offset="0.994" style="stop-color:#797474"/>
				</linearGradient>
				<path class="st72" d="M324.4,50.6c-0.2,0-0.3-0.1-0.5-0.1c-3-0.5-5.7-0.6-8.2-0.4s-4.7,0.7-6.7,1.5s-3.6,1.8-4.7,3
					c-1.1,1.2-1.6,2.3-1.4,3.4s0.9,2.1,2.3,2.9s3.2,1.4,5.6,1.8c0.1,0,0.2,0,0.3,0c1.6,0.3,3.4,0.5,5.4,0.6s3.8,0.1,5.5,0.1
					c0.4-0.7,0.9-1.3,1.4-1.8s1-1,1.6-1.4l1.5-0.2l0.4-0.4c-0.8-0.1-1.7-0.2-2.7-0.4c-0.3,0-0.5-0.1-0.9-0.1
					c-1.1-0.2-2.6-0.5-4.5-0.8l-0.5,0.5l1.8,0.4c1,0.2,1.5,0.3,1.6,0.4c0.1,0,0.1,0.1,0,0.2c-0.1,0.1-0.4,0.5-1.1,1.2
					c-0.5,0.5-1,1-1.5,1.5c-2.4,0.1-4.4,0-6.2-0.3c-0.1,0-0.1,0-0.2,0c-3.2-0.6-5.1-1.6-5.9-3.1c-0.6-1.3-0.2-2.7,1.2-4.3
					c1.5-1.6,3.6-2.7,6.3-3.4c2.5-0.6,5.3-0.7,8.4-0.2c0.1,0,0.2,0,0.3,0.1c1.6,0.3,3,0.7,4,1.1c1.1,0.5,1.7,0.9,1.9,1.1
					c0.1,0.1-0.1,0.5-0.7,1l-0.5,0.6l1,0.2c1.2-1,2.2-1.8,3-2.4l-1.2-0.4c-1.4-0.5-2.6-0.9-3.6-1.2C326.4,51,325.4,50.8,324.4,50.6
					L324.4,50.6z"/>
				
					<linearGradient id="SVGID_73_" gradientUnits="userSpaceOnUse" x1="430.4772" y1="139.5579" x2="458.1424" y2="139.5579" gradientTransform="matrix(1 0 0 -1 -102.388 200)">
					<stop  offset="0" style="stop-color:#5C5757"/>
					<stop  offset="0.2185" style="stop-color:#645F5F"/>
					<stop  offset="0.3572" style="stop-color:#5E5959"/>
					<stop  offset="0.7112" style="stop-color:#524D4D"/>
					<stop  offset="0.994" style="stop-color:#797474"/>
				</linearGradient>
				<path class="st73" d="M336.9,66.1c-1.7-0.3-3-0.8-3.9-1.5s-1.4-1.6-1.3-2.7c0.1-1.1,0.7-2.3,1.9-3.5c0.9-1,2-1.7,3.4-2.4
					c1.4-0.6,2.9-1,4.5-1.2s3.2-0.1,4.9,0.2c0.1,0,0.1,0,0.2,0c1.8,0.3,3.1,0.8,4,1.4c1,0.7,1.4,1.5,1.4,2.4c0,1-0.6,2.1-1.7,3.3
					c-1.1,1.1-2.3,2.1-3.8,2.7c-1.5,0.7-3,1.1-4.6,1.3c-1.6,0.2-3.2,0.2-4.9-0.1C337.1,66.1,337,66.1,336.9,66.1L336.9,66.1z
					 M348.3,54.5c-0.1,0-0.2,0-0.4-0.1c-3.7-0.6-7.3-0.5-10.6,0.2c-3.3,0.8-5.8,2.1-7.6,3.9c-1.1,1.2-1.7,2.4-1.6,3.5
					s0.7,2.1,1.9,2.8s2.8,1.3,5,1.7c0.1,0,0.2,0,0.2,0c3.7,0.6,7.4,0.5,11-0.4c3.6-0.9,6.3-2.2,8.1-4.1c1.6-1.7,1.9-3.3,0.8-4.7
					C354.1,56.1,351.8,55.2,348.3,54.5L348.3,54.5z"/>
				
					<linearGradient id="SVGID_74_" gradientUnits="userSpaceOnUse" x1="453.7622" y1="135.85" x2="473.6316" y2="135.85" gradientTransform="matrix(1 0 0 -1 -102.388 200)">
					<stop  offset="0" style="stop-color:#5C5757"/>
					<stop  offset="0.2185" style="stop-color:#645F5F"/>
					<stop  offset="0.3572" style="stop-color:#5E5959"/>
					<stop  offset="0.7112" style="stop-color:#524D4D"/>
					<stop  offset="0.994" style="stop-color:#797474"/>
				</linearGradient>
				<path class="st74" d="M370.7,58.4c-1.9-0.3-3.5-0.5-4.6-0.7c-0.3,0-0.7-0.1-1.2-0.2c-0.9-0.2-2.2-0.4-3.8-0.7l-0.5,0.5l1.7,0.3
					c0,0,0,0,0.1,0c0.7,0.1,1,0.3,1,0.5s-0.8,1.2-2.4,2.9l-4.4,4.6c-1.5,1.6-2.4,2.4-2.8,2.6s-1.1,0.3-2.1,0.4l-0.4,0.4
					c2.2,0.3,3.8,0.5,4.9,0.7l7.5,1.3c1.7,0.3,3,0.4,4,0.5c1-0.9,2.2-1.9,3.4-2.9l-1-0.2l-2.8,1.8c-0.9,0-1.8-0.1-2.7-0.2
					c-1.2-0.1-2.8-0.4-4.8-0.7c-0.3-0.1-0.7-0.1-1.1-0.2c-0.7-0.1-1.3-0.2-2-0.4l0.5-0.5l2.2-2.4l5-5.4c1.2-1.3,1.9-2,2.3-2.1
					c0.3-0.1,0.7-0.2,1.3-0.1l2,0.3L370.7,58.4L370.7,58.4z"/>
				
					<linearGradient id="SVGID_75_" gradientUnits="userSpaceOnUse" x1="473.4426" y1="132.8071" x2="503.0957" y2="132.8071" gradientTransform="matrix(1 0 0 -1 -102.388 200)">
					<stop  offset="0" style="stop-color:#5C5757"/>
					<stop  offset="0.2185" style="stop-color:#645F5F"/>
					<stop  offset="0.3572" style="stop-color:#5E5959"/>
					<stop  offset="0.7112" style="stop-color:#524D4D"/>
					<stop  offset="0.994" style="stop-color:#797474"/>
				</linearGradient>
				<path class="st75" d="M380.2,73c-1-0.2-2.1-0.4-3.3-0.7c0.7-0.9,1.5-1.9,2.5-2.9l5.2-5.5c0.6-0.7,1.3-1.3,1.9-1.8
					c1.6,0.1,3,0.3,4.1,0.5c0.1,0,0.2,0,0.3,0c3,0.5,5,1.3,5.8,2.4s0.5,2.5-1,4.2c-1.8,1.9-4.1,3.2-7,3.8c-2.4,0.5-5.1,0.6-8.1,0.1
					C380.4,73.1,380.3,73,380.2,73L380.2,73z M393,62.1c-0.2,0-0.4-0.1-0.6-0.1l-3.5-0.5l-4.3-0.7c-0.2,0-0.4-0.1-0.6-0.1
					c-0.7-0.1-1.6-0.3-2.9-0.5l-0.5,0.5l1.2,0.3c0.7,0.2,1.1,0.3,1.1,0.4c0.1,0.1-0.1,0.4-0.4,0.8c-0.6,0.7-1.3,1.6-2.2,2.6
					l-2.3,2.5c-2,2.2-3.6,3.7-4.6,4.5l-1.9,0.2l-0.4,0.4c1.4,0.2,2.5,0.3,3.4,0.4c0.5,0.1,1.7,0.3,3.6,0.7l1.9,0.3
					c3.9,0.6,7.7,0.5,11.3-0.3s6.3-2.2,8.1-4.1c0.9-0.9,1.3-1.8,1.4-2.6c0-0.8-0.3-1.6-1.1-2.2c-0.7-0.7-1.8-1.2-3.1-1.6
					C395.4,62.6,394.2,62.3,393,62.1L393,62.1z"/>
			</g>
		</g>
	</g>
</g>
</svg>
