<?xml version="1.0" encoding="utf-8"?>
<!-- Generator: Adobe Illustrator 21.0.2, SVG Export Plug-In . SVG Version: 6.00 Build 0)  -->
<svg version="1.1" id="Layer_2" xmlns="http://www.w3.org/2000/svg" xmlns:xlink="http://www.w3.org/1999/xlink" x="0px" y="0px"
	 viewBox="0 0 640 480" style="enable-background:new 0 0 640 480;" xml:space="preserve">
<style type="text/css">
	.st0{fill:none;}
	.st1{fill:#F9A519;}
	.st2{fill:#E11B22;}
</style>
<g>
	<path class="st0" d="M372,404.4h97.4c6.1,0,11.5-4.4,12.8-10.4l35.1-167.1H410.6L372,404.4z"/>
	<g>
		<path class="st1" d="M93.9,32.4l45.9,85h38.6L192.9,0.5h-28l-10.6,80.2L107.9,0.5H72.2c0,0-16.9,107.2-16.9,116.9h27L93.9,32.4z"
			/>
		<polygon class="st1" points="250.4,0.5 220.4,0.5 205,117.4 234.9,117.4 		"/>
		<polygon class="st1" points="410.2,117.4 440.1,117.4 452.2,24.6 493.7,24.6 495.7,0.5 387.5,0.5 384.6,24.6 422,24.6 		"/>
		<polygon class="st1" points="535.8,117.4 565.7,117.4 571,68.5 633.8,0.5 594.2,0.5 560.4,42 538.2,0.5 502.4,0.5 542,68.5 		"/>
		<polygon class="st1" points="294.8,71 358.5,71 362.4,45.3 297.9,45.3 299.9,24.6 372.1,24.6 374,0.5 275.5,0.5 258.6,117.4 
			288.5,117.4 		"/>
		<path class="st1" d="M549.3,151.8H409.1c-16.7,0-33,5.8-46,16.2c-13,10.5-22.1,25.2-25.6,41.5l-43.2,198.7
			c-3.8,17.5,0.5,35.5,11.7,49.4c11.2,13.9,27.9,21.9,45.8,21.9h117.6c20.2,0,39.9-7,55.6-19.7c15.7-12.7,26.6-30.6,30.7-50.3
			L597.4,211c3.1-14.6-0.6-29.5-9.9-41.1C578.1,158.4,564.2,151.8,549.3,151.8z M587.5,208.9l-41.7,198.4
			c-3.7,17.5-13.3,33.3-27.2,44.6c-13.9,11.3-31.4,17.5-49.2,17.5H351.8c-14.8,0-28.7-6.6-38-18.2c-9.3-11.5-12.8-26.5-9.7-40.9
			l43.2-198.7c3.1-14,10.9-26.7,22.1-35.7c11.2-9,25.3-14,39.6-14h140.2c11.8,0,22.9,5.3,30.3,14.4
			C587.1,185.5,589.9,197.4,587.5,208.9z"/>
		<path class="st1" d="M523.8,216.8H409.1c-3.8,0-7.2,2.7-8,6.5l-40.3,185.4c-0.7,3,1.6,5.8,4.7,5.8h103.9
			c10.9,0,20.4-7.7,22.7-18.4l36.4-173.4C529.1,219.6,526.8,216.8,523.8,216.8z M482.2,394c-1.3,6-6.6,10.4-12.8,10.4H372
			l38.6-177.5h106.7L482.2,394z"/>
		<path class="st1" d="M239.9,273.8H115.2l9.9-44.4h154.2c7.4,0,13.6-5.3,14.9-12.5l8.3-47.4c0.8-4.4-0.4-8.9-3.3-12.3
			c-2.9-3.4-7.1-5.4-11.6-5.4H106.5c-25.7,0-47.5,17.5-53.1,42.6l-22,98.6c-5.7,25.6,9.3,49.9,35.7,57.8c1.4,0.4,2.9,0.6,4.4,0.6
			h136.2l-11.6,50.4H88.7l0.8-6.2c0.5-4.3-0.8-8.6-3.7-11.9c-2.9-3.3-7-5.1-11.3-5.1h-47c-7.5,0-13.9,5.6-15,13l-5.9,40.7
			c-3,21.7,10.9,41.4,33.1,46.7c1.2,0.3,2.4,0.4,3.6,0.4h159.7c32.5,0,60.2-22.1,67.4-53.7l20.3-88.6c3.5-15.5-0.2-31.5-10.1-43.9
			C270.6,280.9,255.8,273.8,239.9,273.8z M280.8,335l-20.3,88.5c-6.1,27-29.8,45.9-57.5,45.9H43.3c-0.4,0-0.8,0-1.2-0.1
			c-18-4.3-27.6-20.1-25.4-35.6l5.9-40.6c0.4-2.5,2.5-4.3,5-4.3h47c3,0,5.4,2.7,5,5.7L78,406.3c-0.4,3,2,5.7,5,5.7h119.9
			c0.7,0,1.3-0.5,1.5-1.2l14.5-63.2c0.7-3.2-1.7-6.2-4.9-6.2H71.5c-0.5,0-1-0.1-1.5-0.2c-22.3-6.7-33.1-26.9-28.8-46l22-98.6
			c4.6-20.4,22.4-34.7,43.3-34.7h181.2c3.1,0,5.5,2.8,5,5.9l-8.3,47.4c-0.4,2.4-2.5,4.2-5,4.2H121.1c-2.4,0-4.4,1.6-4.9,3.9
			L104,277.7c-0.7,3.2,1.7,6.1,4.9,6.1h131c12.8,0,24.7,5.7,32.7,15.7C280.6,309.6,283.6,322.5,280.8,335z"/>
	</g>
	<g>
		<path class="st2" d="M579.6,176.3c-7.4-9.2-18.5-14.4-30.3-14.4H409.1c-14.4,0-28.4,5-39.6,14c-11.2,9-19,21.7-22.1,35.7
			l-43.2,198.7c-3.2,14.5,0.4,29.4,9.7,40.9c9.3,11.5,23.1,18.2,38,18.2h117.6c17.9,0,35.4-6.2,49.2-17.5
			c13.9-11.3,23.5-27.1,27.2-44.6l41.7-198.4C589.9,197.4,587.1,185.5,579.6,176.3z M492.1,396.1c-2.2,10.7-11.8,18.4-22.7,18.4
			H365.5c-3.1,0-5.4-2.8-4.7-5.8l40.3-185.4c0.8-3.7,4.2-6.5,8-6.5h114.7c3.1,0,5.3,2.8,4.7,5.8L492.1,396.1z"/>
		<path class="st2" d="M287.7,161.8H106.5c-20.9,0-38.7,14.3-43.3,34.7l-22,98.6c-4.3,19.1,6.4,39.3,28.8,46c0.5,0.1,1,0.2,1.5,0.2
			H214c3.2,0,5.6,3,4.9,6.2l-14.5,63.2c-0.2,0.7-0.8,1.2-1.5,1.2H83c-3,0-5.4-2.7-5-5.7l1.5-11.8c0.4-3-2-5.7-5-5.7h-47
			c-2.5,0-4.6,1.8-5,4.3l-5.9,40.6c-2.1,15.5,7.4,31.2,25.4,35.6c0.4,0.1,0.8,0.1,1.2,0.1h159.7c27.8,0,51.4-18.9,57.5-45.9
			l20.3-88.5c2.8-12.5-0.1-25.4-8.1-35.4c-8-10-19.9-15.7-32.7-15.7h-131c-3.2,0-5.6-3-4.9-6.1l12.2-54.5c0.5-2.3,2.6-3.9,4.9-3.9
			h158.3c2.4,0,4.5-1.8,5-4.2l8.3-47.4C293.2,164.7,290.8,161.8,287.7,161.8z"/>
	</g>
</g>
</svg>
