<?xml version="1.0" encoding="utf-8"?>
<!-- Generator: Adobe Illustrator 19.2.1, SVG Export Plug-In . SVG Version: 6.00 Build 0)  -->
<svg version="1.1" id="Layer_1" xmlns="http://www.w3.org/2000/svg" xmlns:xlink="http://www.w3.org/1999/xlink" x="0px" y="0px"
	 viewBox="0 0 640 480" style="enable-background:new 0 0 640 480;" xml:space="preserve">
<style type="text/css">
	.st0{fill-rule:evenodd;clip-rule:evenodd;fill:#1A171B;}
</style>
<path class="st0" d="M105.3,269.9c-3.6,0.6-4.9-1.3-4.8-4.2c0.3-15,0.2-29.5,0.1-44.4c0-4.1,0.8-8.4,4.3-10.9
	c5.9-4.2,13.5-4.7,20.1-2.3c4.4,1.6,7.4,5.2,9.4,9.5c5.3,11.3,10.9,20.6,16.6,32.7c2,4.2,7.4,2.4,7.1-2.2
	c-0.9-14.6-0.1-27.1-0.3-41.3c5.7-0.2,10.1-0.2,15.8,0c0.1,16.6,0,33.2,0,49.8c0,3.5-1.6,7.3-4.3,9.2c-9.2,6.6-26.2,5.6-31.3-5.4
	c-5.2-11.1-10.9-20.9-16.1-32.2c-1.2-2.6-5.5-3-5.6-0.1c-0.5,12.9-0.1,24.6-0.1,37.4c0,2.6-0.5,4.6-3.8,4.2
	C109.5,269.6,108.4,269.4,105.3,269.9L105.3,269.9z M184.8,269.9c6.8-0.5,11.5,0.2,18.1-0.4c0.1-20.9,0.1-41.8,0-62.7
	c-6.5-0.3-11.7-0.3-18.2,0C184.6,227.9,184.4,249,184.8,269.9L184.8,269.9z M211.7,269.8c21.3-0.1,42.3,0.1,63.6-0.1
	c1.3,0,2.4,0.4,3.9-0.5c1.5-1,1.5,0.2,2.8-1c14.2-12.5,1.2-26.5-11.8-29.3c-12.3-2.6-23.4-9.6-35.6-12.7c-2.1-0.5-4-3.4-1.9-4.8
	c1.2-0.8,2.3-1.1,3.6-1.1c17.2-0.1,34.2,0.1,51.5-0.1c0.3-4.8,0.6-8.6-0.1-13.4c-12.5,0.2-26.5-0.4-38.8,0.1
	c-13.2,0.6-31.4-4.9-36.8,11c-1.2,3.5-0.4,5.6,0.4,8.9c1.3,5.3,5.2,8.7,10,10.3c13.4,4.5,25.3,9.7,38.9,14.1c3.1,1,3.4,5.4,0,5.4
	c-17.4-0.1-33-0.1-50.1,0C211.5,261.1,210.7,265.6,211.7,269.8L211.7,269.8z M296.6,269.8c20.6,0,41.2,0,61.7,0c3.2,0,6.5-0.2,9-2.2
	c3.3-2.6,5.8-6.8,5.5-10.7c-0.2-3.6-0.2-9.1-3.6-11c-15.6-8.9-32.9-12.8-50-20.1c-3.3-1.4-2-5.7,1.7-5.6c17.9,0.2,34.2,0.1,51.8,0
	c0.1-4.9,0.5-8.6-0.2-13.5c-12.5,0.2-26.5-0.4-38.8,0.1c-13.2,0.6-31.4-4.9-36.8,11c-1.2,3.6-0.4,5.6,0.4,8.9
	c1.3,5.3,5.2,8.7,10,10.3c13.4,4.5,25.3,9.7,39,14.1c3.2,1,3.4,5.4,0,5.4c-17.4-0.1-33-0.1-50.1,0
	C296.4,261.1,295.6,265.7,296.6,269.8L296.6,269.8z M435.6,231.2c-11.5,0.3-23.8,0.5-35.6-0.1c-0.4-13.5,13.3-10.9,22-11.2
	C428.4,219.6,437.8,221.6,435.6,231.2L435.6,231.2z M386.6,270c-3.2,0.5-5.2-1.3-5.2-4.1c-0.1-16-1.5-32.3,0.8-48
	c0.5-3.6,3.2-7,6.3-8.6c3.1-1.6,7-2.4,10.5-2.5c9.1-0.2,19.3,0.1,28.2-0.1c9.5-0.2,23.1-0.8,26.1,9.5c2.8,9.6,0.5,18.7,1,28.3
	c0.5,8.4-0.1,16.6,0,25.1c-6.1,0.4-11.4,0.3-17.3,0.1c-0.8-8.4,0.6-15.7-0.8-24.4c-12.1-0.7-24-0.6-36.2-0.1
	c-0.7,7.6-0.5,13.3-0.3,20.6c0.1,2.8-1.1,4.4-4.1,4.2C392,269.7,390,269.4,386.6,270L386.6,270z M464.3,269.9
	c5.8-0.4,9.9,0.3,15.4-0.3c0.1-13-0.1-26.2,0-39.2c0-1.8,0.7-3.9,2.5-4.4c1.6-0.5,2.7,1.5,3.4,2.8c6.2,10.7,11.1,22.7,17.7,33.6
	c6.3,10.3,24.1,9.9,31.9,1.8c2-2.1,2.3-6.1,2.3-9.2c-0.2-15.8,0.1-31.9-0.2-47.8c-5.5-0.5-10.2-0.2-15.8-0.2
	c0.1,14.6-0.2,28.2,0.1,43c0.1,3.2-4.5,4.4-5.9,1.6c-5.9-11.6-12.1-22.5-17.7-34c-2.2-4.5-5.7-8.4-10.4-9.7c-7.3-2-16.4-1.2-21.2,5
	c-4.1,5.3-2,12.7-2.2,19.2C463.9,244.5,464.1,257.4,464.3,269.9L464.3,269.9z M491.2,170.3c-28.4-63.5-94.3-107.9-171.1-107.9
	c-75.5,0-140.4,43-169.5,104.7C213.4,163.8,356.1,158.9,491.2,170.3z M322.5,315.8c0,0-93-0.4-173.6-6.5
	c28.3,63.7,94.3,108.3,171.3,108.3c76.6,0,142.4-44.3,170.9-107.5C446.4,313.8,387.9,316.9,322.5,315.8z M594.3,282.1
	c0,0.1-0.3,16.9-14.3,18.1c0,0-8.2,1.3-23.1,3.2C528,402.3,433,475,320.1,475C206.9,475,111.5,401.8,83,302.3
	c-6.9-1.1-13.3-2.2-19.1-3.4c-0.8-0.4-16.2,1.2-17.4-17.8c-1.6-17.8-3.9-70.3,0-86.1c0-0.8,1.2-13,18.6-16.2
	c6.2-1.3,12.2-2.5,18.7-3.8C113.3,76.8,207.9,5,320.1,5c113.1,0,208.3,73,237.1,172.4c8.1,1.1,16,2.2,23.9,3.4
	c0,0,13.4,0.3,13.7,17.8C594.9,198.6,596.9,257.7,594.3,282.1z"/>
</svg>
