<?xml version="1.0" encoding="utf-8"?>
<!-- Generator: Adobe Illustrator 19.1.1, SVG Export Plug-In . SVG Version: 6.00 Build 0)  -->
<svg version="1.1" id="Layer_3" xmlns="http://www.w3.org/2000/svg" xmlns:xlink="http://www.w3.org/1999/xlink" x="0px" y="0px"
	 viewBox="0 0 640 480" style="enable-background:new 0 0 640 480;" xml:space="preserve">
<style type="text/css">
	.st0{fill-rule:evenodd;clip-rule:evenodd;fill:#00A2CE;}
</style>
<g>
	<path class="st0" d="M413.9,296.1L413.9,296.1c2.6-3.9,5.2-11.7,9.1-14.3c1.3,0,1.3,0,2.6,0c9.1-2.6,26.1-6.5,41.7-11.7
		c0-2.6,0-5.2,0-7.8c-18.3,6.5-39.1,11.7-61.3,15.6c-2.6,0-5.2,1.3-7.8,1.3c-2.6,9.1-13,13-19.6,6.5c-7.8-7.8-1.3-20.9,9.1-22.2
		c3.9,0,7.8,2.6,9.1,6.5c2.6-1.3,5.2-1.3,7.8-1.3c22.2-3.9,43-9.1,60-15.6c0-2.6,0-3.9-1.3-6.5c-15.6,6.5-35.2,11.7-56.1,15.6
		c0,0,0,0-1.3,0c-3.9-2.6-10.4-5.2-15.6-7.8c-7.8,1.3-15.6,2.6-24.8,2.6c1.3,24.8,2.6,48.2,2.6,71.7c24.8-2.6,48.2-6.5,69.1-11.7
		c3.9-9.1,5.2-10.4,7.8-16.9c0-1.3,1.3-1.3,2.6-1.3c7.8-2.6,14.3-3.9,22.2-6.5c0-5.2-1.3-9.1-1.3-13c-13,3.9-27.4,7.8-40.4,11.7
		c-2.6,2.6-5.2,6.5-7.8,10.4c1.3,1.3,2.6,3.9,2.6,6.5c-1.3,10.4-13,17-19.6,10.4C395.6,310.4,402.1,296.1,413.9,296.1L413.9,296.1z"
		/>
	<path class="st0" d="M469.9,311.7c-7.8,2.6-16.9,5.2-26.1,7.8c0,2.6-1.3,5.2-2.6,7.8c1.3,2.6,1.3,5.2,1.3,7.8
		c-1.3,10.4-14.3,16.9-19.6,9.1c-5.2-6.5,2.6-19.6,10.4-19.6c0-1.3,1.3-1.3,1.3-2.6c-20.9,5.2-43,9.1-66.5,10.4
		c0,27.4-1.3,52.2-3.9,71.7c36.5-2.6,67.8-9.1,93.9-18.3C466,363.9,469.9,339.1,469.9,311.7L469.9,311.7z"/>
	<path class="st0" d="M522.1,181.3c-6.5-13-9.1-18.3-11.7-24.8c-1.3,1.3-1.3,2.6-2.6,3.9c6.5,10.4,11.7,22.2,15.6,33.9
		C523.4,189.2,522.1,185.2,522.1,181.3L522.1,181.3z"/>
	<path class="st0" d="M527.3,215.2c-1.3-1.3-1.3-3.9-1.3-5.2c-11.7,13-32.6,26.1-58.7,35.2c1.3,2.6,1.3,3.9,1.3,6.5
		C494.7,241.3,515.6,229.6,527.3,215.2L527.3,215.2z"/>
	<path class="st0" d="M531.2,187.8c-3.9-10.4-9.1-20.9-15.6-31.3v-1.3c0,0-1.3-1.3-1.3-5.2c-1.3,1.3-1.3,2.6-2.6,3.9
		c6.5,9.1,7.8,13,13,24.8c0,1.3,0,1.3,1.3,1.3c0,1.3,1.3,13,2.6,26.1l-1.3,1.3c1.3,1.3,1.3,2.6,2.6,5.2c0-1.3,1.3-2.6,1.3-3.9
		C531.2,202.2,531.2,194.4,531.2,187.8L531.2,187.8z"/>
	<path class="st0" d="M469.9,301.3c-6.5,2.6-13,3.9-19.6,6.5c-1.3,2.6-2.6,3.9-3.9,6.5c9.1-2.6,16.9-5.2,23.5-7.8
		C469.9,305.2,469.9,302.6,469.9,301.3L469.9,301.3z"/>
	<path class="st0" d="M453,194.4c5.2,14.3,9.1,27.4,13,41.7c26.1-9.1,45.6-22.2,56.1-35.2c-3.9-13-9.1-26.1-16.9-39.1
		C494.7,174.8,476.5,185.2,453,194.4L453,194.4z"/>
	<path class="st0" d="M245.7,50.9c-2.6,1.3-6.5,2.6-9.1,3.9c2.6,5.2,9.1,10.4,18.3,14.3c2.6-1.3,5.2-3.9,7.8-5.2
		c-6.5-3.9-11.7-6.5-14.3-10.4C247,52.2,247,50.9,245.7,50.9L245.7,50.9z"/>
	<path class="st0" d="M250.9,77c-3.9,3.9-9.1,7.8-13,11.7c10.4,5.2,23.5,7.8,37.8,10.4l0,0c0-5.2,0-10.4,0-14.3
		C266.5,82.2,257.4,79.6,250.9,77L250.9,77z"/>
	<path class="st0" d="M227.4,58.8c-5.2,2.6-10.4,6.5-15.6,9.1c3.9,7.8,11.7,14.3,23.5,19.6c5.2-3.9,9.1-7.8,13-11.7
		C237.9,70.5,231.3,65.3,227.4,58.8L227.4,58.8z"/>
	<path class="st0" d="M192.2,152.6c19.6,9.1,43,15.6,70.4,19.6c0-2.6,1.3-5.2,1.3-9.1c-26.1-2.6-49.5-9.1-67.8-16.9
		C194.8,147.4,193.5,150,192.2,152.6L192.2,152.6z"/>
	<path class="st0" d="M391.7,243.9c0,0,0,0,1.3,0c3.9,2.6,10.4,5.2,14.3,7.8c20.9-3.9,39.1-7.8,54.8-14.3
		c-2.6-14.3-7.8-27.4-11.7-41.7c-24.8,9.1-56.1,15.6-88.7,18.3c1.3,11.7,2.6,22.2,2.6,33.9C373.5,246.5,382.6,245.2,391.7,243.9
		L391.7,243.9z"/>
	<path class="st0" d="M176.6,186.5c20.9,9.1,48.2,16.9,78.2,20.9c2.6-9.1,3.9-18.3,5.2-26.1c-27.4-3.9-52.2-10.4-73-19.6
		C183.1,169.6,179.2,177.4,176.6,186.5L176.6,186.5z"/>
	<path class="st0" d="M244.4,24.9c-5.2,2.6-11.7,5.2-16.9,7.8c1.3,0,2.6,0,5.2,0c1.3-1.3,3.9-1.3,5.2-2.6c1.3,0,2.6,0,3.9,0
		c0,0,0,0-1.3,0c-2.6,2.6-3.9,3.9-6.5,5.2c23.5-5.2,45.6-7.8,70.4-5.2c2.6,0,10.4,0,13,1.3c-2.6-1.3-9.1-2.6-11.7-3.9
		C284.8,19.7,263.9,19.7,244.4,24.9L244.4,24.9z"/>
	<path class="st0" d="M271.8,58.8c6.5,3.9,15.6,6.5,26.1,7.8c3.9-10.4,9.1-19.6,14.3-27.4c1.3-1.3,5.2-5.2,6.5-6.5
		c-2.6,1.3-6.5,2.6-9.1,3.9C296.5,43.1,283.5,49.6,271.8,58.8L271.8,58.8z"/>
	<path class="st0" d="M323.9,39.2c6.5,15.6,14.3,36.5,19.6,62.6c18.3-1.3,35.2-5.2,49.5-9.1c-3.9-3.9-6.5-7.8-9.1-10.4
		c-5.2,1.3-11.7,3.9-18.3,5.2c0,1.3-1.3,2.6-1.3,3.9c-3.9,2.6-9.1,2.6-11.7-1.3c-3.9-3.9-3.9-7.8-1.3-11.7c2.6-2.6,7.8-2.6,11.7,1.3
		l0,0c5.2-1.3,10.4-2.6,14.3-3.9C363,60.1,346.1,47,329.1,37.9c-2.6-1.3-6.5-3.9-9.1-5.2C321.3,34,322.6,37.9,323.9,39.2L323.9,39.2
		z"/>
	<path class="st0" d="M314.8,39.2c-5.2,7.8-10.4,17-14.3,27.4c2.6,0,7.8,1.3,11.7,1.3c1.3-2.6,2.6-3.9,6.5-3.9
		c3.9,0,7.8,2.6,7.8,6.5c0,3.9-2.6,7.8-7.8,7.8c-3.9,0-6.5-1.3-7.8-3.9c-5.2,0-9.1-1.3-14.3-1.3c-2.6,7.8-6.5,17-10.4,26.1
		c1.3,0,1.3,1.3,2.6,2.6c15.6,1.3,33.9,2.6,52.2,0c-5.2-24.8-11.7-45.6-18.3-61.3c-1.3-2.6-2.6-5.2-2.6-7.8
		C317.4,35.3,316.1,37.9,314.8,39.2L314.8,39.2z"/>
	<path class="st0" d="M256.1,47c1.3,3.9,6.5,7.8,13,11.7c11.7-9.1,23.5-15.6,35.2-20.9c2.6-1.3,11.7-5.2,13-5.2
		c-2.6,0-10.4,1.3-13,1.3C287.4,36.6,271.8,40.5,256.1,47L256.1,47z"/>
	<path class="st0" d="M265.2,65.3c-2.6,1.3-5.2,3.9-7.8,5.2c6.5,2.6,14.3,5.2,23.5,7.8c0,0,0,0,1.3,0c0,6.5,0,7.8,0,18.3l1.3,1.3
		l0,0c3.9-9.1,6.5-18.3,10.4-24.8C283.5,70.5,273.1,67.9,265.2,65.3L265.2,65.3z"/>
	<path class="st0" d="M232.6,37.9c-2.6,3.9-3.9,6.5-3.9,10.4c0-1.3,0-1.3,1.3-1.3c1.3,0,2.6-1.3,3.9-1.3l0,0c0,2.6,0,5.2,1.3,6.5
		c3.9-1.3,6.5-2.6,10.4-3.9c-1.3-1.3-1.3-3.9-1.3-6.5c-3.9,0-6.5,0-5.2,0c1.3-2.6,20.9-7.8,23.5-6.5l0,0c-1.3,1.3-5.2,2.6-9.1,3.9
		c0,1.3,0,3.9,1.3,5.2c16.9-5.2,31.3-9.1,48.2-11.7c1.3,0,13-1.3,14.3-1.3c-1.3,0-6.5,0-9.1,0C283.5,28.8,254.8,31.4,232.6,37.9
		L232.6,37.9z"/>
	<path class="st0" d="M331.7,28.8c-1.3,0-7.8,1.3-10.4,2.6c2.6,0,13-1.3,14.3-1.3c26.1-1.3,46.9,2.6,70.4,9.1
		c-2.6-5.2-9.1-9.1-17-13C370.8,22.3,352.6,23.6,331.7,28.8L331.7,28.8z"/>
	<path class="st0" d="M416.5,44.4c2.6,6.5,1.3,13-2.6,19.6c3.9,2.6,7.8,5.2,11.7,7.8c5.2-7.8,6.5-14.3,2.6-22.2
		C424.3,48.3,420.4,47,416.5,44.4L416.5,44.4z"/>
	<path class="st0" d="M415.2,117.4c2.6,3.9,5.2,7.8,7.8,11.7c3.9-1.3,7.8-2.6,11.7-5.2l0,0c10.4,5.2,20.9,11.7,31.3,18.3
		c0-1.3,0-2.6,1.3-2.6c2.6-1.3,7.8,2.6,11.7,7.8c3.9,7.8,2.6,14.3-2.6,13c-3.9-1.3-7.8-6.5-10.4-11.7c-9.1-5.2-18.3-10.4-27.4-15.6
		c-3.9,1.3-7.8,2.6-11.7,3.9c10.4,16.9,18.2,35.2,24.8,53.5c23.5-9.1,41.7-19.6,52.1-32.6c-14.3-23.5-32.6-45.6-52.1-63.9
		C443.9,103.1,430.8,110.9,415.2,117.4L415.2,117.4z"/>
	<path class="st0" d="M402.1,28.8c-1.3,0-3.9-1.3-5.2-1.3c7.8,3.9,14.3,9.1,18.3,15.6c3.9,1.3,7.8,2.6,11.7,3.9
		C421.7,40.5,413.9,34,402.1,28.8L402.1,28.8z"/>
	<path class="st0" d="M505.1,120c0,3.9-1.3,7.8-2.6,13l2.6,10.4c1.3,2.6,2.6,3.9,3.9,6.5c1.3-1.3,1.3-3.9,2.6-5.2
		c-1.3-2.6-2.6-3.9-2.6-6.5l0,0c1.3-2.6,1.3-5.2,1.3-6.5c0-1.3,0-1.3,0-1.3c1.3,1.3,2.6,2.6,3.9,2.6c0-2.6,0-3.9-1.3-6.5
		C510.4,124,507.8,122.7,505.1,120L505.1,120z"/>
	<path class="st0" d="M331.7,37.9c16.9,9.1,32.6,20.9,48.2,36.5c10.4-3.9,18.3-7.8,23.5-13c-22.2-13-46.9-22.2-70.4-26.1
		c-2.6-1.3-9.1-2.6-11.7-2.6C323.9,32.7,330.4,36.6,331.7,37.9L331.7,37.9z"/>
	<path class="st0" d="M532.5,246.5c0-1.3,0-3.9,0-6.5c-13,17-35.2,28.7-60,37.8c0,3.9,1.3,7.8,1.3,13c11.7-5.2,23.5-10.4,32.6-15.6
		c0-1.3,0-1.3,0-1.3c0-2.6,0-3.9,0-5.2c0,0,1.3-1.3,2.6-1.3C518.2,260.9,527.3,254.3,532.5,246.5L532.5,246.5z"/>
	<path class="st0" d="M445.2,86.1c6.5-7.8,7.8-17,3.9-26.1c-2.6-1.3-5.2-2.6-9.1-3.9c-2.6-1.3-5.2-2.6-6.5-3.9
		c2.6,7.8,1.3,15.6-3.9,22.2C434.7,78.3,440,82.2,445.2,86.1L445.2,86.1z"/>
	<path class="st0" d="M340.9,392.5c-15.6,11.7-18.3,13-27.4,19.6c-1.3,1.3-1.3,1.3-1.3,1.3c-1.3,0-1.3,0-2.6,0
		c-18.3,0-36.5-1.3-53.5-3.9c1.3,2.6,1.3,6.5,2.6,9.1c17,2.6,35.2,3.9,54.8,3.9c15.6-9.1,16.9-10.4,24.8-15.6c1.3,0,1.3,0,2.6,0
		c6.5-1.3,13-1.3,19.6-1.3c1.3-20.9,2.6-45.6,2.6-73c-23.5,2.6-46.9,2.6-70.4,1.3c-2.6,2.6-5.2,3.9-7.8,5.2c0,0,0,1.3-1.3,1.3
		c0,0,0,0-1.3,0c-11.7-1.3-22.2-2.6-32.6-3.9c0,24.8,1.3,48.2,5.2,66.5c16.9,2.6,35.2,3.9,53.5,3.9c14.3-10.4,15.6-11.7,24.8-18.3
		c-5.2-7.8,3.9-16.9,14.3-14.3c6.5,0,9.1,5.2,9.1,9.1C355.2,389.9,347.4,392.5,340.9,392.5L340.9,392.5z"/>
	<path class="st0" d="M505.1,155.3c1.3,0,1.3-1.3,2.6-2.6c-1.3-2.6-2.6-3.9-5.2-7.8c0,0,0-1.3-1.3-1.3c0-2.6-3.9-14.3-5.2-16.9
		c0,0,0,0,0-1.3c2.6-3.9,2.6-9.1,2.6-13c0,0,0,0,0-1.3c9.1,6.5,10.4,6.5,13,10.4c0-1.3-1.3-3.9-1.3-3.9
		c-6.5-10.4-14.3-19.6-23.5-27.4c1.3,2.6,1.3,5.2-1.3,9.1c1.3,3.9,0,6.5-2.6,7.8c-2.6,2.6-6.5,1.3-9.1-2.6
		c-2.6-3.9-1.3-9.1,1.3-10.4c1.3-1.3,2.6-1.3,3.9-1.3c2.6-1.3,3.9-5.2,3.9-7.8c-7.8-6.5-17-13-26.1-19.6c3.9,9.1,2.6,18.3-3.9,27.4
		C473.9,110.9,492.1,131.8,505.1,155.3L505.1,155.3z"/>
	<path class="st0" d="M125.7,150c-3.9-7.8-5.2-15.6-2.6-23.5c-7.8,13-13,23.5-16.9,35.2c0,6.5,0,14.3,3.9,20.9
		C114,170.9,119.2,160.5,125.7,150L125.7,150z"/>
	<path class="st0" d="M219.6,40.5c2.6-1.3,3.9-1.3,6.5-2.6c1.3-1.3,3.9-2.6,6.5-5.2c-1.3,0-2.6,1.3-2.6,1.3c-2.6,0-3.9,1.3-5.2,1.3
		c-2.6,1.3-5.2,3.9-7.8,6.5C218.3,40.5,219.6,40.5,219.6,40.5L219.6,40.5z"/>
	<path class="st0" d="M469.9,260.9c1.3,2.6,1.3,5.2,1.3,6.5c10.4-3.9,20.9-7.8,31.3-14.3c13-6.5,22.2-14.3,28.7-22.2
		c-1.3-1.3-1.3-3.9-1.3-6.5C516.9,238.7,497.3,250.4,469.9,260.9L469.9,260.9z"/>
	<path class="st0" d="M535.1,237.4c0,2.6,0,3.9,0,6.5c6.5-7.8,9.1-15.7,10.4-23.5c0-2.6,0-5.2-1.3-9.1
		C544.3,221.7,540.3,229.6,535.1,237.4L535.1,237.4z"/>
	<path class="st0" d="M308.3,322.1c-2.6,2.6-6.5,5.2-10.4,7.8c22.2,1.3,44.3,0,65.2-1.3c0-22.2,0-46.9-2.6-70.4c-1.3,0-2.6,0-3.9,0
		c-3.9,7.8-14.3,10.4-19.6,2.6c-6.5-7.8-1.3-20.9,9.1-19.6c3.9,0,7.8,2.6,10.4,6.5c1.3,0,2.6,0,3.9,0c-1.3-10.4-1.3-22.2-2.6-32.6
		c-32.6,2.6-67.8,1.3-99.1-2.6c-3.9,22.2-6.5,44.3-7.8,65.2c5.2-3.9,10.4-9.1,16.9-14.3c-1.3-7.8,3.9-15.6,11.7-15.6
		c6.5,1.3,11.7,7.8,10.4,14.3c-1.3,9.1-10.4,13-16.9,9.1c-11.7,10.4-15.6,14.3-23.5,20.9c0,5.2,0,10.4,0,17c3.9,0,9.1,1.3,13,1.3
		c11.7-10.4,15.6-14.3,23.5-20.9c-5.2-7.8,1.3-18.3,11.7-16.9c6.5,0,10.4,6.5,10.4,13c-1.3,7.8-9.1,11.7-15.6,10.4
		c-10.4,10.4-13,13-24.8,23.5c0,0-1.3,0-1.3,1.3c-1.3,0-1.3,0-2.6-1.3c-5.2,0-9.1,0-14.3-1.3c0,2.6,0,5.2,0,7.8
		c10.4,1.3,22.2,2.6,32.6,2.6c6.5-3.9,13-9.1,19.6-13c-2.6-7.8,2.6-17,13-15.6c6.5,0,11.7,6.5,10.4,13
		C325.2,320.8,316.1,324.7,308.3,322.1L308.3,322.1z"/>
	<path class="st0" d="M546.9,232.2c-1.3,6.5-5.2,14.3-10.4,20.9c0,3.9,0,7.8,0,11.7c6.5-7.8,9.1-15.6,10.4-22.2c0-1.3,0-2.6,0-2.6
		C546.9,236.1,546.9,234.8,546.9,232.2L546.9,232.2z"/>
	<path class="st0" d="M546.9,230.9c-1.3-2.6-1.3-6.5-1.3-9.1C545.6,224.4,545.6,228.3,546.9,230.9L546.9,230.9z"/>
	<path class="st0" d="M493.4,309.1c2.6,0,3.9,2.6,3.9,3.9c10.4-5.2,26.1-14.3,36.5-26.1c0-3.9,0-9.1,0-13
		c-11.7,13-32.6,26.1-60,36.5c0,27.4-3.9,52.2-11.7,73c23.5-9.1,41.7-19.6,53.5-32.6c9.1-16.9,14.3-35.2,17-54.8
		c-7.8,9.1-20.9,18.3-35.2,26.1c-3.9,7.8-10.4,13-14.3,9.1C479.1,324.7,486.9,307.8,493.4,309.1L493.4,309.1z"/>
	<path class="st0" d="M529.9,159.2c-1.3,0-3.9-5.2-6.5-10.4c-1.3-2.6-3.9-5.2-6.5-7.8c0,1.3-1.3,3.9-1.3,5.2l2.6,7.8
		c10.4,19.6,10.4,20.9,14.3,32.6c1.3,0,1.3,1.3,1.3,1.3c0,6.5,1.3,17,1.3,28.7l0,0c-1.3,2.6-2.6,3.9-3.9,5.2
		c1.3,2.6,1.3,3.9,1.3,6.5c9.1-10.4,10.4-19.6,10.4-26.1c0-1.3,0-1.3,0-2.6c-2.6-14.3-3.9-16.9-10.4-37.8c-1.3-2.6-2.6-5.2-3.9-7.8
		C529.9,156.6,531.2,159.2,529.9,159.2L529.9,159.2z"/>
	<path class="st0" d="M220.9,121.4c-3.9,2.6-9.1,6.5-13,9.1c-1.3,0-1.3,0-1.3,1.3c-1.3,0-1.3-1.3-1.3-1.3c-1.3,2.6-2.6,5.2-3.9,6.5
		c18.2,7.8,40.4,14.3,65.2,18.3c3.9-14.3,6.5-27.4,11.7-40.4c-1.3,0-1.3,0-1.3,0c-5.2-1.3-6.5-5.2-3.9-10.4v-1.3
		c-14.3-2.6-26.1-5.2-36.5-10.4h-1.3c-7.8,9.1-15.6,18.3-23.5,28.7c3.9-2.6,6.5-3.9,10.4-6.5c2.6-6.5,10.4-13,14.3-10.4
		c2.6,1.3,1.3,6.5-2.6,11.7C228.7,122.7,223.5,124,220.9,121.4L220.9,121.4z"/>
	<path class="st0" d="M417.8,177.4c-1.3-1.3-2.6-2.6-3.9-3.9c-16.9,5.2-35.2,7.8-56.1,10.4c1.3,7.8,2.6,17,3.9,26.1
		c32.6-2.6,62.6-9.1,87.4-18.3c-7.8-18.3-15.6-36.5-24.8-53.5c-6.5,2.6-13,5.2-20.9,6.5c-1.3,3.9-3.9,10.4-6.5,14.3
		c0,1.3-1.3,1.3-1.3,1.3c-11.7,2.6-26.1,3.9-40.4,5.2c1.3,2.6,1.3,5.2,1.3,7.8c19.6-1.3,37.8-3.9,53.5-7.8c0-5.2,1.3-9.1,5.2-9.1
		c3.9-1.3,9.1,2.6,11.7,9.1C429.5,174.8,425.6,180,417.8,177.4L417.8,177.4z"/>
	<path class="st0" d="M244.4,324.7c0-2.6,0-3.9,0-6.5c-27.4-3.9-52.1-10.4-74.3-18.3h-1.3c-6.5-11.7-9.1-18.3-14.3-27.4
		c0,0,0,0-1.3-1.3c0,5.2,0,9.1,0,13c2.6,7.8,5.2,13,10.4,20.9C187,314.3,214.4,320.8,244.4,324.7L244.4,324.7z"/>
	<path class="st0" d="M333,31.4c-1.3,0-9.1,0-10.4,0c1.3,1.3,11.7,2.6,14.3,2.6c24.8,5.2,45.6,13,67.8,24.8c3.9-5.2,5.2-10.4,2.6-17
		C383.9,34,359.1,31.4,333,31.4L333,31.4z"/>
	<path class="st0" d="M410,109.6c14.3-6.5,26.1-13,33.9-20.9c-5.2-5.2-10.4-9.1-15.6-13c-6.5,7.8-15.6,14.3-30,19.6
		C402.1,99.2,406.1,104.4,410,109.6L410,109.6z"/>
	<path class="st0" d="M352.6,174.8c0-2.6,0-6.5-1.3-9.1c-28.7,2.6-57.4,2.6-83.4-1.3c0,2.6-1.3,5.2-1.3,7.8
		C293.9,176.1,322.6,177.4,352.6,174.8L352.6,174.8z"/>
	<path class="st0" d="M260,207.4c31.3,3.9,63.9,5.2,96.5,2.6c0-9.1-1.3-18.3-2.6-26.1c-31.3,2.6-61.3,1.3-90-2.6
		C262.6,190.5,261.3,198.3,260,207.4L260,207.4z"/>
	<path class="st0" d="M353.9,156.6c13-1.3,26.1-2.6,37.8-5.2c1.3-3.9,3.9-9.1,5.2-13c1.3-1.3,1.3-1.3,1.3-1.3
		c7.8-2.6,14.3-3.9,20.9-6.5c-2.6-3.9-5.2-7.8-7.8-11.7c-10.4,3.9-23.5,6.5-36.5,9.1c-1.3,1.3-1.3,2.6-2.6,3.9
		c-3.9,2.6-10.4,1.3-13-2.6c-3.9-5.2-2.6-10.4,1.3-13c2.6-2.6,9.1-2.6,11.7,2.6c1.3,0,1.3,0,1.3,0c11.7-1.3,23.5-5.2,32.6-7.8
		c-2.6-5.2-6.5-10.4-10.4-15.6c-14.3,5.2-32.6,9.1-50.8,10.4C348.7,121.4,351.3,138.3,353.9,156.6L353.9,156.6z"/>
	<path class="st0" d="M245.7,296.1c-1.3,1.3-2.6,2.6-3.9,3.9c-1.3,0-1.3,0-1.3,1.3c-1.3,0-1.3-1.3-2.6-1.3
		c-22.2-2.6-43-7.8-61.3-14.3c-1.3,0-1.3,0-2.6,0c-5.2-11.7-7.8-15.6-13-30c-2.6-1.3-3.9-1.3-5.2-2.6c0,3.9,0,6.5-1.3,9.1
		c1.3,0,2.6,1.3,2.6,1.3c1.3,0,1.3,0,1.3,1.3c5.2,10.4,9.1,18.3,14.3,26.1c20.9,7.8,45.6,13,71.7,16.9
		C245.7,303.9,245.7,300,245.7,296.1L245.7,296.1z"/>
	<path class="st0" d="M151.8,300l1.3,1.3l-1.3-3.9C151.8,298.7,151.8,300,151.8,300L151.8,300z"/>
	<path class="st0" d="M254.8,211.3c-31.3-3.9-58.7-11.7-80.8-20.9c-3.9,11.7-7.8,23.5-11.7,35.2c10.4,5.2,20.9,9.1,33.9,11.7
		c1.3-2.6,5.2-5.2,9.1-3.9c5.2,1.3,9.1,7.8,7.8,14.3c-2.6,10.4-13,11.7-16.9,3.9c-1.3-1.3-2.6-2.6-2.6-3.9l0,0
		c-11.7-3.9-23.5-7.8-33.9-13c0,3.9-1.3,6.5-1.3,9.1c1.3,1.3,3.9,1.3,5.2,2.6h1.3c3.9,11.7,6.5,15.6,13,30
		c18.3,6.5,37.8,10.4,58.7,14.3c3.9-3.9,6.5-6.5,9.1-9.1C248.3,259.6,250.9,234.8,254.8,211.3L254.8,211.3z"/>
	<path class="st0" d="M288.7,105.7c0,0-1.3,1.3-1.3,2.6c-1.3,2.6-3.9,5.2-6.5,6.5c-3.9,11.7-7.8,26.1-10.4,40.4
		c24.8,3.9,52.2,3.9,79.5,1.3c-2.6-16.9-5.2-35.2-9.1-50.8C323.9,108.3,305.7,107,288.7,105.7L288.7,105.7z"/>
	<path class="st0" d="M395.6,91.4c13-5.2,22.2-11.7,28.7-18.3c-3.9-2.6-7.8-5.2-13-7.8c-5.2,6.5-13,11.7-24.8,15.6
		C389.1,84.8,393,87.5,395.6,91.4L395.6,91.4z"/>
	<path class="st0" d="M544.3,268.7c1.3-5.2,1.3-9.1,1.3-13c-1.3,3.9-5.2,9.1-9.1,14.3c0,3.9,0,9.1,0,13
		C540.3,279.1,543,273.9,544.3,268.7L544.3,268.7z"/>
	<path class="st0" d="M103.6,311.7c1.3,0,1.3,1.3,1.3,2.6C104.9,313,104.9,311.7,103.6,311.7L103.6,311.7z"/>
	<polygon class="st0" points="106.2,316.9 106.2,316.9 106.2,316.9 	"/>
	<path class="st0" d="M95.7,259.6c-1.3-1.3-1.3-3.9-2.6-5.2c0,3.9,0,7.8,1.3,11.7c0,1.3,0,3.9,0,5.2
		C94.4,268.7,95.7,263.5,95.7,259.6L95.7,259.6z"/>
	<path class="st0" d="M101,301.3c0,1.3,0,1.3,1.3,3.9v1.3C102.3,305.2,101,302.6,101,301.3L101,301.3z"/>
	<path class="st0" d="M170.1,393.9c-3.9-6.5-7.8-13-10.4-20.9c-1.3-1.3-3.9-3.9-5.2-6.5c-18.3-9.1-32.6-19.6-40.4-31.3
		c0-1.3,0-1.3-1.3-1.3c1.3,2.6,2.6,5.2,3.9,7.8c5.2,10.4,10.4,17,14.3,23.5C138.8,375.6,151.8,386,170.1,393.9L170.1,393.9z"/>
	<path class="st0" d="M134.9,371.7c1.3,2.6,3.9,5.2,5.2,6.5C138.8,376.9,136.2,374.3,134.9,371.7L134.9,371.7z"/>
	<path class="st0" d="M128.3,146.1c1.3-3.9,3.9-6.5,6.5-10.4c-1.3-2.6-1.3-5.2-2.6-7.8v-1.3c0,0,13-28.7,24.8-36.5
		c-1.3,0-2.6,1.3-2.6,0c0-3.9,14.3-17,17-15.6c1.3,1.3-5.2,7.8-10.4,11.7c0,1.3-1.3,1.3-1.3,1.3c-10.4,14.3-13,16.9-20.9,33.9
		c0,2.6,1.3,3.9,1.3,6.5c5.2-5.2,9.1-11.7,14.3-16.9c0,0,0-1.3-1.3-1.3c-2.6,2.6-5.2,2.6-5.2,1.3c0-5.2,13-19.6,15.6-17
		c1.3,1.3,0,3.9-3.9,7.8c1.3,1.3,1.3,1.3,1.3,2.6c2.6-1.3,3.9-3.9,6.5-5.2c3.9-7.8,6.5-11.7,9.1-14.3c-1.3,0-2.6,0-1.3-1.3
		c0-1.3,3.9-6.5,7.8-9.1c6.5-3.9,10.4-5.2,10.4-3.9c1.3,1.3-3.9,6.5-9.1,10.4h-1.3c-1.3,2.6-3.9,5.2-5.2,9.1
		c9.1-7.8,18.3-15.6,28.7-22.2c-2.6-5.2-2.6-10.4,0-15.6c0-2.6,1.3-3.9,2.6-5.2c-23.5,10.4-44.3,24.8-61.3,44.3
		c-3.9,5.2-9.1,11.7-14.3,19.6c-1.3,0-1.3,1.3-1.3,1.3C124.4,124,123.1,134.4,128.3,146.1L128.3,146.1z"/>
	<path class="st0" d="M308.3,26.2c2.6,1.3,6.5,2.6,10.4,3.9c-1.3-2.6-3.9-5.2-5.2-6.5c-3.9-6.5-7.8-10.4-11.7-10.4h-1.3
		c-5.2,1.3-5.2,1.3-15.6,2.6c-6.5,1.3-6.5,1.3-17,2.6c-2.6,1.3-2.6,1.3-3.9,1.3C277,18.3,292.6,21,308.3,26.2L308.3,26.2z"/>
	<path class="st0" d="M316.1,22.3c1.3,2.6,2.6,5.2,3.9,7.8c1.3-1.3,3.9-3.9,5.2-6.5c6.5-5.2,11.7-7.8,16.9-9.1l0,0
		c-2.6-1.3-5.2-1.3-11.7-1.3c-3.9,0-6.5,0-14.3,0c-3.9,0-5.2,0-9.1,0C309.6,14.4,312.2,18.3,316.1,22.3L316.1,22.3z"/>
	<path class="st0" d="M432.1,49.6c2.6,1.3,6.5,2.6,9.1,3.9c2.6,1.3,3.9,2.6,6.5,3.9c-2.6-3.9-6.5-7.8-10.4-11.7
		c-3.9-2.6-7.8-5.2-15.6-9.1c-1.3,0-1.3,0-2.6-1.3C425.6,40.5,429.5,44.4,432.1,49.6L432.1,49.6z"/>
	<path class="st0" d="M201.4,433c-11.7-9.1-20.9-20.9-30-33.9c-11.7-6.5-22.2-11.7-30-19.6l0,0c2.6,3.9,6.5,9.1,11.7,14.3
		c14.3,14.3,18.3,18.3,35.2,31.3C194.8,429.1,197.4,431.7,201.4,433L201.4,433L201.4,433z"/>
	<path class="st0" d="M210.5,50.9c-2.6,5.2-2.6,10.4,0,15.6c5.2-3.9,10.4-6.5,15.6-9.1c0-2.6-1.3-5.2-1.3-6.5c0,0,0,0-1.3,0
		c-1.3,1.3-2.6,1.3-3.9,2.6c0-1.3,0-1.3,0-1.3c0-3.9,1.3-7.8,3.9-11.7c-1.3,1.3-3.9,1.3-5.2,2.6c-1.3,0-2.6,1.3-3.9,1.3
		C211.8,47,210.5,49.6,210.5,50.9L210.5,50.9z"/>
	<path class="st0" d="M211.8,43.1c2.6-2.6,5.2-5.2,9.1-7.8c-6.5,2.6-9.1,5.2-20.9,11.7c-7.8,5.2-13,7.8-16.9,11.7
		C192.2,53.6,201.4,48.3,211.8,43.1L211.8,43.1z"/>
	<path class="st0" d="M321.3,30.1c20.9-6.5,43-10.4,61.3-7.8c-2.6-1.3-5.2-1.3-9.1-2.6c-2.6-1.3-5.2-1.3-11.7-2.6
		c-5.2-1.3-6.5-1.3-11.7-2.6C340.9,14.4,330.4,21,321.3,30.1L321.3,30.1z"/>
	<path class="st0" d="M523.4,339.1c0,1.3-1.3,2.6-1.3,3.9C522.1,341.7,523.4,340.4,523.4,339.1L523.4,339.1z"/>
	<path class="st0" d="M497.3,379.5c-5.2,5.2-11.7,9.1-19.6,13c0,1.3,0,3.9-2.6,5.2c-3.9,6.5-11.7,13-13,10.4v-1.3l-2.6,1.3
		c-1.3,1.3-5.2,2.6-9.1,3.9c-1.3,1.3-1.3,1.3-2.6,1.3c-5.2,7.8-10.4,14.3-16.9,20.9c6.5-2.6,13-5.2,19.6-9.1l0,0
		c6.5-3.9,10.4-7.8,19.6-15.6c15.6-14.3,23.5-23.5,32.6-36.5C501.2,375.6,499.9,378.2,497.3,379.5L497.3,379.5z"/>
	<polygon class="st0" points="443.9,429.1 443.9,429.1 443.9,429.1 	"/>
	<polygon class="st0" points="544.3,270 544.3,270 544.3,270 	"/>
	<path class="st0" d="M535.1,292.2c-1.3,15.6-5.2,31.3-11.7,45.6c6.5-11.7,10.4-22.2,14.3-33.9c2.6-9.1,3.9-17,5.2-23.5
		C541.7,284.3,539,288.2,535.1,292.2L535.1,292.2z"/>
	<path class="st0" d="M440,431.7c-5.2,2.6-9.1,3.9-13,6.5c-2.6,1.3-5.2,3.9-6.5,5.2h-1.3l0,0c5.2-2.6,9.1-3.9,19.6-10.4
		c1.3-1.3,1.3-1.3,2.6-1.3C440,431.7,440,431.7,440,431.7L440,431.7z"/>
	<rect x="412.6" y="447.3" class="st0" width="0" height="0"/>
	<path class="st0" d="M224.8,446c0,0-1.3-1.3-2.6-1.3C223.5,444.7,224.8,446,224.8,446L224.8,446z"/>
	<path class="st0" d="M279.6,463c-10.4-6.5-18.3-19.6-23.5-39.1c-6.5-1.3-14.3-2.6-20.9-3.9c0,3.9-5.2,3.9-11.7,0
		c-2.6-1.3-3.9-3.9-5.2-5.2c-15.6-3.9-30-9.1-41.7-14.3c11.7,20.9,30,36.5,49.5,46.9l0,0c3.9,1.3,7.8,2.6,14.3,5.2
		c7.8,2.6,7.8,2.6,19.6,6.5c6.5,1.3,6.5,1.3,18.2,3.9C278.3,463,278.3,463,279.6,463L279.6,463L279.6,463z"/>
	<path class="st0" d="M403.4,449.9c5.2-2.6,11.7-5.2,16.9-9.1c-19.6,6.5-41.7,10.4-67.8,13c-1.3,5.2-3.9,9.1-7.8,11.7l0,0
		c2.6,0,5.2-1.3,9.1-1.3c6.5-1.3,6.5-1.3,16.9-3.9c7.8-1.3,7.8-1.3,19.6-5.2c5.2-1.3,7.8-2.6,13-3.9V449.9L403.4,449.9z"/>
	<path class="st0" d="M215.7,442.1c1.3,0,1.3,0,1.3,0c1.3,0,1.3,1.3,1.3,1.3C218.3,442.1,217,442.1,215.7,442.1L215.7,442.1z"/>
	<path class="st0" d="M338.3,465.6c3.9-1.3,7.8-5.2,10.4-11.7c-10.4,1.3-20.9,1.3-31.3,1.3h-1.3c-2.6,0-5.2-2.6-7.8-2.6l0,0
		c-3.9,0-9.1-1.3-11.7-3.9c-2.6-3.9,2.6-6.5,10.4-5.2c3.9,0,7.8,2.6,7.8,5.2l-1.3,1.3c1.3,0,3.9,1.3,5.2,2.6
		c10.4,0,20.9-1.3,31.3-1.3c2.6-5.2,3.9-11.7,5.2-19.6c-1.3,1.3-3.9,2.6-5.2,2.6l0,0c0,1.3,0,1.3,0,2.6c-2.6,6.5-18.3,7.8-20.9,1.3
		c-1.3-5.2,9.1-9.1,15.6-6.5c5.2-3.9,9.1-5.2,10.4-6.5c-11.7,0-23.5,1.3-35.2,1.3c0,0-1.3,0-1.3,1.3c-2.6,0-2.6,0-3.9,0
		c-18.3,0-37.8-1.3-54.8-3.9c6.5,23.5,15.6,37.8,27.4,40.4l0,0c1.3,0,3.9,0,6.5,1.3c5.2,0,5.2,0,14.3,1.3c5.2,0,10.4,0,14.3,0
		C327.8,466.9,327.8,466.9,338.3,465.6L338.3,465.6L338.3,465.6z"/>
	<path class="st0" d="M103.6,199.6c1.3-2.6,2.6-5.2,2.6-7.8c-2.6-6.5-3.9-13-2.6-19.6c-1.3,1.3-1.3,2.6-1.3,3.9
		c-1.3,1.3-1.3,3.9-2.6,5.2C99.7,187.8,101,193.1,103.6,199.6L103.6,199.6z"/>
	<path class="st0" d="M98.3,247.8c-1.3,2.6-1.3,6.5-1.3,9.1c7.8,15.6,26.1,30,50.8,41.7c0-2.6,0-5.2,0-7.8c0-1.3-1.3-2.6-1.3-3.9
		C123.1,276.5,106.2,262.2,98.3,247.8L98.3,247.8z"/>
	<path class="st0" d="M95.7,202.2c0,3.9,1.3,9.1,3.9,14.3c0-2.6,1.3-5.2,1.3-7.8c-2.6-5.2-3.9-11.7-2.6-16.9
		C97,195.7,95.7,198.3,95.7,202.2L95.7,202.2z"/>
	<path class="st0" d="M101,220.4c9.1,15.6,26.1,28.7,50.9,40.4c0-2.6,0-6.5,1.3-9.1c-23.5-10.4-41.7-24.8-49.5-39.1
		C102.3,215.2,102.3,217.8,101,220.4L101,220.4z"/>
	<path class="st0" d="M149.2,277.8c0-2.6,0-5.2,1.3-7.8c-24.8-10.4-41.7-24.8-50.8-40.4c0,2.6-1.3,5.2-1.3,7.8
		c9.1,15.6,26.1,30,49.5,40.4C149.2,277.8,149.2,277.8,149.2,277.8L149.2,277.8z"/>
	<path class="st0" d="M93.1,223c0,1.3,0,1.3,0,2.6C93.1,224.4,93.1,224.4,93.1,223L93.1,223z"/>
	<path class="st0" d="M93.1,238.7c0,3.9,0,9.1,2.6,13c0-2.6,0-5.2,0-9.1c-1.3-2.6-2.6-5.2-2.6-9.1c0,0,0,0,0-1.3
		C93.1,234.8,93.1,236.1,93.1,238.7L93.1,238.7z"/>
	<path class="st0" d="M97,233.5c0-2.6,0-5.2,1.3-7.8c-2.6-3.9-3.9-9.1-3.9-13c0,3.9-1.3,6.5-1.3,10.4
		C94.4,225.7,94.4,229.6,97,233.5L97,233.5z"/>
	<path class="st0" d="M155.7,113.5c-5.2,6.5-9.1,11.7-14.3,17c2.6,3.9,6.5,9.1,9.1,11.7c3.9-1.3,9.1-3.9,13-6.5c0,0,0,0,0,1.3
		c7.8,5.2,15.6,10.4,26.1,14.3c1.3-2.6,2.6-5.2,3.9-7.8C175.3,135.7,162.2,125.3,155.7,113.5L155.7,113.5z"/>
	<path class="st0" d="M167.5,101.8c-1.3,1.3-3.9,3.9-5.2,5.2c6.5,11.7,18.3,20.9,36.5,28.7c1.3-1.3,2.6-3.9,3.9-6.5
		C185.7,121.4,174,112.2,167.5,101.8L167.5,101.8z"/>
	<path class="st0" d="M175.3,95.3c5.2,10.4,17,19.6,32.6,26.1c7.8-10.4,15.6-20.9,24.8-30c-11.7-6.5-20.9-13-24.8-20.9
		C196.1,78.3,184.4,86.1,175.3,95.3L175.3,95.3z"/>
	<path class="st0" d="M129.6,148.7c6.5,13,22.2,26.1,43,35.2c3.9-7.8,7.8-15.6,11.7-23.5c-10.4-5.2-18.3-10.4-24.8-15.6
		c-3.9,2.6-9.1,5.2-13,7.8c0-1.3,0-1.3,0-1.3c-3.9-3.9-7.8-7.8-10.4-13C133.6,142.2,132.2,146.1,129.6,148.7L129.6,148.7z"/>
	<path class="st0" d="M154.4,242.6c1.3-2.6,1.3-6.5,2.6-9.1c-23.5-10.4-40.4-23.5-48.2-39.1c-1.3,2.6-2.6,6.5-3.9,9.1
		C114,217.8,130.9,232.2,154.4,242.6L154.4,242.6z"/>
	<path class="st0" d="M111.4,185.2c7.8,15.6,24.8,28.7,48.2,39.1c2.6-11.7,6.5-23.5,11.7-35.2c-22.2-10.4-36.5-22.2-44.3-35.2
		C120.5,164.4,115.3,174.8,111.4,185.2L111.4,185.2z"/>
	<path class="st0" d="M151.8,358.6c0-1.3,1.3-2.6,2.6-2.6l0,0c-3.9-17-6.5-33.9-6.5-52.2c-23.5-11.7-41.7-26.1-50.8-40.4
		c1.3,22.2,5.2,41.7,11.7,61.3C117.9,337.8,132.2,349.5,151.8,358.6L151.8,358.6z"/>
	<path class="st0" d="M455.6,61.4c9.1,6.5,18.3,13,26.1,20.9v-1.3c-10.4-10.4-15.6-14.3-31.3-26.1c-1.3-1.3-2.6-2.6-3.9-2.6
		C450.4,54.9,453,58.8,455.6,61.4L455.6,61.4z"/>
	<path class="st0" d="M533.8,255.6c-5.2,6.5-13,13-22.2,19.6c0,0,0,0,0,1.3c0,1.3,0,2.6,0,3.9c0,1.3-1.3,1.3-2.6,2.6
		c-9.1,5.2-20.9,11.7-35.2,17c0,1.3,0,3.9,0,5.2c27.4-10.4,48.2-23.5,60-37.8C533.8,263.5,533.8,259.6,533.8,255.6L533.8,255.6z"/>
	<path class="st0" d="M466,401.7c1.3-1.3,1.3-2.6,2.6-3.9c-5.2,2.6-10.4,5.2-15.6,6.5c0,1.3-1.3,2.6-1.3,3.9c0-1.3,1.3-1.3,2.6-1.3
		C456.9,405.6,462.1,403,466,401.7L466,401.7z"/>
	<path class="st0" d="M511.7,360c-11.7,11.7-28.7,22.2-52.2,31.3c-1.3,2.6-2.6,6.5-3.9,9.1c22.2-9.1,40.4-19.6,50.8-32.6
		C507.8,365.2,510.4,362.6,511.7,360L511.7,360z"/>
	<path class="st0" d="M485.6,84.8L485.6,84.8L485.6,84.8c0,0,0,0-1.3,0C485.6,84.8,485.6,84.8,485.6,84.8L485.6,84.8z"/>
	<path class="st0" d="M516.9,137c2.6,1.3,2.6,2.6,3.9,3.9c0-1.3-1.3-3.9,0-3.9c0,0,2.6,2.6,3.9,6.5c-1.3-2.6-1.3-3.9-2.6-5.2
		l-1.3-3.9c-1.3-2.6-2.6-5.2-3.9-7.8C516.9,130.5,516.9,133.1,516.9,137L516.9,137z"/>
	<path class="st0" d="M455.6,392.5c-26.1,9.1-57.4,15.6-92.6,18.3c0,3.9,0,6.5-1.3,10.4c33.9-3.9,63.9-10.4,88.7-19.6
		C453,399.1,454.3,396.5,455.6,392.5L455.6,392.5z"/>
	<path class="st0" d="M217,410.8c0-1.3,1.3-2.6,2.6-2.6c3.9-1.3,10.4,2.6,14.3,6.5c6.5,1.3,13,2.6,19.6,2.6c0-2.6-1.3-5.2-1.3-7.8
		c-26.1-3.9-50.8-10.4-70.4-16.9c-1.3-1.3-1.3-1.3-1.3-1.3c-1.3-1.3-13-13-15.6-15.6c0,0,0,0-1.3,0c3.9,7.8,6.5,14.3,10.4,20.9
		C185.7,401.7,201.4,406.9,217,410.8L217,410.8z"/>
	<path class="st0" d="M167.5,370.4c1.3,1.3,1.3,1.3,1.3,2.6c2.6,3.9,7.8,9.1,11.7,13c19.6,6.5,44.3,13,70.4,17
		c-3.9-19.6-5.2-41.7-6.5-66.5c-30-3.9-57.4-11.7-80.8-20.9c-1.3,0-1.3,0-1.3,0c-2.6-2.6-3.9-6.5-5.2-9.1c-1.3,0-3.9-1.3-5.2-1.3
		c0,18.3,2.6,35.2,6.5,52.2C162.2,358.6,167.5,365.2,167.5,370.4L167.5,370.4z"/>
	<path class="st0" d="M359.1,412.1c-5.2,0-11.7,0-17,1.3c-5.2,2.6-10.4,6.5-15.6,9.1c10.4,0,20.9,0,31.3-1.3
		C357.8,418.6,359.1,414.7,359.1,412.1L359.1,412.1z"/>
	<path class="st0" d="M425.6,436.9c6.5-6.5,11.7-13,18.3-22.2c-5.2,2.6-10.4,3.9-15.6,5.2h-1.3c-1.3,0-2.6-2.6-3.9-2.6
		c-18.3,3.9-39.1,7.8-60,9.1c-1.3,1.3-1.3,1.3-2.6,1.3c-1.3,9.1-3.9,16.9-6.5,23.5C381.3,448.6,404.7,443.4,425.6,436.9L425.6,436.9
		z"/>
	<path class="st0" d="M449.1,406.9c-6.5,1.3-11.7,3.9-18.3,5.2c0,1.3,1.3,1.3,1.3,2.6c5.2-2.6,10.4-3.9,14.3-5.2
		C447.8,408.2,447.8,406.9,449.1,406.9L449.1,406.9z"/>
</g>
</svg>
