<?xml version="1.0" encoding="utf-8"?>
<!-- Generator: Adobe Illustrator 22.1.0, SVG Export Plug-In . SVG Version: 6.00 Build 0)  -->
<svg version="1.1" id="Layer_2_1_" xmlns="http://www.w3.org/2000/svg" xmlns:xlink="http://www.w3.org/1999/xlink" x="0px" y="0px"
	 viewBox="0 0 640 480" style="enable-background:new 0 0 640 480;" xml:space="preserve">
<style type="text/css">
	.st0{fill:#1392B8;}
</style>
<g>
	<path class="st0" d="M37.9,478.9c8-22.5,15.2-44.2,23.2-65.2c33.3-90.5,65.9-181.1,99.2-272.3c6.5-16.7,13-21.7,30.4-21.7
		c38.4,0,76.8,0,114.4,0c3.6,0,7.2,0,10.9,0c-13.8,5.1-17.4,17.4-21.7,29C255.2,255.8,216.1,363.7,177,470.9
		c-2.2,5.1-3.6,8.7-10.9,8.7c-41.3-0.7-82.6,0-123.9,0C42.2,480.3,40.8,479.6,37.9,478.9z"/>
	<path class="st0" d="M324,360.8c10.1-5.8,15.2-13.8,18.8-23.9c39.8-109.4,79.7-218.7,119.5-327.4c1.4-3.6,5.8-8.7,8.7-8.7
		c42.7-0.7,86.2-0.7,131.1-0.7c-6.5,18.8-13,36.2-19.6,53.6c-34,94.2-68.8,188.3-102.8,282.5c-7.2,19.6-13,23.9-34,23.9
		c-36.9,0-74.6,0-111.5,0C331.2,360.8,327.6,360.8,324,360.8z"/>
	<path class="st0" d="M310.2,356.5c-9.4-1.4-18.1-5.1-21.7-15.2c-8.7-23.2-17.4-46.4-25.4-70.3c-0.7-2.9-0.7-6.5,0.7-9.4
		c14.5-39.1,28.2-78.9,42.7-118.1c4.3-12.3,13.8-19.6,23.9-18.8c11.6,0.7,18.8,7.2,23.2,18.1c8,21.7,15.9,43.5,23.2,65.2
		c1.4,3.6,1.4,8,0,11.6c-13.8,39.8-28.2,78.9-42.7,118.1C329.8,348.5,321.8,354.3,310.2,356.5z"/>
</g>
</svg>
