<?xml version="1.0" encoding="utf-8"?>
<!-- Generator: Adobe Illustrator 21.1.0, SVG Export Plug-In . SVG Version: 6.00 Build 0)  -->
<svg version="1.1" id="Layer_1" xmlns="http://www.w3.org/2000/svg" xmlns:xlink="http://www.w3.org/1999/xlink" x="0px" y="0px"
	 viewBox="0 0 640 480" style="enable-background:new 0 0 640 480;" xml:space="preserve">
<style type="text/css">
	.st0{fill:#CC2131;}
	.st1{fill:#FFFFFF;}
</style>
<path class="st0" d="M83.7,318.8C33.5,318.8,0,283.3,0,240.1c0-43.1,33.6-79.1,83.6-79h472.7c50-0.1,83.6,35.9,83.6,79
	c0,43.1-33.5,78.7-83.7,78.7H83.7z"/>
<path class="st1" d="M83.9,180.6c-39.7,0.1-64.1,26.6-64.1,59.5c0,32.8,24.2,59.6,64.1,59.5h472.2c39.9,0.1,64.1-26.6,64.1-59.5
	c0-32.8-24.4-59.4-64.1-59.5L83.9,180.6L83.9,180.6z"/>
<path class="st0" d="M63.5,202.8h23.1l32,51.7l0-51.7h22.9V277h-22.9l-32.2-51.8V277h-23L63.5,202.8z M266.3,210.4h22.3v10h12.1v7.3
	h-12.1l0,49.3h-22.4l0-49.3h-12.1v-7.3h12.1L266.3,210.4z M154.3,227.6h22.3V277h-22.3V227.6z M154.3,202.7h22.4v15.2h-22.4V202.7z
	 M554.4,251.9c0,0,0,7.5,0,10.5c0,7.9-4.6,11.1-9.1,11.1c-4.5,0-9.1-3.3-9.1-11.1c0-3,0-10.6,0-10.6s0-7.3,0-10.3
	c0-7.8,4.7-11.1,9.1-11.1c4.5,0,9.1,3.2,9.1,11.1C554.4,244.4,554.4,250,554.4,251.9L554.4,251.9L554.4,251.9z M545.4,224.3
	c-18,0-32.6,12.4-32.6,27.7c0,15.3,14.6,27.7,32.6,27.7c18,0,32.6-12.4,32.6-27.7C578.1,236.7,563.5,224.3,545.4,224.3L545.4,224.3z
	 M483.5,202.8h22V277h-22.1l0-2.8c-8.5,5.4-18.2,5.3-25.7,1.9c-2-0.9-15.3-7.3-15.3-24.5c0-13,12.3-27.3,28.4-25.9
	c5.3,0.5,9.1,2.4,12.6,4.4L483.5,202.8z M483.7,252.1v-8.8c0-7.6-5.3-9.6-8.7-9.6c-3.6,0-8.8,1.9-8.8,9.6c0,2.5,0,8.8,0,8.8
	s0,6.1,0,8.8c0,7.6,5.2,9.6,8.8,9.6c3.5,0,8.7-2,8.7-9.6V252.1z M228.9,225.3c8.3-0.2,25.3,5.2,25.2,24.8c0,3.5,0,26.8,0,26.8h-22.2
	v-32.4c0-4.3-4.1-9.1-10.2-9.1c-6.1,0-10.6,4.8-10.6,9.1l0,32.4h-22.2l0-49.4l22.2,0c0,0,0,4,0,5.2
	C215.9,228.2,222.2,225.5,228.9,225.3L228.9,225.3z M410.3,225.3c8.3-0.2,25.3,5.2,25.2,24.8c0,3.5,0,26.8,0,26.8h-22.2v-32.4
	c0-4.3-4.1-9.1-10.2-9.1s-10.6,4.8-10.6,9.1l0,32.4h-22.2l0-49.4l22.1,0c0,0,0,4,0,5.2C397.3,228.2,403.6,225.5,410.3,225.3
	L410.3,225.3z M321.5,244.8c0-4.3,0-7.2,1.5-9.7c1.8-3,5-4.5,7.9-4.5h0c2.9,0,6.1,1.5,7.9,4.5c1.4,2.5,1.5,5.4,1.5,9.7H321.5
	L321.5,244.8z M340,259.7c0,0,0,0.2,0,3c0,9-5.9,11-9.2,11c-3.3,0-9.3-2-9.3-11c0-2.7,0-10.2,0-10.2s42,0,42,0
	c0-15.3-14.8-28-32.9-28c-18.1,0-32.9,12.4-32.9,27.7c0,15.3,14.7,27.7,32.9,27.7c15.1,0,27.8-8.6,31.7-20.3L340,259.7L340,259.7z
	 M579.6,220.4H577v-16.9h6.4c4,0,6,1.5,6,4.8c0,3-1.9,4.3-4.4,4.7l4.8,7.4H587l-4.5-7.3h-2.9L579.6,220.4L579.6,220.4z M582.7,210.9
	c2.2,0,4.1-0.2,4.1-2.8c0-2.1-1.9-2.5-3.7-2.5h-3.5v5.2H582.7z"/>
<path class="st0" d="M567.8,211.9c0-8.4,6.8-14.6,14.9-14.6c8,0,14.8,6.2,14.8,14.6c0,8.5-6.8,14.7-14.8,14.7
	C574.6,226.6,567.8,220.4,567.8,211.9z M582.7,224.2c6.6,0,11.9-5.2,11.9-12.2c0-6.9-5.2-12.2-11.9-12.2c-6.7,0-11.9,5.2-11.9,12.2
	C570.8,219,576,224.2,582.7,224.2z"/>
</svg>
