<svg xmlns="http://www.w3.org/2000/svg" xmlns:xlink="http://www.w3.org/1999/xlink" viewBox="0 0 640 480"><defs><style>.cls-1{fill:none;}.cls-2{fill:#3f3f3f;}.cls-3{fill:#020202;}.cls-4{fill:url(#linear-gradient);}</style><linearGradient id="linear-gradient" x1="2.5" y1="242.23" x2="103.27" y2="242.23" gradientUnits="userSpaceOnUse"><stop offset="0" stop-color="#84d300"/><stop offset="1" stop-color="#4d9f00"/></linearGradient></defs><title>Nutrien</title><g id="Layer_2" data-name="Layer 2"><g id="Layer_8" data-name="Layer 8"><path class="cls-1" d="M0,0V480H640V0ZM396.07,187.14c1.65-7.95,6.55-12.81,14.36-14.83.21-.06.51.06.58-.28h5.1c.51.42,1.18.35,1.76.55,4.27,1.48,7.43,5.6,6.54,11.56-1.43,9.56-11.24,16.69-20.7,14.87C398.08,197.93,394.86,193,396.07,187.14ZM37.84,265.83Q33,284.57,28.13,303.31c-.15.59-.24,1.05-1.12,1.05-7.81-.05-15.62,0-23.43,0a5.86,5.86,0,0,1-.64-.06c6-22.72,11.89-45.39,17.86-68.2a22.38,22.38,0,0,1,4.62,4.08c4.21,4.66,6.94,10.19,9.31,15.91,1.08,2.61,2,5.28,3,7.9A2.8,2.8,0,0,1,37.84,265.83ZM98.9,305.78a83,83,0,0,1-23.53-5.3,50.55,50.55,0,0,1-11.69-6.68,11.5,11.5,0,0,1-.86-.85,45,45,0,0,1-8.18-8.48,89.71,89.71,0,0,1-5.79-7.68,5.67,5.67,0,0,1-1.28-2,45.87,45.87,0,0,1-4.81-9.31,69.93,69.93,0,0,1-3.15-7.78q-1.83-4.33-3.67-8.69l-3.66-6.75A46.93,46.93,0,0,0,27,235.89c-1.49-1.28-3-2.51-4.72-3.77h1.59c4,0,7.92,0,11.88.12,8.68.2,16,3.56,22.3,9.47a39.92,39.92,0,0,1,6.12,6.54,62.59,62.59,0,0,1,5.39,7.26l3.62,5.1.21-.24-4.13-7.52L64,244.4c-1.66-2.27-3.38-4.49-5.25-6.59a33.38,33.38,0,0,0-8.25-6.36,35.56,35.56,0,0,0-14.63-3.3c-.45,0-.85,0-1-.6a44.79,44.79,0,0,1-1.19-5.25q-1.06-3.63-2.15-7.26l-2.66-6.56q-1.72-3.16-3.43-6.33l-4.82-6.8L18,192.19l-3.66-3.85c-2.87-2.74-5.93-5.25-9-7.77L2.5,178.62a17.31,17.31,0,0,1,1.85-.16c8.36,0,16.73-.06,25,1.12a41.79,41.79,0,0,1,22.35,10.17,32.88,32.88,0,0,1,6.33,7,20.38,20.38,0,0,1,2.37,3.65c.48,1.1,1.32,2,1.7,3.15a30.57,30.57,0,0,1,2.74,6.55,34,34,0,0,1,2,5.81,39.24,39.24,0,0,1,1.68,6.32q.93,3.76,1.88,7.53c.48,1.86,1,3.72,1.43,5.58.41,1.54.81,3.08,1.21,4.62l1.71,6.31L77,254.07c1,3.32,2.15,6.59,3,10q1.8,4.86,3.58,9.71l3.87,9c1.48,3,3,6,4.7,9l5.34,8a48.35,48.35,0,0,0,5.86,6.18A17,17,0,0,1,98.9,305.78Zm5.44-4.35a43.92,43.92,0,0,1-8-10c-3.63-6-6.28-12.53-8.93-19a2.29,2.29,0,0,1,0-1.53c6.71-25.79,22.56-86.58,23.71-91.2.23-.92.58-1.18,1.54-1.11a23.94,23.94,0,0,1,12.52,4,14.51,14.51,0,0,1,5.93,16.06c-5,19.48-22.78,87.45-26.56,102C104.57,300.82,104.48,301.05,104.34,301.43Zm121.09-73.72c-1.07,5.71-14.43,56-19.51,75.56-.2.79-.44,1.1-1.33,1.09-5.46-.07-17.84-.17-18.55-.3-2.16-.4-3-1.46-3.09-3.67a18.56,18.56,0,0,1,.49-4.69c.06-.26.22-.52,0-.79-.29,0-.45.18-.62.33a41.91,41.91,0,0,1-28.39,10.6,48.51,48.51,0,0,1-13.2-1.43c-7.67-2.18-10.86-8.53-11.34-14.43-.44-5.47.59-10.79,1.84-16.06,3.59-15.11,13.78-53.3,14.79-57.41a1.77,1.77,0,0,1,1.79-1.64,46.24,46.24,0,0,1,13.29.12c5.91,1.1,9,5.39,8,11.32-.85,5-9,34.87-11.41,45a25.2,25.2,0,0,0-.86,6.59c.12,3.64,1.81,6.1,5.37,6.81,7.85,1.55,15.17.21,21.61-4.79a9,9,0,0,0,3.19-5q7.6-29.34,15.26-58.67c.16-.6.3-1.09,1.09-1.18,4.47-.53,8.94-.94,13.39,0C223.58,216.44,226.67,221.14,225.43,227.71Zm57.17,70.78A34,34,0,0,1,268,305.64a48.22,48.22,0,0,1-23.63.38,16.69,16.69,0,0,1-12.75-15.53c-.38-5.62.9-11,2.29-16.35q11.08-42.75,22.24-85.47a1.61,1.61,0,0,1,1.63-1.44c4.51-.58,9-.91,13.5,0,5.89,1.23,8.89,5.64,7.84,11.6-.87,4.94-3.84,15.49-4,16.12h26.46c-1.28,4.88-4.52,17.11-4.8,18.45-.13.62-.4.75-1,.74-8,0-15.94,0-23.91-.05-1.76,0-1.75,0-2.2,1.65q-5,19.31-10.08,38.63a21.05,21.05,0,0,0-.78,6.23c.16,3.85,2.43,6.25,6.28,6.72s7.26-.65,10.69-2.06a32.44,32.44,0,0,0,7.45-4.4c1.25,3.31,2.68,6.42,2.83,9.93A9.25,9.25,0,0,1,282.6,298.49Zm83.34-58.33c-.36.5-.59.63-1.07.11-7-7.58-19.41-6.05-25.82,1.09a13.49,13.49,0,0,0-3.05,5.71q-7.35,28.28-14.73,56.56c-.13.51-.14,1-.92,1-8.25,0-16.5,0-24.75-.07a2.07,2.07,0,0,1-.31-.09l3.36-13Q308.36,254.2,318,217a1.8,1.8,0,0,1,1.79-1.63,36.82,36.82,0,0,1,12.78.13c5.35,1.2,7.34,3.34,8.27,8.78a42.51,42.51,0,0,1,9-7c6.22-3.47,12.78-5.13,19.91-3.72a15.08,15.08,0,0,1,1.87.48c4.58,1.51,6.13,4.54,4.61,9.12s-4.32,8.64-7.07,12.63C368.16,237.28,367,238.69,365.94,240.16Zm46.87-12.41c-1.54,7.17-15.13,58.48-19.93,77.06a1.7,1.7,0,0,1-1.72,1.44c-2.12.29-4.27.26-6.4.39a28.1,28.1,0,0,1-8.17-.86c-5.48-1.61-7.58-4.88-6.75-10.56.69-4.68,14.5-56.68,20-78.16a1.86,1.86,0,0,1,1.95-1.6,47.1,47.1,0,0,1,12.44,0C411,216.52,414.25,221,412.81,227.75Zm88.43,32c-.45,1.5-1,3-1.48,4.48a1,1,0,0,1-1.1.83q-13.77-.11-27.54-.13c-6.43,0-12.86,0-19.3,0-2.38,0-4.76-.06-7.15-.07-.37,0-.8-.14-.9.5-.85,5.26-.88,10.44,1.39,15.44,2,4.52,5.81,6.69,10.44,7.54,10.1,1.86,19.28-.58,27.73-6.19,1.41-.94,2.77-2,4.15-2.93.32-.23.58-.45.82.1,1.75,3.83,3.36,7.71,3.41,12,0,3.31-1.76,5.72-4.22,7.68-4.31,3.43-9.34,5.35-14.57,6.83a53,53,0,0,1-10.58,1.94c-.17,0-.31,0-.35.24H447.67a13,13,0,0,0-3.71-.7c-4.79-.87-9.47-2-13.7-4.56-7.24-4.33-11.09-10.92-12.69-19-1.34-6.72-.61-13.36.74-20,1.73-8.52,4.43-16.7,9.24-24,9.44-14.34,22.45-23.34,39.59-25.84,7.59-1.11,15.19-1,22.46,1.87,9.35,3.65,14.22,10.75,15.13,20.64C505.47,244.44,503.55,252.11,501.24,259.71Zm103.1-15.19c-3.77,16.14-8.27,32.1-12.35,48.16-1,3.87-2,7.72-3,11.6-.2.79-.51,1-1.3,1-7.88-.06-15.77-.1-23.65-.07-1.06,0-1-.3-.83-1.15,4.51-17.2,15.27-58.43,15.3-62,0-4.37-1.92-6.91-6.22-7.58a26.78,26.78,0,0,0-19.36,3.93,10.93,10.93,0,0,0-4.77,6.73q-7.6,29.52-15.31,59c-.13.51-.21.94-1,.94-8.37,0-16.74,0-25.25,0,.7-2.76,1.37-5.39,2.06-8q10.41-40,20.79-80c.28-1.07.92-1.11,1.73-1.22a35.05,35.05,0,0,1,13.84.3,15.3,15.3,0,0,1,3,1.17,7,7,0,0,1,4,6.2c0,.42,0,.85,0,1.53a46.6,46.6,0,0,1,11.65-7.76,40.44,40.44,0,0,1,16.18-3.66c5.27-.24,10.52,0,15.56,1.68,6.61,2.26,9.77,7.25,10.48,13.93C606.47,234.45,605.51,239.52,604.34,244.52Zm20.56-27.59c0,.58,0,.95-.81,1-2.49,0-2.49.09-2.49,2.61,0,1.62-.06,3.24,0,4.85,0,1-.57.81-1.16.87s-1-.1-1-.9c.07-1.13,0-2.27,0-3.4s0-2.18,0-3.27c0-.66-.2-.85-.82-.79s-1,0-1.46,0-1,0-1-.86.42-.87,1-.86q3.39,0,6.79,0C624.64,216.15,625,216.24,624.9,216.93Zm12.6,9.23h-.25c-1.69.12-1.69.12-1.69-1.52l0-5.7s0,0-.15-.13c-.75,2.19-1.51,4.33-2.23,6.49-.19.58-.35,1-1.12,1a1.07,1.07,0,0,1-1.18-.89A49.79,49.79,0,0,0,628.4,219c0,2-.06,4.06,0,6.09,0,1-.31,1.17-1.17,1.09-.46,0-.73-.06-.73-.65q0-4.37,0-8.73c0-.54.18-.66.69-.68,2.22-.12,2.22-.14,3,2,.58,1.62,1.15,3.25,1.81,5.09.76-2.09,1.49-3.91,2.07-5.78.3-.95.71-1.44,1.75-1.26a10.05,10.05,0,0,0,1.45.06h.25Z"/><path class="cls-1" d="M474.59,231.08a20.12,20.12,0,0,0-17,3.29c-5.25,3.84-8.16,9.22-9.95,15.33-.24.83-.14,1,.73,1,5.17,0,10.34,0,15.51,0v0h15.52c.6,0,1,0,1.19-.78a31.47,31.47,0,0,0,.86-10.68C480.9,234.82,478.71,232,474.59,231.08Z"/><path d="M403.71,199c9.46,1.82,19.27-5.31,20.7-14.87.89-6-2.27-10.08-6.54-11.56-.58-.2-1.25-.13-1.76-.55H411c-.07.34-.37.22-.58.28-7.81,2-12.71,6.88-14.36,14.83C394.86,193,398.08,197.93,403.71,199Z"/><path class="cls-2" d="M637.25,226.15h.25v-9.95h-.25Z"/><path d="M595.44,215.35c-5-1.73-10.29-1.92-15.56-1.68a40.44,40.44,0,0,0-16.18,3.66,46.6,46.6,0,0,0-11.65,7.76c0-.68,0-1.11,0-1.53a7,7,0,0,0-4-6.2,15.3,15.3,0,0,0-3-1.17,35.05,35.05,0,0,0-13.84-.3c-.81.11-1.45.15-1.73,1.22q-10.35,40-20.79,80c-.69,2.63-1.36,5.26-2.06,8,8.51,0,16.88,0,25.25,0,.76,0,.84-.43,1-.94q7.67-29.51,15.31-59a10.93,10.93,0,0,1,4.77-6.73,26.78,26.78,0,0,1,19.36-3.93c4.3.67,6.24,3.21,6.22,7.58,0,3.55-10.79,44.78-15.3,62-.22.85-.23,1.15.83,1.15,7.88,0,15.77,0,23.65.07.79,0,1.1-.21,1.3-1,1-3.88,2-7.73,3-11.6,4.08-16.06,8.58-32,12.35-48.16,1.17-5,2.13-10.07,1.58-15.24C605.21,222.6,602.05,217.61,595.44,215.35Z"/><path d="M217.24,215.1c-4.45-.94-8.92-.53-13.39,0-.79.09-.93.58-1.09,1.18Q195.13,245.62,187.5,275a9,9,0,0,1-3.19,5c-6.44,5-13.76,6.34-21.61,4.79-3.56-.71-5.25-3.17-5.37-6.81a25.2,25.2,0,0,1,.86-6.59c2.38-10.17,10.56-40.06,11.41-45,1-5.93-2.07-10.22-8-11.32a46.24,46.24,0,0,0-13.29-.12,1.77,1.77,0,0,0-1.79,1.64c-1,4.11-11.2,42.3-14.79,57.41-1.25,5.27-2.28,10.59-1.84,16.06.48,5.9,3.67,12.25,11.34,14.43a48.51,48.51,0,0,0,13.2,1.43,41.91,41.91,0,0,0,28.39-10.6c.17-.15.33-.36.62-.33.2.27,0,.53,0,.79a18.56,18.56,0,0,0-.49,4.69c.06,2.21.93,3.27,3.09,3.67.71.13,13.09.23,18.55.3.89,0,1.13-.3,1.33-1.09,5.08-19.55,18.44-69.85,19.51-75.56C226.67,221.14,223.58,216.44,217.24,215.1Z"/><path d="M275.77,285.3c-3.43,1.41-6.89,2.53-10.69,2.06s-6.12-2.87-6.28-6.72a21.05,21.05,0,0,1,.78-6.23q5-19.32,10.08-38.63c.45-1.7.44-1.65,2.2-1.65,8,0,15.94,0,23.91.05.57,0,.84-.12,1-.74.28-1.34,3.52-13.57,4.8-18.45H275.08c.16-.63,3.13-11.18,4-16.12,1.05-6-1.95-10.37-7.84-11.6-4.49-1-9-.62-13.5,0a1.61,1.61,0,0,0-1.63,1.44q-11.1,42.74-22.24,85.47c-1.39,5.35-2.67,10.73-2.29,16.35A16.69,16.69,0,0,0,244.33,306a48.22,48.22,0,0,0,23.63-.38,34,34,0,0,0,14.64-7.15,9.25,9.25,0,0,0,3.45-7.66c-.15-3.51-1.58-6.62-2.83-9.93A32.44,32.44,0,0,1,275.77,285.3Z"/><path d="M371.64,214a15.08,15.08,0,0,0-1.87-.48c-7.13-1.41-13.69.25-19.91,3.72a42.51,42.51,0,0,0-9,7c-.93-5.44-2.92-7.58-8.27-8.78a36.82,36.82,0,0,0-12.78-.13A1.8,1.8,0,0,0,318,217q-9.64,37.24-19.38,74.48l-3.36,13a2.07,2.07,0,0,0,.31.09c8.25,0,16.5,0,24.75.07.78,0,.79-.45.92-1q7.37-28.29,14.73-56.56a13.49,13.49,0,0,1,3.05-5.71c6.41-7.14,18.83-8.67,25.82-1.09.48.52.71.39,1.07-.11,1.06-1.47,2.22-2.88,3.24-4.38,2.75-4,5.53-8,7.07-12.63S376.22,215.54,371.64,214Z"/><path d="M125.27,182.57a23.94,23.94,0,0,0-12.52-4c-1-.07-1.31.19-1.54,1.11-1.15,4.62-17,65.41-23.71,91.2a2.29,2.29,0,0,0,0,1.53c2.65,6.5,5.3,13,8.93,19a43.92,43.92,0,0,0,8,10c.14-.38.23-.61.3-.84,3.78-14.51,21.51-82.48,26.56-102A14.51,14.51,0,0,0,125.27,182.57Z"/><path d="M404.26,215.45a47.1,47.1,0,0,0-12.44,0,1.86,1.86,0,0,0-1.95,1.6c-5.53,21.48-19.34,73.48-20,78.16-.83,5.68,1.27,8.95,6.75,10.56a28.1,28.1,0,0,0,8.17.86c2.13-.13,4.28-.1,6.4-.39a1.7,1.7,0,0,0,1.72-1.44c4.8-18.58,18.39-69.89,19.93-77.06C414.25,221,411,216.52,404.26,215.45Z"/><path d="M34.73,256.06c-2.37-5.72-5.1-11.25-9.31-15.91a22.38,22.38,0,0,0-4.62-4.08c-6,22.81-11.9,45.48-17.86,68.2a5.86,5.86,0,0,0,.64.06c7.81,0,15.62,0,23.43,0,.88,0,1-.46,1.12-1.05q4.86-18.74,9.71-37.48a2.8,2.8,0,0,0-.08-1.87C36.72,261.34,35.81,258.67,34.73,256.06Z"/><path d="M636.87,217.58a1.91,1.91,0,0,1,.38-1.36,10.05,10.05,0,0,1-1.45-.06c-1-.18-1.45.31-1.75,1.26-.58,1.87-1.31,3.69-2.07,5.78-.66-1.84-1.23-3.47-1.81-5.09-.74-2.09-.74-2.07-3-2-.51,0-.69.14-.69.68q0,4.36,0,8.73c0,.59.27.61.73.65.86.08,1.21-.12,1.17-1.09-.08-2,0-4.06,0-6.09a49.79,49.79,0,0,1,2.45,6.31,1.07,1.07,0,0,0,1.18.89c.77,0,.93-.37,1.12-1,.72-2.16,1.48-4.3,2.23-6.49.11.09.15.11.15.13l0,5.7c0,1.64,0,1.64,1.69,1.52a1.88,1.88,0,0,1-.38-1.35Q636.86,221.18,636.87,217.58Z"/><path d="M636.87,217.58q0,3.6,0,7.22a1.88,1.88,0,0,0,.38,1.35v-9.93A1.91,1.91,0,0,0,636.87,217.58Z"/><path class="cls-3" d="M624.06,216.16q-3.4,0-6.79,0c-.63,0-1.06,0-1,.86s.42.9,1,.86,1,0,1.46,0,.86.13.82.79c0,1.09,0,2.18,0,3.27s.05,2.27,0,3.4c-.06.8.25,1,1,.9s1.21.16,1.16-.87c-.09-1.61,0-3.23,0-4.85,0-2.52,0-2.57,2.49-2.61.81,0,.77-.38.81-1S624.64,216.15,624.06,216.16Z"/><path class="cls-4" d="M97.41,299.71l-5.34-8c-1.69-2.93-3.22-5.94-4.7-9l-3.87-9q-1.78-4.85-3.58-9.71c-.82-3.37-2-6.64-3-10l-2.19-7.76L73.05,240c-.4-1.54-.8-3.08-1.21-4.62-.48-1.86-1-3.72-1.43-5.58q-.94-3.77-1.88-7.53A39.24,39.24,0,0,0,66.85,216a34,34,0,0,0-2-5.81,30.57,30.57,0,0,0-2.74-6.55c-.38-1.15-1.22-2.05-1.7-3.15a20.38,20.38,0,0,0-2.37-3.65,32.88,32.88,0,0,0-6.33-7,41.79,41.79,0,0,0-22.35-10.17c-8.3-1.18-16.67-1.12-25-1.12a17.31,17.31,0,0,0-1.85.16l2.85,1.95c3.06,2.52,6.12,5,9,7.77L18,192.19l2.66,3.16,4.82,6.8q1.71,3.16,3.43,6.33L31.57,215q1.08,3.63,2.15,7.26a44.79,44.79,0,0,0,1.19,5.25c.14.63.54.58,1,.6a35.56,35.56,0,0,1,14.63,3.3,33.38,33.38,0,0,1,8.25,6.36c1.87,2.1,3.59,4.32,5.25,6.59l5.2,8.45,4.13,7.52-.21.24-3.62-5.1a62.59,62.59,0,0,0-5.39-7.26A39.92,39.92,0,0,0,58,241.71c-6.27-5.91-13.62-9.27-22.3-9.47-4-.09-7.92-.08-11.88-.12H22.25c1.69,1.26,3.23,2.49,4.72,3.77a46.93,46.93,0,0,1,5.31,6.38L35.94,249q1.85,4.35,3.67,8.69a69.93,69.93,0,0,0,3.15,7.78,45.87,45.87,0,0,0,4.81,9.31,5.67,5.67,0,0,0,1.28,2,89.71,89.71,0,0,0,5.79,7.68A45,45,0,0,0,62.82,293a11.5,11.5,0,0,0,.86.85,50.55,50.55,0,0,0,11.69,6.68,83,83,0,0,0,23.53,5.3,17,17,0,0,0,4.37.11A48.35,48.35,0,0,1,97.41,299.71Z"/><path d="M489.6,215.75c-7.27-2.83-14.87-3-22.46-1.87-17.14,2.5-30.15,11.5-39.59,25.84-4.81,7.31-7.51,15.49-9.24,24-1.35,6.6-2.08,13.24-.74,20,1.6,8.1,5.45,14.69,12.69,19,4.23,2.53,8.91,3.69,13.7,4.56a13,13,0,0,1,3.71.7H462c0-.2.18-.23.35-.24a53,53,0,0,0,10.58-1.94c5.23-1.48,10.26-3.4,14.57-6.83,2.46-2,4.26-4.37,4.22-7.68,0-4.3-1.66-8.18-3.41-12-.24-.55-.5-.33-.82-.1-1.38,1-2.74,2-4.15,2.93-8.45,5.61-17.63,8-27.73,6.19-4.63-.85-8.39-3-10.44-7.54-2.27-5-2.24-10.18-1.39-15.44.1-.64.53-.51.9-.5,2.39,0,4.77.06,7.15.07,6.44,0,12.87,0,19.3,0q13.77,0,27.54.13a1,1,0,0,0,1.1-.83c.48-1.5,1-3,1.48-4.48,2.31-7.6,4.23-15.27,3.49-23.32C503.82,226.5,499,219.4,489.6,215.75Zm-9,34.2c-.17.79-.59.78-1.19.78H463.86v0c-5.17,0-10.34,0-15.51,0-.87,0-1-.17-.73-1,1.79-6.11,4.7-11.49,9.95-15.33a20.12,20.12,0,0,1,17-3.29c4.12.93,6.31,3.74,6.84,8.19A31.47,31.47,0,0,1,480.57,250Z"/></g></g></svg>