<?xml version="1.0" encoding="utf-8"?>
<!-- Generator: Adobe Illustrator 19.1.1, SVG Export Plug-In . SVG Version: 6.00 Build 0)  -->
<svg version="1.1"
	 id="svg676" xmlns:cc="http://creativecommons.org/ns#" xmlns:rdf="http://www.w3.org/1999/02/22-rdf-syntax-ns#" xmlns:dc="http://purl.org/dc/elements/1.1/"
	 xmlns="http://www.w3.org/2000/svg" xmlns:xlink="http://www.w3.org/1999/xlink" x="0px" y="0px" viewBox="220 -140 640 480"
	 style="enable-background:new 220 -140 640 480;" xml:space="preserve">
<style type="text/css">
	.st0{fill:#FFFFFF;}
	.st1{fill:#FDFDFD;}
	.st2{fill:#FBFBFB;}
	.st3{fill:#FAF9F9;}
	.st4{fill:#F8F8F7;}
	.st5{fill:#F6F6F5;}
	.st6{fill:#F4F4F3;}
	.st7{fill:#F2F2F1;}
	.st8{fill:#F1F0EF;}
	.st9{fill:#EFEEEE;}
	.st10{fill:#EDECEC;}
	.st11{fill:#EBEAEA;}
	.st12{fill:#E9E9E8;}
	.st13{fill:#E7E7E6;}
	.st14{fill:#E6E5E4;}
	.st15{fill:#E4E3E2;}
	.st16{fill:#E2E1E0;}
	.st17{fill:#E0DFDE;}
	.st18{fill:#DEDDDC;}
	.st19{fill:#DDDBDA;}
	.st20{fill:#DBDAD8;}
	.st21{fill:#D9D8D6;}
	.st22{fill:#D7D6D4;}
	.st23{fill:#D5D4D2;}
	.st24{fill:#D4D2D0;}
	.st25{fill:#D2D0CE;}
	.st26{fill:#D0CECD;}
	.st27{fill:#CECCCB;}
	.st28{fill:#CCCBC9;}
	.st29{fill:#CAC9C7;}
	.st30{fill:#C9C7C5;}
	.st31{fill:#C7C5C3;}
	.st32{fill:#C5C3C1;}
	.st33{fill:#C3C1BF;}
	.st34{fill:#C1BFBD;}
	.st35{fill:#C0BEBB;}
	.st36{fill:#BEBCB9;}
	.st37{fill:#BCBAB7;}
	.st38{fill:#BAB8B5;}
	.st39{fill:#B8B6B3;}
	.st40{fill:#B7B4B1;}
	.st41{fill:#B5B2AF;}
	.st42{fill:#B3B0AD;}
	.st43{fill:#B1AFAC;}
	.st44{fill:#AFADAA;}
	.st45{fill:#ADABA8;}
	.st46{fill:#ACA9A6;}
	.st47{fill:#AAA7A4;}
	.st48{fill:#A8A5A2;}
	.st49{fill:#A6A3A0;}
	.st50{fill:#A4A19E;}
	.st51{fill:#A3A09C;}
	.st52{fill:#A19E9A;}
	.st53{fill:#9F9C98;}
	.st54{fill:#9D9A96;}
	.st55{fill:#9B9894;}
	.st56{fill:#9A9692;}
	.st57{fill:#989490;}
	.st58{fill:#96928E;}
	.st59{fill:#94918D;}
	.st60{fill:#928F8B;}
	.st61{fill:#908D89;}
	.st62{fill:#8F8B87;}
	.st63{fill:#8D8985;}
	.st64{fill:#8B8783;}
	.st65{fill:#898581;}
	.st66{fill:#87837F;}
	.st67{fill:#86827D;}
	.st68{fill:#84807B;}
	.st69{fill:#827E79;}
	.st70{fill:#807C77;}
	.st71{fill:#7E7A75;}
	.st72{fill:#7D7873;}
	.st73{fill:#7B7671;}
	.st74{fill:#79756F;}
	.st75{fill:#77736D;}
	.st76{fill:#75716C;}
	.st77{fill:#736F6A;}
	.st78{fill:#726D68;}
	.st79{fill:#706B66;}
	.st80{fill:#6E6964;}
	.st81{fill:#6C6762;}
	.st82{fill:#6A6660;}
	.st83{fill:#69645E;}
	.st84{fill:#67625C;}
	.st85{fill:#65605A;}
	.st86{fill:#635E58;}
	.st87{fill:#615C56;}
	.st88{fill:#605A54;}
	.st89{fill:#5E5852;}
	.st90{fill:#5C5750;}
	.st91{fill:#5A554E;}
	.st92{fill:#58534C;}
	.st93{fill:#56514B;}
	.st94{fill:#554F49;}
	.st95{fill:#534D47;}
	.st96{fill:#514B45;}
	.st97{fill:#4F4943;}
	.st98{fill:#4D4841;}
	.st99{fill:#4C463F;}
	.st100{fill:#4A443D;}
	.st101{fill:#48423B;}
	.st102{fill:url(#SVGID_1_);}
	.st103{fill:url(#SVGID_2_);}
	.st104{fill:url(#SVGID_3_);}
	.st105{fill:url(#SVGID_4_);}
	.st106{fill:url(#SVGID_5_);}
	.st107{fill:url(#SVGID_6_);}
	.st108{fill:url(#SVGID_7_);}
	.st109{fill:url(#SVGID_8_);}
	.st110{opacity:0.5;}
	.st111{fill:url(#SVGID_9_);}
	.st112{fill:url(#SVGID_10_);}
	.st113{fill:url(#SVGID_11_);}
	.st114{fill:url(#SVGID_12_);}
	.st115{fill:url(#SVGID_13_);}
	.st116{fill:url(#SVGID_14_);}
	.st117{fill:url(#SVGID_15_);}
	.st118{fill:url(#SVGID_16_);}
	.st119{fill:url(#SVGID_17_);}
	.st120{fill:#808080;}
	.st121{fill:url(#SVGID_18_);}
	.st122{fill:url(#SVGID_19_);}
	.st123{fill:url(#SVGID_20_);}
	.st124{fill:url(#SVGID_21_);}
	.st125{fill:url(#SVGID_22_);}
	.st126{fill:url(#SVGID_23_);}
	.st127{fill:url(#SVGID_24_);}
	.st128{fill:url(#SVGID_25_);}
	.st129{fill:url(#SVGID_26_);}
	.st130{fill:#767676;}
	.st131{opacity:0.6;}
	.st132{fill:#848484;}
	.st133{fill:#929292;}
	.st134{fill:#9F9F9F;}
	.st135{fill:#ADADAD;}
	.st136{fill:#BBBBBB;}
	.st137{fill:#C8C8C8;}
	.st138{fill:#D6D6D6;}
	.st139{fill:#E4E4E4;}
	.st140{fill:#F1F1F1;}
	.st141{fill:#FFAC00;}
	.st142{fill:url(#SVGID_27_);}
</style>
<g id="Layer_2">
	<g>
		<g>
			<path class="st0" d="M685.1,299.9c0,16.1-61.6,29.1-148.4,29.1c-86.9,0-150.4-15.1-150.4-31.2c0-16.1,63.6-27,150.4-27
				C623.6,270.8,685.1,283.9,685.1,299.9z"/>
			<path class="st1" d="M685,299.9c0,16-61.5,29-148.3,29c-86.7,0-150.2-15.1-150.2-31.1c0-16,63.5-27,150.2-27
				C623.5,270.8,685,283.8,685,299.9z"/>
			<path class="st2" d="M684.8,299.8c0,16-61.5,29-148.1,29c-86.6,0-150-15-150-31c0-16,63.5-27,150-26.9
				C623.3,270.8,684.8,283.8,684.8,299.8z"/>
			<path class="st3" d="M684.6,299.8c0,16-61.5,28.9-147.9,28.9c-86.4,0-149.8-15-149.8-31c0-16,63.4-26.9,149.8-26.9
				C623.2,270.8,684.6,283.8,684.6,299.8z"/>
			<path class="st4" d="M684.4,299.7c0,16-61.4,28.9-147.7,28.9c-86.3,0-149.6-14.9-149.6-30.9c0-16,63.4-26.9,149.6-26.9
				C623,270.8,684.4,283.8,684.4,299.7z"/>
			<path class="st5" d="M684.2,299.7c0,15.9-61.4,28.8-147.5,28.8c-86.1,0-149.4-14.9-149.4-30.8c0-15.9,63.3-26.9,149.4-26.9
				C622.9,270.8,684.2,283.7,684.2,299.7z"/>
			<path class="st6" d="M684.1,299.6c0,15.9-61.4,28.8-147.4,28.8c-86,0-149.2-14.9-149.2-30.8c0-15.9,63.3-26.8,149.2-26.8
				C622.7,270.8,684.1,283.7,684.1,299.6z"/>
			<path class="st7" d="M683.9,299.6c0,15.9-61.3,28.7-147.2,28.7c-85.8,0-149-14.8-149-30.7c0-15.9,63.2-26.8,149-26.8
				C622.6,270.8,683.9,283.7,683.9,299.6z"/>
			<path class="st8" d="M683.7,299.5c0,15.8-61.3,28.7-147,28.7c-85.7,0-148.8-14.8-148.8-30.6c0-15.9,63.1-26.8,148.8-26.8
				C622.4,270.8,683.7,283.7,683.7,299.5z"/>
			<path class="st9" d="M683.5,299.5c0,15.8-61.3,28.6-146.8,28.6c-85.6,0-148.6-14.7-148.6-30.6c0-15.8,63.1-26.8,148.6-26.7
				C622.3,270.8,683.5,283.7,683.5,299.5z"/>
			<path class="st10" d="M683.3,299.4c0,15.8-61.2,28.6-146.6,28.6c-85.4,0-148.4-14.7-148.4-30.5c0-15.8,63-26.7,148.4-26.7
				C622.1,270.8,683.3,283.6,683.3,299.4z"/>
			<path class="st11" d="M683.2,299.4c0,15.8-61.2,28.5-146.5,28.5c-85.3,0-148.2-14.6-148.2-30.4c0-15.8,63-26.7,148.2-26.7
				C622,270.8,683.2,283.6,683.2,299.4z"/>
			<path class="st12" d="M683,299.3c0,15.7-61.2,28.5-146.3,28.5c-85.1,0-148-14.6-148-30.3c0-15.7,62.9-26.7,148-26.7
				C621.8,270.8,683,283.6,683,299.3z"/>
			<path class="st13" d="M682.8,299.3c0,15.7-61.1,28.4-146.1,28.4c-85,0-147.8-14.6-147.8-30.3c0-15.7,62.9-26.6,147.8-26.6
				C621.7,270.8,682.8,283.6,682.8,299.3z"/>
			<path class="st14" d="M682.6,299.2c0,15.7-61.1,28.4-145.9,28.4c-84.8,0-147.6-14.5-147.6-30.2c0-15.7,62.8-26.6,147.6-26.6
				C621.5,270.8,682.6,283.5,682.6,299.2z"/>
			<path class="st15" d="M682.4,299.2c0,15.7-61.1,28.3-145.7,28.3c-84.7,0-147.4-14.5-147.4-30.1c0-15.7,62.8-26.6,147.4-26.6
				C621.4,270.8,682.5,283.5,682.4,299.2z"/>
			<path class="st16" d="M682.3,299.1c0,15.6-61,28.3-145.6,28.3c-84.5,0-147.2-14.4-147.2-30.1c0-15.6,62.7-26.6,147.3-26.5
				C621.2,270.8,682.3,283.5,682.3,299.1z"/>
			<path class="st17" d="M682.1,299.1c0,15.6-61,28.2-145.4,28.2c-84.4,0-147-14.4-147-30c0-15.6,62.7-26.5,147.1-26.5
				C621.1,270.8,682.1,283.5,682.1,299.1z"/>
			<path class="st18" d="M681.9,299c0,15.6-61,28.2-145.2,28.2c-84.2,0-146.8-14.3-146.8-29.9c0-15.6,62.6-26.5,146.9-26.5
				C620.9,270.8,681.9,283.5,681.9,299z"/>
			<path class="st19" d="M681.7,299c0,15.5-60.9,28.1-145,28.1c-84.1,0-146.6-14.3-146.6-29.9c0-15.6,62.6-26.5,146.7-26.5
				C620.8,270.8,681.7,283.4,681.7,299z"/>
			<path class="st20" d="M681.6,298.9c0,15.5-60.9,28.1-144.8,28.1c-83.9,0-146.4-14.3-146.4-29.8c0-15.5,62.5-26.4,146.5-26.4
				C620.6,270.8,681.6,283.4,681.6,298.9z"/>
			<path class="st21" d="M681.4,298.9c0,15.5-60.9,28-144.7,28c-83.8,0-146.2-14.2-146.2-29.7c0-15.5,62.5-26.4,146.3-26.4
				C620.5,270.8,681.4,283.4,681.4,298.9z"/>
			<path class="st22" d="M681.2,298.8c0,15.5-60.9,28-144.5,28c-83.6,0-146-14.2-146-29.6c0-15.5,62.4-26.4,146.1-26.4
				C620.3,270.8,681.2,283.4,681.2,298.8z"/>
			<path class="st23" d="M681,298.8c0,15.4-60.8,27.9-144.3,27.9c-83.5,0-145.8-14.1-145.8-29.6c0-15.4,62.4-26.4,145.9-26.3
				C620.2,270.8,681,283.3,681,298.8z"/>
			<path class="st24" d="M680.8,298.7c0,15.4-60.8,27.9-144.1,27.9c-83.3,0-145.7-14.1-145.6-29.5c0-15.4,62.3-26.3,145.7-26.3
				C620.1,270.8,680.8,283.3,680.8,298.7z"/>
			<path class="st25" d="M680.7,298.7c0,15.4-60.8,27.8-143.9,27.8c-83.2,0-145.5-14-145.4-29.4c0-15.4,62.3-26.3,145.5-26.3
				C619.9,270.8,680.7,283.3,680.7,298.7z"/>
			<path class="st26" d="M680.5,298.6c0,15.4-60.7,27.8-143.8,27.8c-83,0-145.3-14-145.2-29.4c0-15.4,62.2-26.3,145.3-26.3
				C619.8,270.8,680.5,283.3,680.5,298.6z"/>
			<path class="st27" d="M680.3,298.6c0,15.3-60.7,27.8-143.6,27.7c-82.9,0-145.1-14-145-29.3c0-15.3,62.2-26.2,145.1-26.2
				C619.6,270.8,680.3,283.3,680.3,298.6z"/>
			<path class="st28" d="M680.1,298.5c0,15.3-60.7,27.7-143.4,27.7c-82.7,0-144.9-13.9-144.9-29.2c0-15.3,62.1-26.2,144.9-26.2
				C619.5,270.8,680.1,283.2,680.1,298.5z"/>
			<path class="st29" d="M679.9,298.5c0,15.3-60.6,27.7-143.2,27.6c-82.6,0-144.7-13.9-144.7-29.2c0-15.3,62.1-26.2,144.7-26.2
				C619.3,270.8,679.9,283.2,679.9,298.5z"/>
			<path class="st30" d="M679.8,298.4c0,15.2-60.6,27.6-143,27.6c-82.4,0-144.5-13.8-144.5-29.1c0-15.3,62-26.1,144.5-26.1
				C619.2,270.8,679.8,283.2,679.8,298.4z"/>
			<path class="st31" d="M679.6,298.4c0,15.2-60.6,27.6-142.9,27.5c-82.3,0-144.3-13.8-144.3-29c0-15.2,62-26.1,144.3-26.1
				C619,270.8,679.6,283.2,679.6,298.4z"/>
			<path class="st32" d="M679.4,298.3c0,15.2-60.5,27.5-142.7,27.5c-82.2,0-144.1-13.8-144.1-28.9c0-15.2,61.9-26.1,144.1-26.1
				C618.9,270.8,679.4,283.1,679.4,298.3z"/>
			<path class="st33" d="M679.2,298.3c0,15.2-60.5,27.5-142.5,27.4c-82,0-143.9-13.7-143.9-28.9c0-15.2,61.9-26.1,143.9-26
				C618.7,270.8,679.2,283.1,679.2,298.3z"/>
			<path class="st34" d="M679,298.2c0,15.1-60.5,27.4-142.3,27.4c-81.9,0-143.7-13.7-143.7-28.8c0-15.1,61.8-26,143.7-26
				C618.6,270.8,679,283.1,679,298.2z"/>
			<path class="st35" d="M678.9,298.2c0,15.1-60.4,27.4-142.1,27.3c-81.7,0-143.5-13.6-143.5-28.7c0-15.1,61.8-26,143.5-26
				C618.4,270.8,678.9,283.1,678.9,298.2z"/>
			<path class="st36" d="M678.7,298.1c0,15.1-60.4,27.3-142,27.3c-81.6,0-143.3-13.6-143.3-28.7c0-15.1,61.7-26,143.3-26
				C618.3,270.8,678.7,283.1,678.7,298.1z"/>
			<path class="st37" d="M678.5,298.1c0,15.1-60.4,27.3-141.8,27.2c-81.4,0-143.1-13.5-143.1-28.6c0-15.1,61.6-25.9,143.1-25.9
				C618.1,270.8,678.5,283,678.5,298.1z"/>
			<path class="st38" d="M678.3,298c0,15-60.3,27.2-141.6,27.2c-81.3,0-142.9-13.5-142.9-28.5c0-15,61.6-25.9,142.9-25.9
				C618,270.8,678.3,283,678.3,298z"/>
			<path class="st39" d="M678.1,298c0,15-60.3,27.2-141.4,27.1c-81.1,0-142.7-13.5-142.7-28.5c0-15,61.5-25.9,142.7-25.9
				C617.8,270.8,678.1,283,678.1,298z"/>
			<path class="st40" d="M678,297.9c0,15-60.3,27.1-141.2,27.1c-81,0-142.5-13.4-142.5-28.4c0-15,61.5-25.9,142.5-25.8
				C617.7,270.8,678,283,678,297.9z"/>
			<path class="st41" d="M677.8,297.9c0,14.9-60.2,27.1-141.1,27c-80.8,0-142.3-13.4-142.3-28.3c0-14.9,61.4-25.8,142.3-25.8
				C617.5,270.8,677.8,282.9,677.8,297.9z"/>
			<path class="st42" d="M677.6,297.8c0,14.9-60.2,27-140.9,27c-80.7,0-142.1-13.3-142.1-28.2c0-14.9,61.4-25.8,142.1-25.8
				C617.4,270.8,677.6,282.9,677.6,297.8z"/>
			<path class="st43" d="M677.4,297.8c0,14.9-60.2,27-140.7,26.9c-80.5,0-141.9-13.3-141.9-28.2c0-14.9,61.3-25.8,141.9-25.8
				C617.2,270.8,677.4,282.9,677.4,297.8z"/>
			<path class="st44" d="M677.2,297.7c0,14.9-60.2,26.9-140.5,26.9c-80.4,0-141.7-13.2-141.7-28.1c0-14.9,61.3-25.7,141.7-25.7
				C617.1,270.8,677.2,282.9,677.2,297.7z"/>
			<path class="st45" d="M677.1,297.7c0,14.8-60.1,26.9-140.4,26.9c-80.2,0-141.5-13.2-141.5-28c0-14.8,61.2-25.7,141.5-25.7
				C617,270.8,677.1,282.9,677.1,297.7z"/>
			<path class="st46" d="M676.9,297.6c0,14.8-60.1,26.8-140.2,26.8c-80.1,0-141.3-13.2-141.3-28c0-14.8,61.2-25.7,141.3-25.7
				C616.8,270.8,676.9,282.8,676.9,297.6z"/>
			<path class="st47" d="M676.7,297.6c0,14.8-60.1,26.8-140,26.8c-79.9,0-141.1-13.1-141.1-27.9c0-14.8,61.1-25.7,141.1-25.6
				C616.7,270.8,676.7,282.8,676.7,297.6z"/>
			<path class="st48" d="M676.5,297.6c0,14.8-60,26.7-139.8,26.7c-79.8,0-140.9-13.1-140.9-27.8c0-14.8,61.1-25.6,140.9-25.6
				C616.5,270.8,676.5,282.8,676.5,297.6z"/>
			<path class="st49" d="M676.3,297.5c0,14.7-60,26.7-139.6,26.7c-79.6,0-140.7-13-140.7-27.8c0-14.7,61-25.6,140.7-25.6
				C616.4,270.8,676.3,282.8,676.3,297.5z"/>
			<path class="st50" d="M676.2,297.5c0,14.7-60,26.6-139.5,26.6c-79.5,0-140.5-13-140.5-27.7c0-14.7,61-25.6,140.5-25.6
				C616.2,270.8,676.2,282.8,676.2,297.5z"/>
			<path class="st51" d="M676,297.4c0,14.7-59.9,26.6-139.3,26.6c-79.3,0-140.3-12.9-140.3-27.6c0-14.7,60.9-25.5,140.3-25.5
				C616.1,270.8,676,282.7,676,297.4z"/>
			<path class="st52" d="M675.8,297.4c0,14.6-59.9,26.5-139.1,26.5c-79.2,0-140.1-12.9-140.1-27.5c0-14.6,60.9-25.5,140.1-25.5
				C615.9,270.8,675.8,282.7,675.8,297.4z"/>
			<path class="st53" d="M675.6,297.3c0,14.6-59.9,26.5-138.9,26.5c-79.1,0-139.9-12.9-139.9-27.5c0-14.6,60.8-25.5,139.9-25.5
				C615.8,270.8,675.6,282.7,675.6,297.3z"/>
			<path class="st54" d="M675.4,297.3c0,14.6-59.8,26.4-138.7,26.4c-78.9,0-139.7-12.8-139.7-27.4c0-14.6,60.8-25.5,139.7-25.4
				C615.6,270.8,675.4,282.7,675.4,297.3z"/>
			<path class="st55" d="M675.3,297.2c0,14.6-59.8,26.4-138.6,26.4c-78.8,0-139.5-12.8-139.5-27.3c0-14.6,60.7-25.4,139.5-25.4
				C615.5,270.8,675.3,282.6,675.3,297.2z"/>
			<path class="st56" d="M675.1,297.2c0,14.5-59.8,26.3-138.4,26.3c-78.6,0-139.3-12.7-139.3-27.3c0-14.5,60.7-25.4,139.3-25.4
				C615.3,270.8,675.1,282.6,675.1,297.2z"/>
			<path class="st57" d="M674.9,297.1c0,14.5-59.7,26.3-138.2,26.3c-78.5,0-139.1-12.7-139.1-27.2c0-14.5,60.6-25.4,139.1-25.4
				C615.2,270.8,674.9,282.6,674.9,297.1z"/>
			<path class="st58" d="M674.7,297.1c0,14.5-59.7,26.2-138,26.2c-78.3,0-138.9-12.6-138.9-27.1c0-14.5,60.6-25.3,138.9-25.3
				C615,270.8,674.7,282.6,674.7,297.1z"/>
			<path class="st59" d="M674.6,297c0,14.5-59.7,26.2-137.8,26.2c-78.2,0-138.7-12.6-138.7-27.1c0-14.5,60.5-25.3,138.7-25.3
				C614.9,270.8,674.6,282.6,674.6,297z"/>
			<path class="st60" d="M674.4,297c0,14.4-59.6,26.1-137.7,26.1c-78,0-138.5-12.6-138.5-27c0-14.4,60.5-25.3,138.5-25.3
				C614.7,270.8,674.4,282.5,674.4,297z"/>
			<path class="st61" d="M674.2,296.9c0,14.4-59.6,26.1-137.5,26.1c-77.9,0-138.3-12.5-138.3-26.9c0-14.4,60.4-25.3,138.3-25.2
				C614.6,270.8,674.2,282.5,674.2,296.9z"/>
			<path class="st62" d="M674,296.9c0,14.4-59.6,26-137.3,26c-77.7,0-138.1-12.5-138.1-26.8c0-14.4,60.4-25.2,138.1-25.2
				C614.4,270.8,674,282.5,674,296.9z"/>
			<path class="st63" d="M673.8,296.8c0,14.3-59.5,26-137.1,26c-77.6,0-137.9-12.4-137.9-26.8c0-14.3,60.3-25.2,137.9-25.2
				C614.3,270.8,673.8,282.5,673.8,296.8z"/>
			<path class="st64" d="M673.7,296.8c0,14.3-59.5,25.9-136.9,25.9c-77.4,0-137.7-12.4-137.7-26.7c0-14.3,60.3-25.2,137.7-25.2
				C614.1,270.8,673.7,282.4,673.7,296.8z"/>
			<path class="st65" d="M673.5,296.7c0,14.3-59.5,25.9-136.8,25.9c-77.3,0-137.5-12.3-137.5-26.6c0-14.3,60.2-25.1,137.5-25.1
				C614,270.8,673.5,282.4,673.5,296.7z"/>
			<path class="st66" d="M673.3,296.7c0,14.3-59.5,25.8-136.6,25.8c-77.1,0-137.3-12.3-137.3-26.6c0-14.3,60.1-25.1,137.3-25.1
				C613.9,270.8,673.3,282.4,673.3,296.7z"/>
			<path class="st67" d="M673.1,296.6c0,14.2-59.4,25.8-136.4,25.8c-77,0-137.1-12.3-137.1-26.5c0-14.2,60.1-25.1,137.1-25.1
				C613.7,270.8,673.1,282.4,673.1,296.6z"/>
			<path class="st68" d="M672.9,296.6c0,14.2-59.4,25.7-136.2,25.7c-76.8,0-136.9-12.2-136.9-26.4c0-14.2,60-25,136.9-25
				C613.6,270.8,672.9,282.4,672.9,296.6z"/>
			<path class="st69" d="M672.8,296.5c0,14.2-59.4,25.7-136,25.7C460,322.2,400,310,400,295.8c0-14.2,60-25,136.7-25
				C613.4,270.8,672.8,282.3,672.8,296.5z"/>
			<path class="st70" d="M672.6,296.5c0,14.2-59.3,25.6-135.9,25.6c-76.5,0-136.5-12.1-136.5-26.3c0-14.2,59.9-25,136.5-25
				C613.3,270.8,672.6,282.3,672.6,296.5z"/>
			<path class="st71" d="M672.4,296.4c0,14.1-59.3,25.6-135.7,25.6c-76.4,0-136.3-12.1-136.3-26.2c0-14.1,59.9-25,136.3-24.9
				C613.1,270.8,672.4,282.3,672.4,296.4z"/>
			<path class="st72" d="M672.2,296.4c0,14.1-59.3,25.5-135.5,25.5c-76.2,0-136.1-12-136.1-26.1c0-14.1,59.8-24.9,136.1-24.9
				C613,270.8,672.2,282.3,672.2,296.4z"/>
			<path class="st73" d="M672,296.3c0,14.1-59.2,25.5-135.3,25.5c-76.1,0-135.9-12-135.9-26.1c0-14.1,59.8-24.9,135.9-24.9
				C612.8,270.8,672,282.2,672,296.3z"/>
			<path class="st74" d="M671.9,296.3c0,14-59.2,25.4-135.1,25.4c-75.9,0-135.7-12-135.7-26c0-14,59.7-24.9,135.7-24.9
				C612.7,270.8,671.9,282.2,671.9,296.3z"/>
			<path class="st75" d="M671.7,296.2c0,14-59.2,25.4-135,25.4c-75.8,0-135.5-11.9-135.5-25.9c0-14,59.7-24.8,135.5-24.8
				C612.5,270.8,671.7,282.2,671.7,296.2z"/>
			<path class="st76" d="M671.5,296.2c0,14-59.1,25.3-134.8,25.3c-75.7,0-135.3-11.9-135.3-25.9c0-14,59.6-24.8,135.3-24.8
				C612.4,270.8,671.5,282.2,671.5,296.2z"/>
			<path class="st77" d="M671.3,296.1c0,14-59.1,25.3-134.6,25.3c-75.5,0-135.1-11.8-135.1-25.8c0-14,59.6-24.8,135.1-24.8
				C612.2,270.8,671.3,282.2,671.3,296.1z"/>
			<path class="st78" d="M671.1,296.1c0,13.9-59.1,25.2-134.4,25.2c-75.4,0-134.9-11.8-134.9-25.7c0-13.9,59.5-24.8,134.9-24.7
				C612.1,270.8,671.1,282.1,671.1,296.1z"/>
			<path class="st79" d="M671,296c0,13.9-59,25.2-134.2,25.2c-75.2,0-134.7-11.7-134.7-25.7c0-13.9,59.5-24.7,134.7-24.7
				C611.9,270.8,671,282.1,671,296z"/>
			<path class="st80" d="M670.8,296c0,13.9-59,25.1-134.1,25.1c-75.1,0-134.5-11.7-134.5-25.6c0-13.9,59.4-24.7,134.5-24.7
				C611.8,270.8,670.8,282.1,670.8,296z"/>
			<path class="st81" d="M670.6,295.9c0,13.9-59,25.1-133.9,25.1c-74.9,0-134.3-11.7-134.3-25.5c0-13.9,59.4-24.7,134.3-24.7
				C611.6,270.8,670.6,282.1,670.6,295.9z"/>
			<path class="st82" d="M670.4,295.9c0,13.8-58.9,25-133.7,25c-74.8,0-134.1-11.6-134.1-25.4c0-13.8,59.3-24.6,134.1-24.6
				C611.5,270.8,670.4,282,670.4,295.9z"/>
			<path class="st83" d="M670.2,295.8c0,13.8-58.9,25-133.5,25c-74.6,0-133.9-11.6-133.9-25.4c0-13.8,59.3-24.6,133.9-24.6
				C611.3,270.8,670.2,282,670.2,295.8z"/>
			<path class="st84" d="M670.1,295.8c0,13.8-58.9,24.9-133.3,24.9c-74.5,0-133.7-11.5-133.7-25.3c0-13.8,59.2-24.6,133.7-24.6
				C611.2,270.8,670.1,282,670.1,295.8z"/>
			<path class="st85" d="M669.9,295.7c0,13.7-58.8,24.9-133.2,24.9c-74.3,0-133.5-11.5-133.5-25.2c0-13.7,59.2-24.6,133.5-24.5
				C611,270.8,669.9,282,669.9,295.7z"/>
			<path class="st86" d="M669.7,295.7c0,13.7-58.8,24.8-133,24.8c-74.2,0-133.3-11.4-133.3-25.2c0-13.7,59.1-24.5,133.3-24.5
				C610.9,270.8,669.7,282,669.7,295.7z"/>
			<path class="st87" d="M669.5,295.6c0,13.7-58.8,24.8-132.8,24.8c-74,0-133.1-11.4-133.1-25.1c0-13.7,59.1-24.5,133.1-24.5
				C610.8,270.8,669.5,281.9,669.5,295.6z"/>
			<path class="st88" d="M669.3,295.6c0,13.7-58.8,24.7-132.6,24.7c-73.9,0-132.9-11.4-132.9-25c0-13.7,59-24.5,132.9-24.5
				C610.6,270.8,669.3,281.9,669.3,295.6z"/>
			<path class="st89" d="M669.2,295.5c0,13.6-58.7,24.7-132.5,24.7c-73.7,0-132.7-11.3-132.7-25c0-13.6,59-24.4,132.7-24.4
				C610.5,270.8,669.2,281.9,669.2,295.5z"/>
			<path class="st90" d="M669,295.5c0,13.6-58.7,24.6-132.3,24.6c-73.6,0-132.5-11.3-132.5-24.9c0-13.6,58.9-24.4,132.5-24.4
				C610.3,270.8,669,281.9,669,295.5z"/>
			<path class="st91" d="M668.8,295.4c0,13.6-58.7,24.6-132.1,24.6c-73.4,0-132.3-11.2-132.3-24.8c0-13.6,58.9-24.4,132.3-24.4
				C610.2,270.8,668.8,281.8,668.8,295.4z"/>
			<path class="st92" d="M668.6,295.4c0,13.6-58.6,24.5-131.9,24.5c-73.3,0-132.1-11.2-132.1-24.7c0-13.6,58.8-24.4,132.1-24.3
				C610,270.8,668.6,281.8,668.6,295.4z"/>
			<path class="st93" d="M668.4,295.3c0,13.5-58.6,24.5-131.7,24.5c-73.1,0-131.9-11.1-131.9-24.7c0-13.5,58.8-24.3,131.9-24.3
				C609.9,270.8,668.4,281.8,668.4,295.3z"/>
			<path class="st94" d="M668.3,295.3c0,13.5-58.6,24.4-131.6,24.4c-73,0-131.7-11.1-131.7-24.6c0-13.5,58.7-24.3,131.7-24.3
				C609.7,270.8,668.3,281.8,668.3,295.3z"/>
			<path class="st95" d="M668.1,295.2c0,13.5-58.5,24.4-131.4,24.4c-72.8,0-131.5-11.1-131.5-24.5c0-13.5,58.6-24.3,131.5-24.3
				C609.6,270.8,668.1,281.8,668.1,295.2z"/>
			<path class="st96" d="M667.9,295.2c0,13.4-58.5,24.3-131.2,24.3c-72.7,0-131.3-11-131.3-24.5c0-13.4,58.6-24.2,131.3-24.2
				C609.4,270.8,667.9,281.7,667.9,295.2z"/>
			<path class="st97" d="M667.7,295.1c0,13.4-58.5,24.3-131,24.3c-72.6,0-131.1-11-131.1-24.4c0-13.4,58.5-24.2,131.1-24.2
				C609.3,270.8,667.7,281.7,667.7,295.1z"/>
			<path class="st98" d="M667.5,295.1c0,13.4-58.4,24.2-130.8,24.2c-72.4,0-130.9-10.9-130.9-24.3c0-13.4,58.5-24.2,130.9-24.2
				C609.1,270.8,667.6,281.7,667.5,295.1z"/>
			<path class="st99" d="M667.4,295c0,13.4-58.4,24.2-130.7,24.2c-72.3,0-130.7-10.9-130.7-24.3c0-13.4,58.4-24.2,130.7-24.1
				C609,270.8,667.4,281.7,667.4,295z"/>
			<path class="st100" d="M667.2,295c0,13.3-58.4,24.1-130.5,24.1c-72.1,0-130.5-10.9-130.5-24.2c0-13.3,58.4-24.1,130.5-24.1
				C608.8,270.8,667.2,281.6,667.2,295z"/>
			<path class="st101" d="M667,294.9c0,13.3-58.3,24.1-130.3,24.1c-72,0-130.3-10.8-130.3-24.1c0-13.3,58.3-24.1,130.3-24.1
				C608.7,270.8,667,281.6,667,294.9z"/>
		</g>
		<linearGradient id="SVGID_1_" gradientUnits="userSpaceOnUse" x1="386.0504" y1="112.6416" x2="676.198" y2="112.6416">
			<stop  offset="5.102040e-003" style="stop-color:#ACACAC"/>
			<stop  offset="3.770659e-002" style="stop-color:#848484"/>
			<stop  offset="0.1025" style="stop-color:#2A2A2A"/>
			<stop  offset="0.1172" style="stop-color:#3E3E3E"/>
			<stop  offset="0.1571" style="stop-color:#717170"/>
			<stop  offset="0.1948" style="stop-color:#989898"/>
			<stop  offset="0.2291" style="stop-color:#B5B5B4"/>
			<stop  offset="0.259" style="stop-color:#C6C6C5"/>
			<stop  offset="0.2811" style="stop-color:#CCCCCB"/>
			<stop  offset="0.2834" style="stop-color:#CACAC9"/>
			<stop  offset="0.3149" style="stop-color:#ADADAC"/>
			<stop  offset="0.3424" style="stop-color:#9C9C9B"/>
			<stop  offset="0.3627" style="stop-color:#969695"/>
			<stop  offset="0.3669" style="stop-color:#949493"/>
			<stop  offset="0.4603" style="stop-color:#616161"/>
			<stop  offset="0.5484" style="stop-color:#3A3A39"/>
			<stop  offset="0.6286" style="stop-color:#1D1D1D"/>
			<stop  offset="0.6984" style="stop-color:#0C0C0C"/>
			<stop  offset="0.75" style="stop-color:#060606"/>
			<stop  offset="0.8367" style="stop-color:#040404"/>
			<stop  offset="0.869" style="stop-color:#0A0A0A"/>
			<stop  offset="0.9107" style="stop-color:#1A1A1A"/>
			<stop  offset="0.9574" style="stop-color:#343434"/>
			<stop  offset="1" style="stop-color:#535353"/>
		</linearGradient>
		<path class="st102" d="M398.3-97.9V19.3c0,0-7.1,3.2-7.6,7.9c-0.6,5.4,7.6,9.2,7.6,9.2v108.1c0,0-7.3,4-7.7,9.5
			c-0.4,6.7,7.6,10.5,7.6,10.5l0.1,130.1h0c0,15.8,61.5,28.6,137.4,28.6c75.9,0,137.4-12.8,137.4-28.6V164.5c0,0,7.7-3.9,7.7-10
			c0-6.8-7.7-10-7.7-10V36.4c0,0,7.1-2.4,7.7-8.5c0.5-5.2-7.7-9.4-7.7-9.4V-97.9H398.3z"/>
		<g>
			<linearGradient id="SVGID_2_" gradientUnits="userSpaceOnUse" x1="393.0932" y1="302.371" x2="678.3284" y2="302.371">
				<stop  offset="0" style="stop-color:#767676"/>
				<stop  offset="1.813939e-002" style="stop-color:#626262"/>
				<stop  offset="3.790173e-002" style="stop-color:#535353"/>
				<stop  offset="5.420910e-002" style="stop-color:#4E4E4E"/>
				<stop  offset="8.512147e-002" style="stop-color:#767676"/>
				<stop  offset="0.1238" style="stop-color:#A2A2A1"/>
				<stop  offset="0.1613" style="stop-color:#C4C4C4"/>
				<stop  offset="0.1966" style="stop-color:#DDDDDC"/>
				<stop  offset="0.2289" style="stop-color:#ECECEB"/>
				<stop  offset="0.2556" style="stop-color:#F1F1F0"/>
				<stop  offset="0.2822" style="stop-color:#E1E1E1"/>
				<stop  offset="0.3953" style="stop-color:#A4A4A4"/>
				<stop  offset="0.5038" style="stop-color:#717171"/>
				<stop  offset="0.6051" style="stop-color:#4A4A4A"/>
				<stop  offset="0.6973" style="stop-color:#2D2D2D"/>
				<stop  offset="0.7775" style="stop-color:#1C1C1C"/>
				<stop  offset="0.8367" style="stop-color:#161616"/>
				<stop  offset="0.8745" style="stop-color:#1C1C1C"/>
				<stop  offset="0.9234" style="stop-color:#2C2C2C"/>
				<stop  offset="0.9783" style="stop-color:#464646"/>
				<stop  offset="1" style="stop-color:#535353"/>
			</linearGradient>
			<path class="st103" d="M535.7,309.7c-78.8,0-142.6-12.2-142.6-27.3V295c0,15.1,63.9,27.3,142.6,27.3
				c78.8,0,142.6-12.2,142.6-27.3v-12.6C678.3,297.5,614.5,309.7,535.7,309.7z"/>
			<linearGradient id="SVGID_3_" gradientUnits="userSpaceOnUse" x1="393.0932" y1="292.5974" x2="678.3284" y2="292.5974">
				<stop  offset="0" style="stop-color:#666666"/>
				<stop  offset="5.420910e-002" style="stop-color:#666666"/>
				<stop  offset="0.113" style="stop-color:#767676"/>
				<stop  offset="0.1911" style="stop-color:#858585"/>
				<stop  offset="0.2556" style="stop-color:#8A8A8A"/>
				<stop  offset="0.3335" style="stop-color:#737373"/>
				<stop  offset="0.4856" style="stop-color:#4C4C4C"/>
				<stop  offset="0.6254" style="stop-color:#2F2F2F"/>
				<stop  offset="0.7469" style="stop-color:#1E1E1E"/>
				<stop  offset="0.8367" style="stop-color:#181818"/>
				<stop  offset="0.9688" style="stop-color:#121212"/>
				<stop  offset="1" style="stop-color:#101010"/>
			</linearGradient>
			<path class="st104" d="M672.9,275.5c0.1,0.4,0.2,0.8,0.2,1.2c0,13.1-52.3,23.9-120,25.5c-5.6,0.1-11.3,0.2-17,0.2
				c-0.1,0-0.1,0-0.2,0c-0.1,0-0.1,0-0.2,0c-75.9,0-137.3-11.5-137.3-25.7c0-0.4,0.1-0.8,0.2-1.2c-3.5,2.3-5.4,4.8-5.4,7.4
				c0,14.8,63.9,26.9,142.6,26.9c78.8,0,142.6-12,142.6-26.9C678.3,280.3,676.4,277.8,672.9,275.5z"/>
		</g>
		<g>
			<linearGradient id="SVGID_4_" gradientUnits="userSpaceOnUse" x1="395.8323" y1="-115.566" x2="673.0945" y2="-115.566">
				<stop  offset="0" style="stop-color:#333333"/>
				<stop  offset="8.795696e-003" style="stop-color:#3A3A3A"/>
				<stop  offset="3.367934e-002" style="stop-color:#494949"/>
				<stop  offset="5.420910e-002" style="stop-color:#4E4E4E"/>
				<stop  offset="0.1029" style="stop-color:#5A5A5A"/>
				<stop  offset="0.1865" style="stop-color:#696968"/>
				<stop  offset="0.2556" style="stop-color:#6E6E6D"/>
				<stop  offset="0.4227" style="stop-color:#4A4A49"/>
				<stop  offset="0.5875" style="stop-color:#2D2D2D"/>
				<stop  offset="0.7308" style="stop-color:#1C1C1C"/>
				<stop  offset="0.8367" style="stop-color:#161616"/>
				<stop  offset="0.8775" style="stop-color:#1C1C1C"/>
				<stop  offset="0.9302" style="stop-color:#2C2C2C"/>
				<stop  offset="0.9893" style="stop-color:#464646"/>
				<stop  offset="1" style="stop-color:#4C4C4C"/>
			</linearGradient>
			<path class="st105" d="M673.1-109.7c0,1.4-1.6,2.8-4.7,4.1c-15.8-6.7-69.8-11.7-134-11.7c-64.2,0-118.2,4.9-134,11.7
				c-3-1.3-4.7-2.7-4.7-4.1c0-8.7,62.1-15.7,138.6-15.7C611-125.5,673.1-118.4,673.1-109.7z"/>
			<linearGradient id="SVGID_5_" gradientUnits="userSpaceOnUse" x1="400.5006" y1="-105.6715" x2="668.4256" y2="-105.6715">
				<stop  offset="0" style="stop-color:#919191"/>
				<stop  offset="1.703954e-002" style="stop-color:#7F7F7F"/>
				<stop  offset="3.740487e-002" style="stop-color:#707070"/>
				<stop  offset="5.420910e-002" style="stop-color:#6B6B6B"/>
				<stop  offset="7.593346e-002" style="stop-color:#757574"/>
				<stop  offset="0.143" style="stop-color:#8D8D8C"/>
				<stop  offset="0.2047" style="stop-color:#9C9C9B"/>
				<stop  offset="0.2556" style="stop-color:#A1A1A0"/>
				<stop  offset="0.3922" style="stop-color:#717171"/>
				<stop  offset="0.5273" style="stop-color:#4A4A49"/>
				<stop  offset="0.6505" style="stop-color:#2D2D2D"/>
				<stop  offset="0.7576" style="stop-color:#1C1C1C"/>
				<stop  offset="0.8367" style="stop-color:#161616"/>
				<stop  offset="0.8669" style="stop-color:#1C1C1C"/>
				<stop  offset="0.9059" style="stop-color:#2C2C2C"/>
				<stop  offset="0.9499" style="stop-color:#474747"/>
				<stop  offset="0.9971" style="stop-color:#6B6B6B"/>
				<stop  offset="1" style="stop-color:#6E6E6E"/>
			</linearGradient>
			<path class="st106" d="M668.4-105.7C652.6-99,598.6-94,534.5-94c-64.2,0-118.2-5-134-11.7c15.8-6.7,69.8-11.7,134-11.7
				C598.6-117.3,652.6-112.4,668.4-105.7z"/>
			<linearGradient id="SVGID_6_" gradientUnits="userSpaceOnUse" x1="395.8323" y1="-101.6097" x2="673.0945" y2="-101.6097">
				<stop  offset="0" style="stop-color:#535353"/>
				<stop  offset="5.550308e-003" style="stop-color:#575757"/>
				<stop  offset="3.221560e-002" style="stop-color:#666666"/>
				<stop  offset="5.420910e-002" style="stop-color:#6B6B6B"/>
				<stop  offset="0.1436" style="stop-color:#747473"/>
				<stop  offset="0.2556" style="stop-color:#797978"/>
				<stop  offset="0.2861" style="stop-color:#717170"/>
				<stop  offset="0.4526" style="stop-color:#4A4A49"/>
				<stop  offset="0.6054" style="stop-color:#2D2D2D"/>
				<stop  offset="0.7385" style="stop-color:#1C1C1C"/>
				<stop  offset="0.8367" style="stop-color:#161616"/>
				<stop  offset="0.8734" style="stop-color:#1C1C1C"/>
				<stop  offset="0.9209" style="stop-color:#2C2C2C"/>
				<stop  offset="0.9741" style="stop-color:#464646"/>
				<stop  offset="1" style="stop-color:#565656"/>
			</linearGradient>
			<path class="st107" d="M673.1-101.6c0,8.7-62.1,15.7-138.6,15.7c-76.6,0-138.6-7-138.6-15.7c0-1.4,1.6-2.8,4.7-4.1
				c15.8-6.7,69.8-11.7,134-11.7c64.2,0,118.2,4.9,134,11.7C671.5-104.4,673.1-103,673.1-101.6z"/>
			<linearGradient id="SVGID_7_" gradientUnits="userSpaceOnUse" x1="393.0916" y1="-95.6363" x2="678.3261" y2="-95.6363">
				<stop  offset="0" style="stop-color:#919191"/>
				<stop  offset="1.703954e-002" style="stop-color:#7F7F7F"/>
				<stop  offset="3.740487e-002" style="stop-color:#707070"/>
				<stop  offset="5.420910e-002" style="stop-color:#6B6B6B"/>
				<stop  offset="7.593346e-002" style="stop-color:#757574"/>
				<stop  offset="0.143" style="stop-color:#8D8D8C"/>
				<stop  offset="0.2047" style="stop-color:#9C9C9B"/>
				<stop  offset="0.2556" style="stop-color:#A1A1A0"/>
				<stop  offset="0.3922" style="stop-color:#717171"/>
				<stop  offset="0.5273" style="stop-color:#4A4A49"/>
				<stop  offset="0.6505" style="stop-color:#2D2D2D"/>
				<stop  offset="0.7576" style="stop-color:#1C1C1C"/>
				<stop  offset="0.8367" style="stop-color:#161616"/>
				<stop  offset="0.8669" style="stop-color:#1C1C1C"/>
				<stop  offset="0.9059" style="stop-color:#2C2C2C"/>
				<stop  offset="0.9499" style="stop-color:#474747"/>
				<stop  offset="0.9971" style="stop-color:#6B6B6B"/>
				<stop  offset="1" style="stop-color:#6E6E6E"/>
			</linearGradient>
			<path class="st108" d="M678.3-109.7v11.8c0,9-63.9,16.3-142.6,16.3c-78.8,0-142.6-7.3-142.6-16.3v-11.8c0,9,63.9,16.3,142.6,16.3
				C614.5-93.4,678.3-100.7,678.3-109.7z"/>
			<linearGradient id="SVGID_8_" gradientUnits="userSpaceOnUse" x1="393.0916" y1="-109.728" x2="678.3261" y2="-109.728">
				<stop  offset="0" style="stop-color:#A4A4A4"/>
				<stop  offset="1.232480e-002" style="stop-color:#999999"/>
				<stop  offset="3.527615e-002" style="stop-color:#8A8A8A"/>
				<stop  offset="5.420910e-002" style="stop-color:#858585"/>
				<stop  offset="9.123104e-002" style="stop-color:#A5A5A5"/>
				<stop  offset="0.138" style="stop-color:#C7C7C7"/>
				<stop  offset="0.1825" style="stop-color:#E0E0DF"/>
				<stop  offset="0.2232" style="stop-color:#EFEFEE"/>
				<stop  offset="0.2567" style="stop-color:#F4F4F3"/>
				<stop  offset="0.2881" style="stop-color:#E1E1E1"/>
				<stop  offset="0.3999" style="stop-color:#A4A4A4"/>
				<stop  offset="0.5073" style="stop-color:#717171"/>
				<stop  offset="0.6075" style="stop-color:#4A4A4A"/>
				<stop  offset="0.6988" style="stop-color:#2D2D2D"/>
				<stop  offset="0.7782" style="stop-color:#1C1C1C"/>
				<stop  offset="0.8367" style="stop-color:#161616"/>
				<stop  offset="0.8636" style="stop-color:#1C1C1C"/>
				<stop  offset="0.8984" style="stop-color:#2C2C2C"/>
				<stop  offset="0.9376" style="stop-color:#474747"/>
				<stop  offset="0.9797" style="stop-color:#6B6B6B"/>
				<stop  offset="1" style="stop-color:#808080"/>
			</linearGradient>
			<path class="st109" d="M535.7-126.1c-78.8,0-142.6,7.3-142.6,16.3c0,9,63.9,16.3,142.6,16.3c78.8,0,142.6-7.3,142.6-16.3
				C678.3-118.8,614.5-126.1,535.7-126.1z M535.7-97.9c-71.3,0-129.8-5.2-135.3-11.8c-0.3-0.3-0.4-0.7-0.4-1
				c0-7.1,60.8-12.9,135.7-12.9c75,0,135.7,5.8,135.7,12.9c0,0.3-0.1,0.7-0.4,1C665.5-103.1,607-97.9,535.7-97.9z"/>
		</g>
		<g class="st110">
			<linearGradient id="SVGID_9_" gradientUnits="userSpaceOnUse" x1="390.6761" y1="35.7" x2="680.7527" y2="35.7">
				<stop  offset="0" style="stop-color:#535353"/>
				<stop  offset="1.748785e-003" style="stop-color:#505050"/>
				<stop  offset="2.134942e-002" style="stop-color:#383838"/>
				<stop  offset="3.937000e-002" style="stop-color:#292929"/>
				<stop  offset="5.420910e-002" style="stop-color:#242424"/>
				<stop  offset="5.625951e-002" style="stop-color:#252525"/>
				<stop  offset="0.1126" style="stop-color:#474747"/>
				<stop  offset="0.1662" style="stop-color:#60605F"/>
				<stop  offset="0.2152" style="stop-color:#6F6F6E"/>
				<stop  offset="0.2556" style="stop-color:#747473"/>
				<stop  offset="0.2676" style="stop-color:#717170"/>
				<stop  offset="0.4397" style="stop-color:#4A4A49"/>
				<stop  offset="0.5977" style="stop-color:#2D2D2D"/>
				<stop  offset="0.7352" style="stop-color:#1C1C1C"/>
				<stop  offset="0.8367" style="stop-color:#161616"/>
				<stop  offset="0.8909" style="stop-color:#1C1C1C"/>
				<stop  offset="0.9609" style="stop-color:#2C2C2C"/>
				<stop  offset="1" style="stop-color:#383838"/>
			</linearGradient>
			<path class="st111" d="M680.8,27.8c0,5.4-5.3,11.7-44.7,16.8c-26.8,3.5-62.5,7.5-100.4,7.5c-37.9,0-73.5-4-100.4-7.5
				c-39.4-5.1-44.7-11.4-44.7-16.8c0-0.9,0.1-1.8,0.6-2.7c0.8-1.9,2.8-3.9,7.1-5.8v8.5h0.3c1.9,1.5,9.9,5.9,41.4,9.7
				c26.1,3.2,60,4.9,95.7,4.9c35.6,0,69.6-1.7,95.7-4.9c31.5-3.8,39.5-8.3,41.4-9.7h0.3v-8.5c4.3,1.9,6.2,3.9,7.1,5.8
				C680.6,26,680.8,26.9,680.8,27.8z"/>
			<linearGradient id="SVGID_10_" gradientUnits="userSpaceOnUse" x1="390.8672" y1="35.3568" x2="680.5615" y2="35.3568">
				<stop  offset="0" style="stop-color:#585858"/>
				<stop  offset="1.915300e-002" style="stop-color:#424242"/>
				<stop  offset="3.836067e-002" style="stop-color:#333333"/>
				<stop  offset="5.420910e-002" style="stop-color:#2E2E2E"/>
				<stop  offset="0.1025" style="stop-color:#494948"/>
				<stop  offset="0.1597" style="stop-color:#616160"/>
				<stop  offset="0.2123" style="stop-color:#70706F"/>
				<stop  offset="0.2556" style="stop-color:#757574"/>
				<stop  offset="0.4077" style="stop-color:#565655"/>
				<stop  offset="0.578" style="stop-color:#393939"/>
				<stop  offset="0.7268" style="stop-color:#282828"/>
				<stop  offset="0.8367" style="stop-color:#222222"/>
				<stop  offset="0.8952" style="stop-color:#282828"/>
				<stop  offset="0.9709" style="stop-color:#383838"/>
				<stop  offset="1" style="stop-color:#404040"/>
			</linearGradient>
			<path class="st112" d="M391.2,25.1c0.8-1.9,2.8-3.9,7.1-5.8c0,0-0.3,7.9,0.2,8.4c0,0,0.3,0,0.3,0c2.1,1.7,10.5,6.2,41.2,10
				c25.5,3.1,59,4.9,95.7,4.9c35.6,0,69.5-1.9,95.5-5.1c0.6-0.1,1.2-0.1,1.8-0.2c29.2-3.7,37.3-8,39.5-9.7c0,0,0.3,0,0.3,0
				c0.5-0.4,0.3-8.2,0.3-8.2c0,0,0-0.1,0-0.1c4.2,1.9,6.2,3.9,7.1,5.8c0.3,0.9,0.4,1.8,0.3,2.6C680.1,33,674.2,39,636.1,44
				c-26.8,3.5-62.5,7.4-100.4,7.4c-37.9,0-73.5-3.9-100.4-7.4c-38.1-5-44-11-44.5-16.3C390.8,26.9,390.9,26,391.2,25.1z"/>
			<linearGradient id="SVGID_11_" gradientUnits="userSpaceOnUse" x1="391.0168" y1="35.0133" x2="680.4117" y2="35.0133">
				<stop  offset="0" style="stop-color:#5D5D5D"/>
				<stop  offset="1.644675e-002" style="stop-color:#4C4C4C"/>
				<stop  offset="3.713747e-002" style="stop-color:#3D3D3D"/>
				<stop  offset="5.420910e-002" style="stop-color:#383838"/>
				<stop  offset="9.144465e-002" style="stop-color:#4B4B4A"/>
				<stop  offset="0.1528" style="stop-color:#636362"/>
				<stop  offset="0.2091" style="stop-color:#727271"/>
				<stop  offset="0.2556" style="stop-color:#777776"/>
				<stop  offset="0.3712" style="stop-color:#626261"/>
				<stop  offset="0.5559" style="stop-color:#454545"/>
				<stop  offset="0.7174" style="stop-color:#343434"/>
				<stop  offset="0.8367" style="stop-color:#2E2E2E"/>
				<stop  offset="0.9006" style="stop-color:#343434"/>
				<stop  offset="0.9832" style="stop-color:#444444"/>
				<stop  offset="1" style="stop-color:#484848"/>
			</linearGradient>
			<path class="st113" d="M391.2,25.1c0.8-1.9,2.8-3.9,7.1-5.8c0,0-0.6,7.4,0.4,8.3c0,0,0.3,0,0.3,0c2.4,2,11,6.5,41.1,10.2
				c24.9,3.1,58,4.9,95.6,5c35.5,0.1,69.3-2,95.3-5.2c0.6-0.1,1.2-0.2,1.8-0.2c28.5-3.7,36.9-8,39.3-9.9c0,0,0.3,0,0.3-0.1
				c1.1-0.9,0.7-8,0.7-8c0,0,0-0.1,0-0.1c4.2,1.9,6.2,3.9,7.1,5.8c0.3,0.9,0.3,1.7,0.1,2.6c-0.8,5.1-7.4,10.9-44.2,15.7
				c-26.8,3.5-62.5,7.3-100.4,7.3c-37.9,0-73.5-3.8-100.4-7.3c-36.9-4.8-43.4-10.6-44.2-15.7C391,26.8,391,26,391.2,25.1z"/>
			<linearGradient id="SVGID_12_" gradientUnits="userSpaceOnUse" x1="391.1287" y1="34.6673" x2="680.2996" y2="34.6673">
				<stop  offset="0" style="stop-color:#626262"/>
				<stop  offset="1.232480e-002" style="stop-color:#575757"/>
				<stop  offset="3.527615e-002" style="stop-color:#484848"/>
				<stop  offset="5.420910e-002" style="stop-color:#434343"/>
				<stop  offset="7.393478e-002" style="stop-color:#4C4C4B"/>
				<stop  offset="0.1418" style="stop-color:#646463"/>
				<stop  offset="0.2042" style="stop-color:#737372"/>
				<stop  offset="0.2556" style="stop-color:#787877"/>
				<stop  offset="0.3253" style="stop-color:#6D6D6C"/>
				<stop  offset="0.5283" style="stop-color:#505050"/>
				<stop  offset="0.7057" style="stop-color:#3F3F3F"/>
				<stop  offset="0.8367" style="stop-color:#393939"/>
				<stop  offset="0.9057" style="stop-color:#3F3F3F"/>
				<stop  offset="0.9947" style="stop-color:#4F4F4F"/>
				<stop  offset="1" style="stop-color:#505050"/>
			</linearGradient>
			<path class="st114" d="M391.2,25.1c0.8-1.9,2.8-3.9,7.1-5.8c0,0-1,6.8,0.5,8.2c0,0,0.3,0,0.3,0.1c2.7,2.3,11.6,6.8,40.9,10.5
				c24.2,3.1,57,4.9,95.6,5c35.4,0.1,69.1-2.1,95.1-5.4c0.6-0.1,1.2-0.2,1.8-0.2c27.7-3.6,36.4-7.9,39.2-10.1c0,0,0.3-0.1,0.3-0.1
				c1.6-1.3,1-7.9,1-7.9c0,0,0-0.1,0-0.1c4.2,1.9,6.2,3.9,7.1,5.8c0.2,0.8,0.1,1.7-0.1,2.5c-1.3,5-8.4,10.6-44,15.2
				c-26.8,3.5-62.5,7.2-100.4,7.2c-37.9,0-73.5-3.7-100.4-7.2c-35.6-4.6-42.8-10.2-44-15.2C391.1,26.8,391.1,25.9,391.2,25.1z"/>
			<linearGradient id="SVGID_13_" gradientUnits="userSpaceOnUse" x1="391.2032" y1="34.3213" x2="680.225" y2="34.3213">
				<stop  offset="0" style="stop-color:#676767"/>
				<stop  offset="7.778597e-003" style="stop-color:#616161"/>
				<stop  offset="3.322129e-002" style="stop-color:#525252"/>
				<stop  offset="5.420910e-002" style="stop-color:#4D4D4D"/>
				<stop  offset="0.1287" style="stop-color:#656565"/>
				<stop  offset="0.1983" style="stop-color:#747474"/>
				<stop  offset="0.2556" style="stop-color:#797979"/>
				<stop  offset="0.2586" style="stop-color:#797979"/>
				<stop  offset="0.4881" style="stop-color:#5C5C5C"/>
				<stop  offset="0.6886" style="stop-color:#4B4B4B"/>
				<stop  offset="0.8367" style="stop-color:#454545"/>
				<stop  offset="0.9143" style="stop-color:#4B4B4B"/>
				<stop  offset="1" style="stop-color:#585858"/>
			</linearGradient>
			<path class="st115" d="M391.2,25.1c0.8-1.9,2.8-3.9,7.1-5.8c0,0-1.3,6.2,0.7,8c0,0,0.2,0.1,0.3,0.1c3,2.5,12.2,7.1,40.8,10.7
				c23.6,3,56,4.9,95.6,5.1c35.3,0.1,69-2.2,94.9-5.6c0.6-0.1,1.2-0.2,1.8-0.2c26.9-3.6,35.9-7.9,39.1-10.2c0,0,0.3-0.1,0.3-0.1
				c2.2-1.7,1.3-7.7,1.3-7.7c0,0,0-0.1,0-0.1c4.2,1.9,6.2,3.9,7,5.8c0.1,0.8,0,1.6-0.3,2.4c-1.7,4.8-9.4,10.2-43.8,14.7
				c-26.8,3.5-62.5,7.1-100.4,7.1c-37.9,0-73.5-3.7-100.4-7.1c-34.4-4.5-42.1-9.8-43.8-14.7C391.3,26.7,391.1,25.9,391.2,25.1z"/>
			<linearGradient id="SVGID_14_" gradientUnits="userSpaceOnUse" x1="391.2376" y1="33.9753" x2="680.1906" y2="33.9753">
				<stop  offset="0" style="stop-color:#6C6C6C"/>
				<stop  offset="1.591453e-003" style="stop-color:#6B6B6B"/>
				<stop  offset="3.042667e-002" style="stop-color:#5C5C5C"/>
				<stop  offset="5.420910e-002" style="stop-color:#575757"/>
				<stop  offset="0.113" style="stop-color:#676767"/>
				<stop  offset="0.1911" style="stop-color:#767675"/>
				<stop  offset="0.2556" style="stop-color:#7B7B7A"/>
				<stop  offset="0.4378" style="stop-color:#686868"/>
				<stop  offset="0.667" style="stop-color:#575757"/>
				<stop  offset="0.8367" style="stop-color:#515151"/>
				<stop  offset="0.9264" style="stop-color:#575757"/>
				<stop  offset="1" style="stop-color:#606060"/>
			</linearGradient>
			<path class="st116" d="M391.2,25.1c0.8-1.9,2.8-3.9,7.1-5.8c0,0-1.6,5.6,0.9,7.9c0,0,0.2,0.1,0.3,0.1c3.2,2.8,12.7,7.3,40.7,11
				c23,3,55,5,95.6,5.2c35.2,0.2,68.8-2.3,94.7-5.8c0.6-0.1,1.2-0.2,1.8-0.2c26.2-3.5,35.5-7.8,38.9-10.4c0.1,0,0.3-0.1,0.3-0.1
				c2.7-2.2,1.7-7.5,1.7-7.5c0,0,0-0.1,0.1,0c4.2,1.9,6.2,3.9,7,5.8c0,0.8-0.2,1.6-0.5,2.3c-2.1,4.7-10.4,9.8-43.6,14.1
				c-26.8,3.5-62.5,7.1-100.4,7.1c-37.9,0-73.5-3.6-100.4-7.1c-33.2-4.3-41.5-9.5-43.6-14.1C391.4,26.7,391.2,25.9,391.2,25.1z"/>
			<linearGradient id="SVGID_15_" gradientUnits="userSpaceOnUse" x1="391.2393" y1="33.6293" x2="680.1889" y2="33.6293">
				<stop  offset="0" style="stop-color:#717171"/>
				<stop  offset="2.633377e-002" style="stop-color:#666666"/>
				<stop  offset="5.420910e-002" style="stop-color:#616161"/>
				<stop  offset="8.687848e-002" style="stop-color:#686868"/>
				<stop  offset="0.1793" style="stop-color:#777777"/>
				<stop  offset="0.2556" style="stop-color:#7C7C7C"/>
				<stop  offset="0.3524" style="stop-color:#747474"/>
				<stop  offset="0.6307" style="stop-color:#636363"/>
				<stop  offset="0.8367" style="stop-color:#5D5D5D"/>
				<stop  offset="0.9453" style="stop-color:#636363"/>
				<stop  offset="1" style="stop-color:#686868"/>
			</linearGradient>
			<path class="st117" d="M391.2,25.1c0.8-1.9,2.8-3.9,7.1-5.8c0,0-1.9,5,1.1,7.8c0,0,0.2,0.1,0.3,0.1c3.5,3.1,13.3,7.6,40.5,11.2
				c22.4,3,54,5,95.6,5.2c35.1,0.2,68.6-2.5,94.5-5.9c0.6-0.1,1.2-0.2,1.8-0.2c25.4-3.5,35-7.7,38.8-10.6c0.1-0.1,0.2-0.1,0.3-0.2
				c3.3-2.6,2-7.4,2-7.4c0,0,0,0,0.1,0c4.2,1.9,6.2,3.9,7,5.8c-0.1,0.8-0.3,1.5-0.7,2.3c-2.5,4.5-11.4,9.5-43.4,13.6
				c-26.8,3.5-62.5,7-100.4,7c-37.9,0-73.5-3.5-100.4-7c-31.9-4.2-40.8-9.1-43.4-13.6C391.5,26.6,391.3,25.9,391.2,25.1z"/>
			<linearGradient id="SVGID_16_" gradientUnits="userSpaceOnUse" x1="391.2393" y1="33.2833" x2="680.1889" y2="33.2833">
				<stop  offset="0" style="stop-color:#767676"/>
				<stop  offset="1.750005e-002" style="stop-color:#717171"/>
				<stop  offset="5.420910e-002" style="stop-color:#6C6C6C"/>
				<stop  offset="0.1556" style="stop-color:#787878"/>
				<stop  offset="0.2556" style="stop-color:#7D7D7D"/>
				<stop  offset="0.5725" style="stop-color:#6E6E6E"/>
				<stop  offset="0.8367" style="stop-color:#686868"/>
				<stop  offset="0.9688" style="stop-color:#6E6E6E"/>
				<stop  offset="1" style="stop-color:#707070"/>
			</linearGradient>
			<path class="st118" d="M391.2,25.1c0.8-1.9,2.8-3.9,7.1-5.8c0,0-2.2,4.4,1.2,7.7c0.1,0.1,0.2,0.1,0.2,0.2
				c3.8,3.3,13.9,7.9,40.4,11.5c21.8,2.9,53,5,95.5,5.3c35,0.2,68.5-2.6,94.3-6.1c0.6-0.1,1.2-0.2,1.8-0.2
				c24.6-3.4,34.6-7.7,38.7-10.8c0.1-0.1,0.2-0.1,0.3-0.2c3.8-3,2.4-7.2,2.4-7.2c0,0,0.1,0,0.1,0c4.2,1.9,6.2,3.9,7,5.8
				c-0.1,0.7-0.5,1.5-0.9,2.2c-3,4.4-12.5,9.1-43.2,13.1c-26.8,3.5-62.5,6.9-100.4,6.9c-37.9,0-73.5-3.4-100.4-6.9
				c-30.7-4-40.2-8.7-43.2-13.1C391.7,26.6,391.4,25.8,391.2,25.1z"/>
			<linearGradient id="SVGID_17_" gradientUnits="userSpaceOnUse" x1="391.2393" y1="32.9373" x2="680.1889" y2="32.9373">
				<stop  offset="0" style="stop-color:#7B7B7B"/>
				<stop  offset="5.420910e-002" style="stop-color:#767676"/>
				<stop  offset="0.1105" style="stop-color:#7A7A7A"/>
				<stop  offset="0.2556" style="stop-color:#7F7F7F"/>
				<stop  offset="0.4377" style="stop-color:#7A7A7A"/>
				<stop  offset="0.8367" style="stop-color:#747474"/>
				<stop  offset="1" style="stop-color:#787878"/>
			</linearGradient>
			<path class="st119" d="M391.2,25.1c0.8-1.9,2.8-3.9,7.1-5.8c0,0-2.5,3.8,1.4,7.5c0.1,0.1,0.2,0.1,0.2,0.2
				c4,3.6,14.4,8.2,40.2,11.7c21.2,2.9,52,5,95.5,5.3c34.9,0.2,68.3-2.7,94.1-6.3c0.6-0.1,1.2-0.2,1.8-0.2
				c23.8-3.4,34.1-7.6,38.5-11c0.1-0.1,0.2-0.1,0.3-0.2c4.4-3.4,2.7-7.1,2.7-7.1c0,0,0.1,0,0.1,0c4.2,1.9,6.2,3.9,7,5.8
				c-0.2,0.7-0.6,1.4-1.2,2.1c-3.4,4.3-13.5,8.7-42.9,12.6c-26.8,3.5-62.5,6.8-100.4,6.8c-37.9,0-73.5-3.3-100.4-6.8
				c-29.5-3.8-39.6-8.3-43-12.6C391.8,26.5,391.5,25.8,391.2,25.1z"/>
			<path class="st120" d="M680.2,25.1c-2.1,4.7-11.2,9.8-44.1,14.1c-26.8,3.5-62.5,6.7-100.4,6.7c-37.9,0-73.5-3.2-100.4-6.7
				c-32.9-4.3-42-9.3-44.1-14.1c0.8-1.9,2.8-3.9,7.1-5.8c0,0-20.8,23.7,137.4,25c35.6,0.3,69.7-3,95.7-6.7
				c48.8-7,41.7-18.3,41.7-18.3C677.4,21.2,679.3,23.2,680.2,25.1z"/>
		</g>
		<g class="st110">
			<linearGradient id="SVGID_18_" gradientUnits="userSpaceOnUse" x1="390.6761" y1="163.1748" x2="680.7527" y2="163.1748">
				<stop  offset="0" style="stop-color:#1F1F1F"/>
				<stop  offset="1.237262e-002" style="stop-color:#222222"/>
				<stop  offset="5.420910e-002" style="stop-color:#272727"/>
				<stop  offset="0.1153" style="stop-color:#383837"/>
				<stop  offset="0.1921" style="stop-color:#474745"/>
				<stop  offset="0.2556" style="stop-color:#4C4C4A"/>
				<stop  offset="0.2724" style="stop-color:#4A4A48"/>
				<stop  offset="0.4964" style="stop-color:#2D2D2C"/>
				<stop  offset="0.6921" style="stop-color:#1C1C1C"/>
				<stop  offset="0.8367" style="stop-color:#161616"/>
				<stop  offset="1" style="stop-color:#161616"/>
			</linearGradient>
			<path class="st121" d="M680.8,154.5c0,5.6-4.6,13.8-44.5,20.5c-26.9,4.5-62.6,7-100.5,7c-37.9,0-73.6-2.5-100.5-7
				c-39.9-6.7-44.5-14.9-44.5-20.5c0-0.8,0.1-1.7,0.4-2.6c0.7-2.3,2.6-4.8,7.3-7.4v9.9c-0.1,0.1-0.1,0.2-0.1,0.2
				c0,0.1,1.6,6.9,38.2,13c26.5,4.4,61.7,6.9,99.2,6.9c37.5,0,72.8-2.4,99.2-6.9c36.6-6.1,38.2-12.9,38.2-13v-10
				c4.6,2.6,6.5,5.2,7.2,7.4C680.7,152.8,680.8,153.7,680.8,154.5z"/>
			<linearGradient id="SVGID_19_" gradientUnits="userSpaceOnUse" x1="391.1674" y1="163.4365" x2="680.2638" y2="163.4365">
				<stop  offset="0" style="stop-color:#292929"/>
				<stop  offset="8.970034e-003" style="stop-color:#2B2B2B"/>
				<stop  offset="5.420910e-002" style="stop-color:#303030"/>
				<stop  offset="0.1056" style="stop-color:#3D3D3C"/>
				<stop  offset="0.1878" style="stop-color:#4C4C4A"/>
				<stop  offset="0.2556" style="stop-color:#51514F"/>
				<stop  offset="0.4698" style="stop-color:#383837"/>
				<stop  offset="0.6808" style="stop-color:#272727"/>
				<stop  offset="0.8367" style="stop-color:#212121"/>
				<stop  offset="1" style="stop-color:#212121"/>
			</linearGradient>
			<path class="st122" d="M391.9,151.1c0.4-1.2,1.1-1.9,2.4-3.2c0,0,0.1,0,0.1-0.1c0,0,0.1-0.1,0.1-0.1c1-0.9,2.2-1.3,3.9-2.2
				c0,0,0,0.2,0,0.2c0,0,0.1,8.9,0.8,9.2c0,0.1,0,0.1,0,0.2c0.6,0.3,2.9,5.9,31.3,11.3c2.1,0.4,4.4,0.8,6.8,1.2
				c26.4,4.4,61.3,6.8,98.5,6.8c37.2,0,72.2-2.4,98.5-6.8c2.4-0.4,4.7-0.8,6.8-1.2c28.3-5.4,30.7-11,31.3-11.3
				c0.8-0.3,0.8-9.4,0.8-9.4c4.1,2.3,5.8,3.5,6.4,5.5c0.4,0.9,0.5,1.7,0.6,2.4c0.3,1.9,0,4-1.8,6.2c-4,4.7-14.6,10-42.1,14.6
				c-26.9,4.5-62.6,7-100.5,7c-37.9,0-73.6-2.5-100.5-7c-27.5-4.6-38.1-9.9-42.1-14.6c-1.9-2.2-2.1-4.4-1.8-6.3
				C391.4,152.8,391.5,151.9,391.9,151.1z"/>
			<linearGradient id="SVGID_20_" gradientUnits="userSpaceOnUse" x1="391.5064" y1="163.6982" x2="679.9261" y2="163.6982">
				<stop  offset="0" style="stop-color:#323232"/>
				<stop  offset="8.970034e-003" style="stop-color:#343434"/>
				<stop  offset="5.420910e-002" style="stop-color:#393939"/>
				<stop  offset="9.043853e-002" style="stop-color:#414141"/>
				<stop  offset="0.1809" style="stop-color:#50504F"/>
				<stop  offset="0.2556" style="stop-color:#555554"/>
				<stop  offset="0.4378" style="stop-color:#424242"/>
				<stop  offset="0.667" style="stop-color:#313131"/>
				<stop  offset="0.8367" style="stop-color:#2B2B2B"/>
				<stop  offset="1" style="stop-color:#2B2B2B"/>
			</linearGradient>
			<path class="st123" d="M392.7,150.2c0.3-1,1-1.1,2.1-2.2c0,0,0,0,0.1,0c0,0,0.1,0,0.1,0c0.8-0.8,1.9-0.5,3.4-1.3c0,0,0,0.2,0,0.2
				c0,0,0.1,8,1.6,8.7c0,0.1,0,0.1,0,0.1c1.2,0.6,4.4,5.8,31.2,10.9c2.1,0.4,4.4,0.8,6.8,1.2c26.3,4.3,61,6.7,97.8,6.7
				c36.9,0,71.5-2.4,97.8-6.7c2.4-0.4,4.7-0.8,6.8-1.2c26.8-5.1,30-10.3,31.2-10.9c1.5-0.7,1.6-8.9,1.6-8.9c3.6,2,5,1.8,5.6,3.6
				c0.4,0.8,0.6,1.6,0.8,2.3c0.5,1.9,0.5,4-1,6.2c-3.7,4.8-14.1,10.3-42.4,15c-26.9,4.5-62.6,7-100.5,7c-37.9,0-73.6-2.5-100.5-7
				c-28.3-4.7-38.6-10.2-42.4-15c-1.6-2.2-1.5-4.3-1-6.2C392,151.9,392.2,151.1,392.7,150.2z"/>
			<linearGradient id="SVGID_21_" gradientUnits="userSpaceOnUse" x1="391.7179" y1="163.96" x2="679.7155" y2="163.96">
				<stop  offset="0" style="stop-color:#3C3C3C"/>
				<stop  offset="5.420910e-002" style="stop-color:#414141"/>
				<stop  offset="7.910162e-002" style="stop-color:#464646"/>
				<stop  offset="0.1758" style="stop-color:#555554"/>
				<stop  offset="0.2556" style="stop-color:#5A5A59"/>
				<stop  offset="0.3964" style="stop-color:#4D4D4D"/>
				<stop  offset="0.6494" style="stop-color:#3C3C3C"/>
				<stop  offset="0.8367" style="stop-color:#363636"/>
				<stop  offset="1" style="stop-color:#363636"/>
			</linearGradient>
			<path class="st124" d="M393.5,149.4c0.3-0.9,0.8-0.2,1.8-1.2c0,0,0,0,0.1,0c0,0,0.1,0,0.1,0c0.7-0.7,1.7,0.2,2.9-0.4
				c0,0,0,0.2,0,0.2c0,0,0.2,7.2,2.4,8.2c0,0.1,0,0.1,0,0.1c1.6,1.1,5.9,5.7,31.2,10.4c2.1,0.4,4.4,0.8,6.7,1.2
				c26.2,4.2,60.6,6.5,97.1,6.5c36.5,0,70.9-2.3,97.1-6.5c2.4-0.4,4.6-0.8,6.7-1.2c25.3-4.7,29.3-9.6,31.1-10.4
				c2.3-1,2.5-8.4,2.5-8.4c3.1,1.7,4.3,0.1,4.8,1.6c0.5,0.8,0.8,1.5,1.1,2.2c0.8,2,1.1,4-0.2,6.1c-3.4,4.8-13.5,10.5-42.6,15.4
				c-26.9,4.5-62.6,7-100.5,7c-37.9,0-73.6-2.5-100.5-7c-29.1-4.9-39.2-10.6-42.6-15.4c-1.2-2.1-1-4.2-0.2-6.2
				C392.7,151,393,150.2,393.5,149.4z"/>
			<linearGradient id="SVGID_22_" gradientUnits="userSpaceOnUse" x1="391.8216" y1="163.9438" x2="679.612" y2="163.9438">
				<stop  offset="0" style="stop-color:#464646"/>
				<stop  offset="5.420910e-002" style="stop-color:#4A4A4A"/>
				<stop  offset="6.012015e-002" style="stop-color:#4B4B4B"/>
				<stop  offset="0.1672" style="stop-color:#5A5A59"/>
				<stop  offset="0.2556" style="stop-color:#5F5F5E"/>
				<stop  offset="0.3422" style="stop-color:#585858"/>
				<stop  offset="0.6263" style="stop-color:#474747"/>
				<stop  offset="0.8367" style="stop-color:#414141"/>
				<stop  offset="1" style="stop-color:#414141"/>
			</linearGradient>
			<path class="st125" d="M394.3,148.6c0.2-0.7,0.7,0.6,1.5-0.2c0,0,0,0,0,0c0,0,0,0,0.1,0c0.6-0.6,1.4,1,2.4,0.4c0,0,0,0.2,0,0.2
				c0,0,0.2,6.3,3.2,7.6c0,0.1,0,0.1,0,0.1c2.3,1.3,7.3,5.6,31.1,10c2.1,0.4,4.3,0.8,6.7,1.1c26.1,4.2,60.2,6.4,96.4,6.4
				c36.2,0,70.3-2.3,96.4-6.4c2.3-0.4,4.6-0.8,6.7-1.1c23.7-4.4,28.7-8.9,31.1-10c3.1-1.3,3.3-7.8,3.3-7.8c2.5,1.5,3.6-1.6,4-0.3
				c0.6,0.7,0.9,1.5,1.3,2.1c1.1,2,1.6,4,0.7,6.1c-3.1,4.9-12.9,10.8-42.9,15.8c-26.9,4.5-62.6,7-100.5,7c-37.9,0-73.6-2.5-100.5-7
				c-30-5-39.7-10.9-42.9-15.8c-0.9-2.1-0.5-4.1,0.7-6.1C393.4,150.1,393.7,149.3,394.3,148.6z"/>
			<linearGradient id="SVGID_23_" gradientUnits="userSpaceOnUse" x1="391.8304" y1="163.3373" x2="679.6022" y2="163.3373">
				<stop  offset="0" style="stop-color:#4F4F4F"/>
				<stop  offset="5.420910e-002" style="stop-color:#535353"/>
				<stop  offset="0.152" style="stop-color:#5E5E5D"/>
				<stop  offset="0.2556" style="stop-color:#636362"/>
				<stop  offset="0.2664" style="stop-color:#626261"/>
				<stop  offset="0.5941" style="stop-color:#515151"/>
				<stop  offset="0.8367" style="stop-color:#4B4B4B"/>
				<stop  offset="1" style="stop-color:#4B4B4B"/>
			</linearGradient>
			<path class="st126" d="M395.1,147.8c0.2-0.6,0.5,1.4,1.2,0.8c0,0,0,0.1,0,0c0,0,0,0,0.1,0c0.5-0.4,1.1,1.8,1.9,1.3
				c0,0.1,0,0.2,0,0.2c0,0,0.3,5.5,4,7.1c0,0.1,0,0.1,0,0.1c2.9,1.5,8.8,5.5,31,9.6c2.1,0.4,4.3,0.7,6.6,1.1
				c26,4.1,59.8,6.3,95.7,6.3c35.9,0,69.7-2.2,95.7-6.3c2.3-0.4,4.5-0.7,6.6-1.1c22.2-4.1,28-8.2,31-9.6c3.8-1.6,4.1-7.3,4.1-7.3
				c2,1.2,2.9-3.3,3.2-2.2c0.6,0.7,1.1,1.4,1.5,2c1.5,2.1,2.1,4,1.5,6.1c-2.9,5-12.3,11.1-43.1,16.2c-26.9,4.5-62.6,7-100.5,7
				c-37.9,0-73.6-2.5-100.5-7c-30.8-5.2-40.3-11.2-43.1-16.2c-0.6-2,0-4,1.5-6.1C394,149.1,394.5,148.4,395.1,147.8z"/>
			<linearGradient id="SVGID_24_" gradientUnits="userSpaceOnUse" x1="391.748" y1="162.6758" x2="679.6823" y2="162.6758">
				<stop  offset="0" style="stop-color:#595959"/>
				<stop  offset="5.420910e-002" style="stop-color:#5C5C5C"/>
				<stop  offset="0.133" style="stop-color:#636362"/>
				<stop  offset="0.2556" style="stop-color:#686867"/>
				<stop  offset="0.5454" style="stop-color:#5C5C5C"/>
				<stop  offset="0.8367" style="stop-color:#565656"/>
				<stop  offset="1" style="stop-color:#565656"/>
			</linearGradient>
			<path class="st127" d="M395.9,146.9c0.1-0.4,0.4,2.2,0.9,1.8c0,0.1,0,0.1,0,0.1c0,0,0,0,0.1,0.1c0.4-0.3,0.8,2.5,1.4,2.2
				c0,0.1,0,0.2,0,0.2c0,0,0.3,4.7,4.8,6.6c0,0,0,0.1,0.1,0.1c3.5,1.7,10.3,5.4,31,9.1c2.1,0.4,4.3,0.7,6.6,1.1
				c25.9,4,59.4,6.2,95,6.2c35.6,0,69.1-2.2,95-6.2c2.3-0.4,4.5-0.7,6.6-1.1c20.7-3.7,27.4-7.6,31-9.1c4.6-2,4.9-6.7,4.9-6.8
				c1.5,0.9,2.2-4.9,2.4-4.2c0.7,0.6,1.2,1.3,1.7,1.9c1.8,2.1,2.6,4,2.3,6c-2.6,5.1-11.8,11.4-43.4,16.6c-26.9,4.5-62.6,7-100.5,7
				c-37.9,0-73.6-2.5-100.5-7c-31.6-5.3-40.8-11.6-43.4-16.6c-0.3-2,0.5-3.9,2.3-6C394.7,148.2,395.2,147.6,395.9,146.9z"/>
			<linearGradient id="SVGID_25_" gradientUnits="userSpaceOnUse" x1="391.5644" y1="161.9918" x2="679.8608" y2="161.9918">
				<stop  offset="0" style="stop-color:#636363"/>
				<stop  offset="5.420910e-002" style="stop-color:#646464"/>
				<stop  offset="0.1105" style="stop-color:#686867"/>
				<stop  offset="0.2556" style="stop-color:#6D6D6C"/>
				<stop  offset="0.4593" style="stop-color:#676767"/>
				<stop  offset="0.8367" style="stop-color:#616161"/>
				<stop  offset="1" style="stop-color:#616161"/>
			</linearGradient>
			<path class="st128" d="M396.7,146.1c0.1-0.3,0.3,3.1,0.6,2.7c0,0.1,0,0.1,0,0.1s0,0,0.1,0.1c0.2-0.2,0.6,3.3,1,3.1
				c0,0.1-0.1,0.2-0.1,0.2c0,0,0.4,3.8,5.6,6.1c0,0,0,0.1,0.1,0.1c4.1,1.9,11.8,5.3,30.9,8.7c2.1,0.4,4.3,0.7,6.5,1.1
				c25.8,3.9,59,6.1,94.3,6.1c35.2,0,68.4-2.1,94.2-6.1c2.3-0.3,4.4-0.7,6.5-1.1c19.1-3.4,26.7-6.9,30.9-8.7
				c5.4-2.3,5.8-6.2,5.8-6.2c1,0.6,1.4-6.6,1.6-6.1c0.8,0.6,1.4,1.2,2,1.8c2.2,2.1,3.2,4.1,3.1,6c-2.3,5.2-11.2,11.6-43.6,17.1
				c-26.9,4.5-62.6,7-100.5,7c-37.9,0-73.6-2.5-100.5-7c-32.5-5.4-41.4-11.9-43.6-17.1c0-1.9,1-3.9,3.2-6
				C395.3,147.3,395.9,146.7,396.7,146.1z"/>
			<linearGradient id="SVGID_26_" gradientUnits="userSpaceOnUse" x1="391.3101" y1="161.2996" x2="680.1111" y2="161.2996">
				<stop  offset="0" style="stop-color:#6C6C6C"/>
				<stop  offset="5.420910e-002" style="stop-color:#6D6D6D"/>
				<stop  offset="0.2556" style="stop-color:#717171"/>
				<stop  offset="0.8367" style="stop-color:#6B6B6B"/>
				<stop  offset="1" style="stop-color:#6B6B6B"/>
			</linearGradient>
			<path class="st129" d="M397.5,145.3c0-0.1,0.1,3.9,0.3,3.7c0,0.1,0,0.1,0,0.1c0,0,0,0,0.1,0.1c0.1-0.1,0.3,4.1,0.5,3.9
				c0,0.1-0.1,0.2-0.1,0.2c0,0,0.5,3,6.5,5.6c0,0,0.1,0,0.1,0.1c4.8,2.1,13.2,5.2,30.9,8.3c2.1,0.4,4.2,0.7,6.5,1
				c25.7,3.9,58.7,6,93.5,6c34.9,0,67.8-2.1,93.5-6c2.2-0.3,4.4-0.7,6.5-1c17.6-3,26-6.2,30.9-8.3c6.1-2.6,6.6-5.7,6.6-5.7
				c0.5,0.3,0.7-8.3,0.8-8.1c0.8,0.6,1.5,1.1,2.2,1.6c2.5,2.1,3.7,4.1,4,5.9c-2,5.3-10.6,11.9-43.9,17.5c-26.9,4.5-62.6,7-100.5,7
				c-37.9,0-73.6-2.5-100.5-7c-33.3-5.6-41.9-12.2-43.9-17.5c0.3-1.9,1.5-3.9,4-5.9C395.9,146.4,396.7,145.8,397.5,145.3z"/>
			<path class="st130" d="M680.4,151.9c-1.7,5.3-10,12.2-44.1,17.9c-26.9,4.5-62.6,7-100.5,7c-37.9,0-73.6-2.5-100.5-7
				c-34.2-5.7-42.5-12.6-44.1-17.9c0.7-2.3,2.6-4.8,7.3-7.4v4.7c-0.1,0.1-0.1,0.2-0.1,0.2c0,0,0,0.1,0.1,0.2v4.8
				c-0.1,0.1-0.1,0.2-0.1,0.2c0,0.1,1.6,6.9,38.2,13c26.5,4.4,61.7,6.9,99.2,6.9c37.5,0,72.8-2.4,99.2-6.9
				c36.6-6.1,38.2-12.9,38.2-13v-10C677.8,147.1,679.7,149.6,680.4,151.9z"/>
		</g>
		<g class="st131">
			<g>
				<path class="st132" d="M542.3,176.6c0.1,1.7-49.5,5-86.6,0.2c-14.5-1-50.9-11.2-49.8-14c0.6-1.7,37.7,8.5,52.1,9.8
					C472,176,541.9,174.8,542.3,176.6z"/>
			</g>
			<g>
				<path class="st133" d="M534.7,176.3c0.1,1.6-45.2,4.5-79,0.1c-13.6-1-46.6-10.2-45.6-12.8c0.6-1.5,34.2,7.6,47.7,8.7
					C471,175.6,534.4,174.6,534.7,176.3z"/>
			</g>
			<g>
				<path class="st134" d="M527.1,176c0.1,1.4-40.9,4-71.3,0.1c-12.8-1-42.3-9.2-41.3-11.5c0.5-1.4,30.6,6.6,43.3,7.7
					C470.1,175.2,526.8,174.5,527.1,176z"/>
			</g>
			<g>
				<path class="st135" d="M519.5,175.7c0.1,1.3-36.6,3.6-63.7,0c-12-1-37.9-8.2-37.1-10.2c0.5-1.3,27.1,5.6,38.9,6.7
					C469.2,174.8,519.2,174.3,519.5,175.7z"/>
			</g>
			<g>
				<path class="st136" d="M511.9,175.4c0.1,1.2-32.4,3.1-56.1,0c-11.1-0.9-33.6-7.2-32.9-9c0.4-1.1,23.6,4.6,34.6,5.6
					C468.2,174.4,511.7,174.2,511.9,175.4z"/>
			</g>
			<g>
				<path class="st137" d="M504.3,175c0.1,1.1-28.1,2.7-48.4-0.1c-10.3-0.9-29.3-6.2-28.7-7.7c0.4-1,20.1,3.6,30.2,4.6
					C467.3,174,504.1,174,504.3,175z"/>
			</g>
			<g>
				<path class="st138" d="M496.7,174.7c0.1,0.9-23.8,2.2-40.8-0.1c-9.5-0.9-25-5.2-24.5-6.5c0.3-0.9,16.5,2.7,25.8,3.6
					C466.4,173.6,496.5,173.9,496.7,174.7z"/>
			</g>
			<g>
				<path class="st139" d="M489.1,174.4c0.1,0.8-19.5,1.7-33.2-0.2c-8.6-0.9-20.7-4.2-20.3-5.2c0.3-0.7,13,1.7,21.5,2.5
					C465.4,173.1,489,173.7,489.1,174.4z"/>
			</g>
			<g>
				<path class="st140" d="M481.5,174.1c0,0.7-15.3,1.2-25.6-0.2c-7.8-0.8-16.4-3.2-16.1-3.9c0.2-0.6,9.5,0.7,17.1,1.5
					C464.5,172.7,481.4,173.6,481.5,174.1z"/>
			</g>
			<g>
				<path class="st0" d="M474,173.8c0,0.6-11,0.8-18-0.3c-7-0.8-12.1-2.2-12-2.7c0.1-0.5,6-0.3,12.8,0.5
					C463.6,172.3,473.9,173.4,474,173.8z"/>
			</g>
		</g>
		<g class="st131">
			<g>
				<path class="st132" d="M544.1,44.2c0.1,1.3-49,4.5-86,0.7c-14.4-0.6-51.1-8.8-50.2-10.9c0.5-1,38,7.2,52.3,7.9
					C474.2,45,543.8,43.3,544.1,44.2z"/>
			</g>
			<g>
				<path class="st133" d="M536.6,43.8c0.1,1.2-44.8,4.1-78.4,0.7c-13.5-0.6-46.7-8-46-9.9c0.4-0.9,34.4,6.4,47.9,7.1
					C473.2,44.5,536.3,43.1,536.6,43.8z"/>
			</g>
			<g>
				<path class="st134" d="M529,43.5c0.1,1.1-40.5,3.7-70.8,0.6c-12.7-0.6-42.4-7.3-41.7-8.9c0.4-0.9,30.8,5.6,43.5,6.3
					C472.3,44,528.7,42.8,529,43.5z"/>
			</g>
			<g>
				<path class="st135" d="M521.5,43.2c0.1,1-36.3,3.3-63.2,0.5c-11.9-0.6-38.1-6.5-37.5-8c0.3-0.8,27.3,4.8,39.1,5.5
					C471.4,43.6,521.2,42.6,521.5,43.2z"/>
			</g>
			<g>
				<path class="st136" d="M513.9,42.9c0.1,0.9-32.1,2.9-55.6,0.5c-11.1-0.6-33.7-5.7-33.2-7c0.3-0.7,23.7,4,34.7,4.7
					C470.5,43.1,513.7,42.3,513.9,42.9z"/>
			</g>
			<g>
				<path class="st137" d="M506.4,42.6c0.1,0.8-27.8,2.6-48.1,0.4c-10.2-0.6-29.4-4.9-29-6c0.3-0.6,20.1,3.2,30.3,3.9
					C469.6,42.6,506.2,42.1,506.4,42.6z"/>
			</g>
			<g>
				<path class="st138" d="M498.8,42.3c0.1,0.7-23.6,2.2-40.5,0.4c-9.4-0.6-25.1-4.2-24.7-5c0.2-0.6,16.5,2.4,25.9,3
					C468.6,42.2,498.7,41.8,498.8,42.3z"/>
			</g>
			<g>
				<path class="st139" d="M491.3,42c0.1,0.6-19.3,1.8-32.9,0.3c-8.6-0.6-20.7-3.4-20.5-4.1c0.2-0.5,13,1.6,21.5,2.2
					C467.7,41.7,491.2,41.6,491.3,42z"/>
			</g>
			<g>
				<path class="st140" d="M483.7,41.7c0,0.5-15.1,1.4-25.3,0.3c-7.8-0.6-16.4-2.6-16.2-3.1c0.1-0.4,9.4,0.8,17.1,1.4
					C466.8,41.2,483.6,41.3,483.7,41.7z"/>
			</g>
			<g>
				<path class="st0" d="M476.2,41.3c0,0.4-10.9,1-17.8,0.2c-6.9-0.6-12.1-1.8-12-2.1c0.1-0.3,5.9,0.1,12.7,0.6
					C465.9,40.7,476.2,41.1,476.2,41.3z"/>
			</g>
		</g>
		<path class="st141" d="M565.5-56H515c-5.8,0-10.6,4.7-10.6,10.6V5c0,5.8,4.7,10.6,10.6,10.6h50.5c5.8,0,10.6-4.7,10.6-10.6v-50.5
			C576-51.3,571.3-56,565.5-56z M540.5,2c-7.9,0-14.3-6.4-14.3-14.3c0-8,3.8-11.7,7.4-16.8c3.9-5.4,7.8-11,7.8-11
			c0,7.6,6.4,14.1,10.2,18.7c2,2.5,3.2,5.6,3.2,9.1C554.8-4.4,548.4,2,540.5,2z"/>
		<linearGradient id="SVGID_27_" gradientUnits="userSpaceOnUse" x1="504.4599" y1="-20.2354" x2="576.0381" y2="-20.2354">
			<stop  offset="0" style="stop-color:#767676"/>
			<stop  offset="6.174816e-002" style="stop-color:#828282"/>
			<stop  offset="0.1679" style="stop-color:#919190"/>
			<stop  offset="0.2556" style="stop-color:#969695"/>
			<stop  offset="0.3913" style="stop-color:#717170"/>
			<stop  offset="0.5599" style="stop-color:#4A4A49"/>
			<stop  offset="0.7147" style="stop-color:#2D2D2D"/>
			<stop  offset="0.8495" style="stop-color:#1C1C1C"/>
			<stop  offset="0.949" style="stop-color:#161616"/>
		</linearGradient>
		<path class="st142" d="M576,5c0,5.8-4.7,10.6-10.6,10.6H515c-5.8,0-10.6-4.7-10.6-10.6v-50.5c0-5.8,4.7-10.6,10.6-10.6h50.5
			c5.8,0,10.6,4.7,10.6,10.6V5z"/>
		<path class="st141" d="M548.7-19c0,0,2.4,2.9,2.5,6.4c0.1,3.5-2.4,5.8-3.4,4.2"/>
	</g>
</g>
<g id="Layer_3">
</g>
</svg>
