<?xml version="1.0" encoding="utf-8"?>
<!-- Generator: Adobe Illustrator 19.2.1, SVG Export Plug-In . SVG Version: 6.00 Build 0)  -->
<svg version="1.1" id="Layer_1" xmlns="http://www.w3.org/2000/svg" xmlns:xlink="http://www.w3.org/1999/xlink" x="0px" y="0px"
	 viewBox="0 0 640 480" style="enable-background:new 0 0 640 480;" xml:space="preserve">
<style type="text/css">
	.st0{fill:none;}
	.st1{fill:#EC1C24;}
</style>
<path class="st0" d="M347.1,199.7c0.5-5.4-0.1-10.5-5.6-12.3c-6.8-2.4-15.2,2-21.6,11.7c-9.6,14.8-10.1,32.9-9,44.4
	C317.5,240.7,343.9,220.1,347.1,199.7z"/>
<path class="st0" d="M244.9,318.1c0,25.3,21,30.2,33.6,29c13.7-1.3,28.2-8.7,31.9-11c-12.4-16.4-23.9-40-29.2-61
	C268.4,280.7,244.9,296.5,244.9,318.1z"/>
<path class="st0" d="M182.2,135c-0.4,0-12,0-12,0l-37.3,118.8c0,0,50.6,13.8,73.5-53.3C228.1,136.6,194.3,135,182.2,135z"/>
<path class="st1" d="M276,475v-23c-36.2-23-67.8-52-93-89.5c-41.5-79.6-52.5-158.9,3.2-238.5c104-117.4,176.6-71.8,244.6-3.2
	c44.8,64,46.9,128.1,30,192.1c-18.8,63.8-50.9,110.4-95.9,139.1c0,8.8,0,13.9,0,22.8c59.5,0,132.6,0,192.1,0l31.4-71.8
	c-2.9-16.3-10.2-14.2-24.7-13.7l-23.6,32.7c-18.8,0-37.5,0-56.3,0c16.6-24.1,33.2-48.5,49.6-72.9c22.8-59,31.6-120.6,9.9-188.6
	C497.6,12,310.5-27.7,191.3,31C118.1,66.6,65.1,137.6,67,233.3c2.1,71.8,37,137.2,87.4,188.6c-11.3,0-32.2,0-43.1,0l-39.7-32.2
	c-11.3-3.8-19.6,1.3-21.7,13.9l41,71.3C152.7,475,214.3,475,276,475z"/>
</svg>
