<?xml version="1.0" encoding="utf-8"?>
<!-- Generator: Adobe Illustrator 22.1.0, SVG Export Plug-In . SVG Version: 6.00 Build 0)  -->
<svg version="1.1" xmlns="http://www.w3.org/2000/svg" xmlns:xlink="http://www.w3.org/1999/xlink" x="0px" y="0px"
	 viewBox="0 0 640 480" style="enable-background:new 0 0 640 480;" xml:space="preserve">
<style type="text/css">
	.st0{fill:#1A53F0;}
	.st1{fill:#FFFFFF;}
</style>
<g id="Layer_2_1_">
	<circle class="st0" cx="320" cy="240" r="240"/>
	<path class="st1" d="M240.8,245c-41,0-74.2,33.3-74.2,74.4s33.2,74.4,74.2,74.4s74.2-33.3,74.2-74.4S281.8,245,240.8,245L240.8,245
		z M240.8,371.3c-28.6,0-51.7-23.2-51.7-51.9s23.2-51.9,51.7-51.9s51.7,23.2,51.7,51.9C292.5,348,269.4,371.2,240.8,371.3
		L240.8,371.3z M399.3,86.2c-41,0-74.2,33.3-74.2,74.4s33.2,74.4,74.2,74.4s74.2-33.3,74.2-74.4S440.3,86.2,399.3,86.2L399.3,86.2z
		 M399.3,212.5c-28.6,0-51.7-23.2-51.7-51.9s23.2-51.9,51.7-51.9c28.6,0,51.7,23.2,51.7,51.9C451,189.3,427.8,212.5,399.3,212.5
		L399.3,212.5z M240.8,86.2c-35.3,0-65.8,24.9-72.8,59.7c-7,34.7,11.3,69.6,43.9,83.4c37.9,15.9,81.5-1.9,97.4-39.8
		c11.6-27.5,5.5-59.3-15.3-80.7h21V86.2H240.8z M292.5,160.6c0,28.7-23.2,51.9-51.7,51.9s-51.7-23.2-51.7-51.9s23.2-51.9,51.7-51.9
		S292.5,132,292.5,160.6L292.5,160.6L292.5,160.6z"/>
</g>
<g id="Layer_3">
</g>
</svg>
