<?xml version="1.0" encoding="utf-8"?>
<!-- Generator: Adobe Illustrator 22.1.0, SVG Export Plug-In . SVG Version: 6.00 Build 0)  -->
<svg version="1.1" id="Layer_2_1_" xmlns="http://www.w3.org/2000/svg" xmlns:xlink="http://www.w3.org/1999/xlink" x="0px" y="0px"
	 viewBox="0 0 640 480" style="enable-background:new 0 0 640 480;" xml:space="preserve">
<style type="text/css">
	.st0{fill:#1734AD;}
	.st1{fill:#35343F;}
</style>
<g>
	<g>
		<path class="st0" d="M49.7,153.8c12.9,0,24.1,4.9,33.6,14.7c9.5,9.8,14.2,22.1,14.2,36.8c0,15.2-4.8,27.7-14.3,37.7
			s-21.1,15-34.7,15c-13.7,0-25.2-4.9-34.6-14.6S0,221,0,205.5c0-15.8,5.4-28.7,16.2-38.7C25.5,158.2,36.7,153.8,49.7,153.8z
			 M48.3,159.2c-8.9,0-16.1,3.3-21.5,9.9c-6.7,8.2-10,20.3-10,36.1c0,16.2,3.5,28.8,10.5,37.6c5.3,6.6,12.4,10,21.1,10
			c9.4,0,17.1-3.6,23.2-10.9c6.1-7.3,9.2-18.8,9.2-34.5c0-17.1-3.4-29.8-10-38.1C65.3,162.5,57.8,159.2,48.3,159.2z"/>
		<path class="st0" d="M164.9,255.7l-38.5-83.8v66.6c0,6.1,0.6,9.9,2,11.5c1.8,2.1,4.7,3.1,8.6,3.1h3.5v2.7h-34.7V253h3.5
			c4.2,0,7.2-1.3,9-3.8c1.1-1.6,1.6-5.1,1.6-10.7v-65.1c0-4.4-0.5-7.6-1.5-9.6c-0.7-1.4-1.9-2.6-3.8-3.6c-1.8-1-4.8-1.4-8.9-1.4
			v-2.7H134l36.1,77.9l35.6-77.9H234v2.7h-3.4c-4.3,0-7.3,1.3-9,3.8c-1.1,1.6-1.6,5.1-1.6,10.7v65.1c0,6.1,0.7,9.9,2.1,11.5
			c1.8,2.1,4.7,3.1,8.6,3.1h3.4v2.7h-42.3V253h3.5c4.3,0,7.3-1.3,9-3.8c1.1-1.6,1.6-5.1,1.6-10.7v-66.6l-38.4,83.8L164.9,255.7
			L164.9,255.7z"/>
		<path class="st0" d="M298.6,200.5l21.4,31.9c5.9,8.8,10.3,14.4,13.2,16.7c2.9,2.3,6.5,3.6,10.9,3.8v2.7h-42.8V253
			c2.8,0,4.9-0.3,6.3-0.9c1-0.4,1.9-1.1,2.6-2c0.6-0.9,1-1.8,1-2.8c0-1.1-0.2-2.3-0.6-3.4c-0.3-0.9-1.7-3-4.1-6.5l-16.9-25.6
			l-20.9,26.7c-2.2,2.8-3.5,4.7-4,5.7c-0.4,1-0.6,1.9-0.6,3c0,1.6,0.6,2.9,2,3.9c1.3,1,3.8,1.6,7.6,1.8v2.7h-35.3V253
			c2.5-0.2,4.7-0.8,6.5-1.5c3-1.3,5.9-3,8.7-5.1c2.8-2.1,5.9-5.5,9.4-9.9l23.5-29.7L266.7,178c-5.3-7.8-9.9-12.9-13.6-15.3
			c-3.7-2.4-8-3.7-12.8-3.8v-2.7h46.1v2.7c-3.9,0.2-6.6,0.8-8.1,1.9c-1.5,1.1-2.2,2.4-2.2,3.8c0,1.8,1.2,4.5,3.5,7.9l15.3,22.8
			l17.7-22.4c2.1-2.6,3.3-4.5,3.8-5.4c0.4-1,0.7-2,0.7-3s-0.3-1.9-0.9-2.7c-0.7-1-1.7-1.7-2.8-2.2c-1.1-0.4-3.4-0.6-7-0.7v-2.7h35.3
			v2.7c-2.8,0.2-5.1,0.6-6.8,1.3c-2.6,1.1-5.1,2.6-7.3,4.5c-2.2,1.9-5.3,5.4-9.3,10.6L298.6,200.5z"/>
		<path class="st0" d="M414.8,153.8v34.5h-2.7c-0.9-6.6-2.5-11.9-4.7-15.8s-5.5-7-9.7-9.3c-4.2-2.3-8.6-3.4-13.1-3.4
			c-5.1,0-9.3,1.5-12.6,4.7c-3.3,3.1-5,6.6-5,10.6c0,3,1.1,5.8,3.2,8.3c3,3.7,10.2,8.6,21.7,14.7c9.3,5,15.7,8.8,19.1,11.5
			c3.4,2.7,6,5.8,7.9,9.4s2.8,7.4,2.8,11.4c0,7.5-2.9,14.1-8.8,19.5c-5.8,5.5-13.4,8.2-22.6,8.2c-2.9,0-5.6-0.2-8.1-0.6
			c-1.5-0.2-4.7-1.1-9.4-2.7c-4.8-1.5-7.8-2.3-9.1-2.3c-1.2,0-2.2,0.4-2.9,1.1s-1.3,2.3-1.6,4.5h-2.7v-34.2h2.7
			c1.3,7.2,3,12.5,5.1,16c2.1,3.6,5.4,6.5,9.9,8.9c4.4,2.3,9.3,3.5,14.6,3.5c6.1,0,11-1.6,14.5-4.9c3.6-3.2,5.3-7,5.3-11.5
			c0-2.4-0.7-4.9-2-7.4c-1.3-2.5-3.4-4.8-6.3-7c-1.9-1.5-7.1-4.6-15.6-9.4c-8.5-4.8-14.6-8.6-18.2-11.4c-3.6-2.8-6.3-6-8.2-9.4
			s-2.8-7.2-2.8-11.3c0-7.2,2.8-13.3,8.2-18.5c5.5-5.2,12.5-7.7,20.9-7.7c5.3,0,10.9,1.3,16.8,3.9c2.8,1.2,4.7,1.8,5.8,1.8
			c1.3,0,2.3-0.4,3.1-1.1s1.5-2.3,1.9-4.6L414.8,153.8L414.8,153.8z"/>
	</g>
	<g>
		<path class="st1" d="M210.6,324v1.4h-22.2V324h1.8c2.1,0,3.7-0.6,4.7-1.9c0.6-0.8,0.9-2.8,0.9-5.9v-33.4c0-2.6-0.2-4.3-0.5-5.2
			c-0.2-0.6-0.8-1.2-1.6-1.6c-1.1-0.6-2.3-0.9-3.5-0.9h-1.8v-1.4h22.2v1.4h-1.9c-2.1,0-3.6,0.6-4.6,1.9c-0.6,0.8-1,2.8-1,5.9v33.4
			c0,2.6,0.2,4.3,0.5,5.2c0.2,0.6,0.8,1.2,1.6,1.6c1.1,0.6,2.3,0.9,3.5,0.9L210.6,324L210.6,324z"/>
		<path class="st1" d="M211.5,273.6h14l31.6,38.8v-29.8c0-3.2-0.4-5.1-1.1-6c-0.9-1.1-2.4-1.6-4.5-1.6h-1.8v-1.4h18v1.4H266
			c-2.2,0-3.7,0.6-4.7,2c-0.6,0.8-0.9,2.7-0.9,5.5v43.6h-1.4L225,284.6v31.8c0,3.2,0.3,5.1,1,6c1,1.1,2.5,1.6,4.5,1.6h1.8v1.4h-18
			V324h1.8c2.2,0,3.8-0.6,4.7-2c0.6-0.8,0.9-2.7,0.9-5.5v-36c-1.5-1.7-2.6-2.9-3.4-3.5c-0.8-0.6-1.9-1.1-3.4-1.6
			c-0.7-0.2-1.9-0.3-3.4-0.3L211.5,273.6L211.5,273.6z"/>
		<path class="st1" d="M270.2,325.4V324h1.9c2.2,0,3.7-0.7,4.7-2.1c0.6-0.9,0.9-2.7,0.9-5.6v-33.4c0-3.2-0.4-5.3-1.1-6.1
			c-1-1.1-2.5-1.7-4.4-1.7h-1.9v-1.4h21.1c7.7,0,13.6,0.9,17.7,2.6c4,1.7,7.3,4.7,9.7,8.8c2.5,4.1,3.7,8.8,3.7,14.2
			c0,7.2-2.2,13.2-6.6,18c-4.9,5.4-12.4,8.1-22.4,8.1H270.2z M285,321.6c3.2,0.7,6,1.1,8.1,1.1c5.9,0,10.8-2.1,14.7-6.2
			c3.9-4.1,5.8-9.8,5.8-16.9c0-7.1-1.9-12.8-5.8-16.9c-3.9-4.1-8.9-6.2-15-6.2c-2.3,0-4.9,0.4-7.8,1.1L285,321.6L285,321.6z"/>
		<path class="st1" d="M341.7,276.5v20.5H353c3,0,4.9-0.4,5.9-1.3c1.3-1.2,2.1-3.2,2.2-6.2h1.4v18h-1.4c-0.4-2.5-0.7-4.1-1.1-4.9
			c-0.4-0.9-1.2-1.6-2.3-2.1c-1.1-0.5-2.6-0.8-4.8-0.8h-11.4v17.1c0,2.3,0.1,3.7,0.3,4.2s0.6,0.9,1.1,1.2c0.5,0.3,1.5,0.4,2.9,0.4
			h8.8c2.9,0,5.1-0.2,6.4-0.6c1.3-0.4,2.6-1.2,3.8-2.4c1.6-1.6,3.2-4,4.9-7.1h1.5l-4.5,13H327v-1.4h1.8c1.2,0,2.4-0.3,3.5-0.9
			c0.8-0.4,1.4-1,1.7-1.8c0.3-0.8,0.4-2.5,0.4-5v-33.6c0-3.3-0.3-5.3-1-6.1c-0.9-1-2.4-1.5-4.6-1.5H327v-1.3h39.9l0.6,11.3H366
			c-0.5-2.7-1.1-4.6-1.8-5.6s-1.6-1.8-2.9-2.3c-1-0.4-2.8-0.6-5.4-0.6L341.7,276.5L341.7,276.5z"/>
		<path class="st1" d="M404.9,296.7l11.1,16.6c3.1,4.6,5.3,7.5,6.8,8.7c1.5,1.2,3.4,1.9,5.7,2v1.4h-22.2V324c1.5,0,2.6-0.2,3.3-0.4
			c0.5-0.2,1-0.6,1.3-1.1c0.3-0.5,0.5-0.9,0.5-1.4c0-0.6-0.1-1.2-0.3-1.7c-0.2-0.4-0.9-1.5-2.1-3.4l-8.8-13.3l-10.8,13.9
			c-1.1,1.5-1.8,2.5-2.1,3s-0.3,1-0.3,1.5c0,0.8,0.3,1.5,1,2s2,0.9,3.9,0.9v1.4h-18.4V324c1.3-0.1,2.4-0.4,3.4-0.8
			c1.6-0.6,3.1-1.5,4.5-2.7s3-2.8,4.9-5.1l12.2-15.4l-10.2-14.9c-2.8-4.1-5.1-6.7-7-7.9c-1.9-1.3-4.2-1.9-6.7-2v-1.5h23.9v1.4
			c-2,0.1-3.4,0.4-4.2,1c-0.8,0.6-1.1,1.2-1.1,1.9c0,0.9,0.6,2.3,1.8,4.1L403,294l9.2-11.6c1.1-1.4,1.7-2.3,1.9-2.8s0.4-1,0.4-1.6
			s-0.2-1-0.4-1.4c-0.4-0.5-0.9-0.9-1.5-1.1c-0.6-0.2-1.8-0.3-3.6-0.4v-1.4h18.4v1.4c-1.5,0.1-2.6,0.3-3.6,0.7
			c-1.4,0.6-2.6,1.4-3.8,2.3s-2.8,2.8-4.9,5.5L404.9,296.7z"/>
	</g>
	<g>
		<path class="st0" d="M438.6,189.9c4.6-10.9,10.5-19.3,17.5-25.2c7-5.9,15.8-8.9,26.3-8.9c13,0,22.9,4.2,29.9,12.6
			c5.3,6.3,7.9,13,7.9,20.2c0,11.8-7.4,23.9-22.2,36.5c9.9,3.9,17.5,9.5,22.6,16.7c5.1,7.3,7.7,15.8,7.7,25.5
			c0,14-4.5,26.1-13.4,36.4c-11.6,13.4-28.4,20.1-50.5,20.1c-10.9,0-18.3-1.3-22.2-4.1c-3.9-2.7-5.9-5.6-5.9-8.7
			c0-2.3,0.9-4.3,2.8-6.1c1.9-1.7,4.1-2.6,6.7-2.6c2,0,4,0.3,6.1,1c1.3,0.4,4.4,1.9,9.2,4.4c4.8,2.5,8.1,4,9.9,4.5
			c3,0.9,6.1,1.3,9.4,1.3c8.1,0,15.2-3.2,21.2-9.4s9-13.7,9-22.3c0-6.3-1.4-12.4-4.2-18.4c-2.1-4.5-4.3-7.8-6.8-10.1
			c-3.4-3.2-8.1-6.1-14.1-8.7c-6-2.6-12.1-3.9-18.3-3.9h-3.8V237c6.3-0.8,12.6-3.1,18.9-6.8c6.3-3.7,10.9-8.2,13.8-13.5
			c2.9-5.3,4.3-11,4.3-17.3c0-8.2-2.6-14.8-7.7-19.9c-5.1-5.1-11.5-7.6-19.2-7.6c-12.3,0-22.6,6.6-30.9,19.8L438.6,189.9z"/>
		<path class="st0" d="M535.3,241c0-18.5,2.8-34.4,8.3-47.7c5.5-13.3,13-23.3,22.2-29.8c7.2-5.2,14.5-7.7,22.2-7.7
			c12.4,0,23.5,6.3,33.4,19c12.3,15.7,18.5,36.9,18.5,63.7c0,18.8-2.7,34.7-8.1,47.8c-5.4,13.1-12.3,22.6-20.7,28.6
			c-8.4,5.9-16.5,8.9-24.3,8.9c-15.4,0-28.3-9.1-38.6-27.3C539.7,281.1,535.3,262.6,535.3,241z M558.7,243.9
			c0,22.3,2.8,40.5,8.2,54.5c4.5,11.9,11.3,17.8,20.3,17.8c4.3,0,8.7-1.9,13.4-5.8c4.6-3.8,8.1-10.3,10.5-19.4
			c3.6-13.7,5.5-33,5.5-57.9c0-18.5-1.9-33.9-5.7-46.2c-2.9-9.2-6.6-15.6-11.1-19.4c-3.3-2.6-7.2-3.9-11.8-3.9
			c-5.4,0-10.2,2.4-14.4,7.3c-5.7,6.6-9.6,17-11.7,31.2C559.8,216.2,558.7,230.2,558.7,243.9z"/>
	</g>
</g>
</svg>
