<?xml version="1.0" encoding="utf-8"?>
<!-- Generator: Adobe Illustrator 22.1.0, SVG Export Plug-In . SVG Version: 6.00 Build 0)  -->
<svg version="1.1" id="Layer_2_1_" xmlns="http://www.w3.org/2000/svg" xmlns:xlink="http://www.w3.org/1999/xlink" x="0px" y="0px"
	 viewBox="0 0 640 480" style="enable-background:new 0 0 640 480;" xml:space="preserve">
<style type="text/css">
	.st0{fill:#D3D4DA;}
	.st1{fill:#E52F31;}
</style>
<g>
	<path id="XMLID_180_" class="st0" d="M266.3,252.2H307l-21.5-34.7l-39.7,62.8h-18.2l48.2-75.5c2.1-3.1,5.7-4.9,9.3-4.9
		c3.9,0,7.3,1.8,9.3,4.7l48.2,75.5h-18.2l-8.6-14h-41.2L266.3,252.2"/>
	<path id="XMLID_179_" class="st0" d="M453.5,266.2v-65.6h-15.3v71.8c0,2.1,0.8,3.9,2.3,5.2c1.6,1.6,3.4,2.3,5.7,2.3H516l9.1-14
		h-71.6"/>
	<path id="XMLID_178_" class="st0" d="M200.5,254.3c14.8,0,27-11.9,27-27c0-14.8-11.9-27-27-27h-66.9v79.6h15.3v-65.3h50.6
		c7,0,13,5.7,13,13c0,7-5.7,13-13,13h-43l45.6,39.7h22.3l-30.6-25.7h6.7"/>
	<path class="st0" d="M39.7,280.2c-22,0-39.7-17.9-39.7-39.7c0-22,17.9-39.7,39.7-39.7h46.2c22,0,39.7,17.9,39.7,39.7
		c0,22-17.6,39.7-39.7,39.7H39.7 M84.8,266.2c14.3,0,25.7-11.4,25.7-25.7c0-14.3-11.4-25.7-25.7-25.7H40.7
		c-14.3,0-25.7,11.4-25.7,25.7c0,14.3,11.4,25.7,25.7,25.7H84.8"/>
	<path id="XMLID_175_" class="st0" d="M375.2,280.2c-22,0-39.9-17.9-39.9-39.7c0-22,17.9-39.7,39.9-39.7h55l-9.1,14h-44.9
		c-14.3,0-25.7,11.4-25.7,25.7c0,14.3,11.4,25.7,25.7,25.7h55l-9.1,14H375.2"/>
	<path id="XMLID_174_" class="st0" d="M562.2,266.2c-11.7,0-21.8-7.8-24.6-18.7h65.3l9.1-14h-74.4c3.1-10.9,13-18.7,24.6-18.7h44.9
		l9.1-14h-54.7c-22,0-39.7,17.9-39.7,39.7c0,22,17.9,39.7,39.7,39.7h47.2l9.1-14L562.2,266.2"/>
	<path class="st0" d="M624.2,209.1c0-3.9,3.1-7,7-7s7,3.1,7,7s-3.1,7-7,7C627.3,216.1,624.2,213,624.2,209.1 M631.2,218
		c4.9,0,8.8-3.9,8.8-8.8c0-4.9-3.9-9.1-8.8-9.1s-8.8,4.1-8.8,9.1C622.4,214.1,626.3,218,631.2,218 M630.4,204c1.3,0,1.8,0,2.6,0.3
		c1.8,0.5,1.8,2.3,1.8,2.9v0.8c0,0.5-0.3,1.3-1.3,1.8l-0.5,0.3l2.3,4.1H633l-2.1-3.9h-1.3v3.9h-2.1V204L630.4,204 M631.2,208.4
		l1.6-0.5l0.3-0.8l-0.8-1.3c-0.5-0.3-0.8-0.3-1.8-0.3h-0.5v2.9H631.2"/>
	<path id="XMLID_169_" class="st1" d="M266.3,252.2H307l-21.5-34.7l-39.7,62.8h-18.2l48.2-75.5c2.1-3.1,5.7-4.9,9.3-4.9
		c3.9,0,7.3,1.8,9.3,4.7l48.2,75.5h-18.2l-8.6-14h-41.2L266.3,252.2"/>
	<path id="XMLID_168_" class="st1" d="M453.5,266.2v-65.6h-15.3v71.8c0,2.1,0.8,3.9,2.3,5.2c1.6,1.6,3.4,2.3,5.7,2.3H516l9.1-14
		h-71.6"/>
	<path id="XMLID_167_" class="st1" d="M200.5,254.3c14.8,0,27-11.9,27-27c0-14.8-11.9-27-27-27h-66.9v79.6h15.3v-65.3h50.6
		c7,0,13,5.7,13,13c0,7-5.7,13-13,13h-43l45.6,39.7h22.3l-30.6-25.7h6.7"/>
	<path class="st1" d="M39.7,280.2c-22,0-39.7-17.9-39.7-39.7c0-22,17.9-39.7,39.7-39.7h46.2c22,0,39.7,17.9,39.7,39.7
		c0,22-17.6,39.7-39.7,39.7H39.7 M84.8,266.2c14.3,0,25.7-11.4,25.7-25.7c0-14.3-11.4-25.7-25.7-25.7H40.7
		c-14.3,0-25.7,11.4-25.7,25.7c0,14.3,11.4,25.7,25.7,25.7H84.8"/>
	<path id="XMLID_164_" class="st1" d="M375.2,280.2c-22,0-39.9-17.9-39.9-39.7c0-22,17.9-39.7,39.9-39.7h55l-9.1,14h-44.9
		c-14.3,0-25.7,11.4-25.7,25.7c0,14.3,11.4,25.7,25.7,25.7h55l-9.1,14H375.2"/>
	<path id="XMLID_163_" class="st1" d="M562.2,266.2c-11.7,0-21.8-7.8-24.6-18.7h65.3l9.1-14h-74.4c3.1-10.9,13-18.7,24.6-18.7h44.9
		l9.1-14h-54.7c-22,0-39.7,17.9-39.7,39.7c0,22,17.9,39.7,39.7,39.7h47.2l9.1-14L562.2,266.2"/>
	<path class="st1" d="M624.2,209.1c0-3.9,3.1-7,7-7s7,3.1,7,7s-3.1,7-7,7C627.3,216.1,624.2,213,624.2,209.1 M631.2,218
		c4.9,0,8.8-3.9,8.8-8.8c0-4.9-3.9-9.1-8.8-9.1s-8.8,4.1-8.8,9.1C622.4,214.1,626.3,218,631.2,218 M630.4,204c1.3,0,1.8,0,2.6,0.3
		c1.8,0.5,1.8,2.3,1.8,2.9v0.8c0,0.5-0.3,1.3-1.3,1.8l-0.5,0.3l2.3,4.1H633l-2.1-3.9h-1.3v3.9h-2.1V204L630.4,204 M631.2,208.4
		l1.6-0.5l0.3-0.8l-0.8-1.3c-0.5-0.3-0.8-0.3-1.8-0.3h-0.5v2.9H631.2"/>
</g>
</svg>
