<?xml version="1.0" encoding="utf-8"?>
<!-- Generator: Adobe Illustrator 21.1.0, SVG Export Plug-In . SVG Version: 6.00 Build 0)  -->
<svg version="1.1" id="Layer_1" xmlns="http://www.w3.org/2000/svg" xmlns:xlink="http://www.w3.org/1999/xlink" x="0px" y="0px"
	 viewBox="0 0 640 480" style="enable-background:new 0 0 640 480;" xml:space="preserve">
<style type="text/css">
	.st0{fill:#5E5E5E;}
</style>
<g>
	<polygon class="st0" points="260.2,445.1 440.9,445.1 456.4,247 244.7,247 	"/>
	<path class="st0" d="M355,114.9c0-57.7-46.9-104.6-104.6-104.6c-57.7,0-104.6,46.9-104.6,104.6c0,57.7,46.9,104.6,104.6,104.6
		C308.1,219.5,355,172.6,355,114.9z M192.9,177.1c-1.6-1.5-3.2-3.1-4.7-4.7c-13.3-14.3-21.7-33.3-22.5-54.1c0-1.1-0.1-2.2-0.1-3.3
		c0-1.1,0-2.2,0.1-3.3c0.8-20.9,9.2-39.8,22.5-54.1c1.5-1.6,3.1-3.2,4.7-4.7c14.4-13.3,33.3-21.7,54.1-22.5c1.1,0,2.2-0.1,3.3-0.1
		c1.1,0,2.2,0,3.3,0.1c20.9,0.8,39.8,9.2,54.1,22.5c1.6,1.5,3.2,3.1,4.7,4.7c13.3,14.3,21.7,33.3,22.5,54.1c0,1.1,0.1,2.2,0.1,3.3
		c0,1.1,0,2.2-0.1,3.3c-0.8,20.9-9.2,39.8-22.5,54.1c-1.5,1.6-3.1,3.2-4.7,4.7c-14.3,13.3-33.3,21.7-54.1,22.5
		c-1.1,0-2.2,0.1-3.3,0.1c-1.1,0-2.2,0-3.3-0.1C226.2,198.7,207.3,190.3,192.9,177.1z"/>
	<path class="st0" d="M271.4,111.9h49.1c3.4,0,6.1-3,5.7-6.4c-1.7-14.1-7.3-27-15.6-37.6c-2.1-2.7-6.1-2.9-8.5-0.5l-34.7,34.7
		C263.8,105.8,266.3,111.9,271.4,111.9z"/>
	<path class="st0" d="M320.6,117.9h-49.1c-5.1,0-7.7,6.2-4,9.8l34.7,34.7c2.4,2.4,6.4,2.2,8.5-0.5c8.3-10.6,13.9-23.5,15.6-37.6
		C326.7,120.9,324,117.9,320.6,117.9z"/>
	<path class="st0" d="M263.2,131.9c-3.6-3.6-9.8-1.1-9.8,4v49.1c0,3.4,3,6.1,6.4,5.7c14.1-1.7,27-7.3,37.6-15.6
		c2.7-2.1,2.9-6.1,0.5-8.5L263.2,131.9z"/>
	<path class="st0" d="M237.6,131.9l-34.7,34.7c-2.4,2.4-2.2,6.4,0.5,8.5c10.6,8.3,23.5,13.9,37.6,15.6c3.4,0.4,6.4-2.3,6.4-5.7V136
		C247.4,130.9,241.2,128.3,237.6,131.9z"/>
	<path class="st0" d="M229.3,117.9h-49.1c-3.4,0-6.1,3-5.7,6.4c1.7,14.1,7.3,27,15.6,37.6c2.1,2.7,6.1,2.9,8.5,0.5l34.7-34.7
		C237,124.1,234.4,117.9,229.3,117.9z"/>
	<path class="st0" d="M180.2,111.9h49.1c5.1,0,7.7-6.2,4-9.8l-34.7-34.7c-2.4-2.4-6.4-2.2-8.5,0.5c-8.3,10.6-13.9,23.5-15.6,37.6
		C174.1,108.9,176.8,111.9,180.2,111.9z"/>
	<path class="st0" d="M237.6,97.9c3.6,3.6,9.8,1.1,9.8-4V44.7c0-3.4-3-6.1-6.4-5.7c-14.1,1.7-27,7.3-37.6,15.6
		c-2.7,2.1-2.9,6.1-0.5,8.5L237.6,97.9z"/>
	<path class="st0" d="M263.2,97.9l34.7-34.7c2.4-2.4,2.2-6.4-0.5-8.5c-10.6-8.3-23.5-13.9-37.6-15.6c-3.4-0.4-6.4,2.3-6.4,5.7v49.1
		C253.4,99,259.6,101.5,263.2,97.9z"/>
	<circle class="st0" cx="250.4" cy="114.9" r="8"/>
	<path class="st0" d="M492,74.3c-1.6-1.7-3.7-2.6-6-2.6H354.5c2.2,5.3,4,10.8,5.4,16.4h117.2l-28.7,365.2H252.6l-17.8-226.6
		c-5.7-0.8-11.3-2-16.7-3.6l18.8,239.1c0.3,4.3,3.9,7.6,8.2,7.6h211c4.3,0,7.8-3.3,8.2-7.6l29.9-381.6
		C494.3,78.2,493.6,75.9,492,74.3z"/>
</g>
</svg>
