<?xml version="1.0" encoding="utf-8"?>
<!-- Generator: Adobe Illustrator 22.1.0, SVG Export Plug-In . SVG Version: 6.00 Build 0)  -->
<svg version="1.1" id="Layer_1" xmlns="http://www.w3.org/2000/svg" xmlns:xlink="http://www.w3.org/1999/xlink" x="0px" y="0px"
	 viewBox="0 0 640 480" style="enable-background:new 0 0 640 480;" xml:space="preserve">
<style type="text/css">
	.st0{fill:url(#SVGID_1_);}
</style>
<linearGradient id="SVGID_1_" gradientUnits="userSpaceOnUse" x1="320" y1="1.3903" x2="320" y2="478.6097">
	<stop  offset="0" style="stop-color:#FF373C"/>
	<stop  offset="1" style="stop-color:#FFC72C"/>
</linearGradient>
<path class="st0" d="M573.3,183.3C537.4,74.7,435.2,1.3,320,1.4C204.8,1.3,102.6,74.7,66.7,183.3c-35.8,108.6,2.8,227.8,95.8,295.3
	c93.7-68.2,221.3-68.2,315,0C570.5,411.1,609.1,291.9,573.3,183.3z M416.2,361c-25.6,25.4-60.2,39.6-96.2,39.5l0,0
	c-75-0.1-135.8-60.4-135.8-134.9c0-74.4,60.9-134.8,135.9-134.8c75.1,0,135.9,60.3,136,134.7C456.1,301.4,441.7,335.7,416.2,361z"/>
</svg>
