<?xml version="1.0" encoding="utf-8"?>
<!-- Generator: Adobe Illustrator 22.1.0, SVG Export Plug-In . SVG Version: 6.00 Build 0)  -->
<svg version="1.1" id="Layer_2_1_" xmlns="http://www.w3.org/2000/svg" xmlns:xlink="http://www.w3.org/1999/xlink" x="0px" y="0px"
	 viewBox="0 0 640 480" style="enable-background:new 0 0 640 480;" xml:space="preserve">
<style type="text/css">
	.st0{fill:#1595CF;}
	.st1{fill:#032A61;}
</style>
<g>
	<path class="st0" d="M243.9,386.7c-31.4,22.7-63.4,7.9-98.9,22.2c-14.9,6-13.6,24.2-29.9,24.8c-1.1,0,9.8-10.9,8.7-10.9
		c-23.5-0.2-53.1,25.8-48.4,2.6c5.1-25.4,17.7-47.5,32.6-67.9c54.6-75.1,122.9-134.6,204.4-178.8c18.8-10.2,38.7-18.7,60.1-21.8
		c7.6-1.1-15.1,28.1-7.5,29.1c17.4,2.3,40.3-11.1,36.4,8.7c-3.8,19.4-20.6,18-30.8,34.7c-15.4,25.3-10.6,34-31.3,56.4
		c-6.2-5.2,0.8-6.3-4.8-11.7c-9.1-8.7-20-12.5-28.6-21.7c-7.1-7.6-19.7,14.5-28.2,21.8c0.6,1.2,1.1,2.7,2,3.7
		c30,35.4,64.8,64.6,108.2,82.1c21.2,8.6,43.3,12.9,66.1,8.9c35.1-6.2,58.7-32.6,62.5-67.9c3.9-36.3-5.4-69.7-21.2-101.7
		c-25.5-51.7-62.3-93.7-111.2-124.6c-22.6-14.2-46.9-24.2-73.8-27.5c-52.7-6.4-90.6,26.5-91.8,79.7c-0.5,24,4.6,47,13.1,69.2
		c3.9,10.1,3.4,10.7-4.6,17.5c-21.1,17.7-41.8,35.8-62.7,53.7c-1.5,1.3-2.8,2.7-5.2,4.8c-5-10.9-10-21.1-14.3-31.6
		c-14.9-36.2-24.2-73.7-22.6-113.2C123.6,94,132.5,63.4,155,38c19.6-22,44.7-33.6,73.8-36.8c50.3-5.7,95.7,9.9,137.9,34.9
		c93.6,55.6,158,134.9,190.3,239.2c11.5,37.2,15.2,75.5,5.2,113.7c-13,49.9-44.8,80.8-96.3,89.1c-34.2,5.6-67.2-1.2-99.2-13.5
		c-39.5-15.2-74.5-37.8-106.4-65.4C258.2,397.5,246.1,388.6,243.9,386.7z"/>
	<path class="st1" d="M395.7,156.1c0,0-14.7-10.3-58.9,9.7s-79.8,37.4-151,100.7S57.3,415.7,75.5,445.3
		c18.2,29.5,65.1,13.9,113.7-13c48.6-26.9,60.7-39.9,60.7-39.9s-19.1-17.4-32.1-31.3c-13-13.9-14.9-18.5-14.9-18.5
		s38.2-36.8,53.5-50.5c12.4-11.1,21.2-18.1,21.2-18.1s8.2-8.8,13.9-2.3c0,0,19.3,18.8,30.5,29.8s17.9,15.2,17.9,15.2
		s61.9-72.8,71.4-104.9S413.4,158.6,395.7,156.1z"/>
</g>
</svg>
