<?xml version="1.0" encoding="utf-8"?>
<!-- Generator: Adobe Illustrator 19.2.1, SVG Export Plug-In . SVG Version: 6.00 Build 0)  -->
<svg version="1.1" id="Layer_1" xmlns="http://www.w3.org/2000/svg" xmlns:xlink="http://www.w3.org/1999/xlink" x="0px" y="0px"
	 viewBox="0 0 640 480" style="enable-background:new 0 0 640 480;" xml:space="preserve">
<style type="text/css">
	.st0{fill:#0066A1;}
	.st1{fill:#FFFFFF;}
</style>
<rect x="85" y="5" class="st0" width="470" height="470"/>
<path class="st1" d="M450.8,111.2c-7.6-10.2-16.9-19.5-27.8-26.4c-10.2-6.9-21.8-11.9-33.4-15.2c-13.2-3.6-26.8-5-40.3-5.6
	c-9.6-0.7-18.8-1-28.4-1h-7.6H163.6v355.6H272V308.8h48.9h19.2c12.2-0.3,24.8-0.7,37-2.6c11.9-1.7,23.8-4.6,34.7-9.9
	c10.2-5,19.8-11.6,27.8-19.8c7.9-7.9,14.5-16.9,19.8-26.8c5.6-9.6,9.6-20.2,11.9-31.1c2.3-10.2,3.3-20.8,3-31.4
	c0-13.5-1.7-27.1-6-40.3C464.7,134.3,458.8,122.1,450.8,111.2z M369.2,195.1c-0.7,4.6-1.6,9.3-4,13.2c-2.3,4.6-6,8.6-10.2,11.2
	c-4.3,3-9.9,4.3-15.2,5c-5.3,1-10.2,1-15.2,1h-3.6H272v-75h48.9h1.7c4.6,0,9.3,0.3,13.9,1c4.6,0.7,9.3,1.3,13.2,3.3
	c4.6,2,8.9,4.6,11.9,8.6c3.3,3.6,5.6,8.3,6.6,12.9C369.9,182.6,370.2,188.8,369.2,195.1z"/>
</svg>
