<svg xmlns="http://www.w3.org/2000/svg" viewBox="0 0 640 480"><defs><style>.cls-1{fill:none;}.cls-2{fill:#169bcd;}</style></defs><title>Asset 2</title><g id="Layer_2" data-name="Layer 2"><g id="Layer_8" data-name="Layer 8"><path class="cls-1" d="M280.68,428c-.16-.13-.27.11,0,0Z"/><path class="cls-1" d="M260,335.67c8.63-1.14,14.79-7.88,16.5-17.75q8.75-50.51,17.59-101c1.69-9.71,3.32-19.43,4.81-28.19-.1-8.38-5.49-13.63-12.95-13.56-8.73.07-16.32,7-18,16.65Q256.71,256.42,245.56,321C244,329.81,251.06,336.86,260,335.67Z"/><path class="cls-1" d="M316.3,318.8c8.74-1.88,13.64-8.12,15.56-19.24q12.11-69.9,24.33-139.78c1.95-11.16,3.83-22.33,5.49-32,.14-10.32-7.17-16.23-15.75-14.28A19.51,19.51,0,0,0,331,129.4q-2.26,13.11-4.53,26.23-13,74.25-25.9,148.5C298.94,313.6,306.84,320.83,316.3,318.8Z"/><path class="cls-1" d="M377.21,257.35c8.15-.46,15.47-7,17-15.41q8.89-50.41,17.67-100.84,2.42-13.82,4.78-27.64c1-5.86.47-11.31-5-14.92-5.21-3.47-10.63-2.75-15.91,0-6.81,3.53-9.25,9.72-10.47,16.86-5.42,31.7-11,63.38-16.49,95.07-1.93,11.15-3.79,22.31-5.41,31.89C363.15,252.66,368.52,257.83,377.21,257.35Z"/><path class="cls-1" d="M358.13,468.88a.36.36,0,0,1,0-.26H358C357.94,469,358.33,469.32,358.13,468.88Z"/><path class="cls-1" d="M266.32,447.59a12.42,12.42,0,0,0,2.81-.24A5.08,5.08,0,0,0,266.32,447.59Z"/><path class="cls-1" d="M165.9,404.4c-5.92.15-9.62,3.38-10.64,9.55a48.59,48.59,0,0,0,0,15.69c1,6.29,4.57,9.65,10.39,9.82,6.85.2,10.45-2.54,11.79-9.29.5-2.56.53-5.22.79-8.05a81.58,81.58,0,0,0-.81-8.62C176.13,407.12,172.33,404.25,165.9,404.4Z"/><path class="cls-1" d="M165.06,255.7c8.29,1.87,18.2-4.72,20.28-14,1.62-7.19,2.75-14.51,3.74-21.82.85-6.27-3.09-11.61-9.24-13.27-7.92-2.15-18.09,3.48-20.44,12.19-2.14,7.89-3.15,16.08-4.35,22.5C154.9,249.57,158.58,254.23,165.06,255.7Z"/><path class="cls-1" d="M214.17,304.3a19,19,0,0,0,15.05-15.1c2-10.48,3.8-21,5.63-31.49,2.22-12.78,4.37-25.56,6.34-37.09.21-10.35-7.21-16.25-16.08-14-7.94,2-13,7.18-14.46,15.12-4.15,22.6-8,45.25-11.86,67.91C197.24,298.91,204.94,306.07,214.17,304.3Z"/><path class="cls-1" d="M365,425.06c-5.06.12-10.18-.14-15.17.51-3.71.48-6,3.17-6,7.24.05,3.87,2.33,6,5.84,6.87a17,17,0,0,0,3.48.39c2,0,2.7,0,3.35,0,7.72-.37,11.31-4.44,10.76-12.06C367.16,426.39,367.07,425,365,425.06Z"/><path class="cls-1" d="M212.92,425.56c-2.84.6-5.11,2.35-5.53,5.57-.38,2.92,0,5.58,2.75,7.39,4,2.6,13.78,2,17.39-1s3.42-7.22,2.58-10.95C229.39,423.43,215.78,425,212.92,425.56Z"/><path class="cls-1" d="M302.83,404.4c-5.87-.07-10,2.73-11.39,8.14a38.73,38.73,0,0,0-.15,18c1.28,5.92,5.58,9,11.81,8.88a10.8,10.8,0,0,0,11-9.35c.48-2.57.59-5.21.9-8.11a87,87,0,0,0-1.06-9C312.75,407.6,308.51,404.47,302.83,404.4Z"/><path class="cls-1" d="M448.35,462.83c-1.05-.1-2,.29-2.08,1.5-.18,1.7-.18,3.33,2.28,3.27,1.87,0,3.73,0,5.6,0a.83.83,0,0,1,.07.13l.15-.12h.09l0-.06c.91-1.08,2.27-2.17.86-3.66C453.32,461.86,450.69,463.06,448.35,462.83Z"/><path class="cls-1" d="M429.49,462.56c-4.16,0-6.74,2.3-6.75,6.06s2.48,6.1,6.7,6.1,6.86-2.37,6.89-6S433.56,462.57,429.49,462.56Z"/><path class="cls-1" d="M0,0V480H640V0ZM497.39,432.45C494.88,443,486.46,449,474.76,449c-12.51-.05-20.65-7.15-22.61-19.48a50.51,50.51,0,0,1,.3-17.13c1.88-10.48,10.17-17.08,21.86-17.61,11.31-.51,20.45,6,23.08,16.72A44.21,44.21,0,0,1,497.39,432.45Zm-356-131.32q0-122.41,0-244.83c0-29.1,24.73-53.78,53.87-53.79q122.43,0,244.84,0c29.12,0,53.8,24.7,53.83,53.84,0,38.17,0,76.34.06,114.52,0,3.12-.34,4.76-4.07,5.72a17.06,17.06,0,0,0-12.94,13.53C475.43,197,474.09,204,473.23,211c-1.24,10,6.72,16.57,16.59,14,1.25-.33,2.49-.71,4.06-1.16,0,20.49.12,40.72-.05,60.95-.08,10,1,20-1.76,29.92a54.93,54.93,0,0,1-50.28,40.42c-4.77.21-9.54.13-14.31.13q-114.76,0-229.53,0c-29.23,0-51.19-18.47-56.16-47.22A40.33,40.33,0,0,1,141.34,301.13Zm47,132.26c-2.73,14.24-18.46,20.47-30.58,12.37-.79-.53-1.51-1.15-3-2.3,0,7.91-.19,15,.08,22,.13,3.51-1,4.8-4.44,4.29a8.12,8.12,0,0,0-2.46,0c-3.56.57-4.76-.61-4.69-4.46.27-14,.11-27.94.11-41.91,0-7.24.15-14.47-.07-21.7-.1-3.29.79-5.56,4.15-6.1,3.56-.57,6.5.28,7.34,4.83,5.38-4.91,11.49-6.29,18.39-5.23,7.89,1.22,12.81,5.56,14.71,13.24A57.87,57.87,0,0,1,188.31,433.39Zm53.38,13.2c0,.4-.43.8-.67,1.19-2.45,1-5,.26-7.52.48s-2.89-1.26-2.42-3.3c-1-.8-1.73-.22-2.58.4-6.27,4.55-13.29,4.42-20.33,2.75-7.85-1.87-11.95-7.47-11.87-15.38.07-7.39,4.54-12.64,12.43-14.38,5.85-1.29,11.81-.71,17.72-.65,2.91,0,4.11-.66,4-3.82-.19-5.65-2.28-8.51-7.91-9.53s-10.57-.49-15.4,3.06c-3.85,2.82-4.82-2.43-7.18-3.77-2.63-1.49.09-2.72,1.06-3.59,7.61-6.79,26.92-7,34.87-.6,4,3.26,5.7,7.68,5.77,12.59C241.84,423.55,241.73,435.07,241.69,446.59Zm29.8,1.7c-1.9-.22-3.83-.25-5.74-.37a10.62,10.62,0,0,1-9.75-5c-2.52-2.71-3.06-6.06-3.06-9.56q0-28,0-56.05c0-1.71-.56-3.74,1.82-4.53,7-2.3,9.31-.8,9.31,5.93q0,25.68,0,51.35c0,8.29.38,8.65,8.86,9.24a5.85,5.85,0,0,1,1.7.69c1.28,1.38.4,3.06.65,4.58C275.78,447.61,274.36,448.63,271.49,448.29Zm53.45-15.65c-2,8.79-9.15,15-18.44,16.19-10.59,1.4-19.4-2.59-23.9-10.82a10,10,0,0,1-2.21-6.53c-1.17-2-1-4.14-.79-6.3q0-3.45,0-6.9c-.2-13.35,7.45-21.94,20.85-23.38,12.62-1.37,22.57,6.07,24.88,18.64A47.08,47.08,0,0,1,324.94,432.64Zm24.12,44.25c-2.13.92-3.25-.87-4.42-2.24-2.56-3-5.12-5.94-8.13-9.45-1,3.42-.35,6.32-.58,9.12-.09,1.07.39,2.55-1.35,2.67-2,.12-1.81-1.45-1.82-2.76q0-5.67,0-11.34c0-1.11-.26-2.42,1.35-2.74a3,3,0,0,1,3,1.18c2.88,3.37,5.79,6.71,8.69,10.06l1.1-.23c0-2.89,0-5.78,0-8.67,0-1.25.27-2.41,1.85-2.24,1.34.15,1.23,1.35,1.24,2.3,0,3.45.09,6.91,0,10.36C350,474.28,350.81,476.13,349.06,476.89Zm19.42-.32h0c-4.64,0-9.41,1.8-13.83-1h0c-.08-4.09-.15-8.18-.24-12.27,0-1.77,0-3.3,2.48-3.24,3.28.08,6.56,0,9.83,0,1,0,2.21.24,2.25,1.39,0,1.73-1.48,1.39-2.55,1.42-2.13.07-4.26.07-6.39,0-1.63,0-2.43.61-2.38,2.3s1.15,1.69,2.35,1.82c2.71.31,5.53-.72,8.15.68.07.31.14.62.22.93-1.75,2.34-4.23.56-6.29,1.11-1.63.44-4.34-1.21-4.43,2.18-.1,3.76,2.85,2.2,4.64,2.43s3.61,0,5.4.13C369.05,474.6,370,475.22,368.48,476.57Zm-1.35-31.42c-.25-1.25-1.6.14-2.29.58-6.46,4.1-13.43,4.07-20.46,2.26-7.51-1.95-11.85-8.2-11.46-15.81.37-7,5.16-12.38,12.57-13.86,5.85-1.16,11.81-.85,17.72-.67,3.36.1,4.34-1.14,4.05-4.3-.44-4.86-2.66-8-7.61-9-5.53-1.08-10.65-.79-15.44,2.8-3.92,2.95-5.1-1.84-7.29-3.34-2.67-1.82-.05-3,1.14-4.06,7.79-6.7,27.13-6.74,34.86-.08A15.86,15.86,0,0,1,378.35,412c.1,5.43,0,27.49.08,33.08,0,2.26-.72,3.75-3.05,3.11C372.61,447.4,368.29,450.89,367.13,445.15Zm19,17.73c-4.38-.72-4.3,2.06-4.14,5a29.92,29.92,0,0,1,0,4.92c-.16,1.56,1.06,4.26-1.86,4.12s-1.36-2.79-1.65-4.35a19.34,19.34,0,0,1,0-2.95c-.06-3.36,1.3-7.72-4.83-6.83a1.11,1.11,0,0,1-1.31-1.11,1.37,1.37,0,0,1,1.4-1.62c2.13-.07,4.26,0,6.4,0V460c2,0,3.94,0,5.91,0,1,0,2.09.11,2.16,1.42S387.12,463,386.16,462.88Zm5-86.5c0-4.27,2.85-4.54,6-4.53,3.37,0,5.14,1.25,5.12,5-.1,17.43,0,34.86,0,52.28,0,9.24,0,9.23,9.39,10.22.4,0,.77.48,1.16.73a4.29,4.29,0,0,0-.39,2.64,13.83,13.83,0,0,0,.39-2.64c1.14,8.74,1,8.85-8.79,7.87-7.69-.57-12.68-5.19-12.77-12.84C391,415.51,391.15,395.94,391.13,376.38Zm25.77,86.77c-1.13,4-2.55,7.92-4,11.83a2.47,2.47,0,0,1-2.21,1.66c-1.61.17-2-1-2.36-2-1.27-3.14-2.43-6.33-3.85-10.1-1.58,4-3.06,7.4-4.2,10.89a2.55,2.55,0,0,1-2.54,1.84c-1,.07-1.45-1-1.75-2-1.23-4.19-2.57-8.36-3.87-12.54-.58-.61-1.23-1.4-.65-2.12a1.34,1.34,0,0,1,2.38.12q1.69,4.73,3.37,9.44h0c.88,1.44,1.77,1.53,2.68,0h0c.67-2.36,1.43-4.69,2-7.07.33-1.49,1-2.35,2.55-2.44,2-.11,2.27,1.13,2.73,2.7.84,2.91,2.06,5.71,3.57,9.73,1.47-4.35,2.49-7.52,3.63-10.64.37-1,.78-2.33,2.34-1.94C419,461.14,417.06,462.59,416.9,463.15Zm12.57,14.34c-5.94,0-9.76-3.35-9.83-8.68s3.67-8.91,9.54-9,10.31,3.67,10.24,9S435.36,477.47,429.47,477.49Zm-6.76-46.6q0-4.93,0-9.87c0-3.61,0-7.23,0-10.85,0-3.12.72-6.39-4.46-5.81-2.94.34-1.91-2.44-2-4s-.43-4.14,2.37-3.83c4.44.5,4.2-2.23,4.09-5.17-.09-2.62.14-5.27-.05-7.88-.3-4.21,2.1-5.61,5.68-5.66,3.74,0,5.89,1.68,5.54,5.75-.13,1.47,0,3,0,4.44,0,7.84,0,8,7.77,8.36,3.33.14,3.07,2,3.13,4.2s-.08,3.93-3.28,4c-7.63.2-7.62.38-7.62,7.87,0,6.41-.05,12.82,0,19.23.06,5.78,1.42,7.48,7.21,7.46,4.39,0,3.48,2.65,3.69,5.19.24,2.95-.77,3.94-3.84,4C428,448.58,422.73,443.66,422.71,430.89Zm35.71,43.78c.11,1.07,1,3.92-2.1,2-1.8-1.66.42-5.37-3-6.09a16.08,16.08,0,0,0-5.36-.14c-2.85.39-1.42,2.8-1.66,4.34-.19,1.24-.31,2.34-1.85,2.29s-1.63-1.29-1.63-2.47c0-3.93-.05-7.85-.07-11.78,0-1-.06-2.34,1.09-2.43,4.36-.3,9-1.48,13,.77s1.55,5.59.23,8.48A31.07,31.07,0,0,1,458.42,474.67Zm14.1-2c-1.2-1-1.7-3.28-3.73-2.6s-2.38,2.49-2.23,4.48c.08,1.11.18,2.53-1.54,2.47s-1.58-1.36-1.58-2.55c0-3.78,0-7.56,0-11.34,0-1.29-.21-2.91,1.73-2.88,1.69,0,1.34,1.55,1.39,2.63.06,1.3,0,2.62,0,4.31,5.05-1.26,7-7.91,12.88-7-.32,2-1.95,2.83-3.27,3.59-4.47,2.55-4,5-.4,8a45.51,45.51,0,0,1,4.45,4.9C475.75,478.21,474.7,474.39,472.52,472.65Zm18.23,4.85c-2.55,0-5-.41-6.68-2.5-.76-.93-2-2.22-.51-3.35,1-.81,2-.11,2.76,1,1.79,2.63,4.53,2.2,7.16,1.77a2.13,2.13,0,0,0,2-1.91c.08-1.16-.79-1.73-1.82-1.95-2.08-.44-4.21-.72-6.27-1.25s-4.09-1.84-4.06-4.32a4.79,4.79,0,0,1,3.78-4.63c3.47-1,6.84-1,9.69,1.61.83.77,1.77,1.89.84,3s-2,.34-2.84-.58a4.83,4.83,0,0,0-2.39-1.55c-2-.33-4.84-1.08-5.41,1.66s2.41,1.88,3.91,2.48a4.32,4.32,0,0,0,1,.21c3.24.58,7,.73,6.85,5.36C498.61,475.71,495.4,477.55,490.75,477.5Z"/><path class="cls-1" d="M474.09,404.43c-5.94.34-9.9,4-10.74,10.18-.31,2.27-.28,4.58-.46,7.83a62,62,0,0,0,.82,8.33c1.18,5.44,5.39,8.57,11,8.66,5.87.1,9.84-2.57,11.37-8.11a38.52,38.52,0,0,0,.26-18C485.06,407,480.6,404.07,474.09,404.43Z"/><path class="cls-1" d="M435.7,226a18.83,18.83,0,0,0,15.73-15c2-10.48,3.79-21,5.62-31.51,2.22-12.77,4.38-25.54,6.34-37,.26-10.7-7.19-16.73-16.32-14.27-7.61,2.05-12.71,7.1-14.14,14.89Q426.7,177.32,421,211.57C419.55,220.38,426.82,227.33,435.7,226Z"/><path class="cls-2" d="M198,355.22q114.76,0,229.53,0c4.77,0,9.54.08,14.31-.13a54.93,54.93,0,0,0,50.28-40.42c2.72-9.9,1.68-19.94,1.76-29.92.17-20.23.05-40.46.05-60.95-1.57.45-2.81.83-4.06,1.16-9.87,2.58-17.83-4-16.59-14,.86-7,2.2-14,3.69-20.85a17.06,17.06,0,0,1,12.94-13.53c3.73-1,4.08-2.6,4.07-5.72-.08-38.18,0-76.35-.06-114.52,0-29.14-24.71-53.83-53.83-53.84q-122.42,0-244.84,0c-29.14,0-53.87,24.69-53.87,53.79q0,122.41,0,244.83a40.33,40.33,0,0,0,.45,6.87C146.76,336.75,168.72,355.22,198,355.22ZM421,211.57q5.73-34.23,11.91-68.39c1.43-7.79,6.53-12.84,14.14-14.89,9.13-2.46,16.58,3.57,16.32,14.27-2,11.46-4.12,24.23-6.34,37-1.83,10.51-3.62,21-5.62,31.51a18.83,18.83,0,0,1-15.73,15C426.82,227.33,419.55,220.38,421,211.57Zm-52.25-1.11c5.49-31.69,11.07-63.37,16.49-95.07,1.22-7.14,3.66-13.33,10.47-16.86,5.28-2.74,10.7-3.46,15.91,0,5.44,3.61,6,9.06,5,14.92q-2.39,13.82-4.78,27.64Q403,191.53,394.16,241.94c-1.48,8.41-8.8,14.95-17,15.41-8.69.48-14.06-4.69-13.85-15C365,232.77,366.84,221.61,368.77,210.46Zm-68.19,93.67q12.87-74.26,25.9-148.5,2.28-13.11,4.53-26.23a19.51,19.51,0,0,1,14.92-15.92c8.58-2,15.89,4,15.75,14.28-1.66,9.69-3.54,20.86-5.49,32Q344,229.67,331.86,299.56c-1.92,11.12-6.82,17.36-15.56,19.24C306.84,320.83,298.94,313.6,300.58,304.13Zm-55,16.88Q256.71,256.4,268,191.83c1.68-9.65,9.27-16.58,18-16.65,7.46-.07,12.85,5.18,12.95,13.56-1.49,8.76-3.12,18.48-4.81,28.19q-8.77,50.49-17.59,101c-1.71,9.87-7.87,16.61-16.5,17.75C251.06,336.86,244,329.81,245.56,321Zm-46.77-31.36c3.82-22.66,7.71-45.31,11.86-67.91,1.46-7.94,6.52-13.11,14.46-15.12,8.87-2.25,16.29,3.65,16.08,14-2,11.53-4.12,24.31-6.34,37.09-1.83,10.5-3.67,21-5.63,31.49a19,19,0,0,1-15.05,15.1C204.94,306.07,197.24,298.91,198.79,289.65ZM159.4,218.8c2.35-8.71,12.52-14.34,20.44-12.19,6.15,1.66,10.09,7,9.24,13.27-1,7.31-2.12,14.63-3.74,21.82-2.08,9.28-12,15.87-20.28,14-6.48-1.47-10.16-6.13-10-14.4C156.25,234.88,157.26,226.69,159.4,218.8Z"/><path class="cls-2" d="M375.38,448.16c2.33.64,3.09-.85,3.05-3.11-.1-5.59,0-27.65-.08-33.08a15.86,15.86,0,0,0-5.43-12.25c-7.73-6.66-27.07-6.62-34.86.08-1.19,1-3.81,2.24-1.14,4.06,2.19,1.5,3.37,6.29,7.29,3.34,4.79-3.59,9.91-3.88,15.44-2.8,5,1,7.17,4.09,7.61,9,.29,3.16-.69,4.4-4.05,4.3-5.91-.18-11.87-.49-17.72.67-7.41,1.48-12.2,6.85-12.57,13.86-.39,7.61,3.95,13.86,11.46,15.81,7,1.81,14,1.84,20.46-2.26.69-.44,2-1.83,2.29-.58C368.29,450.89,372.61,447.4,375.38,448.16Zm-18.87-8.1c-.65,0-1.31,0-3.35,0a17,17,0,0,1-3.48-.39c-3.51-.89-5.79-3-5.84-6.87-.06-4.07,2.25-6.76,6-7.24,5-.65,10.11-.39,15.17-.51,2.1-.06,2.19,1.33,2.3,2.94C367.82,435.62,364.23,439.69,356.51,440.06Z"/><path class="cls-2" d="M474.31,394.77c-11.69.53-20,7.13-21.86,17.61a50.51,50.51,0,0,0-.3,17.13c2,12.33,10.1,19.43,22.61,19.48,11.7.05,20.12-6,22.63-16.54a44.21,44.21,0,0,0,0-21C494.76,400.78,485.62,394.26,474.31,394.77Zm11.78,36.55c-1.53,5.54-5.5,8.21-11.37,8.11-5.62-.09-9.83-3.22-11-8.66a62,62,0,0,1-.82-8.33c.18-3.25.15-5.56.46-7.83.84-6.17,4.8-9.84,10.74-10.18,6.51-.36,11,2.59,12.26,8.87A38.52,38.52,0,0,1,486.09,431.32Z"/><path class="cls-2" d="M444.78,444.32c-.21-2.54.7-5.21-3.69-5.19-5.79,0-7.15-1.68-7.21-7.46-.06-6.41,0-12.82,0-19.23,0-7.49,0-7.67,7.62-7.87,3.2-.09,3.35-1.65,3.28-4s.2-4.06-3.13-4.2c-7.78-.33-7.77-.52-7.77-8.36,0-1.48-.11-3,0-4.44.35-4.07-1.8-5.79-5.54-5.75-3.58.05-6,1.45-5.68,5.66.19,2.61,0,5.26.05,7.88.11,2.94.35,5.67-4.09,5.17-2.8-.31-2.45,2.12-2.37,3.83s-.95,4.36,2,4c5.18-.58,4.5,2.69,4.46,5.81,0,3.62,0,7.24,0,10.85q0,4.94,0,9.87c0,12.77,5.3,17.69,18.23,17.43C444,448.26,445,447.27,444.78,444.32Z"/><path class="cls-2" d="M404,447.91c9.81,1,9.93.87,8.79-7.87a13.83,13.83,0,0,1-.39,2.64,4.29,4.29,0,0,1,.39-2.64c-.39-.25-.76-.69-1.16-.73-9.39-1-9.39-1-9.39-10.22,0-17.42-.06-34.85,0-52.28,0-3.71-1.75-4.95-5.12-5-3.19,0-6.05.26-6,4.53,0,19.56-.12,39.13.11,58.69C391.33,442.72,396.32,447.34,404,447.91Z"/><path class="cls-2" d="M350,462.55c0-.95.1-2.15-1.24-2.3-1.58-.17-1.85,1-1.85,2.24,0,2.89,0,5.78,0,8.67l-1.1.23c-2.9-3.35-5.81-6.69-8.69-10.06a3,3,0,0,0-3-1.18c-1.61.32-1.34,1.63-1.35,2.74q0,5.67,0,11.34c0,1.31-.19,2.88,1.82,2.76,1.74-.12,1.26-1.6,1.35-2.67.23-2.8-.46-5.7.58-9.12,3,3.51,5.57,6.48,8.13,9.45,1.17,1.37,2.29,3.16,4.42,2.24,1.75-.76.91-2.61.95-4C350.12,469.46,350.07,466,350,462.55Z"/><path class="cls-2" d="M416.71,460.57c-1.56-.39-2,.92-2.34,1.94-1.14,3.12-2.16,6.29-3.63,10.64-1.51-4-2.73-6.82-3.57-9.73-.46-1.57-.76-2.81-2.73-2.7-1.59.09-2.22.95-2.55,2.44-.54,2.38-1.3,4.71-2,7.07h0c-.91,1.5-1.8,1.41-2.68,0h0q-1.68-4.72-3.37-9.44a1.34,1.34,0,0,0-2.38-.12c-.58.72.07,1.51.65,2.12,1.3,4.18,2.64,8.35,3.87,12.54.3,1,.75,2.06,1.75,2a2.55,2.55,0,0,0,2.54-1.84c1.14-3.49,2.62-6.87,4.2-10.89,1.42,3.77,2.58,7,3.85,10.1.4,1,.75,2.15,2.36,2a2.47,2.47,0,0,0,2.21-1.66c1.43-3.91,2.85-7.83,4-11.83C417.06,462.59,419,461.14,416.71,460.57Z"/><path class="cls-2" d="M429.18,459.79c-5.87.11-9.61,3.64-9.54,9s3.89,8.7,9.83,8.68,9.89-3.53,9.95-8.73S435.17,459.68,429.18,459.79Zm.26,14.93c-4.22,0-6.7-2.25-6.7-6.1s2.59-6.08,6.75-6.06,6.87,2.51,6.84,6.12S433.61,474.71,429.44,474.72Z"/><path class="cls-2" d="M491.83,467.21a4.32,4.32,0,0,1-1-.21c-1.5-.6-4.47.19-3.91-2.48s3.38-2,5.41-1.66a4.83,4.83,0,0,1,2.39,1.55c.89.92,1.85,1.74,2.84.58s0-2.21-.84-3c-2.85-2.64-6.22-2.64-9.69-1.61a4.79,4.79,0,0,0-3.78,4.63c0,2.48,1.86,3.75,4.06,4.32s4.19.81,6.27,1.25c1,.22,1.9.79,1.82,1.95a2.13,2.13,0,0,1-2,1.91c-2.63.43-5.37.86-7.16-1.77-.78-1.15-1.72-1.85-2.76-1-1.47,1.13-.25,2.42.51,3.35,1.7,2.09,4.13,2.51,6.68,2.5,4.65.05,7.86-1.79,7.93-4.93C498.79,467.94,495.07,467.79,491.83,467.21Z"/><path class="cls-2" d="M456.86,461.12c-4-2.25-8.63-1.07-13-.77-1.15.09-1.09,1.45-1.09,2.43,0,3.93,0,7.85.07,11.78,0,1.18,0,2.42,1.63,2.47s1.66-1,1.85-2.29c.24-1.54-1.19-3.95,1.66-4.34a16.08,16.08,0,0,1,5.36.14c3.39.72,1.17,4.43,3,6.09,3.07,2,2.21-.89,2.1-2a31.07,31.07,0,0,0-1.33-5.07C458.41,466.71,461,463.43,456.86,461.12Zm-2.44,6.47,0,.06h-.09l-.15.12a.83.83,0,0,0-.07-.13c-1.87,0-3.73-.08-5.6,0-2.46.06-2.46-1.57-2.28-3.27.12-1.21,1-1.6,2.08-1.5,2.34.23,5-1,6.93,1.1C456.69,465.42,455.33,466.51,454.42,467.59Z"/><path class="cls-2" d="M475.79,471.68c-3.61-2.95-4.07-5.41.4-8,1.32-.76,2.95-1.59,3.27-3.59-5.9-.87-7.83,5.78-12.88,7,0-1.69.05-3,0-4.31-.05-1.08.3-2.6-1.39-2.63-1.94,0-1.73,1.59-1.73,2.88,0,3.78,0,7.56,0,11.34,0,1.19,0,2.49,1.58,2.55s1.62-1.36,1.54-2.47c-.15-2,.29-3.83,2.23-4.48s2.53,1.64,3.73,2.6c2.18,1.74,3.23,5.56,7.72,3.93A45.51,45.51,0,0,0,475.79,471.68Z"/><path class="cls-2" d="M367.69,474.47c-1.79-.17-3.62.09-5.4-.13s-4.74,1.33-4.64-2.43c.09-3.39,2.8-1.74,4.43-2.18,2.06-.55,4.54,1.23,6.29-1.11-.08-.31-.15-.62-.22-.93-2.62-1.4-5.44-.37-8.15-.68-1.2-.13-2.3-.21-2.35-1.82s.75-2.34,2.38-2.3c2.13.05,4.26.05,6.39,0,1.07,0,2.6.31,2.55-1.42,0-1.15-1.2-1.38-2.25-1.39-3.27,0-6.55.06-9.83,0-2.43-.06-2.52,1.47-2.48,3.24.09,4.09.16,8.18.24,12.27h0c4.42,2.82,9.19,1.05,13.83,1h0C370,475.22,369.05,474.6,367.69,474.47Zm-9.6-5.85a.36.36,0,0,0,0,.26c.2.44-.19.07-.17-.26Z"/><path class="cls-2" d="M386,460c-2,0-3.94,0-5.91,0v.07c-2.14,0-4.27-.05-6.4,0a1.37,1.37,0,0,0-1.4,1.62,1.11,1.11,0,0,0,1.31,1.11c6.13-.89,4.77,3.47,4.83,6.83a19.34,19.34,0,0,0,0,2.95c.29,1.56-1.13,4.21,1.65,4.35s1.7-2.56,1.86-4.12a29.92,29.92,0,0,0,0-4.92c-.16-3-.24-5.76,4.14-5,1,.15,2.1-.05,2-1.44S387,460,386,460Z"/><polygon class="cls-2" points="454.37 467.65 454.37 467.65 454.38 467.64 454.37 467.65"/><path class="cls-2" d="M173.15,395.2c-6.9-1.06-13,.32-18.39,5.23-.84-4.55-3.78-5.4-7.34-4.83-3.36.54-4.25,2.81-4.15,6.1.22,7.23.07,14.46.07,21.7,0,14,.16,27.94-.11,41.91-.07,3.85,1.13,5,4.69,4.46a8.12,8.12,0,0,1,2.46,0c3.4.51,4.57-.78,4.44-4.29-.27-7-.08-14.1-.08-22,1.48,1.15,2.2,1.77,3,2.3,12.12,8.1,27.85,1.87,30.58-12.37a57.87,57.87,0,0,0-.45-24.95C186,400.76,181,396.42,173.15,395.2Zm4.25,35c-1.34,6.75-4.94,9.49-11.79,9.29-5.82-.17-9.39-3.53-10.39-9.82a48.59,48.59,0,0,1,0-15.69c1-6.17,4.72-9.4,10.64-9.55,6.43-.15,10.23,2.72,11.48,9.1a81.58,81.58,0,0,1,.81,8.62C177.93,425,177.9,427.61,177.4,430.17Z"/><path class="cls-2" d="M235.89,399.45c-7.95-6.44-27.26-6.19-34.87.6-1,.87-3.69,2.1-1.06,3.59,2.36,1.34,3.33,6.59,7.18,3.77,4.83-3.55,9.9-4.07,15.4-3.06s7.72,3.88,7.91,9.53c.11,3.16-1.09,3.85-4,3.82-5.91-.06-11.87-.64-17.72.65-7.89,1.74-12.36,7-12.43,14.38-.08,7.91,4,13.51,11.87,15.38,7,1.67,14.06,1.8,20.33-2.75.85-.62,1.57-1.2,2.58-.4-.47,2-.2,3.53,2.42,3.3s5.07.52,7.52-.48c.24-.39.67-.79.67-1.19,0-11.52.15-23,0-34.55C241.59,407.13,239.92,402.71,235.89,399.45Zm-8.36,38.06c-3.61,3-13.43,3.61-17.39,1-2.74-1.81-3.13-4.47-2.75-7.39.42-3.22,2.69-5,5.53-5.57s16.47-2.13,17.19,1C231,430.29,231.1,434.49,227.53,437.51Z"/><path class="cls-2" d="M300.46,394.9c-13.4,1.44-21,10-20.85,23.38q0,3.45,0,6.9c-.25,2.16-.38,4.31.79,6.3A10,10,0,0,0,282.6,438c4.5,8.23,13.31,12.22,23.9,10.82,9.29-1.23,16.43-7.4,18.44-16.19a47.08,47.08,0,0,0,.4-19.1C323,401,313.08,393.53,300.46,394.9ZM280.68,428c-.27.11-.16-.13,0,0Zm33.38,2.1a10.8,10.8,0,0,1-11,9.35c-6.23.15-10.53-3-11.81-8.88a38.73,38.73,0,0,1,.15-18c1.39-5.41,5.52-8.21,11.39-8.14,5.68.07,9.92,3.2,11.07,8.59a87,87,0,0,1,1.06,9C314.65,424.9,314.54,427.54,314.06,430.11Z"/><path class="cls-2" d="M274.64,440a5.85,5.85,0,0,0-1.7-.69c-8.48-.59-8.86-.95-8.86-9.24q0-25.67,0-51.35c0-6.73-2.36-8.23-9.31-5.93-2.38.79-1.82,2.82-1.82,4.53q0,28,0,56.05c0,3.5.54,6.85,3.06,9.56a10.62,10.62,0,0,0,9.75,5c1.91.12,3.84.15,5.74.37,2.87.34,4.29-.68,3.8-3.71C275,443.06,275.92,441.38,274.64,440Zm-8.32,7.59a5.08,5.08,0,0,1,2.81-.24A12.42,12.42,0,0,1,266.32,447.59Z"/></g></g></svg>