<?xml version="1.0" encoding="utf-8"?>
<!-- Generator: Adobe Illustrator 22.1.0, SVG Export Plug-In . SVG Version: 6.00 Build 0)  -->
<svg version="1.1" id="Layer_1" xmlns="http://www.w3.org/2000/svg" xmlns:xlink="http://www.w3.org/1999/xlink" x="0px" y="0px"
	 viewBox="0 0 640 480" style="enable-background:new 0 0 640 480;" xml:space="preserve">
<style type="text/css">
	.st0{fill:#009CDE;}
	.st1{fill:#FFFFFF;}
	.st2{fill:#0F3572;}
</style>
<g>
	<g>
		<g>
			<path class="st0" d="M555.6,169.4c0,50.2-21.1,90.9-62.8,122.1c-41.7,30.6-100,46.2-175.3,46.2h-41.7l-31.6,137.6H134.6l101-423
				h148.7c27.6,0,51.7,2,72.3,5.5c20.6,4,38.2,10.5,53.3,19.6c14.6,9.5,26.1,21.6,33.7,36.2C551.6,128.7,555.6,146.8,555.6,169.4z"
				/>
			<path class="st1" d="M248.2,479.4H129.1l103.5-432h151.7c27.6,0,52.2,2,72.8,5.5c21.1,4,39.7,10.5,54.8,20.1
				c15.6,9.5,27.1,22.6,35.7,38.2c8,15.6,12.1,34.7,12.1,57.8c0,51.7-21.6,93.9-64.3,125.6c-42.2,31.1-102,47.2-177.8,47.2h-37.7
				L248.2,479.4z M140.7,470.3h100l31.6-137.6h45.2c73.8,0,131.6-15.1,172.3-45.2c20.1-15.1,35.7-32.7,45.7-51.7
				c10-19.6,15.1-41.7,15.1-66.3c0-21.1-4-39.2-11.1-53.3c-7.5-14.1-18.1-25.6-32.2-34.7c-14.6-9-31.6-15.1-51.7-19.1
				c-20.1-3.5-44.2-5.5-71.3-5.5H239.6L140.7,470.3z"/>
		</g>
	</g>
	<g>
		<g>
			<path class="st2" d="M506.9,122.2c0,50.2-21.1,90.9-62.8,122.1s-100,46.2-175.3,46.2h-41.7l-31.6,137.6H85.9l98-423h151.7
				c27.6,0,51.7,2,72.3,5.5c20.6,4,38.2,10.5,53.3,19.6c14.6,9.5,26.1,21.6,33.7,36.2C502.9,81.5,506.9,100.1,506.9,122.2z"/>
			<path class="st1" d="M199.4,432.7H80.4l99.5-432h155.7c27.6,0,52.2,2,72.8,5.5c21.1,4,39.7,10.5,54.8,20.1
				c15.6,9.5,27.1,22.6,35.7,38.2c8,15.6,12.1,34.7,12.1,57.8c0,51.7-21.6,93.9-64.3,125.6c-42.2,31.1-102,47.2-177.8,47.2h-37.7
				L199.4,432.7z M91.9,423.1h100.5L224,285.5h45.2c73.8,0,131.6-15.1,172.3-45.2c20.1-15.1,35.7-32.7,45.7-51.7
				c10-19.6,15.1-41.7,15.1-66.3c0-21.1-4-39.2-11.1-53.3c-7.5-14.1-18.1-25.6-32.2-34.7c-14.6-9-31.6-15.1-51.7-19.1
				c-20.1-3.5-44.2-5.5-71.3-5.5H187.9L91.9,423.1z"/>
		</g>
	</g>
	<g>
		<g>
			<path class="st1" d="M394.3,137.3c-1,13.1-3.5,22.6-11.6,33.2c-8,11.1-17.1,18.1-29.6,24.1c-7.5,3.5-15.1,6-23.1,7
				c-8,1-17.6,1.5-29.1,1.5h-54.3l30.6-109.5H327c12.6,0,22.6,0,30.6,2c7.5,1.5,14.1,4,18.6,7c6.5,4,11.6,8.5,15.1,14.6
				C394.3,124.2,394.9,128.7,394.3,137.3z"/>
		</g>
	</g>
</g>
</svg>
