<?xml version="1.0" encoding="utf-8"?>
<!-- Generator: Adobe Illustrator 21.0.2, SVG Export Plug-In . SVG Version: 6.00 Build 0)  -->
<svg version="1.1" id="Layer_1" xmlns="http://www.w3.org/2000/svg" xmlns:xlink="http://www.w3.org/1999/xlink" x="0px" y="0px"
	 viewBox="0 0 640 480" style="enable-background:new 0 0 640 480;" xml:space="preserve">
<style type="text/css">
	.st0{fill:#818FC0;}
	.st1{fill:#255398;}
</style>
<g>
	<path class="st0" d="M155.3,227.2c40.8,15.3,67.7,40.9,67.7,40.9c0.6-12.1,3.8-24.9,8.3-36.4c0,0-12.8-24.2-51.1-50.4
		c-41.5-28.1-88.7-35.7-88.7-35.7c-9.6,20.4-16,42.8-19.8,66.4C71.7,211.9,106.2,208.1,155.3,227.2L155.3,227.2z M184.7,144.9
		c38.9,37.7,53,75.3,53,75.3c7.1-11.5,16.4-21.5,27.5-29.4c0,0-14-44.7-37.7-78.5c-23-33.2-60.6-60.6-60.6-60.6
		c-18.5,14-35.1,30.6-48.5,49.1C118.3,100.9,156.6,117.5,184.7,144.9z M253,98.3c17.2,44.7,21.7,86.8,21.7,86.8
		c12.6-6.1,26.2-10,40.2-11.5c0,0,0.6-43.4-8.9-87.4c-10.9-51.7-23.6-84.3-23.6-84.3c-23,3.8-44.7,10.2-65.1,19.8
		C217.2,21.7,240.9,67.7,253,98.3L253,98.3z M484,227.2c-40.2,15.3-67.6,40.9-67.6,40.9c0-12.1-3.2-24.9-7.7-36.4
		c0,0,12.8-24.2,51.1-50.4c41.5-28.1,88.1-35.7,88.1-35.7c9.9,21,16.6,43.4,19.8,66.4C567.7,211.9,533.2,208.1,484,227.2L484,227.2z
		 M455.3,144.9c-38.9,37.7-53,75.3-53,75.3c-7.1-11.7-16.7-21.7-28.1-29.4c0,0,14.7-44.7,37.7-78.5c23.6-33.2,61.3-60.6,61.3-60.6
		c18.5,14,34.5,30.6,48.5,49.1C521.7,100.9,483.4,117.5,455.3,144.9z M387,98.3c-17.9,44.7-22.3,86.8-22.3,86.8
		c-11.5-5.7-26.2-10.2-39.6-11.5c0,0-0.6-43.4,8.3-87.4c11.5-51.7,24.2-84.3,24.2-84.3c23,3.8,44.7,10.2,65.1,19.8
		C422.8,21.7,399.1,67.7,387,98.3L387,98.3z"/>
	<path class="st1" d="M189.2,379.2c48.5-23,97-17.9,97-17.9c-17.2-7-31.9-17.9-42.8-31.9c0,0-43.4-5.1-76.6,1.3
		c-50.4,10.2-72.8,27.5-72.8,27.5c10.2,21.1,23.6,40.2,38.9,57.4C133,415.5,153.4,396.4,189.2,379.2L189.2,379.2z M151.5,306.4
		c49.8-2.6,83.6,10.2,83.6,10.2c-6.4-10.9-10.2-23-11.5-36.4c0,0-38.9-22.3-75.3-26.8c-49.8-7-79.1,2.6-79.1,2.6
		c0.6,23.2,4.4,46.2,11.5,68.3C80.6,324.3,112.6,308.3,151.5,306.4z"/>
	<path class="st1" d="M320,416.8c70.2,0,101.5,61.3,101.5,61.3c21.8-9.7,42.2-22.4,60.6-37.6c0,0-60-75.3-162.1-75.3
		c-102.1,0-162.1,75.3-162.1,75.3c18.5,15.3,38.3,28.1,60.6,37.6C218.5,478.1,249.1,416.8,320,416.8L320,416.8z"/>
	<path class="st1" d="M450.2,379.2c-47.9-23-97-17.9-97-17.9c17.2-7,32.6-17.9,43.4-31.9c0,0,43.4-5.1,76.6,1.3
		c50.4,10.2,72.8,27.5,72.8,27.5c-10.2,21.1-23.6,40.2-38.9,57.4C507,415.5,486,396.4,450.2,379.2L450.2,379.2z"/>
	<path class="st1" d="M487.9,306.4c-49.1-2.6-83,10.2-83,10.2c5.7-10.9,10.2-23,11.5-36.4c0,0,38.9-22.3,75.3-26.8
		c49.8-7,79.2,2.6,79.2,2.6c-0.6,23.6-5.1,46.6-11.5,68.3C559.4,324.3,527.4,308.3,487.9,306.4L487.9,306.4z"/>
</g>
</svg>
