<?xml version="1.0" encoding="utf-8"?>
<!-- Generator: Adobe Illustrator 22.1.0, SVG Export Plug-In . SVG Version: 6.00 Build 0)  -->
<svg version="1.1"
	 id="svg548" xmlns:cc="http://creativecommons.org/ns#" xmlns:dc="http://purl.org/dc/elements/1.1/" xmlns:rdf="http://www.w3.org/1999/02/22-rdf-syntax-ns#"
	 xmlns="http://www.w3.org/2000/svg" xmlns:xlink="http://www.w3.org/1999/xlink" x="0px" y="0px" viewBox="0 0 640 480"
	 style="enable-background:new 0 0 640 480;" xml:space="preserve">
<style type="text/css">
	.st0{fill:#62A745;}
	.st1{fill:#E50F2A;}
	.st2{fill:#1DA0D8;}
</style>
<g>
	<path class="st0" d="M336.9,480c-22.5-1.9-43.6-6.1-63.5-14.3c-86.2-35.5-137.6-99.9-155.5-190.9c-10.7-54.3-4.7-107.1,18.3-157.5
		c19.4-42.5,51.1-73.8,92.6-95C267.4,2.6,308.6-2.5,351.1,1c8.4,0.7,16.9,1.6,24.1,2.4c-11.7,4.1-24.6,7.6-36.5,13.2
		c-34.4,16.1-58.5,43.2-77.5,75.3c-28.3,47.9-38.7,99.6-33.4,154.9C233,300.9,251.9,350.2,280,396c16.7,27.2,35.6,52.9,53.5,79.3
		C334.4,476.5,335.3,477.8,336.9,480z"/>
	<path class="st1" d="M247.9,175.5c4.3-15.1,7.8-30.6,13.1-45.4C274,93.3,294.8,61.5,325.6,37c21.5-17.1,45.2-29.7,73.7-27.4
		c19.4,1.6,36.9,9.9,53.1,20.4c48.5,31.2,72.3,76.5,74.8,133.5c0.1,1.4-0.2,2.9-0.3,3.9c-7-8-13.3-16.6-20.9-23.6
		c-28.8-26.7-63.7-39.6-102.1-43.6c-24.3-2.5-48.4-1.5-71.9,5c-34.4,9.6-58.6,31.9-76.5,61.9c-1.8,2.9-3.4,5.9-5.1,8.9
		C249.5,175.9,248.7,175.7,247.9,175.5z"/>
	<path d="M317,234c44.9,20.2,82.7-8.8,91.2-37.6c9.5-32.3-6.5-75.6-54.1-83.2c1.8-0.6,2.7-1.3,3.7-1.3c36.5-1.1,71.8,4.3,104.8,20.9
		c21.3,10.7,38.7,26.1,50,47.5c14.9,28,7.8,57-17.9,75.8c-24,17.6-51.4,21.8-79.9,19.1c-15.7-1.5-31.3-4.8-46.6-8.9
		c-18.6-5-34.5-15.4-48.4-28.7C318.9,236.6,318.2,235.5,317,234z"/>
	<path class="st2" d="M495.7,282.9c-16.7,26.4-38.3,44.7-67.1,53.3c-41.3,12.5-81.3,9.3-118.1-14c-31.3-19.8-48.4-49.1-52.1-86.1
		c-2.9-28.9,4.2-54.7,22.9-77.2c2-2.3,4.1-4.6,6.3-6.9c-1.6,8.3-4.2,16.2-4.5,24.2c-1.2,28,10.9,51,29.3,70.9
		c23.9,25.8,54.5,38.7,88.4,44.9c24.1,4.5,48,5.1,71.9-1.2C480,288.9,487.1,285.8,495.7,282.9z"/>
</g>
</svg>
