<?xml version="1.0" encoding="utf-8"?>
<!-- Generator: Adobe Illustrator 18.1.1, SVG Export Plug-In . SVG Version: 6.00 Build 0)  -->
<svg version="1.1" id="Layer_1" xmlns="http://www.w3.org/2000/svg" xmlns:xlink="http://www.w3.org/1999/xlink" x="0px" y="0px"
	 viewBox="0 0 640 480" enable-background="new 0 0 640 480" xml:space="preserve">
<path fill="#FFA500" d="M285.5,3.9c3.4,2.3,6.6,5,9.5,7.9c24.3,23.6,48.4,47.6,71.8,72.1c35.8,37.9,69,79.2,91.7,126.5
	c20.6,42.6,30,90.8,25.7,138c-5.3,54.1-43.1,104.6-95.1,122c-6.1,2.2-12.5,4.1-19,3.5c24.3-20.5,42.3-48.2,51.6-78.5
	c11.7-36.8,10.2-77.4-2.8-113.7c-15.4-44.4-45.9-81.9-81-112.4c3.4,31.7,1.8,64.3-7.1,95c-6.7,23.1-15.6,45.7-27.8,66.5
	c-0.6,0.6-1.9,1.9-2.5,2.5c-3.3-25.1-14.1-49.6-32-67.7c-1.6-1.4-3.3-2.7-5.2-3.9c-5.5,20.6-13.8,40.3-22.9,59.5
	c-8.9,19.2-18.6,38.8-20.1,60.2c-0.6,10.5-1.3,21.2,1.3,31.4c7.2,24,23.6,43.7,41.4,60.6c-37.9-13.6-73.9-37.7-93.8-73.6
	c-17.6-31.1-19.6-68.7-13.4-103.3c4.5-22.4,13-43.8,23.1-64.2c23.4-45.6,52.9-88,74.3-134.7C267.5,67.6,278.5,36.2,285.5,3.9z"/>
</svg>
