<?xml version="1.0" encoding="utf-8"?>
<!-- Generator: Adobe Illustrator 21.1.0, SVG Export Plug-In . SVG Version: 6.00 Build 0)  -->
<svg version="1.1" id="Layer_1" xmlns="http://www.w3.org/2000/svg" xmlns:xlink="http://www.w3.org/1999/xlink" x="0px" y="0px"
	 viewBox="0 0 640 480" style="enable-background:new 0 0 640 480;" xml:space="preserve">
<style type="text/css">
	.st0{fill:#0B5ED8;}
	.st1{clip-path:url(#SVGID_2_);}
	.st2{fill:#FFFFFF;}
</style>
<path class="st0" d="M142.6,31.5c0,0,73.4-9.8,179.5-9.8c106.8,0,177.6,9.8,177.6,9.8v264.1c0,103.8-80.6,180.9-178.6,180.9
	c-98.7,0-178.6-78.1-178.6-178.6V31.5z"/>
<g>
	<defs>
		<rect id="SVGID_1_" x="-157.3" y="-215.5" width="954.6" height="675"/>
	</defs>
	<clipPath id="SVGID_2_">
		<use xlink:href="#SVGID_1_"  style="overflow:visible;"/>
	</clipPath>
	<g class="st1">
		<path class="st2" d="M288.5,83.4h-11.3v14.7h-11.7V83.4h-11.3v36.9h11.3v-14.5h11.7v14.5h11.3V83.4z M327.7,112.9V83.4h-11.3v36.9
			h20.4l1.7-7.4H327.7L327.7,112.9z M308.1,83.4h-11.3v36.9h11.3V83.4z M353.8,83.4h-11.3v36.9h11.3V83.4z M409.3,92.8
			c0-2,2-2.9,5.2-2.9c3.5,0,7.4,0.8,10,1.9l-0.9-8c-2.9-0.6-5.6-1.1-10.3-1.1c-9.1,0-15.3,3.6-15.3,11.1c0,13,17.6,10.3,17.6,16.4
			c0,2.3-1.7,3.5-5.9,3.5c-3.7,0-9.4-1.2-12.8-2.9l1.2,8.5c3.4,1.2,8,1.9,11.7,1.9c9.4,0,17.1-3.1,17.1-12.4
			C427.1,96.4,409.3,98.7,409.3,92.8 M377.6,111.5c10.5,0,17.1-5.4,17.1-14.8c0-10.3-7.1-14.1-18.7-14.1c-4.5,0-9.9,0.3-13.7,0.8
			v36.9h11.3v-8.8L377.6,111.5L377.6,111.5z M383.6,96.8c0,4.8-2.3,8-8.2,8H374V89.6c0.7,0,0.8,0,1.4,0
			C380.9,89.6,383.6,92.2,383.6,96.8 M232.7,111.5c10.5,0,17.1-5.4,17.1-14.8c0-10.3-7.1-14.1-18.7-14.1c-4.5,0-9.9,0.3-13.7,0.8
			v36.9h11.3v-8.8L232.7,111.5L232.7,111.5z M238.7,96.8c0,4.8-2.3,8-8.2,8h-1.3V89.6c0.7,0,0.8,0,1.3,0
			C236,89.6,238.7,92.2,238.7,96.8"/>
	</g>
</g>
<path class="st2" d="M167.3,317.1c-0.5-4.3-1-13.3-1.1-19.1c13.3,6.9,33.3,15.1,63,15.1c71.9,0,104.3-53.8,175-53.8
	c29.1,0,53.7,8.4,70.3,18.7c0.7,6.4,0.9,12.9,1.2,19.3c-19-9.3-38.6-14.9-62.9-14.9c-72.7,0-102.3,53.5-175.2,53.5
	C209.5,335.9,186.1,328.6,167.3,317.1L167.3,317.1z"/>
<path class="st2" d="M167.6,278.5c2.5-21.4,8.5-37.4,18.1-55.5l32.1,4.1c6.1,0.8,10.5,2.1,13.4,5.3c2.8,3.2,4.1,5.1,5.8,17.1
	l4.8,37.5c0,0-9.8,1.7-21.9,1.8C198.9,288.9,179.8,283.5,167.6,278.5L167.6,278.5z M189,217.5c11.3-18.7,28.2-37.3,51.4-51.3
	l-3.8,29c-0.9,6.2-1.5,9.3-4.8,13.1c-2.8,3.1-7.5,4.3-13,5.3L189,217.5z M247.9,181.2l-2.2-18.4c9.5-5.4,21.5-10.8,35.2-14.2
	l-2.7,20.6c-1.2,6.5-3.9,8.5-10.8,9.5L247.9,181.2z M280.9,215.4l-17.1-2.5c-8.1-1.7-12.6-7.3-13.8-17.4l-1.7-12.2l20.3,2.9
	c6.7,0.7,9.1,4,10,11.2L280.9,215.4L280.9,215.4z"/>
<path class="st2" d="M244.9,286.4l4.1-35c2.5-17.4,4.8-21.9,19.4-24.2l41.5-5.5V219l-26.6-3.2l2.6-20.3c0.7-5.9,3.4-8.6,10.8-9.5
	l21.6-2.9v-1.6l-23-3c-6.6-1.1-8.7-3.9-9.5-9.9l-2.7-20.4c0,0,15.9-4.8,37.9-4.8c85.6,0,136.4,64.7,148.8,112
	c-13-8.4-39.6-20.6-71.4-20.6C333.9,234.7,301.2,275.8,244.9,286.4L244.9,286.4z M321,452.8c-65.4,0-127.5-40.8-149-112.8
	c18.9,12,46.1,20.7,72.4,20.7c68.3,0,101.4-43.5,152.6-52.5l-5.4,42.3c-1.9,10.9-4.9,15.7-18,17.8l-42,5.3v2.9l39.4,5
	c13.1,1.4,19.2,5.7,20.5,18.6l4.4,33.2C383,441.1,355.5,452.8,321,452.8L321,452.8z M401.1,430.7l3.3-26.5
	c2.2-14.9,4.6-20.3,19.1-22.2l30.1-3.9C438.3,402.8,421.3,417.6,401.1,430.7L401.1,430.7z M456.6,372.8l-30.4-4
	c-15.7-1.8-19.6-5.7-21.5-20.9l-5.2-40.2c0,0,10.4-1.8,22.3-1.8c17.7,0,41.8,5.7,53,10.6C472.1,335.4,468.6,350.6,456.6,372.8
	L456.6,372.8z"/>
<path class="st0" d="M359.1,442.1h1.3l2.3-17.1c1.1-7,3.7-7.5,8.7-8.4l16.7-2.1v-1.3l-17.9-2.3c-4.7-0.7-6.6-3.2-7.3-7.4l-2.3-17.9
	h-1.4l-2.3,18.2c-0.9,4.4-2.7,6.2-7.4,6.9l-17.8,2.4v1.3l17.2,2.2c5.7,0.7,7.8,3.4,8.3,8.7L359.1,442.1L359.1,442.1z"/>
</svg>
