<?xml version="1.0" encoding="utf-8"?>
<!-- Generator: Adobe Illustrator 19.2.1, SVG Export Plug-In . SVG Version: 6.00 Build 0)  -->
<svg version="1.1" id="Layer_1" xmlns="http://www.w3.org/2000/svg" xmlns:xlink="http://www.w3.org/1999/xlink" x="0px" y="0px"
	 viewBox="0 0 640 480" style="enable-background:new 0 0 640 480;" xml:space="preserve">
<style type="text/css">
	.st0{fill-rule:evenodd;clip-rule:evenodd;fill:#00A2E5;}
</style>
<g>
	<path class="st0" d="M85,240C85,110.2,190.2,5,320,5c129.8,0,235,105.2,235,235c0,129.8-105.2,235-235,235
		C190.2,475,85,369.8,85,240L85,240L85,240L85,240z M320,461.2c122.2,0,221.2-99,221.2-221.2c0-122.2-99-221.2-221.2-221.2
		c-122.1,0-221.2,99-221.2,221.2C98.8,362.2,197.8,461.2,320,461.2L320,461.2L320,461.2L320,461.2z"/>
	<polygon class="st0" points="211,43.9 224.2,117.2 297.6,130.4 224.2,143.7 211,217 197.8,143.7 124.4,130.4 197.8,117.2 211,43.9 
		211,43.9 	"/>
	<polygon class="st0" points="266,20.1 274.4,66.7 321,75.1 274.4,83.5 266,130.1 257.6,83.5 211,75.1 257.6,66.7 266,20.1 
		266,20.1 	"/>
	<polygon class="st0" points="430.6,438 417.4,364.6 344,351.4 417.4,338.2 430.6,264.8 443.9,338.2 517.2,351.4 443.9,364.6 
		430.6,438 430.6,438 	"/>
	<polygon class="st0" points="375.6,461.7 367.2,415.1 320.6,406.7 367.2,398.3 375.6,351.7 384,398.3 430.6,406.7 384,415.1 
		375.6,461.7 375.6,461.7 	"/>
	<path class="st0" d="M539.1,208.2c0,0-30.5,14.1-53.8,14.1c-23.2,0-49.5-13.4-49.5-13.4s-28.7-17.1-62.9-17.1
		c-29.3,0-55.6,17.7-55.6,17.7s-30.5,14.1-56.2,14.1c-25.7,0-48.3-14.1-48.3-14.1s-25-17.7-59.3-17.7c-34.2,0-54.3,15.6-54.3,15.6
		l0,0L98,224.7l0,0c0,0,21.4-16,55.6-16c34.2,0,59.3,17.7,59.3,17.7s22.6,14.1,48.3,14.1c25.7,0,56.2-14.1,56.2-14.1
		s26.3-17.7,55.6-17.7c34.2,0,62.9,17.1,62.9,17.1s26.3,13.4,49.5,13.4c23.2,0,55.6-15.1,55.6-15.1l0,0L539.1,208.2L539.1,208.2
		L539.1,208.2z"/>
	<path class="st0" d="M541.4,260.2c0,0-32.8,15.4-56,15.4c-23.2,0-49.5-13.4-49.5-13.4S407.2,245,372.9,245
		c-29.3,0-55.6,17.7-55.6,17.7s-30.5,14.1-56.2,14.1c-25.7,0-48.3-14.1-48.3-14.1s-25-17.7-59.3-17.7c-34.2,0-56.4,15.7-56.4,15.7
		l0,0L98,278l0,0c0,0,21.4-16,55.6-16c34.2,0,59.3,17.7,59.3,17.7s22.6,14.1,48.3,14.1c25.7,0,56.2-14.1,56.2-14.1
		s26.3-17.7,55.6-17.7c34.2,0,62.9,17.1,62.9,17.1s26.3,13.4,49.5,13.4c23.2,0,55.6-15.1,55.6-15.1l0,0L541.4,260.2L541.4,260.2
		L541.4,260.2z"/>
	<path class="st0" d="M542,233.3c0,0-33.4,15.7-56.6,15.7c-23.2,0-49.5-13.4-49.5-13.4s-28.7-17.1-62.9-17.1
		c-29.3,0-55.6,17.7-55.6,17.7s-30.5,14.1-56.2,14.1c-25.7,0-48.3-14.1-48.3-14.1s-25-17.7-59.3-17.7c-34.2,0-56.4,16.1-56.4,16.1
		l0,0l0.8,16.9l0,0c0,0,21.4-16,55.6-16c34.2,0,59.3,17.7,59.3,17.7s22.6,14.1,48.3,14.1c25.7,0,56.2-14.1,56.2-14.1
		s26.3-17.7,55.6-17.7c34.2,0,62.9,17.1,62.9,17.1s26.3,13.4,49.5,13.4c23.2,0,57.2-16.1,57.2-16.1l0,0L542,233.3L542,233.3
		L542,233.3z"/>
</g>
</svg>
