<?xml version="1.0" encoding="utf-8"?>
<!-- Generator: Adobe Illustrator 22.1.0, SVG Export Plug-In . SVG Version: 6.00 Build 0)  -->
<svg version="1.1" id="Layer_1" xmlns="http://www.w3.org/2000/svg" xmlns:xlink="http://www.w3.org/1999/xlink" x="0px" y="0px"
	 viewBox="0 0 640 480" style="enable-background:new 0 0 640 480;" xml:space="preserve">
<style type="text/css">
	.st0{clip-path:url(#SVGID_2_);fill:#CA2028;}
</style>
<g>
	<g>
		<defs>
			<circle id="SVGID_1_" cx="320" cy="240" r="236.2"/>
		</defs>
		<clipPath id="SVGID_2_">
			<use xlink:href="#SVGID_1_"  style="overflow:visible;"/>
		</clipPath>
		<path class="st0" d="M307.1,0c9.4,0,18.8,0,28,0c9,1.3,17.9,2.1,26.7,3.8C421,14.2,469.6,43,507.4,89.7
			c27.5,34,44.2,72.8,50.3,116c1,6.9,1.7,13.8,2.7,20.7c0,8.8,0,17.5,0,26.3c-0.2,1.3-0.6,2.7-0.8,4c-1.3,10.2-1.9,20.9-4.2,30.9
			c-11.9,56.1-40.3,102.7-84.9,138.8c-33.6,27.1-72,43.8-114.8,50.1c-6.7,1-13.1,1.7-19.8,2.5c-10.2,0-20.7,0-30.9,0
			c-4.8-0.6-9.6-1-14.2-1.9c-12.5-2.3-24.8-4.6-38.8-7.3c25.9-35.7,30.3-77.4,41.5-116c5.6,5,11.1,11.1,17.5,15.4
			c21.7,14.6,45.7,15,70.1,9c35.3-9,59.9-31.3,77.2-62.4c13.6-24.2,20-50.5,22.3-77.8c1.5-16.1,1.7-32.1-2.3-47.8
			c-12.9-51.5-45.9-84.3-95.4-101.2c-29.8-10.2-60.5-10.4-91.4-4.8c-41.7,7.5-77,26.7-102.7,60.9c-29.6,39.7-38.2,83.5-22.3,131.1
			c6.7,20,19.4,35.7,39.2,44.7c7.9,3.5,12.1,1.7,14.2-6.7c1.7-6.1,2.9-12.1,4.6-18.2c1.3-4.6,0-7.9-2.5-11.7
			c-4.8-7.5-9.8-14.8-12.9-23c-5.2-13.1-4.6-27.1-2.7-41.1c4.2-31.3,18.4-57,43.8-75.8c31.5-23.2,67-28,104.3-19.2
			c42.2,9.8,67.4,41.9,67.8,85.1c0.2,13.4-1,26.7-2.9,40.1c-3.3,22.3-10.6,43.6-24,62c-10.4,14.4-23.8,25-42.2,27.8
			c-28.6,4-51.5-18.6-44.2-46.3c5.2-19.2,11.1-38.2,16.3-57.4c3.3-12.3,6.1-24.8,3.3-37.8c-3.3-16.1-15.7-25.5-31.9-24.8
			c-16.3,0.6-27.5,9.4-35.3,22.7c-13.4,23.6-12.5,48.2-4.2,73c0.8,2.3,1.3,5,0.8,7.1c-8.1,34.9-16.5,69.5-24.6,104.3
			c-4,16.7-8.8,33.4-9.2,50.9c-0.2,8.8,0,17.3,0,25.9c-1,0.2-1.5,0.4-1.7,0.2c-1.5-0.6-2.9-1.3-4.4-1.9
			c-34.2-16.3-63.2-39.2-86.6-68.9c-24.6-31.3-40.7-66.8-47.4-106.2c-1.5-8.6-2.5-17.1-3.8-25.9c0-10.2,0-20.7,0-30.9
			c0.2-1.3,0.6-2.7,0.8-4c1-8.3,1.7-16.7,3.1-25c12.5-58,41.3-106,87.6-143.2C205.6,25.3,243.8,9,286.4,2.7
			C293.3,1.9,300.2,1.1,307.1,0z"/>
	</g>
</g>
</svg>
