<?xml version="1.0" encoding="utf-8"?>
<!-- Generator: Adobe Illustrator 21.1.0, SVG Export Plug-In . SVG Version: 6.00 Build 0)  -->
<svg version="1.1" id="Ñëîé_1" xmlns="http://www.w3.org/2000/svg" xmlns:xlink="http://www.w3.org/1999/xlink" x="0px" y="0px"
	 viewBox="0 0 640 480" style="enable-background:new 0 0 640 480;" xml:space="preserve">
<style type="text/css">
	.st0{fill:#FFFFFF;}
	.st1{fill:#FEFEFE;}
	.st2{fill:#FDFDFD;}
	.st3{fill:#FCFCFC;}
	.st4{fill:#FBFBFB;}
	.st5{fill:#FAFAFA;}
	.st6{fill:#F9F9F9;}
	.st7{fill:#F8F8F8;}
	.st8{fill:#F7F7F7;}
	.st9{fill:#F6F6F6;}
	.st10{fill:#F5F5F5;}
	.st11{fill:#F4F4F4;}
	.st12{fill:#F3F3F3;}
	.st13{fill:#F2F2F2;}
	.st14{fill:#F1F1F1;}
	.st15{fill:#F0F0F0;}
	.st16{fill:#EFEFEF;}
	.st17{fill:#EEEEEE;}
	.st18{fill:#EDEDED;}
	.st19{fill:#ECECEC;}
	.st20{fill:#EBEBEB;}
	.st21{fill:#EAEAEA;}
	.st22{fill:#E9E9E9;}
	.st23{fill:#E8E8E8;}
	.st24{fill:#E7E7E7;}
	.st25{fill:#E6E6E6;}
	.st26{fill:#E5E5E5;}
	.st27{fill:#E4E4E4;}
	.st28{fill:#E3E3E3;}
	.st29{fill:#E2E2E2;}
	.st30{fill:#E1E1E1;}
	.st31{fill:#E0E0E0;}
	.st32{fill:#DFDFDF;}
	.st33{fill:#DEDEDE;}
	.st34{fill:#DDDDDD;}
	.st35{fill:#DCDCDC;}
	.st36{fill:#DBDBDB;}
	.st37{fill:#DADADA;}
	.st38{fill:#D9D9D9;}
	.st39{fill:#D8D8D8;}
	.st40{fill:#D7D7D7;}
	.st41{fill:#D6D6D6;}
	.st42{fill:#D5D5D5;}
	.st43{fill:#D4D4D4;}
	.st44{fill:#D3D3D3;}
	.st45{fill:#D2D2D2;}
	.st46{fill:#D1D1D1;}
	.st47{fill:#D0D0D0;}
	.st48{fill:#CFCFCF;}
	.st49{fill:#CECECE;}
	.st50{fill:#CDCDCD;}
	.st51{fill:#CCCCCC;}
	.st52{fill:#CBCBCB;}
	.st53{fill:#CACACA;}
	.st54{fill:#C9C9C9;}
	.st55{fill:#C8C8C8;}
	.st56{fill:#C7C7C7;}
	.st57{fill:#C6C6C6;}
	.st58{fill:#C5C5C5;}
	.st59{fill:#C4C4C4;}
	.st60{fill:#C3C3C3;}
	.st61{fill:#C2C2C2;}
	.st62{fill:#C1C1C1;}
	.st63{fill:#C0C0C0;}
	.st64{fill:#BFBFBF;}
	.st65{fill:#BEBEBE;}
	.st66{fill:#BDBDBD;}
	.st67{fill:#BCBCBC;}
	.st68{fill:#BBBBBB;}
	.st69{fill:#BABABA;}
	.st70{fill:#B9B9B9;}
	.st71{fill:#B8B8B8;}
	.st72{fill:#B7B7B7;}
	.st73{fill:#B6B6B6;}
	.st74{fill:#B5B5B5;}
	.st75{fill:#B4B4B4;}
	.st76{fill:#B3B3B3;}
	.st77{fill:#B2B2B2;}
	.st78{fill:#B1B1B1;}
	.st79{fill:#B0B0B0;}
	.st80{fill:#AFAFAF;}
	.st81{fill:url(#SVGID_1_);}
	.st82{fill:url(#SVGID_2_);}
	.st83{fill:url(#SVGID_3_);}
	.st84{fill:url(#SVGID_4_);}
	.st85{fill:url(#SVGID_5_);}
	.st86{fill:url(#SVGID_6_);}
	.st87{opacity:0.7;fill-rule:evenodd;clip-rule:evenodd;fill:#7F7E7C;}
</style>
<g>
	<g>
		<polygon class="st0" points="200.6,114.4 613.5,296 514.5,368.3 165,161.4 		"/>
		<polygon class="st1" points="201.7,114.7 613.5,295.8 514.5,367.9 165.6,161.6 		"/>
		<polygon class="st2" points="202.8,115 613.5,295.6 514.5,367.6 166.2,161.8 		"/>
		<polygon class="st3" points="203.9,115.3 613.4,295.3 514.6,367.3 166.9,162 		"/>
		<polygon class="st4" points="204.9,115.5 613.4,295.1 514.6,367 167.5,162.1 		"/>
		<polygon class="st5" points="206,115.8 613.3,294.8 514.6,366.6 168.1,162.3 		"/>
		<polygon class="st6" points="207.1,116.1 613.3,294.6 514.7,366.3 168.7,162.5 		"/>
		<polygon class="st7" points="208.2,116.4 613.2,294.3 514.7,366 169.3,162.6 		"/>
		<polygon class="st8" points="209.3,116.7 613.2,294.1 514.7,365.7 169.9,162.8 		"/>
		<polygon class="st9" points="210.4,116.9 613.2,293.9 514.8,365.3 170.5,163 		"/>
		<polygon class="st10" points="211.4,117.2 613.1,293.6 514.8,365 171.1,163.2 		"/>
		<polygon class="st11" points="212.5,117.5 613.1,293.4 514.8,364.7 171.8,163.3 		"/>
		<polygon class="st12" points="213.6,117.8 613,293.1 514.9,364.4 172.4,163.5 		"/>
		<polygon class="st13" points="214.7,118 613,292.9 514.9,364.1 173,163.7 		"/>
		<polygon class="st14" points="215.8,118.3 612.9,292.6 514.9,363.7 173.6,163.8 		"/>
		<polygon class="st15" points="216.9,118.6 612.9,292.4 515,363.4 174.2,164 		"/>
		<polygon class="st16" points="217.9,118.9 612.9,292.2 515,363.1 174.8,164.2 		"/>
		<polygon class="st17" points="219,119.2 612.8,291.9 515,362.8 175.4,164.4 		"/>
		<polygon class="st18" points="220.1,119.4 612.8,291.7 515.1,362.4 176,164.5 		"/>
		<polygon class="st19" points="221.2,119.7 612.7,291.4 515.1,362.1 176.7,164.7 		"/>
		<polygon class="st20" points="222.3,120 612.7,291.2 515.1,361.8 177.3,164.9 		"/>
		<polygon class="st21" points="223.4,120.3 612.7,290.9 515.2,361.5 177.9,165 		"/>
		<polygon class="st22" points="224.5,120.6 612.6,290.7 515.2,361.2 178.5,165.2 		"/>
		<polygon class="st23" points="225.5,120.8 612.6,290.4 515.2,360.8 179.1,165.4 		"/>
		<polygon class="st24" points="226.6,121.1 612.5,290.2 515.3,360.5 179.7,165.6 		"/>
		<polygon class="st25" points="227.7,121.4 612.5,290 515.3,360.2 180.3,165.7 		"/>
		<polygon class="st26" points="228.8,121.7 612.4,289.7 515.4,359.9 180.9,165.9 		"/>
		<polygon class="st27" points="229.9,121.9 612.4,289.5 515.4,359.5 181.6,166.1 		"/>
		<polygon class="st28" points="231,122.2 612.4,289.2 515.4,359.2 182.2,166.2 		"/>
		<polygon class="st29" points="232,122.5 612.3,289 515.5,358.9 182.8,166.4 		"/>
		<polygon class="st30" points="233.1,122.8 612.3,288.7 515.5,358.6 183.4,166.6 		"/>
		<polygon class="st31" points="234.2,123.1 612.2,288.5 515.5,358.2 184,166.8 		"/>
		<polygon class="st32" points="235.3,123.3 612.2,288.3 515.6,357.9 184.6,166.9 		"/>
		<polygon class="st33" points="236.4,123.6 612.1,288 515.6,357.6 185.2,167.1 		"/>
		<polygon class="st34" points="237.5,123.9 612.1,287.8 515.6,357.3 185.8,167.3 		"/>
		<polygon class="st35" points="238.6,124.2 612.1,287.5 515.7,357 186.5,167.4 		"/>
		<polygon class="st36" points="239.6,124.5 612,287.3 515.7,356.6 187.1,167.6 		"/>
		<polygon class="st37" points="240.7,124.7 612,287 515.7,356.3 187.7,167.8 		"/>
		<polygon class="st38" points="241.8,125 611.9,286.8 515.8,356 188.3,168 		"/>
		<polygon class="st39" points="242.9,125.3 611.9,286.6 515.8,355.7 188.9,168.1 		"/>
		<polygon class="st40" points="244,125.6 611.8,286.3 515.8,355.3 189.5,168.3 		"/>
		<polygon class="st40" points="245.1,125.8 611.8,286.1 515.9,355 190.1,168.5 		"/>
		<polygon class="st41" points="246.1,126.1 611.8,285.8 515.9,354.7 190.7,168.6 		"/>
		<polygon class="st42" points="247.2,126.4 611.7,285.6 515.9,354.4 191.3,168.8 		"/>
		<polygon class="st43" points="248.3,126.7 611.7,285.3 516,354 192,169 		"/>
		<polygon class="st44" points="249.4,127 611.6,285.1 516,353.7 192.6,169.1 		"/>
		<polygon class="st45" points="250.5,127.2 611.6,284.9 516,353.4 193.2,169.3 		"/>
		<polygon class="st46" points="251.6,127.5 611.5,284.6 516.1,353.1 193.8,169.5 		"/>
		<polygon class="st47" points="252.6,127.8 611.5,284.4 516.1,352.8 194.4,169.7 		"/>
		<polygon class="st48" points="253.7,128.1 611.5,284.1 516.1,352.4 195,169.8 		"/>
		<polygon class="st49" points="254.8,128.4 611.4,283.9 516.2,352.1 195.6,170 		"/>
		<polygon class="st50" points="255.9,128.6 611.4,283.6 516.2,351.8 196.2,170.2 		"/>
		<polygon class="st51" points="257,128.9 611.3,283.4 516.2,351.5 196.9,170.3 		"/>
		<polygon class="st52" points="258.1,129.2 611.3,283.1 516.3,351.1 197.5,170.5 		"/>
		<polygon class="st53" points="259.2,129.5 611.2,282.9 516.3,350.8 198.1,170.7 		"/>
		<polygon class="st54" points="260.2,129.7 611.2,282.7 516.3,350.5 198.7,170.9 		"/>
		<polygon class="st55" points="261.3,130 611.2,282.4 516.4,350.2 199.3,171 		"/>
		<polygon class="st56" points="262.4,130.3 611.1,282.2 516.4,349.9 199.9,171.2 		"/>
		<polygon class="st57" points="263.5,130.6 611.1,281.9 516.4,349.5 200.5,171.4 		"/>
		<polygon class="st58" points="264.6,130.9 611,281.7 516.5,349.2 201.1,171.5 		"/>
		<polygon class="st59" points="265.7,131.1 611,281.4 516.5,348.9 201.8,171.7 		"/>
		<polygon class="st60" points="266.7,131.4 611,281.2 516.5,348.6 202.4,171.9 		"/>
		<polygon class="st61" points="267.8,131.7 610.9,281 516.6,348.2 203,172.1 		"/>
		<polygon class="st62" points="268.9,132 610.9,280.7 516.6,347.9 203.6,172.2 		"/>
		<polygon class="st63" points="270,132.3 610.8,280.5 516.6,347.6 204.2,172.4 		"/>
		<polygon class="st64" points="271.1,132.5 610.8,280.2 516.7,347.3 204.8,172.6 		"/>
		<polygon class="st65" points="272.2,132.8 610.7,280 516.7,346.9 205.4,172.7 		"/>
		<polygon class="st66" points="273.3,133.1 610.7,279.7 516.7,346.6 206,172.9 		"/>
		<polygon class="st67" points="274.3,133.4 610.7,279.5 516.8,346.3 206.7,173.1 		"/>
		<polygon class="st68" points="275.4,133.6 610.6,279.3 516.8,346 207.3,173.3 		"/>
		<polygon class="st69" points="276.5,133.9 610.6,279 516.8,345.7 207.9,173.4 		"/>
		<polygon class="st70" points="277.6,134.2 610.5,278.8 516.9,345.3 208.5,173.6 		"/>
		<polygon class="st71" points="278.7,134.5 610.5,278.5 516.9,345 209.1,173.8 		"/>
		<polygon class="st72" points="279.8,134.8 610.4,278.3 516.9,344.7 209.7,173.9 		"/>
		<polygon class="st73" points="280.8,135 610.4,278 517,344.4 210.3,174.1 		"/>
		<polygon class="st74" points="281.9,135.3 610.4,277.8 517,344 210.9,174.3 		"/>
		<polygon class="st75" points="283,135.6 610.3,277.6 517,343.7 211.6,174.5 		"/>
		<polygon class="st76" points="284.1,135.9 610.3,277.3 517.1,343.4 212.2,174.6 		"/>
		<polygon class="st77" points="285.2,136.2 610.2,277.1 517.1,343.1 212.8,174.8 		"/>
		<polygon class="st78" points="286.3,136.4 610.2,276.8 517.1,342.8 213.4,175 		"/>
		<polygon class="st79" points="287.4,136.7 610.1,276.6 517.2,342.4 214,175.1 		"/>
		<polygon class="st80" points="288.4,137 610.1,276.3 517.2,342.1 214.6,175.3 		"/>
	</g>
	<g>
		<polygon class="st0" points="510,201.2 591.8,270.6 92.4,439.3 20,343.2 		"/>
		<polygon class="st1" points="509.2,200.6 590.8,269.8 92.3,438.8 20,343.2 		"/>
		<polygon class="st2" points="508.4,200 589.8,269 92.1,438.4 20,343.2 		"/>
		<polygon class="st3" points="507.6,199.3 588.8,268.2 92,437.9 20,343.2 		"/>
		<polygon class="st4" points="506.9,198.7 587.8,267.4 91.8,437.5 20,343.2 		"/>
		<polygon class="st5" points="506.1,198.1 586.8,266.6 91.6,437.1 20,343.2 		"/>
		<polygon class="st6" points="505.3,197.5 585.8,265.8 91.5,436.6 20,343.2 		"/>
		<polygon class="st7" points="504.5,196.9 584.8,265 91.3,436.2 20,343.2 		"/>
		<polygon class="st8" points="503.8,196.3 583.8,264.2 91.1,435.8 20,343.2 		"/>
		<polygon class="st9" points="503,195.7 582.9,263.4 91,435.3 20,343.1 		"/>
		<polygon class="st10" points="502.2,195.1 581.9,262.6 90.8,434.9 20,343.1 		"/>
		<polygon class="st11" points="501.4,194.5 580.9,261.9 90.6,434.5 20,343.1 		"/>
		<polygon class="st12" points="500.7,193.9 579.9,261.1 90.5,434 20,343.1 		"/>
		<polygon class="st13" points="499.9,193.3 578.9,260.3 90.3,433.6 20,343.1 		"/>
		<polygon class="st14" points="499.1,192.7 577.9,259.5 90.1,433.1 20,343.1 		"/>
		<polygon class="st15" points="498.3,192.1 576.9,258.7 90,432.7 20,343.1 		"/>
		<polygon class="st16" points="497.6,191.5 575.9,257.9 89.8,432.3 20,343.1 		"/>
		<polygon class="st17" points="496.8,190.8 574.9,257.1 89.6,431.8 20,343.1 		"/>
		<polygon class="st18" points="496,190.2 573.9,256.3 89.5,431.4 20,343.1 		"/>
		<polygon class="st19" points="495.2,189.6 573,255.5 89.3,431 20,343 		"/>
		<polygon class="st20" points="494.5,189 572,254.7 89.2,430.5 20,343 		"/>
		<polygon class="st21" points="493.7,188.4 571,253.9 89,430.1 20,343 		"/>
		<polygon class="st22" points="492.9,187.8 570,253.1 88.8,429.6 20,343 		"/>
		<polygon class="st23" points="492.1,187.2 569,252.3 88.7,429.2 20,343 		"/>
		<polygon class="st24" points="491.4,186.6 568,251.5 88.5,428.8 20,343 		"/>
		<polygon class="st25" points="490.6,186 567,250.8 88.3,428.3 20,343 		"/>
		<polygon class="st26" points="489.8,185.4 566,250 88.2,427.9 20,343 		"/>
		<polygon class="st27" points="489,184.8 565,249.2 88,427.5 20,343 		"/>
		<polygon class="st28" points="488.3,184.2 564,248.4 87.8,427 20,342.9 		"/>
		<polygon class="st29" points="487.5,183.6 563.1,247.6 87.7,426.6 20,342.9 		"/>
		<polygon class="st30" points="486.7,183 562.1,246.8 87.5,426.1 20,342.9 		"/>
		<polygon class="st31" points="485.9,182.3 561.1,246 87.3,425.7 20,342.9 		"/>
		<polygon class="st32" points="485.2,181.7 560.1,245.2 87.2,425.3 20,342.9 		"/>
		<polygon class="st33" points="484.4,181.1 559.1,244.4 87,424.8 20,342.9 		"/>
		<polygon class="st34" points="483.6,180.5 558.1,243.6 86.8,424.4 20,342.9 		"/>
		<polygon class="st35" points="482.8,179.9 557.1,242.8 86.7,424 20,342.9 		"/>
		<polygon class="st36" points="482,179.3 556.1,242 86.5,423.5 20,342.9 		"/>
		<polygon class="st37" points="481.3,178.7 555.1,241.2 86.4,423.1 20,342.8 		"/>
		<polygon class="st38" points="480.5,178.1 554.1,240.4 86.2,422.6 20,342.8 		"/>
		<polygon class="st39" points="479.7,177.5 553.2,239.7 86,422.2 20,342.8 		"/>
		<polygon class="st40" points="478.9,176.9 552.2,238.9 85.9,421.8 20,342.8 		"/>
		<polygon class="st40" points="478.2,176.3 551.2,238.1 85.7,421.3 20,342.8 		"/>
		<polygon class="st41" points="477.4,175.7 550.2,237.3 85.5,420.9 20,342.8 		"/>
		<polygon class="st42" points="476.6,175.1 549.2,236.5 85.4,420.5 20,342.8 		"/>
		<polygon class="st43" points="475.8,174.4 548.2,235.7 85.2,420 20,342.8 		"/>
		<polygon class="st44" points="475.1,173.8 547.2,234.9 85,419.6 20,342.8 		"/>
		<polygon class="st45" points="474.3,173.2 546.2,234.1 84.9,419.1 20,342.7 		"/>
		<polygon class="st46" points="473.5,172.6 545.2,233.3 84.7,418.7 20,342.7 		"/>
		<polygon class="st47" points="472.7,172 544.2,232.5 84.5,418.3 20,342.7 		"/>
		<polygon class="st48" points="472,171.4 543.3,231.7 84.4,417.8 20,342.7 		"/>
		<polygon class="st49" points="471.2,170.8 542.3,230.9 84.2,417.4 20,342.7 		"/>
		<polygon class="st50" points="470.4,170.2 541.3,230.1 84,417 20,342.7 		"/>
		<polygon class="st51" points="469.6,169.6 540.3,229.3 83.9,416.5 20,342.7 		"/>
		<polygon class="st52" points="468.9,169 539.3,228.6 83.7,416.1 20,342.7 		"/>
		<polygon class="st53" points="468.1,168.4 538.3,227.8 83.6,415.6 20,342.7 		"/>
		<polygon class="st54" points="467.3,167.8 537.3,227 83.4,415.2 20,342.6 		"/>
		<polygon class="st55" points="466.5,167.2 536.3,226.2 83.2,414.8 20,342.6 		"/>
		<polygon class="st56" points="465.8,166.6 535.3,225.4 83.1,414.3 20,342.6 		"/>
		<polygon class="st57" points="465,165.9 534.3,224.6 82.9,413.9 20,342.6 		"/>
		<polygon class="st58" points="464.2,165.3 533.4,223.8 82.7,413.5 20,342.6 		"/>
		<polygon class="st59" points="463.4,164.7 532.4,223 82.6,413 20,342.6 		"/>
		<polygon class="st60" points="462.7,164.1 531.4,222.2 82.4,412.6 20,342.6 		"/>
		<polygon class="st61" points="461.9,163.5 530.4,221.4 82.2,412.1 20,342.6 		"/>
		<polygon class="st62" points="461.1,162.9 529.4,220.6 82.1,411.7 20,342.6 		"/>
		<polygon class="st63" points="460.3,162.3 528.4,219.8 81.9,411.3 20,342.5 		"/>
		<polygon class="st64" points="459.6,161.7 527.4,219 81.7,410.8 20,342.5 		"/>
		<polygon class="st65" points="458.8,161.1 526.4,218.2 81.6,410.4 20,342.5 		"/>
		<polygon class="st66" points="458,160.5 525.4,217.5 81.4,410 20,342.5 		"/>
		<polygon class="st67" points="457.2,159.9 524.4,216.7 81.2,409.5 20,342.5 		"/>
		<polygon class="st68" points="456.5,159.3 523.5,215.9 81.1,409.1 20,342.5 		"/>
		<polygon class="st69" points="455.7,158.7 522.5,215.1 80.9,408.6 20,342.5 		"/>
		<polygon class="st70" points="454.9,158 521.5,214.3 80.7,408.2 20,342.5 		"/>
		<polygon class="st71" points="454.1,157.4 520.5,213.5 80.6,407.8 20,342.5 		"/>
		<polygon class="st72" points="453.4,156.8 519.5,212.7 80.4,407.3 20,342.4 		"/>
		<polygon class="st73" points="452.6,156.2 518.5,211.9 80.3,406.9 20,342.4 		"/>
		<polygon class="st74" points="451.8,155.6 517.5,211.1 80.1,406.5 20,342.4 		"/>
		<polygon class="st75" points="451,155 516.5,210.3 79.9,406 20,342.4 		"/>
		<polygon class="st76" points="450.3,154.4 515.5,209.5 79.8,405.6 20,342.4 		"/>
		<polygon class="st77" points="449.5,153.8 514.5,208.7 79.6,405.1 20,342.4 		"/>
		<polygon class="st78" points="448.7,153.2 513.6,207.9 79.4,404.7 20,342.4 		"/>
		<polygon class="st79" points="447.9,152.6 512.6,207.1 79.3,404.3 20,342.4 		"/>
		<polygon class="st80" points="447.1,152 511.6,206.4 79.1,403.8 20,342.4 		"/>
	</g>
	<linearGradient id="SVGID_1_" gradientUnits="userSpaceOnUse" x1="371.31" y1="519.331" x2="799.8614" y2="-27.3721">
		<stop  offset="0" style="stop-color:#EFEFEF"/>
		<stop  offset="7.000000e-02" style="stop-color:#C9C8C8"/>
		<stop  offset="0.17" style="stop-color:#6B6966"/>
		<stop  offset="0.2747" style="stop-color:#979695"/>
		<stop  offset="0.283" style="stop-color:#9C9B9B"/>
		<stop  offset="0.3358" style="stop-color:#BBBABA"/>
		<stop  offset="0.3872" style="stop-color:#D0D0D0"/>
		<stop  offset="0.4362" style="stop-color:#DEDDDD"/>
		<stop  offset="0.48" style="stop-color:#E2E2E2"/>
		<stop  offset="0.5458" style="stop-color:#C4C4C3"/>
		<stop  offset="0.63" style="stop-color:#A3A3A2"/>
		<stop  offset="0.6758" style="stop-color:#979695"/>
		<stop  offset="0.81" style="stop-color:#6B6966"/>
		<stop  offset="0.8889" style="stop-color:#6D6B68"/>
		<stop  offset="0.9245" style="stop-color:#74726F"/>
		<stop  offset="0.9514" style="stop-color:#807E7C"/>
		<stop  offset="0.9739" style="stop-color:#90908E"/>
		<stop  offset="0.9935" style="stop-color:#A6A6A5"/>
		<stop  offset="1" style="stop-color:#AFAFAF"/>
	</linearGradient>
	<polygon class="st81" points="519.8,353.8 508,259.3 586.6,209 625,281.4 	"/>
	<linearGradient id="SVGID_2_" gradientUnits="userSpaceOnUse" x1="33.1988" y1="120.005" x2="970.4056" y2="408.3758">
		<stop  offset="0" style="stop-color:#EFEFEF"/>
		<stop  offset="7.000000e-02" style="stop-color:#C9C8C8"/>
		<stop  offset="0.17" style="stop-color:#6B6966"/>
		<stop  offset="0.2747" style="stop-color:#979695"/>
		<stop  offset="0.283" style="stop-color:#9C9B9B"/>
		<stop  offset="0.3358" style="stop-color:#BBBABA"/>
		<stop  offset="0.3872" style="stop-color:#D0D0D0"/>
		<stop  offset="0.4362" style="stop-color:#DEDDDD"/>
		<stop  offset="0.48" style="stop-color:#E2E2E2"/>
		<stop  offset="0.5458" style="stop-color:#C4C4C3"/>
		<stop  offset="0.63" style="stop-color:#A3A3A2"/>
		<stop  offset="0.6758" style="stop-color:#979695"/>
		<stop  offset="0.81" style="stop-color:#6B6966"/>
		<stop  offset="1" style="stop-color:#AFAFAF"/>
	</linearGradient>
	<polygon class="st82" points="190.6,84.3 508,259.3 519.8,353.8 156.3,147 	"/>
	<linearGradient id="SVGID_3_" gradientUnits="userSpaceOnUse" x1="-59.2748" y1="-76.0269" x2="597.5682" y2="258.403">
		<stop  offset="0" style="stop-color:#EFEFEF"/>
		<stop  offset="7.000000e-02" style="stop-color:#C9C8C8"/>
		<stop  offset="0.17" style="stop-color:#6B6966"/>
		<stop  offset="0.2747" style="stop-color:#979695"/>
		<stop  offset="0.283" style="stop-color:#9C9B9B"/>
		<stop  offset="0.3358" style="stop-color:#BBBABA"/>
		<stop  offset="0.3872" style="stop-color:#D0D0D0"/>
		<stop  offset="0.4362" style="stop-color:#DEDDDD"/>
		<stop  offset="0.48" style="stop-color:#E2E2E2"/>
		<stop  offset="0.5458" style="stop-color:#C4C4C3"/>
		<stop  offset="0.63" style="stop-color:#A3A3A2"/>
		<stop  offset="0.6758" style="stop-color:#979695"/>
		<stop  offset="0.81" style="stop-color:#6B6966"/>
		<stop  offset="1" style="stop-color:#AFAFAF"/>
	</linearGradient>
	<polygon class="st83" points="268,44.1 586.6,209 508,259.3 190.6,84.3 	"/>
	<linearGradient id="SVGID_4_" gradientUnits="userSpaceOnUse" x1="352.0726" y1="369.0617" x2="137.933" y2="-49.3246">
		<stop  offset="7.000000e-02" style="stop-color:#EFEFEF"/>
		<stop  offset="0.185" style="stop-color:#6B6966"/>
		<stop  offset="0.325" style="stop-color:#E2E2E2"/>
		<stop  offset="0.45" style="stop-color:#E2E2E2"/>
		<stop  offset="0.5053" style="stop-color:#CCCBCB"/>
		<stop  offset="0.6468" style="stop-color:#989695"/>
		<stop  offset="0.7526" style="stop-color:#777573"/>
		<stop  offset="0.81" style="stop-color:#6B6966"/>
		<stop  offset="1" style="stop-color:#AFAFAF"/>
	</linearGradient>
	<polygon class="st84" points="87.1,333.7 481.4,94.9 530.4,151.1 90.1,423.6 	"/>
	<linearGradient id="SVGID_5_" gradientUnits="userSpaceOnUse" x1="163.7348" y1="503.1891" x2="-121.7593" y2="77.6076">
		<stop  offset="0" style="stop-color:#EFEFEF"/>
		<stop  offset="7.000000e-02" style="stop-color:#C9C8C8"/>
		<stop  offset="0.17" style="stop-color:#6B6966"/>
		<stop  offset="0.2747" style="stop-color:#979695"/>
		<stop  offset="0.2817" style="stop-color:#9C9B9B"/>
		<stop  offset="0.3263" style="stop-color:#BBBABA"/>
		<stop  offset="0.3698" style="stop-color:#D0D0D0"/>
		<stop  offset="0.4111" style="stop-color:#DEDDDD"/>
		<stop  offset="0.4481" style="stop-color:#E2E2E2"/>
		<stop  offset="0.5247" style="stop-color:#C4C4C3"/>
		<stop  offset="0.6225" style="stop-color:#A3A3A2"/>
		<stop  offset="0.6758" style="stop-color:#979695"/>
		<stop  offset="0.81" style="stop-color:#6B6966"/>
		<stop  offset="1" style="stop-color:#AFAFAF"/>
	</linearGradient>
	<polygon class="st85" points="28,272.3 87.1,333.7 90.1,423.6 15,336.7 	"/>
	<linearGradient id="SVGID_6_" gradientUnits="userSpaceOnUse" x1="-190.3848" y1="442.2184" x2="519.6443" y2="32.8626">
		<stop  offset="0" style="stop-color:#EFEFEF"/>
		<stop  offset="7.000000e-02" style="stop-color:#C9C8C8"/>
		<stop  offset="0.17" style="stop-color:#6B6966"/>
		<stop  offset="0.2747" style="stop-color:#979695"/>
		<stop  offset="0.283" style="stop-color:#9C9B9B"/>
		<stop  offset="0.3358" style="stop-color:#BBBABA"/>
		<stop  offset="0.3872" style="stop-color:#D0D0D0"/>
		<stop  offset="0.4362" style="stop-color:#DEDDDD"/>
		<stop  offset="0.48" style="stop-color:#E2E2E2"/>
		<stop  offset="0.5458" style="stop-color:#C4C4C3"/>
		<stop  offset="0.63" style="stop-color:#A3A3A2"/>
		<stop  offset="0.6758" style="stop-color:#979695"/>
		<stop  offset="0.81" style="stop-color:#6B6966"/>
		<stop  offset="0.8889" style="stop-color:#6D6B68"/>
		<stop  offset="0.9245" style="stop-color:#74726F"/>
		<stop  offset="0.9514" style="stop-color:#807E7C"/>
		<stop  offset="0.9739" style="stop-color:#90908E"/>
		<stop  offset="0.9935" style="stop-color:#A6A6A5"/>
		<stop  offset="1" style="stop-color:#AFAFAF"/>
	</linearGradient>
	<polygon class="st86" points="416.9,40.6 481.4,94.9 87.1,333.7 28,272.3 	"/>
	<polygon class="st87" points="489.5,177.4 512.5,202 440.9,226.8 396.3,284 356,260 	"/>
</g>
</svg>
