<?xml version="1.0" encoding="utf-8"?>
<!-- Generator: Adobe Illustrator 21.1.0, SVG Export Plug-In . SVG Version: 6.00 Build 0)  -->
<svg version="1.1" id="Layer_1" xmlns="http://www.w3.org/2000/svg" xmlns:xlink="http://www.w3.org/1999/xlink" x="0px" y="0px"
	 viewBox="0 0 640 480" style="enable-background:new 0 0 640 480;" xml:space="preserve">
<g>
	<path d="M559.9,215.3c0,33.1-30.7,47.2-72,49.6l-85,1.2c-13-9.5-37.8-29.5-37.8-29.5c39,0,75.5,0,114.5-1.2
		c13-1.2,24.8-5.9,30.7-16.5c7.1-10.6,7.1-26,1.2-36.6c-10.6-23.6-33-36.6-56.7-47.2c-53.1-24.8-134.6-46-237.3-47.2
		c-29.5,0-59,2.4-86.2,13c-10.6,4.7-22.4,13-22.4,26c1.2,15.3,10.6,29.5,17.7,42.5c0,0,112.1,205.4,125.1,230.2h-80.3
		C160.9,371.1,83,153.9,83,153.9c-4.7-13-4.7-31.9,7.1-42.5c17.7-20.1,44.8-23.6,70.8-28.3c103.9-9.5,226.7,7.1,328.2,53.1
		C542.2,158.6,559.9,187,559.9,215.3L559.9,215.3z"/>
	<path d="M458.4,399.5l-38.9-36.6L198.7,150.4c-15.3-15.3-7.1-26,18.9-30.7c61.4-10.6,164.1,8.3,186.5,37.8
		c13,17.7-5.9,30.7-31.9,30.7l-72,1.2c-8.3-7.1-11.8-9.5-18.9-14.2c26,0,47.2,0,74.4-1.2c9.4,0,14.2-8.3,11.8-16.5
		c-4.7-11.8-16.5-16.5-29.5-20.1c-32.3-10.8-66.6-14.1-100.3-9.5c-13,3.5-16.5,9.5-5.9,18.9c0,0,312.8,249.1,316.4,252.6
		L458.4,399.5L458.4,399.5L458.4,399.5z"/>
	<path d="M471.4,208.2c-16.5,14.2-39,10.6-60.2,11.8c0,0-61.4,1.2-68.5,1.2c-9.4-7.1-26-20.1-26-20.1l79.1-1.2
		c38.9,0,47.2-23.6,37.8-37.8c-24.8-37.8-115.7-51.9-168.8-56.7c-22.4,0-41.3,0-63.7,3.5c-14.2,3.5-30.7,5.9-35.4,22.4
		c-1.2,4.7-1.2,7.1,3.5,13c16.5,18.9,233.7,255,233.7,255h-93.3c0,0-120.4-175.9-138.1-203.1l-31.9-44.9
		c-4.7-7.1-11.8-16.5-7.1-27.1c9.5-20.1,31.9-22.4,53.1-26c86.2-9.4,196,11.8,260.9,46c16.5,9.5,30.7,21.3,33.1,40.1
		C479.7,192.9,478.5,202.3,471.4,208.2z"/>
</g>
</svg>
