<?xml version="1.0" encoding="utf-8"?>
<!-- Generator: Adobe Illustrator 21.0.2, SVG Export Plug-In . SVG Version: 6.00 Build 0)  -->
<svg version="1.1" id="Layer_1" xmlns="http://www.w3.org/2000/svg" xmlns:xlink="http://www.w3.org/1999/xlink" x="0px" y="0px"
	 viewBox="0 0 640 480" style="enable-background:new 0 0 640 480;" xml:space="preserve">
<style type="text/css">
	.st0{stroke:#000000;stroke-width:9.000000e-02;}
	.st1{stroke:#FFFFFF;stroke-width:5.400000e-02;}
	.st2{stroke:#FFFFFF;stroke-width:1.800000e-02;}
	.st3{fill:#FFFFFF;}
	.st4{stroke:#FFFFFF;stroke-width:9.000000e-02;}
</style>
<g>
	<path d="M265.4,33.4c2.2,20.3-20.2,31.7-18.7,52.3c1,10.5,7.2,20,17.4,23.8c11.4,4.5,27.1,6.8,31.2,20.6c0.7,3.7-0.1,7.5-2.7,9.8
		c-3.2,2.7-7.5,4.2-12,2.9c-8.4-2.9-8.9-12.5-12.4-19.3v-1.6c10.8-0.4,10.1,17.3,21.5,14.3c1.6-0.7,2.9-2.3,2.9-4
		c-3.2-16.7-23.2-14.5-35.4-20.2c-7.3-2.7-13-9.5-14-17.3c-4.9-22.7,15.7-36,17.6-56.6c0.1-5.5-1.7-10.8-3.9-15.7
		C261.3,24.2,263.6,29,265.4,33.4L265.4,33.4z"/>
	<path d="M296,36.5l-1.2-1l-0.4,0.4c-4.5,17.4-8.2,35.1-12.2,52.7c-0.9,0.9-0.9,3-2.6,2.4c-22.3-14.8-1.9-42.9-10.7-63.6
		c-4-7.8-12.5-13.5-20.9-15.7c-12-3.9-25.2-0.4-34,7.1c-2.9,3.7-8.2,8.2-5,13.1c8.2,2.6,20-5.8,26.4,3.7c7.2,14-3.5,26.6-6.2,39.5
		c-1.4,3.2-0.7,7.2-2.4,10.2c-6.6-0.3-12.4-4.3-19.2-5v0.6C213,84.6,218.6,87,224,90c4.8,1.4,2.9,6.8,4.3,10.1
		c4.5,23.3,39.7,21,38.6,47.8c0.1,0.6,0.3,1.6,1.3,1.3c2.3-4,0.4-9.5-0.3-13.8c-3.9-13-17.6-18.9-26.1-28.5
		C222.6,77.2,261.6,56.8,252,27c-2.4-7.2-9.8-11.1-16.6-12.8c8.8-1.3,18.3,0.3,24.6,6.6c15.5,12,4.8,33.3,5.8,49.7
		c-0.4,19,18,28.4,32,36.1c3.6,2.6,6.3,6.3,9.9,8.9l0.4-0.7C304.5,88.9,300.6,62.4,296,36.5L296,36.5z M225.6,27.3
		c-4.5,0.3-8.8,2.2-13.2,1.7c-0.7-2.2,1.3-3.5,2.4-4.6c3-3.2,7.8-2.6,12-2.3c3,1.2,6.6,2,7.9,5.3C231.8,28.4,228.9,26.5,225.6,27.3
		L225.6,27.3z M443.8,45.1c7.2,14.1,2,31-4.3,43.8l0.4,0.4l24.6-13.4l1.2,0.3l-1.3,2.7L412.2,146c-4.9,5.5-10.5,13.2-18,13.5
		l-0.3-0.1c8.4-5.8,16.3-14.7,18.9-24.9c2.2-16.1,8.3-31.1,19.7-43.1c9.5-11.4,15.6-26.2,10.2-41.5c-3.2-9.4-11.4-16.6-20.7-18.1
		c3.6,3.6,9.5,6.5,11.7,11.8c2.9,5.8,2.6,14-1.6,19c-13.1,16-42.6,11.5-44.9,37.4c0.1,14.8-0.7,31.4-15.5,37.6
		c-5.6,2.6-10.8,6.3-16.8,7.5l-0.7-0.9c1.7-4.8,5.2-7.6,8.9-11.5c-0.3-0.1-0.3-0.4-0.3-0.7c4.5-1.9,6.6-5.8,10.1-9.2
		c9.4-13.7,2.6-35.3,19.4-44.5l2.4-2.4l0.3-18.3h0.6l3.6,16l1.6,0.4c9.9-3.3,23.9-7.9,25.1-20.7c-0.9-8.8-10.4-12.2-11.8-20.7
		c-0.1-2.2,1.9-3.5,3.6-4C428.4,28.3,439.2,35.2,443.8,45.1L443.8,45.1z"/>
	<path class="st0" d="M390.2,38.9c-8.5,7.9-15.7,18-23.9,26.5l-1.3,0.1c-5-4.8-9.4-10.8-11.5-17.3c-3.3-9.5-1.6-20.9,6.2-27.5
		c3.9-5.2,13.2-6.3,12.1-14.3C361.8-4,343.5-0.5,333.5,8c-24.2,20.4,6.5,51.1-11.8,73.3c-4-5.2-6.2-11.7-9.9-17.3h-0.9l6.2,18
		c2.9,3.9,1.3,9.1-1.2,12.7c-5.8,13.5-6.9,33.6,3.6,45.2c3.5,3.7,8.8,7.6,14.5,5.8c1.7-0.6,3.2-2,3.2-4c-0.7-5.8-4.8,1.3-7.8-0.9
		c-3.3-1.2-5.5-3.9-7.3-6.8c-2.7-5.6-4.2-14.7-0.4-20c1,2.2,1.2,4.9,1.9,7.3c1.2,4.2,2.6,8.9,6.3,11.2
		c-10.1-18.7,2.7-36.7,14.7-50.1c13.2-22.8-13.7-40-5.2-63.6c3.5-8.3,12.1-13,20.7-14c3.2,0.3,6.8,0,8.6,2.9
		c0.6,1.3-0.6,2.4-1.6,3.3c-7.5,4.3-16.8,7.6-20.2,16.8c-2.6,7.9-1.3,17.4,3,24c9.4,11.1,21,24.8,13.4,40
		c-7.1,10.9-15.7,25.6-7.1,38.6c0.9,0.6,1.4,0.3,2.2-0.6l31.5-87.3l0.6-3.7L390.2,38.9L390.2,38.9z M342,57.9c3,3.9,2.7,12.1,2.2,17
		c-4.2,12-15.1,17.7-22.6,27.1C327,87.2,339.5,74.3,342,57.9L342,57.9z"/>
	<path d="M438.4,65.6c-9.9,16.6-35.6,19.3-38.9,40.3c-0.7,14.4,1.4,31.1-12.4,38.9c-5,3-10.4,6.3-16.4,4.9v-0.7
		c11.2-4.9,20.9-16,20.7-28.9c-1.3-15,2-30.2,15.8-36.9c11.1-5.2,23.2-9.9,31.2-20.4C439.6,63.4,438.4,64.7,438.4,65.6z M358.5,74.1
		c2.6,23.5-32.5,36.4-15.7,60.8v0.4c-6.9-3.6-10.1-12-9.4-20.2c1.6-17.7,22-27.6,22.6-45.8C357.9,69.9,357.9,72.3,358.5,74.1
		L358.5,74.1z M255.9,72.5c-1.3,10.7,2.7,20.9,11.1,26.6c15.1,7.5,32.7,15.4,39.6,32.5c0.1,1.2,1.2,1.7,0.7,2.9
		c-0.3,0.4-0.9,0.1-1.3,0.3c-7.2-17.7-25.3-25.2-41.9-30.4c-6.8-2.9-11.5-9.6-12.5-16.7c-0.7-5.9,0.1-11.5,3.6-16L255.9,72.5
		L255.9,72.5z"/>
	<path d="M437.9,75.1c-0.3,3-2,6-4.2,8.5c-9.4,10.1-22.5,20-22.6,35.4c-2.4,14.5-10.7,31.1-26.4,34.7v-0.9c12-6,20-18.3,19.9-31.8
		c-0.6-13.5,4.6-25.6,16.3-32.5c6.2-4.6,10.9-8.8,16.4-13.4L437.9,75.1L437.9,75.1z M523.5,108.8c0.7,0.4,0.6,1.4,0.3,1.9
		c-5,1.4-10.1-1.7-15.5-0.7c-8.2,3-15.3,9.2-16,18.4c-0.9,8.3-1,17.3-2.4,25.1l0.9,0.9c8.8,0.4,17.9,0.1,26.4,1.2l-1.4,1.6
		l-81.2,35.4c-0.9,0-1.4,0.4-2.3,0.3c-0.7-0.9-0.1-2.3,0.4-3.2c9.1-13.1,27.5-10.2,39.6-19.3c13.7-9.5,17.4-26.4,16.6-43.2
		c1-8.2,7.5-15.4,14.8-18.7c0.4-0.7,1.3-1.2,1-2.2c-4.2-3.5-9.4-0.3-13.1,1.6l-5.2,3.7c-1.4-0.9,0.1-2.9,0.4-4.2
		c2.4-4.9,6.9-9.4,12.2-10.2C510,95.5,513.5,108,523.5,108.8L523.5,108.8z M349.2,109.5c-1.3,8.2-0.9,17.7,3.7,24.5
		c0,1-0.7,1.6-1.7,1.9c-5.3-2.3-7.5-8.2-7.8-14C343,117,345.2,112.3,349.2,109.5L349.2,109.5z"/>
	<path d="M518.5,98c-1.3-2.4-3.6-4.6-5.8-6c-7.3-6.2-19.6-5.3-27.8-1c-6.5,2.7-9.9,8.3-15.6,12.7c-1.3-2.7,0-6.5-1-9.4h-0.6
		c-2.6,6.9-3.3,14.7-4.8,22.2c-6.3,13.4-21.3,17.1-34.4,20.4c-14.7,4.2-16.4,20.4-28.9,28.4l-0.4,1.6c1.7,1.9,3.5,5.2,6.5,4.2
		c8.8-4.9,12.1-14.5,19.7-20.4c12.1-8.1,22.8,6,35.6,0.9c19.3-10.9,9.2-37.4,23.2-51.8c4.6-4.8,10.8-8.1,17.9-6.9
		c6,1,8.3,6.5,14.1,8.2C518.2,101.4,518.8,99.3,518.5,98L518.5,98z M457,141c0.4,2.2,5,2.4,3.3,5.5c-9.2,8.1-18.1-2.7-28.2-1.9
		c4.6-3.6,10.9-3.6,16-6.3c8.5-4.3,14.7-11.1,20-19.3l0.7,0.7C467.8,128,463.3,135.5,457,141z M208.8,134.8
		c4.8,12.4-1.4,30.2,12.2,37.9c3.3,2.3,7.3,3,11.7,2.9c0,2.6-3.5,3.7-5.5,4.9c-5.5,2.3-13,1.7-17.6-2c-11.5-8.5-7.8-25.2-6.2-37.7
		c0-7.2-2.9-13.7-8.6-18.4c1.4-0.6,2.6,0.6,4,0.7C203.4,125.6,206.9,129.9,208.8,134.8L208.8,134.8z"/>
	<path d="M216.8,145.5c3.7,8.8,10.4,18.4,20.6,20.3c1.3,0.6,0.3,1.9,0,2.3c-2.4,2-5.8,2.3-8.9,2.4c-5-0.1-8.6-4.2-10.8-8.5
		c-1.7-5-2.6-11.2-1.6-16.6H216.8L216.8,145.5z M479.2,146.3c-2.7,10.5-14,15.4-22.6,20.4c-0.9,1.2-2.3,2.4-1.3,4.2l1.9,2.2
		l-1.3,1.3c-9.6,3.5-20.6,5.3-27.1,15.4l-0.6,0.1c-1.2-2.2,0.7-4.6,1.7-6.8c2.7-4.8,7.6-8.8,10.4-13.4c1.2-2-1.3-3.5-0.4-5
		c14.7-2.2,30.4-4.9,38.9-18.4L479.2,146.3L479.2,146.3z M451.7,157.9c-3.3,1.7-8.1,0.9-11.8,2c-12,2.4-19.4,12.2-28.1,19.4
		c-1,0.3-1.7-0.3-2-1c1-5.3,5.2-8.9,8.4-13.1c6.6-7.3,16.6-11.2,27.4-9.1C447.5,156.7,450,156.6,451.7,157.9L451.7,157.9z
		 M337.9,159.4c-2.2,1.9-5.2,3.5-6,6.3c-0.3,2.7,1,4.3,3.2,5.6c2.9,0.7,1.6,5,5,5.3c10.8-0.3,19.4-11.7,30.7-4.9
		c2.7,1.9,5.3,3.9,9.1,2.4c0.7-0.7,1.6-2,2.6-1.3c1.2,1,0.9,3,0.3,4.2c-1.2,1.9-2.9,3.6-5.2,4.2c-10.1,2.2-16.6-8.6-26.8-4.2
		c-5.9,2.4-13.2,6.2-19.7,2.4c-3.9-2-4.6-6.2-4.6-10.2c0.7-5,4.3-8.6,9.2-10.2C336.6,159.3,337.1,158.9,337.9,159.4L337.9,159.4z
		 M287.1,160c-2.4,1.7-6,1.9-8.9,2.9c-3.7,2-9.4,4.3-9.9,9.4c0,1.9,1.6,3,3.2,3.6c6.2-0.9,13.2-2.3,19.3,0.1c6,3,14.4,3.5,19.7-1.7
		c1.2-0.1,1,1,1.3,1.7c0.1,3-2.3,5.8-4.6,7.2c-14.1,7.9-23.5-11.5-38-3.6c-5.2,2.4-10.7,6.5-16.8,3.6c-2.3-1.7-3.6-4.2-3.3-7.2
		c-0.1-1.2,0.7-2.3,1.9-2.4c0.1,0,0.2,0,0.2,0c9.8,1.4,14.4-10.1,22.9-12.5C277.9,159.4,282.9,158.3,287.1,160L287.1,160z
		 M392.1,175c0,3.3-2,6.5-4.7,8.2c0.6-3.2,1.3-6.3,2.9-9.2C391.1,174,391.8,174.1,392.1,175L392.1,175z M246.6,188.7
		c-0.1,1.4-1.4,0.1-2.2,0.3c-2.7-2.3-5.8-3.7-6.2-7.6c0.7-0.7,2-0.4,2.9-0.1C243.9,183.1,245.5,185.8,246.6,188.7L246.6,188.7z
		 M413.8,187.8c0,2.3-2.6,2.9-4,4c-5.8,2.2-12,4.3-18.3,3.7c-0.6-0.6-1.6-1.3-0.9-2.3c6.9-1.9,14.1-3,20.4-6.6
		C412.1,186.7,413.4,186.5,413.8,187.8z"/>
	<path class="st1" d="M361.8,180.7c-6.2-2.2-12.7,0.4-16.4,4.6c-5.2,5.8-3.6,15.7-0.4,21.9h2c10.8-4.5,22.9-7.1,31.5-15.7V190
		C372.5,187.9,367.7,182.8,361.8,180.7L361.8,180.7z M355.2,200.5c-1.9,0.4-3.5-0.7-4.9-1.9c-1.9-2-2.7-4.5-2.7-7.2
		c0.3-1.9,1.2-3.7,2.7-4.5c2.3,3,1.9,7.1,3.7,10.2C354.5,198.2,355.6,199,355.2,200.5z M363.9,196.9c-0.4,0.1-0.9,0.9-1.3,0.3
		c-1.7-3.9-2.7-8.1-5.2-11.5c0.1-0.7-0.3-1.7,0.7-1.6c2.6,0.1,4.6,2,5.9,4.2C365.3,190.8,365.6,194.4,363.9,196.9L363.9,196.9z"/>
	<path class="st2" d="M288.8,189.5c-1.9-3.5-4.2-6-7.8-7.5c-8.8-3.7-16.1,3.2-22.6,8.2c-2,1.7-5.5,1.4-6.6,4
		c9.5,10.7,25.5,7.5,36.6,15l1.3-1C289.4,202.1,292.4,195,288.8,189.5L288.8,189.5z M270.7,194.4c-0.7,1.3-0.1,4.3-2.3,3.7
		c-2.3-3-2-7.2-0.1-10.4c1.4-1.7,3.7-3.9,6.5-3.2C274.3,188.1,271.6,191,270.7,194.4L270.7,194.4z M281.5,199.6
		c-1.3,0.7-2.4,2-4.3,1.7c0.9-4.5,3.5-8.9,4.3-13.8c1.4,0,1.7,1.7,2.4,2.4C285.1,193.4,284.1,197,281.5,199.6z"/>
	<path d="M239.2,194.9c-0.6,2-3,1.9-5,1.9c-1.9-0.3-3.7-0.4-5.2-1.6c-0.3-1.4,1.3-2,2.3-2.3C233.8,193.6,236.9,193.3,239.2,194.9z"
		/>
	<path class="st3" d="M494.7,202.1c0.7,3-0.1,6-1.7,8.4c-9.9,7.8-17.1,21.2-29.9,24.6l-1.2-0.4c14-7.5,15.3-23.6,24.3-34.8
		c1.3-0.9,2.6-1.7,4.3-2C492.9,197.9,494.2,200,494.7,202.1L494.7,202.1z"/>
	<path d="M240,204.7c-4.8,5.5-12.5,6.9-19.7,6.5c-0.9-0.6-0.1-1.6,0-2.3l2-1.3c5.9-0.4,11.7-1.5,17.3-3.3L240,204.7z M414.8,209.5
		c0.7,0.3,1,0.7,1.3,1.3c0.4,1.6-1.3,2.6-2.3,2.7c-9.9,1-18.6-1.9-25.8-7.8l-0.3-1.4C395.8,208.5,404.7,211,414.8,209.5L414.8,209.5
		z"/>
	<path class="st3" d="M254.4,224.8c0.6,2.6,2.4,4.6,3.6,6.9c-1,1-3,0.9-4.2,0.1c-4.6-2.7-3.5-9.2-2.7-13.7l1.2-2.9
		C254,217.8,253.4,221.8,254.4,224.8L254.4,224.8z"/>
	<path d="M451.3,272.3c6.2,8.6,15.8,15.5,27.2,12.4c8.8-3,16.3-8.9,25.1-11.8l-0.6,1.4c-12.7,8.8-25.1,22.9-42.3,16.6
		c-18.1-8.4-26.4-29.2-38.6-44.3c-7.6-9.9-18.4-18.6-31.8-19.3c-0.9-0.4-0.9-1.7-0.1-2.2c10.4-2.4,20.3,1.7,28.8,6.6
		C432.1,241.8,441.7,258.2,451.3,272.3L451.3,272.3z M345.9,250.6c-0.1,3.2-3.5,5.2-5.8,6.9c-3.6,1.7-6.9,4.5-10.8,5.3
		c-0.7-1.3-2.4-2.7-1.2-4.3C333.6,254.6,339.7,252.3,345.9,250.6L345.9,250.6z M347.1,258.5c-1.9,7.3-9.9,9.1-16.1,10.7
		c-1-0.7,0-1.7,0.4-2.4c3.5-5.6,10.1-5.6,15.1-8.8L347.1,258.5L347.1,258.5z M385.2,331.4c10.9,21,9.1,48.5,29.7,64.2
		c7.5,6,21.6,8.8,22,20.7c-6.3-13-22.6-11.7-31.8-20.9c-8.6-7.9-11.8-18.4-15.7-28.4c-5.3-15.6-7.9-32.1-14-47.2
		c0.9-0.3,1.9,0.3,2.4,1L385.2,331.4L385.2,331.4z M365.1,392.7c1.6,2.6,1.6,6.3,0.3,8.9c-1.3,2.4-3.6,5.3-6.5,5
		c2.4-5.5,1.7-12.2-0.3-17.9C361.5,387.7,363.7,390.8,365.1,392.7z"/>
	<path class="st4" d="M500.6,217.5c10.1,4.5,19.6,11.7,32,9.2c9.8-2.6,16.4-10.7,19.2-20c4.2-14.1-0.4-29.2-11.5-38.2
		c-1.2-0.3-3.2-1.4-3.9,0.4c0.4,4,1.9,7.9,1.4,12c-0.4,5.3-4.8,9.4-9.4,11.4c-10.9,4-20-4.5-27.5-10.7c1.2-4.6,6.2-7.5,7.5-12
		c-4,2.3-6.2,5.8-10.2,9.1l-1.7,0.6c-13.7-5.3-27.2,1.3-36.9,10.2c-7.5,8.5-19,9.6-30.1,8.5l-1.2,0.9c9.6,1.6,16.6,9.9,26.2,11.4
		c1.9,1,5-1.4,5.8,1.3c-0.9,2-3.3,3.2-5.5,3.3c-10.5-1.7-17-13.5-28.7-12.2c-1.2,0.6-4,1.2-2.9,3.2c15,1.7,20.6,24.6,37.9,18.6
		c9.6-7.5,5.8-21.7,11.8-31.2c3.3-5.6,9.2-8.5,15.3-9.4l0.3-0.6l-3.7-1.9c1.3-1.2,3.6-0.6,5.2-0.4c10.9,3.5,18.9,14.3,30.5,16
		c2.2,1.3,6.5-1,7.5,2c-3.2,3.9-9.5,1.2-13.5,0.4v0.7c4.5,3.7,10.1,6.5,16.6,5.3c5.8-0.9,10.8-5.6,12.1-11.4
		c1.7-6.2-0.4-12.8-0.7-18.9c4,4.2,5.6,9.2,7.1,14.4c2.2,11.7-2.2,23.2-10.8,29.5c-1.4,1-3.5,0.3-4.2-1.2c-0.6-3.3,3.9-4.8,5.8-7.5
		c0.6-0.9,1.4-2.6,0.4-3.2c-6,4.5-14.1,7.6-21.6,4.3c-10.7-3.7-16.1-13.4-26.6-17.1c-5.3-0.9-9.4,2.6-12,6.5
		c-5,10.9-8.6,27.6-22.8,29.7c-10.7,0.1-16.4-10.1-23.3-16c-8.8-6-17.7,1.9-26.5,3.2v0.4c4.9,0.9,9.5,1.9,13.8,4
		c20.6,10.4,25.1,34.1,41,48.4c6.5,5.6,16.3,7.1,24.6,4.3c16.1-5.5,39.7-14,53.7,1c7.8,9.1,7.9,24.9,2.4,35.1
		c-0.7,0.7-1.9,1.4-2.7,0.6c0.6-9.2,4.6-18.3,0.9-27.4c-2.2-6.3-7.5-11.1-14.1-12.4c-26.8-3.6-37.6,29.5-63.9,27.5
		c-24.5-5.3-35.3-29.1-49.2-47.5c-7.8-9.1-17.9-20-31.2-19.4c-1.7,1.3-5.2,2.6-4.5,5.3c20.9,11.4,27.2,35.7,39.9,53.6
		c10.7,15,27.1,19.3,43.5,22c18.9,3,16.8,24.6,21.2,38.6c2.4,7.2,7.1,16,15,18.4c0.3-1.7-2.3-3.2-2.2-4.9c7.1,4,15.8,5.2,24.5,4.2
		c0.4,0.4-0.1,1,0,1.6c-3.5,4.3-9.1,5.6-15,4.9c-3.5,2.9-8.9,2.2-12.5,0.4c-21.3-9.4-7.8-36.9-22-50.1c-13.4-7.6-30.5-5.9-43.1-15.5
		c-17.4-10.7-22.5-31.4-32.1-47.7c-5.6-9.1-12.1-18.9-22.6-21.2c26.5,17.3,23.8,50.8,44.3,72.4c12.7,16.4,38.9,5.8,51.3,23.6
		c6.2,12,5.8,26.6,15.3,37.1l-0.4,0.4c-16.3-7.6-14.7-27.2-29.4-36.4c-14.3-8.9-32.3,1.6-47.7-3.7c-18.4-10.5-18.6-33-19.4-53
		l0.4-0.3c3.9,12.7,4.5,26.6,9.8,38.6c4.3,7.5,11.7,15,21.2,14.3c1.2-0.1,2.9-0.1,2.9-1.2c-9.9-4.5-17.1-14.7-20.6-24.8
		c-6.2-22-8.9-48.2-30.5-61.3c-3-1.7-6.9-1.7-9.6-3.7c-0.9-3-1.9-6.5-0.9-9.8c1-4.9,7.8-3.5,8.5-8.8c0.9-1.3,2.7-1.7,2.9-3.3
		c-4.2-0.7-9.6-0.7-11.1-5.3c-1.3-6.3,5.3-9.5,8.8-13.5c-7,1.7-13.8,4.2-20.3,7.3c-1.4,1.7-6-0.1-4.9,3.5
		c4.3,9.8,8.6,19.7,12.1,29.9c-1.2,9.8-6.3,17.9-10.4,26.5c-3.3,7.1-13.2,3-19.6,3.5c-2.9-1.2-2.4-4.5-3.7-6.6
		c-0.1-3.6-3.5-7.9-0.6-10.9c7.3-4.2,15.3-7.5,22.6-12c2.3-1.7,2.7-4.2,2.6-6.8c-0.6-1.9-1.7-3.5-3.5-4c-2-0.7-4.9-0.7-6.5,0.9
		c-0.4,0.6-0.3,1.9,0.7,1.7c2.2,1.2,3.5,3.6,2.6,6c-1.7,3.2-5.2,3.6-7.9,4.9c-0.1-1.9,3.5-2.4,3.7-4.8c0-0.9-1.2-0.9-1.9-0.9
		l-9.5,7.6c-2.3,2.3-5.5,4.5-9.1,3.5c-4.9-3-9.5-6.5-13.7-10.4c0-2.6-1.7-4.3-2.7-6.5c1.3-0.9,2.9,0.7,4.2,1.2
		c7.9,0.7,17,1.4,24.6,0.1c2-1.2,4.3-2.2,4.9-4.6c-2,0.1-3.5,1.6-5.5,1.7c-8.4-0.9-19.2,2.6-25.3-3.7c-0.3-1.3,0.9-2.3,1.7-2.9
		c4.8-4.5,12.5-1.3,18.3-3.5c0.3-0.9-0.6-1.2-0.9-1.6c-3.6-1.2-9.8,1-10.5-4.5c0.1-6.5,2.7-12.1,2.7-18.6c-1.7-2.3-4.8-0.4-7.2-0.7
		c-2.6-2.6-0.6-7.8-4.2-9.9c-2.4-0.4-5.8-1.4-7.8-0.3c1.3,7.6-0.1,15.3-2,22.2c-1,2.6-3.7,3-5.9,3.6c-5.9,4.6-12.8,11.2-21.3,8.8
		c-1.7-1-3.7-2.9-2.9-5.5c2-4.2,7.1-4.9,11.5-5.2c1.6-4.2,6-0.9,9.1-1.3v-0.6c-8.5-5-19.6-4.9-28.8-8.5c-4.6,4.2-7.1,10.5-8.1,16.7
		c-0.7,3.3,0.9,7.6-1.3,10.4c-5.5,1.2-10.9-0.4-15.6-2.6c-15.5-8.2-22.6-26.4-42-26.6c-1-0.4-2.9-0.1-2.7-1.9
		c8.9-8.3,21.3-9.6,34-8.3c4.8,0,9.9-2,11.7-6.5c-2.6-0.9-5.3,0.7-7.9,1.2c-7.5,0.4-14.5-3-18.1-8.6c-12.8-14.1-1.9-40.2-21.6-49.2
		c-5.3-3.5-14.4-1.6-16.6-8.9c-0.4-0.9,0.4-1.4,1-1.7c11.8,1.9,22.6-2.4,34.3-3.2c23.3,2.3,15.3,30.4,32.1,40
		c7.6,4.9,19.6,7.2,27.8,1.7c0.6-0.6,0.9-1.7,0.4-2.4l-45.1-49.3l-25.5-26.9h-1.4c2.2,9.9,5.6,19.3,8.2,28.9
		c0.3,1.2,0.9,3.7-1.3,3.7c-8.8,0-17-1.9-23.5-6.9c-5-3.9-7.5-9.4-7.3-15.7c-0.6-4.9,3.3-8.1,4.6-12.2l-1-1.7
		c-7.3-1.9-14.4,1.6-19.3,6.3c-6.3,7.1-7.6,17.1-6.2,26.6c2.7,19.4,23.9,21.9,37.6,29.8c4.5,3,7.8,8.5,8.1,13.7
		c-7.2-0.1-14.3-2.2-21.7-2.4l-0.3,0.4c7.2,3.2,15,4.6,22.5,6.8l2.2,2.2c1.9,6.6,4.3,13.2,5.8,19.7c-0.4,0.6-0.9,0-1.4,0l-52.6-28.7
		l-2.3-0.4v0.7c10.2,13.2,21.6,26.4,32.7,39.7c0.3,0.7,1.2,1.9,0.1,2.6c-12.7,5.9-20.4-7.3-29.1-14c-9.2-7.6-24.3-9.8-35.3-4.2
		c-12.2,6.5-18.9,20.9-18.3,35.4c0.1,1.7,1.9,3.2,3.5,2.4c5.8-3.2,11.5-6.3,18.4-6.6c11.2-1,19.6,5.8,26.6,13.8l0.1,1.7
		c-5,3.7-11.2,6-16.8,9.1v0.9c7.5-1.2,13.8-5.9,21.3-6.3c8.6,7.2,18.7,11.4,30.2,12.1c16.6,0.4,31-10.5,47.7-3.9
		c1.7,1,4.3,1.3,4,3.9c-1.7,2.4-3.9,3.6-6.5,4.3l-103.4,0.9l-14.5,0.6c-0.7,0.4,0.1,0.7,0.1,1.2c14.3,8.3,29.4,14.5,43.8,22.5v1.3
		c-8.6,4.9-13.2,16.4-24,18c-9.5,0.4-18-8.5-27.9-2.7c-3,1.7-5.5,4-6.5,7.3c-3.6,9.1,8.2,3.6,11.4,7.3c6.8,6,12.1,12.4,20.2,16
		c13.4,4.6,26.4-0.9,36.4-8.6c1.4-0.6,2.7-2.7,4.5-1.6c-7.3,11.8-15.4,23.3-23.2,34.8l-0.1,1.7c25.8-12.5,50.7-27.2,76.3-40.3
		l0.6,0.4l-1.7,12.4c-0.9,5.6-1.3,11.8-4.9,16.3c-13.1,2.7-26.6,4.9-39.5,8.6c-0.3,0.6,0.4,0.6,0.7,0.9l34.1-3.7
		c0.4,0.3,1.6,0,1.2,1c-14.1,16-38.3,13.1-52,29.9c-3.6,6-5.5,14.5-2.6,21.6c1.2,3.5,3.9,6.3,4.2,9.9c-3,0.4-5.9,0.9-8.5,2.2
		c-3,1.9-4.9,5.8-5.3,9.6c0.4,4.3,1.4,8.8,4.9,11.7c4.3,3.9,11.2,5.3,16.8,3.6c13.1-3.7,15-18.4,17.3-29.7c5-11.8,17-18.7,28.7-21.2
		l0.7,0.4c-1.2,17.3-4.6,34.3-6.5,51.5c0,0.7,0,2,1.2,1.7l44.5-72.6l17.1-27.2l1.6-0.4c3.7,3.5,8.3,7.6,10.7,12.5
		c0.6,2.4-0.3,4.6-2.3,6.3c-10.2,4-21.5,8.5-26.8,19.3c-4.3,7.8-3.9,18.7-2.9,27.6c-4.8,6.2-10.1,9.8-14.3,16.3
		c5.9-2.6,10.7-7.6,16.7-9.6c4.9,7.6,8.2,15.7,10.8,24.2c2.2,9.6-1.9,17.9-8.2,24.5c-2.9,4-9.9,5.2-10.8,10.4
		c0.7,1.2,1.9,2.3,3.3,2.4c14.1,2.3,28.2-1.9,38.4-10.8c5.8-5,6.6-12.5,10.4-18.3c7.5,9.6,13.1,20.6,20.9,29.9l0.6-0.4v-83.1l0.7-2
		c0.3,0,0.6-0.1,0.7,0.1c5,14.7,22.6,21.6,25.5,37.3l-14.7,31.7l-0.1,2.3h0.4c3.9-3.3,6.3-8.6,10.2-11.8c0.4,8.6,1.7,17,6.6,23.8
		c4.9,7.6,14.5,7.9,20.2,14.4c0.9,1.7,0.4,4-1.6,4.9c-1.6,1.3-5.2,0-5,2.9c0.9,0.7,1.7,1.3,2.9,1.6c6.5,1.3,13.2,0,17.4-4.9
		c4.2-4.3,5.3-10.7,4-16.8c-2.6-12.1-18.3-18.3-14-32.8c0.6-0.9,1-2.7,2.7-2c9.4,6.8,17.6,15,27.5,20.9c0.3,0,0.4-0.4,0.4-0.7
		l-39.5-121.4l-0.3-2.2c2.2-0.1,2.6,2.6,3.7,4c8.5,21.6,14,44.3,22.9,65.8c2.6,7.3,9.1,12,15.7,15c1.4,6.5-0.1,15.3,1.3,21.5
		c1.9-6.2,2-13.1,3.5-19.6c0.7-1.9,3-1.4,4.8-1.4c1,0,2.2,0,2.3-1c-2.3-2.4-5.6-4-8.5-5.9c-16-16.7-17-40.3-23.9-61.1
		c-6.5-19.2-16.8-36.7-19.3-57.6c-0.4-2.4,0.4-4.3,1.7-6c0.9-0.3,1.2,0.4,1.9,0.7c11.4,14.1,10.4,34.3,22.2,48.5
		c12.4,10.5,17.1,25.9,25.6,38.9c9.9,16.1,31.4,18,42,33c7.3,10.5,2.4,25.2-2.7,35.1c-2.4,3.2-4.6,7.9-8.2,9.2
		c3.6-6,7.3-12.1,7.1-19.7c0.1-12.7-10.7-20.9-19.9-28.1c-17.4-11.4-22-32.7-31.8-49.5c-2-2.9-4.2-7.2-7.2-8.2
		c7.3,18,9.6,38,21.5,54.1c7.3,9.2,20.4,11.1,27.1,21c3.9,6.2,3.9,15.8,0.9,22.5c-2.3,5.9-6.9,10.9-8.6,17c0.7,1.3,2.4,1.3,3.7,1
		c14.4-7.6,23.9-22.6,26.9-38.2c1.2-2.9-0.7-7.1,1.4-9.6c4.8,0.6,8.8,2.6,13.5,2.9v-0.9l-57-58.3c-0.3-0.9-1-1.7,0-2.4
		c4.3-1,8.8-0.9,13.1-0.1c24.2,2.4,32.8,28.4,41.8,46.5h0.7l-1.6-9.1c-0.4-0.7,0.6-1.3,1-1.3c9.5,6.9,22.8,9.2,34.4,6.2
		c8.2-2.9,15.7-8.5,18-17.1c-0.1-1.6-2.4-1.7-3.7-1.3c-12.1,2.4-24-1-31.2-10.7l-1.9,1.2c-1.9-2.2-1.6-5.3-2.9-7.8
		c0-3.3-1.7-6.8-0.1-9.9c8.4-0.7,17.4,0.1,26.2,0.1c0.9,0,2.2,0,2.2-0.9c-12.2-8.2-25.6-15.7-38.4-23.3l-2.2-2.2
		c2.9-1.6,6.5-1.4,9.5-2.4c3.9-1.3,7.3-3.7,11.4-4.8c3.9,4.6,7.6,9.8,11.2,14.5l1,0.1c-1.6-6.6-5.8-12.1-7.3-18.6
		c6.2-5,12.4-11.5,20.2-14.3c5.6-1.4,12-0.4,16,3.3c5.8,5.6,2.2,14.5,1.3,21.3c0.3,1.4,1.2,3,2.4,3.6c2.3,0.6,4.3-0.6,6-2.4
		c5.5-9.1,6.6-23.9,1.4-33.6c-3-7.8-10.9-11.2-17.9-14c-18.4-5.5-33.1,5.8-50.4,6.6c-1.2-0.1-2.9,0-3.2-1.3c0.4-0.7,1.3-0.7,1.9-1.3
		l58.7-22.9l1.3-1.3c-0.1,0-0.6,0-0.6-0.3l-89-3.3l-2.3-0.9c-0.4-1.3-2.6-2.6-1.4-4c5.6,1.3,10.9,4.2,17.4,2.7
		c7.9-1,13.7-7.6,19.7-11.8c8.5,1.4,16.7,4.3,24.9,5.3c-5.6-3-11.8-4.8-17.7-7.1c-1-1.2-4.8-1.3-2.9-3.6
		C489.6,218.5,495,216.2,500.6,217.5L500.6,217.5z M156.6,104.4c-4.6-5-5.8-11.8-4.6-18.7c1.7-5.2,6.6-10.8,12.5-10.4
		c-3.3,6.2-4,14.3-1.7,21c3.7,8.2,12,11.7,19.3,14.8C173.1,114.9,163,111.2,156.6,104.4L156.6,104.4z M130.9,199
		c-2,2.2-5.9,0.9-8.3,0.3c-9.4-2.6-18.6,0.6-26.5,4.2c3.9-8.2,11.7-14,20.9-14.8c5.9-0.4,11.8,0.9,14.4,6.2
		C131.6,196.2,132,198.2,130.9,199z M123.1,184.9c-4.6-1.4-11.2,2.3-14-2.4c1-5.3,6.6-7.3,11.1-8.2c6.3-1.6,10.7,5.9,16.3,1.3
		c8.8,1,12.4,11.7,19,15.5c8.6,8.2,19.4,11.1,30.7,12.7c0.9,0.3,1.2,1.4,0.7,2.2c-9.1,4.8-21.7,6-32.3,3.2
		C140.4,205.2,139.5,184.5,123.1,184.9z M195.5,223.2c-2.6,3.5-6.9,4.3-10.7,5.3c-9.5,2.4-19.3,0-27.4-3.9c-1.4-0.9-1.4-3-1.2-4.8
		c8.5-7.1,20.3-7.5,31.5-6.3c2.9,0.6,6,2,7.6,4.6C196.2,219.6,195.8,221.8,195.5,223.2L195.5,223.2z M230.5,235.8
		c1.2-0.4,1.6,0.6,2,1.3c-4.5,5.6-11.4,8.2-17.7,10.4c-4.6,1.6-10.1,1.6-15.1,1.2C211.4,247.6,221.6,242.4,230.5,235.8L230.5,235.8z
		 M155.8,257.2c3.5-5.3,9.5-8.9,16-9.5c13.1-0.9,22.3,9.4,36.1,7.8c9.1-0.7,17.1-4.2,24.8-8.2c0,2.3-1.9,4.9-3.7,6.2
		c-8.5,7.1-20.6,9.6-31.7,6.5c-10.1-4-22.2-14.1-33.1-5.2c-0.3,0.9,0.6,1.7,1.4,1.3c14.4-1.6,22.5,12.7,36.1,13
		c1.9,0.4,4.2-0.1,5.9,0.9c-4.6,3.6-11.8,4.5-17.7,2.6c-11.2-4.6-20.3-14.5-34.6-12C153.8,259.5,155.2,258.2,155.8,257.2
		L155.8,257.2z M95.2,287.4h-0.6c1.3-2.9,4.8-4.3,7.9-4.8c7.8-0.4,13.4,5.9,21.3,3.6c3.6,0,7.8-5.8,10.2-1.2c0.4,2.6-0.9,4.6-2.4,6
		C118.4,302.6,109.6,282.5,95.2,287.4L95.2,287.4z M160.3,286.7c-6.5,10.8-15.1,21.2-28.7,21.5c-4,0.6-8.8,0.6-11.1-2.6
		c0.1-5,6.3-2.4,9.1-4.6c14-4.8,18.6-24.9,36-21.6C165.6,282.4,161.5,284.1,160.3,286.7L160.3,286.7z M206.8,281.1
		c-12.4,5.3-25.2-0.4-35.4-6.6c-5-2-11.2-0.7-16.4-0.1c-2.2-1-1.7-3.9-1.2-5.6c2.9-4.2,8.2-4.8,12.8-3.7c11.1,3.6,19.7,13.7,32.7,12
		c10.2-1.3,18.1-8.1,26.4-13.7C222.3,271.7,214.8,277.5,206.8,281.1z M206.6,358.4c-6.5,2.9-14,5.8-21.3,3.7
		c-1.4-0.9-0.9-2.6-0.7-3.7c4.5-3.7,9.9-5.6,14.8-8.5c4.8-3.3,8.6-7.6,14.3-9.9c1.7-0.3,3.7,0.1,4.5,1.6
		C219.6,348.8,212.1,355.1,206.6,358.4L206.6,358.4z M165.7,354.4c15.4-7.2,35.4-8.1,44.6-25.3l3.5-8.2
		c-0.1,13.7-11.7,24.8-23.6,29.9c-10.9,4-20,12.5-31.1,16.3c-1.2,0-2.3-0.9-2.4-2C156.5,359.6,161.5,356.6,165.7,354.4z
		 M161.1,407.7c-1.2,2.7-6.5,1.4-5.6,5.8c-1.6,0.7-3.3-0.6-3.9-2c-0.7-4.3-6.6-2.3-6.9-6.9c-0.3-1.7,0.3-3.6,1.2-5
		c2.6-2.4,8.1-3.6,9.9,0.4C154.8,405.5,164.1,401.3,161.1,407.7L161.1,407.7z M252.5,323.7c-7.8,25.3-32.8,41.8-58.2,45.1l-1.7-0.4
		c-9.5,1.9-21.6-1.7-28.7,4.9c2.9,2.3,7.6,3.7,9.4,7.9c1.9,1.3,3.7-1,5.8-1c-4,5.5-6,11.8-7.6,18.3c-1,4.8-1.9,9.6-5.3,13.1
		c10.2-14.1-8.5-23.5-5.3-37.4c6.8-10.4,21.5-6,32.7-7.9c12.1-2,23.3-8.6,29.5-19.9c9.8-21.5,0.6-50.8,10.4-72.3
		c3.7-9.8,10.5-20,19.2-26.4c-15.8,16.8-23.9,37.9-21.3,62.3c0.4,5.8-0.1,12.5,0.4,17.7c2.4-2.4,3.5-6.3,4.2-9.9
		c5.9-21.5,1.9-47.2,18.9-63.6c-17.3,23.5-6.9,58.5-20.9,83.4c-1.9,2.9-3.5,5.9-4.5,9.1h1.4c19.2-17.4,20.7-42.9,22.2-68.1
		c1-4.6,1.7-9.2,3.7-13.2C253.3,283.6,257.2,305.2,252.5,323.7L252.5,323.7z M338.9,279.8c0.4,1-0.6,1.4-1.3,1.6
		c-13.4,0.6-26.9,0.1-39.9-1.3c-0.3-0.1-0.3-0.4-0.3-0.7l1.4-0.6C312.2,279.1,326.4,278.8,338.9,279.8L338.9,279.8z M315.3,305.6
		c-2.9-0.7-4.3-3.5-5.6-6c-0.3-1.4,0.3-3,1.3-3.5c1.6-0.1,1.3,1.6,2.3,2.2L315.3,305.6L315.3,305.6z M292.1,236.3
		c-0.7,2-2.4,5.5-0.1,7.6c3.6,3.7,10.5,0.4,13.2,5.8c-4.8-2.9-13.7,0.1-15.5-7.2C289.3,240.2,289.4,236.8,292.1,236.3z M298.3,257.2
		c-1-2.7-4.8-2.6-6.2-5.3l0.4-0.1c5.9,1.2,12.5,1.4,16.3,6.8c2.2,0.3,4-1.7,6.2-0.4c0.1,5-1.9,9.6-3.3,14.3
		c-4.5,3.5-10.9,0.9-16.4,1.3c-3.2-1.2-4.6-5-5.2-8.2c4.2-0.3,9.1,3.7,12.7-0.1c-4-3.5-10.8-3.2-13.5-8.5
		C292.3,256.5,295.5,258.2,298.3,257.2L298.3,257.2z M255.6,448.9c4.2-4.8,8.5-10.2,9.9-16.6c5.3-26.8-27.1-47.8-6.6-73.4
		c7.3-10.4,27.6-9.1,24.2-26.1c-4.9-12.8-15.3-23.5-16.8-37.6c-0.9-7.5-2.4-16.3-0.1-23.3c-1.3,22.2,14.1,37.7,23.2,55.6
		c2.3,7.5,0.4,16-5.3,20.7c-12.5,7.8-27.9,17-25.9,34.6c2.2,20.4,24.9,42.3,5.3,61.6C261,446.3,258.6,448.6,255.6,448.9L255.6,448.9
		z M312.4,337.7c-5.9,19.2-24.9,32.7-26.5,53.6c-3.2,17.4,4.9,38.7-8.6,52.1c-2.3,2.4-5.2,4.6-8.4,5.5c7.3-9.8,9.8-24.8,5-36.6
		c-4.3-13.8-16.1-28.1-7.5-43.8c7.9-15.7,34-20.2,28.8-42c-4.2-14.4-14.3-26.4-15.3-41.9c1.7,2.7,3.3,5.8,4.8,8.8
		c6.3,10.8,15.4,20.4,17.4,33.1l0.4,0.4c2,15.6-11.1,24.9-21.6,33.3c-8.4,8.2-12.7,19.9-9.1,32c1.9,8.3,5.6,16.1,8.9,23.8
		c1.3-2.7,0.3-6,0-8.9c-6.2-17.6-1.4-37.3,11.2-50.1c10.8-10.1,18.6-23.6,14.4-38.9c-1.7-8.3-8.6-14.5-10.8-22.6
		c2.3,0.4,4.2,3,6.2,4.9C310.9,310.5,316,323.9,312.4,337.7L312.4,337.7z M317.2,351.7c-1.3,4.6-0.3,10.1-0.1,14.5
		c-4.6-7.1-3.5-17.4-1.7-25.6c1.9-13.2,13.5-24.6,7.9-39.2c-0.6-1.9-1-4,0.3-5.8c3.2,2.9,3.3,7.9,5,12
		C328.7,323.9,318.1,335.7,317.2,351.7L317.2,351.7z M369.6,468.6c-2.2-0.9-1.7-3.7-3.6-5c-2.2-2.4-4.6-4.2-7.3-5.6
		c-0.6-0.6,0.3-1.6,1-1.4c4.3,0,8.8,0.9,11.1,5c0.6,2.2,1,4.9-0.7,6.6L369.6,468.6z M368.5,388.4c10.2,18.6-16.3,31.7-5,51
		c4.9,7.9,14.1,14.3,13.2,24.8c-0.3,4.3-2.2,8.6-6.3,10.5c0.4-1.6,2.2-2.7,3-4.5c1.3-2.6,1.7-6,0.9-8.9c-4.9-10.7-21-7.2-25.5-19.3
		c-2.3-6.9-0.4-14.1,1.2-20.7c2.4-7.8,4.9-18.4,0.4-26.1c-12.5-14.3-21.5-32.8-14.7-52.3c4.5-11.5,6.9-26.6,1.4-38.4
		c18.7,19.6-8.9,40.9,1.7,63.1c1.9,3.5,3.3,7.6,7.1,9.9v-1.7c-3.7-8.8-6.8-19.6-3.6-29.5c3.5-12.2,9.8-27.8,2.3-40.2
		c10.2,11.8,6.8,30.5,3.6,44.6C345,367.1,360,377,368.5,388.4L368.5,388.4z M457.9,350.8h-1.3c-2-3-5.6-4.6-8.6-7.1
		c-0.1-0.7,0.1-1.3,0.9-1.3c4,0.4,8.1,3.7,9.1,7.8V350.8z M521.5,282.1c-6.9,4.5-14.8,7.8-21.3,13.2c-1.2,0-2.4,1-3.5,0
		c-1.4-1.3-1.6-3-0.9-4.6c5.5-7.2,13.4-14.8,23.6-13.8l1.4,0.9C522,279,522.4,280.8,521.5,282.1L521.5,282.1z"/>
</g>
</svg>
