<?xml version="1.0" encoding="utf-8"?>
<!-- Generator: Adobe Illustrator 22.1.0, SVG Export Plug-In . SVG Version: 6.00 Build 0)  -->
<svg version="1.1" id="Layer_2_1_" xmlns="http://www.w3.org/2000/svg" xmlns:xlink="http://www.w3.org/1999/xlink" x="0px" y="0px"
	 viewBox="0 0 640 480" style="enable-background:new 0 0 640 480;" xml:space="preserve">
<style type="text/css">
	.st0{fill:#189EE0;}
</style>
<g>
	<path class="st0" d="M207.9,267.3c-13.1,22.8-26,43.7-37.3,65.5c-4.5,8.7-7.6,19.3-7.8,29c-0.5,27.2,21.8,49.3,49.1,49.5
		c65.1,0.4,130.1,0,195.1,0.4c10.8,0.1,21.8,1.6,32.3,4.2c27,6.8,53.4,6.1,79.3-4.1c2.7-1.1,5.5-1.9,10.3-3.4
		c-8.2,24.7-22.9,41.5-42.7,54.5c-18.1,11.8-38.1,16.8-59.4,16.9c-70.8,0.3-141.5,0.5-212.2,0.1c-55.2-0.3-95.6-32.2-108.6-84.4
		C90.8,332.9,144.4,263.7,207.9,267.3z"/>
	<path class="st0" d="M85.8,364.4c-13.4-13.5-19.8-28.9-23.5-45.5c-6.2-27.9-1.3-54.2,13.1-78.9c35.9-61.7,71.5-123.7,107.1-185.5
		c26.1-45.3,77.8-65,127.5-48.9c47.3,15.3,77.8,63.2,71.7,114.1c-1.5,12.5-6.5,24.6-9.8,36.9c-1.2,0.1-2.4,0.1-3.5,0.2
		c-9.4-16.2-18.4-32.7-28.4-48.6c-7.2-11.4-14-24.1-23.9-32.6c-23.9-20.3-59.7-13-75.5,14.3c-34.6,59.4-68.7,119-103.5,178.3
		c-4.5,7.7-11.8,13.6-17.8,20.3c-17.8,20.2-29.6,43.1-31.8,70.3C87.2,360.1,86.6,361.4,85.8,364.4z"/>
	<path class="st0" d="M343.6,1.8c37.8-5,68.7,2.8,93.3,27.3c11.3,11.3,20.3,25.6,28.4,39.5c33.6,57.3,66.4,115.3,100,172.6
		c26.9,45.8,16.6,101.7-21.2,135c-40.4,35.5-98.5,35.4-140.3,0.9c-7.9-6.6-14.1-15.2-20.9-23c0.5-1,1-2.1,1.5-3
		c13.9,0,27.8,0.1,41.7,0c14.1-0.2,28.3,0.7,42.2-1.2c36.7-4.7,56.1-43.6,37.8-75.8c-32.9-57.8-66.6-115.1-99.5-172.8
		c-4.2-7.5-7.2-15.8-9.6-24.1c-7.7-26.6-20.9-49.5-42.9-67C351.5,8.2,348.9,6.1,343.6,1.8z"/>
	<path class="st0" d="M288.5,333.8c13.5-23.2,25.4-44.1,37.8-64.7c1.3-2.2,5.7-3.4,8.7-3.4c41.4-0.3,82.8-0.5,124.3-0.2
		c20.5,0.2,35.3,14.1,35.6,32.3c0.3,20.7-12.7,34.9-34.4,35.8c-19.8,0.8-39.5,0.1-59.3,0.1C364.7,333.8,328.3,333.8,288.5,333.8z"/>
	<path class="st0" d="M271,194.6c12.3,21,24,40.6,34.9,60.7c1.9,3.4,1.7,9.7-0.3,13.2c-19.9,35.5-40.1,70.7-60.6,105.9
		c-11.3,19.6-30.5,25.3-48.4,14.9c-16.9-9.8-21.4-29.7-10.5-48.7c26.9-46.8,54-93.5,81-140.2C268,198.7,269.1,197.3,271,194.6z"/>
	<path class="st0" d="M399.8,247.9c-20.1,0-38.6-1.2-56.9,0.4c-15.2,1.3-24-3.9-31.2-17.3c-17.5-32.4-36.6-63.9-54.6-96
		c-10.8-19.3-6.2-39.1,10.7-48.7c17.6-9.9,36.9-3.7,48.2,15.7c26.7,46,53.4,92,80,138C397.1,241.8,397.9,243.9,399.8,247.9z"/>
</g>
</svg>
