<?xml version="1.0" encoding="utf-8"?>
<!-- Generator: Adobe Illustrator 19.1.1, SVG Export Plug-In . SVG Version: 6.00 Build 0)  -->
<svg version="1.1" id="Layer_1" xmlns="http://www.w3.org/2000/svg" xmlns:xlink="http://www.w3.org/1999/xlink" x="0px" y="0px"
	 viewBox="-159 41 640 480" style="enable-background:new -159 41 640 480;" xml:space="preserve">
<style type="text/css">
	.st0{fill:#0E67B2;}
</style>
<g id="Layer_3">
</g>
<g id="Layer_2">
</g>
<path class="st0" d="M353.8,244.9c0-106.5-86.3-192.8-192.8-192.8c-106.5,0-192.8,86.3-192.8,192.8c0,106.5,86.3,192.8,192.8,192.8
	c11.3,0,22.1-1.1,32.9-2.9l-0.3,75h54.2v-93.3C310.4,384.6,353.8,320,353.8,244.9z M247.7,334.9v-62.1l-54.2,15.5l0.1,76.9
	c-10.4,2.8-21.3,4.6-32.6,4.6c-69,0-124.9-55.9-124.9-124.9c0-69,55.9-124.9,124.9-124.9c69,0,124.9,55.9,124.9,124.9
	C285.9,280.2,271.3,312.2,247.7,334.9z"/>
</svg>
