<?xml version="1.0" encoding="utf-8"?>
<!-- Generator: Adobe Illustrator 22.1.0, SVG Export Plug-In . SVG Version: 6.00 Build 0)  -->
<svg version="1.1" id="Layer_1" xmlns="http://www.w3.org/2000/svg" xmlns:xlink="http://www.w3.org/1999/xlink" x="0px" y="0px"
	 viewBox="0 0 640 480" style="enable-background:new 0 0 640 480;" xml:space="preserve">
<g>
	<path d="M374.5,0.9c-2.5,1.9-1.2,9.3,1.9,13.6c4.3,6.2,2.5,8.7-9.3,16.1c-5.6,3.7-11.8,8.7-14.3,10.5c-1.9,1.9-5,4.3-6.8,5.6
		c-16.8,9.9-54,36.6-56.5,39.7c-3.7,5-3.7,6.8,0,6.8c3.1,0,22.3-11.2,23.6-13.6c0.6-0.6,1.2-1.2,2.5-1.2c1.9,0,13.6-8.1,14.9-9.9
		c0.6-0.6,1.2-1.2,2.5-1.2c1.9,0,13-8.1,32.9-23.6c3.1-2.5,8.1-6.2,10.5-8.7c5.6-5,8.1-4.3,9.9,1.9c1.2,6.2,11.8,8.1,11.8,1.9
		c0-2.5-0.6-5.6-1.9-7.4c-3.1-5.6-9.3-21.1-9.3-23c0-2.5-6.8-8.1-9.3-8.1C376.4-0.4,374.5,0.3,374.5,0.9L374.5,0.9z"/>
	<path d="M261,92.7c-3.1,3.1-5,6.8-5,10.5s-1.2,6.8-5,9.3c-9.9,7.4-13.6,11.8-14.3,18.6c-1.2,7.4,1.2,14.3,5,14.3
		c1.2,0,3.7,0.6,5,1.9c2.5,1.2,2.5,2.5-0.6,5.6c-1.9,2.5-4.3,3.7-5.6,3.7c-3.7,0-9.3,8.7-8.1,11.8c0.6,2.5-1.2,5.6-6.2,9.3
		c-12.4,10.5-14.3,12.4-14.3,16.1c0,3.7,9.9,13.6,13.6,13.6c4.3,0,11.2,8.7,11.2,14.3c0,3.1,1.2,7.4,3.1,9.3
		c1.2,1.9,3.1,6.8,3.1,10.5c0,9.9,6.8,23,12.4,23c2.5,0,5-1.2,5.6-3.1c1.9-5,9.9-2.5,10.5,3.7c0.6,5.6-2.5,7.4-4.3,2.5
		c-0.6-1.2-1.9-3.1-3.7-3.1c-3.7,0-11.8,13.6-10.5,17.4c0.6,1.9,0,4.3-1.9,5.6c-5.6,4.3-1.9,23,6.8,33.5c1.9,1.9,1.9,3.7-0.6,6.2
		c-1.2,1.9-4.3,8.7-6.2,14.9s-6.2,17.4-9.3,23.6c-5,11.2-5.6,13.6-5,27.9c0.6,8.7,1.9,21.7,3.1,28.5c1.9,11.2,3.7,14.3,9.3,19.9
		c3.7,3.7,7.4,6.2,8.1,6.2c0.6,0,3.1,1.9,5.6,3.7c5,5.6,12.4,4.3,13-2.5c0.6-6.2-5-13-10.5-13c-6.8,0-14.3-13-16.8-27.9
		c-1.2-7.4-0.6-10.5,1.9-12.4c1.9-1.2,3.1-5.6,3.1-13c0-9.3,0.6-11.2,6.2-15.5c3.7-3.1,9.9-8.7,14.9-13.6l8.7-8.1l-6.2-5.6
		c-3.7-3.1-5.6-6.8-5-7.4c1.2-1.9-8.1-23-9.9-23c-1.9,0-6.2-9.3-6.2-13c0-1.2,1.2-3.1,3.1-3.7c1.9-0.6,3.1-3.7,3.1-9.9
		c0-9.9,3.1-9.3,4.3,1.2c0.6,9.3,4.3,9.3,8.1,1.2c1.9-3.7,3.7-6.8,5-6.8c1.2,0,1.9-1.9,1.9-3.7c0-2.5,3.1-5.6,8.1-9.3
		c4.3-3.1,8.7-5.6,9.3-6.2s-0.6-1.2-2.5-2.5c-3.1-1.2-3.7-3.7-3.1-10.5c0.6-5-0.6-11.2-1.9-13.6c-1.2-2.5-3.1-13-3.1-23
		c-1.2-15.5-1.9-20.5-6.8-30.4c-3.7-7.4-5.6-13-4.3-15.5c1.2-5,3.7-5,5.6-1.2c0.6,1.9,3.1,2.5,6.2,2.5c4.3-0.6,5.6-1.2,5.6-6.8
		c0-6.8,3.1-9.9,10.5-9.9c7.4,0,8.1,1.9,1.9,7.4c-3.1,3.1-5.6,6.8-5.6,9.3c0,2.5-1.9,5-5,6.2l-5.6,2.5l5.6,4.3
		c6.2,5,6.8,9.9,1.9,11.8c-2.5,1.2-2.5,1.9-0.6,3.7c1.9,1.9,3.1,1.2,5-1.2c1.2-1.9,3.7-3.1,5.6-3.1c1.9,0,3.7-1.2,4.3-3.1
		c0.6-2.5,3.7-3.1,11.8-2.5l10.5,0.6l0.6-9.3c0.6-5,0-10.5-0.6-12.4c-1.2-2.5-1.2-2.5-4.3,0.6c-1.9,1.9-5,2.5-6.8,1.9
		c-3.1-1.2-3.1-1.2,0-4.3c1.9-1.9,6.2-3.7,9.9-4.3c7.4-1.2,11.2-6.8,9.3-14.9c-1.2-5-1.9-5.6-7.4-5.6c-5,0-5.6-0.6-2.5-1.9
		c5-3.1,4.3-4.3-6.8-11.8c-8.7-5.6-11.8-6.8-22.3-6.8c-9.9-0.6-13-1.2-15.5-5c-3.1-3.7-3.1-4.3-0.6-7.4c2.5-3.1,2.5-3.7,0-10.5
		c-3.1-6.2-3.7-6.8-11.2-6.8C268.4,87.7,264.7,89,261,92.7L261,92.7z M264.1,120.6c2.5,1.2,5,3.7,5.6,5c1.2,1.9,3.7,2.5,7.4,1.2
		c5.6-1.2,6.2-1.2,5,5c-1.2,5.6-1.2,6.2,4.3,6.2c3.7,0,7.4-1.9,11.8-6.2c5-4.3,6.2-5,6.8-3.1c1.9,5,0,9.3-5,10.5
		c-2.5,0.6-5,2.5-5.6,5c-1.2,6.2-3.7,7.4-7.4,4.3c-3.7-1.9-5-1.9-11.2,0.6c-10.5,5-13,4.3-11.8-3.7c1.2-7.4-1.2-9.3-4.3-3.7
		c-1.9,3.1-2.5,3.1-6.8-2.5c-5.6-6.8-6.2-13.6-1.9-18.6C255.4,117.5,258.5,117.5,264.1,120.6L264.1,120.6z M320.5,138.6
		c5,1.2,5.6,6.8,1.2,9.9c-5,4.3-13-3.7-9.9-9.3C313.7,137.4,315,137.4,320.5,138.6L320.5,138.6z M313.7,165.3
		c-0.6,3.7-6.2,6.2-8.1,3.1c-1.2-1.2-1.2-3.7-0.6-4.3C306.3,161.6,314.3,162.8,313.7,165.3L313.7,165.3z M261,170.9
		c0.6,4.3,0,5-4.3,5c-2.5,0-5,1.2-5.6,2.5c-1.2,2.5,0.6-6.8,1.9-11.8C254.8,162.2,261,165.3,261,170.9z M274,180.2
		c2.5,1.9-2.5,16.8-5.6,16.8c-4.3,0-5-3.7-1.9-9.3c2.5-5,2.5-5.6,0-5.6c-4.3,0-5.6-4.3-1.9-6.8c3.1-1.9,3.7-1.9,5.6,0.6
		C270.9,177.1,272.8,179.6,274,180.2z M326.8,177.1c0,2.5-1.9,2.5-8.1,2.5c-11.2-0.6-11.8-5.6-0.6-5.6
		C324.9,174,326.8,174.6,326.8,177.1z M244.9,185.8c1.9,3.1,3.1,6.8,3.1,8.7c0,1.2,1.2,2.5,3.1,2.5s3.1-1.9,3.1-6.2s0.6-5.6,3.7-5
		c3.7,0.6,3.7,11.2-0.6,13.6c-3.7,2.5-3.1,16.1,2.5,40.9c0.6,3.1,2.5,6.8,3.7,9.3c1.9,1.9,1.9,3.7,0.6,4.3c-1.2,0.6-2.5,0-3.1-0.6
		c-0.6-1.2-3.7-1.2-6.8-1.2c-5.6,1.2-5.6,1.2-5.6-6.8c0-4.3-1.2-10.5-3.1-13.6c-1.2-3.1-3.1-8.7-3.1-12.4c0-4.3-1.2-9.9-1.9-13
		c-1.9-5.6-3.7-23-1.9-26.1C239.3,177.1,242.4,179.6,244.9,185.8z"/>
	<path d="M316.8,193.8c-11.8,3.7-13.6,5-18,13l-5,9.3l4.3,3.7c2.5,2.5,4.3,6.2,4.3,9.3c0,6.8,3.1,7.4,5,1.9c1.2-4.3,5-3.1,5,1.9
		c0,1.9,1.2,5,3.1,6.8c5.6,5,8.1,11.8,9.3,22.3c2.5,17.4,15.5,37.2,22.3,32.9c3.1-1.9,1.9-6.2-1.9-7.4c-1.9-0.6-5-3.7-6.2-7.4
		c-2.5-5.6-2.5-6.8-0.6-9.9c1.2-1.9,2.5-5.6,2.5-8.7c0-3.1,1.2-6.2,3.1-7.4c5-2.5,8.7-20.5,5-23.6c-1.2-1.2-2.5-4.3-2.5-6.8
		c0-6.2-1.9-10.5-5-10.5c-2.5,0-3.7-3.1-6.2-17.4c-0.6-3.7-2.5-6.8-3.1-6.8C330.5,189.5,323.7,191.3,316.8,193.8L316.8,193.8z
		 M328.6,211.2c0,1.2-1.2,3.1-2.5,3.1c-3.1,0-5.6-2.5-3.7-4.3C324.9,207.5,328.6,208.7,328.6,211.2z"/>
	<path d="M300.7,245.3c-0.6,1.9-0.6,5.6,0,8.7l1.2,5l4.3-3.7l3.7-4.3l-3.7-4.3C302.6,242.8,301.9,242.8,300.7,245.3L300.7,245.3z
		 M362.1,246.6c-1.2,0.6-2.5,3.1-3.7,5.6c-0.6,2.5-3.1,4.3-5.6,5c-2.5,0.6-4.3,1.9-5,5c-0.6,3.7,0,4.3,2.5,3.1
		c1.9-0.6,5,0.6,7.4,3.1c5,5.6,6.2,23,1.9,26.7c-3.7,3.1-3.7,8.7,0,10.5c1.2,0.6,3.1,3.1,3.1,5.6s0.6,5,1.9,6.2c3.7,1.9,5-3.7,5-18
		c0-17.4,3.1-19.9,8.7-7.4c5,9.9,3.7,24.2-2.5,29.8c-1.9,1.9-4.3,6.2-5.6,9.3c-1.2,5-2.5,5.6-9.3,5c-9.3-0.6-10.5,1.9-9.3,18.6
		c0.6,8.7,1.2,10.5,4.3,11.2c5.6,0.6,12.4-9.9,12.4-19.9c0-10.5,5-8.7,8.7,3.7c3.1,9.9,3.1,10.5,0,14.3c-2.5,3.1-3.7,7.4-3.7,18.6
		c0,8.1-1.2,16.8-2.5,19.2c-1.2,2.5-2.5,6.8-2.5,10.5c0,3.7-1.2,7.4-3.1,9.3c-1.9,1.9-3.1,6.2-3.1,14.3c0,6.8-0.6,12.4-1.9,13
		c-2.5,1.2-2.5,8.1,0,9.3c3.1,1.9,13-3.1,13.6-6.8c0.6-1.9,0.6-6.8,0-11.2c-0.6-4.3,0-9.9,1.9-14.3c1.9-3.7,3.1-9.3,3.1-11.2
		s1.9-8.7,3.7-14.3c4.3-13,5-19.2,1.2-20.5c-3.7-1.2-3.7-3.7,1.2-6.2c2.5-1.2,4.3-3.7,5-5.6c1.2-13,6.8-34.7,9.3-37.8
		c1.2-1.2,2.5-4.3,2.5-5.6c0-1.9,1.2-4.3,3.1-6.8c1.9-2.5,2.5-8.1,3.1-17.4c0-12.4-0.6-14.3-6.8-23.6c-3.7-5.6-6.8-11.8-6.2-13
		c1.2-3.1,12.4-3.7,12.4-0.6c0,1.2,1.2,1.9,3.1,1.9s3.7,1.2,3.7,3.1c0.6,1.2,3.7,3.1,6.8,3.1c3.7,0,5.6-1.2,6.8-4.3
		c0.6-3.1-0.6-5.6-6.8-11.8c-9.3-8.7-12.4-8.7-22.3-2.5c-9.3,5.6-9.9,6.2-16.1,0.6c-3.1-3.1-19.2-10.5-19.2-9.3
		C364,244.7,363.4,245.9,362.1,246.6L362.1,246.6z M368.3,263.9c0,8.7-3.7,8.7-4.3-0.6c-0.6-5.6,0-6.8,1.9-6.8
		C367.1,257.1,368.3,260.2,368.3,263.9L368.3,263.9z M362.7,343.4c-0.6,2.5-1.2,4.3-2.5,4.3c-1.2,0-1.9-1.9-2.5-4.3
		c-0.6-3.1,0.6-4.3,2.5-4.3C362.7,339,363.4,340.2,362.7,343.4z M303.8,267c-2.5,3.7-5,6.8-6.2,6.8c-1.2,0-5.6,3.7-9.3,8.7
		c-3.7,5-7.4,8.7-9.3,8.7c-1.2,0-3.1,1.9-3.7,3.7c-0.6,1.9-1.9,3.7-3.1,3.7c-1.2,0-1.9,1.9-1.9,3.7c0,1.9,1.2,3.7,1.9,3.7
		c1.2,0,1.9,1.9,1.2,4.3c-0.6,2.5-0.6,5.6,0.6,6.2c1.2,0.6,1.9,3.1,1.9,6.2c0,2.5,1.2,5,3.1,5.6c1.2,0.6,3.1,3.1,3.1,5.6
		c0,4.3,7.4,12.4,11.8,12.4c1.2,0,3.1,1.2,3.7,3.1c0.6,1.9,3.7,3.1,6.8,3.1h5.6v13.6c0,9.9-1.2,15.5-3.7,21.1
		c-2.5,4.3-3.7,9.3-3.1,11.2c3.1,10.5,6.8,17.4,10.5,22.3c5.6,6.8,5.6,8.1-0.6,17.4c-2.5,4.3-5,9.3-5,11.8c0,4.3-5,15.5-8.1,17.4
		c-1.2,0.6-1.9,3.7-1.9,6.8c0,6.8,3.1,7.4,11.2,2.5c7.4-4.3,8.1-6.8,6.8-12.4c-0.6-3.7,0-5.6,1.9-6.2c1.2-0.6,3.1-3.1,3.1-5.6
		c0-8.1,2.5-12.4,8.7-15.5c8.7-5,13.6-16.1,8.7-21.1c-1.2-1.2-1.2-5.6,0-11.2c1.2-5.6,1.2-14.3,0-21.1c-1.9-11.8-7.4-27.9-9.9-27.9
		c-1.2,0-1.2-3.1-1.2-7.4c0-9.3-1.9-16.1-3.7-14.3c-1.2,0.6-5,0-8.1-1.2c-6.2-2.5-6.8-3.1-6.8-9.9c0-8.1,3.7-14.3,8.7-14.3
		c3.7,0,5,3.1,1.9,8.7c-3.1,6.2-2.5,8.7,1.2,5c3.1-3.1,7.4-3.1,7.4,0.6c0,1.2,1.2,3.1,3.1,3.7s3.1,4.3,3.1,13.6
		c0,9.3,0.6,12.4,2.5,11.8c1.2-0.6,2.5-3.7,3.1-8.1c0.6-4.3,1.2-6.8,2.5-6.8c2.5,0,1.9-6.2-1.2-10.5c-1.2-1.9-3.1-5.6-3.1-7.4
		c0-1.9-2.5-6.8-5.6-10.5c-3.1-3.7-6.2-9.3-6.8-11.2c-0.6-2.5-3.1-5-5-5.6c-2.5-0.6-3.7-3.7-5-12.4c-0.6-6.8-2.5-12.4-5-14.3
		C308.1,260.2,308.1,260.2,303.8,267L303.8,267z M311.2,281.3c1.2,1.9,1.9,5.6,1.9,8.1c0,5-6.8,13-11.2,13c-1.2,0-2.5,1.9-2.5,5
		c0,2.5-0.6,5-1.9,5c-1.2,0-1.9,1.2-1.9,2.5s-1.9,3.7-3.7,3.7c-3.7,1.2-5.6,8.7-1.9,8.7c1.2,0,3.1,2.5,3.7,5l1.9,5.6l3.1-4.3
		c3.7-5.6,5-5.6,11.2,0.6c3.7,3.7,4.3,5,1.9,6.8c-5.6,4.3-23.6-2.5-23.6-9.3c0-1.9-0.6-3.7-1.9-3.7c-2.5,0-4.3-6.2-2.5-8.7
		c1.2-1.2,2.5-4.3,3.1-6.8c0.6-3.1,3.1-6.8,6.2-8.1c2.5-1.9,5-4.3,5-6.2c0-1.2,1.2-3.1,3.1-3.7c1.2-0.6,3.1-3.1,3.1-5.6
		C303.8,278.2,308.1,274.5,311.2,281.3L311.2,281.3z M331.7,373.1c1.9,1.9,3.1,5,1.9,6.8c-1.2,3.7-5,1.9-5-1.9
		c0-1.2-0.6-2.5-1.9-2.5c-1.2,0-1.9-1.2-1.9-3.1C324.9,368.2,327.4,368.8,331.7,373.1z M324.9,389.3c2.5,3.1,3.7,7.4,3.7,14.9
		c0,8.7,0.6,11.2,3.1,11.8c2.5,1.2,2.5,1.9,1.2,3.7c-3.1,3.1-14.3-9.3-13-15.5c0.6-2.5,0-6.8-1.2-9.3
		C313.7,385.5,318.7,381.2,324.9,389.3L324.9,389.3z"/>
	<path d="M347.8,280.1c0,2.5,1.2,5.6,3.1,6.2c3.7,1.2,3.7-2.5,0-7.4C347.8,275.1,347.8,275.1,347.8,280.1z M343.5,299.9
		c-0.6,0.6-1.2,3.7-1.2,6.2v5l3.7-3.7c2.5-1.9,3.7-5,3.1-6.2C347.8,298.7,345.4,298.1,343.5,299.9z M351.6,316.1
		c-0.6,7.4,0,10.5,1.9,12.4c6.8,6.2,11.8,0,5.6-7.4c-1.9-2.5-3.7-6.8-3.7-9.9C355.9,301.8,352.2,306.1,351.6,316.1z"/>
</g>
</svg>
