<?xml version="1.0" encoding="utf-8"?>
<!-- Generator: Adobe Illustrator 18.1.1, SVG Export Plug-In . SVG Version: 6.00 Build 0)  -->
<svg version="1.1" id="Layer_1" xmlns="http://www.w3.org/2000/svg" xmlns:xlink="http://www.w3.org/1999/xlink" x="0px" y="0px"
	 viewBox="0 0 640 480" enable-background="new 0 0 640 480" xml:space="preserve">
<g>
	<path fill="#174D8A" d="M498.8,3.9c9.1,7.7,17.8,16.1,26.3,24.5c-0.1,52.5,0,105-0.1,157.6c-15.9,0-31.8,0.3-47.7-0.2
		c-9.4-9.3-20.2-17.7-28.5-27.9c16.4,0.3,32.8,0.1,49.1,0.1l0.8-1.1C498.7,105.9,498.7,54.9,498.8,3.9L498.8,3.9z"/>
	<path fill="#DE4225" d="M122,13.9l0.6-1.4c121.9,0.3,243.9-0.2,365.7,0.2c1.8,17.2,0.6,34.8,0.3,52.1c1.5,5.8-0.2,11.7-0.1,17.5
		c2.1,9.4-1.2,19,0.7,28.4c-0.6,12.5,1.1,25.3-1,37.7c-10.3-0.4-20.7,0.5-31-0.5c1.1-19.3-3.5-39.4-16.1-54.5
		c-16-19.2-41-27.8-65.2-29.9c-9.8-1.9-19.8-1.1-29.8-1.8c0,36.7-0.1,73.4,0,110.2c0.1,15.4,12.8,26.8,25.4,33.7
		c-0.1,0.5-0.3,1.5-0.4,2c-13.2,5.8-25.6,18-25,33.4c0,40.2-0.2,80.3,0.1,120.5c-0.3,10.9,9.7,19,19.8,20.2
		c9.8,0.8,19.6,0.2,29.4,0.5c0.4,17.7,0.2,35.4,0.1,53.1c-57.9,0.2-115.8-0.2-173.6,0.2l-0.7-1.2c0-17-0.2-34,0.1-51.1l0.9-1.1
		c8.5,0.1,17,0.2,25.4-0.1c11.7-0.5,23-10,22.8-22.3c0.8-38.9,0.1-77.8,0.3-116.8c-0.5-7.7-1.5-15.9-6.5-22.2
		c-3.9-6-10.1-9.9-16.1-13.5c-0.3-2.1,3-2.5,4.2-3.8c10.5-7,18.2-18.4,18.5-31.3c0.1-35.8,0-71.7,0.1-107.5
		c-0.2-0.7-0.7-2.1-0.9-2.9c-26.3,0-54.3,1.1-77.1,15.7c-23,15.1-30.6,44.6-28.8,70.7c-13.9,0.5-27.8-0.1-41.7,0.3L122,147
		C122,102.6,122,58.2,122,13.9L122,13.9z"/>
	<path fill="#174D8A" d="M190.5,92.1c18.2-18.1,45.7-19.8,69.9-20.5c1.2,2.6,1.3,5.7,0.4,8.5c-15,2.5-31.3,5.4-42.8,16.3
		c-12.1,10.9-16.4,27.5-18.2,43.1c-1.7,14.9-1.5,29.8-1.6,44.8c-19.2,0.2-38.5,0-57.7,0.1c-9-7.9-17.4-16.4-26.3-24.5
		c0.1-0.6,0.3-1.6,0.4-2.2c19.3,0.9,38.7,0.1,58,0.4l0.8-1.1C173,134.6,173.9,109.2,190.5,92.1L190.5,92.1z"/>
	<path fill="#174D8A" d="M355.9,72c25.7,0.4,53.7,4.8,73,23.3c-13.3-8.7-29.3-12.7-45.1-12.9c0.2,34.6-0.3,68.8,0.2,103.4
		c0.4,8.6,7.4,14.7,12.8,20.4c-11.7-3.1-22.9-9-32-17.1c-4.5-4.7-9.2-10.3-8.9-17.2C355.8,138.6,355.8,105.3,355.9,72L355.9,72z"/>
	<path fill="#174D8A" d="M361.6,370.2c6.7,3.1,14.3,2.3,21.5,2.2c0.4-2.9,0.7-5.9,0.8-8.8V350c-0.1-5-0.2-10-0.1-15c0,0,0,0,0.1,0
		v-17.4c0,0-0.1-0.1-0.1-0.1c0-2.7,0.1-5.5,0.1-8.2v-16.6c-0.1-15.2-0.2-30.3,0.3-45.5c2.8-15.7,18.8-24,32.4-29.1
		c-5.8-3.5-12.1-6.4-17.6-10.5c-8.6,3.3-18,4.4-25.9,9.5c-8.7,4.9-17.8,13-17.2,23.8c0,39.6-0.1,79.1,0,118.7
		C355.4,364,357.7,368.3,361.6,370.2z"/>
	<path fill="#174D8A" d="M255.3,473.8c0,0,0.1,0.1,0.1,0.1h13.3c0,0,0,0,0.1-0.1c53.3-0.2,106.7,0,160-0.1c0.1-26.3,0.1-52.6,0-78.8
		c-3.4-3.1-6.6-6.5-10.2-9.3c0-0.1,0-0.1,0-0.2l-13-10.7c-0.2,23.4,0,46.9-0.1,70.3c-63.9,0-127.8,0.4-191.7-0.2l28.5,28.3
		C246.2,474.4,251.1,473.7,255.3,473.8z"/>
</g>
</svg>
