<?xml version="1.0" encoding="utf-8"?>
<!-- Generator: Adobe Illustrator 21.1.0, SVG Export Plug-In . SVG Version: 6.00 Build 0)  -->
<svg version="1.1" baseProfile="tiny" id="Layer_1" xmlns="http://www.w3.org/2000/svg" xmlns:xlink="http://www.w3.org/1999/xlink"
	 x="0px" y="0px" viewBox="0 0 640 480" overflow="scroll" xml:space="preserve">
<g id="Layer_3">
	<g>
		<path fill="#E21A38" d="M286,168.5c0.1,5.5,0.2,11,0.2,16.5c0,1.7,0,3.5,0,5.5c4.1,0,8.1,0,12.1,0c0,7.1,0,14,0,21.2
			c-3.9,0-7.9,0-12.1,0c0,17.7,0,35.2,0,52.7c-12.3,0-24.3,0-36.5,0c0-18.2,0-36.3,0-54.5c-0.2,0-0.4-0.1-0.6-0.1
			c-2.2,5.8-4.4,11.6-6.6,17.3c-8,20.8-15.9,41.6-23.8,62.4c-0.6,1.5-1.2,2.2-3,2.1c-10.3-0.1-20.7,0-31-0.1c-0.7,0-1.4-0.1-2.4-0.1
			c2-5.5,4-10.8,5.9-16.1c1.4-3.7,3.8-7.5,3.8-11.2c0-3.7-2.4-7.5-3.9-11.2c-7.5-19.9-15.1-39.8-22.6-59.7c-0.3-0.8-0.6-1.7-1-2.7
			c11.4,0,22.5,0,33.7,0c1.6,0,1.7,0.9,1.9,2c3.1,11.3,6.2,22.6,9.3,33.9c0.2,0.8,0.5,1.5,0.8,2.8c3.7-13.1,7.3-25.7,10.9-38.6
			c9.5,0,18.9,0,28.8,0c0-7.5,0-14.8,0-22.1C262,168.5,274,168.5,286,168.5z"/>
		<path fill="#E21A38" d="M66,168.5c0.2,0.2,0.5,0.4,0.8,0.5c11.8,1.9,20.9,13.8,19,27.8c-1.2,9.3-2.5,11.3-11.5,18
			c2.3,1.8,4.6,3.6,6.8,5.5c3.5,3.2,4.6,7.5,4.7,12c0.1,10.6,0,21.1,0,31.9c-12.7,0-25.4,0-38.4,0c0-11.7,0-23.5,0-35.4
			c-2.9,0-5.6,0-8.5,0c0,11.8,0,23.6,0,35.7c-13,0-25.7,0-38.5,0c0-32,0-63.9,0-96C22.3,168.5,44.2,168.5,66,168.5z M39.3,187
			c0,7.1,0,13.8,0,20.7c2.8,0,5.4,0,8.1,0c0-6.9,0-13.7,0-20.7C44.6,187,42,187,39.3,187z"/>
		<path fill="#E21A38" d="M338.5,168.5c0,8.7,0,17.5,0,26.7c0.9-0.6,1.5-1,2.1-1.3c8.2-5.1,17-7.3,26.5-5.3c9.5,2,16,10,16.1,19.6
			c0.1,18.2,0,36.5,0,54.7c0,0.4-0.1,0.8-0.1,1.4c-12.2,0-24.3,0-36.6,0c0-17.4,0-34.8,0-52.4c-2.7,0-5.1,0-7.7,0
			c0,17.5,0,34.8,0,52.4c-12.2,0-24.3,0-36.7,0c0-31.9,0-63.8,0-95.8C314.2,168.5,326.3,168.5,338.5,168.5z"/>
		<path fill="#E21A38" d="M594.6,264.3c-12.2,0-24,0-36,0c0-25.1,0-50,0-75.2c11.4,0,22.8,0,34.6,0c0,1.9,0,4,0,6.5
			c1-0.8,1.6-1.2,2.1-1.6c11.4-9.4,30.3-7.9,39.6,3c2.6,3.1,4.5,6.6,4.6,10.6c0.1,18.8,0.1,37.6,0.1,56.6c-12.4,0-24.7,0-37.4,0
			c0-17.5,0-34.9,0-52.5c-2.6,0-4.9,0-7.5,0C594.6,229.3,594.6,246.7,594.6,264.3z"/>
		<path fill="#E21A38" d="M555.2,227c-0.8,4.9-1.3,10.7-2.6,16.4c-2.7,11.2-9.9,18.3-21.3,20.5c-12.3,2.4-24.6,2.4-36.9-0.2
			c-10.9-2.3-17.6-9-20.4-19.5c-3.3-12-3.3-24.1-0.1-36c2.9-10.7,9.6-17.7,20.7-19.9c13-2.6,26-2.7,38.9,0.5
			c12.1,3,17.9,11.7,20.1,23.3C554.3,216.6,554.5,221.4,555.2,227z M516.7,247.9c0-14.9,0-29.5,0-44.2c-2.5,0-4.8,0-7.3,0
			c0,14.8,0,29.5,0,44.2C511.9,247.9,514.2,247.9,516.7,247.9z"/>
		<path fill="#E21A38" d="M423.6,230.3c0,6,0,11.7,0,17.5c2.5,0,4.9,0,7.5,0c0-3.5,0-6.9,0-10.5c12.5,0,24.8,0,37.1,0
			c0.2,9.6-7.8,21.1-17.6,24.5c-4.7,1.7-9.8,2.7-14.8,3.2c-8.9,1-17.8,0.4-26.6-1.6c-11.4-2.7-18.6-9.8-21.5-20.9
			c-3.1-11.6-3-23.2,0.2-34.8c2.9-10.7,9.8-17.4,20.7-19.6c11.7-2.4,23.5-2.7,35.2-0.1c13.9,3.1,22.1,12,24.2,26.2
			c0.7,4.4,0.7,8.9,1.1,13.4c0.2,2-0.6,2.7-2.7,2.7c-13.2-0.1-26.5,0-39.7,0C425.7,230.3,424.7,230.3,423.6,230.3z M430.9,217.8
			c0-4.9,0-9.5,0-14.2c-2.5,0-4.8,0-7.3,0c0,4.8,0,9.4,0,14.2C426.1,217.8,428.4,217.8,430.9,217.8z"/>
		<path fill="#E21A38" d="M133.6,217.7c0-4.9,0-9.3,0-14c-2.4,0-4.8,0-7.5,0c0,2.9,0,5.7,0,8.7c-11.5,0-22.7,0-34,0
			c-0.9-6.2,0.9-11.5,5.6-15.7c6.2-5.6,13.8-8.2,21.9-9.4c9.8-1.4,19.6-1.7,29.1,1.7c10.6,3.8,18.1,10.4,20,22.1
			c0.2,1.4,0.3,2.8,0.3,4.2c0,15.7,0,31.5,0,47.2c0,0.6-0.1,1.1-0.1,1.8c-11.3,0-22.4,0-33.8,0c0-3,0-5.9,0-9.6
			c-7.6,9.8-17.2,11.9-28.1,10.3c-8.7-1.3-14.6-6-16.6-14.7c-1-4.3-1.5-8.9-1.2-13.3c0.8-10,6.9-16.4,17.4-17.9
			c7.6-1.1,15.4-1,23.1-1.5C131,217.6,132.2,217.7,133.6,217.7z M125.8,245.5c2.7,0,5.2,0,7.8,0c0-5.5,0-10.9,0-16.3
			c-2.6,0-5.2,0-7.8,0C125.8,234.7,125.8,240,125.8,245.5z"/>
	</g>
</g>
<g id="Layer_2">
</g>
</svg>
