<?xml version="1.0" encoding="utf-8"?>
<!-- Generator: Adobe Illustrator 22.1.0, SVG Export Plug-In . SVG Version: 6.00 Build 0)  -->
<svg version="1.1" id="Layer_1" xmlns="http://www.w3.org/2000/svg" xmlns:xlink="http://www.w3.org/1999/xlink" x="0px" y="0px"
	 viewBox="0 0 640 480" style="enable-background:new 0 0 640 480;" xml:space="preserve">
<style type="text/css">
	.st0{fill:#15366F;}
</style>
<g>
	<path class="st0" d="M81.2,193.9c0,21,17.5,38.5,38.6,38.5h76.6c16.3,0,30.7-10.8,36.2-25.3c0,0,13.9-39.1,54.3-53.6
		c14.5-4.8,24.1-19.9,24.1-36.1V41.1c0-21-16.9-38.5-38-38.5c-21.7,0-38.6,17.4-38.6,38.5v60L146.9,14c-15-15-39.2-15-54.3,0
		c-15,15-15,39.1,0,54.1l87.9,87.9l-60.8-0.1C95.7,156,81.2,172.8,81.2,193.9z"/>
	<path class="st0" d="M353.8,153c0,0,39.8,14.5,53.7,54.8c4.8,14.4,19.9,24.1,36.2,24.1h76.6c21.1,0,38.6-17.5,38.6-38.5
		c0-21.1-17.5-38.5-38.6-38.5h-59.7l86.8-86.6c15.1-15.1,15.1-39.7,0-54.7c-15.1-15-39.2-15-54.3,0l-88,88.3l0-61.2
		c0-22.2-16.9-37.9-38-37.9c-21.1,0-38.6,16.8-38.6,37.9v76.4C328.4,133.7,339.3,147.5,353.8,153z"/>
	<path class="st0" d="M286.2,326.8c0,0-39.2-13.8-53-54.7c-5.4-14.5-19.9-24.1-36.2-24.1h-76.6c-21.7,0-38.6,17.5-38.6,38.5
		c0,21,16.9,38.4,38.6,38.4h60.1l-87.2,87.3c-15.1,14.4-15.1,39.1,0,54.1c14.5,15.1,39.2,15.1,54.3,0l88.2-88l-0.1,61
		c-0.6,24,16.3,37.9,37.4,37.9v0c21.7,0,38.6-16.9,38.6-37.9v-76.4C311.6,346.1,301.3,332.2,286.2,326.8z"/>
	<path class="st0" d="M558.2,286.6c0-21.1-17.5-38.5-38.6-38.5H443c-16.3,0-30.8,10.9-36.2,25.3c0,0-13.9,39.7-54.3,53.5
		c-14.5,4.8-24.8,19.8-24.8,36.1v76.4c0,21.1,17.5,38.5,38.6,38.5c21.1,0,38.6-15.6,38.6-38.5v-60.2l87.4,87.2
		c15.1,15.1,39.2,15.1,54.3,0c15.1-15,15.1-39.1,0-54.1l-88-87.9l60.9,0.1C542.5,324.4,558.2,307.6,558.2,286.6z"/>
</g>
</svg>
