<?xml version="1.0" encoding="utf-8"?>
<!-- Generator: Adobe Illustrator 22.1.0, SVG Export Plug-In . SVG Version: 6.00 Build 0)  -->
<svg version="1.1" id="Layer_2_1_" xmlns="http://www.w3.org/2000/svg" xmlns:xlink="http://www.w3.org/1999/xlink" x="0px" y="0px"
	 viewBox="0 0 640 480" style="enable-background:new 0 0 640 480;" xml:space="preserve">
<style type="text/css">
	.st0{fill:#DF0336;}
</style>
<g>
	<path class="st0" d="M319.4,480C186,479.9,80,373.3,79.6,239.6C79.2,107.4,188.7-1.9,323.1,0c126.4,1.8,237.4,101.9,237.3,240.4
		C560.2,374.7,453.6,480.1,319.4,480z M319.7,391.1c31.3,0,62.7,0.1,93.9-0.1c18.5-0.1,26.2-7.9,26.3-26.7c0.1-29,0.3-58.1-0.1-87.1
		c-0.2-9.9,1.6-15.2,13.3-14.5c16.6,1.1,28.6-6.7,35.1-22.4c6.6-16-0.1-28.4-10.8-39.2c-45.4-45.6-91.2-91-136.8-136.4
		c-14.8-14.7-26-14.7-40.8,0.1c-45.7,45.4-91.4,90.8-137.1,136.2c-11.2,11.1-16.8,24-10.8,39.4c6,15.6,18.3,23.7,35.1,22.5
		c12.1-0.9,14.2,4.4,14.1,15c-0.6,29.5-0.3,59-0.2,88.5c0.1,17.3,7.4,24.6,24.9,24.7C257,391.2,288.3,391.1,319.7,391.1z"/>
	<path class="st0" d="M429.8,219c-2.3,0.5-3.6,0.9-5,0.9c-27.9,1.1-27.9,1-27.9,28.5c0,28.6-0.3,57.2,0.2,85.8
		c0.2,10.3-2.6,14.6-13.7,14.5c-42.2-0.5-84.4-0.5-126.6-0.1c-10,0.1-13.6-3-13.4-13.2c0.5-32.7-0.5-65.4,0.5-98
		c0.4-13.9-4.1-19.2-17.9-17.4c-5.1,0.7-10.4,0.1-15.5,0.1c37-38.1,73-75.2,108.6-112C356.1,145.1,392.6,181.6,429.8,219z"/>
</g>
</svg>
