<?xml version="1.0" encoding="utf-8"?>
<!-- Generator: Adobe Illustrator 21.0.2, SVG Export Plug-In . SVG Version: 6.00 Build 0)  -->
<svg version="1.1" id="Layer_1" xmlns="http://www.w3.org/2000/svg" xmlns:xlink="http://www.w3.org/1999/xlink" x="0px" y="0px"
	 viewBox="0 0 640 480" style="enable-background:new 0 0 640 480;" xml:space="preserve">
<path d="M480.6,240L320,17.1L159.4,240L320,462.9L480.6,240L480.6,240z M486.8,240L320,471.5L153.2,240L320,8.5L486.8,240L486.8,240
	z"/>
<path d="M300,407.7l20,27.7l19.9-27.7H300z M285.6,387.6l5.7,7.9H282L271,380.3H369L358,395.5h-9.3l5.7-7.9H285.6z M271.1,367.5
	l5.7,7.9h-9.3l-10.8-14.9h126.5l-10.8,14.9h-9.3l5.7-7.9H271.1L271.1,367.5z M256.6,347.5l5.9,8.2h-9.3l-11.1-15.4h155.7l-11.1,15.4
	h-9.3l5.9-8.2H256.6L256.6,347.5z M242.2,327.4l5.7,8h-9.3l-10.9-15.1h184.6l-10.9,15.1h-9.3l5.7-8H242.2L242.2,327.4z M227.7,307.3
	l5.8,8h-9.3l-10.9-15.1h213.4l-10.9,15.1h-9.3l5.8-8H227.7L227.7,307.3z M213.2,287.2l5.8,8.1h-9.3l-10.9-15.1h242.3l-10.9,15.1H421
	l5.8-8.1H213.2L213.2,287.2z M200.7,269.8l3.9,5.4h-9.3l-9.4-13H454l-9.4,13h-9.3l3.9-5.4H200.7L200.7,269.8z M340.4,73L320,44.6
	L299.6,73h-9.3l26.7-37l3.1-4.2l3.1,4.2l26.7,37L340.4,73L340.4,73z M354.9,93l-5.7-7.9h-58.3l-5.7,7.9h-9.3l10.9-15.1h66.5
	L364.2,93H354.9L354.9,93z M369.2,112.8l-5.5-7.7h-87.3l-5.5,7.7h-9.3l10.8-14.9h95.4l10.8,14.9H369.2L369.2,112.8z M383.8,133.1
	l-5.7-7.9H261.9l-5.7,7.9h-9.3l11.1-15.4H382l11.1,15.4H383.8L383.8,133.1z M398.2,153.1l-5.6-7.8H247.4l-5.6,7.8h-9.3l10.9-15.1
	h153.2l10.9,15.1L398.2,153.1L398.2,153.1z M412.6,173.2l-5.6-7.8H233l-5.6,7.8h-9.3L229,158H411l10.9,15.1H412.6z M427.1,193.2
	l-5.6-7.7h-203l-5.6,7.7h-9.3l10.9-15.1h210.9l10.9,15.1H427.1L427.1,193.2z M440.1,211.3l-4.1-5.7H204l-4.1,5.7H440.1L440.1,211.3z
	 M439.9,198.1l13.1,18.2H187l13.1-18.2H439.9z M354.5,400.4L323.1,444l-3.1,4.2l-3.1-4.2l-31.5-43.7H354.5L354.5,400.4z"/>
<path d="M188.8,236.4c2,0,3.6,1.6,3.6,3.6c0,2-1.6,3.6-3.6,3.6c-2,0-3.6-1.6-3.6-3.6C185.2,238,186.8,236.4,188.8,236.4z
	 M455.2,236.4c2,0,3.6,1.6,3.6,3.6c0,2-1.6,3.6-3.6,3.6s-3.6-1.6-3.6-3.6C451.6,238,453.2,236.4,455.2,236.4z M195.3,225.9v2.1
	l3.4,0.1l0.8,0.6v19l-0.8,0.7l-3.4,0.2v2.1h17.8v-2.1l-3.5-0.2l-0.8-0.7v-7.8h0.5c3.6,0,5.3,1.1,6.6,3.6c1,2.1,1.3,4.1,3.1,5.5
	c1.6,1.3,4.2,1.9,7.7,1.9c2,0,4.4-0.1,7.2-0.2v-2.2h-0.6c-3.8,0-5-0.7-6.2-2.8c-1.2-2.1-2-4.2-4.5-5.8c-1.3-0.8-3-1.3-5.2-1.6
	c6.6-0.6,10-2.8,10-6.3c0-4-4.3-6.1-12.6-6.1L195.3,225.9L195.3,225.9z M208.8,228.4h2.4c4,0,6.4,1.7,6.4,4.4c0,3.1-2.5,4.7-7.6,4.7
	c-0.4,0-0.8,0-1.2,0L208.8,228.4L208.8,228.4L208.8,228.4z M234.3,250.7h30.8v-7.2h-4.4l-1,4.1l-0.7,0.6h-11.1v-8.9h5.6l0.8,0.5
	l0.5,2.7h3.8v-9.1h-3.8l-0.5,2.7l-0.8,0.5h-5.6v-8.2h9.4l0.7,0.4l0.9,3.3h4.5v-6.2h-29.2v2.1l3.6,0.1l0.8,0.6v19l-0.8,0.7l-3.6,0.2
	V250.7z M268.8,250.7h13.4v-2.1l-3.6-0.2l-0.7-0.7v-15.9l17.6,18.9h8.4v-21.8l1-0.7l3.1-0.3v-2h-13.4v2l3.4,0.3l1,0.7v14.5
	l-15.2-16.5v-1h-15v2.1l3.6,0.1l0.7,0.6v19l-1,0.7l-3.2,0.2V250.7z M323.9,225.7l-12.2,22.7l-3.5,0.2v2.1H321v-2.1l-3.4-0.3
	l-0.5-0.4l2.7-5.5h11.3l2.8,5.5l-0.4,0.5l-3.6,0.2v2.1H347v-2.1l-3.2-0.3l-12.3-22.6H323.9L323.9,225.7z M325.2,231.7l4.3,8.2H321
	L325.2,231.7z M345.9,225.9v2.1l3.8,0.1l0.6,0.6v11.9c0,2.7,0.1,4.9,1.9,6.8c2.5,2.6,6.8,3.8,13,3.8c10.7,0,15-3,15-10.2v-12.2
	l0.7-0.6l3.4-0.1v-2.1h-13.4v2.1l3.8,0.1l0.6,0.6v11.8c0,4.9-1.5,7.1-7.5,7.1c-5.9,0-8-2-8-6.4v-12.5l0.6-0.6l3.4-0.1v-2.1
	L345.9,225.9L345.9,225.9L345.9,225.9z M386.8,250.7h29.3v-7.8h-5.3l-0.7,4.6l-0.6,0.6h-9v-19.4l0.9-0.6l3.6-0.1v-2.1h-18.1v2.1
	l3.5,0.1l0.7,0.6v19l-1,0.7l-3.2,0.2V250.7L386.8,250.7z M413.5,225.9v7.4h4.5l1.1-4.5l0.9-0.4h5.2v19.3l-1,0.7l-3.6,0.2v2.1h18.6
	v-2.1l-3.5-0.2l-1-0.7v-19.3h5l1,0.4l1.1,4.5h4.5v-7.4H413.5L413.5,225.9z"/>
</svg>
