<?xml version="1.0" encoding="utf-8"?>
<!-- Generator: Adobe Illustrator 21.0.2, SVG Export Plug-In . SVG Version: 6.00 Build 0)  -->
<svg version="1.1" id="Layer_1" xmlns="http://www.w3.org/2000/svg" xmlns:xlink="http://www.w3.org/1999/xlink" x="0px" y="0px"
	 viewBox="0 0 2500 2500" style="enable-background:new 0 0 2500 2500;" xml:space="preserve">
<style type="text/css">
	.st0{fill:#E49F44;}
	.st1{fill:#CF4044;}
	.st2{fill:#0A2C5C;}
</style>
<g>
	<path class="st0" d="M565.2,902.7c192.5-287.5,525.1-486,861.8-486c460.2,0,754,373.1,656.2,833.3H0V902.7H565.2z"/>
	<path class="st1" d="M1955,1564.4c-188.8,304.4-533.3,518.9-882.2,518.9c-342.7,0-592.1-206.1-657.3-501.8
		c-1.7-8,237.4-288.5,748.1-283.9C1816.7,1303.4,1959.3,1557.6,1955,1564.4z"/>
	<path class="st2" d="M2500,1250v320.5c0,0-50.2,2.8-59.2,2.8c-38.1,1.2-79.7-6.5-79.7-6.5s-25.1-6.2-44.8-1.3
		c-13.2,3.2-41.6,13.3-69.1,14.2c-24.7,0.8-49.1-5.1-62.9-7.4c-16.2-3.5-45.1-19.6-78.6-17.3c-4.4,0-26.9,2.9-49.8,6.5
		c-13.7,2.1-27.4,5.2-37.6,6.6c-31.9,4.2-40.2,0.3-50.9-1.2c-4.6-0.6-7.6-1.7-12.5-2.5c-23.2-3.5-34.5-5.9-60,4.5
		c-7.6,3.1-56.5,6.6-75.8,10.2c-26,4.9-47.5-8-63.6-9.5c-24.1-2.2-34.4,6.4-41.2,7.4c-10.3,1.5-33.8,15.8-59.9,18.3
		c-12.6,1.3-25.4-2.9-64,0.3c-12.9,1.1-42.8-3-62.1-8c-6.6-1.7-34.4-8-58.2-10.3c-24.6-2.3-52.1-6.8-62.7-12.9
		c-18.6-10.7-50.7-11.9-61.5-13.2c-33.5-3.9-53.9,19.5-89.9,22.1c-24.6,1.8-43-3.4-63.2-3.1c-18.7,0.3-64.6,17.5-89.6,17
		c-40.6-0.7-79.3-17-101.9-18.9c-11.1-1-21.9,1.3-36,1.3c-10.7,0-21.5-0.3-32.2-1c-23.3-1.3-42.1,2.3-66.7-6.5c-14-5-62.2-7-78.7-7
		c-23.4,0-58.5-6.1-86.5,4c-30.7,11.2-38.7,10.2-60.2,11.8c-14.6,1-23.6,0.3-41.2,3.2c-17.7,2.9-31.8,1.1-46.7,2
		c-29.2,1.9-27.8,2.6-74.2,11c-22.8,4.1-63.3-5.6-63.3-5.6c-27-100.6-22-223.2,1.1-331.5L2500,1250L2500,1250z"/>
</g>
</svg>
