<?xml version="1.0" encoding="utf-8"?>
<!-- Generator: Adobe Illustrator 22.1.0, SVG Export Plug-In . SVG Version: 6.00 Build 0)  -->
<svg version="1.1" id="Layer_1" xmlns="http://www.w3.org/2000/svg" xmlns:xlink="http://www.w3.org/1999/xlink" x="0px" y="0px"
	 viewBox="0 0 640 480" style="enable-background:new 0 0 640 480;" xml:space="preserve">
<g>
	<path d="M319.3,4.1c16,24,30,47.7,24.8,77c-2.9,16.6-12,30-25.1,41.7c-16.8-15.4-27.4-33.4-26-56.5
		C294.5,43.2,305.3,23.6,319.3,4.1z"/>
	<path d="M326.4,475.9c-0.9-0.9-1.1-0.9-1.1-1.1c-2.3-24-1.7-47.9,8-70.5c6-14,24.5-27.4,42.5-34c0.6,2.9,1.7,5.4,1.7,8.3
		c0.3,14.8,2,30,0.6,44.5c-2.3,23.4-18.3,36.8-38,46.8C335.5,472.1,330.7,473.9,326.4,475.9z"/>
	<path d="M376.1,277.2c4,22.8,6.6,44.2-0.9,64.8c-2.9,8-9.1,15.4-15.1,22c-9.1,9.4-21.1,15.1-35.7,20.3c0-6.8-0.3-12.8,0-18.8
		c0.9-12.3,2-24.8,3.7-36.8C331.8,300.9,352.7,288.9,376.1,277.2z"/>
	<path d="M314.7,291.8c-38.2-9.7-58.2-37.1-56.5-74.5c0.6-10.3,1.7-20.5,2.6-30.8c22.3,4.3,45.4,26.8,48.8,49.4
		C312.4,253.8,313,272.4,314.7,291.8z"/>
	<path d="M375.8,185.1c3.7,22.3,5.7,42.8,0,63.4c-2.9,9.7-8.6,17.4-16,24c-10,8.8-21.4,14.8-33.7,19.4c-0.6-0.6-1.1-0.9-1.1-1.1
		c-2.3-22.8-1.1-45.7,6.6-67.3c4.6-12.3,14.6-20.5,25.4-27.4C362.7,191.6,368.9,188.8,375.8,185.1z"/>
	<path d="M375.8,91.8c4.3,24,6.3,45.4-0.6,66.5c-3.1,10.3-10,18.3-18.5,24.3c-9.7,6.6-20,12-30.2,18.3c-4.3-22-3.4-73.9,20.5-89.9
		C355.8,104.9,364.9,98.9,375.8,91.8z"/>
	<path d="M261.4,277.5c26.8,11.7,47.1,27.4,49.7,57.6c1.4,16,2,32,2.9,47.9c-20.5-1.7-46.8-24-52.5-43.7
		C255.6,319.2,258.2,298.9,261.4,277.5z"/>
	<path d="M261.6,370c14.8,6,27.1,14,37.1,25.1c7.7,8.6,11.1,19.1,12,30.2c1.4,16.6,2.6,33.1,3.7,50.2c-23.4-5.7-54.5-25.1-55.4-58.2
		c-0.3-11.4,0-23.1,0.6-34.5C259.6,378.8,260.8,374.8,261.6,370z"/>
	<path d="M314.4,199.6c-37.4-8.8-57.6-36.2-56.2-73.9c0.3-9.4,1.7-18.8,2.6-28.3c0-1.1,0.9-2,1.7-3.7c24,11.1,44.8,24.8,47.9,53.9
		C312.1,164.5,313,181.9,314.4,199.6z"/>
	<path d="M457.1,180.5c-27.7-23.4-28.3-59.6-0.6-95C484.8,107.7,485.1,158,457.1,180.5z"/>
	<path d="M182,85.2c28.3,34.2,28.3,72.5,0,95C154.1,158,153.5,121.7,182,85.2z"/>
	<path d="M228.5,233.3c9.1,48.2-1.4,72.8-41.4,85.3c-1.1-18.5-1.1-36.5,4.6-54.2C196,251.8,213.4,237.6,228.5,233.3z"/>
	<path d="M502.8,308.1c9.1,45.4,2,71.9-42.2,86.7c0.9-13.7,1.7-26.8,2.9-40C464.8,330,481.9,318,502.8,308.1z"/>
	<path d="M134.9,308.1c23.4,10.3,39.7,24.3,41.1,50.8c0.6,11.7,1.1,23.4,1.7,35.1c-17.7-1.1-39.7-20.5-43.4-37.4
		C130.9,340.9,132.4,324.9,134.9,308.1z"/>
	<path d="M176.9,243c-21.4-2.3-41.9-23.4-43.7-45.9c-1.1-12.8,0.3-26,0.6-40.8c19.1,9.1,34.8,18.3,40,38.5
		C177.5,210.8,178,226.7,176.9,243z"/>
	<path d="M410.3,157.4c19.4,9.1,36.2,19.7,39.1,42.5c2,14.3,2.3,28.8,3.4,43.4C417.2,239.9,400.9,206.2,410.3,157.4z"/>
	<path d="M460,243.3c1.4-16.3,2-32,4.6-47.1c3.7-20.8,20.3-30.2,37.7-38.5C518.7,189.9,495.6,238.7,460,243.3z"/>
	<path d="M453.1,319.5c-29.4-7.4-45.9-27.7-46.2-55.1c0-10.3,1.1-20.5,2-32.2c18.5,9.1,35.4,18.3,39.4,38.8
		C451.1,286.4,451.7,302.6,453.1,319.5z"/>
	<path d="M461.4,469.3c-0.9-18-1.4-36.2,4.9-53.4c6-16.8,20.8-25.1,36.2-32.2C517,420.8,495.9,464.4,461.4,469.3z"/>
	<path d="M461.7,319.8c-1.1-18.8-1.1-36.5,4.3-53.4c5.7-17.4,20.5-26,37.4-34c3.1,19.7,6,38.5-2,56.2
		C493.9,305.2,478.8,313.2,461.7,319.8z"/>
	<path d="M133.8,382.8c21.1,10,38,20.5,40.8,43.7c1.7,14.3,2.3,28.5,3.4,43.1c-23.7-3.4-43.9-24.5-45.4-47.1
		C132.1,409.6,133.5,397.1,133.8,382.8z"/>
	<path d="M451.4,469.6c-21.7-6.3-43.4-21.1-44.2-49.7c-0.3-12,1.1-23.7,1.7-37.1c19.4,9.7,36.2,19.4,40.2,41.7
		C452,439.3,452.3,454.4,451.4,469.6z"/>
	<path d="M228,157.4c10.3,47.1-0.9,73.3-41.1,85.9c-1.1-18.5-1.7-37.4,5.1-54.8C198.6,172.5,212.8,164.2,228,157.4z"/>
	<path d="M133.8,231.9c22.3,10.3,39.1,22,41.4,46.2c1.4,13.4,2,26.8,2.9,40.5c-22-2-43.7-24.3-45.1-46.8
		C132.1,259.3,133.5,246.4,133.8,231.9z"/>
	<path d="M452,394c-35.1-4.9-53.1-41.7-41.9-85c19.4,3.7,37.4,23.7,40,45.1c1.1,10,1.4,19.7,2,29.7C452,387.1,452,390.5,452,394z"/>
	<path d="M187.4,393.7c-3.7-49.9,4.3-70.2,40.2-85C238.8,352.6,227.4,382,187.4,393.7z"/>
	<path d="M186.9,469.6c-1.1-17.4-0.9-34.2,3.7-50.8c3.1-11.1,10.6-19.1,20.3-25.4c5.4-3.4,10.8-6.3,16.3-9.1
		C244.2,416.8,223.1,461.6,186.9,469.6z"/>
</g>
</svg>
