<?xml version="1.0" encoding="utf-8"?>
<!-- Generator: Adobe Illustrator 22.1.0, SVG Export Plug-In . SVG Version: 6.00 Build 0)  -->
<svg version="1.1" id="Layer_2_1_" xmlns="http://www.w3.org/2000/svg" xmlns:xlink="http://www.w3.org/1999/xlink" x="0px" y="0px"
	 viewBox="0 0 640 480" style="enable-background:new 0 0 640 480;" xml:space="preserve">
<style type="text/css">
	.st0{fill:#E50334;}
</style>
<g>
	<path class="st0" d="M640,149.1c0,60.8,0,121.6,0,182.4c-213.3,0-426.7,0-640,0C0,271.3,0,211.1,0,151c0-0.8,0.4-1.6,0.5-2.5
		c1.1,0.2,2.2,0.5,3.2,0.5C215.9,149.1,427.9,149.1,640,149.1z M76.5,289c-7-1.9-9-4.5-9.2-11.8c0-0.3,0-0.5,0-0.8
		c0-25.2,0-50.3,0-75.4c0-0.9,0.1-1.9,0.1-2.9c5.4,0,10.5-0.3,15.5,0.1c5.7,0.4,11,2.1,14.3,7.5c7.2,11.5,1.1,26.4-12,29.3
		c-3,0.7-6,0.9-9.1,1.3c0,2,0,3.9,0,6.1c5.9,0.3,9.5,4,12.2,8.5c2.5,4.3,4.7,8.8,6.7,13.3c3.5,7.9,6.6,16,10.3,23.9
		c2.4,5.2,5.3,10,10.5,13.1c8.4,4.9,17.5,3.9,26.8,3.8c0-1.2,0-2.1,0-3c0-1,0-1.9,0-2.8c-6.9-2.1-9.1-3.8-12.6-9.9
		c-1.6-2.8-3.1-5.7-4.5-8.7c-4.3-9-8.4-18.2-13-27.1c-2.7-5.2-6.1-9.8-11.9-12.2c2.8-1.2,5.5-2.1,8.1-3.4
		c9.1-4.7,13.8-12.2,13.8-22.5c0-10.5-4.4-18.5-13.9-23.4c-6-3.1-12.5-4.4-19.1-4.5c-16.1-0.2-32.2-0.1-48.3-0.2
		c-4.2,0-4.1,0-4.1,4.1c0,1.6,0.5,2.1,2.1,2.4c1.4,0.2,2.8,0.9,3.9,1.8c3,2.4,3.4,5.8,3.4,9.3c0,24,0,47.9,0,71.9
		c0,7.7-1.8,10.1-9.1,12.2c0,1.8,0,3.7,0,5.7c13,0,25.9,0,38.9,0C76.5,292.6,76.5,290.8,76.5,289z M421.4,219.5
		c-9.1,0-17.7,0-26.3,0.1c-0.6,0-1.6,1-1.6,1.4c0.1,1.3-1.1,3.2,1.1,3.9c6.4,2.2,8.1,4.6,8.1,11.3c0,13.9,0,27.9,0,41.8
		c0,7.1-2.1,9.8-8.8,11.6c-0.2,0-0.3,0.2-0.4,0.4c0,1.5,0,3,0,4.9c1.2,0,2.3,0,3.3,0c10.2,0,20.4,0,30.7,0c4.3,0,4.3,0,4.1-4.3
		c0-0.4-0.2-0.7-0.2-0.9c-7-2-8.9-4.6-9-11.9c0-3.6,0-7.2,0-10.9c0.1-7.4,0.2-14.8,0.5-22.2c0.2-4.2,2-7.9,5-10.8
		c3.9-3.7,8.4-5.3,13.7-3.7c5.2,1.6,7.6,5.6,8.4,10.7c0.4,2.2,0.5,4.5,0.5,6.8c0,14.6,0,29.1,0,43.7c0,1.1,0,2.1,0,3.4
		c9.8,0,19.2,0,28.8,0c0-1.8,0-3.4,0-4.9c-0.3-0.1-0.6-0.3-0.8-0.3c-5.9-1.4-8.3-4.3-8.3-10.5c0-12.2,0-24.4,0-36.6
		c0-7.7-2.1-14.5-8.6-19.3c-8.3-6.3-21.7-7.1-30.5-1.5c-3.4,2.1-6.3,5.2-9.6,7.9C421.4,226.2,421.4,223,421.4,219.5z M351.5,187.3
		c-27.8,0-55.2,0-82.9,0c0,7.4,0,14.7,0,22c2.3,0,4.5,0,6.7,0c0.2-5.1,1.8-9.4,7.2-10.2c5.7-0.9,11.6-1,17.5-1.4
		c0.1,1.3,0.2,1.8,0.2,2.3c0,25.8,0,51.6,0,77.4c0,7.2-2.1,9.8-9.1,11.8c0,1.8,0,3.7,0,5.7c13,0,25.9,0,38.9,0c0-2.1,0-3.9,0-5.8
		c-7.2-2-9.1-4.5-9.1-12c0-25.2,0-50.5,0-75.7c0-1.1,0.1-2.1,0.2-3.5c5.4,0.2,10.5,0.2,15.5,0.8c5.4,0.6,7.7,3.2,8.5,8.6
		c0.1,0.7,0.3,1.4,0.4,2.1c2.1,0,4,0,6.2,0C351.5,201.9,351.5,194.7,351.5,187.3z M569.5,217.8c-22.8-0.2-39.6,16.4-39.7,39.1
		c-0.1,22.7,16.4,39.3,39.4,39.5c22.7,0.2,39.6-16.4,39.8-39.1C609.1,234.8,592.3,218,569.5,217.8z M221.6,296.4
		c23-0.1,39.5-16.7,39.4-39.7c-0.1-22.5-17-39.1-39.7-38.9c-23.4,0.2-39.5,16.7-39.4,40.5C182.1,280,199.2,296.5,221.6,296.4z
		 M492.4,227.6c0,1.4,0,2.3,0,3.2c0,15.8,0,31.6,0,47.5c0,2.1,0.2,4.2,0.5,6.2c0.7,4.3,3,7.6,7.3,9.1c6.8,2.3,13.9,1.1,21.1,1.4
		c0-1.6,0.1-2.9,0-4c-0.1-0.5-0.6-1.3-1.1-1.5c-6.8-2.7-8.2-4.6-8.2-11.8c0-15.5,0-31.1,0-46.6c0-1.1,0-2.1,0-3.5
		c3.8,0,7.2,0,10.7,0c0-1.6,0-2.9,0-4.1c0-1.2,0-2.5,0-3.9c-1.6,0-2.8,0-3.9,0c-6.8,0-6.8,0-6.8-6.8c0-3.4,0-6.8,0-10.4
		c-3.2,0-5.9-0.1-8.6,0.1c-0.7,0-1.7,1.2-1.8,2c-0.7,5.1-3.1,9.2-6.9,12.5c-3.5,3.1-7.6,4.7-12.2,5.4c0,1.8,0,3.4,0,5.2
		C485.8,227.6,489,227.6,492.4,227.6z M349.7,224.5c7.5,2.4,9,4.5,9.1,12.6c0.1,5.2,0,10.5,0,15.7c0,8.9,0,17.7-0.1,26.6
		c-0.1,5.9-2.5,8.8-8.2,10.1c-0.3,0.1-0.6,0.3-0.9,0.4c0,1.7,0,3.2,0,4.8c0.7,0.1,1.3,0.2,1.9,0.2c11.3,0,22.6,0,33.9,0
		c0.7,0,2.1-1,2.1-1.5c0-1.4,1.2-3.6-1.6-4.1c-4.5-0.7-6.6-3.7-7.3-7.9c-0.2-1.6-0.3-3.2-0.3-4.8c0-18-0.1-36,0-54
		c0-2.6-0.8-3.2-3.2-3.1c-6.1,0.2-12.3,0-18.4,0c-2.3,0-4.6,0-7.1,0C349.7,221.4,349.7,222.9,349.7,224.5z M144.9,294.7
		c9.8,0,19.2,0,28.8,0c0-1,0.1-1.8,0.1-2.6s-0.1-1.6-0.1-2.3c-6.8-2-8.8-4.3-9.1-10.5c0-0.7,0-1.4,0-2.2c0-18.1,0-36.2,0-54.2
		c0-1.1,0-2.1,0-3.3c-0.9-0.1-1.6-0.2-2.1-0.2c-8.1,0-16.3,0-24.4,0c-1.2,0-2.5-0.1-2.3,1.7c0.2,1.5-1,3.5,1.9,3.9
		c3.9,0.5,6.1,3,6.8,6.8c0.4,1.8,0.5,3.6,0.5,5.4c0,18,0,36,0,54C144.9,292.2,144.9,293.3,144.9,294.7z M367.8,193.8
		c-2,0.7-4,1.1-5.7,1.9c-3,1.5-4.8,4-4.9,7.5c0,3.5,1.8,6,4.8,7.6c3.9,2.1,8,2.1,11.9-0.1c6.1-3.4,6.1-11.3,0.1-14.7
		C372.1,194.9,369.9,194.5,367.8,193.8z M154.1,193.7c-2.2,0.8-4.5,1.3-6.4,2.4c-5.6,3.4-5.6,10.8,0,14.3c4.1,2.6,8.4,2.6,12.5,0.2
		c5.9-3.4,6.1-11.1,0.2-14.6C158.6,195,156.3,194.5,154.1,193.7z"/>
	<path class="st0" d="M588.5,262.2c-0.4,7.7-0.8,13.4-4.2,18.4c-5.2,7.7-15.4,9.3-22.2,2.9c-3.2-3-5.8-7-7.5-11.1
		c-4.3-9.9-5.9-20.3-3.6-31c0.7-3.1,2-6.3,3.9-8.8c5.1-7.1,14.7-7.9,21.3-2.2c5.3,4.6,8.1,10.7,9.8,17.2
		C587.3,253,587.9,258.6,588.5,262.2z"/>
	<path class="st0" d="M240.8,264.9c-0.6,3.2-1,7.2-2.2,10.9c-1.8,5.9-5.6,10-12,11.2c-6.6,1.1-11.9-1.6-15.5-6.8
		c-8.3-12.1-10.7-25.7-7.8-40c0.4-2.1,1.5-4.3,2.6-6.2c4.7-8,15-9.8,22.2-3.8c3.8,3.2,6.4,7.4,8.1,12c1.3,3.4,2.3,7,3,10.7
		C240,256.6,240.3,260.4,240.8,264.9z"/>
</g>
</svg>
