<?xml version="1.0" encoding="utf-8"?>
<!-- Generator: Adobe Illustrator 19.1.1, SVG Export Plug-In . SVG Version: 6.00 Build 0)  -->
<svg version="1.1"
	 id="svg548" xmlns:dc="http://purl.org/dc/elements/1.1/" xmlns:cc="http://creativecommons.org/ns#" xmlns:rdf="http://www.w3.org/1999/02/22-rdf-syntax-ns#"
	 xmlns="http://www.w3.org/2000/svg" xmlns:xlink="http://www.w3.org/1999/xlink" x="0px" y="0px" viewBox="-159 41 640 480"
	 style="enable-background:new -159 41 640 480;" xml:space="preserve">
<style type="text/css">
	.st0{fill:#1277A8;}
	.st1{fill:#FFFFFF;}
</style>
<g>
	<g>
		<g>
			<g>
				<circle class="st0" cx="161" cy="281" r="238.7"/>
			</g>
		</g>
		<g>
			<path class="st1" d="M217.6,307.5c-7.1-1.8-15.9-1.8-23-7.1c-7.1-5.3-12.4-21.2-1.8-37.1c5.3-8.8,14.1-8.8,23-8.8
				c37.1,0,65.4-30.1,65.4-65.4c0-37.1-30.1-65.4-65.4-65.4c-37.1,0-65.4,30.1-65.4,65.4c0,7.1,1.8,15.9,3.5,23
				c1.8,5.3,7.1,10.6,8.8,17.7c1.8,5.3,1.8,10.6,0,15.9c-1.8,8.8-14.1,21.2-31.8,17.7c-3.5,0-8.8-3.5-12.4-5.3
				c-3.5-3.5-5.3-7.1-7.1-10.6c-3.5-7.1-8.8-12.4-15.9-17.7c-12.4-8.8-26.5-14.1-40.7-14.1c-37.1,0-65.4,30.1-65.4,65.4
				c0,37.1,30.1,65.4,65.4,65.4c12.4,0,24.8-3.5,35.4-10.6c5.3-3.5,10.6-7.1,14.1-12.4c8.8-10.6,12.4-21.2,24.8-24.8
				c8.8-3.5,24.8,0,31.8,17.7c3.5,8.8,0,17.7-3.5,24.8c-5.3,10.6-8.8,21.2-8.8,33.6c0,37.1,30.1,65.4,65.4,65.4
				c37.1,0,65.4-30.1,65.4-65.4c0-17.7-7.1-35.4-21.2-47.7c-8.8-8.8-19.4-14.1-31.8-15.9C226.4,309.3,222.9,307.5,217.6,307.5z"/>
		</g>
	</g>
</g>
</svg>
