<?xml version="1.0" encoding="utf-8"?>
<!-- Generator: Adobe Illustrator 22.1.0, SVG Export Plug-In . SVG Version: 6.00 Build 0)  -->
<svg version="1.1" id="Layer_2_1_" xmlns="http://www.w3.org/2000/svg" xmlns:xlink="http://www.w3.org/1999/xlink" x="0px" y="0px"
	 viewBox="0 0 640 480" style="enable-background:new 0 0 640 480;" xml:space="preserve">
<style type="text/css">
	.st0{fill:#0A448B;}
</style>
<g>
	<g>
		<path class="st0" d="M430,329.5c-8.7,38.5-17.2,76.5-25.8,114.6c-8.9,0-17.7,0-26.9,0c6.5-28.1,13-56.1,19.4-84
			c-0.2-0.1-0.4-0.1-0.5-0.2c-1.1,2-2.1,4.1-3.1,6.1c-12.2,25.2-24.4,50.5-36.5,75.7c-0.9,1.8-1.8,2.7-4,2.6c-7-0.2-14,0-21.4,0
			c-1.1-28.8-2.1-57.4-3.1-86.1c-0.2,0-0.4,0-0.6,0c-6.3,28.6-12.5,57.3-18.8,86c-9,0-17.8,0-27.1,0c8.6-38.2,17.1-76.2,25.6-114.4
			c14.1,0,28.2,0,42.6,0c0.6,24.2,1.3,48.4,1.9,72.6c0.2,0,0.4,0.1,0.6,0.2c2.5-5.3,5-10.5,7.5-15.8c8.7-18.4,17.4-36.7,26.1-55
			c0.4-0.9,1.7-2.1,2.6-2.1C402,329.5,415.7,329.5,430,329.5z"/>
		<path class="st0" d="M38.1,403c-3.2,14-6.3,27.5-9.4,41.1c-9.5,0-18.8,0-28.7,0c8.7-38.2,17.3-76.3,25.9-114.4
			c0.9,0,1.6-0.1,2.3-0.1c18.2,0,36.3,0,54.5,0c13.9,0,26.5,8.7,30.1,21.2c4.6,15.9,0.8,38.9-22.3,46.2c-1.5,0.5-3,1.1-4.8,1.7
			c6.1,15,12.3,30,18.7,45.6c-2.9,0-5.4,0-7.8,0c-6.9,0-13.8-0.1-20.7,0c-2.3,0-3.3-0.8-4.1-2.9c-4.3-11.9-8.7-23.8-13-35.7
			c-0.7-1.9-1.6-2.9-3.9-2.8C49.4,403.1,43.9,403,38.1,403z M43.1,381.3c9.2,0,18.1,0.3,27-0.1c8.1-0.4,12.9-4.6,15-12.4
			c2.5-9.2-0.7-17.3-11.4-17.9c-7.8-0.5-15.7-0.1-23.6-0.1C47.7,361,45.4,371.1,43.1,381.3z"/>
		<path class="st0" d="M613.6,329.5c-8.7,38.5-17.3,76.5-26,114.5c-8.4,0-16.6,0-25.1,0c0.2-1.8,0.4-3.5,0.6-4.4
			c-4.5,1.9-9,4.6-14,5.7c-17.4,3.9-31.6-4.7-36.2-21.9c-5.3-19.4,2.8-47,21-59.1c10.2-6.8,21.4-8.9,33.3-4.9
			c4.7,1.6,8.7,4.3,12,9.1c1.2-5.1,2.3-9.7,3.3-14.2c1.7-7.6,3.4-15.3,5.2-22.9c0.2-0.8,1.4-1.9,2.1-1.9
			C597.7,329.5,605.4,329.5,613.6,329.5z M573.3,394.5c0.2-6.7-1.6-12.6-8-15.7c-6.5-3.1-12.3-0.9-17.5,3.5
			c-8.6,7.3-13.5,25.9-9.6,36.3c1.8,4.8,5.2,7.9,10.6,8.3c6.9,0.5,12.4-2.2,16.6-7.5C570.8,412.1,572.7,403.5,573.3,394.5z"/>
		<path class="st0" d="M136.1,406.8c-0.9,10.1,2.3,16.1,9.5,18.9c9.5,3.7,18.5,0,27-11.1c6.4,3.1,12.9,6.3,19.5,9.6
			c-7.6,13.4-19,20.6-34.1,22c-6.8,0.6-13.6,0.4-20.1-1.6c-15-4.6-23.6-15.2-25.9-30.4c-3.1-20.5,4.2-37.4,21-49.5
			c14.3-10.3,40.2-10.1,53.1,2.1c6.7,6.3,10.2,13.9,11,22.9c0.4,4.5,0,9.1,0.1,13.7c0,2.5-0.8,3.4-3.5,3.4c-17.8-0.1-35.7,0-53.5,0
			C138.9,406.8,137.6,406.8,136.1,406.8z M174.6,390.5c0.3-9.4-6.8-14.3-12.7-15.1c-10-1.3-19.1,5-22.1,15.1
			C151.5,390.5,163.1,390.5,174.6,390.5z"/>
		<path class="st0" d="M506,406.8c-20.2,0-40.2,0-60.2,0c-2.1,6.5,1,14.5,6.8,17.8c5.3,3,10.9,3,16.6,1.2c5.8-1.9,9.7-5.9,12.5-11.1
			c0.8,0.3,1.3,0.4,1.8,0.6c5.9,2.9,11.9,5.9,18,8.9c-5.1,8.9-11.9,15.7-21.5,19.1c-11.3,4.1-22.8,4.4-34.3,0.8
			c-14.7-4.6-24-18-25-35.2c-1.2-21,11.5-41.6,29.8-48.4c10-3.7,20.3-4.2,30.6-1.4c17.3,4.7,26.9,19.5,25.8,38.9
			C506.6,400.8,506.3,403.5,506,406.8z M483.6,390.6c0.7-6.7-3.2-12.4-9.9-14.5c-10.1-3.2-21.2,3.3-24.6,14.5
			C460.6,390.6,472,390.6,483.6,390.6z"/>
		<path class="st0" d="M284.4,377.5c-7,3.4-12.7,6.3-18.6,9c-0.7,0.3-2.4-0.6-3.1-1.5c-5.4-7.2-15.4-10.7-23.7-8.3
			c-1.1,0.3-2.2,0.8-3.1,1.5c-3.4,2.5-3.4,6.2,0.2,8.3c2.9,1.6,6.2,2.5,9.4,3.6c5.7,2,11.5,3.6,17.1,5.9
			c20.4,8.4,17.9,29.9,5.6,40.5c-6.2,5.3-13.5,8.2-21.5,9.4c-12,1.9-23.7,1.2-34.7-4.5c-7.3-3.8-12.9-9.4-16.9-17.1
			c7.1-3.5,14-6.9,20.1-10c3.8,3.3,6.8,6.9,10.5,9.1c6.2,3.7,13.1,3.8,20,1.6c2.7-0.9,5.1-2.4,5.4-5.6c0.2-3.3-2.1-5.1-4.7-6.1
			c-7.2-2.6-14.4-4.8-21.6-7.4c-7.9-2.9-14.2-7.6-16.9-16c-3-9.5,1.3-20.6,11.2-26.2c4.9-2.8,10.7-5,16.3-5.7
			c13.3-1.7,26.6-1.1,37.8,7.7C277.3,368.9,280.4,373.2,284.4,377.5z"/>
		<path class="st0" d="M23.9,156.8c13.2,0,23.9,10.5,24,23.8c0,13.1-10.6,23.8-23.8,24c-13,0.1-23.8-10.7-23.8-23.9
			C0.2,167.2,10.6,156.8,23.9,156.8z"/>
		<path class="st0" d="M32.7,133c0-11.7,9.4-21.3,21.1-21.3c11.7,0,21.3,9.4,21.5,21.1c0.1,11.8-9.5,21.5-21.4,21.5
			C42.3,154.3,32.7,144.8,32.7,133z"/>
		<path class="st0" d="M639.9,220.5c1.2,10.3-8.7,21.4-21,21.1c-11.7-0.2-21-9.4-21-21c0-11.8,9.2-21.2,21.1-21.3
			C630.8,199.2,639.9,208.5,639.9,220.5z"/>
		<path class="st0" d="M88.3,75.3c10.7,0,18.9,8.4,18.9,19.3c0,10.5-8.6,18.9-19.1,18.9c-10.7,0-19.1-8.6-19.1-19.3
			C69.1,83.5,77.5,75.3,88.3,75.3z"/>
		<path class="st0" d="M603.9,259.1c0,10.7-8.3,19-18.9,19c-10.8,0-19.2-8.4-19.1-19.1c0-10.6,8.5-18.9,19.1-18.9
			C595.5,240.1,603.9,248.5,603.9,259.1z"/>
		<path class="st0" d="M109,65.9c0-9.6,7.4-17.2,17-17.3c9.6-0.1,17.4,7.7,17.5,17.3c0,9.5-7.6,17.2-17.1,17.2
			C116.5,83.1,109.1,75.7,109,65.9z"/>
		<path class="st0" d="M546.8,304.7c-9.6,0-17.2-7.5-17.2-17.1c0-9.6,7.6-17.2,17.2-17.2s17.2,7.6,17.2,17.2
			C564,297.2,556.5,304.7,546.8,304.7z"/>
		<path class="st0" d="M166.8,65.2c-8.7,0-15.6-6.9-15.5-15.6c0-8.5,7.3-15.6,15.7-15.5c8.7,0.1,15.5,7.1,15.5,15.7
			C182.4,58.5,175.6,65.2,166.8,65.2z"/>
		<path class="st0" d="M521.5,303.7c0,8.7-6.8,15.5-15.6,15.5c-8.5,0-15.3-6.9-15.3-15.5c0-8.6,7-15.6,15.7-15.5
			C514.8,288.3,521.5,295.1,521.5,303.7z"/>
		<path class="st0" d="M207.4,33.2c7.8,0,13.9,6,13.9,13.9c0,7.6-6.2,14-13.9,14.1c-7.8,0-14.1-6.4-14.1-14.2
			C193.4,39.2,199.5,33.2,207.4,33.2z"/>
		<path class="st0" d="M465.8,292.5c7.8,0,13.9,6.2,13.8,14c0,7.8-6.2,13.8-14.1,13.8c-7.8,0-13.9-6.1-13.8-14
			C451.8,298.5,457.9,292.5,465.8,292.5z"/>
		<path class="st0" d="M442.3,295.2c0,7-5.5,12.6-12.5,12.6c-7,0-12.8-5.7-12.7-12.7c0-6.9,5.8-12.5,12.7-12.4
			C436.8,282.8,442.3,288.3,442.3,295.2z"/>
		<path class="st0" d="M230.8,58.2c0-7.1,5.3-12.5,12.4-12.6c7.1-0.1,12.7,5.6,12.6,12.7c0,6.9-5.7,12.5-12.6,12.4
			C236.1,70.8,230.8,65.3,230.8,58.2z"/>
		<path class="st0" d="M412.2,275.5c0,6.4-5,11.4-11.3,11.3c-6.2,0-11.4-5.2-11.3-11.4c0-6.2,5.2-11.4,11.4-11.4
			C407.1,264,412.2,269.2,412.2,275.5z"/>
		<path class="st0" d="M283.4,78c0,6.3-5,11.3-11.3,11.3c-6.3,0-11.3-5-11.3-11.3c0-6.3,5-11.4,11.3-11.4
			C278.4,66.7,283.4,71.7,283.4,78z"/>
		<path class="st0" d="M294.5,91.7c5.8,0,10.3,4.3,10.3,10.1c0,5.6-4.7,10.3-10.3,10.3c-5.6,0-10.1-4.6-10.1-10.1
			C284.4,96,288.6,91.7,294.5,91.7z"/>
		<path class="st0" d="M378.6,241.5c5.7,0,10.1,4.5,10.2,10.1c0,5.6-4.7,10.3-10.4,10.3c-5.7,0-10.2-4.8-10.1-10.5
			C368.4,245.7,372.9,241.4,378.6,241.5z"/>
		<path class="st0" d="M370.1,226.7c0,5.1-4.3,9.2-9.4,9.2c-5.1-0.1-9.2-4.3-9.1-9.4c0.1-4.9,4.3-9,9.2-9
			C365.9,217.4,370.1,221.6,370.1,226.7z"/>
		<path class="st0" d="M312.2,135.9c-5.3,0-9.3-3.9-9.3-9.1c0-5.1,4.3-9.3,9.3-9.2c5,0,9,4.1,9.1,9.1
			C321.4,132.1,317.5,135.9,312.2,135.9z"/>
		<path class="st0" d="M325.8,160.1c-4.7,0-8.2-3.6-8.2-8.3c0-4.4,3.9-8.4,8.3-8.4c4.7,0,8.4,3.8,8.3,8.6
			C334.1,156.8,330.5,160.2,325.8,160.1z"/>
		<path class="st0" d="M355.2,201.5c0,4.7-3.4,8.3-8.1,8.3c-4.6,0-8.4-3.6-8.5-8.1c-0.1-4.5,3.9-8.6,8.5-8.5
			C351.8,193.3,355.2,196.8,355.2,201.5z"/>
		<path class="st0" d="M344,176.7c0,4.3-3.1,7.5-7.3,7.6c-4.4,0.1-7.7-3-7.7-7.4c0-4.4,3.2-7.7,7.6-7.6
			C340.8,169.2,344,172.5,344,176.7z"/>
	</g>
</g>
</svg>
