<?xml version="1.0" encoding="utf-8"?>
<!-- Generator: Adobe Illustrator 18.1.1, SVG Export Plug-In . SVG Version: 6.00 Build 0)  -->
<svg version="1.1" id="Layer_1" xmlns="http://www.w3.org/2000/svg" xmlns:xlink="http://www.w3.org/1999/xlink" x="0px" y="0px"
	 viewBox="0 0 640 480" enable-background="new 0 0 640 480" xml:space="preserve">
<g>
	<path fill="#F4AD14" d="M550.7,199.5c-2.3-13.5-5.8-26.9-10.4-39.8c-10.3-28.4-26-54.9-46.2-77.4c-21.4-24-47.8-43.5-77.1-56.9
		c-19.2-8.9-39.7-15-60.5-18.4c-10.2-1.7-20.5-2.5-30.8-3h-13.5c-18.5,0.8-37.1,3.2-54.9,8.2c-13.8,3.6-27.3,8.7-40.1,15
		c-31.3,14.9-59,37.1-80.8,63.9c-21.9,27.1-37.9,59-45.8,92.9c-4,16.4-6,33.2-6.5,50v11.6c0.3,3.7,0.4,7.4,0.7,11.1
		c1.6,20.2,5.7,40.2,12.3,59.4c11.3,32.3,29.7,62,53.5,86.5c22.2,22.9,49.2,41.2,78.7,53.4c26.1,10.9,54.3,16.7,82.6,17.8h14.4
		c6.2-0.4,12.4-0.6,18.6-1.4c11.2-1.2,22.3-3.3,33.2-6.1c34.6-8.9,67.1-26,94.2-49.4c25-21.4,45.3-48.1,59.4-77.9
		c13.9-29,21.2-61,22.4-93v-14.4C553.5,221,552.5,210.1,550.7,199.5z M524.8,254c-2.9,44.7-21.4,88-51,121.5
		c-11.5,13-24.6,24.6-39,34.3c-17.9,12.2-37.7,21.4-58.5,27.5c-13,3.7-26.4,6.3-40,7.3c-8.4,0.6-16.9,1.2-25.4,0.5
		c-15.6-0.3-31-2.9-46-6.9c-33.9-9.2-65.5-27.2-90.5-51.9c-23.4-22.9-41.2-51.4-51.5-82.5c-5.7-17-9-34.7-10.1-52.6
		c0-5.5-0.7-11-0.3-16.4c0.4-3.9,0.2-7.8,0.6-11.7c1.8-24,7.9-47.6,17.8-69.5c20.9-46.3,59.6-84.2,106.3-104.2
		c17.3-7.4,35.6-12.6,54.4-15c6.1-0.6,12.3-1.4,18.5-1.5c5-0.2,9.9-0.6,14.9-0.1c16.9,0.4,33.8,2.9,50.1,7.6
		c18.7,5.4,36.7,13.2,53.1,23.6c28.3,17.6,52.2,42.3,69,71c17,29.2,27,62.7,27.9,96.5C525.8,239,525.3,246.5,524.8,254z"/>
	<path fill="#75100D" d="M497.3,134.9c-16.8-28.8-40.7-53.4-69-71c-16.4-10.4-34.4-18.2-53.1-23.6c-16.3-4.7-33.2-7.2-50.1-7.6
		c-4.9-0.5-9.9-0.1-14.9,0.1c-6.2,0.1-12.3,0.9-18.5,1.5c-18.7,2.4-37,7.6-54.4,15c-46.7,20-85.4,57.9-106.3,104.2
		c-10,21.9-16.1,45.5-17.8,69.5c-0.5,3.9-0.2,7.8-0.6,11.7c-0.4,5.5,0.3,11,0.3,16.4c1,17.9,4.4,35.6,10.1,52.6
		c10.2,31.1,28.1,59.6,51.5,82.5c25.1,24.7,56.6,42.7,90.5,51.9c15,4,30.5,6.6,46,6.9c8.4,0.7,16.9,0.1,25.4-0.5
		c13.5-1,26.9-3.6,40-7.3c20.8-6.1,40.6-15.3,58.5-27.5c14.4-9.7,27.5-21.3,39-34.3c29.7-33.5,48.1-76.9,51-121.5
		c0.4-7.5,1-15,0.4-22.5C524.3,197.6,514.3,164.2,497.3,134.9z M490,283c-5.7,22.6-16.1,43.9-30.2,62.5
		c-13.9,18.3-31.4,34-51.2,45.6c-20.8,12.4-44.4,20.2-68.4,23.2c-38.2,4.7-78-3.5-111.1-23.3c-30.6-18-55.4-45.5-70.3-77.7
		c-8.6-18.5-13.8-38.5-15.6-58.7c-2.5-28,1.8-56.5,12.5-82.5c13.7-33.4,37.9-62.4,68.3-81.8C250.6,73,282.2,63.4,314,62.5
		c22.3-0.6,44.6,3,65.6,10.6c33.2,12,62.5,34.4,83,63.1c10.7,15,19.1,31.5,24.6,49C497.3,216.7,498.3,251,490,283z"/>
	<path fill="#FEFEFD" d="M462.6,136.2c-20.6-28.7-49.8-51.1-83-63.1c-20.9-7.6-43.3-11.2-65.6-10.6c-31.8,0.9-63.4,10.4-90.1,27.7
		c-30.4,19.4-54.6,48.4-68.3,81.8c-10.6,26-14.9,54.5-12.5,82.5c1.8,20.3,7.1,40.3,15.6,58.7c14.9,32.2,39.8,59.7,70.3,77.7
		c33.1,19.8,72.8,28,111.1,23.3c24.1-2.9,47.6-10.7,68.4-23.2c19.9-11.7,37.3-27.3,51.2-45.6c14.1-18.6,24.5-39.9,30.2-62.5
		c8.3-32,7.3-66.3-2.8-97.7C481.7,167.8,473.2,151.2,462.6,136.2z M422.4,304.8c-15.9-6.5-32-12.9-48.6-17.2
		c-8.7-2.2-17.5-4.1-26.5-4.6c-3.2,0-6.5-0.3-9.6,0.6c0.1,4.1,0.9,8.5,3.6,11.7c3,3.6,7.7,5.3,12.3,5.5c0.5,2.2,0.8,4.4,1.4,6.6
		c3.6,0,7.1,0.5,10.6,0.6c1,3.7,2.2,7.4,3.2,11.2c4,0.5,8.1,0.3,12.1,0.9c0.5,3.7,0.8,7.4,1.3,11c6.9-3.5,13.7-7.2,20.6-10.8
		c0.7-0.4,1.6-0.3,2.4-0.3c8,0,16,0,24,0c-3.6,5.7-7.6,11-12.1,16c-1.9,2-3.9,4-6.2,5.6c-6.3,4.2-14.1,5.5-21.6,4.6
		c-13.5-1.6-26-8-37.3-15.4c-2.5-0.3-5,0.1-7.5,0.1c-1.2,0.1-2.6,0-3.6,0.9c-5.9,5.1-11.8,10.2-17.8,15.3c-0.1-6.4,0-12.7-0.1-19.1
		c-13.5,6.2-26.8,12.9-40.4,19.1c-0.1-6.6,0-13.2-0.1-19.9c-20.5,4.7-41,9.3-61.6,14.1c-8.6,1.9-17.1,4-25.7,5.7
		c4.6-5.7,9.7-10.9,14.5-16.4c11.8-13.2,23.7-26.5,35.5-39.7c1.9-2.3,4.1-4.4,5.9-6.7c-11.8-3.1-23.7-6.1-35.6-9.3
		c7.8-6,15.8-11.8,23.6-17.7c2.4-1.9,5.1-3.5,7.2-5.6c-9.2-7.1-18.2-14.4-27.4-21.5c0.3-0.5,0.7-0.9,1.2-1.2
		c8.8-4.9,17.5-10,26.2-15c-1.4-1.8-3.2-3.2-4.6-5c-6.1-7.7-9.1-17.5-10.2-27.1c-0.5-4.5-0.6-9.1-0.2-13.7
		c0.9-19.2,8.1-38.1,20.4-52.9c0.8-0.7,1.7-2.7,3-1.5c14.3,9.8,28.7,19.6,43,29.4c2.8,1.9,5.6,4,8.5,5.7c-0.1-9,2.1-18,6.2-26.1
		c3.3-6.6,7.9-12.6,13.1-17.9c7.5-7.8,16.5-14.1,26.2-19c0.6-0.2,1.5-1,1.8,0c9.2,22,18.1,44.2,27.3,66.2c0.2,0.5,0.6,1,1,1.3
		c11.4,8.9,22.7,17.7,34.1,26.5c0.4,0.4,1.1,0.7,1,1.4c0,16.5,0,32.9,0,49.4c-0.2,1.6,1.3,2.4,2.1,3.5
		c13.4,15.4,26.9,30.8,40.2,46.3C447.2,288.5,434.8,296.7,422.4,304.8z"/>
	<path fill="#26201E" d="M417.2,230.6c0-16.5,0-32.9,0-49.4c0.1-0.7-0.6-1-1-1.4c-11.4-8.8-22.8-17.7-34.1-26.5
		c-0.5-0.4-0.8-0.8-1-1.3c-9.2-22-18.1-44.2-27.3-66.2c-0.3-1-1.3-0.2-1.8,0c-9.6,4.9-18.6,11.2-26.2,19
		c-5.2,5.2-9.8,11.2-13.1,17.9c-4.1,8-6.3,17-6.2,26.1c-2.9-1.7-5.7-3.8-8.5-5.7c-14.3-9.8-28.7-19.6-43-29.4
		c-1.2-1.2-2.1,0.8-3,1.5c-12.3,14.8-19.5,33.7-20.4,52.9c-0.4,4.5-0.3,9.1,0.2,13.7c1.1,9.7,4.1,19.4,10.2,27.1
		c1.4,1.8,3.1,3.2,4.6,5c-8.7,5-17.4,10-26.2,15c-0.5,0.2-0.9,0.7-1.2,1.2c9.2,7.1,18.2,14.4,27.4,21.5c-2.2,2.2-4.9,3.7-7.2,5.6
		c-7.8,5.9-15.9,11.6-23.6,17.7c11.8,3.2,23.7,6.2,35.6,9.3c-1.9,2.3-4,4.4-5.9,6.7c-11.9,13.2-23.7,26.5-35.5,39.7
		c-4.8,5.5-9.9,10.8-14.5,16.4c8.6-1.7,17.1-3.8,25.7-5.7c20.5-4.7,41-9.4,61.6-14.1c0.1,6.6-0.1,13.2,0.1,19.9
		c13.5-6.2,26.8-12.9,40.4-19.1c0.1,6.4,0,12.7,0.1,19.1c5.9-5.1,11.8-10.2,17.8-15.3c0.9-0.9,2.4-0.7,3.6-0.9c2.5,0,5-0.4,7.5-0.1
		c11.3,7.4,23.7,13.7,37.3,15.4c7.4,0.9,15.3-0.5,21.6-4.6c2.3-1.6,4.3-3.6,6.2-5.6c4.5-5,8.5-10.3,12.1-16c-8-0.1-16,0-24,0
		c-0.8,0-1.6-0.1-2.4,0.3c-6.9,3.6-13.6,7.3-20.6,10.8c-0.5-3.7-0.9-7.4-1.3-11c-4-0.5-8.1-0.4-12.1-0.9c-1-3.7-2.2-7.4-3.2-11.2
		c-3.6-0.1-7.1-0.6-10.6-0.6c-0.5-2.2-0.9-4.4-1.4-6.6c-4.6-0.2-9.3-1.9-12.3-5.5c-2.7-3.3-3.6-7.6-3.6-11.7
		c3.1-0.9,6.4-0.6,9.6-0.6c9,0.5,17.8,2.4,26.5,4.6c16.7,4.3,32.7,10.7,48.6,17.2c12.4-8.1,24.8-16.3,37.2-24.4
		c-13.3-15.5-26.9-30.8-40.2-46.3C418.5,233,417,232.1,417.2,230.6z M362.7,243.3c-6.7,1.1-13.4-0.9-19.3-3.8
		c-4.7-2.2-9.1-5.2-13-8.6c-1.6-1.4-3.3-2.7-4.5-4.5c5.2-5.6,12.6-8.7,20-9.8c11.7-1.1,24.2,1.9,32.8,10.1c2.6,2.6,5.2,5.4,6.5,8.9
		C378.8,240.5,370.6,242.3,362.7,243.3z"/>
	<path fill="#75100D" d="M345.9,216.6c-7.4,1-14.9,4.2-20,9.8c1.2,1.8,2.9,3.1,4.5,4.5c4,3.4,8.3,6.4,13,8.6
		c6,2.9,12.7,4.9,19.3,3.8c7.9-1.1,16.1-2.8,22.5-7.7c-1.4-3.4-3.9-6.3-6.5-8.9C370.1,218.5,357.5,215.5,345.9,216.6z"/>
</g>
<g>
	<path d="M95.5,239.1C95.5,115.3,195.9,15,319.6,15l0,0c123.8,0,224.1,100.3,224.1,224.1l0,0c0,123.8-100.3,224.1-224.1,224.1l0,0
		C195.9,463.2,95.5,362.8,95.5,239.1L95.5,239.1z M169.2,88.6c-38.5,38.5-62.3,91.7-62.3,150.5l0,0c0,58.8,23.8,111.9,62.3,150.5
		l0,0c38.5,38.5,91.7,62.3,150.5,62.3l0,0c58.8,0,111.9-23.8,150.5-62.3l0,0c38.5-38.5,62.3-91.7,62.3-150.5l0,0
		c0-58.8-23.8-111.9-62.3-150.5l0,0c-38.5-38.5-91.7-62.3-150.5-62.3l0,0C260.9,26.3,207.7,50.1,169.2,88.6L169.2,88.6z"/>
</g>
</svg>
