<?xml version="1.0" encoding="utf-8"?>
<!-- Generator: Adobe Illustrator 22.1.0, SVG Export Plug-In . SVG Version: 6.00 Build 0)  -->
<svg version="1.1" id="Layer_2_1_" xmlns="http://www.w3.org/2000/svg" xmlns:xlink="http://www.w3.org/1999/xlink" x="0px" y="0px"
	 viewBox="0 0 640 480" style="enable-background:new 0 0 640 480;" xml:space="preserve">
<style type="text/css">
	.st0{fill:#FCCE00;}
</style>
<g>
	<path d="M299.3,221.8H341c0.6-0.7,0.3-1.5,0.3-2.2c0-72.4,0-144.8,0-217.1c0-2.1-0.7-2.5-2.6-2.5c-12.4,0.1-24.9,0.1-37.3,0
		c-2.2,0-2.6,0.7-2.6,2.7c0,72.2,0,144.4,0,216.6C298.8,220.2,298.9,221,299.3,221.8z"/>
	<path d="M251.6,267c12.4-0.1,24.9-0.1,37.3,0c2.2,0,2.6-0.7,2.6-2.7c0-71.9,0-143.7,0-215.6c0.2-0.8,0.1-1.7-0.3-2.5h-41.9
		c-0.3,0.7-0.4,1.5-0.2,2.2c0,72,0,144.1,0,216.1C249,266.7,249.7,267,251.6,267z"/>
	<path d="M388,46.1c-12.9,0.1-25.9,0-38.8,0c-0.2,0.7-0.3,1.5-0.2,2.2c0,72,0,144,0,215.9c0,2.1,0.5,2.7,2.6,2.7
		c12.4-0.1,24.9,0,37.3,0c0.7,0.1,1.5,0.1,2.2-0.2c0-72.5,0-145,0-217.5C391.2,46.5,390.4,46.1,388,46.1z"/>
	<path d="M441.1,285c0-63.6,0-127.1,0-190.7c0-1.8-0.6-2.2-2.3-2.2c-12.2,0-24.5,0.1-36.8,0c-2.4,0-3.2,0.4-3.2,3.1
		c0.1,76.4,0.1,152.8,0,229.3v2.7c1-0.8,1.7-1.3,2.3-1.9l38.6-37.2C440.6,287.3,441.1,286.2,441.1,285z"/>
	<path d="M241.4,94.6c0-0.8,0.3-1.7-0.3-2.4h-41.7c-0.7,0.8-0.3,1.8-0.3,2.7c0,63.3,0,126.6,0,189.8c-0.1,0.9-0.1,1.9,0.2,2.7
		c0.9,0.6,1.7,1.3,2.5,2c3.4,3.4,6.5,7,10.1,10.1c6.1,5.3,11.4,11.4,17.6,16.8c4,3.4,7.4,7.4,11.3,11.1c1.5-0.5,0.7-1.7,0.7-2.5
		C241.5,248,241.5,171.3,241.4,94.6z"/>
	<path class="st0" d="M388.4,273.3c-13,0.1-26.1,0-39.1,0c-0.6,0.7-0.3,1.6-0.3,2.4c0,67.2,0,134.4,0,201.6c0,2.1,0.5,2.7,2.6,2.7
		c12.4-0.1,24.9,0,37.3,0c0.7,0,1.5,0.2,2.2-0.3c0-67.8,0-135.7,0-203.5C391.1,273.9,390.6,273.3,388.4,273.3z"/>
	<path class="st0" d="M288.9,479.9c2.2,0,2.6-0.7,2.6-2.7c0-67.1,0-134.3,0-201.5c0-0.8,0.4-1.7-0.4-2.4h-41.7
		c-0.7,0.6-0.4,1.4-0.4,2.2c0,67.4,0,134.7,0,202.1c0,2.1,0.7,2.5,2.6,2.4C264,479.9,276.5,479.9,288.9,479.9z"/>
	<path d="M448.7,278.4v2.8c0.9-0.6,1.6-1,2.2-1.5c12.7-11.1,25.4-22.3,38.1-33.3c1.3-1,2-2.6,1.8-4.2c0-34.3,0-68.6,0-102.9
		c-0.5-0.5-1.1-0.3-1.6-0.3c-13,0-26,0-39,0c-0.5,0-1.2-0.2-1.6,0.4c0,1,0.1,2,0.1,3.1L448.7,278.4z"/>
	<path d="M149.3,245c1.7,1.5,3.4,3.2,5.1,4.7c5.7,4.9,11.4,9.6,17,14.5c4.9,4.2,9.5,8.7,14.4,12.8c1.7,1.5,3.1,3.6,5.3,4.2
		c0.5-0.7,0.3-1.5,0.3-2.2c0-45.9,0-91.8,0-137.7c0-2.2-0.7-2.6-2.7-2.6c-12.3,0.1-24.6,0-36.8,0c-2.9,0-2.9,0-2.9,2.8v100.9
		C149,243.3,149.1,244.2,149.3,245z"/>
	<path class="st0" d="M301,479.7c13.4-0.1,26.7,0,40.1-0.1c0-0.7,0-1.4,0-2V232.9c0-0.7,0-1.3,0-2c-13,0-25.9,0-38.8-0.1
		c-2.7,0-3.2,0.8-3.2,3.3c0.1,80.8,0.1,161.5,0,242.3c0,0.4,0,0.8,0,1.3C298.9,479.2,299.4,479.7,301,479.7z"/>
</g>
</svg>
