<?xml version="1.0" encoding="utf-8"?>
<!-- Generator: Adobe Illustrator 22.1.0, SVG Export Plug-In . SVG Version: 6.00 Build 0)  -->
<svg version="1.1" id="Layer_1" xmlns="http://www.w3.org/2000/svg" xmlns:xlink="http://www.w3.org/1999/xlink" x="0px" y="0px"
	 viewBox="0 0 640 480" style="enable-background:new 0 0 640 480;" xml:space="preserve">
<style type="text/css">
	.st0{fill:#EB162B;}
	.st1{fill:#FED42A;}
</style>
<g>
	<path class="st0" d="M481.8,466.5c-6.5,0-12.7,0-18.9,0c-36.9,0-73.8,0-111,0.3c-2.3,0-4.9,1-6.5,2.6c-15,12.7-36.9,12.7-51.9-0.7
		c-1-1-2.9-1.6-4.6-1.6c-36.2-0.3-72.1-0.3-108.4-0.3c-6.5,0-13.1,0-19.6,0c-2.6,0-3.6-0.7-3.9-3.6c-3.6-30-7.2-60.4-10.4-90.4
		c-0.3-2.9-1.6-4.6-3.9-6.2c-23.2-16.6-46.3-33.3-69.5-49.9c-4.2-3.3-6.5-6.9-7.5-12.1c-10.4-58.1-2-113.6,26.1-165.5
		c27.7-51.9,68.9-90.1,122.1-114.9c24.8-11.7,50.9-18.6,78-21.5c50.6-5.5,98.2,2.9,143.6,26.1c49.3,25.1,87.1,62.3,113.3,111.3
		c15.3,28.7,24.8,59.1,28.4,91.4c2.9,25.8,1.6,51.6-3.6,76.7c-0.7,2.6-2.3,5.2-4.2,6.9c-22.5,16.6-44.7,33-67.9,49
		c-5.9,4.2-8.5,8.5-9.5,15.7c-2.3,21.2-4.9,42.8-7.5,64C483.4,450.5,482.8,458.4,481.8,466.5z M153.5,133.3c-1,0.3-1.6,0.7-2,1
		c-1,0.7-2,1.6-2.9,2.6c-12.4,13.4-20.9,29-27.4,46c-1.6,3.9-0.7,7.2,2,10.4c17.3,20.9,34.6,42.1,51.9,63.3
		c19.6,23.8,39.2,48,58.7,71.8c5.2,6.2,9.8,12.7,15,18.9c-0.3,0.3-0.7,0.7-1,1c-43.7-44.4-87.5-88.8-131.5-133.5
		c-1.6,3.6-2.9,6.2-3.9,9.1c-6.9,18.3-6.9,37.2-3.3,56.1c1,4.6,2.3,7.8,6.5,10.8c23.5,16.6,46.7,33.3,69.8,50.3
		c1.6,1.3,3.3,3.3,3.6,5.2c3.3,23.2,5.9,46.3,8.8,69.5c0.3,3.6,1.6,4.6,5.2,4.6c29,0,57.8,0,86.8,0c2.3,0,4.6,1,6.5,2.3
		c4.9,3.3,9.8,6.9,14.7,9.8c5.5,3.3,11.7,3.9,17.6,0.3c4.9-2.9,9.5-6.5,14.7-9.5c2.3-1.3,5.2-2.9,7.8-2.9c28.7-0.3,57.1,0,85.8,0
		c1.6,0,3.3,0,4.9,0c0.3-2,1-3.6,1-5.2c2.9-22.2,5.9-44.4,8.2-66.6c0.3-4.2,2.6-6.5,5.5-8.8c23.5-17,46.7-33.6,70.2-50.6
		c1.6-1,2.9-2.9,3.6-4.6c5.2-21.9,4.9-43.4-3.9-64.6c-0.7-1.6-1.6-3.3-2.6-4.9c-43.4,44.1-86.5,87.8-129.6,131.2
		c-0.3-0.3-0.7-0.7-1-1c1-1.6,2-3.6,3.3-5.2c16.6-20.2,33.3-40.8,49.9-61c23.8-29.4,48-58.7,71.8-88.1c1-1.3,1.6-3.9,1.3-5.5
		c-4.2-14.7-12.1-27.7-20.9-40.1c-3.3-4.6-7.2-8.5-11.4-13.4c-39.2,67.6-77.4,134.1-115.9,200.7c-0.3-0.3-0.7-0.3-1-0.7
		c1.3-3.6,2.6-7.5,4.2-10.8c8.5-18.6,17.3-37.2,26.1-55.8c23.2-49.3,46.3-98.6,69.5-147.8c2.3-4.9,1.6-8.2-2-11.1
		c-7.2-6.5-14.4-13.4-22.2-18.9c-8.2-6.2-17-11.4-28.4-12.7c-23.5,82.2-47,164.5-70.5,246.4c-0.3,0-0.7-0.3-1.3-0.3
		c0.3-2.9,0.7-6.2,1.3-9.1c7.5-37.9,15-76,22.8-113.9c8.5-43.1,17.3-85.8,26.1-128.9c1-4.9-0.7-7.2-4.6-9.1
		c-17.6-9.1-36.6-12.1-56.5-11.1c-2.6,0-3.6,1-3.6,3.6c-0.3,9.8-1,19.6-1.3,29.4c-1,21.9-1.6,43.4-2.6,65.3
		c-1,22.2-1.6,44.4-2.6,66.6c-1,24.8-1.6,49.6-2.6,74.1c-0.3,12.1-1,24.2-1.6,36.6c-0.3,0-1,0-1.3,0c-3.6-91.4-7.5-183.1-11.1-275.1
		c-6.9,0-13.4-0.3-19.9,0c-14.7,1-29,4.6-42.1,12.1c-2.6,1.6-3.6,3.3-2.9,6.2c3.6,18,7.2,35.6,10.8,53.5
		c11.4,57.4,23.2,114.9,34.6,172.7c2,9.5,3.6,18.9,5.2,28.4c-0.3,0-1,0.3-1.3,0.3c-23.5-82.6-47-164.8-70.8-247.7
		c-2.6,0.7-5.2,1-7.5,1.6c-18,7.2-32.6,18.3-45,32.6c-1.6,2-2,3.9-0.7,6.5c7.8,16.6,15.7,33.3,23.5,49.9
		c23.5,50.3,47.3,100.5,70.8,151.1c2.3,5.2,4.2,10.8,6.5,16c-0.3,0.3-0.7,0.3-1,0.7C230.5,266.4,192,199.9,153.5,133.3z"/>
	<path class="st1" d="M153.5,133.3c38.5,66.6,77,133.2,115.2,199.7c0.3-0.3,0.7-0.3,1-0.7c-2.3-5.2-4.2-10.8-6.5-16
		c-23.5-50.3-47.3-100.5-70.8-151.1c-7.8-16.6-15.7-33.3-23.5-49.9c-1.3-2.6-1-4.6,0.7-6.5c12.4-14.4,27.4-25.8,45-32.6
		c2.3-1,4.6-1,7.5-1.6c23.5,82.6,47.3,165.1,70.8,247.7c0.3,0,1-0.3,1.3-0.3c-1.6-9.5-3.3-18.9-5.2-28.4
		c-11.4-57.4-23.2-114.9-34.6-172.7c-3.6-18-7.2-35.9-10.8-53.5c-0.7-2.9,0.3-4.6,2.9-6.2c13.1-7.5,27.4-11.1,42.1-12.1
		c6.5-0.7,13.1,0,19.9,0c3.6,92,7.5,183.8,11.1,275.1c0.3,0,1,0,1.3,0c0.7-12.1,1.3-24.2,1.6-36.6c1-24.8,2-49.6,2.6-74.1
		c1-22.2,1.6-44.4,2.6-66.6c1-21.9,1.6-43.4,2.6-65.3c0.3-9.8,1-19.6,1.3-29.4c0-2.6,1-3.3,3.6-3.6c19.6-1,38.5,2,56.5,11.1
		c3.9,2,5.5,4.2,4.6,9.1c-8.8,42.8-17.6,85.8-26.1,128.9c-7.5,37.9-15.3,76-22.8,113.9c-0.7,2.9-1,6.2-1.3,9.1
		c0.3,0,0.7,0.3,1.3,0.3c23.5-82.2,47-164.2,70.5-246.4c11.1,1.3,19.9,6.9,28.4,12.7c7.8,5.9,15,12.4,22.2,18.9
		c3.6,2.9,4.2,6.2,2,11.1c-23.5,49.3-46.3,98.6-69.5,147.8c-8.8,18.6-17.3,37.2-26.1,55.8c-1.6,3.6-2.9,7.2-4.2,10.8
		c0.3,0.3,0.7,0.3,1,0.7C410,266.1,448.2,199.5,487.3,132c4.2,4.9,8.2,8.8,11.4,13.4c8.8,12.4,16.6,25.1,20.9,40.1
		c0.3,1.6,0,4.2-1.3,5.5c-23.8,29.4-48,58.7-71.8,88.1c-16.6,20.2-33.3,40.8-49.9,61c-1.3,1.6-2.3,3.6-3.3,5.2c0.3,0.3,0.7,0.7,1,1
		c43.1-43.7,86.2-87.1,129.6-131.2c1,2,2,3.3,2.6,4.9c8.8,21.2,8.8,42.8,3.9,64.6c-0.3,1.6-2,3.6-3.6,4.6
		c-23.5,17-46.7,33.6-70.2,50.6c-2.9,2.3-4.9,4.6-5.5,8.8c-2.6,22.2-5.5,44.4-8.2,66.6c-0.3,1.6-0.7,2.9-1,5.2c-1.6,0-3.3,0-4.9,0
		c-28.7,0-57.1,0-85.8,0c-2.6,0-5.5,1.6-7.8,2.9c-4.9,2.9-9.5,6.5-14.7,9.5c-5.9,3.6-12.1,2.9-17.6-0.3c-5.2-2.9-9.8-6.9-14.7-9.8
		c-2-1.3-4.2-2.3-6.5-2.3c-29,0-57.8,0-86.8,0c-3.6,0-4.9-1-5.2-4.6c-2.6-23.2-5.5-46.3-8.8-69.5c-0.3-2-2-3.9-3.6-5.2
		c-23.2-17-46.3-33.6-69.8-50.3c-3.9-2.9-5.5-6.2-6.5-10.8c-3.6-18.9-3.3-37.9,3.3-56.1c1-2.6,2.3-5.5,3.9-9.1
		c44.1,44.7,87.8,89.1,131.5,133.5c0.3-0.3,0.7-0.7,1-1c-4.9-6.5-9.8-12.7-15-18.9c-19.6-24.2-39.2-48-58.7-71.8
		c-17.3-21.2-34.6-42.4-51.9-63.3c-2.6-3.3-3.6-6.2-2-10.4c6.5-17,15-32.6,27.4-46c1-1,2-1.6,2.9-2.6
		C151.8,133.9,152.2,133.6,153.5,133.3z"/>
</g>
</svg>
