<?xml version="1.0" encoding="utf-8"?>
<!-- Generator: Adobe Illustrator 22.1.0, SVG Export Plug-In . SVG Version: 6.00 Build 0)  -->
<svg version="1.1" id="Layer_2_1_" xmlns="http://www.w3.org/2000/svg" xmlns:xlink="http://www.w3.org/1999/xlink" x="0px" y="0px"
	 viewBox="0 0 640 480" style="enable-background:new 0 0 640 480;" xml:space="preserve">
<style type="text/css">
	.st0{fill:#051854;}
	.st1{fill:#FFFFFF;}
</style>
<g>
	<g>
		<path class="st0" d="M566,480.6c-163.9,0-327.9,0-492,0C74,320.3,74,160,74-0.6c163.9,0,327.9,0,492,0
			C566,159.8,566,320.1,566,480.6z M423.3,315.5c5.7,7.3,11.3,13.5,15.9,20.4c9.7,14.6,4.3,30-13,31.9c-20.8,2.2-42,0.5-63.2,0.5
			c0-42.9,0-85.6,0-129.5c40.6,0,80.3,0,120.1,0c1.1-12.9,2.1-24.6,3.2-37.1c-107.4,0-214,0-321.2,0c1.2,12.6,2.3,24.6,3.4,37.6
			c40,0,79.5,0,119.7,0c0.2,4.3,0.5,7.4,0.5,10.6c0,31.6,0,63.2,0,94.8c0,24.6,0,24.8-24.6,24.6c-13.1-0.1-26.4,0.8-39.2-1.4
			c-18.3-3.2-23.4-18.4-12.4-33.2c4.9-6.6,10-13.1,14.9-19.6c-16.1-11.4-35.2-24.9-56.7-40c1.3,11.3,2.2,20,3.3,28.6
			c3.5,27.7,6.9,55.5,10.8,83.1c0.5,3.1,4,7.1,7,8.3c41.3,16.1,82.9,31.8,124.3,47.8c6.5,2.5,12.4,2.7,18.9,0.1
			c40-15.5,79.9-31.2,120.2-45.8c9.4-3.4,11.8-8.8,12.8-17.4c2.6-23.6,5.8-47.2,8.6-70.8c1.3-10.5,2.5-21,4-33.9
			C459.3,290,440,303.7,423.3,315.5z M152.7,67.4c0,5.9-0.3,9.3,0.1,12.6c2.8,29.6,5.9,59.2,8.6,88.8c1.2,12.8,0.8,12.8,13.7,12.8
			c100.4,0,200.9,0,301.4,0c2.4,0,5.1,0.7,7.1-0.2c2.4-1.1,5.7-3.4,6-5.4c2.9-27.2,5.4-54.4,7.9-81.7c0.8-8.1,1-16.2,1.4-24.3
			c-0.8-0.4-1.5-0.8-2.3-1.2c-21.2,15.4-42.4,31-64.1,46.8c8.2,9.5,15.4,17.9,22.9,26.6c-7.8,5.5-15.2,9.7-21.3,15.2
			c-10.4,9.4-20.5,10.1-32.7,3.1c-11.9-6.9-25.1-11.7-38.6-17.9c7.6-10.1,14.3-19,21.5-28.6c-19.6-18.8-38.6-37.1-58.5-56.3
			c-18.9,18.5-36.8,35.8-54.3,53.6c-1.4,1.4-0.8,6.6,0.8,8.9c5.1,7.5,11,14.4,17.2,22.4c-18.3,8.2-35.4,16-52.5,23.5
			c-1.5,0.7-3.9,1-5.1,0.3c-11.7-7.8-23.3-15.9-35.5-24.3c8.2-9.5,15.3-17.7,23-26.6C196.8,99.5,175.6,84.1,152.7,67.4z"/>
		<path class="st1" d="M423.3,315.5c16.8-11.8,36-25.5,57.2-40.4c-1.5,12.9-2.7,23.4-4,33.9c-2.9,23.6-6,47.2-8.6,70.8
			c-1,8.6-3.4,14-12.8,17.4c-40.3,14.6-80.2,30.3-120.2,45.8c-6.6,2.5-12.4,2.5-18.9-0.1c-41.4-16.1-82.9-31.6-124.3-47.8
			c-3-1.2-6.6-5.2-7-8.3c-4-27.7-7.3-55.4-10.8-83.1c-1.1-8.6-2-17.2-3.3-28.6c21.4,15.1,40.5,28.6,56.7,40
			c-4.9,6.5-10,13-14.9,19.6c-10.9,14.8-5.8,30,12.4,33.2c12.8,2.2,26.1,1.4,39.2,1.4c24.6,0.2,24.6,0.1,24.6-24.6
			c0-31.6,0-63.2,0-94.8c0-3.2-0.3-6.4-0.5-10.6c-40.2,0-79.7,0-119.7,0c-1.2-13-2.3-25.1-3.4-37.6c107.3,0,213.8,0,321.2,0
			c-1,12.4-2.1,24.2-3.2,37.1c-39.9,0-79.6,0-120.1,0c0,43.9,0,86.6,0,129.5c21.2,0,42.4,1.7,63.2-0.5c17.4-1.9,22.7-17.3,13-31.9
			C434.6,328.9,429,322.7,423.3,315.5z"/>
		<path class="st1" d="M152.7,67.4c22.9,16.7,44.1,32.2,66.3,48.3c-7.7,8.9-14.8,17.1-23,26.6c12.2,8.4,23.7,16.5,35.5,24.3
			c1.2,0.8,3.6,0.4,5.1-0.3c17.1-7.6,34.2-15.3,52.5-23.5c-6.2-8-12.1-14.9-17.2-22.4c-1.5-2.2-2.2-7.4-0.8-8.9
			c17.5-17.8,35.5-35.1,54.3-53.6c19.9,19.2,38.9,37.4,58.5,56.3c-7.2,9.5-13.9,18.5-21.5,28.6c13.6,6.2,26.7,11.1,38.6,17.9
			c12.3,7,22.2,6.3,32.7-3.1c6.2-5.6,13.5-9.7,21.3-15.2c-7.5-8.6-14.8-17.1-22.9-26.6c21.8-15.9,43-31.4,64.1-46.8
			c0.8,0.4,1.5,0.8,2.3,1.2c-0.5,8.1-0.8,16.2-1.4,24.3c-2.5,27.3-4.9,54.5-7.9,81.7c-0.2,2.1-3.6,4.3-6,5.4c-2,0.9-4.7,0.2-7.1,0.2
			c-100.4,0-200.9,0-301.4,0c-12.9,0-12.5-0.1-13.7-12.8c-2.7-29.6-5.8-59.2-8.6-88.8C152.4,76.7,152.7,73.2,152.7,67.4z"/>
	</g>
</g>
</svg>
