<?xml version="1.0" encoding="utf-8"?>
<!-- Generator: Adobe Illustrator 22.1.0, SVG Export Plug-In . SVG Version: 6.00 Build 0)  -->
<svg version="1.1" id="Layer_1" xmlns="http://www.w3.org/2000/svg" xmlns:xlink="http://www.w3.org/1999/xlink" x="0px" y="0px"
	 viewBox="0 0 1920 1080" style="enable-background:new 0 0 1920 1080;" xml:space="preserve">
<style type="text/css">
	.st0{clip-path:url(#SVGID_2_);}
	.st1{fill:#005087;}
</style>
<g id="Layer_1_1_">
	<g>
		<defs>
			<rect id="SVGID_1_" x="113.7" y="290.2" width="1719.2" height="471.1"/>
		</defs>
		<clipPath id="SVGID_2_">
			<use xlink:href="#SVGID_1_"  style="overflow:visible;"/>
		</clipPath>
		<g class="st0">
			<path class="st1" d="M1540.1,670.6V565.7h195.6v-89.2h-195.6v-96.3h278.6V291h-397.6v469.6h411.8v-89.9H1540.1z M1188.7,760.5
				L1354.2,291h-123.3l-93.7,309.9L1033.9,291H930L829,600.2L736.2,291H609.7l171.8,469.6h93.4l106-328.4l116.7,328.4H1188.7z
				 M457,760.5c0,0-159.1-226.2-164.2-233.5c-5.5-7.9-3.2-15.9,6.7-15.9h94.1c48.1,0,66.2-31.2,66.2-66.3
				c0-43.3-17.9-64.7-64.4-64.7H232.7v380.3h-119V291h299.5c114.4,0,161.1,43.3,161.1,151.6c0,98.7-46.6,133.5-109.4,142.9
				l133.8,175H457z"/>
		</g>
	</g>
</g>
</svg>
