<?xml version="1.0" encoding="utf-8"?>
<!-- Generator: Adobe Illustrator 21.1.0, SVG Export Plug-In . SVG Version: 6.00 Build 0)  -->
<svg version="1.1" id="Layer_1" xmlns="http://www.w3.org/2000/svg" xmlns:xlink="http://www.w3.org/1999/xlink" x="0px" y="0px"
	 viewBox="0 0 640 480" style="enable-background:new 0 0 640 480;" xml:space="preserve">
<style type="text/css">
	.st0{fill:#FEFEFE;}
	.st1{fill:#F9FCFD;}
	.st2{fill:#096BB1;}
	.st3{fill:#0E9ACA;}
	.st4{fill:#F3FAFA;}
	.st5{fill:#F8FCFB;}
	.st6{fill:#F9FCFC;}
	.st7{fill:#F6FBFC;}
	.st8{fill:#0A84C1;}
	.st9{fill:#0594CB;}
	.st10{fill:#057CBC;}
	.st11{fill:#3AC2E5;}
	.st12{fill:#06AAD7;}
	.st13{fill:#FAFCFC;}
	.st14{fill:#0587C3;}
	.st15{fill:#F7FBFB;}
	.st16{fill:#F6FAFB;}
	.st17{fill:#52CBEA;}
	.st18{fill:#09A2D2;}
	.st19{fill:#F7FCFC;}
	.st20{fill:#005BA3;}
	.st21{fill:#079BCD;}
	.st22{fill:#3BB3DA;}
	.st23{fill:#55C9E5;}
	.st24{fill:#F3FBFB;}
	.st25{fill:#44C2E4;}
	.st26{fill:#20BBE0;}
	.st27{fill:#F5FAFA;}
	.st28{fill:#0374AF;}
	.st29{fill:#EDF6F8;}
	.st30{fill:#23B2DF;}
	.st31{fill:#E5F3F6;}
	.st32{fill:#177DB9;}
	.st33{fill:#F2FAFA;}
	.st34{fill:#0073AE;}
	.st35{fill:#4EB7D6;}
	.st36{fill:#EFF9FA;}
	.st37{fill:#0064A9;}
	.st38{fill:#0B8CC4;}
	.st39{fill:#0BB0DA;}
	.st40{fill:#0067A2;}
	.st41{fill:#0D93CA;}
	.st42{fill:#2389BC;}
	.st43{fill:#0A79BA;}
	.st44{fill:#09A6D4;}
	.st45{fill:#137FAF;}
	.st46{fill:#0270AC;}
	.st47{fill:#025DA7;}
	.st48{fill:#0A9FD5;}
	.st49{fill:#06549D;}
	.st50{fill:#0A75B6;}
	.st51{fill:#0A63A7;}
	.st52{fill:#0891CC;}
	.st53{fill:#096EB2;}
	.st54{fill:#F5FAFB;}
	.st55{fill:#0A81BE;}
	.st56{fill:#F5FBFB;}
	.st57{fill:#F5FBFC;}
	.st58{fill:#F0F9FB;}
	.st59{fill:#07458D;}
	.st60{fill:#0782C0;}
	.st61{fill:#1373B0;}
	.st62{fill:#FEFBF6;}
	.st63{fill:#E8F6FA;}
	.st64{fill:#F2F8FA;}
	.st65{fill:#00BAEC;}
	.st66{fill:#06A8D6;}
	.st67{fill:#16A9D7;}
	.st68{fill:#0FA3D2;}
	.st69{fill:#02A9D6;}
	.st70{fill:#0267AE;}
	.st71{fill:#03AED8;}
	.st72{fill:#049FD1;}
	.st73{fill:#039BCF;}
	.st74{fill:#05B1DB;}
	.st75{fill:#0581BF;}
	.st76{fill:#076BB0;}
	.st77{fill:#04A3D3;}
	.st78{fill:#006AB1;}
	.st79{fill:#058CC7;}
	.st80{fill:#0594C9;}
	.st81{fill:#0283BD;}
	.st82{fill:#0594CC;}
	.st83{fill:#087CBC;}
	.st84{fill:#0688C2;}
	.st85{fill:#0590C8;}
	.st86{fill:#0878B9;}
	.st87{fill:#068CC5;}
	.st88{fill:#0565A9;}
	.st89{fill:#0368AD;}
	.st90{fill:#0599CC;}
	.st91{fill:#0B72B2;}
	.st92{fill:#0C9ECC;}
	.st93{fill:#02B3DD;}
	.st94{fill:#27B7DD;}
	.st95{fill:#0FB7DD;}
	.st96{fill:#0DB1DA;}
	.st97{fill:#19BBDF;}
	.st98{fill:#10AED6;}
	.st99{fill:#39C6E6;}
	.st100{fill:#33BCE0;}
	.st101{fill:#0AB5DD;}
	.st102{fill:#1CBDE0;}
	.st103{fill:#00A5CA;}
	.st104{fill:#0065AB;}
	.st105{fill:#1078B9;}
	.st106{fill:#0D6BA4;}
	.st107{fill:#00A6DD;}
	.st108{fill:#0E77B4;}
	.st109{fill:#127BB6;}
	.st110{fill:#0367A6;}
	.st111{fill:#0160A5;}
	.st112{fill:#0166AA;}
	.st113{fill:#47C8E8;}
	.st114{fill:#03A4D0;}
	.st115{fill:#28B0DC;}
	.st116{fill:#34B4D9;}
	.st117{fill:#1A88BA;}
	.st118{fill:#39BDE3;}
	.st119{fill:#27BFDE;}
	.st120{fill:#28C4E4;}
	.st121{fill:#1FC5E5;}
	.st122{fill:#35C2E4;}
	.st123{fill:#0C75AF;}
	.st124{fill:#01679D;}
	.st125{fill:#0097D1;}
	.st126{fill:#01A0D2;}
	.st127{fill:#00A1DD;}
	.st128{fill:#0094CA;}
	.st129{fill:#0CA3D0;}
	.st130{fill:#00B6E9;}
	.st131{fill:#00B3E6;}
	.st132{fill:#137CB6;}
	.st133{fill:#00AEE2;}
	.st134{fill:#005BA6;}
	.st135{fill:#06408C;}
	.st136{fill:#008AC9;}
	.st137{fill:#007ABC;}
	.st138{fill:#0086C6;}
	.st139{fill:#007EC0;}
	.st140{fill:#074895;}
	.st141{fill:#009AD3;}
	.st142{fill:#00A3DB;}
	.st143{fill:#00A0D8;}
	.st144{fill:#009ED7;}
	.st145{fill:#008ECC;}
	.st146{fill:#008CCA;}
	.st147{fill:#0B89C3;}
	.st148{fill:#0094D0;}
	.st149{fill:#00ACE0;}
	.st150{fill:#00A8DE;}
	.st151{fill:#19B2DE;}
	.st152{fill:#0055A2;}
	.st153{fill:#0057A4;}
	.st154{fill:#005DA7;}
	.st155{fill:#08ADDA;}
	.st156{fill:#0059A4;}
	.st157{fill:#0063AB;}
	.st158{fill:#0065AE;}
	.st159{fill:#0069B1;}
	.st160{fill:#00BBE0;}
	.st161{fill:#18BBE0;}
	.st162{fill:#03BDE1;}
	.st163{fill:#07BADF;}
	.st164{fill:#2CBFE4;}
	.st165{fill:#28B8E0;}
	.st166{fill:#0093CE;}
	.st167{fill:#0082C3;}
	.st168{fill:#0073B7;}
	.st169{fill:#006DB5;}
	.st170{fill:#00B1E4;}
	.st171{fill:#005EA9;}
	.st172{fill:#0062AC;}
</style>
<g>
	<path class="st0" d="M128.1,140.2c0-28.8,0.1-57.6-0.1-86.4c0-4.8,1.1-5.9,5.9-5.9c124.1,0.2,248.2,0.2,372.3,0
		c4.8,0,5.9,1.1,5.9,5.9c-0.2,124.1-0.2,248.2,0,372.3c0,4.8-1.1,5.9-5.9,5.9c-124.1-0.2-248.2-0.2-372.3,0c-4.8,0-5.9-1.1-5.9-5.9
		c0.3-30.1,0.1-60.1,0.1-90.2c1.5-1.5,3.2-1.7,5.1-1.1c0.8,0.4,1.5,0.9,2.1,1.7c2,2.8,2.2,5.9,1.9,9.2c-0.3,3.2,1.3,7,3.7,7.1
		c6.5,0.3,8.5,6.2,12.9,8.8c0.8,0.3,1.5,0.8,2.1,1.4c2.9,2.4,2.5,8.3,8.2,7.8c0.9,0.1,1.7,0.3,2.5,0.6c4.1,1.6,7.2,4.7,10.4,7.6
		c4,3.9,9.4,6.2,13.4,10.2c0.6,0.7,1.1,1.4,1.6,2.1c8.6,10,21,13,32.6,17.1c34.3,12.2,69.5,13.4,104.6,5.1
		c11.9-2.8,24.1-6.5,35.6-12.1c14.9-7.3,27.4-17.4,40.6-27c10.4-7.6,15.1-19.5,24.9-27.2c2.5-2,2.1-5.9,1.8-9.1
		c0.5-4.2,3.1-6.7,6.6-8.6c8.7-1.2,10.3-7,9.5-14.5c-2.2,0.1-4.4,0.5-6.5,0.9c-12.1,2.3-13,1.3-10.4-11.3
		c2.3-11.5,1.9-22.7-4.3-33.1c-2.2-5.6-4.6-11-11.1-12.9c-4.2-3.1-8.3-6.4-12.2-9.9c-0.5-0.7-1-1.5-1.4-2.3
		c-2.2-5.1-6.4-6.8-11.6-6.8c-1.7,0-3.3-0.4-4.6-1.5c-2.1-1.9-4.5-3.2-7-4.3c-1.5-0.7-2.9-1.4-4.4-2c-3.1-1.3-6.3-2.2-9.4-3.2
		c-3.2-1.2-6.2-2.9-9.7-3.4c-3.1-0.7-6.1-1.7-9.1-2.7c-3.1-1.1-6.2-2.2-8.6-4.6c-8.7-6.9-19.7-7.9-29.9-10.9
		c-21.2-7.6-42.4-15.3-64.6-19.9c-3.4-0.2-6.7-1.2-9.9-2.3c-3.2-1.2-6.2-2.7-8.5-5.2c-3-4.7-8.9-6.9-10.9-12.5
		c-10.5-12.6-5.2-24.2,2.7-35.4c3.1-4.4,5.2-9.5,9.6-12.9c3.6-2.5,7.2-5.2,10.6-7.9c1.8-1.4,5.2-3,3-5.8c-1.7-2.1-5-2.7-7.9-1.5
		c-4.7,1.9-8.9,4.8-14,5.8c-5.8,1.5-11.4,4.1-17.6,3.7c-1-0.3-1.9-0.7-2.6-1.4c-2.6-3.6-0.5-5.7,2.5-7.5c20.5-9.9,42-15.6,64.7-18.7
		c24.9-3.3,48.8,0.3,72.6,6.3c17.7,4.5,33.2,13.9,49.6,21.4c0.8,0.3,1.6,0.7,2.4,1.2c3.3,2.9,7,5.1,10.6,7.6c0.6,0.7,1,1.4,1.3,2.3
		c0,4.1,2.6,6.4,5.8,7.9c11.1,5.1,18.8,13.6,24.7,23.9c1.8,3.1,4.2,5.5,7.5,6.9c1.7,0.3,3.9,2.3,4.8,0c1.4-3.7-1.6-5.4-4.5-6.8
		c-8.5-8.9-12.6-21-21.5-29.6c-1.2-3.1-3-5.8-5.5-8c-2.8-3-5.6-5.8-9.2-7.8c-4-2.9-8.2-5.5-11.5-9.2c-1.4-1.4-2.8-2.9-4.4-4.1
		c-2.9-2.1-5.9-4.1-9.1-5.7c-3.2-1.7-6.1-4.1-9.8-4.8c-3-0.7-5.7-2-8-4c-1.3-1.1-2.8-2.1-4.4-2.9c-8.9-4-18.2-6.9-27.7-9
		c-5.7-1.7-11.7-2.6-17.6-3.7c-20.5-2.2-41-2.6-61.3,1.8c-11.2,2-22,5.5-32.7,9.5c-2.6,1-5.3,2.1-8.1,2.6c-5.2,0.3-9.7,2.9-14.1,5.4
		c-18.4,10.4-34.8,23.2-47.5,40.3c-1.5,2-3,4.1-5.7,4.8c-2.7,0.7-2.8,0.9-1.7,3.7c0,1-0.2,1.9-0.7,2.8
		C136.4,141.7,132.8,143.7,128.1,140.2z"/>
	<path class="st0" d="M128.1,314.8c0-49.3,0-98.5,0-147.8c0.7-0.7,1.3-1.4,2-2.1c1.8-1.9,1.9-6.5,5.5-5.4c3.9,1.2,5.4,5.1,5.2,9.3
		c-0.1,1.3,0.1,2.9-0.7,3.7c-7.4,8-2.6,16.5-1.8,25.1c0.9,9.9,6.3,16.8,11.6,24.2c1.9,1.7,4,3.2,6,4.8c1,0.8,1.9,1.7,2.7,2.7
		c2.2,3,4.7,5.6,8.1,7.3c2.1,1.3,4.3,2.3,6.4,3.6c1,0.7,1.9,1.5,2.8,2.5c2.1,2.6,5,4.2,7.7,6c7.4,4.4,14.8,9.1,23.6,10.3
		c1.8,0.4,3.4,1.1,4.9,2.2c5.5,4.3,11.7,6.5,18.6,7.1c5.7,0.6,11,2.9,16.5,4.5c5.8,2.2,11.6,4,17.6,5.8c8.3,2.2,16.4,5.2,24.7,7.3
		c3.3,1,6.5,2.1,9.3,4.1c9.1,5.5,20,5.6,29.5,10c3.2,1.5,6.5,2.6,9.6,4.1c3.8,2.8,8,5,11.7,8c8.9,7.2,11.5,17.3,7.2,27.9
		c-1.4,3.5-2.1,7.2-3.3,10.8c-1,5.4-5.1,8.8-8.3,12.9c-2.1,2.4-4.6,4.2-7.3,5.9c-3.6,1.4-6.8,3.5-9.6,6.1c-0.7,0.6-1.3,1.1-2,1.6
		c-1.7,1.6-1.3,4.4-3.4,5.8c5.4-3.5,11.4-5,17.7-4.6c2.9,0.2,6.1,1.3,6.4,4.6c0.3,3-2.5,4.2-5,4.9c-25.3,7-51,10.9-77.1,7.5
		c-11.4-1.5-22.4-6.4-34.2-7.2c-1.2-0.1-0.2,0.6-0.9-0.3c-4.9-6-11.9-5.3-18.4-6c-7.9-3.5-15-8.8-23.6-10.8
		c-1.3-0.3-2.6-0.7-3.9-1.2c-3.1-1.8-6.1-3.7-8.5-6.3c-4.2-6.6-10.1-11.3-17.3-14.4c-0.8-0.4-1.4-0.9-2-1.5c-2-3.1-5.4-5.4-5.4-9.6
		c0.9-2.9-1.3-1.2-2.2-1.4C139.3,331.4,134.4,322.5,128.1,314.8z"/>
	<path class="st1" d="M149.2,224.6c-3.5-8-13.8-12-12.4-23.4c0.5-3.8-1.2-9.1-3.4-13.6c-1.4-2.9-7.3-10.6,3.7-12
		c1-0.1,4.4-10.5-2.6-14.7c-0.8,3.5-1.6,7-6.4,6.1c0-1.9,0-3.8,0-5.8c3.4-5.4,5.5-12,12.4-14.3c2.8,0,4.4-1.6,5.3-4.1
		c1.7-3.1,4-5.7,7-7.6c5.4-2.6,11.2-4.8,13.8-11c0.8-1.6,1.8-3.1,3.3-4.2c1.5-1.1,3.1-1.9,4.8-2.6c4.2-1.4,8.4-2.9,11.8-5.7
		c4.3-3.5,8.4-3.8,12.7-0.4l0,0c0.3,7.1-7,6.5-10.1,10.1c-0.7,0.5-1.5,0.9-2.3,1.2c-9.7,2.5-16.1,9.6-22.6,16.4
		c-2.8,2.6-5.4,5.4-8.4,7.9c-3,2.1-3.9,5.3-4.6,8.6c-5.3,12.8-12.1,25.1-9.8,39.7c0.8,4.5,1.8,8.9,3.7,13.1
		c1.6,4.3,5.3,7.6,5.8,12.4C150.8,222.3,150.3,223.6,149.2,224.6z"/>
	<path class="st2" d="M166.4,372.4l-0.9,0.1l-0.9-0.1c-4.2-2.2-6.9-5.9-9.6-9.6l0,0c-8.7-7.6-16-16.4-21.1-26.9l0,0
		c-3.6-2.1-3.5-6.6-5.8-9.5c0-2.6,0-5.1,0-7.7c1.3-0.6,2.7-0.4,3.4,0.6c7.4,10.4,17.7,18.1,25.3,28.3l0,0c3.3,2,6.9,3.7,8.5,7.6
		c0.1,0.9,0,1.7-0.4,2.5c0.3,5.6,7.2,9,5.3,15.3C168.8,373.4,167.6,373.5,166.4,372.4z"/>
	<path class="st3" d="M141.6,148.1c-6.1,2.8-7,10.9-13.5,13.2c0-1.9,0-3.8,0-5.8c2.4-7.3,6-13.9,12-19l0,0.1
		c3.5-5.5,5.7-12,12.8-14.2c3.1,2.6,2.8,6.2,3.1,9.7c0.1,2-1.3,3-2.5,4.2c-2.1,2.5-4.2,5-6.3,7.5
		C145.6,145.7,144.1,147.6,141.6,148.1z"/>
	<path class="st4" d="M156.8,347.6c-9.6-9.6-19.2-19.2-28.7-28.9c0-1.3,0-2.6,0-3.8c8.3,3.2,10.6,12.4,17.2,17.3
		c1.5,1.1,2.6,2.5,3.9,3.8c1.1,0.2,1.7,0.9,1.9,1.9C152.5,341.4,157.2,343,156.8,347.6z"/>
	<path class="st5" d="M140.1,136.6c-4,6.3-8,12.6-12,19c0-5.1,0-10.2,0-15.4C132.8,141.3,136.3,138.4,140.1,136.6z"/>
	<path class="st6" d="M128.1,326.4c3.6,2.2,4.7,5.8,5.8,9.5c-1.9,0-3.9,0-5.8,0.1C128.1,332.8,128.1,329.6,128.1,326.4z"/>
	<path class="st6" d="M210.7,380.1c3.5-0.3,7.5,2.9,10.7-1.7c0.6-0.8,5.9-0.7,5.5,1.5c-1.5,8.2,5,6.1,8.3,6.6
		c19.6,2.5,38.6,10.1,58.9,7.1c8.6-1.3,17.2,0.8,25.9-3.9c7.2-3.9,17.1-2.1,27-5.9c-11.8-8.5-21.3,4.3-31.7,0.6
		c7.5,0.5,4.9-9,10.8-9.9c4.9,2.3,9.9,1.3,14.8,0.1c4.7-1.3,9.2-3,13.8-4.4c1.6-0.5,3.3-1,4.9-1.5c3.2-0.6,6.4-1.4,9.1-3.4
		c2.1-1.4,4.2-2.7,6.2-4.1c3.2-2.1,6.2-4.5,9.8-6c6.1-2.4,11.7-5.5,15.7-10.9c2.8-3.9,6.1-7.3,10.1-10c3-1.7,4.9-4.5,6.6-7.4
		c5.6-6.9,9.5-14.5,11.4-23.2c2.1-7.4,2.4-14.8-0.5-22.2c-0.7-2.6-1.5-5.1-1.9-7.7c0-0.9,0.2-1.8,0.5-2.6c0.4-0.3,0.7-0.5,1.1-0.8
		c3.8,0.7,5,3.1,5.4,6.8c1.2,11,3.3,22-0.6,33c-1.4,4-1.2,7.6,4.8,4.3c1.3-0.7,3-1.1,4.5-1.2c3.3-0.1,6.6-2,10-0.3
		c-2.8,3.9,1.4,10.3-0.6,11.3c-3.9,1.9-5.1,10.6-12,5.7c-2.3-2.8,0.6-5.2,0.7-7.9c-4.2,3.6-4.5,9.9-9.3,13
		c-8.1,6.7-14.3,15.4-22.9,21.4c-4.2,1.9-7.7,5-11.5,7.7c-1.7,1.1-3.4,2.4-5.2,3.6c-4.5,2.2-8.5,5.2-13,7.5
		c-2.6,1.3-5.2,2.5-7.7,3.9c-1.8,0.9-3.7,1.8-5.6,2.7c-2.6,1.2-5.5,2.1-8.1,3.3c-1.6,0.7-3.1,1.5-4.7,2.1c-4.3,1.4-8.3,3.7-12.8,4.5
		c-3.3,0.5-6.5,1.5-9.7,2.2c-5.4,1.4-11,2.5-16.5,3.6c-18.1,2.5-36.2,2.9-54.2,0.3c-1.1,0-2.1,0-3.2-0.1c-2.1-0.1-4.1-0.3-6-1
		c-3.7-2.2-7.9-3.1-12-3.9c-5.6-2-11.4-3.6-17.3-4.7c-3.3-0.5-6.5-1.2-9.3-3.3c-0.7-0.7-1.1-1.5-1.3-2.5
		C209.6,381.6,210,380.8,210.7,380.1z"/>
	<path class="st6" d="M433.8,338c0.4,1.5,1.2,3,1.2,4.4c-0.2,3.3-14.9,21.6-18.3,23.1c-5.3,2.2-1.9,5.4-0.3,9.4
		c-6-1.5-9.5-0.8-12.9,4.9c-3,5.1-10.3,7.8-15.9,11.1c-3.2,1.9-7.4,2.3-6.9,7.7c0.3,2.8-2.2,2.2-4.1,2.1c-6.6-0.6-12.6,0.1-14.9,7.8
		c-0.3,1.1-0.8,1.7-1.9,1.6c-21.4-1-40.6,10.8-62,10.7c-20.8-0.1-41.5-0.3-61.6-6.5c-12.4-3.8-24.8-7.3-36.3-13.6
		c-4.2-2.3-8.4-4.6-10.1-9.6c4.1-1.9,7,1.1,10.2,2.7c5.2,3.4,10.8,6,16.8,7.9c4.1,1.9,8.3,3.5,12.6,4.7c5.3,1.8,10.6,3.6,16.1,4.6
		c3.2,1.1,6.7,1.1,10,1.9c5,1.5,10.2,0.6,15.2,1.8c9.9,1.8,19.9,1.2,29.8-0.1c8.2-0.6,16.3-2,24.3-3.6c6.1-1.3,11.9-3.5,17.8-5.5
		c4.3-1.5,8.7-2.4,13-3.8c2.9-1,5.6-2.3,8-4.1c5.4-3.6,11.5-6,17.1-9.2c4.9-2.6,8.9-6.4,13.3-9.6c4.7-3.1,9-6.8,12.8-11
		c1.5-1.5,2.9-3.2,4-5c6.9-8.6,14.8-16.3,21.7-24.8C432.9,338,433.4,338,433.8,338z"/>
	<path class="st7" d="M339.2,94.2c-31-8.2-62.5-10.8-93.8-3.3c-12.6,3-25.9,5.1-37,12.9c-2.7,1.9-6,1.9-9.2,2
		c-0.2-0.4-0.4-0.9-0.5-1.3c3.5-7.2,10.9-8.1,17.3-10.8c3.7-0.8,7.2-2.1,10.8-3.3c5-1,9.7-2.9,14.5-4.3c26.2-5.6,52.6-5.5,79.1-2.3
		c5.9,0.6,11.5,2.4,17.1,4.1c2.8,1.8,7.6,1.3,7.6,6.5C343.1,95.5,341.1,95.5,339.2,94.2z"/>
	<path class="st8" d="M419.9,124.9c9.3,8.7,15,20,21.7,30.5c2.4,1.7,3.4,3.9,2,6.6c-1.2,2.3-3.1,1.4-4.9,0.6
		c-9.9-11.7-19.2-24.1-32.1-33c-1.6-1.1-2.9-2.5-3.1-4.6c0.8-4.4,4.5-5.3,7.9-6.6C415.7,118.6,416.9,122.8,419.9,124.9z"/>
	<path class="st9" d="M412.1,119.1c-2.6,2-5.2,4-7.8,6c-2.1,0.6-2.9-0.8-3.6-2.3l0.1,0c-3.8-2.6-8.1-4.5-11.7-7.5l-0.6-0.3l-0.7,0.1
		c-2.8-2.7-6.5-3.9-9.6-6.1c-1.6-2.4-5.2-3.6-4.8-7.4c0.6-0.6,1.4-1.1,2.3-1.4c5.9-1.1,9.6,3.2,13.7,5.7c-1.1-3.7,0.7-5.5,3.8-6.7
		c3.8,3.1,7.7,6.3,11.5,9.4c2.1,3.2,5.6,5.1,7.8,8.2C413,117.7,412.8,118.5,412.1,119.1z"/>
	<path class="st10" d="M170.3,372.4c-4.1-2.1-2.3-9.6-9.1-9.8c-1.1,0-0.5-5.1,3.4-5.5c2.9-0.2,5.3,1.4,7.8,2.5
		c1.4,0.8,2.4,1.9,3.7,2.8c2.6,2,5.1,4,7.7,6c4.9,2.8,6.1,7.7,7.5,12.6c0.5,3.1,0.8,6.2-1.8,8.7c-5.2-2.1-9.9-4.9-13.5-9.4
		C174.8,377.2,171.7,375.4,170.3,372.4z"/>
	<path class="st5" d="M153,123c-6.7,2.3-7.7,10.1-13,13.7c-2-3.4-6.5-6.1-1.7-11.4c1.6-0.5,1.4,8.4,6,2c8-11.4,18.1-20.7,29.1-29.4
		c7.7-6.1,27.1-18,35.7-19c-3.1,7.3-11.4,7.6-16.3,12.5c-4.5,3-9.4,5.6-13.1,9.6c-0.9,0.9-1.9,1.7-3,2.3c-4.7,1.9-7.8,5.9-11.3,9.4
		C160.8,115.6,159.4,122.3,153,123z"/>
	<path class="st11" d="M312.7,65.2c5.9,0.3,11.7,0.9,17,3.6c-0.2,0.4-0.4,0.9-0.6,1.3c-0.7,0.7-1.4,1.3-2.3,1.8
		c-4.1,1.9-8.4,1.7-12.7,1.1c-8.6,1.8-17.7,1.7-25.9,5.4c-5.2,1.4-10.5,1.6-15.7-0.1c-2-1.1-3.2-2.7-3.4-5.1
		c4.6-7.4,12.7-5.1,19.2-7c5.3-0.3,10.5-0.5,15.7-1.8C307,64.6,309.9,63.9,312.7,65.2z"/>
	<path class="st12" d="M345.3,94c-2.7-1.2-5.4-2.5-8.1-3.7c0.4-5.1,4.9-4,7.8-4.9c4.8-1.4,10-1.7,14.2-4.8c0.9-0.5,1.8-0.5,2.7,0.1
		c2.7,1.4,5.3,2.8,8,4.1c2.9,1.9,6,3.7,8.3,6.4c-2.4,6.3-8.1,7-13.6,7.9c-1.4-0.2-2.5-0.8-3.3-1.9c-1.2-2.6-3.1-2.9-5.6-1.7
		c-1.7,0.6-3.5,0.4-5.2,0.2C348.8,95.2,346.7,95.5,345.3,94z"/>
	<path class="st13" d="M400.7,122.8c1.2,0.8,2.4,1.5,3.6,2.3c12.9,10.8,25.4,21.9,34.6,36.1c1.1,1.3,1.2,2.6,0,3.9
		c-2.5-1.4-5.7-2-7-4.7c-6.1-13.1-16.2-22.1-29-28.3C398.4,129.9,398.1,126.7,400.7,122.8z"/>
	<path class="st14" d="M189.5,389.8c0-3.2,0-6.5,0-9.7c-1.7-3-0.2-5.5,1.5-7.9c4.4,0,8,1.7,11,4.9c0.2,6.2,4.9,13.2-2.8,18.2
		c-3.1-1.4-6.3-2.8-9.4-4.3C189.7,390.6,189.6,390.2,189.5,389.8z"/>
	<path class="st15" d="M228,119.2c-4.4,8.6-11.8,15.3-15.1,24.8c-2.5,7.2-4.4,13,2.5,18.6c0.9,0.7,0.6,3,0.9,4.5
		c-1.8,1.6-3.9,1.7-6.1,0.8c-2.5-1.6-3.5-4.1-3.9-6.9c-0.3-5.2-0.4-10.5,0.1-15.7c0.5-2.9,1.5-5.8,2.2-8.7
		c4.4-7.8,7.8-16.6,18.3-18.3C227.3,118.6,227.6,118.9,228,119.2z"/>
	<path class="st16" d="M242.6,184.7c12.6,2.4,25.3,4.4,37,9.9c9.4,4.4,20.4,4.4,29.1,10.6c-0.3,0.4-0.6,0.7-0.9,1.1
		c-1.8,1-3.7,0.9-5.6,0.5c-5.7-1.8-11.3-4-17.3-5.1c-4.4-1.6-9.2-1.3-13.3-3.8c-3.9-2.3-8.1-3.5-12.6-3.6c-1.3-0.1-2.6-0.4-3.9-0.8
		c-2.9-1.1-5.6-2.6-8.4-4C244.9,188.3,242.8,187.3,242.6,184.7z"/>
	<path class="st7" d="M218.2,107.4c7-1.7,12-9.4,20.8-6.1c6.1,2.3,7.6,4.8,2.3,9c-4.2,3.3-7.9,7.4-13.3,8.9c0,0-0.6-0.7-0.6-0.7
		c0.3-4.9,4.4-7.1,7.5-10.4c-4.5,1.1-8.8,2.2-13.3,1.4C220.2,109.2,219,108.7,218.2,107.4z"/>
	<path class="st6" d="M133.9,335.9c7,9,14.1,17.9,21.1,26.9c-1.5,0.2-4.4,0.6-4.4,0.6c-1.5-9.4-14.8-6.6-16-14.9
		C134,344.5,135.1,340.1,133.9,335.9z"/>
	<path class="st17" d="M312.7,65.2c-3.3,0.1-6.7,0.2-10,0.3c-4.2,1.4-8.5,1.4-12.8,1.2c-8.6,1.6-17.7-0.2-26.1,3.7
		c-5.1,1.7-10,0.5-14.9-0.7c-0.8-0.9-0.8-1.8-0.1-2.7C270,61.4,291.3,61.1,312.7,65.2z"/>
	<path class="st18" d="M364.1,98c4.4-2.6,10.6-2.2,13.4-7.6c0.7-0.8,1.5-0.8,2.3-0.2c3.6,1,6.7,3,9.2,5.9c-3.6,3.9-8.8,4.1-13.3,5.7
		c-0.6,0-1.3,0-1.9,0c-0.6,1.2-1.2,2.5-2.6,2.9c-3.2-0.4-6.2-1.3-7.9-4.4C363.1,99.5,363.5,98.6,364.1,98z"/>
	<path class="st19" d="M364,100.4c2.2,2.1,5.1,2.7,7.9,3.4c2.7,1.1,5.6,1.9,7.5,4.3c2.3,3,7.2,2.8,8.4,7c-12.5-2.8-22.2-11.3-34-16
		c-4.8-1.9-11,0-14.6-4.9c2.1-0.1,4.1-0.1,6.2-0.2c1.6,0.1,3.1,0.3,4.7,0.4C354.8,96.1,360.6,95.4,364,100.4z"/>
	<path class="st20" d="M429.2,333.6c5.5-5,6.6-13.9,15.2-17.4c0.4,5.9-4.3,9.3-5.1,14c-1.8,2.6-3.7,5.2-5.5,7.8c0,0-0.7-0.2-0.7-0.2
		C428.3,339.5,428,337.2,429.2,333.6z"/>
	<path class="st21" d="M375.7,101.8c4.2-2.4,7.6-6.8,13.3-5.7c2,0.3,3.2,1.6,4.2,3.2c-2.4,6.4-5.5,10.4-12.1,3.7
		C380,101.9,377.5,102.2,375.7,101.8z"/>
	<path class="st22" d="M386.9,236c1.1,1.5,2.5,2.1,4.3,1.6c1.3,0.5,2.2,1.3,2.9,2.4c0.9,1.6,1.6,3.2,1.2,5.1
		c-0.8,1.3-1.9,1.9-3.4,2.1c-6.3-1.6-13.2-2.2-17.1-8.6c-0.1-2.2,1.2-3.4,3.1-4C381.1,233.8,383.8,235.9,386.9,236z"/>
	<path class="st23" d="M248.9,66.9c0,0.7,0.1,1.5,0.1,2.2c-2.3,3.9-6.9,3.5-10.3,5.4c-1.5,0.8-3.1,1.6-4.7,2c-2,0.5-4.1,0.5-6.2,0.7
		c-1.6,0.2-3.1,0.6-4.7,1c-0.8,0.2-1.6,0.3-2.4,0.3c-0.8,0-1.6-0.1-2.4-0.3c-0.8-0.3-1.4-0.8-1.9-1.4
		C226.6,71.5,237.5,68.6,248.9,66.9z"/>
	<path class="st24" d="M199.1,111.4c-5.1-1.2-9.2,0.3-13.3,3.6c-3,2.4-6.8,4.5-11.1,4.1c1.7-8.8,9.7-10,15.9-13.3
		c2.7-0.7,5.3-2.2,8.1-0.6c0,0,0.5,0.6,0.5,0.6C197.8,107.6,198,109.5,199.1,111.4z"/>
	<path class="st24" d="M218.2,107.4c1.5,0.1,2.9,0.2,4.4,0.4c-0.1,2.3-1.8,3.2-3.7,3.8c-8.5,2.7-16.8,5.8-24.8,9.6
		c-2,1-4.2,1.5-6.3,0c1.7-5.6,9.3-4.5,11.3-9.8C205.5,110.1,211.8,108.8,218.2,107.4z"/>
	<path class="st16" d="M308.7,205.2c10.7,2.2,22,2.8,30.5,11.3c-4.3,4-7.5-1.6-11.4-1.2c-3-1-6.1-1.6-9.1-2.5
		c-2.9-1.2-5.7-2.4-8.5-3.8c-1.2-0.8-2.1-1.7-1.7-3.3L308.7,205.2z"/>
	<path class="st25" d="M216.4,76.9c0.7,0.1,1.3,0.2,2,0.3c-3.5,9.2-13.8,9-20,14.6c-2.6,0.6-5,0.7-7-1.5c4.8-5.5,12.3-6.8,17.7-11.3
		C211.6,78.3,214,77.6,216.4,76.9z"/>
	<path class="st26" d="M329.8,68.7c10.1,1.9,19.8,4.6,28.7,10c-2.6,2.6-5.5,1.4-8.3,0.7c-4.8-1.9-10.2-1.8-14.8-4.4
		c-2-1.6-5.4-1.9-5.6-5.4L329.8,68.7z"/>
	<path class="st27" d="M439,165.2c0-1.3,0-2.6,0-3.9c1.4,0,2.4,2.9,3.8,1c1.7-2.3-1-4.5-1.2-6.9c7.7-1.3,6.5,5.9,6,8.5
		C446.5,168.8,442.2,166.7,439,165.2z"/>
	<path class="st28" d="M327.6,213.2c4.6-1.4,7.1,4.2,11.6,3.3c2.6,1.4,5.2,2.7,7.8,4.1c0.5,0.5,0.7,1,0.6,1.5
		c-0.1,0.6-0.2,0.8-0.3,0.8c-0.7,0.6-1.5,0.9-2.4,1c-2.6,0-5.1-1-7.5-1.8c-2-0.7-4.1-1.3-6-2.1c-2-1-3.9-2.1-4.6-4.5
		C326.7,214.6,327,213.8,327.6,213.2z"/>
	<path class="st29" d="M416.4,257.4c8.5,0.3,10.9,5.9,11.5,13.2c0,0-0.5,0.2-0.5,0.2c-2,0.9-3.3-0.3-4.7-1.5c-1.9-2.9-4.4-5.2-7-7.4
		c-0.8-1.2-1-2.4-0.4-3.7C415.7,257.9,416,257.6,416.4,257.4z"/>
	<path class="st30" d="M404.5,247.4c4.7,2.4,9.1,5.2,11.9,9.9c0,0-0.7-0.1-0.7-0.1c-6.7,5.9-9.4,0.2-12.5-4.3
		C402.7,250.9,402.8,249,404.5,247.4z"/>
	<path class="st31" d="M211.3,167c1.7,0,3.3,0,5,0.1c1.5,5.2,9.1,5,9.7,11.1c-0.4,0.8-1.1,1.2-2,1.3c-1.3-0.1-2.4-0.7-3.4-1.5
		c-2.7-2.6-6-4.3-9.4-5.9c-0.7-0.5-1.3-1.2-1.6-2C209.6,168.7,209.6,167.5,211.3,167z"/>
	<path class="st32" d="M242.6,184.7c1.7,1.1,3.4,2.1,5,3.2c-0.9,1.9-2.6,2.5-4.4,3c-4.7-0.1-9.2-0.7-11.9-5.3
		c-0.1-1.7,1-2.4,2.4-2.9C236.6,183.3,239.6,184,242.6,184.7z"/>
	<path class="st33" d="M392.9,239.9c-0.6-0.7-1.2-1.5-1.8-2.3c6.4-0.5,11.4,1.3,13.2,8.2c-1,0.9-2.1,1.1-3.4,0.8
		c-0.7-0.3-1.4-0.8-2-1.3C397.1,243.3,394.8,241.9,392.9,239.9z"/>
	<path class="st6" d="M155,362.8c3.8,2.6,7,5.8,9.6,9.6C154.5,376.1,157.9,366.3,155,362.8z"/>
	<path class="st34" d="M356.4,222.9c3.6,0.2,6.7,1.6,9.7,3.5c1.1,1.2,1.2,2.4,0.5,3.8c-0.7,0.6-1.6,1-2.5,1
		c-4.3-1.2-9.2-1.2-11.9-5.8C352.6,223,355.2,224.2,356.4,222.9z"/>
	<path class="st35" d="M401.1,245.2c1.1,0.2,2.2,0.5,3.3,0.7c0.1,0.5,0.1,1,0.1,1.6c0,2-0.1,3.9-0.1,5.9c-4,1.3-6.4-0.6-8.2-3.9
		C396.4,246.5,398.5,245.5,401.1,245.2z"/>
	<path class="st36" d="M389.1,115.3c4.4,1.7,9,3.1,11.7,7.5C395.6,122.3,391.7,119.9,389.1,115.3z"/>
	<path class="st37" d="M233.6,182.6c-0.6,0.6-1.3,1.2-1.9,1.8c-1.2,1.1-2.6,1.2-4.1,0.9c-2.5-1.4-5.8-2.5-3.4-6.5
		c0.6-0.2,1.2-0.4,1.9-0.7C228.5,179.7,231.1,181.2,233.6,182.6z"/>
	<path class="st38" d="M412.1,119.1c0-0.6,0-1.2,0-1.8c0.6-0.9,1.1-0.9,1.6,0c2.7,2,5.8,3.7,6.1,7.6
		C416.3,124.2,413.6,122.5,412.1,119.1z"/>
	<path class="st39" d="M350.6,77.1c2.5,1,5,2.2,7.8,1.6c1.5,0.1,3.1,0,3.6,2c-0.6,0-1.2,0.1-1.8,0.1c-1.8,1.1-3.8,1.9-5.9,2.5
		c-1.8,0.5-3.9,0.8-5.1-0.7C347.5,80.4,349.3,78.7,350.6,77.1z"/>
	<path class="st13" d="M425.3,154.2c-0.9,3.9-1.4,6.4-4.5,6.7c-0.6,0.1-1.9-1.1-1.9-1.4C419.5,156.8,422.2,156.2,425.3,154.2z"/>
	<path class="st40" d="M356.4,222.9c-0.8,1.4-2.2,1.7-3.6,1.7c-2.6,1.6-5,2.4-5.9-1.8c0.1-0.8,0.1-1.5,0.2-2.3
		C350.1,221.3,353.3,222.1,356.4,222.9z"/>
	<path class="st6" d="M427.3,368.7c-1-0.6-2.3-1.1-2.2-1.4c0.2-2,1.8-3.1,3.5-3.7c0.5-0.2,1.9,0.7,1.9,1.1
		C430.8,367.1,428.7,367.5,427.3,368.7z"/>
	<path class="st41" d="M413.7,117.3l-0.8,0c0,0-0.8,0-0.8,0c-3.2-2.2-6.5-4.4-7.4-8.6C408.5,110.7,411.3,113.7,413.7,117.3z"/>
	<path class="st42" d="M366,230.3c0-1.3,0-2.6,0.1-3.9c3.6,0.3,6.9,1.5,9.7,3.9c-0.9,1.7-2.4,2.4-4.2,2.8
		C369.2,233.2,367.3,232.5,366,230.3z"/>
	<path class="st43" d="M170.3,372.4c3.1,1.8,5.8,3.9,5.7,7.9c-3.2-2.6-6.4-5.3-9.5-7.9C167.7,372.4,169,372.4,170.3,372.4z"/>
	<path class="st44" d="M379.9,90.2c-0.8,0.1-1.5,0.1-2.3,0.2c-3.7-0.2-5.8-2.6-7.6-5.5C374.1,85.1,377,87.6,379.9,90.2z"/>
	<path class="st45" d="M386.9,236c-2.4,2.3-4.9,0.2-7.3,0.1c-0.6-0.5-1-1.2-1.1-2c0.1-0.8,0.5-1.5,1.1-2
		C382.4,232.7,385.2,233.3,386.9,236z"/>
	<path class="st46" d="M379.5,232.2c0,0.8-0.1,1.6-0.1,2.4c-3.1,1.1-5.7,0.5-7.6-2.4c1.3-0.6,2.6-1.2,3.9-1.8
		C377,231,378.3,231.6,379.5,232.2z"/>
	<path class="st47" d="M356.4,372.3c-4.9,1.7-9.6,4.3-15,4c-3.5,1-7,1.7-10.3-0.5c-1.6-5.2,3.2-5.4,5.8-7.3c0.9-3.3,4.9-3.2,6.5-5.7
		c4.4-1.9,7.3-5.2,9.8-9.2c1.3-1.9,3-3.3,5.4-3.1c10.7,4.9,1.7,10.8,1,16.4C359.2,369.1,355,369.1,356.4,372.3z"/>
	<path class="st48" d="M149.2,220.8c-1.5-4-5.8-6.5-5.9-11.3c-0.9-1.2-0.9-2.5-0.5-3.9c5-1.2,6.3,3.3,8.4,5.9
		c5.7,7.2,11.8,13.9,19.3,19.3c2.3,1.9,5.2,3.2,6.1,6.5c-0.5,2.4-2.6,3.1-4.4,4.2c-1.9-1.2-3.9-2.3-5.8-3.5
		c-3.4-2.3-6.2-5.4-9.5-7.9c-0.6-0.6-1.2-1.2-1.8-1.8C153.1,225.9,151.1,223.4,149.2,220.8z"/>
	<path class="st49" d="M297,291.8c-2.6-1.3-5.1-2.5-7.7-3.8c-1-3.1,1-4,3.4-4.7c1.8,0,3.6,0.4,5.4,0.7c4.4,1,8.6,2.9,13.1,3.4
		c1.9,0.2,3.8,0.5,5.6,1c5.1,2.2,12.5-0.1,15,7.3c-4.5,4.1-9.7,0-14.5,1.4C310.3,296.3,303.7,294,297,291.8z"/>
	<path class="st15" d="M351.1,352c0.9-4,1.2-8.2,2.7-11.9c5-12.3,2.1-21.9-9.6-28.5c-2.8-1.6-5.2-3.5-7.1-6.1c0.3-0.3,0.6-0.7,0.9-1
		c4.2-1.2,7.1,1.5,10.3,3.4c5.8,3.9,9.4,9.4,11.9,15.8c1.1,4.9,0.9,9.9,0.4,14.8c-1.2,4.8-3,9.4-6.7,12.9
		C353,352,352.1,352.2,351.1,352z"/>
	<path class="st50" d="M246.8,275.3c-5.7-1.6-11.3-3.1-17-4.7c-3.1-2.7-8.7-0.9-10.5-5.9c0.4-2.3,2.1-3.2,4.1-3.6
		c3-0.5,5.8,0.2,8.6,1.1c1.4,0.3,2.7,0.8,4.1,1.3c3.9,1.8,8.3,2.1,11.7,5.1c0.5,0.9,0.8,1.8,0.9,2.8
		C248.6,273,248.2,274.4,246.8,275.3z"/>
	<path class="st51" d="M293,284.2c-1.2,1.3-2.4,2.5-3.7,3.8c-8.6-1.7-17.1-3.8-25.2-7.2c-0.2-5.1,3.8-4,6.7-4.5
		c4.5,0.8,8.9,2,13.3,3.1c2.9,0.5,6,0.3,8.6,2.2C293.6,282.4,293.7,283.2,293,284.2z"/>
	<path class="st52" d="M172.2,241.6c0.1-2.4,1.4-3.5,3.7-3.5c2.7-0.3,4.8,1.1,7.1,2.1c3,1.5,6.1,3,9.2,4.4c2.8,1.9,7.1,2.3,7.2,6.9
		c-1.6,1.8-3.7,2.4-6.1,2.6c-3.8-0.1-6.4-2.8-9.6-4c-2.6-3.1-6.7-3.8-9.5-6.6C173.6,242.9,172.9,242.3,172.2,241.6z"/>
	<path class="st53" d="M272.1,278.3c-2.8,0.3-6.1-0.8-8,2.4c-5.8-1.8-11.5-3.6-17.3-5.4c0.1-1.6,0.2-3.1,0.3-4.7
		c3.8-2.6,7.5-0.2,11.2,0.3c4.5,1.6,9.5,1.7,13.5,4.8C272.6,276.5,272.7,277.4,272.1,278.3z"/>
	<path class="st54" d="M297,291.8c6.9,1.6,13.9,3.1,20.8,4.7c7.6,0.5,15.7-0.1,19.6,8.7c0,0-0.3,0.4-0.3,0.4
		C324,300.1,309.6,298.7,297,291.8z"/>
	<path class="st55" d="M224.1,263c-1.8,0.1-3.3,0.7-4,2.5c-3.6,0.7-6.4-1.4-9.4-2.7c-0.7-2-2.4-1.6-3.9-1.7
		c-1.5-1.5-4.8-0.7-4.8-3.9c0.2-1.5,1.1-2.5,2.5-3c1.4-0.4,2.7-0.4,4.1-0.1c2.2,0.6,4.4,1.3,6.5,2
		C218.4,257.9,223.8,257.2,224.1,263z"/>
	<path class="st56" d="M176.1,362.5c-1.7,0.4-3-0.1-3.9-1.6c-2.5-2-5.3-3.6-7.7-5.7c-2.6-2.5-5.1-5.1-7.7-7.6
		C166,348.9,172.3,354,176.1,362.5z"/>
	<path class="st57" d="M202.7,257.9c1.4,1.1,2.7,2.2,4.1,3.2c-9.6-1-17.6-5.7-25-11.4c0.8-0.9,1.6-1,2.6-0.3c3,1.3,6.1,2.5,9.1,3.8
		C197.3,253.1,200.9,253.8,202.7,257.9z"/>
	<path class="st58" d="M201.2,377.7c-3.3-1.7-6.5-3.5-9.8-5.2c-3.1,0.8-4.2-0.9-4.3-3.7c8.9,1.6,16.5,6,23.6,11.3c0,0.6,0,1.2,0,1.8
		C205.7,384.7,203.5,381,201.2,377.7z"/>
	<path class="st59" d="M351.1,352c0.6-0.1,1.1-0.4,1.6-0.7c1.5,0.8,0.8,2.7,1.9,3.8c-3.3,3.2-4.3,9.7-11.1,7.7
		C345.9,359.2,348.5,355.6,351.1,352z"/>
	<path class="st57" d="M210.7,262.8c3.1,0.9,6.2,1.8,9.4,2.7c2.8,2.5,7.4,1.7,9.8,5.1C222.8,269.8,216,268.1,210.7,262.8z"/>
	<path class="st60" d="M187.1,368.8c1.4,1.2,2.9,2.5,4.3,3.7c-0.6,2.5-1.3,5.1-1.9,7.6c-1.9-3.9-3.8-7.7-5.7-11.6
		C184.9,368.6,186,368.7,187.1,368.8z"/>
	<path class="st61" d="M331.2,373.6c2.5,4.2,6.8,1.8,10.2,2.8c-5.3,0.9-11.1,6.5-15.2-1.9c0.5,0.1,1.1,0,1.5-0.3
		C328.7,373.3,329.9,373.2,331.2,373.6z"/>
	<path class="st62" d="M151.1,337.9c-0.6-0.6-1.3-1.3-1.9-1.9c0.3-2,0.9-3.9,3.5-3.4c0.7,0.2,1.7,1.1,1.8,1.8
		C155,337,153.1,337.6,151.1,337.9z"/>
	<path class="st63" d="M157,230.2c4.1,1.5,7.5,3.9,9.5,7.9C161.6,237.5,159.1,234.1,157,230.2z"/>
	<path class="st64" d="M331.2,373.6c-1.2,0.2-2.3,0.4-3.5,0.6c2-3.6,4.7-6.1,9.2-5.7C335,370.2,333.1,371.9,331.2,373.6z"/>
	<path class="st63" d="M184.4,249.3c-0.9,0.1-1.7,0.2-2.6,0.3c-2.8-1.7-6.5-2.3-7.6-6.1C178.1,244.7,181.4,246.8,184.4,249.3z"/>
	<path class="st63" d="M149.2,220.8c2.6,2,5.1,4.2,6,7.6c-2-1.3-4-2.5-6-3.8C149.2,223.4,149.2,222.1,149.2,220.8z"/>
	<path class="st65" d="M170.3,232.4c-12.4-5.5-18.3-17.6-26.8-26.9c-2.8-2.5-2.1-6.6-4.1-9.5c-3.3-15.5,3.4-28.7,10.1-41.8
		c1.5-3.1,3.4-5.8,5.8-8.1c2.5-2.5,5-5.1,7.4-7.6c7.9-6.5,15-14,25.1-17.2c0,0,0,0.1,0,0.1c11.4-5.1,22.9-9.9,34.8-13.4
		c4.9-0.6,9.9-1.2,15.7-1.9c-2.3,6.1-8.6,7.7-10.9,12.6c-7.4,4.2-11.9,11.2-16.8,17.8c-1.4,2.5-2.1,5.2-3.2,7.8
		c-0.4,1.2-0.6,2.5-0.7,3.7c-1.7,6.6-0.6,13,1.3,19.3c-3.9,20.6-19.5,35.3-27.5,53.8C178.5,225.6,173,227.9,170.3,232.4z"/>
	<path class="st66" d="M191.5,107.3c-5.9,3.5-11.8,6.9-16.8,11.8c-0.8,1.9-2.5,2-4.2,1.9c-3.2,1.3-4.4,4.6-6.8,6.7
		c-2.5,2-4.3,5.3-8.3,4.9c-2.4-2.9-2.1-6.3-2.4-9.7c2.9-4.7,6.5-8.7,11.2-11.7c4.8-2.1,7.4-6.9,11.8-9.4c0.7-0.6,1.5-1.3,2.2-1.9
		c1.3-1.2,2.9-1.6,4.6-1.7c3.3,1.1,6.3-1.2,9.6-1.1c0.9,0.3,1.6,0.9,2,1.7C195.8,102.5,195.2,105.5,191.5,107.3z"/>
	<path class="st24" d="M187.8,121.2c-8.4,5.7-16.8,11.5-25.1,17.2C169.2,130.1,175.8,121.7,187.8,121.2z"/>
	<path class="st24" d="M155.4,132.7c2.4-2,4.8-3.9,7.2-5.9c1.7-1.1,3.2-2.7,5.6-2.5c-1.3,8.4-7.9,10.4-14.7,12.1
		C154.1,135.1,154.8,133.9,155.4,132.7z"/>
	<path class="st67" d="M139.3,195.9c3.1,2.4,3.2,6.1,4.1,9.5c0,1.4-0.1,2.7-0.1,4.1C140.6,205.4,138.9,201,139.3,195.9z"/>
	<path class="st24" d="M155.2,146c-0.8,3.5-3.1,6-5.8,8.1C149.7,150.2,150.3,146.6,155.2,146z"/>
	<path class="st24" d="M141.6,148.1c0.8-2.8,2.9-4,5.6-4.2C146.5,146.9,146.7,151,141.6,148.1z"/>
	<path class="st68" d="M168.2,124.3c-2,0.6-3.1,3-5.6,2.5c1.7-3.1,3.8-5.7,7.8-5.7C169.7,122.1,168.9,123.2,168.2,124.3z"/>
	<path class="st43" d="M164.5,355.2c3.6,0.5,6.1,2.5,7.7,5.7c-3-0.3-5.7-1.3-7.6-3.8C164.6,356.4,164.5,355.8,164.5,355.2z"/>
	<path class="st69" d="M300.9,416.9c-10.5,2-20.9,2-31.3-0.1c-0.1-0.5,1.3-1.2,0.5-1.1c-10.3,0.8-17.2-5.8-24.4-11.3
		c-2.6-2-3.9-5.4-2.3-8.6c1.3-2.4,3.8-1.6,5.9-0.5c1.8,0,3.6-0.1,5.4-0.1c11.4,11.2,25.3,15.3,40.7,12.9c6.3-1,12.5-3.8,16-10
		c0.5-1.3,1.9-1.7,2.7-2.7c5.1-1.1,10.3-2.2,15.4-3.3c4.8,5.6,1.1,9.6-2.6,13.4C319.9,412.7,310.4,414.9,300.9,416.9z"/>
	<path class="st70" d="M412.1,335.8c-3.3,3.2-6.6,6.4-9.8,9.7c-5.4,4.2-11.1,8-17,11.4c-3.1,2-6.2,4-9.3,6c-1.3,0.9-2.7,0.9-4.2,0.4
		c-2.6-4.5,1.5-5.7,3.8-7.8c4.7-2.7,9.1-5.7,13.1-9.4c12.8-9.8,22.6-21.7,25.8-38c1.7-4.9,0-10.3,2-15.2c6.6-5.1,9.3,2.2,13.6,4.3
		c0.7,2.6-0.3,5.4,0.8,7.9c-2.2,8.8-6,16.7-12.2,23.4C415.8,330.3,414.2,333.3,412.1,335.8z"/>
	<path class="st71" d="M312.3,397.4c0.5,1.7,4.3,2.3,1.4,5.3c-6.2,6.5-32.5,11-41,6.7c-5-2.5-9.7-5.7-14.8-8
		c-3.2-1.4-3.1-3.6-3.1-6.2c0.6,0,1.2,0.1,1.9,0.1c10.4,3.2,20.9,6.1,31.6,8.2c2.5,1.1,5,2.4,7.3-0.4
		C300.1,398.2,305.5,395.6,312.3,397.4z"/>
	<path class="st72" d="M300.9,416.9c7.9-4.3,16.9-5.8,23.8-12.6c4-3.9,5.9-7.1,5-12.3c3.2-0.8,6.4-1.5,9.5-2.3
		c1.3,1.4,3.4,0.6,4.9,1.7c4,4.1,1,7.3-1.3,10.5c-0.5,4.4-3.6,6.2-7.4,7.3c-3.3,0.9-6.7,1.6-9.5,3.8
		C317.8,415.8,309.5,417.4,300.9,416.9z"/>
	<path class="st73" d="M244.7,412.9c-6.1,0.6-11.3-2.4-16.8-4.2c-3.7-5.9-4.3-13.5-12.6-17.2c-3.4-1.5,4.1-2.7,4.9-5.5
		c6.1,1,11.9,2.7,17.4,5.3c0.2,6.7,3.1,11.9,8.3,16.1c1.7,1.4,4.6,2.8,2.7,6C247.3,413.7,246,413.6,244.7,412.9z"/>
	<path class="st74" d="M312.3,397.4c-6.8,0.1-11.6,5-17.3,7.7c-1.9,1.6-3.8,1.4-5.7,0c-11.8-0.3-22.6-3.6-32.7-9.8
		c19.2,2,38.4,2.1,57.6,0C313.6,396,313,396.7,312.3,397.4z"/>
	<path class="st75" d="M395.2,380.3c-3.9,4.1-8.4,7.3-13.5,9.5c-8.1-1.2-9.5-6.7-4.4-16.1c4.5-2.6,8.9-5.1,13.4-7.7
		C398.8,368.7,396.6,374.6,395.2,380.3z"/>
	<path class="st76" d="M429.2,333.6c0.2,2.4,1.1,4.2,3.9,4.2c-3.3,11.9-14.1,17.9-21.2,26.9c-6.4-0.4-6.1-4.8-5.5-9.3
		C414,348.1,421.6,340.8,429.2,333.6z"/>
	<path class="st77" d="M249,412.6c-3.3-2.9-6.5-5.9-9.8-8.7c-4.5-3.8-4.2-8-1.5-12.6c4.2,0.3,8.8-0.3,11.7,4
		c-9.2,1.3-4.7,5.7-1.3,8.1c8.9,6.3,17.3,14.2,32.2,10.3c-5,3.8-8,2.4-10.7,3.1c-5,0-10.1,0.6-14.9-1.9
		C253.4,412.6,250.4,414.6,249,412.6z"/>
	<path class="st78" d="M429.4,297.6c-5.2,0.8-7.2-4.9-11.5-5.8c-0.7,0.6-1.5,0.7-2.4,0.2c-0.6-0.7-1-1.4-1.3-2.3
		c-0.8-4.8-3.7-8.7-6-12.8c-0.9-2.1-1.7-4.2-0.2-6.4c6.8-0.2,11,5.4,16.7,7.5c0.6-1.8-1.8-5.2,2.5-5.4c1.9,2.1,2.9,4.5,2.3,7.3
		C430.1,285.9,433.1,291.8,429.4,297.6z"/>
	<path class="st79" d="M201.2,377.7c4.1-0.8,5.2,5.2,9.4,4.1c0.1,0.5,0.1,1.1,0.2,1.6c2.4,5,3.1,10.8,6.9,15.3
		c1.2,1.5,2.9,5-2.1,4.7c-6.5-0.7-11.4-4.7-16.6-8.1C203.9,390,199.1,383.4,201.2,377.7z"/>
	<path class="st80" d="M215.7,403.4c2.6-6.3-5.2-8.4-5.6-13.9c-0.2-2.4,0.2-4.1,0.8-6.1c3.1,0.8,6.3,1.7,9.4,2.5
		c2.5,4.5-2.6,3.4-5.3,4.8c8.7,1.6,13.8,4.5,11.8,13.4c-0.3,1.3,0.7,3,1.2,4.5C223.8,406.9,219.8,405.2,215.7,403.4z"/>
	<path class="st81" d="M427.2,272.7c-3.1,2.4,1.7,5.3-1,8.3c-6.2-2.7-12.3-5.9-17.9-10.3c-3.6,1.3-5.7-1.7-8.4-3
		c-2.2-1.8-4.1-3.8-4.2-6.9c0.2-0.9,0.6-1.7,1.3-2.3c7.1-1.1,11.3,5,17.3,6.8c3.2,1,5.5,4.7,9.6,2.9c1.2,0.8,2.4,1.6,3.6,2.4
		C427.3,271.4,427.2,272.1,427.2,272.7z"/>
	<path class="st82" d="M341.1,401.2c1.7-3,5.1-5.6,1.9-9.6c3.2-2,7.5-2.3,9.4-6.3c1.3-0.5,2.7-1,4-1.4c4.8,4.3-1,8.8,0.3,13.2
		c0.9,2.1,0.2,4-0.2,6c-4.2,2.2-8.5,3.9-13.2,4.7C341.8,405.8,340.3,403.9,341.1,401.2z"/>
	<path class="st83" d="M395.2,380.3c-1.7-0.8-4.3-3-3.4-3.7c6.9-4.6-0.4-7.2-1.1-10.6c1.4-1,2.8-1.9,4.2-2.9
		c5,0.6,11.3-1.8,13.6,5.5C405,373.5,400.3,377.1,395.2,380.3z"/>
	<path class="st84" d="M377.4,373.7c-0.1,5.8-3.5,12.5,4.4,16.1c-5.7,3.2-11.5,6.4-17.2,9.6c-0.8,0.5-1.6,0.6-2.5,0.2
		c-1-1.9-0.1-3.4,0.8-4.9c0.7-1.1,1.5-2.2,2.4-3.1c7.1-2.7,3.6-8.9,4.5-13.7C372.3,376.5,374.8,375.1,377.4,373.7z"/>
	<path class="st85" d="M366.1,393.5c-0.6,0.6-1.3,1.3-1.9,1.9c-1.9,1.5-4.1,2.2-6.5,2.1c-0.4,0-0.8-0.1-1.2-0.1
		c-1.8-0.8-6.9-0.9-3.2-3.6c4.4-3.2,1.7-6.8,3.2-9.9c2.1-2.2,4.9-2.9,7.8-3.4c4.3,0.3,8.6,0.6,3.6,6.3
		C366.2,388.7,364.3,390.6,366.1,393.5z"/>
	<path class="st86" d="M408.5,368.7c-3.3-4.8-10-1.4-13.6-5.5c3.5-3,6.8-6.5,11.5-7.8c2.2,2.9,1.3,7.6,5.5,9.3
		C412,367,410.2,367.8,408.5,368.7z"/>
	<path class="st87" d="M366.1,393.5c-4.5-2.2-4.4-5.3-0.7-7.7c5.5-3.5,0.1-3.8-1.2-5.4c1.6-1.5,3.2-2.8,5.6-2.5
		C374.2,384.5,375.5,390.3,366.1,393.5z"/>
	<path class="st88" d="M429.4,297.6c0-5.8,0.1-11.7,0.1-17.5c5.1,8.1,3,16.6,1.4,25.1C428.6,303,429.6,300.1,429.4,297.6z"/>
	<path class="st89" d="M371.8,362.8c1.4,0,2.8,0.1,4.1,0.1c-0.9,2.7-4.1,2.2-5.7,3.9c-3.3,1.3-6.9,1.9-9.9,3.8
		c-1.3,0.6-2.6,1.2-3.9,1.8c-2.1-2.9,0.9-3.9,2-5.7C361.8,361.8,366.3,360.4,371.8,362.8z"/>
	<path class="st89" d="M385.3,357c5.3-4.3,9.8-9.9,17-11.4C397.9,351.3,392.8,356,385.3,357z"/>
	<path class="st90" d="M352.4,385.3c-0.1,6.6-3.8,7.9-9.4,6.3c-1.6,0-3-0.4-3.8-1.9C343.6,388.3,348,386.8,352.4,385.3z"/>
	<path class="st91" d="M360.3,370.6c2.6-3.2,6-4.2,9.9-3.8C367.2,368.8,364.2,370.9,360.3,370.6z"/>
	<path class="st89" d="M412.1,335.8c0.4-4,2.7-6.4,6.6-7.3C417.2,331.5,415.8,334.7,412.1,335.8z"/>
	<path class="st90" d="M341.1,401.2c0.7,2.2,1.4,4.4,2.2,6.6c-5.5,2.8-11.2,4.7-17.4,5.3c0.3-0.5,0.6-1.1,1-1.5
		C331.4,407.8,339.7,409.3,341.1,401.2z"/>
	<path class="st85" d="M362.3,399.2c0.7,0.1,1.5,0.2,2.2,0.2c-2.3,2.1-5,3.3-8,3.7c-3-1.9-0.5-3.8,0-5.8c0,0,0,0,0,0
		C358.9,396.4,360.6,397.7,362.3,399.2z"/>
	<path class="st92" d="M249,412.6c2.1,0.2,4.5-0.3,5.7,2.3c-3.4-0.1-6.9,0.1-10-2C246.1,412.8,247.6,412.7,249,412.6z"/>
	<path class="st93" d="M350.6,77.1c0.8,1.6-3.5,6.8,3.1,4.2c1.9-0.7,4.3-0.4,6.5-0.5c-2.3,5.8-8,4.8-12.5,6.5
		c-3.5,1.2-7.7-0.4-10.5,3c-5.1-1.3-10.2-2.6-15.3-3.9c-3.7-2.1-8.8,0.2-11.9-3.7c-0.2-3,2.1-4.1,4.2-5.2c7.1-1.3,14.6-0.6,21.1-4.4
		C340.4,74.4,345.5,75.8,350.6,77.1z"/>
	<path class="st94" d="M310.4,82.6c3.8,1.4,8.2,1.1,11.5,3.8c-7.7,1.2-15.1-1.4-22.7-1.9c-20.1-1.2-40,1-59.7,4.3
		c-0.7-0.9-0.8-1.8-0.3-2.7c4.4-3.2,9.8-4.4,14.7-6.6c11.4,0.2,22.8,2.2,34.1-0.8c0.9-0.5,1.8-1,2.7-1.5
		C298.1,76.1,305.7,74.2,310.4,82.6z"/>
	<path class="st95" d="M183.8,99.9c-1.8,0-3.6,0-5.4,0c3.2-4.8,8.3-7,13.1-9.6c2.6,0,5.1,0,7.7,0c4.7-4.7,10.9-5.3,17-6.3
		c3.3,2.3,6.2,5.3,10.4,6.2c0.4,0.8,0.3,1.6-0.3,2.3c-3,1.8-6,3.6-9.8,3.3c-4.5-2.6-8.7-2.3-12.7,1.1c-3.8,1.2-7.7,1.4-11.6,0.1
		C189,97,186.6,99.2,183.8,99.9z"/>
	<path class="st96" d="M202.9,96.1c4.3-8.4,8.8-5.8,13.4-0.3c-5.9,3.1-12.6,4.6-17.6,9.4c-2.4,0.7-4.8,1.4-7.3,2.1
		c1.9-2.8,2-6.1,1.9-9.3C196.5,97.2,199.9,97.4,202.9,96.1z"/>
	<path class="st97" d="M226.1,92.5c0-0.7-0.1-1.5-0.1-2.2c0.8-1.2,2-1.9,3.2-2.5c3.4-0.9,6.4-4.1,10.3-1.3c0,0.8,0,1.5,0.1,2.3
		C235.3,90.9,230.9,92.4,226.1,92.5z"/>
	<path class="st21" d="M379.4,108c-2.5-1.4-5-2.9-7.5-4.3c0.6-0.6,1.3-1.3,1.9-1.9C375.2,104.3,379,104.6,379.4,108z"/>
	<path class="st98" d="M176.1,101.9c-3.2,4.1-5.8,8.9-11.8,9.4C167.7,107.5,170.7,103.2,176.1,101.9z"/>
	<path class="st99" d="M237.5,73c3.3-2.8,7.7-2.5,11.5-3.8c4.5-3.1,9,1.1,13.4,0c8.2-3.3,16.9-3,25.5-2.7c0.5,0.3,0.9,0.5,1.4,0.8
		c-5.8,4.1-13.4,1.7-19.2,5.7c-4.6,4.2-10.2,2.2-15.4,2.7C248.9,75,242.6,77.4,237.5,73z"/>
	<path class="st100" d="M254.8,73c5.1,0,10.2,0,15.3,0c0.6,1.3,1.3,2.6,1.9,3.8c0.5,0.5,0.7,1.1,0.6,1.7c-0.1,0.6-0.2,0.9-0.3,0.9
		c-5.5,4.7-10.5,0.8-15.7-0.7c-1.3-0.7-2.3-1.6-2.7-3.1C253.8,74.6,254.1,73.8,254.8,73z"/>
	<path class="st101" d="M335.3,73c-6.6,0.9-1.1,4.5-1.4,7.1c-6.6-2.1-13.2-1.2-19.7-1.3c-2.3,0.4-2.5-0.7-1.8-2.4
		c3.3-2.5,7.2-1.7,10.8-2.1c3.4,0.2,2.8-3.4,4.5-4.8c0.6,0,1.2,0.1,1.8,0.2C331.5,70.8,333.4,71.9,335.3,73z"/>
	<path class="st102" d="M289.3,76.8c0.1-0.3,0.1-0.8,0.2-0.9c7.8-4.1,16.3-4.3,24.8-4.8c0.4,0.8,0.4,1.6-0.2,2.4
		c-2.2,1.4-3.9,3.3-6.5,4.2c-5.7-1.2-11.4-1-17.2-0.3C290.1,77.2,289.7,77,289.3,76.8z"/>
	<path class="st26" d="M314.2,73c0-0.6,0-1.3,0-1.9c4.6,0,9.2,0.4,13.6-1.6c-1,2.4,4.5,6.6-2.1,7.4c-0.6-0.6-1.2-1.1-1.9-1.5
		c-2.8-0.9-6,0.2-8.7-1.3C314.8,73.7,314.5,73.4,314.2,73z"/>
	<path class="st97" d="M272,78.8c0-0.6,0-1.3,0-1.9c5.7,0,11.5,0,17.2-0.1c0,0,0.1,0.1,0.1,0.1c0.6,0.4,0.8,0.9,0.6,1.3
		c-0.2,0.4-0.4,0.6-0.7,0.6l0,0C283.5,81.6,277.8,81.8,272,78.8z"/>
	<path class="st99" d="M289.3,65.4c4.5,0,8.9,0,13.4,0.1c-4.2,2.3-8.5,4.4-13.4,1.9c0,0,0,0,0,0c-0.6-0.4-0.8-0.9-0.6-1.3
		C288.9,65.6,289.1,65.4,289.3,65.4z"/>
	<path class="st44" d="M364,100.4c-4.6-2-9.3-4-13.9-6c2.1-0.1,4.3-0.1,6.4-0.2c2.2-0.2,4.2,0.1,5.8,1.9c0.6,0.6,1.3,1.3,1.9,1.9
		C364.1,98.8,364,99.6,364,100.4z"/>
	<path class="st103" d="M362.2,96.1c-2.1-0.1-4.4,0.3-5.8-1.9c0.9-1.6,1.8-3.7,4.1-3C362.9,91.9,362,94.3,362.2,96.1z"/>
	<path class="st104" d="M206.7,167.1c-3.6-6.7-4.2-13.7-1.6-21c4.1,0.2,2.2,3.4,2.6,5.3c0.5,3.2-0.8,6.7,0.9,9.8
		c0.9,1.9,1.8,3.8,2.8,5.7c-0.1,1.2-0.1,2.4-0.2,3.6C207.2,172.5,208,168.5,206.7,167.1z"/>
	<path class="st105" d="M208.6,161.3c-4.4-4.3,0.4-10.7-3.5-15.2c0.5-0.7,0.9-1.5,1.4-2.2c0.7-1.1,1.4-1,2.1,0
		C208.6,149.8,208.6,155.5,208.6,161.3z"/>
	<path class="st106" d="M208.6,144c-0.7,0-1.4,0-2.1,0c0.7-2.9,1.4-5.8,4.1-7.6C211.5,139.3,210.1,141.7,208.6,144z"/>
	<path class="st107" d="M255,191.8c1.2,0,2.3-0.1,3.5-0.1c1,1.1,1.8,2.3,2,3.7c-0.5,8.6-5.6,15.3-9.4,22.5
		c-5.4,10.3-10.9,20.6-16.7,30.7c-2.2,3.8-4.9,7.6-10.1,7.6c-8.8-3.5-3.1-8.1-0.6-11.9c9.1-13.9,17.1-28.4,25.2-42.8
		c1.3-2.2,1.5-4.9,2.6-7.2C252.4,192.9,253.5,192.1,255,191.8z"/>
	<path class="st108" d="M285.5,199.7c6.2,0.5,11.8,2.9,17.5,5.3c0.7,0.9,0.7,1.8,0.2,2.7c-1.6,1.4-3.5,1.5-5.5,1.3
		c-4-1-8.1-1.7-11.9-3.4c-1.3-0.6-2.3-1.5-2.7-2.9C283,201,284.3,200.3,285.5,199.7z"/>
	<path class="st109" d="M258.6,195.8c0-1.3-0.1-2.7-0.1-4c5,0,9.6,1.6,13.9,4c-0.9,1.7-2.4,2.5-4.1,3.2c-0.9,0.2-1.8,0.3-2.6,0.3
		C263,198.8,260.5,198,258.6,195.8z"/>
	<path class="st110" d="M268.2,197.7c0.9-1.6,2.6-1.7,4.2-2c3.8,2.9,9.3,0.5,13,4c-0.7,0.7-1.3,1.3-2,2c-1,1.1-2.3,1.3-3.6,1.2
		c-2.6-0.5-5.2-1-7.7-1.9C270.5,200.3,269,199.4,268.2,197.7z"/>
	<path class="st111" d="M255,191.8c-0.7,0.7-1.4,1.4-2.1,2.1c-1.5,0.1-2.9,0-4.3-0.4c-1.8-0.5-3.4-1.3-4.8-2.6
		c-0.2-0.3-0.3-0.7-0.5-1c1.4-0.7,2.9-1.3,4.3-2C250.5,188.4,253.1,189.4,255,191.8z"/>
	<path class="st112" d="M302.7,207.4c0.1-0.8,0.1-1.6,0.2-2.4c1.8,0.2,3.6,0.4,5.4,0.7c0.7,0.6,1.4,1.2,2,1.8c0.5,1.8-0.6,2.5-2,3.1
		C305.7,210.9,303.7,210.1,302.7,207.4z"/>
	<path class="st113" d="M289.3,65.4c0,0.6,0,1.3,0,1.9c-9.1-1.2-17.9,1.9-26.9,1.9C270.6,62,280.4,66.7,289.3,65.4z"/>
	<path class="st114" d="M346.8,222.8c1.5,2.3,3.8,1.6,5.9,1.8c3.8,1.9,7.6,3.8,11.4,5.7c3.4,3.2,9.3,2.7,11.5,7.8
		c4.9,4.4,11.3,5.5,17.1,7.8c2.1,0.7,3,2.2,3,4.3c-0.2,1-0.7,1.7-1.5,2.3c-7.9,1.9-12.8-4.7-19.2-7c-4.7-4.2-11.4-4.8-15.9-9.4
		c-1.9-2.6-4.7-3.4-7.8-3.7c-3.3-0.8-6.4-1.9-7.7-5.5c-0.2-1.5,0.1-2.9,1.2-4C345.6,222.8,346.2,222.8,346.8,222.8z"/>
	<path class="st115" d="M375.7,238.1c-3.9-2.5-9.2-2.9-11.5-7.8c0.6,0.1,1.2,0.1,1.9,0.1c1.9,0.6,3.9,1.2,5.8,1.8
		c2.5,0.8,5,1.6,7.6,2.4c0,0.5,0.1,1.1,0.1,1.6C378,236.2,376.5,236.5,375.7,238.1z"/>
	<path class="st116" d="M394.9,249.5c-0.7-1.2-1.4-2.4-2.1-3.7c0.7-0.7,1.4-1.3,2.1-2c1.9-0.7,3.7-0.4,5.6-0.1
		c0.4,0.4,0.6,0.8,0.6,1.4c-1.4,1.5-2.8,2.9-4.2,4.4C396.2,250.2,395.5,250.2,394.9,249.5z"/>
	<path class="st117" d="M400.5,243.8c-1.8,1.4-3.7,1.1-5.6,0.1c-1.5-0.9-1.8-2.4-1.9-4C396.4,239.5,398.7,241,400.5,243.8z"/>
	<path class="st118" d="M222.1,76.9c1.3-0.6,2.6-1.2,4-1.9c3.5,1.8,7.1,2.4,10.7,0.4c2.4-0.5,4.7-0.6,6.9,0.7
		c1.6,1.5,2.7,3.1,1.3,5.4c-6.9,5.1-14.1,3.5-21.3,0.7C221.7,80.9,220.4,79.4,222.1,76.9z"/>
	<path class="st119" d="M216.4,84.6c-4.8,4.7-12.3,1.5-17.3,5.7c4.3-7.5,14.2-6.8,19.3-13.1c0.6-0.1,1.2-0.1,1.7-0.1
		c1.2,2,0.8,4.7,2.7,6.4c-0.1,0.9-0.6,1.6-1.4,2.1C219.5,86.3,217.8,86,216.4,84.6z"/>
	<path class="st120" d="M243.2,76.9c-2.6,0-5.1,0-7.7,0c-2,0.8-2.3-0.2-1.9-1.9c1.3-0.7,2.5-1.3,3.8-2c5.8,0,11.5,0,17.3,0
		c0,0.6,0,1.3,0,1.9C251.7,80.3,247.6,79.4,243.2,76.9z"/>
	<path class="st121" d="M233.6,75c0.6,0.6,1.3,1.2,1.9,1.9c-4,4-6.6,0.3-9.5-1.8C228.6,75.1,231.1,75,233.6,75z"/>
	<path class="st122" d="M222.1,82.7c-5-0.3-1.3-3.7-2-5.6c0.7,0,1.3-0.1,2-0.1c0.1,1.6,0.4,3,2,3.8
		C224.5,82.4,223.9,83.1,222.1,82.7z"/>
	<path class="st123" d="M308.5,209.3c0.6-0.6,1.3-1.3,1.9-1.9c3.2-0.1,6,0.6,7.8,3.6c0.6,0.8,0.6,1.7-0.1,2.5
		c-3.4,0.9-6.6,0.1-9.6-1.6c-0.5-0.5-0.6-1.1-0.5-1.7C308.2,209.6,308.3,209.3,308.5,209.3z"/>
	<path class="st124" d="M318.1,213c0-0.7,0-1.3,0-2c3.3,0,6.7-0.5,9.5,2.1c0,0.6,0,1.3,0,1.9C323.8,217.8,320.7,216.5,318.1,213z"/>
	<path class="st125" d="M318.1,213c3.2,0.7,6.4,1.4,9.5,2.1c1.3,1.2,2.6,2.5,4,3.7c0.1,2.2,2.2,1.1,3.1,2c3.4,2,7.4,2.9,10.2,5.8
		c2,2.5,4.6,3.5,7.7,3.8c2.5,1.5,5.5,1.8,7.7,3.8c3.8,5.3,11.9,3.7,15.4,9.6c-1.3,1.7-3.2,2-5.2,2.1c-1.4,0-2.8-0.2-4.1-0.6
		c-3.6-1.7-7.3-2.9-11.1-4c-0.8-0.4-1.5-0.9-2.1-1.4c-2-2.1-4.7-3.3-7.2-4.6c-3.4-2.4-6.9-4.6-11-5.7c-4-2.8-9.3-2.8-13.2-5.8
		c-2.8-3.1-6.6-4.4-10.3-5.8c-2.4-1.7-5.1-3.2-2.8-6.8C311.9,211,315.1,211.5,318.1,213z"/>
	<path class="st126" d="M344.9,226.6c-5,0.5-8.2-2.8-11.5-5.8c1.3-1.1,2.6-1.1,3.8,0c2.8-0.3,5.3,0.6,7.7,2
		C345,224.1,344.9,225.3,344.9,226.6z"/>
	<path class="st127" d="M337.3,220.8c-1.3,0-2.6,0-3.8,0c-1.1,0.1-2.3,1.8-3.3,0.1c-0.2-0.3,0.9-1.4,1.5-2.1
		C333.7,218.9,336,218.5,337.3,220.8z"/>
	<path class="st128" d="M369.9,243.8c1.9,0,3.8,0,5.8,0c6.9,1.4,11.6,8,19.2,7.7c8.4,0.4,13.3,9.4,22,9.1c5,0.1,6.4,3.5,7,7.7
		c-0.4,4.6-3,2.8-5.3,1.7c-7.3-3.6-14.6-7.2-21.8-10.9c-1,1-2.2,1.2-3.6,0.9c-3.2-1.4-5.4-4.1-8.5-5.5c-3.7-2.1-7.6-3.8-11.4-5.8
		C371.5,247.6,369,246.8,369.9,243.8z"/>
	<path class="st129" d="M416.9,260.7c-9.5,2.1-14.6-6.4-22-9.1c0-0.7,0-1.3,0-2c0.6,0,1.3,0,1.9,0c2.5,1.3,5.1,2.6,7.6,3.9
		c3.5,2,6.2,6.6,11.3,3.8C416.1,258.4,416.5,259.5,416.9,260.7z"/>
	<path class="st130" d="M206.7,167.1c1.5,1.2,2.9,2.3,4.4,3.5c0.5-0.2,1-0.2,1.5,0.2c1.6,1.8,3.3,3.6,3.5,6.2
		c-2.3,13.3-11.4,23.4-17,35.1c-4.9,10.3-11.3,19.9-17.2,29.7c-1.9-1.2-3.9-2.5-5.8-3.7c-1.9-1.9-3.8-3.8-5.7-5.8
		c1.3-3.7-0.4-9.2,6.3-9.6c1.1-0.1,2.5-2.8,3.1-4.5c2.4-7.7,7.1-13.9,11.4-20.6c4-6.2,12.2-10.6,9.3-20.6
		C199.6,174.6,204.4,170.5,206.7,167.1z"/>
	<path class="st131" d="M181.8,241.8c0.4-7.4,4.8-13,8.3-19c8.8-15.1,17.9-30.1,24.4-46.4c2.6-1.8,4.9,0.1,7.4,0.4
		c0.7,0.7,1.5,1.4,2.2,2.1c-0.4,3,2.7,3.5,3.9,5.3c1.4,3.9-3.1,5.8-3.3,9.2c-9.2,14.2-20.1,27.3-26.5,43.2c-1.3,3.3-3.1,6.3-5.7,8.7
		c-0.4,0.2-0.8,0.4-1.2,0.6C188.2,244.5,185,243.1,181.8,241.8z"/>
	<path class="st132" d="M221.9,176.8c-2.6,2-4.9,0-7.4-0.4c-0.7-1.9-1.3-3.7-2-5.6C217.3,170.3,219.5,173.8,221.9,176.8z"/>
	<path class="st133" d="M224,192c-3.7-5.2,4.6-4.3,4-7.9c1.2,0.1,2.4,0.2,3.7,0.3c3.1,3.5,7.8,3.6,11.6,5.4c0,0-0.1,0.3-0.1,0.3
		c-0.6,5.4-4.5,5.4-8.5,5.1C231.7,192.6,227.6,193.3,224,192z"/>
	<path class="st134" d="M371.8,362.8c-4.5,1.3-8.9,2.6-13.4,3.9c-2.1-2.8,0.3-4.7,1.7-6.3c3.7-4,1.1-6.5-1.7-9.1
		c2-10.4,5.2-20.6,7.4-30.9c5.2,0.5,4,4.8,4.7,8c0.1,1.9-0.2,3.8,0.2,7.5c7.7-10.7,16-19.3,21.5-29.9c1.6-3,2.7-6.4,5.8-8.4
		c2.2-1.2,4.5-1.9,6.8-0.2c1.2,7-5.8,12.2-4,19.3c-0.5,3.1-1.9,5.5-4.7,7c-2.7,1-4.6,2.7-6.2,5.3c-4.2,6.9-6.8,14.8-13.3,20.2
		c-3.3,2.8-1.9,5.4,0.8,7.8C376.2,359.6,371.5,358.6,371.8,362.8z"/>
	<path class="st135" d="M366.1,320.6c1.6,11.3-1.9,21.3-7.7,30.7c-1.3,1.3-2.6,2.5-3.9,3.8c-1.5-0.8-1.8-2.3-1.9-3.8
		c1.9-3.8,3.8-7.7,5.7-11.5c1.4-5.8,1.9-11.5-0.3-17.2c-3.4-4.7-6.4-9.8-11.3-13.2c-1.1-3,0.9-4.2,3.1-5.2c3.4-0.4,6.1,1.3,8.7,3.2
		c1,0.8,2,1.7,2.8,2.6c2.3,2.5,4.5,5,5.5,8.3C367,319.3,366.7,320,366.1,320.6z"/>
	<path class="st136" d="M335.4,228.5c5.3-1,8.5,2.3,11.5,5.8c-13.5,6-16.9,19.8-23.7,30.9c-1.5,2.4-3,4.9-4.2,7.4
		c-4.3,9.6-10.8,15.1-21.9,13.4c-1.6,0.1-3.1-0.2-4-1.7c0.1-0.6,0.1-1.3,0-1.9c5.3-2.1,7.8-6,9.8-11.4c5.3-14.2,13.7-27.1,19.9-41
		C326.5,224.8,330.7,224.8,335.4,228.5z"/>
	<path class="st137" d="M369.9,243.8c1.3,1.3,2.6,2.5,3.9,3.8c-7.7,15.9-18.6,29.7-28.8,44c-2.4,3.4-5.6,6-9.8,7.1
		c-2-0.1-4.1-0.1-3.7-3c-4.1-4.7-10.9-2.1-15.3-5.8c5.1-5,16.7,2.8,18.4-10.8c1-7.8,10.7-12.3,14.5-19.8c2-4,4-8,6.6-11.7
		c2.5-3.6,5.7-6,10.5-3.8C367.4,243.8,368.6,243.8,369.9,243.8z"/>
	<path class="st138" d="M297,285.9c18.6-1.7,21-18.7,28.7-30.6c5.5-8.6,7.2-20.9,21.1-21c3,0.3,5.7,1.3,7.7,3.8
		c-12.1,9-22.3,19.3-27,34.2c-2,6.2-7.1,10.5-10.5,15.8c-1.9,1.6-4.6,0.1-6.5,1.7C306,288.5,301.5,287.2,297,285.9z"/>
	<path class="st139" d="M310.4,289.7c1.4-2.1,3.7-1.7,5.7-1.8c12.2-8.7,19-21.7,26.4-34c3.2-5.4,5.2-11.7,12-14
		c4.3-0.1,8.5,0.2,11.5,3.9c-5,0.8-8,3.2-10.4,8.2c-3.8,8.2-8.4,16.2-15.4,22.4c-1.2,1-3.1,2.2-3.2,3.4c-1.1,14.5-11.1,13.1-21,12
		C314.2,289.8,312.3,289.8,310.4,289.7z"/>
	<path class="st140" d="M331.5,295.7c0.9,1.5,2.3,1.8,3.9,1.7c3.3-1.5,6.5-0.4,9.6,0.7c2.8,1.7,6.5,2.6,5.8,7.1
		c-2,0.8-3.3,2.2-4.1,4.2c-3.1-1.4-6.2-2.8-9.4-4.2c-5.6-4.9-13.2-5.4-19.6-8.7C322,290.7,327,297.8,331.5,295.7z"/>
	<path class="st59" d="M358,322.6c3.8,5.7,3.3,11.4,0.3,17.2C358.3,334.1,358.2,328.3,358,322.6z"/>
	<path class="st141" d="M279.7,201.6c1.3,0,2.5,0.1,3.8,0.1c0.7,0.6,1.3,1.3,2,1.9c7.3,2.9,9,6.6,4.1,14
		c-10.9,16.4-18.9,34.3-26,52.7c-1.1,1.9-3,2.3-5,2.4c-4.1,0.7-7.7-1.3-11.5-2c0-0.6,0-1.2-0.1-1.8c3.4-16,15.8-27.4,22.3-41.8
		c2.4-5.2,5.6-10,5.2-16.1c0.2-0.9,0.6-1.6,1.2-2.3C279,207.4,279,204.3,279.7,201.6z"/>
	<path class="st142" d="M258.6,195.8c2.8-0.2,5.3,0.7,7.6,2c3.1,3.8,0.6,7.1-1.1,10.5c-7.3,15.3-17.3,29.3-23.5,45.3
		c-1.8,4.6-6.2,7.9-10,11.2c-2.6-0.6-5.1-1.2-7.7-1.9c-2.2-3.6-7.1-2.7-9.6-5.7c2.7-2.9,6.2-2.4,9.6-1.9c2.2-1.2,4.6-2,6-4.4
		C240.3,232.9,251.6,215.4,258.6,195.8z"/>
	<path class="st143" d="M231.7,264.9c10.3-18.9,20.4-37.8,30.8-56.6c1.9-3.4,4-6.4,3.7-10.5c0.6,0,1.3-0.1,1.9-0.1
		c1.3,0.6,2.6,1.3,3.9,1.9c3.2,2.5,5.6,5.3,3.8,9.7h0c-6.7,20.4-23.9,34.1-33.9,52.4c-1.3,2.4-2.6,5.5-6.4,3.3
		C234.3,264.9,233,264.9,231.7,264.9z"/>
	<path class="st144" d="M235.6,265c5.8-1,5.1-6.8,7.2-10.3c5.1-8.4,12.3-15,18.2-22.7c3.9-5.2,7.4-10.3,8.9-16.6
		c0.8-3.4,2.2-6,6.1-6.1c1.6,4.6,1.7,8.5-1.4,13.2c-6.7,10.1-10.8,21.8-18.9,31.1c-3.9,4.5-3.1,11.6-8.6,15.3
		C242.8,268.6,238.9,267.7,235.6,265z"/>
	<path class="st145" d="M335.4,228.5c-4.2-1.7-8.1-1.5-11.5,1.9c-4.5,6.2-7.8,12.9-10.6,20c-0.9,2.3-1.7,4.8-3.6,6.6
		c-5.2,5.3-11.1,9.3-11.2,18.8c-0.1,8-9.8,3.9-14.9,6.2c-3.8-1.2-7.7-2.5-11.5-3.7c0-0.6-0.1-1.2-0.1-1.9c1.2-1.6,3-2.2,4.9-2.6
		c3-0.9,5.8-1.5,7.2-5.2c6.1-15.5,15.4-29.3,23.5-43.7c5-8.7,5.9-8.8,14.3-2.1C326.3,225,332.5,222.8,335.4,228.5z"/>
	<path class="st146" d="M283.6,282c1.6-2.1,4-1.3,6.1-1.8c5.7-1.3,10.2-3.8,6.9-10.8c-2-4.3-0.5-7.2,3.4-8
		c7.2-1.4,9.3-6.6,11.6-12.4c2.7-7,4.8-14.6,12.1-18.6c-1.9,8.8-6.5,16.4-10.5,24.2c-3.3,6.5-7.5,12.4-9.1,19.8
		c-1.2,5.4-4.4,9.7-11.2,7.9C289.9,282.2,286.8,282.1,283.6,282z"/>
	<path class="st133" d="M199.2,251.5c-2.6-1.9-5.2-3.8-7.8-5.7c0,0,0,0,0,0c4.1-3.5,7.2-7.6,9.1-12.8c4.4-11.6,13.9-20.2,18.6-31.7
		c1.6-4,5.4-7.8,10.9-7.9c4.6,2.6,6.2,6.4,3.5,11.1c-9.6,16.6-18.7,33.5-29.9,49.2C201.3,254.7,200.1,253.5,199.2,251.5z"/>
	<path class="st147" d="M199.2,251.5c1.3,0.6,2.5,1.2,3.8,1.8c1.8-0.4,2.3,0.3,1.9,2c-0.7,0.8-1.5,1.7-2.2,2.5
		c-3.5-0.7-6.6-2.3-9.2-4.7C194.9,251.1,197.1,251.6,199.2,251.5z"/>
	<path class="st148" d="M277.8,276.5c-1.9,0-3.8,0-5.8,0c-4.7-0.4-9.3-1.2-13.4-3.9c0.8-1.5,2.3-1.9,3.8-1.9
		c9.6-6.6,12.8-17.6,18.4-26.9c3.2-5.3,5.5-11.4,8.9-16.7c3.9-6.1,7.2-12.3,7.2-19.8c1.9,0,3.8,0,5.7,0c1.9,0.7,3.8,1.3,5.7,2
		c0,0.6,0.1,1.2,0.1,1.8c-0.4,3,2.6,3.9,3.8,5.9c-10,2.8-10.7,13.3-16.2,19.9c-4.4,5.3-7.6,11.7-11.2,17.7c-2.4,4-5.4,8.1-1.9,13.2
		c1.9,2.8-0.1,3.9-2.5,4.6C278.8,272.9,277.2,275.3,277.8,276.5z"/>
	<path class="st149" d="M204.9,255.3c-0.6-0.7-1.3-1.3-1.9-2c1.9-8.7,7.6-15.5,12.6-22.2c6.3-8.6,8.4-19.3,15.8-27
		c3.7-3.8,0.4-7-1.6-10.1c1.3-1,2.6-1.2,3.8,0c3.7,0.1,7.1-0.8,9.6-3.8c1.9,0.7,3.8,1.4,5.7,2c-0.2,6.8-5.8,10.9-8.6,16.4
		c-5,9.8-11.5,18.7-15,29.5c-2.5,7.6-9.4,13.2-16.6,17.3C207.4,255.4,206.2,255.3,204.9,255.3z"/>
	<path class="st150" d="M208.7,255.4c3.7-4.6,6.4-10.1,11.9-13.2c1.3-0.7,2.6-2.3,2.9-3.6c3.9-18,15.4-31.8,25.5-46.4
		c1.6-0.2,3,0.2,3.9,1.7c-0.5,12.2-8.7,20.8-14.4,30.5c-5.2,8.6-8.6,18.3-15.9,25.7c-2.8,2.8,0.8,3.6,1.5,5.3
		c-2.9,1.8-6.2,2.1-9.6,1.9C212.4,257.1,210.1,257.7,208.7,255.4z"/>
	<path class="st151" d="M202.9,96.1c-2.8,2.6-6,3.5-9.6,1.9c-0.6,0-1.3,0-1.9,0c-0.7-0.4-0.9-0.8-0.7-1.3c0.2-0.4,0.4-0.6,0.7-0.6
		C195.3,96.1,199.1,96.1,202.9,96.1z"/>
	<path class="st96" d="M191.4,96.1c0,0.6,0,1.3,0,1.9c-2.2,2.2-4.3,4.6-7.7,1.9C185.2,96.4,188.1,95.9,191.4,96.1z"/>
	<path class="st152" d="M394.8,322.5c2.5-1.1,3.8-3,3.8-5.8c2.4-6.1,3.8-12.7,8.3-17.7c2.5-2.8,5.2-7.2,9.8-2.4
		c-0.3,4.2,1,8.4-0.8,12.5c-2.6,17.2-12.2,29.6-26.9,38.4c-4.7-2.5-5.5-7.3-3.5-10.8C388.3,331.9,389.6,325.8,394.8,322.5z"/>
	<path class="st153" d="M394.8,322.5c-3.1,8-11.2,14.9-5.7,25c-2.3,5-7.3,6.9-11.6,9.6c-2.4-0.3-5.5,1.1-6.9-1.8
		c-1.6-3.2,1.7-4.6,3.3-6.2c6.7-6.7,11.1-14.8,14.9-23.2C390.3,322.8,392.2,322.5,394.8,322.5z"/>
	<path class="st154" d="M416,309.1c0-4.5,0-9,0-13.4c-1.2-1.3-1-2.6,0-3.9c0.6,0,1.3,0,1.9,0C417,297.6,419.8,303.7,416,309.1z"/>
	<path class="st155" d="M289.3,405c1.9,0,3.8,0,5.7,0C293.1,411.1,291.2,408,289.3,405z"/>
	<path class="st154" d="M404.4,297.6c-1.9,0.6-3.8,1.3-5.8,1.9c-2.2-2.1-2.4-4.8-2.6-7.5c-0.1-3.2,0-6.5,1.4-9.5
		c3.7-3.1,5.8-9.6,12.7-6c2.6,4.2,6.3,7.9,5.8,13.4C411.3,291.2,408.5,295.4,404.4,297.6z"/>
	<path class="st156" d="M404.4,297.6c2.5-4.6,4.2-10.3,11.5-7.7c0,0.6,0,1.3,0,1.9c0,1.3,0,2.6,0,3.9c-7.1,1.2-9.1,7.2-12,12.5
		c-1.6,3-1.2,7.2-5.3,8.6C396.7,309.2,402,303.8,404.4,297.6z"/>
	<path class="st157" d="M410.2,276.5c-5.6-1.6-6.4,6.3-11.5,5.8c-2.4-2.1-2.4-4.9-2.6-7.8c0.6-3.1-0.5-7.2,4.5-7.6
		c3.3-0.2,5,2.8,7.6,3.9C408.9,272.6,409.6,274.6,410.2,276.5z"/>
	<path class="st158" d="M400.7,266.8c-2.8,2-1.7,5-2,7.7c-6.5,14.5-18.2,25.9-24.2,40.8c-1.2,2.9-4.1,6-8.4,3.4
		c-1.9-2.6-3.8-5.1-5.7-7.7c2.3-6.7,8.3-10.6,11.9-16.4c6.2-10,13.5-19.2,18.8-29.8c1.1-2.2,2.5-4.6,5.8-3.7
		C398,263,399.3,264.9,400.7,266.8z"/>
	<path class="st159" d="M396.7,261.1c-8.1,12.4-16.3,24.6-24.2,37.1c-3.3,5.1-6.9,9.7-12.2,12.8c-0.6-0.6-1.3-1.3-1.9-1.9
		c0.3-8.2,2.6-15.6,8.7-21.3c7.3-6.8,9.5-17,16.4-24.1c2.7-2.8,5-5.9,9.6-4.5c1.2,0,2.5,0.1,3.7,0.1
		C396.7,259.9,396.7,260.5,396.7,261.1z"/>
	<path class="st87" d="M362.3,399.2c-1.9-0.6-3.9-1.2-5.8-1.8c2-2.8,5-1.6,7.7-1.9C363.5,396.7,362.9,397.9,362.3,399.2z"/>
	<path class="st160" d="M289.3,78.8c0-0.6,0-1.3,0-1.9c6.4-2.9,12.8-2.8,19.2,0c1.3-1.1,2.6-1,3.8,0.1c0.6,0.6,1.3,1.2,1.9,1.8
		c-1.3,1.3-2.6,2.5-3.8,3.8C304,77.6,296.5,78.9,289.3,78.8z"/>
	<path class="st161" d="M222.1,82.7c0.6-0.6,1.3-1.3,1.9-1.9c7,1.3,14,3.2,21,0c2-2,4.2-2.1,6.7-1c0.3,0.3,0.7,0.7,1,1
		c-3.1,5-8.4,5.1-13.4,5.8c-3.3,1.2-6.5,2.5-9.8,3.7c-1.7-3-9.9,2.8-7.5-5.6C222.1,83.9,222.1,83.3,222.1,82.7z"/>
	<path class="st162" d="M272,78.8c5.8,0,11.5,0,17.3,0c-0.3,2.1-1.3,3.7-3.6,3.6c-11-0.3-22.1,1.7-32.9-1.7c0,0,0,0,0,0
		c-1.2-3.8,2.7-2.5,3.9-3.8C261.9,77,266.3,83.4,272,78.8z"/>
	<path class="st163" d="M222.1,84.6c-0.1,5.3,5.9,2.5,7.5,5.6c-1.2,0-2.4,0.1-3.7,0.1c-5.1,1.3-8.3-0.6-9.6-5.7
		C218.3,84.6,220.2,84.6,222.1,84.6z"/>
	<path class="st164" d="M256.7,76.9c-1.3,1.3-2.6,2.5-3.9,3.8c-2.6,0-5.1,0-7.7,0c-0.6-1.3-1.3-2.5-1.9-3.8c4,0,8,0.4,11.5-1.9
		C255.4,75.6,256.1,76.3,256.7,76.9z"/>
	<path class="st165" d="M312.3,77c-1.3,0-2.5-0.1-3.8-0.1c0.2-3.9,3-3.8,5.7-3.8c0,0,0,0,0,0c3.5,2.5,8-0.5,11.5,1.9
		c0,0.6,0,1.2,0,1.9C321.3,76.9,316.8,76.9,312.3,77z"/>
	<path class="st102" d="M325.8,75c-3.8-0.6-8.2,1.5-11.5-1.9C318.1,73.7,322.4,71.5,325.8,75z"/>
	<path class="st125" d="M297,207.4c6.8,11.4-4.9,17.4-7.9,25.8c-4.1,11.8-13.3,21.2-17.2,33.2c-1.6,5.1-5.7,4.1-9.4,4.3
		c-1.9-9.7,5.8-15.7,8.8-23.5c4.9-12.7,11.3-24.6,18.9-36c3.2-4.8-4.8-4-4.7-7.7C289.3,204.8,293.6,204.6,297,207.4z"/>
	<path class="st144" d="M275.9,209.3c-1.3-3.2-2.5-6.5-3.8-9.7c2.6,0.4,5.6-0.6,7.6,2C284.2,207.1,283.8,210.1,275.9,209.3z"/>
	<path class="st126" d="M360.3,234.3c-3-0.3-5.7-1.4-7.7-3.8C355.9,230.2,358.9,230.7,360.3,234.3z"/>
	<path class="st166" d="M277.8,276.5c-1.3-1.7-2.6-3.3-4.2-5.4c2.7-0.2,5.1-0.4,7.4-0.6c1-0.4,1.1-1,0.2-1.4c-4.7-1.9-3.6-5.3-2-8.6
		c4.8-10.4,11.7-19.5,17.8-29c1.2-1.8,3.6-3.7,3.5-5.4c-0.3-9.1,5.3-9.6,11.9-9.1c4.2,0.3,8.5,0.3,9.6,5.8c-5.8-4-9.2-3.4-12.7,3.7
		c-6.6,13.5-14.8,26.2-21.6,39.5C285.2,270.7,284.4,276,277.8,276.5z"/>
	<path class="st167" d="M354.6,240c-9.7,15.2-19.5,30.3-29.1,45.5c-2.5,4-6.2,1.8-9.3,2.5c7.9-12.8,11-28.3,23-38.8
		c4.8-4.2,5.9-13.2,15.3-11.1C354.6,238.7,354.6,239.3,354.6,240z"/>
	<path class="st168" d="M344.9,299.5c-3.2-0.7-6.3-1.4-9.5-2.1c9-5.4,11.8-16.1,19.2-23c6.6-6.2,9.3-14.8,13.5-22.6
		c1.4-2.6,2.9-4,5.7-4.2c4.4,0.9,8.3,2.6,11.5,5.7c-9.9,12-16.8,26-25.9,38.6C355.7,297.2,352.2,301.8,344.9,299.5z"/>
	<path class="st169" d="M344.9,299.5c5.6-1.3,9.9-3.6,12.9-9.6c5.3-10.5,14.4-18.8,18.8-30.1c1.3-3.3,4.4-6.3,8.7-6.5
		c3.8,0.2,6,2.7,7.7,5.7c-7.2,3.2-11.6,8.9-13.6,16.3c-1.3,4.7-5.1,7.3-8.2,10.3c-7,6.5-7.9,16-12.8,23.4c-2.5-1.3-5.1-2.6-7.6-3.9
		C348.8,303.3,346.9,301.4,344.9,299.5z"/>
	<path class="st170" d="M233.6,193.9c-1.3,0-2.6,0-3.8,0c-5.5,4.3-9.7,8.8-12.5,15.8c-3.6,9.1-11.7,16.5-15.3,25.7
		c-2.3,5.9-5,8.9-10.6,10.3c6-13.3,11.8-26.4,21.1-38c3.9-5,5.3-12.1,11.5-15.7C227.6,191,231.7,187,233.6,193.9z"/>
	<path class="st171" d="M398.7,291.8c0,2.6,0,5.1,0,7.7c-7.4,14.9-18.1,27.6-28.5,40.7c-3.9-2.4-1.6-6.6-2.2-10
		c2.4-14.9,16.2-22.6,22.2-35.3C391.4,292.2,394.5,289.1,398.7,291.8z"/>
	<path class="st172" d="M398.7,291.8c-4.7,0.4-7.5,3.6-9.1,7.3c-2.8,6.5-6.2,12.4-12.4,16c-5.9,3.4-2.3,12.4-9.2,15
		c-0.5-3.2,1.3-6.9-1.9-9.6c0-0.6,0-1.3,0-1.9c5.8-0.5,7.6-5.1,9.3-9.5c5.3-13.2,14.4-23.9,23.3-34.7c0,2.6,0,5.1,0,7.7
		C398.7,285.4,398.7,288.6,398.7,291.8z"/>
</g>
<image style="overflow:visible;" width="200" height="200" xlink:href="veolia.html"  transform="matrix(1 0 0 1 914 367)">
</image>
</svg>
