<?xml version="1.0" encoding="utf-8"?>
<!-- Generator: Adobe Illustrator 21.0.2, SVG Export Plug-In . SVG Version: 6.00 Build 0)  -->
<svg version="1.1" id="Layer_1" xmlns="http://www.w3.org/2000/svg" xmlns:xlink="http://www.w3.org/1999/xlink" x="0px" y="0px"
	 viewBox="0 0 640 480" style="enable-background:new 0 0 640 480;" xml:space="preserve">
<style type="text/css">
	.st0{fill:#A6A8AA;}
</style>
<path class="st0" d="M558.2,289.9c-0.1-14.1,11.3-25.6,25.5-25.7c0,0,0.1,0,0.1,0c14.2,0,25.7,11.5,25.7,25.7c0,0,0,0,0,0v29.6H640
	v-58.2L319.4,160.4L0,261.3v58.2h31.3v-25.8c-0.1-14.1,11.4-25.6,25.5-25.7c0,0,0.1,0,0.1,0c14.2,0,25.7,11.5,25.7,25.7c0,0,0,0,0,0
	v25.8h33.3v-48c-0.1-14.1,11.3-25.6,25.5-25.7c0,0,0.1,0,0.1,0c14.2,0,25.7,11.5,25.7,25.7c0,0,0,0,0,0v48h32.3v-69.1
	c-0.1-14.1,11.3-25.6,25.5-25.7c0,0,0.1,0,0.1,0c14.2,0,25.7,11.5,25.7,25.7c0,0,0,0,0,0v69.1h36.2V238c-0.1-18.3,14.7-33.2,33-33.2
	c0,0,0.1,0,0.1,0c18.3,0,33.2,14.9,33.2,33.2c0,0,0,0,0,0v81.5h36v-69.1c0-14.1,11.4-25.6,25.5-25.7c0,0,0.1,0,0.1,0
	c14.2,0,25.7,11.5,25.7,25.7v69.1h32.7v-50c0-14.2,11.4-25.7,25.6-25.7s25.7,11.5,25.7,25.7v50h33.8L558.2,289.9L558.2,289.9
	L558.2,289.9z"/>
</svg>
