<?xml version="1.0" encoding="utf-8"?>
<!-- Generator: Adobe Illustrator 19.2.1, SVG Export Plug-In . SVG Version: 6.00 Build 0)  -->
<svg version="1.1" id="Layer_1" xmlns="http://www.w3.org/2000/svg" xmlns:xlink="http://www.w3.org/1999/xlink" x="0px" y="0px"
	 viewBox="0 0 640 480" style="enable-background:new 0 0 640 480;" xml:space="preserve">
<style type="text/css">
	.st0{fill:none;}
	.st1{fill:#0F218C;}
	.st2{fill:#FFFFFF;}
</style>
<path class="st0" d="M347.1,199.7c0.5-5.4-0.1-10.5-5.6-12.3c-6.8-2.4-15.2,2-21.6,11.7c-9.6,14.8-10.1,32.9-9,44.4
	C317.5,240.7,343.9,220.1,347.1,199.7z"/>
<path class="st0" d="M244.9,318.1c0,25.3,21,30.2,33.6,29c13.7-1.3,28.2-8.7,31.9-11c-12.4-16.4-23.9-40-29.2-61
	C268.4,280.7,244.9,296.5,244.9,318.1z"/>
<path class="st0" d="M182.2,135c-0.4,0-12,0-12,0l-37.3,118.8c0,0,50.6,13.8,73.5-53.3C228.1,136.6,194.3,135,182.2,135z"/>
<rect x="85" y="5" class="st1" width="470" height="470"/>
<path class="st2" d="M285.2,150.4c-1.8-7.3-1.3-15.1-0.3-19.1c2.5-11.6,10.4-24.5,33.3-24.5c21.3,0,33.8,13.2,33.8,33
	c0,6.7,0,22.5,0,22.5h90.7v-25.6c0-79.2-71.4-91.8-122.8-91.8c-64.6,0-117.5,21.4-127.1,80.9c-2.7,16.4-3.1,30.7,0.7,49.1
	c15.8,74.4,145.1,96,163.9,143c3.6,8.8,2.5,20,0.7,26.9c-2.9,12.2-11.1,24.6-35.5,24.6c-22.8,0-36.4-13.3-36.4-33.2l-0.1-35h-97.7
	v27.8c0,81.4,63.9,105.9,132.3,105.9c65.8,0,119.8-22.4,128.6-83.3c4.3-31.4,1-51.8-0.4-59.5C433.6,215.7,295.6,193.1,285.2,150.4
	L285.2,150.4z"/>
</svg>
