<?xml version="1.0" encoding="utf-8"?>
<!-- Generator: Adobe Illustrator 22.1.0, SVG Export Plug-In . SVG Version: 6.00 Build 0)  -->
<svg version="1.1" id="Layer_1" xmlns="http://www.w3.org/2000/svg" xmlns:xlink="http://www.w3.org/1999/xlink" x="0px" y="0px"
	 viewBox="0 0 640 480" style="enable-background:new 0 0 640 480;" xml:space="preserve">
<style type="text/css">
	.st0{fill:#FFFFFF;}
	.st1{fill:none;stroke:#00ADEF;stroke-width:6.634;}
	.st2{fill:#00ADEF;}
</style>
<g id="layer1" transform="translate(860.58717,-113.53468)">
	<g id="g3512">
		<path id="path3387" class="st0" d="M-860.6,477.3h640V229.7h-640V477.3z"/>
		<path id="path3389" class="st0" d="M-845.5,463.9h611.1V244.5h-611.1V463.9z"/>
		<path id="path3391" class="st1" d="M-845.5,463.9h611.1V244.5h-611.1V463.9z"/>
		<path id="path3393" class="st2" d="M-831.1,449.8h582.3v-89.4h-582.3V449.8z"/>
		<path id="path3395" class="st1" d="M-831.1,449.8h582.3v-89.4h-582.3V449.8z"/>
		<path id="path3399" class="st2" d="M-652.6,351.5h-19.6l-7.7-22.2h-38.9l-7.4,22.2l-20.2,0l32.4-94.3h29.4L-652.6,351.5z
			 M-699.1,272.3l-14.3,41.3h28.3"/>
		<path id="path3403" class="st2" d="M-649.6,351.6h18.5l0.1-76.1l38.9,76.3h23.5v-94.5h-18.8v68.4l-34.1-68.4h-28.1"/>
		<path id="path3407" class="st2" d="M-508.6,257.9c12.4,0.3,17.6,2.5,22.4,5.6c4.7,3,17.8,11.5,17.8,39.1
			c0,27.6-8.1,35.9-16.3,42.5c-8.1,6.6-26.6,6.4-26.6,6.4h-37.3v-93.8C-548.6,257.7-521,257.6-508.6,257.9z M-529.4,273.3v62.2
			l22.2,0c0,0,5.6,0.2,10.7-3.6c4-2.9,7.6-9.5,8.3-15.6c0.7-6.1,1.6-27-5.2-35.7c-5.8-7.5-14.5-7.3-16.3-7.3
			C-511.6,273.3-529.4,273.3-529.4,273.3"/>
		<path id="path3411" class="st2" d="M-470.5,258h19.5l24.9,75l25.6-75h19.8l-32.2,93.6h-26.6"/>
		<path id="path3413" class="st2" d="M-376.3,351.6h19.1V258h-19.1V351.6z"/>
		<path id="path3417" class="st2" d="M-317.9,293.9l34.7-36.1h28.5l-45.6,43.9l49.1,49.9h-27.4l-39.3-40.9v40.8h-19.1v-93.7
			l19.1,0.1"/>
		<path id="path3421" class="st2" d="M-766.6,286.8h20.2c0,0,0.5-12.9-4.9-20.2c-5.4-7.3-14.4-9.8-22-11c-7.6-1.2-32.1-3.4-44.9,6.4
			c-11.7,9-9.9,21.7-9.9,21.5s-0.7,16.5,13.7,22.4c8.3,3.4,24.6,4.4,24.6,4.4s12.9,1.2,16.8,2.7c3.9,1.5,7.3,4.4,7.3,10
			c0,5.6-1.5,9.5-4.6,11.9c-3.1,2.4-6.1,3.9-14.9,3.9s-14.7-3.2-16.8-5.1c-2-1.9-4.9-6.1-5.1-10c-0.2-3.9-0.2-6.1-0.2-6.1h-21.2
			c0,0-1.2,12,5.1,21c6.3,9,15.9,11.5,20.8,12.7c4.9,1.2,11.7,1.7,17.3,1.7s17.4-0.7,27.1-6.9c9.7-6.3,12.4-14.2,12.4-24.2
			c0-10-2.9-14.6-7.3-18.3c-4.4-3.7-11.4-5.8-19-6.9c-7.6-1.2-11-0.8-18.1-1.7c-7.1-0.9-13.2-1.4-15.8-6.4s-2.5-11.2,2.5-15.9
			s13.9-4.4,16.1-4.4c2.2,0,11.7,0.7,15.4,4.7C-768.1,277-766.9,279.4-766.6,286.8"/>
	</g>
</g>
</svg>
