<?xml version="1.0" encoding="utf-8"?>
<!-- Generator: Adobe Illustrator 21.0.2, SVG Export Plug-In . SVG Version: 6.00 Build 0)  -->
<svg version="1.1" id="svg" xmlns="http://www.w3.org/2000/svg" xmlns:xlink="http://www.w3.org/1999/xlink" x="0px" y="0px"
	 viewBox="0 0 640 480" style="enable-background:new 0 0 640 480;" xml:space="preserve">
<style type="text/css">
	.st0{fill:#D4B179;}
	.st1{fill:#BFC000;}
	.st2{fill:#4D5EA6;}
</style>
<g>
	<path class="st0" d="M253.2,117.8c15.9,15.1,38.2,22.2,60.1,22.9c54,1.9,100.1-34,154.7-27.1c26.2,3.3,51.4,15.6,68.5,36
		c1.2,1.4,3.5,0.2,3-1.6c-10.2-34.2-34.7-62.4-61.6-84.9c-35.1-29.3-73.2-52.1-119-58.6c-35.4-5-74.8-1-101.1,25.8
		c-5.2,5.3-9.7,11.2-13.4,17.6c-7.4,12.4-11.1,27.4-8,41.5C238.7,100.3,245.1,110.1,253.2,117.8z"/>
	<path class="st1" d="M260.8,355.4c3.9-54-51.5-60.5-89.4-75.4c-32.5-12.7-63.7-32.6-84.7-60.8c-1-1.3-3-0.7-3.1,0.9
		c-1.7,26-5.1,152.8,87.4,187.1C208.6,421.2,257.7,398.1,260.8,355.4z"/>
	<path class="st2" d="M548.9,177.5c-0.4-1.3-1.5-2.3-2.9-2.5c-52.3-5.9-100.2,13.3-129.7,57.3c-24.1,35.9-35.4,79.4-56.6,116.4
		c-33.4,58.5-99.9,98.5-168,82.1c-3.7-0.9-5.9,3.9-2.8,6.2c49.9,35.8,111.9,46.8,171.9,37c47.6-7.7,84.6-27.5,119.8-61.3
		C542.3,353.4,572.8,261.3,548.9,177.5z"/>
</g>
</svg>
