<?xml version="1.0" encoding="utf-8"?>
<!-- Generator: Adobe Illustrator 22.1.0, SVG Export Plug-In . SVG Version: 6.00 Build 0)  -->
<svg version="1.1" id="Layer_1" xmlns="http://www.w3.org/2000/svg" xmlns:xlink="http://www.w3.org/1999/xlink" x="0px" y="0px"
	 viewBox="0 0 640 480" style="enable-background:new 0 0 640 480;" xml:space="preserve">
<style type="text/css">
	.st0{fill:#086B2C;}
</style>
<g>
	<g>
		<path class="st0" d="M98.8,291.8c-10.5,1.1-34.5,0.3-35.9-1.4c2-0.3,3.7-0.6,5.4-0.9c4-0.6,6.3-2.8,6.6-6.8
			c0.9-9.4,1.4-18.8,2.3-28.2c0.9-12.2,1.7-24.8,2.6-37c0.6-9.1,1.1-18.5,2-27.6c0-1.4,1.4-3.1,2.3-4.6c1.4,0.9,3.1,1.4,4,2.6
			c17.1,21.1,33.9,42.4,51,63.5c1.4,1.7,2.6,3.1,4.6,5.4c0-3.1,0.6-6,0.6-8.8c0.6-19.1,1.1-37.9,1.7-57c0-0.6,0-1.1,0.3-1.7
			c0.6-1.1,1.1-3.1,1.7-3.1c1.1-0.3,2.8,0.6,3.7,1.4c7.4,7.7,14.5,15.7,21.6,23.4c14,15.1,27.6,30.5,42.2,46.1
			c0.3-1.4,0.3-2.3,0.3-3.1c0-15.7,0-31.3,0-47c0-2.8-0.3-6-0.6-8.8c-0.6-5.7-2.6-7.4-8.5-7.7c-1.1,0-2,0-3.1,0
			c0-0.3-0.3-0.9-0.3-1.1c0.9-0.3,2-1.1,2.8-1.1c4,0,8,0.3,12,0.3c12.5,0.3,24.8,0.6,37.3,0.6c8,0,15.9-0.9,23.9-0.3
			c6.3,0.3,12.2,1.1,18.2,2.8c11.1,3.1,17.1,14,15.4,25.9c-2.3,15.7-10,24.5-25.6,27.6c-5.4,1.1-11.1,0.3-16.5,0.3
			c0-0.3-0.3-0.6-0.3-1.1c1.1-0.3,2.6-1.1,3.7-1.1c10-0.9,18.8-8.5,19.9-18.8c0.9-6,0.6-12.2-2-17.9c-4-9.1-17.1-15.4-26.5-12
			c-0.6,0.3-1.4,1.1-1.7,2c-0.3,1.1-0.3,2.6-0.3,3.7c0,25.9,0,51.6,0.3,77.5c0,2,0.3,4,0.6,5.7c1.1,5.4,3.4,7.4,9.7,5.4
			c2.8-0.9,5.4-3.1,7.1-5.4c15.9-21.1,31.6-42.2,47.3-63.5c7.7-10.5,15.4-21.1,23.4-31.6c0.9-1.4,3.1-1.7,4.6-2.6
			c0.6,1.7,1.7,3.1,1.7,4.8c1.1,11.7,2,23.6,2.8,35.3c0.9,10.5,1.4,21.1,2.3,31.6c0.6,7.7,1.1,15.4,2.6,22.8
			c1.4,7.7,2.6,8.3,10.5,9.1c0.6,0,1.1,0.3,2.6,0.9c-1.7,0.9-2.6,1.7-3.4,1.7c-4,0-7.7,0-11.7,0c-6.8,0-13.7,0-20.5,0
			c-1.1,0-2.3-0.3-3.4-0.6c0.3-0.6,0.3-1.1,0.3-1.1c5.1-1.1,4.6-4.8,4.3-8.5c-0.6-7.7-0.9-15.4-1.1-23.1c0-0.6-0.3-1.1-0.3-2
			c-3.1,0-6,0-8.8,0c-6,0-12,0-17.9,0.3c-1.4,0-3.1,1.1-4,2.3c-6.3,8.5-12.2,17.4-18.2,25.9c-0.9,1.1-0.9,2.6-1.4,4
			c1.4,0.3,2.8,0.9,4,1.1c0.9,0.3,1.7,0.3,2.6,0.6c0,0.3,0,0.9,0,1.1c-1.1,0.3-2.3,0.9-3.4,0.9c-12.2-0.3-24.5-0.6-36.7-0.6
			c-8.3,0-16.2,0-24.5,0c-1.1,0-2.3-0.3-3.4-0.3c0-0.3,0-0.9,0-1.1c1.4-0.3,2.8-0.9,4.3-0.9c4-0.3,6-2.3,6.3-6
			c0.6-6.6,1.1-12.8,1.1-19.4c0.3-18.8,0-37.6,0-56.4c0-3.7-0.3-7.4-0.6-11.1c-0.3-3.4-2.3-5.4-6-6.3c-9.7-1.7-12.2,0.3-12.2,10.3
			c-0.3,21.9-0.6,43.9-0.9,65.8c0,7.7-0.3,15.1-0.6,22.8c0,1.1-0.9,2.6-1.1,3.7c-1.1-0.6-2.6-0.9-3.4-2
			c-9.1-9.7-17.9-19.4-27.1-29.1c-12.5-13.7-25.3-27.6-37.9-41.3c-0.3-0.3-0.6-0.3-1.1-0.6c0,2.6,0,4.6,0,6.8
			c0.3,13.4,0.3,26.5,0.9,39.9c0,1.7,0.9,3.7,2,5.1c3.1,4.3,6.6,8.3,10.3,12.2c2.6,2.8,5.4,5.4,9.7,5.1c0.6,0,1.4,0.9,2.3,1.1
			c0,0.3-0.3,0.9-0.3,1.1c-14.8,0-29.6,0-44.4,0c-0.6,0-1.1-0.6-1.7-0.9c0.3-0.3,0.3-0.9,0.6-1.1c1.4,0,3.1,0,4.6-0.6
			c1.7-0.6,3.7-1.1,4.6-2.3c0.6-0.9-0.9-3.1-1.7-4.3c-6.6-8-13.1-15.9-19.7-23.9c-0.6-0.9-1.7-1.7-2.6-2c-10,0-19.9,0-30.8,0
			c0,3.1,0,5.7,0,8.5c0,6,0,11.7,0.6,17.7c0.6,5.7,2.8,7.1,8.5,7.4c1.4,0,2.6,0.3,4,0.6C98.8,291.2,98.8,291.5,98.8,291.8z
			 M319,250.2c8.3,0,15.7,0,23.1,0c0.6,0,1.7-1.7,1.7-2.6c-0.3-8.8-0.9-17.7-1.1-26.5c0-0.9-0.3-1.7-0.9-3.4
			C334.1,228.5,327,238.8,319,250.2z M112.5,249.9c-8.5-10.3-16.2-19.9-24.2-29.6c-0.3,0-0.9,0.3-1.1,0.3c0,9.7,0,19.4,0,29.3
			C95.1,249.9,103.1,249.9,112.5,249.9z"/>
		<path class="st0" d="M475.1,290.6c2-0.3,4-0.3,6-1.1c1.7-0.6,3.7-2,4-3.4c0.9-3.4,1.4-7.1,1.4-10.8c0-24.8,0-49.6,0-74.3
			c0-7.1-2.6-10.3-8.8-10c-1.4,0-2.8-0.6-4.6-0.9c2.8-2,45-2,47.6,0.3c-2.6,0.3-4.6,0.6-6.8,0.9c-3.4,0-5.7,1.7-6.3,5.1
			c-0.3,1.7-0.6,3.7-0.6,5.4c0,22.5,0,45,0,67.5c0,3.4,0.3,7.1,1.4,10.3c0.9,2.3,3.1,4.8,5.1,5.1c8.3,1.7,17.1,1.7,25.3-0.6
			c2-0.6,4-2,5.1-3.7c2.3-2.6,2.6-5.4,0.6-8.8c-12.8-21.4-10.8-49.6,4.6-68.6c8.3-10.3,19.7-15.1,32.5-16.8c10.8-1.1,21.1,0,31,4.3
			c14.8,6.6,23.1,18.5,25.9,33.9c3.1,16.8,1.4,33-8,47.8c-8.5,13.4-20.8,20.8-36.7,22.5c-17.4,1.7-32.2-2.6-44.7-16.2
			c-0.6,3.4-0.9,6-1.4,8.8c-0.6,4.8-2,6-6.8,6c-17.7-0.3-35.3-0.6-53-0.6c-2.8,0-5.7,0.3-8.5,0.3c-1.4,0-3.1-0.3-4.6-0.6
			C475.1,291.5,475.1,290.9,475.1,290.6z M555.7,234.5c-0.3,11.4,1.7,22.2,6.6,32.5c4.8,10,12.2,17.4,23.4,19.7
			c14.8,3.1,26.8-4,31.6-19.1c4.3-12.8,4.6-25.6,2.3-38.7c-1.7-10.8-6-20.5-14-28.5c-13.1-12.5-38.2-11.4-46.1,10
			C556.5,218.3,555.4,226.6,555.7,234.5z"/>
		<path class="st0" d="M373.4,240.5c0.9-19.9,7.1-36.5,23.9-47.6c10-6.6,21.4-8.3,33.3-7.4c8.5,0.6,16.8,2.6,24.2,7.1
			c12.8,7.7,19.7,19.7,21.9,33.9c2.3,14.2,0.6,27.9-6,40.7c-8.5,15.9-21.6,25.1-39.9,27.1c-13.7,1.4-26.2-1.1-37.3-9.7
			c-10.8-8.3-16.2-19.9-18.8-33C374,247.6,373.7,243.9,373.4,240.5z M391.9,232.5c0.9,7.4,1.1,12.5,2,17.4
			c1.7,10.3,5.4,19.4,12.5,27.1c7.4,8,16.5,11.7,27.3,10c11.7-1.7,17.9-10,21.4-20.5c3.1-10,3.7-19.9,2.8-30.2
			c-0.9-12.2-4-23.4-12-33c-13.7-16.2-41.3-15.1-49,7.7C393.9,218.6,393.1,226.8,391.9,232.5z"/>
		<path class="st0" d="M3.4,264.7c0.3,0.9,0.6,1.4,0.9,2.3c2.6,14.8,10.5,21.4,25.6,21.4c4.8,0,9.4-0.9,13.4-3.4
			c7.7-4.8,10-14.2,4.6-21.9c-3.4-4.6-8-8.5-12.5-12.2c-8.5-6.3-17.9-11.4-25.1-19.7c-6.8-7.7-10.5-16.5-7.4-27.1
			C6,194.1,14,189.5,23.4,187c11.4-3.1,23.1-2,34.5,0c2.6,0.6,3.7,1.7,3.7,4.6c-0.3,5.1,0,10.3-0.3,15.7c0,0.9-0.9,1.7-1.4,2.6
			c-0.6-0.9-1.7-1.4-1.7-2.3c-0.6-7.4-8-14.8-17.9-15.9c-5.7-0.6-11.4-0.6-16.8,2.8c-6.8,4.3-9.1,12.5-4,18.8
			c4,4.8,9.4,8.5,14.5,12.5c7.7,6,15.7,11.4,23.1,17.9c6,5.1,9.1,12.5,9.4,20.5c0.6,12.2-6.6,22.2-19.1,27.1
			c-9.7,3.7-19.7,4.3-29.9,2.8c-4.6-0.6-8.8-2-13.4-2.8c-2.8-0.6-4-2.3-4-5.1c0.3-5.7,0-11.4,0-17.1c0-1.7,0.6-3.1,0.9-4.8
			C2.3,264.7,2.8,264.7,3.4,264.7z"/>
	</g>
</g>
</svg>
