<svg id="Layer_1" data-name="Layer 1" xmlns="http://www.w3.org/2000/svg" viewBox="0 0 640 480"><defs><style>.cls-1{fill:#003466;}.cls-2{fill:#fefefe;}</style></defs><title>Artboard 1</title><path class="cls-1" d="M2.79,394.93V80H637.86a5.51,5.51,0,0,1,1.14.24,10.65,10.65,0,0,0-1,.88L378,341.21q-26.42,26.42-52.82,52.85A2.68,2.68,0,0,1,323,395Q162.9,394.92,2.79,394.93Zm138.56-77.14h0a5.24,5.24,0,0,1-.17.93q-2.6,7.06-5.23,14.11c-.13.36-.24.74-.37,1.13a2.69,2.69,0,0,1,.4,0h55.58c.95,0,1.1-.51,1.31-1.17q3-9.31,6.11-18.62,1.51-4.61,3-9.22a110,110,0,0,0,66,.29c.08.18.14.29.18.4,2.89,9,5.79,18.06,8.64,27.11a1.44,1.44,0,0,0,1.64,1.21h91.62V273.84h1.52c9.72-.15,19.45,0,29.16-.53a85.74,85.74,0,0,0,30.42-7.06c18-7.89,30-21.12,34.81-40.35,3.21-12.8,3-25.71.19-38.57-2.43-11.32-7.6-21.16-16.27-29-7.32-6.61-16-10.78-25.32-13.64-13.08-4-26.56-5.39-40.15-5.5-21.86-.18-43.73-.07-65.6-.09h-1.45v148h-.2L262.9,139.2H208.54L162,263.29a2.69,2.69,0,0,1-.27-.5,45,45,0,0,0-14.16-25.7c-6.91-6.46-15-11-23.63-14.74-9-3.95-18.33-6.81-27.62-9.88-8-2.65-15.89-5.68-23.1-10.16a25.22,25.22,0,0,1-7-6c-2.55-3.35-2.69-6.91-.13-10.26a15.94,15.94,0,0,1,3.79-3.49,27,27,0,0,1,12.78-4.08,94.59,94.59,0,0,1,28.09,1.94c8.43,1.77,16.36,5,24.16,8.52l3.54,1.63,21.83-38c-1.47-.71-2.85-1.42-4.27-2.06a166.46,166.46,0,0,0-39.2-12c-15.48-2.83-31-3.81-46.64-1.16A86,86,0,0,0,39.29,148.5c-10.15,6.2-18.19,14.36-23.18,25.3a55.53,55.53,0,0,0-4.66,25.93,50.32,50.32,0,0,0,5.33,21.19c3.92,7.56,9.67,13.48,16.51,18.42,9.5,6.85,20,11.62,31,15.48,7.87,2.76,15.86,5.19,23.75,7.9,5,1.69,9.81,3.66,14,6.94,5.16,4,6.3,9.56,3.18,15.33-2.75,5.08-7.34,7.65-12.77,8.64a80.12,80.12,0,0,1-32.7-1.11c-9.25-2.15-17.71-6.23-25.93-10.88l-3.1-1.76L11.39,318.33a12.16,12.16,0,0,0,1.14.68c5.91,2.79,11.68,5.91,17.75,8.28C52.76,336.06,76,339.34,100,336a79.25,79.25,0,0,0,33.19-12.3c2.81-1.83,5.45-3.93,8.16-5.91Z"/><path class="cls-2" d="M141.35,317.79c-2.72,2-5.36,4.09-8.17,5.94A79.25,79.25,0,0,1,100,336c-24,3.31-47.24,0-69.72-8.73-6.07-2.37-11.84-5.49-17.75-8.28-.37-.18-.71-.42-1.14-.68l19.36-38.45,3.1,1.76c8.21,4.65,16.68,8.73,25.93,10.88a80.12,80.12,0,0,0,32.7,1.11c5.43-1,10-3.55,12.77-8.64,3.12-5.76,2-11.28-3.18-15.33-4.18-3.28-9-5.25-14-6.94-7.89-2.7-15.88-5.13-23.75-7.9-11-3.86-21.54-8.63-31-15.48-6.84-4.93-12.6-10.85-16.51-18.42a50.32,50.32,0,0,1-5.33-21.19,55.53,55.53,0,0,1,4.66-25.93c5-10.94,13-19.1,23.18-25.3a86,86,0,0,1,30.87-11.13c15.62-2.65,31.15-1.67,46.64,1.16a166.46,166.46,0,0,1,39.2,12c1.41.64,2.8,1.35,4.27,2.06l-21.83,38L134.89,189c-7.79-3.57-15.73-6.76-24.16-8.52a94.59,94.59,0,0,0-28.09-1.94,27,27,0,0,0-12.78,4.08,15.94,15.94,0,0,0-3.79,3.49c-2.56,3.35-2.42,6.91.13,10.26a25.22,25.22,0,0,0,7,6c7.22,4.48,15.08,7.51,23.1,10.16,9.29,3.07,18.64,5.93,27.62,9.88,8.59,3.78,16.72,8.28,23.63,14.74a45,45,0,0,1,14.16,25.7,2.69,2.69,0,0,0,.27.5l46.56-124.1H262.9l54.36,147.94h.2v-148h1.45c21.87,0,43.73-.1,65.6.09,13.59.11,27.07,1.5,40.15,5.5,9.34,2.86,18,7,25.32,13.64,8.67,7.83,13.85,17.66,16.27,29,2.76,12.86,3,25.77-.19,38.57-4.83,19.23-16.79,32.45-34.81,40.35a85.74,85.74,0,0,1-30.42,7.06c-9.7.47-19.44.37-29.16.53h-1.52V334h-91.6a1.44,1.44,0,0,1-1.66-1.19v0c-2.85-9-5.75-18.07-8.64-27.11,0-.12-.1-.22-.18-.4a110,110,0,0,1-66-.29q-1.52,4.61-3,9.22Q196,323.52,193,332.83c-.21.66-.36,1.17-1.31,1.17H136a1.61,1.61,0,0,1-.4,0c.13-.39.23-.77.37-1.13q2.61-7.06,5.23-14.11a5.26,5.26,0,0,0,.17-.93h.17v-.16Zm228.84-87.14h.73c4.57,0,9.13.07,13.7,0a53.61,53.61,0,0,0,15.73-2.23c7.21-2.35,12.71-6.57,15.2-14a29.72,29.72,0,0,0,1.11-13.64,20.54,20.54,0,0,0-11.35-16.35,35.71,35.71,0,0,0-14.94-3.91c-6-.29-12.07-.22-18.11-.3H370.2ZM255.07,263.36,235.6,200.52h-.33L215.4,263.18A59.46,59.46,0,0,0,255.07,263.36Z"/><path class="cls-1" d="M417.77,395A20.37,20.37,0,0,1,397,375q0-.36,0-.73c0-11.42,9.26-20.29,21-20.24a20.45,20.45,0,1,1-.31,40.9Zm.19-37.46c-8.62-.33-16.36,6.92-16.73,15.67-.43,10.24,6.3,18,16,18.32a16.44,16.44,0,0,0,17-15.87q0-.11,0-.22c.38-10-6.46-17.55-16.23-17.93Z"/><path class="cls-1" d="M370.19,230.65V180.24h2.06c6,.08,12.08,0,18.11.3a35.71,35.71,0,0,1,14.94,3.91,20.56,20.56,0,0,1,11.35,16.35,29.72,29.72,0,0,1-1.11,13.64c-2.5,7.44-8,11.66-15.2,14a53.61,53.61,0,0,1-15.73,2.23c-4.56.09-9.13,0-13.7,0A3.67,3.67,0,0,1,370.19,230.65Z"/><path class="cls-1" d="M255.07,263.36a59.46,59.46,0,0,1-39.67-.19l19.87-62.64h.33Z"/><path class="cls-1" d="M141.35,317.79l.11-.17v.16h-.11Z"/><path class="cls-1" d="M427.69,386.1c-2.89.85-4.62-.13-5.81-2.73a71.21,71.21,0,0,0-3.82-6.41,1.43,1.43,0,0,0-1.5-.83c-1,.06-2,0-3.08,0v10.06H409.9v-23.3c3.88,0,7.72-.2,11.54.06,3.6.24,5.57,2.44,5.71,5.61.18,4.2-1.3,6.29-5.12,7.23l-.85.19Zm-14.19-13c2.35-.1,4.62-.11,6.87-.33a3,3,0,0,0,3-3.29c0-2-.81-3.23-2.74-3.46-2.32-.28-4.68-.26-7.09-.38Z"/></svg>