<?xml version="1.0" encoding="utf-8"?>
<!-- Generator: Adobe Illustrator 22.1.0, SVG Export Plug-In . SVG Version: 6.00 Build 0)  -->
<svg version="1.1" id="Layer_1" xmlns="http://www.w3.org/2000/svg" xmlns:xlink="http://www.w3.org/1999/xlink" x="0px" y="0px"
	 viewBox="0 0 640 480" style="enable-background:new 0 0 640 480;" xml:space="preserve">
<style type="text/css">
	.st0{fill:#11A01A;}
</style>
<g>
	<g>
		<path class="st0" d="M541,116c41.7,79.2,39.8,193.4-34.2,278.2c-72.1,83.3-190,109.3-289.8,63.1C109.6,407.7,65.3,300.7,72.4,214
			c2.3,1.1,4.5,2.3,6.4,3.4c45.4,26.3,91.2,52.6,136.7,79.2c4.9,3,8.6,3,13.5,0C331.1,237.3,433.2,178,535.3,119
			C537.2,118.3,539.1,117.5,541,116z"/>
		<path class="st0" d="M511.7,69.8c5.3,7.1,10.1,13.9,15.8,21c-4.1,2.6-7.9,4.9-11.6,7.1c-96.1,55.6-192.2,111.5-288,167.1
			c-3.8,2.3-6.4,2.3-10.1,0c-45.4-26.3-91.2-52.6-136.7-78.8c-3.8-2.3-5.6-4.1-4.1-8.6c2.3-6.8,3.4-13.5,5.3-21
			c3,1.5,4.9,2.6,6.8,3.8c42.4,24.4,84.9,48.8,126.9,73.6c4.9,3,8.6,2.6,13.5,0C321,180.6,412.9,127.3,504.6,74.4
			C506.4,72.8,508.7,71.7,511.7,69.8z"/>
		<path class="st0" d="M92.3,129.2c4.1-7.9,7.5-15.4,11.6-23.3c2.3,1.1,4.1,2.3,6,3.4c35.7,20.6,71.3,41.3,107,62.3
			c3.8,2.3,6.8,2.3,10.5,0C306.3,125.8,385.5,80,464.8,33.8c4.5-2.6,7.5-3,11.3,0.8c4.9,4.9,10.1,9,15.8,13.9c-2.3,1.5-4.1,3-6,4.1
			c-85.6,49.6-171.6,99.5-257.2,149.1c-4.5,2.6-7.5,2.6-12,0c-39.4-23.3-79.2-46.2-119-69.1C96.1,131.8,94.6,130.7,92.3,129.2z"/>
		<path class="st0" d="M444.9,12.8c-3,1.9-4.9,3-6.8,4.1C368.3,57.5,298.4,98,229,138.6c-4.5,2.6-7.5,2.6-12,0
			c-30-17.6-60.1-34.9-90.5-52.6c-1.9-1.1-3.8-2.3-6.8-4.1c5.3-6.4,10.1-12.8,15.4-18.4c0.8-0.8,4.5,0,6.4,0.8
			c24.8,14.3,49.6,28.2,74,42.8c5.6,3.4,9.8,3,15.4,0c60.1-35.3,120.5-70.2,181-105.1c4.1-2.3,7.5-2.6,11.3-0.4
			C429.5,5.3,436.6,8.6,444.9,12.8z"/>
	</g>
</g>
</svg>
