<?xml version="1.0" encoding="utf-8"?>
<!-- Generator: Adobe Illustrator 19.2.1, SVG Export Plug-In . SVG Version: 6.00 Build 0)  -->
<svg version="1.1" id="Layer_1" xmlns="http://www.w3.org/2000/svg" xmlns:xlink="http://www.w3.org/1999/xlink" x="0px" y="0px"
	 viewBox="0 0 640 480" style="enable-background:new 0 0 640 480;" xml:space="preserve">
<style type="text/css">
	.st0{fill:#06704B;}
</style>
<g>
	<path class="st0" d="M343.8,107.1L343.8,107.1c-2.1-0.4-12.1-2.1-23.8-2.1c-11.7,0-21.7,1.7-23.7,2.1c-1.2,0.2-1.7-0.9-0.7-1.6
		c0.8-0.7,24.5-18.7,24.5-18.7s23.7,18,24.5,18.7C345.4,106.2,344.9,107.3,343.8,107.1z M302.8,224L302.8,224c0,0-1.3,0.5-1.6,1.6
		c5,3.8,8.3,12.5,18.7,12.5c10.4,0,13.8-8.7,18.8-12.5c-0.4-1.1-1.6-1.6-1.6-1.6s-6.5,1.6-17.2,1.6C309.3,225.6,302.8,224,302.8,224
		z M319.9,209.4L319.9,209.4c-2.9,0-3.5-1-5.4-1c-1.9,0-5.5,1.5-6.4,2.8c0.1,0.7,0.4,1.3,0.8,1.9c4.2,0.7,6.1,3,10.9,3
		c4.9,0,6.7-2.3,10.9-3c0.6-0.6,0.7-1.1,0.8-1.9c-0.7-1.3-4.4-2.8-6.3-2.8C323.5,208.4,322.8,209.4,319.9,209.4z M556,254L556,254
		c-0.3,5.7-0.8,11.3-1.5,16.8c-26.7,4.5-36.4-19.4-63.7-18.2c1.6,5.8,3,11.8,3.9,17.8c22.6-0.1,31.8,21.1,56.9,17.9
		c-1.3,6.4-2.9,12.9-4.8,19.1c-19.9,2-26.9-17.8-49.9-17.3c0.2,3.3,0.3,6.5,0.3,9.9c0,1.9,0,3.7-0.1,5.5c19.6-0.2,26,17.9,44.7,17.1
		c-2.2,6.4-4.9,12.5-7.8,18.6c-13.5-0.6-18-17.9-38.5-16.5c-0.6,4.4-1.4,8.8-2.3,13.1c17.8-1.2,21.6,15.1,34.3,16.4
		c-3.3,5.9-6.7,11.7-10.5,17.2c-7.5-4-14-16.2-28.3-16.9c1.4-4.5,2.7-9.1,3.8-13.7c-12.7,0-27.2-5-39.3-16.1
		c3.9-22.4-30.8-45.2-30.8-61.6c0-17.8,9.1-27.6,9.1-51.7c0-17.7-8.7-37.2-21.8-50.3c-2.5-2.6-5.1-4.7-8.1-6.5
		c12.1,14.8,21.2,32.5,21.2,52.8c0,22.6-10.5,34.5-10.5,55.5c0,20.8,30.6,38.9,30.6,60.4c0,8.5-2.7,16.8-11.7,33.1
		c13.7,13.7,31.6,21.2,43.2,21.2c3.8,0,5.7-1.2,7.1-4.1c1.1-2.5,2.2-5.1,3.3-7.7c12.4,0.5,18.1,11.8,25,16.2
		c-3.7,5-7.8,9.9-11.9,14.7c-4.6-5.1-10.8-13.6-19.9-16.1c-1.6,3.2-3.3,6.3-5.1,9.3c7.8,2.1,13.2,10,17.3,15.1
		c-4.4,4.7-9.1,9.1-13.9,13.3c-3-4.7-7.7-10.6-13-13.8c-1.9,2.6-3.9,5.2-6,7.7c4.4,3,8.4,8.4,10.9,12.9c-5.5,4.5-11.3,8.7-17.3,12.7
		c-3-24-35.7-40.4-26.9-68.2c-2.9,4.9-6.4,11-6.4,18.4c0,20.2,21.5,36.1,23.2,56.2c-4.4,2.6-9,5.1-13.7,7.5
		c-0.7-21.9-23.5-46-23.5-64.1c0-20.2,26.5-40.4,26.5-64.2c0-23.7-30.6-40.2-30.6-61.1c0-20.9,13-33,13-59.6
		c0-19.6-9.3-39.5-23.7-52.2c-2.5-2.2-5-4-8-5.6c13.5,16.3,21.4,31.1,21.4,53.5c0,25.2-14.9,39.1-14.9,63.8
		c0,24.6,29.9,38.4,29.9,61.3c0,23.1-27.8,42.4-27.8,66c0,21.5,24.6,42.9,25,68.4c-5.3,2.3-10.9,4.5-16.5,6.4
		c3.2-25.8-24.5-52.4-24.5-73.4c0-23,28.9-42.7,28.9-67.5c0-24.7-29.4-36.2-29.4-61.7c0-25.4,18-39.5,18-67.5
		c0-21.9-10.8-41.6-26.6-53.8c-0.4-0.3-0.6-0.6-1-0.8c-1.5-1-2.7,0.3-1.6,1.6c11.1,13.9,17.1,28.1,17.1,48.9
		c0,25.8-20.7,46.6-20.7,71.5c0,29.3,27.8,37.7,27.8,61.8c0,24.2-29.8,43.4-29.8,69c0,23.7,28.2,50,23.4,77.5
		c-5.6,1.4-11.4,2.7-17.2,3.7c5.3-34.1-22.3-58.6-22.3-80.8c0-24.2,30.8-45.7,30.8-69.4c0-22.2-22.2-29.5-25.1-52.3
		c-0.4-3.1-2.9-5.4-6.4-4.9c-4.5,0.8-10.3,3.8-19.3,3.8c-9.1,0-14.8-3-19.3-3.8c-3.4-0.6-5.9,1.8-6.4,4.9c-2.9,22.8-25,30.1-25,52.3
		c0,23.6,30.9,45.2,30.9,69.4c0,22.2-27.8,46.8-22.4,80.8c-5.8-1-11.6-2.3-17.2-3.7c-4.9-27.4,23.4-53.8,23.4-77.5
		c0-25.6-29.8-44.8-29.8-69c0-24.1,27.9-32.5,27.9-61.8c0-24.9-20.7-45.7-20.7-71.5c0-20.8,6-35,17.2-48.9c1-1.3-0.2-2.6-1.7-1.6
		c-0.4,0.3-0.7,0.6-1,0.8c-15.8,12.1-26.6,31.8-26.6,53.8c0,28,18,42.1,18,67.5c0,25.5-29.3,37-29.3,61.7
		c0,24.8,28.9,44.5,28.9,67.5c0,21-27.7,47.6-24.5,73.4c-5.6-2-11-4.1-16.4-6.4c0.4-25.5,25-47,25-68.4c0-23.6-27.9-42.9-27.9-66
		c0-23,29.9-36.7,29.9-61.3c0-24.6-14.9-38.6-14.9-63.8c0-22.4,7.8-37.2,21.5-53.5c-3.1,1.6-5.5,3.4-8.1,5.6
		c-14.4,12.7-23.7,32.6-23.7,52.2c0,26.7,13,38.7,13,59.6c0,20.9-30.5,37.4-30.5,61.1c0,23.8,26.4,44.1,26.4,64.2
		c0,18.1-22.8,42.2-23.6,64.1c-4.7-2.3-9.2-4.9-13.6-7.5c1.7-20.1,23.2-36,23.2-56.2c0-7.4-3.5-13.5-6.4-18.4
		c8.9,27.8-23.9,44.2-26.9,68.2c-5.9-4-11.7-8.2-17.3-12.7c2.6-4.5,6.5-9.9,11-12.9c-2.2-2.5-4.1-5.1-6.1-7.7
		c-5.2,3.2-10,9.1-13,13.8c-4.8-4.2-9.4-8.6-13.9-13.3c4.1-5.1,9.5-13.1,17.3-15.1c-1.8-3.1-3.6-6.2-5.1-9.3
		c-9.1,2.4-15.2,10.9-19.9,16.1c-4.1-4.8-8.1-9.6-11.9-14.7c6.9-4.5,12.6-15.8,25-16.2c1,2.5,2.1,5.1,3.3,7.7
		c1.3,2.9,3.3,4.1,7.1,4.1c11.5,0,29.3-7.5,43.1-21.2c-8.9-16.2-11.6-24.6-11.6-33.1c0-21.5,30.6-39.6,30.6-60.4
		c0-20.9-10.6-32.9-10.6-55.5c0-20.3,9.3-38,21.2-52.8c-3,1.9-5.6,3.9-8.1,6.5c-13,13.2-21.7,32.6-21.7,50.3c0,24.1,9,33.9,9,51.7
		c0,16.4-34.8,39.2-30.8,61.6c-12.2,11.1-26.6,16.1-39.4,16.1c1.1,4.6,2.4,9.2,3.8,13.7c-14.2,0.7-20.7,12.9-28.3,16.9
		c-3.7-5.5-7.2-11.3-10.5-17.2c12.7-1.3,16.5-17.6,34.3-16.4c-0.9-4.3-1.7-8.7-2.3-13.1c-20.4-1.4-25,15.9-38.5,16.5
		c-2.8-6.1-5.4-12.2-7.8-18.6c18.7,0.8,25-17.3,44.7-17.1c-0.1-1.8-0.1-3.6-0.1-5.5c0-3.4,0.1-6.6,0.3-9.9
		c-23-0.6-30,19.2-49.9,17.3c-1.8-6.3-3.4-12.7-4.8-19.1c25.1,3.2,34.3-18,56.9-17.9c1-6.1,2.3-12,4-17.8
		c-27.5-1.2-37,22.7-63.7,18.2c-0.7-5.5-1.2-11.1-1.5-16.8c31,3.6,42.7-22,71-18.9c2.7-6.8,5.8-13.4,9.3-19.6
		c-35.5-6.3-47.6,23.4-80.6,18.9C87.2,107.1,191.6,5,319.9,5s232.7,102.1,236.4,229.4c-33.1,4.6-45.2-25.1-80.7-18.9
		c3.5,6.2,6.6,12.8,9.3,19.6C513.2,232,524.9,257.6,556,254z M218.4,155.1L218.4,155.1c-17.4-7.1-38.5-5.5-56.5,6.1
		c-2.8-16.7-11.9-31.6-24.9-40.6c-1.8-1.2-3.6,0-3.5,2.1c2.7,35.4-17.9,66-43.4,93c26.2,7.8,48.5-25.9,82.5-14.1
		C184.9,183.4,200.4,167.6,218.4,155.1z M319.9,133.7L319.9,133.7c-22,0-40.3,12.3-45.1,28.4c-0.4,1.2,0.2,2.1,1.6,1.4
		c3.9-1.8,8.4-2.6,13.3-2.6c9,0,16.8,3.3,21.5,9c2.1,6.8,2.2,16.6-0.1,22.3c-3.7-0.8-5-3.7-8.6-3.7c-3.6,0-6.4,2.5-12.4,2.5
		c-6.2,0-6.8-2.8-10.9-2.8c-4.8,0-5.6,4.9-5.6,10.3c0,24.5,22.4,58.1,46.4,58.1c23.9,0,46.4-33.6,46.4-58.1c0-5.4-1.1-10.2-6-10.8
		c-2.5,1.8-4.8,3.4-10.4,3.4c-6.2,0-7.8-2.5-11.4-2.5c-4.3,0-3.9,9.1-9.1,9.7c-3.5-8.3-3.6-18.9-0.7-28.3c4.7-5.7,12.5-9,21.5-9
		c4.9,0,9.4,0.8,13.4,2.6c1.4,0.7,1.9-0.2,1.5-1.4C360.3,146,341.9,133.7,319.9,133.7z M354.9,168.7L354.9,168.7
		c-5.2,0-11.4,1.6-15.3,6c-0.4,1.1-0.4,2.9,0.2,4c9.5-3.3,17.9-3.4,22.1,1.2c2.2-2,2.8-3.7,2.8-5.8
		C364.6,171,361.4,168.7,354.9,168.7z M278.2,179.9L278.2,179.9c4.6-4.7,14.3-4.5,24.4-0.7c0.4-4.9-8.6-10.5-17.6-10.5
		c-6.5,0-9.7,2.2-9.7,5.4C275.3,176.2,276,178,278.2,179.9z M429.4,97.2L429.4,97.2c-17.3,1.2-32.4,7.2-44.6,17.1
		c5.2-14.7,11.8-27.5,20.1-39.9c-22.1,2.3-40.6,10.4-54,24.2L340.4,71l23.4-20.6l-31.3-2.1l-12.5-29.1l-12.5,29.1l-31.3,2.1
		L299.6,71L289,98.6c-13.5-13.8-31.9-21.9-53.9-24.2c8.2,12.4,14.9,25.2,20,39.9c-12.1-9.9-27.2-15.9-44.6-17.1
		c10.5,13.4,19.6,27.5,26.5,42.8c0.7,1.8,2.4,2.3,4.2,1.4c23.7-11.8,50.5-18.4,78.8-18.4c28.3,0,55.1,6.6,78.8,18.4
		c1.8,0.9,3.5,0.4,4.2-1.4C409.8,124.8,419,110.6,429.4,97.2z M467.3,201.5L467.3,201.5c33.9-11.8,56.3,21.9,82.5,14.1
		c-25.4-27-46.2-57.6-43.4-93c0.1-2.1-1.8-3.3-3.6-2.1c-12.9,9-22,23.9-24.8,40.6c-18-11.6-39.1-13.2-56.5-6.1
		C439.5,167.6,455,183.4,467.3,201.5z"/>
</g>
</svg>
