<?xml version="1.0" encoding="utf-8"?>
<!-- Generator: Adobe Illustrator 21.0.2, SVG Export Plug-In . SVG Version: 6.00 Build 0)  -->
<svg version="1.1" id="Layer_1" xmlns="http://www.w3.org/2000/svg" xmlns:xlink="http://www.w3.org/1999/xlink" x="0px" y="0px"
	 viewBox="0 0 640 480" style="enable-background:new 0 0 640 480;" xml:space="preserve">
<style type="text/css">
	.st0{fill:#FFFFFF;}
	.st1{fill:#59595B;}
	.st2{clip-path:url(#SVGID_2_);}
	.st3{clip-path:url(#SVGID_4_);}
	.st4{clip-path:url(#SVGID_6_);}
	.st5{clip-path:url(#SVGID_8_);}
	.st6{clip-path:url(#SVGID_10_);}
	.st7{clip-path:url(#SVGID_12_);}
	.st8{clip-path:url(#SVGID_14_);}
	.st9{clip-path:url(#SVGID_16_);}
	.st10{clip-path:url(#SVGID_18_);}
	.st11{clip-path:url(#SVGID_20_);}
	.st12{clip-path:url(#SVGID_22_);}
	.st13{clip-path:url(#SVGID_24_);}
	.st14{clip-path:url(#SVGID_26_);}
	.st15{clip-path:url(#SVGID_28_);}
	.st16{fill:#396247;}
	.st17{fill:#3A6447;}
	.st18{fill:#396448;}
	.st19{fill:#3A6548;}
	.st20{fill:#3A6549;}
	.st21{fill:#3A664A;}
	.st22{fill:#3A674A;}
	.st23{fill:#3A674B;}
	.st24{fill:#3B684B;}
	.st25{fill:#3C694D;}
	.st26{fill:#3D6A4E;}
	.st27{fill:#3D6A4F;}
	.st28{fill:#3D6B50;}
	.st29{fill:#3E6D51;}
	.st30{fill:#3F6E53;}
	.st31{fill:#3F6D53;}
	.st32{fill:#406E54;}
	.st33{fill:#437055;}
	.st34{fill:#447156;}
	.st35{fill:#457157;}
	.st36{fill:#477257;}
	.st37{fill:#487259;}
	.st38{fill:#4B755B;}
	.st39{fill:#4A735A;}
	.st40{fill:#4C755B;}
	.st41{fill:#4D765C;}
	.st42{fill:#4C755C;}
	.st43{fill:#4E765D;}
	.st44{fill:#4E775E;}
	.st45{fill:#517960;}
	.st46{fill:#507860;}
	.st47{fill:#517961;}
	.st48{fill:#527961;}
	.st49{fill:#527A62;}
	.st50{fill:#557B62;}
	.st51{fill:#547A62;}
	.st52{fill:#567B63;}
	.st53{fill:#577C64;}
	.st54{fill:#577C65;}
	.st55{fill:#5A7D65;}
	.st56{fill:#597C65;}
	.st57{fill:#5B7F66;}
	.st58{fill:#5B7F67;}
	.st59{fill:#5B7F68;}
	.st60{fill:#5C8068;}
	.st61{fill:#5E8169;}
	.st62{fill:#5F8169;}
	.st63{fill:#60836B;}
	.st64{fill:#60836C;}
	.st65{fill:#61836D;}
	.st66{fill:#62856E;}
	.st67{fill:#64856E;}
	.st68{fill:#64866E;}
	.st69{fill:#66876F;}
	.st70{fill:#668670;}
	.st71{fill:#668770;}
	.st72{fill:#698972;}
	.st73{fill:#698872;}
	.st74{fill:#6A8A73;}
	.st75{fill:#6B8B73;}
	.st76{fill:#6B8B74;}
	.st77{fill:#6D8B74;}
	.st78{fill:#6E8D76;}
	.st79{fill:#6F8D77;}
	.st80{fill:#6F8D78;}
	.st81{fill:#708E79;}
	.st82{fill:#728F79;}
	.st83{fill:#708E7A;}
	.st84{fill:#73917C;}
	.st85{fill:#74917C;}
	.st86{fill:#74927D;}
	.st87{fill:#76927D;}
	.st88{fill:#77947E;}
	.st89{fill:#77947F;}
	.st90{fill:#789480;}
	.st91{fill:#799682;}
	.st92{fill:#7B9682;}
	.st93{fill:#7B9783;}
	.st94{fill:#7C9885;}
	.st95{fill:#7F9A87;}
	.st96{fill:#819B87;}
	.st97{fill:#819B88;}
	.st98{fill:#839C8A;}
	.st99{fill:#839E8A;}
	.st100{fill:#839C8B;}
	.st101{fill:#86A08D;}
	.st102{fill:#88A08E;}
	.st103{fill:#89A28E;}
	.st104{fill:#89A28F;}
	.st105{fill:#8AA28F;}
	.st106{fill:#8AA291;}
	.st107{fill:#8EA693;}
	.st108{fill:#90A895;}
	.st109{fill:#92A895;}
	.st110{fill:#94A997;}
	.st111{fill:#95AA98;}
	.st112{fill:#95AC9A;}
	.st113{fill:#96AB99;}
	.st114{fill:#97AC9A;}
	.st115{fill:#99AD9B;}
	.st116{fill:#9AAF9D;}
	.st117{fill:#99AF9E;}
	.st118{fill:#9BAF9E;}
	.st119{fill:#9BAFA0;}
	.st120{fill:#9EB1A1;}
	.st121{fill:#9FB3A2;}
	.st122{fill:#A0B4A2;}
	.st123{fill:#A0B4A4;}
	.st124{fill:#A2B4A4;}
	.st125{fill:#A2B6A6;}
	.st126{fill:#A4B7A7;}
	.st127{fill:#A5B8A9;}
	.st128{fill:#A7B9A9;}
	.st129{fill:#A8BBAB;}
	.st130{fill:#ABBDAD;}
</style>
<g>
	<path class="st0" d="M147.1,242c38.3-39.8,92.9-52.3,121.4-27.8S289.3,291.2,251,331s-92.9,52.3-121.4,27.8
		C100.9,334.3,108.8,281.8,147.1,242L147.1,242z"/>
	<path class="st0" d="M173.9,337.1h-38.5l6.1-23.5l21.4,0.2c3.4,0,7.9-2.3,8.6-5.7l9.5-41.6c3.9-17.1,25.3-30.7,42.9-30.7h38
		l-5,21.2l-20,0.2c-4.5,0-6,1.1-6.9,4.6L218,307C213.5,324.2,191.7,337.1,173.9,337.1L173.9,337.1z M125,272.2
		c2.8-5.2,6-10.2,9.5-15h22.1l-4.9,15H125L125,272.2z M114.2,300.7c1.1-5.1,2.6-10.1,4.5-15h30.8l-4.9,15H114.2z M274.4,298.4
		c-2.7,5.2-5.7,10.2-9,15h-29.6l4.9-15H274.4L274.4,298.4z"/>
	<path class="st0" d="M284.4,269.8c-1,5.1-2.3,10.1-4.1,15h-37.4l4.9-15H284.4z"/>
	<path class="st1" d="M74.1,135.9c-14.6-6.5-23.3-8.7-31.7-8.7c-9.1,0-14.9,3.2-14.9,8.1c0,15.2,51.1,11,51.1,45.9
		c0,19.1-16.2,30.4-38.5,30.4c-17.8,0-26.5-4.5-36.2-9.7v-21.7c14.2,9.7,23,12.9,34.3,12.9c9.7,0,14.9-3.2,14.9-9.4
		c0-16.2-51.4-10.4-51.4-46.3c0-17.5,15.2-28.8,38.5-28.8c11.3,0,21.4,2.3,34,7.8L74.1,135.9L74.1,135.9z M145.9,207
		c-8.7,2.9-15.9,4.5-23,4.5c-23.9,0-39.5-13.9-39.5-35.3c0-20.7,16.2-35.3,38.5-35.3c6.8,0,15.9,1.6,23,4.5v15.9
		c-5.8-2.9-12.3-4.9-17.5-4.9c-12.9,0-21,7.8-21,19.7c0,12,8.1,20.1,20.4,20.1c5.2,0,9.7-1.3,19.1-4.9L145.9,207L145.9,207z
		 M201.3,198.6v-27.2c0-10-4.2-14.9-11-14.9c-4.9,0-9.1,3.2-14.2,10.4v43.4h-21.4V110H176v42.4h0.3c6.1-7.8,12.9-11.3,21.4-11.3
		c12.6,0,24.9,7.4,24.9,25.9v27.5C215.5,194.4,206.8,197,201.3,198.6z M232.6,193.1v-50.8H254v9.7c6.8-7.8,13.6-11,22.3-11
		c10.7,0,24.6,6.1,24.6,25.9v43.4h-21.4v-41.4c0-9.7-4.5-13.6-10.7-13.6c-5.2,0-9.1,2.9-14.9,11.3v29.8
		C246.9,194.4,239.4,193.8,232.6,193.1L232.6,193.1z M345.2,141c-21,0-35.9,14.9-35.9,35.6c0,21,15.5,34.9,39.5,34.9
		c5.5,0,18.1,0,30.4-9.1v-13.3c-10,7.1-16.8,9.7-25.2,9.7c-13.3,0-21.7-7.1-22.3-19.1h48.5C381.5,154.9,365,141,345.2,141L345.2,141
		z M332,168.5c1-9.4,6.5-14.9,14.9-14.9c8.1,0,13.9,5.8,14.6,14.9H332z M388.6,142.3h21.4v67.9h-21.4V142.3z M469.1,110v35.3
		c-5.5-2.6-11.3-4.2-17.5-4.2c-19.4,0-33,14.2-33,35.3c0,20.4,13.6,35.3,31.7,35.3c7.1,0,12.9-1.9,18.8-6.8v5.5h21.3V110L469.1,110
		L469.1,110L469.1,110z M469.1,191.8c-4.2,3.9-8.1,5.5-12.6,5.5c-10,0-16.5-8.4-16.5-20.7c0-13.6,6.5-21.4,17.1-21.4
		c3.9,0,9.1,1.6,12,3.9V191.8L469.1,191.8z M535.5,141c-21,0-35.9,14.9-35.9,35.6c0,21,15.5,34.9,39.5,34.9c5.2,0,18.1,0,30.4-9.1
		v-13.3c-10,7.1-16.8,9.7-25.2,9.7c-13.6,0-21.7-7.1-22.6-19.1h48.8C571.4,154.9,555.2,141,535.5,141L535.5,141z M522.2,168.5
		c1-9.4,6.1-14.9,14.6-14.9c8.4,0,13.9,5.8,14.9,14.9H522.2z M602.4,161.7h0.3c6.1-14.2,13.3-20.7,21.7-20.7c4.2,0,7.8,1.6,13.9,6.1
		l-5.8,18.8c-5.5-3.6-9.1-4.9-12.6-4.9c-7.8,0-12.9,7.4-17.5,19.7v29.4h-21.3v-67.9h21.3V161.7L602.4,161.7z M349.8,242.6h-34.9
		v24.9h33.6v10.7h-33.6v25.6h35.9v10.7h-47.6v-82.5h46.6V242.6L349.8,242.6z M357.5,231.9h10.7v82.5h-10.7V231.9z M384.4,288.9h38.2
		c0-20.1-9.4-29.8-23.6-29.8c-14.9,0-25.2,11-25.2,27.5c0,14.9,9.4,28.8,26.2,28.8c9.1,0,14.9-2.3,21.7-6.5v-10.4
		c-6.5,4.2-12.6,6.5-19.1,6.5C392.1,305.1,386,299.5,384.4,288.9L384.4,288.9z M399.3,268.2c7.4,0,12.3,5.2,12.6,13.6h-27.2
		C386,273,390.8,268.2,399.3,268.2z M471.4,274.3c-6.1-4.2-10.3-5.5-14.9-5.5c-10,0-16.5,7.4-16.5,18.4c0,11.3,7.1,18.1,18.1,18.1
		c4.5,0,9.1-1.3,14.6-3.6v10.4c-3.9,1.6-10.7,3.2-16.2,3.2c-16.2,0-27.5-11.3-27.5-27.2c0-17.8,10.4-29.1,26.5-29.1
		c6.5,0,10.7,1.3,15.9,3.6L471.4,274.3L471.4,274.3L471.4,274.3z M494.4,260.1h17.1v9.7h-17.1v27.8c0,6.1,4.5,8.1,7.8,8.1
		c3.9,0,7.8-1.3,12.3-3.9v10c-3.9,1.9-9.7,3.6-13.3,3.6c-11.6,0-17.5-7.4-17.5-17.1v-28.5h-9.4v-1.3l20.1-19.7L494.4,260.1
		L494.4,260.1z M531.3,260.1v12.6c5.5-9.7,10.7-13.6,15.9-13.6c4.2,0,8.4,1.9,12.9,6.1l-5.8,9.4c-3.2-3.2-7.4-5.2-10-5.2
		c-7.4,0-12.9,7.4-12.9,16.5v28.5h-10.7v-54.4L531.3,260.1L531.3,260.1z M565.2,260.1h10.7v54.3h-10.7V260.1z M626.4,274.3
		c-6.1-4.2-10.4-5.5-14.9-5.5c-10,0-16.5,7.4-16.5,18.4c0,11.3,7.1,18.1,18.1,18.1c4.5,0,9.1-1.3,14.6-3.6v10.4
		c-3.9,1.6-10.7,3.2-16.2,3.2c-16.2,0-27.5-11.3-27.5-27.2c0-17.8,10.3-29.1,26.5-29.1c6.5,0,10.7,1.3,15.9,3.6L626.4,274.3
		L626.4,274.3L626.4,274.3z M410.9,113.5c1.9,5.5-1.6,12.9-8.1,16.5c-6.5,3.9-13.3,2.6-15.2-2.6c-1.9-5.2,1.6-12.6,8.1-16.5
		S409,108.4,410.9,113.5z M576.5,240.7c1,2.6-1,6.1-4.2,8.1c-3.2,1.9-6.5,1.3-7.4-1.3c-1-2.6,0.6-6.1,3.9-8.1
		S575.3,238.1,576.5,240.7L576.5,240.7z"/>
	<g>
		<defs>
			<path id="SVGID_1_" d="M147.1,242c38.3-39.8,92.9-52.3,121.4-27.8S289.3,291.2,251,331s-92.9,52.3-121.4,27.8
				C100.9,334.3,108.8,281.8,147.1,242L147.1,242z"/>
		</defs>
		<clipPath id="SVGID_2_">
			<use xlink:href="#SVGID_1_"  style="overflow:visible;"/>
		</clipPath>
		<g class="st2">
			<g>
				<defs>
					<rect id="SVGID_3_" x="100.9" y="189.8" width="196.3" height="193.5"/>
				</defs>
				<clipPath id="SVGID_4_">
					<use xlink:href="#SVGID_3_"  style="overflow:visible;"/>
				</clipPath>
				<g class="st3">
					
						<image style="overflow:visible;enable-background:new    ;" width="125" height="125" xlink:href="A0CCC444.html"  transform="matrix(1.6204 0 0 -1.6074 98.04 388.1588)">
					</image>
				</g>
			</g>
			<g>
				<defs>
					<path id="SVGID_5_" d="M147.1,242c38.3-39.8,92.9-52.3,121.4-27.8S289.3,291.2,251,331s-92.9,52.3-121.4,27.8
						C100.9,334.3,108.8,281.8,147.1,242L147.1,242z"/>
				</defs>
				<clipPath id="SVGID_6_">
					<use xlink:href="#SVGID_5_"  style="overflow:visible;"/>
				</clipPath>
				<g class="st4">
					<g>
						<defs>
							<rect id="SVGID_7_" x="100.9" y="189.8" width="196.3" height="193.5"/>
						</defs>
						<clipPath id="SVGID_8_">
							<use xlink:href="#SVGID_7_"  style="overflow:visible;"/>
						</clipPath>
						<g class="st5">
							
								<image style="overflow:visible;enable-background:new    ;" width="125" height="125" xlink:href="A0CCC445.html"  transform="matrix(1.6204 0 0 -1.6074 98.04 388.1588)">
							</image>
						</g>
					</g>
					<g>
						<defs>
							<path id="SVGID_9_" d="M173.9,337.1h-38.5l6.1-23.5l21.4,0.2c3.4,0,7.9-2.3,8.6-5.7l9.5-41.6c3.9-17.1,25.3-30.7,42.9-30.7
								h38l-5,21.2l-20,0.2c-4.5,0-6,1.1-6.9,4.6L218,307C213.5,324.2,191.7,337.1,173.9,337.1L173.9,337.1z"/>
						</defs>
						<clipPath id="SVGID_10_">
							<use xlink:href="#SVGID_9_"  style="overflow:visible;"/>
						</clipPath>
						<g class="st6">
							<g>
								<defs>
									<rect id="SVGID_11_" x="135.5" y="235.8" width="126.5" height="101.3"/>
								</defs>
								<clipPath id="SVGID_12_">
									<use xlink:href="#SVGID_11_"  style="overflow:visible;"/>
								</clipPath>
								<g class="st7">
									
										<image style="overflow:visible;enable-background:new    ;" width="85" height="69" xlink:href="A0CCC444-2.html"  transform="matrix(1.6143 0 0 -1.5625 132.1631 340.7499)">
									</image>
								</g>
							</g>
							<g>
								<defs>
									<path id="SVGID_13_" d="M125,272.2c2.8-5.2,6-10.2,9.5-15h22.1l-4.9,15H125L125,272.2z"/>
								</defs>
								<clipPath id="SVGID_14_">
									<use xlink:href="#SVGID_13_"  style="overflow:visible;"/>
								</clipPath>
								<g class="st8">
									<g>
										<defs>
											<rect id="SVGID_15_" x="125" y="257.1" width="31.6" height="15"/>
										</defs>
										<clipPath id="SVGID_16_">
											<use xlink:href="#SVGID_15_"  style="overflow:visible;"/>
										</clipPath>
										<g class="st9">
											
												<image style="overflow:visible;enable-background:new    ;" width="25" height="15" xlink:href="A0CCC44C.html"  transform="matrix(1.5682 0 0 -1.4157 121.6508 275.5053)">
											</image>
										</g>
									</g>
									<g>
										<defs>
											<path id="SVGID_17_" d="M114.2,300.7c1.1-5.1,2.6-10.1,4.5-15h30.8l-4.9,15H114.2z"/>
										</defs>
										<clipPath id="SVGID_18_">
											<use xlink:href="#SVGID_17_"  style="overflow:visible;"/>
										</clipPath>
										<g class="st10">
											<g>
												<defs>
													<rect id="SVGID_19_" x="114.2" y="285.7" width="35.3" height="15"/>
												</defs>
												<clipPath id="SVGID_20_">
													<use xlink:href="#SVGID_19_"  style="overflow:visible;"/>
												</clipPath>
												<g class="st11">
													
														<image style="overflow:visible;enable-background:new    ;" width="31" height="17" xlink:href="A0CCC44C.html"  transform="matrix(1.4754 0 0 -1.2491 110.4818 305.058)">
													</image>
												</g>
											</g>
											<g>
												<defs>
													<path id="SVGID_21_" d="M274.4,298.4c-2.7,5.2-5.7,10.2-9,15h-29.6l4.9-15H274.4L274.4,298.4z"/>
												</defs>
												<clipPath id="SVGID_22_">
													<use xlink:href="#SVGID_21_"  style="overflow:visible;"/>
												</clipPath>
												<g class="st12">
													<g>
														<defs>
															<rect id="SVGID_23_" x="235.8" y="298.4" width="38.6" height="15"/>
														</defs>
														<clipPath id="SVGID_24_">
															<use xlink:href="#SVGID_23_"  style="overflow:visible;"/>
														</clipPath>
														<g class="st13">
															
																<image style="overflow:visible;enable-background:new    ;" width="33" height="17" xlink:href="A0CCC44C.html"  transform="matrix(1.584 0 0 -1.3452 231.735 318.1804)">
															</image>
														</g>
													</g>
													<g>
														<defs>
															<path id="SVGID_25_" d="M284.4,269.8c-1,5.1-2.3,10.1-4.1,15h-37.4l4.9-15H284.4z"/>
														</defs>
														<clipPath id="SVGID_26_">
															<use xlink:href="#SVGID_25_"  style="overflow:visible;"/>
														</clipPath>
														<g class="st14">
															<g>
																<defs>
																	<rect id="SVGID_27_" x="242.9" y="269.8" width="41.5" height="15"/>
																</defs>
																<clipPath id="SVGID_28_">
																	<use xlink:href="#SVGID_27_"  style="overflow:visible;"/>
																</clipPath>
																<g class="st15">
																	
																		<image style="overflow:visible;enable-background:new    ;" width="35" height="15" xlink:href="A0CCC44C.html"  transform="matrix(1.4935 0 0 -1.4157 239.426 288.6277)">
																	</image>
																</g>
															</g>
															<path class="st16" d="M184.4,363c-21.4,3.9-35.9,1.3-45-7.1c13.6,2.3,23.9,4.9,44.3,1c20.4-3.6,36.9-10.7,41.1-13.3
																C219.7,349,207.4,358.8,184.4,363z"/>
															<path class="st17" d="M139.5,355.8c13.6,2.3,23.9,4.9,44.3,1c20.4-3.6,36.9-10.7,41.1-13.3l-0.3,0.3
																c-5.5,5.5-17.8,15.2-39.8,19.1c-0.6,0-1.3,0.3-1.9,0.3C162.4,366.8,148.5,363.9,139.5,355.8L139.5,355.8z"/>
															<path class="st18" d="M139.5,355.8c13.6,2.3,23.9,4.9,44.3,1c20.4-3.6,36.9-10.7,41.1-13.3c-0.3,0-0.3,0.3-0.3,0.3
																c-5.5,5.5-17.8,15.2-39.8,19.1c-0.6,0-1.3,0.3-1.9,0.3C162.4,366.8,148.5,363.9,139.5,355.8L139.5,355.8z"/>
															<path class="st19" d="M139.5,355.8c13.6,2.3,23.9,4.9,44.3,1.3c20.4-3.9,36.6-10.7,41.1-13.6c-0.3,0-0.3,0.3-0.6,0.3
																c-5.2,5.5-17.5,15.2-39.5,19.1c-0.6,0-1.3,0.3-1.9,0.3C162.4,366.5,148.5,363.9,139.5,355.8L139.5,355.8z"/>
															<path class="st20" d="M139.5,355.8c13.6,2.3,23.9,4.9,44.3,1.3c20.4-3.9,36.6-10.7,41.1-13.6c-0.3,0-0.3,0.3-0.6,0.3
																c-5.2,5.5-17.5,15.2-39.5,19.1c-0.6,0-1.3,0.3-1.9,0.3C162.4,366.5,148.5,363.9,139.5,355.8L139.5,355.8z"/>
															<path class="st21" d="M139.8,355.8c13.3,2.3,23.6,4.9,44,1.3c20.4-3.9,36.6-10.7,40.8-13.6c0,0.3,0,0.3-0.3,0.3
																c-5.2,5.5-17.8,15.2-39.5,19.1c-0.6,0-1.3,0.3-1.9,0.3C162.8,366.5,148.5,363.9,139.8,355.8L139.8,355.8z"/>
															<path class="st22" d="M139.8,355.8c13.3,2.3,23.6,4.9,44,1.3c20.4-3.9,36.6-10.7,40.8-13.6c0,0.3,0,0.3-0.3,0.6
																c-5.5,5.5-17.8,14.9-39.5,18.8c-0.6,0-1.3,0.3-1.9,0.3C162.8,366.5,148.5,363.9,139.8,355.8L139.8,355.8z"/>
															<path class="st23" d="M139.8,356.2c13.3,1.9,23.6,4.5,44,1c20.4-3.9,36.6-10.7,40.8-13.6c0,0.3-0.3,0.3-0.3,0.6
																c-5.5,5.5-17.8,14.9-39.5,18.8c-0.6,0-1.3,0-1.9,0.3C162.8,366.5,148.9,363.9,139.8,356.2z"/>
															<path class="st22" d="M139.8,356.2c13.3,1.9,23.6,4.5,44,1c20.1-3.9,36.6-10.7,40.8-13.6c0,0.3-0.3,0.3-0.3,0.6
																c-5.5,5.5-17.8,14.9-39.5,18.8c-0.6,0-1.3,0-1.9,0.3C162.8,366.5,148.9,363.9,139.8,356.2z"/>
															<path class="st23" d="M139.8,356.2c13.3,1.9,23.6,4.5,44,1c20.1-3.9,36.6-10.7,40.8-13.3c0,0-0.3,0-0.3,0.3
																c-5.5,5.5-17.8,14.9-39.5,18.8c-0.6,0-1.3,0-1.9,0.3C162.8,366.5,148.9,363.9,139.8,356.2z"/>
															<path class="st24" d="M139.8,356.2c13.3,1.9,23.6,4.5,44,1c20.1-3.9,36.6-10.7,40.8-13.3c-0.3,0-0.3,0-0.3,0.3
																c-5.5,5.5-18.1,14.9-39.5,18.8c-0.6,0-1.3,0-1.9,0.3C163.1,366.5,148.9,363.9,139.8,356.2z"/>
															<path class="st25" d="M140.1,356.2c12.9,1.9,23.3,4.5,43.7,1c20.1-3.9,36.2-10.7,40.8-13.3c-0.3,0-0.3,0.3-0.6,0.3
																c-5.2,5.5-17.8,14.9-39.1,18.8c-0.6,0-1.3,0-1.9,0.3C163.1,366.5,148.9,363.9,140.1,356.2z"/>
															<path class="st25" d="M140.1,356.2c12.9,1.9,23.3,4.5,43.7,1c20.1-3.6,36.2-10.7,40.4-13.3c0,0,0,0.3-0.3,0.3
																c-5.2,5.5-17.8,14.9-39.1,18.8c-0.6,0-1.3,0-1.9,0.3C163.1,366.5,148.9,363.9,140.1,356.2z"/>
															<path class="st26" d="M140.1,356.2c12.9,1.9,23.3,4.9,43.7,1c20.1-3.6,36.2-10.7,40.4-13.3c0,0,0,0.3-0.3,0.3
																c-5.2,5.5-17.8,14.9-39.1,18.8h-1.9C163.1,366.5,148.9,363.9,140.1,356.2L140.1,356.2z"/>
															<path class="st26" d="M140.1,356.2c12.9,1.9,23.3,4.9,43.7,1c20.1-3.6,36.2-10.7,40.4-13.3c0,0,0,0.3-0.3,0.3
																c-5.2,5.5-17.8,14.9-39.1,18.8h-1.9C163.1,366.5,148.9,363.9,140.1,356.2L140.1,356.2z"/>
															<path class="st27" d="M140.1,356.2c12.9,1.9,23.3,4.9,43.7,1c20.1-3.6,36.2-10.7,40.4-13.3l-0.3,0.3
																c-5.2,5.5-17.8,14.9-39.1,18.4c-0.6,0.3-1.3,0.3-1.9,0.3C163.1,366.5,149.2,363.9,140.1,356.2L140.1,356.2z"/>
															<path class="st28" d="M140.1,356.2c12.9,2.3,23.3,4.9,43.7,1c20.1-3.6,36.2-10.4,40.4-13.3c0,0.3-0.3,0.3-0.3,0.3
																c-5.2,5.5-18.1,14.9-39.1,18.4c-0.6,0.3-1.3,0.3-1.9,0.3C163.4,366.2,149.2,363.9,140.1,356.2L140.1,356.2z"/>
															<path class="st28" d="M140.4,356.2c12.6,2.3,23,4.9,43.4,1c20.1-3.6,36.2-10.4,40.4-13.3l-0.3,0.3
																c-5.2,5.5-18.1,14.9-39.1,18.4c-0.6,0.3-1.3,0.3-1.9,0.3C163.4,366.2,149.2,363.9,140.4,356.2L140.4,356.2z"/>
															<path class="st29" d="M140.4,356.2c12.6,2.3,23,4.9,43.4,1c20.1-3.6,36.2-10.4,40.4-13.3c-0.3,0.3-0.3,0.3-0.3,0.6
																c-5.5,5.2-18.1,14.2-39.1,18.1c-0.6,0.3-1.3,0.3-1.9,0.3C163.4,366.2,149.2,363.9,140.4,356.2L140.4,356.2z"/>
															<path class="st30" d="M140.4,356.2c12.6,2.3,23,4.9,43.4,1c20.1-3.6,36.2-10.4,40.4-13.3c-0.3,0.3-0.3,0.3-0.3,0.6
																c-5.5,5.2-18.1,14.2-39.1,18.1c-0.6,0.3-1.3,0.3-1.9,0.3C163.4,366.2,149.2,363.9,140.4,356.2L140.4,356.2z"/>
															<path class="st30" d="M140.4,356.2c12.6,2.3,23,4.9,43.4,1c19.7-3.6,35.9-10.4,40.1-12.9l-0.3,0.3
																c-5.2,5.2-17.8,14.2-38.8,18.1c-0.6,0.3-1.3,0.3-1.9,0.3C163.4,366.2,149.2,363.9,140.4,356.2L140.4,356.2z"/>
															<path class="st31" d="M140.4,356.2c12.6,2.3,23,4.9,43.4,1c19.7-3.6,35.9-10.4,40.1-12.9l-0.3,0.3
																c-5.2,5.2-18.1,14.2-38.8,18.1c-0.6,0.3-1.3,0.3-1.9,0.3C163.4,366.2,149.2,363.9,140.4,356.2L140.4,356.2z"/>
															<path class="st32" d="M140.4,356.2c12.6,2.3,23,4.9,43.4,1c19.7-3.6,35.9-10.4,40.1-12.9l-0.3,0.3
																c-5.2,5.2-18.1,14.2-38.8,18.1c-0.6,0-1.3,0.3-1.9,0.3C163.7,366.2,149.2,363.9,140.4,356.2L140.4,356.2z"/>
															<path class="st33" d="M140.8,356.5c12.3,1.9,22.6,4.5,43,1c19.7-3.9,35.9-10.7,40.1-13.3l-0.3,0.3
																c-5.2,5.2-18.1,14.2-38.8,18.1c-0.6,0-1.3,0.3-1.9,0.3C163.7,366.2,149.5,363.9,140.8,356.5z"/>
															<path class="st33" d="M140.8,356.5c12.3,1.9,22.6,4.5,43,1c19.7-3.9,35.9-10.7,40.1-13.3l-0.3,0.3
																c-5.2,5.2-18.1,14.2-38.8,18.1c-0.6,0-1.3,0.3-1.9,0.3C163.7,366.2,149.5,363.9,140.8,356.5z"/>
															<path class="st34" d="M140.8,356.5c12.3,1.9,22.6,4.5,43,1c19.7-3.9,35.9-10.7,40.1-13.3c-0.3,0-0.3,0.3-0.3,0.3
																c-5.2,5.2-18.1,14.2-38.8,18.1c-0.6,0-1.3,0.3-1.9,0.3C163.7,366.2,149.5,363.9,140.8,356.5z"/>
															<path class="st35" d="M140.8,356.5c12.3,1.9,22.6,4.5,43,1c19.7-3.6,35.9-10.7,40.1-13.3c-0.3,0-0.3,0.3-0.3,0.3
																c-5.2,5.2-18.1,14.2-38.8,18.1c-0.6,0-1.3,0.3-1.9,0.3C163.7,366.2,149.5,363.9,140.8,356.5z"/>
															<path class="st35" d="M140.8,356.5c12.3,1.9,22.6,4.5,43,1c19.7-3.6,35.9-10.7,39.8-13.3v0.3
																c-5.2,5.2-18.4,14.2-38.8,18.1c-0.6,0-1.3,0.3-1.9,0.3C163.7,366.2,149.5,363.9,140.8,356.5z"/>
															<path class="st36" d="M140.8,356.5c12.3,1.9,22.6,4.5,43,1c19.7-3.6,35.6-10.4,39.8-13.3c0,0.3,0,0.3-0.3,0.3
																c-4.9,5.2-18.1,14.2-38.5,18.1c-0.6,0-1.3,0.3-1.9,0.3C164.1,366.2,149.5,363.9,140.8,356.5z"/>
															<path class="st36" d="M141.1,356.5c12,1.9,22.3,4.5,42.7,1c19.7-3.6,35.6-10.4,39.8-13.3c0,0.3,0,0.3-0.3,0.3
																c-4.9,5.2-18.1,14.2-38.5,18.1c-0.6,0-1.3,0-1.6,0.3C164.1,365.9,149.5,363.9,141.1,356.5L141.1,356.5z"/>
															<path class="st37" d="M141.1,356.5c12,1.9,22.3,4.5,42.7,1c19.7-3.6,35.6-10.4,39.8-12.9h-0.3
																c-5.2,5.5-18.1,14.2-38.5,18.1c-0.6,0-1.3,0-1.6,0.3C164.1,365.9,149.8,363.9,141.1,356.5L141.1,356.5z"/>
															<path class="st37" d="M141.1,356.5c12,1.9,22.3,4.5,42.7,1c19.7-3.6,35.6-10.4,39.8-12.9c0,0-0.3,0-0.3,0.3
																c-5.2,5.2-18.1,13.9-38.5,17.8c-0.6,0-1.3,0-1.6,0.3C164.1,365.9,149.8,363.9,141.1,356.5L141.1,356.5z"/>
															<path class="st38" d="M141.1,356.5c12,1.9,22.3,4.5,42.7,1c19.4-3.6,35.6-10.4,39.8-12.9c0,0-0.3,0-0.3,0.3
																c-5.2,5.2-18.4,13.9-38.5,17.8c-0.6,0-1.3,0-1.6,0.3C164.1,365.9,149.8,363.9,141.1,356.5L141.1,356.5z"/>
															<path class="st39" d="M141.1,356.5c12,1.9,22.3,4.5,42.7,1c19.4-3.6,35.6-10.4,39.8-12.9c-0.3,0-0.3,0-0.3,0.3
																c-5.2,5.2-18.4,13.9-38.5,17.8c-0.6,0-1.3,0-1.6,0.3C164.4,365.9,149.8,363.9,141.1,356.5L141.1,356.5z"/>
															<path class="st40" d="M141.1,356.5c12,1.9,22.3,4.5,42.7,1c19.4-3.6,35.6-10.4,39.5-12.9v0.3
																c-5.2,5.2-18.4,13.9-38.5,17.8c-0.6,0-1.3,0-1.6,0.3C164.4,365.9,149.8,363.9,141.1,356.5L141.1,356.5z"/>
															<path class="st41" d="M141.4,356.5c11.6,1.9,22,4.5,42.4,1c19.4-3.6,35.6-10.4,39.5-12.9v0.3
																c-5.2,5.2-18.4,13.9-38.5,17.8h-1.6C164.4,365.9,149.8,363.9,141.4,356.5z"/>
															<path class="st42" d="M141.4,356.5c11.6,1.9,22,4.5,42.4,1c19.4-3.6,35.6-10.4,39.5-12.9v0.3
																c-5.2,5.2-18.4,13.9-38.5,17.8h-1.6C164.4,365.9,149.8,363.9,141.4,356.5z"/>
															<path class="st43" d="M141.4,356.5c11.6,1.9,22,4.5,42.4,1c19.4-3.6,35.3-10.4,39.5-12.9c0,0,0,0.3-0.3,0.3
																c-4.9,5.2-18.4,13.9-38.2,17.8h-1.6C164.4,365.9,149.8,363.9,141.4,356.5z"/>
															<path class="st43" d="M141.4,356.8c11.6,1.6,22,4.2,42.4,0.6c19.4-3.6,35.3-10.4,39.5-12.9c0,0.3,0,0.3-0.3,0.3
																c-4.9,5.2-18.4,13.9-38.2,17.5c-0.6,0.3-1.3,0.3-1.6,0.3C164.4,365.9,150.2,363.9,141.4,356.8z"/>
															<path class="st44" d="M141.4,356.8c11.6,1.6,22.3,4.5,42.4,0.6c19.4-3.6,35.3-10.4,39.5-12.9c0,0.3-0.3,0.3-0.3,0.3
																c-4.9,5.2-18.4,13.9-38.2,17.5c-0.6,0.3-1.3,0.3-1.6,0.3C164.7,365.9,150.2,363.9,141.4,356.8z"/>
															<path class="st45" d="M141.4,356.8c11.6,1.6,22.3,4.5,42.4,0.6c19.4-3.2,35.3-10.4,39.5-12.6h-0.3
																c-4.9,5.2-18.4,13.9-38.2,17.5c-0.6,0.3-1.3,0.3-1.6,0.3C164.7,365.9,150.2,363.9,141.4,356.8z"/>
															<path class="st46" d="M141.7,356.8c11.3,1.6,22,4.5,42.1,0.6c19.4-3.2,35.3-10.4,39.1-12.6
																c-5.2,5.2-18.4,13.9-38.2,17.5c-0.6,0.3-1.3,0.3-1.6,0.3C164.7,365.9,150.2,363.9,141.7,356.8z"/>
															<path class="st47" d="M141.7,356.8c11.3,1.6,22,4.5,42.1,0.6c19.4-3.2,35.3-10,39.1-12.6
																c-5.2,5.2-18.4,13.9-38.2,17.5c-0.6,0.3-1.3,0.3-1.6,0.3C164.7,365.9,150.2,363.9,141.7,356.8z"/>
															<path class="st48" d="M141.7,356.8c11.3,1.9,22,4.5,42.1,1c19.1-3.6,35.3-10.4,39.1-12.9v0.3
																c-5.2,4.9-18.8,13.6-38.2,17.1c-0.6,0.3-1.3,0.3-1.6,0.3C164.7,365.5,150.2,363.9,141.7,356.8z"/>
															<path class="st49" d="M141.7,356.8c11.3,1.9,22,4.5,42.1,1c19.1-3.6,35.3-10.4,39.1-12.9v0.3
																c-5.2,4.9-18.8,13.6-38.2,17.1c-0.6,0.3-1.3,0.3-1.6,0.3C164.7,365.5,150.2,363.9,141.7,356.8z"/>
															<path class="st50" d="M141.7,356.8c11.3,1.9,22,4.5,42.1,1c19.1-3.6,34.9-10.4,39.1-12.9l-0.3,0.3
																c-4.9,4.9-18.4,13.6-37.9,17.1c-0.6,0-1,0.3-1.6,0.3C165,365.5,150.2,363.9,141.7,356.8L141.7,356.8z"/>
															<path class="st51" d="M141.7,356.8c11.3,1.9,22,4.5,42.1,1c19.1-3.6,34.9-10.4,39.1-12.9c0,0,0,0.3-0.3,0.3
																c-4.9,4.9-18.4,13.6-37.9,17.1c-0.6,0-1,0.3-1.6,0.3C165,365.5,150.5,363.9,141.7,356.8L141.7,356.8z"/>
															<path class="st52" d="M142.1,356.8c11,1.9,21.7,4.5,41.7,1c19.1-3.6,34.9-10.4,39.1-12.9l-0.3,0.3
																c-4.9,4.9-18.4,13.6-37.9,17.1c-0.6,0-1,0.3-1.6,0.3C165,365.5,150.5,363.9,142.1,356.8z"/>
															<path class="st53" d="M142.1,356.8c11,1.9,21.7,4.5,41.7,1c19.1-3.6,34.9-10.4,39.1-12.9c-0.3,0-0.3,0.3-0.3,0.3
																c-4.9,4.9-18.8,13.6-37.9,17.1c-0.6,0-1,0.3-1.6,0.3C165,365.5,150.5,363.9,142.1,356.8z"/>
															<path class="st53" d="M142.1,356.8c11,1.9,21.7,4.5,41.7,1c19.1-3.6,34.9-10.4,38.8-12.9v0.3
																c-4.9,4.9-18.8,13.6-37.9,17.1c-0.6,0-1,0.3-1.6,0.3C165,365.5,150.5,363.9,142.1,356.8z"/>
															<path class="st54" d="M142.1,356.8c11,1.9,21.7,4.5,41.7,1c19.1-3.6,34.9-10.4,38.8-12.9v0.3
																c-4.9,4.9-18.8,13.6-37.9,17.1c-0.6,0-1,0.3-1.6,0.3C165,365.5,150.5,363.9,142.1,356.8z"/>
															<path class="st55" d="M142.1,356.8c11,1.9,21.7,4.5,41.7,1c19.1-3.6,34.9-10.4,38.8-12.6
																c-4.9,4.9-18.8,13.6-37.9,17.1c-0.6,0-1,0-1.6,0.3C165.4,365.5,150.5,363.9,142.1,356.8z"/>
															<path class="st56" d="M142.1,356.8c11,1.9,21.7,4.5,41.7,1c19.1-3.6,34.9-10.4,38.8-12.6
																c-4.9,4.9-18.8,13.6-37.9,17.1c-0.6,0-1,0-1.6,0.3C165.4,365.5,150.5,363.9,142.1,356.8z"/>
															<path class="st57" d="M142.4,356.8c10.7,1.9,21.4,4.5,41.4,1c19.1-3.6,34.9-10.4,38.8-12.6
																c-5.2,5.2-18.8,13.6-37.9,17.1c-0.6,0-1,0-1.6,0.3C165.4,365.5,150.8,363.9,142.4,356.8L142.4,356.8z"/>
															<path class="st58" d="M142.4,357.1c10.7,1.6,21.4,4.2,41.4,0.6c19.1-3.2,34.6-10.4,38.8-12.6h-0.3
																c-4.9,5.2-18.8,13.6-37.5,17.1c-0.6,0-1,0-1.6,0.3C165.4,365.5,150.8,363.9,142.4,357.1L142.4,357.1z"/>
															<path class="st59" d="M142.4,357.1c10.7,1.6,21.4,4.2,41.4,0.6c18.8-3.2,34.6-10,38.8-12.6h-0.3
																c-4.9,5.2-18.8,13.6-37.5,17.1c-0.6,0-1,0-1.6,0.3C165.4,365.5,150.8,363.9,142.4,357.1L142.4,357.1z"/>
															<path class="st60" d="M142.4,357.1c10.7,1.6,21.4,4.2,41.4,0.6c18.8-3.2,34.6-10,38.5-12.6v0.3
																c-4.9,4.9-18.8,13.3-37.5,16.8c-0.6,0-1,0-1.6,0.3C165.4,365.2,150.8,363.9,142.4,357.1L142.4,357.1z"/>
															<path class="st61" d="M142.4,357.1c10.7,1.6,21.4,4.2,41.4,0.6c18.8-3.2,34.6-10,38.5-12.6v0.3
																c-4.9,4.9-18.8,13.3-37.5,16.8h-1.6C165.7,365.2,150.8,363.9,142.4,357.1L142.4,357.1z"/>
															<path class="st62" d="M142.4,357.1c10.7,1.6,21.4,4.2,41.4,0.6c18.8-3.2,34.6-10,38.5-12.6v0.3
																c-4.9,4.9-18.8,13.3-37.5,16.8h-1.6C165.7,365.2,150.8,363.9,142.4,357.1L142.4,357.1z"/>
															<path class="st62" d="M142.7,357.1c10.4,1.6,21,4.2,41.1,0.6c18.8-3.2,34.6-10,38.5-12.6v0.3
																c-4.9,4.9-19.1,13.3-37.5,16.8h-1.6C165.7,365.2,150.8,363.9,142.7,357.1L142.7,357.1z"/>
															<path class="st63" d="M142.7,357.1c10.4,1.6,21,4.2,41.1,0.6c18.8-3.2,34.6-10,38.5-12.6v0.3
																c-4.9,4.9-19.1,13.3-37.5,16.8h-1.6C165.7,365.2,150.8,363.9,142.7,357.1L142.7,357.1z"/>
															<path class="st64" d="M142.7,357.1c10.4,1.6,21,4.2,41.1,0.6c18.8-3.2,34.6-10,38.5-12.3
																c-4.9,4.9-19.1,13.3-37.5,16.5c-0.6,0.3-1,0.3-1.6,0.3C165.7,365.2,151.1,363.9,142.7,357.1L142.7,357.1z"/>
															<path class="st65" d="M142.7,357.1c10.4,1.6,21,4.2,41.1,0.6c18.8-3.2,34.3-10,38.5-12.3H222
																c-4.5,4.9-18.8,13.3-37.2,16.5c-0.6,0.3-1,0.3-1.6,0.3C166,365.2,151.1,363.9,142.7,357.1L142.7,357.1z"/>
															<path class="st66" d="M142.7,357.1c10.4,1.6,21,4.2,41.1,1c18.8-3.6,34.3-10.4,38.2-12.6c0.3,0,0,0,0,0
																c-4.5,4.9-18.8,13.3-37.2,16.5c-0.6,0.3-1,0.3-1.6,0.3C166,365.2,151.1,363.9,142.7,357.1L142.7,357.1z"/>
															<path class="st67" d="M142.7,357.1c10.4,1.6,21,4.2,41.1,1c18.8-3.6,34.3-10.4,38.2-12.6
																c-4.5,4.9-19.1,13.3-37.2,16.5c-0.6,0.3-1,0.3-1.6,0.3C166,365.2,151.1,363.9,142.7,357.1L142.7,357.1z"/>
															<path class="st68" d="M143,357.1c10,1.6,20.7,4.5,40.8,1c18.8-3.6,34.3-10.4,38.2-12.6c-4.9,4.9-19.1,13.3-37.2,16.5
																c-0.6,0.3-1,0.3-1.6,0.3C166,365.2,151.1,363.9,143,357.1z"/>
															<path class="st69" d="M143,357.1c10,1.6,20.7,4.5,40.8,1c18.8-3.6,34.3-10.4,38.2-12.6c-4.9,4.9-19.1,13.3-37.2,16.5
																c-0.6,0.3-1,0.3-1.6,0.3C166,365.2,151.1,363.9,143,357.1z"/>
															<path class="st70" d="M143,357.1c10,1.6,20.7,4.5,40.8,1c18.4-3.6,34.3-10.4,38.2-12.6c-4.9,4.9-19.1,13.3-37.2,16.5
																c-0.6,0-1,0.3-1.6,0.3C166,365.2,151.1,363.9,143,357.1z"/>
															<path class="st71" d="M143,357.1c10,1.6,20.7,4.5,40.8,1c18.4-3.2,34.3-10,38.2-12.6v0.3
																c-4.9,4.5-19.1,12.9-37.2,16.2c-0.3,0-1,0.3-1.6,0.3C166.3,365.2,151.1,363.9,143,357.1z"/>
															<path class="st72" d="M143,357.1c10,1.9,20.7,4.5,40.8,1c18.4-3.2,34.3-10,38.2-12.6v0.3
																c-4.9,4.5-19.1,12.9-37.2,16.2c-0.3,0-1,0.3-1.6,0.3C166.3,364.9,151.4,363.9,143,357.1z"/>
															<path class="st73" d="M143,357.5c10,1.6,20.7,4.2,40.8,0.6c18.4-3.2,34-10,37.9-12.6c0.3,0,0.3,0.3,0.3,0.3
																c-4.9,4.5-19.4,12.9-37.2,16.2c-0.3,0-1,0.3-1.6,0.3C166.3,364.9,151.4,363.9,143,357.5z"/>
															<path class="st74" d="M143.4,357.5c9.7,1.6,20.4,4.2,40.4,0.6c18.4-3.2,34-10,37.9-12.6c0,0.3,0.3,0.3,0,0.3
																c-4.5,4.5-19.1,12.9-36.9,16.2c-0.3,0-1,0.3-1.6,0.3C166.3,364.9,151.4,363.9,143.4,357.5L143.4,357.5z"/>
															<path class="st75" d="M143.4,357.5c9.7,1.6,20.4,4.2,40.4,0.6c18.4-3.2,34-10,37.9-12.3
																c-4.5,4.5-19.1,12.9-36.9,16.2c-0.3,0-1,0.3-1.6,0.3C166.3,364.9,151.4,363.9,143.4,357.5L143.4,357.5z"/>
															<path class="st76" d="M143.4,357.5c9.7,1.6,20.4,4.2,40.4,0.6c18.4-3.2,34-10,37.9-12.3
																c-4.5,4.5-19.1,12.9-36.9,16.2c-0.3,0-1,0.3-1.6,0.3C166.3,364.9,151.4,363.9,143.4,357.5L143.4,357.5z"/>
															<path class="st77" d="M143.4,357.5c9.7,1.6,20.4,4.2,40.4,0.6c18.4-3.2,34-10,37.9-12.3
																c-4.5,4.5-19.1,12.9-36.9,16.2c-0.3,0-1,0-1.6,0.3C166.7,364.9,151.4,363.9,143.4,357.5L143.4,357.5z"/>
															<path class="st77" d="M143.4,357.5c9.7,1.6,20.4,4.2,40.4,0.6c18.4-3.2,34-10,37.9-12.3
																c-4.5,4.5-19.4,12.9-36.9,16.2c-0.3,0-1,0-1.6,0.3C166.7,364.9,151.4,363.9,143.4,357.5L143.4,357.5z"/>
															<path class="st78" d="M143.4,357.5c9.7,1.6,20.4,4.2,40.4,0.6c18.4-3.2,34-10,37.9-12.3
																c-4.9,4.9-19.4,12.9-36.9,16.2c-0.3,0-1,0-1.6,0.3C166.7,364.9,151.8,363.9,143.4,357.5L143.4,357.5z"/>
															<path class="st79" d="M143.7,357.5c9.4,1.6,20.1,4.2,40.1,0.6c18.4-3.2,34-10,37.9-12.3
																c-4.9,4.9-19.4,12.9-36.9,16.2c-0.3,0-1,0-1.6,0.3C166.7,364.9,151.8,363.6,143.7,357.5L143.7,357.5z"/>
															<path class="st80" d="M143.7,357.5c9.4,1.6,20.1,4.2,40.1,0.6c18.4-3.2,34-10,37.5-12.3h0.3
																c-4.9,4.9-19.4,12.9-36.9,16.2c-0.3,0-1,0-1.6,0.3C166.7,364.9,151.8,363.6,143.7,357.5L143.7,357.5z"/>
															<path class="st81" d="M143.7,357.5c9.4,1.6,20.1,4.2,39.8,0.6c18.4-3.2,34-10,37.9-12.3h0.3
																c-4.9,4.9-19.4,12.9-36.9,16.2h-1.6C166.7,364.9,151.8,363.6,143.7,357.5L143.7,357.5z"/>
															<path class="st82" d="M143.7,357.5c9.4,1.6,20.1,4.2,39.8,0.6c18.4-3.2,34-10,37.9-12.3
																c-4.5,4.9-19.1,12.9-36.6,16.2h-1.6C167,364.9,151.8,363.6,143.7,357.5L143.7,357.5z"/>
															<path class="st82" d="M143.7,357.5c9.4,1.6,20.1,4.2,39.8,0.6c18.4-3.2,34-9.7,37.9-12.3v0.3
																c-4.5,4.5-19.4,12.6-36.6,15.9h-1.3C167,364.9,151.8,363.6,143.7,357.5L143.7,357.5z"/>
															<path class="st83" d="M143.7,357.5c9.4,1.6,20.1,4.2,39.8,0.6c18.4-2.9,34-9.7,37.9-12c-4.5,4.5-19.4,12.6-36.6,15.9
																h-1.3C167,364.9,151.8,363.6,143.7,357.5z"/>
															<path class="st82" d="M144,357.5c9.1,1.6,19.7,4.2,39.5,1c18.4-3.2,34-10,37.9-12.3c-4.5,4.5-19.4,12.6-36.6,15.9
																h-1.3C167,364.6,151.8,363.6,144,357.5L144,357.5z"/>
															<path class="st84" d="M144,357.5c9.1,1.6,19.7,4.2,39.5,1c18.4-3.2,34-10,37.9-12.3c-4.5,4.5-19.4,12.6-36.6,15.5
																c-0.3,0.3-1,0.3-1.3,0.3C167,364.6,152.1,363.6,144,357.5L144,357.5z"/>
															<path class="st85" d="M144,357.5c9.1,1.6,19.7,4.2,39.5,1c18.4-3.2,34-10,37.5-12.3h0.3
																c-4.5,4.5-19.4,12.6-36.6,15.5c-0.3,0.3-1,0.3-1.3,0.3C167.3,364.6,152.1,363.6,144,357.5L144,357.5z"/>
															<path class="st86" d="M144,357.8c9.1,1.3,19.7,3.9,39.5,0.6c18.4-3.2,34-10,37.5-12.3h0.3
																c-4.5,4.5-19.7,12.6-36.6,15.5c-0.3,0.3-1,0.3-1.3,0.3C167.3,364.6,152.1,363.6,144,357.8L144,357.8z"/>
															<path class="st86" d="M144,357.8c9.1,1.3,19.7,3.9,39.5,0.6c18.4-3.2,33.6-10,37.5-12.3h0.3
																c-4.5,4.5-19.7,12.6-36.6,15.5c-0.3,0.3-1,0.3-1.3,0.3C167.3,364.6,152.1,363.6,144,357.8L144,357.8z"/>
															<path class="st87" d="M144,357.8c9.1,1.3,19.7,3.9,39.5,0.6c18.4-3.2,33.6-10,37.5-12.3
																c-4.5,4.5-19.4,12.6-36.2,15.5c-0.3,0.3-1,0.3-1.3,0.3C167.3,364.6,152.1,363.6,144,357.8L144,357.8z"/>
															<path class="st88" d="M144.3,357.8c9.1,1.3,19.4,3.9,39.1,0.6c18.4-3.2,33.6-10,37.5-12.3
																c-4.5,4.5-19.4,12.6-36.2,15.5c-0.3,0.3-1,0.3-1.3,0.3C167.3,364.6,152.1,363.6,144.3,357.8L144.3,357.8z"/>
															<path class="st89" d="M144.3,357.8c9.1,1.3,19.4,3.9,39.1,0.6c18.4-3.2,33.6-10,37.5-12.3
																c-4.5,4.5-19.4,12.6-36.2,15.5c-0.3,0-1,0.3-1.3,0.3C167.3,364.6,152.1,363.6,144.3,357.8L144.3,357.8z"/>
															<path class="st90" d="M144.3,357.8c9.1,1.3,19.4,3.9,39.1,0.6c18.1-3.2,33.6-10,37.5-12.3
																c-4.5,4.5-19.7,12.6-36.2,15.5c-0.3,0-1,0.3-1.3,0.3C167.6,364.6,152.1,363.6,144.3,357.8L144.3,357.8z"/>
															<path class="st91" d="M144.3,357.8c9.1,1.3,19.4,4.2,39.1,0.6c18.1-3.2,33.6-10,37.2-12l0.3-0.3
																c-4.5,4.5-19.7,12.6-36.2,15.5c-0.3,0-1,0.3-1.3,0.3C167.6,364.6,152.4,363.6,144.3,357.8L144.3,357.8z"/>
															<path class="st92" d="M144.3,357.8c9.1,1.3,19.4,4.2,39.1,0.6c18.1-3.2,33.6-10,37.2-12h0.3
																c-4.5,4.2-19.7,12.3-36.2,15.2c-0.3,0-1,0.3-1.3,0.3C167.6,364.6,152.4,363.6,144.3,357.8L144.3,357.8z"/>
															<path class="st92" d="M144.3,357.8c9.1,1.3,19.4,4.2,39.1,0.6c18.1-3.2,33.6-9.7,37.2-12h0.3
																c-4.5,4.2-19.7,12.3-36.2,15.2c-0.3,0-1,0.3-1.3,0.3C167.6,364.6,152.4,363.6,144.3,357.8L144.3,357.8z"/>
															<path class="st93" d="M144.7,357.8c8.7,1.3,19.1,4.2,38.8,0.6c18.1-3.2,33.6-9.7,37.2-12h0.3
																c-4.5,4.2-19.7,12.3-36.2,15.2c-0.3,0-1,0.3-1.3,0.3C167.6,364.6,152.4,363.6,144.7,357.8z"/>
															<path class="st93" d="M144.7,357.8c8.7,1.6,19.1,4.2,38.8,0.6c18.1-2.9,33.3-9.7,37.2-12h0.3
																c-4.5,4.2-19.7,12.3-36.2,15.2c-0.3,0-1,0-1.3,0.3C167.6,364.3,152.4,363.6,144.7,357.8z"/>
															<path class="st94" d="M144.7,357.8c8.7,1.6,19.1,4.2,38.8,0.6c18.1-2.9,33.3-9.7,37.2-12
																c-4.2,4.2-19.7,12.3-35.9,15.2c-0.3,0-1,0-1.3,0.3C167.9,364.3,152.4,363.6,144.7,357.8L144.7,357.8z"/>
															<path class="st94" d="M144.7,357.8c8.7,1.6,19.1,4.2,38.8,0.6c18.1-2.9,33.3-9.7,37.2-12
																c-4.2,4.2-19.7,12.3-35.9,15.2c-0.3,0-1,0-1.3,0.3C167.9,364.3,152.4,363.6,144.7,357.8L144.7,357.8z"/>
															<path class="st95" d="M144.7,357.8c8.7,1.6,19.1,4.2,38.8,0.6c18.1-2.9,33.3-9.7,37.2-12
																c-4.2,4.5-19.7,12.3-35.9,15.2c-0.3,0-1,0-1.3,0.3C167.9,364.3,152.7,363.6,144.7,357.8L144.7,357.8z"/>
															<path class="st95" d="M144.7,357.8c8.7,1.6,19.1,4.2,38.8,0.6c18.1-2.9,33.3-9.7,36.9-12h0.3
																c-4.5,4.5-19.7,12.3-35.9,15.2c-0.3,0-1,0-1.3,0.3C167.9,364.3,152.7,363.6,144.7,357.8L144.7,357.8z"/>
															<path class="st96" d="M145,357.8c8.4,1.6,18.8,4.2,38.5,0.6c18.1-2.9,33.3-9.7,36.9-12h0.3
																c-4.5,4.5-19.7,12.3-35.9,15.2h-1.3C167.9,364.3,152.7,363.6,145,357.8L145,357.8z"/>
															<path class="st97" d="M145,358.1c8.4,1.3,18.8,3.9,38.5,0.3c17.8-2.9,33.3-9.7,36.9-12h0.3
																c-4.5,4.5-20.1,12.3-35.9,15.2h-1.3C167.9,364.3,152.7,363.6,145,358.1L145,358.1z"/>
															<path class="st97" d="M145,358.1c8.4,1.3,18.8,3.9,38.5,0.3c17.8-2.9,33.3-9.7,36.9-11.6c0-0.3,0.3-0.3,0.3-0.3
																c-4.5,4.5-20.1,12.3-35.9,15.2h-1.3C168.3,364.3,152.7,363.6,145,358.1L145,358.1z"/>
															<path class="st98" d="M145,358.1c8.4,1.3,18.8,3.9,38.5,0.6c17.8-3.2,33-10,36.9-12c0,0,0-0.3,0.3-0.3
																c-4.5,4.5-20.1,12.3-35.6,15.2h-1.6C168.3,364.3,152.7,363.6,145,358.1z"/>
															<path class="st99" d="M145,358.1c8.4,1.3,18.8,3.9,38.5,0.6c17.8-3.2,33-10,36.9-12v-0.3
																c-4.2,4.5-19.7,12.3-35.3,15.2h-1.6C168.3,364.3,152.7,363.6,145,358.1z"/>
															<path class="st99" d="M145,358.1c8.4,1.3,18.8,3.9,38.5,0.6c17.8-3.2,33-10,36.9-12c-4.2,4.2-19.7,12-35.3,14.9h-1.6
																C168.3,364.3,152.7,363.6,145,358.1z"/>
															<path class="st100" d="M145.3,358.1c8.1,1.3,18.4,3.9,38.2,0.6c17.8-3.2,33-9.7,36.6-12h0.3
																c-4.2,4.2-19.7,12-35.3,14.6c-0.6,0.3-1.3,0.3-1.6,0.3C168.3,364.3,153.1,363.6,145.3,358.1z"/>
															<path class="st101" d="M145.3,358.1c8.1,1.3,18.4,3.9,38.2,0.6c17.8-3.2,33-9.7,36.6-12h0.3
																c-4.2,4.2-20.1,12-35.3,14.6c-0.6,0.3-1,0.3-1.6,0.3C168.3,364.3,153.1,363.6,145.3,358.1z"/>
															<path class="st102" d="M145.3,358.1c8.1,1.3,18.4,3.9,38.2,0.6c17.8-3.2,33-9.7,36.6-12h0.3
																c-4.2,4.2-20.1,12-35.3,14.6c-0.6,0.3-1,0.3-1.6,0.3C168.6,363.9,153.1,363.6,145.3,358.1z"/>
															<path class="st103" d="M145.3,358.1c8.1,1.3,18.4,3.9,38.2,0.6c17.8-2.9,33-9.7,36.6-12h0.3
																c-4.2,4.2-20.1,12-35.3,14.6c-0.6,0.3-1,0.3-1.6,0.3C168.6,363.9,153.1,363.6,145.3,358.1z"/>
															<path class="st104" d="M145.3,358.1c8.1,1.3,18.4,3.9,38.2,0.6c17.8-2.9,33-9.7,36.6-12h0.3
																c-4.2,4.2-20.1,12-35.3,14.6c-0.6,0.3-1,0.3-1.6,0.3C168.6,363.9,153.1,363.6,145.3,358.1z"/>
															<path class="st105" d="M145.3,358.1c8.1,1.3,18.4,3.9,38.2,0.6c17.8-2.9,33-9.7,36.6-12h0.3
																c-4.5,4.2-20.1,12-35.3,14.6c-0.6,0.3-1,0.3-1.6,0.3C168.6,363.9,153.1,363.6,145.3,358.1z"/>
															<path class="st106" d="M145.6,358.1c7.8,1.3,18.1,3.9,37.9,0.6c17.8-2.9,32.7-9.7,36.6-11.6c0-0.3,0-0.3,0.3-0.3
																c-4.5,4.2-20.4,12-35.3,14.6c-0.6,0-1,0.3-1.6,0.3C168.6,363.9,153.1,363.6,145.6,358.1z"/>
															<path class="st106" d="M145.6,358.1c7.8,1.3,18.1,3.9,37.9,0.6c17.5-2.9,32.7-9.7,36.2-11.6l0.3-0.3
																c-4.2,4.2-20.1,12-34.9,14.6c-0.6,0-1,0.3-1.6,0.3C168.9,363.9,153.1,363.6,145.6,358.1L145.6,358.1z"/>
															<path class="st107" d="M145.6,358.1c7.8,1.3,18.1,3.9,37.9,0.6c17.5-2.9,32.7-9.7,36.2-11.6c0.3,0,0.3-0.3,0.3-0.3
																c-4.2,4.2-20.1,12-34.9,14.6c-0.6,0-1,0.3-1.6,0.3C168.9,363.9,153.4,363.6,145.6,358.1L145.6,358.1z"/>
															<path class="st107" d="M145.6,358.1c7.8,1.3,18.1,3.9,37.9,0.6c17.5-2.9,32.7-9.7,36.2-11.6c0.3,0,0.3-0.3,0.3-0.3
																c-4.2,4.2-20.1,12-34.9,14.6c-0.6,0-1,0.3-1.6,0.3C168.9,363.9,153.4,363.6,145.6,358.1L145.6,358.1z"/>
															<path class="st107" d="M145.6,358.1c7.8,1.3,18.1,3.9,37.9,0.6c17.5-2.9,32.7-9.7,36.2-11.6c0.3,0,0.3,0,0.3-0.3
																c-4.2,4.2-20.1,12-34.9,14.6c-0.6,0-1,0.3-1.6,0.3C168.9,363.9,153.4,363.6,145.6,358.1L145.6,358.1z"/>
															<path class="st108" d="M145.6,358.4c7.8,1,18.1,3.9,37.9,0.3c17.5-2.9,32.7-9.7,36.2-11.6h0.3
																c-4.2,3.9-20.4,11.6-34.9,14.2c-0.6,0-1,0-1.6,0.3C168.9,363.9,153.4,363.6,145.6,358.4L145.6,358.4z"/>
															<path class="st108" d="M145.9,358.4c7.4,1,17.8,3.9,37.5,0.3c17.5-2.9,32.7-9.7,36.2-11.6h0.3
																c-4.2,3.9-20.4,11.6-34.9,14.2c-0.6,0-1,0-1.6,0.3C168.9,363.9,153.4,363.6,145.9,358.4L145.9,358.4z"/>
															<path class="st109" d="M145.9,358.4c7.4,1,17.8,3.9,37.5,0.3c17.5-2.9,32.7-9.4,36.2-11.6h0.3
																c-4.2,3.9-20.4,11.6-34.9,14.2c-0.6,0-1,0-1.6,0.3C169.2,363.9,153.4,363.6,145.9,358.4L145.9,358.4z"/>
															<path class="st109" d="M145.9,358.4c7.4,1,17.8,3.9,37.5,0.3c17.5-2.9,32.4-9.4,35.9-11.6h0.6
																c-4.2,3.9-20.4,11.6-34.9,14.2c-0.6,0-1,0-1.6,0.3C169.2,363.9,153.4,363.6,145.9,358.4L145.9,358.4z"/>
															<path class="st109" d="M145.9,358.4c7.4,1,17.8,3.9,37.5,0.3c17.5-2.9,32.4-9.4,35.9-11.6h0.3
																c-3.9,4.2-20.1,11.6-34.6,14.2c-0.6,0-1,0-1.6,0.3C169.2,363.9,153.7,363.6,145.9,358.4L145.9,358.4z"/>
															<path class="st110" d="M145.9,358.4c7.4,1.3,17.8,3.9,37.5,0.6c17.5-3.2,32.4-9.7,35.9-11.6l0.3-0.3
																c-4.2,4.2-20.1,11.6-34.6,14.2h-1.6C169.2,363.6,153.7,363.6,145.9,358.4L145.9,358.4z"/>
															<path class="st111" d="M145.9,358.4c7.4,1.3,17.8,3.9,37.5,0.6c17.5-2.9,32.4-9.7,35.9-11.6l0.3-0.3
																c-4.2,4.2-20.4,11.6-34.6,14.2h-1.6C169.2,363.6,153.7,363.6,145.9,358.4L145.9,358.4z"/>
															<path class="st111" d="M146.3,358.4c7.1,1.3,17.5,3.9,37.2,0.6c17.5-2.9,32.4-9.7,35.9-11.6c0-0.3,0.3-0.3,0.3-0.3
																c-4.2,4.2-20.4,11.6-34.6,14.2h-1.6C169.2,363.6,153.7,363.6,146.3,358.4L146.3,358.4z"/>
															<path class="st112" d="M146.3,358.4c7.1,1.3,17.5,3.9,37.2,0.6c17.1-2.9,32.4-9.7,35.9-11.6l0.3-0.3
																c-4.2,4.2-20.4,11.6-34.6,14.2h-1.6C169.6,363.6,153.7,363.6,146.3,358.4L146.3,358.4z"/>
															<path class="st113" d="M146.3,358.4c7.1,1.3,17.5,3.9,37.2,0.6c17.1-2.9,32.4-9.7,35.9-11.6l0.3-0.3
																c-4.2,4.2-20.4,11.6-34.6,14.2h-1.6C169.6,363.6,153.7,363.6,146.3,358.4L146.3,358.4z"/>
															<path class="st114" d="M146.3,358.4c7.1,1.3,17.5,3.9,37.2,0.6c17.1-2.9,32.4-9.7,35.9-11.6c0,0,0-0.3,0.3-0.3
																c-4.2,4.2-20.4,11.6-34.6,14.2h-1.6C169.6,363.6,153.7,363.6,146.3,358.4L146.3,358.4z"/>
															<path class="st115" d="M146.3,358.4c7.1,1.3,17.5,3.9,37.2,0.6c17.1-2.9,32-9.7,35.6-11.6c0.3,0,0.3,0,0.6-0.3
																c-4.2,4.2-20.7,11.6-34.6,14.2h-1.6C169.6,363.6,153.7,363.6,146.3,358.4L146.3,358.4z"/>
															<path class="st116" d="M146.3,358.4c7.1,1.3,17.5,3.9,37.2,0.6c17.1-2.9,32-9.7,35.6-11.6h0.6
																c-4.2,3.9-20.7,11.3-34.6,13.6c-0.6,0.3-1,0.3-1.6,0.3C169.6,363.6,154,363.6,146.3,358.4z"/>
															<path class="st116" d="M146.6,358.4c6.8,1.3,17.1,3.9,36.9,0.6c17.1-2.9,32-9.7,35.6-11.6h0.3
																c-3.9,3.9-20.4,11.3-34.3,13.6c-0.6,0.3-1,0.3-1.6,0.3C169.6,363.6,154,363.6,146.6,358.4L146.6,358.4z"/>
															<path class="st117" d="M146.6,358.4c6.8,1.3,17.1,3.9,36.9,0.6c17.1-2.9,32-9.7,35.6-11.6h0.3
																c-3.9,3.9-20.4,11.3-34.3,13.6c-0.6,0.3-1,0.3-1.6,0.3C169.9,363.6,154,363.6,146.6,358.4L146.6,358.4z"/>
															<path class="st118" d="M146.6,358.4c6.8,1.3,17.1,3.9,36.9,0.6c17.1-2.9,32-9.4,35.6-11.6h0.3
																c-3.9,3.9-20.4,11.3-34.3,13.6c-0.6,0.3-1,0.3-1.6,0.3C169.9,363.6,154,363.6,146.6,358.4L146.6,358.4z"/>
															<path class="st119" d="M146.6,358.8c6.8,1,17.1,3.6,36.9,0.3c17.1-2.9,32-9.4,35.6-11.3c0-0.3,0.3-0.3,0.3-0.3
																c-3.9,3.9-20.4,11.3-34.3,13.6c-0.6,0.3-1,0.3-1.3,0.3C169.9,363.6,154,363.6,146.6,358.8L146.6,358.8z"/>
															<path class="st120" d="M146.6,358.8c6.8,1,17.1,3.6,36.9,0.3c17.1-2.9,32-9.4,35.6-11.3c0-0.3,0.3-0.3,0.3-0.3
																c-4.2,3.9-20.7,11.3-34.3,13.6c-0.6,0-1,0.3-1.3,0.3C169.9,363.6,154,363.6,146.6,358.8L146.6,358.8z"/>
															<path class="st121" d="M146.6,358.8c6.8,1,17.1,3.6,36.9,0.3c17.1-2.9,32-9.4,35.3-11.3c0.3-0.3,0.6-0.3,0.6-0.3
																c-4.2,3.9-20.7,11.3-34.3,13.6c-0.6,0-1,0.3-1.3,0.3C169.9,363.3,154,363.6,146.6,358.8L146.6,358.8z"/>
															<path class="st121" d="M146.9,358.8c6.5,1,16.8,3.6,36.6,0.3c17.1-2.9,32-9.4,35.3-11.3c0.3,0,0.3-0.3,0.6-0.3
																c-4.2,3.9-20.7,11.3-34.3,13.6c-0.6,0-1,0.3-1.3,0.3C170.2,363.3,154,363.6,146.9,358.8L146.9,358.8z"/>
															<path class="st122" d="M146.9,358.8c6.5,1,16.8,3.6,36.6,0.3c16.8-2.6,31.7-9.4,35.3-11.3c0.3,0,0.3-0.3,0.6-0.3
																c-4.2,3.9-20.7,11.3-34.3,13.6c-0.6,0-1,0.3-1.3,0.3C170.2,363.3,154.4,363.6,146.9,358.8L146.9,358.8z"/>
															<path class="st123" d="M146.9,358.8c6.5,1,16.8,3.6,36.6,0.3c16.8-2.6,31.7-9.4,35.3-11.3c0.3,0,0.3-0.3,0.3-0.3
																c-3.9,3.9-20.4,11.3-34,13.6c-0.6,0-1,0.3-1.3,0.3C170.2,363.3,154.4,363.6,146.9,358.8L146.9,358.8z"/>
															<path class="st123" d="M146.9,358.8c6.5,1,16.8,3.6,36.6,0.3c16.8-2.6,31.7-9.4,35.3-11.3c0.3,0,0.3-0.3,0.3-0.3
																c-3.9,3.9-20.7,11.3-34,13.6c-0.6,0-1,0.3-1.3,0.3C170.2,363.3,154.4,363.6,146.9,358.8L146.9,358.8z"/>
															<path class="st124" d="M146.9,358.8c6.5,1,16.8,3.6,36.6,0.3c16.8-2.6,31.7-9.4,35.3-11.3c0,0,0.3,0,0.3-0.3
																c-3.9,3.9-20.7,11.3-34,13.6c-0.6,0-1,0-1.3,0.3C170.2,363.3,154.4,363.6,146.9,358.8L146.9,358.8z"/>
															<path class="st125" d="M146.9,358.8c6.5,1,16.8,3.6,36.6,0.3c16.8-2.6,31.7-9.4,35.3-11.3c0,0,0.3,0,0.3-0.3
																c-3.9,3.9-20.7,11.3-34,13.6c-0.6,0-1,0-1.3,0.3C170.2,363.3,154.4,363.6,146.9,358.8L146.9,358.8z"/>
															<path class="st126" d="M147.2,358.8c6.1,1,16.8,3.6,36.2,0.6c16.8-2.9,31.7-9.7,34.9-11.6h0.6
																c-3.9,3.6-20.7,11-34,13.3c-0.6,0-1,0-1.3,0.3C170.5,363.3,154.4,363.6,147.2,358.8z"/>
															<path class="st127" d="M147.2,358.8c6.1,1,16.8,3.6,36.2,0.6c16.8-2.9,31.7-9.7,34.9-11.3c0.3-0.3,0.6-0.3,0.6-0.3
																c-3.9,3.6-20.7,11-34,13.3c-0.6,0-1,0-1.3,0.3C170.5,363.3,154.4,363.6,147.2,358.8z"/>
															<path class="st128" d="M147.2,358.8c6.1,1,16.8,3.9,36.2,0.6c16.8-2.9,31.7-9.7,34.9-11.3c0.3-0.3,0.3-0.3,0.6-0.3
																c-3.9,3.6-21,11-34,13.3h-1.3C170.5,363.3,154.7,363.6,147.2,358.8z"/>
															<path class="st128" d="M147.2,358.8c6.1,1,16.8,3.9,36.2,0.6c16.8-2.9,31.4-9.4,34.9-11.3c0.3-0.3,0.3-0.3,0.6-0.3
																c-3.9,3.9-21,11-34,13.3h-1.3C170.5,363.3,154.7,363.6,147.2,358.8z"/>
															<path class="st128" d="M147.2,358.8c6.1,1,16.8,3.9,36.2,0.6c16.8-2.9,31.4-9.4,34.9-11.3c0.3-0.3,0.3-0.3,0.6-0.3
																c-4.2,3.9-21,11-34,13.3h-1.3C170.5,363.3,154.7,363.6,147.2,358.8z"/>
															<path class="st129" d="M147.2,358.8c6.1,1,16.8,3.9,36.2,0.6c16.8-2.9,31.4-9.4,34.9-11.3l0.3-0.3
																c-3.9,3.9-20.7,11-33.6,13.3h-1.3C170.5,363.3,154.7,363.6,147.2,358.8z"/>
															<path class="st130" d="M183.8,361c-12.9,1.9-29.1,2.6-36.2-1.9c5.8,0.6,16.5,3.6,35.9,0.3
																c17.8-2.9,33.3-10.4,35.3-11.6C214.9,351.6,196.7,359.1,183.8,361L183.8,361z"/>
														</g>
													</g>
												</g>
											</g>
										</g>
									</g>
								</g>
							</g>
						</g>
					</g>
				</g>
			</g>
		</g>
	</g>
</g>
</svg>
