<?xml version="1.0" encoding="utf-8"?>
<!-- Generator: Adobe Illustrator 22.1.0, SVG Export Plug-In . SVG Version: 6.00 Build 0)  -->
<svg version="1.1" id="Layer_2_1_" xmlns="http://www.w3.org/2000/svg" xmlns:xlink="http://www.w3.org/1999/xlink" x="0px" y="0px"
	 viewBox="0 0 640 480" style="enable-background:new 0 0 640 480;" xml:space="preserve">
<style type="text/css">
	.st0{fill:#0E7C4E;}
</style>
<g>
	<g>
		<path class="st0" d="M91.1,218.5c1.8-68.3,12-128.6,42.4-183.9c5.1-9.3,11.3-18,17.8-26.4c8-10.4,9.2-10.4,20.3-2.8
			C192.5,19.5,207.1,39,219,60.6c24.2,43.9,35.7,91.5,39.9,141.2c4.7,56.9-0.5,112.7-18,167.1c-8.9,27.8-21.4,53.8-40.4,76.4
			c-5.6,6.6-10.4,7.6-17.9,2.9c-20.8-13.2-35.4-31.7-47.4-52.6c-23.4-40.6-35.4-84.8-40.5-131.1C92.7,247.3,92,229.9,91.1,218.5z"/>
		<path class="st0" d="M491.6,307.8c16.1,2.6,32.3,5.3,48.4,7.7c9.5,1.4,10.1,6.5,7.5,14.4c-8.1,24.7-24,44.2-42.8,61.1
			c-56.8,51-124,78.7-199.4,87.3c-24.2,2.8-48.3,2.6-72-3.8c-13.3-3.6-13.8-4.7-9.4-18.2c8.7-26.9,27.6-46.2,48.1-64.2
			C327.2,343.3,417.6,309.6,491.6,307.8z"/>
		<path class="st0" d="M422.4,158c-1.1,62.9-49.9,135.4-104.9,155.2c-14.4,5.2-17.4,4-21.8-10.4c-8.4-27.8-4-54.9,6.1-81.3
			c16.8-44.3,44.1-80.1,87.8-100.6c23.5-11.1,24.2-10.4,30.4,15.2C421.7,143.1,421.7,150.7,422.4,158z"/>
	</g>
</g>
</svg>
