<?xml version="1.0" encoding="utf-8"?>
<!-- Generator: Adobe Illustrator 22.1.0, SVG Export Plug-In . SVG Version: 6.00 Build 0)  -->
<svg version="1.1" id="Layer_2_1_" xmlns="http://www.w3.org/2000/svg" xmlns:xlink="http://www.w3.org/1999/xlink" x="0px" y="0px"
	 viewBox="0 0 640 480" style="enable-background:new 0 0 640 480;" xml:space="preserve">
<style type="text/css">
	.st0{fill:#084A8D;}
	.st1{fill:#E20938;}
</style>
<g>
	<path class="st0" d="M383.6,8.6l-13.3,4.3c-14.9,4.8-28.6,9.4-42.5,13.8c-13.8,4.4-27.7,8.1-40.8,12.9
		c-17.5,6.4-34.8,13.3-51.9,20.7c-2.2,0.9-4,2.2-5.5,3.7c-1.5,1.5-2.8,3.4-3.8,6c-0.4,0.9-0.4,1.4-0.4,1.8c0,0.2,0,0.4,0.1,0.6
		c0.1,0.2,0.1,0.5,0.3,0.8c0.3,0.6,0.9,1.6,1.6,2.9c1.8,2.7,4,4.8,6.8,6.6c2.8,1.8,6.2,3.4,9.9,4.8c2.2,0.9,5.5,2.1,9.5,3.6
		c4,1.5,8.6,3.2,13.6,5c9.8,3.6,20.6,7.4,28.9,10.3c5.5,1.9,10,3.5,12.3,4.2c9.9,3.3,19.5,6.7,29.2,9.8c7.7,2.4,15.7,4.4,23.8,6.9
		c3.8,1.2,7.1,2.6,10,3.7l6.1,2.3l-2,6.2c-0.2,0.6-0.4,1.2-0.6,1.8l-1,3.2l-3.1,1.1c-13.6,5-27.1,10-40.7,15c-2,0.7-4.3,1.7-6.8,2.6
		c-2.5,0.9-5.3,1.7-8.5,1.9c-0.7,0.1-1.3,0.1-2,0.1c-2.6,0-5-0.4-7.2-0.9c-2.3-0.5-4.4-1.1-6.3-1.8c-11.9-3.9-23.9-7.7-35.8-12.4
		c-14.5-5.8-28.7-12.3-42.8-19c-2.3-1.1-4.2-2.6-5.7-4.2c-1.5-1.6-2.7-3.4-3.6-5.2c-1.8-3.5-2.7-7-3.6-9.7c-3.9-12.6-5-25.3-5-37.8
		c0-6.6,0.4-13.1,0.8-19.6c0.4-5.5,1.1-11.2,2.5-17c0.8-3.3,1.9-6.5,3.2-9.7C133.6,67.4,82.2,146.6,82.2,237.8
		c0,111,76.1,204.3,179,230.5l1.6-0.6c3.4-1.3,7.1-2.9,11.1-4.1c10.9-3.5,21.9-7,32.8-10.3c11.7-3.6,23.4-7,34.6-10.7
		c10.6-3.6,21.1-7.7,31.7-11.9c4.6-1.8,9-3.4,13.3-5.1c4.3-1.8,8.4-3.6,12-5.7c1.6-0.9,3.3-2.4,5-4.3c1.7-1.9,3.3-4.1,4.7-6.4v-0.1
		l0,0c0-0.1,0-0.2-0.1-0.5c-0.1-0.3-0.2-0.6-0.4-1.1c-0.4-0.9-1.1-1.9-1.9-3c-2.1-2.9-4.6-5.1-7.7-7c-3-1.9-6.5-3.5-10.5-5
		c-10.3-3.9-20.3-8.1-30.3-11.8c-8.6-3.2-17.6-6-26.6-9c-10.1-3.3-20-6.8-30-9.9c-7.7-2.4-15.7-4.4-23.8-6.9
		c-5.1-1.5-9.9-3.2-15.9-5.2l-14.7-4.8l13.5-7.5c1.5-0.8,2.9-1.7,4.4-2.6c1.5-0.9,3.2-1.9,5.3-2.6c15.8-5.7,31.7-11.4,47.8-16.6
		c1.5-0.5,2.8-0.6,4-0.6c2.3,0,4.3,0.5,6,1s3.3,1.1,4.5,1.5c3.9,1.3,9.9,3.6,17,6.4c7.1,2.7,15.3,6,23.4,9.2
		c16.2,6.5,31.9,12.8,37.6,15.2c1.9,0.8,3.5,1.7,5,2.8c1.5,1.1,2.7,2.3,3.8,3.7c2.2,2.6,3.5,5.4,4.5,8c0.7,1.8,1.2,3.4,1.8,4.9
		c4.1,12.6,5.4,25.3,5.4,37.8c0,8.1-0.5,16.1-1.1,23.9c-0.5,5.7-1.9,11.1-3.5,16.2c-0.8,2.3-1.5,4.4-2.3,6.6
		c79.7-38.4,134.7-120,134.7-214.4C558,128.5,484.2,36.3,383.6,8.6z M422.5,256.1c-0.6,2.1-1.6,4.1-2.6,5.8
		c-2.2,3.5-4.9,6.1-7.7,8.5c-5.3,4.5-11,8.2-16.9,11.2c-6,3-12.3,5.3-18.9,7c-2.4,0.6-6.5,1.9-11.4,3.3c-4.9,1.5-10.6,3.2-16.2,5
		c-11.3,3.5-22.2,7-26.2,8.2c-9.1,2.8-18.2,5.8-27.3,8.9c-9.3,3.2-18.5,6.2-27.4,9.7c-12.3,4.8-24.4,9.4-35.5,15.1
		c-0.5,0.2-1.1,0.7-1.8,1.3s-1.3,1.4-2,2.3c-1.4,1.8-2.8,4.1-4,6.4v0.1c0,0.1,0,0.2,0.1,0.4s0.2,0.6,0.5,1.1
		c0.5,0.9,1.2,2.1,2.2,3.3c1,1.4,2.1,2.6,3.3,3.7c1.2,1.1,2.6,2,4.2,3c3.1,1.8,6.7,3.3,10.6,5c12.6,5.1,25.2,9.9,38,14.3
		c13.4,4.6,27.2,8.6,40.9,13.1c12.3,4,24.4,8.1,36.5,12c3.1,1,6.7,1.8,10.5,2.7l3.3,0.9l1.3,3.2c0.2,0.4,0.4,0.8,0.5,1.2l2.6,6.3
		l-6.3,2.5c-5.3,2.1-10.7,4.4-16.3,6.5c-9.3,3.4-18.7,6.8-28.2,10c-2,0.7-4.2,1.6-6.7,2.5c-2.5,0.9-5.1,1.7-8.2,2.1l0,0
		c-0.6,0.1-1.2,0.1-1.7,0.1c-1.3,0-2.5-0.2-3.6-0.4c-1.1-0.2-2-0.5-3-0.8c-1.8-0.6-3.3-1.2-4.4-1.6c-9.4-3.2-18.9-6.2-28.4-9.8
		c-8.8-3.3-18-6.4-27.2-10.1c-9.2-3.7-18.3-8-26.9-14c-1.7-1.2-3-2.6-4.1-4c-1.1-1.5-2-3-2.7-4.5c-1.5-3-2.5-6-3.3-8.6
		c-4-12.6-5.3-25.3-5.3-37.7c0-7.2,0.4-14.4,1-21.4c0.9-11.4,4.6-22.5,9.1-32.4c0.9-2.1,2.3-3.7,3.7-5.1c1.4-1.4,2.9-2.5,4.4-3.5
		c3-1.9,6.2-3.4,8.9-4.5C244,278,258.6,272.5,273,267c11.3-4.3,22.8-8.4,34.5-12.1c7.8-2.5,37.7-12,58.1-18.7
		c6.8-2.3,12.6-4.2,15.9-5.4c5.4-2,10.6-4.6,15.5-7.9c5-3.3,9.9-7.1,14.8-11.5l10.3-9.2l0.9,13.8c0.1,1.2,0.2,2.2,0.2,3.2
		c0.1,1,0.1,2,0.1,3v0.1l0,0l0,0c-0.1,6-0.4,11.7-0.4,17.2c0,2.7,0.1,5.3,0.2,7.8c0.1,0.7,0.1,1.3,0.1,2
		C423.5,251.7,423.1,254,422.5,256.1z M429.1,153.4c-0.6,9.7-3.7,18.9-7.1,27.1c-1.1,2.6-2.6,5-4.3,6.9c-1.8,1.9-3.7,3.5-5.7,4.8
		c-4,2.6-8.1,4.3-11.7,5.8c-14.9,6-29.9,11.7-45.1,17.1c-13,4.6-26.2,8.5-39.1,12.6c-15.7,5-31.4,9.3-46.3,14.8
		c-6.8,2.5-13.5,4.8-19.8,7.6c-6.3,2.7-12.1,5.8-17.3,9.8c-3.8,2.9-7.6,6.2-12.3,10.2l-11.1,9.2v-14.4c0-6.7,0.1-13.1,0.1-19.4
		c0-4.7,0-9.4-0.1-14l0,0c0-0.2,0-0.4,0-0.5c0-2.9,0.5-5.8,1.6-8.4c1.1-2.6,2.7-5,4.8-7c4.1-4,8.5-8.3,14-11.9
		c5.7-3.7,11.7-6.4,17.7-8.6c6-2.2,12.1-3.9,18-5.4c0.4-0.1,1.1-0.3,2-0.6c0.9-0.2,2-0.6,3.2-1c2.5-0.8,5.7-1.8,9.3-2.9
		c7.3-2.3,16.5-5.3,26.3-8.5c19.6-6.4,41.5-13.6,54.7-18.2c3.8-1.3,6.8-2.4,8.9-3.2c1.1-0.4,1.9-0.7,2.2-0.9
		c5.8-2.5,11.4-4.3,16.5-6.5c5.1-2.1,9.6-4.5,13.4-7.8c1.9-1.6,3.2-3,4.1-4.3c0.9-1.3,1.4-2.3,1.6-3.2c0.2-0.6,0.2-1.1,0.2-1.5
		c0-0.6-0.1-1.3-0.4-2c-0.3-0.7-0.8-1.6-1.5-2.5c-1.5-1.8-3.9-3.9-7.1-5.8c-4.2-2.5-8.8-4.7-13.7-6.7c-4.8-2-10-3.9-15.1-5.8
		c-13-5-26.2-9.6-39.5-14.1c-9.3-3.2-19-5.7-28.9-8.9c-10.2-3.2-20.2-6.7-30.3-9.8c-1.6-0.5-3.6-1.1-5.7-1.8
		c-2.1-0.7-4.4-1.6-6.8-2.9l-13.5-7.3l14.5-5.1c10.4-3.6,20.8-7.2,31.1-10.9c3.4-1.2,7-2.6,10.7-4c3.7-1.4,7.5-2.7,11.6-3.8
		c2.6-0.7,5.3-1,8.1-1c2.9,0,5.8,0.4,8.6,1.1c10.2,2.9,20,6.4,29.6,10c13.1,5,26.1,10.2,39,15.5c2.3,0.9,4.3,2,6.1,3
		c1.8,1,3.4,1.8,5,2.5c2.3,1,4.4,2.3,6.2,3.9c1.8,1.5,3.2,3.3,4.3,5c2.3,3.6,3.6,7.2,4.6,10.5c4.1,13.1,5.3,26.2,5.3,39
		C430.1,137.4,429.6,145.5,429.1,153.4z"/>
	<path class="st1" d="M216.1,264.8c0-11.5,0.2-22.6-0.1-33.6c-0.1-4.4,1.4-8.1,4.3-10.9c4.1-4,8.2-8,13-11.1
		c10.3-6.7,22-10,33.8-13.1c10.2-2.7,98.6-31.6,107.5-35.5c10.7-4.7,22.5-7.4,31.7-15.3c14-12.1,8.6-22.7-4-30.2
		c-9.2-5.5-19.7-9.1-29.8-13c-13.1-5.1-26.5-9.8-39.8-14.3c-9.6-3.2-19.4-5.8-29-8.9c-10.1-3.2-20.2-6.6-30.2-9.8
		c-3.7-1.2-7.4-2-11.3-4.1c10.4-3.6,20.7-7.2,31.1-10.9c7.2-2.6,14.3-5.7,21.7-7.7c4.1-1.1,9-1.1,13.1,0.1c9.8,2.7,19.4,6.2,29,9.9
		c13,4.9,25.9,10.2,38.8,15.4c3.8,1.5,7.2,3.8,11,5.4c6.8,2.9,9.3,9,11.3,15.2c6.2,19.9,5.3,40.4,4,60.7c-0.5,8.5-3.4,17.1-6.6,24.9
		c-3.1,7.5-10.8,10.9-17.9,13.7c-14.8,6-29.7,11.7-44.8,17c-12.8,4.6-25.9,8.4-38.8,12.6c-15.5,5-31.4,9.2-46.6,14.9
		c-13.4,5-27.3,9.5-38.9,18.4C224.5,257.6,220.7,261,216.1,264.8z"/>
	<path class="st1" d="M370,415.2c-5.4,2.2-10.7,4.4-16.1,6.4c-9.3,3.4-18.7,6.7-28,10c-4.4,1.6-8.8,3.7-13.4,4.2
		c-3.1,0.4-6.5-1.3-9.8-2.4c-9.4-3.2-18.9-6.2-28.2-9.8c-18-6.8-36.7-12.2-52.7-23.3c-3.9-2.7-6-8.7-7.6-13.6
		c-5.9-18.5-5.5-37.6-4-56.5c0.8-10.3,4.3-20.7,8.5-30.1c2-4.4,8.5-7.5,13.6-9.7c14.2-6.1,28.6-11.6,43-17
		c11.3-4.3,22.6-8.4,34.1-12c10.5-3.3,60.1-19.2,74.3-24.3c12-4.4,22.3-11.6,32.5-20.7c0.2,2.6,0.4,4.2,0.4,5.8
		c-0.1,8.5-0.7,17.1-0.1,25.6c0.6,7.9-3.5,12.9-8.8,17.4c-9.7,8.2-20.9,13.5-33.2,16.8c-10.2,2.7-46.3,14.1-54.1,16.5
		c-9.2,2.9-18.3,5.9-27.5,9c-9.3,3.2-18.6,6.2-27.7,9.8c-12.2,4.8-24.5,9.4-36.1,15.4c-4.6,2.4-8.1,7.9-10.7,12.8
		c-2.3,4.1,0.4,8.4,3.1,12.1c5.3,7.4,13.3,10.7,21.1,13.9c12.6,5.1,25.4,10,38.3,14.4c13.6,4.7,27.4,8.7,41.1,13.1
		c12.2,3.9,24.3,8.1,36.5,12c3.6,1.2,7.2,1.9,10.8,2.9C369.7,414.3,369.8,414.7,370,415.2z"/>
	<path class="st1" d="M368.3,138.9c-13.6,5-27.1,10-40.7,15c-4.4,1.6-8.9,3.7-13.4,4.1c-4.3,0.4-8.8-0.9-13-2.2
		c-11.9-3.9-23.8-7.6-35.4-12.3c-14.3-5.8-28.4-12.1-42.4-18.9c-5.8-2.8-7.6-9.3-9.3-15c-5.5-18-5.3-36.6-4-55
		c0.7-10.5,2.6-21.4,8.3-30.7c2-3.2,6.1-5.8,9.8-7.2c10.6-3.9,21.4-7.8,32.4-10.4c9.9-2.4,20.2-3.6,30.4-4.6
		c11.7-1.1,23.5-2.1,35.2-1.8c10,0.2,20.1,2.3,30.1,3.6c2,0.2,4.2,0,6.2,0.5c1.7,0.4,3.3,1.4,5.5,2.3c-14.9,4.8-28.7,9.4-42.5,13.8
		c-13.7,4.4-27.6,8.1-41,13c-17.6,6.4-35.1,13.4-52.3,20.9c-5.7,2.5-10.3,6.7-13,13.4c-2,5.3-0.1,8.5,2.2,12.1
		c4.7,7.4,12.1,11,19.9,14.1c12,4.8,55.2,20.1,64.6,23.2c9.8,3.2,19.4,6.7,29.3,9.8c7.9,2.5,15.9,4.6,23.9,7c3.3,1,6.4,2.4,9.6,3.6
		C368.7,137.8,368.5,138.4,368.3,138.9z"/>
	<path class="st1" d="M265.3,474.1c3.6-1.3,7.1-2.9,10.7-4c10.9-3.5,21.8-7,32.8-10.3c11.6-3.6,23.3-6.9,34.8-10.8
		c10.7-3.7,21.4-7.8,31.9-12c8.9-3.5,18-6.6,26.2-11.3c4.9-2.8,8.9-8,12-12.9c2.6-4,0.1-8.6-2.6-12.3c-5.3-7.3-13-11.2-21.1-14.3
		c-10.2-3.9-20.2-8.1-30.4-11.8c-8.9-3.3-17.9-6.1-26.8-9.1c-10-3.3-20-6.8-30.1-9.9c-7.9-2.5-15.9-4.6-23.9-6.9
		c-4.8-1.5-9.6-3.1-15.8-5.1c3.4-1.9,5.8-3.7,8.6-4.7c15.8-5.7,31.6-11.4,47.6-16.5c3-0.9,7,0.6,10.3,1.8
		c14.8,5.1,66.4,26,77.7,30.7c7.1,2.9,9.2,9.2,11.2,15.2c6.4,19.3,5.5,39.3,4,59.1c-0.8,9.9-5,19.6-8.4,29.1
		c-0.9,2.4-4.7,4.1-7.6,5.2c-10.3,3.7-20.6,7.7-31.2,10.3c-9.8,2.4-19.8,3.9-29.8,4.7c-15.2,1.2-30.4,1.9-45.6,1.8
		c-8.5-0.1-16.9-2.3-25.4-3.5c-2.9-0.4-5.7-0.5-8.6-0.8C265.5,475.1,265.4,474.6,265.3,474.1z"/>
</g>
</svg>
