<?xml version="1.0" encoding="utf-8"?>
<!-- Generator: Adobe Illustrator 19.1.1, SVG Export Plug-In . SVG Version: 6.00 Build 0)  -->
<svg version="1.1" id="Layer_2" xmlns="http://www.w3.org/2000/svg" xmlns:xlink="http://www.w3.org/1999/xlink" x="0px" y="0px"
	 viewBox="22 180.9 640 480" style="enable-background:new 22 180.9 640 480;" xml:space="preserve">
<style type="text/css">
	.st0{fill:#00CBA0;}
</style>
<path class="st0" d="M505.8,368.2c-45.5-28.6-102.6-31.6-150.6-9l-0.1-0.1c-26.1,11.7-56.6,7-77.9-12.1c-1-0.9-2-1.8-2.9-2.7
	l-96.6-96.7c0,0-0.1,0-0.1-0.1c-6.2-7-9.2-16.3-8.1-25.6c0,0-0.1,0-0.1,0c3.4-18-8.4-35.3-26.4-38.7s-35.3,8.4-38.7,26.4
	c-3.4,18,8.4,35.3,26.4,38.7c4.1,0.8,8.2,0.8,12.3,0l0,0.1c9.1-1,18.6,1.5,25.8,8c0,0,0.1,0.1,0.1,0.1l97.1,97.1
	c0.8,0.8,1.4,1.7,2.2,2.5c19.1,21.3,23.8,51.9,12,78l0.1,0.1c-22.6,48-19.7,105.1,8.9,150.6c6.2,10,13.6,19.2,21.9,27.5
	c27.1,27.1,63,43.1,98.5,46.3c9.3,0.8,141.6,0.4,141.6,0.4c7.2,0,14.5-3.6,19.6-8.6s9.3-13.1,9.3-20.3V501.8
	c0-6.4-1.4-15.6-1.5-16.9c-3.1-35.5-18.2-67.7-45.3-94.8C525,381.8,515.8,374.4,505.8,368.2 M514.3,475.5
	c3.7,18.3,3.9,26.3,3.9,27.5V568c0,7.2-3.2,15.6-8.3,20.7c-5.1,5.1-13.5,8.3-20.7,8.3h-63.1c-1.2,0-16-0.2-29.6-3.9
	c-15.7-4.4-30-12.8-41.5-24.4c-37.1-37.1-37.1-97.5,0-134.6s97.7-37.1,134.8,0C501.7,445.9,511.2,460,514.3,475.5"/>
</svg>
