<?xml version="1.0" encoding="utf-8"?>
<!-- Generator: Adobe Illustrator 19.2.1, SVG Export Plug-In . SVG Version: 6.00 Build 0)  -->
<svg version="1.1" id="Layer_1" xmlns="http://www.w3.org/2000/svg" xmlns:xlink="http://www.w3.org/1999/xlink" x="0px" y="0px"
	 viewBox="0 0 640 480" style="enable-background:new 0 0 640 480;" xml:space="preserve">
<style type="text/css">
	.st0{fill-rule:evenodd;clip-rule:evenodd;fill:#00ABAD;}
</style>
<path class="st0" d="M154.3,458.5V369c51.2,16,96.4,24.1,135.9,24.1c54.4,0,81.5-14.3,81.5-42.9c0-10.7-4-19.6-11.8-26.9
	c-8.1-7.7-28.9-18.4-62.3-32c-59.9-24.5-99-45.4-117.2-62.7c-23.6-22.8-35.3-51.6-35.3-86.3c0-44.8,17.2-78.9,51.5-102.4
	C230.4,16.6,274.6,5,329,5c30,0,73.5,5.5,130.3,16.5v86.1C417,90.8,377.8,82.4,341.5,82.4c-51,0-76.6,14-76.6,41.9
	c0,10.5,5.1,19,15.4,25.6c8.6,5.3,32.2,16.6,70.7,33.9c55.6,24.5,92.5,45.9,111,64c21.9,21.6,32.8,49.4,32.8,83.6
	c0,49.1-21.4,86.5-64.4,112.2c-34.7,20.9-79.8,31.4-135.1,31.4C248.7,475,201.6,469.5,154.3,458.5L154.3,458.5z"/>
</svg>
