<?xml version="1.0" encoding="utf-8"?>
<!-- Generator: Adobe Illustrator 21.1.0, SVG Export Plug-In . SVG Version: 6.00 Build 0)  -->
<svg version="1.1" id="Layer_1" xmlns="http://www.w3.org/2000/svg" xmlns:xlink="http://www.w3.org/1999/xlink" x="0px" y="0px"
	 viewBox="0 0 2498 2500" style="enable-background:new 0 0 2498 2500;" xml:space="preserve">
<style type="text/css">
	.st0{fill:#FFFC00;}
	.st1{fill:#FFFFFF;}
	.st2{fill:#020202;}
	.st3{fill:none;}
</style>
<path class="st0" d="M0,1864.1v0.1c1.5,55.5,2,111.3,11.3,166.5c9.9,58.4,24.1,115.2,51.2,168.2c36.6,71.7,86.8,132.2,150.2,181.7
	c45.5,35.5,95.3,63.7,150.3,81.5c80.3,25.9,163.1,35.8,247.1,36.3c52.4,0.3,104.8,1.6,157.2,1.4c380.8-1.6,761.7,2.7,1142.5-2.4
	c50.5-0.7,100.2-6.8,149.8-15.9c95.1-17.4,179.1-58,251-122.1c83.8-74.7,140.3-166.2,165.8-276.5c16.7-72.1,20.9-145.3,21.6-218.8
	v-14.7c0-5.7-2.2-1247.9-2.4-1264.3c-0.6-45.1-3.9-89.9-12.3-134.2c-10.3-54.1-24.8-106.8-50.7-155.7
	c-27.3-51.7-61.6-98.2-104-138.8c-64.9-62.2-139.8-106.2-227-129.5c-78.7-21-159.1-25.7-240-25.6c-0.1,0-0.4-0.8-0.5-1.2H636.4
	c0,0.4,0,0.8-0.1,1.2c-45.9,0.8-91.9,0.5-137.6,6.2c-50.1,6.2-99.6,15.6-147,33.1c-74.6,27.6-139.5,70.6-194.8,128
	c-62.7,65-107,140.2-130.4,227.8C5.5,474.4,0.9,554.1,0.8,634.4"/>
<path class="st1" d="M1260.3,2109.3c-5.2,0-10.1-0.2-13.9-0.4c-3,0.3-6.1,0.4-9.2,0.4c-109,0-181.9-51.5-246.2-97
	c-46.1-32.6-89.6-63.3-140.5-71.8c-25-4.1-49.9-6.3-73.9-6.3c-43.3,0-77.5,6.7-102.5,11.6c-15.4,3-28.6,5.6-38.9,5.6
	c-10.7,0-23.8-2.4-29.2-20.9c-4.3-14.6-7.4-28.8-10.4-42.5c-7.5-34.1-12.9-55-25.7-56.9c-136.7-21.1-217.5-52.2-233.6-89.8
	c-1.6-3.8-2.6-7.8-2.8-11.9c-0.6-11.2,7.3-21.1,18.3-22.9c108.6-17.9,205.1-75.3,286.9-170.6c63.4-73.8,94.5-144.3,97.9-152.1
	c0.1-0.4,0.3-0.7,0.5-1.1c15.8-32,18.9-59.7,9.4-82.2c-17.6-41.5-76-60-114.5-72.3c-9.6-3-18.7-5.9-25.9-8.8
	c-34.2-13.5-90.5-42.1-83-81.5c5.5-28.7,43.5-48.8,74.2-48.8c8.5,0,16.1,1.5,22.5,4.5c34.7,16.3,65.9,24.5,92.8,24.5
	c33.4,0,49.5-12.7,53.4-16.3c-1-18.2-2.1-36.5-3.3-54.7c-7.8-124.7-17.6-279.9,22.1-368.9c118.8-266.4,370.8-287.2,445.2-287.2
	c12.3-0.1,24.6-0.2,36.8-0.3c74.6,0,327.1,20.7,446,287.3c39.7,89.1,29.9,244.4,22,369.3l-0.4,6c-1.1,17-2.1,33-2.9,48.6
	c3.7,3.4,18.4,15,48.5,16.2c25.6-1,55-9.2,87.4-24.4c10-4.7,21.1-5.7,28.6-5.7c11.4,0,23,2.2,32.6,6.2l0.5,0.2
	c27.5,9.8,45.5,29.3,45.9,49.8c0.3,19.1-13.8,47.6-83.7,75.2c-7.2,2.8-16.3,5.7-25.9,8.8c-38.6,12.3-96.9,30.8-114.5,72.3
	c-9.6,22.5-6.4,50.2,9.4,82.2c0.2,0.3,0.3,0.7,0.5,1.1c4.9,11.4,122.4,279.5,384.8,322.7c11.1,1.8,19,11.7,18.4,22.9
	c-0.3,4.1-1.2,8.2-2.9,12c-16,37.4-96.7,68.4-233.5,89.6c-12.8,2-18.2,22.7-25.6,56.7c-3.1,14-6.2,27.8-10.4,42.2
	c-4,13.6-12.8,20.2-27,20.2h-2.1c-9.3,0-22.4-1.7-38.9-4.9c-28.9-5.6-61.3-10.9-102.5-10.9c-24,0-48.9,2.1-74,6.3
	c-50.9,8.5-94.3,39.2-140.4,71.7C1442.2,2057.7,1369.3,2109.3,1260.3,2109.3"/>
<path class="st2" d="M1266.8,412.7c70.2,0,312,18.9,426,274.3c37.5,84.1,27.9,236.5,20.2,358.9c-1.2,19.4-2.4,38.3-3.4,56.2
	l-0.4,7.7l5.2,5.8c2.1,2.3,21.6,22.7,65,24.4l0.7,0l0.7,0c28.7-1.1,61-10,96.1-26.4c5.2-2.4,12-3.6,19.3-3.6
	c8.3,0,17.1,1.6,24.4,4.6l1.1,0.4c18.4,6.4,31.4,18.6,31.6,29.6c0.1,6.2-4.5,28.6-69.8,54.4c-6.4,2.5-14.8,5.2-24.5,8.3
	c-42.4,13.5-106.5,33.8-128.1,84.7c-12.1,28.6-8.8,62.4,9.9,100.4c7.7,18,128.8,290.8,401.4,335.7c-0.1,1.5-0.5,3-1.1,4.4
	c-4.6,10.9-34,48.5-216.7,76.7c-28.6,4.4-35.6,36.4-43.7,73.7c-2.9,13.3-5.9,26.8-10,40.7c-1.3,4.2-1.5,4.4-6,4.4h-2.1
	c-8.1,0-20.4-1.7-34.7-4.5c-26-5.1-61.4-11.3-106.8-11.3c-25.3,0-51.4,2.2-77.5,6.6c-55.9,9.3-101.4,41.5-149.6,75.5
	c-64.7,45.7-131.5,93-233.5,93c-4.5,0-8.8-0.2-13.2-0.4l-1.1,0l-1.2,0.1c-2.5,0.2-5,0.3-7.6,0.3c-102,0-168.9-47.3-233.5-93
	c-48.2-34-93.7-66.2-149.6-75.5c-26.1-4.4-52.2-6.6-77.5-6.6c-45.3,0-80.9,6.9-106.8,12c-14.3,2.8-26.6,5.2-34.7,5.2
	c-6.6,0-6.7-0.4-8.1-5.2c-4.1-13.9-7.1-27.7-10-41c-8.1-37.3-15.2-69.5-43.7-73.9c-182.7-28.2-212.1-65.9-216.7-76.7
	c-0.6-1.4-1-2.9-1.1-4.5c272.6-44.9,393.7-317.7,401.4-335.8c18.7-38,22.1-71.8,9.9-100.4c-21.6-50.8-85.7-71.2-128.1-84.6
	c-9.7-3.1-18.1-5.8-24.5-8.3c-55.1-21.8-72-43.7-69.5-57c2.9-15.3,29.5-30.9,52.6-30.9c5.2,0,9.8,0.8,13.1,2.4
	c37.6,17.6,72,26.6,102.1,26.6c47.4,0,68.5-22,70.7-24.6l5.1-5.7l-0.4-7.7c-1-18-2.1-36.8-3.4-56.2
	c-7.7-122.4-17.3-274.7,20.2-358.8C918.4,432.7,1159,413,1230,413c1.7,0,32.6-0.3,32.6-0.3C1263.9,412.7,1265.3,412.7,1266.8,412.7
	 M1266.8,368.8L1266.8,368.8c-1.7,0-3.2,0-4.7,0l-32.2,0.3c-41.6,0-124.9,5.9-214.3,45.4c-51.1,22.6-97.1,53.1-136.7,90.6
	c-47.2,44.8-85.6,100-114.2,164.2c-41.9,93.9-31.9,252.1-24,379.3l0,0.2c0.9,13.6,1.8,27.8,2.6,41.7c-6.1,2.8-16.1,5.8-30.8,5.8
	c-23.6,0-51.7-7.6-83.5-22.4c-9.3-4.4-20-6.6-31.8-6.6c-18.9,0-38.8,5.6-56.1,15.7c-21.8,12.8-35.8,30.8-39.6,50.9
	c-2.5,13.2-2.4,39.4,26.7,66c16,14.6,39.5,28.1,69.8,40.1c8,3.1,17.4,6.1,27.4,9.3c34.7,11,87.2,27.7,100.9,59.9
	c6.9,16.3,4,37.9-8.9,63.9c-0.3,0.7-0.7,1.4-1,2.1c-3.2,7.5-33.1,75.1-94.3,146.5c-34.8,40.6-73.2,74.5-113.9,100.8
	c-49.7,32.1-103.5,53.2-159.9,62.4c-22.1,3.6-38,23.4-36.7,45.8c0.4,6.5,1.9,12.9,4.5,19.1l0.1,0.1c9,20.9,29.7,38.7,63.5,54.4
	c41.2,19.2,102.9,35.3,183.3,47.9c4.1,7.7,8.3,27.1,11.2,40.4c3.1,14.1,6.2,28.7,10.8,44.1c4.9,16.7,17.6,36.7,50.3,36.7
	c12.4,0,26.6-2.8,43.1-6c24.1-4.7,57.1-11.2,98.3-11.2c22.8,0,46.5,2,70.3,6c45.9,7.6,85.5,35.6,131.3,68
	c67.1,47.4,143,101.1,258.9,101.1c3.2,0,6.3-0.1,9.5-0.3c3.8,0.2,8.6,0.3,13.6,0.3c116,0,191.9-53.7,258.9-101l0.1-0.1
	c45.8-32.4,85.4-60.3,131.3-67.9c23.8-4,47.5-6,70.3-6c39.4,0,70.5,5,98.3,10.4c18.2,3.6,32.3,5.3,43.1,5.3l1.1,0h1.1
	c23.9,0,41.4-13.1,48.1-36.1c4.4-15.1,7.6-29.3,10.8-43.7c2.7-12.5,7.1-32.4,11.2-40.2c80.4-12.6,142.1-28.7,183.3-47.9
	c33.7-15.6,54.4-33.4,63.4-54.2c2.7-6.3,4.3-12.7,4.6-19.3c1.3-22.4-14.6-42.1-36.7-45.8c-250.6-41.3-363.5-298.8-368.1-309.7
	c-0.3-0.7-0.6-1.4-1-2.1c-12.8-26-15.8-47.5-8.8-63.9c13.7-32.2,66.2-48.9,100.9-59.9c10.1-3.2,19.5-6.2,27.4-9.3
	c34.2-13.5,58.6-28.2,74.8-44.8c19.3-19.8,23-38.8,22.8-51.3c-0.6-30.1-23.6-56.8-60.2-69.9c-12.4-5.1-26.5-7.8-40.8-7.8
	c-9.8,0-24.2,1.3-37.9,7.7c-29.3,13.7-55.6,21.2-78.1,22.3c-12-0.6-20.4-3.2-25.8-5.7c0.7-11.7,1.4-23.8,2.2-36.4l0.3-5.4
	c8-127.2,18-285.6-23.9-379.6c-28.7-64.4-67.3-119.7-114.7-164.6c-39.7-37.6-85.9-68.1-137.2-90.7
	C1391.7,374.6,1308.5,368.8,1266.8,368.8"/>
<path class="st3" d="M0,0.8h2498v2498H0V0.8z"/>
</svg>
