<?xml version="1.0" encoding="utf-8"?>
<!-- Generator: Adobe Illustrator 21.1.0, SVG Export Plug-In . SVG Version: 6.00 Build 0)  -->
<svg version="1.1" id="Layer_1" xmlns="http://www.w3.org/2000/svg" xmlns:xlink="http://www.w3.org/1999/xlink" x="0px" y="0px"
	 viewBox="0 0 2500 2500" style="enable-background:new 0 0 2500 2500;" xml:space="preserve">
<style type="text/css">
	.st0{fill:#FFFFFF;}
	.st1{fill:#CC1E4C;}
</style>
<g>
	<path class="st0" d="M0,0h2500v2500H0V0z"/>
	<path class="st1" d="M2463.2,1268.5V36.8H36.8v1231.8H2463.2z"/>
	<path d="M2463.2,2463.2V1250H36.8v1213.2H2463.2z"/>
	<path class="st0" d="M2002.6,1285v-35H497.4v35H2002.6z M622.8,1486.5v8.2l4.1,6.2l6.2,2h92.5l10.3-2l6.2-2.1l4.1-2l4.1-4.1h2
		l-8.2,30.9h-183v-4.1h6.2l6.2-4.1l2.1-4.1l2.1-8.2v-123.4l-2.1-6.2l-2.1-6.2l-6.2-2l-6.2-2.1v-2.1h183v26.7h-2.1v-2l-4.1-2
		l-4.1-4.1h-111v47.3h104.9v20.5H622.8V1486.5L622.8,1486.5z M1139,1486.5v8.2l4.1,6.2l4.1,2h92.5l10.3-2l6.2-2.1l4.1-2l2.1-4.1h4.1
		l-8.2,30.9h-181v-4.1h6.2l6.2-4.1l2.1-4.1l2-8.2v-123.4l-2-6.2l-2.1-6.2l-6.2-2l-6.2-2.1v-4.1h181v28.8h-2.1l-2-2l-2-2l-4.1-4.1
		h-109v47.3h104.9v18.5H1139V1486.5L1139,1486.5z M2099.2,1486.5v8.2l4.1,6.2l6.1,2h92.5l10.3-2l6.2-2.1l4.1-2l4.1-4.1h2l-8.2,30.9
		h-183v-4.1h8.2l6.2-4.1l2-4.1l2.1-8.2v-123.4l-2.1-6.2l-2-6.2l-6.2-2l-8.2-2.1v-4.1h183v28.8h-2v-2l-4.1-2l-4.1-4.1h-111.1v47.3
		h107v18.5h-107L2099.2,1486.5L2099.2,1486.5z M2004.7,1521.4l8.2-28.8h-2l-4.1,4.1l-4.1,2l-8.2,2.1l-10.3,2H1908l-6.1-4.1l-4.1-4.1
		v-115.2l2.1-8.2l2.1-4.1l6.1-4.1h6.2v-4.1h-78.1v4.1h6.2l6.2,4.1l2,4.1l2,8.2v123.4l-2,6.2l-2,6.2l-6.2,2.1l-6.2,2v4.1
		L2004.7,1521.4L2004.7,1521.4z M491.2,1354.9h2v41.1h-2l-6.2-4.1l-6.2-6.2l-8.2-2l-10.3-4.1l-8.2-2.1h-10.3l-10.3-2h-10.3l-22.6,2
		l-18.5,4.1l-16.5,6.2l-12.3,8.2l-10.3,10.3l-6.2,10.3l-4.1,12.3l-2,14.4v6.2l2,10.3l4.1,10.3l6.2,10.3l12.3,10.3l16.5,10.3
		l22.6,6.2l30.9,2h12.3l10.3-2l12.3-2l10.3-2.1v-39.1l-2.1-6.2l-2-6.2l-6.2-2l-6.2-2.1v-2.1H522v2.1l-2,2.1l-4.1,2l-2,4.1v59.6
		l-10.3,2.1l-8.2,2l-10.3,4.1l-10.3,2l-12.3,2h-10.3l-12.3,2.1h-14.4l-39.1-2.1l-32.9-6.1l-24.7-8.2l-18.5-12.3l-14.4-12.3
		l-10.3-14.4l-4.1-14.4l-2.1-16.5l2.1-18.5l8.2-18.5l10.3-14.4l16.5-12.3l18.5-10.3l22.6-8.2l26.7-4.1l26.7-2h16.4l8.2,2h8.2l8.2,2
		h6.2l8.2,2h20.6l2-4.1L491.2,1354.9L491.2,1354.9z M993,1523.5h22.6v-148.1l2.1-6.2l4.1-4.1l10.3-2.1v-4.1h-57.6v4.1h6.2l6.2,4.1
		l2.1,4.1l2,8.2v86.4l-6.2-6.1L859.3,1359h-61.7v4.1h8.2l4.1,4.1l4.1,4.1v139.8l-4.1,4.1l-4.1,4.1h-8.2v4.1h57.6v-4.1H849l-6.2-4.1
		l-2-4.1l-2.1-8.2V1398l6.2,6.2L993,1523.5L993,1523.5z M1453.6,1451.5l14.4-2l14.4-2.1l12.3-4.1l10.3-6.1l8.2-6.2l6.2-6.2l2.1-8.2
		l2-8.2l-2-12.3l-4.1-10.3l-8.2-8.2l-12.3-6.2l-14.4-6.1l-14.4-4.1l-18.5-2h-135.7v4.1h6.2l6.2,4.1l2,4.1l2.1,8.2v123.4l-2.1,6.2
		l-2,6.2l-6.2,2.1l-6.2,2v4.1h76.1v-4.1l-6.1-2l-6.2-2.1l-2-6.2l-2-6.2v-121.3l6.2-2h10.3l8.2-2.1h18.5l10.3,2.1h12.3l10.3,4.1
		l8.2,4.1l8.2,4.1l4.1,8.2l2.1,8.2v6.2l-4.1,6.2l-4.1,6.2l-6.2,4.1l-8.2,2l-12.3,4.1h-14.4l-16.4,2h-20.6v2l88.4,80.2h69.9v-2.1
		h-4.1l-4.1-2l-10.3-4.1l-12.3-10.3L1453.6,1451.5L1453.6,1451.5z M1673.6,1400.1l-39.1,59.6h76.1L1673.6,1400.1z M1817.5,1521.4v2
		h-82.3v-2l6.2-2l2-4.1l2-4.1l-2-6.2l-18.5-26.7h-102.8l-20.5,30.9l-2.1,6.2l2.1,2.1l2,4.1h4.1v2h-49.3v-2l4.1-2l6.2-2l4.1-4.1
		l4.1-6.2l74-111l6.2-18.5l-4.1-10.3l-6.2-4.1h-4.1v-2h55.5l98.7,144l4.1,6.2l6.2,6.2l4.1,2L1817.5,1521.4L1817.5,1521.4z"/>
	<path d="M1461.8,1145.1v8.2l4.1,4.1l4.1,4.1h88.4l10.3-2.1l6.2-2l4.1-2.1l4.1-4.1h2.1l-6.2,28.8h-176.9v-2.1l6.2-2.1l6.2-2l2.1-6.2
		l2-6.2v-119.3l-2-6.2l-2.1-6.2l-6.2-2.1l-6.2-2.1v-2H1577v26.7h-2.1v-2.1l-2-2l-4.1-2.1h-106.9v43.2h100.7v20.6h-100.7
		L1461.8,1145.1L1461.8,1145.1z M1287,1178l6.2-2.1l6.2-2l2-6.2l2-6.2v-119.3l-2-6.2l-2-6.2l-6.2-2.1l-6.2-2.1v-2h76.1v2l-6.2,2.1
		l-6.2,2.1l-2,6.2l-2,6.2v119.3l2,6.2l2,6.2l6.2,2l6.2,2.1v2.1H1287V1178z M1675.7,1042.3v125.4l-4.1,6.2l-4.1,2l-6.1,2.1v2.1h74
		v-2.1l-6.2-2.1l-6.2-2l-2-6.2l-2.1-6.2v-119.3h59.6l4.1,4.1l2.1,2l2.1,2.1h2l-4.1-26.7h-174.8l-4.1,26.7h2l2-2.1l4.1-2l4.1-4.1
		H1675.7z M1248,1169.8l10.3-37h-2.1l-8.2,8.2l-8.2,8.2l-10.3,4.1l-12.3,4.1l-10.3,4.1l-12.3,2l-12.3,2h-12.3l-24.7-2l-20.6-6.2
		l-14.4-8.2l-10.3-10.3l-6.2-10.3l-4.1-10.3l-2-8.2v-8.2l2-18.5l6.2-12.3l10.3-12.3l12.3-8.2l12.3-6.2l14.4-4.1l12.3-2h22.6l10.3,2
		l10.3,2.1l12.3,2l10.3,4.1l10.3,6.2l8.2,6.2l6.2,8.2h2v-47.3h-2l-2.1,4.1l-2.1,2.1h-6.2l-10.3-2.1h-8.2l-8.2-2l-8.2-2h-8.2
		l-8.2-2.1h-20.6l-35,2.1l-28.8,8.2l-22.6,8.2l-16.5,12.3l-12.3,14.4l-6.2,14.4l-4.1,12.3l-2.1,10.3l2.1,18.5l8.2,16.4l10.3,14.4
		l16.5,10.3l18.5,10.3l22.6,8.2l24.7,4.1l28.8,2h18.5l10.3-2l10.3-2.1l10.3-2l10.3-2.1l10.3-4.1L1248,1169.8L1248,1169.8z
		 M738,1099.9l2.1-16.5l8.2-16.4l10.3-14.4l16.5-12.3l18.5-10.3l22.6-8.2l24.7-4.1l28.8-2.1l28.8,2.1l24.7,4.1l22.6,8.2l18.5,10.3
		l14.4,12.3l12.3,14.4l6.2,16.4l2.1,16.5l-2.1,18.5l-6.2,16.5l-12.3,14.4l-14.4,12.3l-18.5,10.3l-22.6,8.2l-24.7,4.1l-28.8,2.1
		l-28.8-2.1l-24.7-4.1l-22.6-8.2l-20.6-10.3l-14.4-12.3l-10.3-14.4l-8.2-16.5L738,1099.9z M869.6,1167.8l18.5-2.1l16.5-2l14.4-6.2
		l10.3-8.2l10.3-10.3l6.2-10.3l4.1-14.4l2-14.4l-2-14.4l-4.1-12.3l-6.2-10.3l-10.3-10.3l-12.3-8.2l-14.4-6.2l-14.4-2.1l-18.5-2
		l-18.5,2l-16.5,2.1l-14.4,6.2l-10.3,8.2l-10.3,10.3l-6.2,10.3l-4.1,12.3l-2.1,14.4l2.1,14.4l4.1,14.4l6.2,10.3l10.3,10.3l10.3,8.2
		l14.4,6.2l16.5,2L869.6,1167.8z M676.3,1139l-4.1,10.3l-10.3,6.2l-16.4,6.2l-16.4,2h-35l-18.5-2l-18.5-2.1l-18.5-6.2l-14.4-6.2
		l-14.4-10.3l-10.3-10.3h-2.1v55.5h2.1l2.1-4.1l4.1-2.1l4.1-4.1h6.2l6.2,2h8.2l12.3,2l12.3,2.1l14.4,2.1l14.4,2l18.5,2.1h18.5
		l20.6-2.1l16.4-2l16.5-4.1l14.4-6.2l10.3-8.2l8.2-8.2l4.1-10.3l2.1-12.3l-2.1-14.4l-6.2-10.3l-12.3-8.2l-12.3-6.2l-18.5-6.2
		l-20.6-2l-20.6-4.1l-24.7-2.1l-24.7-4.1l-16.4-2.1l-10.3-4.1l-4.1-8.2v-4.1l4.1-6.2l16.4-8.2l30.8-4.1h18.5l14.4,2.1l14.4,2
		l16.5,2.1l14.4,6.2l12.3,6.2l8.2,10.3h2.1v-45.2h-2.1l-2.1,2.1l-2,4.1h-18.5l-6.2-2l-8.2-2h-10.3l-14.4-2.1l-14.4-2.1h-30.9
		l-24.7,2.1l-20.6,6.2L522,1032l-10.3,6.2l-6.2,8.2l-6.2,8.2l-2.1,6.2v6.2l2.1,12.3l6.2,10.3l8.2,8.2l10.3,4.1l12.3,4.1l14.4,2
		l14.4,2.1l16.4,2l26.7,4.1l20.6,2l16.4,4.1l12.3,2.1l8.2,2l6.2,2.1l4.1,4.1L676.3,1139L676.3,1139z M1885.4,1145.1v8.2l4.1,4.1
		l6.2,4.1h88.4l10.3-2.1l6.2-2l4.1-2.1l2.1-4.1h4.1l-8.2,28.8h-174.8v-2.1l6.2-2.1l6.2-2l2-6.2l2-6.2v-119.3l-2-6.2l-2-6.2l-6.2-2.1
		l-6.2-2.1v-2h174.8v26.7h-2v-2.1l-4.1-2l-4.1-2.1h-106.9v43.2h102.8v20.6h-102.8L1885.4,1145.1L1885.4,1145.1z"/>
</g>
</svg>
