<?xml version="1.0" encoding="utf-8"?>
<!-- Generator: Adobe Illustrator 22.1.0, SVG Export Plug-In . SVG Version: 6.00 Build 0)  -->
<svg version="1.1" id="Layer_2_1_" xmlns="http://www.w3.org/2000/svg" xmlns:xlink="http://www.w3.org/1999/xlink" x="0px" y="0px"
	 viewBox="0 0 640 480" style="enable-background:new 0 0 640 480;" xml:space="preserve">
<g>
	<path d="M287.8,300.6c0-1.7,0-3.1,0-4.8c0.8-0.1,1.4-0.3,2-0.3c10.4-0.6,11.3-1.4,11.3-11.7c0-29,0-58,0-87c0-1.3,0.1-2.6-0.1-3.9
		c-0.5-5.7-2.1-7.3-7.8-7.8c-1.8-0.2-3.5-0.2-5.5-0.3c-0.1-1.7-0.2-3-0.2-4.3c0.5-0.3,0.7-0.7,1-0.7c20.4,0.3,40.8,0.2,61.2,1
		c5.3,0.2,10.8,2.2,15.6,4.6c18,9.2,19.3,32.9,2.3,44c-4.9,3.2-10.7,5-15.8,7.3c9.6,1.2,19.2,3.6,26.9,10.9
		c14.1,13.6,10.1,38.1-7.9,47.7c-7.8,4.2-16.3,5.4-24.9,5.5c-18.6,0.3-37.3,0.1-55.9,0.1C289.3,300.8,288.6,300.7,287.8,300.6z
		 M313.9,239.6c0,17.3-0.1,33,0,48.7c0,3.3,1.4,5.8,5.1,5.7c10.5-0.2,21.1,0.2,31.6-0.8c14.4-1.5,22-10.7,23-25.5
		c0.7-12-6.8-22.5-20-24.8C340.8,240.7,327.7,240.6,313.9,239.6z M313.9,233.7c12.3-0.4,24.1,1.3,35.6-2.7
		c11.2-3.9,17.7-13,16.7-23.8c-1-11.1-7.9-18.5-20.2-19.9c-9.1-1.1-18.4-0.8-27.6-1c-3.4-0.1-4.5,2-4.5,5
		C313.9,205.2,313.9,219.1,313.9,233.7z"/>
	<path d="M76.1,206c-2,0.4-3.9,0.8-5.8,1.2c-1.1-3.7-2-7.1-3.1-10.4c-2.2-6.7-6.8-10.9-13.9-12.1c-7.7-1.3-15.5-1.5-23,1.2
		c-15.6,5.6-18.9,21.9-6,32.3c5.9,4.7,12.8,8.1,19.5,11.8c7.3,4.1,15.1,7.5,22.2,11.9c15.2,9.6,20.3,27.7,12.3,42.7
		c-4.8,9.1-13,13.8-22.5,16.3c-15.9,4.2-31.5,2-46.9-2.9c-1.2-0.4-2.4-2-2.7-3.3c-1.8-7.4-3.3-14.9-5-22.8c1.6-0.4,3.4-1,5.5-1.6
		c1.2,3.1,2.2,5.9,3.3,8.7c3.6,9.3,10.2,15.3,20.3,16.6c9.8,1.4,19.4,1.3,28.2-4.3c12.2-7.8,14.6-24.1,4.5-34.4
		c-4.5-4.6-10.6-7.8-16.2-11.2c-9.9-5.9-20.3-10.7-29.9-17c-11.2-7.3-15.3-20-11.3-31.4c3.4-9.7,10.8-15.2,20.3-17.8
		c14.4-4,28.8-3,43.1,1.3c1.3,0.4,3.1,1.7,3.3,2.9C73.8,190.9,74.8,198.2,76.1,206z"/>
	<path d="M559.1,192.8c1.3-1.8,1.9-3.4,2.9-3.8c6.4-2.2,12.8-4.1,20-6.3c0,24.6,0,49.6,0,74.5c0.4,0.1,0.8,0.3,1.3,0.4
		c9-9.3,17.9-18.6,26.9-27.9c-0.9-2.6-7.6,0.2-5.2-6.1c7.4,0,15-0.1,22.5,0.1c1,0.1,2,1.8,3.6,3.3c-14.5,3.5-20.5,15.5-30.9,22.9
		c9.6,14.4,18.5,28.3,28.2,41.9c1.9,2.7,6.3,3.7,10.3,5.9c0-0.1,0,1.2,0,3c-5.9,0-11.7,0.2-17.4-0.2c-1.3-0.1-2.9-1.7-3.8-3
		c-7.6-11.7-15.1-23.4-22.7-35.1c-0.9-1.5-2-2.9-3.5-5.1c-2.7,3-5.1,5.5-7.3,8.3c-0.9,1.2-1.4,2.9-1.4,4.3c-0.2,5.7-0.1,11.3-0.1,17
		c0,7.8,0.9,8.7,9.4,9.2c0.1,1.3,0.2,2.6,0.4,4.3c-10.7,0-21,0-31.8,0c-0.1-1.3-0.2-2.5-0.4-4.1c0.9-0.2,1.5-0.3,2.2-0.3
		c6.6-0.3,8-1.5,8-8.2c0.1-13.2,0.1-26.2,0.1-39.4c0-15.1,0-30.2,0-45.3C570.2,194.7,569.3,193.7,559.1,192.8z"/>
	<path d="M504.6,296.9c-1.7,1.8-2.8,3.8-3.9,3.8c-8.9,0.3-17.8,0.2-27.1,0.2c-0.1-1.7-0.2-2.9-0.2-4.3c9.3-1.2,9.8-1.8,9.8-11.1
		c0-14.1,0-28.2,0-42.3c0-9.1-0.6-9.7-10.6-10.8c1.3-1.7,1.9-3.5,3-3.9c5.7-2.1,11.5-3.9,18.2-6c0.4,3.8,0.8,8,1.4,12.7
		c2-1.9,3.8-3.8,5.6-5.4c6.2-5.4,13.2-8.6,21.7-7.8c13.2,1.3,19.8,8.2,19.9,21.6c0.2,12.8,0.1,25.6,0.1,38.4c0,1.6,0,3.3,0.1,4.9
		c0.3,8,0.8,8.5,8.2,9.9c1.1,3.1-0.1,4.3-3.4,4.3c-7.3-0.2-14.6-0.2-21.9,0c-3.2,0.1-4.1-1.2-3.3-4.1c8.5-2.1,8.5-2.2,8.5-11.4
		c0-12.5,0.1-25-0.1-37.5c0-2.8-0.2-5.5-0.7-8.2c-1.5-9.6-9.2-14.1-18.2-10.6c-7,2.8-11.8,8.4-16.1,14.4c-0.5,0.7-0.6,1.8-0.6,2.8
		c0.1,13.9,0,27.9,0.3,41.8C495.5,295.5,495.9,295.5,504.6,296.9z"/>
	<path d="M466.7,295.9c-1,2-1.4,4-2.5,4.6c-8,4-15.5,1.4-19.7-7.1c-6.3,5.9-13.8,8.8-22.3,9.4c-12.4,0.8-22.7-6.3-24.2-17.5
		c-1.2-9,2-16.9,9.9-21c8.5-4.4,17.8-7.2,26.9-10.6c3.9-1.5,9.6,0.1,9.1-7.6c-0.7-11.5-2.8-16.2-10.3-18c-9.4-2.3-16.9,1.3-21,10.3
		c-1.2,2.7-2.4,5.3-6,5.4c-3.6,0.1-6-1.7-5.4-5.1c0.6-3,2.1-6.2,4.2-8.3c7.1-7.2,16.4-8.5,26-8.3c1.3,0,2.6,0.2,3.9,0.3
		c12.5,0.9,20.2,9,20.3,21.6c0.2,12.9,0.1,25.9,0.1,38.9c0,1.8,0,3.6,0.1,5.4C456.4,295.6,457.8,297,466.7,295.9z M443.7,257.2
		c-10.4,2.7-19.9,5.7-27.7,12.3c-5.4,4.5-6.9,11.5-4.3,18.1c2,5,7.3,8.3,13.6,8.3c6.9-0.1,12.4-3.1,17.2-7.8c0.6-0.5,1.1-1.4,1.1-2
		C443.7,276.6,443.7,267.1,443.7,257.2z"/>
	<path d="M95.1,262.2c0.6-4.3,0.8-8.7,1.7-13c3.8-18.1,17.7-28.6,36.2-27.4c21.9,1.3,34.4,14.1,34.8,36.1c0.1,6.1-0.1,12.4-1.2,18.3
		c-3.5,17.7-18,27.9-36.9,26.5C106.3,300.9,95.5,288.2,95.1,262.2z M156.1,262.3c-1.2-6.9-1.8-13.2-3.6-19.2
		c-3.1-10.6-10.2-15.6-20.7-15.9c-10-0.2-17.9,5.2-21.1,15.4c-4.1,13.3-4.1,26.9,0.6,40.1c3.3,9.4,10.7,14.4,20.3,14.4
		c9.6,0,17.2-4.9,20.3-14.4C154,276,154.7,268.9,156.1,262.3z"/>
	<path d="M190,229.2c-3.9,0-7.8,0-11.9,0c0-2,0-3.5,0-5.5c4.1,0,7.9,0,11.9,0c0.4-6.6,0.5-12.7,1.3-18.7
		c2.5-19.7,23.7-29.6,39.7-18.4c3.1,2.2,5.2,6.3,7,9.9c0.6,1.2-1.2,4.8-2.5,5.2c-1.8,0.6-4.8-0.2-6.4-1.5c-1.9-1.5-2.7-4.3-4-6.5
		c-4.6-7.8-13.8-8.1-18.2-0.1c-2.2,4-3.3,8.8-3.8,13.4c-0.7,5.2-0.2,10.6-0.2,16.6c7,0,13.9,0,21.1,0c0.1,2.1,0.2,3.6,0.3,5.7
		c-7.2,0-14.1,0-21.6,0c0,2.3,0,4,0,5.7c0,16,0,32.1,0,48.1c0,12.7,0,12.7,12.9,13.4c0.1,1.3,0.2,2.5,0.2,3.7
		c-0.7,0.4-0.9,0.7-1.2,0.7c-11.2,0.1-22.4,0-33.5,0.2c-3.3,0.1-3.9-1.4-3.1-4.1c0.3-0.2,0.6-0.4,0.9-0.4c11.2-0.7,11.5-1,11.5-12.4
		c0-17.7-0.1-35.3-0.1-53C190.4,230.6,190.3,230.3,190,229.2z"/>
	<path d="M275.3,292.7c0.9,1.3,1.8,2.4,2.7,3.7c-7.1,6-14.9,7.6-23.4,5.2c-5.7-1.5-9-5.7-9.8-11.5c-0.6-4.3-0.5-8.7-0.5-13.1
		c-0.1-15.7,0-31.4,0-47.7c-4.4,0-8.3,0-13.5,0c1-2,1.4-4.1,2.1-4.2c13.3-1.6,17.3-11,18.9-22.4c3.6-1.5,4.7-0.2,4.6,3.4
		c-0.2,5.6-0.1,11.3-0.1,17.3c6.2,0,11.8,0,17.8,0c0.1,1.9,0.2,3.4,0.3,5.6c-6.1,0-11.9,0-18.1,0c0,4.8,0,8.9,0,13.1
		c0,13.2,0,26.2,0,39.4c0,1.6,0,3.3,0.1,4.9c0.6,9,6,12.3,14.4,8.6C272.2,294.4,273.6,293.6,275.3,292.7z"/>
</g>
</svg>
