<?xml version="1.0" encoding="utf-8"?>
<!-- Generator: Adobe Illustrator 21.0.2, SVG Export Plug-In . SVG Version: 6.00 Build 0)  -->
<svg version="1.1" id="Layer_1" xmlns="http://www.w3.org/2000/svg" xmlns:xlink="http://www.w3.org/1999/xlink" x="0px" y="0px"
	 viewBox="0 0 640 480" style="enable-background:new 0 0 640 480;" xml:space="preserve">
<style type="text/css">
	.st0{fill:#FFFFFF;}
	.st1{fill:#00ACEC;}
</style>
<g>
	<path class="st0" d="M80,0v480h480V0H80z M537.3,458.8H102.8V21.2h434.5V458.8z"/>
	<polygon class="st1" points="407.7,396 424.6,396 416.2,368 	"/>
	<path class="st1" d="M243.5,363c-2.4-1.4-5.1-2.1-7.9-2c-5.1,0-9,1.9-11.9,5.8c-2.9,3.9-4.3,10.1-4.3,18.7c0,6.3,0.8,11.3,2.3,15
		c1.6,3.6,3.6,6.2,6,7.5c2.4,1.4,5.1,2.1,7.9,2.1l0,0c4.1,0,7.8-1.6,11.2-4.9c3.4-3.3,5.1-9.8,5.1-19.7c0-6.4-0.8-11.4-2.4-15
		C247.9,366.9,245.9,364.4,243.5,363z"/>
	<polygon class="st1" points="320.9,65.9 320.9,65.9 320.9,65.9 	"/>
	<path class="st1" d="M102.8,458.8h434.5V21.2H102.8V458.8z M115.4,33.9h409.2v412.2H115.4V33.9z"/>
	<path class="st1" d="M524.6,33.9H115.4v412.2h409.2V33.9z M320.9,57.6L320.9,57.6c51.3,0,93.2,58.2,93.2,129.5
		s-41.9,129.5-93.2,129.5c-51.3,0-93.2-58.2-93.2-129.5C227.7,115.8,269.6,57.6,320.9,57.6z M189,417.3c-4.3,4.7-11.3,7.1-21.1,7.1
		c-10.9,0-18.4-2.7-22.3-8.2c-3.9-5.5-5.9-11.4-6-17.7l0,0v0l15.5,0c0,2.9,0.9,5.5,2.7,8c1.8,2.4,5.3,3.7,10.3,3.7
		c7.7,0,11.6-2.5,11.6-7.6c0-2-0.5-3.6-1.5-4.9c-1-1.3-2.3-2.4-3.8-3.1c-1.6-0.8-2.9-1.3-4.1-1.6c-1.1-0.3-3.5-0.9-7.1-1.8
		c-3.6-0.9-6.5-1.8-8.7-2.6c-2.3-0.8-4.4-2-6.2-3.6c-2-1.6-3.6-3.7-4.8-6.4c-1.2-2.7-1.8-6.1-1.8-10.1c0-6.2,2.1-11.4,6.1-15.5
		c4.1-4.1,10.9-6.2,20.5-6.2c5.4,0,9.9,1,13.6,3c3.7,2,6.4,4.6,8.3,8c1.8,3.4,2.8,7.1,2.9,11.3h-14.5c-0.5-5.3-4.2-8-11.2-8
		c-3.6,0-6.2,0.7-7.7,2c-1.5,1.4-2.3,3-2.3,5c0,2.9,1.1,4.9,3.3,6c2.2,1.1,5.4,2.2,9.4,3.1c5.6,1.2,10.2,2.7,13.8,4.3
		c3.6,1.6,6.4,3.9,8.4,6.9c2,3,3,6.9,3,11.7C195.4,406.8,193.3,412.7,189,417.3z M266.6,400.4c-1.2,4.6-3.1,8.7-5.8,12.4
		c-2.6,3.6-6.1,6.5-10.3,8.6c-4.2,2.1-9.2,3.1-15,3.1v0h0l0,0v0c-6.4,0-11.7-1.3-16.1-3.7c-4.4-2.5-7.8-5.7-10.2-9.7
		c-2.4-4-4.2-8.2-5.1-12.5c-0.9-4.2-1.4-8.6-1.5-12.9c0-4.2,0.5-8.6,1.5-12.9c1-4.4,2.7-8.6,5.1-12.5c2.4-4,5.8-7.2,10.2-9.7
		c4.3-2.5,9.7-3.7,16.1-3.7c5.7,0,10.7,1,15,3.1c4.2,2.1,7.7,4.9,10.3,8.5c2.6,3.6,4.6,7.7,5.8,12.4c1.2,4.6,1.8,9.6,1.8,14.8
		C268.4,390.8,267.8,395.8,266.6,400.4z M325.1,408l0,14.3h-45.5v-73.5h15.3V408H325.1L325.1,408L325.1,408z M347.5,422.3l-22-73.5
		h17.5l13.2,52.5h0l12.6-52.5h17l-22.1,73.5H347.5z M432.1,422.3l-4.2-13.8h-23.6l-4.1,13.8h-16.1l24.3-73.5h0h15.5l24.4,73.5H432.1
		z M485.4,394.6v27.7H470v-27.7l-23.5-45.8H464l13.7,31.8l13.7-31.8h16.7L485.4,394.6z"/>
	<path class="st0" d="M184,381.3c-3.6-1.6-8.2-3.1-13.8-4.3c-4.1-0.9-7.2-1.9-9.4-3.1c-2.2-1.1-3.3-3.1-3.3-6c0-1.9,0.8-3.6,2.3-5
		c1.5-1.4,4.1-2,7.7-2c7,0,10.7,2.7,11.2,8h14.5c-0.1-4.2-1-7.9-2.9-11.3c-1.8-3.4-4.6-6-8.3-8c-3.7-2-8.2-3-13.6-3
		c-9.5,0-16.4,2.1-20.5,6.2c-4.1,4.1-6.1,9.3-6.1,15.5c0,4,0.6,7.4,1.8,10.1c1.2,2.7,2.8,4.8,4.8,6.4c1.9,1.5,4,2.7,6.2,3.6
		c2.2,0.8,5.1,1.7,8.7,2.6c3.6,0.9,6,1.5,7.1,1.8c1.1,0.3,2.5,0.9,4.1,1.6c1.5,0.7,2.8,1.8,3.8,3.1c1,1.3,1.5,3,1.5,4.9
		c0,5-3.9,7.6-11.6,7.6c-5,0-8.4-1.2-10.3-3.7c-1.8-2.4-2.7-5.1-2.7-8l-15.5,0v0l0,0c0.1,6.4,2.1,12.3,6,17.7
		c3.9,5.4,11.4,8.2,22.3,8.2c9.8,0,16.8-2.4,21.1-7.1c4.3-4.7,6.4-10.5,6.4-17.4c0-4.8-1-8.7-3-11.7
		C190.4,385.3,187.6,383,184,381.3z"/>
	<polygon class="st1" points="235.6,424.4 235.6,424.4 235.6,424.4 	"/>
	<polygon class="st1" points="477.7,380.6 477.7,380.6 477.7,380.6 	"/>
	<path class="st0" d="M408.4,348.8L408.4,348.8l-24.3,73.5h16.1l4.1-13.8h23.6l4.2,13.8h16.2l-24.4-73.5H408.4z M407.7,396l8.5-28.1
		l8.4,28.1H407.7z"/>
	<polygon class="st0" points="294.8,348.8 279.5,348.8 279.5,422.3 325.1,422.3 325.1,408 294.8,408 	"/>
	<polygon class="st0" points="368.9,348.8 356.3,401.3 356.3,401.3 343.1,348.8 325.6,348.8 347.5,422.3 363.8,422.3 385.9,348.8 	
		"/>
	<path class="st0" d="M260.8,358.3c-2.6-3.6-6.1-6.5-10.3-8.5c-4.2-2.1-9.2-3.1-15-3.1c-6.4,0-11.8,1.2-16.1,3.7
		c-4.3,2.5-7.7,5.7-10.2,9.7c-2.4,4-4.1,8.2-5.1,12.5c-1,4.4-1.5,8.7-1.5,12.9c0,4.3,0.5,8.7,1.5,12.9c1,4.4,2.7,8.5,5.1,12.5
		c2.4,4,5.8,7.2,10.2,9.7c4.3,2.5,9.7,3.7,16.1,3.7v0c5.7,0,10.7-1,15-3.1c4.2-2.1,7.6-4.9,10.3-8.6c2.6-3.6,4.6-7.8,5.8-12.4
		c1.2-4.6,1.8-9.6,1.8-14.8c0-5.3-0.6-10.2-1.8-14.8C265.4,366.1,263.4,362,260.8,358.3z M246.8,405.2c-3.4,3.3-7.2,4.9-11.2,4.9
		l0,0c-2.8,0-5.5-0.7-7.9-2.1c-2.4-1.4-4.4-3.9-6-7.5c-1.6-3.6-2.3-8.6-2.3-15c0-8.6,1.4-14.8,4.3-18.7c2.9-3.9,6.9-5.8,11.9-5.8
		c2.8,0,5.5,0.7,7.9,2c2.4,1.4,4.5,3.9,6,7.5c1.6,3.6,2.4,8.6,2.4,15C251.9,395.4,250.2,402,246.8,405.2z"/>
	<polygon class="st0" points="477.7,380.6 477.7,380.6 477.7,380.6 477.7,380.6 464,348.8 446.5,348.8 470,394.6 470,422.3 
		485.4,422.3 485.4,394.6 508.2,348.8 491.5,348.8 	"/>
	<polygon class="st1" points="324,211.1 324,211.1 324,211.1 	"/>
	<polygon class="st1" points="318.1,187.2 318.1,187.2 318.1,187.2 	"/>
	<path class="st1" d="M320.9,308.4c48.1,0,87.3-54.5,87.3-121.3c0-66.8-39.2-121.3-87.3-121.3c-48.1,0-87.3,54.5-87.3,121.3
		C233.6,253.9,272.8,308.4,320.9,308.4z M288.5,214.8h3.5c1.5,6.6,3.8,12,6.8,16.1c3,4.1,6.5,7.1,10.4,8.9c2.8,1.3,5.8,2.1,8.8,2.5
		l0-33.3c-5.5-1.9-10.2-3.9-14-5.8c-4.1-2.1-7.7-5.1-10.5-8.8c-2.9-3.7-4.4-8.4-4.4-14.1c0-2.9,0.6-5.8,1.7-8.8
		c1.1-3,2.9-5.8,5.3-8.3c2.4-2.6,5.5-4.7,9.2-6.2c3.6-1.5,7.8-2.3,12.6-2.3v-8.3l-13.7-13.7v-7.8l0,0l0,0v0l13.7,13.7v-7.1
		l-13.7-13.7V110l13.7,13.7l0-7.1l-13.7-13.7v-7.8l13.7,13.7l0-7.1l-13.7-13.7v-7.8l13.7,13.7v-6.7h6.6l0,7.5l14.9-14.9v7.7
		l-14.9,14.9l0,7.2l15-15v7.8l-15,15l0,7.2l15-15v7.8l-15.1,15.1l0,7.2l15.1-15.1v7.8l-15.2,15.2l0,7.6c4.7,0.6,9.2,1.9,13.5,3.9
		c2.4,1.2,4.2,1.8,5.3,1.8c1.5,0,2.5-0.4,3-1.3c0.5-0.9,0.8-2.2,0.8-4v-0.8h3.4l0.5,28.4h-3.4c-0.8-4.8-2.7-9-5.7-12.4
		c-2.9-3.4-6.5-6-10.7-7.7c-2.2-0.9-4.5-1.6-6.8-2.1l-0.1,28.4c3.9,1.3,7.7,2.7,11.5,4.2c3.4,1.4,6.7,3.3,9.7,5.5
		c3,2.3,5.5,5.2,7.3,8.5c1.9,3.4,2.8,7.5,2.8,12.2c0,5.6-1.5,10.6-4.3,15c-2.9,4.4-6.8,7.8-11.8,10.3c-4.7,2.3-9.9,3.5-15.5,3.6
		l-0.1,25.6l6.1-8.4h-2v-5h14.9v5.4h-3.7l-16.1,23l-3.8,0l-16.1-23h-3.7v-5.4H314v5h-2l6.1,8.2l0-25.6c-1.9-0.2-3.6-0.5-5.2-1
		c-3-0.9-5.9-1.9-8.7-3.2c-2.9-1.4-5-2.1-6.3-2.1c-1.2,0-2.4,0.6-3.5,1.8c-1.1,1.2-1.9,2.7-2.3,4.5h-3.5V214.8z"/>
	<path class="st0" d="M320.9,316.6c51.3,0,93.2-58.2,93.2-129.5S372.2,57.6,320.9,57.6l0,0c-51.3,0-93.2,58.2-93.2,129.5
		C227.7,258.4,269.6,316.6,320.9,316.6z M320.9,65.9L320.9,65.9L320.9,65.9L320.9,65.9c48.1,0,87.3,54.5,87.3,121.3
		c0,66.8-39.2,121.3-87.3,121.3c-48.1,0-87.3-54.5-87.3-121.3C233.6,120.3,272.8,65.9,320.9,65.9z"/>
	<path class="st0" d="M294.4,243.8c1.1-1.2,2.2-1.8,3.5-1.8c1.3,0,3.4,0.7,6.3,2.1c2.8,1.3,5.7,2.3,8.7,3.2c1.5,0.4,3.3,0.8,5.2,1
		l0,25.6l-6.1-8.2h2v-5h-14.9v5.4h3.7l16.1,23l3.8,0l16.1-23h3.7v-5.4h-14.9v5h2l-6.1,8.4l0.1-25.6c5.6-0.1,10.8-1.3,15.5-3.6
		c5-2.4,8.9-5.8,11.8-10.3c2.9-4.4,4.3-9.4,4.3-15c0-4.7-0.9-8.8-2.8-12.2c-1.8-3.3-4.3-6.2-7.3-8.5c-3-2.2-6.3-4.1-9.7-5.5
		c-3.8-1.5-7.6-2.9-11.5-4.2l0.1-28.4c2.3,0.4,4.5,1.1,6.8,2.1c4.1,1.7,7.7,4.4,10.7,7.7c3,3.4,4.9,7.5,5.7,12.4h3.4l-0.5-28.4h-3.4
		v0.8c0,1.8-0.3,3.1-0.8,4c-0.5,0.9-1.5,1.3-3,1.3c-1.1,0-2.9-0.6-5.3-1.8c-4.3-2-8.8-3.3-13.5-3.9l0-7.6l15.2-15.2v-7.8l-15.1,15.1
		l0-7.2l15.1-15.1v-7.8l-15,15l0-7.2l15-15v-7.8l-15,15l0-7.2l14.9-14.9v-7.7l-14.9,14.9l0-7.5h-6.6v6.7l-13.7-13.7v7.8l13.7,13.7
		l0,7.1l-13.7-13.7v7.8l13.7,13.7l0,7.1L304.4,110v7.8l13.7,13.7v7.1l-13.7-13.7v7.8l13.7,13.7v8.3c-4.8,0-9,0.8-12.6,2.3
		c-3.7,1.5-6.8,3.6-9.2,6.2c-2.4,2.6-4.2,5.4-5.3,8.3c-1.1,3-1.7,5.9-1.7,8.8c0,5.7,1.5,10.4,4.4,14.1c2.8,3.7,6.4,6.6,10.5,8.8
		c3.8,1.9,8.5,3.9,14,5.8l0,33.3c-3.1-0.4-6-1.2-8.8-2.5c-3.9-1.8-7.4-4.8-10.4-8.9c-3-4.1-5.3-9.5-6.8-16.1h-3.5v33.6h3.5
		C292.5,246.5,293.3,245,294.4,243.8z M324,211.1L324,211.1L324,211.1c2.5,0.9,4.9,1.9,7.3,3c2.8,1.3,5.2,3,7,5.1
		c1.8,2.1,2.8,4.7,2.8,7.9c0,4.4-1.6,8.1-4.9,11c-2.9,2.6-7,4-12.4,4.3L324,211.1L324,211.1z M312.2,184.8c-2.5-1.1-4.6-2.7-6.4-4.8
		c-1.7-2-2.5-4.5-2.5-7.6c0-3,1.3-5.8,3.7-8.3c2.4-2.5,6.1-3.7,11-3.8l0,26.8h0h0l0,0C315.7,186.3,313.8,185.5,312.2,184.8z"/>
	<polygon class="st1" points="304.4,124.9 304.4,124.9 304.4,124.9 	"/>
	<path class="st1" d="M318.1,160.3c-4.9,0.1-8.6,1.3-11,3.8c-2.5,2.5-3.7,5.3-3.7,8.3c0,3.1,0.8,5.6,2.5,7.6c1.8,2,3.9,3.7,6.4,4.8
		c1.5,0.7,3.5,1.5,5.9,2.3L318.1,160.3z"/>
	<path class="st1" d="M336.2,238.1c3.2-2.9,4.9-6.6,4.9-11c0-3.1-0.9-5.8-2.8-7.9c-1.9-2.1-4.2-3.8-7-5.1c-2.4-1.1-4.8-2.1-7.3-3
		l-0.2,31.3C329.3,242.1,333.4,240.6,336.2,238.1z"/>
</g>
</svg>
