<?xml version="1.0" encoding="utf-8"?>
<!-- Generator: Adobe Illustrator 19.1.1, SVG Export Plug-In . SVG Version: 6.00 Build 0)  -->
<svg version="1.1" id="Layer_2" xmlns="http://www.w3.org/2000/svg" xmlns:xlink="http://www.w3.org/1999/xlink" x="0px" y="0px"
	 viewBox="80 0 640 480" style="enable-background:new 80 0 640 480;" xml:space="preserve">
<style type="text/css">
	.st0{fill:#231F20;}
	.st1{fill:#ED1B2E;}
</style>
<g>
	<path id="path3400" class="st0" d="M103.9,303.7c-5.6,3.3-16.8,10.7-16.8,24.1c0,12,10.3,19.7,22.2,19.7c11.3,0,18.2-7.4,20.9-11.4
		L103.9,303.7z M119.4,281c0-5.7-4.7-10.7-11.6-10.7c-6.6-0.1-11.6,4.3-11.6,10.6c0,6.8,6.4,13.9,8.8,16.9
		C109.8,294.7,119.4,289.6,119.4,281 M140.4,348.9l-7.2-9.2c-3.8,5-11.8,12.1-24.1,12.1c-15.8,0-26.8-10.9-26.8-24.2
		c0-13.4,8.8-20.9,19-27.4c-3.6-4.7-9.9-11.5-9.9-19.8c0-8.4,7.5-14.4,16.6-14.4c10.1,0,16.1,7.6,16.1,14.9
		c0,10.2-9.1,15.4-16.6,20.1l25.2,30.9c2.6-4.6,4-12.6,3.3-17.4h4.6c0.6,6.7-1.4,15.6-4.7,21.1l10.8,13.2
		C146.7,348.9,140.4,348.9,140.4,348.9z"/>
	<path id="path3404" class="st0" d="M126.1,147.7c-0.8-7.6-5.7-14.8-13.7-14.8c-9.2,0-14.3,5.5-14.3,14.6
		c0,19.3,34.9,13.5,34.9,41.4c0,16-13.3,24.4-28.2,24.4c-6.5,0-12.8-2.3-18.5-5.2c-0.6-5.9-1.4-11.7-2-17.7l3.3-0.7
		c1.4,9.9,7,18.5,18,18.5c7.9,0,14.3-5,14.3-13.2c0-20.6-34.2-14.2-34.2-42.2c0-15.1,10.7-24.1,25.7-24c3.3,0,13.1,1.3,16.7,1.8
		c0,5.5,0.5,11.1,1.1,16.6C129.4,147.1,126.1,147.7,126.1,147.7z"/>
	<path id="path3408" class="st0" d="M152.1,136.3c-8.7,0-9.1,2.1-10.8,10.6h-3.5c0.5-3.3,1-6.5,1.4-9.9c0.5-3.3,0.7-6.5,0.7-9.9h2.8
		c0.9,3.5,3.8,3.4,7,3.4l60,0.1c3.1,0,6-0.1,6.3-3.6l2.8,0.5c-0.5,3.1-0.9,6.3-1.3,9.4c-0.2,3.1-0.2,6.3-0.2,9.4l-3.5,1.3
		c-0.2-4.3-0.8-11.2-8.6-11.2H186l0,61.9c0,9,4.1,10,9.6,10h2.2v3.5c-4.5,0-12.7-0.5-19-0.5c-7,0-15.1,0.4-19.7,0.4v-3.5h2.2
		c6.4,0,9.6-0.6,9.7-9.8l0-62.1L152.1,136.3L152.1,136.3z"/>
	<path id="path3412" class="st0" d="M240,143.6h-0.2l-10.8,32.9h21.7L240,143.6L240,143.6z M222.9,195.1c-1.2,4-2.6,7-2.6,9.1
		c0,3.5,4.9,4.1,8.7,4.1h1.3v3.5c-4.6-0.2-9.4-0.5-14.1-0.5c-4.2,0-8.4,0.2-12.6,0.5v-3.5h0.7c4.5,0,8.4-2.7,10.1-7.5l18.7-53.3
		c1.5-4.3,3.6-10.1,4.3-14.4c3.7-1.3,8.4-3.6,10.6-5c0.4-0.1,0.6-0.2,0.9-0.2c0.4,0,0.6,0,0.8,0.3c0.4,0.9,0.7,2,1,2.9l21.3,60.8
		c1.4,4.1,2.8,8.4,4.3,11.9c1.4,3.3,3.8,4.7,7.7,4.7h0.7v3.5c-5.2-0.2-10.5-0.5-16-0.5c-5.7,0-11.5,0.2-17.4,0.4v-3.5h1.3
		c2.7,0,7.2-0.5,7.2-3.4c0-1.5-1-4.7-2.3-8.4l-4.5-13.5h-26.4L222.9,195.1L222.9,195.1z"/>
	<path id="path3416" class="st0" d="M365,188.9l0.2-0.2v-43.6c0-9.5-6.6-10.9-10.1-10.9h-2.6v-3.5c5.5,0,10.8,0.5,16.3,0.5
		c4.8,0,9.5-0.5,14.3-0.5v3.5h-1.7c-4.9,0-10.3,0.9-10.4,14.8l0,52.9c0,4.1,0.1,8.1,0.7,11.7h-4.4l-59.8-66.8l0,47.9
		c0,10.1,2,13.6,10.9,13.6h2v3.5c-5,0-10-0.5-15-0.5c-5.2,0-10.6,0.5-15.8,0.4v-3.5h1.6c8,0,10.5-5.5,10.5-14.8l0-48.9
		c0-6.5-5.3-10.5-10.6-10.5h-1.5v-3.5c4.4,0,8.9,0.5,13.4,0.5c3.5,0,6.9-0.5,10.3-0.5L365,188.9L365,188.9z"/>
	<path id="path3420" class="st0" d="M413.2,198.5c0,8.1,3.7,9.2,12.1,9.2c19.8,0,30-16.5,30-34.4c0-30.7-15.5-38.4-34.1-38.4
		c-2.7,0-5.3,0.3-7.9,0.6L413.2,198.5L413.2,198.5z M388.1,208.4h1.6c4.2,0,8.6-0.6,8.6-6.6l0-60.9c0-6-4.4-6.6-8.6-6.6h-1.6v-3.5
		c3.5,0,11.2,0.5,18.6,0.5c7.4,0,13.7-0.5,18.7-0.4c28.6,0.1,46.1,16.1,46.1,40.4c0,23.3-19.6,42.2-43.2,40.8
		c-5.1-0.2-13.3-0.5-21.2-0.5c-7.9,0-16.2,0.4-19.2,0.4L388.1,208.4L388.1,208.4z"/>
	<path id="path3424" class="st0" d="M502.4,143.8h-0.2l-10.8,32.9H513L502.4,143.8L502.4,143.8z M485.3,195.3c-1.2,4-2.6,7-2.6,9.1
		c0,3.5,4.9,4.1,8.7,4.1h1.3v3.5c-4.6-0.2-9.4-0.5-14.1-0.5c-4.2,0-8.4,0.2-12.6,0.4v-3.5h0.7c4.5,0,8.4-2.7,10.1-7.5l18.7-53.3
		c1.5-4.3,3.6-10.1,4.3-14.4c3.7-1.3,8.4-3.6,10.6-5c0.4-0.1,0.6-0.2,0.9-0.2c0.4,0,0.6,0,0.8,0.4c0.4,0.9,0.7,2,1,2.9l21.3,60.8
		c1.4,4.1,2.8,8.4,4.3,11.9c1.4,3.3,3.8,4.7,7.7,4.7h0.7v3.5c-5.2-0.2-10.5-0.5-16-0.5c-5.7,0-11.5,0.2-17.4,0.4v-3.5h1.3
		c2.7,0,7.2-0.5,7.2-3.4c0-1.5-1-4.7-2.3-8.4l-4.5-13.5l-26.4,0L485.3,195.3L485.3,195.3z"/>
	<path id="path3436" class="st0" d="M576.7,170.2h5.7c11.6,0,17.9-4.4,17.9-18.1c0-10.3-6.6-17-17-17c-3.5,0-5,0.3-6.6,0.5
		L576.7,170.2L576.7,170.2z M561.9,143.2c0-8.5-4.6-8.8-8.3-8.8h-2.1v-3.5c3.7,0,10.9,0.5,18,0.5c7,0,12.6-0.4,18.7-0.4
		c14.6,0,27.7,4,27.7,20.5c0,10.5-7,16.9-16.2,20.4l19.9,29.8c3.3,4.9,5.6,6.3,11.3,7v3.5c-3.8,0-7.6-0.5-11.4-0.5
		c-3.6,0-7.3,0.5-10.9,0.5c-8.9-11.7-16.6-24.3-24.1-37.7h-7.7v24.9c0,8.9,4.2,9.3,9.5,9.3h2.1v3.5c-6.6,0-13.4-0.5-20-0.5
		c-5.6,0-11,0.5-16.9,0.4v-3.5h2.1c4.3,0,8.3-2,8.3-6.3L561.9,143.2L561.9,143.2z"/>
	<path id="path3440" class="st0" d="M660.3,198.7c0,8.1,3.7,9.2,12.1,9.2c19.8,0,30-16.5,30-34.4c0-30.7-15.5-38.4-34.1-38.4
		c-2.7,0-5.4,0.3-7.9,0.6L660.3,198.7L660.3,198.7z M635.2,208.6h1.6c4.2,0,8.6-0.6,8.6-6.6l0-60.9c0-6.1-4.4-6.6-8.6-6.6h-1.6v-3.5
		c3.5,0,11.2,0.5,18.6,0.5c7.4,0,13.7-0.4,18.7-0.4c28.6,0.1,46.1,16.1,46.1,40.4c0,23.3-19.6,42.2-43.2,40.8
		c-5.1-0.2-13.2-0.5-21.2-0.5c-7.9,0-16.2,0.4-19.2,0.4L635.2,208.6L635.2,208.6z"/>
	<path id="path3452" class="st0" d="M181.6,336.3c0,9.4,5.1,9.7,11,9.7h1.9l0,3.5c-5.9,0-11.7-0.5-17.7-0.5
		c-6.4,0-12.7,0.5-19.3,0.5v-3.5h1.9c3.5,0,7.3-0.1,7.3-9.4l0-55.6c0-7.8-2.2-9.2-7.8-9.2h-1.4l0-3.5c4.2,0,10.3,0.5,16.3,0.5
		c6,0,11.7-0.5,17-0.4c15.8,0,27.3,5.3,27.3,22.2c0,13.6-9.7,22.3-22.5,23.6c-3.6,0.2-6.6,0.2-9.3,0.2v-3.5h2.4
		c9.4,0,13.7-8.4,13.7-19.9c0-11.2-5.6-18.5-17.5-18.5h-3.4L181.6,336.3L181.6,336.3z"/>
	<path id="path3456" class="st0" d="M268.9,346.2c22.6,0,26.5-19.9,26.5-36.8c0-17-9.2-37.6-28.5-37.6c-20.3,0-26.4,18.1-26.4,33.7
		C240.6,326.2,250.1,346.1,268.9,346.2 M267.2,266.6c24.8,0,44.5,15.4,44.5,40.2c0,26.7-19.2,44.5-44,44.5
		c-24.6,0-43.5-16.8-43.4-41.8C224.3,285.3,243,266.6,267.2,266.6"/>
	<path id="path3460" class="st0" d="M365.9,346.2c22.6,0,26.5-19.9,26.5-36.8c0-17-9.2-37.6-28.5-37.6c-20.3,0-26.4,18.1-26.4,33.7
		C337.5,326.3,347,346.2,365.9,346.2 M364.2,266.7c24.8,0,44.5,15.4,44.5,40.2c0,26.7-19.2,44.5-44,44.5
		c-24.6,0-43.5-16.8-43.4-41.8C321.2,285.4,340,266.7,364.2,266.7"/>
	<path id="path3464" class="st0" d="M441.3,307.8h5.7c11.6,0,17.9-4.4,17.9-18.1c0-10.3-6.6-17-17-17c-3.5,0-5,0.3-6.6,0.5
		L441.3,307.8L441.3,307.8z M426.5,280.8c0-8.5-4.6-8.8-8.2-8.8h-2.1v-3.5c3.7,0,10.9,0.5,18,0.5c7,0,12.6-0.5,18.7-0.5
		c14.7,0,27.7,4,27.7,20.5c0,10.5-7,16.9-16.2,20.5l19.9,29.8c3.3,4.9,5.6,6.3,11.3,7v3.5c-3.8,0-7.6-0.5-11.4-0.5
		c-3.6,0-7.3,0.5-10.9,0.5c-8.9-11.8-16.6-24.3-24.1-37.7h-7.7v24.9c0,9,4.2,9.3,9.5,9.3h2.1v3.5c-6.6,0-13.4-0.5-20-0.5
		c-5.6,0-11,0.5-16.9,0.5v-3.5h2.1c4.3,0,8.3-2,8.3-6.3L426.5,280.8L426.5,280.8z"/>
	<path id="path3468" class="st0" d="M491.5,297.9c5.1-0.9,12-4.2,12-9.9c0-3.5-2.6-4.2-5-5.1c-2.4-0.9-4.9-2.1-4.9-6.4
		c0-5,3.8-7.9,8.5-7.9c6.7,0,10.2,5.8,10.2,12.1c0,11.1-9.4,18-19.2,20.7C493.1,301.4,491.5,297.9,491.5,297.9z"/>
	<path id="path3472" class="st0" d="M564.6,285.8c-0.8-7.6-5.7-14.8-13.7-14.8c-9.2,0-14.3,5.5-14.3,14.6
		c0,19.3,34.9,13.5,34.8,41.4c0,16-13.3,24.4-28.2,24.4c-6.5,0-12.8-2.3-18.5-5.3c-0.6-5.9-1.4-11.7-2-17.7l3.3-0.7
		c1.4,9.9,7,18.5,18,18.5c7.9,0,14.3-5,14.3-13.2c0-20.6-34.2-14.2-34.2-42.2c0-15.1,10.7-24.1,25.7-24c3.3,0,13.1,1.3,16.7,1.8
		c0,5.5,0.5,11,1.1,16.6C567.9,285.3,564.6,285.8,564.6,285.8z"/>
	<path id="path3478" class="st1" d="M313,104.8H81.3v-4.3H313V104.8z M313,244.1H81.3v-4.3H313V244.1z M313,379.5H81.3v-4.3H313
		V379.5z"/>
</g>
</svg>
