<svg id="Layer_1" data-name="Layer 1" xmlns="http://www.w3.org/2000/svg" viewBox="0 0 640 480"><defs><style>.cls-1{fill:#3d0000;}</style></defs><title>Artboard 1</title><path class="cls-1" d="M109.64,171.33,86.48,194.79q-12.2-19.49-24.84-19.49a13.9,13.9,0,0,0-10.07,3.78,11.6,11.6,0,0,0-3.92,8.53,16,16,0,0,0,2.8,9q3.8,5.64,22.93,24.23Q91.29,238,95.1,242.49q9.51,11,13.48,21.09a59.41,59.41,0,0,1,4,22q0,23.21-14,38.34T62.13,339q-17.55,0-30.58-9.87t-22.3-31l26.29-18.21q11.86,25,27.29,25a18.56,18.56,0,0,0,13.53-5.38,16.94,16.94,0,0,0,5.48-12.44,23.5,23.5,0,0,0-4.14-12.82q-4.14-6.41-18.24-19.62-26.85-25.13-34.68-38.79t-7.83-27.25A47.75,47.75,0,0,1,30,155a42.11,42.11,0,0,1,32.15-14,45.53,45.53,0,0,1,23.42,6.54Q96.67,154,109.64,171.33Z"/><path class="cls-1" d="M142.25,145.69h33.17q26.91,0,38.81,5.71T233,169.85q6.87,12.76,6.87,30.58,0,19.75-9,32.83a46.66,46.66,0,0,1-24.4,18.21q-9,3-32.95,2.95V334.3H142.25Zm31.27,73.73h9.94q11.73,0,16.31-1.93a15,15,0,0,0,7.2-6.37,20.77,20.77,0,0,0,2.62-10.74q0-10.94-7.37-16-5.36-3.73-19.88-3.73h-8.82Z"/><path class="cls-1" d="M289.9,145.69h76.95v33.21H313.24l-6.7,34.24a39.27,39.27,0,0,1,5.47-1.35,31.16,31.16,0,0,1,5.14-.45q22.34,0,37.13,17.5t14.8,44.81q0,27.57-16.36,46.48T312.9,339q-21,0-36.07-13.72t-19.77-37.57H289.9q3.8,8.85,10,13.4a22.59,22.59,0,0,0,13.68,4.55q10.39,0,17.65-8.59t7.26-22.05q0-13.08-6.76-21.48t-16.36-8.4a19.61,19.61,0,0,0-10.11,2.95,37.93,37.93,0,0,0-9.77,8.85L270,250.44Z"/><path class="cls-1" d="M443.35,140.94q18,0,31,10.13t20.1,31q7.09,20.84,7.09,58,0,37.57-7.2,58.47T475,329.24Q462.78,339,444.24,339t-31.16-9.87q-12.62-9.87-19.77-30t-7.15-57.32q0-51.93,14-75.27Q415.65,140.94,443.35,140.94Zm.73,34.11a19.8,19.8,0,0,0-14,5.83q-6.13,5.84-9.36,20.07t-3.23,41.67q0,35.77,7.41,49.43t19.22,13.66q11.37,0,18.05-13,8.14-15.64,8.14-52.32,0-37.18-7.3-51.29T444.07,175Z"/><path class="cls-1" d="M571.45,140.94q18,0,31,10.13t20.1,31q7.09,20.84,7.09,58,0,37.57-7.2,58.47t-19.38,30.71Q590.88,339,572.34,339t-31.16-9.87q-12.62-9.87-19.77-30t-7.15-57.32q0-51.93,14-75.27Q543.75,140.94,571.45,140.94Zm.73,34.11a19.8,19.8,0,0,0-14,5.83q-6.13,5.84-9.36,20.07t-3.23,41.67q0,35.77,7.41,49.43t19.22,13.66q11.37,0,18.05-13,8.14-15.64,8.14-52.32,0-37.18-7.3-51.29T572.17,175Z"/></svg>