<svg xmlns="http://www.w3.org/2000/svg" viewBox="0 0 640 480"><defs><style>.cls-1{fill:#79b542;}.cls-2{fill:#7ab642;}.cls-3{fill:#7bb642;}.cls-4{fill:#7cb742;}.cls-5{fill:#7db842;}.cls-6{fill:#7eb842;}.cls-7{fill:#7fb942;}.cls-8{fill:#80ba41;}.cls-9{fill:#81ba41;}.cls-10{fill:#82bb41;}.cls-11{fill:#83bc41;}.cls-12{fill:#84bc41;}.cls-13{fill:#85bd41;}.cls-14{fill:#86be41;}.cls-15{fill:#87be41;}.cls-16{fill:#88bf41;}.cls-17{fill:#89c041;}.cls-18{fill:#8ac041;}.cls-19{fill:#8bc141;}.cls-20{fill:#8cc241;}.cls-21{fill:#8dc241;}.cls-22{fill:#8dc340;}.cls-23{fill:#8ec340;}.cls-24{fill:#8fc440;}.cls-25{fill:#90c540;}.cls-26{fill:#91c540;}.cls-27{fill:#92c640;}.cls-28{fill:#93c740;}.cls-29{fill:#94c740;}.cls-30{fill:#95c840;}.cls-31{fill:#96c940;}.cls-32{fill:#97c940;}.cls-33{fill:#98ca40;}.cls-34{fill:#99cb40;}.cls-35{fill:#9acb40;}.cls-36{fill:#9bcc3f;}.cls-37{fill:#9ccd3f;}.cls-38{fill:#9dcd3f;}.cls-39{fill:#9ece3f;}.cls-40{fill:#9fcf3f;}.cls-41{fill:#a0cf3f;}.cls-42{fill:#a1d03f;}.cls-43{fill:none;}.cls-44{fill:#7ba43e;}</style></defs><title>Spotify</title><g id="Layer_2" data-name="Layer 2"><g id="Layer_8" data-name="Layer 8"><circle class="cls-1" cx="320" cy="185.59" r="183.09" transform="translate(-37.51 280.63) rotate(-45)"/><circle class="cls-2" cx="320" cy="184.27" r="179.99" transform="translate(-36.57 280.25) rotate(-45)"/><circle class="cls-3" cx="320" cy="182.95" r="176.89" transform="translate(-35.64 279.86) rotate(-45)"/><circle class="cls-4" cx="320" cy="181.64" r="173.79" transform="translate(-34.71 279.47) rotate(-45)"/><circle class="cls-5" cx="320" cy="180.32" r="170.69" transform="translate(-33.78 279.09) rotate(-45)"/><circle class="cls-6" cx="320" cy="179" r="167.59" transform="translate(-32.85 278.7) rotate(-45)"/><circle class="cls-7" cx="320" cy="177.69" r="164.48" transform="translate(-31.92 278.32) rotate(-45)"/><circle class="cls-8" cx="320" cy="176.37" r="161.38" transform="translate(-30.99 277.93) rotate(-45)"/><circle class="cls-9" cx="320" cy="175.05" r="158.28" transform="translate(-30.05 277.55) rotate(-45)"/><circle class="cls-10" cx="320" cy="173.73" r="155.18" transform="translate(-29.12 277.16) rotate(-45)"/><circle class="cls-11" cx="320" cy="172.42" r="152.08" transform="translate(-28.19 276.77) rotate(-45)"/><circle class="cls-12" cx="320" cy="171.1" r="148.98" transform="translate(-27.26 276.39) rotate(-45)"/><circle class="cls-13" cx="320" cy="169.78" r="145.88" transform="translate(-26.33 276) rotate(-45)"/><circle class="cls-14" cx="320" cy="168.46" r="142.78" transform="translate(-25.4 275.62) rotate(-45)"/><circle class="cls-15" cx="320" cy="167.15" r="139.68" transform="translate(-24.46 275.23) rotate(-45)"/><circle class="cls-16" cx="320" cy="165.83" r="136.58" transform="translate(-23.53 274.84) rotate(-45)"/><circle class="cls-17" cx="320" cy="164.51" r="133.48" transform="translate(-22.6 274.46) rotate(-45)"/><circle class="cls-18" cx="320" cy="163.19" r="130.37" transform="translate(-21.67 274.07) rotate(-45)"/><circle class="cls-19" cx="320" cy="161.88" r="127.27" transform="translate(-20.74 273.69) rotate(-45)"/><circle class="cls-20" cx="320" cy="160.56" r="124.17" transform="translate(-19.81 273.3) rotate(-45)"/><circle class="cls-21" cx="320" cy="159.24" r="121.07" transform="translate(-18.87 272.91) rotate(-45)"/><circle class="cls-22" cx="320" cy="157.92" r="117.97" transform="translate(-17.94 272.53) rotate(-45)"/><circle class="cls-23" cx="320" cy="156.61" r="114.87" transform="translate(-17.01 272.14) rotate(-45)"/><circle class="cls-24" cx="320" cy="155.29" r="111.77" transform="translate(-16.08 271.76) rotate(-45)"/><circle class="cls-25" cx="320" cy="153.97" r="108.67" transform="translate(-15.15 271.37) rotate(-45)"/><circle class="cls-26" cx="320" cy="152.65" r="105.57" transform="translate(-14.22 270.99) rotate(-45)"/><circle class="cls-27" cx="320" cy="151.34" r="102.47" transform="translate(-13.29 270.6) rotate(-45)"/><circle class="cls-28" cx="320" cy="150.02" r="99.37" transform="translate(-12.35 270.21) rotate(-45)"/><circle class="cls-29" cx="320" cy="148.7" r="96.27" transform="translate(-11.42 269.83) rotate(-45)"/><circle class="cls-30" cx="320" cy="147.38" r="93.16" transform="translate(-10.49 269.44) rotate(-45)"/><circle class="cls-31" cx="320" cy="146.07" r="90.06" transform="translate(-9.56 269.06) rotate(-45)"/><circle class="cls-32" cx="320" cy="144.75" r="86.96" transform="translate(-8.63 268.67) rotate(-45)"/><circle class="cls-33" cx="320" cy="143.43" r="83.86" transform="translate(-7.7 268.28) rotate(-45)"/><circle class="cls-34" cx="320" cy="142.11" r="80.76" transform="translate(-6.76 267.9) rotate(-45)"/><circle class="cls-35" cx="320" cy="140.8" r="77.66" transform="translate(-5.83 267.51) rotate(-45)"/><circle class="cls-36" cx="320" cy="139.48" r="74.56" transform="translate(-4.9 267.13) rotate(-45)"/><circle class="cls-37" cx="320" cy="138.16" r="71.46" transform="translate(-3.97 266.74) rotate(-45)"/><circle class="cls-38" cx="320" cy="136.85" r="68.36" transform="translate(-3.04 266.36) rotate(-45)"/><circle class="cls-39" cx="320" cy="135.53" r="65.26" transform="translate(-2.11 265.97) rotate(-45)"/><circle class="cls-40" cx="320" cy="134.21" r="62.16" transform="translate(-1.18 265.58) rotate(-45)"/><circle class="cls-41" cx="320" cy="132.89" r="59.05" transform="translate(-0.24 265.2) rotate(-45)"/><circle class="cls-42" cx="320" cy="131.58" r="55.95" transform="translate(0.69 264.81) rotate(-45)"/><path class="cls-43" d="M303.47,422.89c-7.66,0-13.87,6.66-13.87,14.87s6.21,14.88,13.87,14.88,13.87-6.66,13.87-14.88S311.13,422.89,303.47,422.89Z"/><path class="cls-43" d="M247.47,422.86c-7.24,0-13.11,6.59-13.11,14.72s5.87,14.72,13.11,14.72,13.11-6.59,13.11-14.72S254.71,422.86,247.47,422.86Z"/><path class="cls-43" d="M471.48,417.59h-1.81v2.46h1.85c.94,0,1.44-.51,1.44-1.2v-.05C473,418,472.4,417.59,471.48,417.59Z"/><path class="cls-43" d="M471.09,413.36a6.93,6.93,0,0,0-7,7v.05a7,7,0,1,0,13.93-.05v0A6.87,6.87,0,0,0,471.09,413.36Zm1.83,11-1.79-2.7h-1.46v2.7h-1.85V416h3.73a3.53,3.53,0,0,1,2.59.92,2.53,2.53,0,0,1,.69,1.83v0a2.6,2.6,0,0,1-1.8,2.59l2,3Z"/><path class="cls-43" d="M0,0V480H640V0ZM193.5,126.42a16.63,16.63,0,0,1,11.3-16.32c5.15-1.7,10.44-3,15.72-4.26a296.15,296.15,0,0,1,39.74-6.11,355.72,355.72,0,0,1,42.68-1.31c35.09,1,69.49,6.14,102.78,17.63a218.84,218.84,0,0,1,39.06,17.75,16.93,16.93,0,0,1,8.53,11.26c.27,1.19.34,2.44.5,3.66l0,.75a2,2,0,0,0,0,.24,17,17,0,0,1-25.6,14.78,205.1,205.1,0,0,0-24.4-11.89A259.67,259.67,0,0,0,352,138.26a326.4,326.4,0,0,0-37.25-4.37,349.92,349.92,0,0,0-39-.2,278.33,278.33,0,0,0-44.29,5.56c-5.38,1.17-10.7,2.63-16,4.06a17.72,17.72,0,0,1-9.74,0,17,17,0,0,1-12.23-15.93c0-.28,0-.56,0-.85A.61.61,0,0,1,193.5,126.42Zm232.55,89.86a14.22,14.22,0,0,1-19.45,4.77c-3.94-2.22-7.84-4.54-11.87-6.59-18.48-9.42-38.08-15.53-58.41-19.38a263,263,0,0,0-48.25-4.48,225.67,225.67,0,0,0-63.26,8.89,15,15,0,0,1-10.17-.28,14.11,14.11,0,0,1-8.78-13.41v-.09q0-.45,0-.9a13.8,13.8,0,0,1,9.66-13c5.9-1.8,11.89-3.36,17.91-4.7a251.71,251.71,0,0,1,45-5.61,276.81,276.81,0,0,1,95.69,13,217.77,217.77,0,0,1,45,20.11c.71.42,1.41.85,2.11,1.28A14,14,0,0,1,428,208.39,14.37,14.37,0,0,1,426.05,216.28Zm-22.4,49.82a11.26,11.26,0,0,1-14.22,4.48,29.64,29.64,0,0,1-3-1.67,172.54,172.54,0,0,0-62.51-22,216.11,216.11,0,0,0-41.13-2.27,297.4,297.4,0,0,0-52.8,7,26.43,26.43,0,0,1-5.36.76,10.9,10.9,0,0,1-10.88-8.95,12.12,12.12,0,0,1-.19-2.74,11.06,11.06,0,0,1,6.94-10.9,20.71,20.71,0,0,1,3.32-1A319.27,319.27,0,0,1,266.94,222c8.11-.69,16.27-1,24.4-1.42,24.07.26,47.62,3.51,70.48,11.22a187.08,187.08,0,0,1,36.07,16.56,29.4,29.4,0,0,1,2.91,1.87,11.22,11.22,0,0,1,4.45,9.47A11.54,11.54,0,0,1,403.65,266.1Zm-186.12,177c0,13.08-9.81,20.41-23.77,20.41A40.81,40.81,0,0,1,166.29,453l8.41-10.26c5.83,4.9,11.94,8,19.34,8,5.82,0,9.34-2.35,9.34-6.21v-.19c0-3.67-2.22-5.55-13-8.37-13.05-3.39-21.46-7.05-21.46-20.13v-.19c0-11.95,9.43-19.85,22.66-19.85a37.06,37.06,0,0,1,24.05,8.38l-7.4,10.91c-5.74-4.05-11.38-6.49-16.84-6.49s-8.32,2.54-8.32,5.73v.19c0,4.33,2.77,5.74,14,8.66,13.13,3.48,20.53,8.28,20.53,19.75Zm55.88-5.31c0,16.62-11.72,25.72-23.35,25.72-7.43,0-12-3.43-15.31-7.43V477.2H221.81V412.56h12.7v6.66c3.39-4.65,8.37-7.59,16.54-7.59,11.13,0,22.36,9.35,22.36,26Zm56.49-.13c0,14.37-11.25,26-26.4,26S277,452.22,277,437.85v-.19c0-14.37,11.5-26,26.65-26s26.21,11.48,26.21,25.85Zm32.79-13.75H349.76v22.52c0,4.14,2.57,5.09,5.73,5.09a14.5,14.5,0,0,0,7-2v11a20.64,20.64,0,0,1-11.14,2.91c-8.63,0-14.48-3.48-14.48-15.14V423.91h-6.19V412.42h6.19V399.3h12.88v13.12h12.93Zm17.71,38.68H367.69V412.81H380.4ZM374,406.65a8,8,0,1,1,8-8A8,8,0,0,1,374,406.65ZM441.47,466c-1.52,3.91-5.77,11.54-14.66,11.54a27.18,27.18,0,0,1-13.57-3.42l4.65-9.86a15.38,15.38,0,0,0,6.59,2.16c2.38,0,4.55-1.52,5.85-4.57l-15.51-38H404.51v38.51H391.28V423.82h-5.93v-11.2h6.21v-3.18c0-5.52,1.63-9.55,4.27-12.17s6-3.93,11.05-3.93a31.82,31.82,0,0,1,10.15,1.4V406a18.09,18.09,0,0,0-6.48-1.22c-3.29,0-6.16,1.69-6.16,5.44v2.46l12.53,0h6.73l13.12,34,12-33.89H462ZM479,420.37a7.9,7.9,0,0,1-7.91,7.88,7.82,7.82,0,0,1-7.86-7.83v-.05a7.89,7.89,0,0,1,15.77,0Z"/><path class="cls-44" d="M204.8,111.09c5.15-1.7,10.44-3,15.72-4.26a296.15,296.15,0,0,1,39.74-6.11,355.72,355.72,0,0,1,42.68-1.31c35.09,1,69.49,6.14,102.78,17.63a218.84,218.84,0,0,1,39.06,17.75,16.93,16.93,0,0,1,8.53,11.26c.25,1.12.33,2.27.47,3.42l0-.75c-.16-1.22-.23-2.47-.5-3.66a16.93,16.93,0,0,0-8.53-11.26,218.84,218.84,0,0,0-39.06-17.75C372.43,104.56,338,99.43,302.94,98.42a355.72,355.72,0,0,0-42.68,1.31,296.15,296.15,0,0,0-39.74,6.11c-5.28,1.23-10.57,2.56-15.72,4.26a16.63,16.63,0,0,0-11.3,16.32.61.61,0,0,0,0,.14A16.6,16.6,0,0,1,204.8,111.09Z"/><path class="cls-44" d="M421.28,195.83c-.7-.43-1.4-.86-2.11-1.28a217.77,217.77,0,0,0-45-20.11,276.81,276.81,0,0,0-95.69-13,251.71,251.71,0,0,0-45,5.61c-6,1.34-12,2.9-17.91,4.7a13.8,13.8,0,0,0-9.66,13q0,.45,0,.9a13.8,13.8,0,0,1,9.66-12.93c5.9-1.8,11.89-3.36,17.91-4.7a251.71,251.71,0,0,1,45-5.61,276.57,276.57,0,0,1,95.69,13,217.77,217.77,0,0,1,45,20.11c.71.42,1.41.85,2.11,1.28A13.91,13.91,0,0,1,428,208.39,14,14,0,0,0,421.28,195.83Z"/><path class="cls-44" d="M400.8,250.27a29.4,29.4,0,0,0-2.91-1.87,187.08,187.08,0,0,0-36.07-16.56c-22.86-7.71-46.41-11-70.48-11.22-8.13.46-16.29.73-24.4,1.42a319.27,319.27,0,0,0-43.14,6.84,20.71,20.71,0,0,0-3.32,1,11.06,11.06,0,0,0-6.94,10.9,11,11,0,0,1,6.94-9.91,20.71,20.71,0,0,1,3.32-.95A319.27,319.27,0,0,1,266.94,223c8.11-.69,16.27-1,24.4-1.42,24.07.26,47.62,3.51,70.48,11.22a187.08,187.08,0,0,1,36.07,16.56,29.4,29.4,0,0,1,2.91,1.87,11.21,11.21,0,0,1,4.45,8.48A11.22,11.22,0,0,0,400.8,250.27Z"/><path d="M205.73,143.34a17.72,17.72,0,0,0,9.74,0c5.33-1.43,10.65-2.89,16-4.06a278.33,278.33,0,0,1,44.29-5.56,349.92,349.92,0,0,1,39,.2A326.4,326.4,0,0,1,352,138.26a259.67,259.67,0,0,1,51.77,14.34,205.1,205.1,0,0,1,24.4,11.89,17,17,0,0,0,25.6-14.78,2,2,0,0,1,0-.24,17,17,0,0,1-25.57,14,205.1,205.1,0,0,0-24.4-11.89A259.67,259.67,0,0,0,352,137.27a326.4,326.4,0,0,0-37.25-4.37,349.92,349.92,0,0,0-39-.2,277.19,277.19,0,0,0-44.29,5.57c-5.38,1.16-10.7,2.62-16,4a17.72,17.72,0,0,1-9.74,0,17,17,0,0,1-12.22-15.79c0,.29,0,.57,0,.85A17,17,0,0,0,205.73,143.34Z"/><path d="M205.73,142.35a17.72,17.72,0,0,0,9.74,0c5.33-1.43,10.65-2.89,16-4a277.19,277.19,0,0,1,44.29-5.57,349.92,349.92,0,0,1,39,.2A326.4,326.4,0,0,1,352,137.27a259.67,259.67,0,0,1,51.77,14.34,205.1,205.1,0,0,1,24.4,11.89,17,17,0,0,0,25.57-14c-.14-1.15-.22-2.3-.47-3.42a16.93,16.93,0,0,0-8.53-11.26A218.84,218.84,0,0,0,405.72,117C372.43,105.55,338,100.41,302.94,99.41a355.72,355.72,0,0,0-42.68,1.31,296.15,296.15,0,0,0-39.74,6.11c-5.28,1.23-10.57,2.56-15.72,4.26a16.6,16.6,0,0,0-11.29,15.47A17,17,0,0,0,205.73,142.35Z"/><path d="M406.6,220.06c-3.94-2.22-7.84-4.54-11.87-6.59-18.48-9.42-38.08-15.53-58.41-19.38a263,263,0,0,0-48.25-4.48,225.67,225.67,0,0,0-63.26,8.89,15.06,15.06,0,0,1-10.17-.27,14.16,14.16,0,0,1-8.78-12.52v.09a14.11,14.11,0,0,0,8.78,13.41,15,15,0,0,0,10.17.28,225.67,225.67,0,0,1,63.26-8.89,263,263,0,0,1,48.25,4.48c20.33,3.85,39.93,10,58.41,19.38,4,2,7.93,4.37,11.87,6.59a14.22,14.22,0,0,0,19.45-4.77,14.37,14.37,0,0,0,2-7.89,14.06,14.06,0,0,1-21.43,11.67Z"/><path d="M421.28,196.82c-.7-.43-1.4-.86-2.11-1.28a217.77,217.77,0,0,0-45-20.11,276.57,276.57,0,0,0-95.69-13,251.71,251.71,0,0,0-45,5.61c-6,1.34-12,2.9-17.91,4.7a13.8,13.8,0,0,0-9.66,12.93,14.16,14.16,0,0,0,8.78,12.52,15.06,15.06,0,0,0,10.17.27,225.67,225.67,0,0,1,63.26-8.89,263,263,0,0,1,48.25,4.48c20.33,3.85,39.93,10,58.41,19.38,4,2.05,7.93,4.37,11.87,6.59A14.06,14.06,0,0,0,428,208.39,13.91,13.91,0,0,0,421.28,196.82Z"/><path d="M389.43,269.59a27.83,27.83,0,0,1-3-1.67,172.54,172.54,0,0,0-62.51-22,216.11,216.11,0,0,0-41.13-2.27,297.4,297.4,0,0,0-52.8,7,26.43,26.43,0,0,1-5.36.76,10.9,10.9,0,0,1-10.88-9,11.56,11.56,0,0,1-.19-1.75,12.12,12.12,0,0,0,.19,2.74,10.9,10.9,0,0,0,10.88,8.95,26.43,26.43,0,0,0,5.36-.76,297.4,297.4,0,0,1,52.8-7,216.11,216.11,0,0,1,41.13,2.27,172.54,172.54,0,0,1,62.51,22,29.64,29.64,0,0,0,3,1.67,11.26,11.26,0,0,0,14.22-4.48,11.54,11.54,0,0,0,1.6-6.36,11.52,11.52,0,0,1-1.6,5.37A11.26,11.26,0,0,1,389.43,269.59Z"/><path d="M400.8,251.26a29.4,29.4,0,0,0-2.91-1.87,187.08,187.08,0,0,0-36.07-16.56c-22.86-7.71-46.41-11-70.48-11.22-8.13.46-16.29.73-24.4,1.42a319.27,319.27,0,0,0-43.14,6.84,20.71,20.71,0,0,0-3.32.95,11,11,0,0,0-6.94,9.91,11.56,11.56,0,0,0,.19,1.75,10.9,10.9,0,0,0,10.88,9,26.43,26.43,0,0,0,5.36-.76,297.4,297.4,0,0,1,52.8-7,216.11,216.11,0,0,1,41.13,2.27,172.54,172.54,0,0,1,62.51,22,27.83,27.83,0,0,0,3,1.67,11.26,11.26,0,0,0,14.22-4.48,11.52,11.52,0,0,0,1.6-5.37A11.21,11.21,0,0,0,400.8,251.26Z"/><path d="M197,423.16c-11.2-2.92-14-4.33-14-8.66v-.19c0-3.19,2.87-5.73,8.32-5.73s11.1,2.44,16.84,6.49l7.4-10.91a37.06,37.06,0,0,0-24.05-8.38c-13.23,0-22.66,7.9-22.66,19.85v.19c0,13.08,8.41,16.74,21.46,20.13,10.82,2.82,13,4.7,13,8.37v.19c0,3.86-3.52,6.21-9.34,6.21-7.4,0-13.51-3.1-19.34-8L166.29,453a40.81,40.81,0,0,0,27.47,10.53c14,0,23.77-7.33,23.77-20.41v-.19C217.53,431.44,210.13,426.64,197,423.16Z"/><path d="M349.76,399.3H336.88v13.12h-6.19v11.49h6.19v24.37c0,11.66,5.85,15.14,14.48,15.14a20.64,20.64,0,0,0,11.14-2.91v-11a14.5,14.5,0,0,1-7,2c-3.16,0-5.73-.95-5.73-5.09V423.91h12.93V412.42H349.76Z"/><rect x="367.69" y="412.81" width="12.71" height="49.78"/><path d="M436.77,446.7l-13.12-34h-6.73l-12.53,0v-2.46c0-3.75,2.87-5.44,6.16-5.44A18.09,18.09,0,0,1,417,406v-11.3a31.82,31.82,0,0,0-10.15-1.4c-5.07,0-8.42,1.31-11.05,3.93s-4.27,6.65-4.27,12.17v3.18h-6.21v11.2h5.93v38.52h13.23V423.83h10.31l15.51,38c-1.3,3.05-3.47,4.57-5.85,4.57a15.38,15.38,0,0,1-6.59-2.16l-4.65,9.86a27.18,27.18,0,0,0,13.57,3.42c8.89,0,13.14-7.63,14.66-11.54L462,412.82H448.73Z"/><circle cx="374.04" cy="398.68" r="7.97"/><path d="M474.83,418.74v0a2.53,2.53,0,0,0-.69-1.83,3.53,3.53,0,0,0-2.59-.92h-3.73v8.39h1.85v-2.7h1.46l1.79,2.7h2.15l-2-3A2.6,2.6,0,0,0,474.83,418.74Zm-1.87.11c0,.69-.5,1.2-1.44,1.2h-1.85v-2.46h1.81c.92,0,1.48.41,1.48,1.21Z"/><path d="M471.09,412.49a7.9,7.9,0,0,0-7.91,7.88v.05a7.82,7.82,0,0,0,7.86,7.83,7.9,7.9,0,0,0,7.91-7.88v0A7.82,7.82,0,0,0,471.09,412.49Zm6.94,7.88a7,7,0,1,1-13.93.05v-.05a7,7,0,1,1,13.93,0Z"/><path d="M303.69,411.62c-15.15,0-26.65,11.67-26.65,26v.19c0,14.37,11.41,25.85,26.46,25.85s26.4-11.67,26.4-26v-.19C329.9,423.1,318.74,411.62,303.69,411.62Zm-.22,41c-7.66,0-13.87-6.66-13.87-14.88s6.21-14.87,13.87-14.87,13.87,6.66,13.87,14.87S311.13,452.64,303.47,452.64Z"/><path d="M251.05,411.63c-8.17,0-13.15,2.94-16.54,7.59v-6.66h-12.7V477.2h12.94V456.08c3.3,4,7.88,7.43,15.31,7.43,11.63,0,23.35-9.1,23.35-25.72v-.19C273.41,421,262.18,411.63,251.05,411.63Zm-3.58,40.67c-7.24,0-13.11-6.59-13.11-14.72s5.87-14.72,13.11-14.72,13.11,6.59,13.11,14.72S254.71,452.3,247.47,452.3Z"/></g></g></svg>