<?xml version="1.0" encoding="utf-8"?>
<!-- Generator: Adobe Illustrator 21.1.0, SVG Export Plug-In . SVG Version: 6.00 Build 0)  -->
<svg version="1.1" id="Layer_1" xmlns="http://www.w3.org/2000/svg" xmlns:xlink="http://www.w3.org/1999/xlink" x="0px" y="0px"
	 viewBox="0 0 640 480" style="enable-background:new 0 0 640 480;" xml:space="preserve">
<style type="text/css">
	.st0{fill:#FFFFFF;}
	.st1{fill:#1E71B8;}
</style>
<g>
	<path class="st0" d="M632.6,32H167.3L7.4,448h465.3L632.6,32L632.6,32z"/>
	<path class="st1" d="M466.1,438.4H21.4L173.9,41.6h444.7L466.1,438.4L466.1,438.4z"/>
	<path class="st0" d="M235.1,105.3c-25.2,0-48.1,10.2-64.6,26.7s-26.7,39.4-26.7,64.6c0,24.2,9.6,47.5,26.7,64.6l74.6,74.1
		c4.1,4.1,6.3,9.6,6.3,15.3c0,5.7-2.3,11.3-6.3,15.3c-4.1,4.1-9.6,6.3-15.3,6.3H44.2l-26.5,67.3h208.8c24.2,0,47.5-9.6,64.6-26.8
		c16.5-16.5,26.7-39.4,26.7-64.6s-10.2-48.1-26.7-64.6l-74.6-74.1c-3.9-3.9-6.3-9.3-6.3-15.3s2.4-11.4,6.3-15.3
		c4.1-4.1,9.6-6.3,15.3-6.3h179.6L308.8,439.6h70.8l102.6-266.9h90.4l27.7-67.3H235.1z"/>
</g>
</svg>
