<?xml version="1.0" standalone="no"?>
<!DOCTYPE svg PUBLIC "-//W3C//DTD SVG 20010904//EN"
 "http://www.w3.org/TR/2001/REC-SVG-20010904/DTD/svg10.dtd">
<svg version="1.0" xmlns="http://www.w3.org/2000/svg"
 width="294.000000pt" height="298.000000pt" viewBox="0 0 294.000000 298.000000"
 preserveAspectRatio="xMidYMid meet">
<metadata>
Created by potrace 1.14, written by Peter Selinger 2001-2017
</metadata>
<g transform="translate(0.000000,298.000000) scale(0.100000,-0.100000)"
fill="#000000" stroke="none">
<path d="M1910 2973 c-14 -2 -135 -22 -270 -44 -311 -51 -453 -82 -900 -193
-222 -55 -554 -142 -673 -177 -65 -19 -84 -34 -50 -41 13 -2 17 -14 18 -53 3
-155 18 -476 30 -650 8 -110 19 -348 24 -528 l10 -328 98 -121 c54 -66 114
-142 134 -169 98 -131 368 -417 519 -551 116 -102 139 -118 160 -112 14 3 52
10 85 14 259 37 354 53 450 80 61 17 184 44 275 61 90 17 167 32 171 34 6 4
238 43 539 90 118 19 351 63 355 67 13 14 58 1125 53 1288 -3 69 -14 184 -26
255 -12 72 -24 152 -27 178 -6 48 -11 54 -223 266 -119 120 -264 258 -322 307
-139 117 -299 272 -316 307 -15 28 -40 32 -114 20z m37 -80 c-6 -37 -5 -37 10
-15 8 12 19 22 24 22 5 0 58 -46 117 -101 59 -56 152 -140 207 -188 197 -168
454 -432 510 -521 21 -35 43 -154 66 -365 14 -125 -10 -921 -37 -1248 l-7 -77
-51 -15 c-28 -8 -109 -24 -181 -35 -336 -51 -782 -134 -1025 -190 -183 -43
-382 -80 -466 -87 l-74 -6 0 72 c0 40 -7 156 -15 259 -8 103 -19 311 -25 462
-5 151 -15 350 -21 441 -13 184 -9 393 8 410 28 28 727 210 973 253 216 38
558 86 615 86 76 0 125 11 125 27 0 34 -42 35 -249 9 -381 -48 -833 -140
-1171 -236 -58 -17 -151 -43 -207 -58 l-103 -27 -32 39 c-27 33 -33 36 -38 21
-5 -15 -26 0 -121 86 -157 144 -395 350 -509 441 -145 116 -180 160 -137 178
49 21 401 102 423 97 13 -2 24 1 25 7 0 6 4 2 9 -9 9 -19 9 -19 16 3 10 35 55
49 369 118 66 14 127 30 135 34 20 11 222 55 315 69 39 6 126 21 195 32 361
60 334 59 327 12z m-1782 -524 c75 -54 362 -298 577 -491 131 -118 168 -157
164 -171 -3 -11 3 -31 14 -46 15 -21 17 -36 11 -82 -4 -31 -3 -132 1 -225 4
-93 12 -295 18 -449 5 -154 17 -394 26 -532 9 -139 14 -260 10 -268 -9 -23
-39 -4 -151 94 -131 116 -340 346 -527 579 -183 230 -163 165 -178 572 -5 151
-16 363 -24 470 -12 165 -22 489 -17 568 0 12 5 22 9 22 5 0 35 -19 67 -41z"/>
</g>
</svg>
