<?xml version="1.0" encoding="utf-8"?>
<!-- Generator: Adobe Illustrator 22.1.0, SVG Export Plug-In . SVG Version: 6.00 Build 0)  -->
<svg version="1.1" id="Layer_2_1_" xmlns="http://www.w3.org/2000/svg" xmlns:xlink="http://www.w3.org/1999/xlink" x="0px" y="0px"
	 viewBox="0 0 640 480" style="enable-background:new 0 0 640 480;" xml:space="preserve">
<style type="text/css">
	.st0{fill:#FEBD11;}
	.st1{fill:#EE1B2E;}
</style>
<g>
	<path class="st0" d="M397.8,328.1c28.6,25.6,60.7,54.3,92.7,82.9c1.1-0.8,2.1-1.8,3.2-2.6c-29.6-34.3-59.4-68.6-89-102.9
		c0.6-0.8,1-1.7,1.5-2.6c40.4,17.6,80.7,35.4,121.1,53c0.7-1.4,1.4-2.6,2.2-4c-37.7-22.9-75.6-45.7-113.3-68.6
		c0.3-0.8,0.7-1.8,1-2.6c47.5,4.8,95,9.6,142.5,14.5c0.3-1.1,0.4-2.2,0.7-3.3c-46.3-10.7-92.5-21.6-138.8-32.4c0-1.1,0-2.2,0-3.2
		c43.8-9.5,87.6-19,131.4-28.5c-0.1-1.4-0.3-2.8-0.4-4c-44.6,3.7-89.4,7.4-134,11.2c-0.4-1-0.7-1.9-1.1-3
		c38.4-22.4,77-44.9,115.4-67.3c-0.7-1.2-1.2-2.6-1.9-3.9c-41.3,17.4-82.5,34.8-123.8,52.2c-0.7-0.7-1.4-1.5-1.9-2.2
		c28.5-31.9,57-63.9,85.5-95.8c-1.1-1.1-2.2-2.3-3.3-3.4c-32.1,27.5-64.2,55.2-96.3,82.8c-1-0.6-1.9-1.1-2.9-1.7
		c17.8-40.5,35.7-81,53.4-121.5c-1.4-0.7-2.6-1.2-4-1.9c-23,38-45.9,75.9-68.9,113.9c-1-0.3-2.1-0.4-3-0.7
		c4.8-47.9,9.6-95.8,14.5-143.9c-1-0.1-2.1-0.3-3-0.4c-10.9,46.5-21.6,93-32.5,139.5c-1.1,0.1-2.3,0.1-3.4,0.3
		c-9.4-43.1-18.7-86.1-28.1-129.2c-1.4,0.1-2.9,0.3-4.3,0.4c3.6,43.9,7.3,87.7,10.9,131.7c-1.1,0.4-2.2,0.8-3.3,1.2
		c-23.3-39.9-46.5-79.9-69.8-119.7c-1.1,0.6-2.2,1.1-3.3,1.7c18.2,42.8,36.2,85.7,54.4,128.5c-0.8,0.7-1.5,1.4-2.3,2.1
		c-34.6-30.8-69.1-61.7-103.7-92.5c-1,0.8-1.9,1.7-2.9,2.5c28.6,33.1,57.4,66.2,83.3,96.3c-47.6-24-98.5-49.6-149.1-75.3
		C157.7,56,252.8-11.2,370.5,1.6C488,14.4,582,107.3,597.7,220.5c16.8,121.9-55.1,225-127.9,259.5
		C445.3,428.5,420.9,376.9,397.8,328.1z"/>
	<path class="st1" d="M39.9,106.4C171.8,147.1,278.7,216.8,359.6,328c-76.8,30.4-150.1,27.5-218.4-18.2
		C70.8,262.7,38.2,194.8,39.9,106.4z"/>
</g>
</svg>
