<?xml version="1.0" encoding="utf-8"?>
<!-- Generator: Adobe Illustrator 22.1.0, SVG Export Plug-In . SVG Version: 6.00 Build 0)  -->
<svg version="1.1" id="Layer_1" xmlns="http://www.w3.org/2000/svg" xmlns:xlink="http://www.w3.org/1999/xlink" x="0px" y="0px"
	 viewBox="0 0 640 480" style="enable-background:new 0 0 640 480;" xml:space="preserve">
<style type="text/css">
	.st0{fill:#F2912F;}
</style>
<g>
	<path d="M0,258.5c2.7-0.8,5.4-1.6,8.2-2.3c0.2,0.7,0.3,1.3,0.4,2c1.6,5.7,5,9.9,10.9,11.5c8.1,2.3,16.9-2.8,18.8-10.8
		c1.3-5.5-0.2-10.5-5.1-13.9c-2.9-2-6.2-3.4-9.4-4.9c-3.6-1.6-7.2-3.1-10.5-5.1c-3-1.8-5.6-4-7.3-7.1c-1.8-3.2-2.3-6.6-2-10.2
		c0.7-8.9,7.4-15.4,16.2-17.1c6-1.2,11.7-0.4,16.9,3c3.1,2,5.4,4.6,7.2,7.8c0.1,0.1,0.1,0.2,0.2,0.4c-2.2,1.4-4.4,2.9-6.6,4.3
		c-0.8-1.1-1.5-2.2-2.4-3.3c-3.2-3.9-7.4-5.3-12.3-4.8c-3.5,0.4-6.5,1.9-8.6,4.7c-3,3.9-3.8,10.3,2,14.5c2.5,1.8,5.4,3.1,8.2,4.4
		c3.6,1.6,7.1,3.3,10.7,5c2.2,1.1,4.1,2.5,5.9,4.2c3.8,3.5,5.7,7.8,5.8,12.8c0.3,7.4-2.3,13.6-7.8,18.5c-3.8,3.4-8.2,5.2-13.3,5.7
		c-6.3,0.6-12.1-0.7-17.1-4.5c-4.6-3.4-7.3-8.1-8.7-13.6c-0.1-0.3-0.2-0.6-0.3-0.8C0,258.8,0,258.7,0,258.5z"/>
	<path d="M432.5,280.6c-9.7-26.5-19.3-52.9-28.9-79.3c3.1,0,6.1,0,9.1,0c3.3,9.4,6.6,18.8,9.9,28.2c3.3,9.4,6.6,18.7,9.9,28.3
		c8.2-20.2,16.2-40.2,24.4-60.4c8.2,20.2,16.2,40.2,24.4,60.4c0.5-1.3,0.9-2.5,1.3-3.7c6.1-17.4,12.2-34.7,18.3-52.1
		c0.2-0.6,0.4-0.7,1-0.7c2.8,0,5.5,0,8.4,0c-9.6,26.4-19.2,52.8-28.9,79.3c-8.2-20.3-16.2-40.4-24.4-60.7
		C448.8,240.2,440.7,260.3,432.5,280.6z"/>
	<path class="st0" d="M352.6,277.9c-17.9-0.1-33.7-11.9-37.9-29.2c-3.6-14.7,0.4-27.4,11.3-37.9c5.6-5.4,12.5-8.6,20.2-9.8
		c16.2-2.6,33.3,4.5,41.5,20.1c3.5,6.6,4.8,13.7,4.3,21.1c-1.2,17.7-14.1,31.6-31.4,34.9c-1.1,0.2-2.1,0.4-3.2,0.5
		C355.8,277.7,354.2,277.7,352.6,277.9z M352.1,208.8c-16.5,0-29.8,13.5-29.8,30.5c0,16.6,13.4,30.2,29.7,30.2
		c17.5,0,31.1-13.2,31.1-30.2C383.2,222,369.7,208.8,352.1,208.8z"/>
	<path d="M217.3,259.7c0-19.6,0-38.9,0-58.3c2.8,0,5.5,0,8.3,0c0,26.2,0,52.4,0,78.7c-19.6-20.5-39.1-40.9-58.7-61.4
		c0,19.4,0,38.7,0,58c-2.8,0-5.6,0-8.4,0c0-26.1,0-52.3,0-78.5C178.1,218.6,197.6,239.1,217.3,259.7z"/>
	<path d="M596.4,201.3c0.2,0,0.4,0,0.5,0c4.9,0,9.8,0,14.7,0.2c4.6,0.2,9,1,13.2,3c5.8,2.8,8.9,7.5,9.8,13.8
		c0.6,4.1,0.3,8.2-1.2,12.2c-2.5,6.6-7.4,10.4-14.2,12c-1,0.2-2.1,0.4-3.2,0.6c8,11.2,15.9,22.4,23.9,33.7c-0.3,0-0.5,0-0.8,0
		c-3,0-5.9,0-8.9,0c-0.5,0-0.8-0.2-1.1-0.6c-7.2-10.4-14.4-20.8-21.5-31.3c-0.8-1.2-1.7-1.4-3-1.2c0,11,0,21.9,0,32.9
		c-2.8,0-5.6,0-8.4,0C596.4,251.6,596.4,226.5,596.4,201.3z M604.8,236.1c0.3,0,0.5,0,0.7,0c1.4,0,2.8,0,4.2,0
		c2.8-0.1,5.5-0.4,8.2-1.2c3.7-1.2,6.5-3.3,7.8-7.1c0.8-2.3,0.9-4.8,0.6-7.2c-0.2-1.4-0.5-2.8-1-4.1c-1.4-3.7-4.3-5.5-8-6.4
		c-2.8-0.7-5.7-0.9-8.6-0.9c-1.3,0-2.7,0-4,0C604.8,218.2,604.8,227.1,604.8,236.1z"/>
	<path d="M120.7,201.3c2.8,0,5.6,0,8.4,0c0,0.2,0,0.5,0,0.7c0,16.1,0,32.1,0,48.2c0,3.8-0.3,7.5-1.5,11.1c-2,5.7-5.9,9.8-11,12.8
		c-5.3,3.1-11.1,4.3-17.3,3.7c-8-0.9-14.5-4.3-19.4-10.8c-2.4-3.2-3.7-6.9-4.1-10.8c-0.3-2.8-0.4-5.6-0.4-8.4c0-15.2,0-30.4,0-45.5
		c0-0.3,0-0.6,0-0.9c2.8,0,5.6,0,8.4,0c0,0.3,0,0.6,0,0.8c0,15.6,0,31.2,0,46.8c0,2.8,0.1,5.6,0.8,8.3c1.4,5.8,5.2,9.4,10.6,11.5
		c8.1,3.1,16.7,0.3,21.5-4.9c2.1-2.3,3.3-5.1,3.6-8.2c0.3-2.6,0.4-5.3,0.4-7.9c0-15.3,0-30.5,0-45.8
		C120.7,201.9,120.7,201.6,120.7,201.3z"/>
	<path d="M537.5,268.9c10.2,0,20.4,0,30.6,0c0,2.6,0,5.1,0,7.7c-13,0-26,0-39.1,0c0-25.1,0-50.2,0-75.3c13,0,26,0,39,0
		c0,2.5,0,5.1,0,7.7c-10.2,0-20.4,0-30.6,0c0,7.5,0,14.9,0,22.4c9.9,0,19.7,0,29.7,0c0,2.7,0,5.2,0,7.9c-9.9,0-19.7,0-29.7,0
		C537.5,249.2,537.5,259,537.5,268.9z"/>
	<path d="M265.8,276.7c-2.9,0-5.6,0-8.4,0c0-25.1,0-50.2,0-75.4c0.3,0,0.5,0,0.7,0c4.9,0,9.7,0,14.6,0c3.7,0,7.4,0.3,10.9,1.6
		c6.5,2.2,10.6,6.8,12.4,13.3c2,7.2,0.9,14-3.8,20c-2.8,3.6-6.7,5.6-11.1,6.7c-3.1,0.7-6.3,0.9-9.5,0.9c-1.9,0-3.8,0-5.8,0
		C265.8,254.7,265.8,265.7,265.8,276.7z M265.8,235.9c2.4,0,4.7,0,7,0c2.3,0,4.5-0.3,6.7-1c4.3-1.3,7.4-3.9,8.6-8.4
		c0.7-2.7,0.7-5.4,0.1-8c-0.8-3.7-2.9-6.3-6.4-7.6c-1.7-0.6-3.5-1.2-5.3-1.3c-3.3-0.3-6.7-0.3-10-0.4c-0.2,0-0.4,0-0.6,0.1
		C265.8,218.1,265.8,226.9,265.8,235.9z"/>
</g>
</svg>
