<?xml version="1.0" encoding="utf-8"?>
<!-- Generator: Adobe Illustrator 22.1.0, SVG Export Plug-In . SVG Version: 6.00 Build 0)  -->
<svg version="1.1" id="Layer_1" xmlns="http://www.w3.org/2000/svg" xmlns:xlink="http://www.w3.org/1999/xlink" x="0px" y="0px"
	 viewBox="0 0 640 480" style="enable-background:new 0 0 640 480;" xml:space="preserve">
<style type="text/css">
	.st0{fill:#144791;}
	.st1{fill:#B75D13;}
</style>
<g>
	<path class="st0" d="M43.9,135.7c0-23.8,0-45.9,0-68.7c3.3-0.2,6.2-0.7,9.3-0.7c19.2,0,38.5,0.2,57.7,0c22.6-0.5,41.1,7.8,57,23.8
		c50.1,50.4,100.5,100.5,150.6,150.9c31.4,31.4,62.7,63.2,94.8,94.1c5.5,5.2,14.3,8.6,21.9,9c16.2,1.4,32.6,0,48.7,0.5
		c8.3,0.2,11.9-1.9,11.4-10.9c-0.7-18.3-0.2-36.4-0.2-53.7c33.3,33.7,66.5,67.5,99.6,100.7c-31.1,31.1-64.6,64.4-99.1,98.6
		c0-21.9,0-43.5,0-65.6c-4.3-0.2-7.1-0.7-10-0.7c-19.2,0-38.5-0.5-57.7,0c-23.5,1-42.3-8.1-58.7-24.5
		c-80.3-80.8-161.1-161.1-241.7-241.9c-7.8-7.8-16.2-11.6-27.3-11.2C81.7,136.2,63.1,135.7,43.9,135.7z"/>
	<path class="st1" d="M214.5,344.8l41.3-41.3l-50.6-50.6l-53.9,53.9l0.2,0.2c-8.3,8.3-16.6,16.6-24.5,25.4
		c-8.6,9.7-18.1,13.1-30.7,12.4c-17.1-1-34.5-0.2-52.3-0.2c0,23.8,0,45.9,0,68.2c26.1,0,51.3,1,76.5-0.2c15-0.7,29.2-6.2,40.6-16.9
		c13.5-12.8,27.1-25.9,40.4-38.5l0.2,0.2l6.9-6.9C210.7,348.6,212.6,346.7,214.5,344.8L214.5,344.8z"/>
	<path class="st1" d="M596.1,101.7c-33.3-33.3-66.8-67-100.7-101c0,21.1,0,42.5,0,65.6c-24.9,0-48,0-71.3,0
		c-14.3,0-28.5,2.1-39.4,11.6c-21.4,18.8-41.8,38.5-61.1,56.6l0,0l-41.8,42.1l50.6,50.6l41.3-41.3l0,0
		c12.6-13.5,25.2-27.6,38.5-41.1c4-4,9.7-8.6,15-8.8c22.1-1,44.2-0.5,68-0.5c0,22.6,0,44.2,0,66.8
		C530.3,167.8,563.8,134.3,596.1,101.7z"/>
</g>
</svg>
