<svg xmlns="http://www.w3.org/2000/svg" viewBox="0 0 640 480"><defs><style>.cls-1{fill:none;}.cls-2{fill:#00a17d;}</style></defs><title>usdt_icon</title><g id="Layer_2" data-name="Layer 2"><g id="Bitcoin"><path class="cls-1" d="M320,13.68C195.21,13.68,93.68,115.21,93.68,240S195.21,466.32,320,466.32,546.32,364.8,546.32,240,444.8,13.68,320,13.68ZM309.35,414.26c-86.91-5.49-157.43-76-162.93-162.93A174.66,174.66,0,0,1,332,65.72C419,71.21,489.48,141.73,495,228.65A174.65,174.65,0,0,1,309.35,414.26Z"/><path class="cls-1" d="M341.53,218.24V197.81a3,3,0,0,1,3-3h54.3a3,3,0,0,0,3-3V156.14a3,3,0,0,0-3-3H242.55a3,3,0,0,0-3,3V191.8a3,3,0,0,0,3,3h54.31a3,3,0,0,1,3,3v20.43c-48.81,2.22-85.61,12.09-85.61,23.94s36.8,21.73,85.61,23.95v79.64a3,3,0,0,0,3,3h35.66a3,3,0,0,0,3-3V266.13c48.82-2.22,85.62-12.1,85.62-23.95S390.35,220.46,341.53,218.24ZM320.7,259c-51.68,0-93.58-8.33-93.58-18.61,0-8.85,31.09-16.25,72.74-18.14V248a3,3,0,0,0,3,3h35.66a3,3,0,0,0,3-3v-25.7c41.65,1.89,72.75,9.29,72.75,18.14C414.28,250.67,372.38,259,320.7,259Z"/><path class="cls-1" d="M0,0V480H640V0ZM320,477.5C189,477.5,82.5,371,82.5,240S189,2.5,320,2.5,557.5,109,557.5,240,451,477.5,320,477.5Z"/><path class="cls-2" d="M320,2.5C189,2.5,82.5,109,82.5,240S189,477.5,320,477.5,557.5,371,557.5,240,451,2.5,320,2.5Zm0,463.82C195.21,466.32,93.68,364.8,93.68,240S195.21,13.68,320,13.68,546.32,115.21,546.32,240,444.8,466.32,320,466.32Z"/><path class="cls-2" d="M341.53,222.25V248a3,3,0,0,1-3,3H302.87a3,3,0,0,1-3-3v-25.7c-41.65,1.89-72.74,9.29-72.74,18.14,0,10.28,41.9,18.61,93.58,18.61s93.58-8.33,93.58-18.61C414.28,231.54,383.18,224.14,341.53,222.25Z"/><path class="cls-2" d="M332,65.72A174.66,174.66,0,0,0,146.42,251.33c5.5,86.92,76,157.44,162.93,162.93A174.65,174.65,0,0,0,495,228.65C489.48,141.73,419,71.21,332,65.72Zm9.49,200.41v79.64a3,3,0,0,1-3,3H302.87a3,3,0,0,1-3-3V266.13c-48.81-2.22-85.61-12.1-85.61-23.95s36.8-21.72,85.61-23.94V197.81a3,3,0,0,0-3-3H242.55a3,3,0,0,1-3-3V156.14a3,3,0,0,1,3-3H398.84a3,3,0,0,1,3,3V191.8a3,3,0,0,1-3,3h-54.3a3,3,0,0,0-3,3v20.43c48.82,2.22,85.62,12.09,85.62,23.94S390.35,263.91,341.53,266.13Z"/></g></g></svg>