<?xml version="1.0" encoding="utf-8"?>
<!-- Generator: Adobe Illustrator 22.1.0, SVG Export Plug-In . SVG Version: 6.00 Build 0)  -->
<svg version="1.1" id="Layer_1" xmlns="http://www.w3.org/2000/svg" xmlns:xlink="http://www.w3.org/1999/xlink" x="0px" y="0px"
	 viewBox="0 0 1920 1080" style="enable-background:new 0 0 1920 1080;" xml:space="preserve">
<style type="text/css">
	.st0{fill:#282828;}
</style>
<g>
	<path class="st0" d="M1742.1,576.1c30.2,0,59.1,0,90.9,0c-5.8,6.9-9.7,12.1-14.1,16.8c-64.5,69.1-143.5,112.1-235.8,131.3
		c-84.8,17.7-168.6,13.4-252.6-7.8c-127.6-32.1-248.4-15.4-358.4,59.5c-14.7,10-26.1,13-42,5.9c-15.4-6.8-31.8-11.3-51.4-18.1
		c22.1-14.6,41-28.3,61-40.1c80.5-47,168-60.8,259.4-50.5c39.3,4.4,78.5,11.4,117,20.6c86.9,20.6,168.9,6.3,248.4-30.4
		c42.5-19.6,81-45.5,113.5-79.4c4.6-4.8,8.1-11.6,9.7-18.1c7.1-29.6,13.3-59.4,19.7-89.2c1-4.5,1.7-9.1,2.2-13.6
		c2-18.6-9.4-27.9-27.6-22.4c-17,5.1-24.9,18.3-28.7,34.1c-6.1,25.5-11.5,51.1-16.9,76.7c-5.1,24.3-4.9,24.3-29.5,24.3
		c-9.9,0-19.7,0-30.5,0c6.9-33.1,13.5-64.9,20.2-96.7c4.8-22.5,10-45,14.5-67.5c1.3-6.3,3.7-9,10.5-8.7c13.8,0.5,27.6,0.1,42.8,0.1
		c-1.5,8.8-2.8,16.6-4.5,26.7c3.2-3,5.2-4.6,6.8-6.4c20-22.8,45.6-27.7,73.6-21.3c24.1,5.5,32.8,23.2,26.9,51.6
		c-7.8,37.5-15.9,74.8-23.8,112.3C1742.8,568.6,1742.7,571.4,1742.1,576.1z"/>
	<path class="st0" d="M1306.3,342c-5.7,27.5-11.2,53.6-16.6,79.6c17.8-17.4,38-24,61.7-21.3c24.4,2.8,40.3,16.2,43.7,40.7
		c6.2,44.2-4.4,84-37.1,115.8c-22.3,21.7-50.3,26.4-80.1,20.5c-14-2.8-21.9-13.5-29.1-27.6c-4.1,5.6-8.3,9.6-10.2,14.4
		c-4.1,10.3-11.2,13.4-21.6,12c-4.8-0.6-9.7-0.1-15.8-0.1c6.1-28.5,12-55.4,17.7-82.3c10.1-47.4,20.3-94.8,30.1-142.3
		c1.4-6.7,3.7-9.7,11-9.5C1275.3,342.3,1290.4,342,1306.3,342z M1343,463.4c-2.3-11.1-3-21.4-13.7-27.3c-9.2-5-23.6-2.8-32.5,5.6
		c-4.5,4.3-9.5,9.5-11.1,15.1c-5.8,20.6-11.7,41.4-14.9,62.6c-2.5,16.3,9.8,26.4,26.5,24.8c15.1-1.5,24.9-10.9,29.6-24.1
		C1333.4,501.6,1337.7,482.3,1343,463.4z"/>
	<path class="st0" d="M1556.9,575.3c-17.2,0-34.4,0-53,0c0.5-7.7,1-14.9,1.6-23.5c-3.5,2.7-6.3,4.7-8.8,6.9
		c-22.3,19.7-48.4,24.2-76.6,18.4c-24.1-5-34.9-22.6-29.8-46.6c4.8-22.5,19.6-36.5,39.3-45.9c25.2-12,52.8-13.3,79.9-15.4
		c8.8-0.7,13.3-2.2,14.6-12c1.3-9.9,0.6-17.7-9.3-22.2c-15.8-7.1-40.5,0.6-48.5,15.9c-3.2,6.1-6.4,6.9-12.4,6.2
		c-13.3-1.6-26.6-2.3-41.2-3.5c6.8-20.5,20.2-33.4,37.7-41.2c32.5-14.4,66.5-17.1,100.8-7.7c26.3,7.2,35,21.6,29.7,48.7
		c-5.6,28.5-12.2,56.7-18,85.1C1560.6,550.3,1559.1,562.2,1556.9,575.3z M1515.2,495.3c-15.7-2.4-44,4-54.4,13.7
		c-4.9,4.5-8.9,11.1-11,17.4c-3.3,10,3.5,20.5,14,20.5c9.1,0,19.2-1.9,27-6.2C1508,531.2,1513.8,514.2,1515.2,495.3z"/>
	<path class="st0" d="M530.5,575.1c-18.2,0-35.7,0-53.9,0c0.6-7.4,1.2-14,1.9-23.4c-4.2,3.5-6.7,5.5-9.1,7.5
		c-22.5,19.4-48.7,24-76.8,17.8c-25.2-5.5-35.9-25.2-28.5-49.9c6.9-22.9,22.8-38.5,44.9-44.6c24-6.7,49.2-9.8,74-13.2
		c8-1.1,13.2-1.8,14.3-11.2c1.5-13-0.6-19.2-9.7-23.1c-16.3-6.8-40.1,0.8-48.2,16.5c-2.9,5.6-5.8,6.6-11.4,5.9
		c-13.6-1.6-27.3-2.5-42.3-3.8c5.7-16.4,15.1-28.2,28.6-35.7c37.6-21.1,77.5-24.1,118-10.1c20.8,7.2,26.7,23.4,21.3,49
		c-7.1,33.3-14,66.5-20.9,99.9C531.6,562.4,531.3,568.4,530.5,575.1z M488.9,494.2c-18.2,0.3-35.1,3.2-50.5,11.7
		c-13.6,7.5-19.6,22.3-14.1,32.8c5.1,9.9,20,12.5,34.3,5.6C479,534.4,486,516.2,488.9,494.2z"/>
	<path class="st0" d="M1100.8,403c-4.1,19.2-7.8,37.1-11.7,55c-7.8,36.3-15.8,72.6-23.1,109.1c-1.5,7.4-4.6,9.1-11.3,8.9
		c-13.4-0.4-26.8-0.1-41.6-0.1c1.7-9.1,3.3-17.2,5-26.6c-1.9,1.7-3.3,2.5-4.2,3.7c-19.3,23.9-44.8,29.7-73.6,25
		c-20-3.3-30.5-15.1-29.4-35.2c0.8-15.1,4.4-30,7.4-44.9c5.7-28.4,12.1-56.8,17.8-85.2c1.4-6.9,3.7-10.2,11.7-9.8
		c14.8,0.8,29.7,0.2,45.8,0.2c-2.8,13.3-5.4,25.2-8,37.2c-5.2,24.6-10.7,49.1-15.6,73.8c-4.3,21.4,6.2,30.2,27,23.2
		c16.7-5.6,24.2-18.4,27.5-34.7c6.2-30.1,13-60.2,19-90.4c1.4-6.9,3.8-9.5,10.9-9.3C1069.5,403.3,1084.3,403,1100.8,403z"/>
	<path class="st0" d="M658.2,575.8c7.2-33.7,14.1-65.9,20.9-98.1c1.1-5.2,2.4-10.4,2.9-15.6c1.7-16.6-9.6-26.2-25.9-22.2
		c-15.8,3.9-25.1,15-29,29.7c-5.9,21.9-10.3,44.2-15.2,66.3c-2.9,13-5.7,26.1-8.5,39.4c-18.4,0-36,0-55.2,0
		c12.3-57.7,24.5-114.5,36.7-171.8c17.3,0,33.8,0,51.9,0c-1.5,8.3-2.9,16-4.7,25.9c3-2.7,4.8-3.9,6.2-5.5
		c20.1-23.4,45.8-28.2,74.4-21.8c19.5,4.4,29.4,16.1,27.2,35.9c-2.7,25.6-8.3,50.9-13.2,76.3c-3.5,18.1-7.6,36-12.1,53.9
		c-0.8,3-4.9,7.1-7.6,7.3C691.3,576.2,675.8,575.8,658.2,575.8z"/>
	<path class="st0" d="M911.7,444.9c-14,3.2-27.7,6.3-41.1,9.4c-10.6-21.9-34.5-30-55.3-18.5c-4.5,2.5-9.4,9.2-9.1,13.6
		c0.3,3.9,7,9.5,11.8,10.6c16.2,3.7,32.9,5,49,8.7c39.4,9.1,50.9,42.3,26.3,74.9c-18.1,24-43.8,33.8-72.3,34.8
		c-18.8,0.7-38.4-1.1-56.7-5.6c-22-5.4-32.8-21.9-33.2-44.2c15.4-1.9,31-3.9,46.4-5.9c11,24.1,52.5,31.5,71.1,13
		c2.8-2.7,4.8-8.7,3.7-12.1c-1.1-3.4-6.2-6.8-10.1-7.6c-16.3-3.4-32.8-5.8-49.1-8.8c-4.5-0.8-9-2-13.4-3.5
		c-22.1-7.5-32.4-27.3-26.1-49.8c5.6-20.1,18.3-34.4,37-42.8c26.7-12.1,54.7-14.6,83.2-8.3C895.8,407.6,907.7,422.1,911.7,444.9z"/>
	<path class="st0" d="M242.3,352.6c-3.5,17-6.8,32.8-10.3,49.8c14.1,0,26.7,0,40.7,0c-2.9,13.9-5.6,26.5-8.5,40.3
		c-13.6,0-26.9,0-41,0c-5.8,27.2-11.7,53.3-16.7,79.6c-2.2,11.5,2.4,16.2,14.5,16.8c4.2,0.2,8.5,0,12.8,0c3.8,0,7.6,0,12.8,0
		c-2.6,11.8-4.6,22.9-7.6,33.6c-0.6,2-4.9,4.1-7.5,4.2c-17.6,0.5-35.5,2.1-52.9,0.1c-24.8-2.8-34.2-17.2-29.7-41.9
		c4-21.9,8.9-43.7,13.4-65.6c1.7-8.3,3.4-16.6,5.4-26.3c-10,0-19.3,0-30.7,0c2.8-13.5,5.1-25.4,7.8-37.2c0.3-1.4,2.9-2.5,4.7-3.3
		c1.2-0.5,2.8-0.1,4.2-0.2c25.5-0.6,25.5-0.6,32.8-24.7c7.6-25.3,7.6-25.3,34.4-25.3C227.6,352.6,234.2,352.6,242.3,352.6z"/>
	<path class="st0" d="M1140.1,644.9c-32.5,4.2-68.2,6.9-103.1,13.6c-69.1,13.4-130.6,43.6-183.6,90.4c-2.4,2.1-7,4.1-9.8,3.3
		c-22.3-6.8-44.4-14.3-66.9-21.6C843.7,652.2,1044.7,606.1,1140.1,644.9z"/>
	<path class="st0" d="M340.1,403c-1.9,9.8-3.5,17.6-5.1,25.5c14.4-17.9,29.2-33.5,56.7-27.2c-3.3,15.2-6.4,30.3-10.1,45.2
		c-0.4,1.7-4.2,3.5-6.5,3.6c-27.1,1.2-42.2,17.2-48.9,41.4c-6.7,24.1-11.7,48.8-16.6,73.3c-1.7,8.4-4.6,11.9-13.8,11.3
		c-14-0.9-28.2-0.2-43.7-0.2c4.6-22.2,8.8-43.2,13.2-64.1c7-33.2,14.3-66.4,21.2-99.6c1.3-6.5,3.6-9.6,11-9.3
		C311.2,403.4,325,403,340.1,403z"/>
	<path class="st0" d="M1127.5,403.6c17.2,0,33.7,0,51,0c-1.6,8.6-3.1,16.5-4.6,24.4c-0.5-0.7-1.1-1.5-1.6-2.2
		c8.4-6.7,16.5-13.8,25.4-20c9.5-6.6,20.3-7.4,32.6-4.7c-3.2,15.3-6.1,30.2-9.7,44.8c-0.5,1.9-4.6,4-7.2,4.2
		c-26.1,1.3-41.1,16.5-47.7,40c-6.8,24.5-12.1,49.5-17.3,74.5c-1.7,8.3-4.3,12.1-13.6,11.5c-14.1-0.9-28.3-0.2-44.1-0.2
		C1103.1,517.8,1115.2,460.9,1127.5,403.6z"/>
</g>
</svg>
