<?xml version="1.0" encoding="utf-8"?>
<!-- Generator: Adobe Illustrator 21.0.2, SVG Export Plug-In . SVG Version: 6.00 Build 0)  -->
<svg version="1.1" id="svg" xmlns="http://www.w3.org/2000/svg" xmlns:xlink="http://www.w3.org/1999/xlink" x="0px" y="0px"
	 viewBox="0 0 640 480" style="enable-background:new 0 0 640 480;" xml:space="preserve">
<style type="text/css">
	.st0{fill:#E42518;}
	.st1{fill:#004887;}
	.st2{fill:#004C88;}
	.st3{fill:#004A87;}
	.st4{fill:#004A88;}
</style>
<g id="svgg">
	<path id="path0" class="st0" d="M535.8,315c-53.4,1-129.9,3.5-164.3,5.4c-3.5,0.2-17.4,0.9-30.7,1.6
		c-65.7,3.5-124.5,7.9-185.7,14.1c-58.4,5.9-142,17.1-151.7,20.3c-4.2,1.4-4.5,3.2-0.8,4.4c4.4,1.4,507.4,0.8,520-0.7
		c20.9-2.4,26-3.7,48-12.4c36.1-14.2,56.1-27.8,47.4-32.2C615.8,314.4,578.6,314.1,535.8,315"/>
	<path id="path1" class="st1" d="M521.8,147.6c2.4,0.1,6.4,0.1,9,0c2.6-0.1,0.6-0.2-4.3-0.2C521.6,147.4,519.5,147.5,521.8,147.6
		 M234.4,176.8l-1.9,2.1l2.1-1.9c1.9-1.8,2.4-2.3,1.9-2.3C236.4,174.7,235.5,175.6,234.4,176.8 M445.8,196.6l-1.9,2.1l2.1-1.9
		c1.1-1,2.1-2,2.1-2.1C448,194.2,447.5,194.7,445.8,196.6 M621.5,246.2l-2.2,2.4l2.4-2.2c2.2-2.1,2.7-2.6,2.2-2.6
		C623.8,243.8,622.8,244.9,621.5,246.2"/>
	<path id="path2" class="st2" d="M56.6,119c-1,0.3-2.3,0.9-2.8,1.4c-0.9,0.7-1,0.7-0.5-0.1c0.6-1.1,0-0.7-4,2.1
		c-3,2.1-5.1,5.2-5.6,8.3c-0.2,1.1-0.8,3.6-1.2,5.6c-0.5,1.9-1,4.6-1.2,5.8c-0.2,1.3-0.5,2.8-0.8,3.4c-0.4,1.1,113.5,1.7,114.6,0.6
		c0.2-0.2,1.1-0.5,1.9-0.7c2.1-0.3,6.9-2.7,6.9-3.5c0-0.3,0.3-0.5,0.6-0.3c0.7,0.4,3.3-2.6,3.3-3.9c0-0.5,0.3-0.9,0.6-0.9
		c0.4,0,0.6-0.7,0.6-1.6c0-0.9,0.3-2.2,0.6-3c0.5-1.4,1.8-6.3,2.4-9.2c0.1-0.7,0.4-2.1,0.6-3l0.4-1.8l-57.2,0.1
		C84.1,118.4,57.6,118.7,56.6,119 M328.2,120.5c-0.8,0.8-2.1,1.6-2.7,1.9c-0.7,0.3-1,0.6-0.8,0.9c0.2,0.2-0.2,0.9-0.9,1.5
		c-2.2,1.9-4,7.5-5.5,16.8c-0.4,2.6-0.7,4.1-1.1,7c-0.1,0.8-0.5,2.2-0.9,3c-0.3,0.9-0.8,3-1.1,4.8c-0.2,1.8-0.6,4.1-0.8,5.1
		c-0.2,1.1-0.5,2.8-0.6,3.8c-0.6,3.9-0.8,4.5-1.4,6.1c-0.4,0.9-0.8,3.6-1.1,6c-0.2,2.4-0.6,4.7-0.7,4.9c-0.4,0.6-0.9,2.7-1.3,5.6
		c-0.4,3-0.6,4-1.1,5.1c-0.3,0.9-0.6,2.3-1.6,8c-0.3,2.1-0.4,2.4-1,4.8c-0.2,0.9-0.6,2.6-0.8,3.8c-1.1,6.9-1.6,9.6-2.3,12.8
		c-0.4,1.9-0.8,4.1-1,4.8c-0.1,0.7-0.4,2-0.6,2.9c-0.2,0.9-0.5,2.3-0.6,3.2c-0.1,0.9-0.4,2.3-0.6,3.3c-0.2,0.9-0.5,2.6-0.6,3.8
		c-0.2,1.2-0.3,2.2-0.4,2.2c-0.1,0-0.6,2.2-1,4.2c-0.1,0.9-0.5,2.8-0.9,4.2c-0.3,1.4-0.8,3.9-1,5.6c-0.2,1.6-0.6,3.7-0.9,4.5
		l-0.6,1.5h15.2c8.4,0,15.1-0.2,15-0.4c-0.1-0.2,0-1.4,0.4-2.6c0.3-1.2,0.8-3.2,0.9-4.4c0.5-3.6,0.9-6,1.2-7.4
		c1.2-5.1,3-13.8,3.2-15.7c0.2-1.2,0.5-3,0.7-3.8c1.1-4.2,1.6-6.9,1.9-9c1-8.1,3.2-13.1,8.7-19.2c5.7-6.3,6.4-7.1,6.4-6.6
		c0,0.3,0.2,0.2,0.5-0.2c0.6-1,4.7-3.1,6.2-3.2c3.1-0.3,5.1,3.5,4.9,9.4c-0.1,2.9-0.5,6.7-0.8,6.7c-0.2,0-0.6,2.1-0.9,4.6
		c-0.1,1.1-0.4,2.6-0.7,3.3c-0.2,0.7-0.5,2.1-0.7,3.1c-0.1,1-0.4,2.5-0.7,3.4c-0.2,0.9-0.5,2.3-0.6,3.2c-0.1,0.9-0.4,2.6-0.6,3.8
		c-0.2,1.2-0.5,2.8-0.7,3.5c-0.1,0.7-0.3,1.4-0.4,1.4c-0.2,0.2-0.3,0.7-0.9,4c-0.3,1.6-0.6,3.5-0.8,4.2c-0.1,0.7-0.4,2.3-0.6,3.5
		c-0.5,3.3-0.9,5.3-1.5,7c-0.3,0.9-0.8,2.9-1,4.5c-0.2,1.6-0.5,3.7-0.7,4.8l-0.3,1.9l15-0.2c13.7-0.2,15-0.3,15-1.3
		c0-0.6,0.2-1.8,0.4-2.8c0.2-0.9,0.5-2.6,0.7-3.8c0.2-1.2,0.3-2.2,0.4-2.2c0.1,0,0.4-1.2,0.8-3.8c0.2-1.1,0.5-2.4,0.7-2.9
		c0.2-0.5,0.6-2.7,1-4.8c0.3-2.1,0.7-4.4,0.9-5.1c0.7-2.7,2.9-14.2,3.4-17.6c0.3-1.9,0.5-3.7,0.6-3.8c0-0.2,0.3-0.7,0.6-1.1
		c0.3-0.4,0.4-1,0.2-1.3c-0.2-0.3,0.1-2.1,0.6-4c0.5-1.9,0.8-3.6,0.6-3.7c-0.2-0.2,0-0.6,0.3-1c1-1.2,2.5-11.8,2.3-16.3
		c-0.3-6.4-2.1-12.4-4.8-15.5c-1.1-1.2-1.9-2.4-1.9-2.6c0-0.6-5.5-4.3-7.1-4.8c-0.8-0.3-1.7-0.7-1.9-1c-2.1-3.3-20.9-0.5-24.3,3.6
		c-0.4,0.5-1,0.9-1.3,0.9c-0.8,0-3,1.8-6.2,5c-2.6,2.6-3.4,2.7-2.1,0.2c0.3-0.6,0.8-2.4,0.9-4c0.4-3,0.5-3.5,1.7-8.6
		c0.4-1.8,0.8-3.9,1-4.8c0.1-0.9,0.3-1.6,0.4-1.6c0.1,0,0.2-0.6,0.3-1.3c0.7-5.1,1-6.5,2.5-13.1c0.5-2.3,1.1-5.5,1.3-7
		c0.2-1.6,0.6-3.7,0.9-4.8c0.3-1.1,0.5-2.4,0.5-2.9c0-0.5,0.3-1.9,0.6-3c0.9-2.9,1-2.8-11.1-2.7
		C330.4,119.1,329.7,119.1,328.2,120.5 M522.9,119.1c0,0.1-0.2,0.9-0.3,1.8c-0.1,0.9-0.8,3.9-1.5,6.7c-0.7,2.8-1.5,6.5-1.7,8.2
		c-0.2,1.7-0.5,3.6-0.6,4.2c-0.1,0.6-0.4,2.4-0.6,4.1l-0.4,3.1l10-0.1c8.6-0.1,10.4-0.3,12.4-1.3c2.4-1.2,7.5-6.7,7.2-7.7
		c-0.1-0.3,0.1-0.5,0.5-0.5c0.4,0,0.6-0.2,0.5-0.5c-0.1-0.3,0.2-1.3,0.6-2.3c0.4-1,0.9-2.4,1-3.2c0.2-0.8,0.4-1.9,0.6-2.4
		c0.2-0.5,0.5-2.1,0.7-3.5c0.2-1.4,0.5-3.5,0.7-4.6l0.4-2.1h-14.8C529.6,119,522.9,119,522.9,119.1 M97.4,154.9
		c-0.1,0.2-1.3,0.6-2.5,0.8c-1.3,0.2-2.4,0.8-2.6,1.3c-0.2,0.5-0.6,0.8-0.9,0.6s-0.6-0.1-0.6,0.3c0,0.3-0.9,1.5-1.9,2.7
		c-1.1,1.1-1.8,2.3-1.6,2.6c0.2,0.3,0.1,0.6-0.2,0.6c-0.8,0-2.8,5-3.7,9.3c-0.2,0.7-0.5,2.1-0.7,3.1c-0.2,1-0.5,2.4-0.6,3.2
		c-0.1,0.8-0.4,2.3-0.7,3.3c-0.3,1.1-0.5,2.6-0.5,3.4c0,0.8-0.2,1.4-0.5,1.4c-0.2,0-0.6,1.8-0.9,4c-0.3,2.2-0.6,4.3-0.6,4.6
		c0,0.4-0.4,1.8-0.8,3.2s-0.9,3.6-1.1,4.8s-0.5,3.1-0.8,4.2c-0.2,1.1-0.4,2.6-0.5,3.4c0,0.8-0.3,1.4-0.6,1.4c-0.3,0-0.5,0.7-0.5,1.5
		c0,0.8-0.6,4.2-1.3,7.5c-0.7,3.3-1.4,6.8-1.6,7.6c-0.1,0.9-0.4,2.5-0.7,3.5c-0.2,1.1-0.4,2.4-0.4,2.9c0,0.5-0.1,1.4-0.3,1.9
		c-0.6,1.5-0.8,2.8-0.9,4.7c0,1-0.3,1.9-0.6,2.1c-0.3,0.2-0.5,1.1-0.5,2.1c0,1-0.4,3.2-1,5c-0.5,1.8-1.1,4.3-1.2,5.7
		c-0.2,1.4-0.5,3.1-0.7,3.8c-0.4,1.3-0.1,1.3,14.4,1.1c16.4-0.2,15.7,0,16.2-4.7c0.1-1.2,0.4-2.5,0.7-2.9c0.2-0.4,0.4-1.4,0.4-2.2
		c0-0.8,0.7-4.8,1.6-8.9c0.9-4.1,1.8-8.4,2-9.6c0.6-3.9,1.3-7.6,2.2-11c0.3-1.3,0.7-3.2,0.9-4.2c0.1-1,0.5-2.7,0.7-3.8
		c0.2-1.1,0.5-2.4,0.6-2.9c0.1-0.5,0.3-1.3,0.6-1.7c0.2-0.4,0.4-1.4,0.4-2.2c0-0.8,0.6-4.1,1.3-7.3c0.7-3.2,1.4-6.6,1.6-7.7
		c0.2-1.1,0.3-1.9,0.4-1.9c0,0,0.2-0.7,0.4-1.6c0.8-4.9,1.4-7.8,2.2-11c0.3-1.3,0.7-3.2,0.9-4.2c0.2-1,0.5-2.8,0.7-4.1
		c0.2-1.2,0.5-2.5,0.5-2.9c0.1-0.4,0.3-1,0.6-1.4c0.3-0.4,0.5-1.4,0.4-2.2c0-1.7,0.3-3.6,0.8-5c0.2-0.5,0.5-1.8,0.7-2.9l0.3-1.9
		h-9.6C102,154.5,97.5,154.7,97.4,154.9 M172.4,161.7c-0.2,0.2-1.2,0.3-2.4,0.3s-2.6,0.3-3.4,0.7c-0.7,0.4-1.5,0.7-1.8,0.6
		c-0.2-0.1-2.1,0.6-4.2,1.6c-2,0.9-3.9,1.6-4.2,1.6c-0.3-0.1-0.5,0.2-0.5,0.5c0,0.4-0.4,0.6-1,0.6s-1.5,0.6-2.1,1.3
		s-1.4,1.3-1.9,1.3c-0.8,0-6.1,4.1-8.4,6.5c-3.9,4-6.6,7.4-7.4,9c-0.4,1-1,1.8-1.2,1.8c-0.2,0-0.8,0.9-1.3,2.1
		c-0.5,1.1-1.4,2.6-2,3.2c-0.6,0.6-1.1,1.7-1.1,2.3s-0.3,1.4-0.6,1.8c-3.7,4-6.4,25.9-4.2,35.2c0.4,1.9,0.8,3.6,0.8,3.6
		c0.1,0.9,3.3,8.9,3.9,9.6c2.9,3.6,3.9,4.9,3.9,5.4c0,0.8,5.9,6.6,6.8,6.6c0.2,0,0.9,0.6,1.7,1.2c0.7,0.7,2.4,1.7,3.7,2.3
		s2.9,1.3,3.6,1.6c0.7,0.3,2,0.8,2.9,1c2.5,0.5,3.5,0.8,3.5,0.9c0,0.7,12.2,1,15.7,0.4c1.2-0.2,3-0.5,3.8-0.6
		c2-0.4,10.3-3.5,11.3-4.3c0.4-0.3,0.9-0.4,1.1-0.2c0.2,0.2,0.4,0.1,0.4-0.3c0-0.4,0.3-0.7,0.7-0.7c3.5,0,8.6-5.3,7.7-7.9
		c-0.5-1.3-1.1-4.6-1.7-9.4c-0.2-1.2-0.4-2.8-0.5-3.5c-1.2-6.8-1.5-7.3-3.1-5.9c-1.4,1.3-3.3,2.2-5.5,2.7c-1.1,0.2-2.1,0.7-2.1,0.9
		s-0.4,0.5-1,0.6c-0.5,0.1-1.4,0.2-1.9,0.2c-0.5,0.1-1,0.3-1,0.5s-0.4,0.5-0.8,0.5c-0.4,0-2.1,0.2-3.7,0.5
		c-4.7,0.6-10.3,0.7-10.7,0.2c-0.2-0.3-0.5-0.4-0.8-0.2c-0.7,0.4-5.8-1.9-7.4-3.3c-1.5-1.4-2.6-4.4-3.2-9l-0.4-3.4h25h25l0.5-1.4
		c0.3-0.8,0.4-1.7,0.4-1.9c0-0.3,0.3-0.5,0.7-0.5c0.4,0,0.6-0.2,0.3-0.4s-0.2-0.7,0.1-1.1c0.6-0.7,2.2-5.1,2.5-6.8
		c2-10.8,2-12.2,1.3-18.3c-0.8-6.6-4.3-16.3-5.7-16.3c-0.3,0-0.4-0.3-0.2-0.6c0.2-0.3-0.2-1-0.9-1.5c-0.7-0.5-1.1-1.1-0.9-1.2
		c0.5-0.5-6.8-7-7.4-6.6c-0.3,0.2-0.9-0.1-1.3-0.6c-0.4-0.5-1-0.8-1.4-0.6c-0.3,0.2-0.6,0.1-0.6-0.2
		C190,162.3,173.8,160.3,172.4,161.7 M265.7,161.7c-1.5,0.1-2.7,0.5-2.7,0.8c0,0.3-0.4,0.4-1,0.2c-0.5-0.2-1.3-0.1-1.8,0.3
		c-0.4,0.4-1.7,0.8-2.7,1c-3.5,0.6-5.4,1.2-5.4,1.8c0,0.3-0.3,0.5-0.6,0.3c-0.3-0.2-0.9,0.1-1.4,0.6c-0.4,0.5-1,0.8-1.4,0.6
		c-0.3-0.2-1,0.1-1.6,0.6c-0.6,0.6-1.4,1-1.9,1c-0.5,0-0.9,0.3-0.9,0.6c0,0.4-0.3,0.6-0.7,0.6c-1.3,0-6.7,4-8.3,6.1
		c-0.9,1.2-1.9,2.2-2.3,2.2c-0.4,0-1.2,0.9-1.8,2c-0.6,1.1-2,2.8-3.1,3.9c-1,1.1-2.6,3.5-3.4,5.3c-0.8,1.9-1.8,3.6-2.2,3.8
		c-0.4,0.2-0.6,0.7-0.4,1c0.2,0.3,0.1,0.6-0.3,0.6c-0.4,0-0.7,0.3-0.7,0.6s-0.3,1.4-0.7,2.4c-0.4,1-0.8,1.9-0.8,2.1
		c0,0.2-0.4,1-0.9,1.7c-0.4,0.8-0.7,1.6-0.7,1.9c0.1,0.3-0.3,1.8-0.7,3.4c-1.5,4.9-2.2,16.9-1.3,21.8c0.8,4.6,3.2,12.4,4,12.9
		c0.4,0.2,0.6,0.5,0.6,0.7c-0.2,0.5,0.9,2.8,1.9,4.2c0.6,0.8,1.4,2,2,2.8c1.5,2.2,5.4,6.1,5.9,5.9c0.3-0.1,0.5,0.1,0.5,0.4
		c0,0.8,5.5,4.6,6,4.1c0.2-0.2,0.4-0.1,0.4,0.3c0,0.4,0.6,0.7,1.3,0.7s1.3,0.3,1.3,0.6c0,0.6,5,2.3,6,2c0.3-0.1,1,0.1,1.6,0.3
		c2.4,1.1,11.9,1.4,16.4,0.6c1.4-0.2,3.1-0.5,3.7-0.6c0.6-0.1,1.3-0.4,1.5-0.6c0.2-0.2,0.9-0.4,1.5-0.4c0.6,0,1.8-0.4,2.9-1
		c1-0.5,2-0.8,2.1-0.7c0.3,0.3,2.7-1,8.7-4.6c2.8-1.7,3.6-2.5,3.3-3.3c-0.2-0.6-0.5-1.7-0.6-2.4c-0.1-0.8-0.4-2.3-0.7-3.5
		c-0.3-1.2-0.6-2.7-0.7-3.4c-0.1-0.7-0.3-2-0.5-2.9c-0.2-0.9-0.6-3.4-1-5.7c-0.8-4.9-0.9-5.1-2.8-3.5c-0.8,0.7-3.2,2.1-5.3,3
		c-2.1,0.9-4.3,1.9-4.8,2.2c-2.3,1.1-9.9,0.4-13.5-1.3c-5.1-2.3-9.2-6.6-10.5-11c-1.1-3.6-1.5-11.5-0.8-14.4c0.5-2,2.7-7.4,3.1-7.7
		c0.2-0.2,0.5-0.7,0.7-1.2c0.5-1.5,7.9-9.6,8.8-9.7c0.5,0,1.8-0.7,2.9-1.6c1.1-0.9,2.8-1.7,3.8-1.9c1-0.2,2.1-0.5,2.5-0.8
		c1-0.6,10.1-0.9,11-0.4c0.4,0.2,1,0.5,1.3,0.5c1.8,0.3,5.4,2.2,5.4,2.9c0,0.4,0.2,0.6,0.4,0.4c0.2-0.2,1.3,0.7,2.4,1.9l2,2.3
		l0.8-3.5c1.4-6.2,2.7-13,2.5-13.2c-0.1-0.1,0.4-2.8,1.2-6c1.1-4.2,1.3-5.9,0.7-6.2c-2.2-1.4-6.7-3.1-7.6-3
		c-0.6,0.1-1.1-0.1-1.1-0.3C287.3,162,274,161.1,265.7,161.7 M464.5,161.7c-0.1,0.1-0.7,0.3-1.4,0.4c-2.5,0.5-5,1.3-6.6,2.1
		c-0.9,0.5-2,0.9-2.4,0.9c-0.4,0-1.1,0.5-1.4,1.1c-0.4,0.6-0.7,0.9-0.7,0.6c-0.1-1.7-11.3,9.1-12.4,11.9c-0.7,1.8-1.7,1.3-1.8-1
		c0-1.1-0.2-2.7-0.3-3.4c-0.8-4.6-1.1-5.4-1.5-5.1c-0.3,0.2-0.7-0.3-0.9-1.1c-0.2-0.8-1.4-2-2.6-2.7c-2.3-1.3-2.7-1.3-12.3-1.1
		l-5.8,0.1l-0.8,4c-0.4,2.2-0.9,4.8-1.1,5.9s-0.6,3.3-0.9,5.1c-0.4,1.8-0.8,4.1-0.9,5.2c-0.2,1.1-0.5,2.6-0.7,3.5
		c-0.6,2.5-1.7,8.5-1.9,9.9c-0.1,0.7-0.3,1.6-0.5,1.9c-0.4,0.6-0.9,3.8-1.5,8.3c-0.2,1.4-0.6,3.6-0.9,4.8c-0.3,1.2-0.5,2.3-0.3,2.5
		c0.2,0.2,0,0.6-0.3,1c-0.3,0.4-0.8,2-1,3.6c-0.4,3.3-0.6,4.2-1.2,6.4c-0.2,0.9-0.6,2.9-0.8,4.5c-0.2,1.6-0.5,3.5-0.6,4.2
		c-0.1,0.7-0.3,1.9-0.4,2.6c-0.1,0.7-0.4,1.4-0.6,1.6c-0.2,0.2-0.6,1.9-0.7,3.8c-0.3,3.2-1.4,8.7-3,14.8c-1.4,5.1-2.4,4.8,14.3,4.4
		l14.9-0.3l0.5-2.6c0.8-4.5,1.1-5.7,1.7-8.3c0.3-1.4,0.8-3.7,0.9-5.1c0.2-1.4,0.8-4.4,1.3-6.7c0.5-2.3,1.2-5.3,1.4-6.7
		c0.5-3,0.6-3.6,1.3-7c0.3-1.4,0.6-3.1,0.7-3.8c0.1-0.7,0.2-1.3,0.3-1.3c0.1,0,0.2-0.7,0.4-1.6c0.2-0.9,0.4-2,0.5-2.6
		c0.1-0.5,0.4-2,0.7-3.2c0.5-2.6,1.6-5.1,2.8-6.3c0.4-0.5,0.8-1,0.8-1.3c0-0.2,0.7-1.3,1.6-2.4c0.9-1.1,1.8-2.2,2.1-2.6
		c0.3-0.4,0.6-0.9,0.7-1.1c0.1-0.4,0.9-1.2,5.7-5.7c1.8-1.7,7.6-3.9,9-3.5c2.9,0.9,3.5,7.7,1.7,18c-0.6,3.5-0.9,5.2-1.1,6.4
		c-0.1,0.7-0.4,1.4-0.6,1.6c-0.2,0.2-0.6,1.9-0.7,3.8c-0.3,3.3-1.8,10.9-3,15c-0.3,1.1-0.7,3.3-0.9,5c-0.2,1.7-0.7,4.6-1.1,6.4
		c-0.4,1.8-0.8,3.9-0.9,4.6c-0.1,0.7-0.4,2-0.6,2.9c-0.2,0.9-0.5,2.3-0.7,3.2c-0.2,0.9-0.4,2.5-0.6,3.5l-0.4,1.9l14.6-0.2
		c16.2-0.2,15.4,0,15.9-4c0.2-1.6,0.5-3.3,0.6-3.8c0.2-0.5,0.4-1.7,0.6-2.6c2-9.6,3-14.8,3.3-17c0.2-1.4,0.5-3.1,0.6-3.9
		c0.1-0.7,0.3-1.9,0.4-2.6c0.1-0.7,0.4-1.4,0.6-1.6c0.2-0.2,0.5-1.6,0.6-3.2c0.1-1.6,0.3-3.1,0.5-3.5c0.2-0.3,0.4-1.6,0.6-2.9
		c0.1-1.2,0.5-3,0.8-3.9c0.3-0.9,0.9-3.6,1.3-6.1c0.4-2.5,1.2-6.9,1.9-9.9c1.8-8.9,1.3-16.8-1.5-22.7c-1.7-3.5-7.7-10.2-8.6-9.6
		c-0.3,0.2-0.8,0-1.1-0.5c-0.7-1.2-3.9-2.5-6.9-2.8C469.2,161.7,464.7,161.4,464.5,161.7 M523.6,164.6c0,0.3-0.3,0.3-0.6,0.1
		c-0.7-0.4-3.9,1.6-6.4,4.1c-2.2,2.2-5.5,9.3-6,12.8c-0.2,1.6-0.5,3.6-0.7,4.5c-0.8,4-1,4.9-1.3,7c-0.2,1.2-0.5,2.4-0.6,2.7
		c-0.3,0.5-2,9.4-2.1,10.8c0,0.5-0.2,1.7-0.4,2.6c-0.5,2-1.1,5.7-1.2,7.2c0,0.6-0.2,1.1-0.4,1.1c-0.2,0-0.5,0.9-0.6,2.1
		c-0.3,2.9-0.5,4.6-0.7,4.6c-0.1,0-0.3,1-0.4,2.2c-0.1,1.2-0.5,3.2-0.9,4.5c-1.2,4.4-1.9,8-2.3,10.9c-0.2,1.6-0.7,4.3-1,6.1
		c-0.4,1.8-0.8,3.8-0.9,4.5c-0.1,0.7-0.4,2-0.6,2.9c-0.2,0.9-0.5,2.3-0.6,3.2c-0.1,0.9-0.3,2-0.5,2.6c-0.2,0.8,1.9,1,14.6,1.3
		c8.2,0.2,14.7,0.1,14.6-0.1c-0.1-0.2,0-0.6,0.4-0.8s0.5-0.6,0.4-0.9c-0.3-0.4,0.3-3.3,1.6-8.8c0.6-2.4,1.4-6.9,2.2-11.8
		c0.2-1.2,0.6-3.4,1-4.8c0.8-3.1,1.3-5.9,1.6-8c0.1-0.9,0.4-2.3,0.6-3.3c0.2-0.9,0.5-2.6,0.6-3.8c0.2-1.2,0.3-2.2,0.4-2.2
		c0.1,0,0.3-0.8,0.9-3.8c0.2-1.1,0.6-3.1,1-4.5c0.3-1.4,0.8-3.7,0.9-5.1s0.8-4.4,1.3-6.7c0.5-2.3,1.1-5.3,1.4-6.7
		c0.8-5.6,0.9-6.2,1.3-6.7c0.2-0.3,0.6-2.5,1-4.9c0.4-2.4,0.8-5.1,1-6c0.1-0.9,0.4-2.3,0.5-3.2c0.1-0.9,0.6-2.4,1-3.4
		c0.4-1,0.6-1.9,0.5-2C543.5,164.3,523.6,164.2,523.6,164.6 M581.4,164.3l-19.4,0.2l-0.5,1.4c-0.3,0.8-0.7,2.7-0.9,4.3
		c-0.5,4-0.9,6.5-1.4,8.2c-0.2,0.8-0.5,2.1-0.7,2.9c-0.5,2-2.2,12.1-2.5,14.3c-0.1,1-0.5,3-0.9,4.4c-0.4,1.4-0.9,3.7-1.1,5.1
		c-0.2,1.4-0.5,3.1-0.6,3.8c-0.1,0.7-0.8,3.9-1.5,7c-0.7,3.2-1.4,6.9-1.6,8.3c-0.2,1.4-0.8,4.3-1.3,6.4c-0.9,3.5-1.3,6-2,11.5
		c-0.1,1.1-0.5,2.6-0.8,3.5c-0.3,0.9-0.6,1.8-0.6,2.1c-0.1,1.4-0.9,6.1-1.4,7.8c-0.3,1.1-0.7,3.2-0.9,4.8c-0.6,4.8-0.8,6.2-1.2,6.9
		c-0.4,0.7-2.1,9.3-2.2,11c0,0.5-0.2,1.7-0.4,2.6c-0.4,1.6-0.8,4.1-1.2,6.7c-0.1,0.7-0.4,1.4-0.6,1.6c-0.2,0.2-0.6,2-0.8,4.2
		s-0.7,4.9-1,6.3l-0.6,2.4l14.7-0.2c8.1-0.1,14.6-0.4,14.6-0.7c0-0.3,0.3-0.8,0.6-1c0.4-0.2,0.7-1.8,0.8-3.5
		c0.1-1.7,0.4-3.2,0.7-3.4c0.3-0.2,0.4-0.5,0.3-0.8c-0.2-0.3,0-1.8,0.4-3.3c0.4-1.6,0.8-3.4,0.9-4.1c0.1-0.7,0.8-4,1.5-7.4
		c1.4-6.8,1.9-9.5,2.2-12.7c0.3-3.2,0.2-3.2,9.4-2.5c3.4,0.3,13.8-1,15.9-1.9c0.5-0.2,1.1-0.4,1.3-0.5c1.5-0.4,6.9-2.6,7.7-3.2
		c0.5-0.4,1.9-1.1,3-1.6s2.1-1.1,2.1-1.4c0-0.3,0.4-0.6,0.9-0.6c0.5,0,1.6-0.7,2.6-1.6c1-0.9,1.9-1.6,2-1.6c0.4,0,6.4-5.6,7.9-7.3
		c3.1-3.5,3.9-4.7,3.9-5.4c0-0.4,0.2-0.8,0.6-0.8c0.6,0,4-4.9,4.2-6c0.1-0.4,0.4-1.1,0.7-1.7c1.6-2.4,4.7-11.6,4.9-14.4
		c0.1-1.4,0.4-2.8,0.6-3.2c0.7-1,0.6-9.3-0.1-13.4c-0.4-2.1-0.8-4.7-1-5.7c-0.3-1.6-1.9-5.4-4.4-10.1c-0.3-0.7-0.9-1.2-1.1-1.2
		c-0.3,0-0.5-0.4-0.5-0.8c0-1-2.9-4.3-3.8-4.3c-0.4,0-0.7-0.4-0.7-1s-0.2-1-0.5-1c-0.3,0-1.7-1-3.1-2.2c-1.4-1.2-2.8-2-3-1.8
		c-0.2,0.2-0.4,0.1-0.4-0.3c0-0.6-2.2-1.5-3.1-1.4c-0.1,0-0.4-0.3-0.7-0.6c-0.2-0.4-1-0.8-1.7-0.9c-0.7-0.1-1.6-0.4-2.1-0.7
		c-1-0.6-2.9-1.1-6.2-1.5C602.8,164.1,601.3,164.1,581.4,164.3 M176.5,186.4c2.8,1.3,4.5,2.6,4.5,3.6c0,0.4,0.4,1.4,0.9,2.2
		c0.5,0.8,1,3,1,4.9c0.1,6.4,1.5,5.8-13.5,5.8h-13.3l-0.3-1.5c-0.2-0.9,0.1-2.4,0.5-3.5c0.4-1.1,0.7-2,0.5-2.2
		c-0.2-0.2,0.2-0.6,0.7-1.1c0.5-0.4,1-1.2,1-1.7c0-0.5,0.4-1.1,0.9-1.3c0.5-0.2,1.1-0.8,1.3-1.4c0.3-1.1,0.8-1.4,5.3-3.6
		C169.2,185,173.3,184.9,176.5,186.4 M597.4,188.7c10.8,3.7,15.8,19.6,10,31.7c-0.7,1.4-1.1,2.6-0.9,2.8c0.2,0.2-0.4,1-1.3,2
		s-1.6,2-1.6,2.4c0,0.8-5.2,6.3-5.9,6.3c-0.3,0-0.7,0.3-1,0.7c-0.6,0.9-5.4,3.4-7.3,3.7c-0.8,0.2-1.5,0.3-1.5,0.4c0,0.5-6,0.5-7.9,0
		c-2.7-0.7-2.6-0.4-1.7-5.8c0.2-1.2,0.5-2.9,0.6-3.7c0.1-0.8,0.4-2.7,0.7-4.2c0.3-1.5,0.5-3,0.6-3.4c0-0.4,0.3-1.1,0.5-1.6
		c0.2-0.5,0.8-3.4,1.4-6.4c1-5.9,1.3-7,2.2-11.8c0.3-1.8,0.5-3.4,0.3-3.7c-0.2-0.3,0-0.5,0.4-0.5c0.4,0,0.7-0.9,0.7-2.1
		C585.8,187.6,588.9,185.8,597.4,188.7"/>
	<path id="path3" class="st3" d="M417.5,164.3c1.7,0.1,4.3,0.1,5.8,0c1.5-0.1,0.1-0.2-3.1-0.2C417,164,415.8,164.1,417.5,164.3
		 M530.1,164.3c2.4,0.1,6.4,0.1,9,0c2.6-0.1,0.6-0.2-4.3-0.2C529.9,164,527.8,164.1,530.1,164.3 M571.5,164.3
		c5.4,0.1,14.2,0.1,19.5,0s1-0.2-9.8-0.2S566.1,164.2,571.5,164.3 M80.2,262.4l-14.7,0.4l14.5,0.1c9.2,0.1,14.7-0.1,14.9-0.5
		c0.2-0.4,0.3-0.6,0.2-0.5C95,262,88.3,262.2,80.2,262.4 M410.6,262.4l-14.7,0.4l14.5,0.1c9.2,0.1,14.7-0.1,14.9-0.5
		c0.2-0.4,0.3-0.6,0.2-0.5C425.4,262,418.7,262.2,410.6,262.4 M509.8,262.4l-14.7,0.4l14.5,0.1c9.2,0.1,14.7-0.1,14.9-0.5
		c0.2-0.4,0.3-0.6,0.2-0.5C524.7,262,517.9,262.2,509.8,262.4 M302.2,262.9c4.1,0.1,10.9,0.1,15,0c4.1-0.1,0.8-0.2-7.5-0.2
		S298.1,262.8,302.2,262.9 M356,262.9c4.2,0.1,10.8,0.1,14.7,0c3.9-0.1,0.5-0.2-7.6-0.2C355.1,262.7,351.9,262.8,356,262.9
		 M456.6,262.9c4.2,0.1,10.8,0.1,14.7,0c3.9-0.1,0.5-0.2-7.6-0.2C455.6,262.7,452.4,262.8,456.6,262.9"/>
	<path id="path4" class="st4" d="M103,154.7c2.4,0.1,6.4,0.1,9,0c2.6-0.1,0.6-0.2-4.3-0.2C102.8,154.4,100.7,154.5,103,154.7
		 M162.6,202.7c3.8,0.1,9.9,0.1,13.4,0c3.6-0.1,0.5-0.2-6.9-0.2C161.8,202.5,158.8,202.6,162.6,202.7"/>
</g>
</svg>
