<?xml version="1.0" encoding="utf-8"?>
<!-- Generator: Adobe Illustrator 21.1.0, SVG Export Plug-In . SVG Version: 6.00 Build 0)  -->
<svg version="1.1" id="Layer_1" xmlns="http://www.w3.org/2000/svg" xmlns:xlink="http://www.w3.org/1999/xlink" x="0px" y="0px"
	 viewBox="0 0 640 480" style="enable-background:new 0 0 640 480;" xml:space="preserve">
<style type="text/css">
	.st0{fill:#2F4F5A;}
</style>
<path class="st0" d="M71.2,328.4c-34.7-0.4-63.2-1.6-63.2-2.7c0-3.2,243.4-5.3,438-3.8c101.4,0.8,184.8,1.9,185.4,2.5
	c0.6,0.6,0.5,1.7-0.2,2.4C629.8,328.3,167.8,329.6,71.2,328.4L71.2,328.4z M63,289c0-0.9,1.9-3.7,4.2-6.2c2.3-2.5,11.8-23.8,21-47.4
	c19.2-48.8,24.2-58.4,35.7-68.2l8.2-7l-20.9,1.2c-23.9,1.4-37.9,5.7-46.7,14c-6.6,6.4-10.7,17.7-8.9,24.7c1.6,6.2-2.8,5.6-9.6-1.2
	c-8.1-8.1-6-19,5.5-29.9c14.5-13.6,24.3-15.5,89.3-17c31.4-0.7,57.4-1.2,57.9-0.9c0.4,0.2-2,2.2-5.4,4.4c-4.6,3-11.4,4.2-27.1,4.8
	c-19,0.7-21.5,1.3-26.9,6.4c-6.2,5.8-18.6,33.7-34.6,77.5c-9.1,24.9-16.4,37.6-23.8,41.4C75.4,288.6,63,290.9,63,289L63,289z
	 M249.7,289.3c0-0.9,1.8-4.2,4-7.4c2.2-3.2,4.6-7.3,5.3-9.1c0.7-1.8,3.3-8.5,5.8-14.8l4.6-11.5l-9.9,7.5
	c-16.9,12.9-35,15.7-43.9,6.7c-9.4-9.4-5.7-30,9-50.2c16.5-22.6,47.1-30.9,47.1-12.9c0,8.3-12.4,22.4-28.5,32.3
	c-13.4,8.3-17.3,15.4-13,23.5c2.6,4.9,7.3,4.8,18.4-0.3c13.7-6.4,26.4-21.2,32.8-38.4c3.1-8.3,5.6-15.4,5.6-15.8s-2.2-1.1-4.9-1.6
	c-4.6-0.9-4.4-1.1,2-3.8c3.8-1.6,8.6-6,10.7-9.7c11.8-20.8,27.6-30.2,53-31.6c17-0.9,18.3-0.7,23.6,4.7c3.1,3.1,5.7,6.8,5.7,8.1
	c0,3.4-12.2,15.3-15.6,15.3c-2.2,0-2.2-0.6-0.2-2.6c1.4-1.4,2.6-5.4,2.6-8.7c0-13.3-20.3-16.8-35.3-6.1
	c-6.2,4.4-19.6,22.5-19.6,26.5c0,0.9,9.9,1,22,0.3c23.3-1.3,27.8,0.7,15.7,7c-17.7,9.2-34.7,58.1-20.9,60.1
	c10.5,1.5,29.4-32.1,29.4-52.2c0-5.8,0.8-6.2,19.8-10.7c24-5.6,27.3-4.8,25.7,6c-0.6,4.3-1.9,9.8-2.8,12c-0.9,2.3,3-0.8,8.7-6.9
	c11.5-12.3,20.6-17,28.6-15c10.6,2.7,9.6,8.4-8.4,48.6c-5,11.2-7.9,21-7.9,26.9c0,10.8-2.4,11.6-10.3,3.7
	c-7.6-7.6-6.3-17.8,5.6-44.1c5-11,9.1-21.2,9.1-22.5c0-10-22.1,15.6-36.2,41.9c-10.1,18.8-11.6,20.5-18.1,21.2
	c-3.9,0.4-7.1,0-7.1-0.9c0-0.9,4.9-14.3,11-29.8c13-33.3,13.6-37.6,4.9-35.6c-8.6,2-9.3,2.7-9.3,8.1c0,6.2-11.3,30.1-18.9,40.1
	c-11.9,15.5-31.4,22.5-42.1,15.1c-11.1-7.8-2.9-40.6,14.4-57.3l8.7-8.4l-12.7,0.7l-12.7,0.7l-9.2,25.6
	c-12.7,35.4-22.8,56.5-28.8,60.4C260.9,288.4,249.7,291.5,249.7,289.3L249.7,289.3z M250.1,216.4c8.2-8.7,11.6-18.1,7.1-19.8
	c-6.2-2.4-18.9,13.3-24,29.8l-1.6,5.3l6.3-4.5C241.4,224.7,246.9,219.8,250.1,216.4L250.1,216.4z M183,270.4
	c-4.5-3.6-5.8-6.5-5.8-13.4v-8.9l-7.7,5.9c-17.4,13.3-33,15.7-42.1,6.6c-5.1-5.1-5.5-6.7-4.2-16.8c3.5-26.5,23.9-50.7,46.7-55.5
	c5.4-1.1,8-0.4,11.4,3c3.7,3.7,4.1,5.5,2.2,11c-2.8,8.1-20.2,24.6-32.4,30.8c-8.3,4.3-9.1,5.4-9.1,13.3c0,4.7,0.9,9.2,2,9.8
	c5.2,3.2,17.3-2.3,27.7-12.9c9.1-9.2,13.8-17.2,26.4-45.1c14.5-31.9,15.8-34,22.7-35.8c4-1,8.1-1.6,9.2-1.2
	c1,0.4-5.4,17.1-14.2,37.3c-19.1,43.4-23.8,56.8-23.8,68.1C192,276.2,190.9,276.7,183,270.4L183,270.4z M159.8,219.1
	c10.2-9.7,14.4-18.2,10.8-21.8c-1.7-1.7-3.4-1.6-6.1,0c-8.6,5.4-24.9,36.6-16.8,32.1C149.4,228.4,154.8,223.7,159.8,219.1
	L159.8,219.1z M571.6,270.2c-5-4-5.9-6.1-5.2-13.2c0.4-4.7,0-8.5-0.9-8.5c-0.9,0-1.7,1-1.7,2.2c0,4.3-18.2,15.4-25.2,15.4
	c-7.7,0-14.3-5.6-14.3-12.1c0-3.8-0.3-3.8-4.9,0.5c-13.7,12.5-31.2,15.2-40.2,6.2l-5.4-5.4l-8,5.4c-9.3,6.3-20.8,7-26.1,1.7
	c-5.3-5.3-3.2-14.2,10.1-43.6c11.3-25,11.4-25.1,20.4-27c5-1,9.4-1.7,9.8-1.4c0.4,0.3-4.8,12.8-11.5,27.9
	c-12.7,28.3-14.7,36.7-8.9,36.7c5.2,0,16.4-9.1,16.4-13.4c0-6.6,8.7-24.5,16.6-34.1c9-11,23.2-18.4,35.3-18.4
	c14.5,0,18.8,9.1,8.2,17.4c-7.1,5.6-10.6,5.9-8.5,0.7c4.9-11.9-2.4-15.2-12.5-5.7c-18.7,17.7-27.9,59.1-12.1,54.5
	c10.7-3.2,21-12.6,27.9-25.6c15-28.2,30.9-39.7,55.2-40c8-0.1,15.4,0.5,16.2,1.4c0.9,0.9-0.9,7.3-4.1,14.3
	c-9.5,21.2-17.4,47.2-17.7,58.2c-0.2,5.7-0.9,10.4-1.7,10.4C578.2,275,574.9,272.8,571.6,270.2L571.6,270.2L571.6,270.2z
	 M557.9,247.5c7.2-7.5,29.1-48.9,27-51.1c-2.6-2.6-13.7,2.5-19.8,9.1c-8.6,9.2-18,26.5-20.6,38.1
	C541.2,257.9,546.3,259.4,557.9,247.5z M478.7,176.8c-3.8-1.4-3.5-10.5,0.4-13.8c5-4.1,11.1-1.9,11.1,4.1
	C490.2,172.6,483.2,178.5,478.7,176.8z"/>
</svg>
