<?xml version="1.0" encoding="utf-8"?>
<!-- Generator: Adobe Illustrator 21.0.2, SVG Export Plug-In . SVG Version: 6.00 Build 0)  -->
<svg version="1.1" id="Layer_1" xmlns="http://www.w3.org/2000/svg" xmlns:xlink="http://www.w3.org/1999/xlink" x="0px" y="0px"
	 viewBox="0 0 640 480" style="enable-background:new 0 0 640 480;" xml:space="preserve">
<style type="text/css">
	.st0{fill:#CD3529;}
	.st1{fill:#7E7F81;}
</style>
<g>
	<path class="st0" d="M178.8,237.7c0,0-8.1,0.8-13.8-7.1c-3.8-5.2-10.2-14.5-10.2-14.5s-34.7,12.5-46.8,16.1
		c-20.7,6.1-34.6,5.5-40.1,5.5H14.9l-5.6,26.1h52.8c5.5,0,25.1-0.4,40.1-5.5c11.9-4.1,54.6-19.6,54.6-19.6l12.2,16.6
		c0,0,4.9,8.5,18.8,8.5h25.9l5.6-26.1L178.8,237.7L178.8,237.7z"/>
	<path class="st0" d="M169.5,280.7c0,0-8.1,0.8-13.8-7.1c-3.4-4.8-6.8-9.6-10.2-14.4c0,0-34.7,12.5-46.8,16.1
		c-20.7,6.1-34.6,5.5-40.1,5.5H5.6L0,306.7h52.8c5.5,0,25.1-0.4,40.1-5.5c11.9-4.1,54.6-19.6,54.6-19.6l12.2,16.6
		c0,0,4.9,8.5,18.8,8.5h296.7l5.6-26.1H169.5L169.5,280.7z M187.9,194.8c0,0-8.1,0.8-13.8-7.1c-3.8-5.2-10.2-14.5-10.2-14.5
		s-34.7,12.5-46.8,16.1c-20.7,6.1-34.6,5.5-40.1,5.5H23.9l-5.6,26.1h52.8c5.5,0,25.1-0.3,40.1-5.5c11.9-4.1,54.6-19.6,54.6-19.6
		l12.2,16.6c0,0,4.9,8.5,18.8,8.5h25.9l5.5-26.1L187.9,194.8L187.9,194.8z"/>
	<path class="st1" d="M383.2,263.4h-41.1l14.6-68.5h17.8l-11.5,54h23.3L383.2,263.4L383.2,263.4z M390.3,263.4l14.6-68.5h39.8
		l-3,14.5h-22.3l-2.4,11.5h17.1l-2.9,14H414l-3,14h23.5l-3.1,14.7L390.3,263.4L390.3,263.4z M465.9,264.5
		c-15.2,0-24.2-9.2-24.2-22.9c0-13.6,4.9-29.3,15.6-39c6.2-5.5,13.9-9.1,24.7-9.1c8.1,0,14.2,2.2,17.6,5l-9.6,11.9
		c-2.7-2.3-6-3.2-9.7-3.2c-3.8,0-6.7,1.2-9.9,4.5c-4.5,4.7-8.4,18-8.4,28.1c0,6.9,4,10.1,9.2,10.1c4.4,0,8.1-1.3,12.6-4.7l5.2,12.2
		C483.7,261.6,476,264.5,465.9,264.5z M523.6,250.7c-5.9,0-8.4-2-8.4-10c0-8.8,4.7-33.2,17.4-33.2c5.4,0,8.1,1.7,8.1,9.2
		C540.7,225.5,536.4,250.7,523.6,250.7z M520.3,264.5c34.9,0,39.9-35.9,39.9-45.7c0-13.9-5.6-25.2-24.1-25.2
		c-31.5,0-40.5,30.9-40.5,47.3C495.6,255.5,504,264.5,520.3,264.5z M616.3,263.4l3.4-26.5c0.7-4.3,0.9-8.5,1.7-15h-0.1
		c-2.3,5.8-3.6,9.2-5.5,12.9l-14,28.5h-15.1l-0.8-27.7c-0.2-3.8-0.2-7.7,0.1-13.8H586c-1.4,4.7-2.8,9.4-4.1,14.2l-7.9,27.4h-16.5
		l21.3-68.5h21.3l0.3,27.1c0.1,3.8-0.1,6.5,0.1,13h0.1c2.5-5.2,3.7-8.6,6.2-14l12-26.2H640l-8.3,68.5H616.3L616.3,263.4z
		 M507.4,280.7l-6.9,26.1h-6.8l6.9-26.1H507.4z M536.5,280.7l-1.4,4.4h-8.5l-5.7,21.7h-6.7l5.7-21.7H512l1.2-4.4H536.5L536.5,280.7z
		 M575.7,280.7l-5.7,21.7h11.6l-1.4,4.3h-18.1l6.9-26.1H575.7z M599.8,280.7l-6.9,26.1h-6.8l6.9-26.1H599.8z M293.5,209.4h-18
		l-11.5,54h-17.8l11.5-54h-16l3-14.6h51.7L293.5,209.4L293.5,209.4z M289.5,263.4l14.6-68.5h39.9l-3.1,14.5h-22.2l-2.5,11.5h17.1
		l-3,14h-17.1l-2.9,14h23.5l-3.1,14.7L289.5,263.4L289.5,263.4z M550.1,306.8h6.8l-3.3-26.1h-7L529,306.8h7l3.1-4.9h10.5
		L550.1,306.8L550.1,306.8z M545.5,291.4c1.2-1.9,2.9-5,2.9-5s0,2.2,0.1,4.4l0.5,5.5l0.1,1.3h-7.3l0.8-1.3L545.5,291.4L545.5,291.4z
		 M619.8,306.8h6.8l-3.3-26.1h-7l-17.5,26.1h7l3.1-4.9h10.4L619.8,306.8L619.8,306.8z M615.2,291.4c1.2-1.9,2.9-5,2.9-5
		s0,2.2,0.1,4.4l0.5,5.5l0.1,1.3h-7.3l0.8-1.3L615.2,291.4L615.2,291.4z"/>
</g>
</svg>
