<?xml version="1.0" encoding="utf-8"?>
<!-- Generator: Adobe Illustrator 22.1.0, SVG Export Plug-In . SVG Version: 6.00 Build 0)  -->
<svg version="1.1" id="Layer_1" xmlns="http://www.w3.org/2000/svg" xmlns:xlink="http://www.w3.org/1999/xlink" x="0px" y="0px"
	 viewBox="0 0 640 480" style="enable-background:new 0 0 640 480;" xml:space="preserve">
<style type="text/css">
	.st0{fill:#9909E3;}
</style>
<path class="st0" d="M410.8,357.2c62.8-36.3,107.9-81.5,128.8-129.9c8.8-36.3,13.8-73.8,13.8-111.7c0-5.5,0-11-1.1-16
	c-3.9,58.3-80.4,132.1-181.1,180c-121.7,57.8-213.6,73.8-254.3,29.2c14.3,27.5,33,55.6,54.5,80.4C222,433.8,305.1,417.8,410.8,357.2
	"/>
<path class="st0" d="M357.4,238.3c115-55,194.9-132.7,181.1-184.4C515.4,14.9,469.2,0,419.6,0C272.1,0,91,95.8,91,218.5
	c0,16,3.3,33.6,9.9,51.7C133.9,314.3,236.9,295.6,357.4,238.3 M347.5,411.7c-80.9,32.5-127.2,22-152.5,1.7h-0.6
	c39.6,39.1,84.8,66.6,124.4,66.6c69.4,0,164-83.1,209.2-211.9C502.2,314.3,448.2,371.6,347.5,411.7"/>
</svg>
