<?xml version="1.0" encoding="utf-8"?>
<!-- Generator: Adobe Illustrator 22.1.0, SVG Export Plug-In . SVG Version: 6.00 Build 0)  -->
<svg version="1.1" id="Layer_2_1_" xmlns="http://www.w3.org/2000/svg" xmlns:xlink="http://www.w3.org/1999/xlink" x="0px" y="0px"
	 viewBox="0 0 640 480" style="enable-background:new 0 0 640 480;" xml:space="preserve">
<style type="text/css">
	.st0{fill:#1772FC;}
</style>
<g>
	<path class="st0" d="M456.5,206.6L456.5,206.6h-0.8c-0.4,0-0.8,0-1.3,0h-23.6l0.5,1.1c-0.2,0-0.4,0-0.5,0
		c11.5,23,22.2,44.8,33.4,66.3c0.2,0.3,0.4,0.6,0.7,0.9l1.7,3.4h42.8l0,0c28.1,0,56.5,0,86,0c-1.9-3.8-3.8-7.5-5.6-11.2l0,0
		l-29.4-60.8l-52.2,0.4C490.9,206.7,473.7,206.6,456.5,206.6z"/>
	<path class="st0" d="M187.3,206.6c-5.9,0-11.6,0-17.3,0l0,0l-65.8-0.3c-0.6,0-1.1,0-1.7,0c-0.7,0-1.4,0-2,0l-8.6,0l-3.1,6.1
		c-0.9,1.3-1.8,2.7-2.6,4.4C70.3,249,54.1,281,38.1,313.2c-8.5,17-16.9,34.1-26.1,52.6h95.4c19.6-39,45.8-90.4,60.3-119.1
		C174,234,180.2,221.1,187.3,206.6z"/>
	<path class="st0" d="M309.1,210.8c-17.9-33.1-34.5-63.8-52.2-96.5c-42.5,84.7-83.9,167.1-126.2,251.4h103.3
		c17-35.4,38.3-79.7,49.6-102.2c8.1-16.1,16.3-32.1,25.2-49.7c3.2,5.4,5.2,8.4,6.8,11.6c15.2,30.2,47,92.8,70.5,140.3h101.5
		c-42.5-84.5-83.9-167.1-126.3-251.5C343.5,147.3,326.8,178.2,309.1,210.8z"/>
	<path class="st0" d="M626.1,340.3L626.1,340.3l-20.7-41.8l-41.7,0l0,0c-28.5-0.1-57.5,0-87.8,0c10.9,21.8,20.2,41.6,30.3,60.8
		c1.3,2.5,2.4,4.5,3.4,6.4h129.2C634.5,357,630.3,348.6,626.1,340.3z"/>
	<path class="st0" d="M393.9,135.1l14.4,28.8c2.1,4.2,4.1,8.4,6,12.6c0.7,1.4,1.4,2.6,2.1,3.8l3,6h83.4l-0.4-0.3c9,0,17.9,0,26.8,0
		c5.8,0,11.6,0,19.4,0c-6-12-11.8-23.5-17.4-34.6l0,0v0c-5.2-10.2-10.2-20.1-15.4-30c-0.2-0.3-0.4-0.6-0.7-1l-2-3.8h-65.6l0,0
		c-20.5,0-41.3,0-63,0C387.8,122.9,390.9,129.1,393.9,135.1L393.9,135.1z"/>
	<path class="st0" d="M214.3,153.2c2.5-4.9,5-10,7.5-15l0.2-0.4l0,0c0.5-1,1-1.9,1.5-2.9l0,0l9.3-18.4H38L1.1,186.2h196.6
		L214.3,153.2z"/>
</g>
</svg>
