<?xml version="1.0" encoding="utf-8"?>
<!-- Generator: Adobe Illustrator 21.0.2, SVG Export Plug-In . SVG Version: 6.00 Build 0)  -->
<svg version="1.1" id="Layer_7" xmlns="http://www.w3.org/2000/svg" xmlns:xlink="http://www.w3.org/1999/xlink" x="0px" y="0px"
	 viewBox="0 0 640 480" style="enable-background:new 0 0 640 480;" xml:space="preserve">
<style type="text/css">
	.st0{fill:#28539C;}
	.st1{fill:#CC2131;}
</style>
<g>
	<path class="st0" d="M50.4,308.9h77.6c0.9,0,0.9,0.5,0,0.9c-8.6,4.1-21.3,16.8-21.3,16.8c-8.6,8.6-15.4,14.1-30.4,14.1H1.8
		c-0.5,0-0.5-0.9,0-0.9c8.2-4.5,20.4-17.2,20.4-17.2C27.2,316.6,37.7,308.9,50.4,308.9z M560.1,308.9h78c0.5,0,0.5,0.5,0,0.9
		c-9.1,4.1-21.3,16.8-21.3,16.8c-9.1,8.6-15.9,14.1-30.4,14.1h-74.4c-0.5,0-0.5-0.9,0-0.9c8.2-4.5,20.4-17.2,20.4-17.2
		C537.5,316.6,547.4,308.9,560.1,308.9z M177.8,308.9h77.6c0.9,0,0.9,0.5,0,0.9c-8.6,4.1-21.3,16.8-21.3,16.8
		c-8.6,8.6-15.4,14.1-30.4,14.1h-73.9c-0.9,0-0.9-0.9-0.5-0.9c8.2-4.5,20.4-17.2,20.4-17.2C154.7,316.6,165.1,308.9,177.8,308.9z
		 M305.3,308.9h77.6c0.9,0,0.9,0.5,0,0.9c-8.6,4.1-21.3,16.8-21.3,16.8c-8.6,8.6-15.4,14.1-29.9,14.1h-74.4c-0.5,0-0.5-0.9-0.5-0.9
		c8.6-4.5,20.4-17.2,20.4-17.2C282.1,316.6,292.6,308.9,305.3,308.9z M432.7,308.9h78c0.5,0,0.5,0.5-0.5,0.9
		c-8.6,4.1-21.3,16.8-21.3,16.8c-8.6,8.6-15.4,14.1-29.9,14.1h-74.4c-0.5,0-0.5-0.9,0-0.9c8.2-4.5,20.4-17.2,20.4-17.2
		C409.6,316.6,420,308.9,432.7,308.9L432.7,308.9z"/>
	<path class="st1" d="M454,157.4c-49,0-81.6,25.4-81.6,64c0,35.4,29.9,59,74.4,59c14.5,0,27.2-1.8,42.2-5.9v-29.5
		c-10.4,11.8-23.1,16.3-36.7,16.3c-26.3,0-44.4-17.2-44.4-42.6c0-24.9,18.6-43.1,44.9-43.1c14.1,0,25.4,5.4,34.5,15v-29.9
		C477.6,158.7,465.8,157.4,454,157.4L454,157.4z M88.5,178.2c18.1,0,39.9,3.6,49,11.3v-28.1H8.6v28.1c9.1-7.7,28.6-10.9,49.4-10.9
		v77.1c0,11.3-0.9,14.5-5.4,20.4h41.3c-4.5-5.9-5.4-9.1-5.4-20.4V178.2z M220,205.9c-7.3,2.7-20.9,3.2-27.7,3.2h-10.9v-30.4H196
		c13.2,0,35.4,2.7,44,10.4v-27.7h-93.9c4.5,5.4,5.4,9.1,5.4,20v74.4c0,11.3-0.9,14.5-5,20.4h99.8v-28.1
		c-13.6,10.4-39.9,10.4-50.3,10.4h-14.5v-32.2h10.4c7.3,0,20.4,0.9,28.1,3.6L220,205.9L220,205.9L220,205.9z M359.2,165.1
		c-15-5-34.5-7.7-49.4-7.7c-27.2,0-53.5,8.6-53.5,37.6c0,49.9,81.6,23.6,81.6,54.4c0,10-14.5,14.1-26.3,14.1
		c-20.9,0-35.4-3.6-53.5-15.4v25.4c13.6,4.5,32.2,7.3,52.2,7.3c28.1,0,54.4-8.2,54.4-37.6c0-52.6-81.2-29-81.2-54.4
		c0-10.4,13.2-14.1,24.5-14.1c19.1,0,39.9,5.9,51.2,17.2L359.2,165.1L359.2,165.1L359.2,165.1z M568.8,159.2
		c-44,0-75.3,25.4-75.3,61.2c0,35.4,28.1,58.5,69.4,58.5c44.4,0,75.3-24.5,75.3-60.8C638.2,182.8,610,159.2,568.8,159.2z
		 M565.6,261.7c-23.6,0-38.6-19.1-38.6-42.6s15-42.6,38.6-42.6c23.1,0,38.6,19.1,38.6,42.6S588.7,261.7,565.6,261.7z"/>
</g>
</svg>
