<?xml version="1.0" encoding="utf-8"?>
<!-- Generator: Adobe Illustrator 18.1.1, SVG Export Plug-In . SVG Version: 6.00 Build 0)  -->
<svg version="1.1" id="Layer_1" xmlns="http://www.w3.org/2000/svg" xmlns:xlink="http://www.w3.org/1999/xlink" x="0px" y="0px"
	 viewBox="0 0 640 480" enable-background="new 0 0 640 480" xml:space="preserve">
<g>
	<path fill="#0E0E0F" d="M282.4,6.1c25.1-0.3,50.3-0.4,75.4,0c13,1.6,26.1,0.1,39,1.9c19.3,0.5,38.6,2.4,57.8,4.4
		C496.3,17,538.3,23,577.9,37.3c-5.4,6.6-10.1,13.8-15.6,20.4c-21.3-7.1-43.4-11.4-65.4-16.1c-31.2-5.7-62.7-10-94.3-12.1
		c-8.6-1.3-17.3-0.3-25.9-1.7c-25.1-0.8-50.3-0.3-75.4-0.5C247.5,26.9,193.8,32.2,141,42c-21.2,4.6-42.5,8.8-63.1,15.5l-1.2-0.3
		c-5.1-6.5-10-13.3-14.8-20c13.7-5.1,27.8-8.9,42-12.2c33.1-7.2,66.7-11.4,100.3-14.5c13.5-1.2,27-2.3,40.6-2.6
		C257.3,6.1,269.9,7.8,282.4,6.1L282.4,6.1z"/>
	<path fill="#0E0E0F" d="M347.7,52.2c19.7,0.1,39.5-0.7,59.2,1c23.2,0.6,46.5,2.6,69.5,5.8c25.2,3.2,50.3,7.9,74.1,17
		c-16.5,19.6-40.1,31.6-63.7,40.4c-1.6-7.1-4.2-14.4-10.2-19c-10.1-7.8-22.6-11.4-35.1-13.2c-13.9-2-28-3.1-42.1-2.9
		c-26.4,128.6-52,257.3-78.2,385.9c-0.7,2.8-0.6,5.7-0.4,8.6h-1.6c-0.4-6.8-2.3-13.4-3.6-20.1c-25-124.8-50.3-249.6-75.4-374.4
		c-19.8-0.2-39.9,1.3-59.1,6.7c-13.1,4-27.2,13.3-28.2,28.4c-23.6-8.8-47.5-20.5-63.8-40.3c23.4-9.3,48.4-13.6,73.2-17
		c42.8-5.9,86.1-7.4,129.3-6.9c9.5,10.9,18.4,22.3,27.9,33.1C328.9,74.3,338.3,63.2,347.7,52.2L347.7,52.2z"/>
</g>
</svg>
