<?xml version="1.0" encoding="utf-8"?>
<!-- Generator: Adobe Illustrator 21.0.2, SVG Export Plug-In . SVG Version: 6.00 Build 0)  -->
<svg version="1.1" xmlns="http://www.w3.org/2000/svg" xmlns:xlink="http://www.w3.org/1999/xlink" x="0px" y="0px"
	 viewBox="0 0 640 480" style="enable-background:new 0 0 640 480;" xml:space="preserve">
<style type="text/css">
	.st0{display:none;}
	.st1{display:inline;}
	.st2{fill:#FFFFFF;}
	.st3{fill:#0077B3;}
	.st4{fill:#5AA5CF;}
	.st5{fill:#A2CDE3;}
	.st6{fill:#D3E6F1;}
	.st7{fill:#27A687;}
</style>
<g id="Layer_1" class="st0">
	<g id="svgg" class="st1">
		<path id="path0" class="st2" d="M120,126.9c0,69.1,0.2,86.8,1,86.5c0.7-0.2,1.1-3,1.2-9.3c0.2-7.9,0.4-9.1,1.8-9.9
			c1.2-0.8,1.6-1.9,1.6-5.2c0-3.2,0.4-4.5,1.6-5.6c1.1-1,1.6-2.4,1.6-4.8c0-2.3,0.5-3.9,1.5-5c0.9-0.9,1.8-3.3,2.1-6
			c0.4-3.2,1-4.7,2.1-5.3c0.8-0.4,1.5-1.7,1.5-2.7c0-2.7,0.8-4.4,2.1-4.4c0.7,0,1.1-0.9,1.1-2.4c0-1.4,0.7-3,1.6-3.8
			c0.9-0.8,1.8-2.6,2.1-4c0.3-1.5,1.2-3,2-3.5c1-0.5,1.5-1.7,1.5-3.2c0-1.4,0.5-2.6,1.3-2.9c0.7-0.3,1.6-1.3,2-2.4
			c0.4-1,1.3-1.9,1.9-1.9c0.8,0,1.2-0.7,1.2-1.9c0-2.7,0.8-4.5,2-4.5c0.5,0,1.4-0.9,1.9-2c0.5-1.1,1.5-2,2.1-2
			c0.8,0,1.2-0.8,1.2-2.4c0-1.5,0.6-2.8,1.6-3.4c0.9-0.5,1.6-1.3,1.6-1.6c0-1,5.3-6.2,6.3-6.2c0.5,0,0.9-0.7,0.9-1.6
			c0-1.1,0.5-1.6,1.6-1.6c0.9,0,1.6-0.4,1.6-0.9c0-0.5,2-2.8,4.3-5.2c2.4-2.4,4.7-4.3,5.2-4.3c0.5,0,0.9-0.7,0.9-1.6
			s0.4-1.6,0.9-1.6c0.5,0,2.4-1.6,4.3-3.6c1.9-2,3.7-3.6,4.1-3.6c0.4,0,1.2-0.7,1.7-1.6c0.6-1,1.9-1.6,3.4-1.6
			c1.6,0,2.4-0.4,2.4-1.2c0-0.7,0.9-1.6,2-2.1c1.1-0.5,2-1.4,2-2c0-0.6,0.3-1.1,0.7-1.1s1.7-0.9,2.8-2c1.2-1.1,3-2,4.1-2
			c1.1,0,2.3-0.7,2.8-1.6c0.6-1,1.7-1.6,3.2-1.6c1.5,0,2.6-0.6,3.2-1.5c0.4-0.8,2-1.7,3.5-2c1.5-0.3,3.3-1.2,4-2.1
			c0.8-0.9,2.4-1.6,3.8-1.6c1.5,0,2.4-0.4,2.4-1.1c0-1.3,1.7-2.1,4.4-2.1c1,0,2.3-0.7,2.7-1.5c0.5-0.9,2.1-1.7,3.7-2
			c1.6-0.3,3.3-1,3.8-1.7c0.5-0.7,2.7-1.5,4.9-1.8s4.9-1.2,5.9-2c1.4-1.1,3.3-1.5,7-1.5c4.2,0,5.2-0.3,5.9-1.6
			c0.7-1.4,1.8-1.6,8.6-1.8c5.3-0.2,7.8-0.5,8.1-1.2c0.3-0.8-17.1-1-84.9-1H120V126.9 M350.4,41.2c0,1,1.4,1.2,7.9,1.2
			c7.2,0,8,0.1,8.5,1.6c0.4,1.4,1.2,1.6,6.1,1.6c4.5,0,5.9,0.3,7.1,1.6c1,1,2.7,1.6,4.7,1.6c1.9,0,3.9,0.6,5.2,1.6
			c1.1,0.9,3.9,1.8,6.1,2.1c2.8,0.3,4.3,0.9,4.9,2c0.5,0.9,1.7,1.5,3.1,1.5c1.3,0,3,0.7,3.8,1.5c0.8,0.8,2.6,1.8,4.1,2.1
			c1.5,0.3,2.8,1.1,3.1,1.7c0.2,0.6,1.7,1.3,3.2,1.6c1.5,0.3,3.1,1.2,3.6,2c0.5,0.9,1.7,1.5,3.1,1.5c1.3,0,2.8,0.6,3.4,1.5
			c0.6,0.8,1.7,1.7,2.4,2c0.8,0.3,1.4,1.1,1.4,1.7c0,0.8,0.7,1.2,1.9,1.2c1.9,0,7.5,3.9,8.8,6.1c0.4,0.6,1.4,1.1,2.4,1.1
			c1,0,2.5,0.7,3.4,1.6c12.7,12.2,16.8,16,17.3,16c0.4,0,0.7,0.6,0.7,1.3s0.7,1.5,1.6,1.7s1.6,0.7,1.6,1.1c0,0.4,2.3,3,5.2,5.9
			c2.9,2.9,5.2,5.8,5.2,6.4c0,2,0.9,3.7,2.1,3.7c0.6,0,1.1,0.4,1.1,0.8s0.9,1.6,2,2.5c1.4,1.2,2,2.6,2,4.3c0,1.9,0.4,2.7,1.6,3
			c0.9,0.2,1.6,1,1.6,1.6c0,0.7,0.7,1.4,1.5,1.7c1,0.3,1.7,1.5,2,3.7c0.3,1.9,0.9,3.2,1.6,3.2c1.3,0,2.1,1.7,2.1,4.3
			c0,1,0.7,2.2,1.6,2.7c1.1,0.7,1.6,1.9,1.6,3.7c0,2,0.4,2.8,1.5,3.1c0.9,0.2,1.7,1.4,2.1,3.1c0.3,1.5,1.3,3.3,2.1,4.1
			c0.8,0.8,1.5,2.4,1.5,3.6c0,1.3,0.6,2.6,1.6,3.2c1.3,0.8,1.6,1.9,1.6,5.2c0,3.3,0.3,4.4,1.6,5.2c1.3,0.8,1.6,1.9,1.6,6.5
			c0,4.7,0.3,5.7,1.6,6.6c1.3,0.9,1.7,2.2,2.1,7.3c1.4,18,1.8-1.7,1.8-75.4V40h-84.8C360.4,40,350.4,40.1,350.4,41.2 M373.9,97.5
			c-2.2,0.8-6.1,1.7-8.6,2c-2.7,0.3-4.8,1-5,1.7c-0.2,0.6-1.6,1.3-3,1.6s-3,1.2-3.6,2c-0.6,0.8-1.5,1.5-2.1,1.5
			c-0.6,0-1.3,0.7-1.6,1.6s-1,1.6-1.6,1.6c-0.6,0-1.3,0.7-1.6,1.6c-0.3,0.9-1,1.6-1.5,1.6c-0.6,0-1.4,0.9-1.9,2
			c-0.5,1.1-1.2,2-1.6,2c-0.4,0-1.1,1.4-1.6,3.2c-0.6,1.8-1.5,3.2-2.1,3.2c-0.9,0-1.2,1-1.2,3.8c0,2.4-0.6,4.8-1.6,6.4
			c-2.2,3.6-2.2,12.2,0,16.6c0.9,1.7,1.6,4.4,1.6,6c0,1.9,0.6,3.3,1.6,4.2c0.9,0.8,1.6,2,1.6,2.9c0,1.4,4.5,7.1,8.8,11.1
			c1.1,1,2.8,2.6,3.7,3.4c0.9,0.9,2.1,1.6,2.6,1.6s1.3,0.7,1.9,1.5c0.6,0.9,2.5,1.7,4.6,1.9c2,0.3,4,1,4.5,1.7
			c1.6,2.1,24.6,1.8,26.7-0.3c0.9-0.9,2.7-1.6,4-1.6c1.4,0,2.6-0.5,2.9-1.2c0.2-0.6,1.7-1.6,3.2-2.1c1.5-0.5,2.7-1.2,2.7-1.7
			c0-0.4,0.9-1.1,2-1.5s2-1.3,2-1.9c0-0.6,0.7-1.4,1.6-1.7c0.9-0.3,1.6-1.1,1.6-1.7c0-0.7,0.7-1.4,1.6-1.6c1-0.3,1.6-1.1,1.6-2.3
			c0-1,0.7-2.6,1.6-3.5c0.9-0.9,1.9-3,2.4-4.7c0.5-1.7,1.3-3.3,1.8-3.5c1.9-0.6,1.8-23.3-0.1-26.4c-0.9-1.4-1.8-3.8-2.1-5.2
			c-0.3-1.5-1.1-2.8-1.7-3.1c-0.6-0.2-1.3-1.1-1.6-2c-0.9-2.7-9.2-11.5-11.8-12.3c-0.8-0.3-1.4-0.9-1.4-1.5c0-0.6-1.3-1.3-2.8-1.6
			s-3-1-3.2-1.6c-0.2-0.6-3-1.5-6.6-2.1c-3.4-0.6-6.9-1.5-7.7-2.1C380.7,95.7,378.8,95.8,373.9,97.5 M213.6,107.4
			c0,0.5,0.8,2.2,1.8,3.8c3,4.7,3.7,5.9,4.8,8c0.5,1.1,1.6,2.9,2.4,3.9c0.8,1,1.4,2.5,1.4,3.2c0,0.7,0.7,1.8,1.6,2.3
			c0.9,0.6,1.6,1.9,1.6,2.9c0,1.1,0.7,2.4,1.5,3c0.8,0.6,1.8,2.2,2.1,3.7c0.3,1.5,1.1,2.8,1.7,3.1c0.6,0.2,1.3,1.2,1.6,2.1
			c0.3,0.9,1.2,2.6,2,3.6c0.8,1,1.5,2.4,1.5,3s0.7,1.8,1.6,2.7c0.9,0.9,1.6,2.5,1.6,3.6c0,1.1,0.7,2.3,1.6,2.8
			c0.9,0.5,1.8,2.1,2.1,3.6c0.3,1.6,1,2.8,1.7,2.8c0.6,0,1.3,1.1,1.6,2.4c0.3,1.3,1.1,3,2,3.7c0.8,0.8,1.5,2,1.5,2.7
			c0,0.7,0.7,2,1.6,2.8c0.9,0.8,1.6,2,1.6,2.6c0,0.6,0.9,2.2,2,3.5c1.1,1.3,2,3.2,2,4.3c0,1.1,0.5,1.9,1.1,1.9
			c1.3,0,2.1,1.7,2.1,4.4c0,1.2,0.6,2,1.6,2.3c0.9,0.2,1.6,1.1,1.6,2c0,0.9,0.7,2.5,1.6,3.6c0.9,1.1,1.6,2.6,1.6,3.3
			c0,0.7,0.7,1.6,1.5,2.1c0.8,0.5,1.8,1.9,2.1,3.3c0.3,1.4,1.2,3.2,2.1,4c0.8,0.8,1.5,2.4,1.5,3.4c0,1.2,0.6,2.1,1.6,2.3
			c1.1,0.3,1.6,1.1,1.6,2.5c0,1.1,0.7,2.7,1.6,3.5c0.9,0.8,1.6,1.8,1.6,2.2c0,0.5,0.9,2.1,2,3.6s2,3.3,2,4s0.7,1.7,1.6,2.3
			c0.9,0.6,1.6,1.8,1.6,2.7c0,0.9,0.9,2.7,2,4.1c1.1,1.3,2,3.1,2,3.9c0,0.8,0.4,1.5,0.8,1.5s1.6,1.6,2.5,3.6c0.9,2,2,3.8,2.4,4
			c0.4,0.2,0.7,1.1,0.7,1.8c0,0.8,0.7,2,1.6,2.7c0.9,0.8,1.6,2.2,1.6,3.2c0,1,0.7,2.2,1.5,2.8c0.8,0.5,1.8,2,2.1,3.2
			c0.3,1.2,1.3,2.9,2.1,3.7s1.5,2.3,1.5,3.4c0,1.1,0.7,2.3,1.6,2.8c0.9,0.5,1.6,1.5,1.6,2.3c0,0.8,0.7,2,1.6,2.8
			c0.9,0.8,1.6,2.3,1.6,3.4s0.4,2,0.8,2s0.8-0.5,0.8-1.2c0-0.6,0.7-1.6,1.6-2c1-0.6,1.6-1.7,1.6-3.2s0.6-2.6,1.6-3.2
			c0.9-0.5,1.6-1.7,1.6-2.8c0-1.1,0.7-2.7,1.6-3.6c0.9-0.9,1.6-2.1,1.6-2.6c0-0.6,0.9-2.3,2-3.8c1.1-1.5,2-3.3,2-4
			c0-0.7,0.7-2,1.6-2.8c0.9-0.8,1.6-2.1,1.6-2.9c0-0.8,0.7-1.8,1.6-2.3c1-0.6,1.6-1.7,1.6-3.2c0-1.5,0.6-2.7,1.6-3.4
			c0.9-0.5,1.6-1.8,1.6-2.8c0-1,0.7-2.5,1.5-3.3c0.8-0.8,1.7-2.4,2-3.6c0.3-1.2,1.2-2.7,2-3.5c0.8-0.8,1.7-2.6,2.1-4
			c0.3-1.5,1.1-2.6,1.7-2.6c0.7,0,1.1-0.8,1.1-1.9c0-1,0.7-2.8,1.6-4l1.6-2.1l-1.6-1.6c-0.9-0.9-1.6-2.5-1.6-3.5
			c0-1.1-0.5-2.1-1.2-2.4c-0.6-0.2-1.7-1.6-2.4-3.1c-1.2-2.7-1.7-3.5-5-8.7c-1-1.6-1.8-3.3-1.8-3.9c0-0.6-0.7-1.9-1.6-3.1
			c-0.9-1.1-1.6-2.7-1.6-3.5c0-0.8-0.7-1.8-1.6-2.3c-0.9-0.5-1.6-1.6-1.6-2.4c0-0.9-0.7-2.3-1.6-3.2c-0.9-0.9-1.6-2.1-1.6-2.6
			c0-0.6-0.9-2.3-2-3.8c-1.1-1.5-2-3.2-2-3.8c0-0.6-0.7-1.8-1.6-2.6c-0.9-0.9-1.6-2.4-1.6-3.4c0-1-0.7-2.3-1.6-2.8
			c-0.9-0.6-1.6-1.9-1.6-3c0-1.1-0.7-2.3-1.5-2.8c-0.8-0.5-1.8-1.9-2.1-3.3c-0.3-1.4-1.2-3.2-2.1-4c-0.8-0.8-1.5-2.2-1.5-2.9
			c0-0.8-0.7-2-1.6-2.8c-0.9-0.8-1.6-1.9-1.6-2.5s-0.7-1.9-1.6-2.9c-0.9-1-1.6-2.3-1.6-2.8c0-0.5-0.9-2.1-2-3.6c-1.1-1.5-2-3.3-2-4
			c0-0.7-0.7-1.9-1.6-2.6c-0.9-0.8-1.6-2.3-1.6-3.3c0-1.2-0.7-2.3-1.6-2.8c-0.9-0.5-1.6-1.5-1.6-2.3c0-0.8-0.6-2.3-1.4-3.4
			c-1.8-2.5-3.9-6.2-5.2-9l-1-2.2h-37.8C222.6,106.4,213.6,106.6,213.6,107.4 M120,353.1V440h83.2c76.6,0,95.7-0.5,75.5-1.9
			c-6.4-0.5-7.9-0.8-8.8-2.1c-0.9-1.3-2-1.6-6.7-1.6c-4.7,0-5.7-0.3-6.5-1.6c-0.7-1.1-1.9-1.6-3.6-1.6c-1.7,0-2.9-0.5-3.6-1.6
			c-0.7-1.2-1.9-1.6-4.4-1.6c-2.3,0-3.9-0.5-5-1.6c-0.9-0.9-2.9-1.8-4.5-2.1c-1.9-0.4-3.1-1.1-3.3-2c-0.3-1-1.1-1.5-2.7-1.5
			c-1.3,0-2.9-0.7-3.7-1.5c-0.8-0.8-2.6-1.8-4-2.1c-1.4-0.3-3-1.2-3.4-2.1c-0.5-0.8-1.3-1.5-1.9-1.5c-0.6,0-1.3-0.7-1.6-1.6
			c-0.4-1.2-1.2-1.6-3.3-1.6c-2.1,0-2.9-0.4-3.2-1.6c-0.3-1.1-1.1-1.6-2.7-1.6c-1.4,0-2.8-0.7-3.8-2c-0.9-1.1-1.9-2-2.3-2
			c-0.4,0-1.1-0.7-1.7-1.6c-0.6-0.9-1.5-1.6-2.1-1.6c-0.6,0-1.3-0.7-1.5-1.6c-0.2-0.9-1-1.6-1.6-1.6c-0.7,0-1.4-0.7-1.7-1.6
			c-0.3-0.9-1.1-1.6-1.7-1.6c-0.7,0-1.4-0.7-1.6-1.6c-0.2-0.9-1.1-1.8-1.8-2s-1.6-1.2-1.8-2c-0.3-1.1-1.1-1.6-3-1.6
			c-1.9,0-2.7-0.4-3-1.6c-0.2-0.9-1.1-1.8-1.9-2.1c-0.8-0.3-1.5-0.8-1.5-1.2c0-0.4-0.9-1.5-2-2.5c-1.1-1-2-2.6-2-3.6
			c0-1.3-0.7-2.1-2-2.6c-1.1-0.4-2-1.3-2-2c0-0.7-0.5-1.2-1.2-1.2c-0.7,0-1.5-0.9-1.9-1.9c-0.4-1-1.3-2.1-2-2.4
			c-0.7-0.3-1.3-0.9-1.3-1.5s-0.7-1.5-1.6-2c-0.9-0.6-1.6-1.7-1.6-2.5c0-1.5-2.1-4.4-5.4-7.5c-1-0.9-1.8-2.6-1.8-3.9
			c0-1.5-0.5-2.4-1.6-2.7c-0.9-0.3-1.6-1-1.6-1.5c0-0.6-0.7-1.6-1.5-2.4c-0.8-0.8-1.8-3-2.1-5.1c-0.3-2.3-1.2-4.1-2.1-4.8
			c-0.8-0.6-1.5-1.4-1.5-1.8c0-0.4-0.7-1.5-1.6-2.4c-1.1-1.1-1.6-2.7-1.6-5.2c0-2.7-0.4-3.8-1.5-4.4c-0.8-0.4-1.7-2-2-3.4
			c-0.3-1.4-1.1-3.2-1.8-4c-0.8-0.9-1.4-3.5-1.7-6.9c-0.3-4-0.8-5.7-1.9-6.5c-1.1-0.8-1.5-2.1-1.5-5.2c0-3.3-0.3-4.4-1.6-5.1
			c-1.4-0.9-1.6-2-1.8-10.3c-0.2-6.6-0.5-9.4-1.2-9.7C120.2,266.3,120,284,120,353.1 M518.1,284.6c-0.4,6.5-0.8,8-2.1,8.9
			c-1.3,0.9-1.6,2-1.6,6.2c0,4-0.3,5.4-1.6,6.7c-0.9,0.9-1.6,2.5-1.6,3.5c0,2.7-0.8,4.5-2,4.5c-0.6,0-1.2,1.5-1.4,3.9
			c-0.2,2.3-1.1,4.8-2.1,6.1c-0.9,1.2-1.7,2.9-1.7,3.7s-0.7,2.1-1.6,2.9c-0.9,0.8-1.6,2.2-1.6,3.2c0,1-0.7,2.5-1.6,3.4
			c-0.9,0.9-1.6,1.9-1.6,2.4c0,0.4-0.7,1.2-1.5,1.8c-0.8,0.6-1.8,2.2-2.1,3.7c-0.3,1.4-1.3,3-2.1,3.4c-1,0.5-1.5,1.7-1.5,3.3
			c0,1.7-0.4,2.6-1.5,2.8c-0.8,0.2-1.8,1.3-2,2.3c-0.3,1.1-1,1.9-1.7,1.9c-0.7,0-1.2,0.8-1.2,2c0,1.3-1.2,3.3-3.5,5.5
			c-1.9,1.9-3.7,4.1-4,4.8c-0.3,0.7-1,1.3-1.7,1.3c-0.7,0-1.2,0.4-1.2,0.8c0,1.2-5.1,6.4-6.3,6.4c-0.5,0-0.9,0.9-0.9,1.9
			c0,2.5-2,4.5-4.5,4.5c-1.1,0-1.9,0.4-1.9,0.8c0,1-5.3,6.4-6.3,6.4c-0.4,0-1,0.7-1.3,1.6c-0.3,0.9-1,1.6-1.6,1.6
			c-0.6,0-1.3,0.7-1.6,1.6c-0.3,0.9-1,1.6-1.6,1.6s-1.5,0.7-2,1.6c-0.5,0.9-2.1,1.8-3.6,2.1c-1.6,0.3-2.8,1-2.8,1.6
			c0,0.6-0.9,1.3-1.9,1.6c-1.1,0.3-2.1,1.2-2.3,2c-0.3,1.1-1.1,1.5-2.8,1.5c-1.6,0-2.7,0.5-3.3,1.5c-0.5,0.8-2,1.8-3.4,2.1
			c-1.4,0.3-3.1,1.2-3.7,2.1c-0.6,0.8-1.5,1.5-2.1,1.5c-0.6,0-1.3,0.5-1.5,1.2c-0.3,0.7-1.9,1.4-3.7,1.7c-1.9,0.3-3.2,1-3.2,1.6
			c0,1.1-4.6,2.7-7.6,2.7c-0.9,0-2.1,0.7-2.6,1.6c-0.7,1.1-1.9,1.6-3.8,1.6c-1.9,0-2.8,0.4-2.8,1.1c0,1.5-1.8,2.1-6.4,2.1
			c-3.2,0-3.9,0.3-4.3,1.6c-0.4,1.3-1.1,1.6-4.7,1.6c-3.2,0-4.6,0.4-5.6,1.5c-1,1.2-2.9,1.6-9,2.1c-20,1.5-2,2,73.9,2H520v-81.6
			C520,283.5,519.5,264,518.1,284.6 M251.8,314.1c-0.3,0.3-0.6,10.8-0.6,23.2V360h2.4h2.4l-0.2-23c-0.2-22.5-0.3-23-1.8-23.2
			C253.1,313.6,252.1,313.8,251.8,314.1 M268.8,336.8V360h2.4h2.4v-22.7c0-20-0.2-22.8-1.3-23.2
			C268.7,312.7,268.8,312.3,268.8,336.8 M173.3,326.2c1.5,1,2.7,3.9,2.7,6.4c0,1.3,0.7,3.1,1.6,4.1s1.8,3.5,2.1,5.5
			c0.3,2,1.1,4.1,1.7,4.5c0.6,0.5,1.3,2.4,1.6,4.4c0.3,1.9,1.1,4.3,1.9,5.1c0.8,0.9,1.5,2.1,1.5,2.6c0,0.7,1.2,1,3.6,1h3.6l0.5-3.6
			c0.3-2,1.2-4.2,2-4.9c1-0.9,1.5-2.4,1.5-4.3c0-1.9,0.6-3.5,1.6-4.4c1.1-1,1.6-2.5,1.6-4.5c0-2,0.6-3.6,1.5-4.6
			c3-3,3.1-8.1,0.2-8.1c-1.9,0-2.5,0.4-2.5,1.5c0,0.8-0.7,2.4-1.5,3.4c-0.8,1.1-1.7,3.8-1.9,6.1c-0.2,2.3-0.9,4.8-1.5,5.5
			s-1.5,3.2-1.9,5.4c-0.9,4.8-4.5,6.5-5.6,2.7c-0.3-1-1.3-2.7-2.1-3.8c-1-1.2-1.5-3.2-1.5-5.7c0-2.6-0.5-4.4-1.6-5.8
			c-0.9-1.1-1.6-2.9-1.6-3.9c0-4.6-0.7-5.5-4.7-5.5C174.1,325.6,172.8,325.9,173.3,326.2 M217.4,327.2c-0.8,0.9-1.9,1.6-2.6,1.6
			c-0.8,0-1.2,0.8-1.2,2c0,2.6,4.4,3,5,0.4c0.6-2.2,11.6-2.4,13.5-0.2c2.5,2.8,2.6,7.4,0.2,7.4c-0.6,0-1.5,0.7-2.1,1.6
			c-0.9,1.3-2.4,1.7-7.8,2.1c-8.8,0.7-12.1,3.5-12.1,10.5c0,3.3,0.3,4.2,1.3,4.2c0.7,0,1.5,0.7,1.7,1.6c0.4,1.4,1.1,1.6,6.5,1.6
			c4.2,0,5.7-0.3,4.9-0.8c-0.7-0.4-1.7-0.8-2.3-0.8c-4.7-0.1-8.5-7.2-5.7-10.5c0.9-1.1,1.9-2.4,2.3-3c1.1-1.9,13-2.9,14.2-1.2
			c2.7,3.7-0.4,11.5-5,12.5c-0.9,0.2-0.3,0.4,1.4,0.5c2.1,0.1,3.3,0.6,4,1.7c1.7,2.7,6.4,2.3,5.4-0.5c-0.4-1.1-0.8-8.1-0.8-15.6
			c0-13-0.1-13.5-1.6-13.5c-0.9,0-2.3-0.7-3.2-1.6c-1.3-1.3-2.7-1.6-8.2-1.6C219.7,325.6,218.6,325.8,217.4,327.2 M294.2,327.2
			c-0.8,0.9-2.1,1.6-3,1.6c-0.9,0-1.9,0.6-2.1,1.4c-0.3,0.8-1.2,2.2-2.1,3.2c-2.5,2.8-2.4,18.4,0.1,20.1c0.9,0.6,1.7,1.6,1.7,2.2
			c0,0.6,0.7,1.1,1.5,1.1s2.1,0.7,2.9,1.6c1.2,1.4,2.5,1.6,8.4,1.6s7.2-0.2,8.4-1.6c0.8-0.9,1.7-1.6,2.1-1.6c5.6,0,8-23,2.7-25.1
			c-0.6-0.2-1.2-1-1.2-1.6c0-0.6-1.1-1.4-2.5-1.7c-1.3-0.3-2.6-1-2.9-1.7C307.5,324.8,295.9,325.2,294.2,327.2 M328.8,337
			c0.1,20.2,1.3,23,10.4,23c4.2,0,5.5-0.3,6.6-1.6c0.9-1.1,2.4-1.6,4.3-1.6c2.2,0,3,0.4,3.3,1.6c0.3,1.1,1.1,1.6,2.7,1.6h2.3v-17.2
			v-17.2h-2.3h-2.3l-0.3,11.5c-0.2,9.6-0.5,11.8-1.7,13.1c-0.8,0.8-1.4,2.2-1.4,2.9c0,2-3.7,3.1-9.1,2.7c-6.8-0.5-6.9-0.7-6.9-16.8
			v-13.4h-2.8h-2.8L328.8,337 M370.5,342.8l0.1,17.2h2.3h2.3v-11.1c0-12,1.6-16.1,6.3-16.1c1,0,1.7-0.4,1.7-0.8c0-0.5,0.9-1.2,2-1.7
			c1.3-0.6,2-1.6,2-2.8c0-2.7-2-2.3-5.3,1c-3.4,3.4-5.2,3.3-6.3-0.2c-0.6-2.1-1.2-2.6-3-2.6h-2.2L370.5,342.8 M401.9,326.7
			c-0.2,0.6-1.3,1.3-2.4,1.6c-1.1,0.3-1.9,0.9-1.9,1.5s-0.7,1.4-1.5,1.9c-2.3,1.4-3.2,9.1-2.1,17.1c0.6,4.4,0.9,4.8,6.8,10.1
			c0.9,0.8,3.4,1.1,8.2,1.1c7.3,0,7,0.1,12.4-5l1.8-1.8l-2.5-0.3c-1.7-0.2-3.1,0.3-4.3,1.4c-5.4,5.1-17.3,0.9-17.3-6
			c0-4.9,0.6-5.1,13.1-5.1h11.1l-0.3-5.3c-0.2-3.9-0.7-5.5-1.7-6c-0.7-0.4-1.4-1.3-1.4-1.9s-0.5-1.2-1.1-1.2c-0.6,0-2-0.7-3.1-1.6
			C413.2,325.2,402.6,324.8,401.9,326.7 M439.2,327.2c-2.1,1.7-2.6,2.1-5.2,4.8c-2.3,2.4-2.4,20.3-0.2,21.9c0.8,0.6,1.4,1.4,1.4,1.8
			s0.9,1.2,2,1.7c1.1,0.5,2,1.3,2,1.7c0,0.5,2.8,0.8,7.2,0.8h7.2l3.6-3.6c2.5-2.5,3.6-4.2,3.4-5.4c-0.3-2.3-3.6-2.9-4.4-0.8
			c-2.2,5.8-16.3,8.8-16.3,3.4c0-0.4-0.8-1.5-1.7-2.5c-2.1-2.1-2-14.5,0.1-16.2c0.7-0.5,1.8-1.9,2.6-3.1c2.8-4.4,15-1.7,15,3.3
			c0,0.5,1.1,0.9,2.4,0.9c3.3,0,3.3-3-0.1-5.6c-1.4-1.1-3.2-2.6-4-3.4C452,324.9,442,325.1,439.2,327.2 M309.5,332.6
			c4,4.1,4.8,15.3,1.4,19c-1.1,1.2-2.2,2.6-2.3,3.1c-0.7,2-12.2,1.7-14.1-0.4c-0.9-1-2.3-2.5-3.1-3.3c-2.9-3.1-1.9-13.2,1.7-17.6
			l3.1-3.7h5.3C306.4,329.6,306.8,329.7,309.5,332.6 M414.4,330.4c0,0.4,0.9,1.6,2,2.5c2.2,1.9,2.6,5.1,1,7.3
			c-1.5,2.1-15.7,2-17.2,0c-1.6-2.2-1.3-6.8,0.5-7.2c0.8-0.2,1.7-1.1,1.9-1.9C403.1,329.4,414.4,328.7,414.4,330.4"/>
		<path id="path1" class="st3" d="M292.8,44.5c-5.5,0.6-10.7,1.5-11.6,1.9c-0.9,0.4-4,1.1-7,1.5c-3,0.4-6.2,1.3-7.2,2
			c-1,0.7-2.8,1.3-4,1.3s-3.6,0.7-5.2,1.6c-1.6,0.9-3.9,1.6-5,1.6c-1.1,0-2.8,0.6-3.8,1.2c-1,0.7-3.2,1.7-5,2.4
			c-4.2,1.5-20,9.3-20.5,10.1c-0.2,0.4-0.9,0.7-1.5,0.7c-0.9,0-3.1,1.2-12,7c-0.9,0.6-2.7,1.8-4.2,2.7c-1.4,0.9-2.6,2-2.6,2.4
			s-0.9,0.9-2,1.2c-1.1,0.3-2,1-2,1.6c0,0.6-0.4,1.1-0.9,1.1s-2.1,1-3.6,2.2c-1.5,1.2-3.6,2.9-4.7,3.8c-3.1,2.4-14.8,14.2-14.8,14.9
			c0,0.4-0.5,0.7-1.2,0.7s-1.2,0.3-1.2,0.7s-1.8,2.9-4,5.7c-2.2,2.8-4,5.3-4,5.7s-0.5,0.7-1.2,0.7c-0.7,0-1.2,0.5-1.2,1.1
			c0,0.6-0.6,1.7-1.3,2.5c-1.8,1.8-5.8,7.8-5.9,8.7c0,0.4-0.7,1.5-1.5,2.4c-3,3.3-16.1,29.2-16.1,31.8c0,0.6-0.5,1.9-1.1,2.7
			s-1.4,2.8-1.7,4.4c-0.3,1.5-1.3,4.1-2.1,5.6c-0.8,1.5-1.5,3.7-1.5,4.8c0,1.1-0.7,3.4-1.6,5c-0.9,1.6-1.6,4.4-1.6,6.2
			c0,1.8-0.8,5.5-1.8,8.2c-2.5,7-2.8,67.3-0.4,73.3c0.8,1.9,1.7,5.9,1.9,8.8c0.3,2.9,1.1,6.5,2,8.1c0.8,1.5,1.5,3.7,1.5,4.8
			c0,1.1,0.7,3.5,1.6,5.2c0.8,1.8,1.6,3.9,1.6,4.7c0,0.8,0.7,3,1.6,4.8c0.9,1.8,2.7,6,4.1,9.3c1.4,3.3,3,6.5,3.6,7.2
			c0.6,0.7,1.3,2.3,1.6,3.6c0.3,1.3,1.2,3.3,2.1,4.3c0.8,1,1.5,2.4,1.5,3c0,0.6,0.3,1.1,0.7,1.1c0.4,0,1.2,1,1.8,2.2
			c1.6,3.1,7.6,12.3,9.1,14c0.7,0.8,1.2,1.7,1.2,2.1s0.8,1.6,1.8,2.8c3.4,4,5.4,6.8,5.4,7.7c0,0.5,0.5,0.9,1.2,0.9
			c0.6,0,1.6,0.8,2.1,1.7c1.3,2.5,11.4,12.7,12.5,12.7c0.5,0,1.2,0.7,1.4,1.5c0.3,0.8,1.2,1.7,2.1,1.9c0.9,0.2,1.6,1,1.6,1.7
			c0,0.7,0.5,1.3,1.2,1.3s1.6,0.7,2.2,1.6c0.5,0.9,1.3,1.6,1.7,1.6c0.7,0,4.2,2.6,7.3,5.4c3,2.7,11.5,8.2,12.7,8.2
			c0.6,0,1.6,0.5,2.1,1.2c0.5,0.7,3.7,2.7,7.1,4.5c3.4,1.8,6.3,3.6,6.5,3.9c0.2,0.3,1.5,0.8,2.8,1.1c1.3,0.3,2.9,1.1,3.6,1.6
			c0.7,0.6,2.8,1.5,4.8,2c2,0.5,4,1.2,4.4,1.6s2.2,1.1,4,1.6c1.8,0.6,4.5,1.7,6,2.5c1.5,0.8,4,1.5,5.5,1.5s3.3,0.5,4,1.2
			c0.7,0.6,3.4,1.4,6.1,1.7c2.6,0.3,5.1,1,5.6,1.5c0.4,0.5,3.7,1.2,7.3,1.5c8,0.6,13.9,2,14.4,3.5c0.5,1.3,45,1.6,45,0.3
			c0-1.4,5.3-3,12.1-3.6c3.7-0.3,7.5-1,8.4-1.6c0.9-0.6,4-1.3,6.9-1.6c3-0.3,5.5-1,5.7-1.6c0.2-0.6,2.1-1.2,4.3-1.5
			c2.1-0.3,4.6-1,5.5-1.6c0.9-0.6,2.9-1.3,4.5-1.6c1.6-0.3,4.6-1.4,6.6-2.5c2-1.1,4.6-2,5.6-2c1,0,2.1-0.5,2.3-1.1
			c0.2-0.6,1.5-1.4,2.8-1.7c1.3-0.3,2.8-1,3.3-1.6c0.5-0.6,1.9-1.3,3.2-1.6s2.7-1,3.3-1.7c0.5-0.7,2.3-1.8,3.9-2.6
			c6.6-3.3,10.3-5.7,15.3-9.8c2-1.7,4.1-3,4.7-3c0.6,0,2.6-1.6,4.6-3.6c2-2,3.9-3.6,4.3-3.6c1,0,19-18.4,22.8-23.3c1.8-2.3,4-5,5-6
			c1-1,2.2-2.7,2.8-3.8c2.5-4.5,4.9-7.8,5.5-7.8c0.4,0,0.7-0.5,0.7-1.1c0-1.1,2.6-5.8,8-14.9c1.7-2.9,3.1-5.8,3.1-6.6
			c0-0.8,0.5-1.6,1.2-1.9c0.6-0.2,1.4-1.6,1.7-3c0.3-1.4,1-3.3,1.5-4.1c0.5-0.9,1.5-3.4,2.1-5.6c0.6-2.2,1.5-4.7,2.1-5.6
			c0.6-0.9,1.2-3,1.6-4.8c0.3-1.8,1-3.9,1.6-4.8c0.6-0.9,1.3-3.6,1.6-6c0.3-2.4,1-4.9,1.6-5.6c0.6-0.7,1.2-4,1.5-7.4
			c0.5-6.4,2.2-11.8,3.7-11.8c1.4,0,1.2-50.9-0.2-51.4c-1.4-0.6-2.7-5.4-3.4-12.8c-0.3-3.5-1.2-7.5-2.1-9.2
			c-0.8-1.6-1.5-4.5-1.5-6.3c0-2.1-0.4-3.5-1.1-3.8c-0.6-0.2-1.3-2.3-1.6-4.7c-0.3-2.3-1-5-1.6-5.9c-0.6-0.9-1.5-3.3-2.1-5.4
			c-0.6-2.1-1.3-3.8-1.7-3.8s-0.8-1-1.1-2.1c-0.7-2.9-5.9-13.7-6.9-14.3c-0.4-0.3-0.8-1.1-0.8-1.8c0-1.3-5.4-10.4-8.7-14.7
			c-0.9-1.2-1.6-2.6-1.6-3.1c0-0.9-1.9-3.7-5.4-7.7c-1-1.2-1.8-2.4-1.8-2.8c0-1.5-19.5-21.6-27.9-28.7c-2.3-2-4.8-4.2-5.6-5
			c-0.7-0.8-1.7-1.4-2.2-1.4c-0.5,0-2.7-1.4-4.8-3c-4.5-3.5-11.7-8.2-12.7-8.2c-0.4,0-1.2-0.5-1.9-1.1c-1.8-1.6-23.4-12.5-24.9-12.5
			c-0.7,0-1.9-0.5-2.8-1.1c-0.9-0.6-3.3-1.5-5.5-2c-2.2-0.5-4.7-1.5-5.6-2.1c-0.9-0.6-2.7-1.2-4.1-1.2s-3.5-0.7-4.8-1.6
			c-1.5-1-3.8-1.6-6-1.6c-2,0-4.7-0.6-6-1.4C357.8,43.8,311.3,42.4,292.8,44.5 M393.2,95.5c0.6,0.8,2.4,1.6,4.1,1.9
			c1.7,0.3,3.9,1.2,5,2c1,0.8,2.3,1.5,2.9,1.5c0.5,0,1.7,0.8,2.6,1.8s3,3,4.5,4.5c1.6,1.5,2.9,3,2.9,3.4c0,0.4,0.5,0.7,1.1,0.7
			s1.4,0.7,1.6,1.5c0.3,0.8,1.2,2.1,2.1,2.9c0.9,0.8,1.6,2.2,1.6,3.1c0,0.9,0.7,2.4,1.6,3.4c1,1.1,1.8,3.4,2.1,6
			c0.3,2.4,1,4.8,1.6,5.4c1.4,1.4,1.4,14.2,0,17c-0.6,1.1-1.3,3.5-1.6,5.3c-0.6,3.5-4.3,11.4-5.4,11.4c-0.4,0-1.2,1.2-1.8,2.6
			c-1.2,2.8-9,11-10.6,11c-0.5,0-1.9,0.9-3.1,2c-1.2,1.1-2.5,2-3,2c-0.5,0-1.8,0.7-3,1.5c-1.2,0.8-3.6,1.7-5.3,1.9
			c-1.8,0.2-4.8,1-6.8,1.8c-4.4,1.7-13.2,1.3-16.1-0.7c-1.1-0.8-3.4-1.3-5.6-1.3c-2.6,0-4.1-0.4-5.1-1.5c-0.8-0.8-2.3-1.7-3.5-2
			c-1.2-0.2-3.8-1.9-5.8-3.7c-2-1.8-4-3.5-4.4-3.9c-5.2-4.7-11.6-13.4-11.6-15.9c0-1-0.6-2.4-1.4-3.1c-2.3-2.3-2.6-28.5-0.3-31.6
			c0.9-1.2,1.7-3.1,1.7-4.2c0-1.1,0.6-2.4,1.3-3c0.7-0.6,2-2.4,2.8-4.1c2-4,11.5-13.3,14.2-14c1.2-0.3,2.5-1.1,3.1-1.9
			c0.5-0.8,2.4-1.6,4.1-1.9c1.7-0.3,3.3-0.9,3.5-1.4C364.2,93.3,391.3,92.9,393.2,95.5 M292.3,104.7c1.6,2.1,2.9,4.3,2.9,4.7
			c0,0.4,0.7,1.6,1.5,2.7c0.8,1,1.8,2.8,2.1,3.8c0.3,1,1.3,2.6,2.1,3.4s1.5,2.3,1.5,3.3c0,1,0.7,2.2,1.5,2.8c0.8,0.5,1.8,2,2,3.3
			c0.3,1.3,1,2.6,1.6,2.8c0.6,0.2,1.3,1.5,1.6,2.8c0.3,1.3,1,2.8,1.7,3.4c0.6,0.5,1.1,1.4,1.1,1.9c0,0.5,0.9,2.2,2,3.7
			c1.1,1.5,2,3.2,2,3.8c0,0.6,0.7,1.8,1.6,2.6c0.9,0.9,1.6,2.5,1.6,3.6c0,1.1,0.7,2.3,1.5,2.8c0.8,0.4,1.8,1.8,2.1,3
			c0.3,1.2,0.9,2.4,1.3,2.7c0.8,0.5,6.3,10.4,8.4,15.3c0.7,1.6,1.6,3,2,3c0.4,0,1.1,1.4,1.6,3.2c0.5,1.8,1.3,3.2,1.7,3.2
			c0.4,0,1.3,1.4,2,3c0.7,1.7,1.5,3.2,1.9,3.4c0.3,0.2,1.2,1.7,1.9,3.2c0.7,1.5,1.6,3.4,2.1,4.2c0.4,0.8,1.2,2,1.6,2.8
			s1.5,2.8,2.4,4.6c0.9,1.8,2.1,3.9,2.8,4.8c0.7,0.9,1.2,2.1,1.2,2.8s0.7,1.9,1.6,2.6c2.3,1.9,2.3,9.1,0,12
			c-0.9,1.1-1.6,2.6-1.6,3.3s-0.7,1.9-1.5,2.7c-0.8,0.8-1.7,2.4-2,3.6c-0.3,1.2-1.2,2.6-2.1,3c-1,0.6-1.6,1.7-1.6,3.2
			c0,1.5-0.6,2.6-1.6,3.2c-0.9,0.5-1.6,1.7-1.6,2.8c0,1.1-0.7,2.6-1.5,3.4c-0.8,0.8-1.8,2.6-2.1,4.1c-0.3,1.5-1.1,2.8-1.6,3.1
			c-0.6,0.2-1.3,1.5-1.6,2.7c-0.3,1.3-0.8,2.5-1.2,2.7c-0.6,0.4-3.2,5.1-8.3,15.2c-0.9,1.8-2.3,3.7-3.1,4.2c-0.8,0.6-1.4,2-1.4,3.1
			c0,1.6-4.8,7.5-6.1,7.5c-0.5,0-5-7.3-5.5-8.9c-0.3-1-1.3-2.7-2.1-3.8c-0.8-1-1.5-2.3-1.5-2.7c0-0.4-0.7-1.7-1.6-2.8
			c-0.9-1.1-1.6-2.7-1.6-3.4s-0.9-2.3-2-3.5c-1.1-1.2-2-2.6-2-3.2c0-0.6-0.7-1.7-1.6-2.5c-0.9-0.8-1.6-2.1-1.6-2.8s-0.7-2-1.6-2.8
			c-0.9-0.8-1.6-2.1-1.6-2.9c0-0.8-0.7-2.1-1.6-2.9c-0.9-0.8-1.6-2.2-1.6-3.2s-0.7-2.4-1.5-3.2c-0.8-0.8-1.8-2.5-2.1-3.8
			c-0.3-1.3-1.1-2.8-1.7-3.2c-1.2-0.9-2.7-3.2-4.7-7.5c-0.7-1.5-1.8-3.2-2.4-3.9c-0.6-0.6-1.1-1.8-1.1-2.6c0-0.8-0.7-2.1-1.6-2.8
			c-0.9-0.8-1.8-2.4-2-3.6c-0.3-1.2-1.2-2.9-2-3.6s-1.6-1.8-1.6-2.4c0-0.5-0.7-1.8-1.6-2.8s-1.6-2.3-1.6-2.8c0-0.5-0.7-1.8-1.5-2.9
			c-0.8-1-1.8-2.8-2.1-3.8c-0.3-1-1.3-2.6-2.1-3.4c-0.8-0.8-1.5-2.2-1.5-3s-0.7-2.1-1.6-2.9c-0.9-0.8-1.6-2.3-1.6-3.3
			c0-1-0.3-2-0.8-2.3c-1.3-0.8-5.6-7.6-6.1-9.6c-0.3-1.1-1-2.1-1.5-2.3c-0.6-0.2-1.3-1.6-1.6-3.1c-0.3-1.5-1.3-3.1-2.1-3.7
			c-0.8-0.6-1.5-1.9-1.5-2.9c0-1-0.7-2.5-1.6-3.3c-0.9-0.8-1.8-2.2-2.1-3.1c-0.3-0.9-1.2-2.7-2-3.9c-0.8-1.2-2.2-3.3-3.1-4.6
			c-0.9-1.3-1.6-2.9-1.6-3.5c0-0.6-0.7-1.8-1.6-2.6s-1.6-2.2-1.6-3.2s-0.7-2.4-1.6-3.2c-0.9-0.8-1.8-2.6-2.1-4.1
			c-0.3-1.5-1-2.7-1.5-2.7c-0.6,0-1.4-1-2-2.2c-1.1-2.7-3.2-6.3-5-9c-0.8-1.1-1.4-2.6-1.4-3.3s-0.7-1.9-1.6-2.7
			c-0.9-0.8-1.8-2.4-2-3.6c-0.3-1.2-1.2-2.9-2-3.6c-1.7-1.6-2-3.7-0.7-6c0.8-1.5,2.1-1.5,40.7-1.5h39.9L292.3,104.7 M259.9,310.7
			c0.6,0.8,0.8,8.2,0.7,25.7l-0.2,24.6l-2.4,1.4c-3.4,2-6.3,1.8-9.1-0.5l-2.5-2.1V336c0-20.6,0.2-24,1.3-25.1
			C249.3,309.2,258.6,309.1,259.9,310.7 M277.4,310.6c1.4,1.4,1.4,49.4-0.1,51.4c-1.4,2-7.6,2.6-9.8,1c-1.7-1.2-2.6-48.1-1-51.9
			C267.3,309.3,275.9,309,277.4,310.6 M232.8,322.9c3.4,0.5,8,3.6,8,5.4c0,0.4,0.7,1.6,1.6,2.8c2.2,2.8,2.5,29.6,0.3,31.8
			c-1.6,1.6-7.4,1.6-9.7,0c-1.8-1.3-1.5-1.3-10.4,2c-2.2,0.8-3.1,0.7-6-0.6c-1.9-0.9-4.4-2-5.6-2.4c-1.4-0.6-2.3-1.7-2.7-3.1
			c-0.3-1.2-0.8-3.1-1.2-4.1c-0.9-2.3-1-4.6-0.1-6.4c0.4-0.8,1.2-2.5,1.8-3.8c0.7-1.4,2.5-3.1,4.3-4c2.9-1.5,3-1.6,1.2-1.8
			c-5.1-0.6-5.6-0.9-6.1-4.2c-0.6-3.7-1.9-3.5-1.9,0.3c0,1.5-0.7,3.5-1.5,4.6c-0.8,1-1.7,3.3-2,5c-0.3,1.7-1,3.7-1.6,4.4
			c-0.6,0.7-1.4,2.7-1.7,4.5c-0.3,1.7-1.3,4-2.1,5.1c-0.8,1.1-1.5,2.4-1.5,3c0,5.8-14.3,2.3-15.2-3.8c-0.3-1.6-1.1-3.7-1.8-4.8
			c-0.7-1.1-1.3-3.1-1.3-4.4c0-1.4-0.7-3.3-1.5-4.3c-0.8-1-1.8-3.5-2.1-5.7c-0.3-2.2-0.8-4-1.2-4c-1,0-2.4-4.6-2.4-7.7
			c0-3.1,1.7-4.3,5.7-4.3c6.3,0,8.9,2.8,9.9,10.2c0.3,2.3,1.2,5.6,2.1,7.2c0.8,1.6,1.5,3.5,1.5,4.2c0.1,2.1,1.4-1.7,1.5-4.4
			c0-1.3,0.8-3.5,1.7-4.8c0.9-1.3,1.6-3.7,1.6-5.2c0-3.8,1.8-6.1,5.1-6.7c3.6-0.7,9.4,0.3,9.8,1.6c0.2,0.6,0.5,1.6,0.7,2.2
			c0.3,0.9,1,0.6,2.8-1.1c2.9-2.7,13.6-5.4,15.6-3.9C228.9,322.1,230.9,322.6,232.8,322.9 M307.1,322.7c2.8,0.5,5.3,1.4,5.5,2
			c0.2,0.5,0.7,1,1.2,1c1.4,0,5.4,4.2,5.4,5.6c0,0.7,0.7,2.2,1.6,3.2c1.3,1.5,1.6,3,1.6,8.8c0,5.9-0.2,7.2-1.6,8.4
			c-0.9,0.8-1.6,2.2-1.6,3.2c0,2-6.2,7.6-8.5,7.6c-0.8,0-2.5,0.6-3.9,1.3c-6.3,3.4-21.8-2.6-23.3-9.1c-0.3-1.2-1.1-2.8-1.8-3.6
			c-1.9-2.2-1.8-14.1,0.1-16.3c0.8-0.9,1.4-1.9,1.4-2.4c0-1.3,4.2-5.8,5.3-5.8c0.5,0,1.3-0.6,1.8-1.4c0.4-0.8,2.6-1.8,5-2.3
			C300.9,321.5,301.1,321.5,307.1,322.7 M389.9,322.9c0.7,0.7,1.3,2.6,1.3,4.4v3.1l3.6-3.4c8.6-8.2,27.5-5.7,30.2,4
			c1.2,4.5,4.1,4.9,5.3,0.7c2.5-8.9,22.2-13.6,28.3-6.8c0.7,0.8,1.7,1.5,2.2,1.5c0.5,0,1.3,1,1.9,2.2c0.5,1.2,1.4,2.5,2,2.8
			c1.5,0.9,1.3,5.9-0.2,6.5c-3.7,1.4-11.5,0.5-12.8-1.5c-1.4-2.1-5.8-2.8-8.2-1.3c-2.2,1.4-1.5,14.3,0.9,16.6c2.5,2.5,4.7,2,6.9-1.7
			c2.6-4.3,13.8-4.8,14.4-0.6c0.5,3.7-6.8,12.9-10.3,12.9c-1.1,0-2.7,0.7-3.5,1.6c-0.9,0.9-2.5,1.6-3.9,1.6c-1.4,0-3.8-0.7-5.5-1.6
			s-3.7-1.6-4.6-1.6c-1.9,0-6.7-4.6-7.6-7.1c-0.4-1.1-1-1.6-1.8-1.3c-0.7,0.3-1.5,0.5-1.8,0.5c-0.4,0-0.9,0.9-1.1,2
			c-0.3,1.1-0.9,2-1.3,2c-0.4,0-1.6,0.9-2.5,2c-1.1,1.2-2.6,2-3.9,2c-1.2,0-2.6,0.5-3.2,1.2c-1.3,1.6-7.9,1.5-10,0
			c-0.9-0.6-2.6-1.2-3.8-1.2c-2.2,0-7.8-4.4-7.8-6.1c0-0.4-0.7-1.4-1.6-2.1c-1.4-1.2-1.6-2.4-1.6-10.2v-8.8h-4.3H381l-0.5,3.7
			c-0.3,2-0.5,7.7-0.5,12.6l0,8.9l-2.6,1.8c-3.1,2.1-4.8,2.2-8.5,0.4l-2.8-1.4l-0.2-18c-0.2-22.3-1.6-20.3,13.8-20.1
			c3.1,0,7.2-0.6,8.9-1.5C388.6,321.6,389.3,322.2,389.9,322.9 M336.5,324.1c0.9,0.7,1.1,3.5,1.1,12.1c0,15.2,3.3,20.9,8.6,15.3
			c2.1-2.2,2.1-2.6,2.6-15l0.4-12.8l3.2-0.7c9.2-1.9,10-0.4,10,19.8v17l-2.2,2.2c-1.7,1.7-2.7,2.1-4.6,1.7
			c-7.8-1.4-8.2-1.4-11.7,0.2c-3.7,1.7-7.2,1.6-8.8-0.3c-0.5-0.6-2-1.1-3.2-1.1c-1.6,0-2.7-0.6-3.7-2.2c-0.8-1.2-1.7-2.4-2.1-2.7
			c-2.1-1.5-3.1-30.3-1.1-32.9C326.7,322.4,334,322,336.5,324.1 M224,332.8c0,0.5-0.9,1.2-2,1.7c-2.8,1.3-1.7,2.3,2.4,2.3
			c4.2,0,5-1,2.8-3.2C225.5,331.9,224,331.5,224,332.8 M296.4,335.5c-2.2,1.6-2.3,13.1-0.1,14.4c0.8,0.5,2.2,1.5,3.1,2.3
			c2.3,1.9,3.9,1.7,6.1-0.6c3.8-4,3.7-15.6-0.2-16.7C302.3,334.1,298,334.4,296.4,335.5 M405.4,334.9c-1.1,1.1,0.5,1.9,3.9,1.9
			c3.5,0,4.7-1,2.3-1.9C409.9,334.2,406,334.3,405.4,334.9 M226,346.4c-0.3,0.4-1.8,1.3-3.3,2c-4.4,1.9-3.6,4.7,1.5,5
			c4.1,0.3,4.2,0.2,4.9-4.8C229.5,345.6,227.4,344.1,226,346.4 M404.5,348.5c-0.8,0.8-0.6,1.4,1.1,3.3c2,2.1,6.7,2.4,7.5,0.5
			c0.3-0.7,1.6-1.6,3-2.1c1.8-0.6,2.2-1,1.4-1.5C416.2,347.9,405.3,347.8,404.5,348.5"/>
		<path id="path2" class="st4" d="M298.1,41.1c-0.5,1.2-3,1.7-12.9,2.8c-3.5,0.4-7.8,1.3-9.5,2c-1.7,0.7-3.9,1.3-5,1.3
			c-1,0-3.8,0.7-6.1,1.5c-2.3,0.8-7.3,2.5-11,3.7c-3.7,1.2-7.9,2.9-9.3,3.7c-1.4,0.8-3.1,1.5-3.9,1.5c-0.8,0-2.3,0.7-3.4,1.6
			c-1.1,0.9-2.7,1.6-3.5,1.6c-0.8,0-1.7,0.3-1.9,0.8c-0.3,0.4-3.3,2.2-6.6,3.8c-9.7,4.8-14.6,7.8-20,12.2c-2.8,2.2-5.2,4-5.5,4
			c-3.2,0-37.9,34.8-37.9,38c0,0.3-1.4,2.3-3.2,4.3c-1.8,2.1-3.2,4.2-3.2,4.6c0,0.5-1.1,2.2-2.5,3.9c-1.4,1.7-3.4,4.9-4.5,7.1
			c-2.1,4.1-5.3,10.2-6.5,12.4c-0.4,0.7-1.5,3-2.5,5.2c-1,2.2-2.4,5.3-3.2,6.8c-0.8,1.5-1.6,4.1-1.9,5.6s-1.2,4.3-2.1,6
			c-0.9,1.7-1.6,4-1.6,5c0,1-0.7,3.3-1.6,5c-0.9,1.7-1.6,4.1-1.6,5.4c0,1.2-0.6,4-1.3,6.2s-1.6,6.9-1.9,10.4
			c-0.7,8.1-1.9,13.5-3.1,13.8c-1.3,0.4-1.2,39.1,0,39.5c1.4,0.5,3,6.9,3.1,11.8c0,2.4,0.6,6.4,1.3,8.8c0.7,2.4,1.6,6.3,1.9,8.7
			c0.4,2.4,1.2,4.9,1.8,5.6c0.6,0.7,1.4,2.9,1.7,4.9c0.6,3.9,2.9,10.7,5.4,15.4c0.8,1.6,1.5,3.5,1.5,4.2c0,1.3,3.5,8.1,5.1,10
			c0.6,0.7,1.3,2.2,1.6,3.3c1.1,4.7,16.1,27.9,22.4,34.6c1.7,1.8,4.5,5.2,6.4,7.6c1.8,2.4,4.9,5.5,6.8,7c2,1.5,6,5,8.9,7.8
			c4.8,4.6,7.7,7,17.5,14.3c1.6,1.2,4.4,2.9,6.1,3.8c1.8,0.9,4.8,2.6,6.8,3.9c2,1.3,4.5,2.8,5.6,3.2c1.1,0.5,2.5,1.3,3.2,1.9
			c0.7,0.6,2.1,1.3,3.2,1.6c1.1,0.3,2.5,1,3.2,1.5c1.5,1.1,9.1,4.2,12.4,4.9c1.3,0.3,2.9,1,3.6,1.5c1.2,1,4.7,2.1,16,5.2
			c3.3,0.9,7.3,2,8.8,2.5c1.5,0.5,5.3,1.1,8.4,1.5c6,0.7,8.4,1.4,8.4,2.5c0,0.4,1.6,0.7,3.7,0.7c9.2,0,0.4-3.7-10.9-4.5
			c-3.8-0.3-7.2-1-7.6-1.5c-0.4-0.5-2.9-1.2-5.6-1.5c-2.6-0.3-5.4-1-6.1-1.7c-0.7-0.6-2.5-1.2-4-1.2s-4-0.7-5.5-1.5
			c-1.5-0.8-4.2-1.9-6-2.5c-1.8-0.6-3.6-1.3-4-1.6s-2.4-1-4.4-1.6c-2-0.5-4.1-1.4-4.8-2c-0.7-0.6-2.3-1.3-3.6-1.6
			c-1.3-0.3-2.6-0.8-2.8-1.1c-0.2-0.3-3.1-2-6.5-3.9c-3.4-1.8-6.6-3.9-7.1-4.5c-0.5-0.7-1.5-1.2-2.1-1.2c-1.1,0-9.6-5.5-12.7-8.2
			c-3.1-2.8-6.6-5.4-7.3-5.4c-0.4,0-1.1-0.7-1.7-1.6c-0.5-0.9-1.5-1.6-2.2-1.6s-1.2-0.6-1.2-1.3c0-0.7-0.7-1.5-1.6-1.7
			c-0.9-0.2-1.8-1.1-2.1-1.9c-0.3-0.8-0.9-1.5-1.4-1.5c-1.1,0-11.1-10.2-12.5-12.7c-0.5-0.9-1.4-1.7-2.1-1.7c-0.6,0-1.2-0.4-1.2-0.9
			c0-0.9-2-3.7-5.4-7.7c-1-1.2-1.8-2.4-1.8-2.8s-0.6-1.3-1.2-2.1c-1.5-1.7-7.5-10.9-9.1-14c-0.6-1.2-1.4-2.2-1.8-2.2
			c-0.4,0-0.7-0.5-0.7-1.1c0-0.6-0.7-2-1.5-3c-0.8-1-1.7-3-2.1-4.3c-0.3-1.3-1.1-2.9-1.6-3.6c-0.6-0.7-2.2-3.9-3.6-7.2
			c-1.4-3.3-3.2-7.5-4.1-9.3c-0.9-1.8-1.6-4-1.6-4.8c0-0.8-0.7-3-1.6-4.7c-0.9-1.8-1.6-4.1-1.6-5.2c0-1.1-0.7-3.3-1.5-4.8
			c-0.8-1.5-1.7-5.2-2-8.1c-0.3-2.9-1.1-6.9-1.9-8.8c-2.4-6-2.1-66.3,0.4-73.3c1-2.7,1.8-6.4,1.8-8.2c0-1.8,0.7-4.6,1.6-6.2
			c0.9-1.6,1.6-3.9,1.6-5c0-1.1,0.7-3.3,1.5-4.8c0.8-1.5,1.8-4,2.1-5.6c0.3-1.5,1.1-3.5,1.7-4.4s1.1-2.1,1.1-2.7
			c0-2.6,13.1-28.4,16.1-31.8c0.8-0.9,1.5-2,1.5-2.4c0-0.9,4-6.9,5.9-8.7c0.7-0.7,1.3-1.8,1.3-2.5c0-0.6,0.5-1.1,1.2-1.1
			c0.7,0,1.2-0.3,1.2-0.7s1.8-2.9,4-5.7c2.2-2.8,4-5.3,4-5.7s0.5-0.7,1.2-0.7s1.2-0.3,1.2-0.7c0-0.8,11.7-12.5,14.8-14.9
			c1.1-0.9,3.3-2.6,4.7-3.8c1.5-1.2,3.1-2.2,3.6-2.2s0.9-0.5,0.9-1.1c0-0.6,0.9-1.3,2-1.6c1.1-0.3,2-0.8,2-1.2s1.2-1.5,2.6-2.4
			c1.4-0.9,3.3-2.1,4.2-2.7c9-5.8,11.1-7,12-7c0.6,0,1.3-0.3,1.5-0.7c0.5-0.9,16.3-8.6,20.5-10.1c1.8-0.6,4-1.7,5-2.4
			c1-0.7,2.7-1.2,3.8-1.2c1.1,0,3.4-0.7,5-1.6c1.6-0.9,4-1.6,5.2-1.6s3-0.6,4-1.3c1-0.7,4.4-1.6,7.6-2.1c3.2-0.4,6.1-1.1,6.6-1.4
			c4.9-4,74.4-3.8,81.6,0.2c1.3,0.7,4,1.4,6,1.4c2.2,0,4.5,0.6,6,1.6c1.3,0.9,3.5,1.6,4.8,1.6s3.2,0.5,4.1,1.2
			c0.9,0.6,3.4,1.6,5.6,2.1c2.2,0.5,4.6,1.5,5.5,2c0.9,0.6,2.1,1.1,2.8,1.1c1.5,0,23.1,10.8,24.9,12.5c0.7,0.6,1.6,1.1,1.9,1.1
			c1,0,8.2,4.6,12.7,8.2c2.1,1.7,4.3,3,4.8,3c0.5,0,1.5,0.6,2.2,1.4c0.7,0.8,3.2,3,5.6,5c8.4,7.1,27.9,27.2,27.9,28.7
			c0,0.4,0.8,1.6,1.8,2.8c3.5,4.1,5.4,6.8,5.4,7.7c0,0.5,0.7,1.9,1.6,3.1c3.3,4.3,8.7,13.4,8.7,14.7c0,0.7,0.4,1.6,0.8,1.8
			c1,0.6,6.1,11.4,6.9,14.3c0.3,1.2,0.8,2.1,1.1,2.1s1.1,1.7,1.7,3.8c0.6,2.1,1.5,4.5,2.1,5.4c0.6,0.9,1.3,3.5,1.6,5.9
			c0.3,2.4,1,4.4,1.6,4.7c0.7,0.3,1.1,1.7,1.1,3.8c0,1.8,0.7,4.7,1.5,6.3c0.9,1.7,1.8,5.7,2.1,9.5c0.9,10.4,4.4,17.6,4.4,9.1
			c0-2-0.3-3.7-0.7-3.7c-1,0-2.2-4.3-2.8-9.9c-0.3-2.6-1.2-6.1-2.1-7.8c-0.9-1.7-1.6-3.9-1.6-4.8c0-2.3-3.7-14.6-5.7-19
			c-0.9-1.9-1.5-3.9-1.5-4.5c0-0.6-0.5-1.5-1.1-2c-0.6-0.5-1.4-2.1-1.7-3.5c-0.3-1.4-1.2-3.4-2.1-4.5c-0.8-1-1.5-2.4-1.5-3.1
			c0-0.6-0.7-2.1-1.6-3.2c-0.9-1.1-1.6-2.7-1.6-3.4s-0.6-1.9-1.3-2.5s-1.8-2.3-2.5-3.8c-0.6-1.5-2.2-4.2-3.5-6
			c-2.7-3.8-6.7-9.5-10.6-15.3c-4.4-6.5-26-28-33.3-33.1c-23.7-16.7-41.1-25.6-61.6-31.7c-2-0.6-4.9-1.6-6.6-2.3
			c-1.6-0.7-4.2-1.3-5.8-1.3s-4.2-0.7-5.8-1.6c-2.1-1.1-4.5-1.6-8.1-1.6c-5.7,0-11.3-1.4-11.9-3C344.4,39.5,298.8,39.5,298.1,41.1
			 M366.8,94.3c-1.7,0.4-3.3,1.1-3.5,1.6c-0.2,0.5-1.7,1.1-3.5,1.4c-1.7,0.3-3.6,1.1-4.1,1.9c-0.5,0.8-1.9,1.6-3.1,1.9
			c-2.7,0.7-12.2,10-14.2,14c-0.9,1.7-2.1,3.5-2.8,4.1c-0.7,0.6-1.3,1.9-1.3,3c0,1.1-0.7,2.9-1.7,4.2c-2.3,3.1-2.1,29.3,0.3,31.6
			c0.8,0.8,1.4,2.2,1.4,3.1c0,2.5,6.4,11.2,11.6,15.9c0.4,0.4,2.4,2.2,4.4,3.9c2,1.8,4.6,3.4,5.8,3.7c1.2,0.2,2.8,1.1,3.5,2
			c1,1.1,2.5,1.5,5.1,1.5c2.1,0,4.5,0.6,5.6,1.3c2.8,2,11.7,2.4,16.1,0.7c2-0.8,5-1.6,6.8-1.8c1.8-0.2,4.2-1.1,5.3-1.9
			c1.2-0.8,2.5-1.5,3-1.5c0.5,0,1.8-0.9,3-2c1.2-1.1,2.6-2,3.1-2c1.5,0,9.4-8.2,10.6-11c0.6-1.4,1.4-2.6,1.8-2.6
			c1.1,0,4.9-7.9,5.4-11.4c0.3-1.8,1-4.2,1.6-5.3c1.5-2.8,1.5-15.5,0-17c-0.6-0.6-1.3-3-1.6-5.4c-0.3-2.7-1.1-5-2.1-6
			c-0.9-1-1.6-2.5-1.6-3.4c0-0.9-0.7-2.3-1.6-3.1c-0.9-0.8-1.8-2.1-2.1-2.9c-0.3-0.8-1-1.5-1.6-1.5s-1.1-0.3-1.1-0.7
			c0-0.4-1.3-1.9-2.9-3.4c-1.6-1.5-3.6-3.5-4.5-4.5s-2.1-1.8-2.6-1.8c-0.5,0-1.8-0.7-2.9-1.5c-1-0.8-3.3-1.7-5-2
			c-1.7-0.3-3.6-1.1-4.1-1.9C392,93.9,373.1,93.1,366.8,94.3 M392.2,96.9c1.6,0.8,3.7,1.5,4.6,1.5c1.5,0,3.9,1.3,10.7,6.1
			c19.8,13.7,24.1,45.3,8.9,65.2c-13.9,18.2-39.1,24.3-58,14.1c-2.4-1.3-5.2-2.8-6.2-3.3c-2.4-1.3-13-12.4-13-13.6
			c0-0.5-0.7-1.9-1.6-3c-4.9-6.2-7.4-25.7-4.3-33.8c0.7-1.8,1.6-4.5,2-6s1.3-3.3,1.9-4c0.6-0.7,1.6-2.3,2.3-3.6
			c2.2-4.2,13.2-14.8,15.4-14.8c0.3,0,1.2-0.5,1.9-1.1C362.5,95.3,384.6,93.1,392.2,96.9 M208.8,102.3c-1.3,2.3-1,4.4,0.7,6
			c0.9,0.8,1.8,2.4,2,3.6c0.3,1.2,1.2,2.9,2,3.6c0.9,0.8,1.6,2,1.6,2.7s0.6,2.2,1.4,3.3c1.9,2.7,3.9,6.3,5,9c0.5,1.2,1.4,2.2,2,2.2
			c0.6,0,1.3,1.2,1.5,2.7c0.3,1.5,1.2,3.3,2.1,4.1c0.9,0.8,1.6,2.2,1.6,3.2s0.7,2.4,1.6,3.2s1.6,1.9,1.6,2.6c0,0.6,0.7,2.2,1.6,3.5
			c0.9,1.3,2.3,3.4,3.1,4.6c0.8,1.2,1.7,3,2,3.9c0.3,0.9,1.2,2.3,2.1,3.1c0.9,0.8,1.6,2.3,1.6,3.3c0,1,0.7,2.3,1.5,2.9
			c0.8,0.6,1.8,2.2,2.1,3.7c0.3,1.5,1.1,2.8,1.6,3.1c0.6,0.2,1.3,1.3,1.5,2.3c0.5,2,4.8,8.8,6.1,9.6c0.4,0.3,0.8,1.3,0.8,2.3
			c0,1,0.7,2.5,1.6,3.3c0.9,0.8,1.6,2.1,1.6,2.9s0.7,2.2,1.5,3c0.8,0.8,1.8,2.4,2.1,3.4c0.3,1,1.3,2.7,2.1,3.8
			c0.8,1,1.5,2.3,1.5,2.9c0,0.5,0.7,1.8,1.6,2.8s1.6,2.3,1.6,2.8c0,0.5,0.7,1.6,1.6,2.4s1.8,2.4,2,3.6c0.3,1.2,1.2,2.9,2,3.6
			c0.9,0.8,1.6,2,1.6,2.8c0,0.8,0.5,1.9,1.1,2.6c0.6,0.6,1.7,2.4,2.4,3.9c2,4.3,3.5,6.6,4.7,7.5c0.6,0.4,1.4,1.9,1.7,3.2
			c0.3,1.3,1.3,3,2.1,3.8c0.8,0.8,1.5,2.2,1.5,3.2s0.7,2.4,1.6,3.2c0.9,0.8,1.6,2,1.6,2.9c0,0.8,0.7,2.1,1.6,2.9
			c0.9,0.8,1.6,2.1,1.6,2.8s0.7,2,1.6,2.8c0.9,0.8,1.6,1.9,1.6,2.5c0,0.6,0.9,2,2,3.2c1.1,1.2,2,2.8,2,3.5s0.7,2.3,1.6,3.4
			c0.9,1.1,1.6,2.4,1.6,2.8c0,0.4,0.7,1.6,1.5,2.7c0.8,1,1.8,2.8,2.1,3.8c0.5,1.6,5,8.9,5.5,8.9c1.3,0,6.1-5.8,6.1-7.5
			c0-1.1,0.6-2.5,1.4-3.1c0.8-0.6,2.2-2.5,3.1-4.2c5.1-10.1,7.7-14.8,8.3-15.2c0.4-0.2,0.9-1.5,1.2-2.7c0.3-1.3,1-2.5,1.6-2.7
			c0.6-0.2,1.3-1.6,1.6-3.1c0.3-1.5,1.2-3.3,2.1-4.1c0.8-0.8,1.5-2.3,1.5-3.4c0-1.1,0.7-2.3,1.6-2.8c1-0.6,1.6-1.7,1.6-3.2
			c0-1.5,0.6-2.6,1.6-3.2c0.9-0.5,1.8-1.8,2.1-3c0.3-1.2,1.2-2.8,2-3.6c0.8-0.8,1.5-2,1.5-2.7s0.7-2.2,1.6-3.3
			c2.3-2.9,2.3-10.1,0-12c-0.9-0.8-1.6-1.9-1.6-2.6s-0.5-2-1.2-2.8c-0.7-0.9-1.9-3-2.8-4.8c-0.9-1.8-1.9-3.8-2.4-4.6s-1.2-2-1.6-2.8
			c-0.4-0.8-1.4-2.7-2.1-4.2c-0.7-1.5-1.6-3-1.9-3.2c-0.3-0.2-1.2-1.8-1.9-3.4c-0.7-1.6-1.6-3-2-3c-0.4,0-1.1-1.4-1.7-3.2
			c-0.5-1.8-1.3-3.2-1.6-3.2c-0.4,0-1.2-1.4-2-3c-2.2-4.9-7.6-14.8-8.4-15.3c-0.4-0.3-1-1.5-1.3-2.7c-0.3-1.2-1.2-2.6-2.1-3
			c-0.9-0.5-1.5-1.7-1.5-2.8c0-1.1-0.7-2.7-1.6-3.6c-0.9-0.9-1.6-2.1-1.6-2.6c0-0.6-0.9-2.3-2-3.8c-1.1-1.5-2-3.1-2-3.7
			c0-0.5-0.5-1.4-1.1-1.9c-0.6-0.5-1.4-2-1.7-3.4c-0.3-1.3-1-2.6-1.6-2.8c-0.6-0.2-1.3-1.5-1.6-2.8c-0.3-1.3-1.2-2.8-2-3.3
			c-0.8-0.5-1.5-1.8-1.5-2.8c0-1-0.7-2.5-1.5-3.3s-1.8-2.4-2.1-3.4c-0.3-1-1.3-2.7-2.1-3.8c-0.8-1-1.5-2.3-1.5-2.7
			c0-0.4-1.3-2.5-2.9-4.7l-2.9-3.9h-39.9C210.9,100.8,209.6,100.8,208.8,102.3 M289.9,104c1.1,1.1,3.4,5,7.7,13
			c3.1,5.8,5,9,6.9,12.2c1.9,3.1,3.6,6.3,6.9,12.8c0.9,1.8,1.9,3.4,2.1,3.6c0.3,0.2,1.8,2.8,3.3,5.8c1.5,3,3.8,7.1,5,9.2
			c1.2,2.1,2.7,4.9,3.4,6.2c0.7,1.3,2.2,4.2,3.5,6.4c1.2,2.2,3.5,6.2,5,8.9c6.2,11.2,12.8,23.1,13.5,24.3c0.4,0.7,1.3,2.3,2,3.6
			c0.7,1.3,2.5,4.7,4.1,7.6c2.7,4.9,3.3,9.7,1.3,10.6c-0.3,0.1-2,3-3.7,6.3c-1.7,3.3-3.6,6.6-4.2,7.3c-0.6,0.7-1.1,1.8-1.1,2.5
			s-0.6,2.1-1.4,3.1c-0.8,1-2.6,4.2-4.1,7.1c-1.4,2.9-3.6,7-4.8,9.2c-1.2,2.2-3.4,6.3-4.9,9.2c-1.5,2.9-3.1,5.7-3.7,6.4
			c-0.5,0.7-1.2,2.1-1.6,3.2c-0.3,1.1-1.3,2.6-2.1,3.4c-0.8,0.8-1.5,2.1-1.5,2.9c0,1.4-4,6.5-5.1,6.5c-0.3,0-1.1-1.2-1.7-2.6
			c-0.7-1.4-2.1-4-3.2-5.8c-1.1-1.8-3.2-5.7-4.7-8.7c-1.5-3-3.3-6.1-3.9-6.8c-0.6-0.7-1.7-2.4-2.4-3.7c-2.7-5.1-3.9-7.3-6.1-11.2
			c-1.2-2.2-3.6-6.6-5.2-9.8c-1.6-3.2-3.3-5.8-3.7-5.8c-0.4,0-0.8-0.4-0.8-0.9c0-0.5-1.3-3.2-3-6.1c-1.6-2.9-4.4-7.9-6.2-11.1
			c-3.9-7.1-15.3-27.5-16.4-29.2c-0.4-0.7-1.3-2.3-2-3.7c-0.6-1.4-2.1-3.8-3.1-5.4c-1.1-1.6-2.7-4.4-3.7-6.3c-1-1.9-2.6-4.8-3.7-6.6
			c-1.1-1.8-2.5-4.6-3.2-6.2c-0.7-1.6-1.6-3-1.9-3c-0.3,0-1.2-1.3-1.9-3c-0.7-1.6-1.6-3.5-2.1-4.2c-2.5-3.9-12-21.5-12-22.3
			c0-0.5-0.4-0.9-0.8-0.9c-0.5,0-1.5-1.5-2.4-3.4c-2.2-4.8-7.4-14-8.6-15.1c-0.5-0.5-1-1.6-1-2.4s-0.7-2.2-1.6-3.1
			c-2-2-1.4-4.5,1.1-5C218,101.9,288.8,102.9,289.9,104 M517.1,270c-0.6,1.5-1.4,5.6-1.7,9c-0.3,3.4-1,6.7-1.5,7.4
			c-0.6,0.7-1.3,3.2-1.6,5.6c-0.3,2.4-1,5.1-1.6,6c-0.6,0.9-1.3,3.1-1.6,4.8c-0.3,1.8-1,3.9-1.6,4.8c-0.5,0.9-1.5,3.4-2.1,5.6
			c-0.6,2.2-1.5,4.7-2.1,5.6c-0.5,0.9-1.2,2.7-1.5,4.1c-0.3,1.4-1,2.7-1.7,3c-0.6,0.2-1.2,1.1-1.2,1.9c0,0.8-1.4,3.8-3.1,6.6
			c-5.5,9.1-8,13.9-8,14.9c0,0.6-0.3,1.1-0.7,1.1c-0.7,0-3,3.3-5.5,7.8c-0.6,1-1.8,2.7-2.8,3.8c-1,1-3.2,3.7-5,6
			c-3.8,4.8-21.8,23.3-22.8,23.3c-0.4,0-2.3,1.6-4.3,3.6c-2,2-4.1,3.6-4.6,3.6c-0.6,0-2.7,1.4-4.7,3c-5,4.1-8.7,6.5-15.3,9.8
			c-1.6,0.8-3.3,2-3.9,2.6c-0.5,0.7-2,1.4-3.3,1.7s-2.7,1-3.2,1.6c-0.5,0.6-2,1.3-3.3,1.6c-1.3,0.3-2.6,1-2.8,1.7
			c-0.2,0.6-1.3,1.1-2.3,1.1c-1,0-3.5,0.9-5.6,2c-2,1.1-5,2.2-6.6,2.5c-1.6,0.3-3.6,1-4.5,1.6c-0.9,0.6-3.3,1.3-5.5,1.6
			c-2.1,0.3-4.1,1-4.3,1.5c-0.2,0.6-2.6,1.2-5.7,1.6c-2.9,0.3-6,1-6.9,1.6c-0.9,0.6-4.7,1.3-8.4,1.6c-6.8,0.6-12.1,2.1-12.1,3.6
			c0,1.3,5.4,0.9,5.9-0.3c0.3-0.7,2.3-1.3,5.9-1.7c5.4-0.5,22.6-4.8,28.7-7.1c1.8-0.7,4.1-1.2,5.3-1.3c1.2,0,2.5-0.5,3-1.2
			c0.5-0.6,2.1-1.3,3.6-1.6c1.5-0.3,3.1-1,3.6-1.6c0.5-0.6,2-1.4,3.4-1.7c3.1-0.7,16.2-7.2,17.4-8.7c0.5-0.6,2-1.4,3.2-1.7
			c1.2-0.3,2.9-1.2,3.7-2.1c0.8-0.9,1.9-1.6,2.5-1.6c0.6,0,2.9-1.5,5.3-3.4c2.3-1.9,5.1-3.8,6.2-4.3c2.8-1.3,19.8-16.5,25.4-22.8
			c9.5-10.5,14.4-16.4,15.4-18.3c0.6-1.1,2.1-3.4,3.4-5.2c4.1-5.7,6.2-9.2,6.2-10.4c0-0.6,0.9-2.1,1.9-3.4
			c3-3.6,11.3-20.5,12.2-24.9c0.3-1.4,1-3,1.6-3.5c0.6-0.5,1.1-1.6,1.1-2.4c0-0.8,0.7-3.1,1.6-5.1c0.9-2,1.9-5.5,2.4-7.9
			c0.4-2.3,1.4-5.9,2.1-7.9c0.7-2,1.6-6.3,2-9.5c0.4-4,1-6.3,1.9-6.9c1.4-1,1.8-6,0.5-6C518.7,267.2,517.8,268.5,517.1,270
			 M247.7,310.9c-1.1,1.1-1.3,4.5-1.3,25.1v23.9l2.5,2.1c2.8,2.4,5.7,2.6,9.1,0.5l2.4-1.4l0.2-24.6c0.1-17.5-0.1-25-0.7-25.7
			C258.6,309.1,249.3,309.2,247.7,310.9 M266.6,311c-1.6,3.8-0.6,50.7,1,51.9c2.1,1.6,8.3,1,9.8-1c1.5-2,1.5-49.9,0.1-51.4
			C275.9,309,267.3,309.3,266.6,311 M258.5,312.1c0.4,0.6,0.7,11.6,0.7,24.5l0,23.4l-2.9,1.4c-2.6,1.2-3.1,1.2-5,0.2l-2.1-1.2v-24.2
			c0-20.6,0.2-24.3,1.2-25C252,310.1,257.6,310.8,258.5,312.1 M274.8,311.2l2.1,0.8l-0.2,24.6l-0.2,24.6l-3.4,0.7
			c-6,1.3-5.8,1.9-5.8-25.4C267.2,308.7,267.3,308.4,274.8,311.2 M225.6,321.4c-7.1,1-10.5,2.1-12.8,4.2c-1.9,1.8-2.6,2-2.8,1.1
			c-0.2-0.6-0.5-1.6-0.7-2.2c-0.4-1.4-6.1-2.3-9.8-1.6c-3.3,0.6-5.1,2.9-5.1,6.7c0,1.6-0.7,3.9-1.6,5.2c-0.9,1.3-1.6,3.5-1.7,4.8
			c-0.1,2.6-1.4,6.5-1.5,4.4c0-0.7-0.7-2.5-1.5-4.2c-0.8-1.6-1.7-4.8-2.1-7.2c-1-7.5-3.6-10.2-9.9-10.2c-4.1,0-5.7,1.2-5.7,4.3
			c0,3.1,1.5,7.7,2.4,7.7c0.4,0,0.9,1.8,1.2,4c0.3,2.2,1.2,4.8,2.1,5.7c0.8,1,1.5,2.9,1.5,4.3c0,1.4,0.6,3.4,1.3,4.4
			c0.7,1.1,1.6,3.2,1.8,4.8c1,6.1,15.2,9.6,15.2,3.8c0-0.6,0.7-1.9,1.5-3c0.8-1.1,1.8-3.4,2.1-5.1c0.3-1.7,1.1-3.7,1.7-4.5
			c0.6-0.7,1.4-2.7,1.6-4.4c0.3-1.7,1.2-4,2-5c0.8-1,1.5-3.1,1.5-4.6c0-3.8,1.3-4.1,1.9-0.3c0.5,3.3,1,3.6,6.1,4.2
			c1.8,0.2,1.8,0.4-1.2,1.8c-1.8,0.9-3.7,2.6-4.3,4c-0.6,1.3-1.4,3-1.8,3.8c-0.9,1.8-0.8,4.1,0.1,6.4c0.4,1,1,2.8,1.2,4.1
			c0.3,1.4,1.3,2.5,2.7,3.1c1.2,0.5,3.7,1.6,5.6,2.4c2.9,1.3,3.8,1.4,6,0.6c8.9-3.3,8.6-3.3,10.4-2c2.3,1.6,8.1,1.6,9.7,0
			c2.1-2.1,1.8-29-0.3-31.8c-0.9-1.1-1.6-2.4-1.6-2.8c0-1.7-4.6-4.9-8-5.4c-2-0.3-3.9-0.8-4.4-1.1
			C228,321.4,226.7,321.2,225.6,321.4 M295.3,322.7c-2.5,0.5-4.6,1.5-5,2.3c-0.4,0.8-1.2,1.4-1.8,1.4c-1.1,0-5.3,4.6-5.3,5.8
			c0,0.5-0.6,1.6-1.4,2.4c-1.9,2.1-2,14.1-0.1,16.3c0.7,0.8,1.5,2.5,1.8,3.6c1.5,6.5,17,12.5,23.3,9.1c1.3-0.7,3.1-1.3,3.9-1.3
			c2.3,0,8.5-5.5,8.5-7.6c0-1,0.7-2.4,1.6-3.2c1.4-1.2,1.6-2.5,1.6-8.4c0-5.8-0.3-7.3-1.6-8.8c-0.9-1-1.6-2.4-1.6-3.2
			c0-1.5-4-5.6-5.4-5.6c-0.5,0-1-0.4-1.2-1C311.9,322.5,301.7,321.4,295.3,322.7 M386,322.5c-1.3,0.4-4.2,0.7-6.4,0.7
			c-15.4-0.2-14-2.2-13.8,20.1l0.2,18l2.8,1.4c3.8,1.8,5.4,1.8,8.5-0.4l2.6-1.8l0-8.9c0-4.9,0.2-10.6,0.5-12.6l0.5-3.7h4.3h4.3v8.8
			c0,7.8,0.2,9,1.6,10.2c0.9,0.8,1.6,1.7,1.6,2.1c0,1.7,5.6,6.1,7.8,6.1c1.3,0,3,0.5,3.8,1.2c2.1,1.6,8.7,1.6,10,0
			c0.5-0.7,2-1.2,3.2-1.2c1.3,0,2.8-0.8,3.9-2c1-1.1,2.1-2,2.5-2c0.4,0,1-0.9,1.3-2c0.3-1.1,0.8-2,1.1-2c0.4,0,1.2-0.2,1.8-0.5
			c0.8-0.3,1.4,0.2,1.8,1.3c0.8,2.6,5.7,7.1,7.6,7.1c0.9,0,3,0.7,4.6,1.6s4.1,1.6,5.5,1.6c1.5,0,3.1-0.7,3.9-1.6
			c0.8-0.9,2.4-1.6,3.5-1.6c3.5,0,10.9-9.2,10.3-12.9c-0.6-4.2-11.8-3.7-14.4,0.6c-2.2,3.7-4.3,4.2-6.9,1.7
			c-2.4-2.4-3.1-15.3-0.9-16.6c2.4-1.5,6.8-0.8,8.2,1.3c1.3,2,9.1,2.9,12.8,1.5c1.5-0.6,1.7-5.5,0.2-6.5c-0.6-0.4-1.5-1.6-2-2.8
			c-0.5-1.2-1.4-2.2-1.9-2.2c-0.5,0-1.5-0.7-2.2-1.5c-6.1-6.8-25.8-2.1-28.3,6.8c-1.2,4.2-4,3.8-5.3-0.7c-2.7-9.8-21.6-12.3-30.2-4
			l-3.6,3.4v-3.1c0-2.4-1.7-6-2.7-5.6C388.5,321.7,387.3,322.1,386,322.5 M328,322.9c-3.6,0.7-4,2.1-4,15c0,12,0.7,18.6,2.1,19.5
			c0.4,0.3,1.3,1.5,2.1,2.7c1,1.6,2.1,2.2,3.7,2.2c1.3,0,2.7,0.5,3.2,1.1c1.6,1.9,5.1,2,8.8,0.3c3.5-1.6,3.9-1.6,11.7-0.2
			c1.9,0.4,2.9,0,4.6-1.7l2.2-2.2v-17c0-20.2-0.8-21.7-10-19.8l-3.2,0.7l-0.4,12.8c-0.4,12.5-0.5,12.8-2.6,15
			c-5.3,5.7-8.6-0.1-8.6-15.3C337.6,322.9,336.4,321.3,328,322.9 M236.5,325.8c4.1,2.8,5.1,6.5,5.2,19.5c0,6.1,0.3,11.9,0.7,12.8
			c1.5,3.9-5.6,6.1-9.1,2.9l-1.8-1.7l-3.5,1.6c-8.6,3.9-18.6,0.6-19.2-6.4c-0.8-9.9,5.9-16,17.4-16c2.9,0,5.1-2.3,4.1-4.2
			c-2.1-4.1-6.6-4.1-10.5-0.1c-5.2,5.4-12.2,2.1-8.5-4C215.3,323.2,229.2,320.8,236.5,325.8 M307.1,324.1c17.4,4,18.4,32.7,1.2,37.5
			c-11.6,3.2-21.6-1.4-25.1-11.7C277.9,333.8,290.5,320.2,307.1,324.1 M389.9,328.6c0.6,4.7,0.7,4.6-5.3,5.4c-5.7,0.8-7,3.7-7,16.1
			c0,12.1-1.7,14.4-8,11.1l-2.4-1.2v-17.2c0-16.1,0.1-17.2,1.5-18c2.8-1.5,7-1,8.4,0.9c1.2,1.7,1.3,1.7,2.7,0.4c1.6-1.4,8.2-3,9-2.2
			C389.2,324.2,389.6,326.3,389.9,328.6 M418,325.6c3.7,2.3,5.5,4.5,6.9,8.7c1.8,5.2,4.5,5.3,6,0.2c4.2-14.1,26.4-15.4,31.8-1.9
			c2.3,5.7-5.3,7.5-10.1,2.3c-8.7-9.3-18.1,7.1-10,17.5c2.2,2.8,7.1,2.8,8.9,0.1c2.4-3.6,3.8-4.5,7.2-4.5c5.1,0,5.6,0.6,3.9,4.8
			c-5.4,13.9-27.3,13-32.2-1.3c-2.2-6.4-3.1-7.7-4.6-7c-0.7,0.4-6.3,0.8-12.5,1.1c-10.3,0.4-11.2,0.5-11.7,2.1
			c-1.8,4.8,9.5,9.3,13,5.2c1.7-1.9,7.5-3,9.1-1.7c4.5,3.8-4.9,11.2-14.1,11.2c-6.6,0-15.9-3.9-15.9-6.5c0-0.4-0.8-2.4-1.7-4.5
			C384.2,334.4,402.7,316.1,418,325.6 M182.5,327.2c0.7,1.5,1.6,4.4,1.9,6.4c0.7,4.2,4.4,13.7,5.5,13.9c0.7,0.1,3.3-7.4,5.7-16.7
			c1.5-5.6,2.7-6.8,7.1-6.8c5,0,5.8,0.8,4.2,4.2c-0.7,1.5-1.3,3.4-1.3,4.1c0,0.7-0.7,2.8-1.5,4.7c-0.8,1.9-2.3,5.5-3.2,8
			c-6.2,17.1-6.3,17.4-10.8,17.4c-5.6,0-8.2-3.7-11.8-17.2c-0.5-1.8-1.4-3.9-1.9-4.8s-1.1-2.3-1.1-3.2s-0.7-3-1.5-4.6
			c-3.6-7.1-3.1-8.8,3-8.4C181,324.4,181.3,324.5,182.5,327.2 M335,325c0.7,0.7,1,4.7,1,13.1v12.2l2.5,2.1
			c7.4,6.2,11.2,1.3,11.5-14.7c0.2-13.3,0.4-13.6,5-13.6c5.3,0,5.1-0.8,5.1,18.4c0,20.5-1,23-7.6,18.7c-1.8-1.2-2.3-1.2-5.9,0
			c-8.8,2.9-15.8,0.9-18.9-5.2c-2.3-4.5-3.1-30.5-1-31.4C328.6,323.7,334.1,324,335,325 M403.9,333.5c-3.6,3.3-1.9,4.9,5,4.9
			c5.9,0,7.6-1.6,4.7-4.4C410.3,330.8,407.1,330.6,403.9,333.5 M227.2,333.6c2.2,2.2,1.4,3.2-2.8,3.2c-4.1,0-5.2-1-2.4-2.3
			c1.1-0.5,2-1.3,2-1.7C224,331.5,225.5,331.9,227.2,333.6 M296.6,333.4c-7.9,4.9-3.6,21,5.6,21c4.4,0,10-8.8,8.5-13.3
			C307.9,332.5,302.6,329.7,296.6,333.4 M305.4,334.9c3.8,1,4,12.7,0.2,16.7c-2.3,2.4-3.9,2.6-6.1,0.6c-0.9-0.8-2.3-1.8-3.1-2.3
			c-2.1-1.3-2-12.9,0.1-14.4C298,334.4,302.3,334.1,305.4,334.9 M411.5,334.9c2.4,0.9,1.2,1.9-2.3,1.9c-3.4,0-5-0.8-3.9-1.9
			C406,334.3,409.9,334.2,411.5,334.9 M222.2,346.6c-6.3,3.7-3.5,9.6,3.8,8.2c3.1-0.6,6.7-6.1,5.7-8.8
			C231,344.2,225.8,344.5,222.2,346.6 M229.1,348.6c-0.7,5.1-0.8,5.1-4.9,4.8c-5.1-0.3-6-3.2-1.5-5c1.5-0.6,3-1.5,3.3-2
			C227.4,344.1,229.5,345.6,229.1,348.6 M417.5,348.7c0.8,0.5,0.4,0.9-1.4,1.5c-1.4,0.5-2.7,1.4-3,2.1c-0.7,1.9-5.5,1.6-7.5-0.5
			c-3-3.2-2.1-3.9,5.1-3.8C413.9,348,416.9,348.3,417.5,348.7"/>
		<path id="path3" class="st5" d="M292,41.2c0,0.7-0.1,1.2-0.2,1.2c-0.1,0-3.7,0.3-8,0.7c-4.8,0.4-8.4,1.2-9.6,2
			c-1,0.7-3.1,1.3-4.6,1.3c-1.6,0-4.3,0.6-6,1.3c-1.8,0.7-4.8,1.7-6.8,2.2c-2,0.6-4.8,1.6-6.2,2.3c-1.4,0.7-3.2,1.3-4.1,1.3
			c-0.8,0-2.2,0.7-3,1.6c-0.8,0.9-2.4,1.6-3.6,1.6s-2.8,0.7-3.6,1.6c-0.8,0.9-2.3,1.6-3.3,1.6c-1,0-2.5,0.7-3.3,1.5
			c-0.8,0.8-2.6,1.8-4.1,2.1c-1.5,0.3-2.8,1.1-3.1,1.7c-0.2,0.6-1.8,1.5-3.5,2c-1.7,0.5-3.1,1.2-3.1,1.5s-1.1,1.1-2.4,1.5
			c-2.6,0.9-12,7.9-12,9c0,0.3-0.9,0.9-2,1.3C197,81.4,185,91.2,184.4,93c-0.3,0.8-1,1.4-1.6,1.4s-1.1,0.3-1.1,0.7
			c0,0.9-5.5,6.5-6.5,6.5c-0.4,0-0.7,0.5-0.7,1.1c0,0.6-0.7,1.4-1.6,1.7c-0.9,0.3-1.6,0.8-1.6,1.1s-1.1,1.8-2.5,3.3
			c-4.6,5.1-7.9,9.3-7.9,10.1c0,0.4-1.6,2.5-3.6,4.7c-2,2.2-3.6,4.8-3.6,5.7c0,1-0.5,2-1.1,2.4c-1.5,0.9-5.3,6.4-5.3,7.8
			c0,0.6-0.7,1.8-1.5,2.6c-0.8,0.8-1.8,2.5-2.1,3.8c-0.3,1.3-1.2,3-2.1,3.8c-0.8,0.8-1.5,2.3-1.5,3.3c0,1-0.7,2.5-1.6,3.3
			c-0.9,0.8-1.6,2.4-1.6,3.6s-0.7,2.8-1.5,3.5c-0.9,0.8-1.7,2.9-1.9,5c-0.2,2-1,4.2-1.7,5c-0.7,0.8-1.5,3-1.8,5
			c-0.3,2-1.2,4.8-2,6.4c-0.8,1.5-1.5,3.8-1.5,5c0,1.2-0.6,3.6-1.3,5.2s-1.6,6.6-2,11c-0.5,5.4-1.1,8.3-1.9,8.9
			c-1.3,1-1.6,6.7-0.4,6.7c0.4,0,1-1,1.2-2.2c0.2-1.2,0.8-3.3,1.2-4.7c0.4-1.4,0.8-4.6,0.8-7.2c0-2.6,0.7-6.9,1.6-9.5
			c0.9-2.6,1.6-5.8,1.6-7c0-1.3,0.7-3.7,1.6-5.4c0.9-1.7,1.6-4,1.6-5c0-1,0.7-3.3,1.6-5c0.9-1.7,1.8-4.4,2.1-6s1.1-4.1,1.9-5.6
			c0.8-1.5,2.2-4.6,3.2-6.8c1-2.2,2.1-4.5,2.5-5.2c1.2-2.2,4.4-8.3,6.5-12.4c1.1-2.2,3.2-5.4,4.5-7.1c1.4-1.7,2.5-3.5,2.5-3.9
			c0-0.5,1.4-2.5,3.2-4.6c1.8-2.1,3.2-4,3.2-4.3c0-3.2,34.7-38,37.9-38c0.3,0,2.7-1.8,5.5-4c5.4-4.4,10.3-7.4,20-12.2
			c3.4-1.7,6.4-3.4,6.6-3.8c0.3-0.4,1.1-0.8,1.9-0.8c0.8,0,2.4-0.7,3.5-1.6c1.1-0.9,2.7-1.6,3.4-1.6c0.8,0,2.5-0.7,3.9-1.5
			c1.4-0.8,5.6-2.5,9.3-3.7c3.7-1.2,8.7-2.9,11-3.7c2.3-0.8,5.1-1.5,6.1-1.5c1,0,3.3-0.6,5-1.3c1.7-0.7,6-1.6,9.5-2
			c8.9-0.9,12.6-1.7,13-2.9c0.2-0.7-0.7-1-2.9-1C292.9,40,292,40.3,292,41.2 M345,40.9c0.5,1.6,5.6,2.9,11.4,3c4,0,6.5,0.5,8.6,1.7
			c1.6,0.9,4.3,1.6,5.8,1.6s4.2,0.6,5.8,1.3c1.6,0.7,4.6,1.8,6.6,2.3c20.5,6,37.9,15,61.6,31.7c7.3,5.2,28.9,26.6,33.3,33.1
			c3.9,5.8,7.9,11.5,10.6,15.3c1.3,1.8,2.9,4.5,3.5,6c0.6,1.5,1.7,3.2,2.5,3.8s1.3,1.7,1.3,2.5s0.7,2.3,1.6,3.4
			c0.9,1.1,1.6,2.6,1.6,3.2c0,0.6,0.7,2,1.5,3.1c0.8,1,1.7,3.1,2.1,4.5c0.3,1.4,1.1,3,1.7,3.5c0.6,0.5,1.1,1.4,1.1,2
			c0,0.6,0.7,2.6,1.5,4.5c2,4.4,5.7,16.7,5.7,19c0,0.9,0.7,3.1,1.6,4.8c0.9,1.7,1.8,5.2,2.1,7.8c0.6,5.6,1.8,9.9,2.8,9.9
			c1.2,0,0.8-3.8-0.5-4.3c-0.9-0.3-1.2-1.7-1.2-5.1c0-2.6-0.5-5.5-1.2-6.6c-1.7-2.9-1.7-3.1-2.8-8.8c-0.5-2.9-1.3-5.6-1.7-6.1
			c-0.4-0.5-1.1-2.7-1.6-4.9s-1.6-5.4-2.4-7.1c-0.9-1.7-1.5-3.5-1.5-4s-0.5-1.4-1.1-1.9c-0.6-0.5-1.4-2.1-1.7-3.5
			c-0.3-1.4-1.2-3.2-2.1-4c-0.8-0.8-1.5-2.3-1.5-3.3c0-1-0.7-2.5-1.6-3.3s-1.6-2.2-1.6-3.2c0-1-0.9-2.7-2-3.9c-1.1-1.2-2-2.8-2-3.5
			c0-0.7-1.4-3-3.2-4.9c-1.8-1.9-3.2-4.1-3.2-4.7c0-0.6-1.4-2.8-3-4.9c-1.7-2-4.1-5.3-5.4-7.2c-4.9-7.3-30.1-31.6-34.2-33.1
			c-1.2-0.4-2.2-1-2.2-1.4c0-0.7-7.5-5.7-8.7-5.7c-0.5,0-1.2-0.6-1.6-1.4c-0.4-0.8-2.9-2.5-5.4-3.8c-2.6-1.3-5.5-3-6.6-3.8
			c-1-0.8-2.4-1.4-3.1-1.4c-0.6,0-2.1-0.7-3.2-1.6c-1.1-0.9-2.6-1.6-3.4-1.6c-0.8,0-2-0.7-2.8-1.6c-0.8-0.9-2.2-1.6-3.1-1.6
			c-0.9,0-2.8-0.7-4.1-1.6c-1.3-0.9-3.3-1.6-4.4-1.6c-1.1,0-3.3-0.7-4.9-1.5c-1.6-0.8-4.3-1.8-6-2.1c-1.7-0.3-4.4-1.2-5.9-2.1
			c-1.5-0.8-4.4-1.5-6.4-1.5c-2.3,0-4.5-0.6-6-1.6c-1.4-0.9-3.8-1.6-5.6-1.6c-6.3,0-11.6-1-11.6-2.1c0-0.6-0.9-1.1-2.1-1.1
			C345.5,40,344.8,40.4,345,40.9 M381.6,95.4c15.2,3.3,22.6,6.9,30.8,15c2,2,7.6,10.1,7.6,11.1c0,0.3,0.6,1.6,1.3,3s1.6,3.3,1.9,4.4
			l0.6,2l0.1-2c0.2-4.9-9.9-19.9-16.5-24.4c-6.9-4.8-9.2-6.1-10.7-6.1c-0.9,0-2.9-0.7-4.6-1.5c-1.6-0.8-5.5-1.7-8.6-1.9
			C378.6,94.6,378.4,94.7,381.6,95.4 M363.6,97.4c-3.1,1.1-6.2,2.5-6.9,3.1c-0.7,0.6-1.5,1.1-1.9,1.1c-2.2,0-13.2,10.6-15.4,14.8
			c-0.7,1.3-1.7,2.9-2.3,3.6c-0.6,0.7-1.4,2.5-1.9,4s-1.4,4.2-2,6c-3.1,8.1-0.6,27.6,4.3,33.8c0.9,1.1,1.6,2.4,1.6,3
			c0,1.2,10.6,12.3,13,13.6c1,0.5,3.8,2,6.2,3.3c29.8,16.2,67.7-7.9,67.1-42.6c-0.2-10.9-1.3-10.4-1.4,0.6
			c-0.1,11.5-1.5,17-5.8,23.1c-0.8,1.2-1.5,2.4-1.5,2.7c0,0.5-3.6,4.7-6.5,7.5c-3,2.9-5.7,4.9-6.7,4.9c-0.6,0-1.3,0.5-1.5,1.2
			c-0.3,0.7-0.9,1.2-1.4,1.2c-0.5,0-3,1-5.4,2.1c-9.2,4.4-36,2.1-39.5-3.4c-0.3-0.5-1.6-1.4-2.9-1.9c-1.3-0.5-2.6-1.5-2.8-2.1
			c-0.2-0.6-1-1.1-1.7-1.1c-0.7,0-1.2-0.3-1.2-0.6c0-0.3-1.6-2.4-3.6-4.6c-2-2.2-3.8-4.7-4.1-5.6c-0.3-0.9-0.9-2.1-1.5-2.8
			c-6.1-7.5-6.3-31.6-0.4-40.8c0.4-0.7,1.2-2.1,1.8-3.2c0.5-1.1,1.5-2.5,2.2-3.2s2.3-2.5,3.6-4c7.2-8.2,16.9-13.3,29.2-15.2l3.6-0.6
			l-4.4,0C370.9,95.4,367.1,96.1,363.6,97.4 M212.2,103c-2.5,0.5-3.1,3-1.1,5c0.9,0.9,1.6,2.3,1.6,3.1s0.4,1.9,1,2.4
			c1.2,1.2,6.3,10.3,8.6,15.1c0.9,1.9,1.9,3.4,2.4,3.4c0.5,0,0.8,0.4,0.8,0.9c0,0.8,9.5,18.4,12,22.3c0.4,0.7,1.4,2.6,2.1,4.2
			c0.7,1.7,1.6,3,1.9,3c0.3,0,1.2,1.4,1.9,3c0.7,1.7,2.2,4.4,3.2,6.2c1.1,1.8,2.7,4.7,3.7,6.6c1,1.9,2.6,4.7,3.7,6.3
			c1.1,1.6,2.5,4,3.1,5.4c0.6,1.4,1.5,3.1,2,3.7c1.1,1.7,12.6,22.1,16.4,29.2c1.8,3.3,4.5,8.2,6.2,11.1c1.7,2.9,3,5.6,3,6.1
			c0,0.5,0.3,0.9,0.8,0.9c0.4,0,2.1,2.6,3.7,5.8c1.6,3.2,3.9,7.6,5.2,9.8c2.2,3.9,3.4,6.1,6.1,11.2c0.7,1.3,1.8,3,2.4,3.7
			c0.6,0.7,2.4,3.8,3.9,6.8c1.5,3,3.7,6.9,4.7,8.7c1.1,1.8,2.5,4.4,3.2,5.8c0.7,1.4,1.5,2.6,1.7,2.6c1.1,0,5.1-5.1,5.1-6.5
			c0-0.8,0.7-2.1,1.5-2.9c0.8-0.8,1.8-2.3,2.1-3.4c0.3-1.1,1-2.5,1.6-3.2c0.5-0.7,2.2-3.5,3.7-6.4c1.5-2.9,3.7-7,4.9-9.2
			c1.2-2.2,3.4-6.3,4.8-9.2c1.4-2.9,3.3-6.1,4.1-7.1c0.8-1,1.4-2.5,1.4-3.1s0.5-1.8,1.1-2.5c0.6-0.7,2.5-4,4.2-7.3
			c1.7-3.3,3.4-6.1,3.7-6.3c2-0.9,1.4-5.6-1.3-10.6c-1.6-2.8-3.4-6.3-4.1-7.6c-0.7-1.3-1.5-2.9-2-3.6c-0.7-1.1-7.3-13-13.5-24.3
			c-1.5-2.7-3.7-6.7-5-8.9c-1.2-2.2-2.8-5.1-3.5-6.4c-0.7-1.3-2.2-4.1-3.4-6.2c-1.2-2.1-3.5-6.2-5-9.2c-1.5-3-3-5.6-3.3-5.8
			c-0.3-0.2-1.2-1.8-2.1-3.6c-3.3-6.5-5-9.7-6.9-12.8c-1.9-3.2-3.7-6.4-6.9-12.2c-4.3-8-6.6-11.9-7.7-13
			C288.8,102.9,218,101.9,212.2,103 M256.8,104.8h32.5l2.1,3.3c1.2,1.8,2.1,3.8,2.1,4.4c0,0.6,0.7,1.8,1.6,2.7
			c0.9,0.9,1.6,2.1,1.6,2.6c0,0.6,0.6,1.9,1.4,3c0.8,1.1,2.1,3.2,2.9,4.8c2.8,5.3,4.6,8.4,6.5,11.6c1,1.8,2.7,4.6,3.6,6.4
			c0.9,1.8,2.6,4.6,3.6,6.4c1.1,1.8,2.2,3.7,2.5,4.4c1,2.4,2.1,4.5,4,7.6c2.7,4.4,4.8,8.2,6.8,12c0.9,1.8,2.5,4.6,3.6,6.4
			c1.1,1.8,2.2,3.7,2.4,4.4c0.7,1.8,10.4,19.2,12.5,22.4c0.4,0.7,1.3,2.4,2,3.9c0.7,1.5,1.8,3.2,2.4,3.9c0.6,0.6,1.1,1.8,1.1,2.6
			c0,0.8,0.7,2.1,1.6,2.9c1.7,1.6,2.1,4.8,0.7,5.6c-0.5,0.3-1.6,2-2.4,3.8c-1.4,3.1-1.8,3.9-4,7.5c-0.5,0.8-1.6,2.8-2.5,4.6
			c-0.9,1.8-3.4,6.4-5.6,10.4c-2.2,4-4.5,8.4-5.2,9.9c-0.7,1.5-1.8,3.2-2.4,3.9c-0.6,0.6-1.1,1.8-1.1,2.6s-0.4,1.7-0.9,2
			c-0.5,0.3-1.5,2.1-2.3,4s-1.8,3.6-2.3,3.9c-0.4,0.3-1,1.5-1.3,2.8c-0.3,1.3-1,2.5-1.6,2.7c-0.6,0.2-1.3,1.4-1.6,2.7
			c-0.6,2.5-4.5,7.5-5,6.3c-0.2-0.4-0.8-1.7-1.4-2.8s-1.7-3.4-2.5-5s-1.6-3-1.9-3c-0.3,0-1.2-1.4-1.9-3c-1.3-3-2.8-5.6-6.5-11.8
			c-1-1.8-2.7-4.6-3.6-6.4s-2.5-4.6-3.6-6.4c-1-1.8-3.2-5.7-4.9-8.8c-1.6-3.1-4-7.2-5.3-9.2c-1.3-2-2.9-4.7-3.5-6
			c-0.7-1.3-1.6-2.9-2-3.6c-0.5-0.7-1.2-2.1-1.7-3.2c-0.5-1.1-1.7-3.4-2.8-5.2c-1.1-1.8-2.5-4.3-3.2-5.6c-0.7-1.3-2.3-4-3.6-6
			s-2.6-4.1-2.8-4.8c-0.9-2.2-2-4.4-4-7.6c-1.1-1.8-2.7-4.6-3.6-6.4c-0.9-1.8-2.5-4.6-3.6-6.4s-2.5-4.3-3.2-5.6
			c-0.7-1.3-2.3-4.2-3.5-6.4s-2.9-5.1-3.6-6.4c-0.7-1.3-2.2-3.8-3.2-5.6c-1.1-1.8-2.5-4.6-3.3-6.2c-0.7-1.7-1.6-3-2-3
			c-0.4,0-1.1-1.2-1.6-2.7c-0.5-1.5-1.4-3.2-2.1-3.7c-0.6-0.5-1.2-1.6-1.2-2.3s-0.7-2-1.6-2.8c-0.9-0.8-1.6-2.1-1.6-2.9
			c0-0.8-0.4-1.7-0.8-1.9c-0.4-0.3-1.6-2-2.5-3.8c-0.9-1.8-1.9-3.5-2.2-3.7c-0.3-0.2-1.3-2-2.4-4c-1-2-3.2-6.1-4.8-9.1
			c-3.6-6.9-2.8-8.2,5-7.4C222.1,104.6,238.9,104.8,256.8,104.8 M120,263.1c0,1.7,0.4,2.5,1.2,2.5c0.7,0,1.2,0.7,1.2,1.8
			c0.1,5.9,1.6,16.6,2.7,18.6c0.7,1.3,1.3,3.7,1.3,5.3c0,1.6,0.7,3.8,1.5,4.8c0.8,1,1.7,3.9,2,6.3c0.3,2.4,1.3,5.6,2.1,7
			c0.9,1.5,1.6,3.5,1.6,4.5c0,1,0.7,2.5,1.6,3.3c1,0.9,1.6,2.5,1.6,4c0,1.4,0.7,3.4,1.6,4.4c0.9,1,1.6,2.3,1.6,2.8
			c0,0.5,0.7,1.6,1.5,2.3c0.8,0.7,1.7,2.6,1.9,4.1c0.4,2.5,2.2,5.6,5.4,9.6c0.7,0.9,1.5,2.5,1.8,3.6c0.3,1.1,1.7,3.3,3.3,4.8
			c1.5,1.5,2.8,3.2,2.8,3.6c0,0.8,1.1,2.3,5.8,8.7c1,1.3,3.3,3.9,5.2,5.7c1.9,1.8,3.4,3.7,3.4,4.1c0,1.3,7.3,9.1,9.5,10.3
			c1.2,0.6,5.4,4.2,9.3,8c3.9,3.8,7.4,6.8,7.7,6.8c0.3,0,2.1,1.5,4,3.2c1.9,1.8,4.1,3.2,4.8,3.2c0.8,0,1.7,0.7,2.2,1.5
			c0.4,0.8,2.1,1.7,3.7,2c1.6,0.3,3.1,1,3.3,1.7c0.2,0.6,1.1,1.3,1.9,1.6c0.8,0.3,2.2,1.2,3.2,2c1,0.9,2.4,1.6,3.2,1.6
			c0.7,0,2,0.7,2.8,1.6s2.1,1.6,2.8,1.6c0.8,0,2.3,0.7,3.4,1.6c1.1,0.9,2.6,1.6,3.2,1.6c0.6,0,2,0.7,3.1,1.5c1,0.8,3.5,1.8,5.5,2.1
			s4.5,1.3,5.5,2.1s2.7,1.5,3.6,1.5c0.9,0,2.4,0.5,3.3,1.1c0.9,0.6,3.9,1.5,6.8,2c2.9,0.5,6.4,1.5,7.8,2.2c1.4,0.7,5.5,1.5,9,1.7
			c4.3,0.3,6.6,0.8,6.8,1.5c0.5,1.2,4.2,1.5,4.2,0.4c0-1.1-2.4-1.8-8.4-2.5c-3.1-0.3-6.9-1-8.4-1.5c-1.5-0.5-5.5-1.6-8.8-2.5
			c-11.3-3.1-14.8-4.2-16-5.2c-0.7-0.5-2.3-1.2-3.6-1.5c-3.3-0.8-10.9-3.8-12.4-4.9c-0.7-0.5-2.1-1.2-3.2-1.5
			c-1.1-0.3-2.5-1.1-3.2-1.6c-0.7-0.6-2.1-1.4-3.2-1.9c-1.1-0.5-3.6-1.9-5.6-3.2c-2-1.3-5-3.1-6.8-3.9c-1.8-0.9-4.5-2.6-6.1-3.8
			c-9.7-7.4-12.6-9.8-17.5-14.3c-3-2.8-7-6.3-8.9-7.8c-2-1.5-5-4.6-6.8-7c-1.8-2.4-4.7-5.8-6.4-7.6c-6.3-6.7-21.3-29.9-22.4-34.6
			c-0.3-1.1-1-2.6-1.6-3.3c-1.7-1.9-5.1-8.7-5.1-10c0-0.7-0.7-2.5-1.5-4.2c-2.4-4.7-4.8-11.5-5.4-15.4c-0.3-2-1.1-4.2-1.7-4.9
			c-0.6-0.7-1.5-3.3-1.8-5.6c-0.4-2.3-1.2-6.3-1.9-8.7c-0.7-2.4-1.3-6.4-1.3-8.8c0-5-1.7-11.4-3.1-11.8
			C120.4,260.8,120,261.6,120,263.1 M517.6,274.9c-0.4,1.1-0.8,3.6-0.8,5.5c0,1.9-0.7,5.5-1.6,8.1s-2,6.6-2.4,9
			c-0.4,2.3-1.5,5.9-2.4,7.9c-0.9,2-1.6,4.3-1.6,5.1c0,0.8-0.5,1.8-1.1,2.4c-0.6,0.5-1.3,2.1-1.6,3.5c-0.9,4.4-9.1,21.2-12.2,24.9
			c-1,1.2-1.9,2.8-1.9,3.4c0,1.1-2.1,4.7-6.2,10.4c-1.3,1.8-2.8,4.1-3.4,5.2c-1,1.9-5.9,7.8-15.4,18.3c-5.6,6.2-22.6,21.5-25.4,22.8
			c-1.1,0.5-3.9,2.4-6.2,4.3c-2.3,1.9-4.7,3.4-5.3,3.4c-0.6,0-1.7,0.7-2.5,1.6c-0.8,0.9-2.4,1.8-3.7,2.1c-1.2,0.3-2.7,1-3.2,1.7
			c-1.2,1.5-14.3,8-17.4,8.7c-1.3,0.3-2.8,1-3.4,1.7c-0.5,0.6-2.1,1.4-3.6,1.6c-1.5,0.3-3.1,1-3.6,1.6c-0.5,0.6-1.9,1.1-3,1.2
			c-1.2,0-3.5,0.6-5.3,1.3c-5.6,2.1-23,6.5-28.7,7.2c-3.2,0.4-5.7,1.1-5.9,1.7c-0.5,1.5,5.1,1.3,5.7-0.2c0.3-0.8,1.6-1.2,4.3-1.2
			c3.8,0,8.7-1,11.8-2.4c0.9-0.4,3.5-1.1,5.8-1.6c2.3-0.5,5-1.3,6-2c1-0.6,3.5-1.4,5.5-1.6c2.1-0.3,4.2-1,4.7-1.7
			c0.5-0.6,1.9-1.2,3.1-1.2s2.8-0.7,3.6-1.6c0.8-0.9,2.7-1.8,4.3-2.1c1.6-0.3,3.7-1.2,4.8-2c1-0.8,2.4-1.5,3.1-1.5
			c0.6,0,2.1-0.7,3.2-1.6c1.1-0.9,2.5-1.6,3.1-1.6c0.6,0,1.5-0.7,2.1-1.5c0.6-0.8,2.1-1.7,3.4-2.1c1.3-0.3,3-1.3,3.8-2.1
			c0.8-0.8,2-1.5,2.7-1.5c0.7,0,3.2-1.6,5.6-3.6c2.4-2,4.9-3.6,5.4-3.6c1,0,11.2-8.9,15.9-13.8c1.6-1.6,3.2-3,3.6-3
			c0.9,0,4.2-3.4,4.2-4.4c0-0.4,1.4-2,3.1-3.5c4.2-3.9,14.5-16,14.5-17c0-0.4,1.4-2.5,3.2-4.6c1.8-2.1,3.2-4.4,3.2-5.1
			c0-0.7,0.7-1.9,1.6-2.7c0.9-0.8,1.8-2.5,2.1-4c0.3-1.4,0.8-2.6,1.2-2.6c1,0,5.4-7.2,5.9-9.8c0.3-1.2,0.8-2.2,1.2-2.2
			c0.4,0,1.1-1.3,1.7-3c0.5-1.6,1.6-4.1,2.5-5.4c0.8-1.3,1.5-3.4,1.5-4.5c0-1.2,0.5-2.5,1.1-3c0.6-0.5,1.5-2.6,2.1-4.7
			c0.5-2.1,1.3-4.2,1.7-4.7c0.4-0.5,1.1-3,1.6-5.6c0.5-2.6,1.4-6,2.1-7.5c0.7-1.5,1.5-5.6,1.7-9.1c0.3-4.3,0.7-6.4,1.5-6.7
			c1.3-0.5,1.5-2.6,0.3-2.6C518.7,272.8,518,273.7,517.6,274.9 M250.4,311.1c-1,0.7-1.2,4.4-1.2,25v24.2l2.1,1.2
			c1.9,1.1,2.4,1.1,5-0.2l2.9-1.4l0-23.4c0-12.9-0.3-23.9-0.7-24.5C257.6,310.8,252,310.1,250.4,311.1 M268.2,311.4
			c-0.7,0.7-1,7.4-1,25.1c0,27.4-0.2,26.7,5.8,25.4l3.4-0.7l0.2-24.6l0.2-24.6l-2.1-0.8C272,310.1,269.3,310.2,268.2,311.4
			 M256.4,313c1.1,1.5,1.2,5.2,1.2,24.4V360l-1.9,0.5c-5.1,1.3-4.8,2.3-5.1-23.6c-0.2-16.7,0.1-23.8,0.7-24.6
			C252.6,310.7,254.9,311,256.4,313 M274.4,313c1.6,1.7,1.6,2.7,1.6,24.3c0,24.9,0.3,23.5-5.3,23.5H268v-23.5
			c0-12.9,0.2-24.1,0.5-24.8C269.2,310.6,272.5,310.9,274.4,313 M218.8,323.8c-4.8,1.7-9.5,7.4-8.7,10.4c0.8,3.2,6.5,3.1,9.7-0.2
			c3.9-4,8.3-4,10.5,0.1c1,1.9-1.2,4.2-4.1,4.2c-11.5,0-18.2,6.1-17.4,16c0.5,7,10.5,10.3,19.2,6.4l3.5-1.6l1.8,1.7
			c3.5,3.3,10.6,1,9.1-2.9c-0.3-0.9-0.7-6.6-0.7-12.8c-0.1-17.8-2.3-21-14.6-21.6C223.4,323.4,219.7,323.5,218.8,323.8 M295,324.3
			c-13.5,4.3-17.5,23.7-6.9,33.4c9.3,8.5,25.5,5.6,30.7-5.4C326.6,336,312.1,318.9,295,324.3 M384.9,324.1c-1.9,0.4-4.2,1.3-5,2
			c-1.4,1.3-1.6,1.3-2.7-0.4c-1.3-1.9-5.6-2.4-8.4-0.9c-1.5,0.8-1.5,1.8-1.5,18V360l2.4,1.2c6.4,3.3,8,1,8-11.1
			c0-12.4,1.3-15.4,7-16.1c6.1-0.8,5.9-0.7,5.3-5.4C389.3,323.4,389.2,323.3,384.9,324.1 M402.2,323.9c-9.4,3-14.8,17.6-10.3,27.4
			c0.9,2,1.7,4,1.7,4.5c0,2.7,9.4,6.5,15.9,6.5c9.2,0,18.7-7.4,14.1-11.2c-1.6-1.3-7.4-0.3-9.1,1.7c-3.5,4.1-14.8-0.4-13-5.2
			c0.6-1.6,1.4-1.7,11.7-2.1c6.1-0.2,11.7-0.7,12.5-1.1c1.5-0.7,2.4,0.6,4.6,7c4.9,14.3,26.8,15.2,32.2,1.3c1.6-4.2,1.1-4.8-3.9-4.8
			c-3.4,0-4.8,0.9-7.2,4.5c-1.8,2.7-6.7,2.7-8.9-0.1c-8.1-10.3,1.3-26.8,10-17.5c4.8,5.2,12.4,3.4,10.1-2.3
			c-5.4-13.5-27.6-12.2-31.8,1.9c-1.5,5.1-4.2,5-6-0.2C422,325.9,411.3,321,402.2,323.9 M171.8,325.1c-0.6,1.5,0,3.8,1.9,7.5
			c0.8,1.6,1.5,3.7,1.5,4.6s0.5,2.4,1.1,3.2s1.5,3,1.9,4.8c3.7,13.5,6.2,17.2,11.8,17.2c4.5,0,4.7-0.3,10.8-17.4
			c0.9-2.5,2.3-6.2,3.2-8c0.8-1.9,1.5-4,1.5-4.7c0-0.7,0.6-2.5,1.3-4.1c1.6-3.4,0.8-4.2-4.2-4.2c-4.4,0-5.6,1.2-7.1,6.8
			c-2.4,9.3-5,16.8-5.7,16.7c-1.1-0.2-4.8-9.7-5.5-13.9c-1.2-7.3-2.7-9.2-7.8-9.4C173.3,324,172.1,324.2,171.8,325.1 M326.6,324.5
			c-2.1,0.9-1.3,26.9,1,31.4c3.1,6.1,10.1,8.1,18.9,5.2c3.6-1.2,4.1-1.2,5.9,0c6.6,4.3,7.6,1.9,7.6-18.7c0-19.2,0.2-18.4-5.1-18.4
			c-4.7,0-4.8,0.3-5,13.6c-0.3,16-4.1,20.9-11.5,14.7l-2.5-2.1v-12.2c0-8.4-0.3-12.5-1-13.1C334.1,324,328.6,323.7,326.6,324.5
			 M181.2,327c0.3,1.2,1,3.4,1.6,4.8c0.6,1.4,1.4,4.3,1.6,6.4c0.5,3.9,4.1,11.5,5.6,12c1,0.3,2.7-3.1,2.7-5.3c0-0.8,0.7-3,1.6-5
			c0.9-1.9,1.6-4.5,1.6-5.8c0-6.2,6.5-12.1,9.8-8.9c0.6,0.6-1.2,7.6-2.7,10.4c-0.7,1.3-1.6,3.7-1.9,5.2c-0.3,1.5-1.1,3.5-1.7,4.4
			c-0.6,0.9-1.3,3.1-1.6,5c-0.3,1.9-1,3.8-1.6,4.3c-0.6,0.5-1.3,2.1-1.6,3.6c-0.5,2.7-0.6,2.7-4.7,2.7c-4.8,0-6-1.1-7.6-7.3
			c-0.5-1.9-1.4-4.4-2-5.5c-1-1.9-2.1-5-4.9-13.9c-0.7-2.1-1.7-4.8-2.3-5.9c-1.5-2.9-0.9-3.4,3.7-3.4
			C180.5,324.8,180.8,325,181.2,327 M236,326.8c3.6,2.7,3.8,3.5,3.9,17.6c0.1,9.2,0.4,12.4,1.3,13.7c2.3,3.2-5.7,4.2-8.3,0.9
			l-1.4-1.7l-3,1.9c-4.7,2.9-13.2,2.7-16.5-0.4c-6.1-5.9-1.8-16.3,7.3-17.5c5.1-0.6,12.5-3.4,13-4.9c1.9-5.1-8.4-8.4-12.7-4
			c-3.5,3.5-9.2,2.2-7.2-1.6C215.6,324.4,229.6,322.1,236,326.8 M310.7,326.5c11.9,8.2,12.1,25.3,0.3,33c-3,2-15.7,2-18.7,0
			c-4.5-2.9-7.4-6.7-7.9-10.5c-1.4-9.3,1.2-19.4,5.4-20.7c0.7-0.2,2.1-1.1,3.1-2C295.6,324,307.1,324.1,310.7,326.5 M335,338
			c0.3,15,1.2,17.2,7.8,17.2c6.5,0,8.3-3.9,9.1-19.6l0.5-10.4h3.2h3.2v17.6v17.6l-2.5,0.2c-1.6,0.2-3-0.3-3.9-1.1
			c-1.2-1.2-1.7-1.3-3.9-0.4c-15.9,6.5-21.4,1.1-21.3-20.6c0.1-14.2,0-13.9,4.3-13.5l3.3,0.2L335,338 M376.5,326.8
			c0.7,1.1,1.6,2,1.9,2s1.6-0.9,2.7-2c1.4-1.3,3.1-2,5-2h2.8l-0.2,3.8c-0.2,3.6-0.4,3.8-2.6,4c-7.9,0.7-9.3,3.2-9.9,17.4
			c-0.5,11.3-0.7,11.6-5.3,10.5l-1.9-0.5l-0.1-17.1c-0.1-18.3-0.2-17.9,4.1-18C374.5,324.8,375.6,325.4,376.5,326.8 M419.1,328
			c4.3,3.4,5,4.9,5.2,11.4l0.1,4.2L413,344c-12.1,0.4-12.9,0.7-13,4.5c0,5.4,12.7,9.6,15.2,5.1c1.1-2.1,8.8-2.4,8.8-0.4
			c0,1.3-3,4.4-6.1,6.5c-3.5,2.3-15,1.5-19.3-1.3c-9.3-6.2-9.5-23.7-0.2-30.9C403.9,323.2,413.3,323.4,419.1,328 M457.8,328
			c3.7,3.2,5.3,7.1,3.5,8.2c-2.4,1.6-5.5,0.6-8.5-2.7c-10-10.9-20.4,9.1-10.6,20.3c2.9,3.3,13-0.1,13-4.4c0-0.8,6.2-0.8,6.7,0
			c0.6,1-1.6,6.6-3.2,7.9c-4.5,3.6-5.3,3.8-11.8,3.8c-13.1-0.1-18.2-7.5-15.7-23c1.5-9.7,5.8-13.2,16.1-13.2l6.9-0.1L457.8,328
			 M298.2,331c-0.8,0.2-1.4,0.7-1.4,1.1c0,0.4-0.5,0.7-1,0.7c-1.8,0-4.6,6.5-4.6,10.6c0,12.9,15.4,16.5,20.1,4.7
			C314.9,338.9,307.1,328.6,298.2,331 M402.4,333.2c-3.7,3.9-2.2,6.5,4.3,7.3c8.6,1.1,12.5-2.7,7.5-7.3
			C410,329.3,406.1,329.3,402.4,333.2 M413.5,334c2.9,2.9,1.2,4.4-4.7,4.4c-6.9,0-8.5-1.6-5-4.9C407.1,330.6,410.3,330.8,413.5,334
			 M306.2,333.2c1.6,1.1,3.2,3.9,4.5,7.9c1.5,4.5-4.2,13.3-8.5,13.3c-7.2,0-11.6-8.7-8.6-17.3C295.2,332.6,302.2,330.5,306.2,333.2
			 M221.6,345.3c-8,5.3-3.4,12.8,6.2,10.2c3.1-0.8,6.3-8,4.8-10.5C231.6,343.5,224,343.7,221.6,345.3 M231.7,346.1
			c1,2.6-2.6,8.2-5.7,8.8c-7.4,1.4-10.1-4.5-3.8-8.2C225.8,344.5,231,344.2,231.7,346.1"/>
		<path id="path4" class="st6" d="M290.1,41.2c-0.3,0.7,0,1.2,0.7,1.2c0.6,0,1.2-0.5,1.2-1.2C292,39.6,290.7,39.6,290.1,41.2
			 M348.8,41.2c0,0.7,0.4,1.2,0.8,1.2c0.4,0,0.8-0.5,0.8-1.2S350,40,349.6,40C349.2,40,348.8,40.5,348.8,41.2 M273.6,44
			c-0.7,1.3-1.7,1.6-5.9,1.6c-3.7,0-5.6,0.4-7,1.5c-1,0.8-3.7,1.7-5.9,2s-4.4,1.1-4.9,1.8c-0.5,0.7-2.2,1.4-3.8,1.7
			c-1.7,0.3-3.3,1.1-3.7,2c-0.4,0.8-1.7,1.5-2.7,1.5c-2.7,0-4.4,0.8-4.4,2.1c0,0.7-0.9,1.1-2.4,1.1c-1.4,0-3,0.7-3.8,1.6
			c-0.8,0.9-2.6,1.8-4,2.1c-1.5,0.3-3,1.2-3.5,2c-0.5,1-1.7,1.5-3.2,1.5c-1.5,0-2.6,0.6-3.2,1.6c-0.5,0.9-1.7,1.6-2.8,1.6
			c-1.1,0-2.9,0.9-4.1,2c-1.2,1.1-2.5,2-2.8,2s-0.7,0.5-0.7,1.1c0,0.6-0.9,1.5-2,2c-1.1,0.5-2,1.5-2,2.2c0,1.1,0.2,1.1,1.4-0.3
			c2.1-2.4,9.8-8.2,10.9-8.2c0.6,0,1.8-0.7,2.9-1.6c1-0.9,2.5-1.6,3.3-1.6c0.8,0,2.1-0.7,2.9-1.5c0.8-0.8,2.5-1.8,3.8-2.1
			s3-1.2,3.8-2.1c0.8-0.8,2.3-1.5,3.3-1.5c1,0,2.5-0.7,3.3-1.6c0.8-0.9,2.4-1.6,3.6-1.6s2.8-0.7,3.6-1.6c0.8-0.9,2.1-1.6,3-1.6
			c0.8,0,2.7-0.6,4.1-1.3c1.4-0.7,4.2-1.8,6.2-2.3c2-0.6,5-1.6,6.8-2.2c1.8-0.7,4.5-1.2,6-1.3c1.6,0,3.7-0.6,4.7-1.4
			c1.1-0.8,4.5-1.5,8.4-1.9l6.5-0.6l-7.4-0.1C275.2,42.4,274.4,42.6,273.6,44 M359.3,43.1c2.9,0.3,5.9,1,6.8,1.7
			c1.3,1.1,1.4,1.1,0.9-0.3c-0.3-0.8-0.6-1.6-0.6-1.8c0-0.2-2.8-0.3-6.2-0.2l-6.2,0.1L359.3,43.1 M372.4,46.4
			c2.6,0.3,5.7,1.1,6.8,1.8c1.1,0.7,3.4,1.5,5.1,1.8c1.7,0.3,4.4,1.2,6,2.1c1.6,0.8,3.8,1.5,4.9,1.5c1.1,0,3.1,0.7,4.4,1.6
			c1.3,0.9,3.2,1.6,4.1,1.6c0.9,0,2.3,0.7,3.1,1.6c0.8,0.9,2.1,1.6,2.8,1.6c0.8,0,2.3,0.7,3.4,1.6c1.1,0.9,2.6,1.6,3.2,1.6
			c0.6,0,2,0.7,3.1,1.4c1,0.8,4,2.5,6.6,3.8c2.6,1.3,5,3,5.4,3.8c0.4,0.8,1.2,1.4,1.6,1.4c1.1,0,8.7,4.9,8.7,5.7
			c0,0.3,1,0.9,2.2,1.4c4.1,1.4,29.3,25.8,34.2,33.1c1.3,1.9,3.7,5.1,5.3,7.1c1.6,2,3.1,4.3,3.3,5.2c0.3,1.1,0.4,0.9,0.5-0.9
			c0.1-1.7-0.5-3-1.9-4.2c-1.1-1-2-2.1-2-2.5s-0.5-0.8-1.1-0.8c-1.2,0-2.1-1.7-2.1-3.7c0-0.6-2.3-3.5-5.2-6.4
			c-2.9-2.9-5.2-5.6-5.2-6c0-0.4-0.6-0.7-1.3-0.7c-0.7,0-1.5-0.7-1.7-1.6c-0.2-0.9-0.7-1.6-1-1.6c-0.5,0-4.8-4-17.2-16
			c-0.9-0.9-2.4-1.6-3.4-1.6c-1,0-2-0.5-2.4-1.1c-1.2-2.1-6.9-6.1-8.8-6.1c-1.2,0-1.9-0.5-1.9-1.2c0-0.7-0.6-1.5-1.4-1.7
			c-0.8-0.3-1.9-1.2-2.4-2c-0.6-0.8-2-1.5-3.4-1.5c-1.5,0-2.6-0.6-3.1-1.5c-0.4-0.8-2-1.7-3.6-2c-1.5-0.3-2.9-1-3.2-1.6
			c-0.2-0.6-1.6-1.4-3.1-1.7c-1.5-0.3-3.3-1.2-4.1-2.1c-0.8-0.8-2.5-1.5-3.8-1.5c-1.5,0-2.6-0.6-3.1-1.5c-0.5-1-2.1-1.6-4.9-2
			c-2.2-0.3-5-1.2-6.1-2.1c-1.3-1-3.3-1.6-5.2-1.6c-2,0-3.6-0.6-4.7-1.6c-1.3-1.3-2.6-1.6-7-1.5l-5.4,0.1L372.4,46.4 M195,81.6
			c-0.5,0.9-1.3,1.6-1.7,1.6c-0.4,0-2.3,1.6-4.1,3.6c-1.9,2-3.8,3.6-4.3,3.6c-0.5,0-0.9,0.6-0.9,1.2c0,1,0.4,0.9,1.8-0.5
			C189.2,88,198,81,199.2,80.6c0.7-0.3,0.3-0.5-1-0.5C196.8,80,195.6,80.6,195,81.6 M177.7,98.1c-2.3,2.4-4.1,4.8-3.9,5.4
			c0.2,0.6,0.4,0.4,0.5-0.4c0-0.8,0.4-1.4,0.8-1.4c0.9,0,6.5-5.5,6.5-6.4c0-0.4,0.6-0.8,1.4-1c1-0.3,1-0.4,0.2-0.4
			C182.5,93.7,180.1,95.7,177.7,98.1 M374.4,95.9c-12.5,2-22,7-29.2,15.2c-1.3,1.5-3,3.4-3.7,4.1c-0.7,0.7-1.6,2.1-1.8,3
			c-0.3,0.9-1,2-1.7,2.6c-1.5,1.2-1.5,2.4,0,2.4c0.7,0,1.6-1.4,2.1-3.2c0.5-1.8,1.3-3.2,1.6-3.2c0.4,0,1.1-0.9,1.6-2
			c0.5-1.1,1.4-2,1.9-2c0.6,0,1.2-0.7,1.5-1.6c0.3-0.9,1-1.6,1.6-1.6c0.6,0,1.3-0.7,1.6-1.6s1-1.6,1.6-1.6c0.6,0,1.6-0.7,2.1-1.5
			c0.6-0.8,2.2-1.7,3.6-2s2.7-1,2.9-1.6c0.2-0.6,2.3-1.3,4.7-1.6c2.3-0.3,6.3-1.2,8.9-2.1c5.5-1.8,6.9-1.9,9-0.5
			c0.9,0.6,4.3,1.5,7.7,2.1c3.5,0.6,6.3,1.5,6.6,2.1c0.2,0.6,1.7,1.3,3.2,1.6s2.8,1,2.8,1.6c0,0.6,0.6,1.3,1.4,1.5
			c2.5,0.8,10.9,9.6,11.8,12.3c0.3,0.9,1,1.8,1.6,2c0.6,0.2,1.3,1.6,1.7,3.1c0.3,1.5,1.3,3.8,2.1,5.2c1.9,3.1,2,25.8,0.1,26.4
			c-0.5,0.2-1.4,1.8-1.8,3.5c-0.5,1.7-1.6,3.9-2.4,4.7c-0.9,0.9-1.6,2.4-1.6,3.5c0,1.2-0.6,2.1-1.6,2.3c-0.9,0.2-1.6,1-1.6,1.6
			c0,0.7-0.7,1.4-1.6,1.7c-0.9,0.3-1.6,1-1.6,1.7c0,0.6-0.9,1.5-2,1.9s-2,1.1-2,1.5c0,0.4-1.2,1.2-2.7,1.7c-1.5,0.5-2.9,1.4-3.2,2.1
			c-0.3,0.7-1.5,1.2-2.9,1.2c-1.4,0-3.1,0.7-4,1.6c-2.2,2.2-25.2,2.5-26.7,0.3c-0.5-0.7-2.5-1.4-4.5-1.6l-3.6-0.4l4.8,2.2
			c7.3,3.3,25.7,3.3,32.5,0.1c2.5-1.2,4.9-2.2,5.4-2.2c0.5,0,1.2-0.5,1.4-1.2c0.3-0.7,0.9-1.2,1.5-1.2c2.3,0,11.1-8.7,14.2-14
			c7-12,8.9-31.5,3.9-40.8c-0.9-1.8-1.7-3.4-1.7-3.8c0-0.9-5.6-9.1-7.6-11.1C402,100.1,386.1,94,374.4,95.9 M213.2,105
			c-1.5,1.2-1.5,1.3,1.3,6.7c1.6,3,3.7,7.1,4.8,9.1c1,2,2.1,3.8,2.4,4c0.3,0.2,1.3,1.9,2.2,3.7c2,3.9,3.3,5,3.3,2.7
			c0-0.9-0.7-2.1-1.6-2.6c-0.9-0.5-1.6-1.6-1.6-2.3c0-0.7-0.6-2.2-1.4-3.2c-0.8-1-1.9-2.8-2.4-3.9c-1-2.1-1.8-3.4-4.8-8
			c-3.2-5-5.2-4.8,36-4.8h37.8l1,2.2c1.3,2.8,3.4,6.5,5.2,9c0.8,1.1,1.4,2.6,1.4,3.4c0,0.8,0.7,1.8,1.6,2.3c0.9,0.5,1.6,0.6,1.6,0.4
			s-0.7-1.4-1.6-2.5c-0.9-1.1-1.6-2.5-1.6-3.1s-0.7-1.8-1.6-2.7c-0.9-0.9-1.6-2.1-1.6-2.7c0-0.6-1-2.6-2.1-4.4l-2.1-3.3h-32.5
			c-17.9,0-34.7-0.2-37.3-0.5C216,104,214.4,104.2,213.2,105 M165.8,110c-1.4,1.5-2.6,3-2.6,3.4s-0.7,1.1-1.6,1.6
			c-1,0.6-1.6,1.8-1.5,3.2c0,1.3,0.3,1.7,0.5,1c0.5-1.3,4.3-6.2,7.7-9.8c1.1-1.2,1.6-2.2,1.1-2.2C168.8,107.2,167.2,108.5,165.8,110
			 M156.7,122.8c-0.5,1.1-1.4,2-1.9,2c-1.2,0-2,1.8-2,4.5c0,1.2-0.5,1.9-1.2,1.9c-0.7,0-1.5,0.9-1.9,1.9c-0.4,1-1.3,2.1-2,2.4
			c-0.8,0.3-1.3,1.4-1.3,2.9c0,1.5-0.5,2.7-1.5,3.2c-0.8,0.4-1.7,2-2,3.5c-0.3,1.5-1.2,3.3-2.1,4c-0.9,0.8-1.6,2.4-1.6,3.8
			c0,1.5-0.4,2.4-1.1,2.4c-1.3,0-2.1,1.7-2.1,4.4c0,1-0.7,2.3-1.5,2.7c-1.1,0.6-1.7,2.1-2.1,5.3c-0.3,2.8-1.2,5.1-2.1,6
			c-1,1-1.5,2.6-1.5,5c0,2.4-0.5,3.8-1.6,4.8c-1.3,1.1-1.6,2.3-1.5,5.6l0.1,4.2l0.6-3.7c0.3-2,1.2-4.6,1.8-5.6
			c0.7-1,1.4-3.5,1.7-5.5c0.3-2,1.1-4.2,1.8-5c0.7-0.8,1.4-3,1.7-5c0.2-2.1,1-4.2,1.9-5c0.8-0.7,1.5-2.3,1.5-3.5s0.7-2.8,1.6-3.6
			c0.9-0.8,1.6-2.3,1.6-3.3c0-1,0.7-2.5,1.5-3.3c0.8-0.8,1.7-2.5,2.1-3.8c0.3-1.3,1.3-3,2.1-3.8c0.8-0.8,1.5-1.9,1.5-2.6
			c0-1.4,3.7-7,5.3-7.8c0.6-0.4,1.1-1.4,1.1-2.4s1.4-3.3,3.1-5.2c1.8-2,2.6-3.4,2-3.4C158.1,120.8,157.2,121.7,156.7,122.8
			 M300,126.2c0,1,0.7,2.4,1.6,3.2c0.9,0.8,1.6,1.9,1.6,2.6c0,0.7,0.9,2.5,2,4c1.1,1.5,2,3.1,2,3.6c0,0.5,0.7,1.8,1.6,2.8
			c0.9,1,1.6,2.3,1.6,2.9s0.7,1.7,1.6,2.5c0.9,0.8,1.6,2,1.6,2.8c0,0.8,0.7,2.1,1.5,2.9c0.8,0.8,1.8,2.6,2.1,4
			c0.3,1.4,1.2,2.9,2.1,3.3c0.9,0.5,1.5,1.7,1.5,2.8c0,1.1,0.7,2.4,1.6,3c0.9,0.5,1.6,1.8,1.6,2.8c0,1,0.7,2.5,1.6,3.4
			c0.9,0.9,1.6,2.1,1.6,2.6c0,0.6,0.9,2.3,2,3.8c1.1,1.5,2,3.2,2,3.8c0,0.6,0.7,1.8,1.6,2.6c0.9,0.9,1.6,2.3,1.6,3.2
			c0,0.9,0.7,2,1.6,2.4c0.9,0.5,1.6,1.5,1.6,2.3c0,0.8,0.7,2.4,1.6,3.5c0.9,1.1,1.6,2.5,1.6,3.1c0,0.6,0.8,2.3,1.8,3.9
			c3.3,5.2,3.8,6,5,8.7c0.7,1.4,1.7,2.8,2.4,3.1c0.6,0.2,1.2,1.3,1.2,2.4c0,1.1,0.7,2.6,1.6,3.5l1.6,1.6l-1.6,2.1
			c-0.9,1.1-1.6,2.9-1.6,4c0,1.1-0.5,1.9-1.1,1.9c-0.6,0-1.4,1.1-1.7,2.6c-0.3,1.4-1.2,3.2-2.1,4c-0.8,0.8-1.7,2.4-2,3.5
			c-0.3,1.2-1.2,2.8-2,3.6c-0.8,0.8-1.5,2.2-1.5,3.2c0,0.9-0.8,2.3-1.7,3c-1.1,0.9-1.6,2.1-1.4,3.3c0.2,1.7,0.7,1.1,2.9-3.2
			c1.5-2.9,3.7-7,4.9-9.2c1.3-2.2,2.5-4.5,2.8-5.2s0.8-1.7,1.3-2.4c0.4-0.7,1.4-2.7,2.3-4.5c0.8-1.8,1.9-3.6,2.4-3.8
			c1.4-0.9,1-4.1-0.7-5.6c-0.9-0.8-1.6-2.1-1.6-2.9c0-0.8-0.5-1.9-1.1-2.6c-0.6-0.6-1.7-2.4-2.4-3.9c-0.7-1.5-1.6-3.3-2-3.9
			c-2.1-3.2-11.8-20.6-12.5-22.4c-0.3-0.7-1.4-2.6-2.4-4.4c-1.1-1.8-2.7-4.6-3.6-6.4c-1.9-3.8-4.1-7.6-6.8-12c-1.9-3.1-3-5.2-4-7.6
			c-0.3-0.7-1.4-2.6-2.5-4.4c-1.1-1.8-2.7-4.6-3.6-6.4c-0.9-1.8-2.5-4.6-3.6-6.4c-1.1-1.8-2.5-4.3-3.1-5.6
			C302,126.6,300,124.2,300,126.2 M334.5,130.7c-2.8,9.5-1,26.1,3.5,31.7c0.5,0.7,1.2,1.9,1.5,2.8c0.3,0.9,2.1,3.4,4.1,5.6
			c2,2.2,3.6,4.3,3.6,4.6c0,0.3,0.6,0.6,1.2,0.6c0.7,0,1.4,0.5,1.7,1.1c0.2,0.6,1.5,1.6,2.8,2.1c1.3,0.5,2.7,1.6,3.1,2.3
			c0.4,0.7,1,1,1.3,0.7c0.7-0.7-1.1-3-2.3-3c-0.9,0-3-1.8-8-7.2c-1.9-2-4.2-4.4-5.2-5.4c-1-1-1.8-2.6-1.8-3.5c0-0.9-0.7-2.2-1.6-2.9
			c-1-0.9-1.6-2.4-1.6-4.2c0-1.6-0.7-4.3-1.6-6c-2.2-4.4-2.2-12.9,0.1-16.7c1.1-1.8,1.6-3.8,1.4-5.8
			C336.4,124.6,336.3,124.8,334.5,130.7 M490,131c1.5,1.6,2.8,3.6,2.8,4.4c0,0.7,0.9,2.3,2,3.5c1.1,1.2,2,2.9,2,3.9
			c0,1,0.7,2.4,1.6,3.2c0.9,0.8,1.7,2.4,1.9,3.5c0.3,1.9,0.3,1.8,0.4-0.5c0.1-1.8-0.4-2.9-1.5-3.6c-0.9-0.5-1.6-1.8-1.6-2.7
			c0-2.6-0.8-4.3-2.1-4.3c-0.7,0-1.3-1.3-1.6-3.2c-0.3-2-1-3.3-1.9-3.6c-0.8-0.2-1.6-1.2-1.8-2c-0.2-0.9-1-1.6-1.6-1.6
			C487.7,128,488.2,129,490,131 M227.2,134.7c0,0.6,0.7,1.7,1.6,2.5c0.9,0.8,1.6,2.1,1.6,2.8s0.5,1.8,1.2,2.3
			c0.6,0.5,1.6,2.2,2.1,3.7c0.5,1.5,1.2,2.7,1.6,2.7c0.4,0,1.2,1.3,2,3c0.7,1.6,2.2,4.4,3.3,6.2c1.1,1.8,2.5,4.3,3.2,5.6
			c0.7,1.3,2.3,4.2,3.6,6.4s2.8,5.1,3.5,6.4c0.7,1.3,2.1,3.8,3.2,5.6s2.7,4.6,3.6,6.4c3.5,6.8,4,7.4,4,5.5c0-2.6-0.8-4.3-2.1-4.3
			c-0.6,0-1.1-0.8-1.1-1.9c0-1.1-0.9-3-2-4.3c-1.1-1.3-2-2.9-2-3.5c0-0.6-0.7-1.8-1.6-2.6c-0.9-0.8-1.6-2.1-1.6-2.8
			c0-0.7-0.7-2-1.5-2.7c-0.8-0.8-1.7-2.4-2-3.7c-0.3-1.3-1-2.4-1.6-2.4c-0.7,0-1.4-1.2-1.7-2.8c-0.3-1.6-1.2-3.2-2.1-3.6
			c-0.9-0.5-1.6-1.7-1.6-2.8c0-1.1-0.7-2.7-1.6-3.6c-0.9-0.9-1.6-2.1-1.6-2.7s-0.7-2-1.5-3c-0.8-1-1.7-2.7-2-3.6
			c-0.3-0.9-1-1.9-1.7-2.2c-0.6-0.2-1.4-1.6-1.6-3.1C230.3,135.5,227.2,132.4,227.2,134.7 M501.7,152.8c0.7,0.4,1.5,2,1.8,3.5
			s1,3.2,1.7,3.7c0.6,0.5,1.2,1.4,1.2,1.8c0,0.5,0.7,2.3,1.6,4.1c0.9,1.8,1.9,4.7,2.3,6.5l0.7,3.2l0.1-4.2c0.1-3.4-0.2-4.4-1.5-5.2
			c-1-0.6-1.6-1.9-1.6-3.1c0-1.2-0.6-2.8-1.4-3.5c-0.8-0.8-1.8-2.7-2.2-4.3c-0.5-1.9-1.4-2.9-2.4-3.1
			C500.6,152,500.6,152,501.7,152.8 M511.2,176.7c0,0.4,0.3,0.9,0.6,1.3c0.3,0.3,1,2.1,1.5,3.9l0.9,3.3l0.1-3.6c0-2-0.4-4.1-0.9-4.6
			C512.3,175.8,511.2,175.7,511.2,176.7 M514.4,189.3c0,0.3,0.6,1.2,1.4,2.1c0.9,1,1.5,3.5,1.8,7.2c0.4,4.6,2.4,9.3,2.4,5.5
			c0-0.5-0.4-0.9-0.8-0.9s-0.8-1.5-0.8-3.4c0-5.7-0.9-9.4-2.5-10.3C515.1,189.1,514.4,189,514.4,189.3 M123.4,194.6
			c-0.6,0.6-0.9,3.5-0.8,8.2l0.1,7.2l0.6-6.1c0.3-3.3,1-6.8,1.5-7.7C126.1,193.5,125.4,192.5,123.4,194.6 M263.1,198
			c0.9,1.2,1.7,2.7,1.7,3.3c0,0.6,0.7,2.1,1.5,3.3c2.3,3.4,4.4,6.8,5.5,9c2.8,5.5,3.4,6.2,3.4,4.2c0-1-0.7-2.5-1.5-3.3
			c-0.8-0.8-1.8-2.6-2.1-4c-0.3-1.4-1.2-2.9-2.1-3.3c-0.8-0.5-1.5-1.5-1.5-2.3c0-0.8-0.5-1.9-1.2-2.5c-0.7-0.5-1.5-2.1-1.9-3.5
			c-0.4-1.5-1.3-2.6-2.1-2.8C261.5,195.9,261.5,196,263.1,198 M120.8,213.6c-0.6,0.4-0.9,1-0.6,1.3c0.3,0.3,1,0.2,1.5-0.3
			C123,213.4,122.3,212.7,120.8,213.6 M276.1,221.3c0.7,0.8,1.6,2.4,1.9,3.5c0.3,1.1,1.1,2.5,1.6,3.2c0.6,0.7,1.4,2.1,1.9,3.2
			c0.5,1.1,1.9,3.6,3.2,5.6c1.3,2,3.7,6.1,5.3,9.2c1.6,3.1,3.8,7,4.9,8.8c1,1.8,2.6,4.6,3.5,6.4c2.6,5.1,4,6.8,4,4.5
			c0-1-0.7-2.4-1.6-3.1c-0.9-0.8-1.6-2-1.6-2.7c0-0.8-0.3-1.6-0.7-1.8c-0.4-0.2-1.5-2.1-2.4-4c-0.9-2-2.1-3.6-2.5-3.6
			s-0.8-0.7-0.8-1.5c0-0.8-0.9-2.6-2-3.9c-1.1-1.3-2-3.1-2-4.1c0-0.9-0.7-2.1-1.6-2.7c-0.9-0.5-1.6-1.6-1.6-2.3s-0.9-2.5-2-4
			s-2-3.2-2-3.7c0-0.6-0.6-1.3-1.3-1.7c-0.7-0.4-1.5-1.9-1.8-3.4c-0.4-1.8-1.1-2.8-2.1-3C274.9,219.8,274.9,219.9,276.1,221.3
			 M335.8,257.7c-0.8,0.4-1.4,1.4-1.4,2.2c0,0.8-0.7,2.1-1.6,2.9c-0.9,0.8-1.6,2-1.6,2.8c0,0.7-0.9,2.5-2,4c-1.1,1.5-2,3.2-2,3.8
			c0,0.6-0.7,1.8-1.6,2.6c-0.9,0.9-1.6,2.5-1.6,3.6c0,1.2-0.7,2.3-1.6,2.8c-1,0.5-1.6,1.6-1.5,3c0,2.1,0.1,2.1,0.8,0.4
			c0.4-1,1.1-1.8,1.5-1.8c0.4,0,1-1.1,1.3-2.4s0.9-2.6,1.3-2.9c0.4-0.3,1.5-2,2.3-3.9s1.9-3.7,2.3-4c0.5-0.3,0.9-1.2,0.9-2
			s0.7-2.3,1.6-3.3s1.6-2.3,1.6-2.8c0-0.5,0.8-1.9,1.7-3.1C338,257.3,337.9,256.5,335.8,257.7 M302.4,268.4c0,0.2,0.6,1.4,1.4,2.6
			c2.7,4.1,3.4,5.4,4.7,8.4c0.7,1.6,1.6,3,1.9,3c0.3,0,1.2,1.4,1.9,3s1.8,3.9,2.5,5s1.3,2.4,1.4,2.8c0.3,0.8,4.5-3.5,4.5-4.6
			c0-0.3-0.7-0.2-1.6,0.2s-1.6,1.4-1.6,2c0,0.6-0.4,1.2-0.8,1.2s-0.8-0.9-0.8-2s-0.7-2.6-1.6-3.4c-0.9-0.8-1.6-2-1.6-2.8
			c0-0.8-0.7-1.8-1.6-2.3c-0.9-0.5-1.6-1.7-1.6-2.8c0-1.1-0.7-2.6-1.5-3.4c-0.8-0.8-1.8-2.3-2.1-3.4
			C305.1,269.1,302.4,266.4,302.4,268.4 M122.5,278.5c-0.1,5.3,0.2,7.1,1.1,7.9c1.6,1.3,2.5,0.4,1.2-1.2c-0.6-0.7-1.3-4-1.6-7.4
			l-0.6-6.2L122.5,278.5 M518,276.2c-0.2,0.5-0.5,3.6-0.7,6.7c-0.2,3.1-0.9,6.9-1.7,8.3c-1.5,3-1.4,3.6,0.5,2.2
			c1-0.7,1.5-2.9,1.9-8.8c0.3-4.3,0.8-7.8,1.2-7.8s0.7-0.4,0.7-0.8C520,274.9,518.4,275,518,276.2 M125.7,291.8
			c-0.1,3.2,0.2,4.4,1.4,5.2c1.1,0.8,1.6,2.4,1.9,6.5c0.3,3.3,0.9,6,1.7,6.9c0.7,0.8,1.5,2.6,1.8,4c0.3,1.4,1.2,2.9,2,3.4
			c1.1,0.6,1.5,1.7,1.5,4.4c0,2.5,0.5,4,1.6,5.2c0.9,0.9,1.6,1.9,1.6,2.4c0,0.4,0.7,1.2,1.5,1.8c0.9,0.7,1.7,2.5,2.1,4.8
			c0.3,2.1,1.2,4.3,2.1,5.1c0.8,0.8,1.5,1.8,1.5,2.4c0,0.6,0.7,1.3,1.6,1.5c1.1,0.3,1.6,1.2,1.6,2.7c0,1.3,0.8,2.9,1.8,3.9
			c3.3,3.1,5.4,6,5.4,7.5c0,0.8,0.7,2,1.6,2.5c0.9,0.5,1.6,1.5,1.6,2s0.6,1.3,1.3,1.5c0.7,0.3,1.6,1.3,2,2.4c0.4,1,1.3,1.9,1.9,1.9
			c0.7,0,1.2,0.5,1.2,1.2c0,0.7,0.9,1.6,2,2c1.3,0.5,2,1.4,2,2.6c0,1,0.9,2.7,2,3.6c1.1,1,2,2.1,2,2.5c0,0.4,0.7,1,1.5,1.2
			c0.8,0.3,1.7,1.2,1.9,2.1c0.3,1.1,1.1,1.6,2.7,1.6l2.3,0l-2.4-1.5c-2.5-1.6-9.1-8.8-9.1-10c0-0.4-1.5-2.2-3.4-4
			c-1.9-1.8-4.2-4.4-5.2-5.7c-4.8-6.3-5.8-7.9-5.8-8.7c0-0.5-1.3-2.1-2.8-3.6c-1.5-1.5-3-3.7-3.3-4.8c-0.3-1.1-1.1-2.7-1.8-3.6
			c-3.3-4-5-7.1-5.4-9.6c-0.2-1.5-1.1-3.3-1.9-4.1c-0.8-0.7-1.5-1.8-1.5-2.3c0-0.5-0.7-1.8-1.6-2.8c-0.9-1-1.6-3-1.6-4.4
			c0-1.5-0.6-3.1-1.6-4c-0.9-0.8-1.6-2.3-1.6-3.3c0-1-0.7-3-1.6-4.5c-0.9-1.5-1.8-4.6-2.1-7c-0.3-2.4-1.1-5.1-1.8-5.8
			c-0.7-0.8-1.5-3.1-1.8-5.2l-0.5-3.8L125.7,291.8 M513.6,298.8c0,1.1-0.7,3.6-1.5,5.4c-0.8,1.8-1.8,4.5-2.1,5.9
			c-0.3,1.4-1.1,3-1.7,3.5c-0.6,0.5-1.1,1.9-1.2,3.1c0,1.2-0.7,3.2-1.5,4.5c-0.8,1.3-1.9,3.8-2.5,5.4c-0.5,1.6-1.3,3-1.7,3
			c-0.4,0-0.9,1-1.2,2.2c-0.6,2.6-4.9,9.8-5.9,9.8c-0.4,0-0.9,1.2-1.2,2.6c-0.3,1.4-1.2,3.2-2.1,4c-0.9,0.8-1.6,2-1.6,2.7
			c0,0.7-1.4,3-3.2,5.1c-1.8,2.1-3.2,4.2-3.2,4.6c0,1-10.3,13.1-14.5,17c-1.7,1.6-3.1,3.2-3.1,3.7c0,0.9-3.4,4.3-4.4,4.3
			c-0.4,0-1.9,1.4-3.5,3c-4.6,4.9-14.8,13.8-15.9,13.8c-0.5,0-3,1.6-5.4,3.6c-2.4,2-5,3.6-5.6,3.6c-0.7,0-1.9,0.7-2.7,1.5
			c-0.8,0.8-2.5,1.8-3.8,2.1c-1.3,0.3-2.9,1.3-3.4,2.1c-0.6,0.8-1.5,1.5-2.1,1.5c-0.6,0-2,0.7-3.1,1.6c-1.1,0.9-2.6,1.6-3.2,1.6
			c-0.6,0-2,0.7-3.1,1.5c-1,0.8-3.2,1.7-4.8,2c-1.6,0.3-3.5,1.2-4.3,2.1c-0.8,0.9-2.3,1.6-3.4,1.6s-2.6,0.5-3.3,1.1
			c-0.7,0.6-3.1,1.5-5.3,1.9l-4,0.8l3.7,0.1c4.4,0.1,6.3-0.5,6.3-2c0-0.7,0.9-1.1,2.8-1.1c1.9,0,3.1-0.5,3.8-1.6
			c0.5-0.9,1.7-1.6,2.6-1.6c3,0,7.6-1.7,7.6-2.7c0-0.6,1.3-1.3,3.2-1.6c1.8-0.3,3.4-1.1,3.7-1.7c0.3-0.7,0.9-1.2,1.5-1.2
			c0.6,0,1.5-0.7,2.1-1.5c0.6-0.8,2.2-1.8,3.7-2.1c1.4-0.3,3-1.3,3.4-2.1c0.5-1,1.7-1.5,3.3-1.5c1.7,0,2.6-0.4,2.8-1.5
			c0.2-0.8,1.3-1.8,2.3-2c1.1-0.3,1.9-1,1.9-1.6c0-0.6,1.2-1.3,2.8-1.6c1.6-0.3,3.2-1.2,3.6-2.1c0.5-0.9,1.3-1.6,2-1.6
			s1.3-0.7,1.6-1.6c0.3-0.9,1-1.6,1.6-1.6c0.6,0,1.3-0.7,1.6-1.6c0.3-0.9,0.9-1.6,1.3-1.6c1,0,6.3-5.3,6.3-6.4
			c0-0.5,0.9-0.8,1.9-0.8c2.5,0,4.5-2,4.5-4.5c0-1.1,0.4-1.9,0.9-1.9c1.1,0,6.3-5.2,6.3-6.4c0-0.5,0.6-0.8,1.2-0.8
			c0.7,0,1.4-0.6,1.7-1.3c0.3-0.7,2.1-2.9,4-4.8c2.2-2.3,3.5-4.3,3.5-5.5c0-1.2,0.5-2,1.2-2c0.7,0,1.4-0.9,1.7-1.9
			c0.3-1.1,1.2-2.1,2-2.3c1.1-0.3,1.5-1.1,1.5-2.8c0-1.6,0.5-2.7,1.5-3.3c0.8-0.5,1.8-2,2.1-3.4c0.3-1.4,1.2-3.1,2.1-3.7
			c0.8-0.6,1.5-1.4,1.5-1.8c0-0.4,0.7-1.5,1.6-2.4c0.9-0.9,1.6-2.4,1.6-3.4c0-1,0.7-2.4,1.6-3.2c0.9-0.8,1.6-2,1.6-2.9
			s0.8-2.5,1.7-3.7c1-1.3,1.9-3.8,2.1-6.1c0.2-2.4,0.8-3.9,1.4-3.9c1.2,0,2-1.8,2-4.5c0-1.1,0.7-2.7,1.6-3.5
			c1.5-1.5,2.5-9.6,1.2-9.6C513.8,296.8,513.6,297.7,513.6,298.8 M251.3,312.3c-0.6,0.8-0.8,7.9-0.7,24.6c0.2,25.8,0,24.8,5.1,23.6
			l1.9-0.5v-22.6c0-19.2-0.2-22.9-1.2-24.4C254.9,311,252.6,310.7,251.3,312.3 M268.5,312.5c-0.3,0.7-0.5,11.9-0.5,24.8v23.5h2.7
			c5.6,0,5.3,1.4,5.3-23.5c0-21.6-0.1-22.6-1.6-24.3C272.5,310.9,269.2,310.6,268.5,312.5 M255.8,337l0.2,23h-2.4h-2.4v-22.7
			c0-23.5,0.1-24,2.8-23.6C255.6,314,255.6,314.5,255.8,337 M272.3,314.1c1.1,0.4,1.3,3.2,1.3,23.2V360h-2.4h-2.4v-23.2
			C268.8,312.3,268.7,312.7,272.3,314.1 M172.5,325.5c-0.2,0.4,0.1,1.6,0.7,2.7c0.6,1.1,1.6,3.8,2.3,5.9c2.8,8.9,3.9,12,4.9,13.9
			c0.6,1.1,1.5,3.6,2,5.5c1.7,6.2,2.8,7.3,7.6,7.3c4.2,0,4.2,0,4.7-2.7c0.3-1.5,1-3.2,1.7-3.7c0.6-0.5,1.2-1.7,1.2-2.6
			c0-3.1-3,0.8-3.6,4.7l-0.5,3.6H190c-2.4,0-3.6-0.3-3.6-1c0-0.6-0.7-1.8-1.5-2.6c-0.8-0.9-1.7-3.2-1.9-5.1c-0.3-1.9-1-3.9-1.6-4.4
			c-0.6-0.5-1.4-2.5-1.7-4.5c-0.3-2-1.3-4.5-2.1-5.5s-1.6-2.8-1.6-4.1c0-2.5-1.3-5.4-2.7-6.4c-0.5-0.3,0.8-0.6,2.8-0.6
			c3.9,0,4.7,0.8,4.7,5.5c0,1,0.7,2.8,1.6,3.9c1.9,2.5,2.2,0.8,0.4-3.2c-0.6-1.4-1.4-3.6-1.6-4.8
			C180.8,324.8,173.7,323.5,172.5,325.5 M197.7,328.3c-1,1.9-1.8,4.5-1.8,5.8c0,1.3-0.7,3.9-1.6,5.8c-0.9,1.9-1.6,4.2-1.6,5
			c0,2.2-1.8,5.6-2.7,5.3c-1.2-0.4-4.6-6.9-5.3-10.2c-0.6-2.8-0.6-2.8-0.7,0.9c-0.1,2.5,0.4,4.3,1.4,5.6c0.8,1,1.8,2.7,2.1,3.8
			c1.2,3.7,4.7,2,5.6-2.7c0.4-2.3,1.3-4.7,1.9-5.4s1.3-3.2,1.5-5.5c0.2-2.3,1.1-5,1.9-6.1c0.8-1,1.5-2.6,1.5-3.4
			c0-1.1,0.6-1.5,2.5-1.5c2.9,0,2.8,5.1-0.2,8.1c-1,1-1.5,2.6-1.4,4.5c0.1,2.7,0.1,2.8,0.7,1c0.3-1.1,1.1-2.9,1.7-4
			c1.3-2.3,3.1-9.4,2.5-9.9C203.8,323.3,199.4,325,197.7,328.3 M215.6,326.9c-3.2,2.8-4.5,5.4-3.4,6.6c1.5,1.5,5.2,1,7.3-1.1
			c4.3-4.3,14.7-1,12.7,4c-0.6,1.5-7.9,4.2-13,4.9c-9.1,1.1-13.4,11.6-7.3,17.5c3.2,3.1,11.8,3.3,16.5,0.4l3-1.9l1.4,1.7
			c2.6,3.2,10.6,2.3,8.3-0.9c-0.9-1.3-1.2-4.5-1.3-13.7c-0.1-14.1-0.3-14.9-3.9-17.6C231.9,323.8,219.2,323.8,215.6,326.9
			 M292.8,326.4c-1,0.9-2.4,1.8-3.1,2c-4.2,1.3-6.8,11.4-5.4,20.7c1.9,12.5,21.7,16.8,31,6.7c7.5-8.2,5.2-22.5-4.6-29.2
			C307.1,324.1,295.6,324,292.8,326.4 M327.7,325.5c-0.9,1.5-0.6,25.3,0.4,28.1c2.6,7.7,10,9.8,20.4,5.5c2.2-0.9,2.7-0.8,3.9,0.4
			c0.9,0.9,2.3,1.3,3.9,1.1l2.5-0.2v-17.6v-17.6h-3.2h-3.2l-0.5,10.4c-0.8,15.7-2.6,19.6-9.1,19.6c-6.5,0-7.5-2.2-7.8-17.2
			l-0.2-12.8l-3.3-0.2C329.6,324.8,327.9,325,327.7,325.5 M369.8,325.3c-0.8,0.3-1,4.5-0.9,17.5l0.1,17.1l1.9,0.5
			c4.6,1.2,4.8,0.8,5.3-10.5c0.5-10.6,1.3-13.4,4.7-16.2c0.9-0.8,1-1,0.1-1c-4,0-5.6,4.6-5.6,16.1V360h-2.3h-2.3l-0.1-17.2
			l-0.1-17.2h2.2c1.8,0,2.4,0.5,3,2.6c1,3.5,2.9,3.6,6.3,0.2c3.3-3.3,5.3-3.7,5.3-1c0,1.2-0.7,2.2-2,2.8c-2.9,1.3-2.5,2.7,0.6,2.4
			c2.5-0.2,2.6-0.4,2.8-4.1l0.2-3.8h-2.8c-1.9,0-3.5,0.7-5,2c-1.2,1.1-2.4,2-2.7,2s-1.2-0.9-1.9-2
			C375.2,324.9,372.4,324.3,369.8,325.3 M398.3,327.5c-9.2,7.2-9.1,24.7,0.2,30.9c4.3,2.9,15.8,3.7,19.3,1.3
			c3.2-2.1,6.1-5.2,6.1-6.5c0-2-7.7-1.7-8.8,0.4c-2.5,4.6-15.2,0.3-15.2-5.1c0-3.8,0.8-4.1,13-4.5l11.4-0.4l-0.1-4.2
			c-0.2-6.5-0.8-8-5.2-11.4C413.3,323.4,403.9,323.2,398.3,327.5 M438,326.6c-10.1,7-10.1,28,0.1,33.2c4.9,2.5,15.4,1.7,19.4-1.5
			c3.3-2.6,5.6-8.6,3.6-9.3c-0.6-0.2-0.8,0.4-0.5,1.7c0.3,1.5-0.4,2.8-3.3,5.6l-3.7,3.7h-7.2c-4.4,0-7.2-0.3-7.2-0.8
			c0-0.5-0.9-1.2-2-1.7c-1.1-0.5-2-1.3-2-1.7s-0.6-1.2-1.4-1.8c-2.3-1.7-2.1-19.6,0.3-21.9c0.9-0.9,1.8-1.9,2-2.2
			c1.7-4,14.7-6,18.2-2.8c0.8,0.8,2.6,2.3,4,3.4c3.4,2.7,3.4,5.6,0.1,5.6c-1.3,0-2.4-0.4-2.4-0.9c0-5-12.1-7.8-15-3.3
			c-0.8,1.2-2,2.6-2.6,3.1c-2.1,1.6-2.2,14.1-0.1,16.2c0.9,0.9,1.7,2,1.7,2.5c0,3.2,10.7,3.4,13.7,0.2c2.3-2.5,3.5-5,2.3-5
			c-0.4,0-0.8,0.3-0.8,0.6c0,4.3-10.1,7.7-13,4.4c-9.8-11.2,0.6-31.2,10.6-20.3c3,3.3,6.1,4.3,8.5,2.7c1.8-1.1,0.1-5-3.5-8.2
			l-3.6-3.2l-6.9,0.1C441.7,324.9,440,325.2,438,326.6 M233.6,327.2c0.9,0.9,2.3,1.6,3.2,1.6c1.5,0,1.6,0.5,1.6,13.5
			c0,7.5,0.4,14.5,0.8,15.6c1,2.7-3.7,3.1-5.3,0.5c-0.7-1.2-2.3-1.7-7.2-2.1c-10.2-0.9-12.5-6.1-5.1-11.1c2.4-1.6,10-1.8,10.9-0.3
			c1.4,2.3-1.4,9.2-4.3,10.3c-1.2,0.5-1.2,0.6,0.3,0.6c4.2,0.1,7.6-8.5,4.9-12.2c-1.2-1.7-13.2-0.7-14.2,1.2c-0.3,0.6-1.3,1.9-2.3,3
			c-2.9,3.3,1,10.4,5.7,10.5c0.6,0,1.6,0.4,2.3,0.8c0.8,0.5-0.7,0.8-4.9,0.8c-5.4,0-6.2-0.2-6.5-1.6c-0.2-0.9-1-1.6-1.7-1.6
			c-1,0-1.3-0.9-1.3-4.2c0-6.9,3.3-9.7,12.1-10.5c5.4-0.4,6.9-0.8,7.8-2.1c0.6-0.9,1.6-1.6,2.1-1.6c2.4,0,2.2-4.6-0.2-7.4
			c-1.9-2.2-13-2-13.5,0.2c-0.7,2.6-5,2.2-5-0.4c0-1.3,0.5-2,1.2-2c0.7,0,1.8-0.7,2.6-1.6c1.2-1.4,2.4-1.6,8-1.6
			C230.9,325.6,232.3,325.9,233.6,327.2 M308.3,326.7c0.2,0.6,1.5,1.4,2.9,1.7c1.4,0.3,2.5,1.1,2.5,1.7c0,0.6,0.5,1.4,1.2,1.6
			c5.4,2.1,2.9,25.1-2.7,25.1c-0.4,0-1.3,0.7-2.1,1.6c-1.2,1.4-2.5,1.6-8.4,1.6s-7.2-0.2-8.4-1.6c-0.8-0.9-2.1-1.6-2.9-1.6
			s-1.5-0.5-1.5-1.1c0-0.6-0.8-1.6-1.7-2.2c-2.5-1.7-2.6-17.3-0.1-20.1c0.9-1,1.8-2.4,2.1-3.2c0.3-0.8,1.2-1.4,2.1-1.4
			c0.9,0,2.2-0.7,3-1.6C295.9,325.2,307.5,324.8,308.3,326.7 M334.4,339c0,16.1,0.1,16.3,6.9,16.8c5.4,0.4,9.1-0.7,9.1-2.7
			c0-0.7,0.6-2.1,1.4-2.9c1.2-1.3,1.4-3.5,1.7-13.1l0.3-11.5h2.3h2.3v17.2V360h-2.3c-1.6,0-2.4-0.5-2.7-1.6
			c-0.3-1.2-1.1-1.6-3.3-1.6c-1.9,0-3.4,0.5-4.3,1.6c-1.1,1.3-2.3,1.6-6.6,1.6c-9,0-10.3-2.8-10.4-23l0-11.4h2.8h2.8V339
			 M415.8,327.2c1.1,0.9,2.5,1.6,3.1,1.6c0.6,0,1.1,0.5,1.1,1.2s0.6,1.5,1.4,1.9c1,0.6,1.4,2.2,1.7,6l0.3,5.3h-11.1
			c-12.5,0-13.1,0.2-13.1,5.1c0,7,11.8,11.1,17.3,6c1.2-1.1,2.6-1.6,4.3-1.4l2.5,0.3l-1.8,1.8c-5.4,5.2-5,5-12.4,5
			c-4.8,0-7.3-0.3-8.2-1.1c-5.9-5.3-6.2-5.7-6.8-10.1c-1.1-8-0.2-15.6,2.1-17.1c0.8-0.5,1.5-1.4,1.5-1.9s0.9-1.2,1.9-1.5
			c1.1-0.3,2.1-1,2.4-1.6C402.6,324.8,413.2,325.2,415.8,327.2 M293.1,333.3c-3.6,4.4-4.6,14.5-1.7,17.6c0.7,0.8,2.1,2.3,3.1,3.3
			c1.9,2.1,13.5,2.4,14.1,0.4c0.2-0.5,1.2-1.9,2.3-3.1c1.9-2.1,2-2.6,1.8-9.1c-0.4-9.7-3.2-12.8-11.3-12.8h-5.3L293.1,333.3
			 M402.7,331.1c-0.2,0.8-1.1,1.7-1.9,1.9c-1.8,0.5-2.1,5-0.5,7.2c1.5,2.1,15.7,2.1,17.2,0c1.6-2.2,1.2-5.4-1-7.3
			c-1.1-1-2-2.1-2-2.5C414.4,328.7,403.1,329.4,402.7,331.1 M306.1,332c12.3,7.6,3.3,29.1-9.3,22.3c-6.3-3.4-7.1-21.6-0.9-21.6
			c0.5,0,1-0.3,1-0.7C296.8,330.1,302.8,330,306.1,332 M414.2,333.1c5,4.6,1.1,8.4-7.5,7.3c-6.5-0.8-8-3.4-4.3-7.3
			C406.1,329.3,410,329.3,414.2,333.1 M199,343c-0.8,0.9-1.4,2.7-1.3,4.3l0.1,2.7l0.7-2.3c0.4-1.2,1.1-2.8,1.6-3.4
			C201.5,342.6,200.5,341.3,199,343 M184,388.6c0,0.5,0.7,1.1,1.5,1.3c0.8,0.3,1.7,1.2,1.9,2.1c0.2,0.9,1,1.6,1.6,1.6
			c0.7,0,1.4,0.7,1.7,1.5c0.3,0.8,1.2,1.7,2.1,1.9c0.9,0.2,1.6,1,1.6,1.7c0,0.7,0.5,1.3,1.2,1.3c0.7,0,1.6,0.7,2.2,1.6
			c0.5,0.9,1.3,1.6,1.7,1.6c0.4,0,1.4,0.9,2.3,2c1,1.3,2.4,2,3.8,2c1.6,0,2.4,0.5,2.7,1.6c0.3,1.2,1,1.6,2.7,1.5
			c1.9-0.1,2-0.2,0.5-0.5c-1-0.2-2.2-1-2.6-1.9c-0.5-0.8-1.5-1.5-2.2-1.5c-0.8,0-2.6-1.2-4.2-2.7c-1.5-1.5-3.4-3-4.1-3.4
			c-0.7-0.4-3.6-2.9-6.4-5.5C185.3,388.7,184,387.6,184,388.6 M214.7,411.5c0.3,0.8,0.5,1.6,0.5,1.8c0,0.2,0.5,0.3,1.2,0.3
			c0.6,0,1.5,0.7,2,1.5c0.5,0.8,2,1.8,3.4,2.1c1.4,0.3,3.3,1.2,4,2.1c0.8,0.8,2.4,1.5,3.6,1.4c1.8-0.1,1.8-0.2,0.5-0.4
			c-0.9-0.2-2.4-1-3.1-1.9c-0.8-0.9-2-1.6-2.8-1.6c-0.7,0-2.2-0.7-3.2-1.6c-1-0.9-2.1-1.6-2.5-1.6c-0.4,0-1.4-0.8-2.4-1.8
			C214.5,410.3,214.3,410.3,214.7,411.5 M232.1,422c0.2,1.1,1.3,1.8,3.4,2.3c1.7,0.4,3.8,1.4,4.6,2.2c1,1,2.6,1.5,4.9,1.5
			c2.5,0,3.7,0.4,4.4,1.6c0.7,1.1,1.9,1.6,3.6,1.6c1.7,0,2.9,0.5,3.6,1.6c0.8,1.3,1.8,1.6,6,1.5l5-0.1l-4.4-0.9
			c-2.4-0.5-5.2-1.4-6.1-1.9c-1-0.5-2.4-1-3.3-1c-0.8,0-2.4-0.7-3.5-1.5s-3.5-1.8-5.5-2.1s-4.5-1.3-5.5-2.1c-1-0.8-2.5-1.5-3.1-1.5
			s-1.9-0.6-2.8-1.4C231.9,420.5,231.8,420.5,232.1,422 M382.7,432c-0.4,0.4-2.2,1.1-3.9,1.5l-3.2,0.7l3.8,0.1
			c2.8,0.1,4-0.3,4.3-1.2C384.3,431.6,383.8,431,382.7,432 M269.7,435.9c0.9,1.5,6.3,2.5,13.5,2.5c1.7,0,3.2,0.4,3.4,1
			c0.2,0.6,0.6,0.8,0.9,0.5c1.4-1.3-0.7-2-6.7-2.5c-3.5-0.2-7.5-1-8.9-1.7C268.7,434.1,268.6,434.1,269.7,435.9 M371.6,435.1
			c-1.2,1.1-7.9,2.5-11.9,2.5c-2,0-3.8,0.4-4.1,0.9c-0.7,1.1,0.4,2.1,1.1,1c0.3-0.5,3.6-1.1,7.4-1.4c8.1-0.7,9.3-1,9.9-2.5
			C374.4,434.3,372.8,434,371.6,435.1"/>
	</g>
</g>
<g id="Layer_2">
	<g>
		<path class="st7" d="M639,296.4V118H1v71.2h48.4v107.2H639z"/>
		<path class="st2" d="M336.2,136.5v141.4h100.7l64.4-141.4h-90v106.9h-18.8V136.5H336.2L336.2,136.5z M522.6,136.5h98.3v141.4
			h-56.4V170.4h-18.8v107.5h-89.3L522.6,136.5z M21,135.9v34.5h50.2v107.5h57.3V170.4h51.8v-34.5H21z"/>
		<path class="st2" d="M200.3,135.9h116.5v34.5h-79.5v18.8h79.5v34.2h-79.5v19.1h79.5v35.4H149.2v-88.7h51.1V135.9z"/>
		<path d="M58.3,343.5c0-3.1,0-5.9-0.3-8.6c-2.8,0-6.5,0-8.9,0.3c0.3-0.3,0.3-0.9,0.3-1.2c0-0.6,0-0.9-0.3-1.2h21.6v2.5
			c-2.2-0.3-5.9-0.3-8.9-0.3v15.7c0,3.7,0,7.4,0.3,10.8h-4c0-3.4,0.3-7.1,0.3-10.8L58.3,343.5L58.3,343.5z M75.5,343.5
			c0-3.7,0-7.4-0.3-10.8h15.1v2.5c-3.4-0.3-5.5-0.6-11.1-0.6v10.8c4.9,0,7.7-0.3,10.2-0.3c0,0.3-0.3,0.9-0.3,1.2
			c0,0.3,0.3,0.9,0.3,1.2c-3.1-0.3-8.3-0.3-10.2-0.3v12.3c3.7,0,8.6,0,11.4-0.6c-0.3,0.3-0.3,0.9-0.3,1.2c0,0.6,0,0.9,0.3,1.2H75.2
			c0.3-3.4,0.3-7.1,0.3-10.8V343.5z M93.1,332.7h4.6c2.5,7.4,5.9,16,9.5,24.6c3.1-6.8,7.7-19.4,9.2-24.6h3.4
			c-4.6,9.6-8.6,19.1-12.3,28.6h-2.8C101.2,351.7,97.3,342.2,93.1,332.7L93.1,332.7z M132.8,332.1c4,9.6,10.5,25,12.6,29.3h-4.6
			c-0.6-2.8-2.8-7.4-4.3-11.1h-10.5c-1.8,4.3-3.4,8.6-4,11.1H119c4.4-9.7,8.7-19.5,12.9-29.3L132.8,332.1L132.8,332.1z M131.3,337.7
			l-4.3,10.8h8.9L131.3,337.7z M161.8,343.5c0-3.7,0-7.4-0.3-10.8h9.2c2.5,0,9.2,0,9.2,6.8c0,7.4-7.4,8.9-11.4,8.9h-3.4v2.2
			c0,3.7,0.3,7.4,0.3,10.8h-4c0.3-3.4,0.3-7.1,0.3-10.8L161.8,343.5L161.8,343.5L161.8,343.5z M165.2,346.6c0.9,0.3,2.2,0.3,3.1,0.3
			c3.4,0,7.7-1.2,7.7-7.1c0-4.6-2.5-5.5-6.8-5.5h-4V346.6z M206.2,343.5c0-3.7-0.3-7.4-0.3-10.8h4c-0.3,3.4-0.3,7.1-0.3,10.8v7.1
			c0,3.7,0,7.4,0.3,10.8h-4c0-3.4,0.3-7.1,0.3-10.8v-3.7h-17.6v3.7c0,3.7,0,7.4,0.3,10.8h-4c0-3.4,0.3-7.1,0.3-10.8v-7.1
			c0-3.7-0.3-7.4-0.3-10.8h4c-0.3,3.4-0.3,7.1-0.3,10.8v1.2c2.8,0.3,5.9,0.3,8.6,0.3c3.1,0,5.9,0,8.9-0.3V343.5L206.2,343.5z
			 M228.3,332.1c4,9.6,10.2,25,12.6,29.3h-4.6c-0.6-2.8-2.8-7.4-4.3-11.1h-10.5c-1.9,4.3-3.4,8.6-4,11.1h-3.1
			c4.3-9.5,8.6-19.4,12.9-29.3L228.3,332.1L228.3,332.1z M226.8,337.7l-4.6,10.8h9.2L226.8,337.7L226.8,337.7z M245.6,343.5
			c0-3.7,0-7.4-0.3-10.8h9.5c4.9,0,8.6,1.5,8.6,6.5c0,5.5-5.2,7.7-8.3,8c1.8,2.5,8.9,11.4,11.4,14.2h-4.9
			c-1.8-2.5-7.4-10.2-10.8-13.9H249v3.1c0,3.7,0.3,7.4,0.3,10.8h-4c0.3-3.4,0.3-7.1,0.3-10.8L245.6,343.5L245.6,343.5L245.6,343.5z
			 M249,345.7c0.9,0.3,1.8,0.3,3.1,0.3c3.4,0,7.7-1.2,7.7-6.5c0-4.3-3.4-5.2-6.5-5.2h-4c0,3.1-0.3,6.2-0.3,9.2L249,345.7L249,345.7
			L249,345.7z M273.9,332.1c3.7,7.7,7.7,15.1,12,23.1c1.5-3.4,8.3-15.4,12.3-23.1h0.6c1.2,10.8,2.2,19.7,3.4,29.3h-3.7
			c-0.6-7.4-1.2-14.5-2.2-21.6c-4,7.1-7.7,13.9-11.1,21.6H285c-3.4-7.1-7.1-14.2-10.8-21.6c-0.9,7.1-2.2,16.9-2.2,21.6h-2.8
			c1.2-9.2,3.1-20.3,4-29.3L273.9,332.1L273.9,332.1z M318.9,332.1c4.3,9.6,10.5,25,12.6,29.3h-4.3c-0.9-2.8-2.8-7.4-4.3-11.1h-10.8
			c-1.5,4.3-3.1,8.6-4,11.1h-3.1c4.6-9.5,8.9-19.4,13.2-29.3L318.9,332.1L318.9,332.1z M317.7,337.7l-4.6,10.8h9.2L317.7,337.7
			L317.7,337.7z M356.8,359.5c-0.9,0.9-4.6,2.5-8.6,2.5c-8.9,0-15.4-5.5-15.4-15.1c0-9.2,6.5-14.8,15.7-14.8c3.7,0,6.8,0.9,9.2,1.9
			c-0.6,0.6-0.9,2.5-0.9,3.4h-0.3c-1.2-1.2-4-3.7-8-3.7c-6.5,0-11.4,4-11.4,13.2c0,9.6,4.9,13.6,11.4,13.6c4,0,7.1-2.2,8.6-3.4
			L356.8,359.5L356.8,359.5z M363.3,343.5c0-3.7-0.3-7.4-0.6-10.8h15.1v2.5c-3.4-0.3-5.5-0.6-11.1-0.6v10.8c4.9,0,7.7-0.3,10.2-0.3
			c0,0.3-0.3,0.9-0.3,1.2c0,0.3,0.3,0.9,0.3,1.2c-3.1-0.3-8.3-0.3-10.2-0.3v12.3c3.7,0,8.6,0,11.4-0.6c-0.3,0.3-0.3,0.9-0.3,1.2
			c0,0.6,0,0.9,0.3,1.2h-15.4c0.3-3.4,0.6-7.1,0.6-10.8V343.5L363.3,343.5z M405.8,332.7h2.8c-0.3,3.7-0.6,11.1-0.6,17.3
			c-0.3,7.4-4.6,12-12,12c-8.3,0-12-3.7-12-12c0-2.5,0.3-4.3,0.3-6.5c0-4.6-0.3-8.6-0.3-10.8h4c-0.3,2.5-0.6,8-0.6,14.2
			c0,5.9,0,13.3,9.6,13.3c8.9,0,8.9-8.6,8.9-13.9V332.7z M422.4,343.5v-8.6c-3.1,0-6.8,0-8.9,0.3V334v-1.2h21.6
			c-0.3,0.3-0.3,0.6-0.3,1.2c0,0.3,0,0.9,0.3,1.2c-2.5-0.3-6.2-0.3-8.9-0.3c-0.3,2.8-0.3,5.5-0.3,8.6v7.1c0,3.7,0.3,7.4,0.3,10.8h-4
			c0.3-3.4,0.3-7.1,0.3-10.8V343.5L422.4,343.5z M440,343.5c0-3.7-0.3-7.4-0.3-10.8h4c0,3.4-0.3,7.1-0.3,10.8v7.1
			c0,3.7,0.3,7.4,0.3,10.8h-4c0-3.4,0.3-7.1,0.3-10.8V343.5L440,343.5z M473.3,359.5c-0.9,0.9-4.6,2.5-8.6,2.5
			c-8.9,0-15.4-5.5-15.4-15.1c0-9.2,6.5-14.8,15.7-14.8c3.7,0,6.8,0.9,9.2,1.9c-0.6,0.6-0.9,2.5-0.9,3.4H473c-1.2-1.2-4-3.7-8-3.7
			c-6.5,0-11.7,4-11.7,13.2c0,9.6,5.2,13.6,11.7,13.6c4,0,6.8-2.2,8.6-3.4L473.3,359.5L473.3,359.5z M488.1,332.1
			c4.3,9.6,10.5,25,12.6,29.3h-4.3c-0.9-2.8-2.8-7.4-4.3-11.1h-10.5c-1.9,4.3-3.4,8.6-4.3,11.1h-3.1c4.6-9.5,8.9-19.4,13.2-29.3
			L488.1,332.1L488.1,332.1z M486.8,337.7l-4.6,10.8h9.2L486.8,337.7z M505.6,343.5c0-3.7-0.3-7.4-0.3-10.8h4
			c0,3.4-0.3,7.1-0.3,10.8c0,7.1,0,12,0.3,16c3.7,0,7.1,0,11.4-0.6c0,0.6-0.3,0.9-0.3,1.2c0,0.6,0.3,0.9,0.3,1.2h-15.4
			c0-3.4,0.3-7.1,0.3-10.8L505.6,343.5L505.6,343.5L505.6,343.5z M525.6,355.8c0.9,2.2,3.1,4.3,6.5,4.3c4,0,6.2-2.5,6.2-5.9
			c0-7.7-13.2-4.6-13.2-14.5c0-4.6,3.4-7.7,9.2-7.7c2.5,0,4.3,0.6,6.2,1.9c-0.6,0.9-0.9,1.8-1.2,3.7h-0.6c-0.6-1.5-1.9-4-4.9-4
			c-3.1,0-5.2,2.2-5.2,5.2c0,7.7,12.9,4.3,12.9,13.9c0,4.9-3.7,9.2-10.2,9.2c-3.4,0-5.2-1.2-6.8-2.5c0.3-1.2,0.6-2.2,0.6-3.7
			L525.6,355.8L525.6,355.8L525.6,355.8z M580.8,332.7h2.8c-0.3,3.7-0.6,11.1-0.6,17.3c0,7.4-4.3,12-12,12c-8.3,0-12-3.7-12-12
			c0-2.5,0.3-4.3,0.3-6.5c0-4.6-0.3-8.6-0.3-10.8h4c-0.3,2.5-0.6,8-0.6,14.2c0,5.9,0,13.3,9.6,13.3c9.2,0,9.2-8.6,9.2-13.9
			C581.1,338.3,581.1,334.3,580.8,332.7z M591,355.8c0.9,2.2,2.8,4.3,6.5,4.3c3.7,0,5.8-2.5,5.8-5.9c0-7.7-12.9-4.6-12.9-14.5
			c0-4.6,3.4-7.7,8.9-7.7c2.8,0,4.6,0.6,6.2,1.9c-0.3,0.9-0.6,1.8-0.9,3.7h-0.6c-0.6-1.5-1.9-4-4.9-4c-3.1,0-5.5,2.2-5.5,5.2
			c0,7.7,13.2,4.3,13.2,13.9c0,4.9-3.7,9.2-10.2,9.2c-3.7,0-5.5-1.2-7.1-2.5c0.6-1.2,0.6-2.2,0.9-3.7L591,355.8L591,355.8L591,355.8
			z M623.3,332.1c4,9.6,10.2,25,12.6,29.3h-4.6c-0.6-2.8-2.8-7.4-4.3-11.1h-10.5c-1.8,4.3-3.4,8.6-4,11.1h-3.4
			c4.6-9.5,8.9-19.4,13.2-29.3L623.3,332.1L623.3,332.1z M621.8,337.7l-4.6,10.8h9.2L621.8,337.7L621.8,337.7z"/>
	</g>
</g>
</svg>
