<?xml version="1.0" encoding="utf-8"?>
<!-- Generator: Adobe Illustrator 22.1.0, SVG Export Plug-In . SVG Version: 6.00 Build 0)  -->
<svg version="1.1" id="Layer_4" xmlns="http://www.w3.org/2000/svg" xmlns:xlink="http://www.w3.org/1999/xlink" x="0px" y="0px"
	 viewBox="0 0 640 480" style="enable-background:new 0 0 640 480;" xml:space="preserve">
<style type="text/css">
	.st0{fill:#064974;}
	.st1{fill:#EAA65D;}
</style>
<g>
	<path class="st0" d="M380.8,65.7c-10.1,15.9-18.3,29.1-27.2,42.7c-31.1,48.6-62.2,97.1-93.6,145.3c-15.9,24.1-14,68,26.4,81.6
		c23.3,7.8,47.8,12,72.3,16.3c45.5,7.8,91.3,14,137.2,20.6c36.1,5.4,72.3,10.5,108.4,15.2c20.2,2.7,23.3,4.7,35.7,27.2
		c-213.3,0-425.5,0-640,0c17.1-19.8,32.6-38.1,48.6-56.3c57.1-66.1,114.2-132.1,171.8-198.2c25.3-29.1,50.9-58.7,76.2-87.8
		c4.3-5.1,8.5-7,15.5-7C334.2,66.1,355.9,65.7,380.8,65.7z"/>
	<path class="st1" d="M608.9,373.5c-18.3-3.5-35.4-7-52.1-10.1c-70.3-14.4-140.7-28.8-211-43.5c-3.1-0.8-7.4-3.9-7.8-6.6
		c-1.2-5.4,1.9-8.5,8.5-9.7c36.9-5.8,74.2-12,111.1-18.3c23.3-3.9,46.6-7.8,69.9-11.3c3.5-0.4,8.5,0.8,10.5,3.1
		c22.9,29.9,45.9,60.2,68.4,90.5C607,368.8,607.4,370.4,608.9,373.5z"/>
	<path class="st1" d="M389.8,80.5c20.6,27.6,40,53.2,60.2,80c-2.7,1.9-4.7,3.9-7,5.4c-41.2,25.6-82.4,51.3-123.2,77.3
		c-7,4.3-10.9,1.9-15.9-3.9C331.9,187,360.2,134.9,389.8,80.5z"/>
	<path class="st1" d="M521.9,255.7c-14.4,1.9-26.8,3.5-39.2,5.1c-45.1,5.8-90.2,11.3-135.2,16.7c-3.5,0.4-7.8,1.2-11.3,0
		c-5.4-1.9-5.4-10.5,0-14.4c39.6-28,79.7-55.6,119.3-83.2c1.9-1.6,7.8-1.2,8.9,0.4C483.4,204.8,501.7,229.3,521.9,255.7z"/>
</g>
</svg>
