<svg id="Layer_1" data-name="Layer 1" xmlns="http://www.w3.org/2000/svg" viewBox="0 0 640 480"><defs><style>.cls-1{fill:#0295d7;}</style></defs><title>Artboard 1</title><path class="cls-1" d="M318.64,445.24c-8.86,5.21-17.11,10.65-25.86,15.09a158.84,158.84,0,0,1-86.59,16.81c-71.46-6-131.78-57.25-146.58-126.78C45.68,284.73,65.46,229.74,116.29,186A142.89,142.89,0,0,1,151,164.47a4.39,4.39,0,0,0,3-4.47A158.11,158.11,0,0,1,180.4,76.37c23.76-36,56.68-59.5,98.44-70,88-22.13,178.85,33.68,199,122.08a151.74,151.74,0,0,1,4.1,31.5,4.47,4.47,0,0,0,3,4.47c48,23.1,79.41,60.3,91.42,112.21,12.14,52.5.3,100.29-33.87,142-22.37,27.28-51.1,45.09-85.27,54A163.92,163.92,0,0,1,320,446.3C319.52,445.85,318.87,445.43,318.64,445.24ZM465.38,156.46c-1.49-38.09-22.52-90.17-75.17-119.67a146.43,146.43,0,0,0-160,10.2c-36.41,27.3-55.9,64.14-59.84,109.59,6.32-1.49,12-3.1,17.9-4.22a154.47,154.47,0,0,1,46.64-2.16,4.47,4.47,0,0,0,5-2.58c4.22-6.86,8.5-13.72,13.2-20.26,9.81-13.68,20.88-26.16,35.54-35s30-11.41,46.37-5.85c11.43,3.88,20.88,10.81,29.47,19.09,12.69,12.25,22.7,26.56,31.58,41.76a4.94,4.94,0,0,0,5.62,2.8,153.09,153.09,0,0,1,47.12,2.42c5.5,1.09,11,2.55,16.51,3.86Zm27.89,283.23A147.29,147.29,0,0,0,563,292.89a144.43,144.43,0,0,0-35.2-76.62,146.32,146.32,0,0,0-46.1-35.36c-.49,3.71-.84,7.07-1.37,10.44a162.49,162.49,0,0,1-31.08,73.09,4.85,4.85,0,0,0-.89,5.06c15.68,47.66,28.44,96.1,39.36,145,1.88,8.26,3.68,16.63,5.56,25.19ZM154.56,181.23c-39.2,17.9-82.65,64.88-82.86,132.08a147.89,147.89,0,0,0,71,126.44,5.14,5.14,0,0,0,.4-.79q1.49-6.59,2.86-13.17a1567.43,1567.43,0,0,1,42-156.61,4.47,4.47,0,0,0-.72-4.39c-5-7.59-10.25-15-14.56-23A157.63,157.63,0,0,1,154.56,181.23ZM331.31,434.05a138.36,138.36,0,0,0,24.21,14,147.58,147.58,0,0,0,120.58.78c1.24-.54,2.09-1,1.73-2.74a1545.8,1545.8,0,0,0-40.9-158.84c-.63-2-1.28-3.91-2-6a4,4,0,0,0-.67.37,167.76,167.76,0,0,1-49,33.87,3.73,3.73,0,0,0-1.64,2.63c-.79,7.16-1,14.41-2.15,21.52a160.67,160.67,0,0,1-38.14,81.42C339.58,425.59,335.4,429.69,331.31,434.05ZM201,281.7c-.12.31-.34.87-.52,1.49a1523,1523,0,0,0-42,161.91c-.48,2.33,0,3.21,2.12,4.12a147.38,147.38,0,0,0,114.24,1.39,143.94,143.94,0,0,0,30-16.56c-1.77-1.77-3.48-3.43-5.13-5.13-29.83-30.76-45.69-67.49-47.28-110.38a3.09,3.09,0,0,0-2.15-3.19,142.25,142.25,0,0,1-28.06-16.29C215.09,293.52,208.25,287.56,201,281.7Zm117.07-78.23a147.52,147.52,0,0,0-48.92,99.47c-.1,1.4,0,2.3,1.61,2.83a145.83,145.83,0,0,0,75.37,5c7-1.39,13.93-3.48,21-5.27-2.92-40.72-19.3-74.41-49-102Zm.12,220.07c29.34-27.24,45.78-60.66,48.83-101.08a163.91,163.91,0,0,1-97.67.15c-2.3,29.2,22.63,80.66,48.88,100.93Zm64.85-125.11c1.58-.82,2.86-1.49,4.12-2.12a153.54,153.54,0,0,0,38.35-29.16c2.6-2.67,3.25-4.82,1.92-8.52-10.77-30-22.37-59.66-37-88a2.83,2.83,0,0,0-3.55-1.85l-.17.06a147.81,147.81,0,0,0-40,14.66c-5.31,3-10.44,6.23-15.86,9.5,30.4,28.89,47.77,63.72,52.23,105.42Zm-130.12,0c4.47-41.63,21.82-76.53,51.92-105.23-.64-.51-1.09-.88-1.49-1.21a147,147,0,0,0-52.62-22.84c-3.88-.85-3.89-.84-5.71,2.7-14.92,29-26.77,59.3-37.29,90.12a3.28,3.28,0,0,0,.73,2.79c5.53,5.38,10.95,10.92,16.82,15.9A130.18,130.18,0,0,0,253,298.41Zm128-145.11c-3.65-5.49-6.89-10.66-10.44-15.63-7.86-11.05-16.53-21.39-27.85-29.12-15.83-10.81-31.84-11.32-48.06-.78a92.48,92.48,0,0,0-19.39,17.54,194.47,194.47,0,0,0-19.82,28A164.82,164.82,0,0,1,318,182.29a165.27,165.27,0,0,1,63-29Zm60,94.42a147.22,147.22,0,0,0,24.69-73.36c-12.83-6-45.49-10.44-58.9-8A669.37,669.37,0,0,1,441,247.69ZM229.38,166.48c-.43-.25-.49-.33-.57-.33a143.85,143.85,0,0,0-56.87,7.62,2.68,2.68,0,0,0-1.3,2.15,145.74,145.74,0,0,0,17.9,61c2,3.59,4.21,7.08,6.53,11A667.32,667.32,0,0,1,229.38,166.48Z"/></svg>