<?xml version="1.0" encoding="utf-8"?>
<!-- Generator: Adobe Illustrator 22.1.0, SVG Export Plug-In . SVG Version: 6.00 Build 0)  -->
<svg version="1.1" id="Layer_2_1_" xmlns="http://www.w3.org/2000/svg" xmlns:xlink="http://www.w3.org/1999/xlink" x="0px" y="0px"
	 viewBox="0 0 640 480" style="enable-background:new 0 0 640 480;" xml:space="preserve">
<style type="text/css">
	.st0{fill:#124975;}
	.st1{fill:#EAA462;}
</style>
<g>
	<path class="st0" d="M378.7,66.2c-5.4,8.7-10.4,16.9-15.6,25c-10,15.8-20.1,31.6-30.2,47.3c-7.5,11.8-15.3,23.4-22.9,35.1
		c-7.7,11.9-15.3,23.8-23,35.7S272.7,234,264,245.1c-12.6,15.9-16.7,33.8-13.4,52.8c3,17.2,14.2,29.4,30.3,36.8
		c13.7,6.3,27.9,10,42.8,11.8c14.4,1.8,28.6,5.4,42.9,8c6.2,1.1,12.4,2.1,18.6,2.9c9.5,1.2,19.1,1.8,28.6,3.2
		c9.4,1.4,18.7,3.4,28.1,5.1c1.2,0.2,2.3,0.4,3.5,0.5c16.3,2,32.5,3.9,48.8,6c12.9,1.7,25.8,3.7,38.8,5.6c13.7,2,27.2,3.9,40.9,5.9
		c12.7,1.8,25.3,3.9,38,5.4c9.3,1.1,15.1,6.6,19.9,13.9c2.5,3.7,5.3,7.2,8.4,11.6c-213.4,0-426.2,0-640,0c2.7-4.1,4.8-7.7,7.4-10.8
		c9.1-10.4,18.6-20.5,27.7-31c15.5-17.9,30.5-36.2,46.1-54c10.8-12.5,22.4-24.4,33.2-36.9c15.6-17.9,30.9-36,46.4-54
		c18.2-21,36.3-42.1,54.5-63c16.1-18.5,32.5-36.7,48.7-55.2c11.7-13.3,23-27,34.8-40.2c1.8-2,4.9-4,7.3-4c22.7-0.3,45.4-0.1,68-0.1
		C375.3,65.5,376.5,65.9,378.7,66.2z"/>
	<path class="st1" d="M608.5,372.9c-10.6-1.7-19.1-2.8-27.6-4.5c-5.7-1.1-11.1-3.4-16.8-4.4c-16.8-3.2-33.7-6.1-50.5-9.4
		c-18.4-3.6-36.7-7.7-55-11.4c-14.2-2.9-28.4-5.6-42.6-8.5c-18.9-3.8-37.6-7.6-56.4-11.7c-7.7-1.7-15.3-3.9-22.9-6
		c0.6-9.6,4.2-12.4,14.5-13.9c16-2.3,31.9-5.4,47.9-8.1c6.3-1.1,12.6-2,18.9-2.9c14.9-2.1,29.9-3.9,44.8-6.4
		c13.9-2.3,27.7-5.2,41.6-7.7c7-1.3,14.1-1.6,20.9-3.4c11.4-3,14.5,6.8,19.4,12.6c8.9,10.6,16.7,22.2,25,33.3
		C582.1,337.3,594.5,354.1,608.5,372.9z"/>
	<path class="st1" d="M389.6,82.5c7.8,9.9,15.8,19.7,23.4,29.8c10.8,14.4,21.3,29.1,32.2,43.6c2.6,3.4,3.3,4.9-1.3,7.7
		c-33.8,20.7-67.3,41.9-101,63c-8.9,5.6-18.3,10.8-26.6,17.3c-5.1,4-7.6,0-10.2-1.9c-1.2-0.9-0.7-5.6,0.4-7.8
		c13.6-25.9,27.3-51.7,41.2-77.5c13.2-24.4,26.7-48.6,40.1-73C387.9,83.4,388.5,83.2,389.6,82.5z"/>
	<path class="st1" d="M461.1,176.8c10.9,14.5,21.7,28.6,32.4,42.9c7.2,9.6,14.4,19.3,21.5,29c1.3,1.8,1.8,4,2.7,6
		c-2,0.9-4,2.3-6.2,2.6c-19.8,2.3-39.5,4.1-59.3,6.3c-23.2,2.7-46.4,5.7-69.6,8.7c-15.9,2-31.8,4.4-47.9,6.6
		c-1.1-3.2-1.4-5.5-2.6-6.8c-2.9-3.2-1.3-4.6,1.5-6.5c14.9-10.3,29.6-20.8,44.5-31.2c25.1-17.5,50.1-34.9,75.2-52.4
		C455.7,180.3,458.2,178.7,461.1,176.8z"/>
</g>
</svg>
