<?xml version="1.0" encoding="utf-8"?>
<!-- Generator: Adobe Illustrator 22.1.0, SVG Export Plug-In . SVG Version: 6.00 Build 0)  -->
<svg version="1.1" id="Layer_1" xmlns="http://www.w3.org/2000/svg" xmlns:xlink="http://www.w3.org/1999/xlink" x="0px" y="0px"
	 viewBox="0 0 640 480" style="enable-background:new 0 0 640 480;" xml:space="preserve">
<style type="text/css">
	.st0{fill:#FF0000;}
</style>
<g id="g3">
	<g id="g5">
		<path id="path7" class="st0" d="M612.4,287.1H640l-28.5-94.1l-39.3,0l-28.5,94.1h27.6l5-17.4h30.9L612.4,287.1 M582.4,248.7
			l9.4-32.5h0.2l9.4,32.5H582.4L582.4,248.7z"/>
		<path id="path9" class="st0" d="M138,288.8c28.4,0,42.1-5,44-30.6c0.5-6.1,0.6-12.4,0.6-18.2c0-5.8-0.1-12-0.6-18.1
			c-1.9-25.6-15.7-30.6-44-30.6s-42.1,5-44,30.6c-0.5,6.1-0.6,12.4-0.6,18.1c0,5.8,0.1,12.1,0.6,18.2
			C95.9,283.8,109.6,288.8,138,288.8 M120.1,240c0-5.2,0.1-8.2,0.2-10.5c0.7-14.5,6.5-16.2,17.6-16.2c11.2,0,16.9,1.7,17.6,16.2
			c0.1,2.3,0.2,5.3,0.2,10.5c0,5.2-0.1,8.2-0.2,10.5c-0.7,14.5-6.4,16.2-17.6,16.2c-11.2,0-16.9-1.7-17.6-16.2
			C120.3,248.2,120.1,245.2,120.1,240z"/>
		<polyline id="polyline11" class="st0" points="0,193 0,216.4 28.1,216.4 28.1,287.1 56.3,287.1 56.3,216.4 84.4,216.4 84.4,193 
			0,193 		"/>
		<polyline id="polyline13" class="st0" points="431.9,287.1 431.9,192.9 405.2,192.9 405.2,287.1 431.9,287.1 		"/>
		<polyline id="polyline15" class="st0" points="324.4,227.3 324.4,192.9 297.8,192.9 297.8,287.1 324.4,287.1 324.4,250.8 
			355.3,250.8 355.3,287.1 381.8,287.1 381.8,192.9 355.3,192.9 355.3,227.3 324.4,227.3 		"/>
		<g id="g17">
			<path id="path19" class="st0" d="M519.7,237.9c11.8-3,15.3-10.1,15.3-20.3c0-20.7-13-24.6-31.5-24.6h-48v94.1h50.3
				c23.2,0,31-10,31-25.3C536.9,251,534.4,241.6,519.7,237.9 M482.1,248.4h18.4c7.4,0,9,3.3,9,8.6c0,5.3-2.9,8.6-9,8.6h-18.4V248.4z
				 M482.1,214.5h18.4c4.8,0,7.8,2.3,7.8,7.8c0,4.7-2.9,7.6-7.8,7.6h-18.4C482.1,229.8,482.1,214.5,482.1,214.5z"/>
			<path id="path21" class="st0" d="M198.1,256.2h25.3c0,4.6,0.6,7.6,2.8,9.3c2.5,1.9,4.8,2.5,12.3,2.5c7.2,0,15.1,0,15.1-8.9
				c0-7-4.4-8.6-12.5-9c-20.2-1.1-27.5-1.6-35-7.2c-5.1-3.8-7.8-11.2-7.8-21.2c0-17,5.9-23,14.5-27.2c8.8-4.3,43.6-4.3,52.9,0
				c11.8,5.4,12.1,17.1,12.1,28h-25.3c0-5.5-1.3-7.1-2.3-8.1c-2.6-2.3-6.4-2.8-11.8-2.8c-6.5,0-14.1,0.3-14.1,8.2c0,6,2.6,8.6,9.5,9
				c9.4,0.6,28,1.2,34.6,5.1c9.3,5.5,11.7,12.9,11.7,25.1c0,17.5-6.3,22.7-15,26.5c-10.1,4.4-43.7,4.4-54.6-0.3
				C198.3,279.8,198.1,269.1,198.1,256.2"/>
		</g>
	</g>
</g>
</svg>
