<?xml version="1.0" encoding="utf-8"?>
<!-- Generator: Adobe Illustrator 21.0.2, SVG Export Plug-In . SVG Version: 6.00 Build 0)  -->
<svg version="1.1" id="Layer_8" xmlns="http://www.w3.org/2000/svg" xmlns:xlink="http://www.w3.org/1999/xlink" x="0px" y="0px"
	 viewBox="0 0 640 480" style="enable-background:new 0 0 640 480;" xml:space="preserve">
<style type="text/css">
	.st0{fill:none;}
	.st1{fill:#CC222D;}
	.st2{fill:#D5652C;}
	.st3{fill:#394296;}
</style>
<g>
	<polygon class="st0" points="456.6,199.3 442.6,258.7 470.7,258.7 	"/>
	<rect x="183.3" y="208.4" class="st0" width="42.8" height="65"/>
	<polygon class="st1" points="634.7,273.4 634.7,273.4 634.7,273.4 	"/>
	<path class="st1" d="M183.3,166.3c-23.7,0-42.8,19.2-42.8,42.9v63.5c0,23.7,19.2,42.8,42.8,42.8h42.8c23.7,0,42.9-19.2,42.9-42.8
		v-63.5c0-23.7-19.2-42.9-42.9-42.9H183.3z M226.1,273.4h-42.8v-65h42.8V273.4z"/>
	<polygon class="st1" points="359.9,314.8 359.9,208.4 398.3,208.4 398.3,167 274.2,167 274.2,208.4 312.6,208.4 312.6,314.8 	"/>
	<path class="st1" d="M435.2,289.7H478l5.9,25.1l0,0h48.8L487.7,167h-62.1l-45.1,147.8h48.8L435.2,289.7z M456.6,199.3l14.1,59.4
		h-28.1L456.6,199.3z"/>
	<polygon class="st1" points="590.4,167 543.1,167 543.1,314.8 634.7,314.8 634.7,273.4 590.4,273.4 	"/>
	<polygon class="st1" points="49.5,314.8 96.8,314.8 96.8,208.4 135.2,208.4 135.2,167 11.1,167 11.1,208.4 49.5,208.4 	"/>
	<polygon class="st2" points="596.7,144.9 639,6.5 489.6,6.5 447.3,144.9 	"/>
	<polygon class="st2" points="388.5,337 346.8,473.5 496.2,473.5 538,337 388.5,337 	"/>
	<polygon class="st1" points="215.6,337 215.6,337 173.9,473.5 323.3,473.5 365.1,337 	"/>
	<polygon class="st1" points="423.8,144.9 466.1,6.5 316.7,6.5 274.4,144.9 	"/>
	<polygon class="st3" points="293.2,6.5 143.8,6.5 101.5,144.9 250.9,144.9 	"/>
	<polygon class="st3" points="42.8,337 42.8,337 1,473.5 150.4,473.5 192.2,337 	"/>
</g>
</svg>
