<?xml version="1.0" encoding="utf-8"?>
<!-- Generator: Adobe Illustrator 22.1.0, SVG Export Plug-In . SVG Version: 6.00 Build 0)  -->
<svg version="1.1" id="Layer_1" xmlns="http://www.w3.org/2000/svg" xmlns:xlink="http://www.w3.org/1999/xlink" x="0px" y="0px"
	 viewBox="0 0 640 480" style="enable-background:new 0 0 640 480;" xml:space="preserve">
<style type="text/css">
	.st0{fill:#A51E2D;}
	.st1{fill:#01A64F;}
	.st2{fill:#231F20;}
	.st3{fill:none;}
	.st4{fill:#FDDA7F;}
</style>
<g>
	<path class="st0" d="M133.7,266.6c0,14.1,12,26.1,26.1,26.1c14.1,0,26.1-12,26.1-26.1s-12-26.1-26.1-26.1
		C145.6,240.5,133.7,252.5,133.7,266.6z"/>
	<path class="st1" d="M449.8,266.6c0,14.1,12,26.1,26.1,26.1s26.1-12,26.1-26.1s-12-26.1-26.1-26.1S449.8,252.5,449.8,266.6z"/>
	<g>
		<path class="st2" d="M105.4,212.3c-14.1,14.1-22.8,33.7-22.8,54.3s7.6,40.2,22.8,54.3c14.1,14.1,33.7,22.8,54.3,22.8
			c42.4,0,77.1-34.8,77.1-77.1s-34.8-77.1-77.1-77.1C140.2,189.5,120.6,197.1,105.4,212.3z M122.8,304.7c-9.8-9.8-15.2-23.9-15.2-38
			s5.4-28.3,15.2-38c9.8-9.8,23.9-15.2,38-15.2c29.3,0,53.2,23.9,53.2,53.2c0,29.3-23.9,53.2-53.2,53.2
			C145.6,321,132.6,315.5,122.8,304.7z"/>
	</g>
	<g>
		<path class="st2" d="M421.6,212.3c-14.1,14.1-22.8,33.7-22.8,54.3s7.6,40.2,22.8,54.3c14.1,14.1,33.7,22.8,54.3,22.8
			c42.4,0,77.1-34.8,77.1-77.1s-34.8-77.1-77.1-77.1C456.4,189.5,436.8,197.1,421.6,212.3z M439,304.7c-9.8-9.8-15.2-23.9-15.2-38
			s5.4-28.3,15.2-38c9.8-9.8,23.9-15.2,38-15.2c29.3,0,53.2,23.9,53.2,53.2c0,29.3-23.9,53.2-53.2,53.2
			C461.8,321,448.8,315.5,439,304.7z"/>
	</g>
	<g>
		<path class="st3" d="M477,137.3c-71.7,0-129.3,58.7-129.3,129.3c0,71.7,58.7,129.3,129.3,129.3c71.7,0,129.3-58.7,129.3-129.3
			C606.3,194.9,547.6,137.3,477,137.3z"/>
		<path class="st3" d="M160.8,137.3c-71.7,0-129.3,58.7-129.3,129.3c0,71.7,58.7,129.3,129.3,129.3c71.7,0,129.3-58.7,129.3-129.3
			C290.1,194.9,231.4,137.3,160.8,137.3z"/>
		<path class="st2" d="M602,164.5c6.5-18.5,15.2-39.1,28.3-52.2H523.7c-2.2,0-3.3-1.1-5.4-1.1c-5.4-8.7-45.6-59.8-203.2-59.8
			c-172.8,0-203.2,60.8-203.2,60.8H2.2c14.1,14.1,23.9,38,30.4,57.6C12,197.1,0,230.8,0,266.6c0,89.1,72.8,161.9,161.9,161.9
			c48.9,0,93.4-22.8,122.8-57.6l36.9,51.1l31.5-53.2c29.3,35.9,75,59.8,125,59.8c89.1,0,161.9-72.8,161.9-161.9
			C637.8,228.6,624.8,192.7,602,164.5z M160.8,397c-71.7,0-129.3-58.7-129.3-129.3c0-71.7,58.7-129.3,129.3-129.3
			c71.7,0,129.3,58.7,129.3,129.3C290.1,338.3,231.4,397,160.8,397z M477,397c-71.7,0-129.3-58.7-129.3-129.3
			c0-71.7,58.7-129.3,129.3-129.3c71.7,0,129.3,58.7,129.3,129.3S547.6,397,477,397z"/>
	</g>
	<path class="st4" d="M326,69.9c110.8,0,152.1,45.6,152.1,45.6S359.7,96,320.5,241.6C281.4,96,163,115.6,163,115.6
		s41.3-45.6,152.1-45.6C315.1,69.9,326,69.9,326,69.9z"/>
</g>
</svg>
