<?xml version="1.0" encoding="utf-8"?>
<!-- Generator: Adobe Illustrator 22.1.0, SVG Export Plug-In . SVG Version: 6.00 Build 0)  -->
<svg version="1.1" id="Layer_1" xmlns="http://www.w3.org/2000/svg" xmlns:xlink="http://www.w3.org/1999/xlink" x="0px" y="0px"
	 viewBox="0 0 640 480" style="enable-background:new 0 0 640 480;" xml:space="preserve">
<style type="text/css">
	.st0{fill:#26A17B;}
	.st1{fill:#FFFFFF;}
</style>
<title>TRX</title>
<g>
	<circle class="st0" cx="320" cy="240" r="237"/>
	<g>
		<path class="st1" d="M345.3,261.9L345.3,261.9c-1.6,0.1-10.1,0.6-28.9,0.6c-15.1,0-25.6-0.4-29.3-0.6v0
			c-57.9-2.6-101-12.6-101-24.7c0-12,43.2-22.1,101-24.7v39.4c3.8,0.3,14.6,0.9,29.6,0.9c18,0,27-0.8,28.7-0.9v-39.3
			c57.8,2.6,100.8,12.7,100.8,24.7C446.1,249.3,403,259.3,345.3,261.9 M345.3,208.5v-35.2h80.6v-53.7H206.5v53.7H287v35.2
			c-65.5,3-114.7,16-114.7,31.5s49.3,28.5,114.7,31.5v112.9h58.3V271.5c65.4-3,114.5-16,114.5-31.5
			C459.8,224.5,410.7,211.5,345.3,208.5"/>
	</g>
</g>
</svg>
