<?xml version="1.0" encoding="utf-8"?>
<!-- Generator: Adobe Illustrator 22.1.0, SVG Export Plug-In . SVG Version: 6.00 Build 0)  -->
<svg version="1.1" id="Layer_2_1_" xmlns="http://www.w3.org/2000/svg" xmlns:xlink="http://www.w3.org/1999/xlink" x="0px" y="0px"
	 viewBox="0 0 640 480" style="enable-background:new 0 0 640 480;" xml:space="preserve">
<style type="text/css">
	.st0{fill:#B40E20;}
</style>
<g>
	<path class="st0" d="M159.6,124.7c0-30.3,0.1-60.7-0.1-91.1c0-3.9,1.2-5.3,4.9-6.5c31.9-10.3,64.5-18,97.7-22.6
		c28.1-3.9,56.3-5.6,84.8-3.7c43.9,2.8,86.6,11.5,128.5,24.7c5.2,1.7,7,3.9,7,9.6c-0.3,52.4-0.9,104.8,0.1,157.2
		c0.9,44.3-12.4,83.5-38.7,118.5c-32.3,42.9-73.5,75.3-120.7,100.5c-1.4,0.7-3.8,0.6-5.2-0.1c-42.1-21.9-79.3-50-110.1-86.3
		c-19.7-23.3-35.6-48.9-42.9-78.8c-2.8-11.7-4.7-23.9-5-36C159.1,181.5,159.6,153,159.6,124.7z M166,33.5c0,2.1,0,4.3,0,6.4
		c0,54.2,0.4,108.3-0.2,162.5c-0.4,32.4,8.4,61.8,25.3,88.9c31.2,49.8,75.5,85.3,126.8,112.5c1.6,0.9,4.6,0.5,6.2-0.4
		c12-7.1,24.2-14.1,35.7-22c34.3-23.8,64.8-51.8,87.6-87.2c16.2-25.2,27.6-52.5,27.9-82.6c0.7-58.3,0.2-116.4,0.3-174.7
		c0-3.4-1-5.1-4.3-6c-16.8-4.4-33.5-9.5-50.5-13.3c-31.1-6.9-62.6-11.1-94.5-11.3c-27-0.2-53.6,2.7-80.2,7.4
		C219,18.4,192.4,24.8,166,33.5z"/>
	<path class="st0" d="M343.6,469.3c-1.4-8.2-0.6-15-5.5-19.1c-0.9,5.4-1.4,10.9-2.8,16.2c-0.4,1.4-3.1,2.2-4.7,3.3
		c-1.4,0.9-2.9,1.6-4.3,2.7c-13.6,11.1-14.1,9.8-25.9-1.8c-1.7-1.6-3.8-2.8-6.2-3.6c-5.1-8.8-0.8-15.6,6.4-21.6
		c-0.4-0.4-0.7-0.7-1-1c-6.6,4-13.2,8-19.7,11.9c-0.7-0.5-1.4-0.8-1.5-1.2c-2.3-7.6-4.8-15.1-6.8-22.7c-1-3.7,1.5-6.1,4.9-7
		c4.4-1.2,8.9-2,13.7-3.6c-5-1-9.9-2-15.3-3c0.7-1,1.2-1.6,1.6-2.2c2.5-3.2,7.1-3.9,8.2-9.2c0.7-3.6,11.6-5.1,15.4-3
		c5.8,3.1,11.4,6.4,17.3,9.2c1.9,0.9,4.8,0.9,6.7,0c5-2.2,9.9-4.8,14.3-7.9c5.3-3.6,10.8-4.9,17-2.8c-1.7-6.4-0.5-8.9,5.3-11.2
		c1-0.4,2.4-0.3,3.3,0.3c0.6,0.4,0.8,1.7,0.8,2.7c0.1,3,0,6,0,10.1c-0.2,0.1-1.8,0.5-2.5,0.7c2.6,7.7,8.3,14.4,9.6,23.5
		c-5.5,0-10.1,0-15.7,0c1.5,1.2,2.4,2.1,3.4,2.8c3,2.1,6.4,3.9,9.1,6.3c5.9,5.3,3.8,13.8-3.6,16.7c-1.5,0.6-2.7,2-4,3
		C355.7,461.2,350.1,465,343.6,469.3z M312.3,460.3c0.9,0.2,1.8,0.3,2.7,0.4c2.4-11.8,4.8-23.6,7.3-35.4c-0.7-0.2-1.3-0.3-2-0.4
		C317.5,436.8,314.9,448.5,312.3,460.3z M284.9,445.8c4.4-4,8.4-8.4,13.2-11.9c4.8-3.6,10.1-6.5,15.2-9.8
		C301.2,427.9,291.2,434.4,284.9,445.8z M348.9,450.6c0.8-9.7-14.6-23.8-24.6-25.7C334.4,431.4,344.1,438,348.9,450.6z M329.1,419.2
		c9,0.6,17.9,1.3,26.3,2C348.2,417.3,336.1,416.3,329.1,419.2z M312.2,417.6c0.1-0.5,0.2-1,0.3-1.5c-5.2-0.7-10.6-1.4-15.8-2.1
		c-0.1,0.5-0.2,1.1-0.3,1.6C301.7,416.2,306.9,416.8,312.2,417.6z"/>
	<path class="st0" d="M207.5,379.7c-2.2-4.7-4.1-8.7-6.8-14.2c-1.7,4.1-2.8,6.6-3.7,9.1c-5.1,13.3-19,17.2-30.6,8.4
		c-2.1-1.6-4.9-2.5-7.2-3.8c-2.8-1.6-5.5-3.4-8.5-5.2c6.3-3.3,11.9-6.2,17.5-9.2c0.5-0.3,0.9-1.1,1-2.5c-2,0.7-3.9,1.4-5.9,2
		c-7.6,2.7-16,5.1-22.3-0.2c-4.8-3.9-10.5-5.5-15.7-9.2c1.5-2.1,3.1-4,4.3-6c1.8-3.2,5.1-5,5.2-9.9c0.1-5.9,7.8-9.6,13.8-8.4
		c1.5,0.4,3.1,0.6,5,0.2c-3.3-2-6.7-4.1-10.5-6.4c1.7-1.4,3-2.5,4.4-3.6c3.7-3,8.3-4.2,11.2-9.3c3.6-6.1,15.3-4.3,20.5,2
		c2,2.4,3.9,4.8,6,7.2c0.4-0.2,0.9-0.4,1.3-0.6c-1.1-4.6-2.1-9.2-3.3-14.4c14,2.4,16.2,16.2,25.4,23.2c-3.3,3.1-6,5.7-9.8,9.3
		c3.9,0.3,6.2,0.5,8.6,0.5c8.7,0,15,4.5,20.1,11c3,3.8,1.2,10.8-4,16.3c-3,3.2-6.2,6.4-9.5,9.3C212.2,377,210,378.1,207.5,379.7z
		 M146.6,350.2c15.5-0.4,30.8-1.3,44.9-8.6C176.4,344.4,161.5,347.3,146.6,350.2z M157,323.5c10.1,4.4,20.2,8.7,30.2,13.1
		C178,330.4,168.6,324.4,157,323.5z M199.5,343.2c3.6,7,7.7,15.3,11.4,22.5C211.7,356.2,206.7,348.3,199.5,343.2z M175,369.3
		c0.4,0.4,0.7,0.7,1.1,1.2c4.4-4,8.6-8.1,13-12.1c-0.4-0.4-0.7-0.8-1.1-1.2C183.6,361.2,179.4,365.3,175,369.3z"/>
	<path class="st0" d="M515.6,354.7c-1.7,1.1-2.5,1.6-3.2,2c-4,2.4-8.4,3.3-12.2,7.1c-4.1,4.4-11.2,3.6-17.2,2
		c-3.9-1-7.6-2.4-11.5-3.6c-0.3,0.5-0.5,1.1-0.8,1.6c6.1,3.2,12.3,6.5,18.6,9.8c0-0.1,0.1,0.4-0.1,0.5c-8.6,5.6-17.3,11.3-27.8,12.7
		c-8.6,1.2-12.7-1.2-16.5-9.2c-1.5-3.3-2.8-6.8-4.7-11.6c-1.7,2.8-2.9,4.8-3.9,6.8c-1,2-1.8,4.1-2.7,6.3c-0.8-0.2-1.3-0.2-1.8-0.4
		c-7.4-4.7-14-10.5-18.3-18.1c-3.8-6.7-1.2-13.8,6.4-17.6c4.6-2.2,10-2.9,15-4.2c1.6-0.4,3.4-0.2,5.1-0.3c0.3-0.4,0.4-1,0.7-1.4
		c-2.8-2.5-5.5-5-8.9-8.1c8.7-7.2,11.3-20.6,25.4-23.3c-1.1,5.2-2,9.7-2.9,14.2c0.4,0.2,0.8,0.4,1.2,0.5c1.6-2,3.2-3.9,4.9-5.9
		c7.3-8.3,10.1-7.7,20.6-4c2.8,7.1,11.1,8.2,16.1,13.9c-3.6,2.3-6.8,4.3-10.1,6.3c0.1,0.3,0.2,0.5,0.3,0.7c1.7-0.4,3.3-0.6,5-1
		c7.6-1.4,13.1,3.4,13,11.2c0,0.8,0.9,1.6,1.5,2.4C509.6,347.5,512.5,350.8,515.6,354.7z M449.1,341.5c-6.8-3.2-2.7-10.5-6-15.7
		c0.3,5.9,0.6,11.3,0.9,16.5C445,342.2,447.1,341.9,449.1,341.5c1.2,0.9,2.2,2.3,3.5,2.6c13.7,2.9,27.5,5.6,41.2,8.4
		c0.2-0.7,0.3-1.5,0.4-2.2C479.3,347.4,464.3,344.4,449.1,341.5z M483.7,323.5c-0.3-0.6-0.5-1.3-0.8-2c-9.3,4.2-18.7,8.3-28.1,12.5
		c0.3,0.5,0.4,1.1,0.7,1.7C464.9,331.7,474.2,327.6,483.7,323.5z M429.2,369.1c3.3-7.9,6.6-15.8,10.1-24.4
		C431.7,351.4,429.4,359.8,429.2,369.1z M468.2,371.1c-5.3-4.8-10.8-9.7-17.3-15.6C455.5,363.7,461.1,368.5,468.2,371.1z"/>
	<path class="st0" d="M485.2,241.8c1,4.2,2,8.2,2.9,12.3c0.3,0,0.5,0,0.9,0.1c0.4-1.6,0.5-3.4,1.3-4.9c2-4.1,3.7-8.3,10.1-6.9
		c3.1,0.6,6.8-1.5,10.2-1.7c10.9-0.4,15.3,4.1,15.7,15.1c0.1,2.9,1.1,5.9,0.8,8.8c-0.3,2.7-1.8,5.2-2.8,8.2
		c3.5-1.8,7.2-3.6,10.9-5.6c2.5,6.6,5.7,12.8,3.1,19.9c-0.2,0.4,0,1.1,0.2,1.5c2,5.8,1.1,7.7-5,7.7c-6.8,0-13.6-1.1-21.4-1.8
		c3.6,3,6.8,5.7,9.8,8.3c-7.1,8-23.8,14.3-34.1,6.8c-5.6-4.2-8.3-9.5-6.8-16.5c0.5-2.9,1.2-5.9,1.9-9.6c-7.3,3.3-13.3,8.4-21.8,5.9
		c2.7-5.4,5.8-10.8,8-16.4c3.4-8.3,6.3-16.7,9-25.3C479.3,243.7,481.5,242.2,485.2,241.8z M490.6,282.6c9.2,3.3,18.2,4.2,26.3,0.7
		c-4.3,0-9.7,0.1-15,0C498.1,283.2,494.2,282.9,490.6,282.6c-7.8-5-7-14.1-9.8-21.4c-0.4,0.1-0.9,0.3-1.3,0.4
		c1.4,5.7,2.9,11.4,4.4,17.1c-3.6-1.6-7.4-3.5-11.3-5.2c-0.3,0.6-0.5,1.2-0.8,1.9C478,277.7,484.3,280.1,490.6,282.6z M490.2,277.5
		c10.1-6.7,19-14.4,23.5-26C505.9,260.1,498.1,268.8,490.2,277.5z M488.3,285.7c2.1,9.3,8.9,16.2,15.3,16.5
		C498.8,297,493.2,291,488.3,285.7z"/>
	<path class="st0" d="M170.4,272.7c3.2,5.2,6.4,10.6,9.9,16.3c-8.7,2.8-14.8-2-22-5.6c0.5,3.8,1.2,7,1.5,10.2
		c1.2,12.4-11.9,23.4-23.7,19.3c-6.2-2.1-11.8-5.9-18.5-9.3c4.4-3.5,7.5-6,10.7-8.6c-0.2-0.4-0.4-0.6-0.5-1
		c-5.2,0.7-10.2,1.6-15.4,2.1c-2.4,0.3-5.2,0.4-7.4-0.4c-1.9-0.7-4.7-3.6-4.4-4.4c3.2-7.8-1.2-17.3,5.8-24.1c2.6,1.3,5.7,3,9.2,4.8
		c-2.3-10.2-1.9-19.5,2.9-28.1c1-1.7,4.1-3,6.2-3.1c4.5-0.2,9.1,0.6,13.6,1.2c0.7,0.1,1.3,0.5,2,0.5c6.8-0.2,9.8,2.2,10.9,9
		c0.2,1,0.2,2,1.3,3.2c1.1-4.3,2.2-8.6,3.6-14.4c2.6,2.6,5.2,4,6.1,6.2c3.1,7.8,5.7,15.9,8.4,23.9c0.3,0.7,0,1.7,0,2.5
		c-4.7,1.9-9.3,3.7-13.4,5.3c1.4-5.8,2.9-11.6,4.4-17.4c-0.4-0.1-0.8-0.2-1.2-0.3c-2,6.8-4.2,13.7-6.7,21.9
		C159.7,278.9,165.1,275.8,170.4,272.7z M151,277.7c-8.1-8.8-16.2-17.6-24.3-26.4C131.8,263.1,140.4,271.4,151,277.7z M152.9,283
		c-5.1,9.3-10.6,17.2-21.4,20.1C142.1,303.5,151.7,294.4,152.9,283z M120.8,282.4c8.7,3.8,18.2,4.4,29.3,0
		C139.4,282.4,129.9,282.4,120.8,282.4z"/>
	<path class="st0" d="M131.3,398.5c2.9-10.6,11-16.7,20.9-16c4.7,0.4,9,3.7,9.5,7.8c0.6,5-1.3,9.1-6.2,10.4c-5.3,1.5-11,2-16.8,3
		c1.1,4.6,4.4,7.5,9.5,7.5c4.2-0.1,8.5-0.4,12.5-1.8c15.9-5.5,29.7-14.5,41.9-26.7c-1.6,2.5-2.9,5.2-4.8,7.4
		c-11.5,13.5-25.1,23.7-42.6,28c-9.3,2.2-19.4-0.8-22.4-11.5c-0.4-1.2-2.8-2.8-3.6-2.6c-3.1,1.2-6,3.1-8.8,4.8
		c0.9,1.5,1.7,3.2,2.8,4.6c0.6,0.8,1.8,1.2,2.7,1.7c8.3,5.3,8.1,13-0.6,17.7c-5.2,2.9-10.9,4.2-16.8,1.9c-4.3-1.7-6-6.5-4-10.6
		c1.8-3.6,5.4-4.7,8.6-2.7c0.3,0.2,0.3,0.6,0.5,1.2c-0.4,0.2-0.9,0.2-1.2,0.4c-1.6,1.2-3.2,2.6-4.7,3.8c1.8,1.2,3.6,3.4,5.2,3.4
		c5-0.1,9.8-1.4,12.8-6.4c-4.1-5.3-14.1-6.6-11.6-16C116.5,399.1,124.5,399.4,131.3,398.5z M137,399.5c5.3-0.4,10.1-0.4,14.6-1.3
		c1.6-0.4,3.9-3,3.8-4.5c-0.1-1.6-2.4-3.9-4.2-4.4C144.5,387,139.1,390.8,137,399.5z"/>
	<path class="st0" d="M502.4,403.2c-4.7-0.4-9.2-0.5-13.4-1.5c-7.3-1.7-11-6.8-9.6-12.2c1.4-5.4,8.7-8.7,15.4-6.7
		c7.7,2.3,13.5,6.8,14.7,15.5c2.8,0.4,5.5,0.6,8.1,1.2c4.9,1.1,8.5,3.8,9.5,8.8c1,4.7-1.4,8.1-5.5,10.5c-2.2,1.3-4.2,3-7.8,5.8
		c4.9,2.3,8.3,4.3,11.8,5.5c2.9,1,6.8,1,7.4-2.8c0.3-1.6-2.9-3.8-4.8-6.1c2-2.7,4.8-1.1,7.2,1.2c2.8,2.6,2.8,7.9-0.2,10.5
		c-4.5,3.9-9.8,3.5-15,1.9c-5.2-1.6-9.8-4.2-10.7-9.9c-0.4-2.3,1.5-5.2,2.8-7.6c0.5-1,2-1.4,2.9-2.2c2.3-1.9,7.1-2.8,5.1-6.7
		c-1.2-2.3-5.3-3.3-8.4-4.4c-0.7-0.3-2.6,0.7-3.1,1.7c-7,12.8-11.6,15.6-24.8,11.9c-18.6-5.1-33.1-16.4-44-32.2
		c-0.4-0.5-0.7-1.2-1-1.9c-0.1-0.3,0-0.6,0.1-1.1c5.4,4.6,10.2,10.1,16.2,13.6c9.5,5.6,19.5,10.8,29.8,14.5
		C492.5,413.1,500.3,411.8,502.4,403.2z M503.5,399.5c0.4-8-7-12.6-14.5-10.1c-1.5,0.5-3.4,3-3.3,4.4c0.1,1.5,2.1,3.9,3.6,4.2
		C493.9,399.1,498.6,399.1,503.5,399.5z"/>
	<path class="st0" d="M430.4,422.2c3.9-0.1,8.1,4,8.3,8.2c0.3,4.1-3.5,8.1-7.5,8.2c-4,0-8.1-4-8.3-8.2
		C422.6,426.4,426.4,422.3,430.4,422.2z"/>
	<path class="st0" d="M403.6,381c0.1,4.5-3,7.9-7.3,7.8c-4.2,0-7.6-3.5-7.8-7.6c-0.2-5.2,2.7-8.4,7.2-8.4
		C400.1,372.9,403.6,376.5,403.6,381z"/>
	<path class="st0" d="M215.2,411.3c-1.2-3.9-2.7-7.7,0.6-11.4c2.9-3.3,6.5-3.8,10-1.5c3.9,2.5,4,6.4,2.2,10.3c-1.8,3.9-6,5.5-9.7,4
		c-1.2-0.4-2.2-1-3.3-1.5L215.2,411.3z"/>
	<path class="st0" d="M404.8,400.3c-0.1,4-3.6,7.6-7.1,7.6c-4.3,0-8-4.2-7.9-8.9c0.1-4.3,3.1-7.4,7.2-7.4
		C401.6,391.7,404.8,395.2,404.8,400.3z"/>
	<path class="st0" d="M427.1,405.5c0,4.3-3.6,8-7.6,7.8c-4.1-0.1-7.6-4-7.6-8.4c-0.1-4.5,2.7-7.5,6.8-7.6
		C423.3,397.1,427.1,400.7,427.1,405.5z"/>
	<path class="st0" d="M217.5,429.7c0.1,4.9-3.5,8.7-8,8.7c-4,0-7.2-3.3-7.3-7.5c-0.1-4.5,3.8-8.8,8.1-8.8
		C214.1,422.2,217.4,425.7,217.5,429.7z"/>
	<path class="st0" d="M243.8,391.6c4.3,0,7.6,3.4,7.5,7.8c-0.1,4-4.2,8.4-8,8.5c-3.9,0.1-7.4-3.7-7.3-8.1
		C236,395.1,239.2,391.7,243.8,391.6z"/>
	<path class="st0" d="M237.3,380.9c0.1-4.6,3.5-8.1,7.8-8.1c4.4,0.1,7.5,3.8,7.2,8.5c-0.2,4-3.9,7.5-8,7.5
		C239.8,388.8,237.2,385.9,237.3,380.9z"/>
	<path class="st0" d="M234.2,422.8c-2.6-4.1-4.9-7.6,0-12.4c3.7-3.7,7.1-2,9.8-0.7c1.6,0.7,2.4,5.1,2.1,7.6c-0.4,4.2-3.8,6-7.9,6.1
		C236.8,423.5,235.4,423,234.2,422.8L234.2,422.8z"/>
	<path class="st0" d="M408.1,421.6c-4.4,2-8.6,3.5-12.2-1.3c-2.3-3.1-3.2-6.8-0.4-9.5c1.9-1.8,6-3.2,7.9-2.3c3,1.5,7,3.9,5.7,8.8
		C408.9,418.7,408.4,420.2,408.1,421.6L408.1,421.6z"/>
	<path class="st0" d="M428.1,384.6c3.2,2.9,6.3,4.4,7.3,6.9c1,2.3,0.4,5.9-0.8,8.2c-2,3.7-5.2,3.4-8,0.1c-0.6-0.8-1.3-1.7-2.2-2.2
		c-2-1.3-5.1-2.2-2.8-5.4C423.2,389.6,425.3,387.7,428.1,384.6z"/>
	<path class="st0" d="M381.3,399.5c-2.9,5.9-6,7.6-10.1,6c-4.2-1.7-6.8-6.8-4.6-10.8c1.1-2,3.8-3.6,6.1-4.6c2.9-1.2,3.6,1.5,4.4,3.6
		C378.1,395.7,379.8,397.4,381.3,399.5z"/>
	<path class="st0" d="M204.4,394.7c0.1-4.6,3.5-8.2,7.9-8.2c4.1,0,8.3,3.3,6.8,6.7c-1.5,3.6-5.1,7-8.5,9.2
		C208.3,403.7,204.3,398.3,204.4,394.7z"/>
	<path class="st0" d="M276,398.4c-2.2,2.4-4.1,5.7-6.8,6.8c-2,0.8-5.5-1-7.7-2.5c-0.9-0.6-0.2-3.7,0.1-5.7c0.2-1,1.3-1.7,1.6-2.7
		c1-3.1,2.2-5.6,6.2-4.5C273.1,391,274.9,393.5,276,398.4z"/>
	<path class="st0" d="M409.9,380.2c3.5,0.5,6,3.1,6.5,7.5c0.5,4.4-1.9,7.2-5.7,8.4c-4.4,1.3-6.9-2-8.9-5.1
		C400.5,388.6,406.4,380.1,409.9,380.2z"/>
	<path class="st0" d="M408,421.7c2,2,5,3.6,6,6c1.8,4.4-1.6,9.2-6.2,9.9c-4.1,0.6-8.2-2.9-8.5-7.6c-0.1-1.3,0.2-2.8,0.2-3.3
		c3.3-2,6-3.6,8.7-5.2C408.1,421.6,408,421.7,408,421.7z"/>
	<path class="st0" d="M234,422.6c0.9,0.7,1.8,2,2.7,2.1c3.6,0.1,5.8,1.2,5,5.3c-0.8,4.4-3.6,7.2-7.7,7.4c-2.1,0.1-5.7-2-6.2-3.8
		c-0.9-2.8-0.2-6.4,0.8-9.3c0.4-1.1,3.6-1,5.7-1.5L234,422.6z"/>
	<path class="st0" d="M239.4,390.2c-2.8,2.9-4.7,7.6-10.5,5.2c-4.6-2-5.2-5.8-4.2-9.6c1.2-4.8,5-6.5,9.7-5.5
		C236,383.5,237.5,386.6,239.4,390.2z"/>
	<path class="st0" d="M411.7,368.8c-0.1,3.6-3.3,7.5-6.2,7.4c-3.3-0.2-9.3-7.6-8-11.1c0.8-2.1,4.1-4.3,6.5-4.7
		C407.8,359.7,411.8,364.7,411.7,368.8z"/>
	<path class="st0" d="M429.8,420.8c-1.1-0.9-3.6-2.2-5.2-4.3c-0.6-0.9,1.1-3.4,1.8-5.1c0.3-0.6,1-1.2,1.2-1.8
		c0.8-2.6,1.1-6.6,4.9-4.5c2.7,1.4,5.2,4.7,6,7.6C439.7,416.5,435.4,420.8,429.8,420.8z"/>
	<path class="st0" d="M243.3,364.3c-0.8,6.9-5.1,12.2-8.5,11.8c-3.2-0.3-6.3-4.7-5.9-8.4c0.5-4.1,5.3-8.6,8.8-7.6
		C240,361,242,363.2,243.3,364.3z"/>
	<path class="st0" d="M199.2,427.2c-6.1,0-9.3-3.5-9.1-8c0.2-4.6,3.9-8.4,8-8.1c0.2,0,0.4,0,0.5,0c2,3.6,4.7,7,5.5,10.9
		C204.5,423.6,200.4,426.1,199.2,427.2z"/>
	<path class="st0" d="M215,411.2c0.4,2,1.8,4.9,1,5.6c-2,1.9-5.1,4-7.4,3.6s-5.6-3.4-5.9-5.5c-0.4-2.8,1.2-6.4,3.2-8.6
		c2.7-3,5.3-1.9,6.9,2c0.5,1.2,1.5,2,2.3,3.1C215.2,411.3,215,411.2,215,411.2z"/>
	<path class="st0" d="M441.2,411.2c4.5-0.8,7.9,1.5,9.2,6.1c1.2,4.2-0.5,7.9-4.8,9.4c-4.6,1.6-7.6-1.1-9.5-4.5
		C437.8,418.5,439.4,415.2,441.2,411.2z"/>
	<path class="st0" d="M440.1,428.9c3.6-0.9,6.8-1.6,10.5-2.4c3.1,2.7,4.4,6.1,1.9,10.3c-2,3.3-4.9,4.3-8.6,3.2
		C437.1,438.1,439.9,433.1,440.1,428.9z"/>
	<path class="st0" d="M190.3,426.1c1.6,0.7,3.1,1.7,4.7,2c1.7,0.4,3.5,0.1,5.7,0.1c0,4.2,2.8,8.5-2.5,11.3c-3.6,1.9-7.1,1.6-9.4-1.8
		C186,433.7,186.8,429.7,190.3,426.1z"/>
	<path class="st0" d="M424.1,422.5c-0.7,1.4-1.6,3.7-3,5.6c-0.7,0.9-2.5,1.2-3.8,1.2c-2.3-0.2-7.3-11-6.2-13.1
		c1.8-3.2,4.4-2.5,7.3-1.9C422.5,415.2,423.8,417.8,424.1,422.5z"/>
	<path class="st0" d="M221.6,430.7c-2-3.3-4.9-5.8-5.2-8.5c-0.4-3.6,1.5-7.4,6-7.7c2.3-0.2,5,0.3,6.8,1.4c0.8,0.4,1,3.6,0.3,5.1
		c-1.1,2.4-3,4.5-4.6,6.7C224.4,428.5,223.5,429.1,221.6,430.7z"/>
	<path class="st0" d="M247.7,390.9c2.5-2.8,4.3-4.9,6.5-7.4c2,3.1,8.2-0.4,8.8,5.6c0.4,4.2-1.5,7.2-5.3,8.8
		C250.4,400.8,252.4,391.6,247.7,390.9z"/>
	<path class="st0" d="M378.4,386.5c3.1-1.1,5.8-2,8.3-2.9c2,2.2,3.9,4.4,6.6,7.3c-5.1,0.2-2.4,10-10,6.9
		C378,395.8,377.3,391.5,378.4,386.5z"/>
	<path class="st0" d="M392,410.4c1.2,4.8,2.3,9.1,3.7,14.7c-2.2,0.3-5.7,1.7-7.6,0.5c-2.4-1.4-4.6-4.9-5.1-7.7
		C382.2,411.3,388.8,412.9,392,410.4z"/>
	<path class="st0" d="M244.9,425.3c1.6-6,2.8-10.2,3.9-14.7c2.2,2.4,8.9-0.2,8.6,6c-0.1,2.9-1.8,6.8-4,8.3
		C251.3,426.4,247.6,425.3,244.9,425.3z"/>
	<path class="st0" d="M256.6,412c5.4,0,6-7.7,10.9-4c1.7,1.3,2.6,5.9,1.6,7.9c-1.2,2.6-4.7,5.7-7.2,5.6
		C256.4,421.3,260.9,415.2,256.6,412z"/>
	<path class="st0" d="M381.2,421.5c-6.5,0.2-10.8-3.2-10.5-8.3c0.2-3.2,1.4-6.9,5-5.9c2.7,0.8,4.5,4.5,6.4,7.1
		c0.4,0.7-0.5,2.3-0.7,3.6C381.2,419,381.2,420,381.2,421.5z"/>
	<path class="st0" d="M275.8,404.8c0-4.3-0.2-7.6,0.1-11c0.1-1.1,2.1-2.8,2.2-2.8c2.8,2,5.6,4.1,8.4,6.1c-2,2.6-3.7,5.3-6.1,7.5
		C279.3,405.5,277,404.8,275.8,404.8z"/>
	<path class="st0" d="M262.8,406c-5.7,6.5-8.4,6.8-14.1,1.4c2-2.6,3.6-6.6,6.3-7.6C260.1,398,258.6,405.2,262.8,406z"/>
	<path class="st0" d="M392.2,407.1c-5.7,5.6-8.3,5.5-13.9-0.7c2-2.2,3.7-6,6.3-6.7C390.3,398.3,388.2,405.6,392.2,407.1z"/>
	<path class="st0" d="M452.7,302.9c4-10.4,15.7-6,22-12.1c0.4,0.7,0.7,1.4,1.1,2c-7.3,3.9-14.6,7.8-21.9,11.7
		C453.4,304,453.1,303.4,452.7,302.9z"/>
	<path class="st0" d="M165.7,291.7c5.5,1.6,11.2,2.8,16.5,5c2.6,1.1,4.4,3.8,6.7,5.9c-0.4,0.7-1,1.4-1.4,2
		c-7.5-3.9-14.9-7.7-22.3-11.7C165.3,292.5,165.5,292.1,165.7,291.7z"/>
	<path class="st0" d="M386.3,372.5c2.3,4.2,1.7,7.5-1.4,9.9c-3.2,2.6-6.8,2.7-10.4-0.8C378.4,378.5,382.3,375.6,386.3,372.5z"/>
	<path class="st0" d="M266.2,381.9c-3.8,2.8-6.9,2.9-10,0.7c-3.4-2.4-3.4-5.8-2.4-10.1C258.1,375.8,261.9,378.6,266.2,381.9z"/>
	<path class="st0" d="M412.5,378.9c5.3-1.8,8.5,0.7,10,4.4c2,4.9-2.8,7.4-5.1,10.9C419,388.1,417.7,383,412.5,378.9z"/>
	<path class="st0" d="M221.4,394.3c-1-3.8-3.2-7.8-2.6-11.5c0.5-3.7,4.5-5.4,9.6-4.2c-4.7,4.3-7.3,9-4.4,15.3
		C223,394.1,222.2,394.2,221.4,394.3z"/>
	<path class="st0" d="M229.2,397.5c0.9,0,2.7,0,4.8,0c0.4,3.6,1.2,7,0.7,10.4c-0.2,1.5-3.2,2.6-4.7,3.7
		C229.7,406.5,229.4,402.3,229.2,397.5z"/>
	<path class="st0" d="M407,397.5c2.3-0.2,4.2-0.3,6.6-0.4c-3.8,4.3-4.8,8.7-1.5,13.5C405.6,410.8,404.9,409.3,407,397.5z"/>
	<path class="st0" d="M263.8,387c6.5-6.3,8.4,1.2,12.6,1.9c-0.2,0.6-0.4,1.2-0.6,1.9C271.8,389.4,267.8,388.2,263.8,387z"/>
	<path class="st0" d="M373.4,382.2c1.1,1.6,2,2.9,2.8,4.2c-1.3,0.6-2.7,1.4-4.1,2c-2.4,0.9-4.8,1.7-7.2,2.5
		c-0.3-0.5-0.5-1.1-0.8-1.6C367,387,369.9,384.8,373.4,382.2z"/>
	<path class="st0" d="M387.6,372.1c2.4-2.3,4.8-4.6,7.6-7.3c4.3,8.3-3.8,6.1-5.6,9C388.8,373.3,388.2,372.6,387.6,372.1z"/>
	<path class="st0" d="M251.3,374c-1.2-3.3-10.2-0.2-6.1-8.7c2.8,2.6,5.3,4.9,7.7,7.1C252.4,372.8,251.9,373.4,251.3,374z"/>
	<path class="st0" d="M248.2,253.5c-14.3,2.7-28.7,5.3-43,8c-2.2,0.4-4.4,1.1-7.5,1.8c-1.6-3.7-3.2-7.6-5.2-12.4
		c18.8-4.4,36.9-8.8,55.1-13.2c0-0.2,0-0.4-0.1-0.5c-7.2,1.2-14.4,2.3-21.5,3.8c-9.5,2-19,3.7-28.3,6.4c-4.8,1.4-6.9,0.5-7.6-4.4
		c-0.3-1.9-1.1-3.6-2-6.8c20.1-4.9,39.9-9.7,59.8-14.5c0-0.2-0.1-0.4-0.1-0.6c-9.9,1.9-19.8,3.6-29.6,5.8c-10,2.1-19.8,4.5-29.6,6.8
		c-0.4-0.4-0.9-0.6-1-0.8c-2.8-11.1-2.8-11.4,8.3-14.1c17.5-4.4,35.1-8.6,52.6-13.8c-20.9,4.4-41.8,8.9-63.2,13.4
		c-0.2-3.9-0.4-7.7-0.6-12.8c21.3-5.2,42.8-10.5,64.2-15.7c-0.1-0.3-0.1-0.6-0.2-0.9c-21.3,4.5-42.4,9.1-64.3,13.7
		c0-3.5-0.3-6.8,0.2-10.1c0.1-1.2,1.7-2.7,2.8-2.9c18.4-4.7,36.8-9.3,55.3-13.8c2.4-0.6,4.8-1,7.2-1.4c-0.1-0.4-0.2-1-0.3-1.4
		c-21.4,4.5-42.8,9.1-65.1,13.9c0-3.3-0.4-6.8,0.2-10.1c0.2-1.2,2.6-2.6,4.2-3c30-7.6,60.3-13.2,91.1-16.2c27.8-2.8,55.5-2.8,83.3,0
		c30.1,2.9,59.7,8.4,88.9,15.8c3.6,0.9,5.2,2,4.8,5.9c-0.3,2.6-0.1,5.2-0.1,8.7c-16-5.8-32.8-6.3-47.9-13.8c-5.4,4.9-12.1-2-19,0.1
		c4.1,0.8,7.4,1.2,10.5,2c1.5,0.4,3.1,1.7,3.7,3c0.4,0.7-1.3,2.4-1.7,3c1.4,1.9,2.8,3.9,4.1,5.5c1.7-0.2,3.9-0.4,6-0.6
		c1.2-1.3,2.8-3.1,4.4-5c-0.2-0.2-0.9-1-1.8-1.9c0.5-0.3,0.9-0.6,1.2-0.5c12.6,3.3,25.2,6.5,37.7,10c1.2,0.4,2.6,2.3,2.8,3.6
		c0.4,3.1,0.1,6.3,0.1,9.5c-13.1-1.6-18.7-4-18.3-6.8c-2.2-1-4.4-1.9-6.3-2.8c-1.3,0.4-3.3,1.9-5,1.6c-10.6-1.5-21.2-3.4-31.8-5.1
		c-1.5-0.3-3.1-0.2-4.6,0.1c12.1,2.7,24.1,5.3,36.2,8c0.2,0.5,0.4,1.1,0.5,1.7c-1.2,0.7-2.3,1.3-2.7,1.5c1.6,2,3.1,3.8,4.5,5.5
		c1.6,0,3.9,0,6.4,0c0.8-4.2,3-5.4,8.9-3.9c13,3.4,14,4.8,10.4,15.7c-21-4.7-42.1-9.3-63.6-14.1c1.5-3.2,2.3-4.9,3.5-7.4
		c-2.7,0.4-4.7,0.8-6.8,1.2c-1-2-1.9-3.8-3.3-6.8c-0.9,6.6-4.2,7.9-9.8,5.4c1.2,2.5,2,4,2.8,5.8c-1.5,1.6-3.1,3.2-4.8,5
		c2.1,0.5,4.1,1.1,6.5,1.7c0.1,2,0.3,4.1,0.4,6.8c1.9-1.6,3.3-2.8,5.1-4.4c1.5,1.2,3.1,2.5,5.2,4.2c0.1-2.4,0.3-4.4,0.4-6.4
		c6-3.6,12-1.2,17.9,0.3c14.3,3.6,28.6,7.2,43,10.9c1.3,0.4,2.6,1.1,4,1.7c-0.9,3.9-1.7,7.7-2.5,11.7c-11.9-2.8-23.6-5.6-35.1-8.4
		c0-0.4-0.1-0.7-0.1-1.1c1.7-0.3,3.4-0.4,5.2-0.7c0.5-1.4,1.3-3.5,2.1-5.4c-1.6-1.2-3.4-2.6-5-3.7c-1.7,1.2-3.4,2.4-4.8,3.5
		c0.4,2.2,0.7,4.5,1.2,7.3c-8.8-1.5-16.5-2.8-24.3-4.3c0,0.2-0.1,0.4-0.1,0.4c20,4.9,40.1,9.8,60.5,14.7c-1.4,4.6-2.6,8.3-3.9,12.4
		c-12.6-2.8-24.9-5.6-37.5-8.5c0.7-2,1.3-3.6,1.4-3.9c-3-1.5-5.7-2.9-8.4-4.3c-0.3,0.5-1,2.1-1.7,3.9c-2-0.4-3.6-0.8-5.7-1.2
		c0.2,0.8,0.3,1.6,0.5,2.7c-1.6,0-3.1,0-4.6,0c0,0.3,0,0.4-0.1,0.7c1,0.2,2,0.2,2.9,0.4c1,0.3,2,0.8,3.3,1.3c-1.4,1.2-2.6,2.2-4,3.5
		c1.9,0.7,3.6,1.2,5.6,2c-0.1,1.6-0.2,3.3-0.4,5.5c1.8-1.3,3.2-2.4,4.8-3.6c1.3,0.9,2.6,1.8,3.9,2.8c0.9-5.8,4.8-7.8,11.6-6.1
		c8,2,16,4.2,24,6.3c0.8,0.2,1.6,0.7,2.4,1.2c0,0.5,0.1,1.1,0,1.5c-3.2,10.1-3.2,10.1-13.5,7.9c-12.1-2.6-24.1-5-36.2-7.4
		c-1.2-0.3-2.4,0-5.1,0c17.3,4.1,33.3,7.8,49.1,11.5c-0.1,1,0,1.4-0.1,1.7c-5.5,10.4-5.5,10.4-17.3,8c-10-2-19.9-3.9-30.2-4.9
		c13.2,3,26.4,6,40.6,9.3c-2.4,3.7-4.1,7.1-6.6,9.7c-1.2,1.2-4.1,1.6-6,1.3c-9-1.5-17.9-3.4-27-4.1c9.9,2.2,19.7,4.4,30.5,6.8
		c-3.1,4-5.4,7.6-8.3,10.6c-0.9,0.9-3.2,0.9-4.7,0.7c-7.6-1.2-15.1-2.7-22.8-3.1c8,1.7,16.1,3.4,24.1,5c-3.6,9.2-8.7,11.7-17.6,10.4
		c-9.1-1.2-18.2-1.2-27.4-1.8c-1.5-0.1-3,0.2-5.4,0.3c3.8-9.2,7.3-17.5,11-26.5c-8.8,1.5-17,2.5-25,4.6c-3.5,0.9-6.1,5.2-9.7,6
		c-8,1.9-16.3,2.9-24.5,3.5c-7.6,0.5-14.3-2.3-20.9-6.3c-3.7-2.3-9.2-2-13.8-2.8c-7.9-1.5-15.8-3.1-24-3.6
		c11.7,3.7,23.5,7.4,35.2,11.1c-0.1,0.4-0.3,1-0.4,1.4c-10.9-2.3-21.7-4.6-34-7.3c1.5,1.5,2.3,3,3.4,3.3c12,3.3,24.1,6.4,36.1,9.5
		c1.1-2.6,1.7-4.2,2.8-6.8c1.1,2.9,1.7,4.9,2.8,8.1c1.4-2.9,2.2-4.5,3.4-7c1.2,2.8,2,4.7,3.1,7.6c1.4-3,2.2-4.8,3.1-6.7
		c0.4,0.1,0.8,0.3,1.2,0.4c0.3,1.6,0.4,3.3,0.9,6.1c11.3-1.6,22.4-3.1,32.6-4.5c-5.2,4.4-19.4,7.7-42.2,6.5
		c-14.6-0.8-29.1-4.6-44.9-7.3c10.4,5.9,21.4,7.1,31.3,11.8c-2.5-0.4-5.1-0.6-7.6-1.1c-2.6-0.4-5.3-0.5-7.8-1.3
		c-6-1.9-11.7-2.7-18-0.8c-6,1.8-12.5,2-18.8,3.1c-3.4,0.5-6,0.4-8.1-3c-1.4-2.3-3.6-4.2-6.1-7c9.2-1.9,17.4-3.6,25.8-5.3
		c0-0.3-0.1-0.5-0.1-0.8c-6.7,1.2-13.4,1.9-19.9,3.6c-5.3,1.4-8.7,0.3-11.3-4.5c-1.1-2-2.7-3.7-4.6-6.4c12.8-2.8,24.9-5.3,36.9-7.9
		c0-0.3-0.1-0.5-0.1-0.7c-7.6,1.3-15.1,2.6-22.8,3.9c-1.4,0.3-2.8,0.5-4.2,0.8c-12.2,2.3-12.2,2.3-18.5-9.7
		c9.3-2.2,18.5-4.3,27.7-6.5c4.4-1.1,8.6-2.1,13-3.3l-0.2,0.2c3.5-0.3,6.9-0.5,10.1-0.8c-5-4.5-3.9-10.1-5.3-15.7
		c1.9,0.5,3.5,0.8,3.5,1.1c0.3,6.5,4.6,4.6,9.6,4.4c-1.6-5-3-9.4-4.4-14c-2.3,0-4.4,0-6.8,0c0,2.9,0,5.3,0,7.8
		c-0.5,0.1-1.1,0.1-1.6,0.2c-0.9-2.8-1.8-5.7-2.9-9.4c-0.4,4.3-0.6,7.4-1,10.5L248.2,253.5z M350.2,274.9
		c23.7-19.4,19.6-47.8,3.7-64.5c-2.1,5.2-5.8,6.3-11,3.3c1.9-0.8,3.6-1.5,5.3-2.2c-0.2-0.5-0.4-1.1-0.5-1.6
		c-21,6.6-42.1,13.2-63.1,19.8c9.1,4,14.9,10.1,16.2,19.5c0.8,5.5,0.5,11.3-0.2,16.9c-0.7,5.8-2.4,11.4-3.6,17
		c9.2-3.4,18-7.1,27-9.8C332.7,270.7,341.7,268.8,350.2,274.9z M247.1,271.3c1.2,4.4,0.4,8.6,5.9,9.5c7.3,1.2,14.4,3.1,21.6,4.6
		c4.2,0.9,8.4,1.5,12.5,2.2c-0.4-7.1-3.7-10.1-10-10c-0.4,0-0.6-0.3-1-0.4C266.7,275.5,257.3,273.5,247.1,271.3z M354.8,278.4
		c-0.7,2.7-1.3,5.2-2.2,8.4c9.1-1.9,17.4-3.8,25.9-5.2c5.8-1,9.5-3.3,8.4-10.1c-5,1.2-10.2,2.7-15.5,3.8
		C366.1,276.4,360.6,277.3,354.8,278.4z M326.1,190.6c0.4,0.3,0.5,0.4,0.6,0.4c8.3,1.3,16.6,2.7,24.9,4c0.6,0.1,1.6,0.4,1.8,0.7
		c2,4.9,5.5,2.8,8.1,2.3c-2-1.3-5.4-2.4-6.4-4.5c-1.4-3.3-3.1-4.2-6.3-3.9c-3.8,0.4-7.6,0.5-8.3-4.7c-0.1-0.6-1.5-1.5-2.4-1.5
		c-4-0.2-8-0.1-12.1-0.1C326.1,186.2,326.1,188.4,326.1,190.6z M313.1,210.6c4.4,0,8.4,0,12.5,0c0.4-3.5,1-6.8,1.4-10.3
		c-5.2,0-10,0-15.3,0C312.2,204,312.6,207.3,313.1,210.6z M319.9,277.6c-0.4,0-0.6,0-1,0c0,7.5,0,15,0,22.5c0.4,0,0.6,0,1,0
		C319.9,292.7,319.9,285.1,319.9,277.6z M389.5,258.3c-0.4-0.4-0.8-0.7-1.2-1c-3.6,4.5-7.3,9-10.9,13.5c0.4,0.3,0.7,0.6,1.1,0.9
		c1.7-2.8,5.8-2.8,6.4-7.1C385.2,262.3,387.9,260.4,389.5,258.3z M318.9,195.8c0.4,0,0.6,0,1,0c0-4.4,0-9,0-13.4c-0.4,0-0.6,0-1,0
		C318.9,186.8,318.9,191.4,318.9,195.8z"/>
	<path class="st0" d="M429,69.4c0,1.1-0.3,2.1,0.1,3.1c4.2,12.5,6,25.1,0.4,37.7c-0.8,1.9-2,3.6-3.1,5.9c7.6,2.1,15.1,4.3,22.8,6.3
		c7.9,2.2,7.9,2.1,7.8,10.5c0,1.4-0.2,2.8-0.3,4.4c-9.7-2.2-19.1-4.3-28.5-6.8c-1.4-0.4-2.7-3-3.2-4.8c-0.9-3.4-1.2-7-1.9-11.7
		c-3.5,8.3,0.5,17.3,7.4,19c7.1,2,14.1,4.4,21.3,6c4.2,0.9,5.5,2.8,5.1,6.8c-0.3,2.2-0.1,4.5-0.1,6.9c-22.4-4.8-44.4-9.5-66.4-14.2
		c0,0.3-0.1,0.4-0.1,0.7c19.6,5,39.2,9.9,58.8,14.9c8.4,2.2,8.4,2.4,7.4,12.2c-7.6-1.8-14.9-3.9-22.4-5.2
		c-22.9-3.9-45.9-7.9-68.9-11.1c-12.5-1.7-25.1-1.8-37.6-2.3c-2.7-0.1-4.3-0.5-4.3-3.7c0.1-39.4,0-78.8,0-118.7
		c8.4,0,16.5-0.5,24.5,0.1c34.6,2.7,68.6,8.9,101.9,18.1c8,2.2,7.9,2.3,7.6,10.8c-0.1,1.1-0.2,2.1-0.3,3.2
		c-21.6-4.6-43-9.3-64.5-13.9c0,0.3-0.1,0.5-0.1,0.8c19.2,4.9,38.3,10.1,57.7,14.6c6,1.3,8,3.9,7.1,9.6c-0.3,1.5,0,3.1,0,5.3
		c-8.9-2.1-17.4-4.3-25.9-6.2c-0.5-0.1-1.2,0.8-1.9,1.2C429.2,69.1,429,69.4,429,69.4z M359.8,79.7c-0.4,7.3-0.9,14.6-1.3,21.6
		c4.3,0,7.6,0,11.3,0c0-6.7,0-13,0-18.1c-4.2-1.5-7.1-2.6-10.1-3.7c2.8-0.3,5.8-0.5,8.6-0.8c-1-7.3-3.9-11.9-7.7-11.7
		c-4.7,0.3-6,3.9-7.1,8.4c3.2-3,3.6-9.2,9.4-6.5C361.7,73,360.7,76.3,359.8,79.7z M376.1,76.8c1.1,5.8,2.1,11.7,3.3,17.5
		c3.2,0,6.5,0,11.1,0c-1.1-7.2-1.4-14.1-3.2-20.5c-2.8-10.1-5.3-11.3-15.7-9.5C373.2,68.4,374.7,72.6,376.1,76.8
		c-1.2-2.3-2.2-4.9-3.9-7c-1.5-2-3.7-3.3-5.7-4.9c-0.4,0.4-0.7,0.8-1.1,1.2c5.8,7.7,7,16.7,7.1,26c0.1,9.2-1.6,18-6.6,26.1
		c2-0.9,4.1-1.9,4.9-3.5c2-4.4,4.4-9.1,4.8-13.8C376.6,93,376,84.9,376.1,76.8z M390,61.6c2.2,7,4.2,13.3,6.4,19.7
		c0.4,1.1,1.7,2.6,2.7,2.6c5.5,0.3,11.1,0.1,18.1,0.1c-2.4-6.6-3.9-12.1-6.4-17.3c-2-3.9-5.5-5.3-10.1-3.6c-1.8,0.7-4.3-0.2-6.4-0.5
		C392.8,62.4,391.3,62,390,61.6z M417.7,65.5c3.6,9.1,7.6,18,6,27.9c2,0.4,3.5,0.8,6.5,1.5c-3.2,0.8-4.8,1.2-6.2,1.5
		c0,2.6,0,4.7,0,6.9c5.5-0.3,6-0.4,6.1-4c0.2-5.7,0.4-11.5,0-17.2C429.3,72.8,424.8,67,417.7,65.5z M384.8,62.9
		c9.2,19.6,10.3,38.9-0.3,58.4c10.1-7.6,11.1-19.1,11-30.3C395.6,80.5,394.6,69.7,384.8,62.9z M413.3,118.3
		c10.1-12.4,9.8-26.7,7.1-41.3c-1.4-7.9-4.8-11.8-8.5-12.6C420,82.1,420.8,100,413.3,118.3z M397.7,85.5c-1,9-0.5,9.3,7.8,8.8
		c3.5-0.3,6.9,0,10.7,0c0-3.3,0-5.9,0-8.8C409.8,85.5,403.8,85.5,397.7,85.5z M397.4,105.4c3.9-0.3,7.4-0.4,10.9-0.6
		c7.1-0.6,7.1-0.6,7-7.5c-6,0-11.8,0-17.9,0C397.4,99.8,397.4,102.2,397.4,105.4z M413.7,107.4c-4.5,0.4-8.5,1.3-12.5,1.1
		c-4.7-0.3-6.8,1.5-6.7,6.1C407.9,115.8,412.1,114.3,413.7,107.4z M361.6,130.4c6.1-6,10.3-3.9,13.9,1.7c0.2-0.4,0.4-0.9,0.6-1.4
		c-0.6-4-1.2-8.1-1.8-12.1c-2.1,1.1-4.1,2.9-5.8,2.7C362.5,120.5,363,124.7,361.6,130.4z M389.4,97.1c-3.6-0.2-7.2-0.4-10.9-0.6
		c-0.2,3.1-0.4,5.9-0.5,8.5C388,106.1,388,106.1,389.4,97.1z M420.5,131.9c0.4-0.4,0.7-0.6,1.1-1c-0.8-4.7-1.7-9.4-2.4-14
		c-4.4,3.1-8.7,6-13,9c0.2,0.5,0.4,1.1,0.6,1.6c2.9,0.6,5.9,1.2,8.8,1.9c0.1-0.4,0.2-0.6,0.3-1c-1.9-0.6-3.8-1.3-5.9-2
		c2-3.3,4.4-3.6,6.5-1.1C418.2,127.2,419.2,129.6,420.5,131.9z M374.8,114.5c10.2,1.1,10.7,0.8,11.6-6
		C377.8,106,376.7,106.6,374.8,114.5z M409.1,117.7c-6,2.5-13.2-2-18.5,3C397.2,121.4,403.7,121.7,409.1,117.7z M419.5,111.1
		c7.2,1.8,8.4-1.3,8.9-5.2c-0.4-0.4-0.8-0.9-1.2-1.3C424.9,106.4,422.7,108.4,419.5,111.1z M379.4,132c0.5-0.1,1.1-0.3,1.5-0.4
		c-0.8-4.5-1.6-9-2.4-13.5c-0.6,0.1-1.2,0.3-1.9,0.4C377.5,123,378.4,127.4,379.4,132z"/>
	<path class="st0" d="M185,166.6c-1.4-10-1.5-10.2,7-12.5c19.2-5,38.5-9.8,57.6-15.3c-21.4,4.5-42.8,9.1-64.3,13.7
		c0-0.1-0.3-0.5-0.3-1.1c-0.4-11.1-0.4-11.2,10.5-14.2c11.8-3.2,23.7-6.2,36.7-9.6c-0.4,4.8-0.6,8.5-1,13.7
		c7.2-6.7,13.6-12.7,20.5-19.2c6.7,6.1,13.3,12.1,20.9,18.9c-0.8-10-1.5-18.8-2.2-28.1c9-1.5,17.8-3,27.7-4.7
		c-7.9-5.4-15.2-10.4-23-15.7c4.4-8,8.9-15.9,13.7-24.5c-9.3,2.8-17.8,5.5-26.8,8.3c-3.4-8.4-6.8-16.6-10.1-24.9
		c-0.4,0.2-1,0.3-1,0.4c-1.5,7.8-7.1,9.1-14.1,10.3c-17.1,3.1-34.1,7.1-51.9,11c0-3.6-0.3-7.3,0.2-10.8c0.2-1.2,2.3-2.5,3.7-2.8
		c19.6-5.1,39.1-10.1,58.6-15.7c-20.6,4.4-41.4,8.8-62.3,13.3c0-3.2,0-6.3,0-10.3c42.5-12.1,85.8-20.8,131-21.8
		c0.2,2,0.4,3.6,0.4,5.1c0,37.3-0.1,74.5,0.1,111.8c0,4.2-0.8,6-5.4,6c-41,0.4-81.1,7.9-120.9,17.3C188.7,165.8,187,166.1,185,166.6
		z"/>
	<path class="st0" d="M403.3,318.9c-4.5,6.9-8.8,10.2-15.9,9.3c-3.6-0.5-7.7,0.6-11.3,1.9c-11.9,4-23.9,5.1-35.8,1.1
		c-10.6-3.5-20.8-2.8-31.1,0.4c-11.7,3.7-23,3.6-34.9,0.1c-5.9-1.8-12.5-1.6-18.8-1.4c-5,0.1-9.3,0-12.6-4.5
		c-1.2-1.8-3.6-2.8-5.5-4.1c0.3-0.7,0.5-1.3,0.8-2c4.4-1.1,8.9-2.3,13.4-3.1c9.6-1.7,19.2-2.3,28.6,1.6c10.2,4.2,20.6,1.6,30.7-1
		c9.2-2.4,18.4-2.8,27.1,0.5c13,5.1,25.7,4.1,39,1.6C385.2,317.7,393.8,318.9,403.3,318.9z"/>
	<path class="st0" d="M438.8,31.1c-8.1-1.7-16.1-3.6-24.2-4.9c-16-2.6-32-5.5-48.1-6.9c-17.6-1.6-35.4-2.1-53.1-2.2
		c-29.4-0.1-58.4,4.7-87.1,11.2c-15.4,3.5-30.6,8.1-46,11.9c-3.2,0.8-3.7,2.3-3.7,5.2c0.1,55.2-0.4,110.5,0.3,165.6
		c0.4,31.2,12,59.1,29.1,84.9c1.2,1.8,2.4,3.6,3.5,5.3c0.1,0.2-0.1,0.6-0.4,2.6c-6.2-9.9-12.3-18.5-17.3-27.7
		c-13.1-23.4-19.4-48.6-19.3-75.5c0.2-52.2,0.1-104.4,0-156.6c0-4.3,1.2-6,5.4-7.3c28.7-8.6,57.9-15.6,87.7-18.8
		c20.5-2.2,41.3-3.6,61.9-4.2c32.4-0.8,64,4.9,95.4,12c5.4,1.2,10.9,2.8,16.3,4.1C439.1,30.4,439,30.7,438.8,31.1z"/>
	<path class="st0" d="M252.1,334.5c9-0.4,16.5-0.4,23.5,2.8c11.3,5.3,22.8,5.1,34.6,2.2c9.1-2.2,18.2-2.2,27,1.2
		c12.7,5.1,25.4,6.7,38.6,2.2c0.4-0.2,1.1,0,1.6,0.1c-5.5,8.5-15.5,11.7-27.8,9.1c-8.9-1.9-17.9-4.4-26.9-4.5
		c-7.5,0-14.9,3.5-22.5,4.9c-14.6,2.8-28.1,1.2-39.2-10C258.6,340.2,255.9,337.9,252.1,334.5z"/>
	<path class="st0" d="M247,269.4c-12.3,2.2-24.6,4.1-36.8,6.8c-4.2,1-6.2,0.4-7.7-3.4c-0.9-2.3-2.1-4.4-3.7-7.5
		c8.9-2.2,17.4-4.4,26-6.5c7.8-1.9,15.7-3.6,23.5-5.4l-0.2,0.1c4.6,4,3.3,9.6,4.4,14.1C250.1,268.4,248.5,268.9,247,269.4L247,269.4
		z"/>
	<path class="st0" d="M467.6,107.5c0,12.5-0.1,24.8,0,37.3c0.3,19.3,0.5,38.7,1.1,58c0.6,24.5-5.8,47.1-16.8,68.7
		c-13.8,27-33.2,49.6-55.1,70.3c-0.6,0.5-1.3,1-2.8,0.8c1.2-1.2,2.4-2.5,3.6-3.7c21.6-21,40.3-44.1,53-71.8
		c9.1-19.8,14-40.6,14.1-62.4c0.2-24.1,0.7-48.2,1-72.4c0.1-8.3,0-16.6,0-24.9C466.4,107.3,467,107.4,467.6,107.5z"/>
	<path class="st0" d="M185,137c0-3.6-0.2-7.1,0.1-10.6c0.1-1,1.1-2.5,2-2.7c14.3-3.7,28.6-7.3,43-10.9c0.8-0.2,1.7,0.2,3.2,0.4
		c-0.4,4.4-0.8,8.4-1.2,13C216.5,129.7,201,133.4,185,137z"/>
	<path class="st0" d="M283.9,358.8c8.5,4,17.2,1.9,25.5,0.1c14.2-3,27.2,0.2,40.4,6.2c-4.3,3.8-7.9,6.8-14.5,5.1
		c-8.9-2.4-18-1-26.4,2.7c-3.6,1.5-6.3,0.7-9.3-1.3c-5.4-3.9-10.9-7.6-16.4-11.5C283.4,359.6,283.6,359.1,283.9,358.8z"/>
	<path class="st0" d="M228.8,94c-5.2,1.5-9.5,3-14,4.2c-9.7,2.5-19.4,4.8-29.9,7.4c0-3.9-0.3-7.6,0.2-11c0.1-1.1,2-2.4,3.2-2.8
		c10.1-2.9,20.3-5.7,30.4-8.2c1.4-0.4,3.9,0.9,5.1,2.1C225.6,87.6,226.7,90.3,228.8,94z"/>
	<path class="st0" d="M185,89.5c0-3.8-0.3-7.4,0.2-10.8c0.1-1.2,1.7-2.7,2.9-3c7.6-2.3,15.1-4.4,22.8-6.2c1.4-0.4,3.9,0.9,4.9,2.1
		c2,2.6,3.4,5.7,5.4,9.2C208.9,83.7,197.3,86.6,185,89.5z"/>
	<path class="st0" d="M185,121.3c0-3.6-0.2-7,0.1-10.3c0.1-1.2,1.2-2.8,2-3.1c9.5-2.8,19-5.3,29.1-6.8c-3.3,2.4-6.6,4.8-10.9,7.9
		c6.1,1,11.2,1.7,16.3,2.5c0,0.4,0,0.7,0,1C209.7,115.3,197.6,118.3,185,121.3z"/>
	<path class="st0" d="M429,114.7c1.8-4.3,3.5-8.1,5.2-12.4c6.6,1.9,13.3,3.6,19.7,5.7c1.3,0.4,2.8,2.5,2.9,3.9
		c0.4,2.9,0.2,6,0.2,9.7C447.3,119.3,438.2,117,429,114.7z"/>
	<path class="st0" d="M429.2,69.1c7.4,2.1,14.8,4.5,22.2,6.3c4.4,1.1,6.1,3.1,5.5,7.6c-0.3,2-0.1,4.2-0.1,6.9
		c-7.4-1.8-14.1-3.3-20.9-5.2c-1.1-0.3-2-2-2.5-3.1c-1.7-4-3.1-8.1-4.7-12.2C429,69.4,429.2,69.1,429.2,69.1z"/>
	<path class="st0" d="M434.6,86.6c7.9,2.2,14.9,4.2,22.1,6.3c0,4.2,0,8.2,0,12.9c-7-1.7-13.8-3.3-20.5-5.1c-0.7-0.2-1.5-1.9-1.6-2.8
		C434.4,94.4,434.6,91,434.6,86.6z"/>
	<path class="st0" d="M247,61.3c-2.2,5.7-4,10.4-6,15.2c-8.5-2.6-16.5-5-24.5-7.5c0-0.4,0-0.7,0-1.2C226.2,65.9,235.9,63.7,247,61.3
		z"/>
	<path class="st0" d="M248.1,98.7c-3.8,3.6-7.4,7.6-11.6,10.7c-1.8,1.3-5,1.4-7.5,1.2c-4.9-0.4-9.7-1.4-14.8-3.1
		c11.1-3.3,22.1-6.5,33.3-9.8C247.8,98,247.9,98.3,248.1,98.7z"/>
	<path class="st0" d="M251.2,100.8c0,5.6,0.1,11.3-0.1,16.9c0,1-0.4,2.1-1.1,2.8c-4.4,4.3-9,8.4-14.3,12.1
		c4.8-10.7,9.5-21.3,14.3-32C250.4,100.6,250.9,100.7,251.2,100.8z"/>
	<path class="st0" d="M221.4,75c8.9,6.3,17.8,12.6,26.8,18.9c-0.1,0.4-0.2,0.7-0.4,1.1c-5-0.4-9.9-0.8-14.8-1.5
		c-1.2-0.2-2.5-1.3-3.2-2.4c-3.2-5-6.1-10.1-9.2-15.2C220.9,75.6,221.2,75.3,221.4,75z"/>
	<path class="st0" d="M251,58.8c0,12.1,0,22.6,0,33.1C242.2,84.7,242,75.8,251,58.8z"/>
	<path class="st0" d="M254.1,100.4c13.6,6.2,15.5,17.7,14.2,30.6C263.7,120.9,259,110.9,254.1,100.4z"/>
	<path class="st0" d="M287.9,105.5c-10.3-2.8-20.7-5.7-31.4-8.5C269.7,90.3,279,97.4,287.9,105.5z"/>
	<path class="st0" d="M280,74.4c-8.3,6.2-16.5,12.4-25.2,18.9C257,78.4,268.3,76.2,280,74.4z"/>
	<path class="st0" d="M310.6,377.2c7.2,0,13.2,0,19.7,0C323.2,384.7,319.3,384.8,310.6,377.2z"/>
	<path class="st0" d="M341.4,213.9c-3.1,5.5-6.7,6.1-11.2,3.6C333.5,216.5,336.9,215.3,341.4,213.9z"/>
	<path class="st0" d="M319.1,254.2c-1,5.7-2,11.5-3,17.2c-0.5-0.1-1.2-0.2-1.7-0.3c1.2-5.7,2.3-11.4,3.5-17.1
		C318.3,254.1,318.7,254.2,319.1,254.2z"/>
	<path class="st0" d="M307.5,271.9c0.8-5.4,1.7-10.9,2.5-16.2c0.4,0.1,0.9,0.1,1.4,0.2c-0.7,5.5-1.4,11-2.1,16.5
		C308.7,272.2,308.2,272,307.5,271.9z"/>
</g>
</svg>
