<?xml version="1.0" encoding="utf-8"?>
<!-- Generator: Adobe Illustrator 19.1.1, SVG Export Plug-In . SVG Version: 6.00 Build 0)  -->
<svg version="1.1" id="Layer_2" xmlns="http://www.w3.org/2000/svg" xmlns:xlink="http://www.w3.org/1999/xlink" x="0px" y="0px"
	 viewBox="80 0 640 480" style="enable-background:new 80 0 640 480;" xml:space="preserve">
<style type="text/css">
	.st0{fill-rule:evenodd;clip-rule:evenodd;fill:#FFFFFF;stroke:#FFFFFF;stroke-width:0.8501;stroke-miterlimit:2.6131;}
	.st1{fill-rule:evenodd;clip-rule:evenodd;fill:#231F20;}
</style>
<g>
	<path class="st0" d="M599.8,318.5c0,9.7-2.7,18.9-7.5,27.7l-10.6-8.8c-6.7,2.2-12.4,9.2-13.3,16.2l11.1,8.3
		c-10.6,9.2-23.9,14-37.2,14c-21.7,0-50.5-17.1-50.5-40.8c0-11.4,8.4-23.4,20.8-23.4c11.5,0,21.3,9.3,21.3,20.7
		c0,9.2-7.5,18.9-16.8,20.2l13.3,10.5c10.6-4.4,20.4-17.1,20.4-28.5c0-4-0.9-7.5-2.2-10.5c1.8,0.4,4,0.4,5.8,0.4
		c13.7,0,26.6-13.3,29.3-26.6l-13.3-10.7v1.3c0.4,10.7-10.2,20-20.4,20c-11.5,0-21.3-9.8-21.3-21.4c0-12.5,12.9-21.8,24.8-21.8
		C579.4,265.6,599.8,293.6,599.8,318.5L599.8,318.5z M617.1,366l-11.5-9.6c7.1-11.4,10.6-24.6,10.6-38.2c0-38.7-30.1-69.1-68.7-69.1
		c-18.6,0-36.8,7.4-50.5,19.7l-3.1-2.7l10.6-12.7c-1.8-5.7-7.1-10.1-13.3-11l-10.6,13.2l-63.3-51.4l62-50.2l8.4,10.2l-11.1,9.3
		l8.4,10.7l11.5-9.3l8.4,10.7l-11.1,9.3l8.4,10.7l30.6-24.9l-32.3-18.2l8.9-7.1l30.1,16.9l-10.2-32.9l8.4-7.1l11.1,35.5l31-24.9
		l-8.4-11.1l-11.5,9.3l-8.9-10.7l11.5-9.3l-8.4-10.7l-11.5,9.3l-8.4-10.6l25.3-20.4c-0.9-7.1-6.7-14.6-13.8-16.4L410.6,181.9V4.9
		c-3.1-2.2-7.1-3.1-10.6-3.1c-3.5,0-7.5,0.9-10.6,2.6V37h-13.8V22.5h-13.8V37h-13.4V22.5h-13.7v39.7l34.2-13.7v11.1l-31.6,12.8
		l31.6,12.8v11.5l-34.2-14.2V122h13.7v-14.7h13.4V122h13.8v-14.7h13.8v74.2l-135-109.1c-6.6,1.8-12.4,9.3-13.3,16.4l25.3,20.4
		l-8.4,10.6l-11.5-9.3l-8.9,10.7l11.5,9.3l-8.4,10.7l-11.5-9.3l-8.9,11.1l31,24.9l11.1-35.5l8.4,7.1l-10.2,32.9l30.6-16.9l8.4,7.1
		l-32.3,18.2l30.6,24.9l8.9-10.7l-11.5-9.3l8.4-10.7l11.5,9.3l8.9-10.7l-11.5-9.3l8.4-10.2l62.3,50.2l-63.6,51.4l-10.6-13.2
		c-5.8,0.9-11.5,5.3-13.3,11l10.6,12.7l-3.1,2.7c-13.3-12.3-31.9-19.7-50.5-19.7c-38.6,0-68.8,30.4-68.8,69.1
		c0,13.7,4,26.8,11.2,38.2l-12,9.6c0.9,7,6.7,14.1,13.4,16.3l12-9.7c13.7,12.8,31.9,20.4,50.5,20.4c38.6,0,68.7-30.9,68.7-68.6
		c0-13.7-4-27.1-10.6-38.7l3.1-2.7l10.7,13.4c5.8-0.9,11.6-5.3,13.4-11.1l-10.7-12.9l56-45.5v73.1h-16.9c-1.8,2.7-2.7,5.8-2.7,8.9
		c0,3.1,0.9,5.8,2.2,8.4h17.4v4c-34.9,5.3-62.3,33.8-62.3,69c0,36.3,27.4,65.2,62.3,70.1l0.4,15.1c3.1,1.8,6.6,2.7,10.6,2.7
		c3.5,0,7.1-0.9,10.2-2.7v-15.1c35-4.9,62.9-33.8,62.9-70.1c0-35.7-27.9-64.2-62.9-69v-4h17.3c1.3-2.7,2.2-5.3,2.2-8.4
		c0-3.1-0.9-6.2-2.2-8.9h-17.3v-73.1l56.7,45.5l-10.6,12.9c1.8,5.8,7.1,10.2,13.3,11.1l10.6-13.4l3.1,2.7
		c-7.1,11.6-10.6,24.9-10.6,38.7c0,37.7,30.1,68.6,68.7,68.6c18.6,0,36.8-7.5,50.6-20.4l11.5,9.7C610.9,380,616.2,373,617.1,366
		L617.1,366z M456.7,390.2c0,27.2-19.9,48.8-46.1,53.2v-13.8c-3.1-1.8-6.6-2.7-10.6-2.7c-3.5,0-7.1,0.9-10.6,2.7l0.4,13.8
		c-26.2-4.4-45.8-26.1-45.8-53.2c0-18.1,7.8-37,28.4-37c11.6,0,19.6,9.2,19.6,20.6c0,10.6-9.3,20.2-20.5,20.2
		c-4.9,0-10.2-1.6-13.7-5.1v17.5c4.3,2.2,9.7,3.5,15,3.5c12,0,21.4-3.5,27.1-14.2c6.2,10.6,15.5,14.2,27.5,14.2
		c4.9,0,10.2-1.3,14.6-3.5v-17.5c-3.5,3.5-8.9,5.1-13.7,5.1c-11.1,0-19.9-9.6-19.9-20.2c0-11.4,7.5-20.6,19-20.6
		C448.7,353.2,456.7,372.1,456.7,390.2L456.7,390.2z M308.9,335.3c0,23.7-28.8,40.8-50.5,40.8c-13.3,0-26.6-4.8-37.2-14l11.1-8.3
		c-0.9-7-6.6-14-13.3-16.2l-10.6,8.8c-4.9-8.8-7.5-18-7.5-27.7c0-24.9,20.8-52.9,46.5-52.9c12,0,24.8,9.4,24.8,21.8
		c0,11.6-9.8,21.4-21.3,21.4c-10.6,0-21.3-10.2-20.4-21.4l-13.3,10.7c2.7,13.3,15.5,26.6,29.3,26.6c1.8,0,4,0,5.8-0.4
		c-1.3,3.1-2.2,6.6-2.2,10.5c0,11.4,9.8,24.1,20.4,28.5l13.3-10.5c-9.3-1.3-16.8-11-16.8-20.2c0-11.4,9.8-20.7,21.3-20.7
		C300.5,311.9,308.9,323.8,308.9,335.3L308.9,335.3z"/>
	<path class="st1" d="M599.8,318.5c0,9.7-2.7,18.9-7.5,27.7l-10.6-8.8c-6.7,2.2-12.4,9.2-13.3,16.2l11.1,8.3
		c-10.6,9.2-23.9,14-37.2,14c-21.7,0-50.5-17.1-50.5-40.8c0-11.4,8.4-23.4,20.8-23.4c11.5,0,21.3,9.3,21.3,20.7
		c0,9.2-7.5,18.9-16.8,20.2l13.3,10.5c10.6-4.4,20.4-17.1,20.4-28.5c0-4-0.9-7.5-2.2-10.5c1.8,0.4,4,0.4,5.8,0.4
		c13.7,0,26.6-13.3,29.3-26.6l-13.3-10.7v1.3c0.4,10.7-10.2,20-20.4,20c-11.5,0-21.3-9.8-21.3-21.4c0-12.5,12.9-21.8,24.8-21.8
		C579.4,265.6,599.8,293.6,599.8,318.5L599.8,318.5z M617.1,366l-11.5-9.6c7.1-11.4,10.6-24.6,10.6-38.2c0-38.7-30.1-69.1-68.7-69.1
		c-18.6,0-36.8,7.4-50.5,19.7l-3.1-2.7l10.6-12.7c-1.8-5.7-7.1-10.1-13.3-11l-10.6,13.2l-63.3-51.4l62-50.2l8.4,10.2l-11.1,9.3
		l8.4,10.7l11.5-9.3l8.4,10.7l-11.1,9.3l8.4,10.7l30.6-24.9l-32.3-18.2l8.9-7.1l30.1,16.9l-10.2-32.9l8.4-7.1l11.1,35.5l31-24.9
		l-8.4-11.1l-11.5,9.3l-8.9-10.7l11.5-9.3l-8.4-10.7l-11.5,9.3l-8.4-10.6l25.3-20.4c-0.9-7.1-6.7-14.6-13.8-16.4L410.6,181.9V4.9
		c-3.1-2.2-7.1-3.1-10.6-3.1c-3.5,0-7.5,0.9-10.6,2.6V37h-13.8V22.5h-13.8V37h-13.4V22.5h-13.7v39.7l34.2-13.7v11.1l-31.6,12.8
		l31.6,12.8v11.5l-34.2-14.2V122h13.7v-14.7h13.4V122h13.8v-14.7h13.8v74.2l-135-109.1c-6.6,1.8-12.4,9.3-13.3,16.4l25.3,20.4
		l-8.4,10.6l-11.5-9.3l-8.9,10.7l11.5,9.3l-8.4,10.7l-11.5-9.3l-8.9,11.1l31,24.9l11.1-35.5l8.4,7.1l-10.2,32.9l30.6-16.9l8.4,7.1
		l-32.3,18.2l30.6,24.9l8.9-10.7l-11.5-9.3l8.4-10.7l11.5,9.3l8.9-10.7l-11.5-9.3l8.4-10.2l62.3,50.2l-63.6,51.4l-10.6-13.2
		c-5.8,0.9-11.5,5.3-13.3,11l10.6,12.7l-3.1,2.7c-13.3-12.3-31.9-19.7-50.5-19.7c-38.6,0-68.8,30.4-68.8,69.1
		c0,13.7,4,26.8,11.2,38.2l-12,9.6c0.9,7,6.7,14.1,13.4,16.3l12-9.7c13.7,12.8,31.9,20.4,50.5,20.4c38.6,0,68.7-30.9,68.7-68.6
		c0-13.7-4-27.1-10.6-38.7l3.1-2.7l10.7,13.4c5.8-0.9,11.6-5.3,13.4-11.1l-10.7-12.9l56-45.5v73.1h-16.9c-1.8,2.7-2.7,5.8-2.7,8.9
		c0,3.1,0.9,5.8,2.2,8.4h17.4v4c-34.9,5.3-62.3,33.8-62.3,69c0,36.3,27.4,65.2,62.3,70.1l0.4,15.1c3.1,1.8,6.6,2.7,10.6,2.7
		c3.5,0,7.1-0.9,10.2-2.7v-15.1c35-4.9,62.9-33.8,62.9-70.1c0-35.7-27.9-64.2-62.9-69v-4h17.3c1.3-2.7,2.2-5.3,2.2-8.4
		c0-3.1-0.9-6.2-2.2-8.9h-17.3v-73.1l56.7,45.5l-10.6,12.9c1.8,5.8,7.1,10.2,13.3,11.1l10.6-13.4l3.1,2.7
		c-7.1,11.6-10.6,24.9-10.6,38.7c0,37.7,30.1,68.6,68.7,68.6c18.6,0,36.8-7.5,50.6-20.4l11.5,9.7C610.9,380,616.2,373,617.1,366
		L617.1,366z M456.7,390.2c0,27.2-19.9,48.8-46.1,53.2v-13.8c-3.1-1.8-6.6-2.7-10.6-2.7c-3.5,0-7.1,0.9-10.6,2.7l0.4,13.8
		c-26.2-4.4-45.8-26.1-45.8-53.2c0-18.1,7.8-37,28.4-37c11.6,0,19.6,9.2,19.6,20.6c0,10.6-9.3,20.2-20.5,20.2
		c-4.9,0-10.2-1.6-13.7-5.1v17.5c4.3,2.2,9.7,3.5,15,3.5c12,0,21.4-3.5,27.1-14.2c6.2,10.6,15.5,14.2,27.5,14.2
		c4.9,0,10.2-1.3,14.6-3.5v-17.5c-3.5,3.5-8.9,5.1-13.7,5.1c-11.1,0-19.9-9.6-19.9-20.2c0-11.4,7.5-20.6,19-20.6
		C448.7,353.2,456.7,372.1,456.7,390.2L456.7,390.2z M308.9,335.3c0,23.7-28.8,40.8-50.5,40.8c-13.3,0-26.6-4.8-37.2-14l11.1-8.3
		c-0.9-7-6.6-14-13.3-16.2l-10.6,8.8c-4.9-8.8-7.5-18-7.5-27.7c0-24.9,20.8-52.9,46.5-52.9c12,0,24.8,9.4,24.8,21.8
		c0,11.6-9.8,21.4-21.3,21.4c-10.6,0-21.3-10.2-20.4-21.4l-13.3,10.7c2.7,13.3,15.5,26.6,29.3,26.6c1.8,0,4,0,5.8-0.4
		c-1.3,3.1-2.2,6.6-2.2,10.5c0,11.4,9.8,24.1,20.4,28.5l13.3-10.5c-9.3-1.3-16.8-11-16.8-20.2c0-11.4,9.8-20.7,21.3-20.7
		C300.5,311.9,308.9,323.8,308.9,335.3L308.9,335.3z"/>
</g>
</svg>
