<?xml version="1.0" encoding="utf-8"?>
<!-- Generator: Adobe Illustrator 21.1.0, SVG Export Plug-In . SVG Version: 6.00 Build 0)  -->
<svg version="1.1" baseProfile="tiny" xmlns="http://www.w3.org/2000/svg" xmlns:xlink="http://www.w3.org/1999/xlink" x="0px"
	 y="0px" viewBox="0 0 640 480" overflow="scroll" xml:space="preserve">
<g id="Layer_3">
	<path fill="#E51E26" d="M561,240c0,132.5-107.5,240-240,240S81,372.5,81,240S188.5,0,321,0l0,0C453.5,0,561,107.5,561,240L561,240"
		/>
	<path fill="#FFFFFF" d="M305.6,172.8c0,0,26.9-36.5,30.7-40.3c3.8-3.8,3.8-7.7-3.8-13.4s-32.6-19.2-38.4-23
		c-3.8-5.8-1.9-15.4,5.8-17.3c1.9-1.9,3.8-1.9,5.8-1.9c63.4-7.7,128.6-9.6,192-7.7c49.9,5.8,42.2,19.2,42.2,30.7s-19.2,28.8-48,51.8
		c0,0-44.2,42.2-76.8,69.1S278.8,337.9,257.6,353.3c-21.1,15.4-99.8,74.9-103.7,78.7c-3.8,3.8-19.2,15.4-26.9,7.7
		c-5.8-7.7-3.8-17.3,3.8-23C136.7,410.9,294.1,188.2,305.6,172.8"/>
</g>
<g id="Layer_2">
</g>
</svg>
