<?xml version="1.0" encoding="utf-8"?>
<!-- Generator: Adobe Illustrator 20.1.0, SVG Export Plug-In . SVG Version: 6.00 Build 0)  -->
<svg version="1.1" id="Layer_1" xmlns="http://www.w3.org/2000/svg" xmlns:xlink="http://www.w3.org/1999/xlink" x="0px" y="0px"
	 viewBox="0 0 640 480" style="enable-background:new 0 0 640 480;" xml:space="preserve">
<style type="text/css">
	.st0{fill:#28539C;}
</style>
<path class="st0" d="M0.7,218.4l30.5-1.4c1.4,0,2.8,1.4,2.8,2.1c1.4,15.6,0.7,32.6,1.4,48.2c2.1,6.4,9.2,12.1,15.6,13.5
	c26.9,2.8,52.4-2.1,74.4-13.5l0.7,12.1h1.4l73.7-7.8c39.7,16.3,89.3,10.6,123.3-14.2c2.8,1.4,5,3.5,7.8,5.7
	c25.5,18.4,63.8,24.1,94.3,12.1c8.5-3.5,16.3-7.1,23.4-12.8c8.5-8.5,10.6-23.4,5.7-34c-5.7-13.5-20.5-17.7-32.6-23.4
	c-28.3-10.6-63.1-9.2-90,4.3c-12.1,7.8-17,22.7-14.2,36.1l2.8,7.8c-5.7,5.7-12.8,9.2-19.8,12.1c-26.9,11.3-61,5.7-82.2-14.2
	c-5.7-6.4-14.2-14.2-12.1-24.1c0.7-6.4,6.4-12.1,12.8-13.5c14.9-5.7,32.6-6.4,48.2-1.4c-2.1,0.7-4.2,2.1-5,4.3c0,1.4-0.7,2.8,0,4.2
	c5,7.8,14.9,9.9,24.1,7.8c2.1-1.4,3.5-2.1,5-4.3c1.4-3.5-1.4-7.1-3.5-9.9c-7.1-7.1-15.6-7.1-24.1-9.2c-0.7,0.7-0.7,0-1.4,0
	c-22.7-2.8-46.1,1.4-64.5,12.1c-10.6,6.4-15.6,17-14.2,29.1c0.7,7.8,5,14.9,11.3,19.8c-11.3,1.4-22.7,2.8-34,3.5
	c-3.5,0-6.4-1.4-8.5-4.3l-1.4-2.8l-1.4-55.3l-0.7-0.7l-44.7,5l-14.9,2.1c-0.7,0.7,0,2.8,0,4.3c9.9,0,20.6-0.7,31.2-1.4
	c2.1,0,3.5,2.1,3.5,3.5v31.9c-9.2,15.6-26.2,24.1-44.6,22c-6.4-0.7-11.3-2.1-17-5v-1.4c-2.8-19.1-3.5-40.4-1.4-59.5l-1.4-0.7
	c-19.8,3.5-40.4,5-60.2,5.7c-0.7-1.4,0-3.5,0-5.7c0.7-8.5,7.8-17.7,16.3-20.6l282.1-87.2c14.9-3.5,31.9-3.5,46.1,0L472,136.2v204.1
	l-92.1,28.3c-16.3,4.3-31.2,11.3-48.9,13.5c-17,2.8-34,0-49.6-5.7l-34-9.9L7.1,296.4c-4.2-3.5-7.1-7.8-7.1-13.5l0.7-63.8L0.7,218.4
	L0.7,218.4z"/>
<path class="st0" d="M348.7,217c29.8-9.2,61,0.7,80.1,24.1c4.3,5.7,8.5,12.8,5.7,19.8c-3.5,8.5-12.8,9.2-20.6,9.9
	c-29.1,1.4-55.3-12.1-70.9-36.9c-2.1-3.5-1.4-9.9,1.4-13.5C345.2,219.1,347.3,217.7,348.7,217L348.7,217z M477,139
	c12.8,3.5,25.5,7.8,38.3,11.3v178.6c-12.8,4.2-25.5,7.8-38.3,12.1V139L477,139z M528.7,154.6c8.5,2.8,17,5,25.5,7.8v155.2
	c-8.5,2.8-17,5-25.5,7.1V154.6z M571.3,168.1c5,0.7,9.2,2.8,14.9,4.2v135.4c-5.7,1.4-9.9,2.1-14.9,4.3V168.1z M605.3,178l9.2,2.8
	v118.4c-2.8,0.7-5.7,2.1-9.2,2.8V178z M634.3,187.2c2.1,0.7,4.3,3.5,5,5.7l0.7,3.5v90c-0.7,2.8-2.8,5.7-6.4,6.4V187.9L634.3,187.2z"
	/>
</svg>
