<?xml version="1.0" encoding="utf-8"?>
<!-- Generator: Adobe Illustrator 21.1.0, SVG Export Plug-In . SVG Version: 6.00 Build 0)  -->
<svg version="1.1" id="Layer_1" xmlns="http://www.w3.org/2000/svg" xmlns:xlink="http://www.w3.org/1999/xlink" x="0px" y="0px"
	 viewBox="0 0 640 480" style="enable-background:new 0 0 640 480;" xml:space="preserve">
<style type="text/css">
	.st0{fill:#B1C34C;}
	.st1{fill:#627F6D;}
	.st2{fill:#4495B9;}
</style>
<g>
	<path class="st0" d="M558.7,101.6c-26,0.7-61.1,28.4-74.5,58.4c-2.4,5.8-7.5,19.9,0,24.3c30,14.2,86,10.1,101.2-3.4
		c9.1-8.4,12.5-38.5-2.4-66.8C578,105.7,569.6,101.6,558.7,101.6L558.7,101.6z M264.3,237.9l-0.7,0.7h0.7c16.8,3.4,35.1,8.4,51,14.2
		c3.4-5.8,4.1-11.8,4.1-18.5l-28.4-5C283.5,228.5,271,228.5,264.3,237.9L264.3,237.9z"/>
	<path class="st0" d="M195.1,100.6C158.3,104,48,186,50.4,275.4c1,15.9,16.8,29.3,36.8,30c25,1.7,74.5,3.4,122.8-3.4
		c-4.1-19.9-3.4-37.5,1.7-52.6c5-13.5,20.9-15.9,32.7-14.2h1.7c6.7-15.1,20.2-31,47.6-26.7l20.9,5C292.9,154.2,218.4,99,195.1,100.6
		L195.1,100.6z"/>
	<path class="st1" d="M87.2,304.7c-20.9-1-36.1-14.2-36.1-29.3C48.7,185,160.7,104,194.8,101.6c22.6-1.7,95.2,51.9,118.7,111.3
		c3.4,1.7,8.4,2.4,12.5,4.1c0-1.7-0.7-4.1-1.7-6.7C301.8,141.7,223.2,68.9,184,71.6C123,74.9,54.5,154.2,35.2,206.9
		C18.4,252.1,8.6,316.5,73.7,324.7c21.6,2.4,82.7,1.7,140.4-10.1c-1.7-5-3.4-9.1-4.1-13.5C169.1,307.1,123.9,307.1,87.2,304.7
		L87.2,304.7z M597.9,84.8c-24.3-17.5-94.5,15.9-122.1,71.1c-15.9,31.7-3.4,35.1,11.8,39.2c39.2,12.5,84.4,10.8,113-5
		C626.3,175.9,619.8,101.6,597.9,84.8L597.9,84.8z M585.4,180.2c-15.1,13.5-70.2,18.5-100.2,3.4c-6.7-3.4-3.4-15.1,0-23.3
		c19.2-41.8,79.3-77.6,96.9-45.2C597.2,142.5,593.8,172.5,585.4,180.2L585.4,180.2z"/>
	<path class="st2" d="M241,293.9c-3.4-17.5-3.4-40.9,4.1-59.4h-0.7c-12.5-1.7-27.6,1.7-32.7,15.1c-6.7,16.8-5.8,34.4-1.7,51.9
		c0.7,4.1,2.4,8.4,4.1,13.5c14.2,39.2,47.6,76.2,69.5,92.1c4.1,2.4,12.5,1.7,24.3-1.7c-0.7,0-0.7,0-1.7-0.7
		C267.7,382.3,248.4,331.4,241,293.9L241,293.9z"/>
	<path class="st2" d="M396.5,343.9c23.3-36.1-20.9-68.5-73.5-88.7c-2.4-1-5-2.4-8.4-3.4c-16.8-5.8-33.4-10.8-50.2-14.2
		c-0.7,1.7-2.4,3.4-2.4,5.8c-16.8,51.9,27.6,120.4,64.4,142.1c5,2.4,17.5,0,32.7-5.8C373.9,369.8,387.4,357.3,396.5,343.9z"/>
	<path class="st1" d="M326.3,217c-4.1-1.7-9.1-2.4-12.5-4.1c-6.2-1.9-12.7-3.6-19.2-5c-26-4.1-40.9,9.1-49.3,26.7
		c-7.5,18.5-7.5,41.8-4.1,59.4c7.5,37.7,26.7,88.7,65.1,110.3c0.7,0.7,0.7,0.7,1.7,0.7c26,11.8,94.5-20.9,126.2-59.4
		C478.5,290.5,384.7,238.6,326.3,217L326.3,217z M427.5,329c-15.1,23.3-45.2,41.8-68.5,51c-15.1,5.8-27.6,8.4-32.7,5.8
		c-36.8-21.6-81-90.4-64.4-142.1c0-2.4,1.7-4.1,2.4-5.8c5.8-6.7,16.8-8.4,26.7-7.5c8.4,0.7,17.5,2.4,27.6,5c2.4,0.7,5.8,1.7,9.1,2.4
		C384.7,253.7,453.2,289.6,427.5,329L427.5,329z"/>
	<path class="st1" d="M323,255.4c2.4-5.8,4.1-10.8,5-17.5c-3.4-1-5.8-2.4-9.1-3.4c0,6.7-0.7,12.5-3.4,18.5
		C317.9,253.7,320.3,254.5,323,255.4z"/>
	<path class="st1" d="M326.3,217c0,0-9.1-2.4-12.5-4.1c-6.2-1.9-12.7-3.6-19.2-5c-26-4.1-40.9,9.1-49.3,26.7l19.2,3.4
		c0,0,4.1-7.5,20.9-7.5c16.8,0,40.1,6.7,40.1,6.7L326.3,217L326.3,217z"/>
</g>
</svg>
