<?xml version="1.0" encoding="utf-8"?>
<!-- Generator: Adobe Illustrator 19.2.1, SVG Export Plug-In . SVG Version: 6.00 Build 0)  -->
<svg version="1.1" id="Layer_1" xmlns="http://www.w3.org/2000/svg" xmlns:xlink="http://www.w3.org/1999/xlink" x="0px" y="0px"
	 viewBox="0 0 640 480" style="enable-background:new 0 0 640 480;" xml:space="preserve">
<style type="text/css">
	.st0{fill:#0081C0;}
</style>
<g>
	<path class="st0" d="M502.3,107.7c-2.4,0-5.9,0-7.9-3.8c-1.6-3.1-1-8.2-4-10.5c3,0.9,6.1,0.9,8.6,0.9c7.9,0,15.4-5.4,21.2-5.4
		c3.8,0,5,2.4,5,4.9C525.1,101.4,509.6,107.7,502.3,107.7z M506.1,127.4c18.1,0,34.8-14.5,34.8-27.2c0-5.9-2.8-10.8-10-11.7
		c1.2,1.6,1.7,2.8,1.7,5.6c0,9.6-14.6,20.3-30.5,20.3c-5.8,0-7.5,4-7.5,6.1C494.6,125.3,499.3,127.4,506.1,127.4z M504.7,134.7
		c2.3,16.6,27.4,38.9,34.2,38.4c4.6-0.4,6.3-21.7,6.3-38.4c0-9.6,0.5-17.1-4.5-18.9C532.6,132.1,511.5,135.4,504.7,134.7"/>
	<path class="st0" d="M111.7,244.5c5.9,0,4.7-36.3,14.3-36.3c2.3,0,3,2.3,3,5.1c0,8.2-4,20.3-4,26.9c0,3.3,0.9,4.4,2.4,4.4
		c4.2,0,11.5-40,18.7-40c2.3,0,3.3,2.3,3.3,4.5c0,8.4-10.6,32.5-10.6,39.3c0,1.1,0.3,1.9,1.2,1.9c4.4,0,13.1-18.9,15.9-28.3
		c1.6-4.9,3.7-7.5,5.6-7.5c1.7,0,3.3,1.9,3.3,5.9c0,9.4-8.7,31.6-16.4,46.4c-5.9,11.5-15.2,28.1-15.2,37.4c0,4.7,0.9,9.6,7.7,15.5
		c-11.2-0.7-15.7-1.7-19.9-10.5c-18.7,37.2,34.4,33.5,16.2,66.5c-3.3-5.9-29.5-12-29.5-46.6c0-29.9,26.2-47.3,26.2-59.7
		c0-2.4-0.9-4.5-3.1-6.5c-5.8-4.9-5.9-8.9-10.5-8.9c-3.3,0-7.3,7.7-3.1,14.5c1.4,2.3,2.6,3.7,2.6,5.8c0,4.9-7.7,18-13.1,18
		c-5.4,0-9.6-13.4-9.6-35.1c0-19.2,4.4-38.6,9.8-38.6c1.6,0,2.1,1,2.1,2.4c0,2.3-0.7,6.8-0.7,14.5
		C108.2,243.8,110.1,244.5,111.7,244.5"/>
	<path class="st0" d="M156.2,295.7c7.3,0,13.4-5.4,13.4-17.4v-17.8c0-6.8,0.5-14.5,5.1-19.9c-0.5,2.3-0.5,4.7-0.5,7
		c0,15,8.4,25.3,8.4,39.8c0,5.4-1.6,8.4-5.8,8.4c-4,0-3.7-3.7-4.5-3.7c-0.7,0-1.7,2.3-1.7,4.7c0,3.7,2.6,9.4,9.9,9.4
		c6.3,0,11.3-5.8,11.3-12.2c0-15.7-12.2-33.2-12.2-49.9c0-7.3,1.9-12.2,3.5-16.1c0,34.8,29.5,60.1,29.5,74.5c0,3.3-2.4,5.9-6.1,5.9
		c-4,0-5.9-3.2-5.9-5.6c0-1.2-0.2-1.6-0.7-1.6c-1,0-4.2,3.5-4.2,8c0,5.8,4.7,12.7,13.4,12.7c9.9,0,15.4-8.4,15.4-15.9
		c0-18.3-35.8-46.1-35.8-75.8c0-5.1,0.9-13.3,4.5-19.6c-23,14.8-30.2,34.6-30.2,51.9c0,15-0.5,22.5-8.2,22.5c-4,0-5.1-3.7-6.5-3.7
		c-1,0-1.6,3.1-1.6,4C146.8,292,151.5,295.7,156.2,295.7"/>
	<path class="st0" d="M420.7,99.1c2.2-1.5,12.1,0.9,24.8-5.4c1.6-0.9,3.1-1.2,4.5-1.2c6.1,0,4.5,7,10.1,7c4.4,0,10-3.7,13.3-3.7
		c5.2,0,12.7,16.4,12.7,24.1c0,8.9-13.4,14.3-29.3,14.3c-23.2,0-37.2-20.3-37.2-33.4C419.7,99.8,420.2,99.4,420.7,99.1z
		 M458.8,121.3c7.7,0,13.5-3.5,13.5-5.6c0-0.7-1-1.2-3.3-1.2c-2.3,0-6.8-0.2-15.4-1.6c-7.3-1.2-12.9-4-15-4c-0.7,0-1.1,0.3-1.1,0.9
		C437.5,114.3,445.9,121.3,458.8,121.3"/>
	<path class="st0" d="M159.9,361.5c-5.8,1.4-15,10.5-15,24.8c0,17.1,18.3,43.5,48.5,43.5c25.5,0,31.8-17.6,31.8-29.5
		c0-26.4-16.2-44.9-37.4-44.9c-11.5,0-21.8,8.4-21.8,20.8c0,11.5,8.7,28.8,29.5,28.8c9.8,0,15.5-7,15.5-15c0-7.9-7.2-18.7-17.6-18.7
		c-3.1,0-5.4,2.1-5.4,5.4c0,4.2,5.8,8.4,12.9,8.4c1.7,0,3.1-0.4,3.8-0.7c0.3,0.5,0.5,1.4,0.5,2.1c0,4-3.8,6.5-9.8,6.5
		c-8.9,0-17.5-6.6-17.5-17.1c0-6.3,5.4-10.8,13.3-10.8c15.5,0,24.8,13.8,24.8,27.6c0,12.4-6.8,19.6-20.8,19.6
		C167.4,412.2,153.8,387,159.9,361.5"/>
	<path class="st0" d="M359.2,463.8c8.4,0,7.9-0.7,10.6-0.7c2.6,0,2.8,1.6,2.8,2.6c0,3.8-8.6,8.6-23.8,8.6c-8.9,0-14.3-4.7-15.9-10
		c-8.7,5.6-22,10.7-35.1,10.7c-35.8,0-44.9-15.6-56-20.6c-8.6-3.8-21.6,3.7-40-16.8c2.4,0.5,5.8,0.7,8.4,0.7
		c16.1,0,24.6-7.8,24.6-20.4c0-1.6-0.2-3.3-0.4-4.9c4.9,1.9,16.1,10.3,18.7,25.1c0.3,1.7,7.5,3.3,12,3.3c6.3,0,14.3-2.6,15.5-12.9
		c21-1.7,35.1-14.1,38.1-29.9c7.5,2.4,16.1,9.3,18.2,12.8c3-1,6.5-1.6,10.5-1.6c5.6,0,11.9,1.1,19.4,3.3c0.4-2.3,0.7-5.1,4.2-5.1
		c5.2,0,3.8,5.8,5.6,9.1c0.9,1.7,5.2,2.8,5.2,6.3c0,3.3-2.8,4.6-4.6,4.6c-0.7,0-1.6-0.2-2.1-0.3c-3.5,1.2-3.7,26.4-18.3,26.4
		c-10.8,0-20.8-8.9-25.1-20.1c-1.2-3.3-3.8-5.4-6.3-5.4c-2.8,0-4.4,0.5-7.7,4.2c-9.4,10.3-25.1,19.2-44.5,19.2
		c-5.9,0-10.7-0.5-11.9-0.5c-0.7,0-0.7,0.2-0.7,0.3c0,1.2,5.9,5.9,18.9,5.9c30.7,0,38.2-17.3,43.1-17.3c0.7,0,2.8,0,4,2.8
		C333.8,460,349.4,463.8,359.2,463.8z M345.7,428.9c0,3.8,3.1,7,7,7c3.8,0,7-3.1,7-7c0-3.8-3.1-7-7-7
		C348.8,421.9,345.7,425.1,345.7,428.9"/>
	<path class="st0" d="M483.9,341.8c-2.4,0-5.1,1.9-5.1,6.6c0,5.2,4,8.5,6.3,9.6c1.2,0.7,3.1,1.4,5.1,1.4c5.1,0,9.1-1.4,9.1-5.6
		C499.3,348.4,491.4,341.8,483.9,341.8z M465.1,352.6c-3.7,0-23.9,27.1-37,27.1c-3.1,0-5.8-5.9-5.8-10.5c0-2.4,1.6-4.2,7.2-5.4
		c30-6.8,23.4-29.3,49-29.3c14.1,0,29.9,9.6,29.9,31.3c0,23-32.8,51.7-37.7,51.7c-4,0-8.4-5.8-8.4-9.6c0-1.2,0.5-2.8,4-4.2
		c16.7-6.6,26.3-22,26.3-29.9c0-1.7-0.9-3.5-3.1-3.5c-3,0-15.7,29-29.8,29c-9.8,0-19.8-8.9-19.8-13.1c0-7,28.3-19.9,28.3-29.7
		C468.2,352.8,466.5,352.6,465.1,352.6"/>
	<path class="st0" d="M119.6,123.7c0,0-5.1,3.8-11.3,3.8c-7.5,0-13.4-5.6-13.4-13.4c0-5.4,2.8-11,9.3-13.8c-0.2,1.1-0.2,1.9-0.2,3
		C103.9,113.2,109.4,120.7,119.6,123.7z M156.9,157.2c-3.8,4.5-7.9,12.2-7.9,20.1c0,9.4,5.8,17.3,14.7,17.3
		c8.6,0,12.6-7.3,12.6-14.8C176.3,168.1,165.7,159.9,156.9,157.2z M99,164.2c-0.3,0.5-0.5,1.2-0.5,1.9c0,1.6,1.7,3.3,3.3,3.3
		c1.4,0,2.3-0.3,3-0.3c4.2,0,8.9,3,15.7,3c4,0,8.7-1.2,14.7-4.2c12.6-6.3,17.5-21.8,17.5-24.4c0-3.3-2.7-2.9-4.9-5.9
		c-2.2-3-1.4-5.7-2.8-7.2c-0.8-0.8-3.3-0.9-6.5-1.2c-1.1-0.1-2.4-0.2-3.8-0.2c-5.8,0-12.6,0.7-20.2,5.6
		C99.2,144.2,101.4,160.2,99,164.2z M140,142.6c1.2,1.6,4.5,3.7,4.5,4.9c0,2.4-1.4,5.6-4.2,5.6c-6.1,0-11-9.3-11-14.5
		c0-3.3,1.9-3.7,4.5-3.7c1.2,0,1.7,0.2,2.6,0.7C138.1,136.5,138.1,140,140,142.6z M123.9,163.9c-5.8,0-12-7.2-12-13.6
		c0-3.5,2.6-7.9,4.5-7.9c0.7,0,1.1,0.5,1.2,1.8c1,8.6,6.6,13.4,11.9,15.9c0.5,0.3,0.9,0.5,0.9,0.9
		C130.4,162.1,127.1,163.9,123.9,163.9z M138.8,119.9c0.9-2.8,1.6-6.3,1.6-10.1c0-8.4-3.8-21.1-15.7-21.1c-6.8,0-11.7,5.4-11.7,11.9
		C112.9,114.3,126.7,119.9,138.8,119.9z M93.6,189.7c0,13.3,4,19.6,11.2,19.6c5.6,0,13.1-4,22-11.7c-6.8,1.6-12,2.6-16.8,2.6
		C103.7,200.2,98.8,197.7,93.6,189.7z M99.7,174.2c-0.2,0.9-0.2,1.7-0.2,2.6c0,8.2,4.4,12.7,10.1,12.7c4.4,0,9.4-2.6,14-8.4
		c-1.9,0.3-4.2,0.5-6.3,0.5C110.8,181.7,103.9,179.9,99.7,174.2z M142.4,171.7c-4,1-12.4,5.9-12.4,14.7c0,6.3,4.9,10.3,11,10.3
		c3.1,0,5.4-0.7,6.8-1.7c-4.9-4.7-6.6-10-6.6-15.2C141.2,176.1,141.7,173.8,142.4,171.7z M148.7,123.9c0,3.8,3.1,7,7,7
		c3.8,0,7-3.1,7-7c0-3.8-3.1-7-7-7C151.9,116.9,148.7,120.1,148.7,123.9z M157.8,139.6c0,3.8,3.1,7,7,7c3.8,0,7-3.1,7-7
		c0-3.8-3.1-7-7-7C160.9,132.6,157.8,135.8,157.8,139.6"/>
	<path class="st0" d="M430.2,225.3c0-3.5,3.1-6.5,6.6-6.5c3.8,0,6.8,3,6.8,6.5c0,4-3,6.8-6.8,6.8
		C433.3,232.1,430.2,229.3,430.2,225.3z M368.9,171.6c0,3.8,3.1,7,7,7c3.9,0,7-3.1,7-7c0-3.8-3.1-7-7-7
		C372,164.6,368.9,167.7,368.9,171.6z M363,196.2c0,5.4,4.5,9.9,9.9,9.9c5.4,0,10-4.5,10-9.9c0-5.4-4.6-10-10-10
		C367.5,186.2,363,190.8,363,196.2z M385,185c0,5.9,4.7,10.6,10.6,10.6c5.9,0,10.7-4.7,10.7-10.6c0-5.9-4.7-10.6-10.7-10.6
		C389.7,174.4,385,179.1,385,185z M385.8,162.3c0,3.7,3,6.6,6.6,6.6c3.7,0,6.6-3,6.6-6.6c0-3.7-3-6.6-6.6-6.6
		C388.8,155.7,385.8,158.6,385.8,162.3z M417.4,145.6c0,3.7,3,6.6,6.6,6.6c3.7,0,6.6-3,6.6-6.6c0-3.7-3-6.6-6.6-6.6
		C420.4,138.9,417.4,141.9,417.4,145.6z M404.3,167c0,6.1,5.1,11.2,11.2,11.2c6.1,0,11.2-5.1,11.2-11.2c0-6.1-5.1-11.2-11.2-11.2
		C409.4,155.8,404.3,160.9,404.3,167z M386.4,207.9c0,3.8,3.1,7,7,7c3.8,0,7-3.1,7-7c0-3.8-3.1-7-7-7
		C389.5,200.9,386.4,204,386.4,207.9z M409.2,193.9c0,3.8,3.1,7,7,7c3.8,0,7-3.1,7-7c0-3.8-3.1-7-7-7
		C412.4,186.9,409.2,190.1,409.2,193.9z M402.8,218.5c0,6.6,5.4,12.1,12.1,12.1c6.6,0,12.1-5.4,12.1-12.1c0-6.6-5.4-12-12.1-12
		C408.2,206.5,402.8,211.9,402.8,218.5z M427.9,203.7c0,4.5,3.7,8.2,8.2,8.2c4.5,0,8.2-3.7,8.2-8.2c0-4.5-3.7-8.2-8.2-8.2
		C431.6,195.5,427.9,199.1,427.9,203.7z M427.4,181.7c0,4,3.3,7.3,7.3,7.3c4,0,7.3-3.3,7.3-7.3c0-4-3.3-7.3-7.3-7.3
		C430.7,174.4,427.4,177.7,427.4,181.7"/>
	<path class="st0" d="M445.2,410.8c-4.5,3.5-15.2,11.3-32.8,11.3c-9.4,0-13.6-3-15-3c-1.7,0-3.7,1.7-5.6,4c-4.1,4.9-9.6,14-9.6,23.9
		c0,7,5.4,14,15.5,14c32.7,0,57.1-20.4,57.1-37C454.8,414.6,449.2,410.8,445.2,410.8z M436.1,408.8c1.4-1.2,1.7-3.1,1.7-5.1v-4
		c0-5.1-7.6-8-18.1-8c-12.8,0-19.6,5.7-19.6,8.2v8c0,3.3,7.7,6.6,17.1,6.6C424.8,414.6,431.6,412.7,436.1,408.8z M434.7,426.1
		c0.9,0,1.9,0.5,1.9,3.7c0,3.8-1.7,8.9-8,12.9c-4.4,3-10.3,5.4-19,5.6c1.4-4.2,2.4-8.5,2.4-12.7c0-1.4-0.2-2.5-0.3-4h2.3
		C427.7,431.5,433.7,426.1,434.7,426.1"/>
	<path class="st0" d="M368,212.8c1.9,14.8,21.8,7.3,21.8,25.3c0,2.6-0.7,6.5-0.7,9.8c0,3.8,0.3,7.2,3.3,7.2c3,0,3.7-2.1,3.7-4.9
		c0-2.8-0.7-6.3-0.7-8.2c0-6.1,4.4-7.5,7-7.5c6.6,0,11.7,6.8,21.7,6.8c-2.3,11.2-25.3,8.2-25.3,20.4c0,6.1,6.1,7.5,10.1,7.5
		c3.7,0,4.9-0.5,4.9-3.7c0-1.8-0.4-3.7-0.4-4.9c0-0.7,0.5-1.4,1.4-1.4c3.9,0,22.7,14.3,22.7,18.7c0,4-19.9,8-25.6,8
		c-1.7,0-2.1-1.2-2.1-1.9c0-1.2,3-4.9,3-7c0-1.6-2.6-2.6-9.6-2.6c-3.3,0-5.8,0.4-5.8,3c0,4.7,7.7,10.5,7.7,14.8
		c0,3.5-2.1,5.6-7.7,5.6c-4.7,0-11.8-3.7-11.8-9.8c0-4.9,5-9.8,5-12.7c0-0.9-0.7-2.3-2.8-2.3c-6.5,0-8.2,17.1-31.1,19
		c3.7-3.3,6.8-7,6.8-14.5c0-3.7-0.9-6.6-0.9-10.7c0-5.2,2.4-7.9,5.9-7.9c6.5,0,9.6,9.1,13.8,9.1c2.3,0,4.7-2.1,4.7-5.2
		c0-13.3-25.5-11.4-25.5-30C361.6,227.8,363.3,221.5,368,212.8z M451.3,263.9c0,4.4,1.4,9.4,5.8,9.4c3.7,0,6.8-5.6,6.8-11.7
		c0-7-1.2-12.4-1.2-15.2c0-1.2,0.5-1.7,1.2-1.7c2.6,0.2,5.1,7.3,7.9,7.3c3.1,0,7.8-5.8,9.7-5.8c0.5,0,0.7,0.7,0.7,0.9
		c0,2.6-4,8.4-4,10.7c0,1.9,10.1,2.3,10.1,4c0,2.6-10.6,2.6-15.7,4.9c-4.9,2.1-7.9,4.7-7.9,8.2c0,3.5,3.5,4.2,8.4,4.2
		c11.7,0,19.9-6.3,22.5-6.3c0.5,0,0.9,0.3,0.9,0.9c0,1.7-5.9,7.5-5.9,10.1c0,3,10.8,6.4,10.7,8.2c-0.2,0.5-0.9,0.7-2.1,0.7
		c-1.9,0-4.9-0.5-7.2-0.5c-1.4,0-2.6,0.2-3.2,0.9c-1.2,1.4,0.4,10.7-2.1,10.7c-2.3,0-8.2-20.6-21.6-20.6c-1.9,0-3.3,1.6-3.3,4.2
		c0,7,6.8,15,13.3,18.9c2.9,1.9,7.8,3.8,7.8,4.9c0,2.1-11.1,0.2-11.1,3.7c0,3.1,1.4,7.9,1.4,10.6c0,0.9-0.2,1.9-1.2,1.9
		c-2.1,0-7.2-9.6-9.6-9.6c-2.1,0-6.6,5.8-8.6,5.8c-0.5,0-0.9-0.5-0.9-1c0-4,6.5-13.1,6.5-22c0-4.2-0.5-13.3-5.6-13.3
		c-4.2,0-8.9,6.6-11,13.3c-1.2,3.8-0.3,18.7-3.1,18.7c-2.6,0-1.9-9.9-5.4-9.9c-2.6,0-8.2,4.7-10.1,4.7c-0.4,0-0.7-0.2-0.7-0.5
		c0-2.1,5.1-8.9,5.1-10.3c0-2.6-11.5-3-11.5-5.1c0-1.2,4.5-2.1,8.7-2.8c8.9-1.6,22-8,22-17.1c0-10.1-9.8-14.5-16.2-18.7
		c-3.3-2.1-7-3.8-7-5.2c0-1.4,4.2-1.4,5.9-1.4c2.6,0,5.2-0.2,5.2-2.3c0-1.6-0.4-4.7-0.4-7.2c0-1.7,0.2-3.1,0.9-3.1
		c2.6,0,6.3,8.6,8,8.6c2.8,0,6.6-7,9.3-7c0.9,0,1.2,0.5,1.2,2.1C454.6,250.3,451.3,257.6,451.3,263.9"/>
	<path class="st0" d="M373.1,312.3c8,1.1,10,3.8,10,6.1c0,3.8-3.5,5.1-6.8,5.1c-2.4,0-5.2-0.5-8.2-0.5c-3.8,0-7.7,0.9-10.8,4.5
		c2.3,0.3,5.6,1.9,5.6,5.4c0,10.1-28.1,1.7-28.1,27.8c0,13.8,14.3,28.8,36,28.8c11.2,0,18.4-3.7,18.4-7.9c0-3.3-5.9-1.1-5.9-3.8
		c0-1.2,2.1-3.5,2.1-5.4c0-0.8-0.7-2.4-2.1-2.4c-3.2,0-9.1,5.1-21.1,5.1c-9.4,0-18.7-5.4-18.7-12.7c0-1.6,0.7-2.4,1.7-2.4
		c1.1,0,2.4,0.7,3.7,0.7c1.1,0,1.2-0.7,1.2-2.6c0-1.9,0-7.3,3.3-7.3c3.3,0,9.6,12.2,33.7,12.2c8,0,23.6-1.6,29.3-6.8
		c-0.2,19.2-15.2,44.5-46.6,44.5c-32.7,0-50.1-26.2-50.1-50.3c0-26.7,21.8-51,51.7-51c7.7,0,14.2,2.6,14.2,5.9
		C385.3,309.7,374,306.9,373.1,312.3z M426.7,321.5c1.2,1.9,1.7,3.8,1.7,5.6c0,4.9-3.3,9.4-3.3,14.5c0,5.8,4.4,10.5,11,10.5
		c7.2,0,12.1-5.7,12.1-12.6C448.1,330.3,439.8,322.4,426.7,321.5z M368.9,332.7c1.7,1.7,2.3,3.5,2.3,5.2c0,2.6-1.2,5.4-1.2,8.4
		c0,4.2,3.1,7.8,7.7,7.8c4.9,0,8.2-3.8,8.2-8.4C385.8,339.2,379,332.7,368.9,332.7z M392.1,303c18.3,3.5,28.3,17.3,28.3,30.2
		c0,8.9-5.6,17.1-15.4,17.1c-8.9,0-15.3-6.1-15.3-15.9c0-7.3,5.7-15,5.7-22.5C395.4,309,394.5,306,392.1,303z M401.2,326.2
		c0,2.4,1.7,4.4,4.2,4.4c2.8,0,4.5-2.4,4.5-5.2c0-3.7-3.3-8.7-6.5-8.7c-1.4,0-0.9,2.1-1.2,4.4C402,322.8,401.2,324.8,401.2,326.2"/>
	<path class="st0" d="M208.4,146.6c5.9,0,12.7-32.1,12.7-37.5c0-1.4-0.5-2.4-1.7-2.4c-5.4,0-12.9,30.6-12.9,37.4
		C206.5,145.2,206.9,146.6,208.4,146.6z M251.2,156.2c4.4,0,9.2-16.8,9.2-27.2c0-2.3-0.3-4.7-1.4-4.7c-3.7,0-9.8,17.3-9.8,26.7
		C249.3,154.6,250.2,156.2,251.2,156.2z M222.7,140.7c1.9,0,4.4-2.1,8.9-7.2c0.3-2.3,0.3-4.4,0.3-7c0-3.5-1.4-7.3-3.5-7.3
		c-5.2,0-7.9,14-7.9,17.6C220.7,138.9,221.7,140.7,222.7,140.7z M246.7,133.5c0-3-0.7-3.7-1.4-3.7c-1.7,0-3.7,2.1-6.5,6.8
		c0.3,6.3,1.4,9.1,3.1,9.1C243.9,145.7,246.7,139.6,246.7,133.5z M260.1,112.9c11.5,0,16.8,10,16.8,21.1c0,4.9-1.4,12-3.7,12
		c-2.3,0-1.9-4-2.3-7.7c-0.3-4.7-1.2-5.8-2.8-5.8c-3,0-4.9,7-4.9,13.4c0,4,0.7,8.6,3.8,8.6c1.7,0,3.3-0.9,4.4-1.9
		c-0.7,8-6.6,15-15,15c-15.4,0-21.1-18-22.9-28.5c-9.3,9.8-17.8,16.9-33.2,16.9c-14.3,0-20.8-10.5-20.8-20.4c0-3,1-10.7,4.7-10.7
		c4.4,0,0.5,14.3,9.1,14.3c2.1,0,5.9-1.7,8-7.5c1.2-3.5,1.9-7.2,1.9-10.3c0-4.7-1-7.7-4.5-7.7c-3,0-6.6,2.3-7.9,3.5
		c4.2-12.6,14.3-19,25.5-19c13.8,0,21.1,12.2,21.1,25.8c0,1.9-0.2,4-0.5,5.9C243,120.4,251.2,112.9,260.1,112.9"/>
	<path class="st0" d="M227.5,159.9c-7.5,0-7.9,9.1-7.9,27.4c-5.6-12-14.8-25-25.7-25c-7.3,0-10.1,4.9-10.1,13.4
		c0,1.7,0.2,4.4,0.5,5.9c0.9-3,3.7-4.2,7.2-4.2c7.5,0,16.6,5.8,22.5,13.6c-6.8-1.2-13.4-2.4-19-2.4c-3.5,0-6.6,0.4-9.3,1.6
		c-5.1,2.3-11.9,9.8-11.9,21.1c0,1.7,0.2,3.7,0.5,5.8c6.1-13.6,22.3-19.7,32.8-19.7c2.1,0,3.7,0.2,4.9,0.4c-5.4,4.9-6.6,13.4-7,19.2
		c-0.2,2.8-1.2,3-3.1,3c0,5.8,4.5,14.3,4.5,18.7c0,1.6-0.9,3-1.7,3.3c0,7.7,7.7,13.3,7.7,18.2c0,1.2-0.3,2.3-0.9,2.8
		c0.5,3.1,9,8.4,10.1,11.1c1.3,3.2,2.9,3.8,3.7,3.8c3,0,7.7-3.5,7.7-6.6c0-1-0.9-2.3-1.6-2.8c-3.3-2.4-5.1-7.7-6.5-11.2
		c-1.2,0-2.8-0.5-3.4-2.6c-1-3.6-1-10.3-2.4-14.4c-2.3-0.5-3.3-1.4-3.3-6.1c0-2.3,1.4-11.2,1.4-14.3c-1,0-2.4-0.7-2.4-2.8
		c0-5.6,5.6-9.9,7.2-17.1c10,7.3,12.4,14.8,12.4,21.5c0,3.5-0.5,6.8-1.2,10c7.3-3.7,18.3-9.1,18.3-20.1c0-6.5-3-13.6-22.7-16.4
		c6.1-2.3,13.8-3.5,20.3-3.5c11.2,0,17.6,3.5,19,11.3c2.3-3.5,4-7.5,4-11.2c0-8.6-7.2-14.1-16.2-14.1c-10.7,0-20.1,5.6-30.2,12.4
		c4.6-9.4,7.7-15,13.3-15c0.9,0,1.7,0.2,2.6,0.4C239.5,167.4,231.7,159.9,227.5,159.9"/>
	<path class="st0" d="M521.6,285.7c8.7,0,15.7,11.3,15.7,24.6c0,14.1-6.6,29.5-18.5,40c-0.2-23.6-29-16.1-29-33.2
		c0-7.3,5.3-12.2,11.5-12.2c5.6,0,10,1.6,13.1,4.7c-3.1-3-4.7-7.2-4.7-11.2C509.8,291.8,514,285.7,521.6,285.7"/>
	<path class="st0" d="M365.7,119.9c4.5,4.4,8.6,6.3,13.4,6.3c1.9,0,4.2-0.5,5.4-0.5c1.6,0,2.6,0.7,2.6,1.9c0,1.9-1.7,5.1-3.8,6.8
		c2.1,0.9,4.4,1.2,6.8,1.2c9.9,0,21.3-6.3,21.3-22c2.1,2.8,3.3,8.6,3.3,11.2c0,19-14,26.4-26.9,26.4c-8.4,0-12.6-2.8-13.6-2.8
		c-3.3,0-3.1,6.6-5.4,6.5c-4-0.7-7.7-9.6-7.7-19C361.2,130.2,362.6,124.2,365.7,119.9z M392.1,107.1c-1.4-2.3-6.6-3.5-9-3.5
		c-7.7,0-12.9,5.4-14,10.3c-0.7-1.7-1.2-3.8-1.2-5.9c0-7.7,5.2-17.1,18-17.1c11.1,0,15.5,5.9,17.1,5.9c1.7,0,3.5-1.7,4.9-1.7
		c1.9,0,1.9,3,1.9,5.1c0,7-3.2,19-11,23.4c-1.4-3-4.2-6.3-8.7-8.4c-1.2-0.5-1.7-1.6-1.7-2.6C388.3,110.6,390,108.2,392.1,107.1"/>
	<path class="st0" d="M244.4,69.1c0,6.1,21.8,36,26,36c3.5,0,6.1-6.1,6.1-11.4c0-1.4-0.4-2.8-1-3.8c-3.1-4.4-25.3-21.8-30.2-21.8
		C244.7,68,244.4,68.5,244.4,69.1z M116.1,51.1c0,3.5-13.3,15.2-18,15.2c-1.7,0-2.3-2.1-2.3-4c0-3.5,1.6-8.4,3.5-10
		c2.3-2.1,7.5-3.1,11.5-3.1C113.3,49.2,116.1,49.7,116.1,51.1z M275.5,61.2c0-10.5-28.3-29.5-28.6-37.7c0-0.8,0.4-1.5,1-2.2
		c4.9-5.1,25-8.8,25-13.2c0-2.3-4.2-2.3-6.3-2.3c-16.2,0-40,5.9-40,11.7c0,5.9,21.3,20.4,21.3,27.6c0,1.9-1.2,2.6-3.1,2.6
		c-5.9,0-18.9-7.2-25-7.2c-2.8,0-3.8,1.9-3.8,4.7c0,8.4,10,24.3,10,29c0,0.5-0.2,1.2-0.9,1.2c-3.1,0-18-17.5-23.2-17.5
		c-1.9,0-2.1,2.6-2.1,6.5v5.9c0,4-0.2,6.5-2.1,6.5c-4.6,0-6.6-12.7-11-12.7c-4.5,0-5.4,22.7-9.8,22.7c-5.1,0-0.7-25-5.6-25
		c-5.4,0-11.5,16.6-15.4,16.6c-1.4,0-1.7-1.4-1.7-2.6c0-5.1,3-13.3,3-18.1c0-2.5-0.7-3.8-2.8-3.8c-5.4,0-17.3,8.7-21.8,8.7
		c-0.7,0-1.6-0.3-1.6-1.1c0-4.2,19-17.5,19-23.4c0-5.8-26.2-1.9-26.2-8.6c0-5.6,18.7-11.3,18.7-17.1c0-5.1-22.2-7.3-30.7-7.3
		c-10.3,0-15.9,1.2-15.9,4.2c0,4.5,23.4,5.9,23.4,10c0,3.8-24.3,14.1-24.3,20.1c0,5.2,34.2,0.3,34.2,5.8c0,5.9-29.8,31.6-29.8,40.1
		c0,1.9,1.4,2.8,3.3,2.8c9.1,0,32.6-17.3,39.1-17.3c2.3,0,2.4,2.8,2.4,5.2c0,4.5-1.6,11.5-1.6,16.6c0,4,1,6.8,4.5,6.8
		c6.5,0,12.4-11,16.8-11c5.6,0,2.3,32.3,10.6,32.3c7.2,0,10.1-34.9,14.7-34.9c4.5,0,8.2,10.1,12.4,10.1c5.2,0,2.8-17.6,8.4-17.6
		c6.1,0,23.6,21,31.4,21c2.4,0,3.3-1.9,3.3-4.4c0-9.3-12.9-30.2-12.9-36.8c0-1.7,0.5-2.3,2.4-2.3c6.8,0,26.7,9.4,36.1,9.4
		C273.6,65.2,275.5,63.5,275.5,61.2z M257.3,26.6c0,3.1,11,10,16.1,10c3,0,3.8-4,3.8-8.2c0-5.2-2.3-5.4-6.8-5.4
		C264.7,23,257.3,24.6,257.3,26.6z M216.3,8.8c0-1.1-5.2-2.1-12.4-2.1c-11.4,0-9.8,9.4-18.5,9.4c-9.1,0-6.8-9.8-18.3-9.8
		c-7,0-13.4,1.2-13.4,2.8c0,2.1,8.2,1.2,8.2,7c0,6.1-17.6,7.9-17.6,11.5c0,1.2,1.4,1.7,3.1,1.7c3.8,0,9.9-1.7,14.3-1.7
		c2.4,0,4.7,0.5,4.7,2.8c0,4.4-9.4,12.2-9.4,15.7c0,1,0.9,1.4,1.7,1.4c3.5,0,9.4-8.9,15-8.9c9.3,0,3.1,19.7,8.2,19.7
		c5.2,0,3-19.4,10.5-19.4c6.1,0,10.7,13.4,14.8,13.4c1.1,0,1.9-0.9,1.9-2.1c0-3.7-5.2-11.2-5.2-16.1c0-3,2.1-4.4,4.9-4.4
		c4,0,9.4,2.4,12.4,2.4c1,0,2.1-0.3,2.1-1.6c0-4.2-15.5-8.7-15.5-14.1C207.7,11.3,216.3,11.3,216.3,8.8"/>
	<path class="st0" d="M525.8,37.1c0,15.5-11.3,27.4-31.8,30.7c2.3,0.2,4.4,0.2,6.5,0.2c23.9,0,32.6-10.8,32.6-19.9
		C533.2,43.1,530.4,38.5,525.8,37.1z M496.3,54.8c0-12.4-29.7-15.5-29.7-18.3c0-2.3,16.6-6.1,25.1-6.3c-13.1-16.8-31.8-15-31.8-18
		c0-1.7,14-5.2,26.9-5.2c10.8,0,21,2.4,21,10.7c0,4.5-3.7,9.3-3.7,16.2c0,3.8,1.9,7.2,7,7.2c5.4,0,6.6-5.8,6.6-11.9
		c0-5.1-0.9-8.9-0.9-11.3c0-7.3,5-12.2,12.2-12.2c5.9,0,7.3,2.6,16.1,2.6c-4.7,2.8-6.5,7.9-6.5,10.3c0,7.3,4.7,12.4,4.7,27.4
		c0,27.6-25.8,37.4-57.5,37.4c-8.7,0-18-0.7-27.1-2.1c-1.4-0.2-1.7-0.5-1.7-1.4c0-2.3,12.4-3.5,12.4-14.7c0-4.4-1.4-8.6-1.4-10.1
		c0-0.9,0.7-1.4,1.4-1.4c2.6,0,7.9,10.1,17.6,10.1C489.9,63.7,496.3,62.8,496.3,54.8z M524.8,16.2c0,2.4,1.9,4.4,4.4,4.4
		c2.4,0,4.4-1.9,4.4-4.4c0-2.4-1.9-4.4-4.4-4.4C526.7,11.8,524.8,13.7,524.8,16.2"/>
	<path class="st0" d="M509.3,177.5c0-3.7-9.3-4-10.1-14.3c-0.2-1.6-0.7-4.4-2.6-4.4c-3.1,0-0.7,9.6-4.2,9.6
		c-8,0-10.6-15.7-13.6-15.7c-0.7,0-1.5,0.5-1.5,2.6c0,1.9,0.4,3.1,0.4,5.4c0,2.3-0.5,3.9-2.6,3.9c-4.7,0-8.9-11-12.9-11
		c-0.9,0-1.7,0.5-1.7,1.4c0,2.1,3.5,5.9,3.5,7.9c0,4.2-11.4,1.9-11.4,5.4c0,1.6,1.6,2.1,3.7,2.1c3.7,0,9.4-1.6,12.4-1.6
		c1.7,0,4.4,0.3,4.4,2.6c0,2.4-6.3,5.6-6.3,7.9c0,1,1,1.6,1.9,1.6c4.7,0,13.1-8.2,19-8.2c1,0,3.7,0.5,3.7,2.1c0,2.3-5.9,6.3-5.9,9.6
		c0,0.9,0.5,1.9,1.6,1.9c3.1,0,7.3-8.2,13.3-8.2c2.3,0,5.6,0.9,7.3,0.9C508.7,178.9,509.3,178,509.3,177.5z M513.8,262.2
		c2.8-8.7,6.3-14.8,12-24.3c-5.7-3-20.9-9.3-20.9-19.6c0-12.1,15-21.5,18.1-21.5c1.4,0,1.7,1.2,1.7,3.5c0,6.3-3,16.4-3,21.8
		c0,4.9,3.1,9.6,5.9,9.6c3,0,11.2-10.5,11.2-20.8c0-18.5-16.2-24.1-21.3-24.1c-4.7,0-13.3,7.7-33.4,7.7c-37.5,0-46.1-37.2-46.1-53.4
		c0-0.7,0.2-0.9,0.3-0.9c0.9,0,4.6,4.5,16.4,4.5c6.1,0,11.7-1.6,20.6-1.6c20.9,0,30.2,14.5,43.1,33c7.8,4.9,26.5,12.7,26.5,34.9
		c0,19.6-20.8,30.4-25.8,51.3c8-0.9,12.7-15.2,20.9-15.2c4.2,0,6.1,3.3,6.1,8.6c0,7.7-4.4,19.2-12.8,26.4c0.2-0.7,0.2-1.6,0.2-2.6
		c0-4.9-1.9-11.9-7.5-11.9c-8.7,0-11.5,9.4-16.4,17.3c-5.1-17.8-11.9-33.9-24.1-43.6c-12.4-9.9-33.7-4.5-33.7-22.7
		c0-4.9,3.1-11.9,3.1-17.5c0-1.9-0.4-3.7-1.4-5.1c16.8,6.3,10.8,17.5,21.2,29c6.4,7.3,24.2,14.3,34.6,44.5c0.2-0.9,0.3-3.1,0.3-4.7
		c0-25.8-34.2-51.2-37.2-61.6c19.9,2.3,23.4,7.2,32.8,33.4C507.5,242.1,513.8,255.5,513.8,262.2"/>
	<path class="st0" d="M418.3,77.4c-12.2,0-20.3-6.1-20.3-9.3c0-1.6,1-2.6,2.5-2.6c3.8,0,12.2,5.9,15,5.9c0.7,0,1.2-0.3,1.2-1.4
		c0-3.1-3-8.4-3-11c0-0.7,0.5-1.2,1.6-1.2c4.7,0,11.7,1.9,15.4,1.9c1.2,0,1.6-0.7,1.6-1.4c0-3.8-11.4-11.3-11.4-13.6
		c0-2.1,14.1-5.2,14.1-8.5c0-3.5-19.2-1.1-19.2-4.4c0-2.4,3.7-6.6,3.7-8.6c0-0.9-0.7-1.2-1.9-1.2c-1.6,0-10,3.3-13.5,3.3
		c-1.7,0-3.8-0.3-3.8-2.8c0-4,6.8-8.4,17.5-8.4c17.3,0,27.6,11.9,27.6,31.8C445.4,71.2,427.7,77.4,418.3,77.4z M384.3,44.3
		c0-1.9-6.8-5.6-6.8-7.7c0-0.3,0.3-0.5,0.9-0.5c1.9,0,5.3,0.7,7.9,0.7c2.3,0,2.6-9.8,4.3-9.8c1.2,0,3.3,9.3,5.2,9.3
		c2.3,0,6.5-2.6,8.2-2.6c0.3,0,0.7,0.2,0.7,0.5c0,1.2-4.4,5.9-4.4,7.3c0,1.6,9.8,3.5,9.8,4.9c0,1.7-10,1.6-10,3.1
		c0,1.2,3.7,6.1,3.7,7.7c0,0.4-0.2,0.5-0.5,0.5c-1.4,0-6.8-2.5-8.4-2.5c-1.9,0-5,7.2-6.6,7.2c-0.5,0-0.9-0.7-0.9-1.6l-0.4-7
		c0-0.7-0.3-1.4-1.2-1.4c-2.1,0-6.1-0.2-7.4-0.2c-0.9,0-1.2-0.2-1.2-0.5C377.3,50.4,384.3,45.5,384.3,44.3z M379.2,72.9
		c2.8,0,3.3,6.8,3.9,10.8c0.3,2.1,0.7,2.3,1.6,2.3c2.1,0,5.4-8,7.7-8c3.3,0,12.2,9.3,27.1,9.3c21.1,0,41-14.8,41-41
		C460.4,20.9,442.6,6,418,6c-11.7,0-20.3,5.8-24.8,5.8c-2.8,0.2-6.9-6.8-9-6.8c-0.9,0-1.7,1.7-1.7,4.7c0,1.9,0,8-2.1,8
		c-4.2,0-20.4-12-20.4-7.7c0,4,10.8,16.2,10.8,19.4c0,3.1-10.6,6.1-10.6,8.2c0,3.8,11.3,4.5,11.3,9.4c0,4.9-11.9,8.7-11.9,12.4
		c0,3,11.9,0.9,11.9,4.5c0,3.7-8.7,15.9-8.7,19.4c0,0.9,0.2,0.9,0.9,0.9C366.8,84.3,376.7,72.9,379.2,72.9"/>
	<path class="st0" d="M300.1,379.5c0,1.6-0.5,3.3-1.9,5.1c-1.9-3.5-7.3-5.2-9.8-5.2c-18,0-11.2,26-30.4,26c-8,0-8.7-1.1-11.7-1.1
		c-1.2,0-1.9,0.5-1.9,1.6c0,4.5,6.5,15.7,24.4,15.7c18,0,35.3-11,35.3-24.6c0-2.3-0.5-4.7-1.6-7.1c0.7-1.1,2.5-1.7,4-1.7
		c2.8,0,4.4,3.2,7,3.2c2.8,0,4.9-2.1,4.9-4.9c0-2.3-1.2-3.8-3.3-4.9c1.4-1,2.4-2.8,2.4-4.7c0-3-2.1-5.8-5.6-5.8
		c-1.6,0-2.6,0.5-3.8,1.7c-0.3-3.1-2.1-6.1-5.4-6.1c-2.6,0-4.5,1.9-4.5,4.9C298.2,374.3,300.1,376.5,300.1,379.5"/>
	<path class="st0" d="M204.4,347c14,3.5,21,11,22.3,19.9c1.4,8.5,3.1,15.5,6.5,19c4.4,4.9,12.9,9.2,20.4,9.2
		c6.3,0,11.3-2.1,11.3-7.8c0-6.3-8.6-20.4-21.1-20.4c-1.2,0-2.8,0.2-4.5,0.2c-1.6,0-3.8-0.3-5.2-1.6c-2.8-2.5-3.7-15.5-8.9-23.4
		c-5.8-8.7-12-11.2-20.6-11.2c-6.1,0-12.9,3.3-12.9,8.2C191.7,342.1,193.2,344.2,204.4,347z M253.1,386.1c-5.2,0-13.1-5.6-13.1-8.7
		c0-2.6,2.4-4,4.4-4c4.4,0,12.2,5.4,12.2,10C256.6,384.6,255.7,386.1,253.1,386.1"/>
	<path class="st0" d="M237.1,250.1c0-11.2,26.5-17.1,26.5-30.9c0-2.3-0.9-6.3-2.4-9.2c9.2,5.1,16.1,13.6,16.1,20.6
		c0,12.1-12.6,17.6-12.6,25.1c0,8.7,13.4,10.1,13.4,20.9c0,8.9-12.7,19.2-12.7,30.7c0,8.9,6.3,16.2,15.9,17.5
		c-3.1,0.7-5.9,1.2-8.9,1.2c-17.6,0-35.8-14.5-35.8-31.8c0-8.6,3.7-16,9.2-21.5c4.9,4.2,9.8,7,12.9,7c2.8,0,4-1.4,4-3.5
		C262.7,269.9,237.1,263.9,237.1,250.1z M292.8,338.3c-6,2.7-8.4,2.3-8.4,8.4c0,2.3-0.5,5.2-0.5,6.8c0,2.1,0.3,3.3,2.8,3.3
		c6.3,0,16.2-10.6,16.2-19.7c0-2.5-1.4-3.5-3-3.5C298.5,333.6,297,336.4,292.8,338.3z M292.1,325.7c0-7.9-16.2-8-16.2-19.9
		c0-3,1.9-8,5.8-13.5c1.6,9.1,5.2,13.8,13.1,16.8c15.5,5.8,17.6,14.5,17.6,23.7c0,15.7-11,35.3-39.3,35.3
		c-22.7,0-38.9-20.3-38.9-37.4c0-4.7,1.2-9.9,4.2-9.9c2.6,0,3.5,2.1,5.6,4.2c7.9,7.9,16.4,10,28.8,10
		C283.9,335,292.1,330.4,292.1,325.7"/>
	<path class="st0" d="M168.4,329.5c0.4,3.6-2.2,6.9-5.8,7.4c-3.6,0.4-7-2.2-7.4-5.8c-0.4-3.6,2.2-7,5.8-7.4
		C164.7,323.2,168,325.9,168.4,329.5z M135.8,336.4c0.7,6,6.3,10.5,12.6,9.8c2.3-0.3,4.4-0.9,5.8-1.7c1.4,5.6,6.1,9.2,12.4,8.3
		c6.4-0.8,10.8-5.9,10.1-12.4c-0.2-1.7-0.5-2.8-1-4c0,0,0.8-0.1,1.5-0.2c6.3-1.2,10.6-6.3,10-12.4c-0.7-6.3-6.3-10.9-12.2-10.2
		c-2.3,0.3-4.4,1.1-5.8,2.4c-1.6-5.2-6.5-9.8-13.2-8.7c-6.1,1-10.1,6.2-9.5,12.7c0.1,1.1,0.3,2.3,0.9,3.5c0,0-1,0.2-1.7,0.3
		C140.5,324.5,135,329.6,135.8,336.4"/>
</g>
</svg>
