<?xml version="1.0" encoding="utf-8"?>
<!-- Generator: Adobe Illustrator 21.1.0, SVG Export Plug-In . SVG Version: 6.00 Build 0)  -->
<svg version="1.1" id="Layer_1" xmlns="http://www.w3.org/2000/svg" xmlns:xlink="http://www.w3.org/1999/xlink" x="0px" y="0px"
	 viewBox="0 0 640 480" style="enable-background:new 0 0 640 480;" xml:space="preserve">
<g transform="translate(0.000000,185.000000) scale(0.100000,-0.100000)">
	<path d="M608.5,327.6C311.4,125.5,35-427.4,35-823.5c0-280.6,218.7-565.2,470.3-614.7c66-12.4,78.4,16.5,82.5,235.2
		c8.3,255.8,123.8,557,222.8,590c28.9,8.3,127.9-61.9,218.7-152.7c94.9-94.9,177.4-169.2,185.7-169.2c45.4,0,8.3,548.7-45.4,730.3
		C1107.7,5.8,876.7,389.5,798.3,414.3C773.5,422.5,691,381.3,608.5,327.6z"/>
	<path d="M3608,96.6c-193.9-61.9-313.6-202.2-313.6-375.5c0-301.2,82.5-367.2,577.6-449.7c338.3-53.6,453.8-123.8,453.8-272.3
		c0-140.3-165-231-412.6-231c-235.2,0-396.1,82.5-453.8,239.3c-24.8,57.8-70.1,99-123.8,99c-119.6,0-111.4-222.8,16.5-350.7
		c189.8-185.7,664.3-239.3,953.1-99c165,78.4,288.8,325.9,239.3,478.6c-57.8,169.2-206.3,251.7-590,325.9
		c-387.8,70.1-453.8,107.3-453.8,243.4c0,148.5,123.8,226.9,367.2,226.9c185.7,0,235.2-16.5,342.4-123.8
		c226.9-226.9,400.2-99,181.5,136.2C4235.1,113.1,3888.5,179.1,3608,96.6z"/>
	<path d="M5138.6,88.3c-466.2-127.9-660.1-742.6-383.7-1184.1c235.2-371.3,899.4-445.6,1266.6-140.3
		c181.5,152.7,243.4,305.3,243.4,594.1c0,470.3-251.7,730.3-738.5,763.3C5398.6,129.6,5225.3,113.1,5138.6,88.3z M5906.1-225.2
		c123.8-123.8,132-152.7,132-420.8c0-255.8-12.4-297.1-115.5-404.3c-148.5-152.7-404.3-222.8-627.1-173.3
		c-189.8,41.3-429.1,276.4-437.3,420.8c-20.6,350.7,49.5,540.5,247.5,668.4c78.4,49.5,177.4,66,387.8,53.6
		C5745.1-89.1,5786.4-105.6,5906.1-225.2z"/>
	<path d="M1726.6-439.8c0-664.3,41.3-792.2,297.1-907.7c334.2-152.7,812.8-74.3,969.6,156.8c61.9,90.8,78.4,214.5,86.6,701.4
		l16.5,585.9h-103.1h-103.1l-16.5-557c-12.4-499.2-20.6-565.2-99-639.5c-189.8-193.9-598.2-177.4-759.2,28.9
		c-74.3,94.9-82.5,165-82.5,635.4V96.6h-103.1h-103.1V-439.8z"/>
</g>
</svg>
