<?xml version="1.0" encoding="utf-8"?>
<!-- Generator: Adobe Illustrator 22.1.0, SVG Export Plug-In . SVG Version: 6.00 Build 0)  -->
<svg version="1.1" id="Layer_2_1_" xmlns="http://www.w3.org/2000/svg" xmlns:xlink="http://www.w3.org/1999/xlink" x="0px" y="0px"
	 viewBox="0 0 640 480" style="enable-background:new 0 0 640 480;" xml:space="preserve">
<style type="text/css">
	.st0{fill:#53AE94;}
	.st1{fill:#FFFFFF;}
</style>
<g>
	<path class="st0" d="M320,0c132.5,0,240,107.5,240,240S452.5,480,320,480S80,372.6,80,240S187.4,0,320,0"/>
	<path class="st1" d="M349.6,208v-35.7h81.6v-54.4H208.9v54.4h81.7V208c-66.4,3-116.3,16.2-116.3,31.9s49.9,28.9,116.3,32v114.4h59
		V271.9c66.2-3.1,116-16.2,116-31.9S415.9,211.1,349.6,208 M349.6,262.2L349.6,262.2c-1.7,0.1-10.2,0.6-29.3,0.6
		c-15.2,0-26-0.4-29.7-0.6v0c-58.6-2.6-102.4-12.8-102.4-25s43.8-22.4,102.4-25V252c3.8,0.3,14.8,0.9,30,0.9c18.2,0,27.4-0.8,29-0.9
		v-39.9c58.5,2.6,102.2,12.8,102.2,25C451.8,249.3,408.1,259.6,349.6,262.2"/>
</g>
</svg>
