<?xml version="1.0" encoding="utf-8"?>
<!-- Generator: Adobe Illustrator 21.0.2, SVG Export Plug-In . SVG Version: 6.00 Build 0)  -->
<svg version="1.1" id="Layer_1" xmlns="http://www.w3.org/2000/svg" xmlns:xlink="http://www.w3.org/1999/xlink" x="0px" y="0px"
	 viewBox="0 0 640 480" style="enable-background:new 0 0 640 480;" xml:space="preserve">
<style type="text/css">
	.st0{fill:#0077B3;}
	.st1{fill:#FFFFFF;}
</style>
<g>
	<circle class="st0" cx="320" cy="240" r="239.5"/>
	<circle class="st1" cx="388.8" cy="121.2" r="57.3"/>
	<path class="st1" d="M356.2,223l-42,82.9c-0.9,1.7-3.3,1.8-4.3,0.1L185,77.1c-0.9-1.6,0.3-3.6,2.1-3.6h92.2c0.9,0,1.7,0.5,2.1,1.3
		l74.8,146C356.6,221.5,356.6,222.3,356.2,223z"/>
	<g>
		<path class="st1" d="M158.1,371.3l0.8,3.7h0.3l0.8-3.7l9.1-30.4h10.7l-16.3,46h-9l-16.4-46h10.7L158.1,371.3z"/>
		<path class="st1" d="M213.2,386.9c-0.4-1.2-0.7-2.3-0.9-3.4c-0.2-1.1-0.4-2.2-0.5-3.3c-1.4,2.2-3.2,4-5.6,5.4
			c-2.3,1.5-4.9,2.2-7.8,2.2c-4.8,0-8.5-1.2-11-3.7c-2.6-2.5-3.8-5.8-3.8-10.2c0-4.4,1.8-7.9,5.3-10.4c3.5-2.5,8.5-3.7,14.8-3.7h8
			v-4c0-2.4-0.7-4.3-2.1-5.6c-1.4-1.4-3.4-2-6.1-2c-2.4,0-4.2,0.6-5.6,1.7c-1.4,1.1-2.1,2.6-2.1,4.4l-9.9,0l0-0.3
			c-0.2-3.6,1.4-6.8,4.9-9.6c3.4-2.8,7.9-4.2,13.4-4.2c5.4,0,9.7,1.4,13,4.1c3.3,2.7,4.9,6.6,4.9,11.7v20.4c0,1.9,0.1,3.7,0.4,5.5
			s0.7,3.4,1.2,5.1H213.2z M200.6,379.5c2.6,0,4.9-0.7,7-2c2.1-1.3,3.5-2.8,4.1-4.5v-6.8h-8.2c-3,0-5.4,0.7-7.1,2.2
			c-1.7,1.5-2.5,3.2-2.5,5.2c0,1.8,0.6,3.2,1.7,4.2C196.8,378.9,198.5,379.5,200.6,379.5z"/>
		<path class="st1" d="M243.9,386.9h-10.3v-66.3h10.3V386.9z"/>
		<path class="st1" d="M266.4,386.9h-10.3v-66.3h10.3V386.9z"/>
		<path class="st1" d="M276.1,363.4c0-6.9,1.9-12.5,5.6-16.8c3.8-4.4,8.9-6.6,15.4-6.6c6.6,0,11.8,2.2,15.5,6.6
			c3.8,4.4,5.6,10,5.6,16.8v0.9c0,6.9-1.9,12.5-5.6,16.9c-3.8,4.3-8.9,6.5-15.4,6.5c-6.6,0-11.7-2.2-15.5-6.5
			c-3.8-4.4-5.6-10-5.6-16.9V363.4z M286.4,364.3c0,4.5,0.9,8.2,2.6,11c1.8,2.8,4.5,4.2,8.2,4.2c3.6,0,6.3-1.4,8.1-4.2
			c1.8-2.8,2.7-6.5,2.7-10.9v-0.9c0-4.4-0.9-8-2.7-10.9c-1.8-2.8-4.5-4.3-8.2-4.3c-3.6,0-6.3,1.4-8,4.3c-1.8,2.8-2.7,6.5-2.7,10.9
			V364.3z"/>
		<path class="st1" d="M355.9,380.1c-1.4,2.5-3.2,4.4-5.5,5.7c-2.2,1.3-4.8,2-7.7,2c-4.9,0-8.8-1.6-11.6-4.9
			c-2.8-3.2-4.2-8.3-4.2-15.1v-26.9h10.3v27c0,4.4,0.6,7.4,1.9,9c1.3,1.6,3.3,2.4,5.9,2.4c2.5,0,4.6-0.4,6.3-1.3
			c1.7-0.9,3-2.2,4-3.9v-33.2h10.3v46h-8.9L355.9,380.1z"/>
		<path class="st1" d="M399.4,350.2L395,350c-2,0-3.7,0.4-5,1.3c-1.3,0.8-2.4,2.1-3.1,3.6v31.9h-10.3v-46h9.4l0.7,6.7
			c1.2-2.4,2.7-4.2,4.5-5.5c1.8-1.3,3.9-2,6.3-2c0.6,0,1.2,0,1.7,0.1c0.5,0.1,1,0.2,1.5,0.4L399.4,350.2z"/>
		<path class="st1" d="M425.8,387.7c-6.7,0-12-2.1-15.7-6.3c-3.8-4.2-5.7-9.7-5.7-16.5v-1.7c0-6.7,1.9-12.3,5.7-16.7
			c3.8-4.4,8.7-6.5,14.6-6.5c6.2,0,10.8,1.9,14,5.7c3.2,3.8,4.8,8.9,4.8,15.3v5.6H415l-0.1,0.2c0.1,3.8,1.1,6.8,3,9.2
			c1.9,2.4,4.7,3.5,8.5,3.5c2.8,0,5.2-0.3,7.3-1c2.1-0.7,4-1.7,5.7-2.9l3.4,6.8c-1.8,1.5-4.1,2.8-7,3.9
			C432.8,387.2,429.5,387.7,425.8,387.7z M424.7,348.3c-2.7,0-4.8,1-6.5,2.9c-1.6,1.9-2.6,4.5-3,7.6l0.1,0.2h18v-0.8
			c0-2.9-0.7-5.3-2.1-7.2C429.8,349.2,427.6,348.3,424.7,348.3z"/>
		<path class="st1" d="M470.5,379.5c2.3,0,4.3-0.7,6-2.2c1.6-1.5,2.4-3.3,2.4-5.6h9.3l0.1,0.3c0.1,4.3-1.6,8-5.1,11.1
			c-3.5,3.1-7.8,4.7-12.7,4.7c-6.6,0-11.7-2.2-15.3-6.6c-3.6-4.4-5.4-9.9-5.4-16.5v-1.5c0-6.6,1.8-12.1,5.4-16.5
			c3.6-4.4,8.7-6.6,15.3-6.6c5.4,0,9.7,1.6,13,4.8c3.3,3.2,5,7.3,4.8,12.3l-0.1,0.3h-9.3c0-2.5-0.8-4.7-2.3-6.4
			c-1.6-1.8-3.6-2.6-6.1-2.6c-3.7,0-6.3,1.4-7.9,4.3c-1.6,2.8-2.4,6.4-2.4,10.6v1.5c0,4.3,0.8,7.8,2.4,10.6
			C464.1,378.1,466.8,379.5,470.5,379.5z"/>
	</g>
</g>
</svg>
