<?xml version="1.0" encoding="utf-8"?>
<!-- Generator: Adobe Illustrator 21.1.0, SVG Export Plug-In . SVG Version: 6.00 Build 0)  -->
<svg version="1.1" id="Layer_1" xmlns="http://www.w3.org/2000/svg" xmlns:xlink="http://www.w3.org/1999/xlink" x="0px" y="0px"
	 viewBox="0 0 640 480" style="enable-background:new 0 0 640 480;" xml:space="preserve">
<style type="text/css">
	.st0{fill:#FD0505;}
	.st1{fill:#FEFBFB;}
	.st2{fill:#FD0606;}
</style>
<path class="st0" d="M125.7,239.2C125.9,131.9,213.7,45,321.5,45.5c106.3,0.5,192.9,88,192.8,194.8c-0.2,107.3-88,194.3-195.8,193.7
	C212.2,433.5,125.6,346,125.7,239.2z M314.7,351.8c3.5,0,7,0,10.5,0c5.7-1.1,11.4-2.3,17.1-3.2C407.1,338,454.4,284.3,458.2,217
	c3.5-62.6-41.8-121.8-105.5-138.2c-61.4-15.7-127.5,15-156.2,72.6c-29,58.2-13,128.8,38.1,169.4
	C258.1,339.6,285.6,347.6,314.7,351.8z"/>
<path class="st1" d="M314.5,351.8c-29.1-4.2-56.6-12.2-80.2-31c-51.1-40.7-67.1-111.3-38.1-169.4c28.8-57.6,94.9-88.3,156.2-72.6
	c63.7,16.3,109,75.6,105.5,138.2c-3.8,67.3-51,121-115.8,131.6c-5.7,0.9-11.4,2.1-17.1,3.2c3.6-6.4,6.7-13.2,10.8-19.2
	c14.8-21.4,29.1-42.9,26.8-70.8c-2.1-25.2-20.5-44.3-42.9-44.3c-22.4,0-40.8,19-42.9,44.3c-2.3,27.9,12,49.3,26.8,70.8
	C307.8,338.6,310.9,345.4,314.5,351.8z"/>
<path class="st2" d="M314.7,351.8c-3.6-6.4-6.7-13.2-10.8-19.2c-14.8-21.4-29.1-42.9-26.8-70.8c2.1-25.2,20.5-44.3,42.9-44.3
	c22.4,0,40.8,19.1,42.9,44.3c2.3,27.9-12,49.3-26.8,70.8c-4.2,6-7.3,12.8-10.8,19.2C321.8,351.8,318.2,351.8,314.7,351.8z"/>
</svg>
