<?xml version="1.0" encoding="utf-8"?>
<!-- Generator: Adobe Illustrator 21.1.0, SVG Export Plug-In . SVG Version: 6.00 Build 0)  -->
<svg version="1.1" id="Layer_1" xmlns="http://www.w3.org/2000/svg" xmlns:xlink="http://www.w3.org/1999/xlink" x="0px" y="0px"
	 viewBox="0 0 640 480" style="enable-background:new 0 0 640 480;" xml:space="preserve">
<style type="text/css">
	.st0{fill:#CC2131;}
</style>
<path class="st0" d="M357,151.8c11.8,0,21.3-9.5,21.3-21.3l0,0V47.7c0-11.8-9.5-21.3-21.3-21.3l0,0h-82.8
	c-11.7,0-21.3,9.5-21.3,21.3l0,0v63.4c0,19.7-15,36.7-21.5,43.4c-6.5,6.8-24,21-51.9,21h-76.3v125.8H229V225
	c0.1-27.9,14.2-45.3,21-51.8c6.8-6.5,23.7-21.5,43.4-21.5H357V151.8z M515.6,191c-13.1-13.2-31.3-21.1-51.5-21.1
	c-41.4,0-74.4,33.7-74.4,73.9c0,7.4,3.2,21.2,3.2,27.2c0,31.6-25.6,57.3-57.2,57.3l0,0h-61.3c-11.8,0-21.3,9.6-21.3,21.3l0,0v82.8
	c0,11.8,9.5,21.3,21.2,21.3l0,0H357c11.8,0,21.3-9.5,21.3-21.3V371c0-31.6,25.7-57.3,57.3-57.3c5.9,0,19.8,3.2,27.2,3.2
	c40.2,0,73.8-33,73.8-74.3C536.7,223.2,529.1,204.7,515.6,191L515.6,191z"/>
</svg>
