<?xml version="1.0" encoding="utf-8"?>
<!-- Generator: Adobe Illustrator 22.1.0, SVG Export Plug-In . SVG Version: 6.00 Build 0)  -->
<svg version="1.1" id="Layer_4" xmlns="http://www.w3.org/2000/svg" xmlns:xlink="http://www.w3.org/1999/xlink" x="0px" y="0px"
	 viewBox="0 0 640 480" style="enable-background:new 0 0 640 480;" xml:space="preserve">
<style type="text/css">
	.st0{fill:#E30083;}
</style>
<g>
	<g>
		<g>
			<path class="st0" d="M63.7,142.3c3-6.1,6.3-12.4,9.3-18.4c7.3-14.7,14.7-29.3,22-44c0.5-1,1.5-2.3,2.5-2.3c6.3-0.3,12.6,0,20,0
				c-5.8,11.9-11.1,22.5-16.7,33.6c36.6,0,72.8,0,109.9,0c-1,2.5-1.5,5.1-3,7.1c-3.8,4.8-8.3,8.1-14.9,7.8c-9.6-0.3-19.5,0-29.3,0
				c-2.3,0-3,0.5-3,3c0,11.4-0.3,22.5-0.5,33.9c0,2.5,0.8,3,3,3c13.9,0,27.5,0.3,41.4,0.3c1.3,0,2.5,0,4.3,0
				c-1.5,5.6-4.8,9.3-8.6,12.6c-2.5,2-5.1,3.3-8.6,3c-9.3-0.5-18.7-0.5-28-0.8c-1,0-2.3,0-3.8,0c0.3,3.5,0.5,6.8,0.5,10.4
				c0.3,9.1,0.5,18.4,0.8,27.5c0,2.5,0.8,3.5,3.3,3.5c12.1,0,24.3,0.3,36.4,0.3c2,0,3.8,0,5.8,0c0.5,3.3-0.8,5.3-2.8,7.3
				c-3.5,3.5-7.8,5.6-12.9,5.8c-9.3,0.5-18.7,0.8-28,1c-2.5,0-3,1-3,3.3c0,10.6,0,21-0.3,31.6c0,5.3-0.3,5.1,5.3,5.3
				c14.4,0.3,28.8,0.3,43.2,0.5c0.8,0,1.3,0,2.5,0.3c-0.5,1.8-0.5,3.8-1.3,5.1c-3.5,6.1-8.8,10.1-15.9,10.1
				c-34.1,0-68.2-0.5-102.1-0.8c-4.5,0-9.1,0-13.6,0c0-46.2,0-92.2,0-138.2c-3.3,6.1-6.3,11.9-9.9,17.4c-3.8,5.8-4.8,11.9-4.8,18.7
				c0.3,25,0,50.3,0,75.3c0,6.3-3.5,10.9-7.6,15.2c-1.3,1.3-3.8,1.5-5.6,1.5c-15.2,0-30.3,0-45.7,0c-4,0-4,0-4-4
				c0-31.3,0-62.9,0-94.2c0-22.7,0-45.5,0-68.2c0-4,0-4,3.8-4c17.4,0,35.1,0,52.5,0.3c6.6,0,6.6,0,6.6,6.8c0,8.1,0,15.9,0,24
				C63.4,142.3,63.4,142.3,63.7,142.3z M43.2,126.9c-6.6,0-11.9,0.3-17.4,0c-3-0.3-3.5,1-3.5,3.5c0,18.4-0.3,36.9-0.5,55.3
				c-0.3,25.8-0.5,51.5-0.5,77.6c0,4.3,0,4,4.3,4c4,0,7.8-0.3,11.9-0.3s6.8-2.8,6.8-6.8c-0.3-16.7-0.3-33.1-0.5-49.8
				c-0.3-21.7-0.3-43.5-0.3-65.4C43.2,139.3,43.2,133.2,43.2,126.9z M138.2,222.1c0-13.9,0-27.3,0-40.7c-1,0-1.5-0.3-2.3-0.3
				c-11.6-0.3-23.5-0.3-35.1-0.5c-2,0-2.5,0.8-2.5,2.5c0.3,10.6,0.3,21.2,0.5,31.8c0,7.1,0,7.1,7.1,7.1c0.5,0,1.3,0,1.8,0
				C118,222.1,128.1,222.1,138.2,222.1z M118.2,126.4L118.2,126.4c-6.1,0-11.9,0.3-17.9,0c-1.8,0-2.8,0.3-2.8,2.5
				c0.3,10.9,0.3,21.7,0.3,32.6c0,2.5,0.8,3,3,3.3c11.4,0.3,23,0.5,34.4,1c2.3,0,3.3-0.8,3.3-3c0.3-11.4,0.3-22.7,0.5-34.1
				c0-2-1-2.3-2.8-2.3C130.4,126.4,124.3,126.4,118.2,126.4z M98.8,276.9c13.4,0,26.3,0,38.9,0c0-13.1,0-25.8,0-38.4
				c-1.3,0-2-0.3-2.5-0.3c-10.9,0-21.7,0.3-32.6,0c-3.3,0-3.5,1-3.5,3.8c0,8.3,0,16.9,0,25.3C98.8,270.6,98.8,273.9,98.8,276.9z"/>
			<path class="st0" d="M591.4,244.1c5.3,0,10.1,0.3,14.7,0c4.8-0.5,7.3,1.3,9.6,5.6c3.8,8.1,8.3,15.7,12.6,23.5
				c4,7.8-2,18.2-10.6,18.2c-49.3,0-98.5,0-147.8,0c-4,0-6.8-2-8.6-5.6c-2.3-5.1-2.5-9.9,0.3-14.9c8.6-16.2,17.2-32.1,25.8-48
				c0.5-0.8,0.8-1.5,1.5-3c-13.9,0-27.3,0-41.2,0c0.3-5.1,0.5-9.6,0.8-14.7c63.7,0,126.8,0,190.5,0c-0.3,3.3-2.3,5.8-4.5,8.3
				c-5.3,5.3-11.9,6.8-18.9,6.8c-33.9,0-67.7,0-101.6,0c-2.8,0-4.3,1-5.6,3.3c-8.3,15.9-16.7,31.8-25.3,47.7c-0.5,1-1,1.8-1.5,3
				c41.7,0,83.1,0,125,0C601.7,264.3,596.7,254.5,591.4,244.1z"/>
			<path class="st0" d="M256.9,86.2c47.2,0,94.2,0,141.7,0c0,0.3,0.3,1.3,0.3,2c0.3,23.2,0.5,46.5,0.5,69.7c0,1.3-0.3,3-0.8,4
				c-4,7.3-9.6,12.6-18.7,12.6c-37.4,0-74.8,0-112.2-0.3c-3.3,0-6.6-0.3-10.1,0c-2.3,0-3-0.8-3-3c0.3-11.4,0.5-22.7,0.8-34.1
				c0.3-15.9,0.8-32.1,1-48C256.7,88.2,256.9,87.5,256.9,86.2z M275.6,158.2c1,0,1.8,0.3,2.5,0.3c22.2,0,44.5,0,66.9,0
				c9.1,0,18.2-0.3,27.3-0.5c3.3,0,5.3-2,5.6-4.8c0.3-2.3,0.5-4.8,0.5-7.3c0-13.6,0-27,0-40.7c0-1,0-2.3-0.3-3.3
				c-0.5,0-1-0.3-1.3-0.3c-33.1,0-65.9,0-99,0c-2.3,0-2.5,1-2.5,3c0,16.9,0,34.1,0,51C275.4,156.2,275.6,156.9,275.6,158.2z"/>
			<path class="st0" d="M230.6,292.3c0-2,0-3.3,0-4.8c0-32.8,0-65.4,0-98.3c0-2.8,0.5-3.8,3.5-3.8c27.5,0,55.3,0,82.9,0
				c2.8,0,3.3,1,3.3,3.5c0,28,0,56.1,0,84.1c0,6.1-2.5,11.4-6.3,16.2c-2.3,2.8-5.6,3-8.8,3c-23.2,0-46.5,0-70,0
				C233.9,292.3,232.4,292.3,230.6,292.3z M251.6,276.9c1.5,0,2.5,0,3.5,0c12.6,0,25-0.3,37.6,0c4.8,0,7.1-0.8,7.1-7.1
				c0-21.5,0-42.7,0-64.2c0-2-0.8-2.5-2.5-2.5c-14.4,0-28.8,0-43.2,0c-2.3,0-2.8,1-2.8,3c0,16.4,0,33.1,0,49.5
				C251.6,262.8,251.6,269.6,251.6,276.9z"/>
			<path class="st0" d="M425.4,187c0,1.3,0.3,2.5,0.3,3.5c0,27.5,0,55.1,0,82.6c0,6.3-2.5,11.9-6.1,16.9c-2,2.8-5.3,3.5-8.3,3.5
				c-24,0-47.7,0-71.7,0c-2.8,0-3-1.5-3-3.8c0.3-26.8,0.3-53.6,0.5-80.3c0-7.6,0-14.9,0-22.7C366.6,187,395.9,187,425.4,187z
				 M357,277.9c1.3,0,2,0.3,3,0.3c12.4,0,24.8-0.3,37.1-0.3c6.8,0,6.6,0.3,7.6-7.6c0-0.8,0-1.5,0-2.5c0.3-18.4,0.3-36.6,0.5-55.1
				c0-3.3,0-6.3,0-9.6c-16.2,0-32.1,0-48,0C357,228.2,357,252.7,357,277.9z"/>
			<path class="st0" d="M639.6,180.4c-2.3-1-4.3-1.5-6.1-2.8c-10.1-7.3-20.7-14.1-30.1-22.5c-20-17.9-39.2-36.9-58.6-55.3
				c-0.3-0.3-0.8-0.8-1.5-1.5c-25,34.9-59.4,58.4-94.5,81.9c-0.3-1.3-0.5-2-0.5-2.5c0-6.1,0-12.4,0-18.4c0-1.3,0.8-2.8,1.8-3.5
				c25.3-14.4,46-34.1,64.7-56.1c4-4.8,8.8-9.1,12.9-14.1c3-3.8,6.8-5.1,11.4-5.1c0.5,0,1.3,0,1.8,0c12.1-0.3,11.9,0,20.5,8.6
				c20.2,20.2,40.4,40.7,63.2,58.1c4.3,3.3,8.8,6.6,13.1,9.9c0.8,0.5,1.8,1.8,1.8,2.5c0.3,6.6,0.5,12.9,0.5,19.5
				C640.1,179.2,639.9,179.4,639.6,180.4z"/>
			<path class="st0" d="M610.8,163.3c-1.5,9.6-7.6,15.2-16.9,15.2c-21.7,0-43.5,0-64.9,0.3c-15.7,0-31.1,0.3-46.7,0.5
				c-2.8,0-3.5-0.8-3.3-3.5c0.3-3,0.3-6.3,0.3-9.3c0-2,0.5-2.8,2.8-2.8c42.4-0.3,84.6-0.3,127.1-0.5
				C609.3,163,610.1,163.3,610.8,163.3z"/>
			<path class="st0" d="M133.1,78.1c5.1,0,10.1,0,15.2,0c0.8,0,1.5,0.5,2,1c6.1,8.6,11.9,17.2,18.2,26.5c-1.5,0.3-2.5,0.3-3.3,0.3
				c-4.5,0-8.8-0.3-13.4-0.3c-0.8,0-2-0.3-2.5-0.8c-5.6-8.6-11.1-16.9-16.7-25.5C132.9,78.9,133.1,78.6,133.1,78.1z"/>
		</g>
	</g>
	<g>
		<path class="st0" d="M42.4,401.5l-20.7-62.7h12.6l8.6,28.5c2.5,7.8,4.5,15.2,6.3,22.7h0.3c1.8-7.3,4-14.9,6.6-22.7l9.3-28.5h12.4
			l-22,62.7H42.4z"/>
		<path class="st0" d="M97.3,337.8v62.7H85.6v-62.7H97.3z"/>
		<path class="st0" d="M111.4,337.8c4.3-0.8,9.9-1.3,17.7-1.3c8.6,0,14.7,1.8,18.7,5.1c3.8,3,6.3,8.1,6.3,13.9
			c0,5.8-1.8,10.9-5.3,14.1c-4.8,4.5-11.9,6.8-20.2,6.8c-2.3,0-4,0-5.8-0.5v23.7h-11.6v-61.9H111.4z M123,367.1
			c1.5,0.5,3.3,0.5,5.8,0.5c8.6,0,13.9-4.3,13.9-11.6c0-6.8-4.8-10.6-12.9-10.6c-3.3,0-5.6,0.3-6.8,0.5
			C123,345.9,123,367.1,123,367.1z"/>
		<path class="st0" d="M164,388.1c3.8,2,9.3,4,15.4,4c7.3,0,11.6-3.5,11.6-8.6c0-4.8-3.3-7.6-11.4-10.4
			c-10.6-3.8-17.2-9.1-17.2-18.2c0-10.4,8.6-17.9,22.5-17.9c6.8,0,11.9,1.5,15.2,3l-2.8,9.3c-2.3-1.3-6.8-3-12.6-3
			c-7.3,0-10.6,3.8-10.6,7.6c0,4.8,3.8,7.1,12.1,10.4c11.1,4,16.4,9.6,16.4,18.7c0,10.1-7.8,18.7-24,18.7c-6.8,0-13.6-1.8-17.2-4
			L164,388.1z"/>
		<path class="st0" d="M223.8,338.6v25h26.8v-25h11.6v62.7h-11.6v-27.8h-26.8v27.8h-11.6v-62.7H223.8z"/>
		<path class="st0" d="M332.2,368.4c0,21-12.9,32.8-30.3,32.8c-17.9,0-29.3-13.4-29.3-31.8c0-19.2,12.4-32.8,30.3-32.8
			C321.3,336.8,332.2,350.7,332.2,368.4z M284.7,369.4c0,12.9,6.6,23,17.7,23c11.1,0,17.7-10.4,17.7-23.5c0-11.9-6.1-23-17.4-23
			C291,345.9,284.7,356.5,284.7,369.4z"/>
		<path class="st0" d="M345.8,339.6c4.3-0.8,10.1-1.3,17.7-1.3c8.6,0,14.7,1.8,18.7,5.1c3.8,3,6.3,8.1,6.3,13.9
			c0,5.8-1.8,10.9-5.3,14.1c-4.8,4.5-11.9,6.8-20.2,6.8c-2.3,0-4,0-5.8-0.5v23.7h-11.6v-61.9H345.8z M357.5,368.6
			c1.5,0.5,3.3,0.5,5.8,0.5c8.6,0,13.9-4.3,13.9-11.6c0-6.8-4.8-10.6-12.9-10.6c-3.3,0-5.6,0.3-6.8,0.5V368.6z"/>
		<path class="st0" d="M467.9,397.4c-2.8,1.3-8.8,2.8-16.4,2.8c-20.2,0-32.6-12.4-32.6-31.6c0-20.5,14.7-33.1,34.1-33.1
			c7.6,0,13.1,1.5,15.4,2.8l-2.5,9.1c-3-1.3-7.1-2.5-12.4-2.5c-12.9,0-22.2,8.1-22.2,23c0,13.9,8.1,22.5,22.2,22.5
			c4.8,0,9.6-1,12.6-2.3L467.9,397.4z"/>
		<path class="st0" d="M534.3,369.7c0,21-12.9,32.8-30.3,32.8c-17.9,0-29.3-13.4-29.3-31.8c0-19.2,12.4-32.8,30.3-32.8
			C523.2,338.1,534.3,351.7,534.3,369.7z M486.8,370.7c0,12.9,6.6,23,17.7,23s17.7-10.4,17.7-23.5c0-11.9-6.1-23-17.4-23
			C492.9,347.2,486.8,357.8,486.8,370.7z"/>
		<path class="st0" d="M603,376c-0.5-8.1-0.8-17.7-0.8-26.3H602c-2,7.6-4.8,16.2-7.6,24l-9.3,27h-8.8l-8.3-26.8
			c-2.5-8.1-4.8-16.4-6.3-24.5h-0.3c-0.3,8.1-0.8,18.2-1.3,26.8l-1.5,25.3h-10.9l4.3-62.7h15.2l8.3,25.3c2.3,7.3,4.3,14.9,5.8,21.7
			h0.3c1.8-6.8,3.8-14.4,6.3-21.7l8.8-25h15.2l3.5,62.7H604L603,376z"/>
		<rect x="394.1" y="388.9" class="st0" width="10.6" height="10.6"/>
	</g>
</g>
</svg>
