<?xml version="1.0" encoding="utf-8"?>
<!-- Generator: Adobe Illustrator 19.2.1, SVG Export Plug-In . SVG Version: 6.00 Build 0)  -->
<svg version="1.1" id="Layer_1" xmlns="http://www.w3.org/2000/svg" xmlns:xlink="http://www.w3.org/1999/xlink" x="0px" y="0px"
	 viewBox="0 0 640 480" style="enable-background:new 0 0 640 480;" xml:space="preserve">
<style type="text/css">
	.st0{fill:none;}
	.st1{fill-rule:evenodd;clip-rule:evenodd;fill:#005A9B;}
	.st2{fill-rule:evenodd;clip-rule:evenodd;fill:#FAA929;}
</style>
<path class="st0" d="M347.1,199.7c0.5-5.4-0.1-10.5-5.6-12.3c-6.8-2.4-15.2,2-21.6,11.7c-9.6,14.8-10.1,32.9-9,44.4
	C317.5,240.7,343.9,220.1,347.1,199.7z"/>
<path class="st0" d="M244.9,318.1c0,25.3,21,30.2,33.6,29c13.7-1.3,28.2-8.7,31.9-11c-12.4-16.4-23.9-40-29.2-61
	C268.4,280.7,244.9,296.5,244.9,318.1z"/>
<path class="st0" d="M182.2,135c-0.4,0-12,0-12,0l-37.3,118.8c0,0,50.6,13.8,73.5-53.3C228.1,136.6,194.3,135,182.2,135z"/>
<g>
	<polygon class="st1" points="195.3,254.7 253.9,61.4 306.2,61.4 247.6,254.7 195.3,254.7 	"/>
	<path class="st1" d="M171.9,61.4l-47.1,82c-12,21.5-19,32.3-22.4,45.9h-0.7c0.8-17.2-1.6-38.3-1.8-50.2l-5.2-77.6H6.7l-0.9,5.2
		c22.6,0,36,11.4,39.7,34.6l17.2,153.5h54.2L226.5,61.4H171.9L171.9,61.4z"/>
	<path class="st1" d="M578.8,254.7l-1.4-28.8l-65.3-0.1l-13.4,28.8h-56.8l103-193h69.7l17.4,193H578.8L578.8,254.7z M572.8,140.7
		c-0.6-14.3-1.1-33.7-0.1-45.4h-0.8c-3.2,9.6-16.9,38.4-22.9,52.6l-19.5,42.4h45.9L572.8,140.7L572.8,140.7z"/>
	<path class="st1" d="M361.2,260.2c-36.9,0-61.5-11.7-79-22.2l24.9-38.1c15.7,8.8,28.1,18.9,56.4,18.9c9.1,0,17.9-2.4,22.9-11
		c7.3-12.6-1.7-19.3-22.1-30.9l-10.1-6.6c-30.3-20.7-43.4-40.4-29.1-74.7c9.1-22,33.2-38.6,72.9-38.6c27.4,0,53.1,11.8,68,23.4
		l-28.7,33.6c-14.6-11.8-26.7-17.8-40.6-17.8c-11,0-19.4,4.3-22.3,10c-5.5,10.8,1.8,18.2,17.7,28l12,7.6
		c36.8,23.2,45.6,47.5,36.3,70.3C424.7,251.5,393.6,260.2,361.2,260.2L361.2,260.2z"/>
	<path class="st2" d="M53.8,422.9c135.3-58,325.2-110.5,576.6-57.9l2.6-63.8c-265.3-29-455.6,55.5-579.2,115.4V422.9L53.8,422.9z"/>
</g>
</svg>
