<?xml version="1.0" standalone="no"?>
<!DOCTYPE svg PUBLIC "-//W3C//DTD SVG 20010904//EN"
 "http://www.w3.org/TR/2001/REC-SVG-20010904/DTD/svg10.dtd">
<svg version="1.0" xmlns="http://www.w3.org/2000/svg"
 width="303.000000pt" height="166.000000pt" viewBox="0 0 303.000000 166.000000"
 preserveAspectRatio="xMidYMid meet">
<metadata>
Created by potrace 1.14, written by Peter Selinger 2001-2017
</metadata>
<g transform="translate(0.000000,166.000000) scale(0.100000,-0.100000)"
fill="#000000" stroke="none">
<path d="M574 1323 c2 -10 39 -169 81 -353 42 -184 78 -343 81 -352 5 -16 19
-18 112 -18 l107 0 198 363 c108 199 197 366 197 370 0 4 -54 7 -120 7 l-120
0 -19 -37 c-43 -87 -169 -380 -173 -403 -2 -17 -10 -26 -25 -28 -20 -3 -21 1
-22 60 0 35 -10 141 -23 236 l-23 172 -128 0 c-117 0 -128 -1 -123 -17z"/>
<path d="M1470 1333 c0 -5 -27 -171 -58 -370 l-58 -363 123 0 c68 0 123 3 123
6 0 4 25 161 55 350 30 189 55 353 55 364 0 19 -6 20 -120 20 -66 0 -120 -3
-120 -7z"/>
<path d="M1949 1165 l91 -174 -159 -193 -158 -193 130 -3 c84 -2 134 1 143 9
7 6 41 53 76 105 61 91 98 120 98 75 0 -10 14 -58 31 -105 l32 -86 139 0 c77
0 138 3 136 8 -2 5 -179 350 -195 382 -2 3 58 79 133 170 74 90 138 168 140
172 3 4 -55 8 -128 8 l-133 0 -47 -75 c-27 -41 -48 -79 -48 -85 0 -5 -11 -10
-25 -10 -19 0 -25 5 -25 23 0 12 -10 50 -22 85 l-23 62 -138 0 -139 0 91 -175z"/>
</g>
</svg>
