<?xml version="1.0" encoding="utf-8"?>
<!-- Generator: Adobe Illustrator 22.1.0, SVG Export Plug-In . SVG Version: 6.00 Build 0)  -->
<svg version="1.1" id="Layer_1" xmlns="http://www.w3.org/2000/svg" xmlns:xlink="http://www.w3.org/1999/xlink" x="0px" y="0px"
	 viewBox="0 0 640 480" style="enable-background:new 0 0 640 480;" xml:space="preserve">
<style type="text/css">
	.st0{fill:#494849;}
</style>
<g>
	<path class="st0" d="M50.7,256.2c0.7-1.7,1.5-2.7,1.7-3.7c5.9-13.8,11.8-27.5,17.7-41.6c4.7-11.1,12.3-19.2,24.6-20.9
		c12.1-1.7,22.1,2,30.5,10.8c0.5,0.5,0.5,1,1,1.7c19.7-15.5,38.9-18.9,58.8-0.5c1-0.7,2.2-1.7,3.4-3c12.8-10.3,30.5-12.5,43.8-5.2
		c10.8,5.9,16.5,15.5,16.7,27.8c0.2,18,0.2,35.7,0,53.6c0,11.1-9.6,18-19.2,14c-6.9-2.7-8.6-8.9-8.6-15.5c0-15.2,0-30.3,0-45.5
		c0-8.1-4.4-13.3-12.3-14.8c-9.6-1.7-17.7,4.9-17.7,14.5c0,15.5,0,31,0,46.5c0,7.1-3.4,12.8-9.1,14.8c-10.1,3.4-18.7-3.4-18.7-14.8
		c0-15.2,0-30.5,0-45.7c0-11.3-9.3-18-20.2-14.5c-6.1,2-9.8,6.9-9.8,13.3c0,15,0,30,0,45.3c0,1.5,0,3.2-0.5,4.7
		c-1.5,8.9-7.1,13.3-15.7,12.5c-6.9-0.7-11.8-6.6-11.8-15c0-18,0-35.7,0-53.6c0-1,0-1.7,0-2.7c0-2.5-1-4.4-3.4-4.9
		c-2.5-0.5-4.4,0.5-5.4,3c-2,4.4-4.2,8.9-6.1,13.5c-6.6,14.3-13,28.5-19.7,42.8c-1.7,3.4-3.4,7.1-5.9,10.1c-6.6,9.1-19.7,9.6-26.8,1
		c-2.2-2.5-3.9-5.4-5.4-8.6c-10.3-22.1-20.7-44.5-31-66.9c-2.2-4.9-2.2-9.8,1.2-14.3s8.4-5.7,13.5-4.7c4.9,1,7.6,4.2,9.6,8.6
		c7.6,18,15.2,35.7,22.9,53.6C49.5,253.2,50,254.5,50.7,256.2z"/>
	<path class="st0" d="M294.7,266.5c1.5-4.4,3.2-8.9,4.7-13.3c6.4-18.2,12.8-36.6,18.9-54.8c1-3,2-5.7,5.7-6.6c4.9-1,7.9,0.7,9.6,5.9
		c7.6,21.9,15,43.5,22.6,65.4c0.2,1,0.7,2,1.5,3.9c0.7-1.7,1.2-3,1.7-3.9c7.6-21.9,15.2-43.8,22.9-65.7c1-3.2,2.5-5.9,6.4-6.1
		c5.2-0.2,8.4,3.7,6.9,8.4c-4.9,14.3-10.1,28.3-15.2,42.3c-4.7,12.8-9.1,25.6-13.8,38.4c-0.2,0.7-0.5,1.7-1,2.5
		c-1.7,3.9-4.4,6.1-7.9,5.9c-3.9-0.2-6.4-2.5-7.6-6.1c-4.7-13.3-9.1-26.6-13.8-39.6c-3-8.4-5.9-17-8.9-25.3c-0.5-1.2-1-2.2-1.7-4.2
		c-0.7,2.2-1.5,3.4-2,4.9c-7.4,21.2-14.8,42.5-22.4,63.7c-2.2,6.1-7.4,8.9-11.8,5.7c-2-1.5-3.7-4.2-4.4-6.9
		c-6.9-18.9-13.5-37.6-20.4-56.6c-2.7-7.9-5.7-15.5-8.4-23.4c-1-2.7-1.2-5.7,1.2-7.4c1.7-1.2,4.4-2,6.9-1.7c3.2,0.2,4.4,3.2,5.2,5.9
		c5.4,15.7,10.8,31.2,16.2,47c2.5,7.1,4.9,14.3,7.4,21.6C294,266.5,294.4,266.5,294.7,266.5z"/>
	<path class="st0" d="M466.1,273.9c-0.5,0.7-0.7,1.7-1.5,2.2c-12.8,14-34.4,18-51.6,9.6c-11.8-5.9-17.5-16-16-29.8
		c1.5-12.5,9.6-19.7,20.9-23.4c15-4.7,30-3.2,44.8,0c1.2,0.2,2.5,0.5,3.7,0.7c2.7-16-7.6-28.8-23.6-29.8c-9.3-0.5-18.4,0-27.1,3.9
		c-3.2,1.5-6.6,0-8.1-2.7c-1.5-3.2,0-6.6,3.7-8.1c15-6.1,30.5-7.1,45.7-2.5c13,3.9,19.9,13.5,22.1,26.8c0.5,3.7,0.7,7.4,0.7,11.1
		c0,16.5,0,33,0,49.4c0,4.9-2.5,7.6-6.4,7.6s-6.4-3-6.6-7.6c0-2.5,0-4.7,0-7.1C466.8,274.4,466.6,274.2,466.1,273.9z M440.3,238.7
		c-6.6,0.7-13,1.5-19.2,4.4c-6.6,3.4-10.3,8.6-10.3,16.5c0,7.6,3.4,13.3,10.1,16.5c3.4,1.7,7.1,2.5,10.8,3.2
		c21.4,3.2,37.4-11.6,35.9-33c-0.2-2-1-3-2.7-3.2C456.8,241.4,448.4,240,440.3,238.7z"/>
	<path class="st0" d="M565.7,245.6c0.2,20.2,18.9,35.7,38.4,32.5c8.1-1.5,15-4.7,21.4-10.1c1.5-1.2,3.9-2.5,5.7-2.2
		c1.7,0.2,3.9,2.2,4.4,3.9c0.5,1.7-0.5,4.4-1.7,5.9c-6.9,6.9-15,11.6-24.8,13.3c-23.1,4.7-45.5-7.4-53.6-29.3
		c-3.2-8.4-3.9-17-3-25.8c2-16,9.1-29,23.4-37.4c25.8-14.8,57.3,0.2,63,30c0.7,3.7,1.2,7.4,1.2,11.1c0.2,5.4-2.2,7.9-7.6,7.9
		c-20.9,0-41.8,0-62.7,0C568.4,245.6,566.9,245.6,565.7,245.6z M626.2,235.5c2-16.2-12.3-32.2-29-33c-16.2-0.7-32,15.7-31.2,33
		C585.9,235.5,606,235.5,626.2,235.5z"/>
	<path class="st0" d="M512.6,213.9c2.2-3,3.9-6.1,6.4-9.1c6.6-7.4,14.8-12.5,24.8-13.3c4.7-0.2,7.4,1.5,7.9,5.4
		c0.7,4.4-1.2,7.1-5.9,8.1c-2.2,0.5-4.7,1-6.9,1.5c-14.8,4.4-25.3,17.5-26.3,33.4c-0.7,13.8-0.5,27.3-0.7,41.1c0,4.9-3,7.6-7.6,7.4
		c-2.7-0.2-4.7-1.7-5.4-4.2c-0.5-1.5-0.7-3.2-0.7-4.7c0-26.6,0-53.1,0-79.4c0-1.2,0-2.7,0.5-3.9c1-3.4,3.9-5.4,6.9-5.2
		c3.4,0.5,6.1,3.2,6.1,6.9c0,5.2,0,10.6,0,15.7C512.3,213.9,512.6,213.9,512.6,213.9z"/>
</g>
</svg>
