<?xml version="1.0" encoding="utf-8"?>
<!-- Generator: Adobe Illustrator 19.1.1, SVG Export Plug-In . SVG Version: 6.00 Build 0)  -->
<svg version="1.1" id="Layer_2" xmlns="http://www.w3.org/2000/svg" xmlns:xlink="http://www.w3.org/1999/xlink" x="0px" y="0px"
	 viewBox="0 0 640 480" style="enable-background:new 0 0 640 480;" xml:space="preserve">
<style type="text/css">
	.st0{fill-rule:evenodd;clip-rule:evenodd;fill:#EC1C2E;}
</style>
<g>
	<path class="st0" d="M410.2,29.6c-41.3,9.1-72.4,46.1-72.4,90.5c0,1,0.2,2.1,0.3,3c65.3,14,98.3,58.4,98.3,116.9
		c0,65.7-53.4,119.1-118.6,119.1c-65.2,0-126.2-54.9-126.2-136.2c0-99.3,84.5-192.4,204.8-195.4c2.2,0,5.6,0,9.1,0.2
		C379,17.6,350.1,12,320,12C190.8,12,86.1,114.1,86.1,240S190.8,468,320,468c129.1,0,233.9-102.1,233.9-228
		C553.9,145.2,494.6,64,410.2,29.6L410.2,29.6z"/>
</g>
</svg>
