<?xml version="1.0" encoding="utf-8"?>
<!-- Generator: Adobe Illustrator 22.1.0, SVG Export Plug-In . SVG Version: 6.00 Build 0)  -->
<svg version="1.1" id="Layer_1" xmlns="http://www.w3.org/2000/svg" xmlns:xlink="http://www.w3.org/1999/xlink" x="0px" y="0px"
	 viewBox="0 0 1920 1080" style="enable-background:new 0 0 1920 1080;" xml:space="preserve">
<style type="text/css">
	.st0{fill:url(#SVGID_1_);}
	.st1{fill:#FFFFFF;}
	.st2{fill:#363639;}
	.st3{fill:url(#SVGID_2_);}
</style>
<path d="M1748.4,367.3L1748.4,367.3c18.7,64.2,26.7,131,26.7,200.6c0,72.2-10.7,141.7-26.7,208.6H167.8v-2.7h1577.9
	c18.7-66.9,26.7-136.4,26.7-208.6C1772.5,495.7,1764.5,428.8,1748.4,367.3z"/>
<radialGradient id="SVGID_1_" cx="212.4792" cy="670.7178" r="1032.2085" gradientTransform="matrix(1 0 0 -1 0 1082)" gradientUnits="userSpaceOnUse">
	<stop  offset="0" style="stop-color:#0071BC"/>
	<stop  offset="8.220001e-02" style="stop-color:#0069AF"/>
	<stop  offset="0.1658" style="stop-color:#0064A7"/>
	<stop  offset="0.2416" style="stop-color:#0063A5"/>
	<stop  offset="0.3915" style="stop-color:#005D9B"/>
	<stop  offset="0.6854" style="stop-color:#004C82"/>
	<stop  offset="0.8371" style="stop-color:#004274"/>
	<stop  offset="0.9335" style="stop-color:#004274"/>
	<stop  offset="0.9682" style="stop-color:#004073"/>
	<stop  offset="0.9929" style="stop-color:#003D71"/>
	<stop  offset="1" style="stop-color:#003B70"/>
</radialGradient>
<path class="st0" d="M165.2,364.6h1583.3c16,64.2,24.1,131,24.1,200.6c0,72.2-8,141.7-26.7,208.6H167.8
	c-18.7-66.9-29.4-136.4-29.4-208.6C138.4,495.7,149.1,428.8,165.2,364.6z"/>
<g>
	<path class="st1" d="M1529.2,668c-71.4,0-129.5-43.7-129.5-97.4c0-53.7,58.1-97.4,129.5-97.4c72.8,0,132.2,43.7,132.2,97.4
		C1661.3,624.3,1602,668,1529.2,668L1529.2,668z M1529.2,502.2c-25.7,0-44.3,28.8-44.3,68.3c0,37.5,19.1,65.7,44.3,65.7
		c24,0,44.3-30.1,44.3-65.7C1573.5,532.9,1553.6,502.2,1529.2,502.2L1529.2,502.2z M716.1,668c-71.4,0-129.5-43.7-129.5-97.4
		c0-51.4,59.3-94.8,129.5-94.8c72.8,0,132.2,42.5,132.2,94.8C848.3,624.3,788.9,668,716.1,668L716.1,668z M716.1,504.9
		c-25.3,0-44.3,28.2-44.3,65.7c0,37.5,19.1,65.7,44.3,65.7c24,0,44.3-30.1,44.3-65.7C760.4,534.9,740.2,504.9,716.1,504.9
		L716.1,504.9z M1291.8,662.6h-0.7h-99l-83.8-155.7l-41.8,0.6l-1.2-25.2l183-1.2l1.2,25.2l-46.7,1.1l65.2,108l54.2-109.7l-31,1.7
		l-1.2-25.2l126.8-1.2l1.2,25.2l-43.9,1.1L1292.1,662L1291.8,662.6L1291.8,662.6z M1113.1,662.6h-1.2H900.6h-42.8l-1.1-30.5
		l43.9-1.1l-1.2-124.6l-41.7,1.1l-1.1-25.2l169.6-1.2l1.2,25.2l-43.9,1.1l1.2,124.6l44.3-1.1c14.4,0,52.3-9.4,55-52.4l27.9-1.1
		l1.2,84V662.6L1113.1,662.6z M478.8,662.6h-0.7h-99l-83.8-155.7l-41.8,0.6l-1.1-25.2l183-1.2l1.1,25.2l-46.6,1.2l65.2,108
		l56.8-109.7l-33.8,1.7l-1.2-25.2l126.9-1.2l1.1,25.2l-44,1.1L479.1,662L478.8,662.6L478.8,662.6z"/>
	<path class="st2" d="M1529.1,474.3c72.2,0,131,42.8,131,96.3c0,53.5-58.8,96.3-131,96.3c-69.5,0-128.4-42.8-128.4-96.3
		C1400.8,517.1,1459.6,474.3,1529.1,474.3 M1529.1,637.4c24.1,0,45.5-29.4,45.5-66.9c0-40.1-21.4-69.5-45.5-69.5
		c-26.7,0-45.5,29.4-45.5,69.5C1483.7,608,1502.4,637.4,1529.1,637.4 M716.1,477c72.2,0,131,42.8,131,93.6
		c0,53.5-58.8,96.3-131,96.3c-69.5,0-128.4-42.8-128.4-96.3C587.7,519.7,646.6,477,716.1,477 M716.1,637.4
		c24.1,0,45.5-29.4,45.5-66.9s-21.4-66.9-45.5-66.9c-26.7,0-45.5,29.4-45.5,66.9S689.3,637.4,716.1,637.4 M1416.8,482.3v24.1H1374
		l-82.9,155.1h-99l-82.9-155.1h-42.8v-24.1h181.9v24.1h-45.5L1267,616l56.2-109.7h-32.1v-24.1H1416.8 M1026.3,482.3v24.1h-42.8
		v125.7c0,0,29.4,0,45.5,0c16,0,53.5-10.7,56.2-53.5c21.4,0,26.7,0,26.7,0v82.9H900.6h-42.8v-29.4h42.8V506.4h-42.8v-24.1
		L1026.3,482.3 M603.8,482.3v24.1H561l-82.9,155.1h-99l-82.9-155.1h-42.8v-24.1h181.9v24.1h-45.5L454,616l58.8-109.7h-34.8v-24.1
		L603.8,482.3 M1529.1,472.1c-72,0-130.6,44.2-130.6,98.5s58.6,98.5,130.6,98.5c73.5,0,133.3-44.2,133.3-98.5
		S1602.6,472.1,1529.1,472.1L1529.1,472.1z M1529.1,635.2c-24.7,0-43.2-27.8-43.2-64.6c0-39,18.2-67.3,43.2-67.3
		c23.8,0,43.2,30.2,43.2,67.3C1572.4,605.6,1552.6,635.2,1529.1,635.2L1529.1,635.2z M716.1,474.7c-70.8,0-130.6,43.9-130.6,95.8
		c0,54.3,58.6,98.5,130.6,98.5c73.5,0,133.3-44.2,133.3-98.5C849.4,517.7,789.6,474.7,716.1,474.7L716.1,474.7z M716.1,635.2
		c-24.7,0-43.2-27.8-43.2-64.6s18.6-64.6,43.2-64.6c23.4,0,43.2,29.6,43.2,64.6C759.3,605.6,739.5,635.2,716.1,635.2L716.1,635.2z
		 M1419,480.1h-2.2h-125.7h-2.2v2.2v24.1v2.2h2.2h28.5l-52.6,102.8l-60.2-102.8h41.6h2.2v-2.2v-24.1v-2.2h-2.2h-181.9h-2.2v2.2v24.1
		v2.2h2.2h41.5l82.3,153.9l0.6,1.2h1.3h99h1.3l0.6-1.2l82.3-153.9h41.5h2.2v-2.2v-24.1L1419,480.1L1419,480.1z M1028.6,480.1h-2.2
		H857.8h-2.2v2.2v24.1v2.2h2.2h40.6v121.2h-40.6h-2.2v2.2v29.4v2.2h2.2h42.8h211.3h2.2v-2.2v-82.9v-2.2h-2.2h-26.7h-2.1l-0.1,2.1
		c-2.6,42.2-39.9,51.4-54,51.4h-43.2V508.6h40.6h2.2v-2.2v-24.1V480.1L1028.6,480.1z M606,480.1h-2.2H478.1h-2.2v2.2v24.1v2.2h2.2
		h31.1l-55.2,102.9l-60.2-102.9h41.6h2.2v-2.2v-24.1v-2.2h-2.2H253.4h-2.2v2.2v24.1v2.2h2.2h41.5l82.3,153.9l0.6,1.2h1.3h99h1.3
		l0.6-1.2l82.3-153.9h41.5h2.2v-2.2v-24.1L606,480.1L606,480.1z"/>
</g>
<linearGradient id="SVGID_2_" gradientUnits="userSpaceOnUse" x1="357.0374" y1="842.4142" x2="598.4996" y2="515.8265" gradientTransform="matrix(1 0 0 -1 0 1082)">
	<stop  offset="0" style="stop-color:#FFFFFF"/>
	<stop  offset="0.1091" style="stop-color:#D3DFF2"/>
	<stop  offset="0.3376" style="stop-color:#89AEDC"/>
	<stop  offset="0.5419" style="stop-color:#4E90CD"/>
	<stop  offset="0.7143" style="stop-color:#007EC3"/>
	<stop  offset="0.8481" style="stop-color:#0075BD"/>
	<stop  offset="0.927" style="stop-color:#0071BC"/>
	<stop  offset="0.9468" style="stop-color:#007AC0"/>
	<stop  offset="0.9667" style="stop-color:#3681C3"/>
	<stop  offset="0.985" style="stop-color:#4985C6"/>
	<stop  offset="1" style="stop-color:#5087C7"/>
</linearGradient>
<path class="st3" d="M168.1,367.7c-16,64.2-26.7,131-26.7,200.6c0,5.8,2,39.8,2.1,45.5l4.6,51.7c-0.1-4.2-2.1-88.4-2.1-92.6
	c0-69.5,11.6-134,27.6-198.2l560.3-2.3l241.8-4.6L168.1,367.7L168.1,367.7z"/>
</svg>
