<?xml version="1.0" encoding="utf-8"?>
<!-- Generator: Adobe Illustrator 19.1.1, SVG Export Plug-In . SVG Version: 6.00 Build 0)  -->
<svg version="1.1" id="Layer_2" xmlns="http://www.w3.org/2000/svg" xmlns:xlink="http://www.w3.org/1999/xlink" x="0px" y="0px"
	 viewBox="0 0 640 480" style="enable-background:new 0 0 640 480;" xml:space="preserve">
<style type="text/css">
	.st0{fill:#004181;}
</style>
<path class="st0" d="M325.5,11C198.2,11,95,114.2,95,241.5C95,368.8,198.2,472,325.5,472C452.8,472,556,368.8,556,241.5
	C556,114.2,452.8,11,325.5,11z M325.5,451.3c-115.9,0-209.8-93.9-209.8-209.8c0-115.9,93.9-209.8,209.8-209.8
	c115.9,0,209.8,93.9,209.8,209.8C535.3,357.4,441.4,451.3,325.5,451.3z"/>
<path class="st0" d="M277,81.7c15-4.4,30.8-6.7,47.2-6.7c16.4,0,32.2,2.3,47.1,6.7l-47.1,104.5L277,81.7z"/>
<path class="st0" d="M414.2,101.2c17.7,11.3,33.1,25.8,45.4,42.6L382.3,315l-29.8-66.4h-56.5L266.1,315l-77.2-171.3
	c12.3-16.8,27.7-31.2,45.3-42.5l61.8,137h56.7L414.2,101.2z"/>
<path class="st0" d="M162.1,199.3c-3.7,13.8-5.7,28.4-5.7,43.4c0,65.7,37.8,122.6,92.9,150.1L162.1,199.3z"/>
<path class="st0" d="M277.8,403.9c14.7,4.2,30.3,6.5,46.4,6.5c16.1,0,31.6-2.3,46.3-6.5L324.2,301L277.8,403.9z"/>
<path class="st0" d="M399.1,392.8c55-27.5,92.9-84.4,92.9-150.1c0-14.9-1.9-29.3-5.6-43L399.1,392.8z"/>
</svg>
