<?xml version="1.0" encoding="utf-8"?>
<!-- Generator: Adobe Illustrator 22.1.0, SVG Export Plug-In . SVG Version: 6.00 Build 0)  -->
<svg version="1.1" id="Layer_1" xmlns="http://www.w3.org/2000/svg" xmlns:xlink="http://www.w3.org/1999/xlink" x="0px" y="0px"
	 viewBox="0 0 1920 1080" style="enable-background:new 0 0 1920 1080;" xml:space="preserve">
<style type="text/css">
	.st0{fill:#E2161E;}
	.st1{fill:#373737;}
</style>
<g>
	<path class="st0" d="M539.5,688.2c6.7-17.5,13.9-34.1,19.5-51.2c17.6-53.6,34.6-107.4,51.9-161c8.7-27,20.7-35.7,49.3-35.8
		c34.5-0.1,68.9,0,101.2,0c-9.7,32.5-19.5,64.4-28.9,96.5c-11.2,38.2-21.8,76.5-33,114.6c-7.3,24.9-23.6,36.9-49.3,36.9
		C612.9,688.3,575.5,688.2,539.5,688.2z"/>
	<path class="st0" d="M163.7,440.5c36.9,0,73.9-0.1,110.9,0c22.1,0.1,33.8,13.5,40.1,33c14.7,45.6,29.1,91.2,44.1,136.7
		c8.5,26,17.9,51.7,27.1,78c-14.4,0-31.7,0-49,0c-18.7,0-37.4,0-56.2,0c-32.4,0-46.3-10.6-55.3-41.9
		c-16.5-57.3-32.9-114.7-49.6-171.9C172.5,463.2,168,452.5,163.7,440.5z"/>
	<path class="st0" d="M398.6,442.3c43.8,0,86.3,0,129.9,0c0,81.9,0,163.3,0,245.3c-43.2,0-86.1,0-129.9,0
		C398.6,606.1,398.6,524.7,398.6,442.3z"/>
	<path class="st1" d="M931.9,649c19.1,3.9,36.7,8.6,54.5,10.8c9.6,1.2,20.2-0.6,29.6-3.4c4.7-1.4,10.3-7.9,10.9-12.6
		c0.5-3.8-4.9-10.5-9.3-12.5c-13.5-6.3-27.8-10.5-41.6-16.3c-9.3-3.9-18.7-8-26.9-13.7c-22.8-15.9-23.5-48.7,0-63.5
		c12.9-8.1,29-13.8,44-14.8c24-1.7,48.4,1.4,73.1,2.5c0,12.2,0,21.8,0,32c-15.4-2.3-30.7-5.1-46.1-6.6c-7.5-0.8-15.8-0.6-22.7,1.8
		c-5.3,1.9-12.2,7.8-12.6,12.4c-0.4,4.3,5.9,11.2,10.9,13.6c12.4,5.8,25.8,9.3,38.6,14.3c9.8,3.8,19.8,7.6,28.6,13.1
		c22.2,14,24.7,40.2,6.8,59.5c-20.3,21.8-47,24.1-74.1,23.4c-16.9-0.5-33.8-3.8-50.7-5.3c-9.7-0.9-14.8-4.5-13.3-15.2
		C932.6,662.4,931.9,656.2,931.9,649z"/>
	<path class="st1" d="M1764.5,652.9c3.1,28.5,3.3,30.3-24.6,32.8c-23.5,2.1-47.9,2.3-71-1.7c-33.2-5.8-63.5-37.2-59.7-89.2
		c2.5-33.9,30.9-63.6,68.6-70.2c28.3-5,56.3-2.9,84.8,3.5c0,10.6,0,21.1,0,31.7c-12.9-2.3-25.5-4.7-38.2-6.9
		c-30.6-5.3-55.9,13.2-58.8,43c-3.6,36.7,15.9,62.6,49.2,62.8C1731,658.6,1747.4,655,1764.5,652.9z"/>
	<path class="st1" d="M1206,657.9c0,7.5,0.4,14.7-0.2,21.8c-0.2,2.1-2.6,5.4-4.6,5.8c-23.3,5-46.6,6.2-68.8-4.5
		c-18.7-9-23.3-25.9-23.5-44.6c-0.3-26-0.1-52-0.1-78.1c0-0.8-0.3-1.6-0.7-3.9c-5.9,0-12.1,0-19,0c0-10.3,0-19,0-28.8
		c6.2-0.4,12.1-0.7,19.2-1.2c0.4-8.3,0.8-16.6,1.3-25.9c17.2-1.7,34-3.4,51.9-5.3c0,10.5,0,20.1,0,31.4c13.8,0,26.5,0,40,0
		c0,10.4,0,19.1,0,28.9c-12.7,0-25.1,0-39.4,0c0,16.3,0,31.6,0,46.8c0,11-0.1,22,0.1,32.9c0.5,18.1,8.2,25.5,26.4,25.6
		C1193.8,658.9,1199,658.3,1206,657.9z"/>
	<path class="st1" d="M1413.8,591.5c-3.6-50.9-44.4-80.7-93.5-66.6c-14.2,4.1-26.6,14.5-40,22.1c0-5.7,0-13.2,0-21.5
		c-17.6,0-34,0-51.3,0c0,73,0,144.4,0,216.5c17.1,0,33.6,0,51.5,0c0-23.6,0-46.5,0-71c5.5,3.3,9.1,5.6,12.8,7.8
		c29.3,17.7,85.7,15.1,108.3-27.5C1411.6,632.5,1415.3,612.5,1413.8,591.5z M1346.9,644.7c-13.7,22.9-52.3,17.1-64.4-2.7
		c-4.8-7.9-2.1-20.5-2.8-30.9c0.2,0,0.4,0,0.7,0c0-4.5,0-8.9,0-13.4c0-24.1,23.8-43.5,47.8-39.8c13.8,2.2,22,10.6,25.9,22.7
		C1361.3,602.8,1359.1,624.3,1346.9,644.7z"/>
	<path class="st1" d="M1604.5,671.8c-0.2-4-0.4-7.9-0.5-11.7c-19.6-2.2-20.6-3.4-20.6-22.9c0-21.6,0.4-43.1-0.1-64.7
		c-0.6-26.2-9.9-38.4-35.3-45.5c-34.6-9.7-69-5.8-102.8,4.4c-2.6,0.8-5.8,4.5-6.1,7.2c-0.8,7.9-0.3,16-0.3,25.1c3.6-1.1,5.8-2,8-2.5
		c17.7-3.8,35.2-8.5,53-11c7.5-1,16.3,1.4,23.3,4.8c11,5.3,10.9,16.8,8.9,26.7c-0.5,2.7-9.3,4.5-14.5,5.4
		c-6.8,1.1-14.1-0.4-20.6,1.2c-17,4.3-35,7.3-50.4,15.1c-20.8,10.6-28,31.4-22.4,51.6c4.8,17.6,24.4,31.4,45.1,33.4
		c24.7,2.4,46.4-3.9,65.2-20.1c11,23.7,45.9,24.5,70.5,15.3C1604.8,679.8,1604.6,675.8,1604.5,671.8z M1532.1,630.2
		c4.8,17-7.9,20.5-18.6,24.8c-14.2,5.8-28.9,3.4-35.8-4.8c-7.1-8.4-5.4-20.4,4.4-27.3c13.7-9.7,29.6-10.3,45.2-8.8
		c3.1,0.3,5.3,10.1,8,15.5C1534.1,629.9,1533.1,630.1,1532.1,630.2z"/>
	<path class="st1" d="M913.1,599.6c-3.9-37.3-11.5-62.8-49.9-73.2c-17.7-4.8-37.9-4.1-56.3-1.4c-35.8,5.2-62.5,35.7-64.8,68.9
		c-3.3,47.8,21,78.5,57.4,89c37.7,10.9,75.2,6.1,112.9-2.9c0-11.2,0-20.7,0-30.9c-2.4,0.6-4,0.9-5.5,1.3c-23.7,5.5-47.2,11.3-72,6.1
		c-22.4-4.6-36.8-20.4-36-42.3c37.9,0,75.9,0,114.2,0C913.2,608.5,913.6,604,913.1,599.6z M796.8,587.8
		c4.3-25.3,16.9-38.6,35.3-37.8c18.4,0.9,27.4,12.4,28.6,37.8C838.8,587.8,817.8,587.8,796.8,587.8z"/>
</g>
</svg>
