<?xml version="1.0" encoding="utf-8"?>
<!-- Generator: Adobe Illustrator 22.1.0, SVG Export Plug-In . SVG Version: 6.00 Build 0)  -->
<svg version="1.1" id="Layer_1" xmlns="http://www.w3.org/2000/svg" xmlns:xlink="http://www.w3.org/1999/xlink" x="0px" y="0px"
	 viewBox="0 0 640 480" style="enable-background:new 0 0 640 480;" xml:space="preserve">
<style type="text/css">
	.st0{fill:#FAB72D;}
	.st1{fill:#D01B35;}
</style>
<g>
	<rect x="122.3" y="143.4" class="st0" width="417.6" height="246.4"/>
	<g>
		<g>
			<path class="st1" d="M559.5,240.8c0,43.8,0.4,87.5,0,130.9c-0.8,40.7-17,73.2-53.2,93.9c-17,9.8-35.8,13.6-55.1,14
				c-87.5,0.4-174.7,0.8-262.2,0c-42.3-0.4-76.2-18.1-96.6-57c-8.3-15.5-11.7-32.4-11.7-49.8c-0.4-88.7-0.8-176.9,0-265.6
				C81.1,54,113.2,16.3,158.9,4.6C169,1.9,180,0.4,190.5,0.4c86.8-0.4,173.9-0.8,260.7,0c39.6,0.4,71.7,16.2,92.8,51.3
				c10.6,17.4,14.7,36.6,14.7,56.6C559.9,152.5,559.5,196.6,559.5,240.8z M122.3,197c15.1,1.9,19.6,5.7,25.7,20
				c0.4,0.8,0.8,1.5,0.8,2.3c11.3,28.3,22.6,56.6,34.3,84.9c2.6,6,3.8,14.7,8.7,17.7c4.9,3,13.2,0.8,20,1.1c4.5,0.4,6.4-1.5,7.9-5.7
				c8.7-22.3,17.4-44.1,26-66c0.8-1.9,1.5-3.4,2.6-6c8.7,20.4,16.6,40,24.9,59.2c2.6,6,4.1,14.7,8.7,17.7c4.9,3,13.2,0.8,20,1.1
				c3.8,0.4,5.7-1.1,6.8-4.9c6.8-18.1,13.6-36.2,20.4-54.3c6.8-17.7,13.6-35.5,20.4-53.2c2.6-6.8,7.2-12.4,15.1-12.8
				c7.5-0.4,15.1-0.4,22.6,0c6.8,0.4,9.8,3,9.8,9.8c0.4,29.4,0.4,58.9,0,88.7c0,7.2-2.6,9.4-9.8,10.2c-4.5,0.4-9.4,0.4-14,0.8
				c0,5.7,0,10.2,0,15.1c29.4,0,58.5,0,87.5,0c0-5.3,0-9.8,0-15.5c-7.9,0-15.5,0-23,0c-3.8,0-7.2-1.9-7.2-5.7
				c-0.4-14.3,0-28.7,0-43.8c6.8,0.4,13.6,0.4,20,1.1c5.3,0.8,8.7,4.1,9.8,9.4c0.8,4.5,0.8,9.4,1.5,14.3c0.4,1.5,1.5,3.8,3,4.1
				c3.4,0.4,6.8,0.4,10.6,0.4c0-23.8,0-46.8,0-69.8c-4.5,0-8.7,0-12.8,0c-0.4,4.5-0.4,8.7-1.1,12.8c-0.8,5.3-3,9.8-9.1,10.6
				c-7.2,0.8-14.7,0.8-21.9,1.5c0-14.7,0-28.3,0-41.1c17.7,0,35.1-0.4,52.4,0c9.4,0.4,15.5,6.4,17.4,15.5c1.5,6.8,2.6,13.6,3.8,20.4
				c4.9,0,10.2,0,15.1,0c0-18.1,0-35.8,0-53.6c-71.7,0-143,0-214.3,0c0,5.3,0,10.2,0,15.5c2.3,0,4.5,0,6.4,0
				c15.8,0,18.5,3.8,12.8,18.9c-8.3,21.5-16.6,42.6-24.9,64.1c-0.8,1.9-1.5,3.4-2.6,6c-1.1-1.9-1.5-2.6-1.9-3.8
				c-3.4-8.7-6.4-17.7-9.8-26.4c-6-15.5-12.4-30.9-18.5-46.8c-3.4-8.7-1.1-12.1,7.9-12.1c4.1,0,8.3,0,12.1,0c0-5.7,0-10.6,0-15.5
				c-25.7,0-50.6,0-75.8,0c0,5.3,0,10.2,0,15.5c4.5,0,8.7-0.4,12.8,0c10.6,1.1,16.2,11.3,12.4,21.1c-8.3,20.7-16.6,41.5-25.3,61.9
				c-0.8,1.5-1.5,3-3,5.7c-2.6-7.5-4.9-13.6-7.2-19.6c-7.2-18.5-14.7-37-22.3-55.5c-3.8-9.8-1.5-13.6,9.4-14c2.3,0,4.5,0,6.8,0
				c0-5.7,0-10.6,0-15.5c-24.1,0-47.9,0-72.1,0C122.3,187.2,122.3,192.1,122.3,197z"/>
		</g>
	</g>
</g>
</svg>
