<?xml version="1.0" encoding="utf-8"?>
<!-- Generator: Adobe Illustrator 22.1.0, SVG Export Plug-In . SVG Version: 6.00 Build 0)  -->
<svg version="1.1" id="Layer_2_1_" xmlns="http://www.w3.org/2000/svg" xmlns:xlink="http://www.w3.org/1999/xlink" x="0px" y="0px"
	 viewBox="0 0 640 480" style="enable-background:new 0 0 640 480;" xml:space="preserve">
<style type="text/css">
	.st0{fill:#257F44;}
</style>
<path class="st0" d="M320.2,63.3c25,35.2,49.2,69.3,73.3,103.4c7.7,10.9,14.9,22.2,22.6,33c15.6,21.8,13,43.4-0.8,64.4
	c-10.5,16.1-21.9,31.5-32.8,47.4c-14.8,21.7-29.6,43.4-44.2,65.2c-2.5,3.8-4.8,7.9-6.3,12.3c-4.3,11.1,3.5,20.4,15.5,18.7
	c8.1-1.2,13.3-6.5,17.6-12.9c25.4-38.3,50.8-76.5,76.3-114.7c34.1-51.2,67.9-102.4,102.3-153.5C554.9,110,561,92.8,556,72.2
	c4.9,6.9,9.7,13.7,14.5,20.6c20.3,29.9,41.1,59.7,60.6,90.2c11.4,17.9,12.3,37.1-0.2,55.6c-9.4,13.9-19,27.6-28.5,41.5
	c-24.4,36-49,71.9-73,108.2c-12.9,19.5-29.5,28.8-53.4,28.4c-51.5-1.1-103.1-0.2-154.6-0.2c-52.3,0-104.6-0.6-156.8,0.3
	c-24.1,0.4-41.6-8.4-54.1-28.6c-5.1-8.3-10.6-16.3-16.1-24.3c-28.3-41.4-56.5-82.7-84.8-123.9C-2.9,221.6-3,202.5,8.1,184.3
	C21.9,161.6,37.2,139.9,52,118c9.1-13.5,18.5-26.8,27.8-40.1c1.4-1.9,2.9-3.8,4.8-5.5c-6.2,21,0.8,38.3,12.3,55.5
	c58.5,87.4,116.6,175.1,175.1,262.7c3.6,5.4,7.9,10.5,12.9,14.5c5.4,4.4,12.3,4.6,18.4,0.7c5.2-3.2,8.5-7.6,5.3-14.1
	c-3.8-7.5-7.3-15.3-12.1-22.3c-23.2-34.2-46.7-68.3-70.4-102.1c-9.3-13.3-14.7-27.8-12.3-43.8c1.3-8.5,5.7-17,10.6-24.3
	c21.1-31,42.8-61.5,64.3-92.1C299,92.7,309.2,78.6,320.2,63.3z"/>
</svg>
