<?xml version="1.0" encoding="utf-8"?>
<!-- Generator: Adobe Illustrator 20.1.0, SVG Export Plug-In . SVG Version: 6.00 Build 0)  -->
<svg version="1.1" id="Layer_1" xmlns="http://www.w3.org/2000/svg" xmlns:xlink="http://www.w3.org/1999/xlink" x="0px" y="0px"
	 viewBox="0 0 640 480" style="enable-background:new 0 0 640 480;" xml:space="preserve">
<style type="text/css">
	.st0{fill:#CD1141;}
	.st1{fill:#FCB827;}
</style>
<g>
	<rect x="82.9" y="5.4" class="st0" width="473.6" height="470"/>
	<g>
		<g>
			<g>
				<g>
					<path class="st1" d="M382.8,222.6v-7.7h1c6,0,8.6-0.6,8.6-6.4l-0.1-40.2c0-5.8-2.8-6.4-8.6-6.4h-4.4v-7.7h41.3v7.7l-4.9,0.1
						c-6.7,0-7.8,0.6-7.8,6.3v46.2h16.6c8.1,0,12.9-1,15.1-5.1c2-3.6,2.9-7.7,2.9-14.4c1.1,0,8,0,8,0v27.5H382.8 M306.3,222.6v-7.7
						h3.9c5.9,0,8.5-0.6,8.5-6.4l-0.1-40.2c0-5.8-3.5-6.4-9.3-6.4h-3.6v-7.7H347v7.7l-4.9,0.1c-6.6,0-7.8,0.6-7.8,6.3v46.2h16.7
						c8.1,0,12.9-1,15.1-5.1c2-3.6,2.9-7.7,2.9-14.4c1.3,0,8,0,8,0v27.5H306.3z M225.1,222.6v-7.7l4-0.1c6,0,9.3-0.6,9.3-6.3
						c0-40.2,0,0,0-40.4c0-5.6-3.3-6.3-9.3-6.3h-4v-7.7c73.8,0,0,0,73.8,0v26.5h-7.8c-0.4-15.9-4.2-18.4-18.1-18.4h-19.1v20.3h4.9
						c8.7,0,9.9-2.9,10.6-13.2h7.9v34.6h-8c-0.6-11.7-1.7-13.4-10.3-13.4h-5.1v23.8h22c12.5,0,15.4-5.9,16.5-19.5h7.8v27.5H225.1z
						 M228.1,161.9c-5.6,0-7.5,2.2-9.9,8.4l-19.6,52.3h-12.3l-15.6-37.9l-14.9,37.9h-12.7l-20.4-51.4c-2.3-5.9-5.8-9.3-10.8-9.3
						h-1.6v-7.7H145v7.7h-3.4c-3.9,0-5.6,1-5.5,3.2c0,0.4-0.1,1.2,0.3,2.2c0,0,8,18.8,14.3,37.3c0.7,0.1,0.9,0.1,0.9,0.1l13.6-34.2
						c-0.6-5.6-2.5-8.6-8.4-8.6h-4.6v-7.7h36.6v7.7H183c-3.5,0-4.8,0.8-4.8,2.8c0,0.8,0.1,1.9,0.6,2.9c0,0,8.2,19.9,14.3,37.2
						c0.8,0,0.8,0,0.8,0l13.2-34.6c0.9-2.3,0.9-4,0.9-5.2c0-2.2-1.9-3.1-5.8-3.1h-4.8v-7.7h33.3v7.7H228.1z"/>
					<path class="st1" d="M520.5,202.6c0,15.7-12.3,21.3-30.5,21.3c-11,0-21.6-6.2-23.9-8.4l-2.3,7.1h-7v-27.5h8
						c2.2,13.1,11,18.8,23.5,19.4c10.8,0.5,18.5-2.4,19.3-9.9c1-8.7-8.5-8.1-16.5-9.5l-11.8-2.2c-17.5-3.1-23.2-8.1-23.6-19.6
						c-0.5-12.5,10.8-20.6,26.1-20.7c7.4,0,16.9,1.2,24.3,7.1l3.5-5.6h6.1V178H508c-1.7-13.2-14.7-17.3-25.9-17
						c-8.1,0.3-13.5,4.9-13.5,10.4c0,5.1,5.1,5.8,11.5,6.9l14.3,2.5c14.6,2.4,26,5.4,26,21.7V202.6"/>
					<path class="st1" d="M192.6,283.2c0-5.3-0.9-9.9-2.7-13.7c-2.3-4-7.1-4.7-15.2-4.7h-17.1v20.4h5.4c8.7,0,10-1.6,10-12.2h6.3
						v34.2l-6.5-0.1c-0.1-11.4-1.3-13.8-9.9-13.8h-5.4v17.8c0,5.7,0.9,6.2,6.8,6.2h8v7.7h-42.1v-7.7l3.9-0.1c5.9,0,8-0.6,8-6.3
						c0-40.2,0,0,0-40.4c0-5.6-2-6.3-8-6.3h-3.9v-7.7c70.3,0,0,0,70.3,0v26.4H192.6"/>
					<path class="st1" d="M233.1,325.1v-7.7h7.4c3.9,0,5.8-0.4,5.8-2.8c0-0.8-0.5-2-1-3.3l-2.9-8h-26.7l-3.5,8.6
						c-0.6,1.3-0.9,2.3-0.9,3.2c0,2.2,1.8,2.3,5.5,2.3h7.1v7.7h-35.7v-7.7h3.1c5.4,0,7-1.9,9-6.7l22.9-54h16.8l21.9,54
						c2,5.2,4.2,6.7,8.1,6.7h3.3v7.7H233.1 M229.3,269.1L219,295.3h20.7L229.3,269.1z"/>
					<path class="st1" d="M350.6,309.2c0,12.5-5.8,17.4-14,17.4c-9.4,0-15.5-2.6-16-12l-0.3-7.9c-0.4-11.5-4.1-13.8-15.9-13.8h-7
						v18.4c0,5.7,0.9,6.2,6.8,6.2h6.2v7.7h-41.7v-7.7h6.1c3.9,0,7.2-1.4,7.2-6.4v-40.4c0-5.6-0.9-6.3-6.8-6.3h-5.6v-7.7h47
						c17.6,0,25.7,5.2,25.7,16.2c0,9.9-7.7,15.9-20.7,17.7c12.2,2.9,13.8,7.2,14.5,16.5c0.1,0.9,0,2.8,0,4.2c0.3,4,1.9,5.9,3.9,5.8
						c4.2-0.3,4.5-3.3,4.2-11.5h6.5c0.1,1.2,0.1,2.4,0.1,3.5H350.6 M326.4,274.9c0-7.9-4.6-10.3-14.3-10.3h-14.6v20.7l14.9-0.1
						c9.6,0,14.1-3.1,14.1-10.1V274.9z"/>
					<path class="st1" d="M411.5,278.7c-3.3-10.2-10.1-15-21.4-15c-11.1,0-20,9.1-19.9,26.5c0,17.7,7.1,27.2,19.9,27.4
						c9.3,0,17.5-4.6,17.5-12.5v-3.8c0-4.6-1.1-4.6-7.7-4.6h-3.4v-7.8h31.8v7.8h-2.6c-4.9,0-5.7-0.5-5.7,5.4v22.9h-5.6l-3.6-5.7
						c-6.2,4.9-15.2,7.2-23.2,7.2c-9.4,0-17.4-3.3-23.7-9.7c-6.7-6.8-10.6-15.9-10.4-26.7c0-10.6,3.5-19,10.3-25.8
						c5.9-5.8,14.9-9.1,24.2-9c7.7,0,16.6,2,21.7,7.4l3.5-7.1h5.4v22.9L411.5,278.7"/>
					<path class="st1" d="M474,326.4c-22.7,0-40.3-14.2-40.3-35.7c0-21.4,17.6-35.4,40.2-35.4c22.7,0,39.9,14,39.9,35.6
						C513.8,312.2,496.6,326.4,474,326.4 M497,290.9c0-18-9.8-27.3-23.3-27.3c-13.3,0-23.4,9.4-23.4,27.3
						c0,17.9,10.1,27.5,23.4,27.5c13.3,0,23.1-9.6,23.1-27.5H497z"/>
				</g>
			</g>
		</g>
	</g>
</g>
</svg>
