<?xml version="1.0" encoding="utf-8"?>
<!-- Generator: Adobe Illustrator 21.1.0, SVG Export Plug-In . SVG Version: 6.00 Build 0)  -->
<svg version="1.1" id="Ñëîé_1" xmlns="http://www.w3.org/2000/svg" xmlns:xlink="http://www.w3.org/1999/xlink" x="0px" y="0px"
	 viewBox="0 0 640 480" style="enable-background:new 0 0 640 480;" xml:space="preserve">
<style type="text/css">
	.st0{fill:#414042;}
</style>
<g>
	<path class="st0" d="M326.7,276.5C326.7,276.5,326.7,276.5,326.7,276.5C326.7,276.5,326.7,276.5,326.7,276.5z"/>
	<path class="st0" d="M414.3,334.4c0,0,0-0.1,0-0.1c-10.2-3-41-12.3-94.3-12.6c-53.3,0.3-84.2,9.6-94.3,12.6c0,0,0,0.1,0,0.1
		c3.5,28.7,7.9,51.3,14.3,73.4c7-1.8,28.4-7.3,68.1-8.6c4.3-0.1,8.3-0.2,11.8-0.2c3.6,0,7.5,0.1,11.8,0.2
		c39.8,1.4,61.1,6.8,68.1,8.6C406.4,385.8,410.8,363.1,414.3,334.4z"/>
	<path class="st0" d="M307.6,93.7c1.2,3.5,4.1,7.3,9,6c4.9-2,3.5-7.9,1-12.5c-2.1-3.9-5.2-7.9-8-12.4
		C308.9,82.7,305.8,88.4,307.6,93.7z"/>
	<path class="st0" d="M324.6,91c5.2-0.2,6-6.2,5.3-11.4c-0.6-4.4-2.6-9-5-15.1c-3.4,7.2-6.5,12.2-6.6,17.8
		C318.1,86,319.5,90.6,324.6,91z"/>
	<path class="st0" d="M317.8,120.7c4.6-2.5,2.5-8.3-0.5-12.6c-2.6-3.6-6.4-6.8-11.3-11.1c0.2,8-0.2,13.8,2.2,18.8
		C309.8,119.2,313.2,122.7,317.8,120.7z"/>
	<path class="st0" d="M317.9,142.1c4.6-2.5,2.5-8.3-0.5-12.6c-2.6-3.6-6.4-6.9-11.3-11.1c0.2,8-0.2,13.8,2.2,18.8
		C310,140.6,313.3,144.1,317.9,142.1z"/>
	<path class="st0" d="M308.5,180.1c1.3,2.7,3.8,5.5,7.1,5.4c0.8,0,1.6-0.2,2.5-0.6c4.6-2.5,2.5-8.3-0.5-12.6
		c-2.6-3.6-6.4-6.8-11.3-11.1c0,0,0,0,0,0c0,0,0,0-0.1,0C306.5,169.2,306,175,308.5,180.1z"/>
	<path class="st0" d="M308.5,201.5c1.3,2.7,3.8,5.5,7.1,5.4c0.8,0,1.6-0.2,2.5-0.6c4.6-2.5,2.5-8.3-0.5-12.6
		c-2.6-3.6-6.4-6.9-11.3-11.1c0,0,0,0,0,0c0,0,0,0-0.1,0C306.6,190.6,306.1,196.4,308.5,201.5z"/>
	<path class="st0" d="M308.4,158.7c1.3,2.7,3.8,5.5,7.1,5.4c0.8,0,1.6-0.2,2.5-0.6c4.6-2.5,2.5-8.3-0.5-12.6
		c-2.6-3.6-6.4-6.8-11.3-11.1c0,0,0,0,0,0c0,0,0,0-0.1,0C306.4,147.8,305.9,153.6,308.4,158.7z"/>
	<path class="st0" d="M317.7,215.2c-2.6-3.6-6.4-6.9-11.3-11.1c0.2,8-0.2,13.8,2.2,18.8c1.6,3.4,5,6.8,9.6,4.9
		C322.8,225.2,320.7,219.5,317.7,215.2z"/>
	<path class="st0" d="M318.8,243.5c3.5-2.6,1.1-7.1-1.9-10.2c-2.5-2.7-6.1-4.8-10.5-7.8c1.1,6.5,1.4,11.3,4,15.2
		C312.1,243.2,315.2,245.6,318.8,243.5z"/>
	<path class="st0" d="M323.3,245.8c-1.9,2.9-3.2,6.7-0.1,8.3c3.1,1.2,5.3-1.1,6.3-3.4c1.5-3.4,1.1-7.2,1.2-12.5
		C327.5,241.1,325,243.3,323.3,245.8z"/>
	<path class="st0" d="M324.3,108.6c4.6,1.9,8-1.5,9.6-4.9c2.4-5.1,1.3-11.8,0.9-19.7c-3.5,4-7.4,8.4-10,12
		C321.8,100.3,319.7,106.1,324.3,108.6z"/>
	<path class="st0" d="M324.7,117.4c-3,4.3-5.1,10-0.5,12.6c4.6,1.9,8-1.5,9.6-4.9c2.4-5.1,2-10.9,2.2-18.8
		C331.2,110.6,327.3,113.8,324.7,117.4z"/>
	<path class="st0" d="M335.9,127.8C335.9,127.7,335.9,127.7,335.9,127.8c-4.8,4.2-8.7,7.4-11.3,11.1c-3,4.3-5.1,10-0.5,12.6
		c0.9,0.4,1.7,0.5,2.5,0.6c3.4,0.1,5.8-2.7,7.1-5.4C336.2,141.5,335.8,135.7,335.9,127.8C336,127.7,335.9,127.7,335.9,127.8z"/>
	<path class="st0" d="M335.8,149.2C335.8,149.1,335.8,149.1,335.8,149.2c-4.8,4.2-8.7,7.4-11.3,11.1c-3,4.3-5.1,10-0.5,12.6
		c0.9,0.4,1.7,0.5,2.5,0.6c3.4,0.1,5.8-2.7,7.1-5.4C336.1,162.9,335.7,157.1,335.8,149.2C335.9,149.1,335.9,149.1,335.8,149.2z"/>
	<path class="st0" d="M335.8,170.6C335.8,170.6,335.8,170.5,335.8,170.6c-4.8,4.2-8.7,7.4-11.3,11.1c-3,4.3-5.1,10-0.5,12.6
		c0.9,0.4,1.7,0.5,2.5,0.6c3.4,0.1,5.8-2.7,7.1-5.4C336.1,184.3,335.6,178.5,335.8,170.6C335.8,170.5,335.8,170.6,335.8,170.6z"/>
	<path class="st0" d="M324.5,203.1c-3,4.3-5.1,10-0.5,12.6c4.6,1.9,8-1.5,9.6-4.9c2.4-5.1,2-10.9,2.2-18.8
		C330.9,196.2,327,199.4,324.5,203.1z"/>
	<path class="st0" d="M333.5,232.2c2.4-5.1,2-10.9,2.2-18.8c-4.8,4.3-8.7,7.5-11.3,11.1c-3,4.3-5.1,10-0.5,12.6
		C328.5,239,331.9,235.6,333.5,232.2z"/>
	<path class="st0" d="M321.4,316.6c0.2-32.8,0.7-58.3,1.6-59.3c-1.4-0.4-2.6-2.4-2.6-2.4s-1.3-4.1,0-9.8c-1.3,1.8-4.2,2.3-4.2,2.3
		c1.2,1.5,1.8,31.7,2.1,69.2c0.5,0,1,0,1.6,0C320.5,316.6,320.9,316.6,321.4,316.6z"/>
	<path class="st0" d="M318.5,404.2c-0.1,34.3-0.2,60.7-0.2,60.7h3.3c0,0-0.2-26.5-0.2-60.7c-0.5,0-0.9,0-1.4,0
		C319.5,404.2,319,404.2,318.5,404.2z"/>
	<path class="st0" d="M324.9,63.1c0.2,0,0.3-0.8,0.3-1.8c0-1-0.2-46.2-0.3-46.2c-0.2,0-0.3,45.2-0.3,46.2
		C324.6,62.3,324.8,63.1,324.9,63.1z"/>
	<path class="st0" d="M335.1,81.8c0.2,0,0.4-0.7,0.5-1.7c0.1-1,4.5-46,4.4-46c-0.2,0-4.9,44.9-5,45.9
		C334.8,81,334.9,81.8,335.1,81.8z"/>
	<path class="st0" d="M309.4,72.4c0.2,0,0.3-0.8,0.2-1.8c-0.1-1-4.8-45.9-4.9-45.9c-0.2,0,4.2,45,4.3,46
		C309,71.7,309.2,72.5,309.4,72.4z"/>
	<path class="st0" d="M336.4,211.3c0.2,0,0.5-0.7,0.8-1.6c0.3-0.9,11.9-44.6,11.7-44.7c-0.2,0-12.1,43.6-12.4,44.5
		C336.3,210.4,336.2,211.2,336.4,211.3z"/>
	<path class="st0" d="M305.1,221.2c0.2,0.9,0.6,1.7,0.7,1.6c0.2,0,0.1-0.8-0.1-1.8c-0.2-0.9-11.1-44.8-11.3-44.8
		C294.3,176.3,304.9,220.3,305.1,221.2z"/>
	<path class="st0" d="M336.1,190.2c0.2,0,0.5-0.7,0.8-1.6c0.3-0.9,11.9-44.6,11.7-44.7c-0.2,0-12.1,43.6-12.4,44.5
		C336,189.4,335.9,190.2,336.1,190.2z"/>
	<path class="st0" d="M305.5,201.8c0.2,0,0.1-0.8-0.1-1.8c-0.2-0.9-11.1-44.8-11.3-44.8c-0.2,0,10.4,44,10.7,44.9
		C305,201.1,305.3,201.8,305.5,201.8z"/>
	<path class="st0" d="M337.2,166.8c0.3-0.9,11.9-44.6,11.7-44.7c-0.2,0-12.1,43.6-12.4,44.5c-0.3,0.9-0.3,1.7-0.1,1.8
		C336.6,168.4,336.9,167.7,337.2,166.8z"/>
	<path class="st0" d="M305.1,178.3c0.2,0.9,0.6,1.7,0.7,1.6c0.2,0,0.1-0.8-0.1-1.8c-0.2-0.9-11.1-44.8-11.3-44.8
		C294.3,133.4,304.9,177.4,305.1,178.3z"/>
	<path class="st0" d="M336.4,146.2c0.2,0,0.5-0.7,0.8-1.6c0.3-0.9,11.9-44.6,11.7-44.7c-0.2,0-12.1,43.6-12.4,44.5
		C336.3,145.4,336.2,146.2,336.4,146.2z"/>
	<path class="st0" d="M305.8,157.8c0.2,0,0.1-0.8-0.1-1.8c-0.2-0.9-11.1-44.8-11.3-44.8c-0.2,0,10.4,44,10.7,44.9
		C305.3,157.1,305.7,157.9,305.8,157.8z"/>
	<path class="st0" d="M336.3,125.1c0.2,0,0.5-0.7,0.8-1.6c0.3-0.9,11.9-44.6,11.7-44.7c-0.2,0-12.1,43.6-12.4,44.5
		C336.1,124.3,336.1,125.1,336.3,125.1z"/>
	<path class="st0" d="M305.7,136.7c0.2,0,0.1-0.8-0.1-1.8c-0.2-0.9-11.1-44.8-11.3-44.8c-0.2,0,10.4,44,10.7,44.9
		C305.2,136,305.5,136.8,305.7,136.7z"/>
	<path class="st0" d="M336.6,104c0.2,0,0.5-0.7,0.7-1.6c0.2-0.9,10-45.1,9.9-45.1c-0.2,0-10.3,44-10.5,45
		C336.4,103.1,336.4,103.9,336.6,104z"/>
	<path class="st0" d="M305.8,115.8c0.2,0,0.1-0.8-0.1-1.8c-0.2-0.9-11.1-44.8-11.3-44.8c-0.2,0,10.4,44,10.7,44.9
		C305.3,115.2,305.7,115.9,305.8,115.8z"/>
	<path class="st0" d="M305.4,94.1c0.2,0,0.2-0.8,0-1.8c-0.2-1-9-45.3-9.1-45.3c-0.2,0,8.3,44.4,8.5,45.4
		C304.9,93.4,305.2,94.2,305.4,94.1z"/>
	<path class="st0" d="M384.2,100.4c0.2,3.7,2,8.2,7.1,8.1c5.2-0.6,5.4-6.7,4.2-11.8c-1-4.3-2.9-9-4.5-14.1
		C388.3,90.1,383.8,94.8,384.2,100.4z"/>
	<path class="st0" d="M401.2,102.2c5.1,1.2,7.4-4.4,8.1-9.6c0.6-4.4-0.1-9.4-0.8-15.8c-5.2,6-9.5,10-11.1,15.4
		C396.3,95.7,396.5,100.5,401.2,102.2z"/>
	<path class="st0" d="M386.9,129.1c5.1-1.2,4.6-7.3,2.8-12.3c-1.5-4.2-4.4-8.3-7.9-13.7c-1.9,7.8-3.9,13.2-2.9,18.7
		C379.6,125.6,381.9,129.8,386.9,129.1z"/>
	<path class="st0" d="M381.4,149.8c5.1-1.2,4.6-7.3,2.8-12.3c-1.5-4.2-4.4-8.3-8-13.7c-1.9,7.8-3.9,13.2-2.8,18.7
		C374.1,146.3,376.4,150.4,381.4,149.8z"/>
	<path class="st0" d="M367.7,191c0.8,0.2,1.6,0.3,2.6,0.1c5.1-1.2,4.6-7.3,2.8-12.3c-1.5-4.2-4.4-8.3-8-13.7c0,0,0,0,0,0
		c0,0,0,0,0-0.1c-1.9,7.8-3.9,13.2-2.8,18.7C362.8,186.9,364.4,190.2,367.7,191z"/>
	<path class="st0" d="M362.1,211.7c0.8,0.2,1.6,0.3,2.6,0.1c5.1-1.2,4.6-7.3,2.8-12.3c-1.5-4.2-4.4-8.3-8-13.7c0,0,0,0,0,0
		c0,0,0,0,0-0.1c-1.9,7.8-3.9,13.2-2.8,18.7C357.2,207.6,358.9,210.9,362.1,211.7z"/>
	<path class="st0" d="M373.3,170.4c0.8,0.2,1.6,0.2,2.6,0.1c5.1-1.2,4.6-7.3,2.8-12.3c-1.5-4.2-4.4-8.3-8-13.7c0,0,0,0,0,0
		c0,0,0,0,0-0.1c-1.9,7.8-3.9,13.2-2.8,18.7C368.3,166.2,370,169.6,373.3,170.4z"/>
	<path class="st0" d="M359.1,232.5c5.1-1.2,4.6-7.3,2.8-12.3c-1.5-4.2-4.4-8.3-8-13.7c-1.9,7.8-3.9,13.2-2.8,18.7
		C351.8,228.9,354.1,233.1,359.1,232.5z"/>
	<path class="st0" d="M348.2,227.1c-0.6,6.6-1.6,11.3-0.1,15.7c1,2.9,3.4,6.1,7.4,5c4-1.6,2.9-6.5,0.9-10.4
		C354.6,234.2,351.8,231.2,348.2,227.1z"/>
	<path class="st0" d="M357,259.2c2.7,2,5.4,0.3,6.9-1.6c2.4-2.9,3-6.6,4.4-11.7c-3.8,2-6.8,3.4-9,5.3
		C356.7,253.4,354.4,256.8,357,259.2z"/>
	<path class="st0" d="M406.9,117c3.7-4.2,4.4-11,6-18.8c-4.4,2.9-9.3,6.1-12.8,9c-4,3.3-7.6,8.3-3.8,12
		C400.4,122.2,404.5,119.8,406.9,117z"/>
	<path class="st0" d="M390.6,139.8c4,3.1,8.1,0.7,10.5-2.2c3.7-4.2,4.8-10,7.1-17.6c-5.8,2.9-10.4,4.9-13.8,7.8
		C390.4,131.1,386.9,136.1,390.6,139.8z"/>
	<path class="st0" d="M384.9,160.4c0.8,0.6,1.5,1,2.3,1.2c3.2,1,6.3-1.1,8.3-3.4c3.7-4.2,4.8-10,7.1-17.6c0,0,0,0-0.1,0c0,0,0,0,0,0
		c-5.8,2.9-10.4,4.9-13.8,7.8C384.7,151.7,381.2,156.7,384.9,160.4z"/>
	<path class="st0" d="M379.2,181c0.8,0.6,1.5,1,2.3,1.2c3.2,1,6.3-1.1,8.3-3.4c3.7-4.2,4.8-10,7.1-17.6c0,0,0,0-0.1,0c0,0,0,0,0,0
		c-5.8,2.9-10.4,4.9-13.8,7.8C379,172.4,375.4,177.4,379.2,181z"/>
	<path class="st0" d="M373.5,201.7c0.8,0.6,1.5,1,2.3,1.2c3.2,1,6.3-1.1,8.3-3.4c3.7-4.2,4.8-10,7.1-17.6c0,0,0,0-0.1,0c0,0,0,0,0,0
		c-5.8,2.9-10.4,4.9-13.8,7.8C373.3,193,369.7,198,373.5,201.7z"/>
	<path class="st0" d="M371.6,210.3c-4,3.3-7.6,8.3-3.8,12c4,3.1,8.1,0.7,10.5-2.2c3.7-4.2,4.8-10,7.1-17.6
		C379.6,205.4,375.1,207.5,371.6,210.3z"/>
	<path class="st0" d="M372.7,240.8c3.7-4.2,4.8-10,7.1-17.6c-5.8,2.9-10.4,4.9-13.8,7.8c-4,3.3-7.6,8.3-3.8,12
		C366.1,246,370.2,243.6,372.7,240.8z"/>
	<path class="st0" d="M296.7,461.2l3.2,0.9c0,0,6.7-25.3,15.5-57.9c-1,0-1.9,0-2.9,0.1C303.6,436.7,296.7,461.2,296.7,461.2z"/>
	<path class="st0" d="M356,262.2c-1.3-0.8-1.8-3-1.8-3s-0.1-4.3,2.6-9.4c-1.7,1.4-4.6,1.1-4.6,1.1c0.8,1.7-6.4,30.4-15.9,66.1
		c1,0,2.1,0.1,3.1,0.1C348,286.4,354.8,262.9,356,262.2z"/>
	<path class="st0" d="M409,75.4c0.2,0,0.5-0.7,0.8-1.6c0.3-0.9,12-44.6,11.8-44.6c-0.2,0-12.2,43.5-12.5,44.5
		C408.9,74.5,408.8,75.3,409,75.4z"/>
	<path class="st0" d="M413.8,96.2c0.2,0.1,0.6-0.6,0.9-1.5c0.4-0.9,16.5-43.1,16.3-43.2c-0.2-0.1-16.6,42.1-16.9,43
		C413.8,95.3,413.6,96.1,413.8,96.2z"/>
	<path class="st0" d="M391.5,80.3c0.2,0,0.5-0.7,0.6-1.7c0.2-1,7.5-45.6,7.3-45.6c-0.2,0-7.8,44.5-8,45.5
		C391.3,79.5,391.3,80.3,391.5,80.3z"/>
	<path class="st0" d="M382.2,220c0.5-0.8,23.2-39.9,23.1-40c-0.2-0.1-23.1,38.8-23.6,39.7c-0.5,0.8-0.8,1.6-0.6,1.7
		C381.2,221.5,381.7,220.9,382.2,220z"/>
	<path class="st0" d="M348.5,224.5c0.2,0,0.4-0.8,0.4-1.7c0-1,1.1-46.2,0.9-46.2c-0.2,0-1.5,45.2-1.6,46.2
		C348.2,223.7,348.3,224.5,348.5,224.5z"/>
	<path class="st0" d="M386.2,201c0.2,0.1,0.7-0.5,1.2-1.3c0.5-0.8,23.2-39.9,23.1-40c-0.2-0.1-23.1,38.8-23.6,39.7
		C386.3,200.1,386.1,200.9,386.2,201z"/>
	<path class="st0" d="M353.7,204.1c0.2,0,0.4-0.8,0.4-1.7c0-1,1.1-46.2,0.9-46.2c-0.2,0-1.5,45.2-1.6,46.2
		C353.4,203.3,353.5,204.1,353.7,204.1z"/>
	<path class="st0" d="M392.3,180c0.2,0.1,0.7-0.5,1.2-1.3c0.5-0.8,23.2-39.9,23.1-40c-0.2-0.1-23.1,38.8-23.6,39.7
		C392.4,179.1,392.1,179.9,392.3,180z"/>
	<path class="st0" d="M359.7,183.1c0.2,0,0.4-0.8,0.4-1.7c0-1,1.1-46.2,0.9-46.2c-0.2,0-1.5,45.2-1.6,46.2
		C359.4,182.3,359.6,183.1,359.7,183.1z"/>
	<path class="st0" d="M399.3,157.3c0.5-0.8,23.2-39.9,23.1-40c-0.2-0.1-23.1,38.8-23.6,39.7c-0.5,0.8-0.8,1.6-0.6,1.7
		C398.3,158.7,398.8,158.1,399.3,157.3z"/>
	<path class="st0" d="M365.6,161.7c0.2,0,0.4-0.8,0.4-1.7c0-1,1.1-46.2,0.9-46.2c-0.2,0-1.5,45.2-1.6,46.2
		C365.3,160.9,365.4,161.7,365.6,161.7z"/>
	<path class="st0" d="M404.1,136.5c-0.5,0.8-0.8,1.6-0.6,1.7c0.2,0.1,0.7-0.5,1.2-1.3c0.5-0.8,23.2-39.9,23.1-40
		C427.6,96.8,404.6,135.7,404.1,136.5z"/>
	<path class="st0" d="M371,141.3c0.2,0,0.4-0.8,0.4-1.7c0-1,1.1-46.2,0.9-46.2c-0.2,0-1.5,45.2-1.6,46.2
		C370.7,140.5,370.8,141.3,371,141.3z"/>
	<path class="st0" d="M409.4,117.9c0.2,0.1,0.7-0.5,1.1-1.4c0.5-0.9,21.6-40.8,21.4-40.9c-0.2-0.1-21.5,39.7-22,40.6
		C409.5,117,409.2,117.8,409.4,117.9z"/>
	<path class="st0" d="M376.6,121.3c0.2,0,0.4-0.8,0.4-1.7c0-1,1.1-46.2,0.9-46.2c-0.2,0-1.5,45.2-1.6,46.2
		C376.3,120.5,376.4,121.2,376.6,121.3z"/>
	<path class="st0" d="M382,100.2c0.2,0,0.4-0.8,0.5-1.7c0.1-1,3.3-46.1,3.1-46.1c-0.2,0-3.7,45.1-3.8,46
		C381.7,99.4,381.8,100.2,382,100.2z"/>
	<path class="st0" d="M455.9,127.3c-0.8,3.7-0.2,8.4,4.7,9.7c5.2,0.8,7-5.1,7.2-10.3c0.2-4.5-0.4-9.4-0.6-14.7
		C462.5,118.5,457,121.8,455.9,127.3z"/>
	<path class="st0" d="M471.8,133.6c4.6,2.5,8.4-2.3,10.4-7.1c1.7-4.1,2.4-9.1,3.4-15.5c-6.6,4.4-11.8,7.1-14.8,11.9
		C468.8,126.1,467.7,130.8,471.8,133.6z"/>
	<path class="st0" d="M445,146.7c-0.3,3.7,0.8,8.4,5.8,9.1c5.2,0.2,6.4-5.8,6-11.1c-0.4-4.5-2-9.2-4-15.3
		C448.9,136.3,445.5,141.1,445,146.7z"/>
	<path class="st0" d="M434.2,165.1c-0.3,3.7,0.8,8.4,5.8,9.1c5.3,0.2,6.4-5.8,6-11.1c-0.4-4.5-2-9.2-4-15.3
		C438.1,154.8,434.7,159.6,434.2,165.1z"/>
	<path class="st0" d="M420.2,184.8C420.2,184.8,420.2,184.7,420.2,184.8c-3.9,6.9-7.3,11.7-7.8,17.2c-0.3,3,0.4,6.7,3.4,8.3
		c0.7,0.4,1.5,0.7,2.4,0.8c5.3,0.2,6.4-5.8,6-11.1C423.9,195.6,422.2,190.9,420.2,184.8C420.3,184.8,420.2,184.8,420.2,184.8z"/>
	<path class="st0" d="M405,228.8c0.7,0.4,1.5,0.7,2.4,0.8c5.3,0.2,6.4-5.8,6-11.1c-0.4-4.5-2-9.2-4-15.3c0,0,0,0,0,0c0,0,0,0,0-0.1
		c-3.9,7-7.2,11.7-7.7,17.3C401.4,223.5,402.1,227.2,405,228.8z"/>
	<path class="st0" d="M431.1,166.3C431.1,166.3,431.1,166.3,431.1,166.3c-3.9,6.9-7.3,11.7-7.7,17.2c-0.3,3,0.4,6.7,3.4,8.3
		c0.7,0.4,1.5,0.7,2.4,0.8c5.3,0.2,6.4-5.8,6-11.1C434.8,177.2,433.1,172.4,431.1,166.3C431.1,166.3,431.1,166.3,431.1,166.3z"/>
	<path class="st0" d="M396.5,248c5.2,0.2,6.4-5.8,6-11.1c-0.4-4.5-2-9.2-4-15.3c-3.9,7-7.2,11.7-7.7,17.3
		C390.4,242.7,391.6,247.3,396.5,248z"/>
	<path class="st0" d="M389,261.8c4.3-0.5,4.5-5.5,3.6-9.8c-0.8-3.6-2.8-7.3-5.1-12.1c-2.4,6.2-4.5,10.4-4.3,15.1
		C383.4,258.2,384.9,261.8,389,261.8z"/>
	<path class="st0" d="M387.4,273.2c2,2.6,5.1,1.7,7.1,0.3c3-2.1,4.7-5.6,7.4-10.1c-4.2,0.9-7.4,1.5-10.1,2.8
		C388.7,267.6,385.6,270.2,387.4,273.2z"/>
	<path class="st0" d="M462.6,148.7c3,4,7.6,2.8,10.7,0.7c4.7-3.1,7.1-9.5,10.8-16.5c-5,1.7-10.6,3.4-14.7,5.3
		C464.7,140.2,460,144.1,462.6,148.7z"/>
	<path class="st0" d="M451.6,167c3,4,7.6,2.8,10.7,0.7c4.7-3.1,7.2-8.3,11.5-15.1c-6.4,1.2-11.3,2-15.4,3.8
		C453.7,158.6,448.9,162.5,451.6,167z"/>
	<path class="st0" d="M440.6,185.4c0.6,0.8,1.2,1.3,1.9,1.8c2.8,1.8,6.4,0.7,8.9-1c4.7-3.1,7.2-8.3,11.5-15.1c0,0,0,0-0.1,0
		c0,0,0,0,0,0c-6.4,1.2-11.3,2-15.4,3.8C442.7,177,438,180.8,440.6,185.4z"/>
	<path class="st0" d="M429.6,203.7c0.6,0.8,1.2,1.3,1.9,1.8c2.8,1.8,6.4,0.7,8.9-1c4.7-3.1,7.2-8.3,11.5-15.1c0,0,0,0-0.1,0
		c0,0,0,0,0,0c-6.4,1.2-11.3,2-15.4,3.8C431.7,195.3,427,199.2,429.6,203.7z"/>
	<path class="st0" d="M418.6,222.1c0.6,0.8,1.2,1.3,1.9,1.8c2.9,1.8,6.4,0.7,8.9-1c4.7-3.1,7.2-8.3,11.5-15.1c0,0,0,0-0.1,0
		c0,0,0,0,0,0c-6.4,1.2-11.3,2-15.4,3.8C420.7,213.7,416,217.6,418.6,222.1z"/>
	<path class="st0" d="M418.4,241.2c4.7-3.1,7.2-8.3,11.5-15.1c-6.4,1.2-11.3,2-15.4,3.8c-4.8,2.1-9.5,6-6.8,10.5
		C410.7,244.5,415.3,243.3,418.4,241.2z"/>
	<path class="st0" d="M407.4,259.6c4.7-3.1,7.2-8.3,11.5-15.1c-6.4,1.2-11.3,2-15.4,3.8c-4.8,2.1-9.5,6-6.9,10.5
		C399.7,262.9,404.3,261.7,407.4,259.6z"/>
	<path class="st0" d="M275.7,452l2.8,1.7c0,0,12.5-21.3,28.9-49.2c-1.1,0-2.3,0.1-3.4,0.1C287.8,431.8,275.7,452,275.7,452z"/>
	<path class="st0" d="M385.7,275.8c-1-1.1-1-3.4-1-3.4s1-4.2,5-8.4c-2,0.9-4.8-0.1-4.8-0.1c0.3,1.8-12.7,24.9-29.8,54.3
		c1.2,0.1,2.3,0.2,3.5,0.3C373.3,294.1,384.5,276.2,385.7,275.8z"/>
	<path class="st0" d="M486.4,109.8c0.2,0.1,0.7-0.5,1.2-1.3c0.5-0.8,23.4-39.8,23.3-39.9c-0.2-0.1-23.4,38.7-23.8,39.5
		C486.5,109,486.2,109.7,486.4,109.8z"/>
	<path class="st0" d="M485.5,131.1c0.1,0.1,0.7-0.4,1.3-1.2c0.6-0.8,27.3-37.2,27.2-37.3c-0.1-0.1-27.2,36.1-27.7,36.9
		C485.7,130.3,485.4,131,485.5,131.1z"/>
	<path class="st0" d="M468.2,109.9c0.2,0.1,0.6-0.6,1-1.5c0.4-0.9,19.3-41.9,19.2-42c-0.2-0.1-19.4,40.8-19.8,41.7
		C468.2,109.1,468,109.8,468.2,109.9z"/>
	<path class="st0" d="M422.1,242.1c0.7-0.7,33-32.3,32.9-32.4c-0.1-0.1-32.6,31.3-33.3,32c-0.7,0.7-1.2,1.3-1,1.5
		C420.8,243.2,421.4,242.8,422.1,242.1z"/>
	<path class="st0" d="M388.4,237.5c0.2,0.1,0.5-0.7,0.8-1.6c0.3-0.9,13.3-44.2,13.1-44.3c-0.2-0.1-13.5,43.1-13.8,44.1
		C388.3,236.6,388.3,237.4,388.4,237.5z"/>
	<path class="st0" d="M465.4,191.4c-0.1-0.1-32.6,31.3-33.3,32c-0.7,0.7-1.2,1.3-1,1.5c0.1,0.1,0.8-0.3,1.5-1
		C433.3,223.2,465.6,191.5,465.4,191.4z"/>
	<path class="st0" d="M398.9,219.2c0.2,0.1,0.6-0.7,0.8-1.6c0.3-0.9,13.3-44.2,13.1-44.3c-0.2-0.1-13.5,43.2-13.8,44.1
		C398.8,218.3,398.7,219.1,398.9,219.2z"/>
	<path class="st0" d="M476.8,172.8c-0.1-0.1-32.6,31.3-33.3,32c-0.7,0.7-1.2,1.3-1,1.5c0.1,0.1,0.8-0.3,1.5-1
		C444.7,204.6,477,172.9,476.8,172.8z"/>
	<path class="st0" d="M410.5,198.8c-0.3,0.9-0.4,1.7-0.2,1.8c0.2,0.1,0.5-0.7,0.8-1.6c0.3-0.9,13.3-44.2,13.1-44.3
		C424.1,154.7,410.8,197.9,410.5,198.8z"/>
	<path class="st0" d="M488.1,153.8c-0.1-0.1-32.6,31.3-33.3,32c-0.7,0.7-1.2,1.3-1,1.5c0.1,0.1,0.8-0.3,1.5-1
		C456,185.5,488.3,153.9,488.1,153.8z"/>
	<path class="st0" d="M421.6,181.5c0.2,0.1,0.5-0.7,0.8-1.6c0.3-0.9,13.3-44.2,13.1-44.3c-0.2-0.1-13.5,43.2-13.8,44.1
		C421.5,180.7,421.4,181.5,421.6,181.5z"/>
	<path class="st0" d="M464.4,169c0.1,0.1,0.8-0.3,1.5-1c0.7-0.7,33-32.3,32.9-32.4c-0.1-0.1-32.6,31.3-33.3,32
		C464.8,168.2,464.3,168.8,464.4,169z"/>
	<path class="st0" d="M432.2,163.3c0.2,0.1,0.5-0.7,0.8-1.6c0.3-0.9,13.3-44.2,13.1-44.3c-0.2-0.1-13.5,43.2-13.8,44.1
		C432.2,162.5,432.1,163.3,432.2,163.3z"/>
	<path class="st0" d="M476.5,149.4c-0.7,0.7-1.1,1.4-1,1.5c0.1,0.1,0.8-0.3,1.5-1c0.7-0.7,31.6-33.6,31.5-33.8
		C508.3,116,477.1,148.7,476.5,149.4z"/>
	<path class="st0" d="M443,145.4c0.2,0.1,0.5-0.7,0.8-1.6c0.3-0.9,13.3-44.2,13.1-44.3c-0.2-0.1-13.5,43.2-13.8,44.1
		C442.9,144.6,442.8,145.4,443,145.4z"/>
	<path class="st0" d="M453.7,126.6c0.2,0.1,0.6-0.6,0.9-1.5c0.3-0.9,15.4-43.5,15.2-43.6c-0.2-0.1-15.5,42.5-15.9,43.4
		C453.7,125.7,453.6,126.5,453.7,126.6z"/>
	<path class="st0" d="M521.3,182.1c4.8,2.1,8.1-3,9.7-8c1.3-4.3,2-9.2,3.3-14.4c-6.2,5-12.4,6.8-15,11.8
		C517.6,174.9,516.9,179.6,521.3,182.1z"/>
	<path class="st0" d="M534.8,171.2c-2.7,2.5-5,6.7-1.8,10.6c3.8,3.6,8.7,0,11.9-4.2c2.7-3.5,4.7-8.2,7.3-14.1
		C544.6,166.1,539,167.4,534.8,171.2z"/>
	<path class="st0" d="M507,197.7c5,1.5,7.7-4,8.7-9.1c0.8-4.4,0.4-9.4,0.1-15.9c-5.6,5.7-10,9.4-12,14.7
		C502.5,190.9,502.4,195.7,507,197.7z"/>
	<path class="st0" d="M488.6,202.4c-1.3,3.5-1.4,8.3,3.2,10.3c5,1.5,7.7-4,8.7-9.1c0.8-4.4,0.4-9.4,0.1-15.9
		C495,193.4,490.5,197.1,488.6,202.4z"/>
	<path class="st0" d="M461.2,242.7c5,1.5,7.7-4,8.7-9.1c0.8-4.4,0.4-9.4,0.1-15.9c0,0,0,0,0,0c0,0,0,0,0-0.1
		c-5.6,5.7-10,9.4-12,14.7c-1.1,2.9-1.3,6.6,1.1,8.9C459.6,241.8,460.3,242.3,461.2,242.7z"/>
	<path class="st0" d="M454.6,232.6c-5.6,5.7-10,9.4-12,14.7c-1.1,2.9-1.3,6.6,1.1,8.9c0.6,0.6,1.3,1,2.1,1.4c5,1.5,7.7-4,8.7-9.1
		C455.3,244.1,454.9,239.1,454.6,232.6C454.6,232.7,454.6,232.7,454.6,232.6C454.6,232.7,454.6,232.6,454.6,232.6z"/>
	<path class="st0" d="M485.2,202.6c-5.6,5.7-10,9.4-12,14.7c-1.1,2.9-1.3,6.6,1.1,8.9c0.6,0.6,1.3,1,2.2,1.4c5,1.5,7.7-4,8.7-9.1
		C485.9,214.1,485.5,209.1,485.2,202.6C485.2,202.7,485.2,202.7,485.2,202.6C485.2,202.7,485.2,202.7,485.2,202.6z"/>
	<path class="st0" d="M427.3,262.3c-1.3,3.5-1.4,8.3,3.2,10.3c5,1.5,7.7-4,8.7-9.1c0.8-4.4,0.4-9.4,0.1-15.9
		C433.7,253.3,429.3,257,427.3,262.3z"/>
	<path class="st0" d="M419.6,283.9c4.3,0.7,5.8-4.2,6-8.5c0.2-3.7-0.8-7.7-1.8-13c-3.9,5.3-7.1,8.9-8.1,13.4
		C415.2,278.9,415.6,282.8,419.6,283.9z"/>
	<path class="st0" d="M421.2,288.8c-3.4,0.6-7,2.4-6.1,5.7c1.3,3.1,4.5,3,6.8,2.1c3.5-1.3,6-4.2,9.8-7.9
		C427.4,288.5,424.1,288.2,421.2,288.8z"/>
	<path class="st0" d="M545.2,184.3c-5.3,0.3-11.2,0.5-15.6,1.2c-5.2,0.8-10.7,3.3-9.4,8.4c1.9,4.7,6.6,4.7,10.2,3.5
		C535.8,195.6,539.8,190.1,545.2,184.3z"/>
	<path class="st0" d="M530,200.7c-6.4-0.5-11.4-1-15.9-0.3c-5.2,0.8-10.7,3.3-9.4,8.4c1.9,4.7,6.6,4.7,10.2,3.5
		C520.3,210.4,524.2,206.1,530,200.7z"/>
	<path class="st0" d="M514.7,215.6C514.6,215.6,514.6,215.6,514.7,215.6C514.6,215.5,514.6,215.5,514.7,215.6
		c-6.5-0.5-11.5-1.1-15.9-0.4c-5.2,0.8-10.7,3.3-9.4,8.4c0.3,0.9,0.8,1.6,1.4,2.2c2.3,2.5,6,2.3,8.9,1.3
		C505,225.3,508.8,221,514.7,215.6z"/>
	<path class="st0" d="M499.3,230.4C499.2,230.4,499.2,230.4,499.3,230.4C499.2,230.4,499.2,230.4,499.3,230.4
		c-6.5-0.5-11.5-1.1-15.9-0.4c-5.2,0.8-10.7,3.3-9.4,8.4c0.4,0.9,0.8,1.6,1.4,2.2c2.3,2.5,6,2.3,8.9,1.3
		C489.5,240.2,493.4,235.8,499.3,230.4z"/>
	<path class="st0" d="M459.9,255.5c2.3,2.5,6,2.3,8.9,1.3c5.3-1.8,9.2-6.2,15-11.6c0,0,0,0-0.1,0c0,0,0,0,0,0
		c-6.4-0.5-11.4-1-15.9-0.3c-5.2,0.8-10.7,3.3-9.4,8.4C459,254.2,459.4,254.9,459.9,255.5z"/>
	<path class="st0" d="M452.6,259.8c-5.2,0.8-10.7,3.3-9.4,8.4c1.9,4.7,6.6,4.7,10.2,3.5c5.3-1.8,9.2-6.2,15-11.6
		C462,259.7,457,259.1,452.6,259.8z"/>
	<path class="st0" d="M437.2,274.7c-5.2,0.8-10.7,3.3-9.4,8.4c1.8,4.7,6.6,4.7,10.2,3.5c5.3-1.8,9.2-6.2,15-11.6
		C446.6,274.5,441.6,274,437.2,274.7z"/>
	<path class="st0" d="M412.8,296.6c-0.7-1.3-0.1-3.5-0.1-3.5s2.1-3.8,7-6.8c-2.2,0.4-4.6-1.4-4.6-1.4c-0.2,1.6-14.7,16.5-34.7,36.4
		c1.4,0.2,2.8,0.5,4.1,0.7C400.5,306.9,411.7,296.6,412.8,296.6z"/>
	<path class="st0" d="M260.6,437.9l2.3,2.4c0,0,15.3-15,36.1-35.4c-1.5,0.1-3,0.2-4.4,0.3C274.8,424.2,260.6,437.9,260.6,437.9z"/>
	<path class="st0" d="M554.4,161.1c-0.7,0.7-1.2,1.3-1,1.5c0.1,0.1,0.8-0.3,1.5-1c0.7-0.7,33-32.3,32.9-32.4
		C587.6,129.1,555,160.5,554.4,161.1z"/>
	<path class="st0" d="M546.9,183c0.1,0.1,0.8-0.2,1.6-0.8c0.8-0.6,36.1-28.8,36-28.9c-0.1-0.1-35.7,27.8-36.4,28.4
		C547.3,182.2,546.8,182.8,546.9,183z"/>
	<path class="st0" d="M535.7,158c0.1,0.1,0.8-0.4,1.4-1.1c0.6-0.7,29.6-35.4,29.5-35.5c-0.1-0.1-29.4,34.4-30,35.1
		C536,157.1,535.6,157.8,535.7,158z"/>
	<path class="st0" d="M455,274.1c0.1,0.2,0.8-0.1,1.7-0.6c0.8-0.5,40.3-22.6,40.2-22.7c-0.1-0.2-39.7,21.7-40.5,22.2
		C455.6,273.4,455,274,455,274.1z"/>
	<path class="st0" d="M426.1,258.6c-0.5,0.8-0.8,1.6-0.6,1.7c0.2,0.1,0.7-0.5,1.2-1.3c0.5-0.8,24.4-39.2,24.2-39.3
		C450.7,219.5,426.6,257.8,426.1,258.6z"/>
	<path class="st0" d="M469.9,259.2c0.1,0.2,0.8-0.1,1.7-0.6c0.9-0.5,40.3-22.6,40.2-22.7c-0.1-0.2-39.7,21.7-40.5,22.2
		C470.4,258.5,469.8,259,469.9,259.2z"/>
	<path class="st0" d="M441,243.7c-0.5,0.8-0.8,1.6-0.7,1.7c0.2,0.1,0.7-0.5,1.2-1.3c0.5-0.8,24.4-39.2,24.2-39.3
		C465.6,204.6,441.5,242.9,441,243.7z"/>
	<path class="st0" d="M485.8,244.2c0.1,0.2,0.9-0.1,1.7-0.6c0.8-0.5,40.3-22.6,40.2-22.7c-0.1-0.2-39.7,21.7-40.5,22.2
		C486.3,243.5,485.7,244.1,485.8,244.2z"/>
	<path class="st0" d="M457.4,229c0.5-0.8,24.4-39.2,24.2-39.3c-0.2-0.1-24.3,38.1-24.8,39c-0.5,0.8-0.8,1.6-0.7,1.7
		C456.3,230.5,456.9,229.9,457.4,229z"/>
	<path class="st0" d="M501.7,228.8c0.1,0.2,0.8-0.1,1.7-0.6c0.8-0.5,40.3-22.6,40.2-22.7c-0.1-0.2-39.7,21.7-40.5,22.2
		C502.2,228.1,501.6,228.6,501.7,228.8z"/>
	<path class="st0" d="M472.7,213.3c-0.5,0.8-0.8,1.6-0.6,1.7c0.2,0.1,0.7-0.5,1.2-1.3c0.5-0.8,24.4-39.2,24.2-39.3
		C497.4,174.2,473.2,212.4,472.7,213.3z"/>
	<path class="st0" d="M516.7,214c0.1,0.2,0.8-0.1,1.7-0.6c0.8-0.5,40.3-22.6,40.2-22.7c-0.1-0.2-39.7,21.7-40.5,22.2
		C517.2,213.3,516.6,213.8,516.7,214z"/>
	<path class="st0" d="M487.8,198.5c-0.5,0.8-0.8,1.6-0.6,1.7c0.2,0.1,0.7-0.5,1.2-1.3c0.5-0.8,24.4-39.2,24.2-39.3
		C512.4,159.4,488.3,197.6,487.8,198.5z"/>
	<path class="st0" d="M532.1,199.4c0.1,0.2,0.8-0.1,1.7-0.6c0.8-0.5,39.3-24.2,39.2-24.4c-0.1-0.2-38.7,23.3-39.6,23.8
		C532.6,198.7,532,199.3,532.1,199.4z"/>
	<path class="st0" d="M502.2,185.7c0.2,0.1,0.7-0.5,1.2-1.3c0.5-0.8,24.4-39.2,24.2-39.3c-0.2-0.1-24.3,38.1-24.8,39
		C502.3,184.8,502,185.6,502.2,185.7z"/>
	<path class="st0" d="M517.4,170.3c0.2,0.1,0.7-0.5,1.3-1.3c0.6-0.8,26.2-38,26.1-38.1c-0.2-0.1-26.1,36.9-26.6,37.7
		C517.6,169.4,517.3,170.1,517.4,170.3z"/>
	<path class="st0" d="M118.7,182.1c4.3-2.5,3.7-7.3,2-10.6c-2.5-5-8.7-6.8-15-11.8c1.3,5.1,2,10.1,3.3,14.4
		C110.6,179.1,113.9,184.2,118.7,182.1z"/>
	<path class="st0" d="M105.2,171.2c-4.1-3.8-9.8-5.1-17.4-7.6c2.7,5.9,4.6,10.5,7.3,14.1c3.2,4.1,8.1,7.8,11.9,4.2
		C110.2,177.9,107.9,173.7,105.2,171.2z"/>
	<path class="st0" d="M133,197.7c4.6-2,4.5-6.8,3.2-10.3c-1.9-5.3-6.4-9-12-14.7c-0.3,6.5-0.7,11.5,0.1,15.9
		C125.3,193.7,128,199.2,133,197.7z"/>
	<path class="st0" d="M148.2,212.7c4.6-2,4.5-6.8,3.2-10.3c-1.9-5.3-6.4-9-12-14.7c-0.3,6.5-0.7,11.5,0.1,15.9
		C140.6,208.7,143.2,214.2,148.2,212.7z"/>
	<path class="st0" d="M182.1,232.3c-1.9-5.3-6.4-9-12-14.7c0,0,0,0,0,0.1c0,0,0,0,0,0c-0.3,6.5-0.7,11.5,0.1,15.9
		c1,5.2,3.6,10.6,8.7,9.1c0.9-0.4,1.6-0.9,2.2-1.4C183.4,238.9,183.1,235.2,182.1,232.3z"/>
	<path class="st0" d="M185.4,232.6C185.4,232.6,185.4,232.7,185.4,232.6C185.4,232.7,185.4,232.7,185.4,232.6
		c-0.3,6.5-0.7,11.5,0.1,15.9c1,5.2,3.6,10.6,8.7,9.1c0.9-0.4,1.6-0.9,2.1-1.4c2.4-2.3,2.1-6,1.1-8.9
		C195.4,242,191,238.3,185.4,232.6z"/>
	<path class="st0" d="M154.8,202.6C154.8,202.7,154.8,202.7,154.8,202.6C154.8,202.7,154.8,202.7,154.8,202.6
		c-0.3,6.5-0.7,11.5,0.1,15.9c1,5.2,3.6,10.6,8.7,9.1c0.9-0.4,1.6-0.9,2.1-1.4c2.4-2.3,2.1-6,1.1-8.9
		C164.8,212.1,160.4,208.4,154.8,202.6z"/>
	<path class="st0" d="M200.7,247.6c-0.3,6.5-0.7,11.5,0.1,15.9c1,5.2,3.6,10.6,8.7,9.1c4.6-2,4.5-6.8,3.2-10.3
		C210.7,257,206.3,253.3,200.7,247.6z"/>
	<path class="st0" d="M220.4,283.9c4-1.1,4.5-5,3.8-8c-1-4.5-4.2-8.1-8.1-13.4c-1,5.3-1.9,9.3-1.8,13
		C214.5,279.8,216.1,284.6,220.4,283.9z"/>
	<path class="st0" d="M224.9,294.5c1-3.3-2.7-5.1-6.1-5.7c-2.9-0.5-6.2-0.2-10.5,0c3.8,3.7,6.3,6.6,9.8,7.9
		C220.4,297.5,223.6,297.5,224.9,294.5z"/>
	<path class="st0" d="M109.6,197.4c3.5,1.2,8.3,1.2,10.2-3.5c1.4-5.1-4.2-7.6-9.4-8.4c-4.4-0.7-10.3-0.9-15.6-1.2
		C100.2,190.1,104.2,195.6,109.6,197.4z"/>
	<path class="st0" d="M135.2,208.7c1.4-5.1-4.2-7.6-9.4-8.4c-4.4-0.7-9.4-0.2-15.9,0.3c5.9,5.4,9.7,9.8,15,11.6
		C128.5,213.4,133.3,213.4,135.2,208.7z"/>
	<path class="st0" d="M140.4,227.1c2.9,1,6.6,1.1,8.9-1.3c0.5-0.6,1-1.3,1.4-2.2c1.4-5.1-4.2-7.6-9.4-8.4c-4.4-0.7-9.4-0.2-15.9,0.3
		c0,0,0,0,0,0c0,0,0,0-0.1,0C131.2,221,135,225.3,140.4,227.1z"/>
	<path class="st0" d="M155.8,242c2.9,1,6.6,1.1,8.9-1.3c0.5-0.6,1-1.3,1.4-2.2c1.4-5.1-4.2-7.6-9.4-8.4c-4.4-0.7-9.4-0.2-15.9,0.3
		c0,0,0,0,0,0c0,0,0,0-0.1,0C146.6,235.8,150.5,240.2,155.8,242z"/>
	<path class="st0" d="M171.2,256.9c2.9,1,6.6,1.1,8.9-1.3c0.5-0.6,1-1.3,1.4-2.2c1.4-5.1-4.2-7.6-9.4-8.4c-4.4-0.7-9.4-0.2-15.9,0.3
		c0,0,0,0,0,0c0,0,0,0-0.1,0C162,250.7,165.9,255.1,171.2,256.9z"/>
	<path class="st0" d="M196.8,268.2c1.4-5.1-4.2-7.6-9.4-8.4c-4.4-0.7-9.4-0.2-15.9,0.3c5.9,5.4,9.7,9.8,15,11.6
		C190.1,272.9,194.9,272.9,196.8,268.2z"/>
	<path class="st0" d="M212.2,283.1c1.4-5.1-4.2-7.6-9.4-8.4c-4.4-0.7-9.4-0.2-15.8,0.3c5.9,5.4,9.7,9.8,15,11.6
		C205.5,287.8,210.3,287.8,212.2,283.1z"/>
	<path class="st0" d="M224.8,284.9c0,0-2.4,1.7-4.6,1.4c5,3,7,6.8,7,6.8s0.7,2.2-0.1,3.5c1.1,0,12.3,10.3,28.2,25.4
		c1.3-0.2,2.7-0.5,4.1-0.7C239.5,301.4,225,286.5,224.8,284.9z"/>
	<path class="st0" d="M377.1,440.2l2.3-2.4c0,0-14.2-13.6-34-32.8c-1.4-0.1-2.9-0.2-4.4-0.3C361.8,425.2,377.1,440.2,377.1,440.2z"
		/>
	<path class="st0" d="M86.7,162.6c0.1-0.1-0.3-0.8-1-1.5c-0.7-0.7-33.2-32.1-33.3-31.9c-0.1,0.1,32.2,31.8,32.9,32.4
		C85.9,162.3,86.5,162.7,86.7,162.6z"/>
	<path class="st0" d="M93.1,183c0.1-0.1-0.4-0.8-1.2-1.4c-0.8-0.6-36.3-28.5-36.4-28.4c-0.1,0.1,35.2,28.3,36,28.9
		C92.2,182.7,93,183.1,93.1,183z"/>
	<path class="st0" d="M104.2,158c0.1-0.1-0.3-0.8-0.9-1.6c-0.6-0.7-29.8-35.2-30-35.1c-0.1,0.1,28.9,34.8,29.5,35.5
		C103.5,157.6,104.1,158.1,104.2,158z"/>
	<path class="st0" d="M183.6,273c-0.8-0.5-40.4-22.3-40.5-22.2c-0.1,0.2,39.3,22.3,40.2,22.7c0.8,0.5,1.6,0.7,1.7,0.6
		C185,274,184.4,273.4,183.6,273z"/>
	<path class="st0" d="M214.5,260.3c0.2-0.1-0.1-0.8-0.6-1.7c-0.5-0.8-24.6-39.1-24.8-39c-0.2,0.1,23.7,38.5,24.2,39.3
		S214.4,260.4,214.5,260.3z"/>
	<path class="st0" d="M170.1,259.2c0.1-0.2-0.5-0.7-1.4-1.1c-0.8-0.5-40.4-22.3-40.5-22.2c-0.1,0.2,39.3,22.3,40.2,22.7
		C169.2,259.1,170,259.4,170.1,259.2z"/>
	<path class="st0" d="M199.7,245.3c0.2-0.1-0.1-0.8-0.6-1.7c-0.5-0.8-24.6-39.1-24.8-39c-0.2,0.1,23.7,38.5,24.2,39.3
		C199,244.9,199.5,245.4,199.7,245.3z"/>
	<path class="st0" d="M154.2,244.2c0.1-0.2-0.5-0.7-1.4-1.1c-0.8-0.5-40.4-22.3-40.5-22.2c-0.1,0.2,39.3,22.3,40.2,22.7
		C153.4,244.1,154.1,244.4,154.2,244.2z"/>
	<path class="st0" d="M183.8,230.4c0.2-0.1-0.1-0.8-0.6-1.7c-0.5-0.8-24.6-39.1-24.8-39c-0.2,0.1,23.7,38.5,24.2,39.3
		C183.1,229.9,183.7,230.5,183.8,230.4z"/>
	<path class="st0" d="M138.3,228.8c0.1-0.2-0.5-0.7-1.4-1.1c-0.8-0.5-40.4-22.3-40.5-22.2c-0.1,0.2,39.3,22.3,40.2,22.7
		C137.5,228.7,138.2,228.9,138.3,228.8z"/>
	<path class="st0" d="M167.9,214.9c0.2-0.1-0.1-0.8-0.6-1.7c-0.5-0.8-24.6-39.1-24.8-39c-0.2,0.1,23.7,38.5,24.2,39.3
		C167.2,214.4,167.8,215,167.9,214.9z"/>
	<path class="st0" d="M123.3,214c0.1-0.2-0.5-0.7-1.4-1.1c-0.8-0.5-40.4-22.3-40.5-22.2c-0.1,0.2,39.3,22.3,40.2,22.7
		C122.4,213.9,123.2,214.1,123.3,214z"/>
	<path class="st0" d="M127.4,159.5c-0.2,0.1,23.7,38.5,24.2,39.3c0.5,0.8,1.1,1.4,1.2,1.3c0.2-0.1-0.1-0.8-0.6-1.7
		C151.7,197.6,127.6,159.4,127.4,159.5z"/>
	<path class="st0" d="M107.9,199.4c0.1-0.2-0.5-0.7-1.3-1.2c-0.8-0.5-39.5-24-39.6-23.8c-0.1,0.2,38.4,23.9,39.2,24.4
		C107.1,199.3,107.8,199.6,107.9,199.4z"/>
	<path class="st0" d="M137.8,185.7c0.2-0.1-0.1-0.8-0.6-1.7c-0.5-0.8-24.6-39.1-24.8-39c-0.2,0.1,23.7,38.5,24.2,39.3
		C137.1,185.2,137.7,185.8,137.8,185.7z"/>
	<path class="st0" d="M122.6,170.3c0.2-0.1-0.2-0.8-0.7-1.6c-0.6-0.8-26.5-37.8-26.6-37.7c-0.2,0.1,25.5,37.3,26.1,38.1
		C121.8,169.8,122.4,170.4,122.6,170.3z"/>
	<path class="st0" d="M172.2,112c-0.1,5.3-0.7,10.3-0.6,14.7c0.2,5.2,2,11.1,7.2,10.3c4.9-1.3,5.4-6,4.7-9.7
		C182.4,121.8,176.8,118.5,172.2,112z"/>
	<path class="st0" d="M167.6,133.6c4.1-2.9,3-7.6,1-10.7c-3-4.8-8.1-7.5-14.8-11.9c1,6.4,1.7,11.4,3.4,15.5
		C159.2,131.4,163,136.2,167.6,133.6z"/>
	<path class="st0" d="M186.6,129.4c-2,6.2-3.7,10.9-4,15.3c-0.4,5.2,0.7,11.2,6,11.1c5-0.7,6.1-5.4,5.8-9.1
		C193.8,141.1,190.5,136.3,186.6,129.4z"/>
	<path class="st0" d="M197.4,147.8c-2,6.2-3.7,10.9-4,15.3c-0.4,5.2,0.7,11.2,6,11.1c5-0.7,6.1-5.4,5.8-9.1
		C204.6,159.6,201.3,154.8,197.4,147.8z"/>
	<path class="st0" d="M221.1,211.1c1-0.1,1.8-0.4,2.4-0.8c2.9-1.6,3.6-5.3,3.4-8.3c-0.5-5.6-3.8-10.3-7.7-17.3c0,0,0,0,0,0.1
		c0,0,0,0,0,0c-2,6.2-3.7,10.9-4,15.3C214.7,205.3,215.8,211.3,221.1,211.1z"/>
	<path class="st0" d="M237.7,220.5c-0.5-5.6-3.8-10.3-7.7-17.3c0,0,0,0,0,0.1c0,0,0,0,0,0c-2,6.2-3.7,10.9-4,15.3
		c-0.4,5.2,0.7,11.2,6,11.1c1-0.1,1.8-0.4,2.4-0.8C237.3,227.2,238,223.5,237.7,220.5z"/>
	<path class="st0" d="M208.3,166.3C208.3,166.3,208.3,166.3,208.3,166.3C208.3,166.3,208.3,166.3,208.3,166.3
		c-2,6.2-3.7,10.9-4.1,15.4c-0.4,5.2,0.7,11.2,6,11.1c1-0.1,1.8-0.4,2.4-0.8c2.9-1.6,3.6-5.3,3.4-8.3
		C215.5,178,212.2,173.2,208.3,166.3z"/>
	<path class="st0" d="M242.8,248c5-0.7,6.1-5.4,5.8-9.1c-0.5-5.6-3.8-10.3-7.7-17.3c-2,6.2-3.7,10.9-4,15.3
		C236.4,242.2,237.6,248.2,242.8,248z"/>
	<path class="st0" d="M256.2,255.1c0.3-4.6-1.9-8.9-4.3-15.1c-2.3,4.8-4.3,8.5-5.1,12.1c-1,4.2-0.7,9.3,3.6,9.8
		C254.5,261.8,256,258.2,256.2,255.1z"/>
	<path class="st0" d="M244.8,273.5c2,1.4,5.1,2.3,7.1-0.3c1.8-3-1.2-5.6-4.4-7.1c-2.7-1.3-5.9-1.9-10.1-2.8
		C240.2,267.9,241.8,271.4,244.8,273.5z"/>
	<path class="st0" d="M166,149.4c3.1,2.1,7.7,3.3,10.7-0.7c2.7-4.5-2.1-8.4-6.9-10.6c-4.1-1.8-9.7-3.6-14.7-5.3
		C158.9,139.9,161.3,146.2,166,149.4z"/>
	<path class="st0" d="M180.9,156.4c-4.1-1.8-9-2.6-15.4-3.8c4.3,6.7,6.8,12,11.5,15.1c3.1,2.1,7.7,3.3,10.7-0.7
		C190.4,162.5,185.7,158.6,180.9,156.4z"/>
	<path class="st0" d="M191.9,174.8c-4.1-1.8-9-2.6-15.4-3.8c0,0,0,0,0,0c0,0,0,0-0.1,0c4.3,6.7,6.8,12,11.5,15.1
		c2.5,1.7,6.1,2.8,8.9,1c0.7-0.4,1.3-1,1.9-1.8C201.4,180.8,196.7,177,191.9,174.8z"/>
	<path class="st0" d="M202.9,193.2c-4.1-1.8-9-2.6-15.4-3.8c0,0,0,0,0,0c0,0,0,0-0.1,0c4.3,6.7,6.8,12,11.5,15.1
		c2.5,1.7,6.1,2.8,8.9,1c0.7-0.4,1.3-1,1.9-1.8C212.4,199.2,207.7,195.3,202.9,193.2z"/>
	<path class="st0" d="M210,222.9c2.5,1.7,6.1,2.8,8.9,1c0.7-0.4,1.3-1,1.9-1.8c2.7-4.5-2.1-8.4-6.9-10.6c-4.1-1.8-9-2.6-15.4-3.8
		c0,0,0,0,0,0c0,0,0,0-0.1,0C202.7,214.5,205.3,219.7,210,222.9z"/>
	<path class="st0" d="M231.7,240.5c2.7-4.5-2.1-8.4-6.8-10.5c-4.1-1.8-9-2.6-15.4-3.8c4.3,6.8,6.8,12,11.5,15.1
		C224.1,243.3,228.7,244.5,231.7,240.5z"/>
	<path class="st0" d="M231.9,259.6c3.1,2.1,7.7,3.3,10.7-0.7c2.6-4.5-2.1-8.4-6.9-10.5c-4.1-1.8-9-2.6-15.4-3.8
		C224.7,251.3,227.3,256.5,231.9,259.6z"/>
	<path class="st0" d="M360.9,453.7l2.8-1.7c0,0-12.2-20.2-28.4-47.4c-1.1,0-2.2-0.1-3.4-0.1C348.4,432.3,360.9,453.7,360.9,453.7z"
		/>
	<path class="st0" d="M254.4,263.9c0,0-2.7,1.1-4.8,0.1c4,4.2,5,8.4,5,8.4s0.1,2.3-1,3.4c1.2,0.4,12.4,18.3,27.1,42.7
		c1.1-0.1,2.3-0.2,3.5-0.3C267.1,288.8,254.1,265.7,254.4,263.9z"/>
	<path class="st0" d="M153,109.8c0.2-0.1-0.1-0.8-0.6-1.7c-0.5-0.8-23.7-39.6-23.8-39.5c-0.2,0.1,22.8,39.1,23.3,39.9
		C152.3,109.3,152.8,109.9,153,109.8z"/>
	<path class="st0" d="M153.9,131.1c0.1-0.1-0.2-0.8-0.8-1.6c-0.6-0.8-27.6-37-27.7-36.9c-0.1,0.1,26.6,36.5,27.2,37.3
		C153.1,130.7,153.7,131.2,153.9,131.1z"/>
	<path class="st0" d="M171.2,109.9c0.2-0.1,0-0.9-0.4-1.7c-0.4-0.9-19.6-41.8-19.8-41.7c-0.2,0.1,18.8,41.1,19.2,42
		C170.5,109.3,171,110,171.2,109.9z"/>
	<path class="st0" d="M217.3,242.1c0.7,0.7,1.4,1.1,1.5,1c0.1-0.1-0.3-0.8-1-1.5c-0.7-0.7-33.2-32.1-33.3-32
		C184.3,209.8,216.6,241.5,217.3,242.1z"/>
	<path class="st0" d="M250.9,237.5c0.2-0.1,0.1-0.9-0.2-1.8c-0.3-0.9-13.6-44.1-13.8-44.1c-0.2,0.1,12.8,43.3,13.1,44.3
		C250.4,236.8,250.8,237.5,250.9,237.5z"/>
	<path class="st0" d="M206.8,223.9c0.7,0.7,1.4,1.1,1.5,1c0.1-0.1-0.3-0.8-1-1.5c-0.7-0.7-33.2-32.1-33.3-32
		C173.8,191.5,206.1,223.2,206.8,223.9z"/>
	<path class="st0" d="M239.6,217.6c0.3,0.9,0.7,1.6,0.8,1.6c0.2-0.1,0.1-0.9-0.2-1.8c-0.3-0.9-13.6-44.1-13.8-44.1
		C226.3,173.4,239.4,216.7,239.6,217.6z"/>
	<path class="st0" d="M195.4,205.2c0.7,0.7,1.4,1.1,1.5,1c0.1-0.1-0.3-0.8-1-1.5c-0.7-0.7-33.2-32.1-33.3-32
		C162.4,172.9,194.7,204.6,195.4,205.2z"/>
	<path class="st0" d="M229.1,200.6c0.2-0.1,0.1-0.9-0.2-1.8c-0.3-0.9-13.6-44.1-13.8-44.1c-0.2,0.1,12.8,43.3,13.1,44.3
		C228.5,199.9,228.9,200.6,229.1,200.6z"/>
	<path class="st0" d="M185.6,187.2c0.1-0.1-0.3-0.8-1-1.5c-0.7-0.7-33.2-32.1-33.3-32c-0.1,0.1,32.2,31.8,32.9,32.4
		C184.8,186.9,185.4,187.3,185.6,187.2z"/>
	<path class="st0" d="M217.8,181.5c0.2-0.1,0.1-0.9-0.2-1.8c-0.3-0.9-13.6-44.1-13.8-44.1c-0.2,0.1,12.8,43.3,13.1,44.3
		C217.2,180.9,217.6,181.6,217.8,181.5z"/>
	<path class="st0" d="M173.4,168c0.7,0.7,1.4,1.1,1.5,1c0.1-0.1-0.3-0.8-1-1.5c-0.7-0.7-33.2-32.1-33.3-32
		C140.4,135.7,172.7,167.3,173.4,168z"/>
	<path class="st0" d="M207.1,163.3c0.2-0.1,0.1-0.9-0.2-1.8c-0.3-0.9-13.6-44.1-13.8-44.1c-0.2,0.1,12.8,43.3,13.1,44.3
		C206.6,162.7,206.9,163.4,207.1,163.3z"/>
	<path class="st0" d="M130.9,116.1c-0.1,0.1,30.8,33.1,31.5,33.8c0.7,0.7,1.3,1.2,1.5,1c0.1-0.1-0.3-0.8-1-1.5
		C162.2,148.7,131.1,116,130.9,116.1z"/>
	<path class="st0" d="M196.4,145.4c0.2-0.1,0.1-0.9-0.2-1.8c-0.3-0.9-13.6-44.1-13.8-44.1c-0.2,0.1,12.8,43.3,13.1,44.3
		C195.8,144.8,196.2,145.5,196.4,145.4z"/>
	<path class="st0" d="M185.6,126.6c0.2-0.1,0.1-0.9-0.3-1.8c-0.3-0.9-15.7-43.4-15.9-43.4c-0.2,0.1,14.9,42.7,15.2,43.6
		C185,125.9,185.5,126.6,185.6,126.6z"/>
	<path class="st0" d="M249.3,108.5c5,0,6.8-4.4,7.1-8.1c0.4-5.6-4.1-10.3-6.9-17.8c-1.5,5.1-3.4,9.7-4.4,14.1
		C243.9,101.8,244.1,107.9,249.3,108.5z"/>
	<path class="st0" d="M231.3,92.6c0.7,5.2,3,10.8,8.1,9.6c4.7-1.7,4.9-6.5,3.8-10.1c-1.6-5.4-5.9-9.3-11.1-15.4
		C231.4,83.2,230.7,88.2,231.3,92.6z"/>
	<path class="st0" d="M250.9,116.9c-1.8,4.9-2.3,11,2.8,12.3c5,0.6,7.3-3.6,8-7.2c1-5.5-1-11-2.8-18.7
		C255.3,108.6,252.4,112.7,250.9,116.9z"/>
	<path class="st0" d="M259.2,149.8c5,0.6,7.3-3.5,8-7.2c1-5.5-1-11-2.8-18.7c-3.5,5.4-6.4,9.5-8,13.7
		C254.6,142.5,254.1,148.6,259.2,149.8z"/>
	<path class="st0" d="M270.3,191.2c1,0.1,1.8,0.1,2.6-0.1c3.3-0.8,4.9-4.1,5.5-7.1c1-5.5-1-11-2.8-18.7c0,0,0,0,0,0.1c0,0,0,0,0,0
		c-3.5,5.4-6.4,9.5-8,13.7C265.7,183.8,265.2,189.9,270.3,191.2z"/>
	<path class="st0" d="M281,185.9C281,185.9,281,185.9,281,185.9c-3.6,5.4-6.4,9.5-8,13.7c-1.8,4.9-2.3,11,2.8,12.3
		c1,0.1,1.8,0.1,2.6-0.1c3.3-0.8,4.9-4.1,5.5-7.1C284.9,199.1,283,193.6,281,185.9C281.1,185.9,281.1,185.9,281,185.9z"/>
	<path class="st0" d="M264.8,170.5c1,0.1,1.8,0.1,2.6-0.1c3.3-0.8,4.9-4.1,5.5-7.1c1-5.5-1-11-2.8-18.7c0,0,0,0,0,0.1c0,0,0,0,0,0
		c-3.5,5.4-6.4,9.5-8,13.7C260.2,163.1,259.7,169.2,264.8,170.5z"/>
	<path class="st0" d="M278.7,220.2c-1.8,4.9-2.3,11,2.8,12.3c5,0.6,7.3-3.5,8-7.2c1-5.5-1-11-2.8-18.7
		C283.1,211.9,280.2,216,278.7,220.2z"/>
	<path class="st0" d="M292.5,242.8c1.5-4.4,0.5-9.1-0.1-15.7c-3.5,4-6.4,7-8.1,10.3c-2,3.8-3.2,8.7,0.9,10.4
		C289.1,248.9,291.5,245.8,292.5,242.8z"/>
	<path class="st0" d="M283.6,259.2c2.5-2.4,0.3-5.7-2.3-8c-2.2-1.9-5.2-3.4-9-5.3c1.4,5.1,2,8.9,4.4,11.7
		C278.3,259.5,280.9,261.1,283.6,259.2z"/>
	<path class="st0" d="M244.2,119.1c3.8-3.7,0.2-8.7-3.8-12c-3.4-2.8-8.4-6-12.8-9c1.7,7.8,2.4,14.5,6,18.8
		C236.1,119.8,240.2,122.2,244.2,119.1z"/>
	<path class="st0" d="M250,139.8c3.8-3.7,0.2-8.7-3.8-12c-3.4-2.8-8-4.9-13.8-7.8c2.3,7.6,3.4,13.3,7.1,17.6
		C241.9,140.4,246,142.8,250,139.8z"/>
	<path class="st0" d="M251.9,148.4c-3.4-2.8-8-4.9-13.8-7.8c0,0,0,0,0,0c0,0,0,0-0.1,0c2.3,7.6,3.4,13.3,7.1,17.6
		c2,2.3,5.1,4.3,8.3,3.4c0.8-0.2,1.5-0.6,2.3-1.2C259.4,156.7,255.9,151.7,251.9,148.4z"/>
	<path class="st0" d="M257.6,169c-3.4-2.8-8-4.9-13.8-7.8c0,0,0,0,0,0c0,0,0,0-0.1,0c2.3,7.6,3.4,13.3,7.1,17.6
		c2,2.3,5.1,4.3,8.3,3.4c0.8-0.2,1.5-0.6,2.3-1.2C265.2,177.4,261.6,172.4,257.6,169z"/>
	<path class="st0" d="M264.8,202.8c0.8-0.2,1.5-0.6,2.3-1.2c3.8-3.7,0.2-8.7-3.8-12c-3.4-2.8-8-4.9-13.8-7.8c0,0,0,0,0,0
		c0,0,0,0-0.1,0c2.3,7.6,3.4,13.3,7.1,17.6C258.5,201.8,261.6,203.8,264.8,202.8z"/>
	<path class="st0" d="M272.8,222.3c3.8-3.7,0.2-8.7-3.8-12c-3.4-2.8-8-4.9-13.8-7.8c2.3,7.6,3.4,13.3,7.1,17.6
		C264.7,223,268.8,225.4,272.8,222.3z"/>
	<path class="st0" d="M278.5,242.9c3.8-3.7,0.2-8.7-3.8-12c-3.4-2.8-8-4.9-13.8-7.8c2.3,7.6,3.4,13.3,7.1,17.6
		C270.4,243.6,274.5,246,278.5,242.9z"/>
	<path class="st0" d="M288.5,250.9c0,0-2.9,0.3-4.6-1.1c2.7,5.1,2.6,9.4,2.6,9.4s-0.6,2.2-1.8,3c1.2,0.7,8,24.2,16.6,54.9
		c1-0.1,2.1-0.1,3.1-0.1C294.9,281.3,287.7,252.6,288.5,250.9z"/>
	<path class="st0" d="M340.7,462.1l3.2-0.9c0,0-6.9-24.6-15.8-56.9c-1,0-2-0.1-2.9-0.1C333.9,436.8,340.7,462.1,340.7,462.1z"/>
	<path class="st0" d="M231.6,75.4c0.2-0.1,0.1-0.8-0.1-1.8c-0.3-0.9-12.3-44.5-12.5-44.5c-0.2,0,11.6,43.7,11.8,44.6
		C231.1,74.7,231.4,75.4,231.6,75.4z"/>
	<path class="st0" d="M226.8,96.2c0.2-0.1,0-0.9-0.3-1.8c-0.3-0.9-16.8-43-16.9-43c-0.2,0.1,16,42.3,16.3,43.2
		C226.2,95.5,226.6,96.2,226.8,96.2z"/>
	<path class="st0" d="M249.1,80.3c0.2,0,0.2-0.8,0-1.8c-0.2-1-7.8-45.5-8-45.5c-0.2,0,7.2,44.6,7.3,45.6
		C248.7,79.6,248.9,80.3,249.1,80.3z"/>
	<path class="st0" d="M259.6,221.4c0.2-0.1-0.1-0.9-0.6-1.7c-0.5-0.8-23.5-39.8-23.6-39.7c-0.2,0.1,22.6,39.2,23.1,40
		C258.9,220.9,259.4,221.5,259.6,221.4z"/>
	<path class="st0" d="M292.1,224.5c0.2,0,0.3-0.8,0.3-1.8c0-1-1.4-46.2-1.6-46.2c-0.2,0,0.9,45.2,0.9,46.2
		C291.8,223.7,291.9,224.5,292.1,224.5z"/>
	<path class="st0" d="M254.4,201c0.2-0.1-0.1-0.9-0.6-1.7c-0.5-0.8-23.5-39.8-23.6-39.7c-0.2,0.1,22.6,39.2,23.1,40
		C253.7,200.4,254.2,201.1,254.4,201z"/>
	<path class="st0" d="M286.9,204.1c0.2,0,0.3-0.8,0.3-1.8c0-1-1.4-46.2-1.6-46.2c-0.2,0,0.9,45.2,0.9,46.2
		C286.5,203.3,286.7,204.1,286.9,204.1z"/>
	<path class="st0" d="M248.3,180c0.2-0.1-0.1-0.8-0.6-1.7c-0.5-0.8-23.5-39.8-23.6-39.7c-0.2,0.1,22.6,39.2,23.1,40
		C247.6,179.5,248.2,180.1,248.3,180z"/>
	<path class="st0" d="M280.8,183.1c0.2,0,0.3-0.8,0.3-1.8c0-1-1.4-46.2-1.6-46.2c-0.2,0,0.9,45.2,0.9,46.2
		C280.5,182.3,280.7,183.1,280.8,183.1z"/>
	<path class="st0" d="M242.5,158.6c0.2-0.1-0.1-0.8-0.6-1.7c-0.5-0.8-23.5-39.8-23.6-39.7c-0.2,0.1,22.6,39.2,23.1,40
		C241.8,158.1,242.3,158.7,242.5,158.6z"/>
	<path class="st0" d="M275,161.7c0.2,0,0.3-0.8,0.3-1.8c0-1-1.4-46.2-1.6-46.2c-0.2,0,0.9,45.2,0.9,46.2
		C274.7,161,274.8,161.7,275,161.7z"/>
	<path class="st0" d="M212.8,96.9c-0.2,0.1,22.6,39.2,23.1,40c0.5,0.8,1,1.4,1.2,1.3c0.2-0.1-0.1-0.8-0.6-1.7
		C236,135.7,213,96.8,212.8,96.9z"/>
	<path class="st0" d="M269.6,141.3c0.2,0,0.3-0.8,0.3-1.8c0-1-1.4-46.2-1.6-46.2c-0.2,0,0.9,45.2,0.9,46.2
		C269.2,140.6,269.4,141.3,269.6,141.3z"/>
	<path class="st0" d="M231.2,117.9c0.2-0.1-0.1-0.9-0.5-1.7c-0.5-0.9-21.8-40.7-22-40.6c-0.2,0.1,20.9,40.1,21.4,40.9
		C230.5,117.4,231,118,231.2,117.9z"/>
	<path class="st0" d="M264,121.3c0.2,0,0.3-0.8,0.3-1.8c0-1-1.4-46.2-1.6-46.2c-0.2,0,0.9,45.2,0.9,46.2
		C263.6,120.5,263.8,121.3,264,121.3z"/>
	<path class="st0" d="M258.6,100.2c0.2,0,0.3-0.8,0.2-1.8c-0.1-1-3.6-46-3.8-46c-0.2,0,3,45.1,3.1,46.1
		C258.2,99.4,258.5,100.2,258.6,100.2z"/>
	<path class="st0" d="M397.7,410.4c-5.4-1.2-14.3-3.3-15.5-3.2c-1.3,5.3-2.5,10-4.6,17.3C380.2,422.2,387.1,416.1,397.7,410.4z"/>
	<path class="st0" d="M412.8,368.5c-4.5,22.7-9.1,36.8-11,42.9c-5.9,2.8-15.1,8.1-24.9,17.7c18.7,2.8,30.9,6.1,41,10.8
		c3.7-25.9,6-41.6,27.7-58.9C445.6,380.9,436.7,375,412.8,368.5z"/>
	<path class="st0" d="M242.3,410.4c10.7,5.7,17.5,11.8,20.1,14.1c-2.2-7.3-3.3-11.9-4.6-17.3C256.6,407.2,247.6,409.2,242.3,410.4z"
		/>
	<path class="st0" d="M227.2,368.5c-23.9,6.6-32.8,12.4-32.9,12.4c21.7,17.3,24,33,27.7,58.9c10.1-4.7,22.4-8,41-10.8
		c-9.8-9.6-19-14.9-24.9-17.7C236.2,405.3,231.7,391.2,227.2,368.5z"/>
</g>
</svg>
