<?xml version="1.0" encoding="utf-8"?>
<!-- Generator: Adobe Illustrator 22.1.0, SVG Export Plug-In . SVG Version: 6.00 Build 0)  -->
<svg version="1.1" id="Layer_1" xmlns="http://www.w3.org/2000/svg" xmlns:xlink="http://www.w3.org/1999/xlink" x="0px" y="0px"
	 viewBox="0 0 640 480" style="enable-background:new 0 0 640 480;" xml:space="preserve">
<style type="text/css">
	.st0{fill:#44557D;}
	.st1{fill:#BB002B;}
</style>
<title>XEM</title>
<g>
	<path class="st0" d="M113.8,210.4c-2,0-2.7,0.7-3.2,2.5c-4.7,18.1-9.7,36-14.7,53.9c-1,3.7-2,7.5-3.2,11.7c-0.5-1.5-1-2.2-1.2-3
		c-1.2-5-2.5-9.9-3.5-14.9c-3.7-15.9-7.7-32-11.4-48c-0.5-2-1.2-2.7-3.2-2.5c-4.7,0.2-9.7,0.2-14.4,0c-2,0-3,0.7-3.2,2.5
		c-4.7,18.9-9.4,37.8-14.2,56.6c-0.7,2.7-1.5,5.7-2.2,8.4c-1-1-1.2-1.7-1.5-2.5c-2.7-10.2-5.5-20.4-8-30.6
		c-2.7-10.7-5.5-21.4-8.4-32c-0.2-1-1.2-2.5-1.7-2.5c-6.5-0.2-12.7,0-19.6,0c1.7,5.5,3.2,10.4,4.7,15.4
		c7.5,24.1,14.9,48.4,22.4,72.5c0.5,1.7,1.5,2.5,3.5,2.5c5.2-0.2,10.2-0.2,15.4,0c2,0,3-0.7,3.5-2.5c3.7-15.4,7.5-30.6,11.2-46
		c1.5-6.2,3.2-12.4,4.7-18.6c0.2,0,0.5,0,0.7,0c5.7,22.4,11.2,44.7,16.9,67.1c5.7,0,11.2-0.2,16.6,0c2.7,0.2,4-1,4.7-3.5
		c7.2-23.6,14.7-47.2,22.1-70.8c1.7-5.2,3.2-10.4,5-16.1C125,210.4,119.5,210.7,113.8,210.4z"/>
	<path class="st0" d="M492.9,287.9c-7,0.2-8-0.7-8-7.7c0-14.4-0.2-29.1,0-43.5c0.2-14.7-8-22.1-18.9-25.8c-8-2.7-15.9-3-24.1-2.2
		c-7.5,0.5-14.7,2.2-21.1,6.5c-8.2,5.2-12.2,12.9-12.9,23.1c6.2,0,12.2,0,18.1,0c0.5,0,1.2-1.2,1.5-2c1.2-4.2,3.5-8,7.7-9.7
		c8.2-3.7,16.6-3.7,25.1-0.2c4.7,2,6.7,6.5,6.2,11.4c-0.5,4.5-3,7.5-8.2,8.7c-4.7,1-9.7,1.5-14.7,2.5c-7.5,1.2-15.2,2.2-22.4,4.5
		c-10.2,3-16.1,10.2-16.9,20.9c-1,12.4,3.2,21.4,13.9,26.1c15.9,7,31.1,4.5,45.5-5c1-0.5,1.7-1.2,3-2.2c1.2,6,4.5,9.9,10.2,10.4
		c5.2,0.5,10.4-0.5,15.9-1.2c0.5,0,1.5-1,1.5-1.7c0.2-4,0-8,0-11.9C493.7,287.9,493.2,287.9,492.9,287.9z M464.6,275
		c-0.7,5.2-5,8.4-9.7,10.4c-7.2,3.2-14.7,3.7-22.1,1c-4.5-1.5-8.4-4-8.7-9.2c-0.5-6.5,2-11.4,7.7-13.7c4-1.5,8.4-2.5,12.9-3.2
		c6.7-1.2,13.7-2.2,21.1-3.7C465.3,262.4,465.6,268.8,464.6,275z"/>
	<path class="st0" d="M305.8,245.7c-3.5-21.1-19.9-38.5-43.7-37.5c-15.7,0.5-27.6,7.7-35.5,21.1c-6.2,10.7-8,22.4-6.5,34.5
		c1.5,12.4,6.2,23.6,16.6,31.3c9.7,7.2,20.9,9.2,32.5,8c15.2-1.5,26.6-8.7,33-23.1c1-2.2,1.5-4.5,2.5-7.2c-6,0-11.2,0-16.4,0
		c-1.7,0-2.5,0.5-3.2,2.2c-3,7-8.2,11.2-15.7,12.7c-16.9,3.5-31.6-9.2-30.1-26.8c1.5,0,2.7,0,4.2,0c19.9,0,39.8,0,59.6,0
		c2.2,0,3.2-0.7,3-3C306.3,253.9,306.6,249.7,305.8,245.7z M239.5,247.7c0.5-8.7,3.7-15.9,10.9-20.4c8.2-5,16.6-5.5,24.8-0.2
		c7.5,4.7,10.4,11.9,11.2,20.6C270.8,247.7,255.4,247.7,239.5,247.7z"/>
	<path class="st0" d="M382.1,267.3c-3.2-0.2-4.2,0.7-5,3.7c-2.5,10.2-9.4,15.9-19.4,16.9c-9.2,1-18.1-4-22.1-12.9
		c-5.7-13.2-5.7-26.6,0.5-39.3c4.5-9.7,13.2-12.9,23.4-12.2c9.2,0.7,14.7,5.2,18.1,15.2c0.2,0.5,1,1.5,1.5,1.5c6,0,11.9,0,18.1,0
		c0-1.5,0-2.7-0.2-3.7c-2.2-10.7-7.7-18.6-17.6-23.6c-10.7-5.2-21.9-6.2-33.3-4c-12.2,2.2-21.4,8.9-27.3,19.6
		c-6.2,11.2-7.5,23.6-6,36c1.2,10.9,5.5,20.9,13.9,28.3c9.4,8.2,20.6,10.7,32.5,10.2c19.4-0.7,33-12.4,37-31.1
		c0.2-1.5,0.5-3,0.7-4.7C391.8,267.3,387.1,267.6,382.1,267.3z"/>
	<path class="st0" d="M554.5,225.1c0-4.7,0-9.7,0-14.4c0-1.5-0.7-2.2-2.2-2.5c-13.4-1.5-25.6,5.7-30.8,18.1c-0.2,0.2-0.5,0.7-0.7,1
		c-0.2,0-0.5,0-0.7-0.2c0-5.5,0-10.9,0-16.6c-6.2,0-11.9,0-18.1,0c0,30.1,0,60.1,0,90.2c5.5,0,10.7-0.2,16.1,0c2.7,0,3.5-1,3.2-3.5
		c0-12.7-0.2-25.6,0-38.3c0-4.2,0.5-8.7,1.5-12.9c2-8.4,6.7-15.2,15.4-18.4c4.2-1.5,8.7-1.7,13.2-1
		C552.8,227.3,554.5,227.6,554.5,225.1z"/>
	<path class="st0" d="M223.4,227.1c0-5.7,0-11.4,0-16.9c0-0.5-1-1.5-1.7-1.7c-14.7-1.7-25.8,6.2-30.8,16.6c-0.5,0.7-0.7,1.7-1.2,2.5
		c-0.2,0-0.5,0-0.5,0c0-5.5,0-10.9,0-16.6c-6.5,0-12.2,0-18.1,0c0,30.1,0,60.1,0,90.2c6.5,0,12.7,0,19.1,0c0-1,0.2-1.7,0.2-2.7
		c0-12.9,0-25.8,0-38.5c0-4.2,0.2-8.4,1.2-12.7c3.7-14.9,15.2-22.1,28.3-19.9C221.1,227.1,222.1,227.1,223.4,227.1z"/>
	<path class="st0" d="M139.6,300.9h0.2c0,0,0,0,0,0.2c5.7,0,10.9,0,15.9,0c0.7,0,1.5,0,2-0.2h1.2v-89.7h-19.6v89.7H139.6z"/>
	<path class="st1" d="M139.6,175.7c0,3.5,0,7,0,10.4v9.2h19.6v-19.6l0,0C152.5,175.7,146.3,175.7,139.6,175.7z"/>
	<path class="st0" d="M624.1,175.7c-2.7,0-3.5,0.7-3.5,3.5c0.2,13.2,0,26.1,0,39.3c0,1.2,0,2.2,0,3.7c-3.5-3-6.2-6.2-9.4-8.2
		c-18.9-11.2-46.7-6.7-56.4,18.6c-4.5,11.4-4.7,23.1-3,34.8c1.2,8.2,4.2,15.9,9.7,22.4c10.9,12.7,25.1,15.7,40.7,12.7
		c8-1.5,14.2-5.5,18.4-12.7c0.2-0.2,0.5-0.5,1.2-1c0,4.2,0,8.2,0,11.9c6.2,0,12.2,0,18.1,0c0-41.7,0-83.2,0-125
		C634.5,175.7,629.3,175.9,624.1,175.7z M595.5,287.9c-9.7,0-17.1-4.5-21.1-13.4c-6-12.7-5.7-25.8,0.2-38.5
		c4.5-9.4,12.7-13.4,23.1-12.9c9.9,0.5,16.9,5.7,20.4,14.9c1.5,3.7,2.2,7.7,3,11.7c0.2,1.5,0.2,3.2,0.5,5.2l0,0
		c0,6.2-1,11.9-3.5,17.6c0,0.2-0.2,0.2-0.2,0.5c-0.2,0.7-0.7,1.5-1.2,2.2C611.9,284,605,288.2,595.5,287.9z"/>
</g>
</svg>
