<?xml version="1.0" encoding="utf-8"?>
<!-- Generator: Adobe Illustrator 22.1.0, SVG Export Plug-In . SVG Version: 6.00 Build 0)  -->
<svg version="1.1" id="Layer_2_1_" xmlns="http://www.w3.org/2000/svg" xmlns:xlink="http://www.w3.org/1999/xlink" x="0px" y="0px"
	 viewBox="0 0 640 480" style="enable-background:new 0 0 640 480;" xml:space="preserve">
<style type="text/css">
	.st0{fill:#B0D35C;}
</style>
<g>
	<path class="st0" d="M269.8,139.4c-42.8,7.7-76.8,23.5-99.2,57c-14.5,21.7-21.3,46.3-19,72.7c5.2,60.6,45.3,99.3,84,106.1
		c-6.1-19.5-14.3-38.5-18-58.3c-9.7-52.9,6.5-107.2,49.2-131.9c53-30.6,136.9-14.8,155.3,67.1c7.5,33.4,4.2,66.3-8.9,98
		c-3.3,8-6.7,16-10.2,24.4c34.8-3.8,75-40.4,83.1-94.4c5.1-34-2.1-66.4-25.2-93.7c-22.6-26.8-53.2-39-90.2-47
		c6.3-5.6,9.9-9.9,14.4-12.7c39.7-24.2,80.1-21.3,121-3.2c56.5,25,83.9,84.4,77.7,146.8c-6.7,67.4-32.8,126.9-86.3,171
		c-50.5,41.6-106.7,49.3-167.4,23.7c-5.8-2.5-14.3-3.5-19.8-1.1c-63.9,28.8-122.6,18.9-173.6-26.9C75.2,381.7,48.1,310.5,57,228.6
		c8.3-76.9,72.7-117.2,132.2-118.9c23.5-0.7,44.9,4.6,64.6,17.1C258.3,129.8,262.3,133.5,269.8,139.4z M321,355.9
		c6.4-10.7,13-19.2,16.8-28.8c12.7-32,15.9-63.9-6.3-93.7c-10-13.6-14-12.8-24.6,1c-14.9,19.3-15.3,41.7-12.2,63.7
		C297.6,318.4,305.1,337.8,321,355.9z"/>
	<path class="st0" d="M478.8,71.9c-68.8-18.7-125.2-10-157,60.1c-23.5-12.6-30.1-56.5-16.8-83.1c19.3-38.7,65.5-56.1,110.7-46.2
		c28.5,6.3,50.5,22.4,60.4,51.4C477.8,59,477.7,64.5,478.8,71.9z"/>
</g>
</svg>
