<?xml version="1.0" encoding="utf-8"?>
<!-- Generator: Adobe Illustrator 22.1.0, SVG Export Plug-In . SVG Version: 6.00 Build 0)  -->
<svg version="1.1" id="Layer_2_1_" xmlns="http://www.w3.org/2000/svg" xmlns:xlink="http://www.w3.org/1999/xlink" x="0px" y="0px"
	 viewBox="0 0 640 480" style="enable-background:new 0 0 640 480;" xml:space="preserve">
<style type="text/css">
	.st0{fill:#D9D1C1;}
	.st1{fill:#C41230;}
	.st2{fill:#636466;}
</style>
<g>
	<path id="path3341" class="st0" d="M313.2,344c-49.3-31.1-2.2-120,74.2-175c8.2-5.9,16-11.4,23.6-16.6
		C404.5,78.4,367.5-1.4,332.8,0.6c-17.1,0.9-37,2.4-104.2,136.8c-9.1,18.1-105.9,206.7-6,248.9c20.5,8.7,70.8,5.9,115.2-34.5
		C328.8,351.1,320.5,348.6,313.2,344"/>
	<path id="path3343" class="st1" d="M594.3,83.9c-11.9-12-56.1-18.9-183.4,68.5c1.8,20.1,1.3,39.7-2.1,57.2
		c-13.6,70.1-41,114.7-71,142.1C440.5,359.1,641.6,131.4,594.3,83.9"/>
	<path id="path3345" class="st2" d="M238.8,290.4c-12.5-12.5-156-138.2-189.3-106.6c-32.8,31.1,15,118,58.5,172.2
		c98,122.4,169.9,142.4,204.3,109.2C329.2,448.9,341.5,392.4,238.8,290.4"/>
	<path id="path3347" class="st1" d="M238.8,290.4c-4.5-4.4-25.6-23.3-52.4-44.2c-14.5,56.6-15.8,118.2,36.2,140.1
		c15.7,6.6,48.6,6.5,83-11.7C292.7,351,271.7,323,238.8,290.4"/>
</g>
</svg>
