<?xml version="1.0" encoding="utf-8"?>
<!-- Generator: Adobe Illustrator 22.1.0, SVG Export Plug-In . SVG Version: 6.00 Build 0)  -->
<svg version="1.1" id="Layer_1" xmlns="http://www.w3.org/2000/svg" xmlns:xlink="http://www.w3.org/1999/xlink" x="0px" y="0px"
	 viewBox="0 0 640 480" style="enable-background:new 0 0 640 480;" xml:space="preserve">
<style type="text/css">
	.st0{fill:url(#SVGID_1_);}
	.st1{fill:url(#SVGID_2_);}
</style>
<g id="Layer_x0020_1">
	<g id="_921457168">
		
			<linearGradient id="SVGID_1_" gradientUnits="userSpaceOnUse" x1="30029.0781" y1="50020.1016" x2="31910.8711" y2="52753.3398" gradientTransform="matrix(5.744681e-02 0 0 5.744681e-02 -1883.8064 -3421.8811)">
			<stop  offset="0" style="stop-color:#5CC6D0"/>
			<stop  offset="1" style="stop-color:#0098DA"/>
		</linearGradient>
		<path class="st0" d="M476.9,134.9L357.5,15.5c-20.7-20.7-54.3-20.7-74.9,0L163.6,134.7c-7,7-7,18,0,25l36,36l24,22.3
			c7.2,6.6,18,6.6,25.2,0l48.1-44.4c13.3-12.3,33.6-12.3,46.7,0l48.1,44.4c7.2,6.6,18,6.6,25.2,0l24-22.3l36-35.8
			C483.6,153.1,483.6,141.8,476.9,134.9z"/>
		
			<linearGradient id="SVGID_2_" gradientUnits="userSpaceOnUse" x1="31220.1035" y1="52461.6172" x2="33465.4102" y2="56065.4063" gradientTransform="matrix(5.744681e-02 0 0 5.744681e-02 -1883.8064 -3421.8811)">
			<stop  offset="0" style="stop-color:#F0F0F0"/>
			<stop  offset="1" style="stop-color:#D7D7D7"/>
		</linearGradient>
		<path class="st1" d="M95.7,277.6l186.9,186.9c20.7,20.7,54.3,20.7,74.9,0l186.9-186.9c32.3-32.3,9.6-42-14.1-64.5L501,185.2
			c-7-6.8-18-6.6-25.2,0l-48.1,44.4c-13.3,12.3-33.6,12.3-46.7,0l-48.1-44.4c-7.1-6.6-18.1-6.6-25.2,0l-48.1,44.4
			c-13.3,12.3-33.6,12.3-46.7,0l-48.1-44.4c-7.1-6.6-18.1-6.6-25.2,0l-27,25C87.9,233.1,61.9,243.6,95.7,277.6z"/>
	</g>
</g>
</svg>
