<?xml version="1.0" encoding="utf-8"?>
<!-- Generator: Adobe Illustrator 22.1.0, SVG Export Plug-In . SVG Version: 6.00 Build 0)  -->
<svg version="1.1" id="Layer_1" xmlns="http://www.w3.org/2000/svg" xmlns:xlink="http://www.w3.org/1999/xlink" x="0px" y="0px"
	 viewBox="0 0 640 480" style="enable-background:new 0 0 640 480;" xml:space="preserve">
<style type="text/css">
	.st0{fill:#FF6700;}
	.st1{fill:#FFFFFF;}
</style>
<title>XEM</title>
<g transform="translate(-9.6659 -106.33)">
	<g>
		<g transform="matrix(.35278 0 0 -.35278 -186.45 261.78)">
			<g transform="matrix(1.4354 0 0 1.4355 -242.08 -126.56)">
				<path class="st0" d="M1625.8-552.7H749.9c-19.9,0-36,16.1-36,36v875.9c0,19.9,16.1,36,36,36h875.9c19.9,0,36-16.1,36-36v-875.9
					C1661.8-536.6,1645.7-552.7,1625.8-552.7"/>
				<g>
					<path class="st1" d="M1457.2,97h-74.6c-3.2,0-5.8-2.5-5.8-5.7v-340.2c0-3.1,2.6-5.6,5.8-5.6h74.6c3.2,0,5.8,2.5,5.8,5.6V91.3
						C1463,94.5,1460.4,97,1457.2,97"/>
					<path class="st1" d="M1202.6,97h-284c-3.2,0-5.8-2.5-5.8-5.7v-340.2c0-3.1,2.6-5.6,5.8-5.6h74.6c3.2,0,5.8,2.5,5.8,5.6v267
						c0,3.1,2.6,5.6,5.8,5.6h160.7c45.2,0,58-34.6,58-56.9v-215.7c0-3.1,2.6-5.6,5.8-5.6h74.5c3.2,0,5.8,2.5,5.8,5.6V-7.5
						c0,19.9-2.4,48.5-28.1,73.7C1254.5,92.5,1230,97,1202.6,97"/>
					<path class="st1" d="M1150.3-38.5H1072c-3.2,0-5.8-2.5-5.8-5.7v-204.8c0-3.1,2.6-5.6,5.8-5.6h78.3c3.2,0,5.8,2.5,5.8,5.6v204.8
						C1156.1-41,1153.5-38.5,1150.3-38.5"/>
				</g>
			</g>
		</g>
	</g>
</g>
</svg>
