<svg xmlns="http://www.w3.org/2000/svg" viewBox="0 0 640 480"><defs><style>.cls-1{fill:none;}.cls-2{fill:#dcf2f8;}.cls-3{fill:#e97e13;}.cls-4{fill:#ecb622;}.cls-5{fill:#596a74;}</style></defs><title>xlm_coin</title><g id="Layer_2" data-name="Layer 2"><g id="Bitcoin"><path class="cls-1" d="M230.67,364.32l-.33-.16Z"/><path class="cls-1" d="M225.3,360.83l-.59-.59Z"/><path class="cls-1" d="M228,362.85l-.25-.15Z"/><path class="cls-1" d="M229.39,363.66l-.36-.19Z"/><path class="cls-1" d="M221.43,356.44l-.37-.53Z"/><path class="cls-1" d="M222.3,357.57c-.17-.2-.32-.41-.48-.61C222,357.16,222.13,357.37,222.3,357.57Z"/><path class="cls-1" d="M223.23,358.68c-.21-.23-.4-.47-.59-.7C222.83,358.21,223,358.45,223.23,358.68Z"/><path class="cls-1" d="M224.23,359.77l-.6-.65Z"/><path class="cls-1" d="M233.31,365.46l-.34-.12Z"/><path class="cls-1" d="M232,364.93c-.11-.05-.23-.09-.34-.15C231.76,364.84,231.88,364.88,232,364.93Z"/><path class="cls-1" d="M237.2,366.63l-.24-.05Z"/><path class="cls-1" d="M241.1,367.26h0Z"/><path class="cls-1" d="M238.48,366.9l-.19,0Z"/><path class="cls-1" d="M235.87,366.3l-.25-.07Z"/><path class="cls-1" d="M220.63,355.29l-.35-.56Z"/><path class="cls-1" d="M234.56,365.9l-.27-.08Z"/><path class="cls-1" d="M239.79,367.11l-.16,0Z"/><path class="cls-1" d="M215.52,338.67c0-.11,0-.21,0-.32C215.51,338.46,215.51,338.56,215.52,338.67Z"/><path class="cls-1" d="M219.89,354.11l-.34-.59Z"/><path class="cls-1" d="M215.59,340c0-.11,0-.22,0-.33C215.58,339.81,215.59,339.92,215.59,340Z"/><path class="cls-1" d="M215.72,341.38l0-.33Z"/><path class="cls-1" d="M215.5,335.92a2.53,2.53,0,0,1,0-.28A2.53,2.53,0,0,0,215.5,335.92Z"/><path class="cls-1" d="M215.65,333.13a1.79,1.79,0,0,0,0-.23A1.79,1.79,0,0,1,215.65,333.13Z"/><path class="cls-1" d="M215.9,342.72c0-.12,0-.24-.05-.36C215.87,342.48,215.88,342.6,215.9,342.72Z"/><path class="cls-1" d="M215.55,334.53c0-.08,0-.16,0-.24C215.56,334.37,215.56,334.45,215.55,334.53Z"/><path class="cls-1" d="M215.48,337.29c0-.09,0-.18,0-.28C215.49,337.11,215.48,337.2,215.48,337.29Z"/><path class="cls-1" d="M218.05,350.47c-.08-.18-.14-.35-.21-.52C217.91,350.12,218,350.29,218.05,350.47Z"/><path class="cls-1" d="M218.6,351.7l-.24-.54Z"/><path class="cls-1" d="M219.22,352.92l-.29-.57Z"/><path class="cls-1" d="M217.55,349.21c-.06-.16-.11-.33-.17-.5C217.44,348.88,217.49,349.05,217.55,349.21Z"/><path class="cls-1" d="M217.11,347.94l-.15-.49Z"/><path class="cls-1" d="M216.4,345.36c0-.13-.06-.26-.08-.39C216.34,345.1,216.37,345.23,216.4,345.36Z"/><path class="cls-1" d="M216.12,344.05c0-.14,0-.27-.07-.4C216.08,343.78,216.1,343.91,216.12,344.05Z"/><path class="cls-1" d="M216.73,346.66l-.12-.45Z"/><path class="cls-1" d="M250.47,366.77l-.09,0Z"/><path class="cls-1" d="M272.9,356.48l-.47.33Z"/><path class="cls-1" d="M271.62,357.36l-.42.29Z"/><path class="cls-1" d="M270.35,358.21l-.39.25Z"/><path class="cls-1" d="M265.12,361.33l-.23.12Z"/><path class="cls-1" d="M267.73,359.84l-.29.17Z"/><path class="cls-1" d="M266.43,360.6l-.26.15Z"/><path class="cls-1" d="M275.43,354.65l-.57.42Z"/><path class="cls-1" d="M269.05,359l-.35.22Z"/><path class="cls-1" d="M274.17,355.57l-.52.38Z"/><path class="cls-1" d="M281.55,349.7l-.86.74Z"/><path class="cls-1" d="M282.73,348.67l-.91.8Z"/><path class="cls-1" d="M283.91,347.61l-1,.89Z"/><path class="cls-1" d="M285,346.58l-1,.93Z"/><path class="cls-1" d="M276.67,353.7l-.62.48Z"/><path class="cls-1" d="M277.91,352.73l-.68.53Z"/><path class="cls-1" d="M280.37,350.71c-.27.23-.54.46-.82.68C279.83,351.17,280.1,350.94,280.37,350.71Z"/><path class="cls-1" d="M279.14,351.73c-.25.2-.49.41-.74.6C278.65,352.14,278.89,351.93,279.14,351.73Z"/><path class="cls-1" d="M257.15,364.93l-.09,0Z"/><path class="cls-1" d="M249.1,367h0Z"/><path class="cls-1" d="M253.12,366.18h0Z"/><path class="cls-1" d="M215.79,331.74l0-.28Z"/><path class="cls-1" d="M251.8,366.5l-.07,0Z"/><path class="cls-1" d="M247.78,367.18h0Z"/><path class="cls-1" d="M246.44,367.3h0Z"/><path class="cls-1" d="M243.78,367.39h0Z"/><path class="cls-1" d="M245.09,367.37h0Z"/><path class="cls-1" d="M259.82,363.89l-.13.05Z"/><path class="cls-1" d="M263.79,362l-.19.09Z"/><path class="cls-1" d="M261.14,363.31l-.14.06Z"/><path class="cls-1" d="M254.48,365.8l-.08,0Z"/><path class="cls-1" d="M262.48,362.68l-.17.08Z"/><path class="cls-1" d="M258.49,364.43l-.11,0Z"/><path class="cls-1" d="M255.8,365.39l-.07,0Z"/><path class="cls-1" d="M242.43,367.35h0Z"/><path class="cls-1" d="M221.8,310.66l.24-.54Z"/><path class="cls-1" d="M223,307.93l.32-.66Z"/><path class="cls-1" d="M220.66,313.42l.19-.48Z"/><path class="cls-1" d="M217.39,323.26l.09-.3Z"/><path class="cls-1" d="M222.41,309.29c.08-.2.18-.39.26-.59C222.59,308.9,222.49,309.09,222.41,309.29Z"/><path class="cls-1" d="M219.6,316.21l.14-.39Z"/><path class="cls-1" d="M220.12,314.82l.18-.47Z"/><path class="cls-1" d="M217.78,321.85l.09-.31Z"/><path class="cls-1" d="M218.19,320.44c0-.11.07-.22.1-.33C218.26,320.22,218.23,320.33,218.19,320.44Z"/><path class="cls-1" d="M219.1,317.62c.05-.13.09-.25.13-.38C219.19,317.37,219.15,317.49,219.1,317.62Z"/><path class="cls-1" d="M218.63,319c0-.13.09-.25.13-.37C218.72,318.78,218.67,318.9,218.63,319Z"/><path class="cls-1" d="M221.22,312l.21-.49Z"/><path class="cls-1" d="M493.87,14.75a8.32,8.32,0,0,0-4.8-1.74c-2.66-.1-5.7-.17-9.08-.17,3.37,0,6.41.07,9.07.17A8.41,8.41,0,0,1,496.77,19c8.3,27.18,23.54,97.32-14.24,161.63a56.18,56.18,0,0,1-6.79,9.18L344.16,334.85a12.39,12.39,0,0,1-9.22,4,12.41,12.41,0,0,0,9.23-4L475.75,189.76a56.18,56.18,0,0,0,6.79-9.18C520.32,116.27,505.08,46.13,496.78,19A8.39,8.39,0,0,0,493.87,14.75Z"/><path class="cls-1" d="M223.66,306.59c.11-.24.23-.48.35-.72C223.89,306.11,223.77,306.35,223.66,306.59Z"/><path class="cls-1" d="M0,0V480H640V0ZM133.37,477.5a3.93,3.93,0,0,1-2.39-.8,4,4,0,0,1-.83-5.62l45.09-60.67a4,4,0,0,1,6.45,4.8L136.6,475.88A4,4,0,0,1,133.37,477.5Zm57.16-42.76L161,473.7a4,4,0,1,1-6.4-4.85l29.55-39a4,4,0,0,1,6.41,4.86ZM491.46,185.82a66.66,66.66,0,0,1-8,10.88l-64,70.58c6.31,11.25,39.31,77.91-16,154.25-2.68,3.71-8.35,2.45-8.85-2-2.08-18.35-10-53.37-39.8-81l-3,3.27a22.85,22.85,0,0,1-30.73,2.72l-6.8-5.24c-13.82,18.77-69.53,88.28-115.2,57.1-41.76-36.26,11.34-107.8,26-125.92l14,10.8a178.9,178.9,0,0,0-10.6,16.27A183,183,0,0,1,239,281.34l62.26,47.86a174.7,174.7,0,0,1-16.13,17.32,172.42,172.42,0,0,0,16.13-17.33L218.78,265.6a22.86,22.86,0,0,1-5.17-30.42l2.37-3.63c-34.1-21.41-69.68-20.2-87.85-17.56-4.43.64-7.09-4.52-4.19-8.06,58.75-71.55,130.07-58.36,144.43-54.79l52.17-80.07A65.72,65.72,0,0,1,329,60.53c55.5-55.78,130.7-59,160.46-57.85a18.73,18.73,0,0,1,17.18,13.25C515.37,44.41,531.31,118,491.46,185.82Z"/><path class="cls-1" d="M227.72,298.78l.66-1.17Z"/><path class="cls-1" d="M364.72,159a47.54,47.54,0,0,0,9.9,10.34c.65.51,1.31,1,2,1.45a47.65,47.65,0,0,0,56.23-76.9c-.65-.5-1.31-1-2-1.45a47.72,47.72,0,0,0-44.31-5.26l-.13.06a47.06,47.06,0,0,0-18.86,13.36h0c-.53.62-1.05,1.25-1.55,1.9a47.82,47.82,0,0,0-2.56,54.55C363.84,157.72,364.27,158.37,364.72,159Z"/><path class="cls-1" d="M224.31,305.25l.4-.81Z"/><path class="cls-1" d="M227,300l.59-1.06Z"/><path class="cls-1" d="M225.64,302.62l.5-.94Z"/><path class="cls-1" d="M226.33,301.32l.54-1Z"/><path class="cls-1" d="M225,303.93c.15-.29.29-.58.44-.86C225.26,303.35,225.12,303.64,225,303.93Z"/><path class="cls-1" d="M216.18,328.92a2.5,2.5,0,0,0,0-.29A2.5,2.5,0,0,1,216.18,328.92Z"/><path class="cls-1" d="M216.43,327.51c0-.09,0-.17,0-.25C216.47,327.34,216.45,327.42,216.43,327.51Z"/><path class="cls-1" d="M217,324.68c0-.1.05-.2.07-.3C217.09,324.48,217.06,324.58,217,324.68Z"/><path class="cls-1" d="M216.72,326.1c0-.11.05-.21.07-.31C216.77,325.89,216.74,326,216.72,326.1Z"/><path class="cls-1" d="M216,330.33l0-.25Z"/><path class="cls-2" d="M370.85,97.12a47.35,47.35,0,0,1,15.56-9.87A47.35,47.35,0,0,0,370.85,97.12Z"/><path class="cls-2" d="M367.54,100.62h0Z"/><path class="cls-2" d="M344.16,334.85,475.74,189.76a56.18,56.18,0,0,0,6.79-9.18C520.31,116.27,505.07,46.13,496.77,19A8.41,8.41,0,0,0,489.06,13c-2.66-.1-5.7-.17-9.07-.17-32.59.05-96,7.07-143.63,55a55.55,55.55,0,0,0-7.15,8.89L222.28,240.83a12.46,12.46,0,0,0,2.81,16.58l102.32,78.92a12.46,12.46,0,0,0,16.75-1.48ZM357.8,96.21a58,58,0,1,1,10.5,81.33A58.06,58.06,0,0,1,357.8,96.21Z"/><path class="cls-2" d="M430.85,92.45a47.72,47.72,0,0,0-44.31-5.26A47.72,47.72,0,0,1,430.85,92.45Z"/><path class="cls-2" d="M441.45,160.73a47.48,47.48,0,0,1-21.63,15.72,47.61,47.61,0,0,0,13-82.55A47.69,47.69,0,0,1,441.45,160.73Z"/><path class="cls-3" d="M285.09,346.52l0,.06-1,.93-.11.1-1,.89-.19.17-.91.8-.27.23-.86.74-.32.27c-.27.23-.54.46-.82.68s-.27.23-.41.34-.49.41-.74.6l-.49.4-.68.53-.56.44-.62.48-.62.47-.57.42-.69.5-.52.38-.75.53-.47.33-.81.55-.42.29-.85.56-.39.25c-.3.2-.61.38-.91.57l-.35.22-1,.59-.29.17-1,.59-.26.15-1.05.58-.23.12c-.36.2-.73.39-1.1.58l-.19.09-1.12.56-.17.08-1.17.55-.14.06-1.18.52-.13.05-1.2.49-.11,0-1.23.46-.09,0-1.26.42-.07,0-1.25.38-.08,0-1.28.35h-.06l-1.26.31-.07,0-1.26.25-.09,0c-.42.08-.85.15-1.28.21H249c-.42.07-.84.12-1.26.17h-.08l-1.26.11h-.09l-1.26.06h-1.43c-.41,0-.82,0-1.23,0h-.11c-.41,0-.82-.05-1.22-.09H241l-1.18-.14-.16,0-1.15-.19-.19,0c-.36-.07-.73-.15-1.09-.24l-.24-.05c-.37-.08-.73-.18-1.09-.28l-.25-.07-1.06-.33-.27-.08-1-.36-.34-.12-1-.41c-.11-.05-.23-.09-.34-.15-.33-.14-.66-.3-1-.46l-.33-.16-1-.5-.36-.19-1.05-.62-.25-.15-1.29-.84c-.4-.34-.78-.68-1.14-1l-.59-.59c-.16-.16-.33-.31-.48-.47l-.6-.65-.4-.44c-.21-.23-.4-.47-.59-.7s-.24-.27-.34-.41-.32-.41-.48-.61l-.39-.52-.37-.53-.43-.62-.35-.56c-.13-.21-.27-.41-.39-.62l-.34-.59c-.11-.2-.23-.4-.33-.6l-.29-.57-.33-.65-.24-.54c-.11-.23-.21-.46-.31-.69s-.14-.35-.21-.52-.2-.49-.29-.74-.11-.33-.17-.5-.19-.51-.27-.77l-.15-.49c-.08-.26-.16-.52-.23-.79l-.12-.45c-.07-.29-.15-.57-.21-.85s-.06-.26-.08-.39c-.07-.31-.14-.61-.2-.92,0-.14,0-.27-.07-.4-.05-.31-.11-.62-.15-.93,0-.12,0-.24-.05-.36,0-.32-.09-.65-.13-1l0-.33c0-.34-.07-.68-.1-1,0-.11,0-.22,0-.33,0-.34-.05-.69-.06-1,0-.11,0-.21,0-.32l0-1.06c0-.09,0-.18,0-.28,0-.36,0-.73,0-1.09a2.53,2.53,0,0,1,0-.28c0-.37,0-.74,0-1.11,0-.08,0-.16,0-.24,0-.39.05-.77.08-1.16a1.79,1.79,0,0,0,0-.23c0-.39.07-.78.12-1.16l0-.28c.05-.37.09-.75.15-1.13l0-.25.18-1.16a2.5,2.5,0,0,0,0-.29c.07-.37.13-.75.2-1.12,0-.09,0-.17,0-.25l.24-1.16c0-.11.05-.21.07-.31.08-.37.16-.74.25-1.11,0-.1.05-.2.07-.3.09-.37.19-.74.28-1.12l.09-.3q.14-.56.3-1.11l.09-.31c.1-.37.21-.74.32-1.1,0-.11.07-.22.1-.33.12-.36.23-.72.34-1.08,0-.13.09-.25.13-.37.11-.35.22-.7.34-1,.05-.13.09-.25.13-.38.12-.34.24-.69.37-1l.14-.39c.13-.33.25-.67.38-1l.18-.47.36-.93.19-.48c.13-.3.25-.6.37-.9l.21-.49c.12-.3.25-.59.37-.89l.24-.54c.12-.28.24-.55.37-.83s.18-.39.26-.59.24-.51.35-.77l.32-.66c.1-.23.21-.45.32-.68s.23-.48.35-.72l.3-.62.4-.81.26-.51c.15-.29.29-.58.44-.86s.16-.3.23-.45l.5-.94.19-.36.54-1L227,300l.59-1.06a2,2,0,0,0,.11-.2l.66-1.17.05-.08A178.9,178.9,0,0,1,239,281.26l-14-10.8c-14.63,18.12-67.73,89.66-26,125.92,45.67,31.18,101.38-38.33,115.2-57.1l-13.08-10.09A172.42,172.42,0,0,1,285.09,346.52Z"/><path class="cls-4" d="M227.72,298.78a2,2,0,0,1-.11.2L227,300l-.15.29-.54,1-.19.36-.5.94c-.07.15-.15.3-.23.45s-.29.57-.44.86l-.26.51-.4.81-.3.62c-.12.24-.24.48-.35.72s-.22.45-.32.68l-.32.66c-.11.26-.23.52-.35.77s-.18.39-.26.59-.25.55-.37.83l-.24.54c-.12.3-.25.59-.37.89l-.21.49c-.12.3-.24.6-.37.9l-.19.48-.36.93-.18.47c-.13.33-.25.67-.38,1l-.14.39c-.13.34-.25.69-.37,1,0,.13-.08.25-.13.38-.12.34-.23.69-.34,1,0,.12-.09.24-.13.37-.11.36-.22.72-.34,1.08,0,.11-.06.22-.1.33-.11.36-.22.73-.32,1.1l-.09.31q-.17.56-.3,1.11l-.09.3c-.09.38-.19.75-.28,1.12,0,.1-.05.2-.07.3-.09.37-.17.74-.25,1.11,0,.1,0,.2-.07.31l-.24,1.16c0,.08,0,.16,0,.25-.07.37-.13.75-.2,1.12a2.5,2.5,0,0,1,0,.29l-.18,1.16,0,.25c-.06.38-.1.76-.15,1.13l0,.28c0,.38-.08.77-.12,1.16a1.79,1.79,0,0,1,0,.23c0,.39-.06.77-.08,1.16,0,.08,0,.16,0,.24,0,.37,0,.74,0,1.11a2.53,2.53,0,0,0,0,.28c0,.36,0,.73,0,1.09,0,.1,0,.19,0,.28l0,1.06c0,.11,0,.21,0,.32,0,.34,0,.69.06,1,0,.11,0,.22,0,.33,0,.34.07.68.1,1l0,.33c0,.33.08.66.13,1,0,.12,0,.24.05.36,0,.31.1.62.15.93,0,.13,0,.26.07.4.06.31.13.61.2.92,0,.13.05.26.08.39s.14.56.21.85l.12.45c.07.27.15.53.23.79l.15.49c.08.26.18.52.27.77s.11.34.17.5.19.49.29.74.13.34.21.52.2.46.31.69l.24.54.33.65.29.57c.1.2.22.4.33.6l.34.59c.12.21.26.41.39.62l.35.56.43.62.37.53.39.52c.16.2.31.41.48.61s.22.27.34.41.38.47.59.7l.4.44.6.65c.15.16.32.31.48.47l.59.59c.36.35.74.69,1.14,1l1.29.84.25.15,1.05.62.36.19,1,.5.33.16c.32.16.65.32,1,.46.11.06.23.1.34.15l1,.41.34.12,1,.36.27.08,1.06.33.25.07c.36.1.72.2,1.09.28l.24.05c.36.09.73.17,1.09.24l.19,0,1.15.19.16,0,1.18.14h.13c.4,0,.81.07,1.22.09h.11c.41,0,.82,0,1.23,0h1.43l1.26-.06h.09l1.26-.11h.08c.42-.05.84-.1,1.26-.17h.06c.43-.06.86-.13,1.28-.21l.09,0,1.26-.25.07,0,1.26-.31h.06l1.28-.35.08,0,1.25-.38.07,0,1.26-.42.09,0,1.23-.46.11,0,1.2-.49.13-.05,1.18-.52.14-.06,1.17-.55.17-.08,1.12-.56.19-.09c.37-.19.74-.38,1.1-.58l.23-.12,1.05-.58.26-.15,1-.59.29-.17,1-.59.35-.22c.3-.19.61-.37.91-.57l.39-.25.85-.56.42-.29.81-.55.47-.33.75-.53.52-.38.69-.5.57-.42.62-.47.62-.48.56-.44.68-.53.49-.4c.25-.19.49-.4.74-.6s.28-.22.41-.34.55-.45.82-.68l.32-.27.86-.74.27-.23.91-.8.19-.17,1-.89.11-.1,1-.93,0-.06a174.7,174.7,0,0,0,16.13-17.32L239,281.34a183,183,0,0,0-10.53,16.19l-.05.08Z"/><path class="cls-4" d="M216,330.08l.18-1.16Z"/><path class="cls-4" d="M257.06,365l-1.26.42Z"/><path class="cls-4" d="M261,363.37l-1.18.52Z"/><path class="cls-4" d="M228.43,297.53l-.05.08Z"/><path class="cls-4" d="M259.69,363.94l-1.2.49Z"/><path class="cls-4" d="M215.51,335.64c0-.37,0-.74,0-1.11C215.53,334.9,215.52,335.27,215.51,335.64Z"/><path class="cls-4" d="M258.38,364.47l-1.23.46Z"/><path class="cls-4" d="M224.71,304.44l.26-.51Z"/><path class="cls-4" d="M225.41,303.07c.08-.15.16-.3.23-.45C225.57,302.77,225.49,302.92,225.41,303.07Z"/><path class="cls-4" d="M250.38,366.79c-.42.08-.85.15-1.28.21C249.53,366.94,250,366.87,250.38,366.79Z"/><path class="cls-4" d="M251.73,366.52l-1.26.25Z"/><path class="cls-4" d="M249,367c-.42.07-.84.12-1.26.17C248.2,367.13,248.62,367.08,249,367Z"/><path class="cls-4" d="M247.7,367.19l-1.26.11Z"/><path class="cls-4" d="M215.67,332.9c0-.39.07-.78.12-1.16C215.74,332.12,215.71,332.51,215.67,332.9Z"/><path class="cls-4" d="M255.73,365.42l-1.25.38Z"/><path class="cls-4" d="M226.14,301.68l.19-.36Z"/><path class="cls-4" d="M226.87,300.33,227,300Z"/><path class="cls-4" d="M254.4,365.83l-1.28.35Z"/><path class="cls-4" d="M253.06,366.19l-1.26.31Z"/><path class="cls-4" d="M215.49,337c0-.36,0-.73,0-1.09C215.49,336.28,215.49,336.65,215.49,337Z"/><path class="cls-4" d="M227.61,299a2,2,0,0,0,.11-.2A2,2,0,0,1,227.61,299Z"/><path class="cls-4" d="M281.82,349.47l-.27.23Z"/><path class="cls-4" d="M280.69,350.44l-.32.27Z"/><path class="cls-4" d="M262.31,362.76l-1.17.55Z"/><path class="cls-4" d="M278.4,352.33l-.49.4Z"/><path class="cls-4" d="M277.23,353.26l-.56.44Z"/><path class="cls-4" d="M276.05,354.18l-.62.47Z"/><path class="cls-4" d="M215.57,334.29c0-.39.05-.77.08-1.16C215.62,333.52,215.59,333.9,215.57,334.29Z"/><path class="cls-4" d="M285.09,346.52l0,.06Z"/><path class="cls-4" d="M215.82,331.46c.05-.37.09-.75.15-1.13C215.91,330.71,215.87,331.09,215.82,331.46Z"/><path class="cls-4" d="M282.92,348.5l-.19.17Z"/><path class="cls-4" d="M284,347.51l-.11.1Z"/><path class="cls-4" d="M279.55,351.39c-.13.12-.27.23-.41.34C279.28,351.62,279.42,351.51,279.55,351.39Z"/><path class="cls-4" d="M267.44,360l-1,.59Z"/><path class="cls-4" d="M274.86,355.07l-.69.5Z"/><path class="cls-4" d="M266.17,360.75l-1.05.58Z"/><path class="cls-4" d="M263.6,362.12l-1.12.56Z"/><path class="cls-4" d="M264.89,361.45c-.36.2-.73.39-1.1.58C264.16,361.84,264.53,361.65,264.89,361.45Z"/><path class="cls-4" d="M268.7,359.25l-1,.59Z"/><path class="cls-4" d="M270,358.46c-.3.2-.61.38-.91.57C269.35,358.84,269.66,358.66,270,358.46Z"/><path class="cls-4" d="M272.43,356.81l-.81.55Z"/><path class="cls-4" d="M273.65,356l-.75.53Z"/><path class="cls-4" d="M271.2,357.65l-.85.56Z"/><path class="cls-4" d="M226.44,361.86c-.4-.34-.78-.68-1.14-1C225.66,361.18,226,361.52,226.44,361.86Z"/><path class="cls-4" d="M216.05,343.65c-.05-.31-.11-.62-.15-.93C215.94,343,216,343.34,216.05,343.65Z"/><path class="cls-4" d="M222.64,358c-.12-.14-.24-.27-.34-.41C222.4,357.71,222.52,357.84,222.64,358Z"/><path class="cls-4" d="M221.82,357l-.39-.52Z"/><path class="cls-4" d="M218.76,318.66c.11-.35.22-.7.34-1C219,318,218.87,318.31,218.76,318.66Z"/><path class="cls-4" d="M219.23,317.24c.12-.34.24-.69.37-1C219.47,316.55,219.35,316.9,219.23,317.24Z"/><path class="cls-4" d="M221.06,355.91l-.43-.62Z"/><path class="cls-4" d="M224.71,360.24c-.16-.16-.33-.31-.48-.47C224.38,359.93,224.55,360.08,224.71,360.24Z"/><path class="cls-4" d="M227.73,362.7l-1.29-.84Z"/><path class="cls-4" d="M223.63,359.12l-.4-.44Z"/><path class="cls-4" d="M217.11,324.38c.09-.37.19-.74.28-1.12C217.3,323.64,217.2,324,217.11,324.38Z"/><path class="cls-4" d="M215.85,342.36c0-.32-.09-.65-.13-1C215.76,341.71,215.8,342,215.85,342.36Z"/><path class="cls-4" d="M216.79,325.79c.08-.37.16-.74.25-1.11C217,325.05,216.87,325.42,216.79,325.79Z"/><path class="cls-4" d="M219.74,315.82c.13-.33.25-.67.38-1C220,315.15,219.87,315.49,219.74,315.82Z"/><path class="cls-4" d="M216.32,345c-.07-.31-.14-.61-.2-.92C216.18,344.36,216.25,344.66,216.32,345Z"/><path class="cls-4" d="M217.38,348.71c-.09-.25-.19-.51-.27-.77C217.19,348.2,217.29,348.46,217.38,348.71Z"/><path class="cls-4" d="M217.48,323q.14-.56.3-1.11Q217.61,322.41,217.48,323Z"/><path class="cls-4" d="M217.84,350c-.1-.25-.2-.49-.29-.74C217.64,349.46,217.74,349.7,217.84,350Z"/><path class="cls-4" d="M218.36,351.16c-.11-.23-.21-.46-.31-.69C218.15,350.7,218.25,350.93,218.36,351.16Z"/><path class="cls-4" d="M217,347.45c-.08-.26-.16-.52-.23-.79C216.8,346.93,216.88,347.19,217,347.45Z"/><path class="cls-4" d="M216.61,346.21c-.07-.29-.15-.57-.21-.85C216.46,345.64,216.54,345.92,216.61,346.21Z"/><path class="cls-4" d="M218.29,320.11c.12-.36.23-.72.34-1.08C218.52,319.39,218.41,319.75,218.29,320.11Z"/><path class="cls-4" d="M220.28,354.73c-.13-.21-.27-.41-.39-.62C220,354.32,220.15,354.52,220.28,354.73Z"/><path class="cls-4" d="M217.87,321.54c.1-.37.21-.74.32-1.1C218.08,320.8,218,321.17,217.87,321.54Z"/><path class="cls-4" d="M219.55,353.52c-.11-.2-.23-.4-.33-.6C219.32,353.12,219.44,353.32,219.55,353.52Z"/><path class="cls-4" d="M218.93,352.35l-.33-.65Z"/><path class="cls-4" d="M229,363.47l-1.05-.62Z"/><path class="cls-4" d="M215.58,339.7c0-.34-.05-.69-.06-1C215.53,339,215.55,339.36,215.58,339.7Z"/><path class="cls-4" d="M239.63,367.09l-1.15-.19Z"/><path class="cls-4" d="M241,367.25l-1.18-.14Z"/><path class="cls-4" d="M222.67,308.7c.12-.25.24-.51.35-.77C222.91,308.19,222.79,308.45,222.67,308.7Z"/><path class="cls-4" d="M246.35,367.31l-1.26.06Z"/><path class="cls-4" d="M222,310.12c.12-.28.24-.55.37-.83C222.28,309.57,222.16,309.84,222,310.12Z"/><path class="cls-4" d="M237,366.58c-.37-.08-.73-.18-1.09-.28C236.23,366.4,236.59,366.5,237,366.58Z"/><path class="cls-4" d="M238.29,366.87c-.36-.07-.73-.15-1.09-.24C237.56,366.72,237.93,366.8,238.29,366.87Z"/><path class="cls-4" d="M242.32,367.35c-.41,0-.82-.05-1.22-.09C241.5,367.3,241.91,367.33,242.32,367.35Z"/><path class="cls-4" d="M243.66,367.39c-.41,0-.82,0-1.23,0C242.84,367.37,243.25,367.39,243.66,367.39Z"/><path class="cls-4" d="M245,367.38h0Z"/><path class="cls-4" d="M215.51,338.35l0-1.06Z"/><path class="cls-4" d="M223.34,307.27c.1-.23.21-.45.32-.68C223.55,306.82,223.44,307,223.34,307.27Z"/><path class="cls-4" d="M216.23,328.63c.07-.37.13-.75.2-1.12C216.36,327.88,216.3,328.26,216.23,328.63Z"/><path class="cls-4" d="M235.62,366.23l-1.06-.33Z"/><path class="cls-4" d="M224,305.87l.3-.62Z"/><path class="cls-4" d="M233,365.34l-1-.41Z"/><path class="cls-4" d="M231.65,364.78c-.33-.14-.66-.3-1-.46C231,364.48,231.32,364.64,231.65,364.78Z"/><path class="cls-4" d="M220.85,312.94c.13-.3.25-.6.37-.9C221.1,312.34,221,312.64,220.85,312.94Z"/><path class="cls-4" d="M221.43,311.55c.12-.3.25-.59.37-.89C221.68,311,221.55,311.25,221.43,311.55Z"/><path class="cls-4" d="M220.3,314.35l.36-.93Z"/><path class="cls-4" d="M230.34,364.16l-1-.5Z"/><path class="cls-4" d="M216.48,327.26l.24-1.16Z"/><path class="cls-4" d="M215.69,341.05c0-.34-.07-.68-.1-1C215.62,340.37,215.65,340.71,215.69,341.05Z"/><path class="cls-4" d="M234.29,365.82l-1-.36Z"/><path class="cls-5" d="M500.19,6.56a18.62,18.62,0,0,0-10.7-3.88C459.73,1.49,384.53,4.75,329,60.53a65.72,65.72,0,0,0-8.49,10.54l-52.17,80.07c-14.36-3.57-85.68-16.76-144.43,54.79-2.9,3.54-.24,8.7,4.19,8.06,18.17-2.64,53.75-3.85,87.85,17.56l-2.37,3.63a22.86,22.86,0,0,0,5.17,30.42l82.44,63.59.12-.14,13.06,10.1a1.47,1.47,0,0,1-.1.13l6.8,5.24a22.85,22.85,0,0,0,30.73-2.72l3-3.27c29.78,27.63,37.72,62.65,39.8,81,.5,4.45,6.17,5.71,8.85,2,55.28-76.34,22.28-143,16-154.25l64-70.58a66.66,66.66,0,0,0,8-10.88C531.31,118,515.37,44.41,506.67,15.93A18.75,18.75,0,0,0,500.19,6.56Zm-17.65,174a56.18,56.18,0,0,1-6.79,9.18L344.17,334.85a12.41,12.41,0,0,1-9.23,4,12.26,12.26,0,0,1-7.53-2.56L225.08,257.41a12.45,12.45,0,0,1-2.81-16.58L329.2,76.71a55.55,55.55,0,0,1,7.15-8.89C384,19.9,447.4,12.89,480,12.84c3.38,0,6.42.07,9.08.17A8.41,8.41,0,0,1,496.78,19C505.08,46.13,520.32,116.27,482.54,180.58Z"/><path class="cls-5" d="M225.09,257.41a12.46,12.46,0,0,1-2.81-16.58L329.21,76.71a55.55,55.55,0,0,1,7.15-8.89C384,19.91,447.4,12.89,480,12.84c-32.59.05-96,7.06-143.64,55a55.55,55.55,0,0,0-7.15,8.89L222.27,240.83a12.45,12.45,0,0,0,2.81,16.58l102.33,78.92a12.26,12.26,0,0,0,7.53,2.56,12.28,12.28,0,0,1-7.53-2.56Z"/><path class="cls-5" d="M301.34,329.05l-.12.14,13.08,10.09a1.47,1.47,0,0,0,.1-.13Z"/><path class="cls-5" d="M376.59,170.8a47.7,47.7,0,0,0,43.23,5.65A47.7,47.7,0,0,1,376.59,170.8Z"/><path class="cls-5" d="M366,102.52c.5-.65,1-1.28,1.55-1.9-.53.62-1.05,1.25-1.55,1.9a47.62,47.62,0,0,0-7.47,44.12A47.62,47.62,0,0,1,366,102.52Z"/><path class="cls-5" d="M367.62,162.73a46.5,46.5,0,0,1-2.9-3.72A46.5,46.5,0,0,0,367.62,162.73Z"/><path class="cls-5" d="M367.55,100.61a47.51,47.51,0,0,1,3.3-3.49A47.51,47.51,0,0,0,367.55,100.61Z"/><path class="cls-5" d="M358.52,146.64a47.71,47.71,0,0,0,4.91,10.43A47.71,47.71,0,0,1,358.52,146.64Z"/><path class="cls-5" d="M386.41,87.25l.13-.06Z"/><path class="cls-5" d="M368.3,177.54a58,58,0,1,0-10.5-81.33A58.07,58.07,0,0,0,368.3,177.54Zm-2.31-75c.5-.65,1-1.28,1.55-1.9h0a47.06,47.06,0,0,1,18.86-13.36l.13-.06a47.72,47.72,0,0,1,44.31,5.26c.66.46,1.32,1,2,1.45a47.65,47.65,0,0,1-56.23,76.9c-.66-.46-1.32-.94-2-1.45a47.54,47.54,0,0,1-9.9-10.34c-.45-.64-.88-1.29-1.29-1.94A47.82,47.82,0,0,1,366,102.52Z"/><path class="cls-5" d="M189.75,429.11a4,4,0,0,0-5.63.77l-29.55,39a4,4,0,1,0,6.4,4.85l29.56-39A4,4,0,0,0,189.75,429.11Z"/><path class="cls-5" d="M180.86,409.59a4,4,0,0,0-5.62.82l-45.09,60.67a4,4,0,0,0,.83,5.62,3.93,3.93,0,0,0,2.39.8,4,4,0,0,0,3.23-1.62l45.09-60.67A4,4,0,0,0,180.86,409.59Z"/></g></g></svg>