<?xml version="1.0" encoding="utf-8"?>
<!-- Generator: Adobe Illustrator 19.1.1, SVG Export Plug-In . SVG Version: 6.00 Build 0)  -->
<svg version="1.1" id="Layer_1" xmlns="http://www.w3.org/2000/svg" xmlns:xlink="http://www.w3.org/1999/xlink" x="0px" y="0px"
	 viewBox="0 0 640 480" style="enable-background:new 0 0 640 480;" xml:space="preserve">
<style type="text/css">
	.st0{fill-rule:evenodd;clip-rule:evenodd;fill:#8A2A8F;}
	.st1{fill-rule:evenodd;clip-rule:evenodd;fill:#FFFFFF;}
</style>
<g>
	<path class="st0" d="M414.6,373.7c-37.3,27.7-83.7,43.9-138.6,48.6h-70.2c-55.3-4.7-101.5-20.9-138.3-48.6
		C22.5,340.3,0,296.7,0,243c0-53,22.5-95.9,67.5-129.3c44.3-34.1,102.4-50.8,173.5-50.8c70.4,0,128.5,16.7,173.6,50.8
		c44.3,33.4,66.8,76.3,66.8,129.3C481.4,296.7,458.9,340.3,414.6,373.7L414.6,373.7z"/>
	<polygon class="st0" points="574.4,416.5 509,408.5 516.3,351.2 581.6,359.1 574.4,416.5 	"/>
	<polygon class="st0" points="639.7,68.7 527.9,54.9 528.6,314.1 577.3,320.7 639.7,68.7 	"/>
	<path class="st0" d="M381.2,198.7l-34.1,7.3c-5.1,1.4-18.9,11.6-42.8,31.2c-25.4,20.3-38.5,33.4-40.7,39.9l-1.5,18.1l-0.7,10.9
		l2.9,27.6l45,0.7l-0.7,13.8h-73.3l-65.4,0.7l2.2-13.1l21.1-0.7c10.9-0.7,17.4-2.2,19.6-4.4c1.5-1.4,2.2-10.2,2.2-25.4V296
		l-0.7-18.9c-1.5-4.4-13.1-20.3-35.6-47.9c-23.2-28.3-38.5-45-45.8-50.8l-42.1-5.8v-12.4c2.2-1.4,25.4-1.4,68.3-0.7
		c29.8-0.7,54.5-0.7,74.1,0.7l-1.5,10.2l-44.3,4.4c13.8,20.3,34.9,48.6,63.2,84.2c37-28.3,56.6-46.5,57.4-54.5l-37.8-5.8l-2.9-13.1
		h63.2l59.5,0.7L381.2,198.7L381.2,198.7z"/>
	<polygon class="st0" points="599.1,359.1 594,359.1 594,355.5 607.8,355.5 607.8,359.1 602.7,359.1 602.7,372.9 599.1,372.9 
		599.1,359.1 	"/>
	<polygon class="st0" points="615,360.6 615,372.9 611.4,372.9 611.4,355.5 615.8,355.5 620.9,364.2 625.9,355.5 629.6,355.5 
		629.6,372.9 625.9,372.9 625.9,360.6 620.9,369.3 620.1,369.3 615,360.6 	"/>
	<path class="st0" d="M414.6,373.7c-37.3,27.7-83.7,43.9-138.6,48.6h-70.2c-55.3-4.7-101.5-20.9-138.3-48.6
		C22.5,340.3,0,296.7,0,243c0-53,22.5-95.9,67.5-129.3c44.3-34.1,102.4-50.8,173.5-50.8c70.4,0,128.5,16.7,173.6,50.8
		c44.3,33.4,66.8,76.3,66.8,129.3C481.4,296.7,458.9,340.3,414.6,373.7L414.6,373.7z"/>
	<polygon class="st0" points="574.4,416.5 509,408.5 516.3,351.2 581.6,359.1 574.4,416.5 	"/>
	<polygon class="st0" points="639.7,68.7 527.9,54.9 528.6,314.1 577.3,320.7 639.7,68.7 	"/>
	<path class="st1" d="M381.2,198.7l-34.1,7.3c-5.1,1.4-18.9,11.6-42.8,31.2c-25.4,20.3-38.5,33.4-40.7,39.9l-1.5,18.1l-0.7,10.9
		l2.9,27.6l45,0.7l-0.7,13.8h-73.3l-65.4,0.7l2.2-13.1l21.1-0.7c10.9-0.7,17.4-2.2,19.6-4.4c1.5-1.4,2.2-10.2,2.2-25.4V296
		l-0.7-18.9c-1.5-4.4-13.1-20.3-35.6-47.9c-23.2-28.3-38.5-45-45.8-50.8l-42.1-5.8v-12.4c2.2-1.4,25.4-1.4,68.3-0.7
		c29.8-0.7,54.5-0.7,74.1,0.7l-1.5,10.2l-44.3,4.4c13.8,20.3,34.9,48.6,63.2,84.2c37-28.3,56.6-46.5,57.4-54.5l-37.8-5.8l-2.9-13.1
		h63.2l59.5,0.7L381.2,198.7L381.2,198.7z"/>
	<polygon class="st0" points="599.1,359.1 594,359.1 594,355.5 607.8,355.5 607.8,359.1 602.7,359.1 602.7,372.9 599.1,372.9 
		599.1,359.1 	"/>
	<polygon class="st0" points="615,360.6 615,372.9 611.4,372.9 611.4,355.5 615.8,355.5 620.9,364.2 625.9,355.5 629.6,355.5 
		629.6,372.9 625.9,372.9 625.9,360.6 620.9,369.3 620.1,369.3 615,360.6 	"/>
</g>
</svg>
