<?xml version="1.0" encoding="utf-8"?>
<!-- Generator: Adobe Illustrator 22.1.0, SVG Export Plug-In . SVG Version: 6.00 Build 0)  -->
<svg version="1.1" id="Layer_1" xmlns="http://www.w3.org/2000/svg" xmlns:xlink="http://www.w3.org/1999/xlink" x="0px" y="0px"
	 viewBox="0 0 640 480" style="enable-background:new 0 0 640 480;" xml:space="preserve">
<style type="text/css">
	.st0{fill:#D32323;}
</style>
<g>
	<path class="st0" d="M182.8,225.8l92.1,45.2c10.4,4.9,15.3,17.4,9.8,28.3c-2.7,6-8.2,9.8-14.2,11.4l-99.7,25.1
		c-11.4,2.7-22.9-3.8-25.6-15.3c0-1.1-0.5-2.2-0.5-2.7c-3.3-26.7,0-53.4,8.2-79c3.8-10.9,15.8-16.9,26.7-13.6
		C180.6,224.7,181.7,225.3,182.8,225.8z"/>
	<path class="st0" d="M219.3,416l68.6-76.3c7.6-8.7,21.2-9.8,30-2.2c4.9,4.4,7.6,10.4,7.1,16.9l-3.8,102.4
		c-0.5,11.4-10.4,20.7-21.8,20.2c-1.1,0-2.2,0-2.7-0.5c-26.2-4.4-51.8-14.7-73.5-30c-9.8-6.5-12-19.6-5.4-29.4
		C218.2,417.6,218.8,416.5,219.3,416z"/>
	<path class="st0" d="M382.8,314.1l97.5,31.6c10.9,3.3,17.4,15.3,13.6,26.7c-0.5,1.1-0.5,1.6-1.1,2.7c-11.4,24-28.3,45.8-49,62.7
		c-8.7,7.6-22.3,6-30-2.7c-0.5-0.5-1.1-1.6-1.6-2.2l-54.5-87.2c-6-9.8-3.3-22.9,6.5-28.9C369.7,313,376.8,312.4,382.8,314.1z"/>
	<path class="st0" d="M481.9,252l-98.6,28.3c-11.4,3.3-22.9-3.3-26.2-14.2c-1.6-6-0.5-12.5,2.7-18l57.2-85c6.5-9.8,19.6-12.5,29.4-6
		c0.5,0.5,1.6,1.1,2.2,1.6c20.2,18,36,39.8,46.3,64.8c4.4,10.9-0.5,22.9-11.4,27.8C483.5,251.4,482.5,252,481.9,252z"/>
	<path class="st0" d="M250.9,12.3c-17.4,4.9-34.3,10.9-50.7,18.5c-10.4,4.9-14.7,17.4-9.8,28.3c0,0.5,0.5,1.1,1.1,1.6L288,228
		c5.4,10.4,18.5,13.6,28.9,8.2c6.5-3.8,10.9-10.9,10.9-18.5V24.2c0-11.4-9.3-21.2-21.2-21.2c-0.5,0-1.1,0-1.6,0
		C286.3,4.6,268.4,7.9,250.9,12.3z"/>
</g>
</svg>
