<?xml version="1.0" encoding="utf-8"?>
<!-- Generator: Adobe Illustrator 22.1.0, SVG Export Plug-In . SVG Version: 6.00 Build 0)  -->
<svg version="1.1" id="Layer_1" xmlns="http://www.w3.org/2000/svg" xmlns:xlink="http://www.w3.org/1999/xlink" x="0px" y="0px"
	 viewBox="0 0 640 480" style="enable-background:new 0 0 640 480;" xml:space="preserve">
<style type="text/css">
	.st0{display:none;}
	.st1{display:inline;}
	.st2{fill:url(#SVGID_1_);}
	.st3{fill:#FFFFFF;}
	.st4{fill:#F7931A;}
	.st5{fill:#A6A29C;}
	.st6{fill:#97958F;}
	.st7{fill:#D6D3CE;}
	.st8{fill:#62625E;}
	.st9{opacity:0.14;fill:#DFDDD8;enable-background:new    ;}
	.st10{opacity:0.67;fill:#CCCBC5;enable-background:new    ;}
	.st11{fill:#A19E98;}
	.st12{opacity:0.2;fill:#F8F7F4;enable-background:new    ;}
	.st13{opacity:0.45;fill:#F1EFED;enable-background:new    ;}
	.st14{fill:#C5C4BD;}
	.st15{opacity:0.67;fill:#DDDCD9;enable-background:new    ;}
	.st16{opacity:0.67;fill:#F7F4F4;enable-background:new    ;}
	.st17{opacity:0.67;fill:#CBC8C4;enable-background:new    ;}
	.st18{opacity:0.35;fill:#DDDCD9;enable-background:new    ;}
	.st19{fill:#EFEEEB;}
	.st20{opacity:0.15;fill:#DDDCD9;enable-background:new    ;}
</style>
<g id="Layer_2_1_" class="st0">
	<g class="st1">
		<g>
			
				<linearGradient id="SVGID_1_" gradientUnits="userSpaceOnUse" x1="320" y1="480" x2="320" y2="0" gradientTransform="matrix(1 0 0 -1 0 480)">
				<stop  offset="0" style="stop-color:#FFFFFF"/>
				<stop  offset="1" style="stop-color:#D9D9D9"/>
			</linearGradient>
			<path class="st2" d="M638,480H2c-1.1,0-2-0.7-2-1.5V1.5C0,0.7,0.9,0,2,0h636c1.1,0,2,0.7,2,1.5v477C640,479.3,639.1,480,638,480z
				"/>
		</g>
		<g>
			<g>
				<path class="st3" d="M535.9,240.5c0.3,113.9-91.8,206.4-205.7,206.6c-113.8,0.3-206.4-91.8-206.6-205.7
					C123.3,127.5,215.4,35,329.2,34.7C443.1,34.6,535.6,126.6,535.9,240.5z"/>
				<path class="st3" d="M396.3,231.1c-1.9-0.6-2.3-3.2-0.6-4.3c10.6-7.2,16.9-18.7,15.1-36.4c-2.7-27-25.4-36.4-54.5-39.2
					c-1.3-0.1-2.2-1.2-2.2-2.4l-0.1-33.6c0-1.4-1.1-2.5-2.5-2.5h-18.4c-1.4,0-2.5,1.1-2.5,2.5l0.1,32.4c0,1.4-1.1,2.4-2.4,2.5
					c-4.5,0-9.1,0.1-13.7,0.2c-1.4,0-2.5-1.1-2.5-2.4l-0.1-32.6c0-1.4-1.1-2.5-2.5-2.5h-18.4c-1.4,0-2.5,1.1-2.5,2.5l0.1,33.4
					c0,1.3-1.1,2.4-2.4,2.5c-4.2,0.1-8.4,0.2-12.4,0.2v-0.1l-29.7,0.1c-1.4,0-2.5,1.1-2.5,2.5l0.1,19.9c0,1.4,1.1,2.5,2.5,2.5
					c4.8-0.1,14.7-0.2,14.5,0c9.3,0,12.4,5.3,13.4,9.9c0,0.2,0.1,0.3,0.1,0.5l0.1,41.1c0,1.3,0.9,2.3,2.2,2.4c0.1,0,0.2,0,0.3,0l0,0
					c-1.4,0-2.4,1.1-2.4,2.5l0.1,58.5c0,0.1,0,0.3,0,0.4c-0.5,3-2.3,7.5-8.7,7.5c0.2,0.2-10.3,0.1-14.9,0.1c-1.2,0-2.2,0.9-2.4,2.1
					l-3.8,22.9c-0.2,1.5,0.9,2.9,2.4,2.9l27.5-0.1c4.8,0,9.5,0,14.2,0.1c1.3,0,2.4,1.1,2.4,2.5l0.1,33.9c0,1.4,1.1,2.5,2.5,2.5h18.4
					c1.4,0,2.5-1.1,2.5-2.5l-0.1-33.4c0-1.4,1.1-2.5,2.5-2.5c4.7,0.1,9.2,0.1,13.7,0.1c1.4,0,2.4,1.1,2.4,2.4l0.1,33.2
					c0,1.4,1.1,2.5,2.5,2.5h18.4c1.4,0,2.5-1.1,2.5-2.5l-0.1-33.9c0-1.3,1-2.4,2.3-2.5c38-2.6,64.4-12.9,67.6-49
					C426.8,250.5,415.3,237.2,396.3,231.1z M312.7,180.1c0-1.3,1.1-2.4,2.4-2.5c15.2-0.4,52.1-2.8,52.2,23.2
					c0.1,24.9-36.9,23.6-52,23.4c-1.3,0-2.4-1.1-2.4-2.5L312.7,180.1z M315.4,299.1c-1.3,0-2.4-1.1-2.4-2.5l-0.1-46.4
					c0-1.3,1.1-2.4,2.4-2.5c17.9-0.4,62.9-3.3,63,25.5C378.4,300.8,333.3,299.2,315.4,299.1z"/>
			</g>
			<g>
				<g>
					<g>
						<path class="st4" d="M535.9,239.5c0.3,113.9-91.8,206.4-205.7,206.6c-113.8,0.3-206.4-91.8-206.6-205.7
							C123.3,126.5,215.4,34,329.2,33.7C443.1,33.6,535.6,125.6,535.9,239.5z"/>
						<g>
							<g>
								<path class="st3" d="M396.3,230.1c-1.9-0.6-2.3-3.2-0.6-4.3c10.6-7.2,16.9-18.7,15.1-36.4c-2.7-27-25.4-36.4-54.5-39.2
									c-1.3-0.1-2.2-1.2-2.2-2.4l-0.1-33.6c0-1.4-1.1-2.5-2.5-2.5h-18.4c-1.4,0-2.5,1.1-2.5,2.5l0.1,32.4c0,1.4-1.1,2.4-2.4,2.5
									c-4.5,0-9.1,0.1-13.7,0.2c-1.4,0-2.5-1.1-2.5-2.4l-0.1-32.6c0-1.4-1.1-2.5-2.5-2.5h-18.4c-1.4,0-2.5,1.1-2.5,2.5l0.1,33.4
									c0,1.3-1.1,2.4-2.4,2.5c-4.2,0.1-8.4,0.2-12.4,0.2v-0.1l-29.7,0.1c-1.4,0-2.5,1.1-2.5,2.5l0.1,19.9c0,1.4,1.1,2.5,2.5,2.5
									c4.8-0.1,14.7-0.2,14.5,0c9.3,0,12.4,5.3,13.4,9.9c0,0.2,0.1,0.3,0.1,0.5l0.1,41.1c0,1.3,0.9,2.3,2.2,2.4c0.1,0,0.2,0,0.3,0
									l0,0c-1.4,0-2.4,1.1-2.4,2.5l0.1,58.5c0,0.1,0,0.3,0,0.4c-0.5,3-2.3,7.5-8.7,7.5c0.2,0.2-10.3,0.1-14.9,0.1
									c-1.2,0-2.2,0.9-2.4,2.1l-3.8,22.9c-0.2,1.5,0.9,2.9,2.4,2.9l27.5-0.1c4.8,0,9.5,0,14.2,0.1c1.3,0,2.4,1.1,2.4,2.5l0.1,33.9
									c0,1.4,1.1,2.5,2.5,2.5h18.4c1.4,0,2.5-1.1,2.5-2.5l-0.1-33.4c0-1.4,1.1-2.5,2.5-2.5c4.7,0.1,9.2,0.1,13.7,0.1
									c1.4,0,2.4,1.1,2.4,2.4l0.1,33.2c0,1.4,1.1,2.5,2.5,2.5h18.4c1.4,0,2.5-1.1,2.5-2.5l-0.1-33.9c0-1.3,1-2.4,2.3-2.5
									c38-2.6,64.4-12.9,67.6-49C426.8,249.5,415.3,236.2,396.3,230.1z M312.7,179.1c0-1.3,1.1-2.4,2.4-2.5
									c15.2-0.4,52.1-2.8,52.2,23.2c0.1,24.9-36.9,23.6-52,23.4c-1.3,0-2.4-1.1-2.4-2.5L312.7,179.1z M315.4,298.1
									c-1.3,0-2.4-1.1-2.4-2.5l-0.1-46.4c0-1.3,1.1-2.4,2.4-2.5c17.9-0.4,62.9-3.3,63,25.5C378.4,299.8,333.3,298.2,315.4,298.1z"
									/>
							</g>
						</g>
					</g>
				</g>
			</g>
		</g>
	</g>
</g>
<g>
	<g>
		<path class="st5" d="M581.5,253.5c0,0,3.5,1.3,5.3,3.3c1.5,1.8,3.8,4.5,3.8,4.5l-13.4-3.3l1.5-5.3L581.5,253.5z"/>
		<path class="st5" d="M277.1,220.4c0,0-3.3,0.5-6.6,3c-3,2.5-5.6,6.3-5.6,6.3l13.9-4L277.1,220.4z"/>
		<path class="st5" d="M497,369.6c0,0-4,1.5-7.6,1c-3.5-0.5-7.8-1-7.8-1l7.6-7.6L497,369.6z"/>
		<path class="st6" d="M489.1,364.1c0,4.5,3.5,7.1,7.8,5.8l128.2-38.4c4.3-1.3,5.8-5.3,3.5-9.1l-38.1-61.1
			c-2.3-3.8-7.8-5.8-11.9-4.5l-83.6,25c-4.3,1.3-7.6,5.8-7.6,10.4L489.1,364.1z"/>
		<path class="st7" d="M578.5,256.8c4.3-1.3,4.3-3.3,0-4.5l-196.4-56.3c-4.3-1.3-11.1-1.3-15.4,0l-89.1,24.2c-4.3,1.3-4.3,3,0,4.3
			L479.8,282c4.3,1.3,11.1,1.3,15.4,0L578.5,256.8z"/>
		<path class="st8" d="M265.5,229c2.5-3.8,7.8-5.8,12.1-4.5L479.8,282c4.3,1.3,7.8,5.8,7.8,10.4l1.5,71.7c0,4.5-3.3,7.1-7.6,5.8
			l-249.2-75.7c-4.3-1.3-5.8-5.3-3.3-9.1L265.5,229z"/>
		<path class="st9" d="M229.1,284.8l15.4-23.7c33.6,20.4,89.9,52.3,132.5,63.4c38.6,10.1,82.5,13.4,111.6,14.4l0.5,25.2
			c0,4.5-3.3,7.1-7.6,5.8l-249.2-75.7C228.4,292.6,226.8,288.6,229.1,284.8z"/>
		<path class="st10" d="M229.1,284.8l0.5-0.8c0,2.5,1.5,4.5,4.5,5.3l249.2,75.7c2.3,0.8,4.5,0.3,5.8-1c0,4.3-3.3,7.1-7.6,5.6
			l-249.2-75.7C228.4,292.6,226.8,288.6,229.1,284.8z"/>
		<path class="st11" d="M495.2,281.8c0,0-4.8,2.5-5.3,4.3c-0.5,1.5-2.3,6.1-2.3,6.1s-0.5-3.3-2-5c-1.5-1.8-6.1-5-6.1-5
			s5.3,0.3,7.8,0C490.1,281.8,495.2,281.8,495.2,281.8z"/>
		<path class="st12" d="M487.9,301.5c19.9,19.9,50,30.5,81.5,25.5c18.7-3,35.1-11.1,48-22.5l11.1,17.9c2.3,3.8,0.8,7.8-3.5,9.1
			l-128.2,38.4c-4.3,1.3-7.8-1.3-7.8-5.8L487.9,301.5z"/>
		<path class="st10" d="M629.2,323.7c1.3,3.3-0.5,6.6-4,7.6L497,369.6c-3.3,1-6.1-0.5-7.3-3L629.2,323.7z"/>
		<path class="st13" d="M277.6,224.5c-4.3-1.3-4.3-3,0-4.3l89.1-24.2c4.3-1.3,11.4-1,15.4,0l160.3,45.9c-5,4.5-17.2,8.6-41.9,11.4
			c-30.5,3.3-69.2,4.8-109.8,3.3L277.6,224.5z"/>
		<path class="st14" d="M382.1,248.2c53.5-0.5,104-4,144.4-8.8c1.5-0.3,3-0.3,4.5-0.5l11.4,3.3c-5,4.5-17.2,8.6-41.9,11.4
			c-30.5,3.3-69.2,4.8-109.8,3.3l-67.4-19.2L382.1,248.2z"/>
		<path class="st15" d="M551.2,289.1c-23.7,3.8-45.2,11.4-63.4,21.2l-0.5-18.2c0-4.5,3.3-9.1,7.6-10.4l83.6-25
			c4.3-1.3,9.6,0.8,11.9,4.5l16.4,26.3C589.6,285.6,570.7,285.8,551.2,289.1z"/>
		<path class="st16" d="M512.9,263.6c18.7-1.5,34.1-8.3,46.4-16.7l19.2,5.6c4.3,1.3,4.3,3.3,0,4.5l-83.6,25
			c-4.3,1.3-11.1,1.3-15.4,0l-62.4-17.7C452,265.1,489.6,265.4,512.9,263.6z"/>
		<path class="st17" d="M488.1,318.4c-27.5-12.1-71.9-28.8-131.8-40.1c-51-9.8-87.3-15.1-111.3-17.9l20.2-31.3
			c2.5-3.8,7.8-5.8,12.1-4.5L479.5,282c4.3,1.3,7.8,5.8,7.8,10.4L488.1,318.4z"/>
		<polygon class="st18" points="440.7,357.3 388.9,341.6 346.8,244.2 382.1,254.3 		"/>
		<path class="st5" d="M337.9,245.2l-36.9-11.6l-18.4-6.1l-4.5-1.5c-0.8-0.3-1.5-0.5-2.3-0.5c-0.8,0-1.5,0-2.3,0
			c-3,0.3-6.1,1.5-8.1,4l-0.3-0.3c2.5-3.8,7.8-5.8,12.1-4.5l202.2,57.6c4.3,1.3,7.8,5.8,7.8,10.4l1.5,71.7
			c-0.8-0.3-2.8-46.2-3.5-46.7l-0.5-11.4l-0.5-9.6v-2.5c0-0.8,0-1.8-0.3-2.3c-0.3-1-0.5-2-1.3-3c-0.8-1-1.5-1.8-2.5-2.5
			c-0.5-0.3-1-0.5-1.5-0.8c-0.3,0-1.3-0.3-2-0.5l-9.3-2.5l-18.7-5l-37.4-10.4l-37.1-10.9l-18.4-5.6l-9.3-2.8L337.9,245.2z"/>
		<path class="st5" d="M524.2,277.5c-4.5,1.3-9.3,2.5-13.9,3.5c-4.5,1-9.3,2-14.1,3c-0.8,0-1,0.3-1.5,0.3c-0.5,0-1,0.3-1.3,0.5
			c-1,0.5-1.8,1-2.5,1.8c-0.8,0.8-1.5,1.5-2,2.5c-0.5,1-1,2-1.3,3.3h-0.3l0,0c0-4.5,3.3-9.1,7.6-10.4l83.6-25c3.3-1,7.1,0,9.6,2
			c0.8,0.5,1.5,1.3,2,2c0,0.3,12.1,19.4,12.4,19.7l-9.1-14.4c0,0-2-3.5-3-4.8c-0.8-1-1.8-1.5-2.8-2s-2-0.8-3-1c-1-0.3-2-0.3-3,0
			c-0.5,0-1,0.3-1.5,0.3c-0.5,0.3-0.8,0.3-1.5,0.5c-4.5,1.8-8.8,3.5-13.4,5.3c-4.5,1.8-9.1,3.3-13.4,4.8c-4.5,1.5-9.1,2.8-13.6,4.3
			C533.6,274.7,529,276.2,524.2,277.5z"/>
		<path class="st19" d="M578.5,256.8l-83.6,25c-4.3,1.3-11.1,1.3-15.4,0l-202.2-57.6V224l9.8,2.3l9.8,2.3l19.4,4.5l38.9,9.8l9.8,2.5
			l9.6,2.5l19.4,5.3l38.6,10.9l38.6,11.1l9.6,2.8c2.5,0.8,5.8,0.8,8.8,0.8c1.5,0,3-0.3,4.3-0.8l4.8-1.3l9.6-2.5l38.9-10.4l19.4-5
			l9.8-2.5c1.5-0.5,3.3-0.8,4.3-1.5c0.3-0.3,0.3-0.5,0.3-0.8s-0.3-0.5-0.5-0.8c-0.5-0.5-1.3-0.8-2.3-1V252
			C582.8,253.5,582.8,255.5,578.5,256.8z"/>
	</g>
	<g>
		<path class="st5" d="M431.1,306.3c0,0,3.5,1.3,5.3,3.3c1.5,1.8,3.8,4.5,3.8,4.5l-13.4-3.3l1.5-5.3L431.1,306.3z"/>
		<path class="st5" d="M126.6,272.9c0,0-3.3,0.5-6.6,3c-3,2.5-5.6,6.3-5.6,6.3l13.9-4L126.6,272.9z"/>
		<path class="st5" d="M346.5,422.4c0,0-4,1.5-7.6,1c-3.5-0.5-7.8-1-7.8-1l7.6-7.6L346.5,422.4z"/>
		<path class="st6" d="M338.7,416.6c0,4.5,3.5,7.1,7.8,5.8L474.7,384c4.3-1.3,5.8-5.3,3.5-9.1l-38.1-60.8c-2.3-3.8-7.8-5.8-11.9-4.5
			l-83.6,25c-4.3,1.3-7.6,5.8-7.6,10.4L338.7,416.6z"/>
		<path class="st7" d="M428,309.5c4.3-1.3,4.3-3.3,0-4.5l-196.4-56.3c-4.3-1.3-11.1-1.3-15.4,0l-89.1,24.2c-4.3,1.3-4.3,3,0,4.3
			l202.2,57.3c4.3,1.3,11.1,1.3,15.4,0L428,309.5z"/>
		<path class="st8" d="M115,281.5c2.5-3.8,7.8-5.8,12.1-4.5l202.2,57.6c4.3,1.3,7.8,5.8,7.8,10.4l1.5,71.7c0,4.5-3.3,7.1-7.6,5.8
			L81.9,346.7c-4.3-1.3-5.8-5.3-3.3-9.1L115,281.5z"/>
		<path class="st9" d="M78.7,337.3l15.4-23.7c33.6,20.4,89.9,52.3,132.5,63.4c38.6,9.8,82.5,13.4,111.6,14.4l0.5,25.2
			c0,4.5-3.3,7.1-7.6,5.8L81.9,346.7C77.9,345.1,76.4,341.1,78.7,337.3z"/>
		<path class="st10" d="M78.7,337.3l0.5-0.8c0,2.5,1.5,4.5,4.5,5.3l249.2,75.7c2.3,0.8,4.5,0.3,5.8-1c0,4.3-3.3,7.1-7.6,5.6
			L81.9,346.4C77.9,345.1,76.4,341.1,78.7,337.3z"/>
		<path class="st11" d="M344.7,334.5c0,0-4.8,2.5-5.3,4.3c-0.5,1.5-2.3,6.1-2.3,6.1s-0.5-3.3-2-5c-1.5-1.8-6.1-5-6.1-5
			s5.3,0.3,7.8,0C339.7,334.3,344.7,334.5,344.7,334.5z"/>
		<path class="st12" d="M337.4,354c19.9,19.9,50,30.5,81.5,25.5c18.7-3,35.1-11.1,48.2-22.5l11.1,17.9c2.3,3.8,0.8,7.8-3.5,9.1
			l-128.2,38.4c-4.3,1.3-7.8-1.3-7.8-5.8L337.4,354z"/>
		<path class="st10" d="M478.8,376.2c1.3,3.3-0.5,6.6-4,7.6l-128.2,38.4c-3.3,1-6.1-0.5-7.3-3.3L478.8,376.2z"/>
		<path class="st13" d="M127.1,277c-4.3-1.3-4.3-3,0-4.3l89.1-24.2c4.3-1.3,11.4-1,15.4,0l160.3,45.9c-5,4.5-17.2,8.6-41.9,11.4
			c-30.5,3.3-68.9,4.8-109.8,3.3L127.1,277z"/>
		<path class="st14" d="M231.6,300.7c53.5-0.5,104-4,144.4-8.8c1.5-0.3,3-0.3,4.5-0.5l11.4,3.3c-5,4.5-17.2,8.6-41.9,11.4
			c-30.5,3.3-68.9,4.8-109.8,3.3l-67.4-19.2L231.6,300.7z"/>
		<path class="st15" d="M400.8,341.6c-23.7,3.8-45.2,11.4-63.4,21.2l-0.5-18.2c0-4.5,3.3-9.1,7.6-10.4l83.6-25
			c4.3-1.3,9.6,0.8,11.9,4.5l16.4,26.3C439.1,338.1,420.2,338.6,400.8,341.6z"/>
		<path class="st16" d="M362.4,316.1c18.7-1.5,34.1-8.3,46.4-16.7L428,305c4.3,1.3,4.3,3.3,0,4.5l-83.6,25c-4.3,1.3-11.1,1.3-15.4,0
			l-62.4-17.7C301.6,317.9,339.2,318.1,362.4,316.1z"/>
		<path class="st17" d="M337.7,371.1c-27.5-12.1-71.9-28.8-131.8-40.1c-51-9.8-87.3-15.1-111.3-17.9l20.2-31.3
			c2.5-3.8,7.8-5.8,12.1-4.5l202.5,57.3c4.3,1.3,7.8,5.8,7.8,10.4L337.7,371.1z"/>
		<polygon class="st20" points="290.2,409.8 238.5,394.1 196.3,296.7 231.6,306.8 		"/>
		<path class="st5" d="M187.5,297.7l-36.9-11.6l-18.4-6.1l-4.5-1.5c-0.8-0.3-1.5-0.5-2.3-0.5c-0.8,0-1.5,0-2.3,0
			c-3,0.3-6.1,1.5-8.1,4l-0.3-0.3c2.5-3.8,7.8-5.8,12.1-4.5l202.5,57.3c4.3,1.3,7.8,5.8,7.8,10.4l1.5,71.7
			c-0.8-0.3-2.8-46.2-3.5-46.7l-0.5-11.4l-0.5-9.6v-2.5c0-0.8,0-1.8-0.3-2.3c-0.3-1-0.5-2-1.3-3c-0.8-1-1.5-1.8-2.5-2.5
			c-0.5-0.3-1-0.5-1.5-0.8c-0.3,0-1.3-0.3-2-0.5l-9.3-2.5l-18.7-5l-37.4-10.4l-37.1-10.9l-18.4-5.6l-9.3-2.8L187.5,297.7z"/>
		<path class="st5" d="M373.8,330c-4.5,1.3-9.3,2.5-13.9,3.5s-9.3,2-14.1,3c-0.8,0-1,0.3-1.5,0.3c-0.5,0.3-1,0.3-1.3,0.5
			c-1,0.5-1.8,1-2.5,1.8c-0.8,0.8-1.5,1.5-2,2.5c-0.5,1-1,2-1.3,3.3h-0.3l0,0c0-4.5,3.3-9.1,7.6-10.4l83.6-25c3.3-1,7.1,0,9.6,2
			c0.8,0.5,1.5,1.3,2,2c0,0.3,12.1,19.4,12.1,19.7l-9.1-14.4c0,0-2-3.5-3-4.8c-0.8-1-1.8-1.5-2.8-2c-1-0.5-2-0.8-3-1
			c-1-0.3-2-0.3-3,0c-0.5,0-1,0.3-1.5,0.3c-0.5,0.3-0.8,0.3-1.5,0.5c-4.5,1.8-8.8,3.5-13.4,5.3c-4.5,1.8-9.1,3.3-13.4,4.8
			c-4.5,1.5-9.1,2.8-13.6,4.3C383.1,327.5,378.6,328.7,373.8,330z"/>
		<path class="st19" d="M428,309.5l-83.6,25c-4.3,1.3-11.1,1.3-15.4,0L126.9,277v-0.3l9.8,2.3l9.8,2.3l19.4,4.5l38.9,9.8l9.8,2.5
			l9.6,2.5l19.4,5.3l38.6,10.9L321,328l9.6,2.8c2.5,0.8,5.8,0.8,8.8,0.8c1.5,0,3-0.3,4.3-0.8l4.8-1.3l9.6-2.5l38.9-10.6l19.4-5
			l9.8-2.5c1.5-0.5,3.3-0.8,4.3-1.5c0.3-0.3,0.3-0.5,0.3-0.8c0-0.3-0.3-0.5-0.5-0.8c-0.5-0.5-1.3-0.8-2.3-1v-0.3
			C432.3,306.3,432.3,308.3,428,309.5z"/>
	</g>
	<g>
		<path class="st5" d="M57.2,178.8c0,0-3.5,1.5-5.3,3.5c-1.5,2-3.8,5-3.8,5l13.6-3.8L60,178L57.2,178.8z"/>
		<path class="st5" d="M371,132.1c0,0,3.5,0.5,6.8,3s6.1,6.3,6.1,6.3l-14.6-3.8L371,132.1z"/>
		<path class="st5" d="M149.3,295.7c0,0,4.3,1.5,8.1,0.8c3.5-0.8,8.1-1.5,8.1-1.5l-8.1-7.6L149.3,295.7z"/>
		<path class="st6" d="M157.2,289.3c0,4.5-3.5,7.3-7.8,6.3l-134-34.6c-4.5-1.3-6.3-5.3-4-9.3l36.9-64.6c2.3-4,7.8-6.3,12.1-5
			l87.3,22.5c4.5,1.3,8.1,5.8,8.1,10.4L157.2,289.3z"/>
		<path class="st7" d="M60.5,182.1c-4.5-1.3-4.5-3.3-0.3-4.8l200.9-65.9c4.3-1.5,11.6-1.8,16.2-0.8l93.2,21.5c4.5,1,4.5,3,0.3,4.5
			L164,204.3c-4.3,1.5-11.6,1.8-15.9,0.5L60.5,182.1z"/>
		<path class="st8" d="M383.4,140.7c-2.5-3.8-8.3-5.6-12.6-4.3L164,204c-4.3,1.5-7.8,6.3-7.8,10.9l1.3,74.5c0,4.5,3.8,7.1,8.1,5.6
			l254.7-88.6c4.3-1.5,5.8-5.8,3-9.6L383.4,140.7z"/>
		<path class="st9" d="M423,197l-16.9-24c-33.8,22.5-90.9,57.8-134.6,70.9c-39.6,11.9-84.8,17.2-114.9,19.2l0.5,26.3
			c0,4.5,3.8,7.1,8.1,5.6L420,206.3C424.5,205,425.8,200.7,423,197z"/>
		<path class="st10" d="M423,197l-0.5-0.8c0,2.5-1.5,4.8-4.3,5.8l-254.7,88.4c-2.5,0.8-4.5,0.5-6.1-1c0,4.5,3.8,7.1,8.1,5.6
			l254.7-88.6C424.5,205,425.8,200.7,423,197z"/>
		<path class="st11" d="M147.8,204.5c0,0,5,2.5,5.6,4c0.8,1.8,2.5,6.3,2.5,6.3s0.3-3.5,1.8-5.3c1.5-2,6.1-5.6,6.1-5.6
			s-5.6,0.5-8.3,0.5C152.9,204.5,147.8,204.5,147.8,204.5z"/>
		<path class="st12" d="M156.2,224.7c-19.7,21.5-50.5,33.6-83.3,29.5C53.4,252,36,244.2,22.1,233.1L11.3,252c-2.3,4-0.5,8.1,4,9.3
			l134,34.6c4.5,1.3,8.1-1.8,7.8-6.3L156.2,224.7z"/>
		<path class="st10" d="M10.5,253.3c-1,3.5,0.8,6.8,4.5,7.8l134,34.6c3.5,1,6.3-0.8,7.6-3.5L10.5,253.3z"/>
		<path class="st13" d="M370.7,136.6c4.3-1.5,4.3-3.5-0.3-4.5l-93.2-21.5c-4.5-1-11.6-0.8-16.2,0.8l-163.8,54
			c5.6,4.3,17.9,8.3,43.9,10.1c31.8,2,71.7,2,113.9-1L370.7,136.6z"/>
		<path class="st14" d="M263.4,165.1c-55.3,1.5-107.8,0-149.7-3.3c-1.5,0-3-0.3-4.5-0.5l-11.6,3.8c5.6,4.3,17.9,8.3,43.9,10.1
			c31.8,2,71.7,2,113.9-1l68.9-22.5L263.4,165.1z"/>
		<path class="st15" d="M90,214.4c24.5,3,47.2,9.8,66.4,19.4l-0.3-18.7c0-4.5-3.8-9.3-8.1-10.4l-87.3-22.5c-4.5-1.3-9.8,1.3-12.1,5
			l-15.9,27.8C50.4,212.4,69.8,211.8,90,214.4z"/>
		<path class="st16" d="M128.6,186.4c-19.4-1-35.6-7.3-48.7-15.4l-19.7,6.6c-4.3,1.5-4.3,3.5,0.3,4.8l87.3,22.5
			c4.5,1.3,11.6,1,15.9-0.5l63.6-20.7C191.8,185.6,152.9,187.4,128.6,186.4z"/>
		<path class="st17" d="M156.4,242.4c28-13.6,73.5-32.6,134.8-47c52.3-12.1,89.6-19.2,114.4-23.2l-22.2-31.6
			c-2.5-3.8-8.3-5.6-12.6-4.3L164,204c-4.3,1.5-7.8,6.3-7.8,10.9L156.4,242.4z"/>
		<polygon class="st18" points="207.2,280.5 259.9,262.1 299.8,159.6 263.7,171.5 		"/>
		<path class="st5" d="M309.1,160.4l37.6-13.6l18.7-7.1l4.8-1.8c0.8-0.3,1.5-0.5,2.3-0.8c0.8-0.3,1.5-0.3,2.3-0.3
			c3,0,6.3,1.3,8.3,3.8l0.3-0.3c-2.5-3.8-8.3-5.6-12.6-4.3L164,203.8c-4.3,1.5-7.8,6.3-7.8,10.9l1.3,74.5c0.8-0.5,1-48,1.8-48.5
			l0.3-11.9v-10.1v-2.5c0-0.8,0-1.8,0-2.3c0-1,0.5-2.3,1.3-3.3c0.8-1,1.5-2,2.5-2.5c0.5-0.3,1-0.5,1.5-0.8c0.3,0,1.3-0.5,2-0.5
			l9.6-3l19.2-6.1l38.1-12.1l38.1-12.6l18.9-6.6l9.6-3.3L309.1,160.4z"/>
		<path class="st5" d="M117.5,201.2c4.8,1,9.6,2.3,14.4,3c4.8,1,9.8,1.8,14.6,2.5c0.8,0,1,0.3,1.5,0.3s1,0.3,1.5,0.5
			c1,0.5,1.8,1,2.8,1.8c0.8,0.8,1.5,1.5,2.3,2.5c0.5,1,1,2,1.3,3.3h0.3l0,0c0-4.5-3.8-9.3-8.1-10.4l-87.3-22.5
			c-3.3-0.8-7.3,0.3-9.8,2.5c-0.8,0.5-1.5,1.3-2,2c0,0.3-11.9,20.7-11.9,20.7l8.8-15.1c0,0,2-3.8,2.8-5c0.8-1,1.8-1.8,2.8-2.3
			c1-0.5,2-1,3-1.3s2.3-0.3,3.3-0.3c0.5,0,1,0.3,1.5,0.3c0.5,0.3,0.8,0.3,1.5,0.5c4.5,1.8,9.3,3.3,14.1,4.8c4.8,1.5,9.3,3,14.1,4.3
			c4.8,1.3,9.6,2.5,14.4,3.8C107.9,199,112.5,200.2,117.5,201.2z"/>
		<path class="st19" d="M60.5,182.1l87.3,22.5c4.5,1.3,11.6,1,15.9-0.5l206.8-67.7v-0.3l-10.1,2.8l-10.1,2.8l-19.9,5.6l-39.9,11.9
			l-9.8,3l-9.8,3l-19.9,6.3l-39.6,12.6l-39.4,13.1l-9.8,3.3c-2.5,0.8-6.1,1-9.1,1c-1.5,0-3-0.3-4.3-0.5l-5-1.3l-10.1-2.3l-40.6-9.3
			l-20.4-4.3l-10.1-2.3c-1.8-0.3-3.5-0.5-4.5-1.5c-0.3-0.3-0.3-0.5-0.3-0.8c0-0.3,0.3-0.5,0.5-0.8c0.5-0.5,1.5-0.8,2.3-1.3V177
			C55.9,179,55.9,181.1,60.5,182.1z"/>
	</g>
	<g>
		<path class="st5" d="M222.5,215.6c0,0-3.5,1.5-5.3,3.5c-1.5,2-3.8,5-3.8,5l13.6-3.8l-1.8-5.6L222.5,215.6z"/>
		<path class="st5" d="M536.3,168.9c0,0,3.5,0.5,6.8,3c3.3,2.5,6.1,6.3,6.1,6.3l-14.6-3.8L536.3,168.9z"/>
		<path class="st5" d="M314.7,332.3c0,0,4.3,1.5,8.1,0.8c3.5-0.8,8.1-1.5,8.1-1.5l-8.1-7.6L314.7,332.3z"/>
		<path class="st6" d="M322.5,326c0,4.5-3.5,7.3-7.8,6.3l-134.3-34.3c-4.5-1.3-6.3-5.3-4-9.3l36.9-64.6c2.3-4,7.8-6.3,12.1-5
			l87.3,22.5c4.5,1.3,8.1,5.8,8.3,10.4L322.5,326z"/>
		<path class="st7" d="M225.8,218.9c-4.5-1.3-4.5-3.3-0.3-4.8L426.5,148c4.3-1.5,11.6-1.8,16.2-0.8l93.2,21.5c4.5,1,4.5,3,0.3,4.5
			l-206.8,67.7c-4.3,1.5-11.6,1.8-15.9,0.5L225.8,218.9z"/>
		<path class="st8" d="M548.7,177.3c-2.5-3.8-8.3-5.6-12.6-4.3l-206.8,67.7c-4.3,1.5-7.8,6.3-7.8,10.9l1.3,74.5
			c0,4.5,3.8,7.1,8.1,5.6l254.7-88.6c4.3-1.5,5.8-5.8,3-9.6L548.7,177.3z"/>
		<path class="st9" d="M588.3,233.6l-16.9-24c-33.8,22.5-90.9,57.8-134.6,70.9c-39.6,11.9-84.8,17.2-114.9,19.2l0.5,26.3
			c0,4.5,3.8,7.1,8.1,5.6l254.7-88.6C589.6,241.6,590.9,237.3,588.3,233.6z"/>
		<path class="st10" d="M588.3,233.6l-0.5-0.8c0,2.5-1.5,4.8-4.3,5.8l-255,88.4c-2.5,0.8-4.5,0.5-6.1-1c0,4.5,3.8,7.1,8.1,5.6
			l254.7-88.6C589.6,241.6,590.9,237.3,588.3,233.6z"/>
		<path class="st11" d="M312.9,241.4c0,0,5,2.5,5.6,4c0.8,1.8,2.5,6.3,2.5,6.3s0.3-3.5,1.8-5.3c1.5-2,6.1-5.6,6.1-5.6
			s-5.6,0.5-8.3,0.5C318.2,241.1,312.9,241.4,312.9,241.4z"/>
		<path class="st12" d="M321.5,261.3c-19.7,21.5-50.5,33.6-83.3,29.5c-19.4-2.3-36.9-10.1-50.7-21.2l-10.9,18.9
			c-2.3,4-0.5,8.1,4,9.3l134,34.6c4.5,1.3,8.1-1.8,7.8-6.3L321.5,261.3z"/>
		<path class="st10" d="M175.8,290.1c-1,3.5,0.8,6.8,4.5,7.8l134,34.6c3.5,1,6.3-0.8,7.6-3.5L175.8,290.1z"/>
		<path class="st13" d="M535.8,173.2c4.3-1.5,4.3-3.5-0.3-4.5l-93.2-21.5c-4.5-1-11.6-0.8-16.2,0.8l-163.8,54
			c5.6,4.3,17.9,8.3,43.9,10.1c31.8,2,71.7,2,113.9-1L535.8,173.2z"/>
		<path class="st14" d="M428.5,202c-55.3,1.5-107.8,0-149.7-3.3c-1.5-0.3-3-0.3-4.5-0.5l-11.6,3.8c5.6,4.3,17.9,8.3,43.9,10.1
			c31.8,2,71.7,2,113.9-1l68.9-22.5L428.5,202z"/>
		<path class="st15" d="M255.4,251c24.5,3,47.2,9.8,66.4,19.4l-0.3-18.7c0-4.5-3.8-9.3-8.3-10.4l-87.3-22.5c-4.5-1.3-9.8,1.3-12.1,5
			l-15.9,27.8C215.5,249,235.2,248.5,255.4,251z"/>
		<path class="st16" d="M294,223c-19.4-1-35.6-7.3-48.7-15.4l-19.7,6.6c-4.3,1.5-4.3,3.5,0.3,4.8l87.3,22.5c4.5,1.3,11.6,1,15.9-0.5
			l63.6-20.7C356.8,222.2,318.2,224.2,294,223z"/>
		<path class="st17" d="M321.8,279c28-13.6,73.5-32.6,134.8-47c52.3-12.1,89.6-19.2,114.4-23.2l-22.2-31.6
			c-2.5-3.8-8.3-5.6-12.6-4.3l-206.8,67.7c-4.3,1.5-7.8,6.3-7.8,10.9L321.8,279z"/>
		<polygon class="st20" points="372.5,317.1 425.3,298.7 464.9,196.5 429,208.1 		"/>
		<path class="st5" d="M474.5,197l37.6-13.6l18.7-7.1l4.8-1.8c0.8-0.3,1.5-0.5,2.3-0.8c0.8-0.3,1.5-0.3,2.3-0.3c3,0,6.3,1.3,8.3,3.8
			l0.3-0.3c-2.5-3.8-8.3-5.6-12.6-4.3l-206.8,67.7c-4.3,1.5-7.8,6.3-7.8,10.9l1.3,74.5c0.8-0.5,1-48,1.8-48.5l0.3-11.9v-10.1v-2.5
			c0-0.8,0-1.8,0-2.3c0-1,0.5-2.3,1.3-3.3c0.8-1,1.5-2,2.5-2.5c0.5-0.3,1-0.5,1.5-0.8c0.3,0,1.3-0.5,2-0.5l9.6-3l19.2-6.1l38.1-12.1
			l38.1-12.6l18.9-6.6l9.6-3.3L474.5,197z"/>
		<path class="st5" d="M282.6,237.9c4.8,1,9.6,2.3,14.4,3c4.8,1,9.8,1.8,14.6,2.5c0.8,0,1,0.3,1.5,0.3c0.5,0,1,0.3,1.5,0.5
			c1,0.5,1.8,1,2.8,1.8c0.8,0.8,1.5,1.5,2.3,2.5c0.5,1,1,2,1.3,3.3h0.3l0,0c0-4.5-3.8-9.3-8.3-10.4l-87.3-22.5
			c-3.3-0.8-7.3,0.3-9.8,2.5c-0.8,0.5-1.5,1.3-2,2.3c0,0.3-11.9,20.7-11.9,20.7l8.8-15.1c0,0,2-3.8,2.8-5c0.8-1,1.8-1.8,2.8-2.3
			c1-0.5,2-1,3.3-1.3c1-0.3,2.3-0.3,3.3-0.3c0.5,0,1,0.3,1.5,0.3c0.5,0.3,0.8,0.3,1.5,0.5c4.5,1.8,9.3,3.3,14.1,4.8
			c4.8,1.5,9.3,3,14.1,4.3c4.8,1.3,9.6,2.5,14.4,3.8C273,235.6,277.8,236.8,282.6,237.9z"/>
		<path class="st19" d="M225.8,218.9l87.3,22.5c4.5,1.3,11.6,1,15.9-0.5l206.8-67.7V173l-10.1,2.8l-10.1,2.8l-19.9,5.6l-39.9,11.9
			l-9.8,3l-9.8,3l-19.9,6.3l-39.6,12.6l-39.4,13.1l-9.8,3.3c-2.5,0.8-6.1,1-9.1,1c-1.5,0-3-0.3-4.3-0.5l-5-1.3l-10.1-2.3l-40.6-9.3
			l-20.4-4.3l-10.1-2.3c-1.8-0.3-3.5-0.5-4.5-1.5c-0.3-0.3-0.3-0.5-0.3-0.8c0-0.3,0.3-0.5,0.5-0.8c0.5-0.5,1.5-0.8,2.3-1.3v-0.3
			C221.3,215.6,221.3,217.7,225.8,218.9z"/>
	</g>
	<g>
		<path class="st5" d="M469.9,115.2c0,0,3.5,1.3,5.3,3.3c1.5,1.8,3.8,4.5,3.8,4.5l-13.4-3.3l1.5-5.3L469.9,115.2z"/>
		<path class="st5" d="M165.5,81.8c0,0-3.3,0.5-6.6,3c-3,2.5-5.6,6.3-5.6,6.3l13.9-4L165.5,81.8z"/>
		<path class="st5" d="M385.4,231.3c0,0-4,1.5-7.6,1c-3.5-0.5-7.8-1-7.8-1l7.6-7.6L385.4,231.3z"/>
		<path class="st6" d="M377.6,225.5c0,4.5,3.5,7.1,7.8,5.8l128.2-38.4c4.3-1.3,5.8-5.3,3.5-9.1L479,123c-2.3-3.8-7.8-5.8-11.9-4.5
			l-83.6,25c-4.3,1.3-7.6,5.8-7.6,10.4L377.6,225.5z"/>
		<path class="st7" d="M466.9,118.4c4.3-1.3,4.3-3.3,0-4.5L270.5,57.6c-4.3-1.3-11.1-1.3-15.4,0L166,81.8c-4.3,1.3-4.3,3,0,4.3
			l202.2,57.6c4.3,1.3,11.1,1.3,15.4,0L466.9,118.4z"/>
		<path class="st8" d="M153.9,90.4c2.5-3.8,7.8-5.8,12.1-4.5l202.2,57.6c4.3,1.3,7.8,5.8,7.8,10.4l1.5,71.7c0,4.5-3.3,7.1-7.6,5.8
			l-249.2-75.7c-4.3-1.3-5.8-5.3-3.3-9.1L153.9,90.4z"/>
		<path class="st9" d="M117.5,146.2l15.4-23.7c33.6,20.4,89.9,52.3,132.5,63.4c38.6,10.1,82.5,13.4,111.6,14.4l0.5,25.2
			c0,4.5-3.3,7.1-7.6,5.8l-249.2-75.7C116.8,154,115.3,150,117.5,146.2z"/>
		<path class="st10" d="M117.5,146.2l0.5-0.8c0,2.5,1.5,4.5,4.5,5.3l249.2,75.7c2.3,0.8,4.5,0.3,5.8-1c0,4.3-3.3,7.1-7.6,5.6
			l-249.2-75.7C116.8,154,115.3,150,117.5,146.2z"/>
		<path class="st11" d="M383.6,143.4c0,0-4.8,2.5-5.3,4.3c-0.5,1.5-2.3,6.1-2.3,6.1s-0.5-3.3-2-5c-1.5-1.8-6.1-5-6.1-5
			s5.3,0.3,7.8,0C378.6,143.4,383.6,143.4,383.6,143.4z"/>
		<path class="st12" d="M376.3,162.9c19.9,19.9,50,30.5,81.5,25.5c18.7-3,35.1-11.1,48.2-22.5l11.1,17.9c2.3,3.8,0.8,7.8-3.5,9.1
			l-128.2,38.4c-4.3,1.3-7.8-1.3-7.8-5.8L376.3,162.9z"/>
		<path class="st10" d="M517.7,185.1c1.3,3.3-0.5,6.6-4,7.6L385.4,231c-3.3,1-6.3-0.5-7.3-3L517.7,185.1z"/>
		<path class="st13" d="M166,85.9c-4.3-1.3-4.3-3,0-4.3l89.1-24.2c4.3-1.3,11.4-1,15.4,0l160.3,45.9c-5,4.5-17.2,8.6-41.9,11.4
			c-30.5,3.3-69.2,4.8-109.8,3.3L166,85.9z"/>
		<path class="st14" d="M270.5,109.6c53.5-0.5,104-4,144.4-8.8c1.5-0.3,3-0.3,4.5-0.5l11.4,3.3c-5,4.5-17.2,8.6-41.9,11.4
			c-30.5,3.3-69.2,4.8-109.8,3.3L211.7,99L270.5,109.6z"/>
		<path class="st15" d="M439.7,150.5c-23.7,3.8-45.2,11.4-63.4,21.2l-0.5-18.2c0-4.5,3.3-9.1,7.6-10.4l83.6-25
			c4.3-1.3,9.6,0.8,11.9,4.5l16.4,26.3C477.8,147,459.1,147.5,439.7,150.5z"/>
		<path class="st16" d="M401.3,125c18.7-1.5,34.1-8.3,46.4-16.7l19.2,5.6c4.3,1.3,4.3,3.3,0,4.5l-83.6,25c-4.3,1.3-11.1,1.3-15.4,0
			l-62.4-17.7C340.4,126.8,377.8,127,401.3,125z"/>
		<path class="st17" d="M376.5,180c-27.5-12.1-71.9-28.8-131.8-40.1c-51-9.8-87.3-15.1-111.3-17.9l20.2-31.3
			c2.5-3.8,7.8-5.8,12.1-4.5L368,143.7c4.3,1.3,7.8,5.8,7.8,10.4L376.5,180z"/>
		<polygon class="st20" points="329.1,218.7 277.3,203 235.2,105.6 270.3,115.7 		"/>
		<path class="st5" d="M226.1,106.6L189.2,95l-18.4-6.1l-4.5-1.8c-0.8-0.3-1.5-0.5-2.3-0.5s-1.5,0-2.3,0c-3,0.3-6.1,1.5-8.1,4
			l-0.3-0.3c2.5-3.8,7.8-5.8,12.1-4.5l202.2,57.6c4.3,1.3,7.8,5.8,7.8,10.4l1.5,71.7c-0.8-0.3-2.8-46.2-3.5-46.7l-0.5-11.4l-0.5-9.6
			v-2.5c0-0.8,0-1.8-0.3-2.3c-0.3-1-0.5-2-1.3-3c-0.8-1-1.5-1.8-2.5-2.5c-0.5-0.3-1-0.5-1.5-0.8c-0.3,0-1.3-0.3-2-0.5l-9.3-2.5
			l-18.7-5l-37.4-10.4l-37.1-10.9l-18.4-5.6l-9.3-2.8L226.1,106.6z"/>
		<path class="st5" d="M412.6,138.9c-4.5,1.3-9.3,2.5-13.9,3.5c-4.5,1-9.3,2-14.1,3c-0.8,0-1,0.3-1.5,0.3c-0.5,0.3-1,0.3-1.3,0.5
			c-1,0.5-1.8,1-2.5,1.8c-0.8,0.8-1.5,1.5-2,2.5c-0.5,1-1,2-1.3,3.3h-0.3l0,0c0-4.5,3.3-9.1,7.6-10.4l83.6-25c3.3-1,7.1,0,9.6,2
			c0.8,0.5,1.5,1.3,2,2c0,0.3,12.1,19.4,12.1,19.7l-9.1-14.4c0,0-2-3.5-3-4.8c-0.8-1-1.8-1.5-2.8-2c-1-0.5-2-0.8-3-1s-2-0.3-3,0
			c-0.5,0-1,0.3-1.5,0.3c-0.5,0.3-0.8,0.3-1.5,0.5c-4.5,1.8-8.8,3.5-13.4,5.3s-9.1,3.3-13.4,4.8c-4.5,1.5-9.1,2.8-13.6,4.3
			C422,136.4,417.4,137.6,412.6,138.9z"/>
		<path class="st19" d="M466.9,118.4l-83.6,25c-4.3,1.3-11.1,1.3-15.4,0L166,85.9v-0.3l9.8,2.3l9.8,2.3l19.4,4.5l38.9,9.8l9.8,2.5
			l9.6,2.5l19.4,5.3l38.6,10.9l38.6,11.1l9.6,2.8c2.5,0.8,5.8,0.8,8.8,0.8c1.5,0,3-0.3,4.3-0.8l4.8-1.3l9.6-2.5l38.9-10.4l19.4-5
			l9.8-2.5c1.5-0.5,3.3-0.8,4.3-1.5c0.3-0.3,0.3-0.5,0.3-0.8c0-0.3-0.3-0.5-0.5-0.8c-0.5-0.5-1.3-0.8-2.3-1v-0.3
			C471.2,115.2,471.2,117.2,466.9,118.4z"/>
	</g>
</g>
</svg>
